<?xml version="1.0" encoding="utf-8" standalone="no"?>
<!DOCTYPE svg PUBLIC "-//W3C//DTD SVG 1.1//EN"
  "http://www.w3.org/Graphics/SVG/1.1/DTD/svg11.dtd">
<svg xmlns:xlink="http://www.w3.org/1999/xlink" width="712.579375pt" height="423.711562pt" viewBox="0 0 712.579375 423.711562" xmlns="http://www.w3.org/2000/svg" version="1.1">
 <metadata>
  <rdf:RDF xmlns:dc="http://purl.org/dc/elements/1.1/" xmlns:cc="http://creativecommons.org/ns#" xmlns:rdf="http://www.w3.org/1999/02/22-rdf-syntax-ns#">
   <cc:Work>
    <dc:type rdf:resource="http://purl.org/dc/dcmitype/StillImage"/>
    <dc:date>2025-04-15T18:19:09.492188</dc:date>
    <dc:format>image/svg+xml</dc:format>
    <dc:creator>
     <cc:Agent>
      <dc:title>Matplotlib v3.10.0, https://matplotlib.org/</dc:title>
     </cc:Agent>
    </dc:creator>
   </cc:Work>
  </rdf:RDF>
 </metadata>
 <defs>
  <style type="text/css">*{stroke-linejoin: round; stroke-linecap: butt}</style>
 </defs>
 <g id="figure_1">
  <g id="patch_1">
   <path d="M 0 423.711562 
L 712.579375 423.711562 
L 712.579375 0 
L 0 0 
z
" style="fill: #ffffff"/>
  </g>
  <g id="axes_1">
   <g id="patch_2">
    <path d="M 28.496875 392.44125 
L 705.379375 392.44125 
L 705.379375 27.1375 
L 28.496875 27.1375 
z
" style="fill: #eeeeee"/>
   </g>
   <g id="matplotlib.axis_1">
    <g id="xtick_1">
     <g id="line2d_1">
      <path d="M 58.983409 392.44125 
L 58.983409 27.1375 
" clip-path="url(#p70bdd875c3)" style="fill: none; stroke-dasharray: 1.85,0.8; stroke-dashoffset: 0; stroke: #b2b2b2; stroke-opacity: 0.3; stroke-width: 0.5"/>
     </g>
     <g id="line2d_2">
      <defs>
       <path id="m6a8931d67d" d="M 0 0 
L 0 -3.5 
" style="stroke: #000000; stroke-width: 0.8"/>
      </defs>
      <g>
       <use xlink:href="#m6a8931d67d" x="58.983409" y="392.44125" style="stroke: #000000; stroke-width: 0.8"/>
      </g>
     </g>
     <g id="text_1">
      <!-- 0 -->
      <g transform="translate(56.733409 402.12875) scale(0.09 -0.09)">
       <defs>
        <path id="SimHei-30" d="M 225 2537 
Q 250 3200 412 3587 
Q 575 3975 875 4225 
Q 1175 4475 1612 4475 
Q 2050 4475 2375 4112 
Q 2700 3750 2800 3200 
Q 2900 2650 2862 1937 
Q 2825 1225 2612 775 
Q 2400 325 1975 150 
Q 1550 -25 1125 187 
Q 700 400 525 750 
Q 350 1100 275 1487 
Q 200 1875 225 2537 
z
M 750 2687 
Q 675 2000 800 1462 
Q 925 925 1212 700 
Q 1500 475 1800 612 
Q 2100 750 2237 1162 
Q 2375 1575 2375 2062 
Q 2375 2550 2337 2950 
Q 2300 3350 2112 3675 
Q 1925 4000 1612 4012 
Q 1300 4025 1062 3700 
Q 825 3375 750 2687 
z
" transform="scale(0.015625)"/>
       </defs>
       <use xlink:href="#SimHei-30"/>
      </g>
     </g>
    </g>
    <g id="xtick_2">
     <g id="line2d_3">
      <path d="M 199.409636 392.44125 
L 199.409636 27.1375 
" clip-path="url(#p70bdd875c3)" style="fill: none; stroke-dasharray: 1.85,0.8; stroke-dashoffset: 0; stroke: #b2b2b2; stroke-opacity: 0.3; stroke-width: 0.5"/>
     </g>
     <g id="line2d_4">
      <g>
       <use xlink:href="#m6a8931d67d" x="199.409636" y="392.44125" style="stroke: #000000; stroke-width: 0.8"/>
      </g>
     </g>
     <g id="text_2">
      <!-- 500 -->
      <g transform="translate(192.659636 402.12875) scale(0.09 -0.09)">
       <defs>
        <path id="SimHei-35" d="M 550 1325 
Q 725 650 1150 575 
Q 1575 500 1837 662 
Q 2100 825 2212 1087 
Q 2325 1350 2312 1675 
Q 2300 2000 2137 2225 
Q 1975 2450 1725 2525 
Q 1475 2600 1162 2525 
Q 850 2450 650 2175 
L 225 2225 
Q 275 2375 700 4375 
L 2675 4375 
L 2675 3925 
L 1075 3925 
Q 950 3250 825 2850 
Q 1200 3025 1525 3012 
Q 1850 3000 2150 2862 
Q 2450 2725 2587 2487 
Q 2725 2250 2787 2012 
Q 2850 1775 2837 1500 
Q 2825 1225 2725 937 
Q 2625 650 2425 462 
Q 2225 275 1937 162 
Q 1650 50 1275 75 
Q 900 100 562 350 
Q 225 600 100 1200 
L 550 1325 
z
" transform="scale(0.015625)"/>
       </defs>
       <use xlink:href="#SimHei-35"/>
       <use xlink:href="#SimHei-30" transform="translate(50 0)"/>
       <use xlink:href="#SimHei-30" transform="translate(100 0)"/>
      </g>
     </g>
    </g>
    <g id="xtick_3">
     <g id="line2d_5">
      <path d="M 339.835863 392.44125 
L 339.835863 27.1375 
" clip-path="url(#p70bdd875c3)" style="fill: none; stroke-dasharray: 1.85,0.8; stroke-dashoffset: 0; stroke: #b2b2b2; stroke-opacity: 0.3; stroke-width: 0.5"/>
     </g>
     <g id="line2d_6">
      <g>
       <use xlink:href="#m6a8931d67d" x="339.835863" y="392.44125" style="stroke: #000000; stroke-width: 0.8"/>
      </g>
     </g>
     <g id="text_3">
      <!-- 1000 -->
      <g transform="translate(330.835863 402.12875) scale(0.09 -0.09)">
       <defs>
        <path id="SimHei-31" d="M 1400 3600 
Q 1075 3275 575 2975 
L 575 3450 
Q 1200 3875 1600 4450 
L 1900 4450 
L 1900 150 
L 1400 150 
L 1400 3600 
z
" transform="scale(0.015625)"/>
       </defs>
       <use xlink:href="#SimHei-31"/>
       <use xlink:href="#SimHei-30" transform="translate(50 0)"/>
       <use xlink:href="#SimHei-30" transform="translate(100 0)"/>
       <use xlink:href="#SimHei-30" transform="translate(150 0)"/>
      </g>
     </g>
    </g>
    <g id="xtick_4">
     <g id="line2d_7">
      <path d="M 480.26209 392.44125 
L 480.26209 27.1375 
" clip-path="url(#p70bdd875c3)" style="fill: none; stroke-dasharray: 1.85,0.8; stroke-dashoffset: 0; stroke: #b2b2b2; stroke-opacity: 0.3; stroke-width: 0.5"/>
     </g>
     <g id="line2d_8">
      <g>
       <use xlink:href="#m6a8931d67d" x="480.26209" y="392.44125" style="stroke: #000000; stroke-width: 0.8"/>
      </g>
     </g>
     <g id="text_4">
      <!-- 1500 -->
      <g transform="translate(471.26209 402.12875) scale(0.09 -0.09)">
       <use xlink:href="#SimHei-31"/>
       <use xlink:href="#SimHei-35" transform="translate(50 0)"/>
       <use xlink:href="#SimHei-30" transform="translate(100 0)"/>
       <use xlink:href="#SimHei-30" transform="translate(150 0)"/>
      </g>
     </g>
    </g>
    <g id="xtick_5">
     <g id="line2d_9">
      <path d="M 620.688317 392.44125 
L 620.688317 27.1375 
" clip-path="url(#p70bdd875c3)" style="fill: none; stroke-dasharray: 1.85,0.8; stroke-dashoffset: 0; stroke: #b2b2b2; stroke-opacity: 0.3; stroke-width: 0.5"/>
     </g>
     <g id="line2d_10">
      <g>
       <use xlink:href="#m6a8931d67d" x="620.688317" y="392.44125" style="stroke: #000000; stroke-width: 0.8"/>
      </g>
     </g>
     <g id="text_5">
      <!-- 2000 -->
      <g transform="translate(611.688317 402.12875) scale(0.09 -0.09)">
       <defs>
        <path id="SimHei-32" d="M 300 250 
Q 325 625 650 925 
Q 975 1225 1475 1862 
Q 1975 2500 2125 2850 
Q 2275 3200 2237 3450 
Q 2200 3700 2000 3862 
Q 1800 4025 1537 4000 
Q 1275 3975 1037 3800 
Q 800 3625 675 3275 
L 200 3350 
Q 400 3925 712 4187 
Q 1025 4450 1450 4475 
Q 1700 4500 1900 4462 
Q 2100 4425 2312 4287 
Q 2525 4150 2662 3875 
Q 2800 3600 2762 3212 
Q 2725 2825 2375 2287 
Q 2025 1750 1025 600 
L 2825 600 
L 2825 150 
L 300 150 
L 300 250 
z
" transform="scale(0.015625)"/>
       </defs>
       <use xlink:href="#SimHei-32"/>
       <use xlink:href="#SimHei-30" transform="translate(50 0)"/>
       <use xlink:href="#SimHei-30" transform="translate(100 0)"/>
       <use xlink:href="#SimHei-30" transform="translate(150 0)"/>
      </g>
     </g>
    </g>
    <g id="text_6">
     <!-- 时间 / 序号 -->
     <g transform="translate(339.438125 415.261562) scale(0.1 -0.1)">
      <defs>
       <path id="SimHei-65f6" d="M 2525 4575 
Q 2500 3675 2500 2400 
Q 2500 1125 2525 400 
L 2000 400 
L 2000 875 
L 1000 875 
L 1000 50 
L 475 50 
Q 500 1200 500 2350 
Q 500 3525 475 4575 
L 2525 4575 
z
M 4875 3825 
Q 4875 4575 4850 5225 
L 5400 5225 
Q 5375 4575 5375 3825 
Q 5750 3825 6175 3850 
L 6175 3375 
Q 5750 3400 5375 3400 
L 5375 50 
Q 5375 -325 5075 -425 
Q 4775 -525 4300 -575 
Q 4300 -275 4025 0 
Q 4500 -50 4687 -25 
Q 4875 0 4875 300 
L 4875 3400 
Q 3625 3400 2775 3375 
L 2775 3850 
Q 3575 3825 4875 3825 
z
M 2000 1300 
L 2000 2550 
L 1000 2550 
L 1000 1300 
L 2000 1300 
z
M 2000 2975 
L 2000 4150 
L 1000 4150 
L 1000 2975 
L 2000 2975 
z
M 3550 2725 
Q 3875 2200 4175 1600 
Q 3925 1525 3650 1375 
Q 3450 1975 3075 2500 
Q 3300 2600 3550 2725 
z
" transform="scale(0.015625)"/>
       <path id="SimHei-95f4" d="M 4450 3550 
Q 4425 3075 4425 2725 
L 4425 1400 
Q 4425 1075 4450 625 
L 1925 625 
Q 1950 1075 1950 1425 
L 1950 2725 
Q 1950 3075 1925 3550 
L 4450 3550 
z
M 5800 4875 
Q 5775 4400 5775 3925 
L 5775 250 
Q 5800 -325 5462 -450 
Q 5125 -575 4725 -625 
Q 4700 -325 4525 -25 
Q 5000 -50 5137 25 
Q 5275 100 5275 350 
L 5275 4450 
L 3775 4450 
Q 3175 4450 2650 4425 
L 2650 4900 
Q 3175 4875 3775 4875 
L 5800 4875 
z
M 550 -525 
Q 600 -25 600 525 
L 600 3150 
Q 600 3675 550 4025 
L 1125 4025 
Q 1100 3650 1100 3300 
L 1100 500 
Q 1100 0 1125 -525 
L 550 -525 
z
M 3950 1025 
L 3950 1950 
L 2425 1950 
L 2425 1025 
L 3950 1025 
z
M 3950 2350 
L 3950 3150 
L 2425 3150 
L 2425 2350 
L 3950 2350 
z
M 1525 5300 
Q 1750 5000 2225 4350 
Q 1950 4225 1700 4075 
Q 1450 4575 1075 5025 
Q 1350 5225 1525 5300 
z
" transform="scale(0.015625)"/>
       <path id="SimHei-20" transform="scale(0.015625)"/>
       <path id="SimHei-2f" d="M 3000 4550 
L 350 -175 
L 100 -25 
L 2750 4700 
L 3000 4550 
z
" transform="scale(0.015625)"/>
       <path id="SimHei-5e8f" d="M 4000 2075 
L 5975 2075 
Q 5750 1525 5575 1025 
Q 5325 1100 5050 1150 
Q 5175 1450 5275 1700 
L 4050 1700 
L 4050 150 
Q 4050 -375 3762 -462 
Q 3475 -550 2950 -575 
Q 2875 -300 2750 0 
Q 3350 -75 3475 25 
Q 3600 125 3575 375 
L 3575 1700 
L 2450 1700 
Q 2050 1700 1675 1675 
L 1675 2100 
Q 2100 2075 2425 2075 
L 3675 2075 
Q 3325 2400 2875 2775 
Q 2975 2875 3250 3100 
Q 3400 2975 3725 2725 
L 4575 3275 
L 3000 3275 
Q 2400 3275 1950 3250 
L 1950 3700 
Q 2400 3675 3000 3675 
L 5400 3675 
L 5400 3250 
Q 4700 2875 4025 2450 
L 4275 2250 
L 4000 2075 
z
M 3725 5275 
Q 3825 4925 3925 4525 
L 4850 4525 
Q 5425 4525 6000 4550 
L 6000 4125 
Q 5425 4150 4850 4150 
L 1400 4150 
Q 1400 2750 1362 2137 
Q 1325 1525 1200 887 
Q 1075 250 775 -350 
Q 625 -250 250 -125 
Q 475 300 600 700 
Q 725 1100 800 1637 
Q 875 2175 875 2825 
Q 875 3500 850 4525 
L 3350 4525 
Q 3275 4825 3150 5150 
Q 3425 5200 3725 5275 
z
" transform="scale(0.015625)"/>
       <path id="SimHei-53f7" d="M 5025 4925 
Q 5000 4550 5000 4075 
Q 5000 3600 5025 3175 
L 1400 3175 
Q 1425 3525 1425 4000 
Q 1425 4500 1400 4925 
L 5025 4925 
z
M 5175 2625 
Q 5650 2625 6025 2650 
L 6025 2200 
Q 5650 2225 5175 2225 
L 2450 2225 
Q 2350 1875 2225 1450 
L 5175 1450 
Q 5100 1050 5062 775 
Q 5025 500 4950 112 
Q 4875 -275 4650 -412 
Q 4425 -550 3225 -625 
Q 3125 -350 2975 -50 
Q 3875 -75 4112 -50 
Q 4350 -25 4425 212 
Q 4500 450 4575 1025 
L 1600 1025 
Q 1825 1625 1950 2225 
L 1350 2225 
Q 825 2225 375 2200 
L 375 2650 
Q 825 2625 1350 2625 
L 5175 2625 
z
M 4525 3575 
L 4525 4525 
L 1900 4525 
L 1900 3575 
L 4525 3575 
z
" transform="scale(0.015625)"/>
      </defs>
      <use xlink:href="#SimHei-65f6"/>
      <use xlink:href="#SimHei-95f4" transform="translate(100 0)"/>
      <use xlink:href="#SimHei-20" transform="translate(200 0)"/>
      <use xlink:href="#SimHei-2f" transform="translate(250 0)"/>
      <use xlink:href="#SimHei-20" transform="translate(300 0)"/>
      <use xlink:href="#SimHei-5e8f" transform="translate(350 0)"/>
      <use xlink:href="#SimHei-53f7" transform="translate(450 0)"/>
     </g>
    </g>
   </g>
   <g id="matplotlib.axis_2">
    <g id="ytick_1">
     <g id="line2d_11">
      <path d="M 28.496875 347.81985 
L 705.379375 347.81985 
" clip-path="url(#p70bdd875c3)" style="fill: none; stroke-dasharray: 1.85,0.8; stroke-dashoffset: 0; stroke: #b2b2b2; stroke-opacity: 0.3; stroke-width: 0.5"/>
     </g>
     <g id="line2d_12">
      <defs>
       <path id="m2ea1e27747" d="M 0 0 
L 3.5 0 
" style="stroke: #000000; stroke-width: 0.8"/>
      </defs>
      <g>
       <use xlink:href="#m2ea1e27747" x="28.496875" y="347.81985" style="stroke: #000000; stroke-width: 0.8"/>
      </g>
     </g>
     <g id="text_7">
      <!-- 3 -->
      <g transform="translate(20.496875 350.9136) scale(0.09 -0.09)">
       <defs>
        <path id="SimHei-33" d="M 250 1225 
L 700 1300 
Q 800 975 1025 762 
Q 1250 550 1587 562 
Q 1925 575 2125 837 
Q 2325 1100 2300 1437 
Q 2275 1775 2037 1962 
Q 1800 2150 1275 2225 
L 1275 2550 
Q 1800 2600 2037 2825 
Q 2275 3050 2250 3412 
Q 2225 3775 1925 3937 
Q 1625 4100 1287 3975 
Q 950 3850 750 3275 
L 300 3350 
Q 450 3800 712 4100 
Q 975 4400 1425 4450 
Q 1875 4500 2212 4337 
Q 2550 4175 2687 3837 
Q 2825 3500 2725 3100 
Q 2625 2700 2150 2400 
Q 2500 2250 2687 1950 
Q 2875 1650 2812 1162 
Q 2750 675 2375 375 
Q 2000 75 1525 87 
Q 1050 100 700 387 
Q 350 675 250 1225 
z
" transform="scale(0.015625)"/>
       </defs>
       <use xlink:href="#SimHei-33"/>
      </g>
     </g>
    </g>
    <g id="ytick_2">
     <g id="line2d_13">
      <path d="M 28.496875 287.439065 
L 705.379375 287.439065 
" clip-path="url(#p70bdd875c3)" style="fill: none; stroke-dasharray: 1.85,0.8; stroke-dashoffset: 0; stroke: #b2b2b2; stroke-opacity: 0.3; stroke-width: 0.5"/>
     </g>
     <g id="line2d_14">
      <g>
       <use xlink:href="#m2ea1e27747" x="28.496875" y="287.439065" style="stroke: #000000; stroke-width: 0.8"/>
      </g>
     </g>
     <g id="text_8">
      <!-- 4 -->
      <g transform="translate(20.496875 290.532815) scale(0.09 -0.09)">
       <defs>
        <path id="SimHei-34" d="M 2000 1100 
L 75 1100 
L 75 1525 
L 2100 4450 
L 2475 4450 
L 2475 1525 
L 3075 1525 
L 3075 1100 
L 2475 1100 
L 2475 150 
L 2000 150 
L 2000 1100 
z
M 2000 1525 
L 2000 3500 
L 600 1525 
L 2000 1525 
z
" transform="scale(0.015625)"/>
       </defs>
       <use xlink:href="#SimHei-34"/>
      </g>
     </g>
    </g>
    <g id="ytick_3">
     <g id="line2d_15">
      <path d="M 28.496875 227.05828 
L 705.379375 227.05828 
" clip-path="url(#p70bdd875c3)" style="fill: none; stroke-dasharray: 1.85,0.8; stroke-dashoffset: 0; stroke: #b2b2b2; stroke-opacity: 0.3; stroke-width: 0.5"/>
     </g>
     <g id="line2d_16">
      <g>
       <use xlink:href="#m2ea1e27747" x="28.496875" y="227.05828" style="stroke: #000000; stroke-width: 0.8"/>
      </g>
     </g>
     <g id="text_9">
      <!-- 5 -->
      <g transform="translate(20.496875 230.15203) scale(0.09 -0.09)">
       <use xlink:href="#SimHei-35"/>
      </g>
     </g>
    </g>
    <g id="ytick_4">
     <g id="line2d_17">
      <path d="M 28.496875 166.677494 
L 705.379375 166.677494 
" clip-path="url(#p70bdd875c3)" style="fill: none; stroke-dasharray: 1.85,0.8; stroke-dashoffset: 0; stroke: #b2b2b2; stroke-opacity: 0.3; stroke-width: 0.5"/>
     </g>
     <g id="line2d_18">
      <g>
       <use xlink:href="#m2ea1e27747" x="28.496875" y="166.677494" style="stroke: #000000; stroke-width: 0.8"/>
      </g>
     </g>
     <g id="text_10">
      <!-- 6 -->
      <g transform="translate(20.496875 169.771244) scale(0.09 -0.09)">
       <defs>
        <path id="SimHei-36" d="M 250 1612 
Q 275 1975 387 2225 
Q 500 2475 725 2850 
L 1750 4450 
L 2325 4450 
L 1275 2800 
Q 1950 2975 2350 2750 
Q 2750 2525 2887 2237 
Q 3025 1950 3037 1612 
Q 3050 1275 2937 950 
Q 2825 625 2537 362 
Q 2250 100 1737 75 
Q 1225 50 862 262 
Q 500 475 362 862 
Q 225 1250 250 1612 
z
M 1025 787 
Q 1250 550 1625 525 
Q 2000 500 2250 775 
Q 2500 1050 2500 1575 
Q 2500 2100 2187 2300 
Q 1875 2500 1487 2450 
Q 1100 2400 925 2075 
Q 750 1750 775 1387 
Q 800 1025 1025 787 
z
" transform="scale(0.015625)"/>
       </defs>
       <use xlink:href="#SimHei-36"/>
      </g>
     </g>
    </g>
    <g id="ytick_5">
     <g id="line2d_19">
      <path d="M 28.496875 106.296709 
L 705.379375 106.296709 
" clip-path="url(#p70bdd875c3)" style="fill: none; stroke-dasharray: 1.85,0.8; stroke-dashoffset: 0; stroke: #b2b2b2; stroke-opacity: 0.3; stroke-width: 0.5"/>
     </g>
     <g id="line2d_20">
      <g>
       <use xlink:href="#m2ea1e27747" x="28.496875" y="106.296709" style="stroke: #000000; stroke-width: 0.8"/>
      </g>
     </g>
     <g id="text_11">
      <!-- 7 -->
      <g transform="translate(20.496875 109.390459) scale(0.09 -0.09)">
       <defs>
        <path id="SimHei-37" d="M 850 150 
Q 1300 2050 2425 3925 
L 275 3925 
L 275 4375 
L 2950 4375 
L 2950 3950 
Q 1775 2050 1400 150 
L 850 150 
z
" transform="scale(0.015625)"/>
       </defs>
       <use xlink:href="#SimHei-37"/>
      </g>
     </g>
    </g>
    <g id="ytick_6">
     <g id="line2d_21">
      <path d="M 28.496875 45.915924 
L 705.379375 45.915924 
" clip-path="url(#p70bdd875c3)" style="fill: none; stroke-dasharray: 1.85,0.8; stroke-dashoffset: 0; stroke: #b2b2b2; stroke-opacity: 0.3; stroke-width: 0.5"/>
     </g>
     <g id="line2d_22">
      <g>
       <use xlink:href="#m2ea1e27747" x="28.496875" y="45.915924" style="stroke: #000000; stroke-width: 0.8"/>
      </g>
     </g>
     <g id="text_12">
      <!-- 8 -->
      <g transform="translate(20.496875 49.009674) scale(0.09 -0.09)">
       <defs>
        <path id="SimHei-38" d="M 175 1375 
Q 175 1675 325 1962 
Q 475 2250 825 2425 
Q 525 2600 425 2812 
Q 325 3025 312 3300 
Q 300 3575 387 3775 
Q 475 3975 650 4150 
Q 825 4325 1037 4387 
Q 1250 4450 1500 4450 
Q 1750 4450 1950 4400 
Q 2150 4350 2375 4187 
Q 2600 4025 2700 3725 
Q 2800 3425 2687 3025 
Q 2575 2625 2100 2400 
Q 2525 2275 2700 2012 
Q 2875 1750 2875 1375 
Q 2875 1000 2762 775 
Q 2650 550 2512 400 
Q 2375 250 2137 162 
Q 1900 75 1537 75 
Q 1175 75 912 162 
Q 650 250 475 425 
Q 300 600 237 837 
Q 175 1075 175 1375 
z
M 687 1400 
Q 675 1100 787 875 
Q 900 650 1200 587 
Q 1500 525 1825 600 
Q 2150 675 2275 950 
Q 2400 1225 2362 1500 
Q 2325 1775 2050 1962 
Q 1775 2150 1450 2125 
Q 1125 2100 912 1900 
Q 700 1700 687 1400 
z
M 775 3350 
Q 775 3100 950 2875 
Q 1125 2650 1500 2650 
Q 1875 2650 2062 2875 
Q 2250 3100 2237 3412 
Q 2225 3725 2012 3875 
Q 1800 4025 1437 4000 
Q 1075 3975 925 3787 
Q 775 3600 775 3350 
z
" transform="scale(0.015625)"/>
       </defs>
       <use xlink:href="#SimHei-38"/>
      </g>
     </g>
    </g>
    <g id="text_13">
     <!-- pH 值 -->
     <g transform="translate(15.246875 222.289375) rotate(-90) scale(0.1 -0.1)">
      <defs>
       <path id="SimHei-70" d="M 2825 1525 
Q 2825 800 2475 425 
Q 2125 50 1625 50 
Q 1350 50 1150 162 
Q 950 275 800 500 
L 800 -800 
L 300 -800 
L 300 2925 
L 800 2925 
L 800 2550 
Q 950 2775 1150 2875 
Q 1350 2975 1625 2975 
Q 2125 2975 2475 2612 
Q 2825 2250 2825 1525 
z
M 2275 1525 
Q 2275 2000 2087 2262 
Q 1900 2525 1525 2525 
Q 1225 2525 1012 2262 
Q 800 2000 800 1525 
Q 800 1050 1012 775 
Q 1225 500 1525 500 
Q 1900 500 2087 775 
Q 2275 1050 2275 1525 
z
" transform="scale(0.015625)"/>
       <path id="SimHei-48" d="M 2850 125 
L 2275 125 
L 2275 2125 
L 850 2125 
L 850 125 
L 275 125 
L 275 4400 
L 850 4400 
L 850 2600 
L 2275 2600 
L 2275 4400 
L 2850 4400 
L 2850 125 
z
" transform="scale(0.015625)"/>
       <path id="SimHei-503c" d="M 3675 4450 
L 3675 5100 
Q 3975 5075 4350 5050 
Q 4225 4875 4200 4450 
L 5125 4450 
Q 5550 4450 5875 4475 
L 5875 4025 
Q 5525 4050 5125 4050 
L 4175 4050 
L 4125 3500 
L 5400 3500 
Q 5375 3200 5375 2700 
L 5375 150 
Q 5875 150 6100 175 
L 6100 -275 
Q 5775 -250 5200 -250 
L 2850 -250 
Q 2275 -250 1900 -275 
L 1900 175 
Q 2125 150 2600 150 
L 2600 2700 
Q 2600 3175 2575 3500 
L 3600 3500 
L 3650 4050 
L 3200 4050 
Q 2575 4050 2225 4025 
L 2225 4475 
Q 2550 4450 3200 4450 
L 3675 4450 
z
M 2225 4900 
Q 2025 4675 1650 3750 
L 1650 450 
Q 1650 -75 1675 -550 
L 1150 -550 
Q 1175 -125 1175 375 
L 1175 2950 
Q 875 2450 625 2150 
Q 425 2425 250 2575 
Q 500 2825 937 3537 
Q 1375 4250 1625 5150 
Q 1975 4975 2225 4900 
z
M 4925 2650 
L 4925 3150 
L 3075 3150 
L 3075 2650 
L 4925 2650 
z
M 4925 150 
L 4925 625 
L 3075 625 
L 3075 150 
L 4925 150 
z
M 4925 1000 
L 4925 1450 
L 3075 1450 
L 3075 1000 
L 4925 1000 
z
M 4925 1825 
L 4925 2275 
L 3075 2275 
L 3075 1825 
L 4925 1825 
z
" transform="scale(0.015625)"/>
      </defs>
      <use xlink:href="#SimHei-70"/>
      <use xlink:href="#SimHei-48" transform="translate(50 0)"/>
      <use xlink:href="#SimHei-20" transform="translate(100 0)"/>
      <use xlink:href="#SimHei-503c" transform="translate(150 0)"/>
     </g>
    </g>
   </g>
   <g id="line2d_23">
    <path d="M 59.264261 132.260447 
L 59.545114 134.675678 
L 59.825966 134.07187 
L 60.106819 141.921373 
L 60.387671 143.128988 
L 60.668524 147.959451 
L 60.949376 140.713757 
L 61.230229 143.732796 
L 61.511081 132.260447 
L 61.791933 146.751835 
L 62.072786 138.902333 
L 62.353638 138.902333 
L 62.634491 140.109949 
L 62.915343 137.694718 
L 63.196196 141.317565 
L 63.477048 135.279486 
L 63.757901 135.883294 
L 64.038753 140.109949 
L 64.319606 147.355643 
L 64.600458 144.336604 
L 64.88131 123.807137 
L 65.162163 137.09091 
L 65.723868 142.52518 
L 66.00472 125.618561 
L 66.285573 134.07187 
L 66.566425 133.468063 
L 66.847278 126.826176 
L 67.12813 124.410945 
L 67.408983 144.336604 
L 67.689835 138.298525 
L 67.970687 143.128988 
L 68.25154 134.07187 
L 68.532392 139.506141 
L 68.813245 140.713757 
L 69.094097 143.128988 
L 69.37495 150.374682 
L 69.655802 151.582298 
L 69.936655 150.97849 
L 70.217507 145.54422 
L 70.49836 146.148027 
L 70.779212 135.883294 
L 71.060064 149.167067 
L 71.340917 150.97849 
L 71.621769 159.4318 
L 71.902622 157.016569 
L 72.183474 147.355643 
L 72.464327 142.52518 
L 72.745179 142.52518 
L 73.026032 150.97849 
L 73.306884 137.694718 
L 73.868589 149.167067 
L 74.149441 143.732796 
L 74.430294 148.563259 
L 74.991999 114.750019 
L 75.553704 126.222368 
L 75.834556 115.957635 
L 76.115409 113.542404 
L 76.677114 128.033792 
L 76.957966 123.203329 
L 77.238818 114.750019 
L 77.800523 120.788098 
L 78.081376 118.976674 
L 78.362228 123.807137 
L 78.643081 134.07187 
L 78.923933 135.279486 
L 79.204786 129.845215 
L 79.485638 129.845215 
L 79.766491 133.468063 
L 80.047343 130.449023 
L 80.328195 125.618561 
L 80.8899 126.826176 
L 81.170753 128.033792 
L 81.451605 130.449023 
L 81.732458 129.845215 
L 82.294163 140.713757 
L 82.575015 126.222368 
L 82.855868 123.807137 
L 83.13672 126.826176 
L 83.417572 126.826176 
L 83.698425 135.883294 
L 83.979277 138.298525 
L 84.26013 129.241408 
L 84.540982 125.014753 
L 85.102687 126.222368 
L 85.664392 131.656639 
L 85.945245 130.449023 
L 86.226097 124.410945 
L 86.506949 126.826176 
L 86.787802 128.033792 
L 87.068654 125.014753 
L 87.349507 126.826176 
L 87.630359 125.014753 
L 87.911212 124.410945 
L 88.192064 125.014753 
L 88.472917 125.014753 
L 88.753769 132.864255 
L 89.034622 124.410945 
L 89.315474 126.222368 
L 89.596326 126.222368 
L 89.877179 131.656639 
L 90.158031 127.429984 
L 90.719736 132.864255 
L 91.000589 129.845215 
L 91.281441 129.845215 
L 91.562294 129.241408 
L 91.843146 130.449023 
L 92.123999 135.279486 
L 92.404851 152.186106 
L 92.966556 134.675678 
L 93.247408 131.052831 
L 93.809113 135.279486 
L 94.089966 128.033792 
L 94.370818 125.618561 
L 94.651671 131.052831 
L 94.932523 130.449023 
L 95.213376 134.675678 
L 95.494228 131.052831 
L 95.77508 134.07187 
L 96.055933 132.260447 
L 96.336785 131.656639 
L 96.617638 129.845215 
L 96.89849 132.864255 
L 97.179343 131.656639 
L 97.460195 134.675678 
L 97.741048 131.052831 
L 98.0219 132.864255 
L 98.302753 130.449023 
L 98.583605 130.449023 
L 98.864457 137.09091 
L 99.14531 131.052831 
L 99.426162 132.260447 
L 99.987867 135.883294 
L 100.26872 138.902333 
L 100.549572 134.675678 
L 100.830425 136.487102 
L 101.111277 136.487102 
L 101.39213 140.109949 
L 101.953834 134.675678 
L 102.234687 140.713757 
L 102.515539 137.09091 
L 102.796392 137.694718 
L 103.077244 138.902333 
L 103.358097 138.902333 
L 103.638949 140.713757 
L 103.919802 138.902333 
L 104.200654 139.506141 
L 104.481506 137.09091 
L 105.043211 139.506141 
L 105.324064 137.694718 
L 105.604916 137.694718 
L 105.885769 138.902333 
L 106.166621 137.09091 
L 106.447474 140.109949 
L 106.728326 139.506141 
L 107.009179 140.713757 
L 107.290031 140.713757 
L 107.570883 141.921373 
L 108.413441 141.921373 
L 108.694293 143.128988 
L 108.975146 143.128988 
L 109.255998 137.694718 
L 109.536851 141.317565 
L 109.817703 141.317565 
L 110.098556 135.883294 
L 110.379408 133.468063 
L 110.66026 137.694718 
L 110.941113 137.09091 
L 111.221965 139.506141 
L 111.502818 137.09091 
L 111.78367 137.09091 
L 112.064523 139.506141 
L 112.345375 153.99753 
L 112.626228 158.827992 
L 112.90708 152.186106 
L 113.187933 152.186106 
L 113.468785 140.109949 
L 113.749637 132.864255 
L 114.03049 136.487102 
L 114.311342 137.694718 
L 114.592195 137.09091 
L 115.1539 137.09091 
L 115.434752 135.279486 
L 115.715605 138.298525 
L 115.996457 137.694718 
L 116.27731 138.298525 
L 116.558162 137.694718 
L 116.839014 139.506141 
L 117.400719 135.279486 
L 117.681572 134.675678 
L 117.962424 138.902333 
L 118.243277 136.487102 
L 118.524129 137.694718 
L 119.085834 134.07187 
L 119.647539 139.506141 
L 119.928391 144.940412 
L 120.209244 139.506141 
L 120.490096 139.506141 
L 120.770949 138.902333 
L 121.051801 146.751835 
L 121.332654 141.921373 
L 121.613506 141.921373 
L 121.894359 142.52518 
L 122.175211 144.940412 
L 122.456064 152.186106 
L 122.736916 150.374682 
L 123.017768 140.713757 
L 123.298621 146.751835 
L 123.579473 148.563259 
L 123.860326 148.563259 
L 124.141178 144.940412 
L 124.422031 146.148027 
L 124.702883 144.940412 
L 124.983736 145.54422 
L 125.264588 143.128988 
L 125.545441 146.148027 
L 125.826293 147.355643 
L 126.107145 142.52518 
L 126.387998 143.128988 
L 126.66885 146.148027 
L 126.949703 145.54422 
L 127.230555 149.167067 
L 127.511408 146.751835 
L 127.79226 147.959451 
L 128.073113 141.921373 
L 128.353965 139.506141 
L 128.634818 141.921373 
L 128.91567 147.355643 
L 129.196522 149.770875 
L 129.477375 148.563259 
L 129.758227 147.959451 
L 130.03908 144.940412 
L 130.319932 149.167067 
L 130.600785 147.959451 
L 131.16249 140.109949 
L 131.443342 141.317565 
L 131.724195 144.336604 
L 132.285899 137.09091 
L 132.566752 147.959451 
L 132.847604 139.506141 
L 133.128457 140.713757 
L 133.409309 144.336604 
L 133.690162 139.506141 
L 133.971014 145.54422 
L 134.251867 140.713757 
L 134.532719 143.128988 
L 134.813572 147.959451 
L 135.094424 146.148027 
L 135.375276 141.317565 
L 135.656129 140.109949 
L 135.936981 143.128988 
L 136.217834 143.128988 
L 136.498686 144.336604 
L 136.779539 147.355643 
L 137.060391 144.336604 
L 137.341244 142.52518 
L 137.622096 142.52518 
L 137.902949 141.921373 
L 138.183801 143.732796 
L 138.464653 158.827992 
L 138.745506 140.713757 
L 139.026358 131.052831 
L 139.307211 135.883294 
L 139.588063 135.883294 
L 139.868916 143.732796 
L 140.149768 144.336604 
L 140.430621 140.713757 
L 140.711473 149.167067 
L 140.992326 153.99753 
L 141.273178 139.506141 
L 141.55403 136.487102 
L 141.834883 138.902333 
L 142.115735 146.751835 
L 142.396588 147.959451 
L 142.67744 155.808953 
L 142.958293 141.317565 
L 143.239145 141.317565 
L 143.519998 139.506141 
L 143.80085 135.279486 
L 144.081703 137.694718 
L 144.362555 147.959451 
L 144.643407 145.54422 
L 145.205112 143.128988 
L 145.485965 139.506141 
L 145.766817 143.732796 
L 146.04767 158.827992 
L 146.328522 132.260447 
L 146.609375 134.675678 
L 146.890227 149.167067 
L 147.17108 143.128988 
L 147.451932 141.921373 
L 147.732784 146.751835 
L 148.013637 136.487102 
L 148.294489 134.675678 
L 148.575342 134.675678 
L 148.856194 133.468063 
L 149.137047 133.468063 
L 149.417899 135.883294 
L 149.698752 136.487102 
L 149.979604 134.07187 
L 150.260457 134.675678 
L 150.541309 134.675678 
L 150.822161 135.279486 
L 151.103014 134.675678 
L 151.383866 134.675678 
L 151.945571 138.298525 
L 152.226424 138.298525 
L 152.507276 140.713757 
L 153.068981 132.864255 
L 153.349834 134.675678 
L 153.630686 134.675678 
L 153.911538 133.468063 
L 154.192391 134.07187 
L 154.473243 134.07187 
L 154.754096 134.675678 
L 155.034948 132.260447 
L 155.315801 134.675678 
L 155.596653 132.864255 
L 155.877506 135.883294 
L 156.158358 145.54422 
L 156.439211 143.128988 
L 157.281768 129.845215 
L 157.56262 129.241408 
L 157.843473 136.487102 
L 158.124325 137.694718 
L 158.405178 139.506141 
L 158.68603 138.298525 
L 158.966883 138.298525 
L 159.247735 136.487102 
L 159.528588 136.487102 
L 159.80944 139.506141 
L 160.090292 141.317565 
L 160.371145 137.694718 
L 160.651997 140.713757 
L 160.93285 141.921373 
L 161.494555 125.014753 
L 162.05626 138.298525 
L 162.337112 141.921373 
L 162.617965 137.09091 
L 162.898817 128.6376 
L 163.179669 129.241408 
L 163.460522 137.09091 
L 163.741374 139.506141 
L 164.022227 134.07187 
L 164.303079 135.279486 
L 164.864784 141.921373 
L 165.145637 134.07187 
L 165.426489 131.052831 
L 165.707342 131.052831 
L 165.988194 131.656639 
L 166.269046 136.487102 
L 166.549899 131.656639 
L 166.830751 132.864255 
L 167.111604 137.09091 
L 167.392456 137.09091 
L 167.673309 138.298525 
L 168.235014 143.732796 
L 168.515866 137.694718 
L 169.077571 135.279486 
L 169.358423 132.260447 
L 169.639276 137.09091 
L 169.920128 139.506141 
L 170.200981 139.506141 
L 170.481833 132.864255 
L 170.762686 119.580482 
L 171.324391 128.6376 
L 171.605243 128.033792 
L 171.886096 130.449023 
L 172.166948 131.656639 
L 172.4478 135.279486 
L 172.728653 134.675678 
L 173.009505 135.279486 
L 173.57121 139.506141 
L 173.852063 138.298525 
L 174.132915 139.506141 
L 174.69462 146.148027 
L 174.975473 146.751835 
L 175.256325 148.563259 
L 175.537177 148.563259 
L 175.81803 146.751835 
L 176.379735 147.959451 
L 176.660587 144.940412 
L 176.94144 123.807137 
L 177.222292 121.995713 
L 177.503145 127.429984 
L 177.783997 128.033792 
L 178.345702 135.279486 
L 178.626554 132.260447 
L 178.907407 131.052831 
L 179.188259 131.656639 
L 179.469112 129.241408 
L 179.749964 128.6376 
L 180.311669 115.957635 
L 180.592522 123.807137 
L 180.873374 125.618561 
L 181.154227 128.6376 
L 181.435079 127.429984 
L 181.715931 128.033792 
L 181.996784 130.449023 
L 182.277636 131.656639 
L 182.558489 133.468063 
L 183.120194 141.317565 
L 183.401046 129.845215 
L 183.681899 132.260447 
L 183.962751 131.656639 
L 184.524456 131.656639 
L 184.805308 130.449023 
L 185.086161 129.845215 
L 185.367013 131.656639 
L 185.647866 132.260447 
L 186.209571 134.675678 
L 186.490423 135.279486 
L 186.771276 134.675678 
L 187.052128 138.902333 
L 187.332981 140.713757 
L 187.613833 137.694718 
L 187.894685 136.487102 
L 188.175538 143.732796 
L 188.45639 147.959451 
L 188.737243 148.563259 
L 189.018095 146.751835 
L 189.298948 146.751835 
L 189.5798 139.506141 
L 189.860653 137.09091 
L 190.141505 137.694718 
L 190.422358 141.317565 
L 190.70321 142.52518 
L 190.984062 138.902333 
L 191.264915 137.694718 
L 191.545767 138.902333 
L 191.82662 142.52518 
L 192.107472 138.298525 
L 192.388325 139.506141 
L 192.669177 145.54422 
L 192.95003 144.336604 
L 193.230882 138.298525 
L 193.511734 135.883294 
L 193.792587 139.506141 
L 194.073439 141.317565 
L 194.915997 136.487102 
L 195.196849 138.902333 
L 195.477702 137.694718 
L 195.758554 139.506141 
L 196.039407 140.109949 
L 196.601111 142.52518 
L 196.881964 146.148027 
L 197.162816 145.54422 
L 197.443669 146.751835 
L 197.724521 145.54422 
L 198.005374 145.54422 
L 198.286226 144.336604 
L 198.567079 144.940412 
L 199.409636 135.279486 
L 199.690488 136.487102 
L 200.252193 141.317565 
L 200.533046 140.109949 
L 200.813898 141.317565 
L 201.094751 140.713757 
L 201.375603 141.921373 
L 201.656456 141.317565 
L 202.218161 148.563259 
L 202.499013 149.167067 
L 202.779865 147.959451 
L 203.060718 147.959451 
L 203.34157 134.675678 
L 203.622423 143.732796 
L 203.903275 149.167067 
L 204.184128 148.563259 
L 204.46498 146.751835 
L 204.745833 147.959451 
L 205.026685 146.148027 
L 205.58839 151.582298 
L 205.869242 153.393722 
L 206.150095 150.374682 
L 206.7118 157.016569 
L 206.992652 150.374682 
L 207.273505 151.582298 
L 207.554357 153.99753 
L 207.83521 150.374682 
L 208.116062 160.035608 
L 208.396915 151.582298 
L 208.958619 152.789914 
L 209.239472 151.582298 
L 209.520324 152.789914 
L 209.801177 149.770875 
L 210.362882 155.205145 
L 210.643734 153.393722 
L 211.205439 147.355643 
L 211.486292 149.770875 
L 211.767144 148.563259 
L 212.047996 147.959451 
L 212.328849 147.959451 
L 212.890554 150.97849 
L 213.452259 148.563259 
L 213.733111 151.582298 
L 214.013964 150.97849 
L 214.294816 151.582298 
L 214.575669 153.393722 
L 214.856521 153.99753 
L 215.137373 152.186106 
L 215.699078 153.393722 
L 215.979931 152.789914 
L 216.260783 153.393722 
L 216.541636 154.601337 
L 216.822488 150.374682 
L 217.103341 154.601337 
L 217.384193 154.601337 
L 217.665046 153.393722 
L 217.945898 153.99753 
L 218.22675 155.205145 
L 218.507603 160.035608 
L 218.788455 154.601337 
L 219.069308 157.016569 
L 219.35016 153.393722 
L 219.631013 154.601337 
L 220.192718 150.374682 
L 220.47357 158.827992 
L 220.754423 156.412761 
L 221.035275 157.016569 
L 221.316127 156.412761 
L 221.59698 157.620377 
L 221.877832 153.99753 
L 222.158685 157.016569 
L 222.439537 155.808953 
L 223.282095 159.794085 
L 223.562947 151.642679 
L 223.8438 153.514483 
L 224.124652 159.4318 
L 224.405504 158.586469 
L 224.686357 156.533523 
L 225.248062 101.405866 
L 225.528914 99.352919 
L 225.809767 102.311577 
L 226.090619 100.439773 
L 226.371472 108.047752 
L 226.652324 107.383563 
L 226.933177 102.070054 
L 227.214029 100.620915 
L 227.494881 100.017108 
L 227.775734 100.319012 
L 228.056586 97.601876 
L 228.337439 99.292538 
L 228.618291 89.752374 
L 228.899144 90.23542 
L 229.179996 93.012937 
L 229.460849 92.107225 
L 229.741701 94.341314 
L 230.022554 91.322275 
L 230.303406 91.503417 
L 230.584258 92.167606 
L 231.145963 95.60931 
L 231.426816 94.401695 
L 231.707668 89.088186 
L 231.988521 89.027805 
L 232.269373 90.356182 
L 232.550226 92.650652 
L 232.831078 92.227986 
L 233.392783 90.114659 
L 233.673635 90.23542 
L 233.954488 94.160171 
L 234.23534 100.19825 
L 234.516193 95.126264 
L 234.797045 98.084923 
L 235.077898 118.554009 
L 235.35875 90.17504 
L 235.639603 90.718467 
L 235.920455 97.783019 
L 236.201308 110.16108 
L 236.48216 115.957635 
L 236.763012 114.750019 
L 237.324717 104.726809 
L 237.60557 101.345485 
L 238.167275 101.164343 
L 238.448127 98.145303 
L 239.009832 109.979937 
L 239.290685 89.752374 
L 239.852389 94.945122 
L 240.133242 97.058449 
L 240.414094 95.005502 
L 240.694947 89.691993 
L 240.975799 88.423997 
L 241.537504 89.933517 
L 241.818357 90.356182 
L 242.099209 94.099791 
L 242.380062 95.367787 
L 242.660914 93.435602 
L 242.941766 89.45047 
L 243.222619 92.771413 
L 243.503471 90.597705 
L 244.065176 90.778848 
L 244.346029 91.201513 
L 244.626881 87.337143 
L 244.907734 87.276762 
L 245.188586 87.457904 
L 245.469439 90.054278 
L 245.750291 95.247026 
L 246.031143 88.303235 
L 246.311996 87.518285 
L 246.592848 87.276762 
L 246.873701 86.612573 
L 247.154553 89.933517 
L 247.435406 88.001331 
L 247.716258 87.820189 
L 247.997111 91.080751 
L 248.277963 102.130435 
L 248.558816 101.103962 
L 248.839668 101.888912 
L 249.12052 99.473681 
L 249.401373 98.024542 
L 249.963078 94.099791 
L 250.24393 86.854096 
L 250.524783 89.993897 
L 250.805635 89.933517 
L 251.086488 89.631613 
L 251.36734 90.597705 
L 251.648193 88.846662 
L 251.929045 90.718467 
L 252.49075 86.250289 
L 252.771602 90.054278 
L 253.333307 86.672954 
L 253.61416 90.537324 
L 253.895012 84.378484 
L 254.175865 85.888004 
L 254.456717 86.129527 
L 254.73757 88.182474 
L 255.018422 89.027805 
L 255.299274 87.216381 
L 255.580127 96.998068 
L 255.860979 84.80115 
L 256.141832 89.269328 
L 256.703537 84.0162 
L 256.984389 94.763979 
L 257.546094 82.748203 
L 257.826947 85.223815 
L 258.107799 86.129527 
L 258.388651 83.955819 
L 258.669504 85.042673 
L 258.950356 93.194079 
L 259.231209 91.684559 
L 259.512061 79.42726 
L 259.792914 79.970687 
L 260.354619 83.352011 
L 260.916324 85.465338 
L 261.197176 85.163435 
L 261.478028 82.567061 
L 261.758881 85.344577 
L 262.039733 85.706862 
L 262.320586 85.827623 
L 262.601438 88.242855 
L 262.882291 81.178303 
L 263.163143 86.612573 
L 263.443996 80.755637 
L 263.724848 80.031068 
L 264.005701 83.472773 
L 264.286553 82.687822 
L 264.567405 84.257723 
L 264.848258 82.808584 
L 265.409963 84.197342 
L 265.690815 89.45047 
L 265.971668 100.9832 
L 266.25252 103.27767 
L 266.533373 102.673862 
L 266.814225 97.299972 
L 267.095078 95.911214 
L 267.37593 85.767242 
L 267.656782 79.910306 
L 268.218487 85.888004 
L 268.780192 86.854096 
L 269.061045 88.907043 
L 269.62275 106.477852 
L 269.903602 104.666428 
L 270.465307 86.008765 
L 270.746159 85.404958 
L 271.027012 91.322275 
L 271.307864 88.001331 
L 271.588717 82.446299 
L 271.869569 68.015292 
L 272.150422 67.290722 
L 272.712127 77.555456 
L 272.992979 72.423089 
L 273.273832 78.400787 
L 273.554684 81.359445 
L 273.835536 79.548021 
L 274.116389 87.759808 
L 274.397241 91.261894 
L 274.678094 89.873136 
L 274.958946 89.45047 
L 275.239799 93.435602 
L 275.801504 90.17504 
L 276.082356 92.409129 
L 276.363209 88.484378 
L 276.644061 87.457904 
L 277.205766 93.073317 
L 277.767471 81.299064 
L 278.048323 95.367787 
L 278.329176 98.749111 
L 278.610028 92.348748 
L 278.890881 96.635784 
L 279.452585 78.823452 
L 279.733438 81.963253 
L 280.295143 83.29163 
L 280.575995 87.09562 
L 280.856848 80.99716 
L 281.1377 80.755637 
L 281.418553 84.982292 
L 281.980258 81.480207 
L 282.26111 84.921911 
L 282.541962 83.412392 
L 282.822815 80.151829 
L 283.103667 82.989726 
L 283.38452 77.978121 
L 283.665372 80.634876 
L 283.946225 78.944214 
L 284.50793 90.899609 
L 285.069635 83.955819 
L 285.350487 83.050107 
L 285.631339 86.672954 
L 285.912192 87.578666 
L 286.193044 90.476944 
L 286.473897 85.948385 
L 286.754749 89.691993 
L 287.035602 87.578666 
L 287.316454 87.276762 
L 287.597307 89.269328 
L 287.878159 88.907043 
L 288.439864 102.794624 
L 288.720716 90.114659 
L 289.001569 91.382655 
L 289.282421 88.846662 
L 289.563274 88.182474 
L 289.844126 89.208947 
L 290.124979 86.37105 
L 290.405831 99.594442 
L 290.686684 85.042673 
L 290.967536 88.122093 
L 291.529241 89.812755 
L 291.810093 88.061712 
L 292.090946 87.820189 
L 292.652651 91.563798 
L 292.933503 89.088186 
L 293.214356 94.82436 
L 293.495208 88.182474 
L 293.776061 87.337143 
L 294.056913 88.122093 
L 294.337766 88.001331 
L 294.618618 89.631613 
L 294.89947 92.348748 
L 295.180323 91.322275 
L 295.461175 95.307406 
L 296.02288 98.386826 
L 296.303733 93.858268 
L 296.584585 95.367787 
L 296.865438 101.466246 
L 297.14629 93.073317 
L 297.707995 103.398432 
L 297.988847 95.790453 
L 298.2697 98.62835 
L 298.831405 95.186645 
L 299.112257 100.137869 
L 299.39311 101.647389 
L 299.954815 93.25446 
L 300.235667 96.273499 
L 300.51652 94.884741 
L 300.797372 94.763979 
L 301.078224 93.31484 
L 301.359077 92.831794 
L 301.639929 93.133698 
L 301.920782 92.650652 
L 302.482487 98.326446 
L 302.763339 96.515022 
L 303.044192 93.797887 
L 303.325044 96.937688 
L 303.605897 94.643218 
L 304.167601 104.84757 
L 304.448454 104.485286 
L 304.729306 101.70777 
L 305.010159 97.058449 
L 305.291011 99.654823 
L 305.571864 98.930254 
L 305.852716 99.654823 
L 306.133569 99.111396 
L 306.414421 100.9832 
L 306.695274 115.172685 
L 306.976126 114.448115 
L 307.256978 113.2405 
L 307.537831 118.070962 
L 308.099536 108.108133 
L 308.380388 105.994805 
L 308.661241 105.874044 
L 308.942093 107.021279 
L 309.222946 109.979937 
L 309.503798 104.424905 
L 310.065503 110.342222 
L 310.346355 105.511759 
L 310.627208 104.968332 
L 310.90806 108.470418 
L 311.188913 107.564706 
L 311.469765 105.330617 
L 311.750618 105.994805 
L 312.03147 105.511759 
L 312.312323 105.451378 
L 312.593175 106.175948 
L 312.874028 116.621824 
L 313.15488 106.477852 
L 313.435732 118.131343 
L 313.716585 117.225631 
L 313.997437 108.410037 
L 314.27829 117.044489 
L 314.559142 118.614389 
L 314.839995 111.247934 
L 315.120847 119.45972 
L 315.4017 117.044489 
L 315.682552 107.92699 
L 315.963405 114.750019 
L 316.244257 112.214026 
L 316.525109 108.65156 
L 316.805962 109.134606 
L 317.086814 111.429076 
L 317.367667 109.255368 
L 317.648519 110.825268 
L 318.210224 105.692901 
L 318.491077 129.724454 
L 318.771929 128.818742 
L 319.052782 132.50197 
L 319.333634 123.746756 
L 319.614486 121.150382 
L 319.895339 131.052831 
L 320.176191 123.324091 
L 320.457044 122.961806 
L 320.737896 123.022187 
L 321.018749 121.633429 
L 321.299601 130.690546 
L 321.580454 121.75419 
L 321.861306 117.648297 
L 322.142159 121.090002 
L 322.423011 119.942767 
L 322.703863 122.056094 
L 322.984716 127.12808 
L 323.265568 118.614389 
L 323.546421 115.534969 
L 323.827273 121.814571 
L 324.108126 118.372866 
L 324.388978 118.010582 
L 324.669831 116.501062 
L 324.950683 121.995713 
L 325.231536 114.8104 
L 325.79324 123.746756 
L 326.074093 122.056094 
L 326.354945 118.614389 
L 326.91665 114.931162 
L 327.197503 116.199158 
L 327.478355 126.463892 
L 327.759208 120.425813 
L 328.04006 119.39934 
L 328.320913 120.788098 
L 328.601765 120.788098 
L 328.882617 120.546575 
L 329.16347 126.222368 
L 329.444322 120.18429 
L 329.725175 119.882386 
L 330.006027 121.391906 
L 330.28688 117.406774 
L 330.567732 117.648297 
L 330.848585 119.157817 
L 331.129437 115.414208 
L 331.41029 114.931162 
L 331.971994 110.281841 
L 332.252847 111.066791 
L 332.533699 113.180119 
L 332.814552 118.010582 
L 333.095404 118.191724 
L 333.376257 121.210763 
L 333.937962 169.877676 
L 334.218814 118.070962 
L 334.499667 120.486194 
L 334.780519 114.387735 
L 335.342224 122.780664 
L 335.623076 116.561443 
L 335.903929 118.614389 
L 336.184781 121.633429 
L 336.465634 133.105778 
L 336.746486 129.784835 
L 337.027339 123.082568 
L 337.308191 127.248842 
L 337.589044 128.214934 
L 338.431601 122.357998 
L 338.993306 125.55818 
L 339.274158 122.599521 
L 339.555011 117.165251 
L 339.835863 120.244671 
L 340.116716 114.568877 
L 340.397568 114.387735 
L 340.678421 121.090002 
L 341.240125 126.826176 
L 341.520978 125.377037 
L 341.80183 125.256276 
L 342.082683 117.648297 
L 342.363535 116.682204 
L 342.644388 119.338959 
L 342.92524 123.203329 
L 343.206093 116.621824 
L 343.486945 117.467155 
L 343.767798 118.855913 
L 344.04865 117.10487 
L 344.329502 184.972872 
L 344.610355 143.853558 
L 344.891207 148.442497 
L 345.17206 150.072779 
L 345.733765 143.068607 
L 346.29547 137.09091 
L 346.576322 131.475497 
L 346.857175 129.181027 
L 347.138027 134.977582 
L 347.418879 122.780664 
L 347.699732 130.509404 
L 347.980584 128.939504 
L 348.261437 128.456457 
L 348.542289 128.214934 
L 348.823142 125.860084 
L 349.103994 125.497799 
L 349.384847 124.712849 
L 349.665699 121.271144 
L 349.946552 122.418379 
L 350.227404 122.53914 
L 350.789109 116.802966 
L 351.069961 110.22146 
L 351.350814 112.395169 
L 351.631666 108.953464 
L 351.912519 113.965069 
L 352.193371 116.138777 
L 352.474224 108.711941 
L 353.035929 117.165251 
L 353.316781 123.384471 
L 353.597633 121.271144 
L 353.878486 123.444852 
L 354.159338 123.505233 
L 354.440191 111.429076 
L 354.721043 109.013845 
L 355.001896 111.247934 
L 355.282748 109.074225 
L 355.563601 110.16108 
L 355.844453 109.013845 
L 356.125306 109.255368 
L 356.406158 111.308314 
L 356.68701 108.228894 
L 357.529568 113.783927 
L 357.81042 100.681296 
L 358.091273 109.43651 
L 358.372125 105.209855 
L 358.652978 104.78719 
L 358.93383 108.470418 
L 359.495535 111.549838 
L 359.776387 104.545667 
L 360.05724 107.202421 
L 360.338092 107.504325 
L 360.618945 111.489457 
L 360.899797 104.243763 
L 361.18065 110.16108 
L 361.461502 109.919556 
L 361.742355 107.86661 
L 362.023207 109.013845 
L 362.30406 105.149474 
L 362.584912 105.874044 
L 362.865764 114.085831 
L 363.146617 101.526627 
L 363.708322 105.994805 
L 363.989174 105.149474 
L 364.270027 109.013845 
L 364.550879 101.164343 
L 364.831732 105.692901 
L 365.112584 105.874044 
L 365.393437 107.08166 
L 365.674289 104.002239 
L 365.955141 102.371958 
L 366.235994 110.885649 
L 366.516846 133.226539 
L 366.797699 126.705415 
L 367.078551 112.697073 
L 367.359404 113.542404 
L 367.640256 106.35709 
L 368.201961 121.633429 
L 368.482813 120.425813 
L 368.763666 121.874952 
L 369.044518 122.297617 
L 369.606223 118.554009 
L 369.887076 103.398432 
L 370.167928 101.224723 
L 370.448781 105.149474 
L 370.729633 102.130435 
L 371.291338 114.085831 
L 371.853043 109.617652 
L 372.133895 112.817834 
L 372.414748 142.827084 
L 372.6956 93.979029 
L 372.976453 96.635784 
L 373.257305 106.538232 
L 373.538158 106.598613 
L 373.81901 105.874044 
L 374.099863 97.843399 
L 374.380715 117.406774 
L 374.661567 125.920464 
L 374.94242 106.598613 
L 375.223272 102.190816 
L 375.504125 103.639955 
L 375.784977 103.941859 
L 376.06583 113.421642 
L 376.346682 99.715204 
L 376.627535 110.825268 
L 376.908387 104.304143 
L 377.18924 106.658994 
L 377.750944 100.319012 
L 378.593502 109.194987 
L 378.874354 109.013845 
L 379.716912 96.152737 
L 379.997764 103.760716 
L 380.278617 105.692901 
L 380.559469 96.454641 
L 381.121174 102.251197 
L 381.402026 99.4133 
L 381.682879 93.677125 
L 381.963731 93.918648 
L 382.806289 98.507588 
L 383.087141 98.68873 
L 383.648846 103.881478 
L 383.929698 103.639955 
L 384.210551 100.017108 
L 385.053108 118.010582 
L 385.333961 104.002239 
L 385.614813 107.202421 
L 385.895666 108.410037 
L 386.176518 106.538232 
L 386.457371 107.443944 
L 387.299928 116.682204 
L 387.58078 116.742585 
L 387.861633 121.210763 
L 388.423338 116.621824 
L 388.70419 117.044489 
L 388.985043 120.848479 
L 389.265895 117.587916 
L 389.546748 120.18429 
L 389.8276 123.988279 
L 390.108452 130.93207 
L 390.389305 124.471326 
L 390.670157 124.109041 
L 390.95101 118.795532 
L 391.231862 118.735151 
L 391.512715 128.094173 
L 391.793567 129.42255 
L 392.07442 122.116475 
L 392.355272 124.712849 
L 392.636125 121.391906 
L 392.916977 114.568877 
L 393.197829 115.776493 
L 393.478682 121.75419 
L 394.040387 105.813663 
L 394.882944 115.957635 
L 395.163797 116.742585 
L 395.725502 124.229802 
L 396.006354 127.550746 
L 396.287206 119.278578 
L 396.568059 118.67477 
L 396.848911 129.42255 
L 397.129764 121.69381 
L 397.410616 119.157817 
L 397.691469 121.331525 
L 397.972321 119.701244 
L 398.253174 122.901425 
L 398.534026 124.229802 
L 398.814879 123.142948 
L 399.095731 124.04866 
L 399.376583 122.418379 
L 399.657436 122.720283 
L 399.938288 124.83361 
L 400.219141 125.377037 
L 400.780846 139.204237 
L 401.061698 138.902333 
L 401.342551 139.023095 
L 401.623403 134.554917 
L 401.904256 135.943675 
L 402.46596 144.0347 
L 402.746813 139.083476 
L 403.027665 140.291091 
L 403.308518 138.66081 
L 403.58937 130.086739 
L 403.870223 137.87586 
L 404.431928 132.018924 
L 404.71278 133.226539 
L 404.993633 129.845215 
L 405.274485 129.241408 
L 405.555337 126.826176 
L 405.83619 127.731888 
L 406.117042 134.07187 
L 406.678747 153.091818 
L 406.9596 151.582298 
L 407.240452 139.083476 
L 407.521305 138.298525 
L 407.802157 136.487102 
L 408.08301 142.947846 
L 408.363862 153.574864 
L 408.644714 154.842861 
L 409.206419 151.944583 
L 409.487272 155.627811 
L 409.768124 157.07695 
L 410.048977 154.359814 
L 410.329829 157.680757 
L 410.610682 155.990095 
L 410.891534 155.869334 
L 411.172387 148.442497 
L 411.453239 148.080213 
L 411.734091 148.382117 
L 412.014944 149.710494 
L 412.295796 166.677494 
L 412.576649 140.472234 
L 412.857501 158.224185 
L 413.138354 165.167975 
L 413.700059 110.040318 
L 413.980911 122.780664 
L 414.261764 126.645034 
L 414.542616 125.920464 
L 414.823468 133.830347 
L 415.104321 133.951109 
L 415.385173 128.335696 
L 415.666026 127.792269 
L 415.946878 129.120646 
L 416.227731 122.297617 
L 416.508583 122.297617 
L 416.789436 121.210763 
L 417.070288 126.403511 
L 417.351141 117.044489 
L 417.631993 117.10487 
L 417.912845 116.501062 
L 418.193698 114.689638 
L 418.47455 121.271144 
L 418.755403 120.003148 
L 419.036255 124.471326 
L 419.317108 122.901425 
L 419.878813 132.743493 
L 420.159665 134.313394 
L 420.440518 134.675678 
L 420.72137 130.509404 
L 421.002222 136.668244 
L 421.283075 134.917201 
L 421.563927 137.09091 
L 421.84478 140.411853 
L 422.125632 145.54422 
L 422.687337 150.97849 
L 422.96819 130.690546 
L 423.249042 131.958543 
L 423.529895 132.018924 
L 423.810747 133.045397 
L 424.091599 144.81965 
L 424.372452 148.382117 
L 424.653304 143.672415 
L 424.934157 144.698889 
L 425.215009 131.294354 
L 425.495862 132.50197 
L 425.776714 145.181935 
L 426.057567 146.148027 
L 426.619272 135.58139 
L 426.900124 137.936241 
L 427.180976 137.15129 
L 427.461829 134.132251 
L 427.742681 140.230711 
L 428.023534 141.559088 
L 428.304386 142.223276 
L 428.585239 145.6046 
L 428.866091 151.220013 
L 429.146944 150.253921 
L 429.427796 143.732796 
L 429.708649 141.257184 
L 429.989501 150.736967 
L 430.270353 155.56743 
L 430.551206 139.989187 
L 430.832058 140.411853 
L 431.112911 143.068607 
L 431.393763 142.766704 
L 431.674616 138.238145 
L 432.236321 151.521917 
L 432.517173 142.283657 
L 433.078878 158.465708 
L 433.35973 151.642679 
L 433.640583 150.857729 
L 433.921435 143.128988 
L 434.202288 144.396985 
L 434.48314 143.672415 
L 434.763993 138.358906 
L 435.044845 146.087647 
L 435.325698 146.208408 
L 435.60655 138.057002 
L 435.887403 138.902333 
L 436.168255 142.283657 
L 436.449107 139.928807 
L 436.72996 135.883294 
L 437.010812 127.671507 
L 437.291665 129.301788 
L 437.572517 130.267881 
L 438.134222 135.400248 
L 438.415075 133.951109 
L 438.695927 137.815479 
L 438.97678 135.702152 
L 439.538484 146.631074 
L 440.100189 139.204237 
L 440.381042 141.921373 
L 440.661894 140.894899 
L 440.942747 133.347301 
L 441.504452 138.540049 
L 441.785304 136.124817 
L 442.066157 137.936241 
L 442.627861 300.11903 
L 442.908714 286.29183 
L 443.189566 288.163634 
L 443.470419 224.341144 
L 443.751271 86.189908 
L 444.312976 74.959082 
L 444.874681 67.10958 
L 445.155534 68.015292 
L 445.436386 66.928437 
L 445.717238 66.928437 
L 445.998091 47.002778 
L 446.278943 44.587547 
L 446.559796 44.768689 
L 446.840648 52.376668 
L 447.121501 48.814202 
L 447.402353 50.082198 
L 447.683206 47.606586 
L 447.964058 47.546205 
L 448.244911 47.727348 
L 448.525763 51.108672 
L 448.806615 51.289814 
L 449.087468 50.142579 
L 449.36832 48.089632 
L 449.649173 50.021818 
L 449.930025 48.874583 
L 450.210878 48.572679 
L 450.772583 49.357629 
L 451.334288 46.761255 
L 451.61514 47.727348 
L 451.895992 50.20296 
L 452.176845 49.961437 
L 452.457697 50.806768 
L 452.73855 50.867149 
L 453.019402 51.048291 
L 453.300255 54.188092 
L 453.581107 55.878754 
L 453.86196 48.512298 
L 454.142812 57.267512 
L 454.423665 56.542942 
L 454.704517 48.814202 
L 455.547074 74.415655 
L 455.827927 87.759808 
L 456.108779 86.854096 
L 456.389632 79.789545 
L 456.951337 55.093804 
L 457.232189 53.765426 
L 457.513041 53.342761 
L 457.793894 57.207131 
L 458.074746 66.264249 
L 458.355599 67.773768 
L 458.636451 60.407313 
L 458.917304 60.648836 
L 459.198156 58.414747 
L 459.479009 64.754729 
L 459.759861 61.856451 
L 460.040714 62.762163 
L 460.321566 59.260078 
L 460.602418 62.279117 
L 460.883271 61.796071 
L 461.164123 58.112843 
L 461.444976 52.618191 
L 461.725828 54.912661 
L 462.006681 53.946569 
L 462.287533 54.308853 
L 462.568386 52.980476 
L 462.849238 44.466785 
L 463.130091 44.647928 
L 463.410943 45.734782 
L 463.691795 45.915924 
L 463.972648 47.727348 
L 464.2535 46.882017 
L 464.534353 47.90849 
L 464.815205 46.097067 
L 465.096058 45.795163 
L 465.37691 46.097067 
L 465.657763 45.070593 
L 465.938615 46.33859 
L 466.219468 45.915924 
L 466.50032 47.727348 
L 466.781172 52.376668 
L 467.062025 52.859714 
L 467.342877 54.731519 
L 467.62373 47.666967 
L 467.904582 53.584284 
L 468.185435 49.719914 
L 468.74714 63.24521 
L 469.027992 66.264249 
L 469.589697 68.377576 
L 469.870549 68.800242 
L 470.151402 66.143487 
L 470.432254 68.498338 
L 470.713107 66.626533 
L 470.993959 68.921003 
L 471.274812 66.807676 
L 471.555664 52.859714 
L 471.836517 49.116106 
L 472.398222 45.734782 
L 472.679074 47.968871 
L 472.959926 45.976305 
L 473.240779 45.432878 
L 473.521631 45.432878 
L 473.802484 43.742216 
L 474.364189 46.036686 
L 474.645041 45.493259 
L 474.925894 44.164881 
L 475.206746 45.432878 
L 475.487599 43.802597 
L 476.049303 69.222907 
L 476.330156 63.30559 
L 476.611008 63.728256 
L 477.172713 79.910306 
L 477.453566 101.647389 
L 477.734418 100.9832 
L 478.015271 85.646481 
L 478.296123 85.767242 
L 478.576976 79.487641 
L 478.857828 76.287459 
L 479.13868 80.876399 
L 479.419533 77.072409 
L 479.700385 81.480207 
L 480.26209 93.435602 
L 480.542943 85.888004 
L 481.104648 83.050107 
L 481.3855 89.993897 
L 481.666353 75.079843 
L 481.947205 76.710125 
L 482.228057 83.955819 
L 482.50891 76.227078 
L 482.789762 77.91774 
L 483.070615 83.593534 
L 483.351467 83.653915 
L 483.63232 81.238683 
L 483.913172 80.091449 
L 484.194025 82.808584 
L 484.75573 81.299064 
L 485.036582 79.185737 
L 485.317434 78.944214 
L 485.598287 81.661349 
L 485.879139 81.359445 
L 486.159992 83.714296 
L 486.440844 77.555456 
L 486.721697 81.419826 
L 487.002549 58.837412 
L 487.283402 50.504864 
L 487.564254 47.425444 
L 488.406811 51.893622 
L 488.687664 57.569416 
L 488.968516 77.313932 
L 489.249369 79.729164 
L 489.811074 67.290722 
L 490.091926 59.743124 
L 490.372779 56.482562 
L 490.653631 49.961437 
L 490.934484 53.28238 
L 491.215336 52.316287 
L 491.496188 53.825807 
L 491.777041 54.369234 
L 492.057893 58.112843 
L 492.619598 84.680388 
L 492.900451 81.600968 
L 493.181303 79.849925 
L 493.462156 81.238683 
L 493.743008 81.299064 
L 494.023861 85.888004 
L 494.585565 77.555456 
L 494.866418 76.34784 
L 495.14727 79.849925 
L 495.428123 77.736598 
L 495.708975 86.189908 
L 495.989828 72.181566 
L 496.27068 82.567061 
L 496.832385 81.178303 
L 497.113238 80.93678 
L 497.39409 72.54385 
L 497.674942 83.895438 
L 497.955795 76.830886 
L 498.236647 52.437049 
L 498.5175 59.501601 
L 498.798352 56.542942 
L 499.079205 55.878754 
L 499.360057 54.912661 
L 499.64091 58.112843 
L 499.921762 63.003686 
L 500.202615 72.664612 
L 500.483467 72.906135 
L 500.764319 62.218736 
L 501.045172 63.426352 
L 501.326024 65.177395 
L 501.887729 72.241946 
L 502.449434 75.200605 
L 502.730287 75.744032 
L 503.011139 79.064975 
L 503.291992 72.48347 
L 503.853696 96.877307 
L 504.134549 90.839228 
L 504.415401 78.159263 
L 504.696254 80.151829 
L 504.977106 84.982292 
L 505.257959 82.627442 
L 505.538811 77.85736 
L 505.819664 75.502509 
L 506.100516 62.339498 
L 506.381369 54.912661 
L 506.662221 56.965608 
L 507.223926 68.800242 
L 507.504778 78.944214 
L 507.785631 81.238683 
L 508.066483 70.97395 
L 508.909041 63.486733 
L 509.189893 64.03016 
L 509.470746 68.136053 
L 509.751598 69.524811 
L 510.03245 75.744032 
L 510.313303 75.260986 
L 510.594155 78.461167 
L 510.875008 74.657178 
L 511.15586 75.985555 
L 511.436713 75.804413 
L 511.717565 83.352011 
L 511.998418 82.929345 
L 512.27927 73.147658 
L 512.560123 79.668783 
L 512.840975 75.442128 
L 513.121827 73.992989 
L 513.40268 77.555456 
L 513.683532 76.770505 
L 513.964385 72.664612 
L 514.245237 73.087277 
L 514.52609 77.978121 
L 514.806942 73.811847 
L 515.087795 73.328801 
L 515.368647 59.380839 
L 515.6495 63.124448 
L 515.930352 63.909398 
L 516.211204 77.85736 
L 516.492057 97.722638 
L 517.053762 80.393352 
L 517.334614 86.974858 
L 517.615467 82.023634 
L 517.896319 79.306498 
L 518.177172 79.42726 
L 518.458024 77.85736 
L 518.738877 78.400787 
L 519.300581 75.140224 
L 519.581434 81.782111 
L 519.862286 78.219644 
L 520.143139 68.075672 
L 520.423991 70.792808 
L 520.704844 80.21221 
L 520.985696 76.770505 
L 521.266549 75.381747 
L 521.547401 79.668783 
L 521.828254 78.159263 
L 522.109106 80.031068 
L 522.389958 78.763071 
L 522.670811 79.849925 
L 522.951663 76.045936 
L 523.232516 79.306498 
L 523.513368 73.872228 
L 523.794221 75.321367 
L 524.075073 72.302327 
L 524.355926 79.729164 
L 524.636778 77.13279 
L 524.917631 76.34784 
L 525.198483 75.019463 
L 525.479335 75.079843 
L 525.760188 75.804413 
L 526.04104 73.389181 
L 526.321893 72.966516 
L 526.602745 75.381747 
L 526.883598 74.234512 
L 527.16445 75.260986 
L 527.445303 72.664612 
L 527.726155 76.710125 
L 528.007008 76.649744 
L 528.28786 74.234512 
L 528.568712 73.630705 
L 528.849565 78.944214 
L 529.130417 80.755637 
L 529.692122 75.442128 
L 529.972975 74.476036 
L 530.253827 76.227078 
L 530.53468 73.208039 
L 530.815532 66.928437 
L 531.096385 74.596797 
L 531.377237 72.724993 
L 531.658089 75.683651 
L 531.938942 74.717559 
L 532.219794 77.193171 
L 532.500647 73.026897 
L 532.781499 71.034331 
L 533.062352 75.804413 
L 533.343204 74.657178 
L 533.624057 72.241946 
L 533.904909 74.777939 
L 534.185762 68.075672 
L 534.466614 68.981384 
L 534.747466 74.355274 
L 535.028319 76.589363 
L 535.309171 77.193171 
L 535.870876 75.62327 
L 536.151729 76.34784 
L 536.994286 69.826715 
L 537.275139 70.97395 
L 537.555991 71.275854 
L 537.836843 73.208039 
L 538.117696 77.434694 
L 538.398548 74.536416 
L 538.679401 61.675309 
L 538.960253 74.05337 
L 539.241106 97.481115 
L 539.521958 95.911214 
L 539.802811 88.907043 
L 540.083663 85.888004 
L 540.364516 77.676217 
L 540.645368 82.687822 
L 540.92622 78.400787 
L 541.207073 82.868965 
L 541.487925 72.000423 
L 542.04963 82.567061 
L 542.330483 77.796979 
L 542.611335 77.796979 
L 542.892188 74.83832 
L 543.453892 64.150921 
L 543.734745 68.921003 
L 544.015597 69.705954 
L 544.29645 69.705954 
L 544.577302 68.075672 
L 544.858155 67.169961 
L 545.41986 74.717559 
L 545.700712 69.826715 
L 545.981565 72.54385 
L 546.262417 70.551285 
L 546.543269 66.868057 
L 546.824122 73.811847 
L 547.104974 74.898701 
L 547.666679 67.834149 
L 547.947532 66.747295 
L 548.228384 67.471864 
L 548.509237 63.547113 
L 548.790089 63.667875 
L 549.070942 70.490904 
L 549.351794 87.337143 
L 549.632646 91.322275 
L 549.913499 80.876399 
L 550.194351 80.21221 
L 550.475204 74.777939 
L 550.756056 76.951648 
L 551.036909 66.203868 
L 551.317761 68.196434 
L 551.598614 82.567061 
L 551.879466 81.057541 
L 552.160319 73.26842 
L 552.441171 71.034331 
L 552.722023 77.796979 
L 553.002876 73.389181 
L 553.283728 74.777939 
L 553.564581 71.456996 
L 553.845433 72.423089 
L 554.126286 68.67948 
L 554.407138 69.102146 
L 554.687991 66.807676 
L 554.968843 70.853188 
L 555.249696 69.343669 
L 555.530548 67.10958 
L 555.8114 66.022726 
L 556.092253 72.845754 
L 556.373105 65.781202 
L 556.653958 61.796071 
L 556.93481 63.547113 
L 557.215663 63.124448 
L 557.496515 71.456996 
L 557.777368 66.807676 
L 558.05822 70.370142 
L 558.339073 70.249381 
L 558.619925 66.928437 
L 558.900777 67.89453 
L 559.18163 67.049199 
L 559.462482 68.136053 
L 559.743335 70.007857 
L 560.024187 64.754729 
L 560.30504 63.365971 
L 560.585892 69.222907 
L 560.866745 68.860623 
L 561.42845 65.237775 
L 561.709302 64.81511 
L 561.990154 68.67948 
L 562.271007 66.626533 
L 562.551859 66.38501 
L 563.113564 70.853188 
L 563.394417 64.573587 
L 563.675269 73.449562 
L 563.956122 67.713388 
L 564.517827 63.547113 
L 564.798679 63.667875 
L 565.079531 61.131882 
L 565.360384 60.346932 
L 565.641236 62.822544 
L 565.922089 64.211302 
L 566.202941 62.097975 
L 566.483794 63.124448 
L 566.764646 59.380839 
L 567.045499 61.252644 
L 567.326351 62.097975 
L 567.607204 65.720822 
L 567.888056 59.984647 
L 568.168908 59.320458 
L 568.449761 60.165789 
L 568.730613 59.260078 
L 569.011466 59.743124 
L 569.292318 61.916832 
L 569.573171 61.192263 
L 569.854023 61.977213 
L 570.134876 61.192263 
L 570.415728 61.373405 
L 570.696581 62.279117 
L 571.258285 60.95074 
L 571.539138 62.279117 
L 571.81999 61.675309 
L 572.100843 60.045028 
L 572.381695 64.935871 
L 572.662548 63.30559 
L 572.9434 58.897793 
L 573.224253 57.267512 
L 573.505105 61.494167 
L 573.785958 68.377576 
L 574.06681 61.977213 
L 574.628515 71.638139 
L 574.909367 71.879662 
L 575.19022 77.012029 
L 575.751925 69.524811 
L 576.032777 59.622362 
L 576.31363 55.335327 
L 576.594482 53.28238 
L 577.156187 53.221999 
L 577.437039 53.463522 
L 577.717892 54.85228 
L 578.279597 60.95074 
L 578.841302 52.255907 
L 579.122154 54.7919 
L 579.403007 55.395707 
L 579.683859 63.184829 
L 579.964712 54.85228 
L 580.245564 53.825807 
L 580.526416 55.154184 
L 581.088121 56.180658 
L 581.368974 55.878754 
L 581.649826 54.912661 
L 581.930679 57.690177 
L 582.492384 59.139316 
L 582.773236 59.501601 
L 583.054089 74.717559 
L 583.334941 78.098883 
L 583.615793 77.495075 
L 583.896646 74.777939 
L 584.177498 79.366879 
L 584.458351 75.019463 
L 584.739203 74.777939 
L 585.020056 75.683651 
L 585.300908 73.811847 
L 585.581761 74.777939 
L 585.862613 71.215473 
L 586.143466 76.951648 
L 586.424318 73.389181 
L 586.70517 71.396615 
L 586.986023 71.275854 
L 587.266875 70.792808 
L 587.547728 68.67948 
L 587.82858 70.672046 
L 588.109433 59.561982 
L 588.671138 84.80115 
L 588.95199 75.079843 
L 589.513695 73.26842 
L 589.794547 74.415655 
L 590.0754 74.657178 
L 590.356252 71.034331 
L 590.637105 75.260986 
L 590.917957 73.449562 
L 591.19881 66.988818 
L 591.479662 67.169961 
L 591.760515 70.672046 
L 592.041367 63.788637 
L 592.32222 63.003686 
L 592.883924 66.022726 
L 593.164777 69.585192 
L 593.445629 78.098883 
L 594.007334 64.211302 
L 594.288187 62.339498 
L 594.569039 61.614928 
L 594.849892 61.494167 
L 595.130744 62.460259 
L 595.411597 67.653007 
L 595.692449 87.276762 
L 595.973301 93.495983 
L 596.254154 95.186645 
L 596.815859 86.069146 
L 597.658416 75.381747 
L 598.220121 70.007857 
L 598.500974 69.585192 
L 598.781826 68.317195 
L 599.062678 72.664612 
L 599.343531 70.611665 
L 599.624383 71.456996 
L 599.905236 68.800242 
L 600.186088 69.041765 
L 600.466941 66.203868 
L 600.747793 67.954911 
L 601.028646 68.860623 
L 601.309498 66.807676 
L 601.590351 73.087277 
L 602.152055 73.389181 
L 602.71376 84.861531 
L 602.994613 78.581929 
L 603.556318 76.045936 
L 603.83717 219.38992 
L 604.679728 375.836534 
L 604.96058 54.429615 
L 605.241432 59.803505 
L 606.08399 88.303235 
L 606.364842 88.484378 
L 606.645695 83.895438 
L 606.926547 77.434694 
L 607.2074 77.615836 
L 607.488252 70.732427 
L 607.769105 71.155092 
L 608.049957 70.97395 
L 608.330809 71.638139 
L 608.611662 70.853188 
L 609.173367 64.03016 
L 609.454219 66.445391 
L 609.735072 65.60006 
L 610.015924 67.230341 
L 610.296777 71.517377 
L 610.577629 124.350564 
L 610.858482 68.317195 
L 611.139334 73.992989 
L 611.701039 68.437957 
L 611.981891 85.284196 
L 612.262744 89.088186 
L 612.543596 80.393352 
L 612.824449 80.151829 
L 613.105301 80.332972 
L 613.386154 79.548021 
L 613.667006 76.951648 
L 613.947859 78.70269 
L 614.228711 82.446299 
L 614.509563 98.62835 
L 614.790416 69.46443 
L 615.071268 79.064975 
L 615.352121 82.929345 
L 615.632973 83.835057 
L 615.913826 77.555456 
L 616.194678 81.480207 
L 616.475531 80.21221 
L 616.756383 81.661349 
L 617.037236 79.608402 
L 617.318088 79.910306 
L 617.59894 78.823452 
L 617.879793 82.204776 
L 618.160645 75.62327 
L 618.72235 84.438865 
L 619.003203 80.031068 
L 619.284055 82.204776 
L 619.564908 88.363616 
L 619.84576 84.197342 
L 620.126613 82.265157 
L 620.407465 83.170869 
L 620.688317 80.93678 
L 621.530875 89.571232 
L 621.811727 91.020371 
L 622.09258 83.110488 
L 622.373432 81.842491 
L 622.654285 82.385918 
L 622.935137 80.514114 
L 623.21599 75.985555 
L 623.496842 87.276762 
L 624.058547 97.11883 
L 624.339399 88.66552 
L 624.620252 87.337143 
L 624.901104 87.035239 
L 625.181957 85.465338 
L 625.462809 89.329709 
L 625.743662 89.812755 
L 626.024514 87.337143 
L 626.305367 88.303235 
L 626.586219 83.352011 
L 626.867071 81.178303 
L 627.147924 74.294893 
L 627.709629 83.29163 
L 628.271334 88.605139 
L 628.833039 99.896346 
L 629.113891 90.23542 
L 629.956448 76.770505 
L 630.237301 87.035239 
L 630.518153 76.528982 
L 631.079858 87.639047 
L 631.360711 92.409129 
L 631.641563 82.023634 
L 631.922416 79.004594 
L 632.203268 77.615836 
L 632.48412 84.136961 
L 632.764973 83.050107 
L 633.045825 78.944214 
L 633.326678 80.453733 
L 633.60753 78.340406 
L 633.888383 81.299064 
L 634.169235 80.393352 
L 634.450088 82.748203 
L 634.73094 79.004594 
L 635.011793 78.400787 
L 635.292645 78.883833 
L 635.573497 82.50668 
L 635.85435 80.453733 
L 636.135202 79.246118 
L 636.416055 80.514114 
L 636.696907 79.125356 
L 636.97776 79.668783 
L 637.258612 78.461167 
L 637.539465 87.457904 
L 638.382022 78.823452 
L 638.662874 79.306498 
L 638.943727 84.318104 
L 639.224579 82.627442 
L 639.505432 84.499246 
L 639.786284 78.219644 
L 640.347989 89.933517 
L 640.628842 87.457904 
L 640.909694 90.778848 
L 641.190547 86.854096 
L 641.471399 90.718467 
L 641.752251 90.23542 
L 642.033104 82.989726 
L 642.313956 85.706862 
L 642.594809 82.687822 
L 642.875661 85.646481 
L 643.156514 85.344577 
L 643.437366 78.883833 
L 643.718219 81.299064 
L 643.999071 82.084014 
L 644.279924 77.615836 
L 644.560776 76.34784 
L 644.841628 86.854096 
L 645.122481 81.600968 
L 645.403333 82.929345 
L 645.684186 81.842491 
L 645.965038 82.023634 
L 646.245891 83.895438 
L 646.526743 84.136961 
L 646.807596 87.216381 
L 647.088448 87.639047 
L 647.369301 81.299064 
L 647.650153 79.668783 
L 647.931005 80.031068 
L 648.211858 82.748203 
L 648.49271 79.185737 
L 648.773563 82.929345 
L 649.054415 88.786282 
L 649.335268 86.793716 
L 649.61612 81.842491 
L 649.896973 89.148566 
L 650.458678 85.948385 
L 650.73953 88.66552 
L 651.301235 81.661349 
L 651.582087 81.178303 
L 651.86294 81.299064 
L 652.143792 76.589363 
L 652.705497 83.412392 
L 652.98635 84.680388 
L 653.267202 86.612573 
L 653.548055 91.74494 
L 654.109759 82.567061 
L 654.671464 80.332972 
L 654.952317 79.548021 
L 655.233169 77.012029 
L 655.514022 76.287459 
L 656.075727 81.782111 
L 656.356579 81.661349 
L 656.637432 78.400787 
L 656.918284 77.978121 
L 657.760841 79.246118 
L 658.041694 81.661349 
L 658.322546 80.151829 
L 658.603399 80.151829 
L 658.884251 77.736598 
L 659.165104 80.151829 
L 659.445956 79.849925 
L 659.726809 81.117922 
L 660.288513 75.56289 
L 660.569366 74.294893 
L 660.850218 73.932608 
L 661.131071 74.174132 
L 661.411923 74.83832 
L 661.692776 74.294893 
L 661.973628 75.985555 
L 662.254481 73.932608 
L 662.535333 74.596797 
L 663.097038 73.449562 
L 663.37789 77.012029 
L 663.658743 76.770505 
L 663.939595 78.64231 
L 664.220448 79.729164 
L 664.5013 78.581929 
L 664.782153 75.62327 
L 665.063005 78.883833 
L 665.905563 92.771413 
L 666.186415 87.09562 
L 666.74812 83.653915 
L 667.028972 81.117922 
L 667.309825 79.789545 
L 667.590677 98.024542 
L 667.87153 88.001331 
L 668.152382 69.585192 
L 668.433235 71.034331 
L 668.714087 73.932608 
L 668.99494 74.536416 
L 669.275792 79.910306 
L 669.556644 78.340406 
L 669.837497 79.970687 
L 670.118349 86.491812 
L 670.399202 84.197342 
L 670.680054 74.536416 
L 670.960907 77.374313 
L 671.241759 75.56289 
L 671.522612 72.060804 
L 671.803464 73.509943 
L 672.084317 74.234512 
L 672.365169 74.536416 
L 672.646021 71.819281 
L 672.926874 74.415655 
L 673.207726 86.008765 
L 673.488579 83.714296 
L 674.050284 77.796979 
L 674.331136 74.959082 
L 674.611989 76.166698 
L 674.611989 76.166698 
" clip-path="url(#p70bdd875c3)" style="fill: none; stroke: #2878b5; stroke-width: 1.5; stroke-linecap: square"/>
   </g>
   <g id="patch_3">
    <path d="M 28.496875 392.44125 
L 28.496875 27.1375 
" style="fill: none; stroke: #bcbcbc; stroke-width: 0.8; stroke-linejoin: miter; stroke-linecap: square"/>
   </g>
   <g id="patch_4">
    <path d="M 705.379375 392.44125 
L 705.379375 27.1375 
" style="fill: none; stroke: #bcbcbc; stroke-width: 0.8; stroke-linejoin: miter; stroke-linecap: square"/>
   </g>
   <g id="patch_5">
    <path d="M 28.496875 392.44125 
L 705.379375 392.44125 
" style="fill: none; stroke: #bcbcbc; stroke-width: 0.8; stroke-linejoin: miter; stroke-linecap: square"/>
   </g>
   <g id="patch_6">
    <path d="M 28.496875 27.1375 
L 705.379375 27.1375 
" style="fill: none; stroke: #bcbcbc; stroke-width: 0.8; stroke-linejoin: miter; stroke-linecap: square"/>
   </g>
   <g id="text_14">
    <!-- 原始 pH 时间序列数据 -->
    <g transform="translate(306.938125 17.1375) scale(0.12 -0.12)">
     <defs>
      <path id="SimHei-539f" d="M 3850 4275 
Q 3675 4025 3600 3700 
L 5450 3700 
Q 5425 3475 5425 3000 
L 5425 2225 
Q 5425 1825 5450 1475 
L 4050 1475 
L 4050 -50 
Q 4050 -400 3825 -487 
Q 3600 -575 3100 -625 
Q 3050 -325 2925 -50 
Q 3400 -75 3475 -37 
Q 3550 0 3550 175 
L 3550 1475 
L 2125 1475 
Q 2150 1775 2150 2200 
L 2150 3025 
Q 2150 3425 2125 3700 
L 3150 3700 
Q 3300 4250 3300 4425 
L 3850 4275 
z
M 275 -325 
Q 725 275 875 1037 
Q 1025 1800 1025 2300 
L 1025 4125 
Q 1025 4650 1000 4900 
L 5025 4900 
Q 5575 4900 5800 4925 
L 5800 4475 
Q 5600 4500 5025 4500 
L 1525 4500 
L 1525 2375 
Q 1500 1650 1412 1112 
Q 1325 575 1137 125 
Q 950 -325 800 -575 
Q 550 -400 275 -325 
z
M 4925 2775 
L 4925 3325 
L 2625 3325 
L 2625 2775 
L 4925 2775 
z
M 4925 1875 
L 4925 2400 
L 2625 2400 
L 2625 1875 
L 4925 1875 
z
M 1475 -50 
Q 1800 150 2087 450 
Q 2375 750 2575 1100 
Q 2800 875 2975 750 
Q 2300 -50 1825 -400 
Q 1675 -225 1475 -50 
z
M 4825 1075 
Q 5700 300 5925 25 
Q 5750 -125 5575 -325 
Q 5250 75 4500 725 
Q 4675 925 4825 1075 
z
" transform="scale(0.015625)"/>
      <path id="SimHei-59cb" d="M 1750 5075 
Q 1650 4900 1587 4587 
Q 1525 4275 1475 3875 
L 2550 3875 
Q 2400 2150 1950 1100 
Q 2275 850 2725 425 
Q 2550 275 2375 50 
Q 2000 500 1750 675 
Q 1525 275 1250 -62 
Q 975 -400 700 -675 
Q 600 -525 250 -350 
Q 575 -125 862 200 
Q 1150 525 1375 975 
Q 800 1400 500 1550 
Q 875 2925 950 3425 
Q 650 3425 325 3400 
L 325 3900 
Q 675 3875 1025 3875 
Q 1175 4825 1175 5225 
Q 1550 5125 1750 5075 
z
M 5725 2050 
Q 5700 1650 5700 650 
Q 5700 -325 5725 -650 
L 5200 -650 
L 5200 -100 
L 3450 -100 
L 3450 -675 
L 2950 -675 
Q 2975 -300 2975 675 
Q 2975 1650 2950 2050 
L 5725 2050 
z
M 4400 4950 
Q 3750 3875 3250 3150 
Q 3875 3150 4250 3175 
Q 4625 3200 5200 3225 
Q 4875 3675 4625 3900 
Q 4825 4000 5025 4225 
Q 5750 3300 6125 2850 
Q 6000 2775 5725 2550 
Q 5575 2775 5450 2875 
Q 4575 2825 3937 2762 
Q 3300 2700 2825 2575 
Q 2775 2800 2600 3100 
Q 2875 3225 3237 3850 
Q 3600 4475 3825 5200 
Q 4025 5050 4400 4950 
z
M 5200 325 
L 5200 1600 
L 3450 1600 
L 3450 325 
L 5200 325 
z
M 1025 1775 
Q 1300 1550 1575 1400 
Q 1725 1725 1875 2337 
Q 2025 2950 2050 3425 
L 1400 3425 
Q 1300 2950 1025 1775 
z
" transform="scale(0.015625)"/>
      <path id="SimHei-5217" d="M 2950 4800 
Q 3525 4800 3825 4825 
L 3825 4400 
Q 3525 4425 2800 4425 
L 2125 4425 
Q 2075 4125 1925 3500 
L 3425 3500 
Q 3300 2500 3100 1862 
Q 2900 1225 2575 762 
Q 2250 300 1850 -12 
Q 1450 -325 925 -675 
Q 725 -375 475 -150 
Q 1125 125 1550 437 
Q 1975 750 2250 1225 
Q 2100 1350 1862 1550 
Q 1625 1750 1400 1925 
L 1750 2325 
Q 1925 2200 2100 2037 
Q 2275 1875 2500 1650 
Q 2650 2025 2737 2337 
Q 2825 2650 2875 3100 
L 1775 3100 
Q 1600 2650 1350 2237 
Q 1100 1825 775 1525 
Q 600 1675 325 1850 
Q 600 2125 825 2462 
Q 1050 2800 1200 3125 
Q 1350 3450 1425 3775 
Q 1500 4100 1550 4425 
L 1100 4425 
Q 575 4425 375 4400 
L 375 4825 
Q 575 4800 1125 4800 
L 2950 4800 
z
M 5975 5050 
Q 5925 4675 5925 4250 
L 5925 50 
Q 5925 -275 5737 -400 
Q 5550 -525 4900 -625 
Q 4825 -250 4650 25 
Q 5150 0 5287 25 
Q 5425 50 5425 325 
L 5425 4250 
Q 5425 4650 5400 5050 
L 5975 5050 
z
M 4725 4300 
Q 4675 4000 4675 3450 
L 4675 1650 
Q 4675 1200 4700 850 
L 4100 850 
Q 4150 1200 4150 1650 
L 4150 3550 
Q 4150 3975 4100 4300 
L 4725 4300 
z
" transform="scale(0.015625)"/>
      <path id="SimHei-6570" d="M 4525 4925 
Q 4475 4800 4400 4587 
Q 4325 4375 4175 3825 
L 5325 3825 
Q 5575 3825 5925 3850 
L 5925 3400 
Q 5650 3425 5500 3425 
Q 5500 3025 5362 2162 
Q 5225 1300 4875 675 
Q 5125 375 5437 137 
Q 5750 -100 6025 -200 
Q 5725 -425 5625 -625 
Q 5325 -450 5075 -225 
Q 4825 0 4575 325 
Q 4300 25 3987 -187 
Q 3675 -400 3200 -650 
Q 3075 -425 2850 -300 
Q 3225 -150 3650 125 
Q 4075 400 4300 675 
Q 4125 1025 3962 1425 
Q 3800 1825 3675 2475 
Q 3600 2275 3425 1950 
Q 3250 2050 3000 2150 
Q 3400 2850 3650 3675 
Q 3900 4500 3975 5100 
Q 4275 4975 4525 4925 
z
M 2100 2250 
Q 2000 2150 1875 1925 
L 3250 1925 
Q 3100 1300 2725 675 
Q 3125 525 3350 400 
Q 3225 225 3125 25 
Q 2900 175 2450 325 
Q 1950 -225 725 -650 
Q 600 -375 400 -275 
Q 1575 0 2000 475 
Q 1300 650 850 775 
Q 1000 1000 1250 1525 
Q 1000 1525 425 1500 
L 425 1950 
Q 900 1925 1400 1925 
Q 1500 2150 1550 2425 
Q 1825 2325 2100 2250 
z
M 1775 3950 
Q 1775 4550 1750 5100 
L 2250 5100 
Q 2225 4575 2225 3950 
Q 3075 3950 3425 3975 
L 3425 3525 
Q 3075 3550 2225 3550 
Q 2225 2825 2250 2425 
L 1750 2425 
Q 1775 2775 1775 3300 
Q 1650 3100 1300 2787 
Q 950 2475 650 2300 
Q 525 2525 275 2625 
Q 500 2700 875 2975 
Q 1250 3250 1450 3550 
Q 950 3550 500 3525 
L 500 3975 
Q 925 3950 1775 3950 
z
M 3975 3175 
Q 4200 1700 4600 1125 
Q 4850 1700 4937 2287 
Q 5025 2875 5050 3425 
L 4075 3425 
L 3975 3175 
z
M 1450 1000 
Q 1750 925 2275 800 
Q 2475 1050 2650 1525 
L 1725 1525 
Q 1600 1275 1450 1000 
z
M 3325 4825 
Q 3200 4625 3125 4450 
Q 3050 4275 2925 4025 
Q 2725 4125 2525 4175 
Q 2725 4500 2900 5000 
Q 3150 4875 3325 4825 
z
M 2575 3375 
Q 2900 3050 3200 2725 
Q 3050 2600 2875 2425 
Q 2525 2850 2300 3100 
Q 2450 3225 2575 3375 
z
M 925 5000 
Q 1275 4650 1500 4300 
L 1125 4075 
Q 950 4425 600 4725 
Q 825 4875 925 5000 
z
" transform="scale(0.015625)"/>
      <path id="SimHei-636e" d="M 5750 4775 
Q 5725 4550 5725 4225 
L 5725 3900 
Q 5725 3450 5750 3250 
L 3100 3250 
L 3100 2500 
L 4250 2500 
Q 4250 2725 4225 3175 
L 4700 3175 
Q 4675 2775 4675 2500 
L 5350 2500 
Q 5800 2500 6100 2525 
L 6100 2075 
Q 5800 2100 5375 2100 
L 4675 2100 
L 4675 1425 
L 5775 1425 
Q 5750 950 5750 800 
L 5750 175 
Q 5750 -225 5775 -575 
L 5325 -575 
L 5325 -225 
L 3675 -225 
L 3675 -600 
L 3225 -600 
Q 3250 -325 3250 100 
L 3250 825 
Q 3250 1075 3225 1425 
L 4250 1425 
L 4250 2100 
L 3075 2100 
Q 3050 1375 2887 737 
Q 2725 100 2425 -475 
Q 2200 -325 1950 -250 
Q 2250 150 2387 600 
Q 2525 1050 2600 1562 
Q 2675 2075 2675 2625 
L 2675 3575 
Q 2675 3975 2650 4775 
L 5750 4775 
z
M 1275 4425 
Q 1275 4775 1250 5075 
L 1750 5075 
Q 1725 4800 1725 4425 
L 1725 3775 
Q 1975 3775 2500 3800 
L 2500 3375 
Q 1975 3400 1725 3400 
L 1725 2450 
Q 2050 2625 2400 2850 
Q 2425 2650 2525 2475 
Q 2050 2200 1725 2000 
L 1725 175 
Q 1725 -300 1487 -400 
Q 1250 -500 775 -575 
Q 725 -325 600 -50 
Q 1025 -50 1150 -12 
Q 1275 25 1275 325 
L 1275 1800 
Q 900 1600 525 1325 
Q 450 1525 275 1800 
Q 775 1975 1275 2250 
L 1275 3400 
Q 800 3400 350 3375 
L 350 3800 
Q 800 3775 1275 3775 
L 1275 4425 
z
M 5300 3625 
L 5300 4400 
L 3100 4400 
L 3100 3625 
L 5300 3625 
z
M 5325 150 
L 5325 1075 
L 3675 1075 
L 3675 150 
L 5325 150 
z
" transform="scale(0.015625)"/>
     </defs>
     <use xlink:href="#SimHei-539f"/>
     <use xlink:href="#SimHei-59cb" transform="translate(100 0)"/>
     <use xlink:href="#SimHei-20" transform="translate(200 0)"/>
     <use xlink:href="#SimHei-70" transform="translate(250 0)"/>
     <use xlink:href="#SimHei-48" transform="translate(300 0)"/>
     <use xlink:href="#SimHei-20" transform="translate(350 0)"/>
     <use xlink:href="#SimHei-65f6" transform="translate(400 0)"/>
     <use xlink:href="#SimHei-95f4" transform="translate(500 0)"/>
     <use xlink:href="#SimHei-5e8f" transform="translate(600 0)"/>
     <use xlink:href="#SimHei-5217" transform="translate(700 0)"/>
     <use xlink:href="#SimHei-6570" transform="translate(800 0)"/>
     <use xlink:href="#SimHei-636e" transform="translate(900 0)"/>
    </g>
   </g>
   <g id="legend_1">
    <g id="patch_7">
     <path d="M 625.279375 47.310156 
L 699.079375 47.310156 
Q 700.879375 47.310156 700.879375 45.510156 
L 700.879375 33.4375 
Q 700.879375 31.6375 699.079375 31.6375 
L 625.279375 31.6375 
Q 623.479375 31.6375 623.479375 33.4375 
L 623.479375 45.510156 
Q 623.479375 47.310156 625.279375 47.310156 
z
" style="fill: #eeeeee; opacity: 0.8; stroke: #cccccc; stroke-width: 0.5; stroke-linejoin: miter"/>
    </g>
    <g id="line2d_24">
     <path d="M 627.079375 39.435156 
L 636.079375 39.435156 
L 645.079375 39.435156 
" style="fill: none; stroke: #2878b5; stroke-width: 1.5; stroke-linecap: square"/>
    </g>
    <g id="text_15">
     <!-- 原始 pH 值 -->
     <g transform="translate(652.279375 42.585156) scale(0.09 -0.09)">
      <use xlink:href="#SimHei-539f"/>
      <use xlink:href="#SimHei-59cb" transform="translate(100 0)"/>
      <use xlink:href="#SimHei-20" transform="translate(200 0)"/>
      <use xlink:href="#SimHei-70" transform="translate(250 0)"/>
      <use xlink:href="#SimHei-48" transform="translate(300 0)"/>
      <use xlink:href="#SimHei-20" transform="translate(350 0)"/>
      <use xlink:href="#SimHei-503c" transform="translate(400 0)"/>
     </g>
    </g>
   </g>
  </g>
 </g>
 <defs>
  <clipPath id="p70bdd875c3">
   <rect x="28.496875" y="27.1375" width="676.8825" height="365.30375"/>
  </clipPath>
 </defs>
</svg>
