<?xml version="1.0" encoding="utf-8" standalone="no"?>
<!DOCTYPE svg PUBLIC "-//W3C//DTD SVG 1.1//EN"
  "http://www.w3.org/Graphics/SVG/1.1/DTD/svg11.dtd">
<svg xmlns:xlink="http://www.w3.org/1999/xlink" width="712.476875pt" height="423.709687pt" viewBox="0 0 712.476875 423.709687" xmlns="http://www.w3.org/2000/svg" version="1.1">
 <metadata>
  <rdf:RDF xmlns:dc="http://purl.org/dc/elements/1.1/" xmlns:cc="http://creativecommons.org/ns#" xmlns:rdf="http://www.w3.org/1999/02/22-rdf-syntax-ns#">
   <cc:Work>
    <dc:type rdf:resource="http://purl.org/dc/dcmitype/StillImage"/>
    <dc:date>2025-04-15T18:19:11.391576</dc:date>
    <dc:format>image/svg+xml</dc:format>
    <dc:creator>
     <cc:Agent>
      <dc:title>Matplotlib v3.10.0, https://matplotlib.org/</dc:title>
     </cc:Agent>
    </dc:creator>
   </cc:Work>
  </rdf:RDF>
 </metadata>
 <defs>
  <style type="text/css">*{stroke-linejoin: round; stroke-linecap: butt}</style>
 </defs>
 <g id="figure_1">
  <g id="patch_1">
   <path d="M 0 423.709687 
L 712.476875 423.709687 
L 712.476875 0 
L 0 0 
z
" style="fill: #ffffff"/>
  </g>
  <g id="axes_1">
   <g id="patch_2">
    <path d="M 33.153125 392.439375 
L 705.276875 392.439375 
L 705.276875 27.090625 
L 33.153125 27.090625 
z
" style="fill: #eeeeee"/>
   </g>
   <g id="matplotlib.axis_1">
    <g id="xtick_1">
     <g id="line2d_1">
      <path d="M 63.146194 392.439375 
L 63.146194 27.090625 
" clip-path="url(#pfa13539f60)" style="fill: none; stroke-dasharray: 1.85,0.8; stroke-dashoffset: 0; stroke: #b2b2b2; stroke-opacity: 0.3; stroke-width: 0.5"/>
     </g>
     <g id="line2d_2">
      <defs>
       <path id="meda95b8a0e" d="M 0 0 
L 0 -3.5 
" style="stroke: #000000; stroke-width: 0.8"/>
      </defs>
      <g>
       <use xlink:href="#meda95b8a0e" x="63.146194" y="392.439375" style="stroke: #000000; stroke-width: 0.8"/>
      </g>
     </g>
     <g id="text_1">
      <!-- 0 -->
      <g transform="translate(60.896194 402.126875) scale(0.09 -0.09)">
       <defs>
        <path id="SimHei-30" d="M 225 2537 
Q 250 3200 412 3587 
Q 575 3975 875 4225 
Q 1175 4475 1612 4475 
Q 2050 4475 2375 4112 
Q 2700 3750 2800 3200 
Q 2900 2650 2862 1937 
Q 2825 1225 2612 775 
Q 2400 325 1975 150 
Q 1550 -25 1125 187 
Q 700 400 525 750 
Q 350 1100 275 1487 
Q 200 1875 225 2537 
z
M 750 2687 
Q 675 2000 800 1462 
Q 925 925 1212 700 
Q 1500 475 1800 612 
Q 2100 750 2237 1162 
Q 2375 1575 2375 2062 
Q 2375 2550 2337 2950 
Q 2300 3350 2112 3675 
Q 1925 4000 1612 4012 
Q 1300 4025 1062 3700 
Q 825 3375 750 2687 
z
" transform="scale(0.015625)"/>
       </defs>
       <use xlink:href="#SimHei-30"/>
      </g>
     </g>
    </g>
    <g id="xtick_2">
     <g id="line2d_3">
      <path d="M 202.64884 392.439375 
L 202.64884 27.090625 
" clip-path="url(#pfa13539f60)" style="fill: none; stroke-dasharray: 1.85,0.8; stroke-dashoffset: 0; stroke: #b2b2b2; stroke-opacity: 0.3; stroke-width: 0.5"/>
     </g>
     <g id="line2d_4">
      <g>
       <use xlink:href="#meda95b8a0e" x="202.64884" y="392.439375" style="stroke: #000000; stroke-width: 0.8"/>
      </g>
     </g>
     <g id="text_2">
      <!-- 500 -->
      <g transform="translate(195.89884 402.126875) scale(0.09 -0.09)">
       <defs>
        <path id="SimHei-35" d="M 550 1325 
Q 725 650 1150 575 
Q 1575 500 1837 662 
Q 2100 825 2212 1087 
Q 2325 1350 2312 1675 
Q 2300 2000 2137 2225 
Q 1975 2450 1725 2525 
Q 1475 2600 1162 2525 
Q 850 2450 650 2175 
L 225 2225 
Q 275 2375 700 4375 
L 2675 4375 
L 2675 3925 
L 1075 3925 
Q 950 3250 825 2850 
Q 1200 3025 1525 3012 
Q 1850 3000 2150 2862 
Q 2450 2725 2587 2487 
Q 2725 2250 2787 2012 
Q 2850 1775 2837 1500 
Q 2825 1225 2725 937 
Q 2625 650 2425 462 
Q 2225 275 1937 162 
Q 1650 50 1275 75 
Q 900 100 562 350 
Q 225 600 100 1200 
L 550 1325 
z
" transform="scale(0.015625)"/>
       </defs>
       <use xlink:href="#SimHei-35"/>
       <use xlink:href="#SimHei-30" transform="translate(50 0)"/>
       <use xlink:href="#SimHei-30" transform="translate(100 0)"/>
      </g>
     </g>
    </g>
    <g id="xtick_3">
     <g id="line2d_5">
      <path d="M 342.151487 392.439375 
L 342.151487 27.090625 
" clip-path="url(#pfa13539f60)" style="fill: none; stroke-dasharray: 1.85,0.8; stroke-dashoffset: 0; stroke: #b2b2b2; stroke-opacity: 0.3; stroke-width: 0.5"/>
     </g>
     <g id="line2d_6">
      <g>
       <use xlink:href="#meda95b8a0e" x="342.151487" y="392.439375" style="stroke: #000000; stroke-width: 0.8"/>
      </g>
     </g>
     <g id="text_3">
      <!-- 1000 -->
      <g transform="translate(333.151487 402.126875) scale(0.09 -0.09)">
       <defs>
        <path id="SimHei-31" d="M 1400 3600 
Q 1075 3275 575 2975 
L 575 3450 
Q 1200 3875 1600 4450 
L 1900 4450 
L 1900 150 
L 1400 150 
L 1400 3600 
z
" transform="scale(0.015625)"/>
       </defs>
       <use xlink:href="#SimHei-31"/>
       <use xlink:href="#SimHei-30" transform="translate(50 0)"/>
       <use xlink:href="#SimHei-30" transform="translate(100 0)"/>
       <use xlink:href="#SimHei-30" transform="translate(150 0)"/>
      </g>
     </g>
    </g>
    <g id="xtick_4">
     <g id="line2d_7">
      <path d="M 481.654133 392.439375 
L 481.654133 27.090625 
" clip-path="url(#pfa13539f60)" style="fill: none; stroke-dasharray: 1.85,0.8; stroke-dashoffset: 0; stroke: #b2b2b2; stroke-opacity: 0.3; stroke-width: 0.5"/>
     </g>
     <g id="line2d_8">
      <g>
       <use xlink:href="#meda95b8a0e" x="481.654133" y="392.439375" style="stroke: #000000; stroke-width: 0.8"/>
      </g>
     </g>
     <g id="text_4">
      <!-- 1500 -->
      <g transform="translate(472.654133 402.126875) scale(0.09 -0.09)">
       <use xlink:href="#SimHei-31"/>
       <use xlink:href="#SimHei-35" transform="translate(50 0)"/>
       <use xlink:href="#SimHei-30" transform="translate(100 0)"/>
       <use xlink:href="#SimHei-30" transform="translate(150 0)"/>
      </g>
     </g>
    </g>
    <g id="xtick_5">
     <g id="line2d_9">
      <path d="M 621.156779 392.439375 
L 621.156779 27.090625 
" clip-path="url(#pfa13539f60)" style="fill: none; stroke-dasharray: 1.85,0.8; stroke-dashoffset: 0; stroke: #b2b2b2; stroke-opacity: 0.3; stroke-width: 0.5"/>
     </g>
     <g id="line2d_10">
      <g>
       <use xlink:href="#meda95b8a0e" x="621.156779" y="392.439375" style="stroke: #000000; stroke-width: 0.8"/>
      </g>
     </g>
     <g id="text_5">
      <!-- 2000 -->
      <g transform="translate(612.156779 402.126875) scale(0.09 -0.09)">
       <defs>
        <path id="SimHei-32" d="M 300 250 
Q 325 625 650 925 
Q 975 1225 1475 1862 
Q 1975 2500 2125 2850 
Q 2275 3200 2237 3450 
Q 2200 3700 2000 3862 
Q 1800 4025 1537 4000 
Q 1275 3975 1037 3800 
Q 800 3625 675 3275 
L 200 3350 
Q 400 3925 712 4187 
Q 1025 4450 1450 4475 
Q 1700 4500 1900 4462 
Q 2100 4425 2312 4287 
Q 2525 4150 2662 3875 
Q 2800 3600 2762 3212 
Q 2725 2825 2375 2287 
Q 2025 1750 1025 600 
L 2825 600 
L 2825 150 
L 300 150 
L 300 250 
z
" transform="scale(0.015625)"/>
       </defs>
       <use xlink:href="#SimHei-32"/>
       <use xlink:href="#SimHei-30" transform="translate(50 0)"/>
       <use xlink:href="#SimHei-30" transform="translate(100 0)"/>
       <use xlink:href="#SimHei-30" transform="translate(150 0)"/>
      </g>
     </g>
    </g>
    <g id="text_6">
     <!-- 时间 / 序号 -->
     <g transform="translate(341.715 415.259687) scale(0.1 -0.1)">
      <defs>
       <path id="SimHei-65f6" d="M 2525 4575 
Q 2500 3675 2500 2400 
Q 2500 1125 2525 400 
L 2000 400 
L 2000 875 
L 1000 875 
L 1000 50 
L 475 50 
Q 500 1200 500 2350 
Q 500 3525 475 4575 
L 2525 4575 
z
M 4875 3825 
Q 4875 4575 4850 5225 
L 5400 5225 
Q 5375 4575 5375 3825 
Q 5750 3825 6175 3850 
L 6175 3375 
Q 5750 3400 5375 3400 
L 5375 50 
Q 5375 -325 5075 -425 
Q 4775 -525 4300 -575 
Q 4300 -275 4025 0 
Q 4500 -50 4687 -25 
Q 4875 0 4875 300 
L 4875 3400 
Q 3625 3400 2775 3375 
L 2775 3850 
Q 3575 3825 4875 3825 
z
M 2000 1300 
L 2000 2550 
L 1000 2550 
L 1000 1300 
L 2000 1300 
z
M 2000 2975 
L 2000 4150 
L 1000 4150 
L 1000 2975 
L 2000 2975 
z
M 3550 2725 
Q 3875 2200 4175 1600 
Q 3925 1525 3650 1375 
Q 3450 1975 3075 2500 
Q 3300 2600 3550 2725 
z
" transform="scale(0.015625)"/>
       <path id="SimHei-95f4" d="M 4450 3550 
Q 4425 3075 4425 2725 
L 4425 1400 
Q 4425 1075 4450 625 
L 1925 625 
Q 1950 1075 1950 1425 
L 1950 2725 
Q 1950 3075 1925 3550 
L 4450 3550 
z
M 5800 4875 
Q 5775 4400 5775 3925 
L 5775 250 
Q 5800 -325 5462 -450 
Q 5125 -575 4725 -625 
Q 4700 -325 4525 -25 
Q 5000 -50 5137 25 
Q 5275 100 5275 350 
L 5275 4450 
L 3775 4450 
Q 3175 4450 2650 4425 
L 2650 4900 
Q 3175 4875 3775 4875 
L 5800 4875 
z
M 550 -525 
Q 600 -25 600 525 
L 600 3150 
Q 600 3675 550 4025 
L 1125 4025 
Q 1100 3650 1100 3300 
L 1100 500 
Q 1100 0 1125 -525 
L 550 -525 
z
M 3950 1025 
L 3950 1950 
L 2425 1950 
L 2425 1025 
L 3950 1025 
z
M 3950 2350 
L 3950 3150 
L 2425 3150 
L 2425 2350 
L 3950 2350 
z
M 1525 5300 
Q 1750 5000 2225 4350 
Q 1950 4225 1700 4075 
Q 1450 4575 1075 5025 
Q 1350 5225 1525 5300 
z
" transform="scale(0.015625)"/>
       <path id="SimHei-20" transform="scale(0.015625)"/>
       <path id="SimHei-2f" d="M 3000 4550 
L 350 -175 
L 100 -25 
L 2750 4700 
L 3000 4550 
z
" transform="scale(0.015625)"/>
       <path id="SimHei-5e8f" d="M 4000 2075 
L 5975 2075 
Q 5750 1525 5575 1025 
Q 5325 1100 5050 1150 
Q 5175 1450 5275 1700 
L 4050 1700 
L 4050 150 
Q 4050 -375 3762 -462 
Q 3475 -550 2950 -575 
Q 2875 -300 2750 0 
Q 3350 -75 3475 25 
Q 3600 125 3575 375 
L 3575 1700 
L 2450 1700 
Q 2050 1700 1675 1675 
L 1675 2100 
Q 2100 2075 2425 2075 
L 3675 2075 
Q 3325 2400 2875 2775 
Q 2975 2875 3250 3100 
Q 3400 2975 3725 2725 
L 4575 3275 
L 3000 3275 
Q 2400 3275 1950 3250 
L 1950 3700 
Q 2400 3675 3000 3675 
L 5400 3675 
L 5400 3250 
Q 4700 2875 4025 2450 
L 4275 2250 
L 4000 2075 
z
M 3725 5275 
Q 3825 4925 3925 4525 
L 4850 4525 
Q 5425 4525 6000 4550 
L 6000 4125 
Q 5425 4150 4850 4150 
L 1400 4150 
Q 1400 2750 1362 2137 
Q 1325 1525 1200 887 
Q 1075 250 775 -350 
Q 625 -250 250 -125 
Q 475 300 600 700 
Q 725 1100 800 1637 
Q 875 2175 875 2825 
Q 875 3500 850 4525 
L 3350 4525 
Q 3275 4825 3150 5150 
Q 3425 5200 3725 5275 
z
" transform="scale(0.015625)"/>
       <path id="SimHei-53f7" d="M 5025 4925 
Q 5000 4550 5000 4075 
Q 5000 3600 5025 3175 
L 1400 3175 
Q 1425 3525 1425 4000 
Q 1425 4500 1400 4925 
L 5025 4925 
z
M 5175 2625 
Q 5650 2625 6025 2650 
L 6025 2200 
Q 5650 2225 5175 2225 
L 2450 2225 
Q 2350 1875 2225 1450 
L 5175 1450 
Q 5100 1050 5062 775 
Q 5025 500 4950 112 
Q 4875 -275 4650 -412 
Q 4425 -550 3225 -625 
Q 3125 -350 2975 -50 
Q 3875 -75 4112 -50 
Q 4350 -25 4425 212 
Q 4500 450 4575 1025 
L 1600 1025 
Q 1825 1625 1950 2225 
L 1350 2225 
Q 825 2225 375 2200 
L 375 2650 
Q 825 2625 1350 2625 
L 5175 2625 
z
M 4525 3575 
L 4525 4525 
L 1900 4525 
L 1900 3575 
L 4525 3575 
z
" transform="scale(0.015625)"/>
      </defs>
      <use xlink:href="#SimHei-65f6"/>
      <use xlink:href="#SimHei-95f4" transform="translate(100 0)"/>
      <use xlink:href="#SimHei-20" transform="translate(200 0)"/>
      <use xlink:href="#SimHei-2f" transform="translate(250 0)"/>
      <use xlink:href="#SimHei-20" transform="translate(300 0)"/>
      <use xlink:href="#SimHei-5e8f" transform="translate(350 0)"/>
      <use xlink:href="#SimHei-53f7" transform="translate(450 0)"/>
     </g>
    </g>
   </g>
   <g id="matplotlib.axis_2">
    <g id="ytick_1">
     <g id="line2d_11">
      <path d="M 33.153125 351.02949 
L 705.276875 351.02949 
" clip-path="url(#pfa13539f60)" style="fill: none; stroke-dasharray: 1.85,0.8; stroke-dashoffset: 0; stroke: #b2b2b2; stroke-opacity: 0.3; stroke-width: 0.5"/>
     </g>
     <g id="line2d_12">
      <defs>
       <path id="m797d3cb560" d="M 0 0 
L 3.5 0 
" style="stroke: #000000; stroke-width: 0.8"/>
      </defs>
      <g>
       <use xlink:href="#m797d3cb560" x="33.153125" y="351.02949" style="stroke: #000000; stroke-width: 0.8"/>
      </g>
     </g>
     <g id="text_7">
      <!-- -2 -->
      <g transform="translate(20.653125 354.12324) scale(0.09 -0.09)">
       <defs>
        <path id="SimHei-2d" d="M 2975 2125 
L 125 2125 
L 125 2525 
L 2975 2525 
L 2975 2125 
z
" transform="scale(0.015625)"/>
       </defs>
       <use xlink:href="#SimHei-2d"/>
       <use xlink:href="#SimHei-32" transform="translate(50 0)"/>
      </g>
     </g>
    </g>
    <g id="ytick_2">
     <g id="line2d_13">
      <path d="M 33.153125 309.06143 
L 705.276875 309.06143 
" clip-path="url(#pfa13539f60)" style="fill: none; stroke-dasharray: 1.85,0.8; stroke-dashoffset: 0; stroke: #b2b2b2; stroke-opacity: 0.3; stroke-width: 0.5"/>
     </g>
     <g id="line2d_14">
      <g>
       <use xlink:href="#m797d3cb560" x="33.153125" y="309.06143" style="stroke: #000000; stroke-width: 0.8"/>
      </g>
     </g>
     <g id="text_8">
      <!-- -1 -->
      <g transform="translate(20.653125 312.15518) scale(0.09 -0.09)">
       <use xlink:href="#SimHei-2d"/>
       <use xlink:href="#SimHei-31" transform="translate(50 0)"/>
      </g>
     </g>
    </g>
    <g id="ytick_3">
     <g id="line2d_15">
      <path d="M 33.153125 267.09337 
L 705.276875 267.09337 
" clip-path="url(#pfa13539f60)" style="fill: none; stroke-dasharray: 1.85,0.8; stroke-dashoffset: 0; stroke: #b2b2b2; stroke-opacity: 0.3; stroke-width: 0.5"/>
     </g>
     <g id="line2d_16">
      <g>
       <use xlink:href="#m797d3cb560" x="33.153125" y="267.09337" style="stroke: #000000; stroke-width: 0.8"/>
      </g>
     </g>
     <g id="text_9">
      <!-- 0 -->
      <g transform="translate(25.153125 270.18712) scale(0.09 -0.09)">
       <use xlink:href="#SimHei-30"/>
      </g>
     </g>
    </g>
    <g id="ytick_4">
     <g id="line2d_17">
      <path d="M 33.153125 225.12531 
L 705.276875 225.12531 
" clip-path="url(#pfa13539f60)" style="fill: none; stroke-dasharray: 1.85,0.8; stroke-dashoffset: 0; stroke: #b2b2b2; stroke-opacity: 0.3; stroke-width: 0.5"/>
     </g>
     <g id="line2d_18">
      <g>
       <use xlink:href="#m797d3cb560" x="33.153125" y="225.12531" style="stroke: #000000; stroke-width: 0.8"/>
      </g>
     </g>
     <g id="text_10">
      <!-- 1 -->
      <g transform="translate(25.153125 228.21906) scale(0.09 -0.09)">
       <use xlink:href="#SimHei-31"/>
      </g>
     </g>
    </g>
    <g id="ytick_5">
     <g id="line2d_19">
      <path d="M 33.153125 183.15725 
L 705.276875 183.15725 
" clip-path="url(#pfa13539f60)" style="fill: none; stroke-dasharray: 1.85,0.8; stroke-dashoffset: 0; stroke: #b2b2b2; stroke-opacity: 0.3; stroke-width: 0.5"/>
     </g>
     <g id="line2d_20">
      <g>
       <use xlink:href="#m797d3cb560" x="33.153125" y="183.15725" style="stroke: #000000; stroke-width: 0.8"/>
      </g>
     </g>
     <g id="text_11">
      <!-- 2 -->
      <g transform="translate(25.153125 186.251) scale(0.09 -0.09)">
       <use xlink:href="#SimHei-32"/>
      </g>
     </g>
    </g>
    <g id="ytick_6">
     <g id="line2d_21">
      <path d="M 33.153125 141.18919 
L 705.276875 141.18919 
" clip-path="url(#pfa13539f60)" style="fill: none; stroke-dasharray: 1.85,0.8; stroke-dashoffset: 0; stroke: #b2b2b2; stroke-opacity: 0.3; stroke-width: 0.5"/>
     </g>
     <g id="line2d_22">
      <g>
       <use xlink:href="#m797d3cb560" x="33.153125" y="141.18919" style="stroke: #000000; stroke-width: 0.8"/>
      </g>
     </g>
     <g id="text_12">
      <!-- 3 -->
      <g transform="translate(25.153125 144.28294) scale(0.09 -0.09)">
       <defs>
        <path id="SimHei-33" d="M 250 1225 
L 700 1300 
Q 800 975 1025 762 
Q 1250 550 1587 562 
Q 1925 575 2125 837 
Q 2325 1100 2300 1437 
Q 2275 1775 2037 1962 
Q 1800 2150 1275 2225 
L 1275 2550 
Q 1800 2600 2037 2825 
Q 2275 3050 2250 3412 
Q 2225 3775 1925 3937 
Q 1625 4100 1287 3975 
Q 950 3850 750 3275 
L 300 3350 
Q 450 3800 712 4100 
Q 975 4400 1425 4450 
Q 1875 4500 2212 4337 
Q 2550 4175 2687 3837 
Q 2825 3500 2725 3100 
Q 2625 2700 2150 2400 
Q 2500 2250 2687 1950 
Q 2875 1650 2812 1162 
Q 2750 675 2375 375 
Q 2000 75 1525 87 
Q 1050 100 700 387 
Q 350 675 250 1225 
z
" transform="scale(0.015625)"/>
       </defs>
       <use xlink:href="#SimHei-33"/>
      </g>
     </g>
    </g>
    <g id="ytick_7">
     <g id="line2d_23">
      <path d="M 33.153125 99.22113 
L 705.276875 99.22113 
" clip-path="url(#pfa13539f60)" style="fill: none; stroke-dasharray: 1.85,0.8; stroke-dashoffset: 0; stroke: #b2b2b2; stroke-opacity: 0.3; stroke-width: 0.5"/>
     </g>
     <g id="line2d_24">
      <g>
       <use xlink:href="#m797d3cb560" x="33.153125" y="99.22113" style="stroke: #000000; stroke-width: 0.8"/>
      </g>
     </g>
     <g id="text_13">
      <!-- 4 -->
      <g transform="translate(25.153125 102.31488) scale(0.09 -0.09)">
       <defs>
        <path id="SimHei-34" d="M 2000 1100 
L 75 1100 
L 75 1525 
L 2100 4450 
L 2475 4450 
L 2475 1525 
L 3075 1525 
L 3075 1100 
L 2475 1100 
L 2475 150 
L 2000 150 
L 2000 1100 
z
M 2000 1525 
L 2000 3500 
L 600 1525 
L 2000 1525 
z
" transform="scale(0.015625)"/>
       </defs>
       <use xlink:href="#SimHei-34"/>
      </g>
     </g>
    </g>
    <g id="ytick_8">
     <g id="line2d_25">
      <path d="M 33.153125 57.25307 
L 705.276875 57.25307 
" clip-path="url(#pfa13539f60)" style="fill: none; stroke-dasharray: 1.85,0.8; stroke-dashoffset: 0; stroke: #b2b2b2; stroke-opacity: 0.3; stroke-width: 0.5"/>
     </g>
     <g id="line2d_26">
      <g>
       <use xlink:href="#m797d3cb560" x="33.153125" y="57.25307" style="stroke: #000000; stroke-width: 0.8"/>
      </g>
     </g>
     <g id="text_14">
      <!-- 5 -->
      <g transform="translate(25.153125 60.34682) scale(0.09 -0.09)">
       <use xlink:href="#SimHei-35"/>
      </g>
     </g>
    </g>
    <g id="text_15">
     <!-- 差分后的 pH 值 -->
     <g transform="translate(15.403125 244.765) rotate(-90) scale(0.1 -0.1)">
      <defs>
       <path id="SimHei-5dee" d="M 4725 4975 
Q 4500 4725 4250 4275 
L 4850 4275 
Q 5450 4275 5825 4300 
L 5825 3850 
Q 5425 3875 4850 3875 
L 3275 3875 
Q 3225 3600 3150 3275 
L 4525 3275 
Q 5075 3275 5525 3300 
L 5525 2850 
Q 5075 2875 4500 2875 
L 3050 2875 
Q 2975 2650 2850 2325 
L 5125 2325 
Q 5675 2325 6025 2350 
L 6025 1900 
Q 5700 1925 5150 1925 
L 2650 1925 
Q 2425 1550 2250 1300 
Q 2650 1275 3100 1275 
L 4525 1275 
Q 4975 1275 5350 1300 
L 5350 850 
Q 4975 875 4575 875 
L 3925 875 
L 3925 -50 
L 5000 -50 
Q 5200 -50 5900 -25 
L 5900 -500 
Q 5275 -475 5025 -475 
L 2100 -475 
Q 1700 -475 1400 -500 
L 1400 -25 
Q 1775 -50 2125 -50 
L 3425 -50 
L 3425 875 
L 3100 875 
Q 2625 875 2175 850 
L 2175 1200 
Q 1925 875 1487 475 
Q 1050 75 625 -250 
Q 425 -25 200 150 
Q 750 475 1262 925 
Q 1775 1375 2100 1925 
L 1325 1925 
Q 750 1925 375 1900 
L 375 2350 
Q 750 2325 1350 2325 
L 2325 2325 
Q 2450 2575 2550 2875 
L 1725 2875 
Q 1375 2875 1000 2850 
L 1000 3300 
Q 1500 3275 1700 3275 
L 2650 3275 
Q 2725 3575 2775 3875 
L 1500 3875 
Q 1100 3875 650 3850 
L 650 4300 
Q 1025 4275 1425 4275 
L 2275 4275 
Q 2075 4675 1850 4950 
Q 2025 5050 2250 5225 
Q 2450 4975 2725 4550 
Q 2525 4450 2325 4275 
L 3750 4275 
Q 4000 4700 4150 5250 
Q 4400 5100 4725 4975 
z
" transform="scale(0.015625)"/>
       <path id="SimHei-5206" d="M 1000 -650 
Q 825 -375 575 -225 
Q 975 -75 1300 137 
Q 1625 350 1875 662 
Q 2125 975 2250 1350 
Q 2375 1725 2425 2275 
Q 1850 2275 1500 2250 
L 1500 2775 
Q 1900 2750 2525 2750 
L 5025 2750 
Q 4975 2375 4950 2100 
L 4750 250 
Q 4700 -200 4350 -350 
Q 4000 -500 3575 -525 
Q 3550 -275 3325 50 
Q 3850 25 4037 87 
Q 4225 150 4275 525 
L 4450 2275 
L 2950 2275 
Q 2875 1625 2737 1187 
Q 2600 750 2350 425 
Q 2100 100 1750 -175 
Q 1400 -450 1000 -650 
z
M 3950 5175 
Q 4125 4650 4662 3975 
Q 5200 3300 6175 2800 
Q 5975 2625 5775 2275 
Q 5325 2600 4987 2887 
Q 4650 3175 4425 3425 
Q 4200 3675 3925 4137 
Q 3650 4600 3475 5000 
Q 3750 5075 3950 5175 
z
M 2700 4825 
Q 2475 4425 2325 4125 
Q 2175 3825 2025 3587 
Q 1875 3350 1575 2950 
Q 1275 2550 850 2125 
Q 625 2350 400 2475 
Q 900 2925 1187 3300 
Q 1475 3675 1737 4112 
Q 2000 4550 2200 5075 
Q 2400 4925 2700 4825 
z
" transform="scale(0.015625)"/>
       <path id="SimHei-540e" d="M 5475 2150 
Q 5450 1750 5450 775 
Q 5450 -175 5500 -550 
L 4975 -550 
L 4975 -25 
L 2525 -25 
L 2525 -600 
L 2025 -600 
Q 2050 -175 2050 775 
Q 2050 1750 2025 2150 
L 5475 2150 
z
M 5175 5075 
Q 5300 4800 5525 4525 
Q 4950 4475 3750 4337 
Q 2550 4200 1575 4175 
L 1575 3375 
L 5200 3375 
Q 5550 3375 5975 3400 
L 5975 2900 
Q 5575 2925 5200 2925 
L 1575 2925 
Q 1550 2425 1487 1875 
Q 1425 1325 1250 712 
Q 1075 100 800 -325 
Q 650 -200 225 -50 
Q 625 325 825 1062 
Q 1025 1800 1050 2825 
Q 1075 3850 1075 4575 
Q 2300 4600 3625 4775 
Q 4950 4950 5175 5075 
z
M 4975 375 
L 4975 1725 
L 2525 1725 
L 2525 375 
L 4975 375 
z
" transform="scale(0.015625)"/>
       <path id="SimHei-7684" d="M 2100 4975 
Q 1975 4750 1750 3950 
L 2875 3950 
Q 2850 3525 2850 2875 
L 2850 675 
Q 2850 300 2875 -400 
L 2375 -400 
L 2375 100 
L 1100 100 
L 1100 -450 
L 600 -450 
Q 625 350 625 550 
L 625 2850 
Q 625 3525 600 3950 
L 1325 3950 
Q 1450 4525 1525 5150 
Q 1875 5025 2100 4975 
z
M 5825 3075 
Q 5800 1550 5700 175 
Q 5650 -275 5225 -425 
Q 4800 -575 4275 -625 
Q 4250 -350 4050 -50 
Q 4550 -75 4837 -25 
Q 5125 25 5200 200 
Q 5275 375 5312 1225 
Q 5350 2075 5375 3600 
L 3925 3600 
Q 3725 3125 3350 2475 
Q 3175 2650 2925 2750 
Q 3150 3050 3350 3475 
Q 3550 3900 3700 4400 
Q 3850 4900 3875 5175 
Q 4225 5025 4475 4950 
Q 4350 4750 4262 4512 
Q 4175 4275 4075 4050 
L 5850 4050 
Q 5825 3525 5825 3075 
z
M 2375 525 
L 2375 1850 
L 1100 1850 
L 1100 525 
L 2375 525 
z
M 2375 2275 
L 2375 3525 
L 1100 3525 
L 1100 2275 
L 2375 2275 
z
M 4350 2050 
Q 4500 1750 4700 1275 
Q 4525 1200 4225 1025 
Q 4050 1500 3900 1837 
Q 3750 2175 3600 2400 
Q 3775 2500 4050 2650 
L 4350 2050 
z
" transform="scale(0.015625)"/>
       <path id="SimHei-70" d="M 2825 1525 
Q 2825 800 2475 425 
Q 2125 50 1625 50 
Q 1350 50 1150 162 
Q 950 275 800 500 
L 800 -800 
L 300 -800 
L 300 2925 
L 800 2925 
L 800 2550 
Q 950 2775 1150 2875 
Q 1350 2975 1625 2975 
Q 2125 2975 2475 2612 
Q 2825 2250 2825 1525 
z
M 2275 1525 
Q 2275 2000 2087 2262 
Q 1900 2525 1525 2525 
Q 1225 2525 1012 2262 
Q 800 2000 800 1525 
Q 800 1050 1012 775 
Q 1225 500 1525 500 
Q 1900 500 2087 775 
Q 2275 1050 2275 1525 
z
" transform="scale(0.015625)"/>
       <path id="SimHei-48" d="M 2850 125 
L 2275 125 
L 2275 2125 
L 850 2125 
L 850 125 
L 275 125 
L 275 4400 
L 850 4400 
L 850 2600 
L 2275 2600 
L 2275 4400 
L 2850 4400 
L 2850 125 
z
" transform="scale(0.015625)"/>
       <path id="SimHei-503c" d="M 3675 4450 
L 3675 5100 
Q 3975 5075 4350 5050 
Q 4225 4875 4200 4450 
L 5125 4450 
Q 5550 4450 5875 4475 
L 5875 4025 
Q 5525 4050 5125 4050 
L 4175 4050 
L 4125 3500 
L 5400 3500 
Q 5375 3200 5375 2700 
L 5375 150 
Q 5875 150 6100 175 
L 6100 -275 
Q 5775 -250 5200 -250 
L 2850 -250 
Q 2275 -250 1900 -275 
L 1900 175 
Q 2125 150 2600 150 
L 2600 2700 
Q 2600 3175 2575 3500 
L 3600 3500 
L 3650 4050 
L 3200 4050 
Q 2575 4050 2225 4025 
L 2225 4475 
Q 2550 4450 3200 4450 
L 3675 4450 
z
M 2225 4900 
Q 2025 4675 1650 3750 
L 1650 450 
Q 1650 -75 1675 -550 
L 1150 -550 
Q 1175 -125 1175 375 
L 1175 2950 
Q 875 2450 625 2150 
Q 425 2425 250 2575 
Q 500 2825 937 3537 
Q 1375 4250 1625 5150 
Q 1975 4975 2225 4900 
z
M 4925 2650 
L 4925 3150 
L 3075 3150 
L 3075 2650 
L 4925 2650 
z
M 4925 150 
L 4925 625 
L 3075 625 
L 3075 150 
L 4925 150 
z
M 4925 1000 
L 4925 1450 
L 3075 1450 
L 3075 1000 
L 4925 1000 
z
M 4925 1825 
L 4925 2275 
L 3075 2275 
L 3075 1825 
L 4925 1825 
z
" transform="scale(0.015625)"/>
      </defs>
      <use xlink:href="#SimHei-5dee"/>
      <use xlink:href="#SimHei-5206" transform="translate(100 0)"/>
      <use xlink:href="#SimHei-540e" transform="translate(200 0)"/>
      <use xlink:href="#SimHei-7684" transform="translate(300 0)"/>
      <use xlink:href="#SimHei-20" transform="translate(400 0)"/>
      <use xlink:href="#SimHei-70" transform="translate(450 0)"/>
      <use xlink:href="#SimHei-48" transform="translate(500 0)"/>
      <use xlink:href="#SimHei-20" transform="translate(550 0)"/>
      <use xlink:href="#SimHei-503c" transform="translate(600 0)"/>
     </g>
    </g>
   </g>
   <g id="line2d_27">
    <path d="M 63.704205 268.772092 
L 63.98321 266.673689 
L 64.262215 272.549218 
L 64.54122 267.932731 
L 64.820226 270.450815 
L 65.099231 262.057203 
L 65.378236 269.191773 
L 65.657242 259.119439 
L 65.936247 277.165704 
L 66.215252 261.637522 
L 66.494257 267.09337 
L 66.773263 267.932731 
L 67.052268 265.414648 
L 67.331273 269.611454 
L 67.610279 262.896564 
L 67.889284 267.513051 
L 68.447295 272.129537 
L 68.7263 264.994967 
L 69.005305 252.82423 
L 69.28431 276.326343 
L 69.563316 268.772092 
L 69.842321 269.191773 
L 70.121326 255.342313 
L 70.400332 272.968898 
L 70.958342 262.476883 
L 71.237347 265.414648 
L 71.516353 280.94283 
L 71.795358 262.896564 
L 72.074363 270.450815 
L 72.353369 260.798161 
L 72.632374 270.870495 
L 72.911379 267.932731 
L 73.190384 268.772092 
L 73.46939 272.129537 
L 73.748395 267.932731 
L 74.0274 266.673689 
L 74.306406 263.316245 
L 74.585411 267.513051 
L 74.864416 259.9588 
L 75.143422 276.326343 
L 75.422427 268.352412 
L 75.701432 272.968898 
L 76.259443 260.37848 
L 76.817453 267.09337 
L 77.096459 272.968898 
L 77.375464 257.860397 
L 77.654469 270.870495 
L 77.933474 271.290176 
L 78.21248 263.316245 
L 78.491485 270.450815 
L 78.77049 253.24391 
L 79.049496 257.440716 
L 79.328501 270.450815 
L 79.607506 271.709857 
L 79.886512 259.9588 
L 80.444522 271.709857 
L 80.723527 272.549218 
L 81.002533 263.735925 
L 81.281538 261.217842 
L 81.560543 269.611454 
L 81.839549 268.772092 
L 82.118554 265.834328 
L 82.676564 274.22794 
L 83.234575 263.316245 
L 83.792586 269.611454 
L 84.071591 264.994967 
L 84.350596 263.735925 
L 84.629601 267.513051 
L 84.908607 267.513051 
L 85.187612 267.932731 
L 85.466617 268.772092 
L 85.745623 266.673689 
L 86.024628 271.709857 
L 86.303633 270.031134 
L 86.582639 257.021036 
L 86.861644 265.414648 
L 87.140649 269.191773 
L 87.419654 267.09337 
L 87.69866 273.388579 
L 87.977665 268.772092 
L 88.25667 260.798161 
L 88.814681 267.513051 
L 89.093686 267.513051 
L 89.372691 269.191773 
L 89.651697 268.772092 
L 90.209707 262.896564 
L 90.488713 268.772092 
L 90.767718 267.932731 
L 91.046723 264.994967 
L 91.325729 268.352412 
L 91.604734 265.834328 
L 92.162744 267.513051 
L 92.44175 267.09337 
L 92.720755 272.549218 
L 92.99976 261.217842 
L 93.278766 268.352412 
L 93.557771 267.09337 
L 93.836776 270.870495 
L 94.115781 264.155606 
L 94.394787 269.191773 
L 94.673792 268.772092 
L 94.952797 264.994967 
L 95.231803 267.09337 
L 95.510808 266.673689 
L 95.789813 267.932731 
L 96.068818 270.450815 
L 96.347824 278.844427 
L 96.626829 259.9588 
L 97.18484 264.575286 
L 97.463845 268.772092 
L 97.74285 268.352412 
L 98.021856 262.057203 
L 98.300861 265.414648 
L 98.579866 270.870495 
L 98.858871 266.673689 
L 99.137877 270.031134 
L 99.416882 264.575286 
L 99.695887 269.191773 
L 99.974893 265.834328 
L 100.253898 266.673689 
L 100.532903 265.834328 
L 100.811908 269.191773 
L 101.090914 266.254009 
L 101.369919 269.191773 
L 101.648924 264.575286 
L 101.92793 268.352412 
L 102.206935 265.414648 
L 102.48594 267.09337 
L 102.764946 271.709857 
L 103.043951 262.896564 
L 103.322956 267.932731 
L 103.601961 268.352412 
L 103.880967 268.352412 
L 104.159972 269.191773 
L 104.438977 264.155606 
L 104.717983 268.352412 
L 104.996988 267.09337 
L 105.275993 269.611454 
L 105.554998 264.994967 
L 105.834004 265.414648 
L 106.113009 271.290176 
L 106.392014 264.575286 
L 106.67102 267.513051 
L 106.950025 267.932731 
L 107.22903 267.09337 
L 107.508035 268.352412 
L 107.787041 265.834328 
L 108.066046 267.513051 
L 108.345051 265.414648 
L 108.624057 267.932731 
L 108.903062 267.932731 
L 109.182067 265.834328 
L 109.740078 267.932731 
L 110.019083 265.834328 
L 110.298088 269.191773 
L 110.577094 266.673689 
L 110.856099 267.932731 
L 111.135104 267.09337 
L 111.41411 267.932731 
L 111.693115 267.09337 
L 112.251125 267.09337 
L 112.530131 267.932731 
L 112.809136 267.09337 
L 113.088141 263.316245 
L 113.367147 269.611454 
L 113.646152 267.09337 
L 113.925157 263.316245 
L 114.204163 265.414648 
L 114.483168 270.031134 
L 114.762173 266.673689 
L 115.041178 268.772092 
L 115.320184 265.414648 
L 115.878194 268.772092 
L 116.1572 277.165704 
L 116.71521 262.476883 
L 116.994215 267.09337 
L 117.273221 258.699758 
L 117.552226 262.057203 
L 117.831231 269.611454 
L 118.389242 266.673689 
L 118.668247 267.09337 
L 118.947252 267.09337 
L 119.226258 265.834328 
L 119.505263 269.191773 
L 119.784268 266.673689 
L 120.063274 267.513051 
L 120.342279 266.673689 
L 120.621284 268.352412 
L 120.90029 265.414648 
L 121.179295 265.834328 
L 121.4583 266.673689 
L 121.737305 270.031134 
L 122.016311 265.414648 
L 122.295316 267.932731 
L 122.574321 265.834328 
L 122.853327 265.834328 
L 123.132332 268.772092 
L 123.411337 269.191773 
L 123.690342 270.870495 
L 123.969348 263.316245 
L 124.248353 267.09337 
L 124.527358 266.673689 
L 124.806364 272.549218 
L 125.085369 263.735925 
L 125.364374 267.09337 
L 125.64338 267.513051 
L 125.922385 268.772092 
L 126.20139 272.129537 
L 126.759401 260.37848 
L 127.038406 271.290176 
L 127.317411 268.352412 
L 127.596417 267.09337 
L 127.875422 264.575286 
L 128.154427 267.932731 
L 128.433432 266.254009 
L 128.712438 267.513051 
L 128.991443 265.414648 
L 129.270448 269.191773 
L 129.549454 267.932731 
L 129.828459 263.735925 
L 130.107464 267.513051 
L 130.386469 269.191773 
L 130.665475 266.673689 
L 130.94448 269.611454 
L 131.223485 265.414648 
L 131.502491 267.932731 
L 131.781496 262.896564 
L 132.618512 270.870495 
L 133.176522 266.254009 
L 133.455528 266.673689 
L 133.734533 264.994967 
L 134.013538 270.031134 
L 134.292544 266.254009 
L 134.571549 264.155606 
L 134.850554 264.575286 
L 135.129559 267.932731 
L 135.408565 269.191773 
L 135.966575 262.057203 
L 136.245581 274.647621 
L 136.524586 261.217842 
L 136.803591 267.932731 
L 137.082597 269.611454 
L 137.361602 263.735925 
L 137.640607 271.290176 
L 137.919612 263.735925 
L 138.198618 268.772092 
L 138.477623 270.450815 
L 138.756628 265.834328 
L 139.035634 263.735925 
L 139.593644 269.191773 
L 139.872649 267.09337 
L 140.151655 267.932731 
L 140.43066 269.191773 
L 140.709665 264.994967 
L 140.988671 265.834328 
L 141.267676 267.09337 
L 141.546681 266.673689 
L 141.825686 268.352412 
L 142.104692 277.585385 
L 142.383697 254.502952 
L 142.662702 260.37848 
L 142.941708 270.450815 
L 143.220713 267.09337 
L 143.499718 272.549218 
L 143.778724 267.513051 
L 144.057729 264.575286 
L 144.336734 272.968898 
L 144.615739 270.450815 
L 144.894745 257.021036 
L 145.17375 264.994967 
L 145.731761 272.549218 
L 146.010766 267.932731 
L 146.289771 272.549218 
L 146.568776 257.021036 
L 146.847782 267.09337 
L 147.405792 264.155606 
L 147.963803 274.22794 
L 148.242808 265.414648 
L 148.521814 266.254009 
L 148.800819 266.254009 
L 149.079824 264.575286 
L 149.637835 277.585385 
L 149.91684 248.627424 
L 150.195845 268.772092 
L 150.474851 277.165704 
L 150.753856 262.896564 
L 151.311866 270.450815 
L 151.590872 259.9588 
L 151.869877 265.834328 
L 152.148882 267.09337 
L 152.427888 266.254009 
L 152.706893 267.09337 
L 152.985898 268.772092 
L 153.264903 267.513051 
L 153.543909 265.414648 
L 153.822914 267.513051 
L 154.101919 267.09337 
L 154.380925 267.513051 
L 154.65993 266.673689 
L 154.938935 267.09337 
L 155.217941 268.352412 
L 155.496946 268.352412 
L 155.775951 267.09337 
L 156.054956 268.772092 
L 156.333962 264.575286 
L 156.612967 264.155606 
L 156.891972 268.352412 
L 157.449983 266.254009 
L 157.728988 267.513051 
L 158.007993 267.09337 
L 158.286999 267.513051 
L 158.566004 265.414648 
L 158.845009 268.772092 
L 159.124015 265.834328 
L 159.682025 273.80826 
L 159.961031 265.414648 
L 160.240036 264.155606 
L 160.519041 264.994967 
L 160.798046 262.896564 
L 161.077052 266.673689 
L 161.356057 272.129537 
L 161.635062 267.932731 
L 161.914068 268.352412 
L 162.193073 266.254009 
L 162.472078 267.09337 
L 162.751083 265.834328 
L 163.030089 267.09337 
L 163.309094 269.191773 
L 163.588099 268.352412 
L 163.867105 264.575286 
L 164.14611 269.191773 
L 164.425115 267.932731 
L 164.70412 262.057203 
L 164.983126 260.37848 
L 165.262131 271.709857 
L 165.541136 271.709857 
L 165.820142 269.611454 
L 166.099147 263.735925 
L 166.378152 261.217842 
L 166.936163 272.549218 
L 167.215168 268.772092 
L 167.494173 263.316245 
L 167.773179 267.932731 
L 168.052184 269.191773 
L 168.331189 269.611454 
L 168.610195 261.637522 
L 169.168205 267.09337 
L 169.44721 267.513051 
L 169.726216 270.450815 
L 170.005221 263.735925 
L 170.284226 267.932731 
L 170.563232 270.031134 
L 170.842237 267.09337 
L 171.400248 268.772092 
L 171.679253 269.191773 
L 171.958258 262.896564 
L 172.237263 266.254009 
L 172.516269 266.254009 
L 172.795274 264.994967 
L 173.074279 270.450815 
L 173.63229 267.09337 
L 174.1903 257.860397 
L 174.469306 270.450815 
L 174.748311 270.031134 
L 175.027316 266.673689 
L 175.306322 268.772092 
L 175.585327 267.932731 
L 175.864332 269.611454 
L 176.143337 266.673689 
L 176.422343 267.513051 
L 176.701348 268.772092 
L 176.980353 268.352412 
L 177.259359 266.254009 
L 177.817369 269.191773 
L 178.096375 269.611454 
L 178.37538 267.513051 
L 178.654385 268.352412 
L 179.212396 265.834328 
L 179.491401 267.513051 
L 179.770406 267.513051 
L 180.049412 264.994967 
L 180.328417 252.404549 
L 180.607422 265.834328 
L 180.886427 270.870495 
L 181.165433 267.513051 
L 181.444438 270.031134 
L 181.723443 269.191773 
L 182.002449 264.994967 
L 182.560459 267.513051 
L 182.839465 265.414648 
L 183.11847 266.673689 
L 183.67648 258.280077 
L 183.955486 272.549218 
L 184.234491 268.352412 
L 184.513496 269.191773 
L 184.792502 266.254009 
L 185.350512 268.772092 
L 185.629517 267.932731 
L 185.908523 268.352412 
L 186.187528 270.450815 
L 186.466533 269.191773 
L 186.745539 259.119439 
L 187.024544 268.772092 
L 187.303549 266.673689 
L 187.582554 267.09337 
L 187.86156 267.09337 
L 188.140565 266.254009 
L 188.41957 266.673689 
L 188.698576 268.352412 
L 188.977581 267.513051 
L 189.256586 267.932731 
L 189.535592 267.932731 
L 189.814597 267.513051 
L 190.093602 266.673689 
L 190.372607 270.031134 
L 190.651613 268.352412 
L 190.930618 264.994967 
L 191.209623 266.254009 
L 191.488629 272.129537 
L 192.325644 265.834328 
L 192.60465 267.09337 
L 192.883655 262.057203 
L 193.441666 267.513051 
L 193.720671 269.611454 
L 193.999676 267.932731 
L 194.278682 264.575286 
L 195.115697 269.611454 
L 195.394703 264.155606 
L 195.952713 271.290176 
L 196.510724 262.896564 
L 196.789729 265.414648 
L 197.068734 269.611454 
L 197.34774 268.352412 
L 197.626745 265.834328 
L 197.90575 265.414648 
L 198.184756 266.673689 
L 198.463761 268.772092 
L 198.742766 266.254009 
L 199.021771 268.352412 
L 199.300777 267.513051 
L 199.579782 267.932731 
L 199.858787 267.932731 
L 200.137793 269.611454 
L 200.416798 266.673689 
L 200.695803 267.932731 
L 200.974809 266.254009 
L 201.253814 267.09337 
L 201.532819 266.254009 
L 201.811824 267.513051 
L 202.369835 262.476883 
L 202.927846 267.932731 
L 203.206851 268.772092 
L 203.485856 268.772092 
L 203.764861 266.254009 
L 204.043867 267.932731 
L 204.322872 266.673689 
L 204.601877 267.932731 
L 204.880883 266.673689 
L 205.159888 269.611454 
L 205.438893 269.611454 
L 205.996904 266.254009 
L 206.275909 267.09337 
L 206.554914 257.860397 
L 206.83392 273.388579 
L 207.112925 270.870495 
L 207.39193 266.673689 
L 207.670936 265.834328 
L 207.949941 267.932731 
L 208.228946 265.834328 
L 208.507951 269.191773 
L 209.065962 268.352412 
L 209.344967 264.994967 
L 209.623973 269.611454 
L 209.902978 269.191773 
L 210.181983 262.476883 
L 210.460988 267.932731 
L 210.739994 268.772092 
L 211.018999 264.575286 
L 211.298004 273.80826 
L 211.57701 261.217842 
L 211.856015 267.513051 
L 212.13502 267.513051 
L 212.414026 266.254009 
L 212.693031 267.932731 
L 212.972036 264.994967 
L 213.251041 269.191773 
L 213.530047 268.772092 
L 213.809052 265.834328 
L 214.088057 264.994967 
L 214.367063 264.994967 
L 214.646068 268.772092 
L 214.925073 266.254009 
L 215.483084 267.09337 
L 215.762089 268.352412 
L 216.041094 267.932731 
L 216.599105 265.414648 
L 216.87811 269.191773 
L 217.157116 266.673689 
L 217.715126 268.352412 
L 217.994131 267.513051 
L 218.273137 265.834328 
L 218.831147 267.932731 
L 219.110153 266.673689 
L 219.389158 267.513051 
L 219.668163 267.932731 
L 219.947168 264.155606 
L 220.226174 270.031134 
L 220.505179 267.09337 
L 220.784184 266.254009 
L 221.06319 267.513051 
L 221.342195 267.932731 
L 221.6212 270.450815 
L 221.900205 263.316245 
L 222.179211 268.772092 
L 222.458216 264.575286 
L 222.737221 267.932731 
L 223.295232 264.155606 
L 223.574237 272.968898 
L 223.853243 265.414648 
L 224.132248 267.513051 
L 224.411253 266.673689 
L 224.690258 267.932731 
L 224.969264 264.575286 
L 225.248269 269.191773 
L 225.527274 266.254009 
L 226.085285 269.107837 
L 226.36429 267.848795 
L 226.643295 261.427682 
L 226.922301 268.39438 
L 227.201306 271.20624 
L 227.480311 266.505817 
L 227.759317 265.666456 
L 228.038322 245.731627 
L 228.317327 250.138274 
L 228.596333 265.666456 
L 228.875338 269.149805 
L 229.154343 265.79236 
L 229.433348 272.381346 
L 229.712354 266.631721 
L 229.991359 263.400181 
L 230.270364 266.086137 
L 230.828375 267.30321 
L 231.10738 265.204807 
L 231.386385 268.268476 
L 231.665391 260.462417 
L 231.944396 267.429115 
L 232.223401 269.023901 
L 232.502407 266.463849 
L 232.781412 268.646188 
L 233.060417 264.994967 
L 233.339422 267.219274 
L 233.618428 267.555019 
L 233.897433 268.226508 
L 234.176438 268.352412 
L 234.734449 263.400181 
L 235.013454 267.051402 
L 235.571465 268.688156 
L 235.85047 266.799594 
L 236.129475 266.379913 
L 236.408481 266.337945 
L 236.687486 267.177306 
L 236.966491 269.821294 
L 237.245497 271.290176 
L 237.524502 263.568053 
L 237.803507 269.149805 
L 238.082512 281.320542 
L 238.361518 247.368382 
L 238.640523 267.471083 
L 239.198534 275.696822 
L 240.03555 263.484117 
L 240.314555 263.735925 
L 240.59356 264.743159 
L 240.872565 267.009434 
L 241.151571 267.051402 
L 241.430576 264.994967 
L 241.709581 271.164272 
L 241.988587 271.248208 
L 242.267592 253.03407 
L 242.546597 269.107837 
L 242.825602 268.688156 
L 243.104608 268.562252 
L 243.662618 263.400181 
L 243.941624 266.212041 
L 244.220629 267.722891 
L 244.778639 267.387146 
L 245.057645 269.69539 
L 245.894661 264.323478 
L 246.173666 269.401613 
L 246.452671 265.58252 
L 246.731677 267.135338 
L 247.010682 267.177306 
L 247.289687 267.387146 
L 247.568692 264.407414 
L 247.847698 267.051402 
L 248.126703 267.219274 
L 248.684714 270.702623 
L 248.963719 262.267043 
L 249.242724 266.547785 
L 249.521729 266.925498 
L 249.800735 266.631721 
L 250.07974 269.401613 
L 250.358745 265.750392 
L 250.637751 266.967466 
L 250.916756 269.359645 
L 251.195761 274.773525 
L 251.474767 266.379913 
L 251.753772 267.638955 
L 252.032777 265.414648 
L 252.311782 266.086137 
L 252.590788 265.414648 
L 252.869793 266.044169 
L 253.148798 262.057203 
L 253.427804 269.275709 
L 253.706809 267.051402 
L 253.985814 266.88353 
L 254.264819 267.764859 
L 254.543825 265.876296 
L 254.82283 268.39438 
L 255.101835 265.708424 
L 255.380841 265.37268 
L 255.659846 269.737358 
L 255.938851 265.876296 
L 256.217856 265.960232 
L 256.496862 269.779326 
L 256.775867 262.812628 
L 257.054872 268.142572 
L 257.333878 267.261242 
L 257.612883 268.520284 
L 257.891888 267.680923 
L 258.170894 265.834328 
L 258.449899 273.892196 
L 258.728904 258.615822 
L 259.007909 270.199006 
L 259.286915 265.288743 
L 259.56592 265.246775 
L 259.844925 274.563685 
L 260.123931 262.392947 
L 260.402936 263.442149 
L 260.681941 268.81406 
L 260.960946 267.722891 
L 261.239952 265.58252 
L 261.518957 267.848795 
L 261.797962 272.759058 
L 262.355973 258.573854 
L 262.634978 267.471083 
L 262.913983 268.520284 
L 263.192989 268.016667 
L 263.471994 267.932731 
L 263.750999 267.722891 
L 264.030005 266.88353 
L 264.30901 265.288743 
L 264.588015 269.023901 
L 264.867021 267.345178 
L 265.146026 267.177306 
L 265.425031 268.772092 
L 265.704036 262.183107 
L 265.983042 270.870495 
L 266.262047 263.022468 
L 266.820058 269.485549 
L 267.099063 266.547785 
L 267.378068 268.18454 
L 267.657073 266.086137 
L 267.936079 267.680923 
L 268.215084 267.471083 
L 268.773095 275.10927 
L 269.0521 268.688156 
L 269.331105 266.673689 
L 269.610111 263.358213 
L 269.889116 266.128105 
L 270.168121 260.042736 
L 270.447126 263.022468 
L 270.726132 269.191773 
L 271.005137 269.149805 
L 271.284142 267.387146 
L 271.563148 267.471083 
L 271.842153 268.520284 
L 272.121158 274.647621 
L 272.400163 271.751825 
L 272.958174 259.497151 
L 273.237179 261.721458 
L 273.79519 271.20624 
L 274.074195 264.785127 
L 274.3532 263.232309 
L 274.632206 257.063004 
L 274.911211 266.589753 
L 275.190216 271.248208 
L 275.469222 270.073102 
L 275.748227 263.526085 
L 276.027232 271.248208 
L 276.306238 269.149805 
L 276.585243 265.834328 
L 276.864248 272.801026 
L 277.422259 266.128105 
L 277.701264 266.799594 
L 277.980269 269.863262 
L 278.259275 266.128105 
L 278.53828 265.79236 
L 278.817285 268.646188 
L 279.09629 264.365446 
L 279.654301 269.191773 
L 279.933306 268.897997 
L 280.212312 263.400181 
L 280.491317 262.602788 
L 280.770322 276.871928 
L 281.328333 262.644756 
L 281.607338 270.073102 
L 281.886343 260.210608 
L 282.165349 261.595554 
L 282.444354 269.275709 
L 282.723359 267.638955 
L 283.002365 267.471083 
L 283.28137 269.737358 
L 283.560375 262.854596 
L 284.118386 270.031134 
L 284.397391 265.79236 
L 284.676396 265.960232 
L 284.955402 269.485549 
L 285.234407 266.044169 
L 285.513412 264.827095 
L 285.792417 269.065869 
L 286.071423 263.610021 
L 286.350428 268.939965 
L 286.629433 265.918264 
L 286.908439 270.870495 
L 287.187444 271.625921 
L 287.466449 264.743159 
L 287.745455 264.617254 
L 288.02446 266.463849 
L 288.303465 269.611454 
L 288.58247 267.722891 
L 288.861476 269.107837 
L 289.140481 263.945766 
L 289.419486 269.69539 
L 289.698492 265.624488 
L 290.256502 268.478316 
L 290.535507 266.841562 
L 290.814513 272.087569 
L 291.093518 271.751825 
L 291.372523 258.280077 
L 291.651529 267.974699 
L 291.930534 265.330712 
L 292.488545 267.806827 
L 292.76755 265.120871 
L 293.046555 276.284375 
L 293.32556 256.979068 
L 293.604566 269.233741 
L 293.883571 267.764859 
L 294.162576 267.596987 
L 294.441582 265.876296 
L 294.720587 266.925498 
L 294.999592 268.646188 
L 295.278597 268.142572 
L 295.557603 265.37268 
L 295.836608 271.080336 
L 296.115613 262.476883 
L 296.394619 266.505817 
L 296.673624 267.638955 
L 296.952629 267.009434 
L 297.51064 268.981933 
L 297.789645 266.379913 
L 298.06865 269.863262 
L 298.347656 268.226508 
L 298.626661 268.100603 
L 298.905666 263.945766 
L 299.463677 271.332144 
L 299.742682 261.25981 
L 300.021687 270.954432 
L 300.300693 270.408847 
L 300.579698 261.805394 
L 300.858703 269.065869 
L 301.137709 265.666456 
L 301.416714 266.128105 
L 301.695719 270.534751 
L 301.974724 268.142572 
L 302.25373 264.197574 
L 302.532735 264.155606 
L 302.81174 269.191773 
L 303.090746 266.128105 
L 303.369751 267.009434 
L 303.648756 266.086137 
L 304.206767 267.30321 
L 304.485772 266.757626 
L 304.764777 269.233741 
L 305.043783 268.897997 
L 305.322788 265.834328 
L 305.601793 265.204807 
L 305.880799 269.275709 
L 306.159804 265.498584 
L 306.438809 270.11507 
L 306.717814 271.164272 
L 306.99682 266.841562 
L 307.55483 263.861829 
L 307.833836 268.897997 
L 308.112841 266.589753 
L 308.391846 267.596987 
L 308.670851 266.715657 
L 308.949857 268.39438 
L 309.228862 276.955864 
L 309.507867 266.589753 
L 309.786873 266.254009 
L 310.065878 270.450815 
L 310.623889 260.16864 
L 310.902894 265.624488 
L 311.460904 267.890763 
L 311.73991 269.149805 
L 312.018915 263.232309 
L 312.29792 269.485549 
L 312.576926 268.81406 
L 312.855931 263.735925 
L 313.413941 269.527518 
L 313.692947 266.463849 
L 313.971952 265.540552 
L 314.250957 267.555019 
L 314.529963 266.757626 
L 314.808968 267.051402 
L 315.087973 267.596987 
L 315.366979 274.353844 
L 315.645984 260.042736 
L 315.924989 275.193206 
L 316.483 260.966033 
L 316.762005 273.094803 
L 317.320016 261.973267 
L 317.599021 272.801026 
L 318.157031 260.756193 
L 318.436037 271.835761 
L 318.715042 265.330712 
L 318.994047 264.617254 
L 319.273053 267.429115 
L 319.552058 268.688156 
L 319.831063 265.58252 
L 320.110068 268.18454 
L 320.389074 265.078903 
L 320.668079 265.540552 
L 320.947084 283.796658 
L 321.22609 266.463849 
L 321.505095 269.653422 
L 321.7841 261.008001 
L 322.063106 265.288743 
L 322.342111 273.976132 
L 322.621116 261.721458 
L 322.900121 266.841562 
L 323.179127 267.135338 
L 323.458132 266.128105 
L 323.737137 273.388579 
L 324.016143 260.882097 
L 324.295148 264.239542 
L 324.574153 269.485549 
L 324.853158 266.295977 
L 325.411169 270.618687 
L 325.690174 261.175874 
L 325.96918 264.952999 
L 326.248185 271.458048 
L 326.52719 264.701191 
L 326.806196 266.841562 
L 327.085201 266.044169 
L 327.364206 270.912463 
L 327.643211 262.099171 
L 328.201222 273.304643 
L 328.480227 265.918264 
L 328.759233 264.701191 
L 329.038238 265.918264 
L 329.317243 265.708424 
L 329.596248 267.974699 
L 329.875254 274.22794 
L 330.154259 262.896564 
L 330.433264 266.379913 
L 330.71227 268.058635 
L 330.991275 267.09337 
L 331.27028 266.925498 
L 331.549285 271.038368 
L 331.828291 262.896564 
L 332.107296 266.88353 
L 332.386301 268.142572 
L 332.665307 264.323478 
L 332.944312 267.261242 
L 333.223317 268.142572 
L 333.502323 264.49135 
L 333.781328 266.757626 
L 334.060333 265.162839 
L 334.339338 265.79236 
L 334.618344 267.638955 
L 334.897349 268.562252 
L 335.176354 270.450815 
L 335.45536 267.219274 
L 335.734365 269.191773 
L 336.292375 300.919626 
L 336.571381 231.084775 
L 336.850386 268.772092 
L 337.129391 262.854596 
L 337.408397 269.69539 
L 337.687402 270.324911 
L 337.966407 262.77066 
L 338.245413 268.520284 
L 338.524418 269.191773 
L 338.803423 275.067301 
L 339.082428 264.785127 
L 339.361434 262.434915 
L 339.640439 269.989166 
L 340.19845 265.79236 
L 340.477455 266.086137 
L 340.75646 265.330712 
L 341.035465 268.226508 
L 341.314471 268.18454 
L 341.593476 265.036935 
L 341.872481 263.316245 
L 342.151487 269.233741 
L 342.430492 263.148372 
L 342.988502 271.751825 
L 343.267508 268.897997 
L 343.546513 269.275709 
L 343.825518 266.086137 
L 344.104524 267.009434 
L 344.383529 261.805394 
L 344.662534 266.421881 
L 344.94154 268.939965 
L 345.220545 269.779326 
L 345.49955 262.518851 
L 345.778555 267.680923 
L 346.057561 268.058635 
L 346.336566 265.876296 
L 346.615571 314.26547 
L 346.894577 238.513121 
L 347.173582 270.282943 
L 347.452587 268.226508 
L 347.731592 264.323478 
L 348.010598 264.994967 
L 348.289603 264.785127 
L 348.568608 265.246775 
L 348.847614 263.19034 
L 349.126619 265.498584 
L 349.405624 271.122304 
L 349.68463 258.615822 
L 349.963635 272.465282 
L 350.24264 266.0022 
L 350.521645 266.757626 
L 350.800651 266.925498 
L 351.079656 265.456616 
L 351.358661 266.841562 
L 351.637667 266.547785 
L 351.916672 264.701191 
L 352.195677 267.890763 
L 352.474682 267.177306 
L 352.753688 264.659223 
L 353.032693 265.540552 
L 353.311698 262.518851 
L 353.590704 268.60422 
L 353.869709 264.701191 
L 354.148714 270.576719 
L 354.427719 268.60422 
L 354.706725 261.931299 
L 354.98573 269.69539 
L 355.264735 270.366879 
L 355.543741 271.41608 
L 355.822746 265.624488 
L 356.101751 268.60422 
L 356.380757 267.135338 
L 356.659762 258.699758 
L 356.938767 265.414648 
L 357.217772 268.646188 
L 357.496778 265.58252 
L 357.775783 267.848795 
L 358.054788 266.295977 
L 358.612799 268.520284 
L 358.891804 264.952999 
L 359.170809 268.39438 
L 359.72882 268.39438 
L 360.007825 257.986301 
L 360.286831 273.178739 
L 360.565836 264.155606 
L 361.123847 269.653422 
L 361.402852 268.39438 
L 361.681857 267.932731 
L 361.960862 262.225075 
L 362.239868 268.939965 
L 362.518873 267.30321 
L 362.797878 269.863262 
L 363.076884 262.057203 
L 363.355889 271.20624 
L 363.634894 266.925498 
L 363.913899 265.666456 
L 364.192905 267.890763 
L 364.47191 264.407414 
L 364.750915 267.596987 
L 365.029921 272.801026 
L 365.308926 258.364014 
L 365.587931 268.81406 
L 365.866936 268.478316 
L 366.145942 266.505817 
L 366.424947 269.779326 
L 366.703952 261.637522 
L 366.982958 270.240975 
L 367.261963 267.219274 
L 367.540968 267.932731 
L 367.819974 264.952999 
L 368.098979 265.960232 
L 368.656989 282.621552 
L 368.935995 262.56082 
L 369.215 257.35678 
L 369.494005 267.680923 
L 369.773011 262.099171 
L 370.052016 272.633154 
L 370.331021 272.171505 
L 370.610026 266.254009 
L 370.889032 268.100603 
L 371.168037 267.387146 
L 371.447042 265.540552 
L 371.726048 266.044169 
L 372.005053 256.559387 
L 372.284058 265.58252 
L 372.563064 269.821294 
L 372.842069 264.994967 
L 373.121074 270.786559 
L 373.400079 271.709857 
L 373.679085 265.79236 
L 373.95809 265.288743 
L 374.237095 269.317677 
L 374.516101 287.951496 
L 374.795106 233.141209 
L 375.074111 268.939965 
L 375.353116 273.976132 
L 375.632122 267.135338 
L 375.911127 266.589753 
L 376.190132 261.511618 
L 376.469138 280.691021 
L 376.748143 273.010867 
L 377.027148 253.663591 
L 377.306153 264.029702 
L 377.585159 268.100603 
L 377.864164 267.30321 
L 378.143169 273.682355 
L 378.422175 257.56662 
L 378.70118 274.815493 
L 378.980185 262.56082 
L 379.259191 268.730124 
L 379.538196 265.204807 
L 379.817201 264.575286 
L 380.096206 269.275709 
L 380.375212 269.317677 
L 380.654217 268.856029 
L 381.212228 264.365446 
L 381.491233 264.365446 
L 381.770238 263.610021 
L 382.049243 272.381346 
L 382.328249 268.436348 
L 382.607254 260.672257 
L 382.886259 269.317677 
L 383.165265 268.897997 
L 383.44427 265.120871 
L 383.723275 263.106404 
L 384.002281 267.261242 
L 384.281286 268.226508 
L 384.560291 267.848795 
L 384.839296 268.39438 
L 385.118302 267.219274 
L 385.397307 269.023901 
L 385.676312 268.772092 
L 386.234323 264.575286 
L 386.513328 271.835761 
L 386.792333 272.423314 
L 387.071339 269.527518 
L 387.350344 257.35678 
L 387.629349 269.317677 
L 387.908355 267.932731 
L 388.18736 265.79236 
L 388.74537 269.023901 
L 389.024376 268.646188 
L 389.303381 270.031134 
L 389.582386 267.135338 
L 389.861392 270.199006 
L 390.140397 265.540552 
L 390.419402 265.456616 
L 390.977413 269.737358 
L 391.256418 264.827095 
L 391.535423 268.897997 
L 391.814429 269.737358 
L 392.093434 271.919697 
L 392.372439 262.602788 
L 392.651445 266.841562 
L 392.93045 263.400181 
L 393.209455 267.051402 
L 393.48846 273.598419 
L 394.046471 262.015235 
L 394.325476 268.897997 
L 394.604482 264.785127 
L 394.883487 262.350979 
L 395.162492 267.932731 
L 395.441498 271.248208 
L 395.720503 261.46965 
L 395.999508 261.637522 
L 396.278513 269.779326 
L 396.557519 268.81406 
L 396.836524 269.737358 
L 397.115529 267.638955 
L 397.394535 270.324911 
L 397.67354 269.065869 
L 397.952545 269.401613 
L 398.23155 261.343746 
L 398.510556 266.673689 
L 398.789561 274.563685 
L 399.068566 261.721458 
L 399.626577 268.60422 
L 399.905582 265.960232 
L 400.184587 269.317677 
L 400.742598 266.337945 
L 401.021603 267.722891 
L 401.300609 265.960232 
L 401.858619 268.562252 
L 402.137625 267.471083 
L 402.41663 272.381346 
L 402.695635 271.41608 
L 402.97464 266.88353 
L 403.253646 267.177306 
L 403.532651 263.987734 
L 403.811656 268.058635 
L 404.090662 270.240975 
L 404.369667 269.569486 
L 404.648672 263.651989 
L 404.927677 267.932731 
L 405.206683 265.960232 
L 405.485688 261.133906 
L 405.764693 272.50725 
L 406.043699 265.246775 
L 406.322704 264.869063 
L 406.601709 267.932731 
L 406.880715 264.743159 
L 407.15972 266.673689 
L 407.438725 265.414648 
L 407.71773 267.722891 
L 407.996736 271.500016 
L 408.275741 273.724324 
L 408.554746 273.682355 
L 409.112757 258.405982 
L 409.391762 266.547785 
L 409.670767 265.834328 
L 409.949773 271.583952 
L 410.228778 274.479749 
L 410.507783 267.974699 
L 410.786789 266.170073 
L 411.065794 266.0022 
L 411.344799 269.653422 
L 411.623804 268.100603 
L 411.90281 265.204807 
L 412.181815 269.401613 
L 412.46082 265.918264 
L 412.739826 267.009434 
L 413.018831 261.931299 
L 413.297836 266.841562 
L 413.576842 267.30321 
L 413.855847 268.016667 
L 414.134852 278.886395 
L 414.413857 248.879232 
L 414.692863 279.43198 
L 414.971868 271.919697 
L 415.250873 247.955935 
L 415.529879 247.913967 
L 415.808884 275.948631 
L 416.087889 269.779326 
L 416.366894 266.589753 
L 416.6459 272.591186 
L 417.20391 263.19034 
L 417.482916 266.715657 
L 417.761921 268.016667 
L 418.040926 262.350979 
L 418.319932 267.09337 
L 418.598937 266.337945 
L 418.877942 270.702623 
L 419.156947 260.588321 
L 419.435953 267.135338 
L 419.714958 266.673689 
L 419.993963 265.834328 
L 420.272969 271.667889 
L 420.551974 266.212041 
L 420.830979 270.199006 
L 421.109984 266.0022 
L 421.38899 270.744591 
L 421.667995 270.282943 
L 421.947 268.18454 
L 422.226006 267.345178 
L 422.505011 264.197574 
L 422.784016 271.374112 
L 423.063021 265.876296 
L 423.342027 268.60422 
L 423.621032 269.401613 
L 423.900037 270.660655 
L 424.179043 268.939965 
L 424.458048 269.023901 
L 424.737053 252.992102 
L 425.016059 267.974699 
L 425.295064 267.135338 
L 425.574069 267.806827 
L 425.853074 275.277142 
L 426.411085 263.819861 
L 426.69009 267.806827 
L 426.969096 257.776461 
L 427.527106 275.906663 
L 427.806111 267.764859 
L 428.085117 263.442149 
L 428.364122 263.400181 
L 428.643127 268.730124 
L 429.201138 264.994967 
L 429.480143 271.332144 
L 429.759149 268.016667 
L 430.038154 267.555019 
L 430.596164 270.9964 
L 431.154175 262.56082 
L 431.43318 265.37268 
L 431.712186 273.682355 
L 431.991191 270.450815 
L 432.270196 256.265611 
L 432.549201 267.387146 
L 432.828207 268.939965 
L 433.107212 266.88353 
L 433.386217 263.945766 
L 433.665223 271.751825 
L 433.944228 271.667889 
L 434.223233 260.672257 
L 434.502238 273.430547 
L 434.781244 272.003633 
L 435.060249 262.350979 
L 435.339254 266.547785 
L 435.61826 261.721458 
L 435.897265 267.974699 
L 436.17627 266.589753 
L 436.455276 263.400181 
L 436.734281 272.465282 
L 437.292291 261.427682 
L 437.571297 267.680923 
L 437.850302 269.443581 
L 438.129307 265.456616 
L 438.408313 264.28151 
L 438.687318 261.385714 
L 438.966323 268.226508 
L 439.245328 267.764859 
L 439.524334 269.275709 
L 439.803339 268.478316 
L 440.082344 266.086137 
L 440.36135 269.779326 
L 440.640355 265.624488 
L 440.91936 271.709857 
L 441.198366 270.073102 
L 441.477371 264.197574 
L 441.756376 264.827095 
L 442.035381 268.981933 
L 442.314387 266.379913 
L 442.593392 261.847363 
L 442.872397 269.317677 
L 443.151403 268.478316 
L 443.430408 265.414648 
L 443.709413 268.352412 
L 443.988418 336.298701 
L 444.267424 310.614248 
L 444.546429 257.482684 
L 444.825434 268.39438 
L 445.383445 171.070449 
L 445.66245 262.854596 
L 446.499466 264.659223 
L 446.778471 267.722891 
L 447.057477 266.337945 
L 447.336482 267.09337 
L 447.615487 253.24391 
L 447.894493 265.414648 
L 448.173498 267.219274 
L 448.452503 272.381346 
L 448.731508 264.617254 
L 449.010514 267.974699 
L 449.289519 265.37268 
L 449.568524 267.051402 
L 449.84753 267.219274 
L 450.126535 269.443581 
L 450.40554 267.219274 
L 450.963551 265.666456 
L 451.242556 268.436348 
L 451.521561 266.295977 
L 452.079572 267.387146 
L 452.358577 267.345178 
L 452.637583 266.295977 
L 452.916588 266.086137 
L 453.474598 268.81406 
L 453.753604 266.925498 
L 454.032609 267.680923 
L 454.311614 267.135338 
L 454.59062 267.219274 
L 454.869625 269.275709 
L 455.14863 268.268476 
L 455.427635 261.973267 
L 455.706641 273.178739 
L 456.264651 261.721458 
L 456.543657 273.052835 
L 456.822662 274.0181 
L 457.101667 272.003633 
L 457.380672 276.368311 
L 457.659678 266.463849 
L 458.217688 257.986301 
L 458.496694 259.035503 
L 458.775699 266.170073 
L 459.054704 266.799594 
L 459.612715 273.388579 
L 460.170725 261.973267 
L 460.449731 267.261242 
L 460.728736 265.540552 
L 461.007741 271.500016 
L 461.286747 265.078903 
L 461.565752 267.722891 
L 461.844757 264.659223 
L 462.123762 269.191773 
L 462.681773 264.533318 
L 462.960778 263.274277 
L 463.239784 268.688156 
L 463.518789 266.421881 
L 463.797794 267.345178 
L 464.0768 266.170073 
L 464.355805 261.175874 
L 464.63481 267.219274 
L 464.913815 267.848795 
L 465.192821 267.219274 
L 465.471826 268.352412 
L 465.750831 266.505817 
L 466.029837 267.806827 
L 466.308842 265.834328 
L 466.587847 266.88353 
L 466.866852 267.30321 
L 467.145858 266.379913 
L 467.424863 267.974699 
L 467.703868 266.799594 
L 468.261879 270.324911 
L 468.540884 267.429115 
L 468.819889 268.39438 
L 469.098895 262.183107 
L 469.3779 271.20624 
L 469.656905 264.407414 
L 469.935911 271.751825 
L 470.214916 271.835761 
L 470.493921 269.191773 
L 470.772927 267.974699 
L 471.330937 267.387146 
L 471.609942 265.246775 
L 471.888948 268.730124 
L 472.167953 265.79236 
L 472.446958 268.688156 
L 472.725964 265.624488 
L 473.004969 257.398748 
L 473.283974 264.49135 
L 473.562979 265.79236 
L 473.841985 266.044169 
L 474.12099 268.646188 
L 474.399995 265.708424 
L 474.679001 266.715657 
L 474.958006 267.09337 
L 475.237011 265.918264 
L 475.516017 267.974699 
L 475.795022 267.806827 
L 476.074027 266.715657 
L 476.353032 266.170073 
L 476.632038 267.974699 
L 476.911043 265.960232 
L 477.190048 274.773525 
L 477.469054 277.081768 
L 477.748059 262.9805 
L 478.306069 272.465282 
L 478.585075 272.968898 
L 478.86408 282.201872 
L 479.422091 256.433483 
L 479.701096 267.177306 
L 479.980101 262.728692 
L 480.259106 264.869063 
L 480.538112 270.282943 
L 480.817117 264.449382 
L 481.096122 270.157038 
L 481.375128 271.500016 
L 481.654133 270.9964 
L 481.933138 261.847363 
L 482.212144 266.128105 
L 482.491149 266.086137 
L 482.770154 271.919697 
L 483.049159 256.727259 
L 483.328165 268.226508 
L 483.60717 272.129537 
L 483.886175 261.721458 
L 484.165181 268.268476 
L 484.444186 271.038368 
L 484.723191 267.135338 
L 485.002196 265.414648 
L 485.281202 266.295977 
L 485.560207 268.981933 
L 485.839212 266.589753 
L 486.118218 266.547785 
L 486.397223 265.624488 
L 486.676228 266.925498 
L 486.955233 268.981933 
L 487.234239 266.88353 
L 487.513244 268.730124 
L 487.792249 262.812628 
L 488.071255 269.779326 
L 488.35026 251.397316 
L 488.629265 261.301778 
L 489.187276 268.268476 
L 489.466281 268.562252 
L 489.745286 267.555019 
L 490.024292 271.038368 
L 490.303297 280.816926 
L 490.582302 268.772092 
L 490.861308 263.064436 
L 491.419318 261.847363 
L 491.698323 264.827095 
L 491.977329 262.56082 
L 492.256334 269.401613 
L 492.535339 266.421881 
L 492.814345 268.142572 
L 493.09335 267.471083 
L 493.372355 269.69539 
L 493.651361 275.403046 
L 493.930366 277.249641 
L 494.209371 264.952999 
L 494.488376 265.876296 
L 494.767382 268.058635 
L 495.046387 267.135338 
L 495.325392 270.282943 
L 495.604398 263.526085 
L 496.162408 266.254009 
L 496.441413 269.527518 
L 496.720419 265.624488 
L 496.999424 272.968898 
L 497.278429 257.35678 
L 497.557435 274.311876 
L 497.83644 266.547785 
L 498.115445 266.673689 
L 498.39445 266.925498 
L 498.673456 261.25981 
L 498.952461 274.983365 
L 499.510472 250.138274 
L 499.789477 272.003633 
L 500.068482 265.036935 
L 500.347488 266.631721 
L 500.626493 266.421881 
L 500.905498 269.317677 
L 501.184503 270.492783 
L 501.463509 273.80826 
L 502.021519 259.665023 
L 502.300525 267.932731 
L 502.57953 268.310444 
L 502.858535 269.779326 
L 503.13754 269.317677 
L 503.416546 268.058635 
L 503.695551 268.18454 
L 503.974556 267.471083 
L 504.253562 269.401613 
L 504.532567 262.518851 
L 504.811572 275.612886 
L 505.090578 275.52895 
L 505.369583 262.896564 
L 505.648588 258.280077 
L 505.927593 268.478316 
L 506.206599 270.450815 
L 506.485604 265.456616 
L 506.764609 263.777893 
L 507.043615 265.456616 
L 507.32262 257.944333 
L 507.601625 261.931299 
L 507.88063 268.520284 
L 508.159636 271.20624 
L 508.438641 271.20624 
L 508.717646 274.144004 
L 508.996652 268.688156 
L 509.275657 259.9588 
L 509.554662 265.246775 
L 509.833667 265.162839 
L 510.112673 265.666456 
L 510.670683 269.947198 
L 510.949689 268.058635 
L 511.228694 271.41608 
L 511.507699 266.757626 
L 511.786705 269.317677 
L 512.06571 264.449382 
L 512.344715 268.016667 
L 512.62372 266.967466 
L 512.902726 272.339378 
L 513.460736 260.294544 
L 513.739742 271.625921 
L 514.018747 264.155606 
L 514.297752 266.086137 
L 514.576757 269.569486 
L 515.134768 264.239542 
L 515.692779 270.492783 
L 515.971784 264.197574 
L 516.250789 266.757626 
L 516.529795 257.398748 
L 516.8088 269.69539 
L 517.087805 267.638955 
L 517.36681 276.787992 
L 517.645816 280.900862 
L 517.924821 260.798161 
L 518.203826 261.343746 
L 518.482832 271.667889 
L 518.761837 263.651989 
L 519.319847 267.177306 
L 519.598853 266.0022 
L 519.877858 267.471083 
L 520.156863 265.708424 
L 520.435869 266.212041 
L 520.714874 271.709857 
L 521.272884 260.042736 
L 521.55189 268.981933 
L 521.830895 273.640387 
L 522.1099 264.701191 
L 522.388906 266.128105 
L 522.667911 270.073102 
L 522.946916 266.044169 
L 523.225922 268.39438 
L 523.504927 266.212041 
L 523.783932 267.848795 
L 524.062937 264.449382 
L 524.341943 269.359645 
L 524.620948 263.316245 
L 524.899953 268.100603 
L 525.178959 264.994967 
L 525.457964 272.255441 
L 525.736969 265.288743 
L 526.015974 266.547785 
L 526.29498 266.170073 
L 526.573985 267.135338 
L 526.85299 267.596987 
L 527.131996 265.414648 
L 527.411001 266.799594 
L 527.690006 268.772092 
L 527.969012 266.295977 
L 528.248017 267.806827 
L 528.527022 265.288743 
L 528.806027 269.90523 
L 529.085033 267.051402 
L 529.364038 265.414648 
L 529.643043 266.673689 
L 529.922049 270.786559 
L 530.480059 265.246775 
L 530.759064 265.246775 
L 531.03807 266.421881 
L 531.317075 268.310444 
L 531.875086 262.728692 
L 532.154091 272.423314 
L 532.433096 265.79236 
L 532.712101 269.149805 
L 532.991107 266.421881 
L 533.270112 268.81406 
L 533.549117 264.197574 
L 533.828123 265.708424 
L 534.107128 270.408847 
L 534.386133 266.295977 
L 534.665139 265.414648 
L 534.944144 268.856029 
L 535.223149 262.434915 
L 535.502154 267.722891 
L 535.78116 270.828527 
L 536.060165 268.646188 
L 536.618176 266.547785 
L 536.897181 266.547785 
L 537.176186 267.596987 
L 537.455191 265.456616 
L 537.734197 265.162839 
L 538.013202 266.128105 
L 538.292207 267.890763 
L 538.571213 267.30321 
L 539.129223 270.031134 
L 539.687234 258.154173 
L 539.966239 275.696822 
L 540.245244 283.376977 
L 540.52425 266.0022 
L 540.803255 262.225075 
L 541.08226 264.994967 
L 541.361266 261.385714 
L 541.640271 270.576719 
L 541.919276 264.113638 
L 542.198281 270.199006 
L 542.477287 259.539119 
L 542.756292 270.744591 
L 543.035297 270.786559 
L 543.314303 263.777893 
L 543.593308 267.09337 
L 544.151318 262.728692 
L 544.430324 264.029702 
L 544.709329 270.408847 
L 544.988334 267.638955 
L 545.26734 267.09337 
L 545.546345 265.960232 
L 545.82535 266.463849 
L 546.104356 269.443581 
L 546.383361 269.989166 
L 546.662366 263.693957 
L 546.941371 268.981933 
L 547.220377 265.708424 
L 547.499382 264.533318 
L 547.778387 271.919697 
L 548.336398 264.323478 
L 548.615403 264.952999 
L 549.173414 267.596987 
L 549.452419 264.365446 
L 549.731424 267.177306 
L 550.01043 271.835761 
L 550.289435 278.802459 
L 550.847446 259.832896 
L 551.126451 266.631721 
L 551.405456 263.316245 
L 551.684461 268.60422 
L 551.963467 259.623055 
L 552.521477 277.081768 
L 552.800483 266.044169 
L 553.079488 261.67949 
L 553.358493 265.540552 
L 553.637498 271.793793 
L 553.916504 264.029702 
L 554.195509 268.058635 
L 554.474514 264.785127 
L 554.75352 267.764859 
L 555.032525 264.49135 
L 555.31153 267.387146 
L 555.590535 265.498584 
L 555.869541 269.90523 
L 556.148546 266.044169 
L 556.427551 265.540552 
L 556.706557 266.337945 
L 556.985562 271.835761 
L 557.264567 262.183107 
L 557.543573 264.323478 
L 557.822578 268.310444 
L 558.101583 266.799594 
L 558.380588 272.884962 
L 558.659594 263.861829 
L 558.938599 269.569486 
L 559.49661 264.785127 
L 559.775615 267.764859 
L 560.05462 266.505817 
L 560.333625 267.848795 
L 560.612631 268.39438 
L 560.891636 263.442149 
L 561.170641 266.128105 
L 561.449647 271.164272 
L 561.728652 266.841562 
L 562.007657 265.834328 
L 562.286663 265.834328 
L 562.565668 266.799594 
L 562.844673 269.779326 
L 563.123678 265.666456 
L 563.402684 266.925498 
L 563.681689 268.939965 
L 563.960694 268.352412 
L 564.2397 262.728692 
L 564.518705 273.262675 
L 564.79771 263.106404 
L 565.076715 265.498584 
L 565.355721 265.79236 
L 565.634726 267.177306 
L 565.913731 265.330712 
L 566.192737 266.547785 
L 566.471742 268.81406 
L 566.750747 268.058635 
L 567.029752 265.624488 
L 567.308758 267.806827 
L 567.587763 264.49135 
L 567.866768 268.39438 
L 568.145774 267.680923 
L 568.424779 269.611454 
L 568.703784 263.106404 
L 568.98279 266.631721 
L 569.261795 267.680923 
L 569.5408 266.463849 
L 570.098811 268.60422 
L 570.377816 266.589753 
L 570.656821 267.638955 
L 570.935827 266.547785 
L 571.493837 267.722891 
L 571.772842 266.631721 
L 572.051848 266.631721 
L 572.330853 268.016667 
L 572.609858 266.673689 
L 572.888864 265.960232 
L 573.167869 270.492783 
L 573.446874 265.960232 
L 573.72588 264.029702 
L 574.004885 265.960232 
L 574.28389 270.031134 
L 574.562895 271.877729 
L 574.841901 262.644756 
L 575.120906 270.157038 
L 575.399911 270.744591 
L 575.678917 267.261242 
L 575.957922 270.660655 
L 576.236927 264.029702 
L 576.515932 264.952999 
L 576.794938 260.210608 
L 577.073943 264.113638 
L 577.631954 267.09337 
L 577.910959 267.051402 
L 578.189964 267.261242 
L 578.468969 268.058635 
L 578.747975 269.233741 
L 579.02698 269.191773 
L 579.305985 264.365446 
L 579.584991 263.777893 
L 579.863996 268.856029 
L 580.143001 267.513051 
L 580.422007 272.50725 
L 580.701012 261.301778 
L 580.980017 266.379913 
L 581.259022 268.016667 
L 581.538028 267.387146 
L 581.817033 267.513051 
L 582.375044 266.421881 
L 582.654049 269.023901 
L 582.933054 267.638955 
L 583.212059 267.555019 
L 583.491065 267.345178 
L 583.77007 277.669321 
L 584.049075 269.443581 
L 584.328081 266.673689 
L 584.607086 265.204807 
L 584.886091 270.282943 
L 585.165097 264.07167 
L 585.444102 266.925498 
L 585.723107 267.722891 
L 586.002112 265.79236 
L 586.281118 267.764859 
L 586.560123 264.617254 
L 586.839128 271.080336 
L 587.118134 264.617254 
L 587.676144 267.009434 
L 587.955149 266.757626 
L 588.234155 265.624488 
L 588.51316 268.478316 
L 588.792165 259.371247 
L 589.071171 277.123736 
L 589.350176 274.605653 
L 589.629181 260.336512 
L 589.908186 266.505817 
L 590.187192 266.421881 
L 590.466197 267.890763 
L 590.745202 267.261242 
L 591.024208 264.575286 
L 591.303213 270.031134 
L 591.861224 262.602788 
L 592.140229 267.219274 
L 592.419234 269.527518 
L 592.698239 262.309011 
L 592.977245 266.547785 
L 593.25625 268.058635 
L 593.535255 268.226508 
L 593.814261 269.569486 
L 594.093266 273.010867 
L 594.372271 261.973267 
L 594.651276 262.56082 
L 594.930282 265.79236 
L 595.209287 266.589753 
L 595.488292 267.009434 
L 595.767298 267.764859 
L 596.046303 270.702623 
L 596.325308 280.73299 
L 596.604314 271.41608 
L 596.883319 268.268476 
L 597.162324 263.316245 
L 597.441329 264.533318 
L 597.720335 264.323478 
L 597.99934 265.330712 
L 598.278345 264.197574 
L 598.557351 265.162839 
L 598.836356 265.288743 
L 599.115361 266.799594 
L 599.394366 266.212041 
L 599.673372 270.11507 
L 599.952377 265.666456 
L 600.231382 267.680923 
L 600.510388 265.246775 
L 600.789393 267.261242 
L 601.068398 265.120871 
L 601.347403 268.310444 
L 601.626409 267.722891 
L 601.905414 265.666456 
L 602.184419 271.458048 
L 602.463425 267.219274 
L 602.74243 267.177306 
L 603.021435 271.038368 
L 603.300441 271.122304 
L 603.579446 262.728692 
L 603.858451 266.295977 
L 604.137456 266.128105 
L 604.416462 366.725545 
L 605.253478 375.832614 
L 605.532483 43.697386 
L 605.811488 270.828527 
L 606.090493 273.136771 
L 606.369499 273.094803 
L 606.648504 274.857461 
L 606.927509 267.219274 
L 607.206515 263.903797 
L 607.48552 262.602788 
L 607.764525 267.219274 
L 608.043531 262.309011 
L 608.322536 267.387146 
L 608.601541 266.967466 
L 608.880546 267.555019 
L 609.159552 266.547785 
L 609.438557 264.701191 
L 609.717562 264.743159 
L 609.996568 268.772092 
L 610.275573 266.505817 
L 610.833583 270.073102 
L 611.112589 303.815423 
L 611.391594 228.14701 
L 611.670599 271.038368 
L 611.949605 265.330712 
L 612.22861 264.994967 
L 612.507615 278.802459 
L 613.065626 261.049969 
L 613.344631 266.925498 
L 613.623636 267.219274 
L 613.902642 266.547785 
L 614.181647 265.288743 
L 614.460652 268.310444 
L 614.739658 269.69539 
L 615.018663 278.34081 
L 615.297668 246.822797 
L 615.576673 273.766292 
L 615.855679 269.779326 
L 616.134684 267.722891 
L 616.413689 262.728692 
L 616.692695 269.821294 
L 616.9717 266.212041 
L 617.250705 268.100603 
L 617.52971 265.666456 
L 617.808716 267.30321 
L 618.087721 266.337945 
L 618.366726 269.443581 
L 618.645732 262.518851 
L 618.924737 269.653422 
L 619.203742 270.660655 
L 619.482748 264.029702 
L 620.040758 271.374112 
L 620.319763 264.197574 
L 620.877774 267.722891 
L 621.156779 265.540552 
L 621.71479 271.374112 
L 621.993795 268.81406 
L 622.2728 268.100603 
L 622.551806 261.595554 
L 622.830811 266.212041 
L 623.109816 267.471083 
L 623.667827 263.945766 
L 623.946832 274.941397 
L 624.225837 270.912463 
L 624.504843 270.11507 
L 624.783848 261.217842 
L 625.062853 266.170073 
L 625.341859 266.88353 
L 625.620864 266.0022 
L 625.899869 269.779326 
L 626.45788 265.37268 
L 626.736885 267.764859 
L 627.01589 263.651989 
L 627.294896 265.58252 
L 627.573901 262.309011 
L 627.852906 270.954432 
L 628.131912 269.485549 
L 628.410917 268.688156 
L 628.689922 269.191773 
L 629.247933 271.625921 
L 629.526938 260.37848 
L 629.805943 264.323478 
L 630.084949 264.785127 
L 630.363954 262.812628 
L 630.642959 274.22794 
L 630.921965 259.790928 
L 631.20097 271.541984 
L 631.479975 270.366879 
L 631.75898 270.408847 
L 632.037986 259.874864 
L 632.316991 264.994967 
L 632.595996 266.128105 
L 632.875002 271.625921 
L 633.154007 266.337945 
L 633.433012 264.239542 
L 633.712017 268.142572 
L 633.991023 265.624488 
L 634.270028 269.149805 
L 634.549033 266.463849 
L 634.828039 268.730124 
L 635.107044 264.49135 
L 635.386049 266.673689 
L 635.665054 267.429115 
L 635.94406 269.611454 
L 636.223065 265.666456 
L 636.50207 266.254009 
L 636.781076 267.974699 
L 637.060081 266.128105 
L 637.339086 267.471083 
L 637.618092 266.254009 
L 637.897097 273.346611 
L 638.176102 265.246775 
L 638.455107 264.575286 
L 638.734113 265.456616 
L 639.013118 267.429115 
L 639.292123 270.576719 
L 639.571129 265.918264 
L 639.850134 268.39438 
L 640.129139 262.728692 
L 640.408144 271.793793 
L 640.68715 270.534751 
L 640.966155 265.37268 
L 641.24516 269.401613 
L 641.524166 264.365446 
L 641.803171 269.779326 
L 642.082176 266.757626 
L 642.361182 262.057203 
L 642.640187 268.981933 
L 642.919192 264.994967 
L 643.198197 269.149805 
L 643.477203 266.88353 
L 643.756208 262.602788 
L 644.035213 268.772092 
L 644.314219 267.638955 
L 644.593224 263.987734 
L 644.872229 266.212041 
L 645.151234 274.395812 
L 645.43024 263.442149 
L 645.709245 268.016667 
L 645.98825 266.337945 
L 646.546261 268.39438 
L 646.825266 267.261242 
L 647.104271 269.233741 
L 647.383277 267.387146 
L 647.662282 262.686724 
L 647.941287 265.960232 
L 648.499298 268.981933 
L 648.778303 264.617254 
L 649.057309 269.69539 
L 649.336314 271.164272 
L 649.615319 265.708424 
L 649.894324 263.651989 
L 650.17333 272.171505 
L 650.452335 266.044169 
L 650.73134 265.918264 
L 651.010346 268.981933 
L 651.289351 264.407414 
L 651.568356 264.911031 
L 651.847361 266.757626 
L 652.126367 267.177306 
L 652.405372 263.819861 
L 652.684377 269.69539 
L 652.963383 269.233741 
L 653.242388 267.974699 
L 653.521393 268.436348 
L 653.800399 270.660655 
L 654.079404 263.987734 
L 654.358409 263.819861 
L 654.637414 266.170073 
L 654.91642 266.463849 
L 655.195425 266.547785 
L 655.47443 265.330712 
L 655.753436 266.589753 
L 656.032441 268.81406 
L 656.311446 269.191773 
L 656.869457 264.827095 
L 657.148462 266.799594 
L 657.427467 267.387146 
L 657.706473 267.429115 
L 657.985478 267.345178 
L 658.264483 268.772092 
L 658.543488 266.044169 
L 658.822494 267.09337 
L 659.101499 265.414648 
L 659.380504 268.772092 
L 659.65951 266.88353 
L 659.938515 267.974699 
L 660.21752 265.036935 
L 660.496526 265.288743 
L 661.054536 266.841562 
L 661.612547 267.555019 
L 661.891552 266.715657 
L 662.170557 268.268476 
L 662.449563 265.666456 
L 662.728568 267.555019 
L 663.007573 266.589753 
L 663.286578 266.799594 
L 663.565584 269.569486 
L 663.844589 266.925498 
L 664.123594 268.39438 
L 664.4026 267.848795 
L 664.96061 265.036935 
L 665.239616 269.359645 
L 665.518621 270.618687 
L 665.797626 269.779326 
L 666.076631 270.534751 
L 666.355637 263.148372 
L 666.634642 266.0022 
L 666.913647 265.79236 
L 667.192653 265.330712 
L 667.471658 266.170073 
L 667.750663 279.767724 
L 668.029668 260.126672 
L 668.308674 254.293112 
L 668.587679 268.100603 
L 668.866684 269.107837 
L 669.14569 267.513051 
L 669.424695 270.828527 
L 669.7037 266.0022 
L 669.982705 268.226508 
L 670.261711 271.625921 
L 670.819721 260.37848 
L 671.098727 269.065869 
L 671.377732 265.834328 
L 671.656737 264.659223 
L 671.935743 268.100603 
L 672.493753 267.30321 
L 672.772758 265.204807 
L 673.051764 268.897997 
L 673.330769 275.151238 
L 673.609774 265.498584 
L 673.88878 264.659223 
L 674.167785 265.414648 
L 674.44679 265.120871 
L 674.725795 267.932731 
L 674.725795 267.932731 
" clip-path="url(#pfa13539f60)" style="fill: none; stroke: #9ac9db; stroke-width: 1.5; stroke-linecap: square"/>
   </g>
   <g id="patch_3">
    <path d="M 33.153125 392.439375 
L 33.153125 27.090625 
" style="fill: none; stroke: #bcbcbc; stroke-width: 0.8; stroke-linejoin: miter; stroke-linecap: square"/>
   </g>
   <g id="patch_4">
    <path d="M 705.276875 392.439375 
L 705.276875 27.090625 
" style="fill: none; stroke: #bcbcbc; stroke-width: 0.8; stroke-linejoin: miter; stroke-linecap: square"/>
   </g>
   <g id="patch_5">
    <path d="M 33.153125 392.439375 
L 705.276875 392.439375 
" style="fill: none; stroke: #bcbcbc; stroke-width: 0.8; stroke-linejoin: miter; stroke-linecap: square"/>
   </g>
   <g id="patch_6">
    <path d="M 33.153125 27.090625 
L 705.276875 27.090625 
" style="fill: none; stroke: #bcbcbc; stroke-width: 0.8; stroke-linejoin: miter; stroke-linecap: square"/>
   </g>
   <g id="text_16">
    <!-- 一阶差分后的  pH 值 (用于ACF/PACF) -->
    <g transform="translate(267.215 17.090625) scale(0.12 -0.12)">
     <defs>
      <path id="SimHei-4e00" d="M 4875 2675 
Q 5525 2675 6050 2700 
L 6050 2050 
Q 5525 2075 4900 2075 
L 1600 2075 
Q 950 2075 350 2050 
L 350 2700 
Q 950 2675 1600 2675 
L 4875 2675 
z
" transform="scale(0.015625)"/>
      <path id="SimHei-9636" d="M 2450 4850 
Q 2350 4575 2175 3962 
Q 2000 3350 1825 2800 
Q 2225 2225 2312 1912 
Q 2400 1600 2375 1250 
Q 2350 900 2137 725 
Q 1925 550 1400 475 
Q 1300 925 1200 1075 
Q 1725 1025 1837 1225 
Q 1950 1425 1875 1775 
Q 1800 2125 1350 2725 
Q 1700 3825 1825 4400 
L 975 4400 
L 975 -500 
L 500 -500 
Q 525 175 525 675 
L 525 3650 
Q 525 4225 500 4850 
L 2450 4850 
z
M 4250 4825 
Q 4600 4100 5187 3637 
Q 5775 3175 6200 3025 
Q 5950 2775 5800 2500 
Q 4975 3075 4600 3512 
Q 4225 3950 4025 4400 
Q 3850 4025 3512 3487 
Q 3175 2950 2625 2350 
Q 2425 2575 2175 2700 
Q 2700 3075 3150 3787 
Q 3600 4500 3850 5275 
Q 4050 5150 4375 5075 
Q 4275 4900 4250 4825 
z
M 3750 2700 
Q 3650 2325 3575 1512 
Q 3500 700 3250 225 
Q 3000 -250 2650 -575 
Q 2425 -400 2175 -300 
Q 2550 -25 2762 337 
Q 2975 700 3087 1200 
Q 3200 1700 3200 2800 
Q 3350 2725 3750 2700 
z
M 5025 2775 
Q 4975 2425 4975 2025 
L 4975 350 
Q 4975 100 5000 -525 
L 4475 -525 
Q 4500 150 4500 375 
L 4500 2025 
Q 4500 2375 4475 2775 
L 5025 2775 
z
" transform="scale(0.015625)"/>
      <path id="SimHei-28" d="M 2975 -200 
L 2700 -475 
Q 2075 125 1762 775 
Q 1450 1425 1450 2250 
Q 1450 3075 1762 3725 
Q 2075 4375 2700 5000 
L 2975 4725 
Q 2400 4175 2112 3587 
Q 1825 3000 1825 2250 
Q 1825 1500 2112 912 
Q 2400 325 2975 -200 
z
" transform="scale(0.015625)"/>
      <path id="SimHei-7528" d="M 350 -300 
Q 650 125 812 600 
Q 975 1075 1012 1550 
Q 1050 2025 1050 3150 
Q 1050 4275 1025 4950 
L 5500 4950 
Q 5475 4225 5475 3650 
L 5475 375 
Q 5475 -150 5175 -275 
Q 4875 -400 4475 -450 
Q 4425 -75 4300 125 
Q 4800 100 4887 162 
Q 4975 225 4975 400 
L 4975 1650 
L 3450 1650 
L 3450 675 
Q 3450 125 3475 -325 
L 2925 -325 
Q 2950 100 2950 650 
L 2950 1650 
L 1525 1650 
Q 1425 575 850 -525 
Q 575 -350 350 -300 
z
M 4975 3475 
L 4975 4550 
L 3450 4550 
L 3450 3475 
L 4975 3475 
z
M 4975 2050 
L 4975 3100 
L 3450 3100 
L 3450 2050 
L 4975 2050 
z
M 2950 3475 
L 2950 4550 
L 1525 4550 
L 1525 3475 
L 2950 3475 
z
M 2950 2050 
L 2950 3100 
L 1525 3100 
L 1525 2050 
L 2950 2050 
z
" transform="scale(0.015625)"/>
      <path id="SimHei-4e8e" d="M 2900 2425 
L 1150 2425 
Q 650 2425 275 2400 
L 275 2900 
Q 650 2875 1150 2875 
L 2900 2875 
L 2900 4450 
L 1675 4450 
Q 1225 4450 900 4425 
L 900 4925 
Q 1225 4900 1675 4900 
L 4525 4900 
Q 4950 4900 5375 4925 
L 5375 4425 
Q 4950 4450 4525 4450 
L 3425 4450 
L 3425 2875 
L 5050 2875 
Q 5600 2875 6050 2900 
L 6050 2400 
Q 5650 2425 5050 2425 
L 3425 2425 
L 3425 125 
Q 3425 -325 3125 -412 
Q 2825 -500 2250 -525 
Q 2225 -200 2050 150 
Q 2450 100 2675 112 
Q 2900 125 2900 325 
L 2900 2425 
z
" transform="scale(0.015625)"/>
      <path id="SimHei-41" d="M 3075 125 
L 2475 125 
L 2125 1450 
L 1025 1450 
L 675 125 
L 75 125 
L 1325 4450 
L 1825 4450 
L 3075 125 
z
M 2000 1925 
L 1600 3450 
L 1550 3450 
L 1150 1925 
L 2000 1925 
z
" transform="scale(0.015625)"/>
      <path id="SimHei-43" d="M 2975 1825 
Q 2950 875 2575 475 
Q 2200 75 1675 75 
Q 1075 75 650 562 
Q 225 1050 225 2125 
Q 225 3300 637 3875 
Q 1050 4450 1700 4450 
Q 2250 4450 2612 4037 
Q 2975 3625 2950 2875 
L 2400 2875 
Q 2400 3425 2225 3700 
Q 2050 3975 1700 3975 
Q 1300 3975 1062 3562 
Q 825 3150 825 2175 
Q 825 1275 1062 912 
Q 1300 550 1675 550 
Q 1950 550 2175 812 
Q 2400 1075 2400 1825 
L 2975 1825 
z
" transform="scale(0.015625)"/>
      <path id="SimHei-46" d="M 2925 3925 
L 875 3925 
L 875 2525 
L 2425 2525 
L 2425 2050 
L 875 2050 
L 875 125 
L 300 125 
L 300 4400 
L 2925 4400 
L 2925 3925 
z
" transform="scale(0.015625)"/>
      <path id="SimHei-50" d="M 2950 3100 
Q 2950 2500 2600 2150 
Q 2250 1800 1625 1800 
L 900 1800 
L 900 125 
L 325 125 
L 325 4400 
L 1625 4400 
Q 2250 4400 2600 4050 
Q 2950 3700 2950 3100 
z
M 2375 3100 
Q 2375 3575 2150 3750 
Q 1925 3925 1475 3925 
L 900 3925 
L 900 2275 
L 1475 2275 
Q 1925 2275 2150 2450 
Q 2375 2625 2375 3100 
z
" transform="scale(0.015625)"/>
      <path id="SimHei-29" d="M 1675 2250 
Q 1675 1425 1362 775 
Q 1050 125 425 -475 
L 150 -200 
Q 725 325 1012 912 
Q 1300 1500 1300 2250 
Q 1300 3000 1012 3587 
Q 725 4175 150 4725 
L 425 5000 
Q 1050 4375 1362 3725 
Q 1675 3075 1675 2250 
z
" transform="scale(0.015625)"/>
     </defs>
     <use xlink:href="#SimHei-4e00"/>
     <use xlink:href="#SimHei-9636" transform="translate(100 0)"/>
     <use xlink:href="#SimHei-5dee" transform="translate(200 0)"/>
     <use xlink:href="#SimHei-5206" transform="translate(300 0)"/>
     <use xlink:href="#SimHei-540e" transform="translate(400 0)"/>
     <use xlink:href="#SimHei-7684" transform="translate(500 0)"/>
     <use xlink:href="#SimHei-20" transform="translate(600 0)"/>
     <use xlink:href="#SimHei-20" transform="translate(650 0)"/>
     <use xlink:href="#SimHei-70" transform="translate(700 0)"/>
     <use xlink:href="#SimHei-48" transform="translate(750 0)"/>
     <use xlink:href="#SimHei-20" transform="translate(800 0)"/>
     <use xlink:href="#SimHei-503c" transform="translate(850 0)"/>
     <use xlink:href="#SimHei-20" transform="translate(950 0)"/>
     <use xlink:href="#SimHei-28" transform="translate(1000 0)"/>
     <use xlink:href="#SimHei-7528" transform="translate(1050 0)"/>
     <use xlink:href="#SimHei-4e8e" transform="translate(1150 0)"/>
     <use xlink:href="#SimHei-41" transform="translate(1250 0)"/>
     <use xlink:href="#SimHei-43" transform="translate(1300 0)"/>
     <use xlink:href="#SimHei-46" transform="translate(1350 0)"/>
     <use xlink:href="#SimHei-2f" transform="translate(1400 0)"/>
     <use xlink:href="#SimHei-50" transform="translate(1450 0)"/>
     <use xlink:href="#SimHei-41" transform="translate(1500 0)"/>
     <use xlink:href="#SimHei-43" transform="translate(1550 0)"/>
     <use xlink:href="#SimHei-46" transform="translate(1600 0)"/>
     <use xlink:href="#SimHei-29" transform="translate(1650 0)"/>
    </g>
   </g>
   <g id="legend_1">
    <g id="patch_7">
     <path d="M 39.453125 47.333594 
L 221.253125 47.333594 
Q 223.053125 47.333594 223.053125 45.533594 
L 223.053125 33.390625 
Q 223.053125 31.590625 221.253125 31.590625 
L 39.453125 31.590625 
Q 37.653125 31.590625 37.653125 33.390625 
L 37.653125 45.533594 
Q 37.653125 47.333594 39.453125 47.333594 
z
" style="fill: #eeeeee; opacity: 0.8; stroke: #cccccc; stroke-width: 0.5; stroke-linejoin: miter"/>
    </g>
    <g id="line2d_28">
     <path d="M 41.253125 39.458594 
L 50.253125 39.458594 
L 59.253125 39.458594 
" style="fill: none; stroke: #9ac9db; stroke-width: 1.5; stroke-linecap: square"/>
    </g>
    <g id="text_17">
     <!-- 一阶差分后的  pH 值 (用于ACF/PACF) -->
     <g transform="translate(66.453125 42.608594) scale(0.09 -0.09)">
      <use xlink:href="#SimHei-4e00"/>
      <use xlink:href="#SimHei-9636" transform="translate(100 0)"/>
      <use xlink:href="#SimHei-5dee" transform="translate(200 0)"/>
      <use xlink:href="#SimHei-5206" transform="translate(300 0)"/>
      <use xlink:href="#SimHei-540e" transform="translate(400 0)"/>
      <use xlink:href="#SimHei-7684" transform="translate(500 0)"/>
      <use xlink:href="#SimHei-20" transform="translate(600 0)"/>
      <use xlink:href="#SimHei-20" transform="translate(650 0)"/>
      <use xlink:href="#SimHei-70" transform="translate(700 0)"/>
      <use xlink:href="#SimHei-48" transform="translate(750 0)"/>
      <use xlink:href="#SimHei-20" transform="translate(800 0)"/>
      <use xlink:href="#SimHei-503c" transform="translate(850 0)"/>
      <use xlink:href="#SimHei-20" transform="translate(950 0)"/>
      <use xlink:href="#SimHei-28" transform="translate(1000 0)"/>
      <use xlink:href="#SimHei-7528" transform="translate(1050 0)"/>
      <use xlink:href="#SimHei-4e8e" transform="translate(1150 0)"/>
      <use xlink:href="#SimHei-41" transform="translate(1250 0)"/>
      <use xlink:href="#SimHei-43" transform="translate(1300 0)"/>
      <use xlink:href="#SimHei-46" transform="translate(1350 0)"/>
      <use xlink:href="#SimHei-2f" transform="translate(1400 0)"/>
      <use xlink:href="#SimHei-50" transform="translate(1450 0)"/>
      <use xlink:href="#SimHei-41" transform="translate(1500 0)"/>
      <use xlink:href="#SimHei-43" transform="translate(1550 0)"/>
      <use xlink:href="#SimHei-46" transform="translate(1600 0)"/>
      <use xlink:href="#SimHei-29" transform="translate(1650 0)"/>
     </g>
    </g>
   </g>
  </g>
 </g>
 <defs>
  <clipPath id="pfa13539f60">
   <rect x="33.153125" y="27.090625" width="672.12375" height="365.34875"/>
  </clipPath>
 </defs>
</svg>
