<?xml version="1.0" encoding="utf-8" standalone="no"?>
<!DOCTYPE svg PUBLIC "-//W3C//DTD SVG 1.1//EN"
  "http://www.w3.org/Graphics/SVG/1.1/DTD/svg11.dtd">
<svg xmlns:xlink="http://www.w3.org/1999/xlink" width="712.310938pt" height="422.786562pt" viewBox="0 0 712.310938 422.786562" xmlns="http://www.w3.org/2000/svg" version="1.1">
 <metadata>
  <rdf:RDF xmlns:dc="http://purl.org/dc/elements/1.1/" xmlns:cc="http://creativecommons.org/ns#" xmlns:rdf="http://www.w3.org/1999/02/22-rdf-syntax-ns#">
   <cc:Work>
    <dc:type rdf:resource="http://purl.org/dc/dcmitype/StillImage"/>
    <dc:date>2026-01-16T01:29:13.432942</dc:date>
    <dc:format>image/svg+xml</dc:format>
    <dc:creator>
     <cc:Agent>
      <dc:title>Matplotlib v3.10.0, https://matplotlib.org/</dc:title>
     </cc:Agent>
    </dc:creator>
   </cc:Work>
  </rdf:RDF>
 </metadata>
 <defs>
  <style type="text/css">*{stroke-linejoin: round; stroke-linecap: butt}</style>
 </defs>
 <g id="figure_1">
  <g id="patch_1">
   <path d="M 0 422.786562 
L 712.310938 422.786562 
L 712.310938 0 
L 0 0 
z
" style="fill: #ffffff"/>
  </g>
  <g id="axes_1">
   <g id="patch_2">
    <path d="M 38.690938 389.698125 
L 705.110938 389.698125 
L 705.110938 26.318125 
L 38.690938 26.318125 
z
" style="fill: #ffffff"/>
   </g>
   <g id="matplotlib.axis_1">
    <g id="xtick_1">
     <g id="line2d_1">
      <path d="M 68.706244 389.698125 
L 68.706244 26.318125 
" clip-path="url(#p3db9607694)" style="fill: none; stroke-dasharray: 1.85,0.8; stroke-dashoffset: 0; stroke: #b2b2b2; stroke-opacity: 0.3; stroke-width: 0.5"/>
     </g>
     <g id="line2d_2">
      <defs>
       <path id="m8e195aa205" d="M 0 0 
L 0 -3.5 
" style="stroke: #000000; stroke-width: 0.8"/>
      </defs>
      <g>
       <use xlink:href="#m8e195aa205" x="68.706244" y="389.698125" style="stroke: #000000; stroke-width: 0.8"/>
      </g>
     </g>
     <g id="text_1">
      <!-- 0 -->
      <g transform="translate(65.843119 400.036719) scale(0.09 -0.09)">
       <defs>
        <path id="DejaVuSans-30" d="M 2034 4250 
Q 1547 4250 1301 3770 
Q 1056 3291 1056 2328 
Q 1056 1369 1301 889 
Q 1547 409 2034 409 
Q 2525 409 2770 889 
Q 3016 1369 3016 2328 
Q 3016 3291 2770 3770 
Q 2525 4250 2034 4250 
z
M 2034 4750 
Q 2819 4750 3233 4129 
Q 3647 3509 3647 2328 
Q 3647 1150 3233 529 
Q 2819 -91 2034 -91 
Q 1250 -91 836 529 
Q 422 1150 422 2328 
Q 422 3509 836 4129 
Q 1250 4750 2034 4750 
z
" transform="scale(0.015625)"/>
       </defs>
       <use xlink:href="#DejaVuSans-30"/>
      </g>
     </g>
    </g>
    <g id="xtick_2">
     <g id="line2d_3">
      <path d="M 206.961918 389.698125 
L 206.961918 26.318125 
" clip-path="url(#p3db9607694)" style="fill: none; stroke-dasharray: 1.85,0.8; stroke-dashoffset: 0; stroke: #b2b2b2; stroke-opacity: 0.3; stroke-width: 0.5"/>
     </g>
     <g id="line2d_4">
      <g>
       <use xlink:href="#m8e195aa205" x="206.961918" y="389.698125" style="stroke: #000000; stroke-width: 0.8"/>
      </g>
     </g>
     <g id="text_2">
      <!-- 500 -->
      <g transform="translate(198.372543 400.036719) scale(0.09 -0.09)">
       <defs>
        <path id="DejaVuSans-35" d="M 691 4666 
L 3169 4666 
L 3169 4134 
L 1269 4134 
L 1269 2991 
Q 1406 3038 1543 3061 
Q 1681 3084 1819 3084 
Q 2600 3084 3056 2656 
Q 3513 2228 3513 1497 
Q 3513 744 3044 326 
Q 2575 -91 1722 -91 
Q 1428 -91 1123 -41 
Q 819 9 494 109 
L 494 744 
Q 775 591 1075 516 
Q 1375 441 1709 441 
Q 2250 441 2565 725 
Q 2881 1009 2881 1497 
Q 2881 1984 2565 2268 
Q 2250 2553 1709 2553 
Q 1456 2553 1204 2497 
Q 953 2441 691 2322 
L 691 4666 
z
" transform="scale(0.015625)"/>
       </defs>
       <use xlink:href="#DejaVuSans-35"/>
       <use xlink:href="#DejaVuSans-30" transform="translate(63.623047 0)"/>
       <use xlink:href="#DejaVuSans-30" transform="translate(127.246094 0)"/>
      </g>
     </g>
    </g>
    <g id="xtick_3">
     <g id="line2d_5">
      <path d="M 345.217592 389.698125 
L 345.217592 26.318125 
" clip-path="url(#p3db9607694)" style="fill: none; stroke-dasharray: 1.85,0.8; stroke-dashoffset: 0; stroke: #b2b2b2; stroke-opacity: 0.3; stroke-width: 0.5"/>
     </g>
     <g id="line2d_6">
      <g>
       <use xlink:href="#m8e195aa205" x="345.217592" y="389.698125" style="stroke: #000000; stroke-width: 0.8"/>
      </g>
     </g>
     <g id="text_3">
      <!-- 1000 -->
      <g transform="translate(333.765092 400.036719) scale(0.09 -0.09)">
       <defs>
        <path id="DejaVuSans-31" d="M 794 531 
L 1825 531 
L 1825 4091 
L 703 3866 
L 703 4441 
L 1819 4666 
L 2450 4666 
L 2450 531 
L 3481 531 
L 3481 0 
L 794 0 
L 794 531 
z
" transform="scale(0.015625)"/>
       </defs>
       <use xlink:href="#DejaVuSans-31"/>
       <use xlink:href="#DejaVuSans-30" transform="translate(63.623047 0)"/>
       <use xlink:href="#DejaVuSans-30" transform="translate(127.246094 0)"/>
       <use xlink:href="#DejaVuSans-30" transform="translate(190.869141 0)"/>
      </g>
     </g>
    </g>
    <g id="xtick_4">
     <g id="line2d_7">
      <path d="M 483.473266 389.698125 
L 483.473266 26.318125 
" clip-path="url(#p3db9607694)" style="fill: none; stroke-dasharray: 1.85,0.8; stroke-dashoffset: 0; stroke: #b2b2b2; stroke-opacity: 0.3; stroke-width: 0.5"/>
     </g>
     <g id="line2d_8">
      <g>
       <use xlink:href="#m8e195aa205" x="483.473266" y="389.698125" style="stroke: #000000; stroke-width: 0.8"/>
      </g>
     </g>
     <g id="text_4">
      <!-- 1500 -->
      <g transform="translate(472.020766 400.036719) scale(0.09 -0.09)">
       <use xlink:href="#DejaVuSans-31"/>
       <use xlink:href="#DejaVuSans-35" transform="translate(63.623047 0)"/>
       <use xlink:href="#DejaVuSans-30" transform="translate(127.246094 0)"/>
       <use xlink:href="#DejaVuSans-30" transform="translate(190.869141 0)"/>
      </g>
     </g>
    </g>
    <g id="xtick_5">
     <g id="line2d_9">
      <path d="M 621.72894 389.698125 
L 621.72894 26.318125 
" clip-path="url(#p3db9607694)" style="fill: none; stroke-dasharray: 1.85,0.8; stroke-dashoffset: 0; stroke: #b2b2b2; stroke-opacity: 0.3; stroke-width: 0.5"/>
     </g>
     <g id="line2d_10">
      <g>
       <use xlink:href="#m8e195aa205" x="621.72894" y="389.698125" style="stroke: #000000; stroke-width: 0.8"/>
      </g>
     </g>
     <g id="text_5">
      <!-- 2000 -->
      <g transform="translate(610.27644 400.036719) scale(0.09 -0.09)">
       <defs>
        <path id="DejaVuSans-32" d="M 1228 531 
L 3431 531 
L 3431 0 
L 469 0 
L 469 531 
Q 828 903 1448 1529 
Q 2069 2156 2228 2338 
Q 2531 2678 2651 2914 
Q 2772 3150 2772 3378 
Q 2772 3750 2511 3984 
Q 2250 4219 1831 4219 
Q 1534 4219 1204 4116 
Q 875 4013 500 3803 
L 500 4441 
Q 881 4594 1212 4672 
Q 1544 4750 1819 4750 
Q 2544 4750 2975 4387 
Q 3406 4025 3406 3419 
Q 3406 3131 3298 2873 
Q 3191 2616 2906 2266 
Q 2828 2175 2409 1742 
Q 1991 1309 1228 531 
z
" transform="scale(0.015625)"/>
       </defs>
       <use xlink:href="#DejaVuSans-32"/>
       <use xlink:href="#DejaVuSans-30" transform="translate(63.623047 0)"/>
       <use xlink:href="#DejaVuSans-30" transform="translate(127.246094 0)"/>
       <use xlink:href="#DejaVuSans-30" transform="translate(190.869141 0)"/>
      </g>
     </g>
    </g>
    <g id="text_6">
     <!-- 时间 / 序号 -->
     <g transform="translate(355.035313 413.506875) scale(0.1 -0.1)">
      <defs>
       <path id="DejaVuSans-65f6" d="M 319 -1131 
L 319 4513 
L 3519 4513 
L 3519 -1131 
L 319 -1131 
z
M 678 -775 
L 3163 -775 
L 3163 4153 
L 678 4153 
L 678 -775 
z
" transform="scale(0.015625)"/>
       <path id="DejaVuSans-95f4" d="M 319 -1131 
L 319 4513 
L 3519 4513 
L 3519 -1131 
L 319 -1131 
z
M 678 -775 
L 3163 -775 
L 3163 4153 
L 678 4153 
L 678 -775 
z
" transform="scale(0.015625)"/>
       <path id="DejaVuSans-20" transform="scale(0.015625)"/>
       <path id="DejaVuSans-2f" d="M 1625 4666 
L 2156 4666 
L 531 -594 
L 0 -594 
L 1625 4666 
z
" transform="scale(0.015625)"/>
       <path id="DejaVuSans-5e8f" d="M 319 -1131 
L 319 4513 
L 3519 4513 
L 3519 -1131 
L 319 -1131 
z
M 678 -775 
L 3163 -775 
L 3163 4153 
L 678 4153 
L 678 -775 
z
" transform="scale(0.015625)"/>
       <path id="DejaVuSans-53f7" d="M 319 -1131 
L 319 4513 
L 3519 4513 
L 3519 -1131 
L 319 -1131 
z
M 678 -775 
L 3163 -775 
L 3163 4153 
L 678 4153 
L 678 -775 
z
" transform="scale(0.015625)"/>
      </defs>
      <use xlink:href="#DejaVuSans-65f6"/>
      <use xlink:href="#DejaVuSans-95f4" transform="translate(60.009766 0)"/>
      <use xlink:href="#DejaVuSans-20" transform="translate(120.019531 0)"/>
      <use xlink:href="#DejaVuSans-2f" transform="translate(151.806641 0)"/>
      <use xlink:href="#DejaVuSans-20" transform="translate(185.498047 0)"/>
      <use xlink:href="#DejaVuSans-5e8f" transform="translate(217.285156 0)"/>
      <use xlink:href="#DejaVuSans-53f7" transform="translate(277.294922 0)"/>
     </g>
    </g>
   </g>
   <g id="matplotlib.axis_2">
    <g id="ytick_1">
     <g id="line2d_11">
      <path d="M 38.690938 386.598483 
L 705.110938 386.598483 
" clip-path="url(#p3db9607694)" style="fill: none; stroke-dasharray: 1.85,0.8; stroke-dashoffset: 0; stroke: #b2b2b2; stroke-opacity: 0.3; stroke-width: 0.5"/>
     </g>
     <g id="line2d_12">
      <defs>
       <path id="mda0810a301" d="M 0 0 
L 3.5 0 
" style="stroke: #000000; stroke-width: 0.8"/>
      </defs>
      <g>
       <use xlink:href="#mda0810a301" x="38.690938" y="386.598483" style="stroke: #000000; stroke-width: 0.8"/>
      </g>
     </g>
     <g id="text_7">
      <!-- 5.0 -->
      <g transform="translate(20.878125 390.017779) scale(0.09 -0.09)">
       <defs>
        <path id="DejaVuSans-2e" d="M 684 794 
L 1344 794 
L 1344 0 
L 684 0 
L 684 794 
z
" transform="scale(0.015625)"/>
       </defs>
       <use xlink:href="#DejaVuSans-35"/>
       <use xlink:href="#DejaVuSans-2e" transform="translate(63.623047 0)"/>
       <use xlink:href="#DejaVuSans-30" transform="translate(95.410156 0)"/>
      </g>
     </g>
    </g>
    <g id="ytick_2">
     <g id="line2d_13">
      <path d="M 38.690938 329.984009 
L 705.110938 329.984009 
" clip-path="url(#p3db9607694)" style="fill: none; stroke-dasharray: 1.85,0.8; stroke-dashoffset: 0; stroke: #b2b2b2; stroke-opacity: 0.3; stroke-width: 0.5"/>
     </g>
     <g id="line2d_14">
      <g>
       <use xlink:href="#mda0810a301" x="38.690938" y="329.984009" style="stroke: #000000; stroke-width: 0.8"/>
      </g>
     </g>
     <g id="text_8">
      <!-- 5.5 -->
      <g transform="translate(20.878125 333.403306) scale(0.09 -0.09)">
       <use xlink:href="#DejaVuSans-35"/>
       <use xlink:href="#DejaVuSans-2e" transform="translate(63.623047 0)"/>
       <use xlink:href="#DejaVuSans-35" transform="translate(95.410156 0)"/>
      </g>
     </g>
    </g>
    <g id="ytick_3">
     <g id="line2d_15">
      <path d="M 38.690938 273.369535 
L 705.110938 273.369535 
" clip-path="url(#p3db9607694)" style="fill: none; stroke-dasharray: 1.85,0.8; stroke-dashoffset: 0; stroke: #b2b2b2; stroke-opacity: 0.3; stroke-width: 0.5"/>
     </g>
     <g id="line2d_16">
      <g>
       <use xlink:href="#mda0810a301" x="38.690938" y="273.369535" style="stroke: #000000; stroke-width: 0.8"/>
      </g>
     </g>
     <g id="text_9">
      <!-- 6.0 -->
      <g transform="translate(20.878125 276.788832) scale(0.09 -0.09)">
       <defs>
        <path id="DejaVuSans-36" d="M 2113 2584 
Q 1688 2584 1439 2293 
Q 1191 2003 1191 1497 
Q 1191 994 1439 701 
Q 1688 409 2113 409 
Q 2538 409 2786 701 
Q 3034 994 3034 1497 
Q 3034 2003 2786 2293 
Q 2538 2584 2113 2584 
z
M 3366 4563 
L 3366 3988 
Q 3128 4100 2886 4159 
Q 2644 4219 2406 4219 
Q 1781 4219 1451 3797 
Q 1122 3375 1075 2522 
Q 1259 2794 1537 2939 
Q 1816 3084 2150 3084 
Q 2853 3084 3261 2657 
Q 3669 2231 3669 1497 
Q 3669 778 3244 343 
Q 2819 -91 2113 -91 
Q 1303 -91 875 529 
Q 447 1150 447 2328 
Q 447 3434 972 4092 
Q 1497 4750 2381 4750 
Q 2619 4750 2861 4703 
Q 3103 4656 3366 4563 
z
" transform="scale(0.015625)"/>
       </defs>
       <use xlink:href="#DejaVuSans-36"/>
       <use xlink:href="#DejaVuSans-2e" transform="translate(63.623047 0)"/>
       <use xlink:href="#DejaVuSans-30" transform="translate(95.410156 0)"/>
      </g>
     </g>
    </g>
    <g id="ytick_4">
     <g id="line2d_17">
      <path d="M 38.690938 216.755061 
L 705.110938 216.755061 
" clip-path="url(#p3db9607694)" style="fill: none; stroke-dasharray: 1.85,0.8; stroke-dashoffset: 0; stroke: #b2b2b2; stroke-opacity: 0.3; stroke-width: 0.5"/>
     </g>
     <g id="line2d_18">
      <g>
       <use xlink:href="#mda0810a301" x="38.690938" y="216.755061" style="stroke: #000000; stroke-width: 0.8"/>
      </g>
     </g>
     <g id="text_10">
      <!-- 6.5 -->
      <g transform="translate(20.878125 220.174358) scale(0.09 -0.09)">
       <use xlink:href="#DejaVuSans-36"/>
       <use xlink:href="#DejaVuSans-2e" transform="translate(63.623047 0)"/>
       <use xlink:href="#DejaVuSans-35" transform="translate(95.410156 0)"/>
      </g>
     </g>
    </g>
    <g id="ytick_5">
     <g id="line2d_19">
      <path d="M 38.690938 160.140587 
L 705.110938 160.140587 
" clip-path="url(#p3db9607694)" style="fill: none; stroke-dasharray: 1.85,0.8; stroke-dashoffset: 0; stroke: #b2b2b2; stroke-opacity: 0.3; stroke-width: 0.5"/>
     </g>
     <g id="line2d_20">
      <g>
       <use xlink:href="#mda0810a301" x="38.690938" y="160.140587" style="stroke: #000000; stroke-width: 0.8"/>
      </g>
     </g>
     <g id="text_11">
      <!-- 7.0 -->
      <g transform="translate(20.878125 163.559884) scale(0.09 -0.09)">
       <defs>
        <path id="DejaVuSans-37" d="M 525 4666 
L 3525 4666 
L 3525 4397 
L 1831 0 
L 1172 0 
L 2766 4134 
L 525 4134 
L 525 4666 
z
" transform="scale(0.015625)"/>
       </defs>
       <use xlink:href="#DejaVuSans-37"/>
       <use xlink:href="#DejaVuSans-2e" transform="translate(63.623047 0)"/>
       <use xlink:href="#DejaVuSans-30" transform="translate(95.410156 0)"/>
      </g>
     </g>
    </g>
    <g id="ytick_6">
     <g id="line2d_21">
      <path d="M 38.690938 103.526114 
L 705.110938 103.526114 
" clip-path="url(#p3db9607694)" style="fill: none; stroke-dasharray: 1.85,0.8; stroke-dashoffset: 0; stroke: #b2b2b2; stroke-opacity: 0.3; stroke-width: 0.5"/>
     </g>
     <g id="line2d_22">
      <g>
       <use xlink:href="#mda0810a301" x="38.690938" y="103.526114" style="stroke: #000000; stroke-width: 0.8"/>
      </g>
     </g>
     <g id="text_12">
      <!-- 7.5 -->
      <g transform="translate(20.878125 106.945411) scale(0.09 -0.09)">
       <use xlink:href="#DejaVuSans-37"/>
       <use xlink:href="#DejaVuSans-2e" transform="translate(63.623047 0)"/>
       <use xlink:href="#DejaVuSans-35" transform="translate(95.410156 0)"/>
      </g>
     </g>
    </g>
    <g id="ytick_7">
     <g id="line2d_23">
      <path d="M 38.690938 46.91164 
L 705.110938 46.91164 
" clip-path="url(#p3db9607694)" style="fill: none; stroke-dasharray: 1.85,0.8; stroke-dashoffset: 0; stroke: #b2b2b2; stroke-opacity: 0.3; stroke-width: 0.5"/>
     </g>
     <g id="line2d_24">
      <g>
       <use xlink:href="#mda0810a301" x="38.690938" y="46.91164" style="stroke: #000000; stroke-width: 0.8"/>
      </g>
     </g>
     <g id="text_13">
      <!-- 8.0 -->
      <g transform="translate(20.878125 50.330937) scale(0.09 -0.09)">
       <defs>
        <path id="DejaVuSans-38" d="M 2034 2216 
Q 1584 2216 1326 1975 
Q 1069 1734 1069 1313 
Q 1069 891 1326 650 
Q 1584 409 2034 409 
Q 2484 409 2743 651 
Q 3003 894 3003 1313 
Q 3003 1734 2745 1975 
Q 2488 2216 2034 2216 
z
M 1403 2484 
Q 997 2584 770 2862 
Q 544 3141 544 3541 
Q 544 4100 942 4425 
Q 1341 4750 2034 4750 
Q 2731 4750 3128 4425 
Q 3525 4100 3525 3541 
Q 3525 3141 3298 2862 
Q 3072 2584 2669 2484 
Q 3125 2378 3379 2068 
Q 3634 1759 3634 1313 
Q 3634 634 3220 271 
Q 2806 -91 2034 -91 
Q 1263 -91 848 271 
Q 434 634 434 1313 
Q 434 1759 690 2068 
Q 947 2378 1403 2484 
z
M 1172 3481 
Q 1172 3119 1398 2916 
Q 1625 2713 2034 2713 
Q 2441 2713 2670 2916 
Q 2900 3119 2900 3481 
Q 2900 3844 2670 4047 
Q 2441 4250 2034 4250 
Q 1625 4250 1398 4047 
Q 1172 3844 1172 3481 
z
" transform="scale(0.015625)"/>
       </defs>
       <use xlink:href="#DejaVuSans-38"/>
       <use xlink:href="#DejaVuSans-2e" transform="translate(63.623047 0)"/>
       <use xlink:href="#DejaVuSans-30" transform="translate(95.410156 0)"/>
      </g>
     </g>
    </g>
    <g id="text_14">
     <!-- pH 值 -->
     <g transform="translate(14.798438 219.532344) rotate(-90) scale(0.1 -0.1)">
      <defs>
       <path id="DejaVuSans-70" d="M 1159 525 
L 1159 -1331 
L 581 -1331 
L 581 3500 
L 1159 3500 
L 1159 2969 
Q 1341 3281 1617 3432 
Q 1894 3584 2278 3584 
Q 2916 3584 3314 3078 
Q 3713 2572 3713 1747 
Q 3713 922 3314 415 
Q 2916 -91 2278 -91 
Q 1894 -91 1617 61 
Q 1341 213 1159 525 
z
M 3116 1747 
Q 3116 2381 2855 2742 
Q 2594 3103 2138 3103 
Q 1681 3103 1420 2742 
Q 1159 2381 1159 1747 
Q 1159 1113 1420 752 
Q 1681 391 2138 391 
Q 2594 391 2855 752 
Q 3116 1113 3116 1747 
z
" transform="scale(0.015625)"/>
       <path id="DejaVuSans-48" d="M 628 4666 
L 1259 4666 
L 1259 2753 
L 3553 2753 
L 3553 4666 
L 4184 4666 
L 4184 0 
L 3553 0 
L 3553 2222 
L 1259 2222 
L 1259 0 
L 628 0 
L 628 4666 
z
" transform="scale(0.015625)"/>
       <path id="DejaVuSans-503c" d="M 319 -1131 
L 319 4513 
L 3519 4513 
L 3519 -1131 
L 319 -1131 
z
M 678 -775 
L 3163 -775 
L 3163 4153 
L 678 4153 
L 678 -775 
z
" transform="scale(0.015625)"/>
      </defs>
      <use xlink:href="#DejaVuSans-70"/>
      <use xlink:href="#DejaVuSans-48" transform="translate(63.476562 0)"/>
      <use xlink:href="#DejaVuSans-20" transform="translate(138.671875 0)"/>
      <use xlink:href="#DejaVuSans-503c" transform="translate(170.458984 0)"/>
     </g>
    </g>
   </g>
   <g id="line2d_25">
    <path d="M 68.982756 208.829035 
L 69.259267 213.358193 
L 69.535778 212.225903 
L 69.81229 226.945666 
L 70.088801 229.210245 
L 70.365312 238.268561 
L 70.641824 224.681088 
L 70.918335 230.342535 
L 71.194846 208.829035 
L 71.471358 236.003982 
L 71.747869 221.284219 
L 72.024381 221.284219 
L 72.300892 223.548798 
L 72.577403 219.01964 
L 72.853915 225.813377 
L 73.130426 214.490482 
L 73.406937 215.622772 
L 73.683449 223.548798 
L 73.95996 237.136272 
L 74.236471 231.474824 
L 74.512983 192.976982 
L 74.789494 217.887351 
L 75.342517 228.077956 
L 75.619028 196.373851 
L 75.895539 212.225903 
L 76.172051 211.093614 
L 76.448562 198.63843 
L 76.725073 194.109272 
L 77.001585 231.474824 
L 77.278096 220.15193 
L 77.554607 229.210245 
L 77.831119 212.225903 
L 78.10763 222.416509 
L 78.384142 224.681088 
L 78.660653 229.210245 
L 78.937164 242.797719 
L 79.213676 245.062298 
L 79.490187 243.930009 
L 79.766698 233.739403 
L 80.04321 234.871693 
L 80.319721 215.622772 
L 80.596232 240.53314 
L 80.872744 243.930009 
L 81.149255 259.782061 
L 81.425766 255.252903 
L 81.702278 237.136272 
L 81.978789 228.077956 
L 82.2553 228.077956 
L 82.531812 243.930009 
L 82.808323 219.01964 
L 83.361346 240.53314 
L 83.637857 230.342535 
L 83.914368 239.400851 
L 84.467391 175.99264 
L 85.020414 197.50614 
L 85.296925 178.257219 
L 85.573437 173.728061 
L 86.126459 200.903009 
L 86.402971 191.844693 
L 86.679482 175.99264 
L 87.232505 187.315535 
L 87.509016 183.918666 
L 87.785527 192.976982 
L 88.062039 212.225903 
L 88.33855 214.490482 
L 88.615061 204.299877 
L 88.891573 204.299877 
L 89.168084 211.093614 
L 89.444595 205.432166 
L 89.721107 196.373851 
L 90.274129 198.63843 
L 90.550641 200.903009 
L 90.827152 205.432166 
L 91.103664 204.299877 
L 91.656686 224.681088 
L 91.933198 197.50614 
L 92.209709 192.976982 
L 92.48622 198.63843 
L 92.762732 198.63843 
L 93.039243 215.622772 
L 93.315754 220.15193 
L 93.592266 203.167587 
L 93.868777 195.241561 
L 94.4218 197.50614 
L 94.974822 207.696745 
L 95.251334 205.432166 
L 95.527845 194.109272 
L 95.804356 198.63843 
L 96.080868 200.903009 
L 96.357379 195.241561 
L 96.63389 198.63843 
L 96.910402 195.241561 
L 97.186913 194.109272 
L 97.463425 195.241561 
L 97.739936 195.241561 
L 98.016447 209.961324 
L 98.292959 194.109272 
L 98.56947 197.50614 
L 98.845981 197.50614 
L 99.122493 207.696745 
L 99.399004 199.770719 
L 99.952027 209.961324 
L 100.228538 204.299877 
L 100.505049 204.299877 
L 100.781561 203.167587 
L 101.058072 205.432166 
L 101.334583 214.490482 
L 101.611095 246.194588 
L 102.164117 213.358193 
L 102.440629 206.564456 
L 102.993651 214.490482 
L 103.270163 200.903009 
L 103.546674 196.373851 
L 103.823186 206.564456 
L 104.099697 205.432166 
L 104.376208 213.358193 
L 104.65272 206.564456 
L 104.929231 212.225903 
L 105.205742 208.829035 
L 105.482254 207.696745 
L 105.758765 204.299877 
L 106.035276 209.961324 
L 106.311788 207.696745 
L 106.588299 213.358193 
L 106.86481 206.564456 
L 107.141322 209.961324 
L 107.417833 205.432166 
L 107.694344 205.432166 
L 107.970856 217.887351 
L 108.247367 206.564456 
L 108.523878 208.829035 
L 109.076901 215.622772 
L 109.353413 221.284219 
L 109.629924 213.358193 
L 109.906435 216.755061 
L 110.182947 216.755061 
L 110.459458 223.548798 
L 111.012481 213.358193 
L 111.288992 224.681088 
L 111.565503 217.887351 
L 111.842015 219.01964 
L 112.118526 221.284219 
L 112.395037 221.284219 
L 112.671549 224.681088 
L 112.94806 221.284219 
L 113.224571 222.416509 
L 113.501083 217.887351 
L 114.054105 222.416509 
L 114.330617 219.01964 
L 114.607128 219.01964 
L 114.883639 221.284219 
L 115.160151 217.887351 
L 115.436662 223.548798 
L 115.713174 222.416509 
L 115.989685 224.681088 
L 116.266196 224.681088 
L 116.542708 226.945666 
L 117.372242 226.945666 
L 117.648753 229.210245 
L 117.925264 229.210245 
L 118.201776 219.01964 
L 118.478287 225.813377 
L 118.754798 225.813377 
L 119.03131 215.622772 
L 119.307821 211.093614 
L 119.584332 219.01964 
L 119.860844 217.887351 
L 120.137355 222.416509 
L 120.413866 217.887351 
L 120.690378 217.887351 
L 120.966889 222.416509 
L 121.2434 249.591456 
L 121.519912 258.649772 
L 121.796423 246.194588 
L 122.072935 246.194588 
L 122.625957 209.961324 
L 122.902469 216.755061 
L 123.17898 219.01964 
L 123.455491 217.887351 
L 124.008514 217.887351 
L 124.285025 214.490482 
L 124.561537 220.15193 
L 124.838048 219.01964 
L 125.114559 220.15193 
L 125.391071 219.01964 
L 125.667582 222.416509 
L 126.220605 214.490482 
L 126.497116 213.358193 
L 126.773627 221.284219 
L 127.050139 216.755061 
L 127.32665 219.01964 
L 127.879673 212.225903 
L 128.432696 222.416509 
L 128.709207 232.607114 
L 128.985718 222.416509 
L 129.26223 222.416509 
L 129.538741 221.284219 
L 129.815252 236.003982 
L 130.091764 226.945666 
L 130.368275 226.945666 
L 130.644786 228.077956 
L 130.921298 232.607114 
L 131.197809 246.194588 
L 131.47432 242.797719 
L 131.750832 224.681088 
L 132.027343 236.003982 
L 132.303854 239.400851 
L 132.580366 239.400851 
L 132.856877 232.607114 
L 133.133388 234.871693 
L 133.4099 232.607114 
L 133.686411 233.739403 
L 133.962922 229.210245 
L 134.239434 234.871693 
L 134.515945 237.136272 
L 134.792457 228.077956 
L 135.068968 229.210245 
L 135.345479 234.871693 
L 135.621991 233.739403 
L 135.898502 240.53314 
L 136.175013 236.003982 
L 136.451525 238.268561 
L 136.728036 226.945666 
L 137.004547 222.416509 
L 137.281059 226.945666 
L 137.55757 237.136272 
L 137.834081 241.66543 
L 138.110593 239.400851 
L 138.387104 238.268561 
L 138.663615 232.607114 
L 138.940127 240.53314 
L 139.216638 238.268561 
L 139.769661 223.548798 
L 140.046172 225.813377 
L 140.322683 231.474824 
L 140.599195 231.474824 
L 140.875706 217.887351 
L 141.152218 238.268561 
L 141.428729 222.416509 
L 141.70524 224.681088 
L 141.981752 231.474824 
L 142.258263 222.416509 
L 142.534774 233.739403 
L 142.811286 224.681088 
L 143.087797 229.210245 
L 143.364308 238.268561 
L 143.64082 234.871693 
L 143.917331 225.813377 
L 144.193842 223.548798 
L 144.470354 229.210245 
L 144.746865 229.210245 
L 145.023376 231.474824 
L 145.299888 237.136272 
L 145.85291 228.077956 
L 146.129422 228.077956 
L 146.405933 226.945666 
L 146.682444 230.342535 
L 146.958956 258.649772 
L 147.235467 224.681088 
L 147.511979 206.564456 
L 147.78849 215.622772 
L 148.065001 215.622772 
L 148.341513 230.342535 
L 148.618024 231.474824 
L 148.894535 224.681088 
L 149.171047 240.53314 
L 149.447558 249.591456 
L 149.724069 222.416509 
L 150.000581 216.755061 
L 150.277092 221.284219 
L 150.553603 236.003982 
L 150.830115 238.268561 
L 151.106626 252.988324 
L 151.383137 225.813377 
L 151.659649 225.813377 
L 151.93616 222.416509 
L 152.212671 214.490482 
L 152.489183 219.01964 
L 152.765694 238.268561 
L 153.042205 233.739403 
L 153.595228 229.210245 
L 153.87174 222.416509 
L 154.148251 230.342535 
L 154.424762 258.649772 
L 154.701274 208.829035 
L 154.977785 213.358193 
L 155.254296 240.53314 
L 155.530808 229.210245 
L 155.807319 226.945666 
L 156.08383 236.003982 
L 156.360342 216.755061 
L 156.636853 213.358193 
L 156.913364 213.358193 
L 157.189876 211.093614 
L 157.466387 211.093614 
L 157.742898 215.622772 
L 158.01941 216.755061 
L 158.295921 212.225903 
L 158.572432 213.358193 
L 158.848944 213.358193 
L 159.125455 214.490482 
L 159.401967 213.358193 
L 159.678478 213.358193 
L 160.231501 220.15193 
L 160.508012 220.15193 
L 160.784523 224.681088 
L 161.337546 209.961324 
L 161.614057 213.358193 
L 161.890569 213.358193 
L 162.16708 211.093614 
L 162.443591 212.225903 
L 162.720103 212.225903 
L 162.996614 213.358193 
L 163.273125 208.829035 
L 163.549637 213.358193 
L 163.826148 209.961324 
L 164.102659 215.622772 
L 164.379171 233.739403 
L 164.655682 229.210245 
L 165.485216 204.299877 
L 165.761728 203.167587 
L 166.038239 216.755061 
L 166.31475 219.01964 
L 166.591262 222.416509 
L 166.867773 220.15193 
L 167.144284 220.15193 
L 167.420796 216.755061 
L 167.697307 216.755061 
L 168.25033 225.813377 
L 168.526841 219.01964 
L 168.803352 224.681088 
L 169.079864 226.945666 
L 169.632886 195.241561 
L 170.185909 220.15193 
L 170.46242 226.945666 
L 170.738932 217.887351 
L 171.015443 202.035298 
L 171.291954 203.167587 
L 171.568466 217.887351 
L 171.844977 222.416509 
L 172.121489 212.225903 
L 172.398 214.490482 
L 172.951023 226.945666 
L 173.227534 212.225903 
L 173.504045 206.564456 
L 173.780557 206.564456 
L 174.057068 207.696745 
L 174.333579 216.755061 
L 174.610091 207.696745 
L 174.886602 209.961324 
L 175.163113 217.887351 
L 175.439625 217.887351 
L 175.716136 220.15193 
L 176.269159 230.342535 
L 176.54567 219.01964 
L 177.098693 214.490482 
L 177.375204 208.829035 
L 177.651715 217.887351 
L 177.928227 222.416509 
L 178.204738 222.416509 
L 178.48125 209.961324 
L 178.757761 185.050956 
L 179.310784 202.035298 
L 179.587295 200.903009 
L 179.863806 205.432166 
L 180.140318 207.696745 
L 180.416829 214.490482 
L 180.69334 213.358193 
L 180.969852 214.490482 
L 181.522874 222.416509 
L 181.799386 220.15193 
L 182.075897 222.416509 
L 182.62892 234.871693 
L 182.905431 236.003982 
L 183.181942 239.400851 
L 183.458454 239.400851 
L 183.734965 236.003982 
L 184.287988 238.268561 
L 184.564499 232.607114 
L 184.841011 192.976982 
L 185.117522 189.580114 
L 185.394033 199.770719 
L 185.670545 200.903009 
L 186.223567 214.490482 
L 186.500079 208.829035 
L 186.77659 206.564456 
L 187.053101 207.696745 
L 187.329613 203.167587 
L 187.606124 202.035298 
L 187.882635 202.035298 
L 188.159147 178.257219 
L 188.435658 192.976982 
L 188.712169 196.373851 
L 188.988681 202.035298 
L 189.265192 199.770719 
L 189.541703 200.903009 
L 189.818215 205.432166 
L 190.094726 207.696745 
L 190.371237 211.093614 
L 190.92426 225.813377 
L 191.200772 204.299877 
L 191.477283 208.829035 
L 191.753794 207.696745 
L 192.306817 207.696745 
L 192.583328 205.432166 
L 192.85984 204.299877 
L 193.136351 207.696745 
L 193.412862 208.829035 
L 193.965885 213.358193 
L 194.242396 214.490482 
L 194.518908 213.358193 
L 194.795419 221.284219 
L 195.07193 224.681088 
L 195.348442 219.01964 
L 195.624953 216.755061 
L 195.901464 230.342535 
L 196.177976 238.268561 
L 196.454487 239.400851 
L 196.730998 236.003982 
L 197.00751 236.003982 
L 197.284021 222.416509 
L 197.560533 217.887351 
L 197.837044 219.01964 
L 198.113555 225.813377 
L 198.390067 228.077956 
L 198.666578 221.284219 
L 198.943089 219.01964 
L 199.219601 221.284219 
L 199.496112 228.077956 
L 199.772623 220.15193 
L 200.049135 222.416509 
L 200.325646 233.739403 
L 200.602157 231.474824 
L 200.878669 220.15193 
L 201.15518 215.622772 
L 201.431691 222.416509 
L 201.708203 225.813377 
L 202.537737 216.755061 
L 202.814248 221.284219 
L 203.090759 219.01964 
L 203.367271 222.416509 
L 203.643782 223.548798 
L 204.196805 228.077956 
L 204.473316 234.871693 
L 204.749828 233.739403 
L 205.026339 236.003982 
L 205.30285 233.739403 
L 205.579362 233.739403 
L 205.855873 231.474824 
L 206.132384 232.607114 
L 206.408896 232.607114 
L 206.685407 220.15193 
L 206.961918 214.490482 
L 207.23843 216.755061 
L 207.791452 225.813377 
L 208.067964 223.548798 
L 208.344475 225.813377 
L 208.620986 224.681088 
L 208.897498 226.945666 
L 209.174009 225.813377 
L 209.727032 239.400851 
L 210.003543 240.53314 
L 210.280055 238.268561 
L 210.556566 238.268561 
L 210.833077 213.358193 
L 211.3861 240.53314 
L 211.662611 239.400851 
L 211.939123 236.003982 
L 212.215634 238.268561 
L 212.492145 234.871693 
L 213.045168 245.062298 
L 213.321679 248.459167 
L 213.598191 242.797719 
L 214.151213 255.252903 
L 214.427725 242.797719 
L 214.704236 245.062298 
L 214.980747 249.591456 
L 215.257259 242.797719 
L 215.53377 260.914351 
L 215.810282 245.062298 
L 216.363304 247.326877 
L 216.639816 245.062298 
L 216.916327 247.326877 
L 217.192838 241.66543 
L 217.745861 251.856035 
L 218.022372 248.459167 
L 218.575395 237.136272 
L 218.851906 241.66543 
L 219.128418 239.400851 
L 219.404929 238.268561 
L 219.68144 238.268561 
L 220.234463 243.930009 
L 220.510974 243.930009 
L 220.787486 239.400851 
L 221.063997 245.062298 
L 221.340508 243.930009 
L 221.61702 245.062298 
L 221.893531 248.459167 
L 222.170043 249.591456 
L 222.446554 246.194588 
L 222.723065 246.194588 
L 222.999577 248.459167 
L 223.276088 247.326877 
L 223.552599 248.459167 
L 223.829111 250.723745 
L 224.105622 242.797719 
L 224.382133 250.723745 
L 224.658645 250.723745 
L 224.935156 248.459167 
L 225.211667 249.591456 
L 225.488179 251.856035 
L 225.76469 260.914351 
L 226.041201 250.723745 
L 226.317713 255.252903 
L 226.594224 248.459167 
L 226.870735 250.723745 
L 227.147247 250.723745 
L 227.423758 242.797719 
L 227.700269 258.649772 
L 227.976781 254.120614 
L 228.253292 255.252903 
L 228.529804 254.120614 
L 228.806315 256.385193 
L 229.082826 249.591456 
L 229.359338 255.252903 
L 229.635849 252.988324 
L 229.91236 252.988324 
L 230.188872 258.423314 
L 230.465383 260.461435 
L 230.741894 245.175527 
L 231.018406 248.685624 
L 231.294917 259.782061 
L 231.571428 258.196856 
L 231.84794 254.347072 
L 232.400962 150.969043 
L 232.677474 147.119258 
L 232.953985 152.667477 
L 233.230496 149.157379 
L 233.507008 163.424227 
L 233.783519 162.178708 
L 234.06003 152.214561 
L 234.336542 149.497066 
L 234.613053 148.364777 
L 234.889565 148.930922 
L 235.166076 143.835619 
L 235.442587 147.006029 
L 235.719099 129.115856 
L 235.99561 130.021687 
L 236.272121 135.230219 
L 236.548633 133.531785 
L 236.825144 137.721256 
L 237.101655 132.059808 
L 237.378167 132.399495 
L 237.654678 133.645014 
L 238.207701 140.099064 
L 238.484212 137.834485 
L 238.760723 127.870337 
L 239.037235 127.757108 
L 239.313746 130.248145 
L 239.590257 134.550845 
L 239.866769 133.758243 
L 240.419791 129.795229 
L 240.696303 130.021687 
L 240.972814 137.381569 
L 241.249326 148.704464 
L 241.525837 139.193232 
L 241.802348 144.741451 
L 242.07886 183.126064 
L 242.355371 129.908458 
L 242.631882 130.927519 
L 242.908394 144.175306 
L 243.184905 167.38724 
L 243.461416 178.257219 
L 243.737928 175.99264 
L 244.29095 157.196635 
L 244.567462 150.855814 
L 245.120484 150.516127 
L 245.396996 144.854679 
L 245.950018 167.047553 
L 246.22653 129.115856 
L 246.779552 138.853545 
L 247.056064 142.816558 
L 247.332575 138.966774 
L 247.609087 129.002627 
L 247.885598 126.624819 
L 248.438621 129.455543 
L 248.715132 130.248145 
L 248.991643 137.26834 
L 249.268155 139.646148 
L 249.544666 136.022822 
L 249.821177 128.549711 
L 250.097689 134.777303 
L 250.3742 130.701061 
L 250.927223 131.040748 
L 251.203734 131.833351 
L 251.480245 124.586698 
L 251.756757 124.473469 
L 252.033268 124.813156 
L 252.309779 129.682001 
L 252.586291 139.41969 
L 252.862802 126.398361 
L 253.139314 124.926385 
L 253.415825 124.473469 
L 253.692336 123.227951 
L 253.968848 129.455543 
L 254.245359 125.832216 
L 254.52187 125.492529 
L 254.798382 131.606893 
L 255.074893 152.32779 
L 255.351404 150.402898 
L 255.627916 151.874874 
L 256.45745 140.099064 
L 256.733961 137.26834 
L 257.010472 123.680866 
L 257.286984 129.568772 
L 257.563495 129.455543 
L 257.840006 128.889398 
L 258.116518 130.701061 
L 258.393029 127.417422 
L 258.66954 130.927519 
L 259.222563 122.548577 
L 259.499075 129.682001 
L 260.052097 123.341179 
L 260.328609 130.587832 
L 260.60512 119.038479 
L 260.881631 121.869203 
L 261.158143 122.322119 
L 261.434654 126.171903 
L 261.711165 127.757108 
L 261.987677 124.36024 
L 262.264188 142.703329 
L 262.540699 119.831082 
L 262.817211 128.210024 
L 263.370233 118.359106 
L 263.646745 138.513858 
L 264.199767 115.981298 
L 264.476279 120.623685 
L 264.75279 122.322119 
L 265.029301 118.245877 
L 265.305813 120.283998 
L 265.582324 135.569906 
L 265.858836 132.739182 
L 266.135347 109.753706 
L 266.411858 110.772766 
L 266.964881 117.113587 
L 267.517904 121.076601 
L 267.794415 120.510456 
L 268.070926 115.641611 
L 268.347438 120.850143 
L 268.623949 121.529516 
L 268.90046 121.755974 
L 269.176972 126.285132 
L 269.453483 113.037345 
L 269.729994 123.227951 
L 270.006506 112.244743 
L 270.283017 110.885995 
L 270.559528 117.340045 
L 270.83604 115.868069 
L 271.112551 118.812022 
L 271.389062 116.094527 
L 271.942085 118.698793 
L 272.218597 128.549711 
L 272.495108 150.17644 
L 272.771619 154.47914 
L 273.048131 153.346851 
L 273.324642 143.269474 
L 273.601153 140.665208 
L 273.877665 121.642745 
L 274.154176 110.659537 
L 274.707199 121.869203 
L 275.260221 123.680866 
L 275.536733 127.530651 
L 276.089755 160.480274 
L 276.366267 157.083406 
L 276.919289 122.095661 
L 277.195801 120.963372 
L 277.472312 132.059808 
L 277.748823 125.832216 
L 278.025335 115.415153 
L 278.301846 88.353435 
L 278.578358 86.994687 
L 279.13138 106.243608 
L 279.407892 96.619148 
L 279.684403 107.828814 
L 279.960914 113.377032 
L 280.237426 109.980164 
L 280.513937 125.379301 
L 280.790448 131.946579 
L 281.06696 129.342314 
L 281.343471 128.549711 
L 281.619982 136.022822 
L 282.173005 129.908458 
L 282.449516 134.097929 
L 282.726028 126.738048 
L 283.002539 124.813156 
L 283.555562 135.343448 
L 284.108584 113.263803 
L 284.385096 139.646148 
L 284.661607 145.986969 
L 284.938119 133.984701 
L 285.21463 142.023956 
L 285.767653 108.621416 
L 286.044164 114.509322 
L 286.597187 117.000358 
L 286.873698 124.133782 
L 287.150209 112.697658 
L 287.426721 112.244743 
L 287.703232 120.170769 
L 288.256255 113.60349 
L 288.532766 120.05754 
L 288.809277 117.226816 
L 289.085789 111.112453 
L 289.3623 116.434214 
L 289.638811 107.036211 
L 289.915323 112.018285 
L 290.191834 108.847874 
L 290.744857 131.267206 
L 291.29788 118.245877 
L 291.574391 116.547443 
L 291.850902 123.341179 
L 292.127414 125.039614 
L 292.403925 130.474603 
L 292.680436 121.982432 
L 292.956948 129.002627 
L 293.233459 125.039614 
L 293.50997 124.473469 
L 293.786482 128.210024 
L 294.062993 127.530651 
L 294.616016 153.573308 
L 294.892527 129.795229 
L 295.169038 132.173037 
L 295.44555 127.417422 
L 295.722061 126.171903 
L 295.998572 128.096795 
L 296.275084 122.775035 
L 296.551595 147.572174 
L 296.828106 120.283998 
L 297.104618 126.058674 
L 297.657641 129.229085 
L 297.934152 125.945445 
L 298.210663 125.492529 
L 298.763686 132.512724 
L 299.040197 127.870337 
L 299.316709 138.627087 
L 299.59322 126.171903 
L 299.869731 124.586698 
L 300.146243 126.058674 
L 300.422754 125.832216 
L 300.699265 128.889398 
L 300.975777 133.984701 
L 301.252288 132.059808 
L 301.528799 139.532919 
L 302.081822 145.307595 
L 302.358333 136.815424 
L 302.634845 139.646148 
L 302.911356 151.082272 
L 303.187868 135.343448 
L 303.74089 154.705598 
L 304.017402 140.438751 
L 304.293913 145.760511 
L 304.846936 139.306461 
L 305.123447 148.591235 
L 305.399958 151.421958 
L 305.952981 135.683135 
L 306.229492 141.344582 
L 306.506004 138.740316 
L 306.782515 138.513858 
L 307.059026 135.796364 
L 307.335538 134.890532 
L 307.612049 135.456677 
L 307.88856 134.550845 
L 308.441583 145.194366 
L 308.718094 141.797498 
L 308.994606 136.702195 
L 309.271117 142.590101 
L 309.547629 138.287401 
L 310.100651 157.423093 
L 310.377163 156.743719 
L 310.653674 151.535187 
L 310.930185 142.816558 
L 311.206697 147.685403 
L 311.483208 146.326656 
L 311.759719 147.685403 
L 312.036231 146.666343 
L 312.312742 150.17644 
L 312.589253 176.785243 
L 312.865765 175.426495 
L 313.142276 173.161916 
L 313.418787 182.220232 
L 313.695299 182.220232 
L 313.97181 163.537456 
L 314.248321 159.574443 
L 314.524833 159.347985 
L 314.801344 161.499335 
L 315.077855 167.047553 
L 315.354367 156.63049 
L 315.90739 167.726927 
L 316.183901 158.668611 
L 316.460412 157.649551 
L 316.736924 164.21683 
L 317.013435 162.518395 
L 317.289946 158.328924 
L 317.566458 159.574443 
L 317.842969 158.668611 
L 318.11948 158.555382 
L 318.395992 159.91413 
L 318.672503 179.502737 
L 318.949014 160.480274 
L 319.225526 182.333461 
L 319.502037 180.635027 
L 319.778548 164.103601 
L 320.05506 180.29534 
L 320.331571 183.239293 
L 320.608082 169.425361 
L 320.884594 184.824498 
L 321.161105 180.29534 
L 321.437616 163.197769 
L 321.714128 175.99264 
L 321.990639 171.237024 
L 322.267151 164.556516 
L 322.543662 165.462348 
L 322.820173 169.765048 
L 323.096685 165.688806 
L 323.373196 168.632758 
L 323.926219 159.008298 
L 324.20273 204.073419 
L 324.479241 202.374985 
L 324.755753 209.281951 
L 325.032264 192.863753 
L 325.308775 187.994909 
L 325.585287 206.564456 
L 325.861798 192.071151 
L 326.138309 191.391777 
L 326.414821 191.505006 
L 326.691332 188.90074 
L 326.967843 205.885082 
L 327.244355 189.127198 
L 327.520866 181.42763 
L 327.797377 187.88168 
L 328.073889 185.73033 
L 328.3504 189.693343 
L 328.626912 199.204574 
L 328.903423 183.239293 
L 329.179934 177.464616 
L 329.456446 189.240427 
L 329.732957 182.786377 
L 330.009468 182.107003 
L 330.28598 179.27628 
L 330.562491 189.580114 
L 330.839002 176.105869 
L 331.115514 176.105869 
L 331.392025 192.863753 
L 331.668536 189.693343 
L 331.945048 183.239293 
L 332.49807 176.332327 
L 332.774582 178.710135 
L 333.051093 197.959056 
L 333.327604 186.636161 
L 333.604116 184.711269 
L 333.880627 187.315535 
L 334.157138 187.315535 
L 334.43365 186.862619 
L 334.710161 197.50614 
L 334.986673 186.183245 
L 335.263184 185.617101 
L 335.539695 188.447824 
L 335.816207 180.974714 
L 336.092718 181.42763 
L 336.369229 184.258353 
L 336.645741 177.238158 
L 336.922252 176.332327 
L 337.475275 167.613698 
L 337.751786 169.085674 
L 338.028297 173.048687 
L 338.304809 182.107003 
L 338.58132 182.44669 
L 338.857831 188.108137 
L 339.134343 188.108137 
L 339.410854 279.370669 
L 339.687365 182.220232 
L 339.963877 186.74939 
L 340.240388 175.313266 
L 340.793411 191.05209 
L 341.069922 179.389509 
L 341.346434 183.239293 
L 341.622945 188.90074 
L 341.899456 210.41424 
L 342.175968 204.186648 
L 342.452479 191.618235 
L 342.72899 199.431032 
L 343.005502 201.242695 
L 343.835036 190.259487 
L 344.388058 196.260622 
L 344.66457 190.712403 
L 344.941081 180.521798 
L 345.217592 186.296474 
L 345.494104 175.652953 
L 345.770615 175.313266 
L 346.047126 187.88168 
L 346.600149 198.63843 
L 346.87666 195.920935 
L 347.153172 195.694477 
L 347.429683 181.42763 
L 347.706195 179.615966 
L 347.982706 184.59804 
L 348.259217 191.844693 
L 348.535729 179.502737 
L 348.81224 181.087943 
L 349.088751 183.692209 
L 349.365263 180.408569 
L 349.641774 307.677906 
L 349.918285 230.568993 
L 350.194797 239.174393 
L 350.471308 242.231574 
L 351.024331 229.097016 
L 351.577353 217.887351 
L 351.853865 207.357059 
L 352.130376 203.054359 
L 352.406887 213.924338 
L 352.683399 191.05209 
L 352.95991 205.545395 
L 353.236422 202.601443 
L 353.512933 201.695611 
L 353.789444 201.242695 
L 354.065956 196.826766 
L 354.342467 196.147393 
L 354.618978 194.675416 
L 354.89549 188.221366 
L 355.172001 190.372716 
L 355.448512 190.599174 
L 356.001535 179.842424 
L 356.278046 167.500469 
L 356.554558 171.576711 
L 356.831069 165.122661 
L 357.10758 174.520664 
L 357.384092 178.596906 
L 357.660603 164.669745 
L 358.213626 180.521798 
L 358.490137 192.18438 
L 358.766648 188.221366 
L 359.04316 192.297609 
L 359.319671 192.410837 
L 359.596183 169.765048 
L 359.872694 165.23589 
L 360.149205 169.425361 
L 360.425717 165.349119 
L 360.702228 167.38724 
L 360.978739 165.23589 
L 361.255251 165.688806 
L 361.531762 169.53859 
L 361.808273 163.763914 
L 362.637807 174.180977 
L 362.914319 149.610295 
L 363.19083 166.028493 
L 363.467341 158.102466 
L 363.743853 157.309864 
L 364.020364 164.21683 
L 364.573387 169.991506 
L 364.849898 156.856948 
L 365.126409 161.839022 
L 365.402921 162.405166 
L 365.679432 169.878277 
L 365.955944 156.290803 
L 366.232455 167.38724 
L 366.508966 166.934324 
L 366.785478 163.08454 
L 367.061989 165.23589 
L 367.3385 157.989237 
L 367.615012 159.347985 
L 367.891523 174.747122 
L 368.168034 151.195501 
L 368.721057 159.574443 
L 368.997568 157.989237 
L 369.27408 165.23589 
L 369.550591 150.516127 
L 369.827102 159.008298 
L 370.103614 159.347985 
L 370.380125 161.612564 
L 370.656636 155.837887 
L 370.933148 152.780706 
L 371.209659 168.745987 
L 371.48617 210.640698 
L 371.762682 198.411972 
L 372.039193 172.142856 
L 372.315705 173.728061 
L 372.592216 160.253816 
L 373.145239 188.90074 
L 373.42175 186.636161 
L 373.698261 189.353656 
L 373.974773 190.146259 
L 374.527795 183.126064 
L 374.804307 154.705598 
L 375.080818 150.629356 
L 375.357329 157.989237 
L 375.633841 152.32779 
L 376.186863 174.747122 
L 376.739886 166.36818 
L 377.016397 172.369314 
L 377.292909 228.644101 
L 377.56942 137.041882 
L 377.845931 142.023956 
L 378.122443 160.593503 
L 378.398954 160.706732 
L 378.675466 159.347985 
L 378.951977 144.288535 
L 379.228488 180.974714 
L 379.505 196.939995 
L 379.781511 160.706732 
L 380.058022 152.441019 
L 380.334534 155.158514 
L 380.611045 155.724658 
L 380.887556 173.501603 
L 381.164068 147.798632 
L 381.440579 168.632758 
L 381.71709 156.404032 
L 381.993602 160.819961 
L 382.546624 148.930922 
L 383.376158 165.575577 
L 383.65267 165.23589 
L 384.482204 141.118124 
L 384.758715 155.384972 
L 385.035227 159.008298 
L 385.311738 141.684269 
L 385.864761 152.554248 
L 386.141272 147.232487 
L 386.417783 136.475737 
L 386.694295 136.928653 
L 387.523829 145.534053 
L 387.80034 145.87374 
L 388.353363 155.61143 
L 388.629874 155.158514 
L 388.906385 148.364777 
L 389.735919 182.107003 
L 390.012431 155.837887 
L 390.288942 161.839022 
L 390.565453 164.103601 
L 390.841965 160.593503 
L 391.118476 162.291937 
L 391.94801 179.615966 
L 392.224522 179.729195 
L 392.501033 188.108137 
L 393.054056 179.502737 
L 393.330567 180.29534 
L 393.607078 187.428764 
L 393.88359 181.314401 
L 394.160101 186.183245 
L 394.436612 193.316669 
L 394.713124 206.337998 
L 394.989635 194.222501 
L 395.266146 193.543127 
L 395.542658 183.57898 
L 395.819169 183.465751 
L 396.09568 201.016237 
L 396.372192 203.507274 
L 396.648703 189.806572 
L 396.925215 194.675416 
L 397.201726 188.447824 
L 397.478237 175.652953 
L 397.754749 177.917532 
L 398.03126 189.127198 
L 398.584283 159.234756 
L 399.413817 178.257219 
L 399.690328 179.729195 
L 400.243351 193.769585 
L 400.519862 199.997177 
L 400.796373 184.484811 
L 401.072885 183.352522 
L 401.349396 203.507274 
L 401.625907 189.013969 
L 401.902419 184.258353 
L 402.17893 188.334595 
L 402.455441 185.277414 
L 402.731953 191.278548 
L 403.008464 193.769585 
L 403.284976 191.731464 
L 403.561487 193.429898 
L 403.837998 190.372716 
L 404.11451 190.938861 
L 404.391021 194.901874 
L 404.667532 195.920935 
L 405.220555 221.850364 
L 405.497066 221.284219 
L 405.773578 221.510677 
L 406.050089 213.131735 
L 406.3266 215.736001 
L 406.879623 230.90868 
L 407.156134 221.623906 
L 407.432646 223.888485 
L 407.709157 220.831303 
L 407.985668 204.752793 
L 408.26218 219.359327 
L 408.815202 208.376119 
L 409.091714 210.640698 
L 409.368225 204.299877 
L 409.644737 203.167587 
L 409.921248 198.63843 
L 410.197759 200.336864 
L 410.474271 212.225903 
L 411.027293 247.893022 
L 411.303805 245.062298 
L 411.580316 221.623906 
L 411.856827 220.15193 
L 412.133339 216.755061 
L 412.40985 228.870559 
L 412.686361 248.798853 
L 412.962873 251.176661 
L 413.515895 245.741672 
L 413.792407 252.648638 
L 414.068918 255.366132 
L 414.345429 250.27083 
L 414.621941 256.498422 
L 414.898452 253.328011 
L 415.174963 253.101553 
L 415.451475 239.174393 
L 415.727986 238.495019 
L 416.004498 239.061164 
L 416.281009 241.552201 
L 416.55752 273.369535 
L 416.834032 224.228172 
L 417.110543 257.517482 
L 417.387054 270.538811 
L 417.940077 167.160782 
L 418.216588 191.05209 
L 418.4931 198.298743 
L 418.769611 196.939995 
L 419.046122 211.772988 
L 419.322634 211.999445 
L 419.599145 201.469153 
L 419.875656 200.450093 
L 420.152168 202.94113 
L 420.428679 190.146259 
L 420.70519 190.146259 
L 420.981702 188.108137 
L 421.258213 197.845827 
L 421.534724 180.29534 
L 421.811236 180.408569 
L 422.087747 179.27628 
L 422.364259 175.879411 
L 422.64077 188.221366 
L 422.917281 185.843559 
L 423.193793 194.222501 
L 423.470304 191.278548 
L 424.023327 209.734866 
L 424.299838 212.678819 
L 424.576349 213.358193 
L 424.852861 205.545395 
L 425.129372 217.094748 
L 425.405883 213.811109 
L 425.682395 217.887351 
L 425.958906 224.114943 
L 426.235417 233.739403 
L 426.78844 243.930009 
L 427.064951 205.885082 
L 427.341463 208.26289 
L 427.617974 208.376119 
L 427.894485 210.301011 
L 428.170997 232.380656 
L 428.447508 239.061164 
L 428.72402 230.229306 
L 429.000531 232.154198 
L 429.277042 207.017372 
L 429.553554 209.281951 
L 429.830065 233.06003 
L 430.106576 234.871693 
L 430.659599 215.056627 
L 430.93611 219.472556 
L 431.212622 218.00058 
L 431.489133 212.339132 
L 431.765644 223.775256 
L 432.042156 226.266293 
L 432.318667 227.511811 
L 432.595178 233.852632 
L 432.87169 244.382924 
L 433.148201 242.571261 
L 433.424712 230.342535 
L 433.701224 225.700148 
L 433.977735 243.477093 
L 434.254246 252.535409 
L 434.530758 223.32234 
L 434.807269 224.114943 
L 435.083781 229.097016 
L 435.360292 228.530872 
L 435.636803 220.038701 
L 436.189826 244.949069 
L 436.466337 227.62504 
L 437.01936 257.970398 
L 437.295871 245.175527 
L 437.572383 243.703551 
L 437.848894 229.210245 
L 438.125405 231.588053 
L 438.401917 230.229306 
L 438.678428 220.265159 
L 438.954939 234.758464 
L 439.231451 234.984922 
L 439.507962 219.699014 
L 439.784473 221.284219 
L 440.060985 227.62504 
L 440.337496 223.209111 
L 440.614007 215.622772 
L 440.890519 200.223635 
L 441.16703 203.280816 
L 441.443542 205.09248 
L 441.996564 214.71694 
L 442.273076 211.999445 
L 442.549587 219.246098 
L 442.826098 215.283085 
L 443.379121 235.777524 
L 443.932144 221.850364 
L 444.208655 226.945666 
L 444.485166 225.020774 
L 444.761678 210.867156 
L 445.3147 220.604845 
L 445.591212 216.075688 
L 445.867723 219.472556 
L 446.144234 373.180852 
L 447.25028 373.180852 
L 447.526791 122.435348 
L 448.079814 101.374764 
L 448.632837 86.655 
L 448.909348 88.353435 
L 449.185859 86.315314 
L 449.462371 86.315314 
L 449.738882 48.949761 
L 450.015393 44.420603 
L 450.291905 44.76029 
L 450.568416 59.027137 
L 450.844927 52.346629 
L 451.121439 54.724437 
L 451.39795 50.08205 
L 451.674461 49.968821 
L 451.950973 50.308508 
L 452.227484 56.649329 
L 452.503995 56.989016 
L 452.780507 54.837666 
L 453.057018 50.987882 
L 453.33353 54.611208 
L 453.610041 52.459858 
L 453.886552 51.893714 
L 454.439575 53.36569 
L 454.992598 48.496845 
L 455.269109 50.308508 
L 455.54562 54.950895 
L 455.822132 54.497979 
L 456.098643 56.083185 
L 456.375154 56.196414 
L 456.651666 56.5361 
L 456.928177 62.424006 
L 457.204688 65.594416 
L 457.4812 51.780485 
L 457.757711 68.198682 
L 458.034222 66.839935 
L 458.310734 52.346629 
L 459.140268 100.355703 
L 459.416779 125.379301 
L 459.693291 123.680866 
L 459.969802 110.433079 
L 460.522825 64.12244 
L 460.799336 61.631403 
L 461.075847 60.8388 
L 461.352359 68.085453 
L 461.62887 85.069795 
L 461.905381 87.900519 
L 462.181893 74.086587 
L 462.458404 74.539503 
L 462.734915 70.350032 
L 463.011427 82.239071 
L 463.287938 76.804082 
L 463.564449 78.502516 
L 463.840961 71.935237 
L 464.117472 77.596685 
L 464.393983 76.690853 
L 464.670495 69.783887 
L 464.947006 59.480053 
L 465.223517 63.782753 
L 465.500029 61.97109 
L 465.77654 62.650464 
L 466.053052 60.159427 
L 466.329563 44.194145 
L 466.606074 44.533832 
L 466.882586 46.571953 
L 467.159097 46.91164 
L 467.435608 50.308508 
L 467.71212 48.723303 
L 467.988631 50.648195 
L 468.265142 47.251327 
L 468.541654 46.685182 
L 468.818165 47.251327 
L 469.094676 45.326435 
L 469.371188 47.704242 
L 469.647699 46.91164 
L 469.92421 50.308508 
L 470.200722 59.027137 
L 470.477233 59.932969 
L 470.753744 63.443066 
L 471.030256 50.195279 
L 471.306767 61.291716 
L 471.583278 54.045064 
L 472.136301 79.408348 
L 472.412813 85.069795 
L 472.965835 89.032808 
L 473.242347 89.825411 
L 473.518858 84.843337 
L 473.795369 89.259266 
L 474.071881 85.749169 
L 474.348392 90.051869 
L 474.624903 86.088856 
L 474.901415 59.932969 
L 475.177926 52.912774 
L 475.730949 46.571953 
L 476.00746 50.761424 
L 476.283971 47.024869 
L 476.560483 46.005808 
L 476.836994 46.005808 
L 477.113505 42.835398 
L 477.666528 47.138098 
L 477.943039 46.119037 
L 478.219551 43.628 
L 478.496062 46.005808 
L 478.772574 42.948627 
L 479.325596 90.618014 
L 479.602108 79.521577 
L 479.878619 80.314179 
L 480.431642 110.659537 
L 480.708153 151.421958 
L 480.984664 150.17644 
L 481.261176 121.416287 
L 481.537687 121.642745 
L 481.814198 109.866935 
L 482.09071 103.8658 
L 482.367221 112.4712 
L 482.643732 105.337777 
L 482.920244 113.60349 
L 483.473266 136.022822 
L 483.749778 121.869203 
L 484.3028 116.547443 
L 484.579312 129.568772 
L 484.855823 101.601222 
L 485.132335 104.658403 
L 485.408846 118.245877 
L 485.685357 103.752572 
L 485.961869 106.922982 
L 486.23838 117.566503 
L 486.514891 117.679732 
L 486.791403 113.150574 
L 487.067914 110.999224 
L 487.344425 116.094527 
L 487.897448 113.263803 
L 488.173959 109.30079 
L 488.450471 108.847874 
L 488.726982 113.943177 
L 489.003493 113.377032 
L 489.280005 117.792961 
L 489.556516 106.243608 
L 489.833027 113.490261 
L 490.109539 71.142635 
L 490.38605 55.51704 
L 490.662561 49.742364 
L 491.492096 58.121306 
L 491.768607 68.764827 
L 492.045118 105.790693 
L 492.32163 110.31985 
L 492.874652 86.994687 
L 493.151164 72.841069 
L 493.427675 66.726706 
L 493.704186 54.497979 
L 493.980698 60.725571 
L 494.257209 58.913908 
L 494.53372 61.744632 
L 494.810232 62.763693 
L 495.086743 69.783887 
L 495.639766 119.604624 
L 495.916277 113.829948 
L 496.192788 110.546308 
L 496.4693 113.150574 
L 496.745811 113.263803 
L 497.022323 121.869203 
L 497.575345 106.243608 
L 497.851857 103.979029 
L 498.128368 110.546308 
L 498.404879 106.583295 
L 498.681391 122.435348 
L 498.957902 96.166232 
L 499.234413 115.641611 
L 499.787436 113.037345 
L 500.063947 112.584429 
L 500.340459 96.845606 
L 500.61697 118.132648 
L 500.893481 104.884861 
L 501.169993 59.140366 
L 501.446504 72.388153 
L 501.723015 66.839935 
L 501.999527 65.594416 
L 502.276038 63.782753 
L 502.552549 69.783887 
L 502.829061 78.955432 
L 503.105572 97.072064 
L 503.382084 97.524979 
L 503.658595 77.483456 
L 503.935106 79.748035 
L 504.211618 83.031674 
L 504.76464 96.279461 
L 505.317663 101.827679 
L 505.594174 102.84674 
L 505.870686 109.074332 
L 506.147197 96.732377 
L 506.70022 142.476872 
L 506.976731 131.153977 
L 507.253242 107.375898 
L 507.529754 111.112453 
L 507.806265 120.170769 
L 508.082776 115.75484 
L 508.359288 106.809753 
L 508.635799 102.393824 
L 508.91231 77.709914 
L 509.188822 63.782753 
L 509.465333 67.632537 
L 510.018356 89.825411 
L 510.294867 108.847874 
L 510.571379 113.150574 
L 510.84789 93.901653 
L 511.677424 79.861264 
L 511.953935 80.880324 
L 512.230447 88.579893 
L 512.506958 91.184158 
L 512.783469 102.84674 
L 513.059981 101.940908 
L 513.336492 107.942043 
L 513.613003 100.808619 
L 513.889515 103.299656 
L 514.166026 102.959969 
L 514.442537 117.113587 
L 514.719049 116.320985 
L 514.99556 97.977895 
L 515.272071 110.206622 
L 515.548583 102.280595 
L 515.825094 99.5631 
L 516.101606 106.243608 
L 516.378117 104.771632 
L 516.654628 97.072064 
L 516.93114 97.864666 
L 517.207651 107.036211 
L 517.484162 99.223414 
L 517.760674 98.317582 
L 518.037185 72.161695 
L 518.313696 79.18189 
L 518.590208 80.653866 
L 518.866719 106.809753 
L 519.14323 144.062077 
L 519.696253 111.565369 
L 519.972764 123.907324 
L 520.249276 114.62255 
L 520.525787 109.527248 
L 520.802298 109.753706 
L 521.07881 106.809753 
L 521.355321 107.828814 
L 521.908344 101.71445 
L 522.184855 114.169635 
L 522.461367 107.489127 
L 522.737878 88.466664 
L 523.014389 93.561966 
L 523.290901 111.225682 
L 523.567412 104.771632 
L 523.843923 102.167366 
L 524.120435 110.206622 
L 524.396946 107.375898 
L 524.673457 110.885995 
L 524.949969 108.508187 
L 525.22648 110.546308 
L 525.502991 103.412885 
L 525.779503 109.527248 
L 526.056014 99.336643 
L 526.332525 102.054137 
L 526.609037 96.39269 
L 526.885548 110.31985 
L 527.162059 105.451006 
L 527.438571 103.979029 
L 527.715082 101.487993 
L 527.991593 101.601222 
L 528.268105 102.959969 
L 528.544616 98.430811 
L 528.821128 97.638208 
L 529.097639 102.167366 
L 529.37415 100.016016 
L 529.650662 101.940908 
L 529.927173 97.072064 
L 530.203684 104.658403 
L 530.480196 104.545174 
L 530.756707 100.016016 
L 531.033218 98.883727 
L 531.30973 108.847874 
L 531.586241 112.244743 
L 532.139264 102.280595 
L 532.415775 100.468932 
L 532.692286 103.752572 
L 532.968798 98.091124 
L 533.245309 86.315314 
L 533.52182 100.69539 
L 533.798332 97.185293 
L 534.074843 102.733511 
L 534.351354 100.921848 
L 534.627866 105.564235 
L 534.904377 97.751437 
L 535.180889 94.014882 
L 535.4574 102.959969 
L 535.733911 100.808619 
L 536.010423 96.279461 
L 536.286934 101.035077 
L 536.563445 88.466664 
L 536.839957 90.165098 
L 537.116468 100.242474 
L 537.392979 104.431945 
L 537.669491 105.564235 
L 538.222513 102.620282 
L 538.499025 103.979029 
L 539.328559 91.750303 
L 539.60507 93.901653 
L 539.881581 94.467798 
L 540.158093 98.091124 
L 540.434604 106.01715 
L 540.711116 100.582161 
L 540.987627 76.464395 
L 541.264138 99.676329 
L 541.54065 143.609161 
L 541.817161 140.665208 
L 542.093672 127.530651 
L 542.370184 121.869203 
L 542.646695 106.470066 
L 542.923206 115.868069 
L 543.199718 107.828814 
L 543.476229 116.207756 
L 543.75274 95.826545 
L 544.305763 115.641611 
L 544.582274 106.696524 
L 544.858786 106.696524 
L 545.135297 101.148306 
L 545.68832 81.106782 
L 545.964831 90.051869 
L 546.241342 91.523845 
L 546.517854 91.523845 
L 546.794365 88.466664 
L 547.070877 86.768229 
L 547.623899 100.921848 
L 547.900411 91.750303 
L 548.176922 96.845606 
L 548.453433 93.10905 
L 548.729945 86.202085 
L 549.006456 99.223414 
L 549.282967 101.261535 
L 549.83599 88.013748 
L 550.112501 85.975627 
L 550.389013 87.334374 
L 550.665524 79.974493 
L 550.942035 80.20095 
L 551.218547 92.995822 
L 551.495058 124.586698 
L 551.771569 132.059808 
L 552.048081 112.4712 
L 552.324592 111.225682 
L 552.601103 101.035077 
L 552.877615 105.111319 
L 553.154126 84.956566 
L 553.430638 88.693121 
L 553.707149 115.641611 
L 553.98366 112.810887 
L 554.260172 98.204353 
L 554.536683 94.014882 
L 554.813194 106.696524 
L 555.089706 98.430811 
L 555.366217 101.035077 
L 555.642728 94.807485 
L 555.91924 96.619148 
L 556.195751 89.598953 
L 556.472262 90.391556 
L 556.748774 86.088856 
L 557.025285 93.675195 
L 557.301796 90.844471 
L 557.578308 86.655 
L 557.854819 84.616879 
L 558.13133 97.41175 
L 558.407842 84.163964 
L 558.684353 76.690853 
L 558.960864 79.974493 
L 559.237376 79.18189 
L 559.513887 94.807485 
L 559.790399 86.088856 
L 560.06691 92.769364 
L 560.343421 92.542906 
L 560.619933 86.315314 
L 560.896444 88.126977 
L 561.172955 86.541771 
L 561.449467 88.579893 
L 561.725978 92.08999 
L 562.002489 82.239071 
L 562.279001 79.634806 
L 562.555512 90.618014 
L 562.832023 89.93864 
L 563.385046 83.144903 
L 563.661557 82.3523 
L 563.938069 89.598953 
L 564.21458 85.749169 
L 564.491091 85.296253 
L 565.044114 93.675195 
L 565.320625 81.899385 
L 565.597137 98.54404 
L 565.873648 87.78729 
L 566.426671 79.974493 
L 566.703182 80.20095 
L 566.979694 75.445335 
L 567.256205 73.973358 
L 567.532716 78.615745 
L 567.809228 81.220011 
L 568.085739 77.256998 
L 568.36225 79.18189 
L 568.638762 72.161695 
L 568.915273 75.671793 
L 569.191784 77.256998 
L 569.468296 84.050735 
L 569.744807 73.293985 
L 570.021318 72.048466 
L 570.29783 73.633671 
L 570.574341 71.935237 
L 570.850852 72.841069 
L 571.127364 76.917311 
L 571.403875 75.558564 
L 571.680386 77.03054 
L 571.956898 75.558564 
L 572.233409 75.89825 
L 572.509921 77.596685 
L 573.062943 75.105648 
L 573.339455 77.596685 
L 573.615966 76.464395 
L 573.892477 73.407214 
L 574.168989 82.578758 
L 574.4455 79.521577 
L 574.722011 71.255864 
L 574.998523 68.198682 
L 575.275034 76.124708 
L 575.551545 89.032808 
L 575.828057 77.03054 
L 576.381079 95.147172 
L 576.657591 95.600087 
L 576.934102 105.224548 
L 577.487125 91.184158 
L 577.763636 72.614611 
L 578.040147 64.575356 
L 578.316659 60.725571 
L 578.59317 60.725571 
L 578.869682 60.612342 
L 579.146193 61.065258 
L 579.422704 63.669524 
L 579.975727 75.105648 
L 580.52875 58.800679 
L 580.805261 63.556295 
L 581.081772 64.688585 
L 581.358284 79.295119 
L 581.634795 63.669524 
L 581.911306 61.744632 
L 582.187818 64.235669 
L 582.464329 65.028271 
L 582.74084 66.160561 
L 583.017352 65.594416 
L 583.293863 63.782753 
L 583.570374 68.991285 
L 584.123397 71.708779 
L 584.399908 72.388153 
L 584.67642 100.921848 
L 584.952931 107.262669 
L 585.229443 106.130379 
L 585.505954 101.035077 
L 585.782465 109.640477 
L 586.058977 101.487993 
L 586.335488 101.035077 
L 586.611999 102.733511 
L 586.888511 99.223414 
L 587.165022 101.035077 
L 587.441533 94.354569 
L 587.718045 105.111319 
L 587.994556 98.430811 
L 588.271067 94.694256 
L 588.547579 94.467798 
L 588.82409 93.561966 
L 589.100601 89.598953 
L 589.377113 93.335508 
L 589.653624 72.501382 
L 590.206647 119.831082 
L 590.483158 101.601222 
L 591.036181 98.204353 
L 591.312692 100.355703 
L 591.589204 100.808619 
L 591.865715 94.014882 
L 592.142226 101.940908 
L 592.418738 98.54404 
L 592.695249 86.428543 
L 592.97176 86.768229 
L 593.248272 93.335508 
L 593.524783 80.427408 
L 593.801294 78.955432 
L 594.354317 84.616879 
L 594.630828 91.297387 
L 594.90734 107.262669 
L 595.460362 81.220011 
L 595.736874 77.709914 
L 596.013385 76.351166 
L 596.289896 76.124708 
L 596.566408 77.936371 
L 596.842919 87.674061 
L 597.119431 124.473469 
L 597.395942 136.136051 
L 597.672453 139.306461 
L 598.225476 122.20889 
L 599.05501 102.167366 
L 599.608033 92.08999 
L 599.884544 91.297387 
L 600.161055 88.919579 
L 600.437567 97.072064 
L 600.714078 93.222279 
L 600.990589 94.807485 
L 601.267101 89.825411 
L 601.543612 90.278327 
L 601.820123 84.956566 
L 602.096635 88.240206 
L 602.373146 89.93864 
L 602.649657 86.088856 
L 602.926169 97.864666 
L 603.479192 98.430811 
L 604.032214 119.944311 
L 604.308726 108.1685 
L 604.861748 103.412885 
L 605.13826 372.218406 
L 605.691282 372.218406 
L 605.967794 373.180852 
L 606.244305 62.876921 
L 606.520816 72.954298 
L 607.35035 126.398361 
L 607.626862 126.738048 
L 607.903373 118.132648 
L 608.179884 106.01715 
L 608.456396 106.356837 
L 608.732907 93.448737 
L 609.009418 94.24134 
L 609.28593 93.901653 
L 609.562441 95.147172 
L 609.838953 93.675195 
L 610.391975 80.880324 
L 610.668487 85.409482 
L 610.944998 83.824277 
L 611.221509 86.881458 
L 611.498021 94.920714 
L 611.774532 193.996043 
L 612.051043 88.919579 
L 612.327555 99.5631 
L 612.880577 89.146037 
L 613.157089 120.736914 
L 613.4336 127.870337 
L 613.710111 111.565369 
L 613.986623 111.112453 
L 614.263134 111.45214 
L 614.539645 109.980164 
L 614.816157 105.111319 
L 615.092668 108.394958 
L 615.369179 115.415153 
L 615.645691 145.760511 
L 615.922202 91.070929 
L 616.198714 109.074332 
L 616.475225 116.320985 
L 616.751736 118.019419 
L 617.028248 106.243608 
L 617.304759 113.60349 
L 617.58127 111.225682 
L 617.857782 113.943177 
L 618.134293 110.093393 
L 618.410804 110.659537 
L 618.687316 108.621416 
L 618.963827 114.962237 
L 619.240338 102.620282 
L 619.793361 119.151708 
L 620.069872 110.885995 
L 620.346384 114.962237 
L 620.622895 126.51159 
L 620.899406 118.698793 
L 621.175918 115.075466 
L 621.452429 116.7739 
L 621.72894 112.584429 
L 622.005452 112.584429 
L 622.281963 124.133782 
L 622.558475 128.776169 
L 622.834986 131.493664 
L 623.111497 116.660672 
L 623.388009 114.282864 
L 623.66452 115.301924 
L 623.941031 111.791827 
L 624.217543 103.299656 
L 624.494054 124.473469 
L 625.047077 142.929787 
L 625.323588 127.077735 
L 625.600099 124.586698 
L 625.876611 124.020553 
L 626.153122 121.076601 
L 626.429633 128.323253 
L 626.706145 129.229085 
L 626.982656 124.586698 
L 627.259167 126.398361 
L 627.535679 117.113587 
L 627.81219 113.037345 
L 628.088701 100.129245 
L 628.641724 117.000358 
L 629.194747 126.964506 
L 629.74777 148.138319 
L 630.024281 130.021687 
L 630.853815 104.771632 
L 631.130326 124.020553 
L 631.406838 104.318716 
L 631.95986 125.152843 
L 632.236372 134.097929 
L 632.512883 114.62255 
L 632.789394 108.961103 
L 633.065906 106.356837 
L 633.342417 118.585564 
L 633.618928 116.547443 
L 633.89544 108.847874 
L 634.171951 111.678598 
L 634.448462 107.715585 
L 634.724974 113.263803 
L 635.001485 111.565369 
L 635.277997 115.981298 
L 635.554508 108.961103 
L 635.831019 107.828814 
L 636.107531 108.734645 
L 636.384042 115.528382 
L 636.660553 111.678598 
L 636.937065 109.414019 
L 637.213576 111.791827 
L 637.490087 109.187561 
L 637.766599 110.206622 
L 638.04311 107.942043 
L 638.319621 124.813156 
L 639.149155 108.621416 
L 639.425667 109.527248 
L 639.702178 118.92525 
L 639.978689 115.75484 
L 640.255201 119.264937 
L 640.531712 107.489127 
L 641.084735 129.455543 
L 641.361246 124.813156 
L 641.637758 131.040748 
L 641.914269 123.680866 
L 642.19078 130.927519 
L 642.467292 130.021687 
L 642.743803 116.434214 
L 643.020314 121.529516 
L 643.296826 115.868069 
L 643.573337 121.416287 
L 643.849848 120.850143 
L 644.12636 108.734645 
L 644.402871 113.263803 
L 644.679382 114.735779 
L 644.955894 106.356837 
L 645.232405 103.979029 
L 645.508916 123.680866 
L 645.785428 113.829948 
L 646.061939 116.320985 
L 646.33845 114.282864 
L 646.614962 114.62255 
L 646.891473 118.132648 
L 647.167985 118.585564 
L 647.444496 124.36024 
L 647.721007 125.152843 
L 647.997519 113.263803 
L 648.27403 110.206622 
L 648.550541 110.885995 
L 648.827053 115.981298 
L 649.103564 109.30079 
L 649.380075 116.320985 
L 649.656587 127.304193 
L 649.933098 123.567637 
L 650.209609 114.282864 
L 650.486121 127.983566 
L 651.039143 121.982432 
L 651.315655 127.077735 
L 651.868677 113.943177 
L 652.145189 113.037345 
L 652.4217 113.263803 
L 652.698211 104.431945 
L 653.251234 117.226816 
L 653.527746 119.604624 
L 653.804257 123.227951 
L 654.080768 132.852411 
L 654.633791 115.641611 
L 655.186814 111.45214 
L 655.463325 109.980164 
L 655.739836 105.224548 
L 656.016348 103.8658 
L 656.56937 114.169635 
L 656.845882 113.943177 
L 657.122393 107.828814 
L 657.398904 107.036211 
L 658.228438 109.414019 
L 658.50495 113.943177 
L 658.781461 111.112453 
L 659.057972 111.112453 
L 659.334484 106.583295 
L 659.610995 111.112453 
L 659.887507 110.546308 
L 660.164018 112.924116 
L 660.717041 102.507053 
L 660.993552 100.129245 
L 661.270063 99.449872 
L 661.546575 99.902787 
L 661.823086 101.148306 
L 662.099597 100.129245 
L 662.376109 103.299656 
L 662.65262 99.449872 
L 662.929131 100.69539 
L 663.205643 99.336643 
L 663.482154 98.54404 
L 663.758665 105.224548 
L 664.035177 104.771632 
L 664.311688 108.281729 
L 664.588199 110.31985 
L 664.864711 108.1685 
L 665.141222 102.620282 
L 665.417733 108.734645 
L 666.247268 134.777303 
L 666.523779 124.133782 
L 667.076802 117.679732 
L 667.353313 112.924116 
L 667.629824 110.433079 
L 667.906336 144.628222 
L 668.182847 125.832216 
L 668.459358 91.297387 
L 668.73587 94.014882 
L 669.012381 99.449872 
L 669.288892 100.582161 
L 669.565404 110.659537 
L 669.841915 107.715585 
L 670.118426 110.772766 
L 670.394938 123.001493 
L 670.671449 118.698793 
L 670.94796 100.582161 
L 671.224472 105.903922 
L 671.500983 102.507053 
L 671.777494 95.939774 
L 672.054006 98.657269 
L 672.330517 100.016016 
L 672.607029 100.582161 
L 672.88354 95.486858 
L 673.160051 100.355703 
L 673.436563 122.095661 
L 673.713074 117.792961 
L 674.266097 106.696524 
L 674.542608 101.374764 
L 674.819119 103.639343 
L 674.819119 103.639343 
" clip-path="url(#p3db9607694)" style="fill: none; stroke: #2878b5; stroke-width: 1.5; stroke-linecap: square"/>
   </g>
   <g id="patch_3">
    <path d="M 38.690938 389.698125 
L 38.690938 26.318125 
" style="fill: none; stroke: #000000; stroke-width: 0.8; stroke-linejoin: miter; stroke-linecap: square"/>
   </g>
   <g id="patch_4">
    <path d="M 705.110938 389.698125 
L 705.110938 26.318125 
" style="fill: none; stroke: #000000; stroke-width: 0.8; stroke-linejoin: miter; stroke-linecap: square"/>
   </g>
   <g id="patch_5">
    <path d="M 38.690938 389.698125 
L 705.110938 389.698125 
" style="fill: none; stroke: #000000; stroke-width: 0.8; stroke-linejoin: miter; stroke-linecap: square"/>
   </g>
   <g id="patch_6">
    <path d="M 38.690938 26.318125 
L 705.110938 26.318125 
" style="fill: none; stroke: #000000; stroke-width: 0.8; stroke-linejoin: miter; stroke-linecap: square"/>
   </g>
   <g id="text_15">
    <!-- 原始 pH 时间序列数据 -->
    <g transform="translate(330.958438 16.318125) scale(0.12 -0.12)">
     <defs>
      <path id="DejaVuSans-539f" d="M 319 -1131 
L 319 4513 
L 3519 4513 
L 3519 -1131 
L 319 -1131 
z
M 678 -775 
L 3163 -775 
L 3163 4153 
L 678 4153 
L 678 -775 
z
" transform="scale(0.015625)"/>
      <path id="DejaVuSans-59cb" d="M 319 -1131 
L 319 4513 
L 3519 4513 
L 3519 -1131 
L 319 -1131 
z
M 678 -775 
L 3163 -775 
L 3163 4153 
L 678 4153 
L 678 -775 
z
" transform="scale(0.015625)"/>
      <path id="DejaVuSans-5217" d="M 319 -1131 
L 319 4513 
L 3519 4513 
L 3519 -1131 
L 319 -1131 
z
M 678 -775 
L 3163 -775 
L 3163 4153 
L 678 4153 
L 678 -775 
z
" transform="scale(0.015625)"/>
      <path id="DejaVuSans-6570" d="M 319 -1131 
L 319 4513 
L 3519 4513 
L 3519 -1131 
L 319 -1131 
z
M 678 -775 
L 3163 -775 
L 3163 4153 
L 678 4153 
L 678 -775 
z
" transform="scale(0.015625)"/>
      <path id="DejaVuSans-636e" d="M 319 -1131 
L 319 4513 
L 3519 4513 
L 3519 -1131 
L 319 -1131 
z
M 678 -775 
L 3163 -775 
L 3163 4153 
L 678 4153 
L 678 -775 
z
" transform="scale(0.015625)"/>
     </defs>
     <use xlink:href="#DejaVuSans-539f"/>
     <use xlink:href="#DejaVuSans-59cb" transform="translate(60.009766 0)"/>
     <use xlink:href="#DejaVuSans-20" transform="translate(120.019531 0)"/>
     <use xlink:href="#DejaVuSans-70" transform="translate(151.806641 0)"/>
     <use xlink:href="#DejaVuSans-48" transform="translate(215.283203 0)"/>
     <use xlink:href="#DejaVuSans-20" transform="translate(290.478516 0)"/>
     <use xlink:href="#DejaVuSans-65f6" transform="translate(322.265625 0)"/>
     <use xlink:href="#DejaVuSans-95f4" transform="translate(382.275391 0)"/>
     <use xlink:href="#DejaVuSans-5e8f" transform="translate(442.285156 0)"/>
     <use xlink:href="#DejaVuSans-5217" transform="translate(502.294922 0)"/>
     <use xlink:href="#DejaVuSans-6570" transform="translate(562.304688 0)"/>
     <use xlink:href="#DejaVuSans-636e" transform="translate(622.314453 0)"/>
    </g>
   </g>
   <g id="legend_1">
    <g id="patch_7">
     <path d="M 635.604219 46.728437 
L 698.810938 46.728437 
Q 700.610938 46.728437 700.610938 44.928437 
L 700.610938 32.618125 
Q 700.610938 30.818125 698.810938 30.818125 
L 635.604219 30.818125 
Q 633.804219 30.818125 633.804219 32.618125 
L 633.804219 44.928437 
Q 633.804219 46.728437 635.604219 46.728437 
z
" style="fill: #ffffff; opacity: 0.8; stroke: #cccccc; stroke-width: 0.5; stroke-linejoin: miter"/>
    </g>
    <g id="line2d_26">
     <path d="M 637.404219 38.106719 
L 646.404219 38.106719 
L 655.404219 38.106719 
" style="fill: none; stroke: #2878b5; stroke-width: 1.5; stroke-linecap: square"/>
    </g>
    <g id="text_16">
     <!-- 原始 pH 值 -->
     <g transform="translate(662.604219 41.256719) scale(0.09 -0.09)">
      <use xlink:href="#DejaVuSans-539f"/>
      <use xlink:href="#DejaVuSans-59cb" transform="translate(60.009766 0)"/>
      <use xlink:href="#DejaVuSans-20" transform="translate(120.019531 0)"/>
      <use xlink:href="#DejaVuSans-70" transform="translate(151.806641 0)"/>
      <use xlink:href="#DejaVuSans-48" transform="translate(215.283203 0)"/>
      <use xlink:href="#DejaVuSans-20" transform="translate(290.478516 0)"/>
      <use xlink:href="#DejaVuSans-503c" transform="translate(322.265625 0)"/>
     </g>
    </g>
   </g>
  </g>
 </g>
 <defs>
  <clipPath id="p3db9607694">
   <rect x="38.690938" y="26.318125" width="666.42" height="363.38"/>
  </clipPath>
 </defs>
</svg>
