<?xml version="1.0" encoding="utf-8" standalone="no"?>
<!DOCTYPE svg PUBLIC "-//W3C//DTD SVG 1.1//EN"
  "http://www.w3.org/Graphics/SVG/1.1/DTD/svg11.dtd">
<svg xmlns:xlink="http://www.w3.org/1999/xlink" width="712.579375pt" height="423.711562pt" viewBox="0 0 712.579375 423.711562" xmlns="http://www.w3.org/2000/svg" version="1.1">
 <metadata>
  <rdf:RDF xmlns:dc="http://purl.org/dc/elements/1.1/" xmlns:cc="http://creativecommons.org/ns#" xmlns:rdf="http://www.w3.org/1999/02/22-rdf-syntax-ns#">
   <cc:Work>
    <dc:type rdf:resource="http://purl.org/dc/dcmitype/StillImage"/>
    <dc:date>2025-04-16T00:55:08.671890</dc:date>
    <dc:format>image/svg+xml</dc:format>
    <dc:creator>
     <cc:Agent>
      <dc:title>Matplotlib v3.10.0, https://matplotlib.org/</dc:title>
     </cc:Agent>
    </dc:creator>
   </cc:Work>
  </rdf:RDF>
 </metadata>
 <defs>
  <style type="text/css">*{stroke-linejoin: round; stroke-linecap: butt}</style>
 </defs>
 <g id="figure_1">
  <g id="patch_1">
   <path d="M 0 423.711562 
L 712.579375 423.711562 
L 712.579375 0 
L 0 0 
z
" style="fill: #ffffff"/>
  </g>
  <g id="axes_1">
   <g id="patch_2">
    <path d="M 37.496875 392.44125 
L 705.379375 392.44125 
L 705.379375 27.1375 
L 37.496875 27.1375 
z
" style="fill: #ffffff"/>
   </g>
   <g id="matplotlib.axis_1">
    <g id="xtick_1">
     <g id="line2d_1">
      <path d="M 67.578052 392.44125 
L 67.578052 27.1375 
" clip-path="url(#p5cd5c49f64)" style="fill: none; stroke-dasharray: 1.85,0.8; stroke-dashoffset: 0; stroke: #b2b2b2; stroke-opacity: 0.3; stroke-width: 0.5"/>
     </g>
     <g id="line2d_2">
      <defs>
       <path id="m87749aa944" d="M 0 0 
L 0 -3.5 
" style="stroke: #000000; stroke-width: 0.8"/>
      </defs>
      <g>
       <use xlink:href="#m87749aa944" x="67.578052" y="392.44125" style="stroke: #000000; stroke-width: 0.8"/>
      </g>
     </g>
     <g id="text_1">
      <!-- 0 -->
      <g transform="translate(65.328052 402.12875) scale(0.09 -0.09)">
       <defs>
        <path id="SimHei-30" d="M 225 2537 
Q 250 3200 412 3587 
Q 575 3975 875 4225 
Q 1175 4475 1612 4475 
Q 2050 4475 2375 4112 
Q 2700 3750 2800 3200 
Q 2900 2650 2862 1937 
Q 2825 1225 2612 775 
Q 2400 325 1975 150 
Q 1550 -25 1125 187 
Q 700 400 525 750 
Q 350 1100 275 1487 
Q 200 1875 225 2537 
z
M 750 2687 
Q 675 2000 800 1462 
Q 925 925 1212 700 
Q 1500 475 1800 612 
Q 2100 750 2237 1162 
Q 2375 1575 2375 2062 
Q 2375 2550 2337 2950 
Q 2300 3350 2112 3675 
Q 1925 4000 1612 4012 
Q 1300 4025 1062 3700 
Q 825 3375 750 2687 
z
" transform="scale(0.015625)"/>
       </defs>
       <use xlink:href="#SimHei-30"/>
      </g>
     </g>
    </g>
    <g id="xtick_2">
     <g id="line2d_3">
      <path d="M 206.137137 392.44125 
L 206.137137 27.1375 
" clip-path="url(#p5cd5c49f64)" style="fill: none; stroke-dasharray: 1.85,0.8; stroke-dashoffset: 0; stroke: #b2b2b2; stroke-opacity: 0.3; stroke-width: 0.5"/>
     </g>
     <g id="line2d_4">
      <g>
       <use xlink:href="#m87749aa944" x="206.137137" y="392.44125" style="stroke: #000000; stroke-width: 0.8"/>
      </g>
     </g>
     <g id="text_2">
      <!-- 500 -->
      <g transform="translate(199.387137 402.12875) scale(0.09 -0.09)">
       <defs>
        <path id="SimHei-35" d="M 550 1325 
Q 725 650 1150 575 
Q 1575 500 1837 662 
Q 2100 825 2212 1087 
Q 2325 1350 2312 1675 
Q 2300 2000 2137 2225 
Q 1975 2450 1725 2525 
Q 1475 2600 1162 2525 
Q 850 2450 650 2175 
L 225 2225 
Q 275 2375 700 4375 
L 2675 4375 
L 2675 3925 
L 1075 3925 
Q 950 3250 825 2850 
Q 1200 3025 1525 3012 
Q 1850 3000 2150 2862 
Q 2450 2725 2587 2487 
Q 2725 2250 2787 2012 
Q 2850 1775 2837 1500 
Q 2825 1225 2725 937 
Q 2625 650 2425 462 
Q 2225 275 1937 162 
Q 1650 50 1275 75 
Q 900 100 562 350 
Q 225 600 100 1200 
L 550 1325 
z
" transform="scale(0.015625)"/>
       </defs>
       <use xlink:href="#SimHei-35"/>
       <use xlink:href="#SimHei-30" transform="translate(50 0)"/>
       <use xlink:href="#SimHei-30" transform="translate(100 0)"/>
      </g>
     </g>
    </g>
    <g id="xtick_3">
     <g id="line2d_5">
      <path d="M 344.696222 392.44125 
L 344.696222 27.1375 
" clip-path="url(#p5cd5c49f64)" style="fill: none; stroke-dasharray: 1.85,0.8; stroke-dashoffset: 0; stroke: #b2b2b2; stroke-opacity: 0.3; stroke-width: 0.5"/>
     </g>
     <g id="line2d_6">
      <g>
       <use xlink:href="#m87749aa944" x="344.696222" y="392.44125" style="stroke: #000000; stroke-width: 0.8"/>
      </g>
     </g>
     <g id="text_3">
      <!-- 1000 -->
      <g transform="translate(335.696222 402.12875) scale(0.09 -0.09)">
       <defs>
        <path id="SimHei-31" d="M 1400 3600 
Q 1075 3275 575 2975 
L 575 3450 
Q 1200 3875 1600 4450 
L 1900 4450 
L 1900 150 
L 1400 150 
L 1400 3600 
z
" transform="scale(0.015625)"/>
       </defs>
       <use xlink:href="#SimHei-31"/>
       <use xlink:href="#SimHei-30" transform="translate(50 0)"/>
       <use xlink:href="#SimHei-30" transform="translate(100 0)"/>
       <use xlink:href="#SimHei-30" transform="translate(150 0)"/>
      </g>
     </g>
    </g>
    <g id="xtick_4">
     <g id="line2d_7">
      <path d="M 483.255306 392.44125 
L 483.255306 27.1375 
" clip-path="url(#p5cd5c49f64)" style="fill: none; stroke-dasharray: 1.85,0.8; stroke-dashoffset: 0; stroke: #b2b2b2; stroke-opacity: 0.3; stroke-width: 0.5"/>
     </g>
     <g id="line2d_8">
      <g>
       <use xlink:href="#m87749aa944" x="483.255306" y="392.44125" style="stroke: #000000; stroke-width: 0.8"/>
      </g>
     </g>
     <g id="text_4">
      <!-- 1500 -->
      <g transform="translate(474.255306 402.12875) scale(0.09 -0.09)">
       <use xlink:href="#SimHei-31"/>
       <use xlink:href="#SimHei-35" transform="translate(50 0)"/>
       <use xlink:href="#SimHei-30" transform="translate(100 0)"/>
       <use xlink:href="#SimHei-30" transform="translate(150 0)"/>
      </g>
     </g>
    </g>
    <g id="xtick_5">
     <g id="line2d_9">
      <path d="M 621.814391 392.44125 
L 621.814391 27.1375 
" clip-path="url(#p5cd5c49f64)" style="fill: none; stroke-dasharray: 1.85,0.8; stroke-dashoffset: 0; stroke: #b2b2b2; stroke-opacity: 0.3; stroke-width: 0.5"/>
     </g>
     <g id="line2d_10">
      <g>
       <use xlink:href="#m87749aa944" x="621.814391" y="392.44125" style="stroke: #000000; stroke-width: 0.8"/>
      </g>
     </g>
     <g id="text_5">
      <!-- 2000 -->
      <g transform="translate(612.814391 402.12875) scale(0.09 -0.09)">
       <defs>
        <path id="SimHei-32" d="M 300 250 
Q 325 625 650 925 
Q 975 1225 1475 1862 
Q 1975 2500 2125 2850 
Q 2275 3200 2237 3450 
Q 2200 3700 2000 3862 
Q 1800 4025 1537 4000 
Q 1275 3975 1037 3800 
Q 800 3625 675 3275 
L 200 3350 
Q 400 3925 712 4187 
Q 1025 4450 1450 4475 
Q 1700 4500 1900 4462 
Q 2100 4425 2312 4287 
Q 2525 4150 2662 3875 
Q 2800 3600 2762 3212 
Q 2725 2825 2375 2287 
Q 2025 1750 1025 600 
L 2825 600 
L 2825 150 
L 300 150 
L 300 250 
z
" transform="scale(0.015625)"/>
       </defs>
       <use xlink:href="#SimHei-32"/>
       <use xlink:href="#SimHei-30" transform="translate(50 0)"/>
       <use xlink:href="#SimHei-30" transform="translate(100 0)"/>
       <use xlink:href="#SimHei-30" transform="translate(150 0)"/>
      </g>
     </g>
    </g>
    <g id="text_6">
     <!-- 时间 / 序号 -->
     <g transform="translate(343.938125 415.261562) scale(0.1 -0.1)">
      <defs>
       <path id="SimHei-65f6" d="M 2525 4575 
Q 2500 3675 2500 2400 
Q 2500 1125 2525 400 
L 2000 400 
L 2000 875 
L 1000 875 
L 1000 50 
L 475 50 
Q 500 1200 500 2350 
Q 500 3525 475 4575 
L 2525 4575 
z
M 4875 3825 
Q 4875 4575 4850 5225 
L 5400 5225 
Q 5375 4575 5375 3825 
Q 5750 3825 6175 3850 
L 6175 3375 
Q 5750 3400 5375 3400 
L 5375 50 
Q 5375 -325 5075 -425 
Q 4775 -525 4300 -575 
Q 4300 -275 4025 0 
Q 4500 -50 4687 -25 
Q 4875 0 4875 300 
L 4875 3400 
Q 3625 3400 2775 3375 
L 2775 3850 
Q 3575 3825 4875 3825 
z
M 2000 1300 
L 2000 2550 
L 1000 2550 
L 1000 1300 
L 2000 1300 
z
M 2000 2975 
L 2000 4150 
L 1000 4150 
L 1000 2975 
L 2000 2975 
z
M 3550 2725 
Q 3875 2200 4175 1600 
Q 3925 1525 3650 1375 
Q 3450 1975 3075 2500 
Q 3300 2600 3550 2725 
z
" transform="scale(0.015625)"/>
       <path id="SimHei-95f4" d="M 4450 3550 
Q 4425 3075 4425 2725 
L 4425 1400 
Q 4425 1075 4450 625 
L 1925 625 
Q 1950 1075 1950 1425 
L 1950 2725 
Q 1950 3075 1925 3550 
L 4450 3550 
z
M 5800 4875 
Q 5775 4400 5775 3925 
L 5775 250 
Q 5800 -325 5462 -450 
Q 5125 -575 4725 -625 
Q 4700 -325 4525 -25 
Q 5000 -50 5137 25 
Q 5275 100 5275 350 
L 5275 4450 
L 3775 4450 
Q 3175 4450 2650 4425 
L 2650 4900 
Q 3175 4875 3775 4875 
L 5800 4875 
z
M 550 -525 
Q 600 -25 600 525 
L 600 3150 
Q 600 3675 550 4025 
L 1125 4025 
Q 1100 3650 1100 3300 
L 1100 500 
Q 1100 0 1125 -525 
L 550 -525 
z
M 3950 1025 
L 3950 1950 
L 2425 1950 
L 2425 1025 
L 3950 1025 
z
M 3950 2350 
L 3950 3150 
L 2425 3150 
L 2425 2350 
L 3950 2350 
z
M 1525 5300 
Q 1750 5000 2225 4350 
Q 1950 4225 1700 4075 
Q 1450 4575 1075 5025 
Q 1350 5225 1525 5300 
z
" transform="scale(0.015625)"/>
       <path id="SimHei-20" transform="scale(0.015625)"/>
       <path id="SimHei-2f" d="M 3000 4550 
L 350 -175 
L 100 -25 
L 2750 4700 
L 3000 4550 
z
" transform="scale(0.015625)"/>
       <path id="SimHei-5e8f" d="M 4000 2075 
L 5975 2075 
Q 5750 1525 5575 1025 
Q 5325 1100 5050 1150 
Q 5175 1450 5275 1700 
L 4050 1700 
L 4050 150 
Q 4050 -375 3762 -462 
Q 3475 -550 2950 -575 
Q 2875 -300 2750 0 
Q 3350 -75 3475 25 
Q 3600 125 3575 375 
L 3575 1700 
L 2450 1700 
Q 2050 1700 1675 1675 
L 1675 2100 
Q 2100 2075 2425 2075 
L 3675 2075 
Q 3325 2400 2875 2775 
Q 2975 2875 3250 3100 
Q 3400 2975 3725 2725 
L 4575 3275 
L 3000 3275 
Q 2400 3275 1950 3250 
L 1950 3700 
Q 2400 3675 3000 3675 
L 5400 3675 
L 5400 3250 
Q 4700 2875 4025 2450 
L 4275 2250 
L 4000 2075 
z
M 3725 5275 
Q 3825 4925 3925 4525 
L 4850 4525 
Q 5425 4525 6000 4550 
L 6000 4125 
Q 5425 4150 4850 4150 
L 1400 4150 
Q 1400 2750 1362 2137 
Q 1325 1525 1200 887 
Q 1075 250 775 -350 
Q 625 -250 250 -125 
Q 475 300 600 700 
Q 725 1100 800 1637 
Q 875 2175 875 2825 
Q 875 3500 850 4525 
L 3350 4525 
Q 3275 4825 3150 5150 
Q 3425 5200 3725 5275 
z
" transform="scale(0.015625)"/>
       <path id="SimHei-53f7" d="M 5025 4925 
Q 5000 4550 5000 4075 
Q 5000 3600 5025 3175 
L 1400 3175 
Q 1425 3525 1425 4000 
Q 1425 4500 1400 4925 
L 5025 4925 
z
M 5175 2625 
Q 5650 2625 6025 2650 
L 6025 2200 
Q 5650 2225 5175 2225 
L 2450 2225 
Q 2350 1875 2225 1450 
L 5175 1450 
Q 5100 1050 5062 775 
Q 5025 500 4950 112 
Q 4875 -275 4650 -412 
Q 4425 -550 3225 -625 
Q 3125 -350 2975 -50 
Q 3875 -75 4112 -50 
Q 4350 -25 4425 212 
Q 4500 450 4575 1025 
L 1600 1025 
Q 1825 1625 1950 2225 
L 1350 2225 
Q 825 2225 375 2200 
L 375 2650 
Q 825 2625 1350 2625 
L 5175 2625 
z
M 4525 3575 
L 4525 4525 
L 1900 4525 
L 1900 3575 
L 4525 3575 
z
" transform="scale(0.015625)"/>
      </defs>
      <use xlink:href="#SimHei-65f6"/>
      <use xlink:href="#SimHei-95f4" transform="translate(100 0)"/>
      <use xlink:href="#SimHei-20" transform="translate(200 0)"/>
      <use xlink:href="#SimHei-2f" transform="translate(250 0)"/>
      <use xlink:href="#SimHei-20" transform="translate(300 0)"/>
      <use xlink:href="#SimHei-5e8f" transform="translate(350 0)"/>
      <use xlink:href="#SimHei-53f7" transform="translate(450 0)"/>
     </g>
    </g>
   </g>
   <g id="matplotlib.axis_2">
    <g id="ytick_1">
     <g id="line2d_11">
      <path d="M 37.496875 389.325198 
L 705.379375 389.325198 
" clip-path="url(#p5cd5c49f64)" style="fill: none; stroke-dasharray: 1.85,0.8; stroke-dashoffset: 0; stroke: #b2b2b2; stroke-opacity: 0.3; stroke-width: 0.5"/>
     </g>
     <g id="line2d_12">
      <defs>
       <path id="m806a0ea388" d="M 0 0 
L 3.5 0 
" style="stroke: #000000; stroke-width: 0.8"/>
      </defs>
      <g>
       <use xlink:href="#m806a0ea388" x="37.496875" y="389.325198" style="stroke: #000000; stroke-width: 0.8"/>
      </g>
     </g>
     <g id="text_7">
      <!-- 5.0 -->
      <g transform="translate(20.496875 392.418948) scale(0.09 -0.09)">
       <defs>
        <path id="SimHei-2e" d="M 1075 125 
L 500 125 
L 500 675 
L 1075 675 
L 1075 125 
z
" transform="scale(0.015625)"/>
       </defs>
       <use xlink:href="#SimHei-35"/>
       <use xlink:href="#SimHei-2e" transform="translate(50 0)"/>
       <use xlink:href="#SimHei-30" transform="translate(100 0)"/>
      </g>
     </g>
    </g>
    <g id="ytick_2">
     <g id="line2d_13">
      <path d="M 37.496875 332.411005 
L 705.379375 332.411005 
" clip-path="url(#p5cd5c49f64)" style="fill: none; stroke-dasharray: 1.85,0.8; stroke-dashoffset: 0; stroke: #b2b2b2; stroke-opacity: 0.3; stroke-width: 0.5"/>
     </g>
     <g id="line2d_14">
      <g>
       <use xlink:href="#m806a0ea388" x="37.496875" y="332.411005" style="stroke: #000000; stroke-width: 0.8"/>
      </g>
     </g>
     <g id="text_8">
      <!-- 5.5 -->
      <g transform="translate(20.496875 335.504755) scale(0.09 -0.09)">
       <use xlink:href="#SimHei-35"/>
       <use xlink:href="#SimHei-2e" transform="translate(50 0)"/>
       <use xlink:href="#SimHei-35" transform="translate(100 0)"/>
      </g>
     </g>
    </g>
    <g id="ytick_3">
     <g id="line2d_15">
      <path d="M 37.496875 275.496811 
L 705.379375 275.496811 
" clip-path="url(#p5cd5c49f64)" style="fill: none; stroke-dasharray: 1.85,0.8; stroke-dashoffset: 0; stroke: #b2b2b2; stroke-opacity: 0.3; stroke-width: 0.5"/>
     </g>
     <g id="line2d_16">
      <g>
       <use xlink:href="#m806a0ea388" x="37.496875" y="275.496811" style="stroke: #000000; stroke-width: 0.8"/>
      </g>
     </g>
     <g id="text_9">
      <!-- 6.0 -->
      <g transform="translate(20.496875 278.590561) scale(0.09 -0.09)">
       <defs>
        <path id="SimHei-36" d="M 250 1612 
Q 275 1975 387 2225 
Q 500 2475 725 2850 
L 1750 4450 
L 2325 4450 
L 1275 2800 
Q 1950 2975 2350 2750 
Q 2750 2525 2887 2237 
Q 3025 1950 3037 1612 
Q 3050 1275 2937 950 
Q 2825 625 2537 362 
Q 2250 100 1737 75 
Q 1225 50 862 262 
Q 500 475 362 862 
Q 225 1250 250 1612 
z
M 1025 787 
Q 1250 550 1625 525 
Q 2000 500 2250 775 
Q 2500 1050 2500 1575 
Q 2500 2100 2187 2300 
Q 1875 2500 1487 2450 
Q 1100 2400 925 2075 
Q 750 1750 775 1387 
Q 800 1025 1025 787 
z
" transform="scale(0.015625)"/>
       </defs>
       <use xlink:href="#SimHei-36"/>
       <use xlink:href="#SimHei-2e" transform="translate(50 0)"/>
       <use xlink:href="#SimHei-30" transform="translate(100 0)"/>
      </g>
     </g>
    </g>
    <g id="ytick_4">
     <g id="line2d_17">
      <path d="M 37.496875 218.582618 
L 705.379375 218.582618 
" clip-path="url(#p5cd5c49f64)" style="fill: none; stroke-dasharray: 1.85,0.8; stroke-dashoffset: 0; stroke: #b2b2b2; stroke-opacity: 0.3; stroke-width: 0.5"/>
     </g>
     <g id="line2d_18">
      <g>
       <use xlink:href="#m806a0ea388" x="37.496875" y="218.582618" style="stroke: #000000; stroke-width: 0.8"/>
      </g>
     </g>
     <g id="text_10">
      <!-- 6.5 -->
      <g transform="translate(20.496875 221.676368) scale(0.09 -0.09)">
       <use xlink:href="#SimHei-36"/>
       <use xlink:href="#SimHei-2e" transform="translate(50 0)"/>
       <use xlink:href="#SimHei-35" transform="translate(100 0)"/>
      </g>
     </g>
    </g>
    <g id="ytick_5">
     <g id="line2d_19">
      <path d="M 37.496875 161.668425 
L 705.379375 161.668425 
" clip-path="url(#p5cd5c49f64)" style="fill: none; stroke-dasharray: 1.85,0.8; stroke-dashoffset: 0; stroke: #b2b2b2; stroke-opacity: 0.3; stroke-width: 0.5"/>
     </g>
     <g id="line2d_20">
      <g>
       <use xlink:href="#m806a0ea388" x="37.496875" y="161.668425" style="stroke: #000000; stroke-width: 0.8"/>
      </g>
     </g>
     <g id="text_11">
      <!-- 7.0 -->
      <g transform="translate(20.496875 164.762175) scale(0.09 -0.09)">
       <defs>
        <path id="SimHei-37" d="M 850 150 
Q 1300 2050 2425 3925 
L 275 3925 
L 275 4375 
L 2950 4375 
L 2950 3950 
Q 1775 2050 1400 150 
L 850 150 
z
" transform="scale(0.015625)"/>
       </defs>
       <use xlink:href="#SimHei-37"/>
       <use xlink:href="#SimHei-2e" transform="translate(50 0)"/>
       <use xlink:href="#SimHei-30" transform="translate(100 0)"/>
      </g>
     </g>
    </g>
    <g id="ytick_6">
     <g id="line2d_21">
      <path d="M 37.496875 104.754231 
L 705.379375 104.754231 
" clip-path="url(#p5cd5c49f64)" style="fill: none; stroke-dasharray: 1.85,0.8; stroke-dashoffset: 0; stroke: #b2b2b2; stroke-opacity: 0.3; stroke-width: 0.5"/>
     </g>
     <g id="line2d_22">
      <g>
       <use xlink:href="#m806a0ea388" x="37.496875" y="104.754231" style="stroke: #000000; stroke-width: 0.8"/>
      </g>
     </g>
     <g id="text_12">
      <!-- 7.5 -->
      <g transform="translate(20.496875 107.847981) scale(0.09 -0.09)">
       <use xlink:href="#SimHei-37"/>
       <use xlink:href="#SimHei-2e" transform="translate(50 0)"/>
       <use xlink:href="#SimHei-35" transform="translate(100 0)"/>
      </g>
     </g>
    </g>
    <g id="ytick_7">
     <g id="line2d_23">
      <path d="M 37.496875 47.840038 
L 705.379375 47.840038 
" clip-path="url(#p5cd5c49f64)" style="fill: none; stroke-dasharray: 1.85,0.8; stroke-dashoffset: 0; stroke: #b2b2b2; stroke-opacity: 0.3; stroke-width: 0.5"/>
     </g>
     <g id="line2d_24">
      <g>
       <use xlink:href="#m806a0ea388" x="37.496875" y="47.840038" style="stroke: #000000; stroke-width: 0.8"/>
      </g>
     </g>
     <g id="text_13">
      <!-- 8.0 -->
      <g transform="translate(20.496875 50.933788) scale(0.09 -0.09)">
       <defs>
        <path id="SimHei-38" d="M 175 1375 
Q 175 1675 325 1962 
Q 475 2250 825 2425 
Q 525 2600 425 2812 
Q 325 3025 312 3300 
Q 300 3575 387 3775 
Q 475 3975 650 4150 
Q 825 4325 1037 4387 
Q 1250 4450 1500 4450 
Q 1750 4450 1950 4400 
Q 2150 4350 2375 4187 
Q 2600 4025 2700 3725 
Q 2800 3425 2687 3025 
Q 2575 2625 2100 2400 
Q 2525 2275 2700 2012 
Q 2875 1750 2875 1375 
Q 2875 1000 2762 775 
Q 2650 550 2512 400 
Q 2375 250 2137 162 
Q 1900 75 1537 75 
Q 1175 75 912 162 
Q 650 250 475 425 
Q 300 600 237 837 
Q 175 1075 175 1375 
z
M 687 1400 
Q 675 1100 787 875 
Q 900 650 1200 587 
Q 1500 525 1825 600 
Q 2150 675 2275 950 
Q 2400 1225 2362 1500 
Q 2325 1775 2050 1962 
Q 1775 2150 1450 2125 
Q 1125 2100 912 1900 
Q 700 1700 687 1400 
z
M 775 3350 
Q 775 3100 950 2875 
Q 1125 2650 1500 2650 
Q 1875 2650 2062 2875 
Q 2250 3100 2237 3412 
Q 2225 3725 2012 3875 
Q 1800 4025 1437 4000 
Q 1075 3975 925 3787 
Q 775 3600 775 3350 
z
" transform="scale(0.015625)"/>
       </defs>
       <use xlink:href="#SimHei-38"/>
       <use xlink:href="#SimHei-2e" transform="translate(50 0)"/>
       <use xlink:href="#SimHei-30" transform="translate(100 0)"/>
      </g>
     </g>
    </g>
    <g id="text_14">
     <!-- pH 值 -->
     <g transform="translate(15.246875 222.289375) rotate(-90) scale(0.1 -0.1)">
      <defs>
       <path id="SimHei-70" d="M 2825 1525 
Q 2825 800 2475 425 
Q 2125 50 1625 50 
Q 1350 50 1150 162 
Q 950 275 800 500 
L 800 -800 
L 300 -800 
L 300 2925 
L 800 2925 
L 800 2550 
Q 950 2775 1150 2875 
Q 1350 2975 1625 2975 
Q 2125 2975 2475 2612 
Q 2825 2250 2825 1525 
z
M 2275 1525 
Q 2275 2000 2087 2262 
Q 1900 2525 1525 2525 
Q 1225 2525 1012 2262 
Q 800 2000 800 1525 
Q 800 1050 1012 775 
Q 1225 500 1525 500 
Q 1900 500 2087 775 
Q 2275 1050 2275 1525 
z
" transform="scale(0.015625)"/>
       <path id="SimHei-48" d="M 2850 125 
L 2275 125 
L 2275 2125 
L 850 2125 
L 850 125 
L 275 125 
L 275 4400 
L 850 4400 
L 850 2600 
L 2275 2600 
L 2275 4400 
L 2850 4400 
L 2850 125 
z
" transform="scale(0.015625)"/>
       <path id="SimHei-503c" d="M 3675 4450 
L 3675 5100 
Q 3975 5075 4350 5050 
Q 4225 4875 4200 4450 
L 5125 4450 
Q 5550 4450 5875 4475 
L 5875 4025 
Q 5525 4050 5125 4050 
L 4175 4050 
L 4125 3500 
L 5400 3500 
Q 5375 3200 5375 2700 
L 5375 150 
Q 5875 150 6100 175 
L 6100 -275 
Q 5775 -250 5200 -250 
L 2850 -250 
Q 2275 -250 1900 -275 
L 1900 175 
Q 2125 150 2600 150 
L 2600 2700 
Q 2600 3175 2575 3500 
L 3600 3500 
L 3650 4050 
L 3200 4050 
Q 2575 4050 2225 4025 
L 2225 4475 
Q 2550 4450 3200 4450 
L 3675 4450 
z
M 2225 4900 
Q 2025 4675 1650 3750 
L 1650 450 
Q 1650 -75 1675 -550 
L 1150 -550 
Q 1175 -125 1175 375 
L 1175 2950 
Q 875 2450 625 2150 
Q 425 2425 250 2575 
Q 500 2825 937 3537 
Q 1375 4250 1625 5150 
Q 1975 4975 2225 4900 
z
M 4925 2650 
L 4925 3150 
L 3075 3150 
L 3075 2650 
L 4925 2650 
z
M 4925 150 
L 4925 625 
L 3075 625 
L 3075 150 
L 4925 150 
z
M 4925 1000 
L 4925 1450 
L 3075 1450 
L 3075 1000 
L 4925 1000 
z
M 4925 1825 
L 4925 2275 
L 3075 2275 
L 3075 1825 
L 4925 1825 
z
" transform="scale(0.015625)"/>
      </defs>
      <use xlink:href="#SimHei-70"/>
      <use xlink:href="#SimHei-48" transform="translate(50 0)"/>
      <use xlink:href="#SimHei-20" transform="translate(100 0)"/>
      <use xlink:href="#SimHei-503c" transform="translate(150 0)"/>
     </g>
    </g>
   </g>
   <g id="line2d_25">
    <path d="M 67.85517 210.614631 
L 68.132289 215.167766 
L 68.409407 214.029482 
L 68.686525 228.827173 
L 68.963643 231.10374 
L 69.240761 240.210011 
L 69.517879 226.550605 
L 69.794998 232.242024 
L 70.072116 210.614631 
L 70.349234 237.933444 
L 70.626352 223.135753 
L 70.90347 223.135753 
L 71.180588 225.412321 
L 71.457707 220.859186 
L 71.734825 227.688889 
L 72.011943 216.30605 
L 72.289061 217.444334 
L 72.566179 225.412321 
L 72.843298 239.071727 
L 73.120416 233.380308 
L 73.397534 194.678657 
L 73.674652 219.720902 
L 74.228888 229.965457 
L 74.506007 198.093508 
L 74.783125 214.029482 
L 75.060243 212.891199 
L 75.337361 200.370076 
L 75.614479 195.816941 
L 75.891597 233.380308 
L 76.168716 221.997469 
L 76.445834 231.10374 
L 76.722952 214.029482 
L 77.00007 224.274037 
L 77.277188 226.550605 
L 77.554306 231.10374 
L 77.831425 244.763147 
L 78.108543 247.039715 
L 78.385661 245.901431 
L 78.662779 235.656876 
L 78.939897 236.79516 
L 79.217015 217.444334 
L 79.494134 242.486579 
L 79.771252 245.901431 
L 80.04837 261.837405 
L 80.325488 257.284269 
L 80.602606 239.071727 
L 80.879724 229.965457 
L 81.156843 229.965457 
L 81.433961 245.901431 
L 81.711079 220.859186 
L 82.265315 242.486579 
L 82.542433 232.242024 
L 82.819552 241.348295 
L 83.373788 177.604399 
L 83.928024 199.231792 
L 84.205142 179.880966 
L 84.482261 175.327831 
L 85.036497 202.646644 
L 85.313615 193.540373 
L 85.590733 177.604399 
L 86.14497 188.987237 
L 86.422088 185.572386 
L 86.699206 194.678657 
L 86.976324 214.029482 
L 87.253442 216.30605 
L 87.53056 206.061495 
L 87.807679 206.061495 
L 88.084797 212.891199 
L 88.361915 207.199779 
L 88.639033 198.093508 
L 89.193269 200.370076 
L 89.470388 202.646644 
L 89.747506 207.199779 
L 90.024624 206.061495 
L 90.57886 226.550605 
L 90.855979 199.231792 
L 91.133097 194.678657 
L 91.410215 200.370076 
L 91.687333 200.370076 
L 91.964451 217.444334 
L 92.241569 221.997469 
L 92.518688 204.923211 
L 92.795806 196.955224 
L 93.350042 199.231792 
L 93.904278 209.476347 
L 94.181397 207.199779 
L 94.458515 195.816941 
L 94.735633 200.370076 
L 95.012751 202.646644 
L 95.289869 196.955224 
L 95.566987 200.370076 
L 95.844106 196.955224 
L 96.121224 195.816941 
L 96.398342 196.955224 
L 96.67546 196.955224 
L 96.952578 211.752915 
L 97.229696 195.816941 
L 97.506815 199.231792 
L 97.783933 199.231792 
L 98.061051 209.476347 
L 98.338169 201.50836 
L 98.892405 211.752915 
L 99.169524 206.061495 
L 99.446642 206.061495 
L 99.72376 204.923211 
L 100.000878 207.199779 
L 100.277996 216.30605 
L 100.555114 248.177998 
L 101.109351 215.167766 
L 101.386469 208.338063 
L 101.940705 216.30605 
L 102.217823 202.646644 
L 102.494942 198.093508 
L 102.77206 208.338063 
L 103.049178 207.199779 
L 103.326296 215.167766 
L 103.603414 208.338063 
L 103.880532 214.029482 
L 104.157651 210.614631 
L 104.434769 209.476347 
L 104.711887 206.061495 
L 104.989005 211.752915 
L 105.266123 209.476347 
L 105.543241 215.167766 
L 105.82036 208.338063 
L 106.097478 211.752915 
L 106.374596 207.199779 
L 106.651714 207.199779 
L 106.928832 219.720902 
L 107.205951 208.338063 
L 107.483069 210.614631 
L 108.037305 217.444334 
L 108.314423 223.135753 
L 108.591541 215.167766 
L 108.86866 218.582618 
L 109.145778 218.582618 
L 109.422896 225.412321 
L 109.977132 215.167766 
L 110.25425 226.550605 
L 110.531369 219.720902 
L 110.808487 220.859186 
L 111.085605 223.135753 
L 111.362723 223.135753 
L 111.639841 226.550605 
L 111.916959 223.135753 
L 112.194078 224.274037 
L 112.471196 219.720902 
L 113.025432 224.274037 
L 113.30255 220.859186 
L 113.579668 220.859186 
L 113.856787 223.135753 
L 114.133905 219.720902 
L 114.411023 225.412321 
L 114.688141 224.274037 
L 114.965259 226.550605 
L 115.242377 226.550605 
L 115.519496 228.827173 
L 116.35085 228.827173 
L 116.627968 231.10374 
L 116.905086 231.10374 
L 117.182205 220.859186 
L 117.459323 227.688889 
L 117.736441 227.688889 
L 118.013559 217.444334 
L 118.290677 212.891199 
L 118.567795 220.859186 
L 118.844914 219.720902 
L 119.122032 224.274037 
L 119.39915 219.720902 
L 119.676268 219.720902 
L 119.953386 224.274037 
L 120.230504 251.59285 
L 120.507623 260.699121 
L 120.784741 248.177998 
L 121.061859 248.177998 
L 121.616095 211.752915 
L 121.893213 218.582618 
L 122.170332 220.859186 
L 122.44745 219.720902 
L 123.001686 219.720902 
L 123.278804 216.30605 
L 123.555922 221.997469 
L 123.833041 220.859186 
L 124.110159 221.997469 
L 124.387277 220.859186 
L 124.664395 224.274037 
L 125.218632 216.30605 
L 125.49575 215.167766 
L 125.772868 223.135753 
L 126.049986 218.582618 
L 126.327104 220.859186 
L 126.881341 214.029482 
L 127.435577 224.274037 
L 127.712695 234.518592 
L 127.989813 224.274037 
L 128.266931 224.274037 
L 128.54405 223.135753 
L 128.821168 237.933444 
L 129.098286 228.827173 
L 129.375404 228.827173 
L 129.652522 229.965457 
L 129.92964 234.518592 
L 130.206759 248.177998 
L 130.483877 244.763147 
L 130.760995 226.550605 
L 131.038113 237.933444 
L 131.315231 241.348295 
L 131.592349 241.348295 
L 131.869468 234.518592 
L 132.146586 236.79516 
L 132.423704 234.518592 
L 132.700822 235.656876 
L 132.97794 231.10374 
L 133.255058 236.79516 
L 133.532177 239.071727 
L 133.809295 229.965457 
L 134.086413 231.10374 
L 134.363531 236.79516 
L 134.640649 235.656876 
L 134.917767 242.486579 
L 135.194886 237.933444 
L 135.472004 240.210011 
L 135.749122 228.827173 
L 136.02624 224.274037 
L 136.303358 228.827173 
L 136.580476 239.071727 
L 136.857595 243.624863 
L 137.134713 241.348295 
L 137.411831 240.210011 
L 137.688949 234.518592 
L 137.966067 242.486579 
L 138.243185 240.210011 
L 138.797422 225.412321 
L 139.07454 227.688889 
L 139.351658 233.380308 
L 139.628776 233.380308 
L 139.905894 219.720902 
L 140.183013 240.210011 
L 140.460131 224.274037 
L 140.737249 226.550605 
L 141.014367 233.380308 
L 141.291485 224.274037 
L 141.568604 235.656876 
L 141.845722 226.550605 
L 142.12284 231.10374 
L 142.399958 240.210011 
L 142.677076 236.79516 
L 142.954194 227.688889 
L 143.231313 225.412321 
L 143.508431 231.10374 
L 143.785549 231.10374 
L 144.062667 233.380308 
L 144.339785 239.071727 
L 144.894022 229.965457 
L 145.17114 229.965457 
L 145.448258 228.827173 
L 145.725376 232.242024 
L 146.002494 260.699121 
L 146.279612 226.550605 
L 146.556731 208.338063 
L 146.833849 217.444334 
L 147.110967 217.444334 
L 147.388085 232.242024 
L 147.665203 233.380308 
L 147.942321 226.550605 
L 148.21944 242.486579 
L 148.496558 251.59285 
L 148.773676 224.274037 
L 149.050794 218.582618 
L 149.327912 223.135753 
L 149.60503 237.933444 
L 149.882149 240.210011 
L 150.159267 255.007702 
L 150.436385 227.688889 
L 150.713503 227.688889 
L 150.990621 224.274037 
L 151.267739 216.30605 
L 151.544858 220.859186 
L 151.821976 240.210011 
L 152.099094 235.656876 
L 152.65333 231.10374 
L 152.930448 224.274037 
L 153.207567 232.242024 
L 153.484685 260.699121 
L 153.761803 210.614631 
L 154.038921 215.167766 
L 154.316039 242.486579 
L 154.593157 231.10374 
L 154.870276 228.827173 
L 155.147394 237.933444 
L 155.424512 218.582618 
L 155.70163 215.167766 
L 155.978748 215.167766 
L 156.255866 212.891199 
L 156.532985 212.891199 
L 156.810103 217.444334 
L 157.087221 218.582618 
L 157.364339 214.029482 
L 157.641457 215.167766 
L 157.918575 215.167766 
L 158.195694 216.30605 
L 158.472812 215.167766 
L 158.74993 215.167766 
L 159.304166 221.997469 
L 159.581285 221.997469 
L 159.858403 226.550605 
L 160.412639 211.752915 
L 160.689757 215.167766 
L 160.966875 215.167766 
L 161.243994 212.891199 
L 161.521112 214.029482 
L 161.79823 214.029482 
L 162.075348 215.167766 
L 162.352466 210.614631 
L 162.629584 215.167766 
L 162.906703 211.752915 
L 163.183821 217.444334 
L 163.460939 235.656876 
L 163.738057 231.10374 
L 164.569412 206.061495 
L 164.84653 204.923211 
L 165.123648 218.582618 
L 165.400766 220.859186 
L 165.677884 224.274037 
L 165.955002 221.997469 
L 166.232121 221.997469 
L 166.509239 218.582618 
L 166.786357 218.582618 
L 167.340593 227.688889 
L 167.617711 220.859186 
L 167.89483 226.550605 
L 168.171948 228.827173 
L 168.726184 196.955224 
L 169.28042 221.997469 
L 169.557539 228.827173 
L 169.834657 219.720902 
L 170.111775 203.784928 
L 170.388893 204.923211 
L 170.666011 219.720902 
L 170.943129 224.274037 
L 171.220248 214.029482 
L 171.497366 216.30605 
L 172.051602 228.827173 
L 172.32872 214.029482 
L 172.605838 208.338063 
L 172.882957 208.338063 
L 173.160075 209.476347 
L 173.437193 218.582618 
L 173.714311 209.476347 
L 173.991429 211.752915 
L 174.268547 219.720902 
L 174.545666 219.720902 
L 174.822784 221.997469 
L 175.37702 232.242024 
L 175.654138 220.859186 
L 176.208375 216.30605 
L 176.485493 210.614631 
L 176.762611 219.720902 
L 177.039729 224.274037 
L 177.316847 224.274037 
L 177.593966 211.752915 
L 177.871084 186.71067 
L 178.42532 203.784928 
L 178.702438 202.646644 
L 178.979556 207.199779 
L 179.256675 209.476347 
L 179.533793 216.30605 
L 179.810911 215.167766 
L 180.088029 216.30605 
L 180.642265 224.274037 
L 180.919384 221.997469 
L 181.196502 224.274037 
L 181.750738 236.79516 
L 182.027856 237.933444 
L 182.304974 241.348295 
L 182.582093 241.348295 
L 182.859211 237.933444 
L 183.413447 240.210011 
L 183.690565 234.518592 
L 183.967683 194.678657 
L 184.244802 191.263805 
L 184.52192 201.50836 
L 184.799038 202.646644 
L 185.353274 216.30605 
L 185.630392 210.614631 
L 185.907511 208.338063 
L 186.184629 209.476347 
L 186.461747 204.923211 
L 186.738865 203.784928 
L 187.015983 203.784928 
L 187.293101 179.880966 
L 187.57022 194.678657 
L 187.847338 198.093508 
L 188.124456 203.784928 
L 188.401574 201.50836 
L 188.678692 202.646644 
L 188.95581 207.199779 
L 189.232929 209.476347 
L 189.510047 212.891199 
L 190.064283 227.688889 
L 190.341401 206.061495 
L 190.618519 210.614631 
L 190.895638 209.476347 
L 191.449874 209.476347 
L 191.726992 207.199779 
L 192.00411 206.061495 
L 192.281229 209.476347 
L 192.558347 210.614631 
L 193.112583 215.167766 
L 193.389701 216.30605 
L 193.666819 215.167766 
L 193.943938 223.135753 
L 194.221056 226.550605 
L 194.498174 220.859186 
L 194.775292 218.582618 
L 195.05241 232.242024 
L 195.329528 240.210011 
L 195.606647 241.348295 
L 195.883765 237.933444 
L 196.160883 237.933444 
L 196.438001 224.274037 
L 196.715119 219.720902 
L 196.992237 220.859186 
L 197.269356 227.688889 
L 197.546474 229.965457 
L 197.823592 223.135753 
L 198.10071 220.859186 
L 198.377828 223.135753 
L 198.654946 229.965457 
L 198.932065 221.997469 
L 199.209183 224.274037 
L 199.486301 235.656876 
L 199.763419 233.380308 
L 200.040537 221.997469 
L 200.317655 217.444334 
L 200.594774 224.274037 
L 200.871892 227.688889 
L 201.703246 218.582618 
L 201.980364 223.135753 
L 202.257483 220.859186 
L 202.534601 224.274037 
L 202.811719 225.412321 
L 203.365955 229.965457 
L 203.643073 236.79516 
L 203.920192 235.656876 
L 204.19731 237.933444 
L 204.474428 235.656876 
L 204.751546 235.656876 
L 205.028664 233.380308 
L 205.305782 234.518592 
L 205.582901 234.518592 
L 205.860019 221.997469 
L 206.137137 216.30605 
L 206.414255 218.582618 
L 206.968491 227.688889 
L 207.24561 225.412321 
L 207.522728 227.688889 
L 207.799846 226.550605 
L 208.076964 228.827173 
L 208.354082 227.688889 
L 208.908319 241.348295 
L 209.185437 242.486579 
L 209.462555 240.210011 
L 209.739673 240.210011 
L 210.016791 215.167766 
L 210.571028 242.486579 
L 210.848146 241.348295 
L 211.125264 237.933444 
L 211.402382 240.210011 
L 211.6795 236.79516 
L 212.233737 247.039715 
L 212.510855 250.454566 
L 212.787973 244.763147 
L 213.342209 257.284269 
L 213.619328 244.763147 
L 213.896446 247.039715 
L 214.173564 251.59285 
L 214.450682 244.763147 
L 214.7278 262.975689 
L 215.004918 247.039715 
L 215.559155 249.316282 
L 215.836273 247.039715 
L 216.113391 249.316282 
L 216.390509 243.624863 
L 216.944746 253.869418 
L 217.221864 250.454566 
L 217.7761 239.071727 
L 218.053218 243.624863 
L 218.330336 241.348295 
L 218.607455 240.210011 
L 218.884573 240.210011 
L 219.438809 245.901431 
L 219.715927 245.901431 
L 219.993045 241.348295 
L 220.270164 247.039715 
L 220.547282 245.901431 
L 220.8244 247.039715 
L 221.101518 250.454566 
L 221.378636 251.59285 
L 221.655754 248.177998 
L 221.932873 248.177998 
L 222.209991 250.454566 
L 222.487109 249.316282 
L 222.764227 250.454566 
L 223.041345 252.731134 
L 223.318463 244.763147 
L 223.595582 252.731134 
L 223.8727 252.731134 
L 224.149818 250.454566 
L 224.426936 251.59285 
L 224.704054 253.869418 
L 224.981172 262.975689 
L 225.258291 252.731134 
L 225.535409 257.284269 
L 225.812527 250.454566 
L 226.089645 252.731134 
L 226.366763 252.731134 
L 226.643882 244.763147 
L 226.921 260.699121 
L 227.198118 256.145985 
L 227.475236 257.284269 
L 227.752354 256.145985 
L 228.029472 258.422553 
L 228.306591 251.59285 
L 228.583709 257.284269 
L 228.860827 255.007702 
L 229.137945 255.007702 
L 229.415063 260.471464 
L 229.692181 262.520375 
L 229.9693 247.153543 
L 230.246418 250.682223 
L 230.523536 261.837405 
L 230.800654 260.243807 
L 231.077772 256.373642 
L 231.632009 152.448325 
L 231.909127 148.57816 
L 232.186245 154.155751 
L 232.463363 150.627071 
L 232.740481 164.969448 
L 233.017599 163.717335 
L 233.294718 153.700437 
L 233.571836 150.968556 
L 233.848954 149.830272 
L 234.126072 150.399414 
L 234.40319 145.277137 
L 234.680308 148.464332 
L 234.957427 130.479447 
L 235.234545 131.390074 
L 235.511663 136.626179 
L 235.788781 134.918754 
L 236.065899 139.130404 
L 236.343017 133.438985 
L 236.620136 133.78047 
L 236.897254 135.032582 
L 237.45149 141.5208 
L 237.728608 139.244232 
L 238.005726 129.227334 
L 238.282845 129.113506 
L 238.559963 131.61773 
L 238.837081 135.943209 
L 239.114199 135.14641 
L 239.668435 131.162417 
L 239.945554 131.390074 
L 240.222672 138.788919 
L 240.49979 150.171757 
L 240.776908 140.610173 
L 241.054026 146.187764 
L 241.331144 184.775587 
L 241.608263 131.276245 
L 241.885381 132.300701 
L 242.162499 145.618622 
L 242.439617 168.953441 
L 242.716735 179.880966 
L 242.993853 177.604399 
L 243.54809 158.708886 
L 243.825208 152.334497 
L 244.379444 151.993012 
L 244.656563 146.301592 
L 245.210799 168.611956 
L 245.487917 130.479447 
L 246.042153 140.268688 
L 246.319272 144.252681 
L 246.59639 140.382516 
L 246.873508 130.365618 
L 247.150626 127.975222 
L 247.704862 130.820932 
L 247.981981 131.61773 
L 248.259099 138.67509 
L 248.536217 141.065487 
L 248.813335 137.422978 
L 249.090453 129.910305 
L 249.367571 136.170866 
L 249.64469 132.073044 
L 250.198926 132.414529 
L 250.476044 133.211328 
L 250.753162 125.926311 
L 251.03028 125.812483 
L 251.307399 126.153968 
L 251.584517 131.048589 
L 251.861635 140.83783 
L 252.138753 127.747565 
L 252.415871 126.267796 
L 252.692989 125.812483 
L 252.970108 124.56037 
L 253.247226 130.820932 
L 253.524344 127.178423 
L 253.801462 126.836938 
L 254.07858 132.983671 
L 254.355698 153.814266 
L 254.632817 151.879183 
L 254.909935 153.358952 
L 255.741289 141.5208 
L 256.018407 138.67509 
L 256.295526 125.015684 
L 256.572644 130.93476 
L 256.849762 130.820932 
L 257.12688 130.25179 
L 257.403998 132.073044 
L 257.681116 128.772021 
L 257.958235 132.300701 
L 258.512471 123.8774 
L 258.789589 131.048589 
L 259.343825 124.674199 
L 259.620944 131.959216 
L 259.898062 120.34872 
L 260.17518 123.19443 
L 260.452298 123.649743 
L 260.729416 127.519909 
L 261.006535 129.113506 
L 261.283653 125.698654 
L 261.560771 144.138853 
L 261.837889 121.145519 
L 262.115007 129.568819 
L 262.669244 119.66575 
L 262.946362 139.927203 
L 263.500598 117.275354 
L 263.777716 121.942318 
L 264.054834 123.649743 
L 264.331953 119.551921 
L 264.609071 121.600832 
L 264.886189 136.967665 
L 265.163307 134.121955 
L 265.440425 111.014792 
L 265.717543 112.039248 
L 266.27178 118.413638 
L 266.826016 122.397631 
L 267.103134 121.828489 
L 267.380252 116.933869 
L 267.657371 122.169974 
L 267.934489 122.852945 
L 268.211607 123.080601 
L 268.488725 127.633737 
L 268.765843 114.315816 
L 269.042961 124.56037 
L 269.32008 113.519017 
L 269.597198 112.153076 
L 269.874316 118.641294 
L 270.151434 117.161525 
L 270.428552 120.121063 
L 270.70567 117.389182 
L 271.259907 120.007235 
L 271.537025 129.910305 
L 271.814143 151.651526 
L 272.091261 155.977005 
L 272.368379 154.838721 
L 272.645498 144.707995 
L 272.922616 142.089942 
L 273.199734 122.966773 
L 273.476852 111.92542 
L 274.031088 123.19443 
L 274.585325 125.015684 
L 274.862443 128.885849 
L 275.416679 162.00991 
L 275.693797 158.595058 
L 276.248034 123.422087 
L 276.525152 122.283803 
L 276.80227 133.438985 
L 277.079388 127.178423 
L 277.356506 116.706212 
L 277.633625 89.501227 
L 277.910743 88.135287 
L 278.464979 107.486112 
L 278.742097 97.8107 
L 279.019216 109.07971 
L 279.296334 114.657301 
L 279.573452 111.242449 
L 279.85057 126.72311 
L 280.127688 133.325156 
L 280.404806 130.707103 
L 280.681925 129.910305 
L 280.959043 137.422978 
L 281.513279 131.276245 
L 281.790397 135.487896 
L 282.067515 128.08905 
L 282.344634 126.153968 
L 282.89887 136.740008 
L 283.453106 114.543472 
L 283.730224 141.065487 
L 284.007343 147.439876 
L 284.284461 135.374067 
L 284.561579 143.455883 
L 285.115815 109.876509 
L 285.392933 115.795585 
L 285.94717 118.299809 
L 286.224288 125.470998 
L 286.501406 113.97433 
L 286.778524 113.519017 
L 287.055642 121.487004 
L 287.609879 114.884958 
L 287.886997 121.373176 
L 288.164115 118.527466 
L 288.441233 112.380733 
L 288.718351 117.730667 
L 288.99547 108.282911 
L 289.272588 113.29136 
L 289.549706 110.104165 
L 290.103942 132.642186 
L 290.658179 119.551921 
L 290.935297 117.844496 
L 291.212415 124.674199 
L 291.489533 126.381625 
L 291.766651 131.845387 
L 292.043769 123.308258 
L 292.320888 130.365618 
L 292.598006 126.381625 
L 292.875124 125.812483 
L 293.152242 129.568819 
L 293.42936 128.885849 
L 293.983597 155.066378 
L 294.260715 131.162417 
L 294.537833 133.552813 
L 294.814951 128.772021 
L 295.092069 127.519909 
L 295.369188 129.454991 
L 295.646306 124.105057 
L 295.923424 149.033474 
L 296.200542 121.600832 
L 296.47766 127.40608 
L 297.031897 130.593275 
L 297.309015 127.292252 
L 297.586133 126.836938 
L 298.140369 133.894298 
L 298.417487 129.227334 
L 298.694606 140.041031 
L 298.971724 127.519909 
L 299.248842 125.926311 
L 299.52596 127.40608 
L 299.803078 127.178423 
L 300.080196 130.25179 
L 300.357315 135.374067 
L 300.634433 133.438985 
L 300.911551 140.951658 
L 301.465787 146.756906 
L 301.742905 138.219777 
L 302.020024 141.065487 
L 302.297142 152.562154 
L 302.57426 136.740008 
L 303.128496 156.204662 
L 303.405614 141.862285 
L 303.682733 147.212219 
L 304.236969 140.724001 
L 304.514087 150.057929 
L 304.791205 152.903639 
L 305.345442 137.081493 
L 305.62256 142.772912 
L 305.899678 140.154859 
L 306.176796 139.927203 
L 306.453914 137.195321 
L 306.731032 136.284694 
L 307.008151 136.853836 
L 307.285269 135.943209 
L 307.839505 146.643077 
L 308.116623 143.228226 
L 308.393741 138.105948 
L 308.67086 144.025025 
L 308.947978 139.699546 
L 309.502214 158.936543 
L 309.779332 158.253573 
L 310.05645 153.017467 
L 310.333569 144.252681 
L 310.610687 149.147302 
L 310.887805 147.781361 
L 311.164923 149.147302 
L 311.442041 148.122847 
L 311.71916 151.651526 
L 311.996278 178.401197 
L 312.273396 177.035257 
L 312.550514 174.758689 
L 312.827632 183.86496 
L 313.10475 183.86496 
L 313.381869 165.083276 
L 313.658987 161.099283 
L 313.936105 160.871626 
L 314.213223 163.034365 
L 314.490341 168.611956 
L 314.767459 158.139745 
L 315.321696 169.294926 
L 315.598814 160.188655 
L 315.875932 159.1642 
L 316.15305 165.766246 
L 316.430168 164.058821 
L 316.707287 159.84717 
L 316.984405 161.099283 
L 317.261523 160.188655 
L 317.538641 160.074827 
L 317.815759 161.440768 
L 318.092877 181.133079 
L 318.369996 162.00991 
L 318.647114 183.978788 
L 318.924232 182.271363 
L 319.20135 165.652418 
L 319.478468 181.929877 
L 319.755586 184.889415 
L 320.032705 171.002352 
L 320.309823 186.483013 
L 320.586941 181.929877 
L 320.864059 164.741791 
L 321.141177 177.604399 
L 321.418295 172.823606 
L 321.695414 166.107732 
L 321.972532 167.018359 
L 322.24965 171.343837 
L 322.526768 167.246015 
L 322.803886 170.205554 
L 323.358123 160.530141 
L 323.635241 205.833839 
L 323.912359 204.126413 
L 324.189477 211.069944 
L 324.466595 194.564828 
L 324.743713 189.670208 
L 325.020832 208.338063 
L 325.29795 193.76803 
L 325.575068 193.085059 
L 325.852186 193.198888 
L 326.129304 190.580835 
L 326.406422 207.655093 
L 326.683541 190.808492 
L 326.960659 183.068161 
L 327.237777 189.556379 
L 327.514895 187.39364 
L 327.792013 191.377633 
L 328.069131 200.939218 
L 328.34625 184.889415 
L 328.623368 179.084168 
L 328.900486 190.92232 
L 329.177604 184.434102 
L 329.454722 183.751132 
L 329.731841 180.905422 
L 330.008959 191.263805 
L 330.286077 177.718227 
L 330.563195 177.718227 
L 330.840313 194.564828 
L 331.117431 191.377633 
L 331.39455 184.889415 
L 331.948786 177.945884 
L 332.225904 180.33628 
L 332.503022 199.687106 
L 332.78014 188.304267 
L 333.057259 186.369184 
L 333.334377 188.987237 
L 333.611495 188.987237 
L 333.888613 188.531924 
L 334.165731 199.231792 
L 334.442849 187.848953 
L 334.719968 187.279812 
L 334.997086 190.125521 
L 335.274204 182.612848 
L 335.551322 183.068161 
L 335.82844 185.913871 
L 336.105558 178.856511 
L 336.382677 177.945884 
L 336.936913 169.181098 
L 337.214031 170.660867 
L 337.491149 174.644861 
L 337.768267 183.751132 
L 338.045386 184.092617 
L 338.322504 189.784036 
L 338.599622 189.784036 
L 338.87674 281.529716 
L 339.153858 183.86496 
L 339.430976 188.418095 
L 339.708095 176.921428 
L 340.262331 192.743574 
L 340.539449 181.01925 
L 340.816567 184.889415 
L 341.093685 190.580835 
L 341.370804 212.208228 
L 341.647922 205.947667 
L 341.92504 193.312716 
L 342.202158 201.166875 
L 342.479276 202.988129 
L 343.310631 191.946775 
L 343.864867 197.97968 
L 344.141985 192.402089 
L 344.419103 182.157534 
L 344.696222 187.962782 
L 344.97334 177.262914 
L 345.250458 176.921428 
L 345.527576 189.556379 
L 346.081813 200.370076 
L 346.358931 197.638195 
L 346.636049 197.410538 
L 346.913167 183.068161 
L 347.190285 181.246907 
L 347.467403 186.255356 
L 347.744522 193.540373 
L 348.02164 181.133079 
L 348.298758 182.726676 
L 348.575876 185.344729 
L 348.852994 182.043706 
L 349.130112 309.986812 
L 349.407231 232.469681 
L 349.684349 241.120638 
L 349.961467 244.194005 
L 350.515703 230.989912 
L 351.06994 219.720902 
L 351.347058 209.134862 
L 351.624176 204.809383 
L 351.901294 215.736908 
L 352.178412 192.743574 
L 352.45553 207.313608 
L 352.732649 204.35407 
L 353.009767 203.443442 
L 353.286885 202.988129 
L 353.564003 198.548822 
L 353.841121 197.865851 
L 354.118239 196.386082 
L 354.395358 189.897864 
L 354.672476 192.060604 
L 354.949594 192.288261 
L 355.50383 181.474564 
L 355.780948 169.06727 
L 356.058067 173.165092 
L 356.335185 166.676874 
L 356.612303 176.12463 
L 356.889421 180.222452 
L 357.166539 166.22156 
L 357.720776 182.157534 
L 357.997894 193.881858 
L 358.275012 189.897864 
L 358.55213 193.995686 
L 358.829248 194.109515 
L 359.106366 171.343837 
L 359.383485 166.790702 
L 359.660603 171.002352 
L 359.937721 166.90453 
L 360.214839 168.953441 
L 360.491957 166.790702 
L 360.769075 167.246015 
L 361.046194 171.116181 
L 361.323312 165.310933 
L 362.154666 175.783144 
L 362.431784 151.082385 
L 362.708903 167.587501 
L 362.986021 159.619514 
L 363.263139 158.822715 
L 363.540257 165.766246 
L 364.094494 171.571494 
L 364.371612 158.367401 
L 364.64873 163.37585 
L 364.925848 163.944992 
L 365.202966 171.457666 
L 365.480084 157.798259 
L 365.757203 168.953441 
L 366.034321 168.498128 
L 366.311439 164.627963 
L 366.588557 166.790702 
L 366.865675 159.505685 
L 367.142793 160.871626 
L 367.419912 176.352286 
L 367.69703 152.675982 
L 368.251266 161.099283 
L 368.528384 159.505685 
L 368.805502 166.790702 
L 369.082621 151.993012 
L 369.359739 160.530141 
L 369.636857 160.871626 
L 369.913975 163.148194 
L 370.191093 157.342946 
L 370.468211 154.269579 
L 370.74533 170.319382 
L 371.022448 212.435885 
L 371.299566 200.142419 
L 371.576684 173.734234 
L 371.853802 175.327831 
L 372.13092 161.782253 
L 372.685157 190.580835 
L 372.962275 188.304267 
L 373.239393 191.036148 
L 373.516511 191.832947 
L 374.070748 184.775587 
L 374.347866 156.204662 
L 374.624984 152.10684 
L 374.902102 159.505685 
L 375.17922 153.814266 
L 375.733457 176.352286 
L 376.287693 167.928986 
L 376.564811 173.96189 
L 376.841929 230.534598 
L 377.119047 138.447434 
L 377.396166 143.455883 
L 377.673284 162.123738 
L 377.950402 162.237566 
L 378.22752 160.871626 
L 378.504638 145.73245 
L 378.781756 182.612848 
L 379.058875 198.66265 
L 379.335993 162.237566 
L 379.613111 153.928094 
L 379.890229 156.659976 
L 380.167347 157.229117 
L 380.444466 175.100174 
L 380.721584 149.26113 
L 380.998702 170.205554 
L 381.27582 157.912088 
L 381.552938 162.351395 
L 382.107175 150.399414 
L 382.938529 167.132187 
L 383.215647 166.790702 
L 384.047002 142.545256 
L 384.32412 156.887632 
L 384.601238 160.530141 
L 384.878356 143.114397 
L 385.432593 154.041923 
L 385.709711 148.691988 
L 385.986829 137.878292 
L 386.263947 138.333605 
L 387.095302 146.984563 
L 387.37242 147.326048 
L 387.926656 157.115289 
L 388.203774 156.659976 
L 388.480892 149.830272 
L 389.312247 183.751132 
L 389.589365 157.342946 
L 389.866483 163.37585 
L 390.143601 165.652418 
L 390.42072 162.123738 
L 390.697838 163.831164 
L 391.529192 181.246907 
L 391.80631 181.360735 
L 392.083429 189.784036 
L 392.637665 181.133079 
L 392.914783 181.929877 
L 393.191901 189.101066 
L 393.469019 182.954333 
L 393.746138 187.848953 
L 394.023256 195.020142 
L 394.300374 208.110406 
L 394.577492 195.930769 
L 394.85461 195.247799 
L 395.131728 185.230901 
L 395.408847 185.117072 
L 395.685965 202.760472 
L 395.963083 205.264697 
L 396.240201 191.491462 
L 396.517319 196.386082 
L 396.794437 190.125521 
L 397.071556 177.262914 
L 397.348674 179.539481 
L 397.625792 190.808492 
L 398.180028 160.757797 
L 399.011383 179.880966 
L 399.288501 181.360735 
L 399.842737 195.475455 
L 400.119856 201.736017 
L 400.396974 186.141528 
L 400.674092 185.003244 
L 400.95121 205.264697 
L 401.228328 190.694663 
L 401.505446 185.913871 
L 401.782565 190.011693 
L 402.059683 186.938326 
L 402.336801 192.971231 
L 402.613919 195.475455 
L 402.891037 193.426544 
L 403.168155 195.13397 
L 403.445274 192.060604 
L 403.722392 192.629746 
L 403.99951 196.613739 
L 404.276628 197.638195 
L 404.830864 223.704895 
L 405.107983 223.135753 
L 405.385101 223.36341 
L 405.662219 214.940109 
L 405.939337 217.558162 
L 406.493573 232.811166 
L 406.770692 223.477239 
L 407.04781 225.753806 
L 407.324928 222.68044 
L 407.602046 206.516809 
L 407.879164 221.200671 
L 408.433401 210.159317 
L 408.710519 212.435885 
L 408.987637 206.061495 
L 409.264755 204.923211 
L 409.541873 200.370076 
L 409.818991 202.077502 
L 410.09611 214.029482 
L 410.650346 249.885424 
L 410.927464 247.039715 
L 411.204582 223.477239 
L 411.4817 221.997469 
L 411.758819 218.582618 
L 412.035937 230.762255 
L 412.313055 250.796051 
L 412.590173 253.186447 
L 413.144409 247.722685 
L 413.421528 254.666216 
L 413.698646 257.398098 
L 413.975764 252.27582 
L 414.252882 258.536382 
L 414.53 255.349187 
L 414.807119 255.12153 
L 415.084237 241.120638 
L 415.361355 240.437668 
L 415.638473 241.00681 
L 415.915591 243.511035 
L 416.192709 275.496811 
L 416.469828 226.095291 
L 416.746946 259.560837 
L 417.024064 272.651102 
L 417.5783 168.725784 
L 417.855418 192.743574 
L 418.132537 200.028591 
L 418.409655 198.66265 
L 418.686773 213.574169 
L 418.963891 213.801826 
L 419.241009 203.215786 
L 419.518127 202.19133 
L 419.795246 204.695555 
L 420.072364 191.832947 
L 420.349482 191.832947 
L 420.6266 189.784036 
L 420.903718 199.573277 
L 421.180836 181.929877 
L 421.457955 182.043706 
L 421.735073 180.905422 
L 422.012191 177.49057 
L 422.289309 189.897864 
L 422.566427 187.507468 
L 422.843545 195.930769 
L 423.120664 192.971231 
L 423.6749 211.525258 
L 423.952018 214.484796 
L 424.229136 215.167766 
L 424.506254 207.313608 
L 424.783373 218.924103 
L 425.060491 215.62308 
L 425.337609 219.720902 
L 425.614727 225.981463 
L 425.891845 235.656876 
L 426.446082 245.901431 
L 426.7232 207.655093 
L 427.000318 210.045489 
L 427.277436 210.159317 
L 427.554554 212.0944 
L 427.831672 234.290935 
L 428.108791 241.00681 
L 428.385909 232.128196 
L 428.663027 234.063278 
L 428.940145 208.793377 
L 429.217263 211.069944 
L 429.494381 234.973906 
L 429.7715 236.79516 
L 430.325736 216.875192 
L 430.602854 221.314499 
L 430.879972 219.83473 
L 431.15709 214.143311 
L 431.434209 225.639978 
L 431.711327 228.144202 
L 431.988445 229.396315 
L 432.265563 235.770704 
L 432.542681 246.356744 
L 432.8198 244.53549 
L 433.096918 232.242024 
L 433.374036 227.57506 
L 433.651154 245.446117 
L 433.928272 254.552388 
L 434.20539 225.184664 
L 434.482509 225.981463 
L 434.759627 230.989912 
L 435.036745 230.42077 
L 435.313863 221.883641 
L 435.868099 246.925886 
L 436.145218 229.510143 
L 436.699454 260.016151 
L 436.976572 247.153543 
L 437.25369 245.673774 
L 437.530808 231.10374 
L 437.807927 233.494137 
L 438.085045 232.128196 
L 438.362163 222.111298 
L 438.639281 236.681331 
L 438.916399 236.908988 
L 439.193517 221.542156 
L 439.470636 223.135753 
L 439.747754 229.510143 
L 440.024872 225.070836 
L 440.30199 217.444334 
L 440.579108 201.963673 
L 440.856226 205.03704 
L 441.133345 206.858294 
L 441.687581 216.533707 
L 441.964699 213.801826 
L 442.241817 221.086842 
L 442.518935 217.102849 
L 443.073172 237.705787 
L 443.627408 223.704895 
L 443.904526 228.827173 
L 444.181644 226.89209 
L 444.458763 212.663542 
L 445.012999 222.452783 
L 445.290117 217.899648 
L 445.567235 221.314499 
L 445.844353 375.836534 
L 446.952826 375.836534 
L 447.229944 123.763572 
L 447.784181 102.591492 
L 448.338417 87.793802 
L 448.615535 89.501227 
L 448.892653 87.452316 
L 449.169772 87.452316 
L 449.44689 49.888949 
L 449.724008 45.335813 
L 450.001126 45.677298 
L 450.278244 60.019675 
L 450.555362 53.3038 
L 450.832481 55.694197 
L 451.109599 51.027233 
L 451.386717 50.913404 
L 451.663835 51.254889 
L 451.940953 57.629279 
L 452.218071 57.970764 
L 452.49519 55.808025 
L 452.772308 51.93786 
L 453.049426 55.580368 
L 453.326544 53.417629 
L 453.603662 52.848487 
L 454.157899 54.328256 
L 454.712135 49.433635 
L 454.989253 51.254889 
L 455.266371 55.921853 
L 455.543489 55.46654 
L 455.820608 57.060137 
L 456.097726 57.173966 
L 456.374844 57.515451 
L 456.651962 63.434527 
L 456.92908 66.621722 
L 457.206198 52.734658 
L 457.483317 69.239775 
L 457.760435 67.873834 
L 458.037553 53.3038 
L 458.868907 101.567036 
L 459.146026 126.72311 
L 459.423144 125.015684 
L 459.700262 111.697763 
L 460.254498 65.141953 
L 460.531616 62.637728 
L 460.808735 61.840929 
L 461.085853 69.125946 
L 461.362971 86.200204 
L 461.640089 89.045914 
L 461.917207 75.158851 
L 462.194325 75.614164 
L 462.471444 71.402514 
L 462.748562 83.354494 
L 463.02568 77.890732 
L 463.302798 79.598158 
L 463.579916 72.996111 
L 463.857034 78.687531 
L 464.134153 77.776904 
L 464.411271 70.833372 
L 464.688389 60.474989 
L 464.965507 64.800467 
L 465.242625 62.979213 
L 465.519744 63.662184 
L 465.796862 61.157959 
L 466.07398 45.108157 
L 466.351098 45.449642 
L 466.628216 47.498553 
L 466.905334 47.840038 
L 467.182453 51.254889 
L 467.459571 49.661292 
L 467.736689 51.596375 
L 468.013807 48.181523 
L 468.290925 47.612381 
L 468.568043 48.181523 
L 468.845162 46.24644 
L 469.12228 48.636837 
L 469.399398 47.840038 
L 469.676516 51.254889 
L 469.953634 60.019675 
L 470.230752 60.930302 
L 470.507871 64.458982 
L 470.784989 51.141061 
L 471.062107 62.296243 
L 471.339225 55.011226 
L 471.893461 80.508785 
L 472.17058 86.200204 
L 472.724816 90.184198 
L 473.001934 90.980996 
L 473.279052 85.972547 
L 473.55617 90.411854 
L 473.833289 86.883174 
L 474.110407 91.208653 
L 474.387525 87.22466 
L 474.664643 60.930302 
L 474.941761 53.872942 
L 475.495998 47.498553 
L 475.773116 51.710203 
L 476.050234 47.953866 
L 476.327352 46.929411 
L 476.60447 46.929411 
L 476.881588 43.742216 
L 477.435825 48.067695 
L 477.712943 47.043239 
L 477.990061 44.539015 
L 478.267179 46.929411 
L 478.544297 43.856044 
L 479.098534 91.777795 
L 479.375652 80.622613 
L 479.65277 81.419412 
L 480.207006 111.92542 
L 480.484125 152.903639 
L 480.761243 151.651526 
L 481.038361 122.739116 
L 481.315479 122.966773 
L 481.592597 111.128621 
L 481.869715 105.095716 
L 482.146834 113.746674 
L 482.423952 106.575485 
L 482.70107 114.884958 
L 483.255306 137.422978 
L 483.532425 123.19443 
L 484.086661 117.844496 
L 484.363779 130.93476 
L 484.640897 102.819149 
L 484.918015 105.892515 
L 485.195134 119.551921 
L 485.472252 104.981888 
L 485.74937 108.169083 
L 486.026488 118.868951 
L 486.303606 118.98278 
L 486.580724 114.429644 
L 486.857843 112.266905 
L 487.134961 117.389182 
L 487.689197 114.543472 
L 487.966315 110.559479 
L 488.243433 110.104165 
L 488.520552 115.226443 
L 488.79767 114.657301 
L 489.074788 119.096608 
L 489.351906 107.486112 
L 489.629024 114.771129 
L 489.906142 72.199313 
L 490.183261 56.490995 
L 490.460379 50.685747 
L 491.291733 59.109048 
L 491.568851 69.808916 
L 491.84597 107.030799 
L 492.123088 111.583934 
L 492.677324 88.135287 
L 492.954442 73.906738 
L 493.23156 67.760006 
L 493.508679 55.46654 
L 493.785797 61.727101 
L 494.062915 59.905847 
L 494.340033 62.751556 
L 494.617151 63.776012 
L 494.894269 70.833372 
L 495.448506 120.917862 
L 495.725624 115.112614 
L 496.002742 111.811591 
L 496.27986 114.429644 
L 496.556978 114.543472 
L 496.834097 123.19443 
L 497.388333 107.486112 
L 497.665451 105.209545 
L 497.942569 111.811591 
L 498.219687 107.827598 
L 498.496806 123.763572 
L 498.773924 97.355386 
L 499.051042 116.933869 
L 499.605278 114.315816 
L 499.882397 113.860502 
L 500.159515 98.038356 
L 500.436633 119.438093 
L 500.713751 106.120172 
L 500.990869 60.133504 
L 501.267987 73.451425 
L 501.545106 67.873834 
L 501.822224 66.621722 
L 502.099342 64.800467 
L 502.37646 70.833372 
L 502.653578 80.053471 
L 502.930696 98.266013 
L 503.207815 98.721327 
L 503.484933 78.573702 
L 503.762051 80.85027 
L 504.039169 84.151293 
L 504.593405 97.469214 
L 505.147642 103.046805 
L 505.42476 104.071261 
L 505.701878 110.331822 
L 505.978996 97.924528 
L 506.533233 143.911196 
L 506.810351 132.528358 
L 507.087469 108.624396 
L 507.364587 112.380733 
L 507.641705 121.487004 
L 507.918823 117.047697 
L 508.195942 108.055254 
L 508.47306 103.615947 
L 508.750178 78.801359 
L 509.027296 64.800467 
L 509.304414 68.670633 
L 509.858651 90.980996 
L 510.135769 110.104165 
L 510.412887 114.429644 
L 510.690005 95.078818 
L 511.52136 80.964098 
L 511.798478 81.988554 
L 512.075596 89.728884 
L 512.352714 92.346937 
L 512.629832 104.071261 
L 512.90695 103.160634 
L 513.184069 109.193538 
L 513.461187 102.02235 
L 513.738305 104.526574 
L 514.015423 104.185089 
L 514.292541 118.413638 
L 514.569659 117.616839 
L 514.846778 99.17664 
L 515.123896 111.470106 
L 515.401014 103.502119 
L 515.678132 100.770238 
L 515.95525 107.486112 
L 516.232368 106.006343 
L 516.509487 98.266013 
L 516.786605 99.062812 
L 517.063723 108.282911 
L 517.340841 100.428752 
L 517.617959 99.518125 
L 517.895078 73.223768 
L 518.172196 80.281128 
L 518.449314 81.760897 
L 518.726432 108.055254 
L 519.00355 145.504794 
L 519.557787 112.836047 
L 519.834905 125.243341 
L 520.112023 115.909413 
L 520.389141 110.787136 
L 520.666259 111.014792 
L 520.943377 108.055254 
L 521.220496 109.07971 
L 521.774732 102.932977 
L 522.05185 115.4541 
L 522.328968 108.738225 
L 522.606086 89.615056 
L 522.883205 94.737333 
L 523.160323 112.494561 
L 523.437441 106.006343 
L 523.714559 103.388291 
L 523.991677 111.470106 
L 524.268795 108.624396 
L 524.545914 112.153076 
L 524.823032 109.76268 
L 525.10015 111.811591 
L 525.377268 104.640403 
L 525.654386 110.787136 
L 525.931504 100.542581 
L 526.208623 103.274462 
L 526.485741 97.583043 
L 526.762859 111.583934 
L 527.039977 106.689314 
L 527.317095 105.209545 
L 527.594213 102.70532 
L 527.871332 102.819149 
L 528.14845 104.185089 
L 528.425568 99.631954 
L 528.702686 98.835155 
L 528.979804 103.388291 
L 529.256922 101.225551 
L 529.534041 103.160634 
L 529.811159 98.266013 
L 530.088277 105.892515 
L 530.365395 105.778687 
L 530.642513 101.225551 
L 530.919631 100.087267 
L 531.19675 110.104165 
L 531.473868 113.519017 
L 532.028104 103.502119 
L 532.305222 101.680865 
L 532.58234 104.981888 
L 532.859459 99.290469 
L 533.136577 87.452316 
L 533.413695 101.908522 
L 533.690813 98.379842 
L 533.967931 103.957432 
L 534.24505 102.136178 
L 534.522168 106.803142 
L 534.799286 98.948983 
L 535.076404 95.192647 
L 535.353522 104.185089 
L 535.63064 102.02235 
L 535.907759 97.469214 
L 536.184877 102.250007 
L 536.461995 89.615056 
L 536.739113 91.322482 
L 537.016231 101.453208 
L 537.293349 105.664858 
L 537.570468 106.803142 
L 538.124704 103.843604 
L 538.401822 105.209545 
L 539.233177 92.916079 
L 539.510295 95.078818 
L 539.787413 95.64796 
L 540.064531 99.290469 
L 540.341649 107.258456 
L 540.618767 101.794693 
L 540.895886 77.549247 
L 541.173004 100.884066 
L 541.450122 145.04948 
L 541.72724 142.089942 
L 542.004358 128.885849 
L 542.281476 123.19443 
L 542.558595 107.713769 
L 542.835713 117.161525 
L 543.112831 109.07971 
L 543.389949 117.50301 
L 543.667067 97.013901 
L 544.221304 116.933869 
L 544.498422 107.941426 
L 544.77554 107.941426 
L 545.052658 102.363835 
L 545.606894 82.216211 
L 545.884013 91.208653 
L 546.161131 92.688422 
L 546.438249 92.688422 
L 546.715367 89.615056 
L 546.992485 87.90763 
L 547.546722 102.136178 
L 547.82384 92.916079 
L 548.100958 98.038356 
L 548.378076 94.28202 
L 548.655194 87.338488 
L 548.932312 100.428752 
L 549.209431 102.477663 
L 549.763667 89.159742 
L 550.040785 87.110831 
L 550.317903 88.476772 
L 550.595021 81.077927 
L 550.87214 81.305584 
L 551.149258 94.168191 
L 551.426376 125.926311 
L 551.703494 133.438985 
L 551.980612 113.746674 
L 552.257731 112.494561 
L 552.534849 102.250007 
L 552.811967 106.347829 
L 553.089085 86.086376 
L 553.366203 89.842713 
L 553.643321 116.933869 
L 553.92044 114.088159 
L 554.197558 99.404297 
L 554.474676 95.192647 
L 554.751794 107.941426 
L 555.028912 99.631954 
L 555.30603 102.250007 
L 555.583149 95.989445 
L 555.860267 97.8107 
L 556.137385 90.75334 
L 556.414503 91.550138 
L 556.691621 87.22466 
L 556.968739 94.851162 
L 557.245858 92.005452 
L 557.522976 87.793802 
L 557.800094 85.744891 
L 558.077212 98.607498 
L 558.35433 85.289577 
L 558.631448 77.776904 
L 558.908567 81.077927 
L 559.185685 80.281128 
L 559.462803 95.989445 
L 559.739921 87.22466 
L 560.017039 93.940534 
L 560.294157 93.712878 
L 560.571276 87.452316 
L 560.848394 89.273571 
L 561.125512 87.679973 
L 561.40263 89.728884 
L 561.679748 93.257564 
L 561.956866 83.354494 
L 562.233985 80.736442 
L 562.511103 91.777795 
L 562.788221 91.094825 
L 563.342457 84.265122 
L 563.619575 83.468323 
L 563.896694 90.75334 
L 564.173812 86.883174 
L 564.45093 86.427861 
L 565.005166 94.851162 
L 565.282284 83.013009 
L 565.559403 99.745782 
L 565.836521 88.932085 
L 566.390757 81.077927 
L 566.667875 81.305584 
L 566.944993 76.524791 
L 567.222112 75.045022 
L 567.49923 79.711986 
L 567.776348 82.330039 
L 568.053466 78.346045 
L 568.330584 80.281128 
L 568.607703 73.223768 
L 568.884821 76.752448 
L 569.161939 78.346045 
L 569.439057 85.175749 
L 569.716175 74.362052 
L 569.993293 73.10994 
L 570.270412 74.703537 
L 570.54753 72.996111 
L 570.824648 73.906738 
L 571.101766 78.00456 
L 571.378884 76.63862 
L 571.656002 78.118389 
L 571.933121 76.63862 
L 572.210239 76.980105 
L 572.487357 78.687531 
L 573.041593 76.183306 
L 573.318711 78.687531 
L 573.59583 77.549247 
L 573.872948 74.47588 
L 574.150066 83.69598 
L 574.427184 80.622613 
L 574.704302 72.313141 
L 574.98142 69.239775 
L 575.258539 77.207762 
L 575.535657 90.184198 
L 575.812775 78.118389 
L 576.367011 96.330931 
L 576.644129 96.786244 
L 576.921248 106.461657 
L 577.475484 92.346937 
L 577.752602 73.679082 
L 578.02972 65.597266 
L 578.306838 61.727101 
L 578.583957 61.727101 
L 578.861075 61.613273 
L 579.138193 62.068586 
L 579.415311 64.686639 
L 579.969547 76.183306 
L 580.523784 59.792018 
L 580.800902 64.572811 
L 581.07802 65.711095 
L 581.355138 80.394956 
L 581.632256 64.686639 
L 581.909375 62.751556 
L 582.186493 65.255781 
L 582.463611 66.05258 
L 582.740729 67.190864 
L 583.017847 66.621722 
L 583.294965 64.800467 
L 583.572084 70.036573 
L 584.12632 72.768455 
L 584.403438 73.451425 
L 584.680556 102.136178 
L 584.957675 108.510568 
L 585.234793 107.372284 
L 585.511911 102.250007 
L 585.789029 110.900964 
L 586.066147 102.70532 
L 586.343265 102.250007 
L 586.620384 103.957432 
L 586.897502 100.428752 
L 587.17462 102.250007 
L 587.451738 95.534132 
L 587.728856 106.347829 
L 588.005974 99.631954 
L 588.283093 95.875617 
L 588.560211 95.64796 
L 588.837329 94.737333 
L 589.114447 90.75334 
L 589.391565 94.509676 
L 589.668683 73.565253 
L 590.22292 121.145519 
L 590.500038 102.819149 
L 591.054274 99.404297 
L 591.331392 101.567036 
L 591.608511 102.02235 
L 591.885629 95.192647 
L 592.162747 103.160634 
L 592.439865 99.745782 
L 592.716983 87.566145 
L 592.994101 87.90763 
L 593.27122 94.509676 
L 593.548338 81.53324 
L 593.825456 80.053471 
L 594.379692 85.744891 
L 594.65681 92.460765 
L 594.933929 108.510568 
L 595.488165 82.330039 
L 595.765283 78.801359 
L 596.042401 77.435418 
L 596.319519 77.207762 
L 596.596638 79.029016 
L 596.873756 88.818257 
L 597.150874 125.812483 
L 597.427992 137.536807 
L 597.70511 140.724001 
L 598.259347 123.535915 
L 599.090701 103.388291 
L 599.644937 93.257564 
L 599.922056 92.460765 
L 600.199174 90.070369 
L 600.476292 98.266013 
L 600.75341 94.395848 
L 601.030528 95.989445 
L 601.307646 90.980996 
L 601.584765 91.43631 
L 601.861883 86.086376 
L 602.139001 89.387399 
L 602.416119 91.094825 
L 602.693237 87.22466 
L 602.970356 99.062812 
L 603.524592 99.631954 
L 604.078828 121.259347 
L 604.355946 109.421195 
L 604.910183 104.640403 
L 605.187301 374.868993 
L 605.741537 374.868993 
L 606.018655 375.836534 
L 606.295774 63.88984 
L 606.572892 74.020567 
L 607.404246 127.747565 
L 607.681364 128.08905 
L 607.958483 119.438093 
L 608.235601 107.258456 
L 608.512719 107.599941 
L 608.789837 94.623505 
L 609.066955 95.420303 
L 609.344073 95.078818 
L 609.621192 96.330931 
L 609.89831 94.851162 
L 610.452546 81.988554 
L 610.729664 86.541689 
L 611.006782 84.948092 
L 611.283901 88.021458 
L 611.561019 96.103274 
L 611.838137 195.703112 
L 612.115255 90.070369 
L 612.392373 100.770238 
L 612.94661 90.298026 
L 613.223728 122.056146 
L 613.500846 129.227334 
L 613.777964 112.836047 
L 614.055082 112.380733 
L 614.3322 112.722218 
L 614.609319 111.242449 
L 614.886437 106.347829 
L 615.163555 109.648852 
L 615.440673 116.706212 
L 615.717791 147.212219 
L 615.994909 92.233109 
L 616.272028 110.331822 
L 616.549146 117.616839 
L 616.826264 119.324265 
L 617.103382 107.486112 
L 617.3805 114.884958 
L 617.657618 112.494561 
L 617.934737 115.226443 
L 618.211855 111.356278 
L 618.488973 111.92542 
L 618.766091 109.876509 
L 619.043209 116.250898 
L 619.320328 103.843604 
L 619.874564 120.462549 
L 620.151682 112.153076 
L 620.4288 116.250898 
L 620.705918 127.861394 
L 620.983037 120.007235 
L 621.260155 116.364727 
L 621.537273 118.072152 
L 621.814391 113.860502 
L 622.091509 113.860502 
L 622.368627 125.470998 
L 622.645746 130.137961 
L 622.922864 132.869843 
L 623.199982 117.958324 
L 623.4771 115.567928 
L 623.754218 116.592383 
L 624.031336 113.063703 
L 624.308455 104.526574 
L 624.585573 125.812483 
L 625.139809 144.36651 
L 625.416927 128.430536 
L 625.694045 125.926311 
L 625.971164 125.357169 
L 626.248282 122.397631 
L 626.5254 129.682648 
L 626.802518 130.593275 
L 627.079636 125.926311 
L 627.356754 127.747565 
L 627.633873 118.413638 
L 627.910991 114.315816 
L 628.188109 101.33938 
L 628.742345 118.299809 
L 629.296582 128.316707 
L 629.850818 149.602616 
L 630.127936 131.390074 
L 630.959291 106.006343 
L 631.236409 125.357169 
L 631.513527 105.55103 
L 632.067763 126.495453 
L 632.344881 135.487896 
L 632.622 115.909413 
L 632.899118 110.217994 
L 633.176236 107.599941 
L 633.453354 119.893407 
L 633.730472 117.844496 
L 634.00759 110.104165 
L 634.284709 112.949875 
L 634.561827 108.965881 
L 634.838945 114.543472 
L 635.116063 112.836047 
L 635.393181 117.275354 
L 635.670299 110.217994 
L 635.947418 109.07971 
L 636.224536 109.990337 
L 636.501654 116.82004 
L 636.778772 112.949875 
L 637.05589 110.673307 
L 637.333009 113.063703 
L 637.610127 110.445651 
L 637.887245 111.470106 
L 638.164363 109.193538 
L 638.441481 126.153968 
L 639.272836 109.876509 
L 639.549954 110.787136 
L 639.827072 120.234892 
L 640.10419 117.047697 
L 640.381308 120.576377 
L 640.658427 108.738225 
L 641.212663 130.820932 
L 641.489781 126.153968 
L 641.766899 132.414529 
L 642.044017 125.015684 
L 642.321136 132.300701 
L 642.598254 131.390074 
L 642.875372 117.730667 
L 643.15249 122.852945 
L 643.429608 117.161525 
L 643.706726 122.739116 
L 643.983845 122.169974 
L 644.260963 109.990337 
L 644.538081 114.543472 
L 644.815199 116.023241 
L 645.092317 107.599941 
L 645.369435 105.209545 
L 645.646554 125.015684 
L 645.923672 115.112614 
L 646.20079 117.616839 
L 646.477908 115.567928 
L 646.755026 115.909413 
L 647.032144 119.438093 
L 647.309263 119.893407 
L 647.586381 125.698654 
L 647.863499 126.495453 
L 648.140617 114.543472 
L 648.417735 111.470106 
L 648.694853 112.153076 
L 648.971972 117.275354 
L 649.24909 110.559479 
L 649.526208 117.616839 
L 649.803326 128.658192 
L 650.080444 124.901856 
L 650.357562 115.567928 
L 650.634681 129.341163 
L 651.188917 123.308258 
L 651.466035 128.430536 
L 652.020271 115.226443 
L 652.29739 114.315816 
L 652.574508 114.543472 
L 652.851626 105.664858 
L 653.405862 118.527466 
L 653.682981 120.917862 
L 653.960099 124.56037 
L 654.237217 134.235783 
L 654.791453 116.933869 
L 655.34569 112.722218 
L 655.622808 111.242449 
L 655.899926 106.461657 
L 656.177044 105.095716 
L 656.73128 115.4541 
L 657.008399 115.226443 
L 657.285517 109.07971 
L 657.562635 108.282911 
L 658.393989 110.673307 
L 658.671108 115.226443 
L 658.948226 112.380733 
L 659.225344 112.380733 
L 659.502462 107.827598 
L 659.77958 112.380733 
L 660.056698 111.811591 
L 660.333817 114.201987 
L 660.888053 103.729776 
L 661.165171 101.33938 
L 661.442289 100.656409 
L 661.719407 101.111723 
L 661.996526 102.363835 
L 662.273644 101.33938 
L 662.550762 104.526574 
L 662.82788 100.656409 
L 663.104998 101.908522 
L 663.382116 100.542581 
L 663.659235 99.745782 
L 663.936353 106.461657 
L 664.213471 106.006343 
L 664.490589 109.535023 
L 664.767707 111.583934 
L 665.044825 109.421195 
L 665.321944 103.843604 
L 665.599062 109.990337 
L 666.430416 136.170866 
L 666.707534 125.470998 
L 667.261771 118.98278 
L 667.538889 114.201987 
L 667.816007 111.697763 
L 668.093125 146.073936 
L 668.370243 127.178423 
L 668.647362 92.460765 
L 668.92448 95.192647 
L 669.201598 100.656409 
L 669.478716 101.794693 
L 669.755834 111.92542 
L 670.032952 108.965881 
L 670.310071 112.039248 
L 670.587189 124.332714 
L 670.864307 120.007235 
L 671.141425 101.794693 
L 671.418543 107.144627 
L 671.695662 103.729776 
L 671.97278 97.127729 
L 672.249898 99.859611 
L 672.527016 101.225551 
L 672.804134 101.794693 
L 673.081252 96.672416 
L 673.358371 101.567036 
L 673.635489 123.422087 
L 673.912607 119.096608 
L 674.466843 107.941426 
L 674.743961 102.591492 
L 675.02108 104.86806 
L 675.02108 104.86806 
" clip-path="url(#p5cd5c49f64)" style="fill: none; stroke: #2878b5; stroke-width: 1.5; stroke-linecap: square"/>
   </g>
   <g id="patch_3">
    <path d="M 37.496875 392.44125 
L 37.496875 27.1375 
" style="fill: none; stroke: #000000; stroke-width: 0.8; stroke-linejoin: miter; stroke-linecap: square"/>
   </g>
   <g id="patch_4">
    <path d="M 705.379375 392.44125 
L 705.379375 27.1375 
" style="fill: none; stroke: #000000; stroke-width: 0.8; stroke-linejoin: miter; stroke-linecap: square"/>
   </g>
   <g id="patch_5">
    <path d="M 37.496875 392.44125 
L 705.379375 392.44125 
" style="fill: none; stroke: #000000; stroke-width: 0.8; stroke-linejoin: miter; stroke-linecap: square"/>
   </g>
   <g id="patch_6">
    <path d="M 37.496875 27.1375 
L 705.379375 27.1375 
" style="fill: none; stroke: #000000; stroke-width: 0.8; stroke-linejoin: miter; stroke-linecap: square"/>
   </g>
   <g id="text_15">
    <!-- 原始 pH 时间序列数据 -->
    <g transform="translate(311.438125 17.1375) scale(0.12 -0.12)">
     <defs>
      <path id="SimHei-539f" d="M 3850 4275 
Q 3675 4025 3600 3700 
L 5450 3700 
Q 5425 3475 5425 3000 
L 5425 2225 
Q 5425 1825 5450 1475 
L 4050 1475 
L 4050 -50 
Q 4050 -400 3825 -487 
Q 3600 -575 3100 -625 
Q 3050 -325 2925 -50 
Q 3400 -75 3475 -37 
Q 3550 0 3550 175 
L 3550 1475 
L 2125 1475 
Q 2150 1775 2150 2200 
L 2150 3025 
Q 2150 3425 2125 3700 
L 3150 3700 
Q 3300 4250 3300 4425 
L 3850 4275 
z
M 275 -325 
Q 725 275 875 1037 
Q 1025 1800 1025 2300 
L 1025 4125 
Q 1025 4650 1000 4900 
L 5025 4900 
Q 5575 4900 5800 4925 
L 5800 4475 
Q 5600 4500 5025 4500 
L 1525 4500 
L 1525 2375 
Q 1500 1650 1412 1112 
Q 1325 575 1137 125 
Q 950 -325 800 -575 
Q 550 -400 275 -325 
z
M 4925 2775 
L 4925 3325 
L 2625 3325 
L 2625 2775 
L 4925 2775 
z
M 4925 1875 
L 4925 2400 
L 2625 2400 
L 2625 1875 
L 4925 1875 
z
M 1475 -50 
Q 1800 150 2087 450 
Q 2375 750 2575 1100 
Q 2800 875 2975 750 
Q 2300 -50 1825 -400 
Q 1675 -225 1475 -50 
z
M 4825 1075 
Q 5700 300 5925 25 
Q 5750 -125 5575 -325 
Q 5250 75 4500 725 
Q 4675 925 4825 1075 
z
" transform="scale(0.015625)"/>
      <path id="SimHei-59cb" d="M 1750 5075 
Q 1650 4900 1587 4587 
Q 1525 4275 1475 3875 
L 2550 3875 
Q 2400 2150 1950 1100 
Q 2275 850 2725 425 
Q 2550 275 2375 50 
Q 2000 500 1750 675 
Q 1525 275 1250 -62 
Q 975 -400 700 -675 
Q 600 -525 250 -350 
Q 575 -125 862 200 
Q 1150 525 1375 975 
Q 800 1400 500 1550 
Q 875 2925 950 3425 
Q 650 3425 325 3400 
L 325 3900 
Q 675 3875 1025 3875 
Q 1175 4825 1175 5225 
Q 1550 5125 1750 5075 
z
M 5725 2050 
Q 5700 1650 5700 650 
Q 5700 -325 5725 -650 
L 5200 -650 
L 5200 -100 
L 3450 -100 
L 3450 -675 
L 2950 -675 
Q 2975 -300 2975 675 
Q 2975 1650 2950 2050 
L 5725 2050 
z
M 4400 4950 
Q 3750 3875 3250 3150 
Q 3875 3150 4250 3175 
Q 4625 3200 5200 3225 
Q 4875 3675 4625 3900 
Q 4825 4000 5025 4225 
Q 5750 3300 6125 2850 
Q 6000 2775 5725 2550 
Q 5575 2775 5450 2875 
Q 4575 2825 3937 2762 
Q 3300 2700 2825 2575 
Q 2775 2800 2600 3100 
Q 2875 3225 3237 3850 
Q 3600 4475 3825 5200 
Q 4025 5050 4400 4950 
z
M 5200 325 
L 5200 1600 
L 3450 1600 
L 3450 325 
L 5200 325 
z
M 1025 1775 
Q 1300 1550 1575 1400 
Q 1725 1725 1875 2337 
Q 2025 2950 2050 3425 
L 1400 3425 
Q 1300 2950 1025 1775 
z
" transform="scale(0.015625)"/>
      <path id="SimHei-5217" d="M 2950 4800 
Q 3525 4800 3825 4825 
L 3825 4400 
Q 3525 4425 2800 4425 
L 2125 4425 
Q 2075 4125 1925 3500 
L 3425 3500 
Q 3300 2500 3100 1862 
Q 2900 1225 2575 762 
Q 2250 300 1850 -12 
Q 1450 -325 925 -675 
Q 725 -375 475 -150 
Q 1125 125 1550 437 
Q 1975 750 2250 1225 
Q 2100 1350 1862 1550 
Q 1625 1750 1400 1925 
L 1750 2325 
Q 1925 2200 2100 2037 
Q 2275 1875 2500 1650 
Q 2650 2025 2737 2337 
Q 2825 2650 2875 3100 
L 1775 3100 
Q 1600 2650 1350 2237 
Q 1100 1825 775 1525 
Q 600 1675 325 1850 
Q 600 2125 825 2462 
Q 1050 2800 1200 3125 
Q 1350 3450 1425 3775 
Q 1500 4100 1550 4425 
L 1100 4425 
Q 575 4425 375 4400 
L 375 4825 
Q 575 4800 1125 4800 
L 2950 4800 
z
M 5975 5050 
Q 5925 4675 5925 4250 
L 5925 50 
Q 5925 -275 5737 -400 
Q 5550 -525 4900 -625 
Q 4825 -250 4650 25 
Q 5150 0 5287 25 
Q 5425 50 5425 325 
L 5425 4250 
Q 5425 4650 5400 5050 
L 5975 5050 
z
M 4725 4300 
Q 4675 4000 4675 3450 
L 4675 1650 
Q 4675 1200 4700 850 
L 4100 850 
Q 4150 1200 4150 1650 
L 4150 3550 
Q 4150 3975 4100 4300 
L 4725 4300 
z
" transform="scale(0.015625)"/>
      <path id="SimHei-6570" d="M 4525 4925 
Q 4475 4800 4400 4587 
Q 4325 4375 4175 3825 
L 5325 3825 
Q 5575 3825 5925 3850 
L 5925 3400 
Q 5650 3425 5500 3425 
Q 5500 3025 5362 2162 
Q 5225 1300 4875 675 
Q 5125 375 5437 137 
Q 5750 -100 6025 -200 
Q 5725 -425 5625 -625 
Q 5325 -450 5075 -225 
Q 4825 0 4575 325 
Q 4300 25 3987 -187 
Q 3675 -400 3200 -650 
Q 3075 -425 2850 -300 
Q 3225 -150 3650 125 
Q 4075 400 4300 675 
Q 4125 1025 3962 1425 
Q 3800 1825 3675 2475 
Q 3600 2275 3425 1950 
Q 3250 2050 3000 2150 
Q 3400 2850 3650 3675 
Q 3900 4500 3975 5100 
Q 4275 4975 4525 4925 
z
M 2100 2250 
Q 2000 2150 1875 1925 
L 3250 1925 
Q 3100 1300 2725 675 
Q 3125 525 3350 400 
Q 3225 225 3125 25 
Q 2900 175 2450 325 
Q 1950 -225 725 -650 
Q 600 -375 400 -275 
Q 1575 0 2000 475 
Q 1300 650 850 775 
Q 1000 1000 1250 1525 
Q 1000 1525 425 1500 
L 425 1950 
Q 900 1925 1400 1925 
Q 1500 2150 1550 2425 
Q 1825 2325 2100 2250 
z
M 1775 3950 
Q 1775 4550 1750 5100 
L 2250 5100 
Q 2225 4575 2225 3950 
Q 3075 3950 3425 3975 
L 3425 3525 
Q 3075 3550 2225 3550 
Q 2225 2825 2250 2425 
L 1750 2425 
Q 1775 2775 1775 3300 
Q 1650 3100 1300 2787 
Q 950 2475 650 2300 
Q 525 2525 275 2625 
Q 500 2700 875 2975 
Q 1250 3250 1450 3550 
Q 950 3550 500 3525 
L 500 3975 
Q 925 3950 1775 3950 
z
M 3975 3175 
Q 4200 1700 4600 1125 
Q 4850 1700 4937 2287 
Q 5025 2875 5050 3425 
L 4075 3425 
L 3975 3175 
z
M 1450 1000 
Q 1750 925 2275 800 
Q 2475 1050 2650 1525 
L 1725 1525 
Q 1600 1275 1450 1000 
z
M 3325 4825 
Q 3200 4625 3125 4450 
Q 3050 4275 2925 4025 
Q 2725 4125 2525 4175 
Q 2725 4500 2900 5000 
Q 3150 4875 3325 4825 
z
M 2575 3375 
Q 2900 3050 3200 2725 
Q 3050 2600 2875 2425 
Q 2525 2850 2300 3100 
Q 2450 3225 2575 3375 
z
M 925 5000 
Q 1275 4650 1500 4300 
L 1125 4075 
Q 950 4425 600 4725 
Q 825 4875 925 5000 
z
" transform="scale(0.015625)"/>
      <path id="SimHei-636e" d="M 5750 4775 
Q 5725 4550 5725 4225 
L 5725 3900 
Q 5725 3450 5750 3250 
L 3100 3250 
L 3100 2500 
L 4250 2500 
Q 4250 2725 4225 3175 
L 4700 3175 
Q 4675 2775 4675 2500 
L 5350 2500 
Q 5800 2500 6100 2525 
L 6100 2075 
Q 5800 2100 5375 2100 
L 4675 2100 
L 4675 1425 
L 5775 1425 
Q 5750 950 5750 800 
L 5750 175 
Q 5750 -225 5775 -575 
L 5325 -575 
L 5325 -225 
L 3675 -225 
L 3675 -600 
L 3225 -600 
Q 3250 -325 3250 100 
L 3250 825 
Q 3250 1075 3225 1425 
L 4250 1425 
L 4250 2100 
L 3075 2100 
Q 3050 1375 2887 737 
Q 2725 100 2425 -475 
Q 2200 -325 1950 -250 
Q 2250 150 2387 600 
Q 2525 1050 2600 1562 
Q 2675 2075 2675 2625 
L 2675 3575 
Q 2675 3975 2650 4775 
L 5750 4775 
z
M 1275 4425 
Q 1275 4775 1250 5075 
L 1750 5075 
Q 1725 4800 1725 4425 
L 1725 3775 
Q 1975 3775 2500 3800 
L 2500 3375 
Q 1975 3400 1725 3400 
L 1725 2450 
Q 2050 2625 2400 2850 
Q 2425 2650 2525 2475 
Q 2050 2200 1725 2000 
L 1725 175 
Q 1725 -300 1487 -400 
Q 1250 -500 775 -575 
Q 725 -325 600 -50 
Q 1025 -50 1150 -12 
Q 1275 25 1275 325 
L 1275 1800 
Q 900 1600 525 1325 
Q 450 1525 275 1800 
Q 775 1975 1275 2250 
L 1275 3400 
Q 800 3400 350 3375 
L 350 3800 
Q 800 3775 1275 3775 
L 1275 4425 
z
M 5300 3625 
L 5300 4400 
L 3100 4400 
L 3100 3625 
L 5300 3625 
z
M 5325 150 
L 5325 1075 
L 3675 1075 
L 3675 150 
L 5325 150 
z
" transform="scale(0.015625)"/>
     </defs>
     <use xlink:href="#SimHei-539f"/>
     <use xlink:href="#SimHei-59cb" transform="translate(100 0)"/>
     <use xlink:href="#SimHei-20" transform="translate(200 0)"/>
     <use xlink:href="#SimHei-70" transform="translate(250 0)"/>
     <use xlink:href="#SimHei-48" transform="translate(300 0)"/>
     <use xlink:href="#SimHei-20" transform="translate(350 0)"/>
     <use xlink:href="#SimHei-65f6" transform="translate(400 0)"/>
     <use xlink:href="#SimHei-95f4" transform="translate(500 0)"/>
     <use xlink:href="#SimHei-5e8f" transform="translate(600 0)"/>
     <use xlink:href="#SimHei-5217" transform="translate(700 0)"/>
     <use xlink:href="#SimHei-6570" transform="translate(800 0)"/>
     <use xlink:href="#SimHei-636e" transform="translate(900 0)"/>
    </g>
   </g>
   <g id="legend_1">
    <g id="patch_7">
     <path d="M 625.279375 47.310156 
L 699.079375 47.310156 
Q 700.879375 47.310156 700.879375 45.510156 
L 700.879375 33.4375 
Q 700.879375 31.6375 699.079375 31.6375 
L 625.279375 31.6375 
Q 623.479375 31.6375 623.479375 33.4375 
L 623.479375 45.510156 
Q 623.479375 47.310156 625.279375 47.310156 
z
" style="fill: #ffffff; opacity: 0.8; stroke: #cccccc; stroke-width: 0.5; stroke-linejoin: miter"/>
    </g>
    <g id="line2d_26">
     <path d="M 627.079375 39.435156 
L 636.079375 39.435156 
L 645.079375 39.435156 
" style="fill: none; stroke: #2878b5; stroke-width: 1.5; stroke-linecap: square"/>
    </g>
    <g id="text_16">
     <!-- 原始 pH 值 -->
     <g transform="translate(652.279375 42.585156) scale(0.09 -0.09)">
      <use xlink:href="#SimHei-539f"/>
      <use xlink:href="#SimHei-59cb" transform="translate(100 0)"/>
      <use xlink:href="#SimHei-20" transform="translate(200 0)"/>
      <use xlink:href="#SimHei-70" transform="translate(250 0)"/>
      <use xlink:href="#SimHei-48" transform="translate(300 0)"/>
      <use xlink:href="#SimHei-20" transform="translate(350 0)"/>
      <use xlink:href="#SimHei-503c" transform="translate(400 0)"/>
     </g>
    </g>
   </g>
  </g>
 </g>
 <defs>
  <clipPath id="p5cd5c49f64">
   <rect x="37.496875" y="27.1375" width="667.8825" height="365.30375"/>
  </clipPath>
 </defs>
</svg>
