<?xml version="1.0" encoding="utf-8" standalone="no"?>
<!DOCTYPE svg PUBLIC "-//W3C//DTD SVG 1.1//EN"
  "http://www.w3.org/Graphics/SVG/1.1/DTD/svg11.dtd">
<svg xmlns:xlink="http://www.w3.org/1999/xlink" width="720pt" height="432pt" viewBox="0 0 720 432" xmlns="http://www.w3.org/2000/svg" version="1.1">
 <metadata>
  <rdf:RDF xmlns:dc="http://purl.org/dc/elements/1.1/" xmlns:cc="http://creativecommons.org/ns#" xmlns:rdf="http://www.w3.org/1999/02/22-rdf-syntax-ns#">
   <cc:Work>
    <dc:type rdf:resource="http://purl.org/dc/dcmitype/StillImage"/>
    <dc:date>2025-04-15T18:20:28.278288</dc:date>
    <dc:format>image/svg+xml</dc:format>
    <dc:creator>
     <cc:Agent>
      <dc:title>Matplotlib v3.10.0, https://matplotlib.org/</dc:title>
     </cc:Agent>
    </dc:creator>
   </cc:Work>
  </rdf:RDF>
 </metadata>
 <defs>
  <style type="text/css">*{stroke-linejoin: round; stroke-linecap: butt}</style>
 </defs>
 <g id="figure_1">
  <g id="patch_1">
   <path d="M 0 432 
L 720 432 
L 720 0 
L 0 0 
z
" style="fill: #ffffff"/>
  </g>
  <g id="axes_1">
   <g id="patch_2">
    <path d="M 32.3175 396.29625 
L 709.2 396.29625 
L 709.2 26.75625 
L 32.3175 26.75625 
z
" style="fill: #eeeeee"/>
   </g>
   <g id="matplotlib.axis_1">
    <g id="xtick_1">
     <g id="line2d_1">
      <path d="M 62.804034 396.29625 
L 62.804034 26.75625 
" clip-path="url(#pdc1275e155)" style="fill: none; stroke-dasharray: 1.85,0.8; stroke-dashoffset: 0; stroke: #b2b2b2; stroke-opacity: 0.3; stroke-width: 0.5"/>
     </g>
     <g id="line2d_2">
      <defs>
       <path id="m0adf4bcfed" d="M 0 0 
L 0 -3.5 
" style="stroke: #000000; stroke-width: 0.8"/>
      </defs>
      <g>
       <use xlink:href="#m0adf4bcfed" x="62.804034" y="396.29625" style="stroke: #000000; stroke-width: 0.8"/>
      </g>
     </g>
     <g id="text_1">
      <!-- 0 -->
      <g transform="translate(60.554034 405.98375) scale(0.09 -0.09)">
       <defs>
        <path id="SimHei-30" d="M 225 2537 
Q 250 3200 412 3587 
Q 575 3975 875 4225 
Q 1175 4475 1612 4475 
Q 2050 4475 2375 4112 
Q 2700 3750 2800 3200 
Q 2900 2650 2862 1937 
Q 2825 1225 2612 775 
Q 2400 325 1975 150 
Q 1550 -25 1125 187 
Q 700 400 525 750 
Q 350 1100 275 1487 
Q 200 1875 225 2537 
z
M 750 2687 
Q 675 2000 800 1462 
Q 925 925 1212 700 
Q 1500 475 1800 612 
Q 2100 750 2237 1162 
Q 2375 1575 2375 2062 
Q 2375 2550 2337 2950 
Q 2300 3350 2112 3675 
Q 1925 4000 1612 4012 
Q 1300 4025 1062 3700 
Q 825 3375 750 2687 
z
" transform="scale(0.015625)"/>
       </defs>
       <use xlink:href="#SimHei-30"/>
      </g>
     </g>
    </g>
    <g id="xtick_2">
     <g id="line2d_3">
      <path d="M 203.230261 396.29625 
L 203.230261 26.75625 
" clip-path="url(#pdc1275e155)" style="fill: none; stroke-dasharray: 1.85,0.8; stroke-dashoffset: 0; stroke: #b2b2b2; stroke-opacity: 0.3; stroke-width: 0.5"/>
     </g>
     <g id="line2d_4">
      <g>
       <use xlink:href="#m0adf4bcfed" x="203.230261" y="396.29625" style="stroke: #000000; stroke-width: 0.8"/>
      </g>
     </g>
     <g id="text_2">
      <!-- 500 -->
      <g transform="translate(196.480261 405.98375) scale(0.09 -0.09)">
       <defs>
        <path id="SimHei-35" d="M 550 1325 
Q 725 650 1150 575 
Q 1575 500 1837 662 
Q 2100 825 2212 1087 
Q 2325 1350 2312 1675 
Q 2300 2000 2137 2225 
Q 1975 2450 1725 2525 
Q 1475 2600 1162 2525 
Q 850 2450 650 2175 
L 225 2225 
Q 275 2375 700 4375 
L 2675 4375 
L 2675 3925 
L 1075 3925 
Q 950 3250 825 2850 
Q 1200 3025 1525 3012 
Q 1850 3000 2150 2862 
Q 2450 2725 2587 2487 
Q 2725 2250 2787 2012 
Q 2850 1775 2837 1500 
Q 2825 1225 2725 937 
Q 2625 650 2425 462 
Q 2225 275 1937 162 
Q 1650 50 1275 75 
Q 900 100 562 350 
Q 225 600 100 1200 
L 550 1325 
z
" transform="scale(0.015625)"/>
       </defs>
       <use xlink:href="#SimHei-35"/>
       <use xlink:href="#SimHei-30" transform="translate(50 0)"/>
       <use xlink:href="#SimHei-30" transform="translate(100 0)"/>
      </g>
     </g>
    </g>
    <g id="xtick_3">
     <g id="line2d_5">
      <path d="M 343.656488 396.29625 
L 343.656488 26.75625 
" clip-path="url(#pdc1275e155)" style="fill: none; stroke-dasharray: 1.85,0.8; stroke-dashoffset: 0; stroke: #b2b2b2; stroke-opacity: 0.3; stroke-width: 0.5"/>
     </g>
     <g id="line2d_6">
      <g>
       <use xlink:href="#m0adf4bcfed" x="343.656488" y="396.29625" style="stroke: #000000; stroke-width: 0.8"/>
      </g>
     </g>
     <g id="text_3">
      <!-- 1000 -->
      <g transform="translate(334.656488 405.98375) scale(0.09 -0.09)">
       <defs>
        <path id="SimHei-31" d="M 1400 3600 
Q 1075 3275 575 2975 
L 575 3450 
Q 1200 3875 1600 4450 
L 1900 4450 
L 1900 150 
L 1400 150 
L 1400 3600 
z
" transform="scale(0.015625)"/>
       </defs>
       <use xlink:href="#SimHei-31"/>
       <use xlink:href="#SimHei-30" transform="translate(50 0)"/>
       <use xlink:href="#SimHei-30" transform="translate(100 0)"/>
       <use xlink:href="#SimHei-30" transform="translate(150 0)"/>
      </g>
     </g>
    </g>
    <g id="xtick_4">
     <g id="line2d_7">
      <path d="M 484.082715 396.29625 
L 484.082715 26.75625 
" clip-path="url(#pdc1275e155)" style="fill: none; stroke-dasharray: 1.85,0.8; stroke-dashoffset: 0; stroke: #b2b2b2; stroke-opacity: 0.3; stroke-width: 0.5"/>
     </g>
     <g id="line2d_8">
      <g>
       <use xlink:href="#m0adf4bcfed" x="484.082715" y="396.29625" style="stroke: #000000; stroke-width: 0.8"/>
      </g>
     </g>
     <g id="text_4">
      <!-- 1500 -->
      <g transform="translate(475.082715 405.98375) scale(0.09 -0.09)">
       <use xlink:href="#SimHei-31"/>
       <use xlink:href="#SimHei-35" transform="translate(50 0)"/>
       <use xlink:href="#SimHei-30" transform="translate(100 0)"/>
       <use xlink:href="#SimHei-30" transform="translate(150 0)"/>
      </g>
     </g>
    </g>
    <g id="xtick_5">
     <g id="line2d_9">
      <path d="M 624.508942 396.29625 
L 624.508942 26.75625 
" clip-path="url(#pdc1275e155)" style="fill: none; stroke-dasharray: 1.85,0.8; stroke-dashoffset: 0; stroke: #b2b2b2; stroke-opacity: 0.3; stroke-width: 0.5"/>
     </g>
     <g id="line2d_10">
      <g>
       <use xlink:href="#m0adf4bcfed" x="624.508942" y="396.29625" style="stroke: #000000; stroke-width: 0.8"/>
      </g>
     </g>
     <g id="text_5">
      <!-- 2000 -->
      <g transform="translate(615.508942 405.98375) scale(0.09 -0.09)">
       <defs>
        <path id="SimHei-32" d="M 300 250 
Q 325 625 650 925 
Q 975 1225 1475 1862 
Q 1975 2500 2125 2850 
Q 2275 3200 2237 3450 
Q 2200 3700 2000 3862 
Q 1800 4025 1537 4000 
Q 1275 3975 1037 3800 
Q 800 3625 675 3275 
L 200 3350 
Q 400 3925 712 4187 
Q 1025 4450 1450 4475 
Q 1700 4500 1900 4462 
Q 2100 4425 2312 4287 
Q 2525 4150 2662 3875 
Q 2800 3600 2762 3212 
Q 2725 2825 2375 2287 
Q 2025 1750 1025 600 
L 2825 600 
L 2825 150 
L 300 150 
L 300 250 
z
" transform="scale(0.015625)"/>
       </defs>
       <use xlink:href="#SimHei-32"/>
       <use xlink:href="#SimHei-30" transform="translate(50 0)"/>
       <use xlink:href="#SimHei-30" transform="translate(100 0)"/>
       <use xlink:href="#SimHei-30" transform="translate(150 0)"/>
      </g>
     </g>
    </g>
    <g id="text_6">
     <!-- 时间 / 序号 -->
     <g transform="translate(343.25875 419.116562) scale(0.1 -0.1)">
      <defs>
       <path id="SimHei-65f6" d="M 2525 4575 
Q 2500 3675 2500 2400 
Q 2500 1125 2525 400 
L 2000 400 
L 2000 875 
L 1000 875 
L 1000 50 
L 475 50 
Q 500 1200 500 2350 
Q 500 3525 475 4575 
L 2525 4575 
z
M 4875 3825 
Q 4875 4575 4850 5225 
L 5400 5225 
Q 5375 4575 5375 3825 
Q 5750 3825 6175 3850 
L 6175 3375 
Q 5750 3400 5375 3400 
L 5375 50 
Q 5375 -325 5075 -425 
Q 4775 -525 4300 -575 
Q 4300 -275 4025 0 
Q 4500 -50 4687 -25 
Q 4875 0 4875 300 
L 4875 3400 
Q 3625 3400 2775 3375 
L 2775 3850 
Q 3575 3825 4875 3825 
z
M 2000 1300 
L 2000 2550 
L 1000 2550 
L 1000 1300 
L 2000 1300 
z
M 2000 2975 
L 2000 4150 
L 1000 4150 
L 1000 2975 
L 2000 2975 
z
M 3550 2725 
Q 3875 2200 4175 1600 
Q 3925 1525 3650 1375 
Q 3450 1975 3075 2500 
Q 3300 2600 3550 2725 
z
" transform="scale(0.015625)"/>
       <path id="SimHei-95f4" d="M 4450 3550 
Q 4425 3075 4425 2725 
L 4425 1400 
Q 4425 1075 4450 625 
L 1925 625 
Q 1950 1075 1950 1425 
L 1950 2725 
Q 1950 3075 1925 3550 
L 4450 3550 
z
M 5800 4875 
Q 5775 4400 5775 3925 
L 5775 250 
Q 5800 -325 5462 -450 
Q 5125 -575 4725 -625 
Q 4700 -325 4525 -25 
Q 5000 -50 5137 25 
Q 5275 100 5275 350 
L 5275 4450 
L 3775 4450 
Q 3175 4450 2650 4425 
L 2650 4900 
Q 3175 4875 3775 4875 
L 5800 4875 
z
M 550 -525 
Q 600 -25 600 525 
L 600 3150 
Q 600 3675 550 4025 
L 1125 4025 
Q 1100 3650 1100 3300 
L 1100 500 
Q 1100 0 1125 -525 
L 550 -525 
z
M 3950 1025 
L 3950 1950 
L 2425 1950 
L 2425 1025 
L 3950 1025 
z
M 3950 2350 
L 3950 3150 
L 2425 3150 
L 2425 2350 
L 3950 2350 
z
M 1525 5300 
Q 1750 5000 2225 4350 
Q 1950 4225 1700 4075 
Q 1450 4575 1075 5025 
Q 1350 5225 1525 5300 
z
" transform="scale(0.015625)"/>
       <path id="SimHei-20" transform="scale(0.015625)"/>
       <path id="SimHei-2f" d="M 3000 4550 
L 350 -175 
L 100 -25 
L 2750 4700 
L 3000 4550 
z
" transform="scale(0.015625)"/>
       <path id="SimHei-5e8f" d="M 4000 2075 
L 5975 2075 
Q 5750 1525 5575 1025 
Q 5325 1100 5050 1150 
Q 5175 1450 5275 1700 
L 4050 1700 
L 4050 150 
Q 4050 -375 3762 -462 
Q 3475 -550 2950 -575 
Q 2875 -300 2750 0 
Q 3350 -75 3475 25 
Q 3600 125 3575 375 
L 3575 1700 
L 2450 1700 
Q 2050 1700 1675 1675 
L 1675 2100 
Q 2100 2075 2425 2075 
L 3675 2075 
Q 3325 2400 2875 2775 
Q 2975 2875 3250 3100 
Q 3400 2975 3725 2725 
L 4575 3275 
L 3000 3275 
Q 2400 3275 1950 3250 
L 1950 3700 
Q 2400 3675 3000 3675 
L 5400 3675 
L 5400 3250 
Q 4700 2875 4025 2450 
L 4275 2250 
L 4000 2075 
z
M 3725 5275 
Q 3825 4925 3925 4525 
L 4850 4525 
Q 5425 4525 6000 4550 
L 6000 4125 
Q 5425 4150 4850 4150 
L 1400 4150 
Q 1400 2750 1362 2137 
Q 1325 1525 1200 887 
Q 1075 250 775 -350 
Q 625 -250 250 -125 
Q 475 300 600 700 
Q 725 1100 800 1637 
Q 875 2175 875 2825 
Q 875 3500 850 4525 
L 3350 4525 
Q 3275 4825 3150 5150 
Q 3425 5200 3725 5275 
z
" transform="scale(0.015625)"/>
       <path id="SimHei-53f7" d="M 5025 4925 
Q 5000 4550 5000 4075 
Q 5000 3600 5025 3175 
L 1400 3175 
Q 1425 3525 1425 4000 
Q 1425 4500 1400 4925 
L 5025 4925 
z
M 5175 2625 
Q 5650 2625 6025 2650 
L 6025 2200 
Q 5650 2225 5175 2225 
L 2450 2225 
Q 2350 1875 2225 1450 
L 5175 1450 
Q 5100 1050 5062 775 
Q 5025 500 4950 112 
Q 4875 -275 4650 -412 
Q 4425 -550 3225 -625 
Q 3125 -350 2975 -50 
Q 3875 -75 4112 -50 
Q 4350 -25 4425 212 
Q 4500 450 4575 1025 
L 1600 1025 
Q 1825 1625 1950 2225 
L 1350 2225 
Q 825 2225 375 2200 
L 375 2650 
Q 825 2625 1350 2625 
L 5175 2625 
z
M 4525 3575 
L 4525 4525 
L 1900 4525 
L 1900 3575 
L 4525 3575 
z
" transform="scale(0.015625)"/>
      </defs>
      <use xlink:href="#SimHei-65f6"/>
      <use xlink:href="#SimHei-95f4" transform="translate(100 0)"/>
      <use xlink:href="#SimHei-20" transform="translate(200 0)"/>
      <use xlink:href="#SimHei-2f" transform="translate(250 0)"/>
      <use xlink:href="#SimHei-20" transform="translate(300 0)"/>
      <use xlink:href="#SimHei-5e8f" transform="translate(350 0)"/>
      <use xlink:href="#SimHei-53f7" transform="translate(450 0)"/>
     </g>
    </g>
   </g>
   <g id="matplotlib.axis_2">
    <g id="ytick_1">
     <g id="line2d_11">
      <path d="M 32.3175 351.157397 
L 709.2 351.157397 
" clip-path="url(#pdc1275e155)" style="fill: none; stroke-dasharray: 1.85,0.8; stroke-dashoffset: 0; stroke: #b2b2b2; stroke-opacity: 0.3; stroke-width: 0.5"/>
     </g>
     <g id="line2d_12">
      <defs>
       <path id="m6a08bdd81c" d="M 0 0 
L 3.5 0 
" style="stroke: #000000; stroke-width: 0.8"/>
      </defs>
      <g>
       <use xlink:href="#m6a08bdd81c" x="32.3175" y="351.157397" style="stroke: #000000; stroke-width: 0.8"/>
      </g>
     </g>
     <g id="text_7">
      <!-- 3 -->
      <g transform="translate(24.3175 354.251147) scale(0.09 -0.09)">
       <defs>
        <path id="SimHei-33" d="M 250 1225 
L 700 1300 
Q 800 975 1025 762 
Q 1250 550 1587 562 
Q 1925 575 2125 837 
Q 2325 1100 2300 1437 
Q 2275 1775 2037 1962 
Q 1800 2150 1275 2225 
L 1275 2550 
Q 1800 2600 2037 2825 
Q 2275 3050 2250 3412 
Q 2225 3775 1925 3937 
Q 1625 4100 1287 3975 
Q 950 3850 750 3275 
L 300 3350 
Q 450 3800 712 4100 
Q 975 4400 1425 4450 
Q 1875 4500 2212 4337 
Q 2550 4175 2687 3837 
Q 2825 3500 2725 3100 
Q 2625 2700 2150 2400 
Q 2500 2250 2687 1950 
Q 2875 1650 2812 1162 
Q 2750 675 2375 375 
Q 2000 75 1525 87 
Q 1050 100 700 387 
Q 350 675 250 1225 
z
" transform="scale(0.015625)"/>
       </defs>
       <use xlink:href="#SimHei-33"/>
      </g>
     </g>
    </g>
    <g id="ytick_2">
     <g id="line2d_13">
      <path d="M 32.3175 290.076405 
L 709.2 290.076405 
" clip-path="url(#pdc1275e155)" style="fill: none; stroke-dasharray: 1.85,0.8; stroke-dashoffset: 0; stroke: #b2b2b2; stroke-opacity: 0.3; stroke-width: 0.5"/>
     </g>
     <g id="line2d_14">
      <g>
       <use xlink:href="#m6a08bdd81c" x="32.3175" y="290.076405" style="stroke: #000000; stroke-width: 0.8"/>
      </g>
     </g>
     <g id="text_8">
      <!-- 4 -->
      <g transform="translate(24.3175 293.170155) scale(0.09 -0.09)">
       <defs>
        <path id="SimHei-34" d="M 2000 1100 
L 75 1100 
L 75 1525 
L 2100 4450 
L 2475 4450 
L 2475 1525 
L 3075 1525 
L 3075 1100 
L 2475 1100 
L 2475 150 
L 2000 150 
L 2000 1100 
z
M 2000 1525 
L 2000 3500 
L 600 1525 
L 2000 1525 
z
" transform="scale(0.015625)"/>
       </defs>
       <use xlink:href="#SimHei-34"/>
      </g>
     </g>
    </g>
    <g id="ytick_3">
     <g id="line2d_15">
      <path d="M 32.3175 228.995414 
L 709.2 228.995414 
" clip-path="url(#pdc1275e155)" style="fill: none; stroke-dasharray: 1.85,0.8; stroke-dashoffset: 0; stroke: #b2b2b2; stroke-opacity: 0.3; stroke-width: 0.5"/>
     </g>
     <g id="line2d_16">
      <g>
       <use xlink:href="#m6a08bdd81c" x="32.3175" y="228.995414" style="stroke: #000000; stroke-width: 0.8"/>
      </g>
     </g>
     <g id="text_9">
      <!-- 5 -->
      <g transform="translate(24.3175 232.089164) scale(0.09 -0.09)">
       <use xlink:href="#SimHei-35"/>
      </g>
     </g>
    </g>
    <g id="ytick_4">
     <g id="line2d_17">
      <path d="M 32.3175 167.914422 
L 709.2 167.914422 
" clip-path="url(#pdc1275e155)" style="fill: none; stroke-dasharray: 1.85,0.8; stroke-dashoffset: 0; stroke: #b2b2b2; stroke-opacity: 0.3; stroke-width: 0.5"/>
     </g>
     <g id="line2d_18">
      <g>
       <use xlink:href="#m6a08bdd81c" x="32.3175" y="167.914422" style="stroke: #000000; stroke-width: 0.8"/>
      </g>
     </g>
     <g id="text_10">
      <!-- 6 -->
      <g transform="translate(24.3175 171.008172) scale(0.09 -0.09)">
       <defs>
        <path id="SimHei-36" d="M 250 1612 
Q 275 1975 387 2225 
Q 500 2475 725 2850 
L 1750 4450 
L 2325 4450 
L 1275 2800 
Q 1950 2975 2350 2750 
Q 2750 2525 2887 2237 
Q 3025 1950 3037 1612 
Q 3050 1275 2937 950 
Q 2825 625 2537 362 
Q 2250 100 1737 75 
Q 1225 50 862 262 
Q 500 475 362 862 
Q 225 1250 250 1612 
z
M 1025 787 
Q 1250 550 1625 525 
Q 2000 500 2250 775 
Q 2500 1050 2500 1575 
Q 2500 2100 2187 2300 
Q 1875 2500 1487 2450 
Q 1100 2400 925 2075 
Q 750 1750 775 1387 
Q 800 1025 1025 787 
z
" transform="scale(0.015625)"/>
       </defs>
       <use xlink:href="#SimHei-36"/>
      </g>
     </g>
    </g>
    <g id="ytick_5">
     <g id="line2d_19">
      <path d="M 32.3175 106.83343 
L 709.2 106.83343 
" clip-path="url(#pdc1275e155)" style="fill: none; stroke-dasharray: 1.85,0.8; stroke-dashoffset: 0; stroke: #b2b2b2; stroke-opacity: 0.3; stroke-width: 0.5"/>
     </g>
     <g id="line2d_20">
      <g>
       <use xlink:href="#m6a08bdd81c" x="32.3175" y="106.83343" style="stroke: #000000; stroke-width: 0.8"/>
      </g>
     </g>
     <g id="text_11">
      <!-- 7 -->
      <g transform="translate(24.3175 109.92718) scale(0.09 -0.09)">
       <defs>
        <path id="SimHei-37" d="M 850 150 
Q 1300 2050 2425 3925 
L 275 3925 
L 275 4375 
L 2950 4375 
L 2950 3950 
Q 1775 2050 1400 150 
L 850 150 
z
" transform="scale(0.015625)"/>
       </defs>
       <use xlink:href="#SimHei-37"/>
      </g>
     </g>
    </g>
    <g id="ytick_6">
     <g id="line2d_21">
      <path d="M 32.3175 45.752438 
L 709.2 45.752438 
" clip-path="url(#pdc1275e155)" style="fill: none; stroke-dasharray: 1.85,0.8; stroke-dashoffset: 0; stroke: #b2b2b2; stroke-opacity: 0.3; stroke-width: 0.5"/>
     </g>
     <g id="line2d_22">
      <g>
       <use xlink:href="#m6a08bdd81c" x="32.3175" y="45.752438" style="stroke: #000000; stroke-width: 0.8"/>
      </g>
     </g>
     <g id="text_12">
      <!-- 8 -->
      <g transform="translate(24.3175 48.846188) scale(0.09 -0.09)">
       <defs>
        <path id="SimHei-38" d="M 175 1375 
Q 175 1675 325 1962 
Q 475 2250 825 2425 
Q 525 2600 425 2812 
Q 325 3025 312 3300 
Q 300 3575 387 3775 
Q 475 3975 650 4150 
Q 825 4325 1037 4387 
Q 1250 4450 1500 4450 
Q 1750 4450 1950 4400 
Q 2150 4350 2375 4187 
Q 2600 4025 2700 3725 
Q 2800 3425 2687 3025 
Q 2575 2625 2100 2400 
Q 2525 2275 2700 2012 
Q 2875 1750 2875 1375 
Q 2875 1000 2762 775 
Q 2650 550 2512 400 
Q 2375 250 2137 162 
Q 1900 75 1537 75 
Q 1175 75 912 162 
Q 650 250 475 425 
Q 300 600 237 837 
Q 175 1075 175 1375 
z
M 687 1400 
Q 675 1100 787 875 
Q 900 650 1200 587 
Q 1500 525 1825 600 
Q 2150 675 2275 950 
Q 2400 1225 2362 1500 
Q 2325 1775 2050 1962 
Q 1775 2150 1450 2125 
Q 1125 2100 912 1900 
Q 700 1700 687 1400 
z
M 775 3350 
Q 775 3100 950 2875 
Q 1125 2650 1500 2650 
Q 1875 2650 2062 2875 
Q 2250 3100 2237 3412 
Q 2225 3725 2012 3875 
Q 1800 4025 1437 4000 
Q 1075 3975 925 3787 
Q 775 3600 775 3350 
z
" transform="scale(0.015625)"/>
       </defs>
       <use xlink:href="#SimHei-38"/>
      </g>
     </g>
    </g>
    <g id="text_13">
     <!-- pH 值 -->
     <g transform="translate(19.0675 224.02625) rotate(-90) scale(0.1 -0.1)">
      <defs>
       <path id="SimHei-70" d="M 2825 1525 
Q 2825 800 2475 425 
Q 2125 50 1625 50 
Q 1350 50 1150 162 
Q 950 275 800 500 
L 800 -800 
L 300 -800 
L 300 2925 
L 800 2925 
L 800 2550 
Q 950 2775 1150 2875 
Q 1350 2975 1625 2975 
Q 2125 2975 2475 2612 
Q 2825 2250 2825 1525 
z
M 2275 1525 
Q 2275 2000 2087 2262 
Q 1900 2525 1525 2525 
Q 1225 2525 1012 2262 
Q 800 2000 800 1525 
Q 800 1050 1012 775 
Q 1225 500 1525 500 
Q 1900 500 2087 775 
Q 2275 1050 2275 1525 
z
" transform="scale(0.015625)"/>
       <path id="SimHei-48" d="M 2850 125 
L 2275 125 
L 2275 2125 
L 850 2125 
L 850 125 
L 275 125 
L 275 4400 
L 850 4400 
L 850 2600 
L 2275 2600 
L 2275 4400 
L 2850 4400 
L 2850 125 
z
" transform="scale(0.015625)"/>
       <path id="SimHei-503c" d="M 3675 4450 
L 3675 5100 
Q 3975 5075 4350 5050 
Q 4225 4875 4200 4450 
L 5125 4450 
Q 5550 4450 5875 4475 
L 5875 4025 
Q 5525 4050 5125 4050 
L 4175 4050 
L 4125 3500 
L 5400 3500 
Q 5375 3200 5375 2700 
L 5375 150 
Q 5875 150 6100 175 
L 6100 -275 
Q 5775 -250 5200 -250 
L 2850 -250 
Q 2275 -250 1900 -275 
L 1900 175 
Q 2125 150 2600 150 
L 2600 2700 
Q 2600 3175 2575 3500 
L 3600 3500 
L 3650 4050 
L 3200 4050 
Q 2575 4050 2225 4025 
L 2225 4475 
Q 2550 4450 3200 4450 
L 3675 4450 
z
M 2225 4900 
Q 2025 4675 1650 3750 
L 1650 450 
Q 1650 -75 1675 -550 
L 1150 -550 
Q 1175 -125 1175 375 
L 1175 2950 
Q 875 2450 625 2150 
Q 425 2425 250 2575 
Q 500 2825 937 3537 
Q 1375 4250 1625 5150 
Q 1975 4975 2225 4900 
z
M 4925 2650 
L 4925 3150 
L 3075 3150 
L 3075 2650 
L 4925 2650 
z
M 4925 150 
L 4925 625 
L 3075 625 
L 3075 150 
L 4925 150 
z
M 4925 1000 
L 4925 1450 
L 3075 1450 
L 3075 1000 
L 4925 1000 
z
M 4925 1825 
L 4925 2275 
L 3075 2275 
L 3075 1825 
L 4925 1825 
z
" transform="scale(0.015625)"/>
      </defs>
      <use xlink:href="#SimHei-70"/>
      <use xlink:href="#SimHei-48" transform="translate(50 0)"/>
      <use xlink:href="#SimHei-20" transform="translate(100 0)"/>
      <use xlink:href="#SimHei-503c" transform="translate(150 0)"/>
     </g>
    </g>
   </g>
   <g id="line2d_23">
    <path d="M 552.329862 63.588088 
L 552.610714 63.71025 
L 552.891567 70.612402 
L 553.172419 87.653999 
L 553.453271 91.685344 
L 553.734124 81.118333 
L 554.014976 80.446442 
L 554.295829 74.949152 
L 554.576681 77.148068 
L 554.857534 66.275652 
L 555.138386 68.291324 
L 555.419239 82.8286 
L 555.700091 81.301576 
L 555.980944 73.422128 
L 556.261796 71.162131 
L 556.542648 78.003202 
L 556.823501 73.54429 
L 557.104353 74.949152 
L 557.385206 71.589698 
L 557.666058 72.566994 
L 557.946911 68.779972 
L 558.227763 69.207539 
L 558.508616 66.886462 
L 558.789468 70.978888 
L 559.070321 69.451863 
L 559.351173 67.191867 
L 559.632025 66.092409 
L 559.912878 72.994561 
L 560.19373 65.848085 
L 560.474583 61.816739 
L 560.755435 63.588088 
L 561.036288 63.160521 
L 561.31714 71.589698 
L 561.597993 66.886462 
L 561.878845 70.49024 
L 562.159698 70.368078 
L 562.44055 67.008624 
L 562.721402 67.985919 
L 563.002255 67.130786 
L 563.283107 68.230243 
L 563.56396 70.123754 
L 563.844812 64.809708 
L 564.125665 63.404845 
L 564.406517 69.329701 
L 564.68737 68.963215 
L 565.249075 65.298356 
L 565.529927 64.870789 
L 565.810779 68.779972 
L 566.091632 66.703219 
L 566.372484 66.458895 
L 566.934189 70.978888 
L 567.215042 64.626465 
L 567.495894 73.605371 
L 567.776747 67.802676 
L 568.338452 63.588088 
L 568.619304 63.71025 
L 568.900156 61.144848 
L 569.181009 60.350795 
L 569.461861 62.855116 
L 569.742714 64.259979 
L 570.023566 62.122144 
L 570.304419 63.160521 
L 570.585271 59.3735 
L 570.866124 61.26701 
L 571.146976 62.122144 
L 571.427829 65.787004 
L 571.708681 59.98431 
L 571.989533 59.312419 
L 572.270386 60.167552 
L 572.551238 59.251338 
L 572.832091 59.739986 
L 573.112943 61.938901 
L 573.393796 61.205929 
L 573.674648 61.999982 
L 573.955501 61.205929 
L 574.236353 61.389172 
L 574.517206 62.305387 
L 575.07891 60.961605 
L 575.359763 62.305387 
L 575.640615 61.694577 
L 575.921468 60.04539 
L 576.20232 64.992951 
L 576.483173 63.343764 
L 576.764025 58.884852 
L 577.044878 57.235665 
L 577.32573 61.511334 
L 577.606583 68.474567 
L 577.887435 61.999982 
L 578.44914 71.772941 
L 578.729992 72.017265 
L 579.010845 77.209149 
L 579.57255 69.635106 
L 579.853402 59.617824 
L 580.134255 55.281073 
L 580.415107 53.204319 
L 580.976812 53.143238 
L 581.257664 53.387562 
L 581.538517 54.792425 
L 582.100222 60.961605 
L 582.661927 52.165943 
L 582.942779 54.731344 
L 583.223632 55.342154 
L 583.504484 63.221602 
L 583.785337 54.792425 
L 584.066189 53.754048 
L 584.347041 55.09783 
L 584.908746 56.136207 
L 585.189599 55.830802 
L 585.470451 54.853506 
L 585.751304 57.663232 
L 586.313009 59.129176 
L 586.593861 59.495662 
L 586.874714 74.888071 
L 587.155566 78.308607 
L 587.436418 77.697797 
L 587.717271 74.949152 
L 587.998123 79.591308 
L 588.278976 75.193476 
L 588.559828 74.949152 
L 588.840681 75.865367 
L 589.121533 73.971857 
L 589.402386 74.949152 
L 589.683238 71.345374 
L 589.964091 77.148068 
L 590.244943 73.54429 
L 590.525795 71.528617 
L 590.806648 71.406455 
L 591.0875 70.917807 
L 591.368353 68.779972 
L 591.649205 70.795645 
L 591.930058 59.556743 
L 592.491763 85.088597 
L 592.772615 75.254557 
L 593.33432 73.422128 
L 593.615172 74.582667 
L 593.896025 74.82699 
L 594.176877 71.162131 
L 594.45773 75.4378 
L 594.738582 73.605371 
L 595.019435 67.069705 
L 595.300287 67.252948 
L 595.58114 70.795645 
L 595.861992 63.832412 
L 596.142845 63.038359 
L 596.704549 66.092409 
L 596.985402 69.696187 
L 597.266254 78.308607 
L 597.827959 64.259979 
L 598.108812 62.366468 
L 598.389664 61.633496 
L 598.670517 61.511334 
L 598.951369 62.48863 
L 599.232222 67.741595 
L 599.513074 87.592918 
L 599.793926 93.88426 
L 600.074779 95.594528 
L 600.636484 86.371298 
L 601.479041 75.559962 
L 602.040746 70.123754 
L 602.321599 69.696187 
L 602.602451 68.413486 
L 602.883303 72.811318 
L 603.164156 70.734564 
L 603.445008 71.589698 
L 603.725861 68.902134 
L 604.006713 69.146458 
L 604.287566 66.275652 
L 604.568418 68.047 
L 604.849271 68.963215 
L 605.130123 66.886462 
L 605.410976 73.238885 
L 605.97268 73.54429 
L 606.534385 85.149678 
L 606.815238 78.797255 
L 607.376943 76.231853 
L 607.657795 221.238128 
L 608.500353 379.498977 
L 608.781205 54.364858 
L 609.062057 59.801067 
L 609.904615 88.631295 
L 610.185467 88.814538 
L 610.46632 84.172382 
L 610.747172 77.636716 
L 611.028025 77.819959 
L 611.308877 70.856726 
L 611.58973 71.284293 
L 611.870582 71.10105 
L 612.151434 71.772941 
L 612.432287 70.978888 
L 612.993992 64.076736 
L 613.274844 66.519976 
L 613.555697 65.664842 
L 613.836549 67.314029 
L 614.117402 71.650779 
L 614.398254 125.096647 
L 614.679107 68.413486 
L 614.959959 74.1551 
L 615.521664 68.535648 
L 615.802516 85.577245 
L 616.083369 89.425348 
L 616.364221 80.629685 
L 616.645074 80.385361 
L 616.925926 80.568604 
L 617.206779 79.774551 
L 617.487631 77.148068 
L 617.768484 78.919417 
L 618.049336 82.706438 
L 618.330188 99.076144 
L 618.611041 69.574025 
L 618.891893 79.285903 
L 619.172746 83.195086 
L 619.453598 84.111301 
L 619.734451 77.758878 
L 620.015303 81.729143 
L 620.296156 80.446442 
L 620.577008 81.912386 
L 620.857861 79.835632 
L 621.138713 80.141037 
L 621.419565 79.041579 
L 621.700418 82.462114 
L 621.98127 75.804286 
L 622.542975 84.722111 
L 622.823828 80.263199 
L 623.10468 82.462114 
L 623.385533 88.692376 
L 623.666385 84.477787 
L 623.947238 82.523195 
L 624.22809 83.43941 
L 624.508942 81.179414 
L 625.3515 89.913995 
L 625.632352 91.379939 
L 625.913205 83.378329 
L 626.194057 82.095629 
L 626.47491 82.645357 
L 626.755762 80.751847 
L 627.036615 76.170772 
L 627.317467 87.592918 
L 627.879172 97.549119 
L 628.160024 88.997781 
L 628.440877 87.653999 
L 628.721729 87.348594 
L 629.002582 85.760488 
L 629.283434 89.669671 
L 629.564287 90.158319 
L 629.845139 87.653999 
L 630.125992 88.631295 
L 630.406844 83.622653 
L 630.687696 81.423738 
L 630.968549 74.460505 
L 631.530254 83.561572 
L 632.091959 88.9367 
L 632.653664 100.358845 
L 632.934516 90.585886 
L 633.777073 76.964825 
L 634.057926 87.348594 
L 634.338778 76.720501 
L 634.900483 87.959404 
L 635.181336 92.784802 
L 635.462188 82.278871 
L 635.743041 79.224822 
L 636.023893 77.819959 
L 636.304745 84.416706 
L 636.585598 83.317248 
L 636.86645 79.163741 
L 637.147303 80.690766 
L 637.428155 78.552931 
L 637.709008 81.5459 
L 637.98986 80.629685 
L 638.270713 83.011843 
L 638.551565 79.224822 
L 638.832418 78.614012 
L 639.11327 79.10266 
L 639.394122 82.767519 
L 639.674975 80.690766 
L 639.955827 79.469146 
L 640.23668 80.751847 
L 640.517532 79.346984 
L 640.798385 79.896713 
L 641.079237 78.675093 
L 641.36009 87.776161 
L 642.202647 79.041579 
L 642.483499 79.530227 
L 642.764352 84.599949 
L 643.045204 82.889681 
L 643.326057 84.783192 
L 643.606909 78.430769 
L 644.168614 90.280481 
L 644.449467 87.776161 
L 644.730319 91.135615 
L 645.011172 87.165351 
L 645.292024 91.074534 
L 645.572876 90.585886 
L 645.853729 83.256167 
L 646.134581 86.004812 
L 646.415434 82.950762 
L 646.696286 85.943731 
L 646.977139 85.638326 
L 647.257991 79.10266 
L 647.538844 81.5459 
L 647.819696 82.339952 
L 648.100549 77.819959 
L 648.381401 76.537258 
L 648.662253 87.165351 
L 648.943106 81.851305 
L 649.223958 83.195086 
L 649.504811 82.095629 
L 649.785663 82.278871 
L 650.066516 84.172382 
L 650.347368 84.416706 
L 650.628221 87.531837 
L 650.909073 87.959404 
L 651.189926 81.5459 
L 651.470778 79.896713 
L 651.75163 80.263199 
L 652.032483 83.011843 
L 652.313335 79.408065 
L 652.594188 83.195086 
L 652.87504 89.119943 
L 653.155893 87.10427 
L 653.436745 82.095629 
L 653.717598 89.486429 
L 654.279303 86.249136 
L 654.560155 88.997781 
L 655.12186 81.912386 
L 655.402712 81.423738 
L 655.683565 81.5459 
L 655.964417 76.781582 
L 656.526122 83.683734 
L 656.806975 84.966435 
L 657.087827 86.921027 
L 657.36868 92.112911 
L 657.930384 82.8286 
L 658.492089 80.568604 
L 658.772942 79.774551 
L 659.053794 77.209149 
L 659.334647 76.476177 
L 659.896352 82.034548 
L 660.177204 81.912386 
L 660.458057 78.614012 
L 660.738909 78.186445 
L 661.581466 79.469146 
L 661.862319 81.912386 
L 662.143171 80.385361 
L 662.424024 80.385361 
L 662.704876 77.942121 
L 662.985729 80.385361 
L 663.266581 80.079956 
L 663.547434 81.362657 
L 664.109138 75.743205 
L 664.389991 74.460505 
L 664.670843 74.094019 
L 664.951696 74.338343 
L 665.232548 75.010233 
L 665.513401 74.460505 
L 665.794253 76.170772 
L 666.075106 74.094019 
L 666.355958 74.76591 
L 666.917663 73.605371 
L 667.198515 77.209149 
L 667.479368 76.964825 
L 667.76022 78.858336 
L 668.041073 79.957794 
L 668.321925 78.797255 
L 668.602778 75.804286 
L 668.88363 79.10266 
L 669.726188 93.151288 
L 670.00704 87.409675 
L 670.568745 83.928058 
L 670.849597 81.362657 
L 671.13045 80.018875 
L 671.411302 98.465334 
L 671.692155 88.32589 
L 671.973007 69.696187 
L 672.25386 71.162131 
L 672.534712 74.094019 
L 672.815565 74.704829 
L 673.096417 80.141037 
L 673.377269 78.552931 
L 673.658122 80.202118 
L 673.938974 86.798865 
L 674.219827 84.477787 
L 674.500679 74.704829 
L 674.781532 77.575635 
L 675.062384 75.743205 
L 675.343237 72.200508 
L 675.624089 73.666452 
L 675.904942 74.399424 
L 676.185794 74.704829 
L 676.466646 71.956184 
L 676.747499 74.582667 
L 677.028351 86.310217 
L 677.309204 83.989139 
L 677.870909 78.003202 
L 678.151761 75.132395 
L 678.432614 76.354015 
L 678.432614 76.354015 
" clip-path="url(#pdc1275e155)" style="fill: none; stroke: #ff0000; stroke-width: 1.5; stroke-linecap: square"/>
   </g>
   <g id="line2d_24">
    <path d="M 552.329862 64.401853 
L 552.610714 65.64417 
L 552.891567 66.13199 
L 553.172419 67.199544 
L 553.453271 67.740038 
L 554.014976 68.201602 
L 555.138386 68.383838 
L 557.385206 68.453947 
L 590.525795 68.457197 
L 678.432614 68.457197 
L 678.432614 68.457197 
" clip-path="url(#pdc1275e155)" style="fill: none; stroke-dasharray: 5.55,2.4; stroke-dashoffset: 0; stroke: #0000ff; stroke-width: 1.5"/>
   </g>
   <g id="line2d_25">
    <path d="M 63.084886 133.098257 
L 63.365739 135.541496 
L 63.646591 134.930686 
L 63.927444 142.871215 
L 64.208296 144.092835 
L 64.489149 148.979314 
L 64.770001 141.649595 
L 65.050854 144.703645 
L 65.331706 133.098257 
L 65.612558 147.757695 
L 65.893411 139.817166 
L 66.174263 139.817166 
L 66.455116 141.038786 
L 66.735968 138.595546 
L 67.016821 142.260405 
L 67.297673 136.152306 
L 67.578526 136.763116 
L 67.859378 141.038786 
L 68.140231 148.368505 
L 68.421083 145.314455 
L 68.701935 124.546918 
L 68.982788 137.984736 
L 69.544493 143.482025 
L 69.825345 126.379348 
L 70.106198 134.930686 
L 70.38705 134.319876 
L 70.667903 127.600967 
L 70.948755 125.157728 
L 71.229608 145.314455 
L 71.51046 139.206356 
L 71.791312 144.092835 
L 72.072165 134.930686 
L 72.353017 140.427976 
L 72.63387 141.649595 
L 72.914722 144.092835 
L 73.195575 151.422554 
L 73.476427 152.644174 
L 73.75728 152.033364 
L 74.038132 146.536075 
L 74.318985 147.146885 
L 74.599837 136.763116 
L 74.880689 150.200934 
L 75.161542 152.033364 
L 75.442394 160.584703 
L 75.723247 158.141463 
L 76.004099 148.368505 
L 76.284952 143.482025 
L 76.565804 143.482025 
L 76.846657 152.033364 
L 77.127509 138.595546 
L 77.689214 150.200934 
L 77.970066 144.703645 
L 78.250919 149.590124 
L 78.812624 115.384769 
L 79.374329 126.990157 
L 79.655181 116.606389 
L 79.936034 114.163149 
L 80.497739 128.822587 
L 80.778591 123.936108 
L 81.059443 115.384769 
L 81.621148 121.492868 
L 81.902001 119.660438 
L 82.182853 124.546918 
L 82.463706 134.930686 
L 82.744558 136.152306 
L 83.025411 130.655017 
L 83.306263 130.655017 
L 83.587116 134.319876 
L 83.867968 131.265827 
L 84.14882 126.379348 
L 84.710525 127.600967 
L 84.991378 128.822587 
L 85.27223 131.265827 
L 85.553083 130.655017 
L 86.114788 141.649595 
L 86.39564 126.990157 
L 86.676493 124.546918 
L 86.957345 127.600967 
L 87.238197 127.600967 
L 87.51905 136.763116 
L 87.799902 139.206356 
L 88.080755 130.044207 
L 88.361607 125.768538 
L 88.923312 126.990157 
L 89.485017 132.487447 
L 89.76587 131.265827 
L 90.046722 125.157728 
L 90.327574 127.600967 
L 90.608427 128.822587 
L 90.889279 125.768538 
L 91.170132 127.600967 
L 91.450984 125.768538 
L 91.731837 125.157728 
L 92.012689 125.768538 
L 92.293542 125.768538 
L 92.574394 133.709067 
L 92.855247 125.157728 
L 93.136099 126.990157 
L 93.416951 126.990157 
L 93.697804 132.487447 
L 93.978656 128.211777 
L 94.540361 133.709067 
L 94.821214 130.655017 
L 95.102066 130.655017 
L 95.382919 130.044207 
L 95.663771 131.265827 
L 95.944624 136.152306 
L 96.225476 153.254984 
L 96.787181 135.541496 
L 97.068033 131.876637 
L 97.629738 136.152306 
L 97.910591 128.822587 
L 98.191443 126.379348 
L 98.472296 131.876637 
L 98.753148 131.265827 
L 99.034001 135.541496 
L 99.314853 131.876637 
L 99.595705 134.930686 
L 99.876558 133.098257 
L 100.15741 132.487447 
L 100.438263 130.655017 
L 100.719115 133.709067 
L 100.999968 132.487447 
L 101.28082 135.541496 
L 101.561673 131.876637 
L 101.842525 133.709067 
L 102.123378 131.265827 
L 102.40423 131.265827 
L 102.685082 137.984736 
L 102.965935 131.876637 
L 103.246787 133.098257 
L 103.808492 136.763116 
L 104.089345 139.817166 
L 104.370197 135.541496 
L 104.65105 137.373926 
L 104.931902 137.373926 
L 105.212755 141.038786 
L 105.774459 135.541496 
L 106.055312 141.649595 
L 106.336164 137.984736 
L 106.617017 138.595546 
L 106.897869 139.817166 
L 107.178722 139.817166 
L 107.459574 141.649595 
L 107.740427 139.817166 
L 108.021279 140.427976 
L 108.302131 137.984736 
L 108.863836 140.427976 
L 109.144689 138.595546 
L 109.425541 138.595546 
L 109.706394 139.817166 
L 109.987246 137.984736 
L 110.268099 141.038786 
L 110.548951 140.427976 
L 110.829804 141.649595 
L 111.110656 141.649595 
L 111.391508 142.871215 
L 112.234066 142.871215 
L 112.514918 144.092835 
L 112.795771 144.092835 
L 113.076623 138.595546 
L 113.357476 142.260405 
L 113.638328 142.260405 
L 113.919181 136.763116 
L 114.200033 134.319876 
L 114.480885 138.595546 
L 114.761738 137.984736 
L 115.04259 140.427976 
L 115.323443 137.984736 
L 115.604295 137.984736 
L 115.885148 140.427976 
L 116.166 155.087414 
L 116.446853 159.973893 
L 116.727705 153.254984 
L 117.008558 153.254984 
L 117.28941 141.038786 
L 117.570262 133.709067 
L 117.851115 137.373926 
L 118.131967 138.595546 
L 118.41282 137.984736 
L 118.974525 137.984736 
L 119.255377 136.152306 
L 119.53623 139.206356 
L 119.817082 138.595546 
L 120.097935 139.206356 
L 120.378787 138.595546 
L 120.659639 140.427976 
L 121.221344 136.152306 
L 121.502197 135.541496 
L 121.783049 139.817166 
L 122.063902 137.373926 
L 122.344754 138.595546 
L 122.906459 134.930686 
L 123.468164 140.427976 
L 123.749016 145.925265 
L 124.029869 140.427976 
L 124.310721 140.427976 
L 124.591574 139.817166 
L 124.872426 147.757695 
L 125.153279 142.871215 
L 125.434131 142.871215 
L 125.714984 143.482025 
L 125.995836 145.925265 
L 126.276689 153.254984 
L 126.557541 151.422554 
L 126.838393 141.649595 
L 127.119246 147.757695 
L 127.400098 149.590124 
L 127.680951 149.590124 
L 127.961803 145.925265 
L 128.242656 147.146885 
L 128.523508 145.925265 
L 128.804361 146.536075 
L 129.085213 144.092835 
L 129.366066 147.146885 
L 129.646918 148.368505 
L 129.92777 143.482025 
L 130.208623 144.092835 
L 130.489475 147.146885 
L 130.770328 146.536075 
L 131.05118 150.200934 
L 131.332033 147.757695 
L 131.612885 148.979314 
L 131.893738 142.871215 
L 132.17459 140.427976 
L 132.455443 142.871215 
L 132.736295 148.368505 
L 133.017147 150.811744 
L 133.298 149.590124 
L 133.578852 148.979314 
L 133.859705 145.925265 
L 134.140557 150.200934 
L 134.42141 148.979314 
L 134.983115 141.038786 
L 135.263967 142.260405 
L 135.54482 145.314455 
L 136.106524 137.984736 
L 136.387377 148.979314 
L 136.668229 140.427976 
L 136.949082 141.649595 
L 137.229934 145.314455 
L 137.510787 140.427976 
L 137.791639 146.536075 
L 138.072492 141.649595 
L 138.353344 144.092835 
L 138.634197 148.979314 
L 138.915049 147.146885 
L 139.195901 142.260405 
L 139.476754 141.038786 
L 139.757606 144.092835 
L 140.038459 144.092835 
L 140.319311 145.314455 
L 140.600164 148.368505 
L 140.881016 145.314455 
L 141.161869 143.482025 
L 141.442721 143.482025 
L 141.723574 142.871215 
L 142.004426 144.703645 
L 142.285278 159.973893 
L 142.566131 141.649595 
L 142.846983 131.876637 
L 143.127836 136.763116 
L 143.408688 136.763116 
L 143.689541 144.703645 
L 143.970393 145.314455 
L 144.251246 141.649595 
L 144.532098 150.200934 
L 144.812951 155.087414 
L 145.093803 140.427976 
L 145.374655 137.373926 
L 145.655508 139.817166 
L 145.93636 147.757695 
L 146.217213 148.979314 
L 146.498065 156.919843 
L 146.778918 142.260405 
L 147.05977 142.260405 
L 147.340623 140.427976 
L 147.621475 136.152306 
L 147.902328 138.595546 
L 148.18318 148.979314 
L 148.464032 146.536075 
L 149.025737 144.092835 
L 149.30659 140.427976 
L 149.587442 144.703645 
L 149.868295 159.973893 
L 150.149147 133.098257 
L 150.43 135.541496 
L 150.710852 150.200934 
L 150.991705 144.092835 
L 151.272557 142.871215 
L 151.553409 147.757695 
L 151.834262 137.373926 
L 152.115114 135.541496 
L 152.395967 135.541496 
L 152.676819 134.319876 
L 152.957672 134.319876 
L 153.238524 136.763116 
L 153.519377 137.373926 
L 153.800229 134.930686 
L 154.081082 135.541496 
L 154.361934 135.541496 
L 154.642786 136.152306 
L 154.923639 135.541496 
L 155.204491 135.541496 
L 155.766196 139.206356 
L 156.047049 139.206356 
L 156.327901 141.649595 
L 156.889606 133.709067 
L 157.170459 135.541496 
L 157.451311 135.541496 
L 157.732163 134.319876 
L 158.013016 134.930686 
L 158.293868 134.930686 
L 158.574721 135.541496 
L 158.855573 133.098257 
L 159.136426 135.541496 
L 159.417278 133.709067 
L 159.698131 136.763116 
L 159.978983 146.536075 
L 160.259836 144.092835 
L 161.102393 130.655017 
L 161.383245 130.044207 
L 161.664098 137.373926 
L 161.94495 138.595546 
L 162.225803 140.427976 
L 162.506655 139.206356 
L 162.787508 139.206356 
L 163.06836 137.373926 
L 163.349213 137.373926 
L 163.630065 140.427976 
L 163.910917 142.260405 
L 164.19177 138.595546 
L 164.472622 141.649595 
L 164.753475 142.871215 
L 165.31518 125.768538 
L 165.876885 139.206356 
L 166.157737 142.871215 
L 166.43859 137.984736 
L 166.719442 129.433397 
L 167.000294 130.044207 
L 167.281147 137.984736 
L 167.561999 140.427976 
L 167.842852 134.930686 
L 168.123704 136.152306 
L 168.685409 142.871215 
L 168.966262 134.930686 
L 169.247114 131.876637 
L 169.527967 131.876637 
L 169.808819 132.487447 
L 170.089671 137.373926 
L 170.370524 132.487447 
L 170.651376 133.709067 
L 170.932229 137.984736 
L 171.213081 137.984736 
L 171.493934 139.206356 
L 172.055639 144.703645 
L 172.336491 138.595546 
L 172.898196 136.152306 
L 173.179048 133.098257 
L 173.459901 137.984736 
L 173.740753 140.427976 
L 174.021606 140.427976 
L 174.302458 133.709067 
L 174.583311 120.271248 
L 175.145016 129.433397 
L 175.425868 128.822587 
L 175.706721 131.265827 
L 175.987573 132.487447 
L 176.268425 136.152306 
L 176.549278 135.541496 
L 176.83013 136.152306 
L 177.391835 140.427976 
L 177.672688 139.206356 
L 177.95354 140.427976 
L 178.515245 147.146885 
L 178.796098 147.757695 
L 179.07695 149.590124 
L 179.357802 149.590124 
L 179.638655 147.757695 
L 180.20036 148.979314 
L 180.481212 145.925265 
L 180.762065 124.546918 
L 181.042917 122.714488 
L 181.32377 128.211777 
L 181.604622 128.822587 
L 182.166327 136.152306 
L 182.447179 133.098257 
L 182.728032 131.876637 
L 183.008884 132.487447 
L 183.289737 130.044207 
L 183.570589 129.433397 
L 184.132294 116.606389 
L 184.413147 124.546918 
L 184.693999 126.379348 
L 184.974852 129.433397 
L 185.255704 128.211777 
L 185.536556 128.822587 
L 185.817409 131.265827 
L 186.098261 132.487447 
L 186.379114 134.319876 
L 186.940819 142.260405 
L 187.221671 130.655017 
L 187.502524 133.098257 
L 187.783376 132.487447 
L 188.345081 132.487447 
L 188.625933 131.265827 
L 188.906786 130.655017 
L 189.187638 132.487447 
L 189.468491 133.098257 
L 190.030196 135.541496 
L 190.311048 136.152306 
L 190.591901 135.541496 
L 190.872753 139.817166 
L 191.153606 141.649595 
L 191.434458 138.595546 
L 191.71531 137.373926 
L 191.996163 144.703645 
L 192.277015 148.979314 
L 192.557868 149.590124 
L 192.83872 147.757695 
L 193.119573 147.757695 
L 193.400425 140.427976 
L 193.681278 137.984736 
L 193.96213 138.595546 
L 194.242983 142.260405 
L 194.523835 143.482025 
L 194.804687 139.817166 
L 195.08554 138.595546 
L 195.366392 139.817166 
L 195.647245 143.482025 
L 195.928097 139.206356 
L 196.20895 140.427976 
L 196.489802 146.536075 
L 196.770655 145.314455 
L 197.051507 139.206356 
L 197.332359 136.763116 
L 197.613212 140.427976 
L 197.894064 142.260405 
L 198.736622 137.373926 
L 199.017474 139.817166 
L 199.298327 138.595546 
L 199.579179 140.427976 
L 199.860032 141.038786 
L 200.421736 143.482025 
L 200.702589 147.146885 
L 200.983441 146.536075 
L 201.264294 147.757695 
L 201.545146 146.536075 
L 201.825999 146.536075 
L 202.106851 145.314455 
L 202.387704 145.925265 
L 203.230261 136.152306 
L 203.511113 137.373926 
L 204.072818 142.260405 
L 204.353671 141.038786 
L 204.634523 142.260405 
L 204.915376 141.649595 
L 205.196228 142.871215 
L 205.477081 142.260405 
L 206.038786 149.590124 
L 206.319638 150.200934 
L 206.60049 148.979314 
L 206.881343 148.979314 
L 207.162195 135.541496 
L 207.443048 144.703645 
L 207.7239 150.200934 
L 208.004753 149.590124 
L 208.285605 147.757695 
L 208.566458 148.979314 
L 208.84731 147.146885 
L 209.409015 152.644174 
L 209.689867 154.476604 
L 209.97072 151.422554 
L 210.532425 158.141463 
L 210.813277 151.422554 
L 211.09413 152.644174 
L 211.374982 155.087414 
L 211.655835 151.422554 
L 211.936687 161.195513 
L 212.21754 152.644174 
L 212.779244 153.865794 
L 213.060097 152.644174 
L 213.340949 153.865794 
L 213.621802 150.811744 
L 214.183507 156.309033 
L 214.464359 154.476604 
L 215.026064 148.368505 
L 215.306917 150.811744 
L 215.587769 149.590124 
L 215.868621 148.979314 
L 216.149474 148.979314 
L 216.711179 152.033364 
L 217.272884 149.590124 
L 217.553736 152.644174 
L 217.834589 152.033364 
L 218.115441 152.644174 
L 218.396294 154.476604 
L 218.677146 155.087414 
L 218.957998 153.254984 
L 219.519703 154.476604 
L 219.800556 153.865794 
L 220.081408 154.476604 
L 220.362261 155.698224 
L 220.643113 151.422554 
L 220.923966 155.698224 
L 221.204818 155.698224 
L 221.485671 154.476604 
L 221.766523 155.087414 
L 222.047375 156.309033 
L 222.328228 161.195513 
L 222.60908 155.698224 
L 222.889933 158.141463 
L 223.170785 154.476604 
L 223.451638 155.698224 
L 224.013343 151.422554 
L 224.294195 159.973893 
L 224.575048 157.530653 
L 224.8559 158.141463 
L 225.136752 157.530653 
L 225.417605 158.752273 
L 225.698457 155.087414 
L 225.97931 158.141463 
L 226.260162 156.919843 
L 227.10272 160.951189 
L 227.383572 152.705255 
L 227.664425 154.598766 
L 227.945277 160.584703 
L 228.226129 159.729569 
L 228.506982 157.652815 
L 229.068687 101.88587 
L 229.349539 99.809116 
L 229.630392 102.802085 
L 229.911244 100.908574 
L 230.192097 108.604779 
L 230.472949 107.932888 
L 230.753802 102.557761 
L 231.034654 101.091817 
L 231.315506 100.481007 
L 231.596359 100.786412 
L 231.877211 98.037767 
L 232.158064 99.748035 
L 232.438916 90.097238 
L 232.719769 90.585886 
L 233.000621 93.395612 
L 233.281474 92.479397 
L 233.562326 94.739394 
L 233.843179 91.685344 
L 234.124031 91.868587 
L 234.404883 92.540478 
L 234.966588 96.022095 
L 235.247441 94.800475 
L 235.528293 89.425348 
L 235.809146 89.364267 
L 236.089998 90.708048 
L 236.370851 93.029126 
L 236.651703 92.601559 
L 237.213408 90.463724 
L 237.49426 90.585886 
L 237.775113 94.556151 
L 238.055965 100.66425 
L 238.336818 95.533447 
L 238.61767 98.526415 
L 238.898523 119.232871 
L 239.179375 90.524805 
L 239.460228 91.074534 
L 239.74108 98.22101 
L 240.021933 110.742614 
L 240.302785 116.606389 
L 240.583637 115.384769 
L 241.145342 105.245324 
L 241.426195 101.824789 
L 241.9879 101.641546 
L 242.268752 98.587496 
L 242.830457 110.559371 
L 243.11131 90.097238 
L 243.673014 95.350204 
L 243.953867 97.488038 
L 244.234719 95.411285 
L 244.515572 90.036157 
L 244.796424 88.753457 
L 245.358129 90.280481 
L 245.638982 90.708048 
L 245.919834 94.49507 
L 246.200687 95.777771 
L 246.481539 93.823179 
L 246.762391 89.791833 
L 247.043244 93.151288 
L 247.324096 90.952372 
L 247.885801 91.135615 
L 248.166654 91.563182 
L 248.447506 87.653999 
L 248.728359 87.592918 
L 249.009211 87.776161 
L 249.290064 90.402643 
L 249.570916 95.655609 
L 249.851768 88.631295 
L 250.132621 87.837242 
L 250.413473 87.592918 
L 250.694326 86.921027 
L 250.975178 90.280481 
L 251.256031 88.32589 
L 251.536883 88.142647 
L 251.817736 91.44102 
L 252.098588 102.618842 
L 252.379441 101.580465 
L 252.660293 102.374518 
L 252.941145 99.931278 
L 253.221998 98.465334 
L 253.783703 94.49507 
L 254.064555 87.165351 
L 254.345408 90.341562 
L 254.62626 90.280481 
L 254.907113 89.975076 
L 255.187965 90.952372 
L 255.468818 89.181024 
L 255.74967 91.074534 
L 256.311375 86.554541 
L 256.592227 90.402643 
L 257.153932 86.982108 
L 257.434785 90.891291 
L 257.715637 84.66103 
L 257.99649 86.188055 
L 258.277342 86.432379 
L 258.558195 88.509133 
L 258.839047 89.364267 
L 259.119899 87.531837 
L 259.400752 97.426957 
L 259.681604 85.088597 
L 259.962457 89.60859 
L 260.524162 84.294544 
L 260.805014 95.166961 
L 261.366719 83.011843 
L 261.647572 85.516164 
L 261.928424 86.432379 
L 262.209276 84.233463 
L 262.490129 85.332921 
L 262.770981 93.578855 
L 263.051834 92.05183 
L 263.332686 79.652389 
L 263.613539 80.202118 
L 264.175244 83.622653 
L 264.736949 85.760488 
L 265.017801 85.455083 
L 265.298653 82.8286 
L 265.579506 85.638326 
L 265.860358 86.004812 
L 266.141211 86.126974 
L 266.422063 88.570214 
L 266.702916 81.423738 
L 266.983768 86.921027 
L 267.264621 80.996171 
L 267.545473 80.263199 
L 267.826326 83.744815 
L 268.107178 82.950762 
L 268.38803 84.538868 
L 268.668883 83.072924 
L 269.230588 84.477787 
L 269.51144 89.791833 
L 269.792293 101.458303 
L 270.073145 103.779381 
L 270.353998 103.168571 
L 270.63485 97.732362 
L 270.915703 96.3275 
L 271.196555 86.065893 
L 271.477407 80.141037 
L 272.039112 86.188055 
L 272.600817 87.165351 
L 272.88167 89.242105 
L 273.443375 107.016673 
L 273.724227 105.184243 
L 274.285932 86.310217 
L 274.566784 85.699407 
L 274.847637 91.685344 
L 275.128489 88.32589 
L 275.409342 82.706438 
L 275.690194 68.108081 
L 275.971047 67.37511 
L 276.532752 77.758878 
L 276.813604 72.566994 
L 277.094457 78.614012 
L 277.375309 81.606981 
L 277.656161 79.774551 
L 277.937014 88.081566 
L 278.217866 91.624263 
L 278.498719 90.2194 
L 278.779571 89.791833 
L 279.060424 93.823179 
L 279.622129 90.524805 
L 279.902981 92.784802 
L 280.183834 88.814538 
L 280.464686 87.776161 
L 281.026391 93.456693 
L 281.588096 81.5459 
L 281.868948 95.777771 
L 282.149801 99.198306 
L 282.430653 92.723721 
L 282.711506 97.060471 
L 283.27321 79.041579 
L 283.554063 82.21779 
L 284.115768 83.561572 
L 284.39662 87.409675 
L 284.677473 81.240495 
L 284.958325 80.996171 
L 285.239178 85.27184 
L 285.800883 81.729143 
L 286.081735 85.210759 
L 286.362587 83.683734 
L 286.64344 80.385361 
L 286.924292 83.256167 
L 287.205145 78.186445 
L 287.485997 80.874009 
L 287.76685 79.163741 
L 288.328555 91.257777 
L 288.89026 84.233463 
L 289.171112 83.317248 
L 289.451964 86.982108 
L 289.732817 87.898323 
L 290.013669 90.83021 
L 290.294522 86.249136 
L 290.575374 90.036157 
L 290.856227 87.898323 
L 291.137079 87.592918 
L 291.417932 89.60859 
L 291.698784 89.242105 
L 292.260489 103.290733 
L 292.541341 90.463724 
L 292.822194 91.746425 
L 293.103046 89.181024 
L 293.383899 88.509133 
L 293.664751 89.54751 
L 293.945604 86.676703 
L 294.226456 100.05344 
L 294.507309 85.332921 
L 294.788161 88.448052 
L 295.349866 90.158319 
L 295.630718 88.386971 
L 295.911571 88.142647 
L 296.473276 91.929668 
L 296.754128 89.425348 
L 297.034981 95.228042 
L 297.315833 88.509133 
L 297.596686 87.653999 
L 297.877538 88.448052 
L 298.158391 88.32589 
L 298.439243 89.975076 
L 298.720095 92.723721 
L 299.000948 91.685344 
L 299.2818 95.71669 
L 299.843505 98.83182 
L 300.124358 94.250746 
L 300.40521 95.777771 
L 300.686063 101.946951 
L 300.966915 93.456693 
L 301.52862 103.901543 
L 301.809472 96.205338 
L 302.090325 99.076144 
L 302.65203 95.594528 
L 302.932882 100.603169 
L 303.213735 102.130194 
L 303.77544 93.639936 
L 304.056292 96.693986 
L 304.337145 95.289123 
L 304.617997 95.166961 
L 304.898849 93.701017 
L 305.179702 93.212369 
L 305.460554 93.517774 
L 305.741407 93.029126 
L 306.303112 98.770739 
L 306.583964 96.93831 
L 306.864817 94.189665 
L 307.145669 97.365876 
L 307.426522 95.044799 
L 307.988226 105.367486 
L 308.269079 105.001 
L 308.549931 102.191275 
L 308.830784 97.488038 
L 309.111636 100.114521 
L 309.392489 99.381549 
L 309.673341 100.114521 
L 309.954194 99.564792 
L 310.235046 101.458303 
L 310.515899 115.812336 
L 310.796751 115.079364 
L 311.077603 113.857744 
L 311.358456 118.744224 
L 311.920161 108.66586 
L 312.201013 106.528025 
L 312.481866 106.405863 
L 312.762718 107.566402 
L 313.043571 110.559371 
L 313.324423 104.939919 
L 313.886128 110.925857 
L 314.16698 106.039377 
L 314.447833 105.489648 
L 314.728685 109.032346 
L 315.009538 108.116131 
L 315.29039 105.856134 
L 315.571243 106.528025 
L 315.852095 106.039377 
L 316.132948 105.978296 
L 316.4138 106.711268 
L 316.694653 117.27828 
L 316.975505 107.016673 
L 317.256357 118.805305 
L 317.53721 117.88909 
L 317.818062 108.971265 
L 318.098915 117.705847 
L 318.379767 119.293952 
L 318.66062 111.842071 
L 318.941472 120.149086 
L 319.222325 117.705847 
L 319.503177 108.482617 
L 319.78403 115.384769 
L 320.064882 112.819367 
L 320.345734 109.215589 
L 320.626587 109.704237 
L 320.907439 112.025314 
L 321.188292 109.826399 
L 321.469144 111.414505 
L 322.030849 106.22262 
L 322.311702 130.532855 
L 322.592554 129.61664 
L 322.873407 133.342581 
L 323.154259 124.485837 
L 323.435111 121.859354 
L 323.715964 131.876637 
L 323.996816 124.05827 
L 324.277669 123.691784 
L 324.558521 123.752865 
L 324.839374 122.348002 
L 325.120226 131.510151 
L 325.401079 122.470164 
L 325.681931 118.316657 
L 325.962784 121.798273 
L 326.243636 120.637734 
L 326.524488 122.775569 
L 326.805341 127.906372 
L 327.086193 119.293952 
L 327.367046 116.178822 
L 327.647898 122.531245 
L 327.928751 119.049629 
L 328.209603 118.683143 
L 328.490456 117.156118 
L 328.771308 122.714488 
L 329.052161 115.44585 
L 329.613865 124.485837 
L 329.894718 122.775569 
L 330.17557 119.293952 
L 330.737275 115.568012 
L 331.018128 116.850713 
L 331.29898 127.234481 
L 331.579833 121.126382 
L 331.860685 120.088005 
L 332.141538 121.492868 
L 332.42239 121.492868 
L 332.703242 121.248544 
L 332.984095 126.990157 
L 333.264947 120.882058 
L 333.5458 120.576653 
L 333.826652 122.103678 
L 334.107505 118.072333 
L 334.388357 118.316657 
L 334.66921 119.843681 
L 334.950062 116.05666 
L 335.230915 115.568012 
L 335.792619 110.864776 
L 336.073472 111.658829 
L 336.354324 113.796663 
L 336.635177 118.683143 
L 336.916029 118.866386 
L 337.196882 121.920435 
L 337.758587 171.151714 
L 338.039439 118.744224 
L 338.320292 121.187463 
L 338.601144 115.018283 
L 339.162849 123.508541 
L 339.443701 117.217199 
L 339.724554 119.293952 
L 340.005406 122.348002 
L 340.286259 133.95339 
L 340.567111 130.593936 
L 340.847964 123.813946 
L 341.128816 128.028534 
L 341.409669 129.00583 
L 342.252226 123.080974 
L 342.813931 126.318267 
L 343.094783 123.325298 
L 343.375636 117.828009 
L 343.656488 120.943139 
L 343.937341 115.201526 
L 344.218193 115.018283 
L 344.499046 121.798273 
L 345.06075 127.600967 
L 345.341603 126.135024 
L 345.622455 126.012862 
L 345.903308 118.316657 
L 346.18416 117.339361 
L 346.465013 120.026924 
L 346.745865 123.936108 
L 347.026718 117.27828 
L 347.30757 118.133414 
L 347.588423 119.538276 
L 347.869275 117.766928 
L 348.150127 186.421962 
L 348.43098 144.825807 
L 348.711832 149.467962 
L 348.992685 151.117149 
L 349.55439 144.031754 
L 350.116095 137.984736 
L 350.396947 132.304204 
L 350.6778 129.983126 
L 350.958652 135.846901 
L 351.239504 123.508541 
L 351.520357 131.326908 
L 351.801209 129.738802 
L 352.082062 129.250154 
L 352.362914 129.00583 
L 352.643767 126.623671 
L 352.924619 126.257186 
L 353.205472 125.463133 
L 353.486324 121.981516 
L 353.767177 123.142055 
L 354.048029 123.264217 
L 354.609734 117.461523 
L 354.890586 110.803695 
L 355.171439 113.00261 
L 355.452291 109.520994 
L 355.733144 114.590716 
L 356.013996 116.789632 
L 356.294849 109.27667 
L 356.856554 117.828009 
L 357.137406 124.119351 
L 357.418258 121.981516 
L 357.699111 124.180432 
L 357.979963 124.241513 
L 358.260816 112.025314 
L 358.541668 109.582075 
L 358.822521 111.842071 
L 359.103373 109.643156 
L 359.384226 110.742614 
L 359.665078 109.582075 
L 359.945931 109.826399 
L 360.226783 111.903152 
L 360.507635 108.788022 
L 361.350193 114.407473 
L 361.631045 101.152898 
L 361.911898 110.009642 
L 362.19275 105.733972 
L 362.473603 105.306405 
L 362.754455 109.032346 
L 363.31616 112.147476 
L 363.597012 105.062081 
L 363.877865 107.749645 
L 364.158717 108.05505 
L 364.43957 112.086395 
L 364.720422 104.756676 
L 365.001275 110.742614 
L 365.282127 110.49829 
L 365.56298 108.421536 
L 365.843832 109.582075 
L 366.124685 105.672891 
L 366.405537 106.405863 
L 366.686389 114.712878 
L 366.967242 102.008032 
L 367.528947 106.528025 
L 367.809799 105.672891 
L 368.090652 109.582075 
L 368.371504 101.641546 
L 368.652357 106.22262 
L 368.933209 106.405863 
L 369.214062 107.627483 
L 369.494914 104.512352 
L 369.775766 102.863166 
L 370.056619 111.475586 
L 370.337471 134.075552 
L 370.618324 127.478805 
L 370.899176 113.308015 
L 371.180029 114.163149 
L 371.460881 106.894511 
L 372.022586 122.348002 
L 372.303438 121.126382 
L 372.584291 122.592326 
L 372.865143 123.019893 
L 373.426848 119.232871 
L 373.707701 103.901543 
L 373.988553 101.702627 
L 374.269406 105.672891 
L 374.550258 102.618842 
L 375.111963 114.712878 
L 375.673668 110.192885 
L 375.95452 113.430177 
L 376.235373 143.78743 
L 376.516225 94.372908 
L 376.797078 97.060471 
L 377.07793 107.077754 
L 377.358783 107.138835 
L 377.639635 106.405863 
L 377.920488 98.282091 
L 378.20134 118.072333 
L 378.482192 126.684752 
L 378.763045 107.138835 
L 379.043897 102.679923 
L 379.32475 104.145867 
L 379.605602 104.451271 
L 379.886455 114.040987 
L 380.167307 100.175602 
L 380.44816 111.414505 
L 380.729012 104.817757 
L 381.009865 107.199916 
L 381.571569 100.786412 
L 382.414127 109.765318 
L 382.694979 109.582075 
L 383.537537 96.571824 
L 383.818389 104.268029 
L 384.099242 106.22262 
L 384.380094 96.877229 
L 384.941799 102.741004 
L 385.222651 99.870197 
L 385.503504 94.067503 
L 385.784356 94.311827 
L 386.626914 98.953982 
L 386.907766 99.137225 
L 387.469471 104.39019 
L 387.750323 104.145867 
L 388.031176 100.481007 
L 388.873733 118.683143 
L 389.154586 104.512352 
L 389.435438 107.749645 
L 389.716291 108.971265 
L 389.997143 107.077754 
L 390.277996 107.993969 
L 391.120553 117.339361 
L 391.401405 117.400442 
L 391.682258 121.920435 
L 392.243963 117.27828 
L 392.524815 117.705847 
L 392.805668 121.553949 
L 393.08652 118.255576 
L 393.367373 120.882058 
L 393.648225 124.730161 
L 393.929077 131.754475 
L 394.20993 125.218809 
L 394.490782 124.852323 
L 394.771635 119.477195 
L 395.052487 119.416114 
L 395.33334 128.883668 
L 395.614192 130.22745 
L 395.895045 122.83665 
L 396.175897 125.463133 
L 396.45675 122.103678 
L 396.737602 115.201526 
L 397.018454 116.423146 
L 397.299307 122.470164 
L 397.861012 106.344782 
L 398.703569 116.606389 
L 398.984422 117.400442 
L 399.546127 124.974485 
L 399.826979 128.333939 
L 400.107831 119.965843 
L 400.388684 119.355033 
L 400.669536 130.22745 
L 400.950389 122.409083 
L 401.231241 119.843681 
L 401.512094 122.042597 
L 401.792946 120.39341 
L 402.073799 123.630703 
L 402.354651 124.974485 
L 402.635504 123.875027 
L 402.916356 124.791242 
L 403.197208 123.142055 
L 403.478061 123.44746 
L 403.758913 125.585295 
L 404.039766 126.135024 
L 404.601471 140.122571 
L 404.882323 139.817166 
L 405.163176 139.939328 
L 405.444028 135.419334 
L 405.724881 136.824197 
L 406.286585 145.00905 
L 406.567438 140.000409 
L 406.84829 141.222029 
L 407.129143 139.572842 
L 407.409995 130.899341 
L 407.690848 138.778789 
L 408.252553 132.853933 
L 408.533405 134.075552 
L 408.814258 130.655017 
L 409.09511 130.044207 
L 409.375962 127.600967 
L 409.656815 128.517182 
L 409.937667 134.930686 
L 410.499372 154.171199 
L 410.780225 152.644174 
L 411.061077 140.000409 
L 411.34193 139.206356 
L 411.622782 137.373926 
L 411.903635 143.909592 
L 412.184487 154.659847 
L 412.465339 155.942548 
L 413.027044 153.01066 
L 413.307897 156.7366 
L 413.588749 158.202544 
L 413.869602 155.4539 
L 414.150454 158.813354 
L 414.431307 157.103086 
L 414.712159 156.980924 
L 414.993012 149.467962 
L 415.273864 149.101476 
L 415.554716 149.406881 
L 415.835569 150.750663 
L 416.116421 167.914422 
L 416.397274 141.405271 
L 416.678126 159.363083 
L 416.958979 166.387397 
L 417.520684 110.620452 
L 417.801536 123.508541 
L 418.082389 127.417724 
L 418.363241 126.684752 
L 418.644093 134.686362 
L 418.924946 134.808524 
L 419.205798 129.127992 
L 419.486651 128.578263 
L 419.767503 129.922045 
L 420.048356 123.019893 
L 420.329208 123.019893 
L 420.610061 121.920435 
L 420.890913 127.1734 
L 421.171766 117.705847 
L 421.452618 117.766928 
L 421.73347 117.156118 
L 422.014323 115.323688 
L 422.295175 121.981516 
L 422.576028 120.698815 
L 422.85688 125.218809 
L 423.137733 123.630703 
L 423.699438 133.586905 
L 423.98029 135.17501 
L 424.261143 135.541496 
L 424.541995 131.326908 
L 424.822847 137.557169 
L 425.1037 135.78582 
L 425.384552 137.984736 
L 425.665405 141.34419 
L 425.946257 146.536075 
L 426.507962 152.033364 
L 426.788815 131.510151 
L 427.069667 132.792852 
L 427.35052 132.853933 
L 427.631372 133.89231 
L 427.912224 145.803103 
L 428.193077 149.406881 
L 428.473929 144.642564 
L 428.754782 145.680941 
L 429.035634 132.120961 
L 429.316487 133.342581 
L 429.597339 146.169589 
L 429.878192 147.146885 
L 430.439897 136.457711 
L 430.720749 138.83987 
L 431.001601 138.045817 
L 431.282454 134.991767 
L 431.563306 141.160948 
L 431.844159 142.504729 
L 432.125011 143.17662 
L 432.405864 146.597156 
L 432.686716 152.277688 
L 432.967569 151.300392 
L 433.248421 144.703645 
L 433.529274 142.199324 
L 433.810126 151.78904 
L 434.090978 156.675519 
L 434.371831 140.916624 
L 434.652683 141.34419 
L 434.933536 144.031754 
L 435.214388 143.726349 
L 435.495241 139.145275 
L 436.056946 152.583093 
L 436.337798 143.237701 
L 436.899503 159.607407 
L 437.180355 152.705255 
L 437.461208 151.911202 
L 437.74206 144.092835 
L 438.022913 145.375536 
L 438.303765 144.642564 
L 438.584618 139.267437 
L 438.86547 147.085804 
L 439.146323 147.207966 
L 439.427175 138.962032 
L 439.708028 139.817166 
L 439.98888 143.237701 
L 440.269732 140.855543 
L 440.550585 136.763116 
L 440.831437 128.456101 
L 441.11229 130.105288 
L 441.393142 131.082584 
L 441.954847 136.274468 
L 442.2357 134.808524 
L 442.516552 138.717708 
L 442.797405 136.579873 
L 443.359109 147.635533 
L 443.920814 140.122571 
L 444.201667 142.871215 
L 444.482519 141.832838 
L 444.763372 134.197714 
L 445.325077 139.45068 
L 445.605929 137.00744 
L 445.886782 138.83987 
L 446.448486 302.903414 
L 446.729339 288.915867 
L 447.010191 290.809377 
L 447.291044 226.246769 
L 447.571896 86.49346 
L 448.133601 75.132395 
L 448.695306 67.191867 
L 448.976159 68.108081 
L 449.257011 67.008624 
L 449.537863 67.008624 
L 449.818716 46.851896 
L 450.099568 44.408657 
L 450.380421 44.5919 
L 450.661273 52.288105 
L 450.942126 48.684326 
L 451.222978 49.967027 
L 451.503831 47.462706 
L 451.784683 47.401625 
L 452.065536 47.584868 
L 452.346388 51.005404 
L 452.62724 51.188647 
L 452.908093 50.028108 
L 453.188945 47.951354 
L 453.469798 49.905946 
L 453.75065 48.745407 
L 454.031503 48.440002 
L 454.593208 49.234055 
L 455.154913 46.607572 
L 455.435765 47.584868 
L 455.716617 50.089189 
L 455.99747 49.844865 
L 456.278322 50.699999 
L 456.559175 50.76108 
L 456.840027 50.944323 
L 457.12088 54.120534 
L 457.401732 55.830802 
L 457.682585 48.378921 
L 457.963437 57.235665 
L 458.24429 56.502693 
L 458.525142 48.684326 
L 459.367699 74.582667 
L 459.648552 88.081566 
L 459.929404 87.165351 
L 460.210257 80.018875 
L 460.771962 55.036749 
L 461.052814 53.692967 
L 461.333666 53.2654 
L 461.614519 57.174584 
L 461.895371 66.336733 
L 462.176224 67.863757 
L 462.457076 60.411876 
L 462.737929 60.6562 
L 463.018781 58.396204 
L 463.299634 64.809708 
L 463.580486 61.87782 
L 463.861339 62.794035 
L 464.142191 59.251338 
L 464.423043 62.305387 
L 464.703896 61.816739 
L 464.984748 58.090799 
L 465.265601 52.532429 
L 465.546453 54.853506 
L 465.827306 53.87621 
L 466.108158 54.242696 
L 466.389011 52.898914 
L 466.669863 44.286495 
L 466.950716 44.469738 
L 467.231568 45.569195 
L 467.51242 45.752438 
L 467.793273 47.584868 
L 468.074125 46.729734 
L 468.354978 47.768111 
L 468.63583 45.935681 
L 468.916683 45.630276 
L 469.197535 45.935681 
L 469.478388 44.897305 
L 469.75924 46.180005 
L 470.040093 45.752438 
L 470.320945 47.584868 
L 470.601797 52.288105 
L 470.88265 52.776752 
L 471.163502 54.670263 
L 471.444355 47.523787 
L 471.725207 53.509724 
L 472.00606 49.600541 
L 472.567765 63.282683 
L 472.848617 66.336733 
L 473.410322 68.474567 
L 473.691174 68.902134 
L 473.972027 66.214571 
L 474.252879 68.596729 
L 474.533732 66.703219 
L 474.814584 69.024296 
L 475.095437 66.886462 
L 475.376289 52.776752 
L 475.657142 48.989731 
L 476.218847 45.569195 
L 476.499699 47.829192 
L 476.780551 45.813519 
L 477.061404 45.26379 
L 477.342256 45.26379 
L 477.623109 43.553523 
L 478.184814 45.8746 
L 478.465666 45.324871 
L 478.746519 43.98109 
L 479.027371 45.26379 
L 479.308224 43.614604 
L 479.869928 69.329701 
L 480.150781 63.343764 
L 480.431633 63.771331 
L 480.993338 80.141037 
L 481.274191 102.130194 
L 481.555043 101.458303 
L 481.835896 85.943731 
L 482.116748 86.065893 
L 482.397601 79.71347 
L 482.678453 76.476177 
L 482.959305 81.118333 
L 483.240158 77.27023 
L 483.52101 81.729143 
L 484.082715 93.823179 
L 484.363568 86.188055 
L 484.925273 83.317248 
L 485.206125 90.341562 
L 485.486978 75.254557 
L 485.76783 76.903744 
L 486.048682 84.233463 
L 486.329535 76.415096 
L 486.610387 78.125364 
L 486.89124 83.866977 
L 487.172092 83.928058 
L 487.452945 81.484819 
L 487.733797 80.32428 
L 488.01465 83.072924 
L 488.576355 81.5459 
L 488.857207 79.408065 
L 489.138059 79.163741 
L 489.418912 81.912386 
L 489.699764 81.606981 
L 489.980617 83.989139 
L 490.261469 77.758878 
L 490.542322 81.668062 
L 490.823174 58.823771 
L 491.104027 50.394594 
L 491.384879 47.279463 
L 492.227436 51.799457 
L 492.508289 57.54107 
L 492.789141 77.514554 
L 493.069994 79.957794 
L 493.631699 67.37511 
L 493.912551 59.739986 
L 494.193404 56.441612 
L 494.474256 49.844865 
L 494.755109 53.204319 
L 495.035961 52.227024 
L 495.316813 53.754048 
L 495.597666 54.303777 
L 495.878518 58.090799 
L 496.440223 84.966435 
L 496.721076 81.851305 
L 497.001928 80.079956 
L 497.282781 81.484819 
L 497.563633 81.5459 
L 497.844486 86.188055 
L 498.40619 77.758878 
L 498.687043 76.537258 
L 498.967895 80.079956 
L 499.248748 77.942121 
L 499.5296 86.49346 
L 499.810453 72.32267 
L 500.091305 82.8286 
L 500.65301 81.423738 
L 500.933863 81.179414 
L 501.214715 72.689156 
L 501.495567 84.172382 
L 501.77642 77.025906 
L 502.057272 52.349186 
L 502.338125 59.495662 
L 502.618977 56.502693 
L 502.89983 55.830802 
L 503.180682 54.853506 
L 503.461535 58.090799 
L 503.742387 63.038359 
L 504.02324 72.811318 
L 504.304092 73.055642 
L 504.584944 62.244306 
L 504.865797 63.465926 
L 505.146649 65.237275 
L 505.708354 72.383751 
L 506.270059 75.376719 
L 506.550912 75.926448 
L 506.831764 79.285903 
L 507.112617 72.628075 
L 507.674321 97.304795 
L 507.955174 91.196696 
L 508.236026 78.369688 
L 508.516879 80.385361 
L 508.797731 85.27184 
L 509.078584 82.889681 
L 509.359436 78.064283 
L 509.640289 75.682124 
L 509.921141 62.366468 
L 510.201994 54.853506 
L 510.482846 56.93026 
L 511.044551 68.902134 
L 511.325403 79.163741 
L 511.606256 81.484819 
L 511.887108 71.10105 
L 512.729666 63.527007 
L 513.010518 64.076736 
L 513.291371 68.230243 
L 513.572223 69.635106 
L 513.853075 75.926448 
L 514.133928 75.4378 
L 514.41478 78.675093 
L 514.695633 74.82699 
L 514.976485 76.170772 
L 515.257338 75.987529 
L 515.53819 83.622653 
L 515.819043 83.195086 
L 516.099895 73.299966 
L 516.380748 79.896713 
L 516.6616 75.621043 
L 516.942452 74.1551 
L 517.223305 77.758878 
L 517.504157 76.964825 
L 517.78501 72.811318 
L 518.065862 73.238885 
L 518.346715 78.186445 
L 518.627567 73.971857 
L 518.90842 73.483209 
L 519.189272 59.3735 
L 519.470125 63.160521 
L 519.750977 63.954574 
L 520.031829 78.064283 
L 520.312682 98.159929 
L 520.874387 80.629685 
L 521.155239 87.287513 
L 521.436092 82.278871 
L 521.716944 79.530227 
L 521.997797 79.652389 
L 522.278649 78.064283 
L 522.559502 78.614012 
L 523.121206 75.315638 
L 523.402059 82.034548 
L 523.682911 78.430769 
L 523.963764 68.169162 
L 524.244616 70.917807 
L 524.525469 80.446442 
L 524.806321 76.964825 
L 525.087174 75.559962 
L 525.368026 79.896713 
L 525.648879 78.369688 
L 525.929731 80.263199 
L 526.210583 78.980498 
L 526.491436 80.079956 
L 526.772288 76.231853 
L 527.053141 79.530227 
L 527.333993 74.032938 
L 527.614846 75.498881 
L 527.895698 72.444832 
L 528.176551 79.957794 
L 528.457403 77.331311 
L 528.738256 76.537258 
L 529.019108 75.193476 
L 529.29996 75.254557 
L 529.580813 75.987529 
L 529.861665 73.54429 
L 530.142518 73.116723 
L 530.42337 75.559962 
L 530.704223 74.399424 
L 530.985075 75.4378 
L 531.265928 72.811318 
L 531.54678 76.903744 
L 531.827633 76.842663 
L 532.108485 74.399424 
L 532.389337 73.788614 
L 532.67019 79.163741 
L 532.951042 80.996171 
L 533.512747 75.621043 
L 533.7936 74.643748 
L 534.074452 76.415096 
L 534.355305 73.361047 
L 534.636157 67.008624 
L 534.91701 74.76591 
L 535.197862 72.872399 
L 535.478714 75.865367 
L 535.759567 74.888071 
L 536.040419 77.392392 
L 536.321272 73.177804 
L 536.602124 71.162131 
L 536.882977 75.987529 
L 537.163829 74.82699 
L 537.444682 72.383751 
L 537.725534 74.949152 
L 538.006387 68.169162 
L 538.287239 69.085377 
L 538.568091 74.521586 
L 538.848944 76.781582 
L 539.129796 77.392392 
L 539.691501 75.804286 
L 539.972354 76.537258 
L 540.814911 69.940511 
L 541.095764 71.10105 
L 541.376616 71.406455 
L 541.657468 73.361047 
L 541.938321 77.636716 
L 542.219173 74.704829 
L 542.500026 61.694577 
L 542.780878 74.216181 
L 543.061731 97.915605 
L 543.342583 96.3275 
L 543.623436 89.242105 
L 543.904288 86.188055 
L 544.185141 77.88104 
L 544.465993 82.950762 
L 544.746845 78.614012 
L 545.027698 83.134005 
L 545.30855 72.139427 
L 545.870255 82.8286 
L 546.151108 78.003202 
L 546.43196 78.003202 
L 546.712813 75.010233 
L 547.274517 64.198898 
L 547.55537 69.024296 
L 547.836222 69.818349 
L 548.117075 69.818349 
L 548.397927 68.169162 
L 548.67878 67.252948 
L 549.240485 74.888071 
L 549.521337 69.940511 
L 549.80219 72.689156 
L 550.083042 70.673483 
L 550.363894 66.947543 
L 550.644747 73.971857 
L 550.925599 75.071314 
L 551.487304 67.924838 
L 551.768157 66.825381 
L 552.049009 67.558352 
L 552.329862 63.588088 
L 552.329862 63.588088 
" clip-path="url(#pdc1275e155)" style="fill: none; stroke: #008000; stroke-opacity: 0.7; stroke-width: 2; stroke-linecap: square"/>
   </g>
   <g id="patch_3">
    <path d="M 32.3175 396.29625 
L 32.3175 26.75625 
" style="fill: none; stroke: #bcbcbc; stroke-width: 0.8; stroke-linejoin: miter; stroke-linecap: square"/>
   </g>
   <g id="patch_4">
    <path d="M 709.2 396.29625 
L 709.2 26.75625 
" style="fill: none; stroke: #bcbcbc; stroke-width: 0.8; stroke-linejoin: miter; stroke-linecap: square"/>
   </g>
   <g id="patch_5">
    <path d="M 32.3175 396.29625 
L 709.2 396.29625 
" style="fill: none; stroke: #bcbcbc; stroke-width: 0.8; stroke-linejoin: miter; stroke-linecap: square"/>
   </g>
   <g id="patch_6">
    <path d="M 32.3175 26.75625 
L 709.2 26.75625 
" style="fill: none; stroke: #bcbcbc; stroke-width: 0.8; stroke-linejoin: miter; stroke-linecap: square"/>
   </g>
   <g id="text_14">
    <!-- pH - 真实值与预测值对比 (SARIMA) -->
    <g transform="translate(274.75875 20.75625) scale(0.12 -0.12)">
     <defs>
      <path id="SimHei-2d" d="M 2975 2125 
L 125 2125 
L 125 2525 
L 2975 2525 
L 2975 2125 
z
" transform="scale(0.015625)"/>
      <path id="SimHei-771f" d="M 3550 5100 
Q 3450 4925 3400 4625 
L 4850 4625 
Q 5175 4625 5725 4650 
L 5725 4250 
Q 5200 4275 4850 4275 
L 3350 4275 
L 3300 3850 
L 5050 3850 
Q 5025 3550 5025 3150 
L 5025 1075 
L 5400 1075 
Q 5800 1075 6075 1100 
L 6075 625 
Q 5575 650 4900 650 
L 1450 650 
Q 775 650 350 625 
L 350 1100 
Q 725 1075 1100 1075 
L 1425 1075 
L 1425 3075 
Q 1425 3450 1400 3850 
L 2825 3850 
L 2850 4275 
L 1400 4275 
Q 1050 4275 625 4250 
L 625 4650 
Q 1175 4625 1375 4625 
L 2925 4625 
Q 2950 4875 2950 5125 
Q 3300 5100 3550 5100 
z
M 4075 525 
Q 4500 425 4925 250 
Q 5350 75 5825 -150 
Q 5550 -425 5450 -575 
Q 5025 -300 4550 -100 
Q 4075 100 3800 175 
Q 3925 350 4075 525 
z
M 4525 3150 
L 4525 3475 
L 1925 3475 
L 1925 3150 
L 4525 3150 
z
M 4525 1075 
L 4525 1400 
L 1925 1400 
L 1925 1075 
L 4525 1075 
z
M 2775 200 
Q 2375 -25 1875 -225 
Q 1375 -425 950 -575 
Q 775 -400 600 -250 
Q 1225 -50 1625 137 
Q 2025 325 2350 525 
Q 2550 350 2775 200 
z
M 4525 1775 
L 4525 2075 
L 1925 2075 
L 1925 1775 
L 4525 1775 
z
M 4525 2475 
L 4525 2775 
L 1925 2775 
L 1925 2475 
L 4525 2475 
z
" transform="scale(0.015625)"/>
      <path id="SimHei-5b9e" d="M 4125 3500 
Q 4050 3200 4000 2675 
Q 3950 2150 3850 1550 
L 5025 1550 
Q 5475 1550 5975 1575 
L 5975 1100 
Q 5450 1125 5000 1125 
L 3725 1125 
Q 3500 625 3050 250 
Q 2600 -125 2000 -337 
Q 1400 -550 925 -675 
Q 825 -375 500 -200 
Q 1225 -125 2050 212 
Q 2875 550 3200 1125 
L 1425 1125 
Q 975 1125 425 1100 
L 425 1575 
Q 1000 1550 1425 1550 
L 3375 1550 
Q 3450 1975 3487 2462 
Q 3525 2950 3500 3650 
Q 3800 3550 4125 3500 
z
M 3250 5250 
Q 3450 4850 3600 4375 
L 5775 4375 
Q 5750 4100 5750 3825 
Q 5750 3575 5775 3275 
L 5200 3275 
L 5200 3975 
L 1225 3975 
L 1225 3225 
L 675 3225 
Q 700 3525 700 3800 
Q 700 4100 675 4375 
L 2975 4375 
Q 2900 4675 2700 5075 
Q 2900 5150 3250 5250 
z
M 4000 825 
Q 4550 525 5050 262 
Q 5550 0 5925 -225 
Q 5750 -425 5550 -650 
Q 5100 -325 4575 -37 
Q 4050 250 3675 400 
Q 3875 650 4000 825 
z
M 1175 2750 
Q 1600 2550 2350 2050 
Q 2250 1900 2050 1650 
Q 1350 2175 925 2350 
Q 1075 2500 1175 2750 
z
M 3150 2825 
Q 2975 2625 2850 2425 
Q 2050 3000 1675 3125 
Q 1800 3300 1950 3525 
L 3150 2825 
z
" transform="scale(0.015625)"/>
      <path id="SimHei-4e0e" d="M 5350 100 
Q 5275 -300 4925 -425 
Q 4575 -550 3900 -600 
Q 3875 -375 3650 -25 
Q 4375 -50 4575 0 
Q 4775 50 4837 225 
Q 4900 400 5100 2350 
L 1125 2350 
Q 1450 4350 1475 5200 
Q 1800 5150 2075 5125 
Q 1975 4825 1900 4275 
L 4900 4275 
Q 5400 4275 5800 4300 
L 5800 3825 
Q 5400 3850 4950 3850 
L 1850 3850 
L 1700 2750 
L 5675 2750 
Q 5625 2450 5575 2050 
L 5350 100 
z
M 3675 1350 
Q 4125 1350 4500 1375 
L 4500 875 
Q 4125 900 3850 900 
L 1450 900 
Q 1000 900 500 875 
L 500 1375 
Q 1000 1350 1450 1350 
L 3675 1350 
z
" transform="scale(0.015625)"/>
      <path id="SimHei-9884" d="M 5200 4800 
Q 5575 4800 5950 4825 
L 5950 4400 
Q 5575 4425 5200 4425 
L 4500 4425 
Q 4425 4050 4350 3600 
L 5725 3600 
Q 5700 3225 5700 2800 
L 5700 1725 
Q 5700 1300 5725 850 
L 5250 850 
L 5250 3225 
L 3550 3225 
L 3550 800 
L 3075 800 
Q 3100 1375 3100 1725 
L 3100 2775 
Q 3100 3175 3075 3600 
L 3900 3600 
Q 4000 4150 4000 4425 
L 3725 4425 
Q 3300 4425 2850 4400 
L 2850 4825 
Q 3325 4800 3725 4800 
L 5200 4800 
z
M 2600 1775 
Q 2350 1825 2150 1825 
Q 2250 2250 2300 2450 
L 1750 2450 
L 1750 125 
Q 1725 -300 1425 -400 
Q 1125 -500 750 -500 
Q 700 -225 575 25 
Q 1125 -25 1212 37 
Q 1300 100 1300 350 
L 1300 2450 
L 1025 2450 
Q 700 2450 350 2425 
L 350 2850 
Q 700 2825 1000 2825 
L 2850 2825 
Q 2725 2325 2600 1775 
z
M 4725 2875 
Q 4625 2575 4600 2100 
Q 4575 1625 4462 1037 
Q 4350 450 3962 62 
Q 3575 -325 2925 -675 
Q 2700 -500 2475 -350 
Q 3075 -125 3437 200 
Q 3800 525 3950 937 
Q 4100 1350 4137 1850 
Q 4175 2350 4175 2925 
L 4725 2875 
z
M 1625 2900 
Q 1275 3275 800 3650 
Q 925 3775 1075 3950 
Q 1250 3825 1425 3675 
Q 1750 4150 1950 4375 
L 1400 4375 
Q 900 4375 450 4350 
L 450 4775 
Q 900 4750 1375 4750 
L 2575 4750 
L 2575 4375 
Q 2200 4100 1725 3400 
L 1950 3200 
Q 1750 3025 1625 2900 
z
M 4775 725 
Q 5725 0 6075 -325 
Q 5850 -500 5725 -650 
Q 5400 -325 5137 -87 
Q 4875 150 4525 350 
Q 4650 525 4775 725 
z
" transform="scale(0.015625)"/>
      <path id="SimHei-6d4b" d="M 4025 4725 
Q 4000 4475 4000 4000 
L 4000 2225 
Q 4000 1775 4025 1350 
L 3550 1350 
L 3550 4325 
L 2350 4325 
L 2350 1325 
L 1900 1325 
Q 1925 1775 1925 2225 
L 1925 4000 
Q 1925 4200 1900 4725 
L 4025 4725 
z
M 5900 5075 
Q 5875 4800 5875 4375 
L 5875 0 
Q 5875 -325 5650 -425 
Q 5425 -525 4975 -600 
Q 4925 -325 4775 -50 
Q 5125 -50 5262 -25 
Q 5400 0 5400 250 
L 5400 4375 
Q 5400 4775 5375 5075 
L 5900 5075 
z
M 3275 3725 
Q 3225 3400 3200 2325 
Q 3175 1250 2837 550 
Q 2500 -150 2075 -600 
Q 1850 -400 1600 -325 
Q 2200 250 2475 962 
Q 2750 1675 2762 2475 
Q 2775 3275 2725 3800 
Q 3000 3750 3275 3725 
z
M 4950 4275 
Q 4925 4000 4925 3575 
L 4925 1825 
Q 4925 1300 4950 850 
L 4450 850 
Q 4475 1150 4475 1825 
L 4475 3575 
Q 4475 4000 4450 4275 
L 4950 4275 
z
M 1700 1675 
Q 1375 1075 1112 487 
Q 850 -100 725 -400 
Q 500 -200 200 -25 
Q 475 300 762 850 
Q 1050 1400 1250 2000 
Q 1475 1825 1700 1675 
z
M 3400 1050 
Q 3800 650 4300 -125 
Q 4100 -225 3875 -450 
Q 3475 275 3025 750 
Q 3225 875 3400 1050 
z
M 600 3525 
Q 1125 3125 1500 2775 
Q 1300 2575 1150 2375 
Q 825 2775 300 3150 
Q 450 3300 600 3525 
z
M 1350 4000 
Q 950 4375 475 4675 
Q 625 4850 775 5050 
Q 1300 4700 1675 4375 
Q 1500 4250 1350 4000 
z
" transform="scale(0.015625)"/>
      <path id="SimHei-5bf9" d="M 525 4250 
Q 900 4225 1400 4225 
L 2825 4225 
Q 2575 2625 2200 1750 
Q 2825 875 3125 400 
Q 2950 275 2725 75 
Q 2200 975 1950 1300 
Q 1650 775 1350 425 
Q 1050 75 600 -350 
Q 425 -125 200 -25 
Q 625 275 975 675 
Q 1325 1075 1650 1700 
Q 1050 2425 550 2900 
Q 700 3025 900 3225 
Q 1625 2425 1875 2150 
Q 2200 3050 2300 3825 
L 1400 3825 
Q 900 3825 525 3800 
L 525 4250 
z
M 2925 3700 
Q 3525 3675 3750 3675 
L 4825 3675 
L 4825 4425 
Q 4825 4750 4775 5125 
L 5350 5125 
Q 5325 4825 5325 4375 
L 5325 3675 
Q 5575 3675 6150 3700 
L 6150 3250 
Q 5575 3275 5325 3275 
L 5325 125 
Q 5350 -350 5012 -475 
Q 4675 -600 4250 -650 
Q 4175 -350 4025 -100 
Q 4575 -100 4712 -37 
Q 4850 25 4825 325 
L 4825 3275 
L 3775 3275 
Q 3550 3275 2925 3225 
L 2925 3700 
z
M 3450 2725 
Q 3875 1975 4175 1325 
Q 3850 1200 3700 1075 
Q 3475 1750 3050 2475 
Q 3225 2550 3450 2725 
z
" transform="scale(0.015625)"/>
      <path id="SimHei-6bd4" d="M 3775 5100 
Q 3750 4575 3750 4100 
L 3750 3050 
Q 4925 3600 5475 4175 
Q 5675 3900 5900 3675 
Q 5600 3500 5037 3187 
Q 4475 2875 3750 2550 
L 3750 450 
Q 3750 100 4050 100 
L 5000 100 
Q 5175 100 5262 250 
Q 5350 400 5450 900 
Q 5650 775 6025 675 
Q 5850 0 5650 -175 
Q 5450 -350 5225 -350 
L 3900 -350 
Q 3250 -350 3250 275 
L 3250 4000 
Q 3250 4550 3225 5100 
L 3775 5100 
z
M 1275 4975 
Q 1250 4575 1250 4000 
L 1250 3150 
L 1850 3150 
Q 2325 3150 2875 3175 
L 2875 2650 
Q 2325 2675 1850 2675 
L 1250 2675 
L 1250 475 
Q 1650 650 1962 812 
Q 2275 975 2850 1275 
Q 2900 950 2950 750 
Q 2375 475 1762 175 
Q 1150 -125 925 -325 
Q 750 -100 575 200 
Q 700 300 750 600 
L 750 3950 
Q 750 4550 725 4975 
L 1275 4975 
z
" transform="scale(0.015625)"/>
      <path id="SimHei-28" d="M 2975 -200 
L 2700 -475 
Q 2075 125 1762 775 
Q 1450 1425 1450 2250 
Q 1450 3075 1762 3725 
Q 2075 4375 2700 5000 
L 2975 4725 
Q 2400 4175 2112 3587 
Q 1825 3000 1825 2250 
Q 1825 1500 2112 912 
Q 2400 325 2975 -200 
z
" transform="scale(0.015625)"/>
      <path id="SimHei-53" d="M 2900 1325 
Q 2900 750 2537 412 
Q 2175 75 1550 75 
Q 925 75 575 425 
Q 225 775 225 1300 
L 225 1475 
L 800 1475 
L 800 1325 
Q 800 950 1025 750 
Q 1250 550 1550 550 
Q 1950 550 2137 762 
Q 2325 975 2325 1275 
Q 2325 1525 2100 1737 
Q 1875 1950 1450 2125 
Q 850 2350 587 2625 
Q 325 2900 325 3275 
Q 325 3800 687 4125 
Q 1050 4450 1550 4450 
Q 2200 4450 2487 4062 
Q 2775 3675 2775 3225 
L 2200 3225 
Q 2225 3500 2050 3725 
Q 1875 3950 1550 3950 
Q 1250 3950 1075 3787 
Q 900 3625 900 3350 
Q 900 3125 1037 2962 
Q 1175 2800 1750 2575 
Q 2300 2350 2600 2037 
Q 2900 1725 2900 1325 
z
" transform="scale(0.015625)"/>
      <path id="SimHei-41" d="M 3075 125 
L 2475 125 
L 2125 1450 
L 1025 1450 
L 675 125 
L 75 125 
L 1325 4450 
L 1825 4450 
L 3075 125 
z
M 2000 1925 
L 1600 3450 
L 1550 3450 
L 1150 1925 
L 2000 1925 
z
" transform="scale(0.015625)"/>
      <path id="SimHei-52" d="M 3000 125 
L 2400 125 
L 1500 1975 
L 850 1975 
L 850 125 
L 275 125 
L 275 4400 
L 1525 4400 
Q 2125 4400 2500 4112 
Q 2875 3825 2875 3175 
Q 2875 2675 2625 2400 
Q 2375 2125 2050 2050 
L 3000 125 
z
M 2300 3175 
Q 2300 3525 2087 3725 
Q 1875 3925 1400 3925 
L 850 3925 
L 850 2450 
L 1550 2450 
Q 1850 2450 2075 2612 
Q 2300 2775 2300 3175 
z
" transform="scale(0.015625)"/>
      <path id="SimHei-49" d="M 1850 125 
L 1275 125 
L 1275 4400 
L 1850 4400 
L 1850 125 
z
" transform="scale(0.015625)"/>
      <path id="SimHei-4d" d="M 2925 125 
L 2425 125 
L 2425 3175 
L 2375 3175 
L 1775 125 
L 1375 125 
L 775 3175 
L 725 3175 
L 725 125 
L 225 125 
L 225 4400 
L 1000 4400 
L 1550 1575 
L 1600 1575 
L 2150 4400 
L 2925 4400 
L 2925 125 
z
" transform="scale(0.015625)"/>
      <path id="SimHei-29" d="M 1675 2250 
Q 1675 1425 1362 775 
Q 1050 125 425 -475 
L 150 -200 
Q 725 325 1012 912 
Q 1300 1500 1300 2250 
Q 1300 3000 1012 3587 
Q 725 4175 150 4725 
L 425 5000 
Q 1050 4375 1362 3725 
Q 1675 3075 1675 2250 
z
" transform="scale(0.015625)"/>
     </defs>
     <use xlink:href="#SimHei-70"/>
     <use xlink:href="#SimHei-48" transform="translate(50 0)"/>
     <use xlink:href="#SimHei-20" transform="translate(100 0)"/>
     <use xlink:href="#SimHei-2d" transform="translate(150 0)"/>
     <use xlink:href="#SimHei-20" transform="translate(200 0)"/>
     <use xlink:href="#SimHei-771f" transform="translate(250 0)"/>
     <use xlink:href="#SimHei-5b9e" transform="translate(350 0)"/>
     <use xlink:href="#SimHei-503c" transform="translate(450 0)"/>
     <use xlink:href="#SimHei-4e0e" transform="translate(550 0)"/>
     <use xlink:href="#SimHei-9884" transform="translate(650 0)"/>
     <use xlink:href="#SimHei-6d4b" transform="translate(750 0)"/>
     <use xlink:href="#SimHei-503c" transform="translate(850 0)"/>
     <use xlink:href="#SimHei-5bf9" transform="translate(950 0)"/>
     <use xlink:href="#SimHei-6bd4" transform="translate(1050 0)"/>
     <use xlink:href="#SimHei-20" transform="translate(1150 0)"/>
     <use xlink:href="#SimHei-28" transform="translate(1200 0)"/>
     <use xlink:href="#SimHei-53" transform="translate(1250 0)"/>
     <use xlink:href="#SimHei-41" transform="translate(1300 0)"/>
     <use xlink:href="#SimHei-52" transform="translate(1350 0)"/>
     <use xlink:href="#SimHei-49" transform="translate(1400 0)"/>
     <use xlink:href="#SimHei-4d" transform="translate(1450 0)"/>
     <use xlink:href="#SimHei-41" transform="translate(1500 0)"/>
     <use xlink:href="#SimHei-29" transform="translate(1550 0)"/>
    </g>
   </g>
   <g id="legend_1">
    <g id="patch_7">
     <path d="M 38.6175 72.171094 
L 103.4175 72.171094 
Q 105.2175 72.171094 105.2175 70.371094 
L 105.2175 33.05625 
Q 105.2175 31.25625 103.4175 31.25625 
L 38.6175 31.25625 
Q 36.8175 31.25625 36.8175 33.05625 
L 36.8175 70.371094 
Q 36.8175 72.171094 38.6175 72.171094 
z
" style="fill: #eeeeee; opacity: 0.8; stroke: #cccccc; stroke-width: 0.5; stroke-linejoin: miter"/>
    </g>
    <g id="line2d_26">
     <path d="M 40.4175 38.913281 
L 49.4175 38.913281 
L 58.4175 38.913281 
" style="fill: none; stroke: #ff0000; stroke-width: 1.5; stroke-linecap: square"/>
    </g>
    <g id="text_15">
     <!-- 真实值 -->
     <g transform="translate(65.6175 42.063281) scale(0.09 -0.09)">
      <use xlink:href="#SimHei-771f"/>
      <use xlink:href="#SimHei-5b9e" transform="translate(100 0)"/>
      <use xlink:href="#SimHei-503c" transform="translate(200 0)"/>
     </g>
    </g>
    <g id="line2d_27">
     <path d="M 40.4175 51.604688 
L 49.4175 51.604688 
L 58.4175 51.604688 
" style="fill: none; stroke-dasharray: 5.55,2.4; stroke-dashoffset: 0; stroke: #0000ff; stroke-width: 1.5"/>
    </g>
    <g id="text_16">
     <!-- 预测值 -->
     <g transform="translate(65.6175 54.754688) scale(0.09 -0.09)">
      <use xlink:href="#SimHei-9884"/>
      <use xlink:href="#SimHei-6d4b" transform="translate(100 0)"/>
      <use xlink:href="#SimHei-503c" transform="translate(200 0)"/>
     </g>
    </g>
    <g id="line2d_28">
     <path d="M 40.4175 64.296094 
L 49.4175 64.296094 
L 58.4175 64.296094 
" style="fill: none; stroke: #008000; stroke-opacity: 0.7; stroke-width: 2; stroke-linecap: square"/>
    </g>
    <g id="text_17">
     <!-- 训练数据 -->
     <g transform="translate(65.6175 67.446094) scale(0.09 -0.09)">
      <defs>
       <path id="SimHei-8bad" d="M 1650 3300 
Q 1625 2725 1625 2225 
L 1625 675 
Q 1950 1125 2050 1275 
Q 2175 1125 2350 900 
Q 2025 500 1800 212 
Q 1575 -75 1325 -425 
Q 1150 -200 950 -50 
Q 1150 225 1150 625 
L 1150 2875 
L 975 2875 
Q 600 2875 300 2850 
L 300 3325 
Q 600 3300 975 3300 
L 1650 3300 
z
M 3425 4600 
Q 3375 4350 3387 3362 
Q 3400 2375 3337 1887 
Q 3275 1400 3087 837 
Q 2900 275 2450 -375 
Q 2225 -200 1975 -125 
Q 2550 500 2762 1362 
Q 2975 2225 2950 3337 
Q 2925 4450 2900 4675 
Q 3150 4625 3425 4600 
z
M 5875 4700 
Q 5850 4500 5850 3975 
L 5850 625 
Q 5850 125 5875 -400 
L 5400 -400 
Q 5425 125 5425 600 
L 5425 3975 
Q 5425 4500 5400 4700 
L 5875 4700 
z
M 4600 175 
L 4125 175 
Q 4150 725 4150 1150 
L 4150 3600 
Q 4150 4050 4125 4350 
L 4600 4350 
L 4600 175 
z
M 1000 5150 
Q 1650 4600 2100 4100 
Q 1875 3925 1750 3750 
Q 1050 4550 700 4800 
Q 850 4950 1000 5150 
z
" transform="scale(0.015625)"/>
       <path id="SimHei-7ec3" d="M 3300 3825 
Q 2950 3825 2400 3800 
L 2400 4250 
Q 2950 4225 3325 4225 
L 3625 4225 
Q 3875 4950 3900 5175 
Q 4200 5025 4450 4925 
Q 4350 4825 4262 4612 
Q 4175 4400 4100 4225 
L 5025 4225 
Q 5425 4225 5900 4250 
L 5900 3800 
Q 5550 3825 5025 3825 
L 3975 3825 
Q 3850 3525 3700 3150 
L 4675 3150 
Q 4650 2875 4650 2475 
L 4650 1975 
L 4975 1975 
Q 5350 1975 5800 2000 
L 5800 1550 
Q 5350 1575 4975 1575 
L 4650 1575 
L 4650 125 
Q 4650 -300 4462 -425 
Q 4275 -550 3650 -625 
Q 3625 -375 3450 -100 
Q 4075 -125 4137 -25 
Q 4200 75 4200 325 
L 4200 1575 
L 3425 1575 
Q 3250 1575 3100 1562 
Q 2950 1550 2750 1475 
Q 2650 1725 2550 1950 
Q 2800 2025 3125 2775 
Q 2950 2775 2450 2750 
L 2450 3175 
Q 3025 3150 3250 3150 
Q 3400 3525 3500 3825 
L 3300 3825 
z
M 1650 2950 
Q 1875 3300 2100 3900 
Q 2325 3725 2575 3600 
Q 2325 3275 2025 2750 
Q 1725 2225 1075 1350 
Q 1300 1400 2400 1575 
Q 2350 1300 2375 1150 
Q 1825 1100 650 825 
Q 525 1075 400 1275 
Q 625 1400 887 1737 
Q 1150 2075 1450 2575 
Q 1300 2600 1012 2562 
Q 725 2525 450 2450 
Q 350 2675 250 2925 
Q 500 3075 812 3725 
Q 1125 4375 1325 5000 
Q 1600 4825 1850 4750 
Q 1600 4375 1387 3962 
Q 1175 3550 800 2925 
Q 1375 2925 1650 2950 
z
M 2425 700 
Q 2400 425 2425 250 
Q 2000 150 1462 -25 
Q 925 -200 475 -425 
Q 400 -150 300 125 
Q 950 275 1187 337 
Q 1425 400 2425 700 
z
M 3725 875 
Q 3650 800 3287 400 
Q 2925 0 2475 -475 
Q 2300 -250 2150 -125 
Q 2425 100 2750 462 
Q 3075 825 3325 1225 
Q 3475 1050 3725 875 
z
M 5275 1225 
Q 5925 375 6200 -100 
Q 5950 -200 5750 -375 
Q 5475 175 4900 950 
Q 5075 1050 5275 1225 
z
M 4200 1975 
L 4200 2775 
L 3575 2775 
Q 3325 2250 3175 1975 
L 4200 1975 
z
" transform="scale(0.015625)"/>
       <path id="SimHei-6570" d="M 4525 4925 
Q 4475 4800 4400 4587 
Q 4325 4375 4175 3825 
L 5325 3825 
Q 5575 3825 5925 3850 
L 5925 3400 
Q 5650 3425 5500 3425 
Q 5500 3025 5362 2162 
Q 5225 1300 4875 675 
Q 5125 375 5437 137 
Q 5750 -100 6025 -200 
Q 5725 -425 5625 -625 
Q 5325 -450 5075 -225 
Q 4825 0 4575 325 
Q 4300 25 3987 -187 
Q 3675 -400 3200 -650 
Q 3075 -425 2850 -300 
Q 3225 -150 3650 125 
Q 4075 400 4300 675 
Q 4125 1025 3962 1425 
Q 3800 1825 3675 2475 
Q 3600 2275 3425 1950 
Q 3250 2050 3000 2150 
Q 3400 2850 3650 3675 
Q 3900 4500 3975 5100 
Q 4275 4975 4525 4925 
z
M 2100 2250 
Q 2000 2150 1875 1925 
L 3250 1925 
Q 3100 1300 2725 675 
Q 3125 525 3350 400 
Q 3225 225 3125 25 
Q 2900 175 2450 325 
Q 1950 -225 725 -650 
Q 600 -375 400 -275 
Q 1575 0 2000 475 
Q 1300 650 850 775 
Q 1000 1000 1250 1525 
Q 1000 1525 425 1500 
L 425 1950 
Q 900 1925 1400 1925 
Q 1500 2150 1550 2425 
Q 1825 2325 2100 2250 
z
M 1775 3950 
Q 1775 4550 1750 5100 
L 2250 5100 
Q 2225 4575 2225 3950 
Q 3075 3950 3425 3975 
L 3425 3525 
Q 3075 3550 2225 3550 
Q 2225 2825 2250 2425 
L 1750 2425 
Q 1775 2775 1775 3300 
Q 1650 3100 1300 2787 
Q 950 2475 650 2300 
Q 525 2525 275 2625 
Q 500 2700 875 2975 
Q 1250 3250 1450 3550 
Q 950 3550 500 3525 
L 500 3975 
Q 925 3950 1775 3950 
z
M 3975 3175 
Q 4200 1700 4600 1125 
Q 4850 1700 4937 2287 
Q 5025 2875 5050 3425 
L 4075 3425 
L 3975 3175 
z
M 1450 1000 
Q 1750 925 2275 800 
Q 2475 1050 2650 1525 
L 1725 1525 
Q 1600 1275 1450 1000 
z
M 3325 4825 
Q 3200 4625 3125 4450 
Q 3050 4275 2925 4025 
Q 2725 4125 2525 4175 
Q 2725 4500 2900 5000 
Q 3150 4875 3325 4825 
z
M 2575 3375 
Q 2900 3050 3200 2725 
Q 3050 2600 2875 2425 
Q 2525 2850 2300 3100 
Q 2450 3225 2575 3375 
z
M 925 5000 
Q 1275 4650 1500 4300 
L 1125 4075 
Q 950 4425 600 4725 
Q 825 4875 925 5000 
z
" transform="scale(0.015625)"/>
       <path id="SimHei-636e" d="M 5750 4775 
Q 5725 4550 5725 4225 
L 5725 3900 
Q 5725 3450 5750 3250 
L 3100 3250 
L 3100 2500 
L 4250 2500 
Q 4250 2725 4225 3175 
L 4700 3175 
Q 4675 2775 4675 2500 
L 5350 2500 
Q 5800 2500 6100 2525 
L 6100 2075 
Q 5800 2100 5375 2100 
L 4675 2100 
L 4675 1425 
L 5775 1425 
Q 5750 950 5750 800 
L 5750 175 
Q 5750 -225 5775 -575 
L 5325 -575 
L 5325 -225 
L 3675 -225 
L 3675 -600 
L 3225 -600 
Q 3250 -325 3250 100 
L 3250 825 
Q 3250 1075 3225 1425 
L 4250 1425 
L 4250 2100 
L 3075 2100 
Q 3050 1375 2887 737 
Q 2725 100 2425 -475 
Q 2200 -325 1950 -250 
Q 2250 150 2387 600 
Q 2525 1050 2600 1562 
Q 2675 2075 2675 2625 
L 2675 3575 
Q 2675 3975 2650 4775 
L 5750 4775 
z
M 1275 4425 
Q 1275 4775 1250 5075 
L 1750 5075 
Q 1725 4800 1725 4425 
L 1725 3775 
Q 1975 3775 2500 3800 
L 2500 3375 
Q 1975 3400 1725 3400 
L 1725 2450 
Q 2050 2625 2400 2850 
Q 2425 2650 2525 2475 
Q 2050 2200 1725 2000 
L 1725 175 
Q 1725 -300 1487 -400 
Q 1250 -500 775 -575 
Q 725 -325 600 -50 
Q 1025 -50 1150 -12 
Q 1275 25 1275 325 
L 1275 1800 
Q 900 1600 525 1325 
Q 450 1525 275 1800 
Q 775 1975 1275 2250 
L 1275 3400 
Q 800 3400 350 3375 
L 350 3800 
Q 800 3775 1275 3775 
L 1275 4425 
z
M 5300 3625 
L 5300 4400 
L 3100 4400 
L 3100 3625 
L 5300 3625 
z
M 5325 150 
L 5325 1075 
L 3675 1075 
L 3675 150 
L 5325 150 
z
" transform="scale(0.015625)"/>
      </defs>
      <use xlink:href="#SimHei-8bad"/>
      <use xlink:href="#SimHei-7ec3" transform="translate(100 0)"/>
      <use xlink:href="#SimHei-6570" transform="translate(200 0)"/>
      <use xlink:href="#SimHei-636e" transform="translate(300 0)"/>
     </g>
    </g>
   </g>
  </g>
 </g>
 <defs>
  <clipPath id="pdc1275e155">
   <rect x="32.3175" y="26.75625" width="676.8825" height="369.54"/>
  </clipPath>
 </defs>
</svg>
