<?xml version="1.0" encoding="utf-8" standalone="no"?>
<!DOCTYPE svg PUBLIC "-//W3C//DTD SVG 1.1//EN"
  "http://www.w3.org/Graphics/SVG/1.1/DTD/svg11.dtd">
<svg xmlns:xlink="http://www.w3.org/1999/xlink" width="856.579375pt" height="423.049312pt" viewBox="0 0 856.579375 423.049312" xmlns="http://www.w3.org/2000/svg" version="1.1">
 <metadata>
  <rdf:RDF xmlns:dc="http://purl.org/dc/elements/1.1/" xmlns:cc="http://creativecommons.org/ns#" xmlns:rdf="http://www.w3.org/1999/02/22-rdf-syntax-ns#">
   <cc:Work>
    <dc:type rdf:resource="http://purl.org/dc/dcmitype/StillImage"/>
    <dc:date>2025-04-15T16:11:39.962199</dc:date>
    <dc:format>image/svg+xml</dc:format>
    <dc:creator>
     <cc:Agent>
      <dc:title>Matplotlib v3.10.0, https://matplotlib.org/</dc:title>
     </cc:Agent>
    </dc:creator>
   </cc:Work>
  </rdf:RDF>
 </metadata>
 <defs>
  <style type="text/css">*{stroke-linejoin: round; stroke-linecap: butt}</style>
 </defs>
 <g id="figure_1">
  <g id="patch_1">
   <path d="M -0 423.049312 
L 856.579375 423.049312 
L 856.579375 0 
L -0 0 
z
" style="fill: #ffffff"/>
  </g>
  <g id="axes_1">
   <g id="patch_2">
    <path d="M 37.496875 391.779 
L 849.379375 391.779 
L 849.379375 38.93125 
L 37.496875 38.93125 
z
" style="fill: #eeeeee"/>
   </g>
   <g id="matplotlib.axis_1">
    <g id="xtick_1">
     <g id="line2d_1">
      <path d="M 74.400625 391.779 
L 74.400625 38.93125 
" clip-path="url(#p649a3b398d)" style="fill: none; stroke-dasharray: 1.85,0.8; stroke-dashoffset: 0; stroke: #b2b2b2; stroke-opacity: 0.3; stroke-width: 0.5"/>
     </g>
     <g id="line2d_2">
      <defs>
       <path id="m5c5fc5b667" d="M 0 0 
L 0 -3.5 
" style="stroke: #000000; stroke-width: 0.8"/>
      </defs>
      <g>
       <use xlink:href="#m5c5fc5b667" x="74.400625" y="391.779" style="stroke: #000000; stroke-width: 0.8"/>
      </g>
     </g>
     <g id="text_1">
      <!-- 0 -->
      <g transform="translate(72.150625 401.4665) scale(0.09 -0.09)">
       <defs>
        <path id="SimHei-30" d="M 225 2537 
Q 250 3200 412 3587 
Q 575 3975 875 4225 
Q 1175 4475 1612 4475 
Q 2050 4475 2375 4112 
Q 2700 3750 2800 3200 
Q 2900 2650 2862 1937 
Q 2825 1225 2612 775 
Q 2400 325 1975 150 
Q 1550 -25 1125 187 
Q 700 400 525 750 
Q 350 1100 275 1487 
Q 200 1875 225 2537 
z
M 750 2687 
Q 675 2000 800 1462 
Q 925 925 1212 700 
Q 1500 475 1800 612 
Q 2100 750 2237 1162 
Q 2375 1575 2375 2062 
Q 2375 2550 2337 2950 
Q 2300 3350 2112 3675 
Q 1925 4000 1612 4012 
Q 1300 4025 1062 3700 
Q 825 3375 750 2687 
z
" transform="scale(0.015625)"/>
       </defs>
       <use xlink:href="#SimHei-30"/>
      </g>
     </g>
    </g>
    <g id="xtick_2">
     <g id="line2d_3">
      <path d="M 175.784554 391.779 
L 175.784554 38.93125 
" clip-path="url(#p649a3b398d)" style="fill: none; stroke-dasharray: 1.85,0.8; stroke-dashoffset: 0; stroke: #b2b2b2; stroke-opacity: 0.3; stroke-width: 0.5"/>
     </g>
     <g id="line2d_4">
      <g>
       <use xlink:href="#m5c5fc5b667" x="175.784554" y="391.779" style="stroke: #000000; stroke-width: 0.8"/>
      </g>
     </g>
     <g id="text_2">
      <!-- 50 -->
      <g transform="translate(171.284554 401.4665) scale(0.09 -0.09)">
       <defs>
        <path id="SimHei-35" d="M 550 1325 
Q 725 650 1150 575 
Q 1575 500 1837 662 
Q 2100 825 2212 1087 
Q 2325 1350 2312 1675 
Q 2300 2000 2137 2225 
Q 1975 2450 1725 2525 
Q 1475 2600 1162 2525 
Q 850 2450 650 2175 
L 225 2225 
Q 275 2375 700 4375 
L 2675 4375 
L 2675 3925 
L 1075 3925 
Q 950 3250 825 2850 
Q 1200 3025 1525 3012 
Q 1850 3000 2150 2862 
Q 2450 2725 2587 2487 
Q 2725 2250 2787 2012 
Q 2850 1775 2837 1500 
Q 2825 1225 2725 937 
Q 2625 650 2425 462 
Q 2225 275 1937 162 
Q 1650 50 1275 75 
Q 900 100 562 350 
Q 225 600 100 1200 
L 550 1325 
z
" transform="scale(0.015625)"/>
       </defs>
       <use xlink:href="#SimHei-35"/>
       <use xlink:href="#SimHei-30" transform="translate(50 0)"/>
      </g>
     </g>
    </g>
    <g id="xtick_3">
     <g id="line2d_5">
      <path d="M 277.168482 391.779 
L 277.168482 38.93125 
" clip-path="url(#p649a3b398d)" style="fill: none; stroke-dasharray: 1.85,0.8; stroke-dashoffset: 0; stroke: #b2b2b2; stroke-opacity: 0.3; stroke-width: 0.5"/>
     </g>
     <g id="line2d_6">
      <g>
       <use xlink:href="#m5c5fc5b667" x="277.168482" y="391.779" style="stroke: #000000; stroke-width: 0.8"/>
      </g>
     </g>
     <g id="text_3">
      <!-- 100 -->
      <g transform="translate(270.418482 401.4665) scale(0.09 -0.09)">
       <defs>
        <path id="SimHei-31" d="M 1400 3600 
Q 1075 3275 575 2975 
L 575 3450 
Q 1200 3875 1600 4450 
L 1900 4450 
L 1900 150 
L 1400 150 
L 1400 3600 
z
" transform="scale(0.015625)"/>
       </defs>
       <use xlink:href="#SimHei-31"/>
       <use xlink:href="#SimHei-30" transform="translate(50 0)"/>
       <use xlink:href="#SimHei-30" transform="translate(100 0)"/>
      </g>
     </g>
    </g>
    <g id="xtick_4">
     <g id="line2d_7">
      <path d="M 378.552411 391.779 
L 378.552411 38.93125 
" clip-path="url(#p649a3b398d)" style="fill: none; stroke-dasharray: 1.85,0.8; stroke-dashoffset: 0; stroke: #b2b2b2; stroke-opacity: 0.3; stroke-width: 0.5"/>
     </g>
     <g id="line2d_8">
      <g>
       <use xlink:href="#m5c5fc5b667" x="378.552411" y="391.779" style="stroke: #000000; stroke-width: 0.8"/>
      </g>
     </g>
     <g id="text_4">
      <!-- 150 -->
      <g transform="translate(371.802411 401.4665) scale(0.09 -0.09)">
       <use xlink:href="#SimHei-31"/>
       <use xlink:href="#SimHei-35" transform="translate(50 0)"/>
       <use xlink:href="#SimHei-30" transform="translate(100 0)"/>
      </g>
     </g>
    </g>
    <g id="xtick_5">
     <g id="line2d_9">
      <path d="M 479.936339 391.779 
L 479.936339 38.93125 
" clip-path="url(#p649a3b398d)" style="fill: none; stroke-dasharray: 1.85,0.8; stroke-dashoffset: 0; stroke: #b2b2b2; stroke-opacity: 0.3; stroke-width: 0.5"/>
     </g>
     <g id="line2d_10">
      <g>
       <use xlink:href="#m5c5fc5b667" x="479.936339" y="391.779" style="stroke: #000000; stroke-width: 0.8"/>
      </g>
     </g>
     <g id="text_5">
      <!-- 200 -->
      <g transform="translate(473.186339 401.4665) scale(0.09 -0.09)">
       <defs>
        <path id="SimHei-32" d="M 300 250 
Q 325 625 650 925 
Q 975 1225 1475 1862 
Q 1975 2500 2125 2850 
Q 2275 3200 2237 3450 
Q 2200 3700 2000 3862 
Q 1800 4025 1537 4000 
Q 1275 3975 1037 3800 
Q 800 3625 675 3275 
L 200 3350 
Q 400 3925 712 4187 
Q 1025 4450 1450 4475 
Q 1700 4500 1900 4462 
Q 2100 4425 2312 4287 
Q 2525 4150 2662 3875 
Q 2800 3600 2762 3212 
Q 2725 2825 2375 2287 
Q 2025 1750 1025 600 
L 2825 600 
L 2825 150 
L 300 150 
L 300 250 
z
" transform="scale(0.015625)"/>
       </defs>
       <use xlink:href="#SimHei-32"/>
       <use xlink:href="#SimHei-30" transform="translate(50 0)"/>
       <use xlink:href="#SimHei-30" transform="translate(100 0)"/>
      </g>
     </g>
    </g>
    <g id="xtick_6">
     <g id="line2d_11">
      <path d="M 581.320268 391.779 
L 581.320268 38.93125 
" clip-path="url(#p649a3b398d)" style="fill: none; stroke-dasharray: 1.85,0.8; stroke-dashoffset: 0; stroke: #b2b2b2; stroke-opacity: 0.3; stroke-width: 0.5"/>
     </g>
     <g id="line2d_12">
      <g>
       <use xlink:href="#m5c5fc5b667" x="581.320268" y="391.779" style="stroke: #000000; stroke-width: 0.8"/>
      </g>
     </g>
     <g id="text_6">
      <!-- 250 -->
      <g transform="translate(574.570268 401.4665) scale(0.09 -0.09)">
       <use xlink:href="#SimHei-32"/>
       <use xlink:href="#SimHei-35" transform="translate(50 0)"/>
       <use xlink:href="#SimHei-30" transform="translate(100 0)"/>
      </g>
     </g>
    </g>
    <g id="xtick_7">
     <g id="line2d_13">
      <path d="M 682.704196 391.779 
L 682.704196 38.93125 
" clip-path="url(#p649a3b398d)" style="fill: none; stroke-dasharray: 1.85,0.8; stroke-dashoffset: 0; stroke: #b2b2b2; stroke-opacity: 0.3; stroke-width: 0.5"/>
     </g>
     <g id="line2d_14">
      <g>
       <use xlink:href="#m5c5fc5b667" x="682.704196" y="391.779" style="stroke: #000000; stroke-width: 0.8"/>
      </g>
     </g>
     <g id="text_7">
      <!-- 300 -->
      <g transform="translate(675.954196 401.4665) scale(0.09 -0.09)">
       <defs>
        <path id="SimHei-33" d="M 250 1225 
L 700 1300 
Q 800 975 1025 762 
Q 1250 550 1587 562 
Q 1925 575 2125 837 
Q 2325 1100 2300 1437 
Q 2275 1775 2037 1962 
Q 1800 2150 1275 2225 
L 1275 2550 
Q 1800 2600 2037 2825 
Q 2275 3050 2250 3412 
Q 2225 3775 1925 3937 
Q 1625 4100 1287 3975 
Q 950 3850 750 3275 
L 300 3350 
Q 450 3800 712 4100 
Q 975 4400 1425 4450 
Q 1875 4500 2212 4337 
Q 2550 4175 2687 3837 
Q 2825 3500 2725 3100 
Q 2625 2700 2150 2400 
Q 2500 2250 2687 1950 
Q 2875 1650 2812 1162 
Q 2750 675 2375 375 
Q 2000 75 1525 87 
Q 1050 100 700 387 
Q 350 675 250 1225 
z
" transform="scale(0.015625)"/>
       </defs>
       <use xlink:href="#SimHei-33"/>
       <use xlink:href="#SimHei-30" transform="translate(50 0)"/>
       <use xlink:href="#SimHei-30" transform="translate(100 0)"/>
      </g>
     </g>
    </g>
    <g id="xtick_8">
     <g id="line2d_15">
      <path d="M 784.088125 391.779 
L 784.088125 38.93125 
" clip-path="url(#p649a3b398d)" style="fill: none; stroke-dasharray: 1.85,0.8; stroke-dashoffset: 0; stroke: #b2b2b2; stroke-opacity: 0.3; stroke-width: 0.5"/>
     </g>
     <g id="line2d_16">
      <g>
       <use xlink:href="#m5c5fc5b667" x="784.088125" y="391.779" style="stroke: #000000; stroke-width: 0.8"/>
      </g>
     </g>
     <g id="text_8">
      <!-- 350 -->
      <g transform="translate(777.338125 401.4665) scale(0.09 -0.09)">
       <use xlink:href="#SimHei-33"/>
       <use xlink:href="#SimHei-35" transform="translate(50 0)"/>
       <use xlink:href="#SimHei-30" transform="translate(100 0)"/>
      </g>
     </g>
    </g>
    <g id="text_9">
     <!-- 时间 / 序号 -->
     <g transform="translate(415.938125 414.599312) scale(0.1 -0.1)">
      <defs>
       <path id="SimHei-65f6" d="M 2525 4575 
Q 2500 3675 2500 2400 
Q 2500 1125 2525 400 
L 2000 400 
L 2000 875 
L 1000 875 
L 1000 50 
L 475 50 
Q 500 1200 500 2350 
Q 500 3525 475 4575 
L 2525 4575 
z
M 4875 3825 
Q 4875 4575 4850 5225 
L 5400 5225 
Q 5375 4575 5375 3825 
Q 5750 3825 6175 3850 
L 6175 3375 
Q 5750 3400 5375 3400 
L 5375 50 
Q 5375 -325 5075 -425 
Q 4775 -525 4300 -575 
Q 4300 -275 4025 0 
Q 4500 -50 4687 -25 
Q 4875 0 4875 300 
L 4875 3400 
Q 3625 3400 2775 3375 
L 2775 3850 
Q 3575 3825 4875 3825 
z
M 2000 1300 
L 2000 2550 
L 1000 2550 
L 1000 1300 
L 2000 1300 
z
M 2000 2975 
L 2000 4150 
L 1000 4150 
L 1000 2975 
L 2000 2975 
z
M 3550 2725 
Q 3875 2200 4175 1600 
Q 3925 1525 3650 1375 
Q 3450 1975 3075 2500 
Q 3300 2600 3550 2725 
z
" transform="scale(0.015625)"/>
       <path id="SimHei-95f4" d="M 4450 3550 
Q 4425 3075 4425 2725 
L 4425 1400 
Q 4425 1075 4450 625 
L 1925 625 
Q 1950 1075 1950 1425 
L 1950 2725 
Q 1950 3075 1925 3550 
L 4450 3550 
z
M 5800 4875 
Q 5775 4400 5775 3925 
L 5775 250 
Q 5800 -325 5462 -450 
Q 5125 -575 4725 -625 
Q 4700 -325 4525 -25 
Q 5000 -50 5137 25 
Q 5275 100 5275 350 
L 5275 4450 
L 3775 4450 
Q 3175 4450 2650 4425 
L 2650 4900 
Q 3175 4875 3775 4875 
L 5800 4875 
z
M 550 -525 
Q 600 -25 600 525 
L 600 3150 
Q 600 3675 550 4025 
L 1125 4025 
Q 1100 3650 1100 3300 
L 1100 500 
Q 1100 0 1125 -525 
L 550 -525 
z
M 3950 1025 
L 3950 1950 
L 2425 1950 
L 2425 1025 
L 3950 1025 
z
M 3950 2350 
L 3950 3150 
L 2425 3150 
L 2425 2350 
L 3950 2350 
z
M 1525 5300 
Q 1750 5000 2225 4350 
Q 1950 4225 1700 4075 
Q 1450 4575 1075 5025 
Q 1350 5225 1525 5300 
z
" transform="scale(0.015625)"/>
       <path id="SimHei-20" transform="scale(0.015625)"/>
       <path id="SimHei-2f" d="M 3000 4550 
L 350 -175 
L 100 -25 
L 2750 4700 
L 3000 4550 
z
" transform="scale(0.015625)"/>
       <path id="SimHei-5e8f" d="M 4000 2075 
L 5975 2075 
Q 5750 1525 5575 1025 
Q 5325 1100 5050 1150 
Q 5175 1450 5275 1700 
L 4050 1700 
L 4050 150 
Q 4050 -375 3762 -462 
Q 3475 -550 2950 -575 
Q 2875 -300 2750 0 
Q 3350 -75 3475 25 
Q 3600 125 3575 375 
L 3575 1700 
L 2450 1700 
Q 2050 1700 1675 1675 
L 1675 2100 
Q 2100 2075 2425 2075 
L 3675 2075 
Q 3325 2400 2875 2775 
Q 2975 2875 3250 3100 
Q 3400 2975 3725 2725 
L 4575 3275 
L 3000 3275 
Q 2400 3275 1950 3250 
L 1950 3700 
Q 2400 3675 3000 3675 
L 5400 3675 
L 5400 3250 
Q 4700 2875 4025 2450 
L 4275 2250 
L 4000 2075 
z
M 3725 5275 
Q 3825 4925 3925 4525 
L 4850 4525 
Q 5425 4525 6000 4550 
L 6000 4125 
Q 5425 4150 4850 4150 
L 1400 4150 
Q 1400 2750 1362 2137 
Q 1325 1525 1200 887 
Q 1075 250 775 -350 
Q 625 -250 250 -125 
Q 475 300 600 700 
Q 725 1100 800 1637 
Q 875 2175 875 2825 
Q 875 3500 850 4525 
L 3350 4525 
Q 3275 4825 3150 5150 
Q 3425 5200 3725 5275 
z
" transform="scale(0.015625)"/>
       <path id="SimHei-53f7" d="M 5025 4925 
Q 5000 4550 5000 4075 
Q 5000 3600 5025 3175 
L 1400 3175 
Q 1425 3525 1425 4000 
Q 1425 4500 1400 4925 
L 5025 4925 
z
M 5175 2625 
Q 5650 2625 6025 2650 
L 6025 2200 
Q 5650 2225 5175 2225 
L 2450 2225 
Q 2350 1875 2225 1450 
L 5175 1450 
Q 5100 1050 5062 775 
Q 5025 500 4950 112 
Q 4875 -275 4650 -412 
Q 4425 -550 3225 -625 
Q 3125 -350 2975 -50 
Q 3875 -75 4112 -50 
Q 4350 -25 4425 212 
Q 4500 450 4575 1025 
L 1600 1025 
Q 1825 1625 1950 2225 
L 1350 2225 
Q 825 2225 375 2200 
L 375 2650 
Q 825 2625 1350 2625 
L 5175 2625 
z
M 4525 3575 
L 4525 4525 
L 1900 4525 
L 1900 3575 
L 4525 3575 
z
" transform="scale(0.015625)"/>
      </defs>
      <use xlink:href="#SimHei-65f6"/>
      <use xlink:href="#SimHei-95f4" transform="translate(100 0)"/>
      <use xlink:href="#SimHei-20" transform="translate(200 0)"/>
      <use xlink:href="#SimHei-2f" transform="translate(250 0)"/>
      <use xlink:href="#SimHei-20" transform="translate(300 0)"/>
      <use xlink:href="#SimHei-5e8f" transform="translate(350 0)"/>
      <use xlink:href="#SimHei-53f7" transform="translate(450 0)"/>
     </g>
    </g>
   </g>
   <g id="matplotlib.axis_2">
    <g id="ytick_1">
     <g id="line2d_17">
      <path d="M 37.496875 390.651841 
L 849.379375 390.651841 
" clip-path="url(#p649a3b398d)" style="fill: none; stroke-dasharray: 1.85,0.8; stroke-dashoffset: 0; stroke: #b2b2b2; stroke-opacity: 0.3; stroke-width: 0.5"/>
     </g>
     <g id="line2d_18">
      <defs>
       <path id="m6254a6e675" d="M 0 0 
L 3.5 0 
" style="stroke: #000000; stroke-width: 0.8"/>
      </defs>
      <g>
       <use xlink:href="#m6254a6e675" x="37.496875" y="390.651841" style="stroke: #000000; stroke-width: 0.8"/>
      </g>
     </g>
     <g id="text_10">
      <!-- 5.0 -->
      <g transform="translate(20.496875 393.745591) scale(0.09 -0.09)">
       <defs>
        <path id="SimHei-2e" d="M 1075 125 
L 500 125 
L 500 675 
L 1075 675 
L 1075 125 
z
" transform="scale(0.015625)"/>
       </defs>
       <use xlink:href="#SimHei-35"/>
       <use xlink:href="#SimHei-2e" transform="translate(50 0)"/>
       <use xlink:href="#SimHei-30" transform="translate(100 0)"/>
      </g>
     </g>
    </g>
    <g id="ytick_2">
     <g id="line2d_19">
      <path d="M 37.496875 331.94564 
L 849.379375 331.94564 
" clip-path="url(#p649a3b398d)" style="fill: none; stroke-dasharray: 1.85,0.8; stroke-dashoffset: 0; stroke: #b2b2b2; stroke-opacity: 0.3; stroke-width: 0.5"/>
     </g>
     <g id="line2d_20">
      <g>
       <use xlink:href="#m6254a6e675" x="37.496875" y="331.94564" style="stroke: #000000; stroke-width: 0.8"/>
      </g>
     </g>
     <g id="text_11">
      <!-- 5.5 -->
      <g transform="translate(20.496875 335.03939) scale(0.09 -0.09)">
       <use xlink:href="#SimHei-35"/>
       <use xlink:href="#SimHei-2e" transform="translate(50 0)"/>
       <use xlink:href="#SimHei-35" transform="translate(100 0)"/>
      </g>
     </g>
    </g>
    <g id="ytick_3">
     <g id="line2d_21">
      <path d="M 37.496875 273.239439 
L 849.379375 273.239439 
" clip-path="url(#p649a3b398d)" style="fill: none; stroke-dasharray: 1.85,0.8; stroke-dashoffset: 0; stroke: #b2b2b2; stroke-opacity: 0.3; stroke-width: 0.5"/>
     </g>
     <g id="line2d_22">
      <g>
       <use xlink:href="#m6254a6e675" x="37.496875" y="273.239439" style="stroke: #000000; stroke-width: 0.8"/>
      </g>
     </g>
     <g id="text_12">
      <!-- 6.0 -->
      <g transform="translate(20.496875 276.333189) scale(0.09 -0.09)">
       <defs>
        <path id="SimHei-36" d="M 250 1612 
Q 275 1975 387 2225 
Q 500 2475 725 2850 
L 1750 4450 
L 2325 4450 
L 1275 2800 
Q 1950 2975 2350 2750 
Q 2750 2525 2887 2237 
Q 3025 1950 3037 1612 
Q 3050 1275 2937 950 
Q 2825 625 2537 362 
Q 2250 100 1737 75 
Q 1225 50 862 262 
Q 500 475 362 862 
Q 225 1250 250 1612 
z
M 1025 787 
Q 1250 550 1625 525 
Q 2000 500 2250 775 
Q 2500 1050 2500 1575 
Q 2500 2100 2187 2300 
Q 1875 2500 1487 2450 
Q 1100 2400 925 2075 
Q 750 1750 775 1387 
Q 800 1025 1025 787 
z
" transform="scale(0.015625)"/>
       </defs>
       <use xlink:href="#SimHei-36"/>
       <use xlink:href="#SimHei-2e" transform="translate(50 0)"/>
       <use xlink:href="#SimHei-30" transform="translate(100 0)"/>
      </g>
     </g>
    </g>
    <g id="ytick_4">
     <g id="line2d_23">
      <path d="M 37.496875 214.533238 
L 849.379375 214.533238 
" clip-path="url(#p649a3b398d)" style="fill: none; stroke-dasharray: 1.85,0.8; stroke-dashoffset: 0; stroke: #b2b2b2; stroke-opacity: 0.3; stroke-width: 0.5"/>
     </g>
     <g id="line2d_24">
      <g>
       <use xlink:href="#m6254a6e675" x="37.496875" y="214.533238" style="stroke: #000000; stroke-width: 0.8"/>
      </g>
     </g>
     <g id="text_13">
      <!-- 6.5 -->
      <g transform="translate(20.496875 217.626988) scale(0.09 -0.09)">
       <use xlink:href="#SimHei-36"/>
       <use xlink:href="#SimHei-2e" transform="translate(50 0)"/>
       <use xlink:href="#SimHei-35" transform="translate(100 0)"/>
      </g>
     </g>
    </g>
    <g id="ytick_5">
     <g id="line2d_25">
      <path d="M 37.496875 155.827037 
L 849.379375 155.827037 
" clip-path="url(#p649a3b398d)" style="fill: none; stroke-dasharray: 1.85,0.8; stroke-dashoffset: 0; stroke: #b2b2b2; stroke-opacity: 0.3; stroke-width: 0.5"/>
     </g>
     <g id="line2d_26">
      <g>
       <use xlink:href="#m6254a6e675" x="37.496875" y="155.827037" style="stroke: #000000; stroke-width: 0.8"/>
      </g>
     </g>
     <g id="text_14">
      <!-- 7.0 -->
      <g transform="translate(20.496875 158.920787) scale(0.09 -0.09)">
       <defs>
        <path id="SimHei-37" d="M 850 150 
Q 1300 2050 2425 3925 
L 275 3925 
L 275 4375 
L 2950 4375 
L 2950 3950 
Q 1775 2050 1400 150 
L 850 150 
z
" transform="scale(0.015625)"/>
       </defs>
       <use xlink:href="#SimHei-37"/>
       <use xlink:href="#SimHei-2e" transform="translate(50 0)"/>
       <use xlink:href="#SimHei-30" transform="translate(100 0)"/>
      </g>
     </g>
    </g>
    <g id="ytick_6">
     <g id="line2d_27">
      <path d="M 37.496875 97.120836 
L 849.379375 97.120836 
" clip-path="url(#p649a3b398d)" style="fill: none; stroke-dasharray: 1.85,0.8; stroke-dashoffset: 0; stroke: #b2b2b2; stroke-opacity: 0.3; stroke-width: 0.5"/>
     </g>
     <g id="line2d_28">
      <g>
       <use xlink:href="#m6254a6e675" x="37.496875" y="97.120836" style="stroke: #000000; stroke-width: 0.8"/>
      </g>
     </g>
     <g id="text_15">
      <!-- 7.5 -->
      <g transform="translate(20.496875 100.214586) scale(0.09 -0.09)">
       <use xlink:href="#SimHei-37"/>
       <use xlink:href="#SimHei-2e" transform="translate(50 0)"/>
       <use xlink:href="#SimHei-35" transform="translate(100 0)"/>
      </g>
     </g>
    </g>
    <g id="text_16">
     <!-- pH 值 -->
     <g transform="translate(15.246875 227.855125) rotate(-90) scale(0.1 -0.1)">
      <defs>
       <path id="SimHei-70" d="M 2825 1525 
Q 2825 800 2475 425 
Q 2125 50 1625 50 
Q 1350 50 1150 162 
Q 950 275 800 500 
L 800 -800 
L 300 -800 
L 300 2925 
L 800 2925 
L 800 2550 
Q 950 2775 1150 2875 
Q 1350 2975 1625 2975 
Q 2125 2975 2475 2612 
Q 2825 2250 2825 1525 
z
M 2275 1525 
Q 2275 2000 2087 2262 
Q 1900 2525 1525 2525 
Q 1225 2525 1012 2262 
Q 800 2000 800 1525 
Q 800 1050 1012 775 
Q 1225 500 1525 500 
Q 1900 500 2087 775 
Q 2275 1050 2275 1525 
z
" transform="scale(0.015625)"/>
       <path id="SimHei-48" d="M 2850 125 
L 2275 125 
L 2275 2125 
L 850 2125 
L 850 125 
L 275 125 
L 275 4400 
L 850 4400 
L 850 2600 
L 2275 2600 
L 2275 4400 
L 2850 4400 
L 2850 125 
z
" transform="scale(0.015625)"/>
       <path id="SimHei-503c" d="M 3675 4450 
L 3675 5100 
Q 3975 5075 4350 5050 
Q 4225 4875 4200 4450 
L 5125 4450 
Q 5550 4450 5875 4475 
L 5875 4025 
Q 5525 4050 5125 4050 
L 4175 4050 
L 4125 3500 
L 5400 3500 
Q 5375 3200 5375 2700 
L 5375 150 
Q 5875 150 6100 175 
L 6100 -275 
Q 5775 -250 5200 -250 
L 2850 -250 
Q 2275 -250 1900 -275 
L 1900 175 
Q 2125 150 2600 150 
L 2600 2700 
Q 2600 3175 2575 3500 
L 3600 3500 
L 3650 4050 
L 3200 4050 
Q 2575 4050 2225 4025 
L 2225 4475 
Q 2550 4450 3200 4450 
L 3675 4450 
z
M 2225 4900 
Q 2025 4675 1650 3750 
L 1650 450 
Q 1650 -75 1675 -550 
L 1150 -550 
Q 1175 -125 1175 375 
L 1175 2950 
Q 875 2450 625 2150 
Q 425 2425 250 2575 
Q 500 2825 937 3537 
Q 1375 4250 1625 5150 
Q 1975 4975 2225 4900 
z
M 4925 2650 
L 4925 3150 
L 3075 3150 
L 3075 2650 
L 4925 2650 
z
M 4925 150 
L 4925 625 
L 3075 625 
L 3075 150 
L 4925 150 
z
M 4925 1000 
L 4925 1450 
L 3075 1450 
L 3075 1000 
L 4925 1000 
z
M 4925 1825 
L 4925 2275 
L 3075 2275 
L 3075 1825 
L 4925 1825 
z
" transform="scale(0.015625)"/>
      </defs>
      <use xlink:href="#SimHei-70"/>
      <use xlink:href="#SimHei-48" transform="translate(50 0)"/>
      <use xlink:href="#SimHei-20" transform="translate(100 0)"/>
      <use xlink:href="#SimHei-503c" transform="translate(150 0)"/>
     </g>
    </g>
   </g>
   <g id="line2d_29">
    <path d="M 74.400625 56.378733 
L 76.428304 57.20062 
L 78.455982 58.374744 
L 80.483661 57.787682 
L 82.511339 55.909083 
L 84.539018 61.310054 
L 86.566696 62.836415 
L 88.594375 64.127951 
L 90.622054 64.832426 
L 92.649732 94.420351 
L 94.677411 100.995446 
L 96.705089 99.821322 
L 98.732768 94.537764 
L 100.760446 103.461106 
L 102.788125 95.007413 
L 104.815804 94.537764 
L 106.843482 96.29895 
L 108.871161 92.659165 
L 110.898839 94.537764 
L 112.926518 87.610432 
L 114.954196 98.76461 
L 116.981875 91.837278 
L 119.009554 87.962669 
L 121.037232 87.727844 
L 123.064911 86.788545 
L 125.092589 82.679111 
L 127.120268 86.55372 
L 129.147946 64.949838 
L 131.175625 93.011402 
L 133.203304 114.028222 
L 135.230982 95.124826 
L 137.258661 93.481052 
L 139.286339 91.602453 
L 141.314018 93.833289 
L 143.341696 94.302939 
L 145.369375 87.258195 
L 147.397054 95.477063 
L 149.424732 91.954691 
L 151.452411 79.391564 
L 153.480089 79.743801 
L 155.507768 86.55372 
L 157.535446 73.168706 
L 159.563125 71.642345 
L 161.590804 74.34283 
L 163.618482 77.512965 
L 165.646161 84.440297 
L 167.673839 100.995446 
L 169.701518 86.671133 
L 171.729196 73.990593 
L 173.756875 70.350809 
L 175.784554 68.94186 
L 177.812232 68.707035 
L 179.839911 70.585634 
L 181.867589 80.6831 
L 183.895268 118.842131 
L 185.922946 130.935608 
L 187.950625 134.223155 
L 189.978304 123.656039 
L 192.005982 116.493883 
L 194.033661 108.744664 
L 196.061339 103.813343 
L 198.089018 95.711888 
L 200.116696 90.310917 
L 202.144375 85.262184 
L 204.172054 84.440297 
L 206.199732 81.974637 
L 208.227411 90.428329 
L 210.255089 86.436308 
L 212.282768 88.080081 
L 214.310446 82.913936 
L 216.338125 83.383585 
L 218.365804 77.865202 
L 220.393482 81.270162 
L 222.421161 83.031348 
L 224.448839 79.039326 
L 226.476518 91.250216 
L 228.504196 91.602453 
L 230.531875 91.837278 
L 234.587232 114.145635 
L 236.614911 101.934745 
L 238.642589 99.703909 
L 240.670268 97.003424 
L 242.697946 375.740466 
L 248.780982 375.740466 
L 250.808661 54.969784 
L 252.836339 65.419488 
L 256.891696 99.116847 
L 258.919375 120.838142 
L 260.947054 121.190379 
L 262.974732 112.267036 
L 265.002411 99.703909 
L 267.030089 100.056146 
L 269.057768 86.671133 
L 271.085446 87.493019 
L 273.113125 87.140782 
L 275.140804 88.432319 
L 277.168482 86.905957 
L 281.223839 73.638356 
L 283.251518 78.334852 
L 285.279196 76.691078 
L 287.306875 79.861213 
L 289.334554 88.197494 
L 291.362232 190.933345 
L 293.389911 81.974637 
L 295.417589 93.011402 
L 297.445268 88.080081 
L 299.472946 82.209461 
L 301.500625 114.967521 
L 303.528304 122.364503 
L 305.555982 105.457117 
L 307.583661 104.987467 
L 309.611339 105.339704 
L 311.639018 103.813343 
L 313.666696 98.76461 
L 315.694375 102.16957 
L 317.722054 109.449139 
L 319.749732 140.915662 
L 321.777411 84.205472 
L 323.805089 102.874044 
L 325.832768 110.388438 
L 327.860446 112.149624 
L 329.888125 99.938734 
L 331.915804 107.57054 
L 333.943482 105.10488 
L 335.971161 107.922777 
L 337.998839 103.930756 
L 340.026518 104.517818 
L 342.054196 102.404394 
L 344.081875 108.979489 
L 346.109554 96.181537 
L 348.137232 103.343694 
L 350.164911 113.323748 
L 352.192589 104.752642 
L 354.220268 108.979489 
L 356.247946 120.955554 
L 358.275625 112.854098 
L 360.303304 109.096901 
L 362.330982 110.858087 
L 364.358661 106.513828 
L 366.386339 106.513828 
L 368.414018 118.489893 
L 370.441696 123.303802 
L 372.469375 126.1217 
L 374.497054 110.740675 
L 376.524732 108.275015 
L 378.552411 109.331726 
L 380.580089 105.691942 
L 382.607768 96.886012 
L 384.635446 118.842131 
L 386.663125 129.526659 
L 388.690804 137.980352 
L 390.718482 121.542616 
L 392.746161 118.959543 
L 394.773839 118.372481 
L 396.801518 115.319759 
L 398.829196 122.834152 
L 400.856875 123.773452 
L 402.884554 118.959543 
L 404.912232 120.838142 
L 406.939911 111.210325 
L 408.967589 106.983478 
L 410.995268 93.598464 
L 413.022946 104.400405 
L 415.050625 111.092912 
L 417.078304 115.554583 
L 419.105982 121.425204 
L 421.133661 130.700783 
L 423.161339 143.381323 
L 425.189018 124.595338 
L 427.216696 116.84612 
L 429.244375 110.388438 
L 431.272054 98.412373 
L 433.299732 118.372481 
L 435.327411 97.942723 
L 437.355089 110.388438 
L 441.410446 128.822185 
L 443.438125 108.627252 
L 445.465804 102.756632 
L 447.493482 100.056146 
L 449.521161 112.736686 
L 451.548839 110.623263 
L 453.576518 102.639219 
L 455.604196 105.574529 
L 457.631875 101.465095 
L 459.659554 107.218303 
L 461.687232 105.457117 
L 463.714911 110.036201 
L 465.742589 102.756632 
L 467.770268 101.582508 
L 469.797946 102.521807 
L 471.825625 109.566551 
L 473.853304 105.574529 
L 475.880982 103.226281 
L 477.908661 105.691942 
L 479.936339 102.991456 
L 481.964018 104.048168 
L 483.991696 101.69992 
L 486.019375 119.194368 
L 488.047054 114.028222 
L 490.074732 106.983478 
L 492.102411 102.404394 
L 494.130089 103.343694 
L 496.157768 113.088923 
L 498.185446 109.801376 
L 500.213125 113.44116 
L 502.240804 101.23027 
L 504.268482 114.380459 
L 506.296161 124.008276 
L 508.323839 119.194368 
L 510.351518 125.65205 
L 512.379196 118.020244 
L 514.406875 125.534638 
L 516.434554 124.595338 
L 518.462232 110.50585 
L 520.489911 115.789408 
L 522.517589 109.918788 
L 524.545268 115.671996 
L 526.572946 115.084934 
L 528.600625 102.521807 
L 530.628304 107.218303 
L 532.655982 108.744664 
L 534.683661 100.056146 
L 536.711339 97.590486 
L 538.739018 118.020244 
L 540.766696 107.805365 
L 542.794375 110.388438 
L 544.822054 108.275015 
L 546.849732 108.627252 
L 548.877411 112.267036 
L 550.905089 112.736686 
L 552.932768 118.724718 
L 554.960446 119.546605 
L 556.988125 107.218303 
L 559.015804 104.048168 
L 561.043482 104.752642 
L 563.071161 110.036201 
L 565.098839 103.108869 
L 567.126518 110.388438 
L 569.154196 121.777441 
L 571.181875 117.902831 
L 573.209554 108.275015 
L 575.237232 122.481915 
L 577.264911 119.546605 
L 579.292589 116.259058 
L 581.320268 121.542616 
L 583.347946 114.028222 
L 585.375625 107.922777 
L 587.403304 106.983478 
L 589.430982 107.218303 
L 591.458661 98.060136 
L 593.486339 105.339704 
L 595.514018 111.327737 
L 597.541696 113.793397 
L 599.569375 117.550594 
L 601.597054 127.530648 
L 605.652411 109.683963 
L 607.680089 107.100891 
L 609.707768 105.339704 
L 611.735446 103.813343 
L 613.763125 98.882022 
L 615.790804 97.473074 
L 617.818482 102.286982 
L 619.846161 108.157602 
L 621.873839 107.922777 
L 623.901518 101.582508 
L 625.929196 100.760621 
L 632.012232 103.226281 
L 634.039911 107.922777 
L 636.067589 104.987467 
L 638.095268 104.987467 
L 640.122946 100.290971 
L 642.150625 104.987467 
L 644.178304 104.400405 
L 646.205982 106.866066 
L 648.233661 101.112858 
L 650.261339 96.064125 
L 652.289018 93.598464 
L 654.316696 92.89399 
L 656.344375 93.363639 
L 658.372054 94.655176 
L 660.399732 93.598464 
L 662.427411 96.886012 
L 664.455089 92.89399 
L 664.455089 92.89399 
" clip-path="url(#p649a3b398d)" style="fill: none; stroke: #ff0000; stroke-width: 1.5; stroke-linecap: square"/>
   </g>
   <g id="line2d_30">
    <path d="M 666.482768 94.185526 
L 668.510446 92.776577 
L 670.538125 91.954691 
L 672.565804 98.882022 
L 674.593482 98.412373 
L 676.621161 102.052157 
L 678.648839 104.16558 
L 680.676518 101.934745 
L 682.704196 96.181537 
L 684.731875 102.521807 
L 686.759554 112.384449 
L 688.787232 119.898842 
L 690.814911 129.526659 
L 692.842589 118.489893 
L 694.870268 115.437171 
L 696.897946 111.797387 
L 698.925625 106.866066 
L 700.953304 104.282993 
L 702.980982 139.741538 
L 705.008661 120.25108 
L 707.036339 84.440297 
L 709.064018 87.258195 
L 711.091696 92.89399 
L 713.119375 94.068114 
L 715.147054 104.517818 
L 717.174732 101.465095 
L 719.202411 104.63523 
L 721.230089 117.315769 
L 723.257768 112.854098 
L 725.285446 94.068114 
L 727.313125 99.586497 
L 729.340804 96.064125 
L 731.368482 89.254205 
L 733.396161 92.072103 
L 735.423839 93.481052 
L 737.451518 94.068114 
L 739.479196 88.784556 
L 741.506875 93.833289 
L 743.534554 116.37647 
L 745.562232 111.914799 
L 747.589911 105.10488 
L 749.617589 100.408384 
L 751.645268 94.890001 
L 753.672946 97.238249 
L 755.700625 97.238249 
L 757.728304 97.238249 
L 759.755982 97.238249 
L 761.783661 97.238249 
L 763.811339 97.238249 
L 765.839018 97.238249 
L 767.866696 97.238249 
L 769.894375 97.238249 
L 771.922054 97.238249 
L 773.949732 97.238249 
L 775.977411 97.238249 
L 778.005089 97.238249 
L 780.032768 97.238249 
L 782.060446 97.238249 
L 784.088125 97.238249 
L 786.115804 97.238249 
L 788.143482 97.238249 
L 790.171161 97.238249 
L 792.198839 97.238249 
L 794.226518 97.238249 
L 796.254196 97.238249 
L 798.281875 97.238249 
L 800.309554 97.238249 
L 802.337232 97.238249 
L 804.364911 97.238249 
L 806.392589 97.238249 
L 808.420268 97.238249 
L 810.447946 97.238249 
L 812.475625 97.238249 
" clip-path="url(#p649a3b398d)" style="fill: none; stroke: #0000ff; stroke-width: 1.5; stroke-linecap: square"/>
   </g>
   <g id="line2d_31">
    <path d="M 666.482768 93.136057 
L 668.510446 93.730134 
L 670.538125 92.493265 
L 672.565804 92.283436 
L 674.593482 99.089588 
L 676.621161 99.543952 
L 678.648839 102.52185 
L 680.676518 104.3006 
L 682.704196 100.796775 
L 684.731875 97.872539 
L 686.759554 103.019031 
L 688.787232 114.761777 
L 690.814911 123.57975 
L 692.842589 131.734964 
L 694.870268 123.079801 
L 696.897946 117.962064 
L 698.925625 111.002633 
L 700.953304 105.143118 
L 702.980982 112.201836 
L 705.008661 136.304099 
L 707.036339 108.455617 
L 709.064018 80.573216 
L 711.091696 82.646787 
L 713.119375 87.304966 
L 715.147054 89.669081 
L 717.174732 104.934138 
L 719.202411 102.641775 
L 721.230089 108.347874 
L 723.257768 118.735314 
L 725.285446 109.658641 
L 727.313125 95.529016 
L 729.340804 99.213463 
L 731.368482 93.217999 
L 733.396161 87.523988 
L 735.423839 92.264601 
L 737.451518 93.270578 
L 739.479196 93.516449 
L 741.506875 89.486954 
L 743.534554 98.91271 
L 745.562232 117.166755 
L 747.589911 110.824028 
L 749.617589 105.544027 
L 751.645268 101.60808 
L 753.672946 94.472711 
L 755.700625 96.419524 
L 757.728304 96.365147 
L 759.755982 96.511392 
L 761.783661 97.137104 
L 763.811339 96.889117 
L 765.839018 96.849632 
L 767.866696 96.813182 
L 769.894375 96.984748 
L 771.922054 96.953688 
L 773.949732 96.925016 
L 775.977411 96.898549 
L 778.005089 96.874116 
L 780.032768 96.851562 
L 782.060446 96.830743 
L 784.088125 96.811524 
L 786.115804 96.793782 
L 788.143482 96.777405 
L 790.171161 96.762287 
L 792.198839 96.748331 
L 794.226518 96.735449 
L 796.254196 96.723556 
L 798.281875 96.712579 
L 800.309554 96.702445 
L 802.337232 96.69309 
L 804.364911 96.684455 
L 806.392589 96.676484 
L 808.420268 96.669125 
L 810.447946 96.662332 
L 812.475625 96.656062 
" clip-path="url(#p649a3b398d)" style="fill: none; stroke-dasharray: 5.55,2.4; stroke-dashoffset: 0; stroke: #ffff00; stroke-width: 1.5"/>
   </g>
   <g id="patch_3">
    <path d="M 37.496875 391.779 
L 37.496875 38.93125 
" style="fill: none; stroke: #bcbcbc; stroke-width: 0.8; stroke-linejoin: miter; stroke-linecap: square"/>
   </g>
   <g id="patch_4">
    <path d="M 849.379375 391.779 
L 849.379375 38.93125 
" style="fill: none; stroke: #bcbcbc; stroke-width: 0.8; stroke-linejoin: miter; stroke-linecap: square"/>
   </g>
   <g id="patch_5">
    <path d="M 37.496875 391.779 
L 849.379375 391.779 
" style="fill: none; stroke: #bcbcbc; stroke-width: 0.8; stroke-linejoin: miter; stroke-linecap: square"/>
   </g>
   <g id="patch_6">
    <path d="M 37.496875 38.93125 
L 849.379375 38.93125 
" style="fill: none; stroke: #bcbcbc; stroke-width: 0.8; stroke-linejoin: miter; stroke-linecap: square"/>
   </g>
   <g id="text_17">
    <!-- pH 时间序列：一年预测结果 -->
    <g transform="translate(368.438125 17.1375) scale(0.12 -0.12)">
     <defs>
      <path id="SimHei-5217" d="M 2950 4800 
Q 3525 4800 3825 4825 
L 3825 4400 
Q 3525 4425 2800 4425 
L 2125 4425 
Q 2075 4125 1925 3500 
L 3425 3500 
Q 3300 2500 3100 1862 
Q 2900 1225 2575 762 
Q 2250 300 1850 -12 
Q 1450 -325 925 -675 
Q 725 -375 475 -150 
Q 1125 125 1550 437 
Q 1975 750 2250 1225 
Q 2100 1350 1862 1550 
Q 1625 1750 1400 1925 
L 1750 2325 
Q 1925 2200 2100 2037 
Q 2275 1875 2500 1650 
Q 2650 2025 2737 2337 
Q 2825 2650 2875 3100 
L 1775 3100 
Q 1600 2650 1350 2237 
Q 1100 1825 775 1525 
Q 600 1675 325 1850 
Q 600 2125 825 2462 
Q 1050 2800 1200 3125 
Q 1350 3450 1425 3775 
Q 1500 4100 1550 4425 
L 1100 4425 
Q 575 4425 375 4400 
L 375 4825 
Q 575 4800 1125 4800 
L 2950 4800 
z
M 5975 5050 
Q 5925 4675 5925 4250 
L 5925 50 
Q 5925 -275 5737 -400 
Q 5550 -525 4900 -625 
Q 4825 -250 4650 25 
Q 5150 0 5287 25 
Q 5425 50 5425 325 
L 5425 4250 
Q 5425 4650 5400 5050 
L 5975 5050 
z
M 4725 4300 
Q 4675 4000 4675 3450 
L 4675 1650 
Q 4675 1200 4700 850 
L 4100 850 
Q 4150 1200 4150 1650 
L 4150 3550 
Q 4150 3975 4100 4300 
L 4725 4300 
z
" transform="scale(0.015625)"/>
      <path id="SimHei-ff1a" d="M 1200 2425 
L 2025 2425 
L 2025 1600 
L 1200 1600 
L 1200 2425 
z
M 1200 825 
L 2025 825 
L 2025 0 
L 1200 0 
L 1200 825 
z
" transform="scale(0.015625)"/>
      <path id="SimHei-4e00" d="M 4875 2675 
Q 5525 2675 6050 2700 
L 6050 2050 
Q 5525 2075 4900 2075 
L 1600 2075 
Q 950 2075 350 2050 
L 350 2700 
Q 950 2675 1600 2675 
L 4875 2675 
z
" transform="scale(0.015625)"/>
      <path id="SimHei-5e74" d="M 350 2925 
Q 900 3450 1375 4200 
Q 1850 4950 1900 5275 
Q 2275 5125 2600 5050 
Q 2375 4825 2100 4325 
L 4625 4325 
Q 5175 4325 5750 4350 
L 5750 3925 
Q 5225 3950 4625 3950 
L 3800 3950 
L 3800 2925 
Q 4750 2925 5475 2950 
L 5475 2525 
Q 4725 2550 3800 2550 
L 3800 1375 
L 5075 1375 
Q 5625 1375 6100 1400 
L 6100 975 
Q 5650 1000 5075 1000 
L 3800 1000 
L 3800 425 
Q 3800 -150 3825 -625 
L 3275 -625 
Q 3300 -150 3300 375 
L 3300 1000 
L 1600 1000 
Q 900 1000 275 975 
L 275 1400 
Q 875 1375 1450 1375 
Q 1450 2350 1425 2925 
L 3300 2925 
L 3300 3950 
L 1875 3950 
Q 1350 3150 925 2650 
Q 650 2875 350 2925 
z
M 3300 1375 
L 3300 2550 
L 1925 2550 
L 1925 1375 
L 3300 1375 
z
" transform="scale(0.015625)"/>
      <path id="SimHei-9884" d="M 5200 4800 
Q 5575 4800 5950 4825 
L 5950 4400 
Q 5575 4425 5200 4425 
L 4500 4425 
Q 4425 4050 4350 3600 
L 5725 3600 
Q 5700 3225 5700 2800 
L 5700 1725 
Q 5700 1300 5725 850 
L 5250 850 
L 5250 3225 
L 3550 3225 
L 3550 800 
L 3075 800 
Q 3100 1375 3100 1725 
L 3100 2775 
Q 3100 3175 3075 3600 
L 3900 3600 
Q 4000 4150 4000 4425 
L 3725 4425 
Q 3300 4425 2850 4400 
L 2850 4825 
Q 3325 4800 3725 4800 
L 5200 4800 
z
M 2600 1775 
Q 2350 1825 2150 1825 
Q 2250 2250 2300 2450 
L 1750 2450 
L 1750 125 
Q 1725 -300 1425 -400 
Q 1125 -500 750 -500 
Q 700 -225 575 25 
Q 1125 -25 1212 37 
Q 1300 100 1300 350 
L 1300 2450 
L 1025 2450 
Q 700 2450 350 2425 
L 350 2850 
Q 700 2825 1000 2825 
L 2850 2825 
Q 2725 2325 2600 1775 
z
M 4725 2875 
Q 4625 2575 4600 2100 
Q 4575 1625 4462 1037 
Q 4350 450 3962 62 
Q 3575 -325 2925 -675 
Q 2700 -500 2475 -350 
Q 3075 -125 3437 200 
Q 3800 525 3950 937 
Q 4100 1350 4137 1850 
Q 4175 2350 4175 2925 
L 4725 2875 
z
M 1625 2900 
Q 1275 3275 800 3650 
Q 925 3775 1075 3950 
Q 1250 3825 1425 3675 
Q 1750 4150 1950 4375 
L 1400 4375 
Q 900 4375 450 4350 
L 450 4775 
Q 900 4750 1375 4750 
L 2575 4750 
L 2575 4375 
Q 2200 4100 1725 3400 
L 1950 3200 
Q 1750 3025 1625 2900 
z
M 4775 725 
Q 5725 0 6075 -325 
Q 5850 -500 5725 -650 
Q 5400 -325 5137 -87 
Q 4875 150 4525 350 
Q 4650 525 4775 725 
z
" transform="scale(0.015625)"/>
      <path id="SimHei-6d4b" d="M 4025 4725 
Q 4000 4475 4000 4000 
L 4000 2225 
Q 4000 1775 4025 1350 
L 3550 1350 
L 3550 4325 
L 2350 4325 
L 2350 1325 
L 1900 1325 
Q 1925 1775 1925 2225 
L 1925 4000 
Q 1925 4200 1900 4725 
L 4025 4725 
z
M 5900 5075 
Q 5875 4800 5875 4375 
L 5875 0 
Q 5875 -325 5650 -425 
Q 5425 -525 4975 -600 
Q 4925 -325 4775 -50 
Q 5125 -50 5262 -25 
Q 5400 0 5400 250 
L 5400 4375 
Q 5400 4775 5375 5075 
L 5900 5075 
z
M 3275 3725 
Q 3225 3400 3200 2325 
Q 3175 1250 2837 550 
Q 2500 -150 2075 -600 
Q 1850 -400 1600 -325 
Q 2200 250 2475 962 
Q 2750 1675 2762 2475 
Q 2775 3275 2725 3800 
Q 3000 3750 3275 3725 
z
M 4950 4275 
Q 4925 4000 4925 3575 
L 4925 1825 
Q 4925 1300 4950 850 
L 4450 850 
Q 4475 1150 4475 1825 
L 4475 3575 
Q 4475 4000 4450 4275 
L 4950 4275 
z
M 1700 1675 
Q 1375 1075 1112 487 
Q 850 -100 725 -400 
Q 500 -200 200 -25 
Q 475 300 762 850 
Q 1050 1400 1250 2000 
Q 1475 1825 1700 1675 
z
M 3400 1050 
Q 3800 650 4300 -125 
Q 4100 -225 3875 -450 
Q 3475 275 3025 750 
Q 3225 875 3400 1050 
z
M 600 3525 
Q 1125 3125 1500 2775 
Q 1300 2575 1150 2375 
Q 825 2775 300 3150 
Q 450 3300 600 3525 
z
M 1350 4000 
Q 950 4375 475 4675 
Q 625 4850 775 5050 
Q 1300 4700 1675 4375 
Q 1500 4250 1350 4000 
z
" transform="scale(0.015625)"/>
      <path id="SimHei-7ed3" d="M 5725 1925 
Q 5700 1600 5700 1200 
L 5700 350 
Q 5700 -125 5725 -475 
L 5225 -475 
L 5225 0 
L 3525 0 
L 3525 -525 
L 3025 -525 
Q 3050 125 3050 325 
L 3050 1250 
Q 3050 1550 3025 1925 
L 5725 1925 
z
M 1900 4850 
Q 1700 4600 1475 4200 
Q 1250 3800 925 3200 
Q 1475 3225 1725 3225 
Q 1950 3625 2100 4000 
Q 2350 3825 2650 3675 
Q 2525 3575 2212 3125 
Q 1900 2675 1225 1650 
Q 2050 1775 2525 1850 
Q 2450 1575 2450 1375 
Q 2225 1350 1650 1275 
Q 1075 1200 525 1050 
Q 425 1300 350 1550 
Q 650 1625 950 2012 
Q 1250 2400 1475 2825 
Q 1300 2825 962 2787 
Q 625 2750 375 2675 
Q 300 2925 225 3150 
Q 500 3375 812 3925 
Q 1125 4475 1300 5125 
Q 1600 4975 1900 4850 
z
M 4075 4175 
Q 4075 4600 4050 5175 
L 4575 5175 
Q 4550 4725 4550 4175 
L 5275 4175 
Q 5750 4175 6150 4200 
L 6150 3750 
Q 5750 3775 5300 3775 
L 4550 3775 
L 4550 2950 
L 5125 2950 
Q 5475 2950 5825 2975 
L 5825 2525 
Q 5525 2550 5100 2550 
L 3650 2550 
Q 3225 2550 2900 2525 
L 2900 2975 
Q 3225 2950 3600 2950 
L 4075 2950 
L 4075 3775 
L 3525 3775 
Q 3075 3775 2675 3750 
L 2675 4200 
Q 3000 4175 3475 4175 
L 4075 4175 
z
M 5225 400 
L 5225 1525 
L 3525 1525 
L 3525 400 
L 5225 400 
z
M 2575 650 
Q 2500 425 2525 175 
Q 2050 100 1450 0 
Q 850 -100 425 -225 
Q 325 100 225 350 
Q 750 375 1175 437 
Q 1600 500 2575 650 
z
" transform="scale(0.015625)"/>
      <path id="SimHei-679c" d="M 2975 -525 
Q 3000 -75 3000 575 
L 3000 1600 
L 2900 1600 
Q 2725 1275 2500 1000 
Q 2275 725 1987 512 
Q 1700 300 1362 100 
Q 1025 -100 675 -250 
Q 575 25 400 275 
Q 700 350 975 487 
Q 1250 625 1525 787 
Q 1800 950 2000 1150 
Q 2200 1350 2375 1600 
L 1375 1600 
Q 1000 1600 450 1550 
L 450 2050 
Q 950 2000 1375 2000 
L 3000 2000 
L 3000 2450 
L 1150 2450 
Q 1175 3050 1175 3775 
Q 1175 4500 1150 5000 
L 5325 5000 
Q 5300 4500 5300 3775 
Q 5300 3050 5325 2450 
L 3475 2450 
L 3475 2000 
L 5050 2000 
Q 5550 2000 5925 2025 
L 5925 1550 
Q 5500 1600 5100 1600 
L 4125 1600 
Q 4450 1075 4925 800 
Q 5400 525 6050 375 
Q 5875 150 5775 -175 
Q 4925 150 4425 550 
Q 3925 950 3675 1600 
L 3475 1600 
L 3475 550 
Q 3475 0 3500 -525 
L 2975 -525 
z
M 4825 3875 
L 4825 4625 
L 3475 4625 
L 3475 3875 
L 4825 3875 
z
M 3000 3875 
L 3000 4625 
L 1675 4625 
L 1675 3875 
L 3000 3875 
z
M 4825 2825 
L 4825 3500 
L 3475 3500 
L 3475 2825 
L 4825 2825 
z
M 3000 2825 
L 3000 3500 
L 1675 3500 
L 1675 2825 
L 3000 2825 
z
" transform="scale(0.015625)"/>
     </defs>
     <use xlink:href="#SimHei-70"/>
     <use xlink:href="#SimHei-48" transform="translate(50 0)"/>
     <use xlink:href="#SimHei-20" transform="translate(100 0)"/>
     <use xlink:href="#SimHei-65f6" transform="translate(150 0)"/>
     <use xlink:href="#SimHei-95f4" transform="translate(250 0)"/>
     <use xlink:href="#SimHei-5e8f" transform="translate(350 0)"/>
     <use xlink:href="#SimHei-5217" transform="translate(450 0)"/>
     <use xlink:href="#SimHei-ff1a" transform="translate(550 0)"/>
     <use xlink:href="#SimHei-4e00" transform="translate(650 0)"/>
     <use xlink:href="#SimHei-5e74" transform="translate(750 0)"/>
     <use xlink:href="#SimHei-9884" transform="translate(850 0)"/>
     <use xlink:href="#SimHei-6d4b" transform="translate(950 0)"/>
     <use xlink:href="#SimHei-7ed3" transform="translate(1050 0)"/>
     <use xlink:href="#SimHei-679c" transform="translate(1150 0)"/>
    </g>
    <!-- R² = -1611.7772, RMSE = 7.5051 -->
    <g transform="translate(350.438125 28.93125) scale(0.12 -0.12)">
     <defs>
      <path id="SimHei-52" d="M 3000 125 
L 2400 125 
L 1500 1975 
L 850 1975 
L 850 125 
L 275 125 
L 275 4400 
L 1525 4400 
Q 2125 4400 2500 4112 
Q 2875 3825 2875 3175 
Q 2875 2675 2625 2400 
Q 2375 2125 2050 2050 
L 3000 125 
z
M 2300 3175 
Q 2300 3525 2087 3725 
Q 1875 3925 1400 3925 
L 850 3925 
L 850 2450 
L 1550 2450 
Q 1850 2450 2075 2612 
Q 2300 2775 2300 3175 
z
" transform="scale(0.015625)"/>
      <path id="SimHei-b2" d="M 5600 -325 
L 700 -325 
L 700 4825 
L 5600 4825 
L 5600 -325 
z
M 5400 4650 
L 875 4650 
L 875 -150 
L 5400 -150 
L 5400 4650 
z
" transform="scale(0.015625)"/>
      <path id="SimHei-3d" d="M 2975 2900 
L 125 2900 
L 125 3300 
L 2975 3300 
L 2975 2900 
z
M 2975 1375 
L 125 1375 
L 125 1775 
L 2975 1775 
L 2975 1375 
z
" transform="scale(0.015625)"/>
      <path id="SimHei-2d" d="M 2975 2125 
L 125 2125 
L 125 2525 
L 2975 2525 
L 2975 2125 
z
" transform="scale(0.015625)"/>
      <path id="SimHei-2c" d="M 1100 125 
L 775 -550 
L 525 -550 
L 775 125 
L 525 125 
L 525 675 
L 1100 675 
L 1100 125 
z
" transform="scale(0.015625)"/>
      <path id="SimHei-4d" d="M 2925 125 
L 2425 125 
L 2425 3175 
L 2375 3175 
L 1775 125 
L 1375 125 
L 775 3175 
L 725 3175 
L 725 125 
L 225 125 
L 225 4400 
L 1000 4400 
L 1550 1575 
L 1600 1575 
L 2150 4400 
L 2925 4400 
L 2925 125 
z
" transform="scale(0.015625)"/>
      <path id="SimHei-53" d="M 2900 1325 
Q 2900 750 2537 412 
Q 2175 75 1550 75 
Q 925 75 575 425 
Q 225 775 225 1300 
L 225 1475 
L 800 1475 
L 800 1325 
Q 800 950 1025 750 
Q 1250 550 1550 550 
Q 1950 550 2137 762 
Q 2325 975 2325 1275 
Q 2325 1525 2100 1737 
Q 1875 1950 1450 2125 
Q 850 2350 587 2625 
Q 325 2900 325 3275 
Q 325 3800 687 4125 
Q 1050 4450 1550 4450 
Q 2200 4450 2487 4062 
Q 2775 3675 2775 3225 
L 2200 3225 
Q 2225 3500 2050 3725 
Q 1875 3950 1550 3950 
Q 1250 3950 1075 3787 
Q 900 3625 900 3350 
Q 900 3125 1037 2962 
Q 1175 2800 1750 2575 
Q 2300 2350 2600 2037 
Q 2900 1725 2900 1325 
z
" transform="scale(0.015625)"/>
      <path id="SimHei-45" d="M 2900 125 
L 350 125 
L 350 4400 
L 2775 4400 
L 2775 3925 
L 925 3925 
L 925 2600 
L 2625 2600 
L 2625 2125 
L 925 2125 
L 925 600 
L 2900 600 
L 2900 125 
z
" transform="scale(0.015625)"/>
     </defs>
     <use xlink:href="#SimHei-52"/>
     <use xlink:href="#SimHei-b2" transform="translate(50 0)"/>
     <use xlink:href="#SimHei-20" transform="translate(150 0)"/>
     <use xlink:href="#SimHei-3d" transform="translate(200 0)"/>
     <use xlink:href="#SimHei-20" transform="translate(250 0)"/>
     <use xlink:href="#SimHei-2d" transform="translate(300 0)"/>
     <use xlink:href="#SimHei-31" transform="translate(350 0)"/>
     <use xlink:href="#SimHei-36" transform="translate(400 0)"/>
     <use xlink:href="#SimHei-31" transform="translate(450 0)"/>
     <use xlink:href="#SimHei-31" transform="translate(500 0)"/>
     <use xlink:href="#SimHei-2e" transform="translate(550 0)"/>
     <use xlink:href="#SimHei-37" transform="translate(600 0)"/>
     <use xlink:href="#SimHei-37" transform="translate(650 0)"/>
     <use xlink:href="#SimHei-37" transform="translate(700 0)"/>
     <use xlink:href="#SimHei-32" transform="translate(750 0)"/>
     <use xlink:href="#SimHei-2c" transform="translate(800 0)"/>
     <use xlink:href="#SimHei-20" transform="translate(850 0)"/>
     <use xlink:href="#SimHei-52" transform="translate(900 0)"/>
     <use xlink:href="#SimHei-4d" transform="translate(950 0)"/>
     <use xlink:href="#SimHei-53" transform="translate(1000 0)"/>
     <use xlink:href="#SimHei-45" transform="translate(1050 0)"/>
     <use xlink:href="#SimHei-20" transform="translate(1100 0)"/>
     <use xlink:href="#SimHei-3d" transform="translate(1150 0)"/>
     <use xlink:href="#SimHei-20" transform="translate(1200 0)"/>
     <use xlink:href="#SimHei-37" transform="translate(1250 0)"/>
     <use xlink:href="#SimHei-2e" transform="translate(1300 0)"/>
     <use xlink:href="#SimHei-35" transform="translate(1350 0)"/>
     <use xlink:href="#SimHei-30" transform="translate(1400 0)"/>
     <use xlink:href="#SimHei-35" transform="translate(1450 0)"/>
     <use xlink:href="#SimHei-31" transform="translate(1500 0)"/>
    </g>
   </g>
   <g id="legend_1">
    <g id="patch_7">
     <path d="M 760.279375 84.486719 
L 843.079375 84.486719 
Q 844.879375 84.486719 844.879375 82.686719 
L 844.879375 45.23125 
Q 844.879375 43.43125 843.079375 43.43125 
L 760.279375 43.43125 
Q 758.479375 43.43125 758.479375 45.23125 
L 758.479375 82.686719 
Q 758.479375 84.486719 760.279375 84.486719 
z
" style="fill: #eeeeee; opacity: 0.8; stroke: #cccccc; stroke-width: 0.5; stroke-linejoin: miter"/>
    </g>
    <g id="line2d_32">
     <path d="M 762.079375 51.053125 
L 771.079375 51.053125 
L 780.079375 51.053125 
" style="fill: none; stroke: #ff0000; stroke-width: 1.5; stroke-linecap: square"/>
    </g>
    <g id="text_18">
     <!-- 训练集数据 -->
     <g transform="translate(787.279375 54.203125) scale(0.09 -0.09)">
      <defs>
       <path id="SimHei-8bad" d="M 1650 3300 
Q 1625 2725 1625 2225 
L 1625 675 
Q 1950 1125 2050 1275 
Q 2175 1125 2350 900 
Q 2025 500 1800 212 
Q 1575 -75 1325 -425 
Q 1150 -200 950 -50 
Q 1150 225 1150 625 
L 1150 2875 
L 975 2875 
Q 600 2875 300 2850 
L 300 3325 
Q 600 3300 975 3300 
L 1650 3300 
z
M 3425 4600 
Q 3375 4350 3387 3362 
Q 3400 2375 3337 1887 
Q 3275 1400 3087 837 
Q 2900 275 2450 -375 
Q 2225 -200 1975 -125 
Q 2550 500 2762 1362 
Q 2975 2225 2950 3337 
Q 2925 4450 2900 4675 
Q 3150 4625 3425 4600 
z
M 5875 4700 
Q 5850 4500 5850 3975 
L 5850 625 
Q 5850 125 5875 -400 
L 5400 -400 
Q 5425 125 5425 600 
L 5425 3975 
Q 5425 4500 5400 4700 
L 5875 4700 
z
M 4600 175 
L 4125 175 
Q 4150 725 4150 1150 
L 4150 3600 
Q 4150 4050 4125 4350 
L 4600 4350 
L 4600 175 
z
M 1000 5150 
Q 1650 4600 2100 4100 
Q 1875 3925 1750 3750 
Q 1050 4550 700 4800 
Q 850 4950 1000 5150 
z
" transform="scale(0.015625)"/>
       <path id="SimHei-7ec3" d="M 3300 3825 
Q 2950 3825 2400 3800 
L 2400 4250 
Q 2950 4225 3325 4225 
L 3625 4225 
Q 3875 4950 3900 5175 
Q 4200 5025 4450 4925 
Q 4350 4825 4262 4612 
Q 4175 4400 4100 4225 
L 5025 4225 
Q 5425 4225 5900 4250 
L 5900 3800 
Q 5550 3825 5025 3825 
L 3975 3825 
Q 3850 3525 3700 3150 
L 4675 3150 
Q 4650 2875 4650 2475 
L 4650 1975 
L 4975 1975 
Q 5350 1975 5800 2000 
L 5800 1550 
Q 5350 1575 4975 1575 
L 4650 1575 
L 4650 125 
Q 4650 -300 4462 -425 
Q 4275 -550 3650 -625 
Q 3625 -375 3450 -100 
Q 4075 -125 4137 -25 
Q 4200 75 4200 325 
L 4200 1575 
L 3425 1575 
Q 3250 1575 3100 1562 
Q 2950 1550 2750 1475 
Q 2650 1725 2550 1950 
Q 2800 2025 3125 2775 
Q 2950 2775 2450 2750 
L 2450 3175 
Q 3025 3150 3250 3150 
Q 3400 3525 3500 3825 
L 3300 3825 
z
M 1650 2950 
Q 1875 3300 2100 3900 
Q 2325 3725 2575 3600 
Q 2325 3275 2025 2750 
Q 1725 2225 1075 1350 
Q 1300 1400 2400 1575 
Q 2350 1300 2375 1150 
Q 1825 1100 650 825 
Q 525 1075 400 1275 
Q 625 1400 887 1737 
Q 1150 2075 1450 2575 
Q 1300 2600 1012 2562 
Q 725 2525 450 2450 
Q 350 2675 250 2925 
Q 500 3075 812 3725 
Q 1125 4375 1325 5000 
Q 1600 4825 1850 4750 
Q 1600 4375 1387 3962 
Q 1175 3550 800 2925 
Q 1375 2925 1650 2950 
z
M 2425 700 
Q 2400 425 2425 250 
Q 2000 150 1462 -25 
Q 925 -200 475 -425 
Q 400 -150 300 125 
Q 950 275 1187 337 
Q 1425 400 2425 700 
z
M 3725 875 
Q 3650 800 3287 400 
Q 2925 0 2475 -475 
Q 2300 -250 2150 -125 
Q 2425 100 2750 462 
Q 3075 825 3325 1225 
Q 3475 1050 3725 875 
z
M 5275 1225 
Q 5925 375 6200 -100 
Q 5950 -200 5750 -375 
Q 5475 175 4900 950 
Q 5075 1050 5275 1225 
z
M 4200 1975 
L 4200 2775 
L 3575 2775 
Q 3325 2250 3175 1975 
L 4200 1975 
z
" transform="scale(0.015625)"/>
       <path id="SimHei-96c6" d="M 2275 4925 
Q 2125 4800 2025 4662 
Q 1925 4525 1850 4350 
L 4925 4350 
Q 5300 4350 5750 4375 
L 5750 3975 
L 3650 3975 
L 3650 3575 
L 4625 3575 
Q 4925 3575 5325 3600 
L 5325 3175 
Q 4925 3200 4625 3200 
L 3650 3200 
L 3650 2800 
L 4675 2800 
Q 5000 2800 5425 2825 
L 5425 2400 
Q 5000 2425 4675 2425 
L 3650 2425 
L 3650 2075 
L 4875 2075 
Q 5275 2075 5675 2100 
L 5675 1675 
Q 5300 1700 4900 1700 
L 1650 1700 
L 1650 1500 
L 1150 1500 
Q 1200 1950 1200 2325 
L 1200 3475 
Q 1050 3250 937 3125 
Q 825 3000 675 2825 
Q 500 3000 300 3125 
Q 475 3325 875 3825 
Q 1275 4325 1462 4650 
Q 1650 4975 1725 5225 
Q 1950 5100 2275 4925 
z
M 2975 1200 
Q 2975 1300 2950 1625 
L 3475 1625 
Q 3450 1275 3450 1200 
L 5050 1200 
Q 5500 1200 5925 1225 
L 5925 825 
L 4150 825 
Q 4500 525 4925 362 
Q 5350 200 6100 25 
Q 5875 -225 5775 -475 
Q 5275 -300 4962 -162 
Q 4650 -25 4387 137 
Q 4125 300 3950 462 
Q 3775 625 3575 825 
L 3450 825 
L 3450 250 
Q 3450 -275 3500 -650 
L 2950 -650 
Q 2975 -300 2975 250 
L 2975 825 
L 2875 825 
Q 2700 575 2475 375 
Q 2250 175 1987 12 
Q 1725 -150 1425 -300 
Q 1125 -450 700 -575 
Q 600 -325 400 -75 
Q 925 50 1475 262 
Q 2025 475 2300 825 
L 500 825 
L 500 1225 
Q 800 1200 1400 1200 
L 2975 1200 
z
M 3150 2800 
L 3150 3200 
L 1650 3200 
L 1650 2800 
L 3150 2800 
z
M 3150 3575 
L 3150 3975 
L 1650 3975 
L 1650 3575 
L 3150 3575 
z
M 3150 2075 
L 3150 2425 
L 1650 2425 
L 1650 2075 
L 3150 2075 
z
M 3450 5250 
Q 3575 5150 3712 5000 
Q 3850 4850 4000 4650 
Q 3850 4525 3575 4375 
Q 3425 4575 3325 4700 
Q 3225 4825 3075 4950 
Q 3275 5075 3450 5250 
z
" transform="scale(0.015625)"/>
       <path id="SimHei-6570" d="M 4525 4925 
Q 4475 4800 4400 4587 
Q 4325 4375 4175 3825 
L 5325 3825 
Q 5575 3825 5925 3850 
L 5925 3400 
Q 5650 3425 5500 3425 
Q 5500 3025 5362 2162 
Q 5225 1300 4875 675 
Q 5125 375 5437 137 
Q 5750 -100 6025 -200 
Q 5725 -425 5625 -625 
Q 5325 -450 5075 -225 
Q 4825 0 4575 325 
Q 4300 25 3987 -187 
Q 3675 -400 3200 -650 
Q 3075 -425 2850 -300 
Q 3225 -150 3650 125 
Q 4075 400 4300 675 
Q 4125 1025 3962 1425 
Q 3800 1825 3675 2475 
Q 3600 2275 3425 1950 
Q 3250 2050 3000 2150 
Q 3400 2850 3650 3675 
Q 3900 4500 3975 5100 
Q 4275 4975 4525 4925 
z
M 2100 2250 
Q 2000 2150 1875 1925 
L 3250 1925 
Q 3100 1300 2725 675 
Q 3125 525 3350 400 
Q 3225 225 3125 25 
Q 2900 175 2450 325 
Q 1950 -225 725 -650 
Q 600 -375 400 -275 
Q 1575 0 2000 475 
Q 1300 650 850 775 
Q 1000 1000 1250 1525 
Q 1000 1525 425 1500 
L 425 1950 
Q 900 1925 1400 1925 
Q 1500 2150 1550 2425 
Q 1825 2325 2100 2250 
z
M 1775 3950 
Q 1775 4550 1750 5100 
L 2250 5100 
Q 2225 4575 2225 3950 
Q 3075 3950 3425 3975 
L 3425 3525 
Q 3075 3550 2225 3550 
Q 2225 2825 2250 2425 
L 1750 2425 
Q 1775 2775 1775 3300 
Q 1650 3100 1300 2787 
Q 950 2475 650 2300 
Q 525 2525 275 2625 
Q 500 2700 875 2975 
Q 1250 3250 1450 3550 
Q 950 3550 500 3525 
L 500 3975 
Q 925 3950 1775 3950 
z
M 3975 3175 
Q 4200 1700 4600 1125 
Q 4850 1700 4937 2287 
Q 5025 2875 5050 3425 
L 4075 3425 
L 3975 3175 
z
M 1450 1000 
Q 1750 925 2275 800 
Q 2475 1050 2650 1525 
L 1725 1525 
Q 1600 1275 1450 1000 
z
M 3325 4825 
Q 3200 4625 3125 4450 
Q 3050 4275 2925 4025 
Q 2725 4125 2525 4175 
Q 2725 4500 2900 5000 
Q 3150 4875 3325 4825 
z
M 2575 3375 
Q 2900 3050 3200 2725 
Q 3050 2600 2875 2425 
Q 2525 2850 2300 3100 
Q 2450 3225 2575 3375 
z
M 925 5000 
Q 1275 4650 1500 4300 
L 1125 4075 
Q 950 4425 600 4725 
Q 825 4875 925 5000 
z
" transform="scale(0.015625)"/>
       <path id="SimHei-636e" d="M 5750 4775 
Q 5725 4550 5725 4225 
L 5725 3900 
Q 5725 3450 5750 3250 
L 3100 3250 
L 3100 2500 
L 4250 2500 
Q 4250 2725 4225 3175 
L 4700 3175 
Q 4675 2775 4675 2500 
L 5350 2500 
Q 5800 2500 6100 2525 
L 6100 2075 
Q 5800 2100 5375 2100 
L 4675 2100 
L 4675 1425 
L 5775 1425 
Q 5750 950 5750 800 
L 5750 175 
Q 5750 -225 5775 -575 
L 5325 -575 
L 5325 -225 
L 3675 -225 
L 3675 -600 
L 3225 -600 
Q 3250 -325 3250 100 
L 3250 825 
Q 3250 1075 3225 1425 
L 4250 1425 
L 4250 2100 
L 3075 2100 
Q 3050 1375 2887 737 
Q 2725 100 2425 -475 
Q 2200 -325 1950 -250 
Q 2250 150 2387 600 
Q 2525 1050 2600 1562 
Q 2675 2075 2675 2625 
L 2675 3575 
Q 2675 3975 2650 4775 
L 5750 4775 
z
M 1275 4425 
Q 1275 4775 1250 5075 
L 1750 5075 
Q 1725 4800 1725 4425 
L 1725 3775 
Q 1975 3775 2500 3800 
L 2500 3375 
Q 1975 3400 1725 3400 
L 1725 2450 
Q 2050 2625 2400 2850 
Q 2425 2650 2525 2475 
Q 2050 2200 1725 2000 
L 1725 175 
Q 1725 -300 1487 -400 
Q 1250 -500 775 -575 
Q 725 -325 600 -50 
Q 1025 -50 1150 -12 
Q 1275 25 1275 325 
L 1275 1800 
Q 900 1600 525 1325 
Q 450 1525 275 1800 
Q 775 1975 1275 2250 
L 1275 3400 
Q 800 3400 350 3375 
L 350 3800 
Q 800 3775 1275 3775 
L 1275 4425 
z
M 5300 3625 
L 5300 4400 
L 3100 4400 
L 3100 3625 
L 5300 3625 
z
M 5325 150 
L 5325 1075 
L 3675 1075 
L 3675 150 
L 5325 150 
z
" transform="scale(0.015625)"/>
      </defs>
      <use xlink:href="#SimHei-8bad"/>
      <use xlink:href="#SimHei-7ec3" transform="translate(100 0)"/>
      <use xlink:href="#SimHei-96c6" transform="translate(200 0)"/>
      <use xlink:href="#SimHei-6570" transform="translate(300 0)"/>
      <use xlink:href="#SimHei-636e" transform="translate(400 0)"/>
     </g>
    </g>
    <g id="line2d_33">
     <path d="M 762.079375 63.920312 
L 771.079375 63.920312 
L 780.079375 63.920312 
" style="fill: none; stroke: #0000ff; stroke-width: 1.5; stroke-linecap: square"/>
    </g>
    <g id="text_19">
     <!-- 测试集真实值 -->
     <g transform="translate(787.279375 67.070312) scale(0.09 -0.09)">
      <defs>
       <path id="SimHei-8bd5" d="M 3950 3825 
Q 3925 4325 3925 4550 
Q 3925 4800 3900 5225 
Q 4200 5150 4450 5125 
Q 4425 4825 4425 4600 
L 4425 3825 
L 5150 3825 
Q 5500 3825 5875 3850 
L 5875 3400 
Q 5525 3425 5125 3425 
L 4450 3425 
Q 4500 2750 4587 2212 
Q 4675 1675 4837 1112 
Q 5000 550 5212 225 
Q 5425 -100 5500 200 
Q 5575 500 5600 900 
Q 5800 625 6100 525 
Q 5975 -275 5750 -487 
Q 5525 -700 5250 -537 
Q 4975 -375 4737 62 
Q 4500 500 4337 1075 
Q 4175 1650 4100 2262 
Q 4025 2875 3975 3425 
L 2800 3425 
Q 2300 3425 1875 3400 
L 1875 3850 
Q 2275 3825 2775 3825 
L 3950 3825 
z
M 1500 3175 
Q 1475 2675 1475 2175 
L 1475 625 
Q 1825 950 2125 1225 
Q 2225 1000 2375 800 
Q 1900 425 1125 -350 
Q 1000 -125 825 50 
Q 1025 175 1025 525 
L 1025 2725 
Q 625 2725 300 2700 
L 300 3200 
Q 625 3175 825 3175 
L 1500 3175 
z
M 3775 2175 
Q 3500 2200 3250 2200 
L 3250 575 
Q 3575 675 3900 800 
Q 3900 525 3950 325 
Q 3575 250 3150 125 
Q 2725 0 2275 -175 
Q 2200 100 2025 300 
Q 2425 350 2800 475 
L 2800 2200 
Q 2525 2200 2225 2175 
L 2225 2650 
Q 2600 2625 3000 2625 
Q 3425 2625 3775 2650 
L 3775 2175 
z
M 925 4975 
Q 1275 4650 1700 4100 
Q 1525 3925 1325 3775 
Q 1175 4050 575 4650 
Q 775 4825 925 4975 
z
M 5150 5150 
Q 5325 5000 5850 4375 
Q 5575 4200 5425 4050 
Q 5125 4525 4775 4875 
Q 4925 4975 5150 5150 
z
" transform="scale(0.015625)"/>
       <path id="SimHei-771f" d="M 3550 5100 
Q 3450 4925 3400 4625 
L 4850 4625 
Q 5175 4625 5725 4650 
L 5725 4250 
Q 5200 4275 4850 4275 
L 3350 4275 
L 3300 3850 
L 5050 3850 
Q 5025 3550 5025 3150 
L 5025 1075 
L 5400 1075 
Q 5800 1075 6075 1100 
L 6075 625 
Q 5575 650 4900 650 
L 1450 650 
Q 775 650 350 625 
L 350 1100 
Q 725 1075 1100 1075 
L 1425 1075 
L 1425 3075 
Q 1425 3450 1400 3850 
L 2825 3850 
L 2850 4275 
L 1400 4275 
Q 1050 4275 625 4250 
L 625 4650 
Q 1175 4625 1375 4625 
L 2925 4625 
Q 2950 4875 2950 5125 
Q 3300 5100 3550 5100 
z
M 4075 525 
Q 4500 425 4925 250 
Q 5350 75 5825 -150 
Q 5550 -425 5450 -575 
Q 5025 -300 4550 -100 
Q 4075 100 3800 175 
Q 3925 350 4075 525 
z
M 4525 3150 
L 4525 3475 
L 1925 3475 
L 1925 3150 
L 4525 3150 
z
M 4525 1075 
L 4525 1400 
L 1925 1400 
L 1925 1075 
L 4525 1075 
z
M 2775 200 
Q 2375 -25 1875 -225 
Q 1375 -425 950 -575 
Q 775 -400 600 -250 
Q 1225 -50 1625 137 
Q 2025 325 2350 525 
Q 2550 350 2775 200 
z
M 4525 1775 
L 4525 2075 
L 1925 2075 
L 1925 1775 
L 4525 1775 
z
M 4525 2475 
L 4525 2775 
L 1925 2775 
L 1925 2475 
L 4525 2475 
z
" transform="scale(0.015625)"/>
       <path id="SimHei-5b9e" d="M 4125 3500 
Q 4050 3200 4000 2675 
Q 3950 2150 3850 1550 
L 5025 1550 
Q 5475 1550 5975 1575 
L 5975 1100 
Q 5450 1125 5000 1125 
L 3725 1125 
Q 3500 625 3050 250 
Q 2600 -125 2000 -337 
Q 1400 -550 925 -675 
Q 825 -375 500 -200 
Q 1225 -125 2050 212 
Q 2875 550 3200 1125 
L 1425 1125 
Q 975 1125 425 1100 
L 425 1575 
Q 1000 1550 1425 1550 
L 3375 1550 
Q 3450 1975 3487 2462 
Q 3525 2950 3500 3650 
Q 3800 3550 4125 3500 
z
M 3250 5250 
Q 3450 4850 3600 4375 
L 5775 4375 
Q 5750 4100 5750 3825 
Q 5750 3575 5775 3275 
L 5200 3275 
L 5200 3975 
L 1225 3975 
L 1225 3225 
L 675 3225 
Q 700 3525 700 3800 
Q 700 4100 675 4375 
L 2975 4375 
Q 2900 4675 2700 5075 
Q 2900 5150 3250 5250 
z
M 4000 825 
Q 4550 525 5050 262 
Q 5550 0 5925 -225 
Q 5750 -425 5550 -650 
Q 5100 -325 4575 -37 
Q 4050 250 3675 400 
Q 3875 650 4000 825 
z
M 1175 2750 
Q 1600 2550 2350 2050 
Q 2250 1900 2050 1650 
Q 1350 2175 925 2350 
Q 1075 2500 1175 2750 
z
M 3150 2825 
Q 2975 2625 2850 2425 
Q 2050 3000 1675 3125 
Q 1800 3300 1950 3525 
L 3150 2825 
z
" transform="scale(0.015625)"/>
      </defs>
      <use xlink:href="#SimHei-6d4b"/>
      <use xlink:href="#SimHei-8bd5" transform="translate(100 0)"/>
      <use xlink:href="#SimHei-96c6" transform="translate(200 0)"/>
      <use xlink:href="#SimHei-771f" transform="translate(300 0)"/>
      <use xlink:href="#SimHei-5b9e" transform="translate(400 0)"/>
      <use xlink:href="#SimHei-503c" transform="translate(500 0)"/>
     </g>
    </g>
    <g id="line2d_34">
     <path d="M 762.079375 76.611719 
L 771.079375 76.611719 
L 780.079375 76.611719 
" style="fill: none; stroke-dasharray: 5.55,2.4; stroke-dashoffset: 0; stroke: #ffff00; stroke-width: 1.5"/>
    </g>
    <g id="text_20">
     <!-- 预测值 -->
     <g transform="translate(787.279375 79.761719) scale(0.09 -0.09)">
      <use xlink:href="#SimHei-9884"/>
      <use xlink:href="#SimHei-6d4b" transform="translate(100 0)"/>
      <use xlink:href="#SimHei-503c" transform="translate(200 0)"/>
     </g>
    </g>
   </g>
  </g>
 </g>
 <defs>
  <clipPath id="p649a3b398d">
   <rect x="37.496875" y="38.93125" width="811.8825" height="352.84775"/>
  </clipPath>
 </defs>
</svg>
