<?xml version="1.0" encoding="utf-8" standalone="no"?>
<!DOCTYPE svg PUBLIC "-//W3C//DTD SVG 1.1//EN"
  "http://www.w3.org/Graphics/SVG/1.1/DTD/svg11.dtd">
<svg xmlns:xlink="http://www.w3.org/1999/xlink" width="856.579375pt" height="423.049312pt" viewBox="0 0 856.579375 423.049312" xmlns="http://www.w3.org/2000/svg" version="1.1">
 <metadata>
  <rdf:RDF xmlns:dc="http://purl.org/dc/elements/1.1/" xmlns:cc="http://creativecommons.org/ns#" xmlns:rdf="http://www.w3.org/1999/02/22-rdf-syntax-ns#">
   <cc:Work>
    <dc:type rdf:resource="http://purl.org/dc/dcmitype/StillImage"/>
    <dc:date>2025-04-15T16:11:49.042864</dc:date>
    <dc:format>image/svg+xml</dc:format>
    <dc:creator>
     <cc:Agent>
      <dc:title>Matplotlib v3.10.0, https://matplotlib.org/</dc:title>
     </cc:Agent>
    </dc:creator>
   </cc:Work>
  </rdf:RDF>
 </metadata>
 <defs>
  <style type="text/css">*{stroke-linejoin: round; stroke-linecap: butt}</style>
 </defs>
 <g id="figure_1">
  <g id="patch_1">
   <path d="M -0 423.049312 
L 856.579375 423.049312 
L 856.579375 0 
L -0 0 
z
" style="fill: #ffffff"/>
  </g>
  <g id="axes_1">
   <g id="patch_2">
    <path d="M 37.496875 391.779 
L 849.379375 391.779 
L 849.379375 38.93125 
L 37.496875 38.93125 
z
" style="fill: #eeeeee"/>
   </g>
   <g id="matplotlib.axis_1">
    <g id="xtick_1">
     <g id="line2d_1">
      <path d="M 74.400625 391.779 
L 74.400625 38.93125 
" clip-path="url(#pdb42085747)" style="fill: none; stroke-dasharray: 1.85,0.8; stroke-dashoffset: 0; stroke: #b2b2b2; stroke-opacity: 0.3; stroke-width: 0.5"/>
     </g>
     <g id="line2d_2">
      <defs>
       <path id="md7d8ce532c" d="M 0 0 
L 0 -3.5 
" style="stroke: #000000; stroke-width: 0.8"/>
      </defs>
      <g>
       <use xlink:href="#md7d8ce532c" x="74.400625" y="391.779" style="stroke: #000000; stroke-width: 0.8"/>
      </g>
     </g>
     <g id="text_1">
      <!-- 0 -->
      <g transform="translate(72.150625 401.4665) scale(0.09 -0.09)">
       <defs>
        <path id="SimHei-30" d="M 225 2537 
Q 250 3200 412 3587 
Q 575 3975 875 4225 
Q 1175 4475 1612 4475 
Q 2050 4475 2375 4112 
Q 2700 3750 2800 3200 
Q 2900 2650 2862 1937 
Q 2825 1225 2612 775 
Q 2400 325 1975 150 
Q 1550 -25 1125 187 
Q 700 400 525 750 
Q 350 1100 275 1487 
Q 200 1875 225 2537 
z
M 750 2687 
Q 675 2000 800 1462 
Q 925 925 1212 700 
Q 1500 475 1800 612 
Q 2100 750 2237 1162 
Q 2375 1575 2375 2062 
Q 2375 2550 2337 2950 
Q 2300 3350 2112 3675 
Q 1925 4000 1612 4012 
Q 1300 4025 1062 3700 
Q 825 3375 750 2687 
z
" transform="scale(0.015625)"/>
       </defs>
       <use xlink:href="#SimHei-30"/>
      </g>
     </g>
    </g>
    <g id="xtick_2">
     <g id="line2d_3">
      <path d="M 209.332069 391.779 
L 209.332069 38.93125 
" clip-path="url(#pdb42085747)" style="fill: none; stroke-dasharray: 1.85,0.8; stroke-dashoffset: 0; stroke: #b2b2b2; stroke-opacity: 0.3; stroke-width: 0.5"/>
     </g>
     <g id="line2d_4">
      <g>
       <use xlink:href="#md7d8ce532c" x="209.332069" y="391.779" style="stroke: #000000; stroke-width: 0.8"/>
      </g>
     </g>
     <g id="text_2">
      <!-- 200 -->
      <g transform="translate(202.582069 401.4665) scale(0.09 -0.09)">
       <defs>
        <path id="SimHei-32" d="M 300 250 
Q 325 625 650 925 
Q 975 1225 1475 1862 
Q 1975 2500 2125 2850 
Q 2275 3200 2237 3450 
Q 2200 3700 2000 3862 
Q 1800 4025 1537 4000 
Q 1275 3975 1037 3800 
Q 800 3625 675 3275 
L 200 3350 
Q 400 3925 712 4187 
Q 1025 4450 1450 4475 
Q 1700 4500 1900 4462 
Q 2100 4425 2312 4287 
Q 2525 4150 2662 3875 
Q 2800 3600 2762 3212 
Q 2725 2825 2375 2287 
Q 2025 1750 1025 600 
L 2825 600 
L 2825 150 
L 300 150 
L 300 250 
z
" transform="scale(0.015625)"/>
       </defs>
       <use xlink:href="#SimHei-32"/>
       <use xlink:href="#SimHei-30" transform="translate(50 0)"/>
       <use xlink:href="#SimHei-30" transform="translate(100 0)"/>
      </g>
     </g>
    </g>
    <g id="xtick_3">
     <g id="line2d_5">
      <path d="M 344.263513 391.779 
L 344.263513 38.93125 
" clip-path="url(#pdb42085747)" style="fill: none; stroke-dasharray: 1.85,0.8; stroke-dashoffset: 0; stroke: #b2b2b2; stroke-opacity: 0.3; stroke-width: 0.5"/>
     </g>
     <g id="line2d_6">
      <g>
       <use xlink:href="#md7d8ce532c" x="344.263513" y="391.779" style="stroke: #000000; stroke-width: 0.8"/>
      </g>
     </g>
     <g id="text_3">
      <!-- 400 -->
      <g transform="translate(337.513513 401.4665) scale(0.09 -0.09)">
       <defs>
        <path id="SimHei-34" d="M 2000 1100 
L 75 1100 
L 75 1525 
L 2100 4450 
L 2475 4450 
L 2475 1525 
L 3075 1525 
L 3075 1100 
L 2475 1100 
L 2475 150 
L 2000 150 
L 2000 1100 
z
M 2000 1525 
L 2000 3500 
L 600 1525 
L 2000 1525 
z
" transform="scale(0.015625)"/>
       </defs>
       <use xlink:href="#SimHei-34"/>
       <use xlink:href="#SimHei-30" transform="translate(50 0)"/>
       <use xlink:href="#SimHei-30" transform="translate(100 0)"/>
      </g>
     </g>
    </g>
    <g id="xtick_4">
     <g id="line2d_7">
      <path d="M 479.194958 391.779 
L 479.194958 38.93125 
" clip-path="url(#pdb42085747)" style="fill: none; stroke-dasharray: 1.85,0.8; stroke-dashoffset: 0; stroke: #b2b2b2; stroke-opacity: 0.3; stroke-width: 0.5"/>
     </g>
     <g id="line2d_8">
      <g>
       <use xlink:href="#md7d8ce532c" x="479.194958" y="391.779" style="stroke: #000000; stroke-width: 0.8"/>
      </g>
     </g>
     <g id="text_4">
      <!-- 600 -->
      <g transform="translate(472.444958 401.4665) scale(0.09 -0.09)">
       <defs>
        <path id="SimHei-36" d="M 250 1612 
Q 275 1975 387 2225 
Q 500 2475 725 2850 
L 1750 4450 
L 2325 4450 
L 1275 2800 
Q 1950 2975 2350 2750 
Q 2750 2525 2887 2237 
Q 3025 1950 3037 1612 
Q 3050 1275 2937 950 
Q 2825 625 2537 362 
Q 2250 100 1737 75 
Q 1225 50 862 262 
Q 500 475 362 862 
Q 225 1250 250 1612 
z
M 1025 787 
Q 1250 550 1625 525 
Q 2000 500 2250 775 
Q 2500 1050 2500 1575 
Q 2500 2100 2187 2300 
Q 1875 2500 1487 2450 
Q 1100 2400 925 2075 
Q 750 1750 775 1387 
Q 800 1025 1025 787 
z
" transform="scale(0.015625)"/>
       </defs>
       <use xlink:href="#SimHei-36"/>
       <use xlink:href="#SimHei-30" transform="translate(50 0)"/>
       <use xlink:href="#SimHei-30" transform="translate(100 0)"/>
      </g>
     </g>
    </g>
    <g id="xtick_5">
     <g id="line2d_9">
      <path d="M 614.126402 391.779 
L 614.126402 38.93125 
" clip-path="url(#pdb42085747)" style="fill: none; stroke-dasharray: 1.85,0.8; stroke-dashoffset: 0; stroke: #b2b2b2; stroke-opacity: 0.3; stroke-width: 0.5"/>
     </g>
     <g id="line2d_10">
      <g>
       <use xlink:href="#md7d8ce532c" x="614.126402" y="391.779" style="stroke: #000000; stroke-width: 0.8"/>
      </g>
     </g>
     <g id="text_5">
      <!-- 800 -->
      <g transform="translate(607.376402 401.4665) scale(0.09 -0.09)">
       <defs>
        <path id="SimHei-38" d="M 175 1375 
Q 175 1675 325 1962 
Q 475 2250 825 2425 
Q 525 2600 425 2812 
Q 325 3025 312 3300 
Q 300 3575 387 3775 
Q 475 3975 650 4150 
Q 825 4325 1037 4387 
Q 1250 4450 1500 4450 
Q 1750 4450 1950 4400 
Q 2150 4350 2375 4187 
Q 2600 4025 2700 3725 
Q 2800 3425 2687 3025 
Q 2575 2625 2100 2400 
Q 2525 2275 2700 2012 
Q 2875 1750 2875 1375 
Q 2875 1000 2762 775 
Q 2650 550 2512 400 
Q 2375 250 2137 162 
Q 1900 75 1537 75 
Q 1175 75 912 162 
Q 650 250 475 425 
Q 300 600 237 837 
Q 175 1075 175 1375 
z
M 687 1400 
Q 675 1100 787 875 
Q 900 650 1200 587 
Q 1500 525 1825 600 
Q 2150 675 2275 950 
Q 2400 1225 2362 1500 
Q 2325 1775 2050 1962 
Q 1775 2150 1450 2125 
Q 1125 2100 912 1900 
Q 700 1700 687 1400 
z
M 775 3350 
Q 775 3100 950 2875 
Q 1125 2650 1500 2650 
Q 1875 2650 2062 2875 
Q 2250 3100 2237 3412 
Q 2225 3725 2012 3875 
Q 1800 4025 1437 4000 
Q 1075 3975 925 3787 
Q 775 3600 775 3350 
z
" transform="scale(0.015625)"/>
       </defs>
       <use xlink:href="#SimHei-38"/>
       <use xlink:href="#SimHei-30" transform="translate(50 0)"/>
       <use xlink:href="#SimHei-30" transform="translate(100 0)"/>
      </g>
     </g>
    </g>
    <g id="xtick_6">
     <g id="line2d_11">
      <path d="M 749.057846 391.779 
L 749.057846 38.93125 
" clip-path="url(#pdb42085747)" style="fill: none; stroke-dasharray: 1.85,0.8; stroke-dashoffset: 0; stroke: #b2b2b2; stroke-opacity: 0.3; stroke-width: 0.5"/>
     </g>
     <g id="line2d_12">
      <g>
       <use xlink:href="#md7d8ce532c" x="749.057846" y="391.779" style="stroke: #000000; stroke-width: 0.8"/>
      </g>
     </g>
     <g id="text_6">
      <!-- 1000 -->
      <g transform="translate(740.057846 401.4665) scale(0.09 -0.09)">
       <defs>
        <path id="SimHei-31" d="M 1400 3600 
Q 1075 3275 575 2975 
L 575 3450 
Q 1200 3875 1600 4450 
L 1900 4450 
L 1900 150 
L 1400 150 
L 1400 3600 
z
" transform="scale(0.015625)"/>
       </defs>
       <use xlink:href="#SimHei-31"/>
       <use xlink:href="#SimHei-30" transform="translate(50 0)"/>
       <use xlink:href="#SimHei-30" transform="translate(100 0)"/>
       <use xlink:href="#SimHei-30" transform="translate(150 0)"/>
      </g>
     </g>
    </g>
    <g id="text_7">
     <!-- 时间 / 序号 -->
     <g transform="translate(415.938125 414.599312) scale(0.1 -0.1)">
      <defs>
       <path id="SimHei-65f6" d="M 2525 4575 
Q 2500 3675 2500 2400 
Q 2500 1125 2525 400 
L 2000 400 
L 2000 875 
L 1000 875 
L 1000 50 
L 475 50 
Q 500 1200 500 2350 
Q 500 3525 475 4575 
L 2525 4575 
z
M 4875 3825 
Q 4875 4575 4850 5225 
L 5400 5225 
Q 5375 4575 5375 3825 
Q 5750 3825 6175 3850 
L 6175 3375 
Q 5750 3400 5375 3400 
L 5375 50 
Q 5375 -325 5075 -425 
Q 4775 -525 4300 -575 
Q 4300 -275 4025 0 
Q 4500 -50 4687 -25 
Q 4875 0 4875 300 
L 4875 3400 
Q 3625 3400 2775 3375 
L 2775 3850 
Q 3575 3825 4875 3825 
z
M 2000 1300 
L 2000 2550 
L 1000 2550 
L 1000 1300 
L 2000 1300 
z
M 2000 2975 
L 2000 4150 
L 1000 4150 
L 1000 2975 
L 2000 2975 
z
M 3550 2725 
Q 3875 2200 4175 1600 
Q 3925 1525 3650 1375 
Q 3450 1975 3075 2500 
Q 3300 2600 3550 2725 
z
" transform="scale(0.015625)"/>
       <path id="SimHei-95f4" d="M 4450 3550 
Q 4425 3075 4425 2725 
L 4425 1400 
Q 4425 1075 4450 625 
L 1925 625 
Q 1950 1075 1950 1425 
L 1950 2725 
Q 1950 3075 1925 3550 
L 4450 3550 
z
M 5800 4875 
Q 5775 4400 5775 3925 
L 5775 250 
Q 5800 -325 5462 -450 
Q 5125 -575 4725 -625 
Q 4700 -325 4525 -25 
Q 5000 -50 5137 25 
Q 5275 100 5275 350 
L 5275 4450 
L 3775 4450 
Q 3175 4450 2650 4425 
L 2650 4900 
Q 3175 4875 3775 4875 
L 5800 4875 
z
M 550 -525 
Q 600 -25 600 525 
L 600 3150 
Q 600 3675 550 4025 
L 1125 4025 
Q 1100 3650 1100 3300 
L 1100 500 
Q 1100 0 1125 -525 
L 550 -525 
z
M 3950 1025 
L 3950 1950 
L 2425 1950 
L 2425 1025 
L 3950 1025 
z
M 3950 2350 
L 3950 3150 
L 2425 3150 
L 2425 2350 
L 3950 2350 
z
M 1525 5300 
Q 1750 5000 2225 4350 
Q 1950 4225 1700 4075 
Q 1450 4575 1075 5025 
Q 1350 5225 1525 5300 
z
" transform="scale(0.015625)"/>
       <path id="SimHei-20" transform="scale(0.015625)"/>
       <path id="SimHei-2f" d="M 3000 4550 
L 350 -175 
L 100 -25 
L 2750 4700 
L 3000 4550 
z
" transform="scale(0.015625)"/>
       <path id="SimHei-5e8f" d="M 4000 2075 
L 5975 2075 
Q 5750 1525 5575 1025 
Q 5325 1100 5050 1150 
Q 5175 1450 5275 1700 
L 4050 1700 
L 4050 150 
Q 4050 -375 3762 -462 
Q 3475 -550 2950 -575 
Q 2875 -300 2750 0 
Q 3350 -75 3475 25 
Q 3600 125 3575 375 
L 3575 1700 
L 2450 1700 
Q 2050 1700 1675 1675 
L 1675 2100 
Q 2100 2075 2425 2075 
L 3675 2075 
Q 3325 2400 2875 2775 
Q 2975 2875 3250 3100 
Q 3400 2975 3725 2725 
L 4575 3275 
L 3000 3275 
Q 2400 3275 1950 3250 
L 1950 3700 
Q 2400 3675 3000 3675 
L 5400 3675 
L 5400 3250 
Q 4700 2875 4025 2450 
L 4275 2250 
L 4000 2075 
z
M 3725 5275 
Q 3825 4925 3925 4525 
L 4850 4525 
Q 5425 4525 6000 4550 
L 6000 4125 
Q 5425 4150 4850 4150 
L 1400 4150 
Q 1400 2750 1362 2137 
Q 1325 1525 1200 887 
Q 1075 250 775 -350 
Q 625 -250 250 -125 
Q 475 300 600 700 
Q 725 1100 800 1637 
Q 875 2175 875 2825 
Q 875 3500 850 4525 
L 3350 4525 
Q 3275 4825 3150 5150 
Q 3425 5200 3725 5275 
z
" transform="scale(0.015625)"/>
       <path id="SimHei-53f7" d="M 5025 4925 
Q 5000 4550 5000 4075 
Q 5000 3600 5025 3175 
L 1400 3175 
Q 1425 3525 1425 4000 
Q 1425 4500 1400 4925 
L 5025 4925 
z
M 5175 2625 
Q 5650 2625 6025 2650 
L 6025 2200 
Q 5650 2225 5175 2225 
L 2450 2225 
Q 2350 1875 2225 1450 
L 5175 1450 
Q 5100 1050 5062 775 
Q 5025 500 4950 112 
Q 4875 -275 4650 -412 
Q 4425 -550 3225 -625 
Q 3125 -350 2975 -50 
Q 3875 -75 4112 -50 
Q 4350 -25 4425 212 
Q 4500 450 4575 1025 
L 1600 1025 
Q 1825 1625 1950 2225 
L 1350 2225 
Q 825 2225 375 2200 
L 375 2650 
Q 825 2625 1350 2625 
L 5175 2625 
z
M 4525 3575 
L 4525 4525 
L 1900 4525 
L 1900 3575 
L 4525 3575 
z
" transform="scale(0.015625)"/>
      </defs>
      <use xlink:href="#SimHei-65f6"/>
      <use xlink:href="#SimHei-95f4" transform="translate(100 0)"/>
      <use xlink:href="#SimHei-20" transform="translate(200 0)"/>
      <use xlink:href="#SimHei-2f" transform="translate(250 0)"/>
      <use xlink:href="#SimHei-20" transform="translate(300 0)"/>
      <use xlink:href="#SimHei-5e8f" transform="translate(350 0)"/>
      <use xlink:href="#SimHei-53f7" transform="translate(450 0)"/>
     </g>
    </g>
   </g>
   <g id="matplotlib.axis_2">
    <g id="ytick_1">
     <g id="line2d_13">
      <path d="M 37.496875 389.744549 
L 849.379375 389.744549 
" clip-path="url(#pdb42085747)" style="fill: none; stroke-dasharray: 1.85,0.8; stroke-dashoffset: 0; stroke: #b2b2b2; stroke-opacity: 0.3; stroke-width: 0.5"/>
     </g>
     <g id="line2d_14">
      <defs>
       <path id="me9d00bbea1" d="M 0 0 
L 3.5 0 
" style="stroke: #000000; stroke-width: 0.8"/>
      </defs>
      <g>
       <use xlink:href="#me9d00bbea1" x="37.496875" y="389.744549" style="stroke: #000000; stroke-width: 0.8"/>
      </g>
     </g>
     <g id="text_8">
      <!-- 5.0 -->
      <g transform="translate(20.496875 392.838299) scale(0.09 -0.09)">
       <defs>
        <path id="SimHei-35" d="M 550 1325 
Q 725 650 1150 575 
Q 1575 500 1837 662 
Q 2100 825 2212 1087 
Q 2325 1350 2312 1675 
Q 2300 2000 2137 2225 
Q 1975 2450 1725 2525 
Q 1475 2600 1162 2525 
Q 850 2450 650 2175 
L 225 2225 
Q 275 2375 700 4375 
L 2675 4375 
L 2675 3925 
L 1075 3925 
Q 950 3250 825 2850 
Q 1200 3025 1525 3012 
Q 1850 3000 2150 2862 
Q 2450 2725 2587 2487 
Q 2725 2250 2787 2012 
Q 2850 1775 2837 1500 
Q 2825 1225 2725 937 
Q 2625 650 2425 462 
Q 2225 275 1937 162 
Q 1650 50 1275 75 
Q 900 100 562 350 
Q 225 600 100 1200 
L 550 1325 
z
" transform="scale(0.015625)"/>
        <path id="SimHei-2e" d="M 1075 125 
L 500 125 
L 500 675 
L 1075 675 
L 1075 125 
z
" transform="scale(0.015625)"/>
       </defs>
       <use xlink:href="#SimHei-35"/>
       <use xlink:href="#SimHei-2e" transform="translate(50 0)"/>
       <use xlink:href="#SimHei-30" transform="translate(100 0)"/>
      </g>
     </g>
    </g>
    <g id="ytick_2">
     <g id="line2d_15">
      <path d="M 37.496875 334.610365 
L 849.379375 334.610365 
" clip-path="url(#pdb42085747)" style="fill: none; stroke-dasharray: 1.85,0.8; stroke-dashoffset: 0; stroke: #b2b2b2; stroke-opacity: 0.3; stroke-width: 0.5"/>
     </g>
     <g id="line2d_16">
      <g>
       <use xlink:href="#me9d00bbea1" x="37.496875" y="334.610365" style="stroke: #000000; stroke-width: 0.8"/>
      </g>
     </g>
     <g id="text_9">
      <!-- 5.5 -->
      <g transform="translate(20.496875 337.704115) scale(0.09 -0.09)">
       <use xlink:href="#SimHei-35"/>
       <use xlink:href="#SimHei-2e" transform="translate(50 0)"/>
       <use xlink:href="#SimHei-35" transform="translate(100 0)"/>
      </g>
     </g>
    </g>
    <g id="ytick_3">
     <g id="line2d_17">
      <path d="M 37.496875 279.476181 
L 849.379375 279.476181 
" clip-path="url(#pdb42085747)" style="fill: none; stroke-dasharray: 1.85,0.8; stroke-dashoffset: 0; stroke: #b2b2b2; stroke-opacity: 0.3; stroke-width: 0.5"/>
     </g>
     <g id="line2d_18">
      <g>
       <use xlink:href="#me9d00bbea1" x="37.496875" y="279.476181" style="stroke: #000000; stroke-width: 0.8"/>
      </g>
     </g>
     <g id="text_10">
      <!-- 6.0 -->
      <g transform="translate(20.496875 282.569931) scale(0.09 -0.09)">
       <use xlink:href="#SimHei-36"/>
       <use xlink:href="#SimHei-2e" transform="translate(50 0)"/>
       <use xlink:href="#SimHei-30" transform="translate(100 0)"/>
      </g>
     </g>
    </g>
    <g id="ytick_4">
     <g id="line2d_19">
      <path d="M 37.496875 224.341997 
L 849.379375 224.341997 
" clip-path="url(#pdb42085747)" style="fill: none; stroke-dasharray: 1.85,0.8; stroke-dashoffset: 0; stroke: #b2b2b2; stroke-opacity: 0.3; stroke-width: 0.5"/>
     </g>
     <g id="line2d_20">
      <g>
       <use xlink:href="#me9d00bbea1" x="37.496875" y="224.341997" style="stroke: #000000; stroke-width: 0.8"/>
      </g>
     </g>
     <g id="text_11">
      <!-- 6.5 -->
      <g transform="translate(20.496875 227.435747) scale(0.09 -0.09)">
       <use xlink:href="#SimHei-36"/>
       <use xlink:href="#SimHei-2e" transform="translate(50 0)"/>
       <use xlink:href="#SimHei-35" transform="translate(100 0)"/>
      </g>
     </g>
    </g>
    <g id="ytick_5">
     <g id="line2d_21">
      <path d="M 37.496875 169.207813 
L 849.379375 169.207813 
" clip-path="url(#pdb42085747)" style="fill: none; stroke-dasharray: 1.85,0.8; stroke-dashoffset: 0; stroke: #b2b2b2; stroke-opacity: 0.3; stroke-width: 0.5"/>
     </g>
     <g id="line2d_22">
      <g>
       <use xlink:href="#me9d00bbea1" x="37.496875" y="169.207813" style="stroke: #000000; stroke-width: 0.8"/>
      </g>
     </g>
     <g id="text_12">
      <!-- 7.0 -->
      <g transform="translate(20.496875 172.301563) scale(0.09 -0.09)">
       <defs>
        <path id="SimHei-37" d="M 850 150 
Q 1300 2050 2425 3925 
L 275 3925 
L 275 4375 
L 2950 4375 
L 2950 3950 
Q 1775 2050 1400 150 
L 850 150 
z
" transform="scale(0.015625)"/>
       </defs>
       <use xlink:href="#SimHei-37"/>
       <use xlink:href="#SimHei-2e" transform="translate(50 0)"/>
       <use xlink:href="#SimHei-30" transform="translate(100 0)"/>
      </g>
     </g>
    </g>
    <g id="ytick_6">
     <g id="line2d_23">
      <path d="M 37.496875 114.073629 
L 849.379375 114.073629 
" clip-path="url(#pdb42085747)" style="fill: none; stroke-dasharray: 1.85,0.8; stroke-dashoffset: 0; stroke: #b2b2b2; stroke-opacity: 0.3; stroke-width: 0.5"/>
     </g>
     <g id="line2d_24">
      <g>
       <use xlink:href="#me9d00bbea1" x="37.496875" y="114.073629" style="stroke: #000000; stroke-width: 0.8"/>
      </g>
     </g>
     <g id="text_13">
      <!-- 7.5 -->
      <g transform="translate(20.496875 117.167379) scale(0.09 -0.09)">
       <use xlink:href="#SimHei-37"/>
       <use xlink:href="#SimHei-2e" transform="translate(50 0)"/>
       <use xlink:href="#SimHei-35" transform="translate(100 0)"/>
      </g>
     </g>
    </g>
    <g id="ytick_7">
     <g id="line2d_25">
      <path d="M 37.496875 58.939445 
L 849.379375 58.939445 
" clip-path="url(#pdb42085747)" style="fill: none; stroke-dasharray: 1.85,0.8; stroke-dashoffset: 0; stroke: #b2b2b2; stroke-opacity: 0.3; stroke-width: 0.5"/>
     </g>
     <g id="line2d_26">
      <g>
       <use xlink:href="#me9d00bbea1" x="37.496875" y="58.939445" style="stroke: #000000; stroke-width: 0.8"/>
      </g>
     </g>
     <g id="text_14">
      <!-- 8.0 -->
      <g transform="translate(20.496875 62.033195) scale(0.09 -0.09)">
       <use xlink:href="#SimHei-38"/>
       <use xlink:href="#SimHei-2e" transform="translate(50 0)"/>
       <use xlink:href="#SimHei-30" transform="translate(100 0)"/>
      </g>
     </g>
    </g>
    <g id="text_15">
     <!-- pH 值 -->
     <g transform="translate(15.246875 227.855125) rotate(-90) scale(0.1 -0.1)">
      <defs>
       <path id="SimHei-70" d="M 2825 1525 
Q 2825 800 2475 425 
Q 2125 50 1625 50 
Q 1350 50 1150 162 
Q 950 275 800 500 
L 800 -800 
L 300 -800 
L 300 2925 
L 800 2925 
L 800 2550 
Q 950 2775 1150 2875 
Q 1350 2975 1625 2975 
Q 2125 2975 2475 2612 
Q 2825 2250 2825 1525 
z
M 2275 1525 
Q 2275 2000 2087 2262 
Q 1900 2525 1525 2525 
Q 1225 2525 1012 2262 
Q 800 2000 800 1525 
Q 800 1050 1012 775 
Q 1225 500 1525 500 
Q 1900 500 2087 775 
Q 2275 1050 2275 1525 
z
" transform="scale(0.015625)"/>
       <path id="SimHei-48" d="M 2850 125 
L 2275 125 
L 2275 2125 
L 850 2125 
L 850 125 
L 275 125 
L 275 4400 
L 850 4400 
L 850 2600 
L 2275 2600 
L 2275 4400 
L 2850 4400 
L 2850 125 
z
" transform="scale(0.015625)"/>
       <path id="SimHei-503c" d="M 3675 4450 
L 3675 5100 
Q 3975 5075 4350 5050 
Q 4225 4875 4200 4450 
L 5125 4450 
Q 5550 4450 5875 4475 
L 5875 4025 
Q 5525 4050 5125 4050 
L 4175 4050 
L 4125 3500 
L 5400 3500 
Q 5375 3200 5375 2700 
L 5375 150 
Q 5875 150 6100 175 
L 6100 -275 
Q 5775 -250 5200 -250 
L 2850 -250 
Q 2275 -250 1900 -275 
L 1900 175 
Q 2125 150 2600 150 
L 2600 2700 
Q 2600 3175 2575 3500 
L 3600 3500 
L 3650 4050 
L 3200 4050 
Q 2575 4050 2225 4025 
L 2225 4475 
Q 2550 4450 3200 4450 
L 3675 4450 
z
M 2225 4900 
Q 2025 4675 1650 3750 
L 1650 450 
Q 1650 -75 1675 -550 
L 1150 -550 
Q 1175 -125 1175 375 
L 1175 2950 
Q 875 2450 625 2150 
Q 425 2425 250 2575 
Q 500 2825 937 3537 
Q 1375 4250 1625 5150 
Q 1975 4975 2225 4900 
z
M 4925 2650 
L 4925 3150 
L 3075 3150 
L 3075 2650 
L 4925 2650 
z
M 4925 150 
L 4925 625 
L 3075 625 
L 3075 150 
L 4925 150 
z
M 4925 1000 
L 4925 1450 
L 3075 1450 
L 3075 1000 
L 4925 1000 
z
M 4925 1825 
L 4925 2275 
L 3075 2275 
L 3075 1825 
L 4925 1825 
z
" transform="scale(0.015625)"/>
      </defs>
      <use xlink:href="#SimHei-70"/>
      <use xlink:href="#SimHei-48" transform="translate(50 0)"/>
      <use xlink:href="#SimHei-20" transform="translate(100 0)"/>
      <use xlink:href="#SimHei-503c" transform="translate(150 0)"/>
     </g>
    </g>
   </g>
   <g id="line2d_27">
    <path d="M 74.400625 164.356005 
L 75.075282 164.907347 
L 75.749939 182.21948 
L 76.424597 157.188561 
L 77.099254 177.477941 
L 77.773911 165.568957 
L 78.448568 169.869423 
L 79.123226 164.907347 
L 79.797883 158.291245 
L 81.147197 169.869423 
L 81.821854 174.500695 
L 82.496512 174.16989 
L 83.845826 159.835002 
L 84.520483 150.682727 
L 85.195141 164.576542 
L 85.869798 168.105129 
L 86.544455 151.234069 
L 87.219112 157.078293 
L 87.893769 161.819832 
L 88.568427 156.637219 
L 89.243084 146.161724 
L 89.917741 146.602798 
L 90.592398 149.580044 
L 91.267056 151.564874 
L 91.941713 154.983194 
L 92.61637 155.313999 
L 93.965684 164.797078 
L 94.640342 164.356005 
L 95.314999 157.739903 
L 96.664313 184.204311 
L 97.338971 190.599876 
L 98.013628 165.017615 
L 98.688285 170.861839 
L 99.362942 173.067206 
L 100.037599 169.648887 
L 100.712257 171.302912 
L 101.386914 176.375257 
L 102.061571 180.455187 
L 102.736228 188.173972 
L 103.410886 188.284241 
L 104.085543 196.4441 
L 105.434857 188.063704 
L 106.109514 188.835583 
L 106.784172 195.78249 
L 107.458829 189.827998 
L 108.133486 194.569538 
L 108.808143 201.516445 
L 109.482801 214.197307 
L 110.157458 202.398592 
L 110.832115 201.736982 
L 111.506772 192.033365 
L 112.181429 191.923097 
L 112.856087 209.014694 
L 113.530744 211.440598 
L 114.205401 198.098125 
L 114.880058 202.839665 
L 115.554715 196.774905 
L 116.229373 184.314579 
L 116.90403 186.519947 
L 117.578687 197.436515 
L 118.928002 168.325666 
L 119.602659 175.382842 
L 120.277316 179.903845 
L 120.951973 186.850752 
L 121.62663 188.284241 
L 122.301288 196.774905 
L 122.975945 201.957518 
L 123.650602 208.022279 
L 124.325259 192.915512 
L 124.999917 191.812828 
L 125.674574 211.440598 
L 126.349231 197.326247 
L 127.023888 192.694975 
L 127.698545 196.664637 
L 128.373203 193.687391 
L 129.04786 199.531614 
L 129.722517 201.957518 
L 130.397174 199.972688 
L 131.071832 201.626713 
L 131.746489 198.649467 
L 132.421146 199.200809 
L 133.095803 203.060202 
L 133.77046 204.052617 
L 134.445118 217.946432 
L 135.119775 229.304074 
L 135.794432 228.752732 
L 136.469089 228.973268 
L 137.143747 220.813409 
L 137.818404 223.349582 
L 138.493061 231.619709 
L 139.167718 238.125543 
L 139.842375 229.083537 
L 140.517033 231.288904 
L 141.19169 228.311658 
L 141.866347 212.65355 
L 142.541004 226.878169 
L 143.215662 222.026361 
L 143.890319 216.182138 
L 144.564976 218.387505 
L 145.239633 212.212477 
L 145.91429 211.109793 
L 146.588948 206.699058 
L 147.263605 208.353084 
L 147.938262 219.931262 
L 149.287577 254.665798 
L 149.962234 251.909089 
L 150.636891 229.083537 
L 151.311548 227.650048 
L 151.986205 224.341997 
L 152.660863 236.140712 
L 153.33552 255.547945 
L 154.010177 257.863581 
L 154.684834 255.437677 
L 155.359492 252.570699 
L 156.034149 259.29707 
L 156.708806 261.94351 
L 157.383463 256.981434 
L 158.05812 263.046194 
L 158.732778 259.95868 
L 159.407435 259.738143 
L 160.082092 246.175134 
L 160.756749 245.513524 
L 161.431407 246.064865 
L 162.106064 248.49077 
L 162.780721 279.476181 
L 163.455378 231.619709 
L 164.130035 264.038609 
L 164.804693 276.719472 
L 166.154007 176.044452 
L 166.828664 199.311077 
L 167.503322 206.368253 
L 168.177979 205.045033 
L 168.852636 219.490189 
L 169.527293 219.710726 
L 170.20195 209.455767 
L 170.876608 208.463352 
L 171.551265 210.889256 
L 172.225922 198.428931 
L 172.900579 198.428931 
L 173.575237 196.4441 
L 174.249894 205.92718 
L 174.924551 188.835583 
L 175.599208 188.945851 
L 176.273865 187.843167 
L 176.948523 184.535116 
L 177.62318 196.554368 
L 178.297837 194.238733 
L 178.972494 202.398592 
L 179.647152 199.531614 
L 180.996466 217.505358 
L 181.671123 220.372336 
L 182.34578 221.033946 
L 183.020438 213.425429 
L 183.695095 224.672802 
L 184.369752 221.475019 
L 185.044409 225.444681 
L 185.719066 231.509441 
L 186.393724 240.882252 
L 187.743038 250.806405 
L 188.417695 213.756234 
L 189.092353 216.071869 
L 189.76701 216.182138 
L 190.441667 218.0567 
L 191.116324 239.559032 
L 191.790981 246.064865 
L 192.465639 237.463933 
L 193.140296 239.338495 
L 193.814953 214.858917 
L 194.48961 217.064285 
L 195.164268 240.220642 
L 195.838925 241.984936 
L 197.188239 222.687971 
L 197.862896 226.988438 
L 198.537554 225.554949 
L 199.212211 220.041531 
L 199.886868 231.178636 
L 200.561525 233.60454 
L 201.236183 234.817492 
L 201.91084 240.992521 
L 202.585497 251.247479 
L 203.260154 249.483185 
L 203.934811 237.574201 
L 204.609469 233.053198 
L 205.284126 250.365332 
L 205.958783 259.186801 
L 206.63344 230.737562 
L 207.308098 231.509441 
L 207.982755 236.361249 
L 208.657412 235.809907 
L 209.332069 227.53978 
L 210.681384 251.798821 
L 211.356041 234.92776 
L 212.030698 251.578284 
L 212.705355 264.479683 
L 213.380013 252.019357 
L 214.05467 250.585868 
L 214.729327 236.471517 
L 215.403984 238.787153 
L 216.078641 237.463933 
L 216.753299 227.760316 
L 217.427956 241.874667 
L 218.102613 242.095204 
L 218.77727 227.208975 
L 219.451928 228.752732 
L 220.126585 234.92776 
L 220.801242 230.627294 
L 221.475899 223.239313 
L 222.150556 208.242815 
L 222.825214 211.220061 
L 223.499871 212.984355 
L 224.174528 218.71831 
L 224.849185 222.357166 
L 225.523843 219.710726 
L 226.1985 226.767901 
L 226.873157 222.908508 
L 227.547814 235.038029 
L 228.222471 242.867083 
L 228.897129 235.258565 
L 229.571786 229.304074 
L 230.246443 234.26615 
L 230.9211 232.391588 
L 231.595758 218.608042 
L 232.270415 224.452265 
L 232.945072 228.091121 
L 233.619729 223.680387 
L 234.294386 226.988438 
L 234.969044 375.740466 
L 237.667673 375.740466 
L 238.34233 132.488447 
L 239.691644 111.97853 
L 240.366301 104.039208 
L 241.040959 97.643642 
L 241.715616 99.297668 
L 242.390273 97.312837 
L 243.06493 97.312837 
L 243.739588 60.924276 
L 244.414245 56.513541 
L 245.088902 56.844346 
L 245.763559 70.738161 
L 246.438216 64.232327 
L 247.112874 66.547963 
L 247.787531 62.02696 
L 248.462188 61.916691 
L 249.136845 62.247496 
L 249.811503 68.422525 
L 250.48616 68.75333 
L 251.160817 66.658231 
L 251.835474 62.909107 
L 252.510131 66.437694 
L 253.184789 64.342595 
L 253.859446 63.791254 
L 255.20876 65.224742 
L 255.883418 63.129643 
L 256.558075 60.483202 
L 257.232732 62.247496 
L 257.907389 66.768499 
L 258.582046 66.327426 
L 259.256704 67.871183 
L 259.931361 67.981451 
L 260.606018 68.312257 
L 261.280675 74.046212 
L 261.955332 77.133726 
L 262.62999 63.680985 
L 263.304647 79.669898 
L 263.979304 78.346678 
L 264.653961 64.232327 
L 266.677933 110.986115 
L 267.35259 135.355424 
L 268.027247 133.701399 
L 268.701905 120.8 
L 270.051219 75.700237 
L 270.725876 73.274333 
L 271.400534 72.502455 
L 272.075191 79.55963 
L 272.749848 96.099885 
L 273.424505 98.856594 
L 274.099162 85.403854 
L 274.77382 85.844927 
L 275.448477 81.764997 
L 276.123134 93.343176 
L 276.797791 88.050294 
L 277.472449 89.70432 
L 278.147106 83.308755 
L 278.821763 88.822173 
L 279.49642 87.940026 
L 280.171077 81.213656 
L 280.845735 71.179234 
L 281.520392 75.369432 
L 282.195049 73.605138 
L 282.869706 74.266748 
L 283.544364 71.840844 
L 284.219021 56.293005 
L 284.893678 56.62381 
L 285.568335 58.60864 
L 286.242992 58.939445 
L 286.91765 62.247496 
L 287.592307 60.703739 
L 288.266964 62.578301 
L 288.941621 59.27025 
L 289.616279 58.718909 
L 290.290936 59.27025 
L 290.965593 57.395688 
L 291.64025 59.711324 
L 292.314907 58.939445 
L 292.989565 62.247496 
L 293.664222 70.738161 
L 294.338879 71.620308 
L 295.013536 75.038627 
L 295.688194 62.137228 
L 296.362851 72.943528 
L 297.037508 65.886352 
L 298.386822 90.586467 
L 299.06148 96.099885 
L 299.736137 98.415521 
L 300.410794 99.959278 
L 301.085451 100.731157 
L 301.760109 95.879349 
L 302.434766 100.179815 
L 303.109423 96.761495 
L 303.78408 100.951693 
L 304.458737 97.092301 
L 305.133395 71.620308 
L 305.808052 64.783669 
L 306.482709 61.365349 
L 307.157366 58.60864 
L 307.832024 62.68857 
L 308.506681 59.049714 
L 309.181338 58.057298 
L 309.855995 58.057298 
L 310.530652 54.969784 
L 311.20531 57.28542 
L 311.879967 59.159982 
L 312.554624 58.167567 
L 313.229281 55.741663 
L 313.903939 58.057298 
L 314.578596 55.080052 
L 315.253253 75.259164 
L 315.92791 101.503035 
L 316.602567 90.696735 
L 317.277225 91.468614 
L 318.626539 121.020536 
L 319.301196 160.717149 
L 319.975854 159.504197 
L 320.650511 131.496031 
L 321.325168 131.716568 
L 321.999825 120.248658 
L 322.674482 114.404434 
L 323.34914 122.78483 
L 324.023797 115.837923 
L 324.698454 123.887514 
L 326.047769 145.720651 
L 326.722426 131.937105 
L 328.07174 126.754492 
L 328.746397 139.435354 
L 329.421055 112.199067 
L 330.095712 115.176313 
L 330.770369 128.408517 
L 331.445026 114.294166 
L 332.119684 117.38168 
L 332.794341 127.746907 
L 333.468998 127.857175 
L 334.143655 123.44644 
L 334.818312 121.351341 
L 335.49297 126.313418 
L 336.842284 123.556709 
L 337.516941 119.697316 
L 338.191598 119.256242 
L 338.866256 124.218319 
L 339.540913 123.666977 
L 340.21557 127.967444 
L 340.890227 116.72007 
L 341.564885 123.777246 
L 342.239542 82.536876 
L 342.914199 67.319841 
L 343.588856 61.696155 
L 344.263513 64.783669 
L 344.938171 68.643062 
L 345.612828 69.856014 
L 346.287485 80.22124 
L 346.962142 116.278997 
L 347.6368 120.689731 
L 348.986114 97.974448 
L 349.660771 84.190902 
L 350.335428 78.23641 
L 351.010086 66.327426 
L 351.684743 72.392186 
L 352.3594 70.627892 
L 353.034057 73.384602 
L 353.708715 74.377017 
L 354.383372 81.213656 
L 355.058029 103.046792 
L 355.732686 129.731737 
L 356.407343 124.108051 
L 357.082001 120.910268 
L 357.756658 123.44644 
L 358.431315 123.556709 
L 359.105972 131.937105 
L 359.78063 122.564294 
L 360.455287 116.72007 
L 361.129944 114.514703 
L 361.804601 120.910268 
L 362.479258 117.050875 
L 363.153916 132.488447 
L 363.828573 106.906185 
L 364.50323 125.872345 
L 365.177887 124.438856 
L 365.852545 123.336172 
L 366.527202 122.895099 
L 367.201859 107.567796 
L 367.876516 128.298249 
L 368.551173 115.39685 
L 369.225831 70.848429 
L 369.900488 83.749828 
L 370.575145 78.346678 
L 371.249802 77.133726 
L 371.92446 75.369432 
L 372.599117 81.213656 
L 373.273774 90.145393 
L 373.948431 107.788332 
L 374.623088 108.229406 
L 375.297746 88.711905 
L 375.972403 90.917272 
L 376.64706 94.115055 
L 377.321717 101.17223 
L 377.996375 107.016454 
L 379.345689 112.419604 
L 380.020346 113.412019 
L 380.695003 119.476779 
L 381.369661 107.457527 
L 382.718975 152.005948 
L 383.393632 140.979111 
L 384.06829 117.822754 
L 384.742947 121.46161 
L 385.417604 130.283079 
L 386.092261 125.982613 
L 386.766918 117.271412 
L 387.441576 112.970946 
L 388.116233 88.932441 
L 388.79089 75.369432 
L 389.465547 79.118557 
L 390.814862 100.731157 
L 391.489519 119.256242 
L 392.164176 123.44644 
L 392.838833 104.700818 
L 394.188148 94.776665 
L 394.862805 91.02754 
L 395.537462 92.019956 
L 396.21212 99.518205 
L 396.886777 102.054377 
L 397.561434 113.412019 
L 398.236091 112.529872 
L 398.910748 118.374096 
L 399.585406 111.427188 
L 400.260063 113.853092 
L 400.93472 113.522287 
L 401.609377 127.305833 
L 402.284035 126.533955 
L 402.958692 108.670479 
L 403.633349 120.579463 
L 404.308006 112.860677 
L 404.982663 110.214236 
L 405.657321 116.72007 
L 406.331978 115.286581 
L 407.006635 107.788332 
L 407.681292 108.560211 
L 408.355949 117.491949 
L 409.030607 109.883431 
L 409.705264 109.001284 
L 410.379921 83.529291 
L 411.054578 90.36593 
L 411.729236 91.799419 
L 412.403893 117.271412 
L 413.07855 153.549705 
L 414.427864 121.902683 
L 415.102522 133.921935 
L 415.777179 124.879929 
L 416.451836 119.917853 
L 417.126493 120.138389 
L 417.801151 117.271412 
L 418.475808 118.263827 
L 419.150465 114.624971 
L 419.825122 112.309335 
L 420.499779 124.438856 
L 421.174437 117.933022 
L 421.849094 99.407936 
L 422.523751 104.370013 
L 423.198408 121.571878 
L 423.873066 115.286581 
L 424.547723 112.750409 
L 425.22238 120.579463 
L 425.897037 117.822754 
L 426.571694 121.241073 
L 427.246352 118.925437 
L 427.921009 120.910268 
L 428.595666 113.963361 
L 429.270323 119.917853 
L 429.944981 109.9937 
L 430.619638 112.64014 
L 431.294295 107.126722 
L 431.968952 120.689731 
L 432.643609 115.948191 
L 433.318267 114.514703 
L 433.992924 112.088799 
L 434.667581 112.199067 
L 435.342238 113.522287 
L 436.016896 109.111553 
L 436.691553 108.339674 
L 437.36621 112.750409 
L 438.040867 110.65531 
L 438.715524 112.529872 
L 439.390182 107.788332 
L 440.064839 115.176313 
L 440.739496 115.066045 
L 441.414153 110.65531 
L 442.088811 109.552626 
L 442.763468 119.256242 
L 443.438125 122.564294 
L 444.787439 112.860677 
L 445.462097 111.096383 
L 446.136754 114.294166 
L 446.811411 108.780748 
L 447.486068 97.312837 
L 448.160726 111.31692 
L 448.835383 107.898601 
L 449.51004 113.301751 
L 450.184697 111.537457 
L 450.859354 116.05846 
L 451.534012 108.449942 
L 452.208669 104.811086 
L 452.883326 113.522287 
L 453.557983 111.427188 
L 454.232641 107.016454 
L 454.907298 111.647725 
L 455.581955 99.407936 
L 456.256612 101.061962 
L 456.931269 110.875847 
L 457.605927 114.955776 
L 458.280584 116.05846 
L 459.629898 113.191482 
L 460.304556 114.514703 
L 460.979213 110.214236 
L 461.65387 105.141891 
L 462.328527 102.605719 
L 463.003184 104.700818 
L 463.677842 105.25216 
L 464.352499 108.780748 
L 465.027156 116.499533 
L 465.701813 111.206652 
L 466.376471 87.719489 
L 467.051128 110.324505 
L 467.725785 153.108631 
L 468.400442 150.241654 
L 469.075099 137.450523 
L 469.749757 131.937105 
L 470.424414 116.940607 
L 471.099071 126.092881 
L 471.773728 118.263827 
L 472.448386 126.423686 
L 473.123043 106.57538 
L 474.472357 125.872345 
L 475.147014 117.161144 
L 475.821672 117.161144 
L 476.496329 111.757993 
L 477.170986 100.290083 
L 477.845643 92.240492 
L 478.520301 100.951693 
L 479.194958 102.385182 
L 479.869615 102.385182 
L 480.544272 99.407936 
L 481.218929 97.753911 
L 481.893587 103.928939 
L 482.568244 111.537457 
L 483.242901 102.605719 
L 483.917558 107.567796 
L 484.592215 103.928939 
L 485.266873 97.202569 
L 485.94153 109.883431 
L 486.616187 111.868262 
L 487.290844 104.59055 
L 487.965502 98.966863 
L 488.640159 96.982032 
L 489.314816 98.305253 
L 489.989473 91.137809 
L 490.66413 91.358345 
L 491.338788 103.818671 
L 492.013445 134.583546 
L 492.688102 141.861258 
L 493.362759 122.78483 
L 494.037417 121.571878 
L 494.712074 111.647725 
L 495.386731 115.617386 
L 496.061388 95.989617 
L 496.736045 99.628473 
L 497.410703 125.872345 
L 498.08536 123.115635 
L 498.760017 108.891016 
L 499.434674 104.811086 
L 500.109332 117.161144 
L 500.783989 109.111553 
L 501.458646 111.647725 
L 502.133303 105.582965 
L 502.80796 107.347259 
L 503.482618 100.51062 
L 504.157275 101.282499 
L 504.831932 97.092301 
L 505.506589 104.480281 
L 506.181247 101.723572 
L 506.855904 97.643642 
L 507.530561 95.658812 
L 508.205218 108.119137 
L 508.879875 95.217738 
L 509.554533 87.940026 
L 510.22919 91.137809 
L 510.903847 90.36593 
L 511.578504 105.582965 
L 512.253162 97.092301 
L 512.927819 103.598134 
L 513.602476 103.377598 
L 514.277133 97.312837 
L 514.95179 99.077131 
L 515.626448 97.533374 
L 516.301105 99.518205 
L 516.975762 102.936524 
L 517.650419 93.343176 
L 518.325077 90.807004 
L 518.999734 101.503035 
L 519.674391 100.841425 
L 521.023705 94.225323 
L 521.698363 93.453444 
L 522.37302 100.51062 
L 523.047677 96.761495 
L 523.722334 96.320422 
L 524.396992 101.17223 
L 525.071649 104.480281 
L 525.746306 93.012371 
L 526.420963 109.221821 
L 527.09562 98.746326 
L 527.770278 94.556128 
L 528.444935 91.137809 
L 529.119592 91.358345 
L 529.794249 86.727074 
L 530.468907 85.293585 
L 531.143564 89.814588 
L 531.818221 92.350761 
L 532.492878 88.491368 
L 533.167535 90.36593 
L 533.842193 83.529291 
L 534.51685 86.947611 
L 535.191507 88.491368 
L 535.866164 95.10747 
L 536.540822 84.631975 
L 537.215479 83.419023 
L 537.890136 84.96278 
L 538.564793 83.308755 
L 539.23945 84.190902 
L 539.914108 88.160563 
L 540.588765 86.837342 
L 541.263422 88.270831 
L 541.938079 86.837342 
L 542.612737 87.168147 
L 543.287394 88.822173 
L 544.636708 86.396269 
L 545.311365 88.822173 
L 545.986023 87.719489 
L 546.66068 84.742243 
L 547.335337 93.673981 
L 548.009994 90.696735 
L 548.684652 82.647144 
L 549.359309 79.669898 
L 550.033966 87.388684 
L 550.708623 99.959278 
L 551.38328 88.270831 
L 552.057938 96.320422 
L 552.732595 105.91377 
L 553.407252 106.354843 
L 554.081909 115.727655 
L 554.756566 107.678064 
L 555.431224 102.054377 
L 556.105881 83.970365 
L 556.780538 76.141311 
L 557.455195 72.392186 
L 558.80451 72.281918 
L 559.479167 72.722991 
L 560.153824 75.259164 
L 561.503139 86.396269 
L 562.177796 79.228825 
L 562.852453 70.517624 
L 563.52711 75.148895 
L 564.201768 76.251579 
L 564.876425 90.476199 
L 565.551082 75.259164 
L 566.225739 73.384602 
L 566.900396 75.810506 
L 567.575054 76.582384 
L 568.249711 77.685068 
L 568.924368 77.133726 
L 569.599025 75.369432 
L 570.273683 80.441777 
L 571.622997 83.088218 
L 572.297654 83.749828 
L 572.972311 111.537457 
L 573.646969 117.712485 
L 574.321626 116.609802 
L 574.996283 111.647725 
L 575.67094 120.028121 
L 576.345598 112.088799 
L 577.020255 111.647725 
L 577.694912 113.301751 
L 578.369569 109.883431 
L 579.044226 111.647725 
L 579.718884 105.141891 
L 580.393541 115.617386 
L 581.068198 109.111553 
L 581.742855 105.472697 
L 582.417513 105.25216 
L 583.09217 104.370013 
L 583.766827 100.51062 
L 584.441484 104.149476 
L 585.116141 83.860096 
L 585.790799 110.214236 
L 586.465456 129.952274 
L 587.140113 112.199067 
L 588.489428 108.891016 
L 589.164085 110.986115 
L 589.838742 111.427188 
L 590.513399 104.811086 
L 591.188056 112.529872 
L 591.862714 109.221821 
L 592.537371 97.423106 
L 593.212028 97.753911 
L 593.886685 104.149476 
L 594.561343 91.578882 
L 595.236 90.145393 
L 595.910657 92.681566 
L 596.585314 95.658812 
L 597.259971 102.164645 
L 597.934629 117.712485 
L 599.283943 92.350761 
L 599.9586 88.932441 
L 600.633258 87.609221 
L 601.307915 87.388684 
L 601.982572 89.152978 
L 602.657229 98.636058 
L 603.331886 134.473277 
L 604.006544 145.830919 
L 604.681201 148.918433 
L 605.355858 138.99428 
L 606.705173 124.990198 
L 607.37983 120.358926 
L 608.054487 112.750409 
L 609.403801 102.936524 
L 610.078459 102.164645 
L 610.753116 99.84901 
L 611.427773 107.788332 
L 612.10243 104.039208 
L 612.777088 105.582965 
L 613.451745 100.731157 
L 614.126402 101.17223 
L 614.801059 95.989617 
L 615.475716 99.1874 
L 616.150374 100.841425 
L 616.825031 97.092301 
L 617.499688 108.560211 
L 618.849003 109.111553 
L 620.198317 130.062543 
L 620.872974 118.594632 
L 621.547631 116.499533 
L 622.222289 113.963361 
L 622.896946 375.740466 
L 624.920918 375.740466 
L 625.595575 74.487285 
L 626.270232 84.30117 
L 627.619546 115.948191 
L 628.294204 136.347839 
L 628.968861 136.678645 
L 629.643518 128.298249 
L 630.318175 116.499533 
L 630.992832 116.830338 
L 631.66749 104.259744 
L 632.342147 105.031623 
L 633.016804 104.700818 
L 633.691461 105.91377 
L 634.366119 104.480281 
L 635.715433 92.019956 
L 636.39009 96.43069 
L 637.064747 94.886933 
L 637.739405 97.864179 
L 638.414062 105.693233 
L 639.088719 202.178055 
L 639.763376 99.84901 
L 640.438034 110.214236 
L 641.112691 105.582965 
L 641.787348 100.069547 
L 642.462005 130.834421 
L 643.136662 137.781328 
L 643.81132 121.902683 
L 644.485977 121.46161 
L 645.160634 121.792415 
L 645.835291 120.358926 
L 646.509949 115.617386 
L 647.184606 118.815169 
L 647.859263 125.651808 
L 648.53392 155.20373 
L 649.208577 101.944109 
L 649.883235 119.476779 
L 650.557892 126.533955 
L 651.232549 128.18798 
L 651.907206 116.72007 
L 652.581864 123.887514 
L 653.256521 121.571878 
L 653.931178 124.218319 
L 654.605835 120.469195 
L 655.280492 121.020536 
L 655.95515 119.035706 
L 656.629807 125.210734 
L 657.304464 113.191482 
L 657.979121 119.917853 
L 658.653779 129.290664 
L 659.328436 121.241073 
L 660.003093 125.210734 
L 660.67775 136.458108 
L 661.352407 128.84959 
L 662.027065 125.321003 
L 662.701722 126.975028 
L 663.376379 122.895099 
L 664.051036 122.895099 
L 664.725694 134.142472 
L 664.725694 134.142472 
" clip-path="url(#pdb42085747)" style="fill: none; stroke: #ff0000; stroke-width: 1.5; stroke-linecap: square"/>
   </g>
   <g id="line2d_28">
    <path d="M 665.400351 138.663475 
L 666.075008 141.309916 
L 666.749665 126.86476 
L 667.424322 124.549124 
L 668.09898 125.541539 
L 668.773637 122.12322 
L 669.448294 113.853092 
L 670.122951 134.473277 
L 670.797609 144.507699 
L 671.472266 152.447021 
L 672.146923 137.00945 
L 672.82158 134.583546 
L 673.496237 134.032204 
L 674.170895 131.165226 
L 674.845552 138.222402 
L 675.520209 139.104549 
L 676.194866 134.583546 
L 676.869524 136.347839 
L 677.544181 127.305833 
L 678.218838 123.336172 
L 678.893495 110.765578 
L 679.568152 120.910268 
L 680.24281 127.195565 
L 680.917467 131.385763 
L 681.592124 136.899181 
L 682.266781 145.610382 
L 682.941439 157.519366 
L 683.616096 139.876427 
L 684.290753 132.598715 
L 684.96541 126.533955 
L 685.640067 115.286581 
L 686.314725 134.032204 
L 686.989382 114.845508 
L 687.664039 126.533955 
L 689.013354 143.846089 
L 689.688011 124.879929 
L 690.362668 119.366511 
L 691.037325 116.830338 
L 691.711982 128.739322 
L 692.38664 126.754492 
L 693.061297 119.256242 
L 693.735954 122.012952 
L 694.410611 118.153559 
L 695.085269 123.556709 
L 695.759926 121.902683 
L 696.434583 126.20315 
L 697.10924 119.366511 
L 697.783897 118.263827 
L 698.458555 119.145974 
L 699.133212 125.762076 
L 699.807869 122.012952 
L 700.482526 119.807584 
L 701.157184 122.12322 
L 701.831841 119.587048 
L 702.506498 120.579463 
L 703.181155 118.374096 
L 703.855812 134.804082 
L 704.53047 129.952274 
L 705.205127 123.336172 
L 705.879784 119.035706 
L 706.554441 119.917853 
L 707.229098 129.070127 
L 707.903756 125.982613 
L 708.578413 129.400932 
L 709.25307 117.933022 
L 709.927727 130.283079 
L 710.602385 139.325085 
L 711.277042 134.804082 
L 711.951699 140.868843 
L 712.626356 133.701399 
L 713.301013 140.758574 
L 713.975671 139.876427 
L 714.650328 126.644223 
L 715.324985 131.6063 
L 715.999642 126.092881 
L 716.6743 131.496031 
L 717.348957 130.944689 
L 718.023614 119.145974 
L 718.698271 123.556709 
L 719.372928 124.990198 
L 720.047586 116.830338 
L 720.722243 114.514703 
L 721.3969 133.701399 
L 722.071557 124.108051 
L 722.746215 126.533955 
L 723.420872 124.549124 
L 724.095529 124.879929 
L 724.770186 128.298249 
L 725.444843 128.739322 
L 726.119501 134.363009 
L 726.794158 135.134887 
L 727.468815 123.556709 
L 728.143472 120.579463 
L 728.81813 121.241073 
L 729.492787 126.20315 
L 730.167444 119.697316 
L 730.842101 126.533955 
L 731.516758 137.229986 
L 732.191416 133.59113 
L 732.866073 124.549124 
L 733.54073 137.891597 
L 734.890045 132.047373 
L 735.564702 137.00945 
L 736.239359 129.952274 
L 736.914016 124.218319 
L 737.588673 123.336172 
L 738.263331 123.556709 
L 738.937988 114.955776 
L 739.612645 121.792415 
L 740.287302 127.416102 
L 740.96196 129.731737 
L 741.636617 133.260325 
L 742.311274 142.633136 
L 743.660588 125.872345 
L 744.335246 123.44644 
L 745.68456 120.358926 
L 746.359217 115.727655 
L 747.033875 114.404434 
L 747.708532 118.925437 
L 748.383189 124.438856 
L 749.057846 124.218319 
L 749.732503 118.263827 
L 750.407161 117.491949 
L 752.431132 119.807584 
L 753.10579 124.218319 
L 753.780447 121.46161 
L 754.455104 121.46161 
L 755.129761 117.050875 
L 755.804418 121.46161 
L 756.479076 120.910268 
L 757.153733 123.225904 
L 758.503047 113.081214 
L 759.177705 110.765578 
L 759.852362 110.103968 
L 760.527019 110.545041 
L 761.201676 111.757993 
L 761.876333 110.765578 
L 762.550991 113.853092 
L 763.225648 110.103968 
L 763.900305 111.31692 
L 764.574962 109.9937 
L 765.24962 109.221821 
L 765.924277 115.727655 
L 766.598934 115.286581 
L 767.273591 118.704901 
L 767.948248 120.689731 
L 768.622906 118.594632 
L 769.297563 113.191482 
L 769.97222 119.145974 
L 770.646877 128.408517 
L 771.321535 135.465693 
L 771.996192 144.507699 
L 772.670849 134.142472 
L 773.345506 131.275495 
L 774.020163 127.857175 
L 774.694821 123.225904 
L 775.369478 120.8 
L 776.044135 154.101047 
L 776.718792 135.796498 
L 777.393449 102.164645 
L 778.068107 104.811086 
L 778.742764 110.103968 
L 779.417421 111.206652 
L 780.092078 121.020536 
L 780.766736 118.153559 
L 781.441393 121.130805 
L 782.11605 133.039788 
L 782.790707 128.84959 
L 783.465364 111.206652 
L 784.140022 116.389265 
L 784.814679 113.081214 
L 785.489336 106.685649 
L 786.163993 109.332089 
L 786.838651 110.65531 
L 787.513308 111.206652 
L 788.187965 106.244575 
L 788.862622 110.986115 
L 789.537279 132.157642 
L 790.211937 127.967444 
L 790.886594 121.571878 
L 791.561251 117.161144 
L 792.235908 111.97853 
L 792.910566 114.183898 
L 812.475625 114.183898 
L 812.475625 114.183898 
" clip-path="url(#pdb42085747)" style="fill: none; stroke: #0000ff; stroke-width: 1.5; stroke-linecap: square"/>
   </g>
   <g id="line2d_29">
    <path d="M 665.400351 136.065505 
L 666.075008 142.020228 
L 666.749665 139.535514 
L 667.424322 127.920769 
L 668.09898 124.37808 
L 668.773637 124.340864 
L 669.448294 118.855577 
L 670.122951 117.146109 
L 670.797609 137.062966 
L 671.472266 146.294244 
L 672.146923 152.583127 
L 672.82158 140.287209 
L 673.496237 134.783985 
L 674.170895 132.751976 
L 674.845552 129.823817 
L 675.520209 139.996539 
L 676.194866 140.823803 
L 676.869524 135.119442 
L 677.544181 134.958069 
L 678.218838 126.603975 
L 678.893495 120.613986 
L 679.568152 110.368869 
L 680.24281 120.554035 
L 681.592124 131.96968 
L 683.616096 157.357381 
L 684.290753 139.524952 
L 685.640067 123.72398 
L 686.314725 114.416504 
L 686.989382 129.352522 
L 687.664039 116.341571 
L 689.013354 138.880987 
L 689.688011 139.005052 
L 690.362668 126.006845 
L 691.037325 119.723262 
L 691.711982 117.676407 
L 692.38664 124.878242 
L 693.061297 125.551987 
L 693.735954 120.088557 
L 694.410611 122.019067 
L 695.085269 118.255437 
L 695.759926 122.292726 
L 696.434583 122.82092 
L 697.10924 124.785219 
L 697.783897 119.709885 
L 698.458555 118.000068 
L 699.133212 119.433437 
L 699.807869 124.328977 
L 700.482526 121.605471 
L 701.157184 120.058697 
L 701.831841 121.888343 
L 702.506498 119.150729 
L 703.855812 120.326217 
L 704.53047 133.710661 
L 705.205127 129.900189 
L 705.879784 122.92076 
L 706.554441 120.242972 
L 707.229098 119.733096 
L 707.903756 127.172287 
L 708.578413 126.661647 
L 709.25307 127.843861 
L 709.927727 120.168263 
L 710.602385 130.189612 
L 711.277042 137.680826 
L 711.951699 136.918225 
L 712.626356 142.898966 
L 713.301013 138.453954 
L 713.975671 139.359968 
L 714.650328 138.14509 
L 715.324985 126.600412 
L 715.999642 130.62008 
L 716.6743 125.834687 
L 717.348957 129.876399 
L 718.023614 129.453394 
L 718.698271 119.432084 
L 719.372928 123.607257 
L 720.047586 121.499681 
L 720.722243 114.768388 
L 721.3969 117.863161 
L 722.071557 131.131303 
L 722.746215 123.868101 
L 723.420872 127.398404 
L 724.770186 124.261947 
L 725.444843 128.871379 
L 726.119501 129.368622 
L 726.794158 134.004775 
L 727.468815 133.95908 
L 728.143472 123.427841 
L 728.81813 120.596345 
L 729.492787 120.856392 
L 730.167444 122.342242 
L 730.842101 120.321797 
L 731.516758 127.46928 
L 732.191416 136.235984 
L 732.866073 131.767242 
L 733.54073 128.833494 
L 734.215387 136.985701 
L 734.890045 134.092319 
L 735.564702 132.446839 
L 736.239359 136.558827 
L 736.914016 128.433169 
L 737.588673 123.743863 
L 738.263331 122.947706 
L 738.937988 120.357958 
L 739.612645 115.933048 
L 740.96196 127.551725 
L 741.636617 130.240657 
L 742.985931 143.666722 
L 744.335246 125.851322 
L 745.009903 123.003082 
L 745.68456 119.075078 
L 746.359217 117.807828 
L 747.033875 113.716192 
L 747.708532 114.967471 
L 749.057846 123.740249 
L 749.732503 123.551058 
L 750.407161 118.663538 
L 751.081818 117.63993 
L 751.756475 117.658249 
L 752.431132 118.302253 
L 753.10579 120.652014 
L 753.780447 124.217956 
L 754.455104 121.978955 
L 755.129761 120.606949 
L 755.804418 117.466344 
L 756.479076 120.700729 
L 757.153733 120.535719 
L 757.82839 122.11503 
L 759.177705 113.050556 
L 759.852362 110.920667 
L 760.527019 107.846878 
L 761.201676 110.451129 
L 761.876333 111.429003 
L 762.550991 111.033744 
L 763.225648 113.123739 
L 763.900305 110.331306 
L 764.574962 110.889237 
L 765.24962 109.727626 
L 765.924277 109.530564 
L 766.598934 115.92259 
L 767.273591 116.349309 
L 767.948248 119.146015 
L 768.622906 120.816536 
L 769.97222 114.779594 
L 770.646877 119.612945 
L 771.321535 130.641196 
L 772.670849 146.581638 
L 773.345506 138.453103 
L 774.020163 133.646758 
L 775.369478 121.60779 
L 776.044135 128.237016 
L 776.718792 150.87276 
L 778.068107 98.532859 
L 778.742764 100.480263 
L 779.417421 104.855012 
L 780.092078 107.075281 
L 780.766736 121.411525 
L 781.441393 119.258643 
L 782.11605 124.617551 
L 782.790707 134.37296 
L 783.465364 125.848563 
L 784.140022 112.578664 
L 784.814679 116.038928 
L 786.163993 105.060707 
L 786.838651 109.512875 
L 787.513308 110.457642 
L 788.187965 110.688553 
L 788.862622 106.904235 
L 789.537279 115.756475 
L 790.211937 132.899841 
L 790.886594 126.943042 
L 791.561251 121.984305 
L 792.235908 118.287844 
L 792.910566 111.586631 
L 793.585223 113.414989 
L 794.25988 113.36392 
L 794.934537 113.501267 
L 795.609194 114.088907 
L 796.283852 113.856009 
L 797.633166 113.784695 
L 798.307823 113.945821 
L 805.729053 113.723789 
L 812.475625 113.637134 
L 812.475625 113.637134 
" clip-path="url(#pdb42085747)" style="fill: none; stroke-dasharray: 5.55,2.4; stroke-dashoffset: 0; stroke: #ffff00; stroke-width: 1.5"/>
   </g>
   <g id="patch_3">
    <path d="M 37.496875 391.779 
L 37.496875 38.93125 
" style="fill: none; stroke: #bcbcbc; stroke-width: 0.8; stroke-linejoin: miter; stroke-linecap: square"/>
   </g>
   <g id="patch_4">
    <path d="M 849.379375 391.779 
L 849.379375 38.93125 
" style="fill: none; stroke: #bcbcbc; stroke-width: 0.8; stroke-linejoin: miter; stroke-linecap: square"/>
   </g>
   <g id="patch_5">
    <path d="M 37.496875 391.779 
L 849.379375 391.779 
" style="fill: none; stroke: #bcbcbc; stroke-width: 0.8; stroke-linejoin: miter; stroke-linecap: square"/>
   </g>
   <g id="patch_6">
    <path d="M 37.496875 38.93125 
L 849.379375 38.93125 
" style="fill: none; stroke: #bcbcbc; stroke-width: 0.8; stroke-linejoin: miter; stroke-linecap: square"/>
   </g>
   <g id="text_16">
    <!-- pH 时间序列：三年预测结果 -->
    <g transform="translate(368.438125 17.1375) scale(0.12 -0.12)">
     <defs>
      <path id="SimHei-5217" d="M 2950 4800 
Q 3525 4800 3825 4825 
L 3825 4400 
Q 3525 4425 2800 4425 
L 2125 4425 
Q 2075 4125 1925 3500 
L 3425 3500 
Q 3300 2500 3100 1862 
Q 2900 1225 2575 762 
Q 2250 300 1850 -12 
Q 1450 -325 925 -675 
Q 725 -375 475 -150 
Q 1125 125 1550 437 
Q 1975 750 2250 1225 
Q 2100 1350 1862 1550 
Q 1625 1750 1400 1925 
L 1750 2325 
Q 1925 2200 2100 2037 
Q 2275 1875 2500 1650 
Q 2650 2025 2737 2337 
Q 2825 2650 2875 3100 
L 1775 3100 
Q 1600 2650 1350 2237 
Q 1100 1825 775 1525 
Q 600 1675 325 1850 
Q 600 2125 825 2462 
Q 1050 2800 1200 3125 
Q 1350 3450 1425 3775 
Q 1500 4100 1550 4425 
L 1100 4425 
Q 575 4425 375 4400 
L 375 4825 
Q 575 4800 1125 4800 
L 2950 4800 
z
M 5975 5050 
Q 5925 4675 5925 4250 
L 5925 50 
Q 5925 -275 5737 -400 
Q 5550 -525 4900 -625 
Q 4825 -250 4650 25 
Q 5150 0 5287 25 
Q 5425 50 5425 325 
L 5425 4250 
Q 5425 4650 5400 5050 
L 5975 5050 
z
M 4725 4300 
Q 4675 4000 4675 3450 
L 4675 1650 
Q 4675 1200 4700 850 
L 4100 850 
Q 4150 1200 4150 1650 
L 4150 3550 
Q 4150 3975 4100 4300 
L 4725 4300 
z
" transform="scale(0.015625)"/>
      <path id="SimHei-ff1a" d="M 1200 2425 
L 2025 2425 
L 2025 1600 
L 1200 1600 
L 1200 2425 
z
M 1200 825 
L 2025 825 
L 2025 0 
L 1200 0 
L 1200 825 
z
" transform="scale(0.015625)"/>
      <path id="SimHei-4e09" d="M 6000 -200 
Q 5550 -175 5200 -175 
L 1300 -175 
Q 900 -175 375 -200 
L 375 350 
Q 850 325 1300 325 
L 5200 325 
Q 5575 325 6000 375 
L 6000 -200 
z
M 900 4600 
Q 1400 4575 1825 4575 
L 4600 4575 
Q 5075 4575 5475 4600 
L 5475 4075 
Q 5100 4100 4600 4100 
L 1800 4100 
Q 1375 4100 900 4075 
L 900 4600 
z
M 2075 2100 
Q 1700 2100 1275 2075 
L 1275 2625 
Q 1675 2600 2075 2600 
L 4225 2600 
Q 4600 2600 5050 2625 
L 5050 2075 
Q 4550 2100 4225 2100 
L 2075 2100 
z
" transform="scale(0.015625)"/>
      <path id="SimHei-5e74" d="M 350 2925 
Q 900 3450 1375 4200 
Q 1850 4950 1900 5275 
Q 2275 5125 2600 5050 
Q 2375 4825 2100 4325 
L 4625 4325 
Q 5175 4325 5750 4350 
L 5750 3925 
Q 5225 3950 4625 3950 
L 3800 3950 
L 3800 2925 
Q 4750 2925 5475 2950 
L 5475 2525 
Q 4725 2550 3800 2550 
L 3800 1375 
L 5075 1375 
Q 5625 1375 6100 1400 
L 6100 975 
Q 5650 1000 5075 1000 
L 3800 1000 
L 3800 425 
Q 3800 -150 3825 -625 
L 3275 -625 
Q 3300 -150 3300 375 
L 3300 1000 
L 1600 1000 
Q 900 1000 275 975 
L 275 1400 
Q 875 1375 1450 1375 
Q 1450 2350 1425 2925 
L 3300 2925 
L 3300 3950 
L 1875 3950 
Q 1350 3150 925 2650 
Q 650 2875 350 2925 
z
M 3300 1375 
L 3300 2550 
L 1925 2550 
L 1925 1375 
L 3300 1375 
z
" transform="scale(0.015625)"/>
      <path id="SimHei-9884" d="M 5200 4800 
Q 5575 4800 5950 4825 
L 5950 4400 
Q 5575 4425 5200 4425 
L 4500 4425 
Q 4425 4050 4350 3600 
L 5725 3600 
Q 5700 3225 5700 2800 
L 5700 1725 
Q 5700 1300 5725 850 
L 5250 850 
L 5250 3225 
L 3550 3225 
L 3550 800 
L 3075 800 
Q 3100 1375 3100 1725 
L 3100 2775 
Q 3100 3175 3075 3600 
L 3900 3600 
Q 4000 4150 4000 4425 
L 3725 4425 
Q 3300 4425 2850 4400 
L 2850 4825 
Q 3325 4800 3725 4800 
L 5200 4800 
z
M 2600 1775 
Q 2350 1825 2150 1825 
Q 2250 2250 2300 2450 
L 1750 2450 
L 1750 125 
Q 1725 -300 1425 -400 
Q 1125 -500 750 -500 
Q 700 -225 575 25 
Q 1125 -25 1212 37 
Q 1300 100 1300 350 
L 1300 2450 
L 1025 2450 
Q 700 2450 350 2425 
L 350 2850 
Q 700 2825 1000 2825 
L 2850 2825 
Q 2725 2325 2600 1775 
z
M 4725 2875 
Q 4625 2575 4600 2100 
Q 4575 1625 4462 1037 
Q 4350 450 3962 62 
Q 3575 -325 2925 -675 
Q 2700 -500 2475 -350 
Q 3075 -125 3437 200 
Q 3800 525 3950 937 
Q 4100 1350 4137 1850 
Q 4175 2350 4175 2925 
L 4725 2875 
z
M 1625 2900 
Q 1275 3275 800 3650 
Q 925 3775 1075 3950 
Q 1250 3825 1425 3675 
Q 1750 4150 1950 4375 
L 1400 4375 
Q 900 4375 450 4350 
L 450 4775 
Q 900 4750 1375 4750 
L 2575 4750 
L 2575 4375 
Q 2200 4100 1725 3400 
L 1950 3200 
Q 1750 3025 1625 2900 
z
M 4775 725 
Q 5725 0 6075 -325 
Q 5850 -500 5725 -650 
Q 5400 -325 5137 -87 
Q 4875 150 4525 350 
Q 4650 525 4775 725 
z
" transform="scale(0.015625)"/>
      <path id="SimHei-6d4b" d="M 4025 4725 
Q 4000 4475 4000 4000 
L 4000 2225 
Q 4000 1775 4025 1350 
L 3550 1350 
L 3550 4325 
L 2350 4325 
L 2350 1325 
L 1900 1325 
Q 1925 1775 1925 2225 
L 1925 4000 
Q 1925 4200 1900 4725 
L 4025 4725 
z
M 5900 5075 
Q 5875 4800 5875 4375 
L 5875 0 
Q 5875 -325 5650 -425 
Q 5425 -525 4975 -600 
Q 4925 -325 4775 -50 
Q 5125 -50 5262 -25 
Q 5400 0 5400 250 
L 5400 4375 
Q 5400 4775 5375 5075 
L 5900 5075 
z
M 3275 3725 
Q 3225 3400 3200 2325 
Q 3175 1250 2837 550 
Q 2500 -150 2075 -600 
Q 1850 -400 1600 -325 
Q 2200 250 2475 962 
Q 2750 1675 2762 2475 
Q 2775 3275 2725 3800 
Q 3000 3750 3275 3725 
z
M 4950 4275 
Q 4925 4000 4925 3575 
L 4925 1825 
Q 4925 1300 4950 850 
L 4450 850 
Q 4475 1150 4475 1825 
L 4475 3575 
Q 4475 4000 4450 4275 
L 4950 4275 
z
M 1700 1675 
Q 1375 1075 1112 487 
Q 850 -100 725 -400 
Q 500 -200 200 -25 
Q 475 300 762 850 
Q 1050 1400 1250 2000 
Q 1475 1825 1700 1675 
z
M 3400 1050 
Q 3800 650 4300 -125 
Q 4100 -225 3875 -450 
Q 3475 275 3025 750 
Q 3225 875 3400 1050 
z
M 600 3525 
Q 1125 3125 1500 2775 
Q 1300 2575 1150 2375 
Q 825 2775 300 3150 
Q 450 3300 600 3525 
z
M 1350 4000 
Q 950 4375 475 4675 
Q 625 4850 775 5050 
Q 1300 4700 1675 4375 
Q 1500 4250 1350 4000 
z
" transform="scale(0.015625)"/>
      <path id="SimHei-7ed3" d="M 5725 1925 
Q 5700 1600 5700 1200 
L 5700 350 
Q 5700 -125 5725 -475 
L 5225 -475 
L 5225 0 
L 3525 0 
L 3525 -525 
L 3025 -525 
Q 3050 125 3050 325 
L 3050 1250 
Q 3050 1550 3025 1925 
L 5725 1925 
z
M 1900 4850 
Q 1700 4600 1475 4200 
Q 1250 3800 925 3200 
Q 1475 3225 1725 3225 
Q 1950 3625 2100 4000 
Q 2350 3825 2650 3675 
Q 2525 3575 2212 3125 
Q 1900 2675 1225 1650 
Q 2050 1775 2525 1850 
Q 2450 1575 2450 1375 
Q 2225 1350 1650 1275 
Q 1075 1200 525 1050 
Q 425 1300 350 1550 
Q 650 1625 950 2012 
Q 1250 2400 1475 2825 
Q 1300 2825 962 2787 
Q 625 2750 375 2675 
Q 300 2925 225 3150 
Q 500 3375 812 3925 
Q 1125 4475 1300 5125 
Q 1600 4975 1900 4850 
z
M 4075 4175 
Q 4075 4600 4050 5175 
L 4575 5175 
Q 4550 4725 4550 4175 
L 5275 4175 
Q 5750 4175 6150 4200 
L 6150 3750 
Q 5750 3775 5300 3775 
L 4550 3775 
L 4550 2950 
L 5125 2950 
Q 5475 2950 5825 2975 
L 5825 2525 
Q 5525 2550 5100 2550 
L 3650 2550 
Q 3225 2550 2900 2525 
L 2900 2975 
Q 3225 2950 3600 2950 
L 4075 2950 
L 4075 3775 
L 3525 3775 
Q 3075 3775 2675 3750 
L 2675 4200 
Q 3000 4175 3475 4175 
L 4075 4175 
z
M 5225 400 
L 5225 1525 
L 3525 1525 
L 3525 400 
L 5225 400 
z
M 2575 650 
Q 2500 425 2525 175 
Q 2050 100 1450 0 
Q 850 -100 425 -225 
Q 325 100 225 350 
Q 750 375 1175 437 
Q 1600 500 2575 650 
z
" transform="scale(0.015625)"/>
      <path id="SimHei-679c" d="M 2975 -525 
Q 3000 -75 3000 575 
L 3000 1600 
L 2900 1600 
Q 2725 1275 2500 1000 
Q 2275 725 1987 512 
Q 1700 300 1362 100 
Q 1025 -100 675 -250 
Q 575 25 400 275 
Q 700 350 975 487 
Q 1250 625 1525 787 
Q 1800 950 2000 1150 
Q 2200 1350 2375 1600 
L 1375 1600 
Q 1000 1600 450 1550 
L 450 2050 
Q 950 2000 1375 2000 
L 3000 2000 
L 3000 2450 
L 1150 2450 
Q 1175 3050 1175 3775 
Q 1175 4500 1150 5000 
L 5325 5000 
Q 5300 4500 5300 3775 
Q 5300 3050 5325 2450 
L 3475 2450 
L 3475 2000 
L 5050 2000 
Q 5550 2000 5925 2025 
L 5925 1550 
Q 5500 1600 5100 1600 
L 4125 1600 
Q 4450 1075 4925 800 
Q 5400 525 6050 375 
Q 5875 150 5775 -175 
Q 4925 150 4425 550 
Q 3925 950 3675 1600 
L 3475 1600 
L 3475 550 
Q 3475 0 3500 -525 
L 2975 -525 
z
M 4825 3875 
L 4825 4625 
L 3475 4625 
L 3475 3875 
L 4825 3875 
z
M 3000 3875 
L 3000 4625 
L 1675 4625 
L 1675 3875 
L 3000 3875 
z
M 4825 2825 
L 4825 3500 
L 3475 3500 
L 3475 2825 
L 4825 2825 
z
M 3000 2825 
L 3000 3500 
L 1675 3500 
L 1675 2825 
L 3000 2825 
z
" transform="scale(0.015625)"/>
     </defs>
     <use xlink:href="#SimHei-70"/>
     <use xlink:href="#SimHei-48" transform="translate(50 0)"/>
     <use xlink:href="#SimHei-20" transform="translate(100 0)"/>
     <use xlink:href="#SimHei-65f6" transform="translate(150 0)"/>
     <use xlink:href="#SimHei-95f4" transform="translate(250 0)"/>
     <use xlink:href="#SimHei-5e8f" transform="translate(350 0)"/>
     <use xlink:href="#SimHei-5217" transform="translate(450 0)"/>
     <use xlink:href="#SimHei-ff1a" transform="translate(550 0)"/>
     <use xlink:href="#SimHei-4e09" transform="translate(650 0)"/>
     <use xlink:href="#SimHei-5e74" transform="translate(750 0)"/>
     <use xlink:href="#SimHei-9884" transform="translate(850 0)"/>
     <use xlink:href="#SimHei-6d4b" transform="translate(950 0)"/>
     <use xlink:href="#SimHei-7ed3" transform="translate(1050 0)"/>
     <use xlink:href="#SimHei-679c" transform="translate(1150 0)"/>
    </g>
    <!-- R² = -1611.7772, RMSE = 7.5051 -->
    <g transform="translate(350.438125 28.93125) scale(0.12 -0.12)">
     <defs>
      <path id="SimHei-52" d="M 3000 125 
L 2400 125 
L 1500 1975 
L 850 1975 
L 850 125 
L 275 125 
L 275 4400 
L 1525 4400 
Q 2125 4400 2500 4112 
Q 2875 3825 2875 3175 
Q 2875 2675 2625 2400 
Q 2375 2125 2050 2050 
L 3000 125 
z
M 2300 3175 
Q 2300 3525 2087 3725 
Q 1875 3925 1400 3925 
L 850 3925 
L 850 2450 
L 1550 2450 
Q 1850 2450 2075 2612 
Q 2300 2775 2300 3175 
z
" transform="scale(0.015625)"/>
      <path id="SimHei-b2" d="M 5600 -325 
L 700 -325 
L 700 4825 
L 5600 4825 
L 5600 -325 
z
M 5400 4650 
L 875 4650 
L 875 -150 
L 5400 -150 
L 5400 4650 
z
" transform="scale(0.015625)"/>
      <path id="SimHei-3d" d="M 2975 2900 
L 125 2900 
L 125 3300 
L 2975 3300 
L 2975 2900 
z
M 2975 1375 
L 125 1375 
L 125 1775 
L 2975 1775 
L 2975 1375 
z
" transform="scale(0.015625)"/>
      <path id="SimHei-2d" d="M 2975 2125 
L 125 2125 
L 125 2525 
L 2975 2525 
L 2975 2125 
z
" transform="scale(0.015625)"/>
      <path id="SimHei-2c" d="M 1100 125 
L 775 -550 
L 525 -550 
L 775 125 
L 525 125 
L 525 675 
L 1100 675 
L 1100 125 
z
" transform="scale(0.015625)"/>
      <path id="SimHei-4d" d="M 2925 125 
L 2425 125 
L 2425 3175 
L 2375 3175 
L 1775 125 
L 1375 125 
L 775 3175 
L 725 3175 
L 725 125 
L 225 125 
L 225 4400 
L 1000 4400 
L 1550 1575 
L 1600 1575 
L 2150 4400 
L 2925 4400 
L 2925 125 
z
" transform="scale(0.015625)"/>
      <path id="SimHei-53" d="M 2900 1325 
Q 2900 750 2537 412 
Q 2175 75 1550 75 
Q 925 75 575 425 
Q 225 775 225 1300 
L 225 1475 
L 800 1475 
L 800 1325 
Q 800 950 1025 750 
Q 1250 550 1550 550 
Q 1950 550 2137 762 
Q 2325 975 2325 1275 
Q 2325 1525 2100 1737 
Q 1875 1950 1450 2125 
Q 850 2350 587 2625 
Q 325 2900 325 3275 
Q 325 3800 687 4125 
Q 1050 4450 1550 4450 
Q 2200 4450 2487 4062 
Q 2775 3675 2775 3225 
L 2200 3225 
Q 2225 3500 2050 3725 
Q 1875 3950 1550 3950 
Q 1250 3950 1075 3787 
Q 900 3625 900 3350 
Q 900 3125 1037 2962 
Q 1175 2800 1750 2575 
Q 2300 2350 2600 2037 
Q 2900 1725 2900 1325 
z
" transform="scale(0.015625)"/>
      <path id="SimHei-45" d="M 2900 125 
L 350 125 
L 350 4400 
L 2775 4400 
L 2775 3925 
L 925 3925 
L 925 2600 
L 2625 2600 
L 2625 2125 
L 925 2125 
L 925 600 
L 2900 600 
L 2900 125 
z
" transform="scale(0.015625)"/>
     </defs>
     <use xlink:href="#SimHei-52"/>
     <use xlink:href="#SimHei-b2" transform="translate(50 0)"/>
     <use xlink:href="#SimHei-20" transform="translate(150 0)"/>
     <use xlink:href="#SimHei-3d" transform="translate(200 0)"/>
     <use xlink:href="#SimHei-20" transform="translate(250 0)"/>
     <use xlink:href="#SimHei-2d" transform="translate(300 0)"/>
     <use xlink:href="#SimHei-31" transform="translate(350 0)"/>
     <use xlink:href="#SimHei-36" transform="translate(400 0)"/>
     <use xlink:href="#SimHei-31" transform="translate(450 0)"/>
     <use xlink:href="#SimHei-31" transform="translate(500 0)"/>
     <use xlink:href="#SimHei-2e" transform="translate(550 0)"/>
     <use xlink:href="#SimHei-37" transform="translate(600 0)"/>
     <use xlink:href="#SimHei-37" transform="translate(650 0)"/>
     <use xlink:href="#SimHei-37" transform="translate(700 0)"/>
     <use xlink:href="#SimHei-32" transform="translate(750 0)"/>
     <use xlink:href="#SimHei-2c" transform="translate(800 0)"/>
     <use xlink:href="#SimHei-20" transform="translate(850 0)"/>
     <use xlink:href="#SimHei-52" transform="translate(900 0)"/>
     <use xlink:href="#SimHei-4d" transform="translate(950 0)"/>
     <use xlink:href="#SimHei-53" transform="translate(1000 0)"/>
     <use xlink:href="#SimHei-45" transform="translate(1050 0)"/>
     <use xlink:href="#SimHei-20" transform="translate(1100 0)"/>
     <use xlink:href="#SimHei-3d" transform="translate(1150 0)"/>
     <use xlink:href="#SimHei-20" transform="translate(1200 0)"/>
     <use xlink:href="#SimHei-37" transform="translate(1250 0)"/>
     <use xlink:href="#SimHei-2e" transform="translate(1300 0)"/>
     <use xlink:href="#SimHei-35" transform="translate(1350 0)"/>
     <use xlink:href="#SimHei-30" transform="translate(1400 0)"/>
     <use xlink:href="#SimHei-35" transform="translate(1450 0)"/>
     <use xlink:href="#SimHei-31" transform="translate(1500 0)"/>
    </g>
   </g>
   <g id="legend_1">
    <g id="patch_7">
     <path d="M 760.279375 84.486719 
L 843.079375 84.486719 
Q 844.879375 84.486719 844.879375 82.686719 
L 844.879375 45.23125 
Q 844.879375 43.43125 843.079375 43.43125 
L 760.279375 43.43125 
Q 758.479375 43.43125 758.479375 45.23125 
L 758.479375 82.686719 
Q 758.479375 84.486719 760.279375 84.486719 
z
" style="fill: #eeeeee; opacity: 0.8; stroke: #cccccc; stroke-width: 0.5; stroke-linejoin: miter"/>
    </g>
    <g id="line2d_30">
     <path d="M 762.079375 51.053125 
L 771.079375 51.053125 
L 780.079375 51.053125 
" style="fill: none; stroke: #ff0000; stroke-width: 1.5; stroke-linecap: square"/>
    </g>
    <g id="text_17">
     <!-- 训练集数据 -->
     <g transform="translate(787.279375 54.203125) scale(0.09 -0.09)">
      <defs>
       <path id="SimHei-8bad" d="M 1650 3300 
Q 1625 2725 1625 2225 
L 1625 675 
Q 1950 1125 2050 1275 
Q 2175 1125 2350 900 
Q 2025 500 1800 212 
Q 1575 -75 1325 -425 
Q 1150 -200 950 -50 
Q 1150 225 1150 625 
L 1150 2875 
L 975 2875 
Q 600 2875 300 2850 
L 300 3325 
Q 600 3300 975 3300 
L 1650 3300 
z
M 3425 4600 
Q 3375 4350 3387 3362 
Q 3400 2375 3337 1887 
Q 3275 1400 3087 837 
Q 2900 275 2450 -375 
Q 2225 -200 1975 -125 
Q 2550 500 2762 1362 
Q 2975 2225 2950 3337 
Q 2925 4450 2900 4675 
Q 3150 4625 3425 4600 
z
M 5875 4700 
Q 5850 4500 5850 3975 
L 5850 625 
Q 5850 125 5875 -400 
L 5400 -400 
Q 5425 125 5425 600 
L 5425 3975 
Q 5425 4500 5400 4700 
L 5875 4700 
z
M 4600 175 
L 4125 175 
Q 4150 725 4150 1150 
L 4150 3600 
Q 4150 4050 4125 4350 
L 4600 4350 
L 4600 175 
z
M 1000 5150 
Q 1650 4600 2100 4100 
Q 1875 3925 1750 3750 
Q 1050 4550 700 4800 
Q 850 4950 1000 5150 
z
" transform="scale(0.015625)"/>
       <path id="SimHei-7ec3" d="M 3300 3825 
Q 2950 3825 2400 3800 
L 2400 4250 
Q 2950 4225 3325 4225 
L 3625 4225 
Q 3875 4950 3900 5175 
Q 4200 5025 4450 4925 
Q 4350 4825 4262 4612 
Q 4175 4400 4100 4225 
L 5025 4225 
Q 5425 4225 5900 4250 
L 5900 3800 
Q 5550 3825 5025 3825 
L 3975 3825 
Q 3850 3525 3700 3150 
L 4675 3150 
Q 4650 2875 4650 2475 
L 4650 1975 
L 4975 1975 
Q 5350 1975 5800 2000 
L 5800 1550 
Q 5350 1575 4975 1575 
L 4650 1575 
L 4650 125 
Q 4650 -300 4462 -425 
Q 4275 -550 3650 -625 
Q 3625 -375 3450 -100 
Q 4075 -125 4137 -25 
Q 4200 75 4200 325 
L 4200 1575 
L 3425 1575 
Q 3250 1575 3100 1562 
Q 2950 1550 2750 1475 
Q 2650 1725 2550 1950 
Q 2800 2025 3125 2775 
Q 2950 2775 2450 2750 
L 2450 3175 
Q 3025 3150 3250 3150 
Q 3400 3525 3500 3825 
L 3300 3825 
z
M 1650 2950 
Q 1875 3300 2100 3900 
Q 2325 3725 2575 3600 
Q 2325 3275 2025 2750 
Q 1725 2225 1075 1350 
Q 1300 1400 2400 1575 
Q 2350 1300 2375 1150 
Q 1825 1100 650 825 
Q 525 1075 400 1275 
Q 625 1400 887 1737 
Q 1150 2075 1450 2575 
Q 1300 2600 1012 2562 
Q 725 2525 450 2450 
Q 350 2675 250 2925 
Q 500 3075 812 3725 
Q 1125 4375 1325 5000 
Q 1600 4825 1850 4750 
Q 1600 4375 1387 3962 
Q 1175 3550 800 2925 
Q 1375 2925 1650 2950 
z
M 2425 700 
Q 2400 425 2425 250 
Q 2000 150 1462 -25 
Q 925 -200 475 -425 
Q 400 -150 300 125 
Q 950 275 1187 337 
Q 1425 400 2425 700 
z
M 3725 875 
Q 3650 800 3287 400 
Q 2925 0 2475 -475 
Q 2300 -250 2150 -125 
Q 2425 100 2750 462 
Q 3075 825 3325 1225 
Q 3475 1050 3725 875 
z
M 5275 1225 
Q 5925 375 6200 -100 
Q 5950 -200 5750 -375 
Q 5475 175 4900 950 
Q 5075 1050 5275 1225 
z
M 4200 1975 
L 4200 2775 
L 3575 2775 
Q 3325 2250 3175 1975 
L 4200 1975 
z
" transform="scale(0.015625)"/>
       <path id="SimHei-96c6" d="M 2275 4925 
Q 2125 4800 2025 4662 
Q 1925 4525 1850 4350 
L 4925 4350 
Q 5300 4350 5750 4375 
L 5750 3975 
L 3650 3975 
L 3650 3575 
L 4625 3575 
Q 4925 3575 5325 3600 
L 5325 3175 
Q 4925 3200 4625 3200 
L 3650 3200 
L 3650 2800 
L 4675 2800 
Q 5000 2800 5425 2825 
L 5425 2400 
Q 5000 2425 4675 2425 
L 3650 2425 
L 3650 2075 
L 4875 2075 
Q 5275 2075 5675 2100 
L 5675 1675 
Q 5300 1700 4900 1700 
L 1650 1700 
L 1650 1500 
L 1150 1500 
Q 1200 1950 1200 2325 
L 1200 3475 
Q 1050 3250 937 3125 
Q 825 3000 675 2825 
Q 500 3000 300 3125 
Q 475 3325 875 3825 
Q 1275 4325 1462 4650 
Q 1650 4975 1725 5225 
Q 1950 5100 2275 4925 
z
M 2975 1200 
Q 2975 1300 2950 1625 
L 3475 1625 
Q 3450 1275 3450 1200 
L 5050 1200 
Q 5500 1200 5925 1225 
L 5925 825 
L 4150 825 
Q 4500 525 4925 362 
Q 5350 200 6100 25 
Q 5875 -225 5775 -475 
Q 5275 -300 4962 -162 
Q 4650 -25 4387 137 
Q 4125 300 3950 462 
Q 3775 625 3575 825 
L 3450 825 
L 3450 250 
Q 3450 -275 3500 -650 
L 2950 -650 
Q 2975 -300 2975 250 
L 2975 825 
L 2875 825 
Q 2700 575 2475 375 
Q 2250 175 1987 12 
Q 1725 -150 1425 -300 
Q 1125 -450 700 -575 
Q 600 -325 400 -75 
Q 925 50 1475 262 
Q 2025 475 2300 825 
L 500 825 
L 500 1225 
Q 800 1200 1400 1200 
L 2975 1200 
z
M 3150 2800 
L 3150 3200 
L 1650 3200 
L 1650 2800 
L 3150 2800 
z
M 3150 3575 
L 3150 3975 
L 1650 3975 
L 1650 3575 
L 3150 3575 
z
M 3150 2075 
L 3150 2425 
L 1650 2425 
L 1650 2075 
L 3150 2075 
z
M 3450 5250 
Q 3575 5150 3712 5000 
Q 3850 4850 4000 4650 
Q 3850 4525 3575 4375 
Q 3425 4575 3325 4700 
Q 3225 4825 3075 4950 
Q 3275 5075 3450 5250 
z
" transform="scale(0.015625)"/>
       <path id="SimHei-6570" d="M 4525 4925 
Q 4475 4800 4400 4587 
Q 4325 4375 4175 3825 
L 5325 3825 
Q 5575 3825 5925 3850 
L 5925 3400 
Q 5650 3425 5500 3425 
Q 5500 3025 5362 2162 
Q 5225 1300 4875 675 
Q 5125 375 5437 137 
Q 5750 -100 6025 -200 
Q 5725 -425 5625 -625 
Q 5325 -450 5075 -225 
Q 4825 0 4575 325 
Q 4300 25 3987 -187 
Q 3675 -400 3200 -650 
Q 3075 -425 2850 -300 
Q 3225 -150 3650 125 
Q 4075 400 4300 675 
Q 4125 1025 3962 1425 
Q 3800 1825 3675 2475 
Q 3600 2275 3425 1950 
Q 3250 2050 3000 2150 
Q 3400 2850 3650 3675 
Q 3900 4500 3975 5100 
Q 4275 4975 4525 4925 
z
M 2100 2250 
Q 2000 2150 1875 1925 
L 3250 1925 
Q 3100 1300 2725 675 
Q 3125 525 3350 400 
Q 3225 225 3125 25 
Q 2900 175 2450 325 
Q 1950 -225 725 -650 
Q 600 -375 400 -275 
Q 1575 0 2000 475 
Q 1300 650 850 775 
Q 1000 1000 1250 1525 
Q 1000 1525 425 1500 
L 425 1950 
Q 900 1925 1400 1925 
Q 1500 2150 1550 2425 
Q 1825 2325 2100 2250 
z
M 1775 3950 
Q 1775 4550 1750 5100 
L 2250 5100 
Q 2225 4575 2225 3950 
Q 3075 3950 3425 3975 
L 3425 3525 
Q 3075 3550 2225 3550 
Q 2225 2825 2250 2425 
L 1750 2425 
Q 1775 2775 1775 3300 
Q 1650 3100 1300 2787 
Q 950 2475 650 2300 
Q 525 2525 275 2625 
Q 500 2700 875 2975 
Q 1250 3250 1450 3550 
Q 950 3550 500 3525 
L 500 3975 
Q 925 3950 1775 3950 
z
M 3975 3175 
Q 4200 1700 4600 1125 
Q 4850 1700 4937 2287 
Q 5025 2875 5050 3425 
L 4075 3425 
L 3975 3175 
z
M 1450 1000 
Q 1750 925 2275 800 
Q 2475 1050 2650 1525 
L 1725 1525 
Q 1600 1275 1450 1000 
z
M 3325 4825 
Q 3200 4625 3125 4450 
Q 3050 4275 2925 4025 
Q 2725 4125 2525 4175 
Q 2725 4500 2900 5000 
Q 3150 4875 3325 4825 
z
M 2575 3375 
Q 2900 3050 3200 2725 
Q 3050 2600 2875 2425 
Q 2525 2850 2300 3100 
Q 2450 3225 2575 3375 
z
M 925 5000 
Q 1275 4650 1500 4300 
L 1125 4075 
Q 950 4425 600 4725 
Q 825 4875 925 5000 
z
" transform="scale(0.015625)"/>
       <path id="SimHei-636e" d="M 5750 4775 
Q 5725 4550 5725 4225 
L 5725 3900 
Q 5725 3450 5750 3250 
L 3100 3250 
L 3100 2500 
L 4250 2500 
Q 4250 2725 4225 3175 
L 4700 3175 
Q 4675 2775 4675 2500 
L 5350 2500 
Q 5800 2500 6100 2525 
L 6100 2075 
Q 5800 2100 5375 2100 
L 4675 2100 
L 4675 1425 
L 5775 1425 
Q 5750 950 5750 800 
L 5750 175 
Q 5750 -225 5775 -575 
L 5325 -575 
L 5325 -225 
L 3675 -225 
L 3675 -600 
L 3225 -600 
Q 3250 -325 3250 100 
L 3250 825 
Q 3250 1075 3225 1425 
L 4250 1425 
L 4250 2100 
L 3075 2100 
Q 3050 1375 2887 737 
Q 2725 100 2425 -475 
Q 2200 -325 1950 -250 
Q 2250 150 2387 600 
Q 2525 1050 2600 1562 
Q 2675 2075 2675 2625 
L 2675 3575 
Q 2675 3975 2650 4775 
L 5750 4775 
z
M 1275 4425 
Q 1275 4775 1250 5075 
L 1750 5075 
Q 1725 4800 1725 4425 
L 1725 3775 
Q 1975 3775 2500 3800 
L 2500 3375 
Q 1975 3400 1725 3400 
L 1725 2450 
Q 2050 2625 2400 2850 
Q 2425 2650 2525 2475 
Q 2050 2200 1725 2000 
L 1725 175 
Q 1725 -300 1487 -400 
Q 1250 -500 775 -575 
Q 725 -325 600 -50 
Q 1025 -50 1150 -12 
Q 1275 25 1275 325 
L 1275 1800 
Q 900 1600 525 1325 
Q 450 1525 275 1800 
Q 775 1975 1275 2250 
L 1275 3400 
Q 800 3400 350 3375 
L 350 3800 
Q 800 3775 1275 3775 
L 1275 4425 
z
M 5300 3625 
L 5300 4400 
L 3100 4400 
L 3100 3625 
L 5300 3625 
z
M 5325 150 
L 5325 1075 
L 3675 1075 
L 3675 150 
L 5325 150 
z
" transform="scale(0.015625)"/>
      </defs>
      <use xlink:href="#SimHei-8bad"/>
      <use xlink:href="#SimHei-7ec3" transform="translate(100 0)"/>
      <use xlink:href="#SimHei-96c6" transform="translate(200 0)"/>
      <use xlink:href="#SimHei-6570" transform="translate(300 0)"/>
      <use xlink:href="#SimHei-636e" transform="translate(400 0)"/>
     </g>
    </g>
    <g id="line2d_31">
     <path d="M 762.079375 63.920312 
L 771.079375 63.920312 
L 780.079375 63.920312 
" style="fill: none; stroke: #0000ff; stroke-width: 1.5; stroke-linecap: square"/>
    </g>
    <g id="text_18">
     <!-- 测试集真实值 -->
     <g transform="translate(787.279375 67.070312) scale(0.09 -0.09)">
      <defs>
       <path id="SimHei-8bd5" d="M 3950 3825 
Q 3925 4325 3925 4550 
Q 3925 4800 3900 5225 
Q 4200 5150 4450 5125 
Q 4425 4825 4425 4600 
L 4425 3825 
L 5150 3825 
Q 5500 3825 5875 3850 
L 5875 3400 
Q 5525 3425 5125 3425 
L 4450 3425 
Q 4500 2750 4587 2212 
Q 4675 1675 4837 1112 
Q 5000 550 5212 225 
Q 5425 -100 5500 200 
Q 5575 500 5600 900 
Q 5800 625 6100 525 
Q 5975 -275 5750 -487 
Q 5525 -700 5250 -537 
Q 4975 -375 4737 62 
Q 4500 500 4337 1075 
Q 4175 1650 4100 2262 
Q 4025 2875 3975 3425 
L 2800 3425 
Q 2300 3425 1875 3400 
L 1875 3850 
Q 2275 3825 2775 3825 
L 3950 3825 
z
M 1500 3175 
Q 1475 2675 1475 2175 
L 1475 625 
Q 1825 950 2125 1225 
Q 2225 1000 2375 800 
Q 1900 425 1125 -350 
Q 1000 -125 825 50 
Q 1025 175 1025 525 
L 1025 2725 
Q 625 2725 300 2700 
L 300 3200 
Q 625 3175 825 3175 
L 1500 3175 
z
M 3775 2175 
Q 3500 2200 3250 2200 
L 3250 575 
Q 3575 675 3900 800 
Q 3900 525 3950 325 
Q 3575 250 3150 125 
Q 2725 0 2275 -175 
Q 2200 100 2025 300 
Q 2425 350 2800 475 
L 2800 2200 
Q 2525 2200 2225 2175 
L 2225 2650 
Q 2600 2625 3000 2625 
Q 3425 2625 3775 2650 
L 3775 2175 
z
M 925 4975 
Q 1275 4650 1700 4100 
Q 1525 3925 1325 3775 
Q 1175 4050 575 4650 
Q 775 4825 925 4975 
z
M 5150 5150 
Q 5325 5000 5850 4375 
Q 5575 4200 5425 4050 
Q 5125 4525 4775 4875 
Q 4925 4975 5150 5150 
z
" transform="scale(0.015625)"/>
       <path id="SimHei-771f" d="M 3550 5100 
Q 3450 4925 3400 4625 
L 4850 4625 
Q 5175 4625 5725 4650 
L 5725 4250 
Q 5200 4275 4850 4275 
L 3350 4275 
L 3300 3850 
L 5050 3850 
Q 5025 3550 5025 3150 
L 5025 1075 
L 5400 1075 
Q 5800 1075 6075 1100 
L 6075 625 
Q 5575 650 4900 650 
L 1450 650 
Q 775 650 350 625 
L 350 1100 
Q 725 1075 1100 1075 
L 1425 1075 
L 1425 3075 
Q 1425 3450 1400 3850 
L 2825 3850 
L 2850 4275 
L 1400 4275 
Q 1050 4275 625 4250 
L 625 4650 
Q 1175 4625 1375 4625 
L 2925 4625 
Q 2950 4875 2950 5125 
Q 3300 5100 3550 5100 
z
M 4075 525 
Q 4500 425 4925 250 
Q 5350 75 5825 -150 
Q 5550 -425 5450 -575 
Q 5025 -300 4550 -100 
Q 4075 100 3800 175 
Q 3925 350 4075 525 
z
M 4525 3150 
L 4525 3475 
L 1925 3475 
L 1925 3150 
L 4525 3150 
z
M 4525 1075 
L 4525 1400 
L 1925 1400 
L 1925 1075 
L 4525 1075 
z
M 2775 200 
Q 2375 -25 1875 -225 
Q 1375 -425 950 -575 
Q 775 -400 600 -250 
Q 1225 -50 1625 137 
Q 2025 325 2350 525 
Q 2550 350 2775 200 
z
M 4525 1775 
L 4525 2075 
L 1925 2075 
L 1925 1775 
L 4525 1775 
z
M 4525 2475 
L 4525 2775 
L 1925 2775 
L 1925 2475 
L 4525 2475 
z
" transform="scale(0.015625)"/>
       <path id="SimHei-5b9e" d="M 4125 3500 
Q 4050 3200 4000 2675 
Q 3950 2150 3850 1550 
L 5025 1550 
Q 5475 1550 5975 1575 
L 5975 1100 
Q 5450 1125 5000 1125 
L 3725 1125 
Q 3500 625 3050 250 
Q 2600 -125 2000 -337 
Q 1400 -550 925 -675 
Q 825 -375 500 -200 
Q 1225 -125 2050 212 
Q 2875 550 3200 1125 
L 1425 1125 
Q 975 1125 425 1100 
L 425 1575 
Q 1000 1550 1425 1550 
L 3375 1550 
Q 3450 1975 3487 2462 
Q 3525 2950 3500 3650 
Q 3800 3550 4125 3500 
z
M 3250 5250 
Q 3450 4850 3600 4375 
L 5775 4375 
Q 5750 4100 5750 3825 
Q 5750 3575 5775 3275 
L 5200 3275 
L 5200 3975 
L 1225 3975 
L 1225 3225 
L 675 3225 
Q 700 3525 700 3800 
Q 700 4100 675 4375 
L 2975 4375 
Q 2900 4675 2700 5075 
Q 2900 5150 3250 5250 
z
M 4000 825 
Q 4550 525 5050 262 
Q 5550 0 5925 -225 
Q 5750 -425 5550 -650 
Q 5100 -325 4575 -37 
Q 4050 250 3675 400 
Q 3875 650 4000 825 
z
M 1175 2750 
Q 1600 2550 2350 2050 
Q 2250 1900 2050 1650 
Q 1350 2175 925 2350 
Q 1075 2500 1175 2750 
z
M 3150 2825 
Q 2975 2625 2850 2425 
Q 2050 3000 1675 3125 
Q 1800 3300 1950 3525 
L 3150 2825 
z
" transform="scale(0.015625)"/>
      </defs>
      <use xlink:href="#SimHei-6d4b"/>
      <use xlink:href="#SimHei-8bd5" transform="translate(100 0)"/>
      <use xlink:href="#SimHei-96c6" transform="translate(200 0)"/>
      <use xlink:href="#SimHei-771f" transform="translate(300 0)"/>
      <use xlink:href="#SimHei-5b9e" transform="translate(400 0)"/>
      <use xlink:href="#SimHei-503c" transform="translate(500 0)"/>
     </g>
    </g>
    <g id="line2d_32">
     <path d="M 762.079375 76.611719 
L 771.079375 76.611719 
L 780.079375 76.611719 
" style="fill: none; stroke-dasharray: 5.55,2.4; stroke-dashoffset: 0; stroke: #ffff00; stroke-width: 1.5"/>
    </g>
    <g id="text_19">
     <!-- 预测值 -->
     <g transform="translate(787.279375 79.761719) scale(0.09 -0.09)">
      <use xlink:href="#SimHei-9884"/>
      <use xlink:href="#SimHei-6d4b" transform="translate(100 0)"/>
      <use xlink:href="#SimHei-503c" transform="translate(200 0)"/>
     </g>
    </g>
   </g>
  </g>
 </g>
 <defs>
  <clipPath id="pdb42085747">
   <rect x="37.496875" y="38.93125" width="811.8825" height="352.84775"/>
  </clipPath>
 </defs>
</svg>
