<?xml version="1.0" encoding="utf-8" standalone="no"?>
<!DOCTYPE svg PUBLIC "-//W3C//DTD SVG 1.1//EN"
  "http://www.w3.org/Graphics/SVG/1.1/DTD/svg11.dtd">
<svg xmlns:xlink="http://www.w3.org/1999/xlink" width="712.92625pt" height="423.989062pt" viewBox="0 0 712.92625 423.989062" xmlns="http://www.w3.org/2000/svg" version="1.1">
 <metadata>
  <rdf:RDF xmlns:dc="http://purl.org/dc/elements/1.1/" xmlns:cc="http://creativecommons.org/ns#" xmlns:rdf="http://www.w3.org/1999/02/22-rdf-syntax-ns#">
   <cc:Work>
    <dc:type rdf:resource="http://purl.org/dc/dcmitype/StillImage"/>
    <dc:date>2025-04-16T00:55:21.060948</dc:date>
    <dc:format>image/svg+xml</dc:format>
    <dc:creator>
     <cc:Agent>
      <dc:title>Matplotlib v3.10.0, https://matplotlib.org/</dc:title>
     </cc:Agent>
    </dc:creator>
   </cc:Work>
  </rdf:RDF>
 </metadata>
 <defs>
  <style type="text/css">*{stroke-linejoin: round; stroke-linecap: butt}</style>
 </defs>
 <g id="figure_1">
  <g id="patch_1">
   <path d="M 0 423.989062 
L 712.92625 423.989062 
L 712.92625 0 
L 0 0 
z
" style="fill: #ffffff"/>
  </g>
  <g id="axes_1">
   <g id="patch_2">
    <path d="M 33.23125 392.71875 
L 705.72625 392.71875 
L 705.72625 27.04375 
L 33.23125 27.04375 
z
" style="fill: #ffffff"/>
   </g>
   <g id="matplotlib.axis_1">
    <g id="xtick_1">
     <g id="line2d_1">
      <path d="M 63.520173 392.71875 
L 63.520173 27.04375 
" clip-path="url(#pac71ffe58e)" style="fill: none; stroke-dasharray: 1.85,0.8; stroke-dashoffset: 0; stroke: #b2b2b2; stroke-opacity: 0.3; stroke-width: 0.5"/>
     </g>
     <g id="line2d_2">
      <defs>
       <path id="m43d7f002d1" d="M 0 0 
L 0 -3.5 
" style="stroke: #000000; stroke-width: 0.8"/>
      </defs>
      <g>
       <use xlink:href="#m43d7f002d1" x="63.520173" y="392.71875" style="stroke: #000000; stroke-width: 0.8"/>
      </g>
     </g>
     <g id="text_1">
      <!-- 0 -->
      <g transform="translate(61.270173 402.40625) scale(0.09 -0.09)">
       <defs>
        <path id="SimHei-30" d="M 225 2537 
Q 250 3200 412 3587 
Q 575 3975 875 4225 
Q 1175 4475 1612 4475 
Q 2050 4475 2375 4112 
Q 2700 3750 2800 3200 
Q 2900 2650 2862 1937 
Q 2825 1225 2612 775 
Q 2400 325 1975 150 
Q 1550 -25 1125 187 
Q 700 400 525 750 
Q 350 1100 275 1487 
Q 200 1875 225 2537 
z
M 750 2687 
Q 675 2000 800 1462 
Q 925 925 1212 700 
Q 1500 475 1800 612 
Q 2100 750 2237 1162 
Q 2375 1575 2375 2062 
Q 2375 2550 2337 2950 
Q 2300 3350 2112 3675 
Q 1925 4000 1612 4012 
Q 1300 4025 1062 3700 
Q 825 3375 750 2687 
z
" transform="scale(0.015625)"/>
       </defs>
       <use xlink:href="#SimHei-30"/>
      </g>
     </g>
    </g>
    <g id="xtick_2">
     <g id="line2d_3">
      <path d="M 203.036168 392.71875 
L 203.036168 27.04375 
" clip-path="url(#pac71ffe58e)" style="fill: none; stroke-dasharray: 1.85,0.8; stroke-dashoffset: 0; stroke: #b2b2b2; stroke-opacity: 0.3; stroke-width: 0.5"/>
     </g>
     <g id="line2d_4">
      <g>
       <use xlink:href="#m43d7f002d1" x="203.036168" y="392.71875" style="stroke: #000000; stroke-width: 0.8"/>
      </g>
     </g>
     <g id="text_2">
      <!-- 500 -->
      <g transform="translate(196.286168 402.40625) scale(0.09 -0.09)">
       <defs>
        <path id="SimHei-35" d="M 550 1325 
Q 725 650 1150 575 
Q 1575 500 1837 662 
Q 2100 825 2212 1087 
Q 2325 1350 2312 1675 
Q 2300 2000 2137 2225 
Q 1975 2450 1725 2525 
Q 1475 2600 1162 2525 
Q 850 2450 650 2175 
L 225 2225 
Q 275 2375 700 4375 
L 2675 4375 
L 2675 3925 
L 1075 3925 
Q 950 3250 825 2850 
Q 1200 3025 1525 3012 
Q 1850 3000 2150 2862 
Q 2450 2725 2587 2487 
Q 2725 2250 2787 2012 
Q 2850 1775 2837 1500 
Q 2825 1225 2725 937 
Q 2625 650 2425 462 
Q 2225 275 1937 162 
Q 1650 50 1275 75 
Q 900 100 562 350 
Q 225 600 100 1200 
L 550 1325 
z
" transform="scale(0.015625)"/>
       </defs>
       <use xlink:href="#SimHei-35"/>
       <use xlink:href="#SimHei-30" transform="translate(50 0)"/>
       <use xlink:href="#SimHei-30" transform="translate(100 0)"/>
      </g>
     </g>
    </g>
    <g id="xtick_3">
     <g id="line2d_5">
      <path d="M 342.552163 392.71875 
L 342.552163 27.04375 
" clip-path="url(#pac71ffe58e)" style="fill: none; stroke-dasharray: 1.85,0.8; stroke-dashoffset: 0; stroke: #b2b2b2; stroke-opacity: 0.3; stroke-width: 0.5"/>
     </g>
     <g id="line2d_6">
      <g>
       <use xlink:href="#m43d7f002d1" x="342.552163" y="392.71875" style="stroke: #000000; stroke-width: 0.8"/>
      </g>
     </g>
     <g id="text_3">
      <!-- 1000 -->
      <g transform="translate(333.552163 402.40625) scale(0.09 -0.09)">
       <defs>
        <path id="SimHei-31" d="M 1400 3600 
Q 1075 3275 575 2975 
L 575 3450 
Q 1200 3875 1600 4450 
L 1900 4450 
L 1900 150 
L 1400 150 
L 1400 3600 
z
" transform="scale(0.015625)"/>
       </defs>
       <use xlink:href="#SimHei-31"/>
       <use xlink:href="#SimHei-30" transform="translate(50 0)"/>
       <use xlink:href="#SimHei-30" transform="translate(100 0)"/>
       <use xlink:href="#SimHei-30" transform="translate(150 0)"/>
      </g>
     </g>
    </g>
    <g id="xtick_4">
     <g id="line2d_7">
      <path d="M 482.068158 392.71875 
L 482.068158 27.04375 
" clip-path="url(#pac71ffe58e)" style="fill: none; stroke-dasharray: 1.85,0.8; stroke-dashoffset: 0; stroke: #b2b2b2; stroke-opacity: 0.3; stroke-width: 0.5"/>
     </g>
     <g id="line2d_8">
      <g>
       <use xlink:href="#m43d7f002d1" x="482.068158" y="392.71875" style="stroke: #000000; stroke-width: 0.8"/>
      </g>
     </g>
     <g id="text_4">
      <!-- 1500 -->
      <g transform="translate(473.068158 402.40625) scale(0.09 -0.09)">
       <use xlink:href="#SimHei-31"/>
       <use xlink:href="#SimHei-35" transform="translate(50 0)"/>
       <use xlink:href="#SimHei-30" transform="translate(100 0)"/>
       <use xlink:href="#SimHei-30" transform="translate(150 0)"/>
      </g>
     </g>
    </g>
    <g id="xtick_5">
     <g id="line2d_9">
      <path d="M 621.584153 392.71875 
L 621.584153 27.04375 
" clip-path="url(#pac71ffe58e)" style="fill: none; stroke-dasharray: 1.85,0.8; stroke-dashoffset: 0; stroke: #b2b2b2; stroke-opacity: 0.3; stroke-width: 0.5"/>
     </g>
     <g id="line2d_10">
      <g>
       <use xlink:href="#m43d7f002d1" x="621.584153" y="392.71875" style="stroke: #000000; stroke-width: 0.8"/>
      </g>
     </g>
     <g id="text_5">
      <!-- 2000 -->
      <g transform="translate(612.584153 402.40625) scale(0.09 -0.09)">
       <defs>
        <path id="SimHei-32" d="M 300 250 
Q 325 625 650 925 
Q 975 1225 1475 1862 
Q 1975 2500 2125 2850 
Q 2275 3200 2237 3450 
Q 2200 3700 2000 3862 
Q 1800 4025 1537 4000 
Q 1275 3975 1037 3800 
Q 800 3625 675 3275 
L 200 3350 
Q 400 3925 712 4187 
Q 1025 4450 1450 4475 
Q 1700 4500 1900 4462 
Q 2100 4425 2312 4287 
Q 2525 4150 2662 3875 
Q 2800 3600 2762 3212 
Q 2725 2825 2375 2287 
Q 2025 1750 1025 600 
L 2825 600 
L 2825 150 
L 300 150 
L 300 250 
z
" transform="scale(0.015625)"/>
       </defs>
       <use xlink:href="#SimHei-32"/>
       <use xlink:href="#SimHei-30" transform="translate(50 0)"/>
       <use xlink:href="#SimHei-30" transform="translate(100 0)"/>
       <use xlink:href="#SimHei-30" transform="translate(150 0)"/>
      </g>
     </g>
    </g>
    <g id="text_6">
     <!-- 时间 / 序号 -->
     <g transform="translate(341.97875 415.539062) scale(0.1 -0.1)">
      <defs>
       <path id="SimHei-65f6" d="M 2525 4575 
Q 2500 3675 2500 2400 
Q 2500 1125 2525 400 
L 2000 400 
L 2000 875 
L 1000 875 
L 1000 50 
L 475 50 
Q 500 1200 500 2350 
Q 500 3525 475 4575 
L 2525 4575 
z
M 4875 3825 
Q 4875 4575 4850 5225 
L 5400 5225 
Q 5375 4575 5375 3825 
Q 5750 3825 6175 3850 
L 6175 3375 
Q 5750 3400 5375 3400 
L 5375 50 
Q 5375 -325 5075 -425 
Q 4775 -525 4300 -575 
Q 4300 -275 4025 0 
Q 4500 -50 4687 -25 
Q 4875 0 4875 300 
L 4875 3400 
Q 3625 3400 2775 3375 
L 2775 3850 
Q 3575 3825 4875 3825 
z
M 2000 1300 
L 2000 2550 
L 1000 2550 
L 1000 1300 
L 2000 1300 
z
M 2000 2975 
L 2000 4150 
L 1000 4150 
L 1000 2975 
L 2000 2975 
z
M 3550 2725 
Q 3875 2200 4175 1600 
Q 3925 1525 3650 1375 
Q 3450 1975 3075 2500 
Q 3300 2600 3550 2725 
z
" transform="scale(0.015625)"/>
       <path id="SimHei-95f4" d="M 4450 3550 
Q 4425 3075 4425 2725 
L 4425 1400 
Q 4425 1075 4450 625 
L 1925 625 
Q 1950 1075 1950 1425 
L 1950 2725 
Q 1950 3075 1925 3550 
L 4450 3550 
z
M 5800 4875 
Q 5775 4400 5775 3925 
L 5775 250 
Q 5800 -325 5462 -450 
Q 5125 -575 4725 -625 
Q 4700 -325 4525 -25 
Q 5000 -50 5137 25 
Q 5275 100 5275 350 
L 5275 4450 
L 3775 4450 
Q 3175 4450 2650 4425 
L 2650 4900 
Q 3175 4875 3775 4875 
L 5800 4875 
z
M 550 -525 
Q 600 -25 600 525 
L 600 3150 
Q 600 3675 550 4025 
L 1125 4025 
Q 1100 3650 1100 3300 
L 1100 500 
Q 1100 0 1125 -525 
L 550 -525 
z
M 3950 1025 
L 3950 1950 
L 2425 1950 
L 2425 1025 
L 3950 1025 
z
M 3950 2350 
L 3950 3150 
L 2425 3150 
L 2425 2350 
L 3950 2350 
z
M 1525 5300 
Q 1750 5000 2225 4350 
Q 1950 4225 1700 4075 
Q 1450 4575 1075 5025 
Q 1350 5225 1525 5300 
z
" transform="scale(0.015625)"/>
       <path id="SimHei-20" transform="scale(0.015625)"/>
       <path id="SimHei-2f" d="M 3000 4550 
L 350 -175 
L 100 -25 
L 2750 4700 
L 3000 4550 
z
" transform="scale(0.015625)"/>
       <path id="SimHei-5e8f" d="M 4000 2075 
L 5975 2075 
Q 5750 1525 5575 1025 
Q 5325 1100 5050 1150 
Q 5175 1450 5275 1700 
L 4050 1700 
L 4050 150 
Q 4050 -375 3762 -462 
Q 3475 -550 2950 -575 
Q 2875 -300 2750 0 
Q 3350 -75 3475 25 
Q 3600 125 3575 375 
L 3575 1700 
L 2450 1700 
Q 2050 1700 1675 1675 
L 1675 2100 
Q 2100 2075 2425 2075 
L 3675 2075 
Q 3325 2400 2875 2775 
Q 2975 2875 3250 3100 
Q 3400 2975 3725 2725 
L 4575 3275 
L 3000 3275 
Q 2400 3275 1950 3250 
L 1950 3700 
Q 2400 3675 3000 3675 
L 5400 3675 
L 5400 3250 
Q 4700 2875 4025 2450 
L 4275 2250 
L 4000 2075 
z
M 3725 5275 
Q 3825 4925 3925 4525 
L 4850 4525 
Q 5425 4525 6000 4550 
L 6000 4125 
Q 5425 4150 4850 4150 
L 1400 4150 
Q 1400 2750 1362 2137 
Q 1325 1525 1200 887 
Q 1075 250 775 -350 
Q 625 -250 250 -125 
Q 475 300 600 700 
Q 725 1100 800 1637 
Q 875 2175 875 2825 
Q 875 3500 850 4525 
L 3350 4525 
Q 3275 4825 3150 5150 
Q 3425 5200 3725 5275 
z
" transform="scale(0.015625)"/>
       <path id="SimHei-53f7" d="M 5025 4925 
Q 5000 4550 5000 4075 
Q 5000 3600 5025 3175 
L 1400 3175 
Q 1425 3525 1425 4000 
Q 1425 4500 1400 4925 
L 5025 4925 
z
M 5175 2625 
Q 5650 2625 6025 2650 
L 6025 2200 
Q 5650 2225 5175 2225 
L 2450 2225 
Q 2350 1875 2225 1450 
L 5175 1450 
Q 5100 1050 5062 775 
Q 5025 500 4950 112 
Q 4875 -275 4650 -412 
Q 4425 -550 3225 -625 
Q 3125 -350 2975 -50 
Q 3875 -75 4112 -50 
Q 4350 -25 4425 212 
Q 4500 450 4575 1025 
L 1600 1025 
Q 1825 1625 1950 2225 
L 1350 2225 
Q 825 2225 375 2200 
L 375 2650 
Q 825 2625 1350 2625 
L 5175 2625 
z
M 4525 3575 
L 4525 4525 
L 1900 4525 
L 1900 3575 
L 4525 3575 
z
" transform="scale(0.015625)"/>
      </defs>
      <use xlink:href="#SimHei-65f6"/>
      <use xlink:href="#SimHei-95f4" transform="translate(100 0)"/>
      <use xlink:href="#SimHei-20" transform="translate(200 0)"/>
      <use xlink:href="#SimHei-2f" transform="translate(250 0)"/>
      <use xlink:href="#SimHei-20" transform="translate(300 0)"/>
      <use xlink:href="#SimHei-5e8f" transform="translate(350 0)"/>
      <use xlink:href="#SimHei-53f7" transform="translate(450 0)"/>
     </g>
    </g>
   </g>
   <g id="matplotlib.axis_2">
    <g id="ytick_1">
     <g id="line2d_11">
      <path d="M 33.23125 361.199651 
L 705.72625 361.199651 
" clip-path="url(#pac71ffe58e)" style="fill: none; stroke-dasharray: 1.85,0.8; stroke-dashoffset: 0; stroke: #b2b2b2; stroke-opacity: 0.3; stroke-width: 0.5"/>
     </g>
     <g id="line2d_12">
      <defs>
       <path id="mf7b62b1e18" d="M 0 0 
L 3.5 0 
" style="stroke: #000000; stroke-width: 0.8"/>
      </defs>
      <g>
       <use xlink:href="#mf7b62b1e18" x="33.23125" y="361.199651" style="stroke: #000000; stroke-width: 0.8"/>
      </g>
     </g>
     <g id="text_7">
      <!-- -2 -->
      <g transform="translate(20.73125 364.293401) scale(0.09 -0.09)">
       <defs>
        <path id="SimHei-2d" d="M 2975 2125 
L 125 2125 
L 125 2525 
L 2975 2525 
L 2975 2125 
z
" transform="scale(0.015625)"/>
       </defs>
       <use xlink:href="#SimHei-2d"/>
       <use xlink:href="#SimHei-32" transform="translate(50 0)"/>
      </g>
     </g>
    </g>
    <g id="ytick_2">
     <g id="line2d_13">
      <path d="M 33.23125 287.095961 
L 705.72625 287.095961 
" clip-path="url(#pac71ffe58e)" style="fill: none; stroke-dasharray: 1.85,0.8; stroke-dashoffset: 0; stroke: #b2b2b2; stroke-opacity: 0.3; stroke-width: 0.5"/>
     </g>
     <g id="line2d_14">
      <g>
       <use xlink:href="#mf7b62b1e18" x="33.23125" y="287.095961" style="stroke: #000000; stroke-width: 0.8"/>
      </g>
     </g>
     <g id="text_8">
      <!-- 0 -->
      <g transform="translate(25.23125 290.189711) scale(0.09 -0.09)">
       <use xlink:href="#SimHei-30"/>
      </g>
     </g>
    </g>
    <g id="ytick_3">
     <g id="line2d_15">
      <path d="M 33.23125 212.992272 
L 705.72625 212.992272 
" clip-path="url(#pac71ffe58e)" style="fill: none; stroke-dasharray: 1.85,0.8; stroke-dashoffset: 0; stroke: #b2b2b2; stroke-opacity: 0.3; stroke-width: 0.5"/>
     </g>
     <g id="line2d_16">
      <g>
       <use xlink:href="#mf7b62b1e18" x="33.23125" y="212.992272" style="stroke: #000000; stroke-width: 0.8"/>
      </g>
     </g>
     <g id="text_9">
      <!-- 2 -->
      <g transform="translate(25.23125 216.086022) scale(0.09 -0.09)">
       <use xlink:href="#SimHei-32"/>
      </g>
     </g>
    </g>
    <g id="ytick_4">
     <g id="line2d_17">
      <path d="M 33.23125 138.888582 
L 705.72625 138.888582 
" clip-path="url(#pac71ffe58e)" style="fill: none; stroke-dasharray: 1.85,0.8; stroke-dashoffset: 0; stroke: #b2b2b2; stroke-opacity: 0.3; stroke-width: 0.5"/>
     </g>
     <g id="line2d_18">
      <g>
       <use xlink:href="#mf7b62b1e18" x="33.23125" y="138.888582" style="stroke: #000000; stroke-width: 0.8"/>
      </g>
     </g>
     <g id="text_10">
      <!-- 4 -->
      <g transform="translate(25.23125 141.982332) scale(0.09 -0.09)">
       <defs>
        <path id="SimHei-34" d="M 2000 1100 
L 75 1100 
L 75 1525 
L 2100 4450 
L 2475 4450 
L 2475 1525 
L 3075 1525 
L 3075 1100 
L 2475 1100 
L 2475 150 
L 2000 150 
L 2000 1100 
z
M 2000 1525 
L 2000 3500 
L 600 1525 
L 2000 1525 
z
" transform="scale(0.015625)"/>
       </defs>
       <use xlink:href="#SimHei-34"/>
      </g>
     </g>
    </g>
    <g id="ytick_5">
     <g id="line2d_19">
      <path d="M 33.23125 64.784892 
L 705.72625 64.784892 
" clip-path="url(#pac71ffe58e)" style="fill: none; stroke-dasharray: 1.85,0.8; stroke-dashoffset: 0; stroke: #b2b2b2; stroke-opacity: 0.3; stroke-width: 0.5"/>
     </g>
     <g id="line2d_20">
      <g>
       <use xlink:href="#mf7b62b1e18" x="33.23125" y="64.784892" style="stroke: #000000; stroke-width: 0.8"/>
      </g>
     </g>
     <g id="text_11">
      <!-- 6 -->
      <g transform="translate(25.23125 67.878642) scale(0.09 -0.09)">
       <defs>
        <path id="SimHei-36" d="M 250 1612 
Q 275 1975 387 2225 
Q 500 2475 725 2850 
L 1750 4450 
L 2325 4450 
L 1275 2800 
Q 1950 2975 2350 2750 
Q 2750 2525 2887 2237 
Q 3025 1950 3037 1612 
Q 3050 1275 2937 950 
Q 2825 625 2537 362 
Q 2250 100 1737 75 
Q 1225 50 862 262 
Q 500 475 362 862 
Q 225 1250 250 1612 
z
M 1025 787 
Q 1250 550 1625 525 
Q 2000 500 2250 775 
Q 2500 1050 2500 1575 
Q 2500 2100 2187 2300 
Q 1875 2500 1487 2450 
Q 1100 2400 925 2075 
Q 750 1750 775 1387 
Q 800 1025 1025 787 
z
" transform="scale(0.015625)"/>
       </defs>
       <use xlink:href="#SimHei-36"/>
      </g>
     </g>
    </g>
    <g id="text_12">
     <!-- 残差值 -->
     <g transform="translate(15.403125 224.88125) rotate(-90) scale(0.1 -0.1)">
      <defs>
       <path id="SimHei-6b8b" d="M 5700 3350 
Q 5325 3300 4900 3225 
Q 4475 3150 4075 3075 
Q 4100 2700 4150 2325 
Q 4625 2425 4987 2500 
Q 5350 2575 5925 2725 
L 6000 2250 
Q 5775 2225 5300 2137 
Q 4825 2050 4200 1900 
Q 4300 1375 4475 1075 
Q 5025 1500 5325 1950 
Q 5525 1750 5800 1550 
Q 5550 1425 5350 1237 
Q 5150 1050 4675 650 
Q 5000 200 5275 37 
Q 5550 -125 5600 -12 
Q 5650 100 5625 525 
Q 5825 325 6175 300 
Q 6125 -850 5450 -587 
Q 4775 -325 4275 400 
Q 3950 150 3537 -75 
Q 3125 -300 2625 -525 
Q 2475 -250 2250 -100 
Q 2775 50 3200 262 
Q 3625 475 4075 775 
Q 3850 1225 3750 1800 
Q 3100 1675 2700 1525 
L 2575 2025 
Q 3300 2125 3700 2225 
Q 3650 2600 3625 3000 
Q 3225 2950 2800 2850 
L 2675 3325 
Q 3150 3375 3600 3450 
Q 3575 3925 3550 4275 
Q 3525 4625 3475 5125 
Q 3775 5075 4050 5075 
Q 4025 4700 4012 4412 
Q 4000 4125 4050 3525 
Q 5200 3725 5625 3850 
L 5700 3350 
z
M 2125 4650 
Q 2450 4650 2800 4675 
L 2800 4175 
Q 2450 4200 2125 4200 
L 1675 4200 
Q 1550 3700 1425 3225 
L 2600 3225 
Q 2525 2500 2400 1925 
Q 2275 1350 2050 925 
Q 1825 500 1512 137 
Q 1200 -225 675 -625 
Q 525 -400 250 -225 
Q 700 25 1037 375 
Q 1375 725 1575 1075 
Q 1275 1450 950 1750 
Q 1125 1900 1250 2100 
Q 1550 1825 1800 1550 
Q 2025 2175 2075 2775 
L 1300 2775 
Q 1125 2375 987 2150 
Q 850 1925 550 1525 
Q 350 1825 200 1925 
Q 575 2300 825 2862 
Q 1075 3425 1200 4200 
Q 775 4200 375 4175 
L 375 4675 
Q 750 4650 1075 4650 
L 2125 4650 
z
M 4825 4975 
Q 5150 4575 5425 4175 
Q 5125 4050 4975 3900 
Q 4750 4325 4400 4700 
Q 4600 4825 4825 4975 
z
" transform="scale(0.015625)"/>
       <path id="SimHei-5dee" d="M 4725 4975 
Q 4500 4725 4250 4275 
L 4850 4275 
Q 5450 4275 5825 4300 
L 5825 3850 
Q 5425 3875 4850 3875 
L 3275 3875 
Q 3225 3600 3150 3275 
L 4525 3275 
Q 5075 3275 5525 3300 
L 5525 2850 
Q 5075 2875 4500 2875 
L 3050 2875 
Q 2975 2650 2850 2325 
L 5125 2325 
Q 5675 2325 6025 2350 
L 6025 1900 
Q 5700 1925 5150 1925 
L 2650 1925 
Q 2425 1550 2250 1300 
Q 2650 1275 3100 1275 
L 4525 1275 
Q 4975 1275 5350 1300 
L 5350 850 
Q 4975 875 4575 875 
L 3925 875 
L 3925 -50 
L 5000 -50 
Q 5200 -50 5900 -25 
L 5900 -500 
Q 5275 -475 5025 -475 
L 2100 -475 
Q 1700 -475 1400 -500 
L 1400 -25 
Q 1775 -50 2125 -50 
L 3425 -50 
L 3425 875 
L 3100 875 
Q 2625 875 2175 850 
L 2175 1200 
Q 1925 875 1487 475 
Q 1050 75 625 -250 
Q 425 -25 200 150 
Q 750 475 1262 925 
Q 1775 1375 2100 1925 
L 1325 1925 
Q 750 1925 375 1900 
L 375 2350 
Q 750 2325 1350 2325 
L 2325 2325 
Q 2450 2575 2550 2875 
L 1725 2875 
Q 1375 2875 1000 2850 
L 1000 3300 
Q 1500 3275 1700 3275 
L 2650 3275 
Q 2725 3575 2775 3875 
L 1500 3875 
Q 1100 3875 650 3850 
L 650 4300 
Q 1025 4275 1425 4275 
L 2275 4275 
Q 2075 4675 1850 4950 
Q 2025 5050 2250 5225 
Q 2450 4975 2725 4550 
Q 2525 4450 2325 4275 
L 3750 4275 
Q 4000 4700 4150 5250 
Q 4400 5100 4725 4975 
z
" transform="scale(0.015625)"/>
       <path id="SimHei-503c" d="M 3675 4450 
L 3675 5100 
Q 3975 5075 4350 5050 
Q 4225 4875 4200 4450 
L 5125 4450 
Q 5550 4450 5875 4475 
L 5875 4025 
Q 5525 4050 5125 4050 
L 4175 4050 
L 4125 3500 
L 5400 3500 
Q 5375 3200 5375 2700 
L 5375 150 
Q 5875 150 6100 175 
L 6100 -275 
Q 5775 -250 5200 -250 
L 2850 -250 
Q 2275 -250 1900 -275 
L 1900 175 
Q 2125 150 2600 150 
L 2600 2700 
Q 2600 3175 2575 3500 
L 3600 3500 
L 3650 4050 
L 3200 4050 
Q 2575 4050 2225 4025 
L 2225 4475 
Q 2550 4450 3200 4450 
L 3675 4450 
z
M 2225 4900 
Q 2025 4675 1650 3750 
L 1650 450 
Q 1650 -75 1675 -550 
L 1150 -550 
Q 1175 -125 1175 375 
L 1175 2950 
Q 875 2450 625 2150 
Q 425 2425 250 2575 
Q 500 2825 937 3537 
Q 1375 4250 1625 5150 
Q 1975 4975 2225 4900 
z
M 4925 2650 
L 4925 3150 
L 3075 3150 
L 3075 2650 
L 4925 2650 
z
M 4925 150 
L 4925 625 
L 3075 625 
L 3075 150 
L 4925 150 
z
M 4925 1000 
L 4925 1450 
L 3075 1450 
L 3075 1000 
L 4925 1000 
z
M 4925 1825 
L 4925 2275 
L 3075 2275 
L 3075 1825 
L 4925 1825 
z
" transform="scale(0.015625)"/>
      </defs>
      <use xlink:href="#SimHei-6b8b"/>
      <use xlink:href="#SimHei-5dee" transform="translate(100 0)"/>
      <use xlink:href="#SimHei-503c" transform="translate(200 0)"/>
     </g>
    </g>
   </g>
   <g id="line2d_21">
    <path d="M 63.799205 43.665341 
L 64.078237 288.578035 
L 64.357269 286.877366 
L 64.636301 292.000575 
L 64.915333 288.400861 
L 65.194364 290.928896 
L 65.473396 283.59349 
L 65.752428 289.767022 
L 66.03146 280.86083 
L 66.310492 295.967643 
L 66.589524 282.729454 
L 66.868556 287.344192 
L 67.147588 286.815905 
L 67.42662 286.641341 
L 67.705652 289.041442 
L 67.984684 283.349595 
L 68.542748 289.219476 
L 68.82178 292.026755 
L 69.100812 285.718392 
L 69.379844 274.680622 
L 69.658876 293.709441 
L 69.937908 289.260282 
L 70.21694 289.49867 
L 70.495972 275.148148 
L 70.775004 291.056077 
L 71.333068 283.448179 
L 71.6121 282.988682 
L 71.891132 298.03953 
L 72.170164 284.814641 
L 72.449196 290.026496 
L 72.728228 281.274948 
L 73.00726 291.574773 
L 73.286292 288.455551 
L 73.565324 289.425386 
L 73.844356 291.414385 
L 74.123388 289.377961 
L 74.40242 288.407739 
L 74.681452 285.098554 
L 74.960484 288.48921 
L 75.239516 281.671312 
L 75.518548 294.835077 
L 75.79758 288.625493 
L 76.076612 293.291704 
L 76.355644 286.30887 
L 76.634676 283.027753 
L 76.913708 284.643056 
L 77.19274 287.520001 
L 77.471772 292.144935 
L 77.750804 278.810767 
L 78.029836 288.85868 
L 78.308868 290.273776 
L 78.5879 285.081523 
L 78.866932 288.930463 
L 79.145964 274.819986 
L 79.424996 277.40061 
L 79.704028 286.877445 
L 79.98306 289.434363 
L 80.262092 278.238918 
L 80.541124 281.451809 
L 80.820156 288.462628 
L 81.099188 291.385402 
L 81.37822 283.070909 
L 81.657252 279.987209 
L 81.936284 287.714578 
L 82.215316 288.554186 
L 82.494348 285.40641 
L 82.77338 288.226099 
L 83.052412 293.026093 
L 83.610476 284.683369 
L 84.16854 290.495553 
L 84.726604 284.162125 
L 85.005636 286.984682 
L 85.284668 287.775078 
L 85.842732 288.160676 
L 86.121764 286.792059 
L 86.400796 291.429853 
L 86.679828 290.668922 
L 86.95886 279.600218 
L 87.516924 288.758753 
L 87.795956 287.754283 
L 88.074988 291.607292 
L 88.35402 288.509104 
L 88.633052 282.544554 
L 88.912084 284.442665 
L 89.191116 287.516247 
L 89.470148 287.588203 
L 89.74918 288.112301 
L 90.028212 287.933437 
L 90.307244 286.524305 
L 90.586276 283.590772 
L 90.865308 288.213776 
L 91.14434 287.812977 
L 91.423372 285.243521 
L 91.702404 287.291731 
L 91.981436 285.782178 
L 92.260468 286.653265 
L 92.5395 286.922944 
L 92.818532 286.82771 
L 93.097564 291.568558 
L 93.376596 282.423657 
L 93.655628 287.883016 
L 93.93466 286.85281 
L 94.213691 291.09773 
L 94.492723 284.597008 
L 94.771755 288.793096 
L 95.050787 288.807458 
L 95.329819 286.385583 
L 95.608851 287.095832 
L 95.887883 286.886612 
L 96.166915 288.242417 
L 96.445947 290.218648 
L 96.724979 298.067303 
L 97.004011 283.050172 
L 97.283043 283.713859 
L 97.562075 285.184128 
L 97.841107 290.081725 
L 98.120139 288.323232 
L 98.399171 282.099757 
L 98.678203 284.443387 
L 98.957235 289.900892 
L 99.236267 287.063184 
L 99.515299 288.951827 
L 99.794331 284.411212 
L 100.073363 289.082175 
L 100.352395 286.315557 
L 100.631427 287.053213 
L 100.910459 285.600549 
L 101.189491 288.836471 
L 101.468523 286.460965 
L 101.747555 288.895695 
L 102.026587 284.893375 
L 102.305619 288.255075 
L 102.584651 285.654704 
L 102.863683 287.180657 
L 103.142715 290.772967 
L 103.421747 283.995256 
L 103.700779 287.569528 
L 103.979811 288.028094 
L 104.258843 288.993181 
L 104.537875 289.071038 
L 104.816907 284.972286 
L 105.095939 288.431566 
L 105.374971 287.637306 
L 105.654003 290.000105 
L 105.933035 285.602055 
L 106.212067 285.853314 
L 106.491099 290.797213 
L 106.770131 285.888363 
L 107.049163 287.569579 
L 107.328195 287.616696 
L 107.607227 287.824119 
L 107.886259 288.469894 
L 108.165291 286.335979 
L 108.444323 287.693443 
L 108.723355 285.892071 
L 109.002387 287.999832 
L 109.281419 287.831478 
L 109.560451 286.208714 
L 110.118515 287.826038 
L 110.397547 286.251107 
L 110.676579 288.761741 
L 110.955611 286.833718 
L 111.234643 288.079168 
L 111.513675 287.213971 
L 111.792707 288.233409 
L 112.071739 287.438782 
L 112.350771 287.479004 
L 112.629803 287.371711 
L 112.908835 288.191243 
L 113.187867 287.496595 
L 113.466899 284.084201 
L 113.745931 289.012843 
L 114.024963 287.317981 
L 114.303995 284.023406 
L 114.583027 284.657065 
L 114.862059 289.067163 
L 115.141091 286.773755 
L 115.420123 288.013587 
L 115.699155 285.105726 
L 116.257219 288.473829 
L 116.536251 296.259201 
L 117.094315 284.788877 
L 117.373347 288.059237 
L 117.652379 281.794827 
L 117.931411 283.349091 
L 118.210443 287.972049 
L 118.489475 287.224623 
L 118.768507 285.630943 
L 119.047539 285.734588 
L 119.326571 286.576085 
L 119.605603 285.739233 
L 119.884635 288.288392 
L 120.163667 286.336044 
L 120.442699 287.190593 
L 120.721731 286.401766 
L 121.000763 288.192186 
L 121.279795 285.658967 
L 121.558827 285.794762 
L 121.837859 286.26188 
L 122.116891 289.472758 
L 122.395923 285.629283 
L 122.674955 287.45329 
L 122.953987 285.73279 
L 123.233018 286.129191 
L 123.51205 288.160009 
L 123.791082 288.884756 
L 124.070114 290.555693 
L 124.349146 284.320473 
L 124.628178 287.298265 
L 124.90721 287.07267 
L 125.186242 292.614731 
L 125.465274 284.779318 
L 125.744306 287.201505 
L 126.023338 287.538632 
L 126.581402 291.998793 
L 127.139466 281.998862 
L 127.418498 290.774756 
L 127.976562 287.997914 
L 128.255594 284.478568 
L 128.534626 287.986965 
L 128.813658 286.997214 
L 129.09269 287.769864 
L 129.371722 285.307202 
L 129.650754 288.697852 
L 129.929786 287.977952 
L 130.208818 284.499602 
L 130.766882 288.837503 
L 131.045914 287.149869 
L 131.324946 289.073076 
L 131.603978 285.81482 
L 131.88301 288.207132 
L 132.162042 283.68702 
L 132.720106 287.855536 
L 132.999138 290.286353 
L 133.557202 286.434494 
L 133.836234 287.004389 
L 134.115266 285.939661 
L 134.394298 289.985125 
L 134.952362 284.645097 
L 135.231394 284.337269 
L 135.510426 287.543563 
L 135.789458 288.683917 
L 136.06849 286.722466 
L 136.347522 282.05237 
L 136.626554 292.837356 
L 136.905586 282.593254 
L 137.184618 287.534017 
L 137.46365 288.126095 
L 137.742682 284.859515 
L 138.021714 290.116923 
L 138.300746 284.158934 
L 138.579778 288.565721 
L 138.85881 289.753527 
L 139.416874 284.149361 
L 139.695906 286.055339 
L 139.974938 289.056691 
L 140.25397 287.289721 
L 140.533002 287.431249 
L 140.812034 288.699333 
L 141.091066 285.88174 
L 141.370098 286.1913 
L 141.64913 286.973612 
L 141.928162 286.87488 
L 142.207194 287.982095 
L 142.486226 296.193351 
L 142.765258 277.509363 
L 143.04429 280.66677 
L 143.323322 288.50622 
L 143.602354 287.898819 
L 143.881386 290.612139 
L 144.160418 286.17163 
L 144.43945 284.972054 
L 144.718482 292.296127 
L 144.997514 291.398779 
L 145.276546 279.529222 
L 146.113642 292.616779 
L 146.392674 287.553244 
L 146.671706 291.569346 
L 146.950738 279.366873 
L 147.22977 287.590869 
L 147.787834 284.853064 
L 148.066866 286.868944 
L 148.345898 292.49958 
L 148.62493 286.161788 
L 148.903962 286.296296 
L 149.182994 286.201814 
L 149.462026 285.650088 
L 149.741058 289.52836 
L 150.02009 296.301366 
L 150.299122 272.308459 
L 150.578154 286.996785 
L 150.857186 295.086145 
L 151.136218 285.912156 
L 151.41525 284.851468 
L 151.694282 288.817176 
L 151.973314 282.358764 
L 152.252345 285.6587 
L 152.531377 285.825761 
L 153.089441 285.820162 
L 153.368473 287.468379 
L 153.647505 286.92722 
L 153.926537 285.202795 
L 154.205569 286.791666 
L 154.484601 286.777508 
L 154.763633 287.258818 
L 155.042665 286.297457 
L 155.321697 286.750642 
L 155.600729 287.972408 
L 155.879761 288.273238 
L 156.158793 287.231387 
L 156.437825 288.663256 
L 156.716857 285.373582 
L 156.995889 284.721474 
L 157.274921 287.810981 
L 157.553953 287.153015 
L 157.832985 286.085593 
L 158.112017 286.726318 
L 158.391049 286.870461 
L 158.670081 287.391815 
L 158.949113 285.413222 
L 159.228145 288.162527 
L 159.507177 285.900113 
L 159.786209 288.820641 
L 160.065241 292.912365 
L 160.344273 286.815963 
L 160.623305 285.110896 
L 160.902337 285.475367 
L 161.181369 284.178221 
L 161.460401 286.323305 
L 161.739433 290.533163 
L 162.018465 287.660754 
L 162.297497 287.955672 
L 162.576529 286.38353 
L 162.855561 287.752488 
L 163.134593 286.446088 
L 163.413625 287.244495 
L 163.692657 288.856176 
L 163.971689 288.560284 
L 164.250721 285.263392 
L 164.529753 288.902435 
L 164.808785 288.372913 
L 165.087817 283.414652 
L 165.366849 280.555264 
L 165.645881 289.918333 
L 165.924913 291.030682 
L 166.203945 289.291946 
L 166.482977 283.527823 
L 166.762009 281.865297 
L 167.320073 291.85481 
L 167.599105 288.54293 
L 167.878137 283.252824 
L 168.157169 287.276707 
L 168.436201 289.578334 
L 168.715233 290.203072 
L 168.994265 282.449756 
L 169.552329 286.830738 
L 169.831361 287.684859 
L 170.110393 289.287797 
L 170.389425 283.705279 
L 170.947489 289.54188 
L 171.226521 287.827442 
L 171.505553 287.7576 
L 172.063617 289.858725 
L 172.342649 284.434074 
L 172.621681 286.533086 
L 172.900713 286.476945 
L 173.179745 285.601984 
L 173.458777 289.377609 
L 174.016841 287.338455 
L 174.574905 278.709738 
L 174.853937 288.612588 
L 175.132969 288.829855 
L 175.412001 285.8936 
L 175.970065 287.360073 
L 176.249097 289.71039 
L 176.528129 287.064077 
L 176.807161 287.610317 
L 177.086193 288.833578 
L 177.365225 289.113492 
L 177.644257 287.13843 
L 178.481353 290.449501 
L 178.760385 288.585373 
L 179.039417 289.268383 
L 179.597481 287.454258 
L 179.876513 288.39142 
L 180.155545 288.368998 
L 180.434577 286.087228 
L 180.713609 274.371848 
L 180.992641 284.087896 
L 181.271672 288.668772 
L 181.550704 286.505351 
L 182.108768 287.321337 
L 182.3878 285.308036 
L 182.945864 287.010389 
L 183.224896 285.402135 
L 183.503928 286.024037 
L 183.78296 286.354154 
L 184.061992 278.86054 
L 184.341024 290.021954 
L 184.620056 287.295105 
L 184.899088 288.61684 
L 185.17812 285.074763 
L 185.736184 288.721888 
L 186.015216 288.336737 
L 186.294248 288.335008 
L 186.57328 290.390908 
L 186.852312 290.072069 
L 187.131344 281.414791 
L 187.410376 288.532293 
L 187.689408 287.216029 
L 187.96844 287.822329 
L 188.247472 286.398712 
L 188.526504 286.174995 
L 188.805536 286.666552 
L 189.084568 288.138493 
L 189.3636 287.450586 
L 189.642632 287.756258 
L 189.921664 287.892801 
L 190.200696 287.88028 
L 190.479728 287.148852 
L 190.75876 290.004099 
L 191.037792 288.964017 
L 191.316824 286.139484 
L 191.595856 286.667903 
L 191.874888 292.059252 
L 192.15392 291.02603 
L 192.711984 286.860139 
L 192.991016 288.456233 
L 193.270048 284.135491 
L 194.107144 289.249082 
L 194.386176 287.629766 
L 194.665208 284.745816 
L 195.223272 287.839919 
L 195.502304 289.456424 
L 195.781336 284.492978 
L 196.3394 290.730381 
L 196.897464 283.555555 
L 197.176496 285.110019 
L 197.455528 289.326291 
L 197.73456 288.476109 
L 198.013592 285.674639 
L 198.292624 284.991059 
L 198.850688 288.606194 
L 199.12972 286.241038 
L 199.408752 287.676958 
L 199.687784 287.275999 
L 199.966816 288.153585 
L 200.245848 288.017309 
L 200.52488 289.664506 
L 200.803912 287.415607 
L 201.082944 288.489139 
L 201.361976 287.051735 
L 201.641008 287.873449 
L 201.92004 286.831567 
L 202.199072 287.823252 
L 202.478104 287.3335 
L 202.757136 283.288202 
L 203.036168 284.682953 
L 203.3152 287.105913 
L 203.594232 288.16487 
L 203.873264 287.860713 
L 204.152296 285.822188 
L 204.431328 287.590217 
L 204.71036 286.91606 
L 204.989392 288.032173 
L 205.268424 286.691802 
L 205.547456 289.354505 
L 205.826488 289.707543 
L 206.384552 287.008788 
L 206.663584 287.814757 
L 206.942616 279.838392 
L 207.221648 291.974904 
L 207.50068 290.48582 
L 208.058744 285.354647 
L 208.337776 288.223116 
L 208.616808 287.067266 
L 208.89584 289.350632 
L 209.174872 288.706584 
L 209.453904 288.843822 
L 209.732936 285.951635 
L 210.011968 289.89216 
L 210.290999 289.888684 
L 210.570031 284.247837 
L 210.849063 287.771368 
L 211.128095 288.986097 
L 211.407127 285.894641 
L 211.686159 292.735995 
L 211.965191 282.733557 
L 212.244223 287.790069 
L 212.523255 287.288705 
L 212.802287 287.265683 
L 213.081319 287.490626 
L 213.360351 285.136957 
L 213.639383 288.771679 
L 213.918415 288.693224 
L 214.476479 285.060058 
L 214.755511 285.100008 
L 215.034543 288.411751 
L 215.313575 286.203875 
L 215.592607 286.151944 
L 215.871639 286.338421 
L 216.150671 288.020909 
L 216.429703 287.766935 
L 216.708735 287.014463 
L 216.987767 285.508132 
L 217.266799 288.839205 
L 217.545831 287.029274 
L 218.103895 288.059883 
L 218.382927 287.91628 
L 218.661959 286.39567 
L 219.220023 288.060155 
L 219.499055 287.106511 
L 220.057119 287.938976 
L 220.336151 284.903452 
L 220.615183 289.527603 
L 220.894215 287.37295 
L 221.173247 286.774285 
L 221.452279 287.211269 
L 221.731311 288.153931 
L 222.010343 290.482404 
L 222.289375 284.423826 
L 222.568407 288.603738 
L 222.847439 285.224083 
L 223.126471 288.321148 
L 223.405503 286.88743 
L 223.684535 284.601035 
L 223.963567 291.649543 
L 224.242599 286.162636 
L 224.521631 287.774101 
L 224.800663 286.470911 
L 225.079695 288.487671 
L 225.358727 285.24207 
L 225.637759 288.833957 
L 225.916791 286.429376 
L 226.195823 287.320291 
L 226.474855 288.666888 
L 226.753887 288.221467 
L 227.032919 282.491237 
L 227.311951 287.693563 
L 227.590983 290.667683 
L 227.870015 287.332099 
L 228.149047 285.501495 
L 228.428079 267.964898 
L 228.707111 269.501615 
L 228.986143 280.771539 
L 229.265175 284.255521 
L 229.544207 279.636745 
L 229.823239 284.691778 
L 230.102271 282.520456 
L 230.381303 281.250408 
L 230.939367 283.931949 
L 231.218399 284.753174 
L 231.497431 282.839829 
L 231.776463 285.601615 
L 232.055495 279.344659 
L 232.334527 284.926188 
L 232.613559 286.34651 
L 232.892591 285.048002 
L 233.171623 286.207354 
L 233.450655 283.742531 
L 233.729687 286.088456 
L 234.008719 286.394962 
L 234.287751 287.313374 
L 234.566783 287.34617 
L 234.845815 285.911167 
L 235.124847 283.457124 
L 235.403879 286.305191 
L 235.961943 288.010075 
L 236.240975 286.138278 
L 236.520007 285.981267 
L 236.799039 286.163363 
L 237.078071 287.024535 
L 237.636135 290.786735 
L 237.915167 284.578452 
L 238.194199 288.975358 
L 238.473231 300.303084 
L 238.752263 272.900828 
L 239.031295 286.550886 
L 239.310326 290.565709 
L 239.589358 297.202986 
L 239.86839 290.906777 
L 240.147422 287.201587 
L 240.426454 285.654522 
L 240.705486 286.458525 
L 240.984518 286.320512 
L 241.26355 287.051898 
L 241.542582 286.634077 
L 241.821614 284.870379 
L 242.100646 290.048211 
L 242.379678 290.890358 
L 242.65871 275.454095 
L 242.937742 287.066342 
L 243.216774 287.722011 
L 243.495806 288.811108 
L 243.774838 284.133214 
L 244.05387 282.654353 
L 244.332902 285.434542 
L 244.611934 287.05155 
L 245.169998 286.017394 
L 245.44903 288.449096 
L 245.728062 287.795016 
L 246.286126 284.369087 
L 246.565158 288.773199 
L 246.84419 285.895607 
L 247.123222 286.80972 
L 247.402254 286.433584 
L 247.681286 287.262514 
L 247.960318 284.543598 
L 248.23935 286.457319 
L 248.518382 286.639654 
L 249.076446 289.896288 
L 249.355478 283.101925 
L 249.63451 286.216955 
L 249.913542 286.698436 
L 250.192574 286.94757 
L 250.471606 288.418128 
L 250.750638 285.595334 
L 251.02967 286.734901 
L 251.308702 288.86886 
L 251.587734 294.29871 
L 251.866766 287.673039 
L 252.145798 288.469013 
L 252.42483 286.673781 
L 252.703862 287.943366 
L 252.982894 286.474879 
L 253.261926 286.46896 
L 253.540958 282.541495 
L 253.81999 288.281873 
L 254.099022 286.60459 
L 254.378054 286.526833 
L 254.657086 286.627181 
L 254.936118 285.723624 
L 255.21515 287.916823 
L 255.494182 285.660829 
L 255.773214 285.214211 
L 256.052246 288.670331 
L 256.331278 286.028964 
L 256.61031 285.77073 
L 256.889342 288.710403 
L 257.168374 283.533659 
L 257.447406 287.450209 
L 257.726438 286.609036 
L 258.00547 288.329457 
L 258.563534 285.911332 
L 258.842566 292.912385 
L 259.121598 280.662401 
L 259.40063 289.514062 
L 259.679662 285.232467 
L 259.958694 286.156224 
L 260.237726 292.601329 
L 260.516758 283.628065 
L 260.79579 283.720451 
L 261.074822 287.609693 
L 261.353854 288.164563 
L 261.632886 285.536511 
L 261.911918 286.700242 
L 262.19095 291.740373 
L 262.469982 287.068172 
L 262.749014 279.882625 
L 263.028046 286.283461 
L 263.307078 288.247341 
L 263.58611 287.94112 
L 263.865142 286.602943 
L 264.144174 287.002876 
L 264.423206 287.054389 
L 264.702238 285.71838 
L 264.98127 288.524833 
L 265.260302 287.329444 
L 265.539334 287.286884 
L 265.818366 288.439887 
L 266.097398 283.205411 
L 266.37643 290.112919 
L 266.655462 283.66998 
L 266.934494 286.50257 
L 267.213526 288.18273 
L 267.492558 286.826434 
L 267.77159 287.654588 
L 268.050621 285.939513 
L 268.329653 287.646524 
L 268.608685 287.44494 
L 269.166749 294.62475 
L 269.445781 290.22417 
L 269.724813 288.48774 
L 270.003845 285.574835 
L 270.282877 288.142185 
L 270.561909 282.176905 
L 270.840941 283.243805 
L 271.119973 287.561396 
L 271.399005 288.319012 
L 271.678037 286.472674 
L 271.957069 286.328219 
L 272.236101 288.01168 
L 272.515133 294.07407 
L 272.794165 292.419416 
L 273.352229 281.661636 
L 273.631261 283.305707 
L 274.189325 290.461272 
L 274.468357 284.332289 
L 274.747389 282.4319 
L 275.026421 277.014492 
L 275.305453 284.904653 
L 275.584485 288.590111 
L 275.863517 287.945099 
L 276.142549 281.722389 
L 276.421581 288.807121 
L 276.700613 288.721671 
L 276.979645 286.440469 
L 277.258677 291.299724 
L 277.537709 289.889652 
L 277.816741 287.655918 
L 278.095773 287.517382 
L 278.374805 290.649062 
L 278.653837 287.827822 
L 278.932869 286.865954 
L 279.211901 288.858269 
L 279.490933 285.755166 
L 279.769965 286.87345 
L 280.048997 288.862596 
L 280.328029 289.219852 
L 280.607061 284.262937 
L 280.886093 282.867872 
L 281.165125 295.138345 
L 281.723189 284.052703 
L 282.002221 289.01206 
L 282.281253 282.465361 
L 282.560285 282.829838 
L 282.839317 287.495697 
L 283.397381 286.419473 
L 283.676413 288.092982 
L 283.955445 283.175513 
L 284.513509 289.00306 
L 284.792541 286.097686 
L 285.071573 285.400725 
L 285.350605 288.457164 
L 285.908669 285.003328 
L 286.187701 288.06457 
L 286.466733 284.032212 
L 286.745765 288.184928 
L 287.024797 285.448158 
L 287.303829 290.13634 
L 287.582861 290.92551 
L 287.861893 285.918244 
L 288.140925 285.111972 
L 288.419957 286.776524 
L 288.698989 289.972718 
L 288.978021 288.043419 
L 289.257053 288.870209 
L 289.536085 284.679433 
L 289.815117 289.819681 
L 290.094149 286.487391 
L 290.652213 288.111755 
L 290.931245 287.412102 
L 291.210277 291.795086 
L 291.489309 292.11857 
L 291.768341 280.987381 
L 292.047373 287.884572 
L 292.326405 286.202566 
L 292.605437 287.667269 
L 292.884469 286.91555 
L 293.163501 285.016916 
L 293.442533 294.753242 
L 293.721565 279.234519 
L 294.000597 288.48634 
L 294.279629 286.976381 
L 294.558661 288.617484 
L 294.837693 285.353954 
L 295.116725 286.492918 
L 295.395757 288.328246 
L 295.674789 288.352495 
L 295.953821 285.669838 
L 296.232853 290.341946 
L 296.511885 283.668773 
L 296.790917 286.667055 
L 297.34898 287.312006 
L 297.628012 287.666919 
L 297.907044 288.526143 
L 298.186076 286.753633 
L 298.465108 289.735986 
L 298.74414 288.716428 
L 299.023172 288.89687 
L 299.302204 285.018545 
L 299.860268 291.465464 
L 300.1393 283.22431 
L 300.418332 290.191969 
L 300.697364 290.448953 
L 300.976396 284.141145 
L 301.255428 288.493563 
L 301.53446 286.230409 
L 301.813492 287.021869 
L 302.092524 289.763683 
L 302.371556 288.460425 
L 302.650588 285.025998 
L 302.92962 284.395397 
L 303.208652 288.858274 
L 303.487684 286.576161 
L 303.766716 286.677638 
L 304.045748 285.463626 
L 304.32478 286.587092 
L 304.603812 287.005139 
L 304.882844 286.49902 
L 305.161876 288.478816 
L 305.440908 288.61033 
L 305.71994 286.314249 
L 305.998972 285.435817 
L 306.278004 288.971207 
L 306.557036 286.171561 
L 306.836068 289.700707 
L 307.1151 290.726332 
L 307.673164 286.102803 
L 307.952196 284.857629 
L 308.231228 289.189439 
L 308.51026 287.142137 
L 308.789292 287.541763 
L 309.068324 286.433088 
L 309.347356 288.438504 
L 309.626388 296.149699 
L 309.90542 288.393659 
L 310.184452 287.661721 
L 310.463484 291.070557 
L 310.742516 289.85825 
L 311.021548 282.949412 
L 311.30058 285.89319 
L 311.858644 288.323427 
L 312.137676 288.451188 
L 312.416708 283.505596 
L 312.69574 288.794458 
L 312.974772 288.809503 
L 313.253804 284.788423 
L 313.532836 286.062112 
L 313.811868 288.950518 
L 314.369932 285.553604 
L 314.648964 286.957647 
L 314.927996 286.881143 
L 315.48606 287.18398 
L 315.765092 293.352723 
L 316.044124 281.877463 
L 316.323156 294.115436 
L 316.602188 287.467174 
L 316.88122 283.578634 
L 317.160252 291.698987 
L 317.439284 289.438285 
L 317.718316 283.957405 
L 317.997348 291.480558 
L 318.555412 282.637653 
L 318.834444 290.299303 
L 319.113476 286.155636 
L 319.392508 285.160134 
L 319.67154 286.208216 
L 319.950572 288.359606 
L 320.229604 285.814304 
L 320.508636 287.477613 
L 320.787668 284.965433 
L 321.0667 285.524063 
L 321.345732 301.179578 
L 321.624764 288.566437 
L 321.903796 290.831717 
L 322.182828 282.876902 
L 322.740892 294.458551 
L 323.019924 284.338413 
L 323.298956 286.807746 
L 323.577988 287.047481 
L 323.85702 287.612127 
L 324.136052 292.740986 
L 324.415084 282.344718 
L 324.694116 284.466221 
L 324.973148 288.619188 
L 325.25218 287.233852 
L 325.531212 287.928493 
L 325.810244 289.543646 
L 326.089275 282.494551 
L 326.368307 284.930207 
L 326.647339 290.346851 
L 326.926371 285.557062 
L 327.205403 286.143089 
L 327.484435 285.207913 
L 327.763467 290.431582 
L 328.042499 282.905286 
L 328.321531 286.371811 
L 328.600563 291.682676 
L 328.879595 287.021772 
L 329.158627 284.902685 
L 329.716691 286.202499 
L 329.995723 287.74398 
L 330.274755 292.84636 
L 330.553787 283.880247 
L 330.832819 286.357058 
L 331.111851 287.831475 
L 331.390883 288.159634 
L 331.669915 286.975308 
L 331.948947 290.326898 
L 332.227979 284.073373 
L 332.507011 287.065383 
L 332.786043 287.898188 
L 333.065075 285.250251 
L 333.623139 287.526387 
L 333.902171 284.870662 
L 334.181203 286.141148 
L 334.460235 284.751307 
L 334.739267 285.358212 
L 335.297331 287.57417 
L 335.576363 289.415007 
L 335.855395 287.08242 
L 336.134427 289.004191 
L 336.413459 287.604378 
L 336.692491 317.787628 
L 336.971523 260.824395 
L 337.250555 288.333777 
L 337.529587 282.417217 
L 337.808619 293.48412 
L 338.366683 282.039525 
L 338.645715 287.093914 
L 338.924747 289.287799 
L 339.203779 294.817656 
L 339.482811 285.638218 
L 339.761843 283.411527 
L 340.040875 289.757019 
L 340.319907 289.343163 
L 340.598939 286.74926 
L 340.877971 285.71615 
L 341.157003 285.647082 
L 341.436035 288.331321 
L 341.715067 288.115828 
L 342.273131 283.237836 
L 342.552163 288.302304 
L 342.831195 283.537368 
L 343.110227 286.002794 
L 343.389259 289.726305 
L 343.668291 288.726306 
L 343.947323 288.926266 
L 344.226355 286.365245 
L 344.505387 287.667712 
L 344.784419 283.082738 
L 345.063451 286.356398 
L 345.621515 289.373213 
L 345.900547 282.753766 
L 346.179579 286.756162 
L 346.458611 287.648019 
L 346.737643 286.361663 
L 347.016675 327.963875 
L 347.295707 268.266933 
L 347.574739 291.790161 
L 347.853771 288.894555 
L 348.132803 292.665567 
L 348.411835 286.091992 
L 348.690867 285.138209 
L 348.969899 286.081404 
L 349.248931 284.455683 
L 349.527963 285.241532 
L 349.806995 289.479919 
L 350.086027 279.267476 
L 350.365059 290.08649 
L 350.644091 285.231703 
L 350.923123 286.726308 
L 351.202155 285.431561 
L 351.481187 285.202345 
L 351.760219 286.187655 
L 352.039251 285.908042 
L 352.318283 284.193089 
L 352.597315 286.59532 
L 352.876347 286.325166 
L 353.155379 284.270517 
L 353.434411 284.441212 
L 353.713443 281.887077 
L 353.992475 286.864911 
L 354.271507 283.514516 
L 354.550539 288.46815 
L 354.829571 286.938573 
L 355.108602 282.0078 
L 355.387634 287.852653 
L 355.945698 291.180905 
L 356.22473 285.775229 
L 356.503762 288.598851 
L 356.782794 288.009947 
L 357.061826 280.964675 
L 357.61989 287.591521 
L 357.898922 285.511261 
L 358.177954 286.249088 
L 358.456986 285.139392 
L 359.01505 287.706286 
L 359.294082 284.839276 
L 359.573114 287.447597 
L 359.852146 287.778387 
L 360.131178 288.356685 
L 360.41021 278.961653 
L 360.689242 291.187461 
L 360.968274 284.43595 
L 361.247306 286.719072 
L 361.80537 288.321618 
L 362.084402 287.873022 
L 362.363434 282.824113 
L 362.642466 288.259209 
L 362.921498 287.293489 
L 363.20053 289.719401 
L 363.479562 282.377011 
L 363.758594 290.163785 
L 364.037626 287.173799 
L 364.316658 286.494691 
L 364.59569 287.138489 
L 364.874722 284.912223 
L 365.153754 287.402129 
L 365.432786 291.805573 
L 365.711818 280.050497 
L 365.99085 287.584045 
L 366.269882 287.705983 
L 366.548914 287.304525 
L 366.827946 288.546891 
L 367.106978 282.12515 
L 367.38601 289.391507 
L 367.665042 287.161361 
L 367.944074 288.146375 
L 368.223106 284.631186 
L 368.502138 285.885855 
L 368.78117 292.072586 
L 369.060202 301.566955 
L 369.339234 285.648214 
L 369.618266 279.881097 
L 369.897298 287.996572 
L 370.17633 285.206875 
L 370.455362 292.205992 
L 370.734394 290.678735 
L 371.013426 287.082033 
L 371.292458 288.411329 
L 371.57149 288.676236 
L 371.850522 287.285105 
L 372.129554 286.754271 
L 372.408586 278.121568 
L 372.687618 284.64766 
L 372.96665 288.137388 
L 373.245682 284.533024 
L 373.524714 288.055884 
L 373.803746 289.87104 
L 374.082778 286.397449 
L 374.36181 285.34327 
L 374.640842 288.835515 
L 374.919874 306.187884 
L 375.198906 260.519709 
L 375.477938 286.28462 
L 375.75697 291.127146 
L 376.036002 290.158888 
L 376.315034 283.722469 
L 376.594066 279.940584 
L 376.873098 298.420892 
L 377.15213 294.092126 
L 377.431162 276.936091 
L 377.989226 288.115405 
L 378.268258 288.60817 
L 378.54729 291.508433 
L 378.826322 277.929377 
L 379.105354 292.842968 
L 379.384386 283.588373 
L 379.663418 289.129233 
L 379.94245 284.167448 
L 380.221482 284.862911 
L 380.500514 288.151588 
L 380.779546 288.925669 
L 381.058578 288.522747 
L 381.616642 284.962477 
L 381.895674 284.835845 
L 382.174706 283.798565 
L 382.453738 290.86492 
L 382.73277 287.922697 
L 383.011802 281.203431 
L 383.290834 287.543033 
L 383.569866 288.596705 
L 384.127929 282.432213 
L 384.406961 286.01081 
L 384.685993 287.605597 
L 384.965025 287.291136 
L 385.244057 287.222737 
L 385.523089 286.691788 
L 385.802121 288.776974 
L 386.081153 288.898936 
L 386.360185 287.47417 
L 386.639217 285.184593 
L 386.918249 291.424137 
L 387.197281 292.817965 
L 387.476313 290.844152 
L 387.755345 279.728501 
L 388.034377 289.346622 
L 388.313409 289.042475 
L 388.592441 287.330391 
L 388.871473 286.861912 
L 389.150505 288.778025 
L 389.429537 289.309447 
L 389.708569 290.456109 
L 389.987601 288.039788 
L 390.266633 290.862469 
L 390.545665 287.25665 
L 390.824697 287.05392 
L 391.103729 288.049451 
L 391.382761 290.435804 
L 391.661793 286.102716 
L 391.940825 288.991674 
L 392.219857 290.015771 
L 392.498889 292.776173 
L 392.777921 284.619571 
L 393.056953 287.632101 
L 393.335985 284.702839 
L 393.615017 287.962193 
L 393.894049 292.670556 
L 394.173081 288.725686 
L 394.452113 283.176489 
L 394.731145 288.545741 
L 395.289209 283.464297 
L 395.847273 290.149507 
L 396.126305 282.27647 
L 396.405337 280.992723 
L 396.684369 287.627111 
L 396.963401 288.247522 
L 397.242433 288.589851 
L 397.521465 286.377811 
L 397.800497 289.702979 
L 398.079529 289.552743 
L 398.358561 290.218882 
L 398.637593 282.972764 
L 398.916625 287.032865 
L 399.195657 294.067101 
L 399.474689 284.104074 
L 399.753721 285.295606 
L 400.032753 287.833407 
L 400.311785 287.234676 
L 400.590817 289.011456 
L 401.148881 286.778863 
L 401.427913 287.871304 
L 401.706945 286.62288 
L 402.265009 288.439926 
L 402.544041 287.815663 
L 402.823073 292.04233 
L 403.102105 291.966908 
L 403.381137 288.687596 
L 403.660169 288.579965 
L 403.939201 286.149948 
L 404.218233 289.447954 
L 404.497265 290.952651 
L 404.776297 290.590754 
L 405.055329 285.18234 
L 405.334361 288.574543 
L 405.613393 287.28777 
L 405.892425 282.951298 
L 406.171457 291.177668 
L 406.450489 285.804995 
L 406.729521 285.325757 
L 407.008553 286.795205 
L 407.287585 285.178493 
L 407.566617 286.322638 
L 407.845649 284.768833 
L 408.124681 286.850494 
L 408.682745 292.995146 
L 408.961777 293.736349 
L 409.519841 281.345349 
L 409.798873 287.591656 
L 410.077905 287.233199 
L 410.356937 291.506044 
L 410.635969 293.30401 
L 410.915001 289.110843 
L 411.194033 287.708114 
L 411.473065 287.757492 
L 411.752097 291.273989 
L 412.031129 289.707516 
L 412.310161 286.702945 
L 412.589193 289.817883 
L 412.868225 287.524951 
L 413.147256 288.266581 
L 413.426288 283.076441 
L 413.70532 286.888605 
L 413.984352 287.126736 
L 414.263384 287.925024 
L 414.542416 296.913963 
L 414.821448 272.409112 
L 415.10048 296.759746 
L 415.379512 291.936536 
L 415.658544 273.390538 
L 415.937576 266.815066 
L 416.216608 290.911016 
L 416.49564 288.565723 
L 416.774672 283.762 
L 417.053704 286.583065 
L 417.332736 285.929238 
L 417.611768 283.795317 
L 418.169832 286.79606 
L 418.448864 282.186568 
L 418.727896 285.373591 
L 419.006928 284.928516 
L 419.28596 289.226554 
L 419.564992 280.321819 
L 419.844024 285.386324 
L 420.123056 285.157212 
L 420.402088 285.309245 
L 420.68112 289.286995 
L 420.960152 285.467723 
L 421.239184 289.196492 
L 421.518216 285.899122 
L 421.797248 290.58273 
L 422.07628 290.318947 
L 422.634344 288.205801 
L 422.913376 285.795345 
L 423.192408 291.852275 
L 423.47144 287.422823 
L 423.750472 289.387171 
L 424.029504 289.66437 
L 424.308536 291.841278 
L 424.587568 290.41838 
L 424.8666 290.584085 
L 425.145632 276.625051 
L 425.424664 287.905332 
L 425.703696 287.24583 
L 425.982728 288.203209 
L 426.26176 292.721023 
L 426.819824 285.493933 
L 427.098856 288.346039 
L 427.377888 280.270863 
L 427.935952 294.102287 
L 428.494016 283.743014 
L 428.773048 283.464827 
L 429.05208 289.087367 
L 429.610144 284.729461 
L 429.889176 289.564072 
L 430.168208 288.158434 
L 430.44724 288.019753 
L 430.726272 289.128 
L 431.005304 291.373714 
L 431.563368 284.152194 
L 431.8424 285.924552 
L 432.121432 293.436645 
L 432.400464 291.319605 
L 432.679496 278.422154 
L 432.958528 286.317052 
L 433.23756 288.979788 
L 433.516592 287.980717 
L 433.795624 283.221678 
L 434.074656 289.93027 
L 434.353688 291.51068 
L 434.63272 282.616644 
L 434.911752 291.927991 
L 435.190784 292.225701 
L 435.469816 285.221009 
L 435.748848 286.652409 
L 436.02788 282.980056 
L 436.306912 288.442999 
L 436.585944 286.373478 
L 436.864976 283.396163 
L 437.144008 290.335381 
L 437.42304 287.166552 
L 437.702072 282.243374 
L 438.260136 288.793601 
L 439.097232 280.837421 
L 439.376264 286.809092 
L 439.655296 286.538665 
L 439.934328 287.704208 
L 440.492392 285.640678 
L 440.771424 289.084132 
L 441.050456 286.016353 
L 441.329488 291.132011 
L 441.60852 290.070294 
L 441.887552 285.758742 
L 442.166583 285.411534 
L 442.445615 289.227424 
L 442.724647 287.464298 
L 443.003679 282.651745 
L 443.282711 288.034815 
L 443.561743 288.254076 
L 443.840775 285.904557 
L 444.119807 287.329957 
L 444.398839 337.194188 
L 444.677871 295.790785 
L 444.956903 294.555551 
L 445.235935 292.334116 
L 445.514967 299.611406 
L 445.793999 213.975936 
L 446.073031 275.103911 
L 446.352063 275.375237 
L 446.631095 279.62051 
L 446.910127 267.668283 
L 447.189159 274.534426 
L 447.747223 280.454675 
L 448.026255 267.370191 
L 448.305287 276.857861 
L 448.584319 279.86292 
L 448.863351 286.067049 
L 449.142383 278.70687 
L 449.421415 282.261673 
L 449.700447 281.392457 
L 449.979479 284.227904 
L 450.258511 283.952604 
L 450.537543 286.30463 
L 450.816575 284.975953 
L 451.095607 284.716626 
L 451.374639 284.262794 
L 451.653671 286.977926 
L 451.932703 285.390489 
L 452.769799 286.650268 
L 453.048831 285.768268 
L 453.327863 285.472134 
L 453.885927 288.144741 
L 454.164959 286.70256 
L 454.443991 287.231633 
L 454.723023 287.007508 
L 455.002055 287.385801 
L 455.281087 289.071827 
L 455.560119 288.492385 
L 455.839151 283.062365 
L 456.118183 292.129875 
L 456.676247 283.24152 
L 456.955279 291.348446 
L 457.234311 294.181132 
L 457.513343 293.399193 
L 457.792375 296.713009 
L 458.071407 289.907905 
L 458.350439 286.562691 
L 458.629471 281.723596 
L 458.908503 281.635352 
L 459.187535 286.007902 
L 459.466567 285.781654 
L 459.745599 287.654908 
L 460.024631 290.985708 
L 460.303663 288.012614 
L 460.582695 282.885535 
L 460.861727 286.887844 
L 461.140759 286.064165 
L 461.419791 291.033153 
L 461.698823 285.057594 
L 461.977855 287.353433 
L 462.256887 284.74745 
L 462.535919 289.183158 
L 463.093983 284.789146 
L 463.373015 282.963491 
L 463.652047 287.745578 
L 463.931079 286.070475 
L 464.210111 286.486196 
L 464.489143 285.067764 
L 464.768175 281.199347 
L 465.047207 285.773876 
L 465.326239 286.493143 
L 465.605271 286.133944 
L 465.884303 286.53359 
L 466.163335 285.59245 
L 466.442367 287.119654 
L 466.721399 285.527558 
L 467.000431 286.370089 
L 467.279463 286.618137 
L 467.558495 286.089509 
L 467.837527 287.286224 
L 468.116559 286.445036 
L 468.674623 289.774357 
L 468.953655 287.862484 
L 469.232687 288.632161 
L 469.511719 283.384976 
L 469.790751 290.945318 
L 470.069783 285.377115 
L 470.348815 291.544407 
L 470.627847 291.415747 
L 470.906879 290.606372 
L 471.18591 289.212636 
L 471.464942 289.424475 
L 471.743974 289.445374 
L 472.023006 287.327871 
L 472.302038 289.714458 
L 472.58107 287.19674 
L 472.860102 289.517724 
L 473.139134 286.607427 
L 473.418166 279.308167 
L 473.697198 283.800629 
L 473.97623 284.911147 
L 474.255262 285.030484 
L 474.534294 286.034425 
L 474.813326 284.024422 
L 475.092358 285.287842 
L 475.37139 285.759549 
L 475.650422 285.050755 
L 475.929454 286.550534 
L 476.208486 286.69318 
L 476.76655 285.508347 
L 477.045582 287.18701 
L 477.324614 285.731861 
L 477.603646 293.327972 
L 477.882678 296.39839 
L 478.16171 285.60437 
L 478.440742 288.342113 
L 478.719774 293.575377 
L 478.998806 295.823532 
L 479.277838 303.204477 
L 479.835902 282.244336 
L 480.114934 290.072707 
L 480.393966 287.347768 
L 480.672998 287.320811 
L 480.95203 289.478754 
L 481.231062 285.42531 
L 481.510094 290.112175 
L 481.789126 291.495969 
L 482.068158 292.054653 
L 482.34719 283.865141 
L 482.626222 287.048725 
L 482.905254 287.230864 
L 483.184286 292.540065 
L 483.463318 278.610037 
L 483.74235 287.07756 
L 484.021382 290.846119 
L 484.300414 283.597285 
L 484.858478 289.630393 
L 485.13751 288.066004 
L 485.416542 285.650537 
L 485.695574 286.061416 
L 485.974606 288.954451 
L 486.253638 287.150072 
L 486.53267 286.572714 
L 486.811702 285.502714 
L 487.369766 288.66524 
L 487.648798 286.956042 
L 487.92783 288.333337 
L 488.206862 283.437309 
L 488.485894 289.299836 
L 488.764926 273.33065 
L 489.043958 279.961187 
L 489.32299 281.805551 
L 489.602022 285.71298 
L 489.881054 284.465665 
L 490.160086 284.035476 
L 490.439118 288.018196 
L 490.71815 298.135614 
L 491.276214 284.555835 
L 491.555246 283.512778 
L 491.834278 284.024404 
L 492.11331 285.399419 
L 492.392342 281.912633 
L 492.671374 286.9422 
L 492.950406 284.833298 
L 493.229438 286.727271 
L 493.50847 285.892615 
L 493.787502 288.569136 
L 494.066534 294.038539 
L 494.345566 297.084892 
L 494.624598 287.549736 
L 494.90363 287.935852 
L 495.182662 290.265038 
L 495.461694 290.377927 
L 495.740726 291.786513 
L 496.019758 285.531753 
L 496.577822 287.234277 
L 496.856854 290.298412 
L 497.135886 286.364594 
L 497.414918 292.284412 
L 497.69395 279.441535 
L 497.972982 293.435523 
L 498.252014 287.15601 
L 498.531046 288.055632 
L 498.810078 286.34694 
L 499.08911 282.622659 
L 499.368142 293.789618 
L 499.926205 271.999792 
L 500.205237 287.878052 
L 500.484269 284.356779 
L 500.763301 285.228473 
L 501.042333 282.544311 
L 501.321365 286.864533 
L 501.600397 288.895436 
L 501.879429 292.432033 
L 502.437493 280.919444 
L 502.716525 287.48342 
L 503.274589 289.88159 
L 503.553621 288.507916 
L 503.832653 288.211433 
L 504.111685 288.945291 
L 504.390717 288.655818 
L 504.669749 290.196796 
L 504.948781 284.21821 
L 505.227813 295.070003 
L 505.506845 296.17983 
L 506.064909 280.456347 
L 506.343941 289.057328 
L 506.622973 292.020553 
L 507.181037 283.459424 
L 507.460069 285.181489 
L 507.739101 279.39816 
L 508.018133 281.149402 
L 508.576197 288.604766 
L 508.855229 288.721769 
L 509.134261 291.867072 
L 509.413293 288.807868 
L 509.692325 281.949352 
L 509.971357 285.542381 
L 510.808453 286.043491 
L 511.087485 288.476981 
L 511.366517 287.569843 
L 511.645549 290.731312 
L 511.924581 287.23659 
L 512.203613 289.75383 
L 512.482645 285.647135 
L 512.761677 288.778008 
L 513.040709 287.564743 
L 513.319741 292.478109 
L 513.877805 282.128325 
L 514.156837 290.897454 
L 514.435869 285.707822 
L 514.714901 286.71786 
L 514.993933 288.320385 
L 515.272965 287.070666 
L 515.551997 284.719051 
L 515.831029 286.837877 
L 516.110061 289.980236 
L 516.389093 284.944226 
L 516.668125 286.2901 
L 516.947157 278.067666 
L 517.226189 288.214593 
L 517.505221 286.40402 
L 517.784253 294.806418 
L 518.063285 298.664554 
L 518.342317 283.898233 
L 518.621349 283.302867 
L 518.900381 292.303029 
L 519.179413 287.244186 
L 519.458445 286.134157 
L 519.737477 286.309622 
L 520.016509 286.64929 
L 520.295541 287.644383 
L 520.574573 285.680431 
L 520.853605 285.884255 
L 521.132637 290.673786 
L 521.690701 280.700487 
L 522.248765 292.660395 
L 522.527797 285.499683 
L 522.806829 285.2316 
L 523.085861 289.086679 
L 523.364893 287.33169 
L 523.643925 288.534475 
L 523.922957 286.200762 
L 524.201989 288.05929 
L 524.481021 285.105182 
L 524.760053 289.138085 
L 525.039085 283.850178 
L 525.318117 287.696287 
L 525.597149 284.739452 
L 525.876181 291.39563 
L 526.155213 285.474964 
L 526.434245 286.593081 
L 526.713277 285.820739 
L 526.992309 287.448368 
L 527.271341 287.425481 
L 527.550373 285.406083 
L 527.829405 286.314336 
L 528.108437 288.229656 
L 528.387469 286.481902 
L 528.666501 287.397582 
L 528.945532 285.252368 
L 529.224564 289.437436 
L 529.782628 285.823208 
L 530.06166 286.312964 
L 530.340692 290.405617 
L 530.619724 288.801972 
L 530.898756 285.861716 
L 531.177788 285.402665 
L 531.735852 288.446321 
L 532.293916 282.630622 
L 532.572948 290.701426 
L 532.85198 286.145265 
L 533.131012 288.653475 
L 533.410044 285.804929 
L 533.689076 288.911226 
L 533.968108 284.871608 
L 534.24714 285.886219 
L 534.526172 289.51575 
L 534.805204 286.785906 
L 535.084236 285.478075 
L 535.363268 288.062796 
L 535.6423 283.325486 
L 536.200364 289.647875 
L 536.479396 288.750097 
L 536.758428 287.371441 
L 537.03746 286.729915 
L 537.316492 287.209118 
L 537.595524 288.069971 
L 537.874556 285.994224 
L 538.153588 285.279629 
L 538.43262 285.854996 
L 538.711652 287.51066 
L 538.990684 286.944751 
L 539.269716 287.776713 
L 539.548748 289.413657 
L 539.82778 285.767578 
L 540.106812 279.306695 
L 540.664876 302.039337 
L 540.943908 288.880684 
L 541.22294 283.616379 
L 541.501972 286.441936 
L 541.781004 285.172106 
L 542.060036 291.110221 
L 542.339068 284.300249 
L 542.6181 289.33604 
L 542.897132 280.25566 
L 543.176164 289.941332 
L 543.455196 289.880257 
L 543.734228 284.814314 
L 544.01326 286.008239 
L 544.292292 285.018823 
L 544.571324 283.41691 
L 544.850356 283.21058 
L 545.129388 288.393887 
L 545.40842 286.59375 
L 545.687452 286.02741 
L 545.966484 284.849147 
L 546.245516 285.957359 
L 546.524548 288.641864 
L 546.80358 289.383006 
L 547.082612 284.059625 
L 547.361644 288.214281 
L 547.640676 286.049031 
L 547.919708 285.204611 
L 548.19874 290.540829 
L 548.756804 284.994165 
L 549.035836 284.704043 
L 549.5939 287.466468 
L 549.872932 284.167213 
L 550.151964 286.026967 
L 550.430996 290.430064 
L 550.710028 297.708146 
L 551.268092 282.407231 
L 551.547124 287.612017 
L 551.826156 285.933989 
L 552.105188 289.677302 
L 552.38422 280.18784 
L 552.942284 295.032875 
L 553.500348 282.164026 
L 553.77938 284.879097 
L 554.058412 291.912221 
L 554.337444 285.356626 
L 554.616476 287.145791 
L 554.895508 284.296528 
L 555.17454 287.924563 
L 555.453572 284.626775 
L 555.732604 286.747842 
L 556.011636 284.810855 
L 556.290668 288.951652 
L 556.5697 285.745042 
L 556.848732 285.323019 
L 557.127764 285.582964 
L 557.406796 290.927341 
L 557.685828 282.987672 
L 557.964859 283.871295 
L 558.243891 286.903547 
L 558.522923 286.825302 
L 558.801955 291.417688 
L 559.080987 283.943642 
L 559.360019 288.969891 
L 559.918083 285.965137 
L 560.197115 287.316369 
L 560.476147 286.609221 
L 560.755179 287.798026 
L 561.034211 288.089383 
L 561.313243 284.051783 
L 561.592275 285.813423 
L 561.871307 290.264518 
L 562.150339 287.327096 
L 562.429371 285.795061 
L 562.708403 285.479115 
L 562.987435 286.961632 
L 563.266467 289.46813 
L 563.545499 285.876835 
L 563.824531 286.593154 
L 564.103563 288.477236 
L 564.382595 288.777855 
L 564.661627 283.60512 
L 564.940659 292.044119 
L 565.219691 284.321508 
L 565.498723 286.072092 
L 565.777755 285.151955 
L 566.056787 287.282727 
L 566.335819 285.100989 
L 566.614851 285.758155 
L 566.893883 287.680307 
L 567.172915 287.648281 
L 567.451947 285.493522 
L 567.730979 287.128179 
L 568.010011 284.653355 
L 568.289043 287.901475 
L 568.568075 287.17099 
L 568.847107 289.165114 
L 569.126139 283.486786 
L 569.405171 286.309083 
L 569.684203 287.24212 
L 569.963235 286.681491 
L 570.242267 286.724202 
L 570.521299 287.878817 
L 570.800331 286.680253 
L 571.079363 287.508862 
L 571.358395 286.570702 
L 571.637427 287.274409 
L 571.916459 287.619469 
L 572.195491 286.81818 
L 572.474523 286.642273 
L 572.753555 287.826384 
L 573.311619 286.109702 
L 573.590651 289.835841 
L 573.869683 286.536424 
L 574.148715 284.591603 
L 574.427747 285.551663 
L 574.706779 289.569011 
L 574.985811 291.502128 
L 575.264843 283.567283 
L 575.543875 289.38032 
L 575.822907 290.91291 
L 576.101939 289.049217 
L 576.380971 290.808497 
L 576.660003 285.665298 
L 576.939035 286.493294 
L 577.218067 281.662777 
L 577.497099 284.302865 
L 577.776131 284.669155 
L 578.055163 285.788079 
L 578.334195 285.223758 
L 578.613227 285.626371 
L 578.892259 286.679193 
L 579.171291 288.166221 
L 579.450323 288.506051 
L 579.729355 284.583734 
L 580.008387 283.780942 
L 580.287419 288.055017 
L 580.566451 287.444877 
L 580.845483 291.456514 
L 581.124515 281.9423 
L 581.403547 286.08574 
L 581.682579 287.515405 
L 581.961611 287.911522 
L 582.240643 286.89317 
L 582.519675 286.38692 
L 582.798707 286.412462 
L 583.077739 288.785694 
L 583.356771 287.759669 
L 583.914835 287.392676 
L 584.193867 296.87593 
L 584.472899 291.15236 
L 585.030963 286.889893 
L 585.309995 292.336186 
L 585.589027 286.985139 
L 585.868059 288.223245 
L 586.147091 288.229898 
L 586.426123 287.318821 
L 586.705155 288.325094 
L 586.984186 285.431509 
L 587.263218 290.819636 
L 587.54225 285.540514 
L 588.100314 286.666369 
L 588.379346 287.155157 
L 588.658378 285.684781 
L 588.93741 287.764951 
L 589.216442 280.066134 
L 589.495474 294.745224 
L 589.774506 293.911529 
L 590.053538 282.821433 
L 590.33257 285.769053 
L 590.611602 287.157826 
L 590.890634 289.387762 
L 591.448698 284.570685 
L 591.72773 289.324239 
L 592.285794 283.368499 
L 592.843858 288.846968 
L 593.12289 282.890336 
L 593.680954 286.73817 
L 594.239018 288.538946 
L 594.51805 291.926534 
L 594.797082 283.390737 
L 595.076114 283.271464 
L 595.355146 285.489095 
L 595.634178 286.790286 
L 595.91321 286.177102 
L 596.192242 286.329956 
L 596.471274 289.392759 
L 596.750306 299.186302 
L 597.029338 292.970684 
L 597.30837 290.5091 
L 597.587402 286.176696 
L 597.866434 288.087722 
L 598.145466 287.060843 
L 598.424498 286.761094 
L 598.70353 284.62135 
L 598.982562 285.061001 
L 599.261594 284.909199 
L 599.540626 286.00225 
L 599.819658 285.215909 
L 600.09869 288.573929 
L 600.377722 285.183715 
L 600.656754 286.966768 
L 600.935786 284.828225 
L 601.214818 286.885083 
L 601.49385 284.762166 
L 601.772882 287.439842 
L 602.051914 286.939957 
L 602.330946 285.49108 
L 602.609978 290.189341 
L 602.88901 287.406464 
L 603.168042 287.501572 
L 603.447074 290.529465 
L 603.726106 291.800225 
L 604.005138 284.786815 
L 604.28417 286.889908 
L 604.563202 286.935299 
L 604.842234 376.097159 
L 605.121266 301.9381 
L 605.400298 300.254419 
L 605.67933 296.661263 
L 605.958362 207.74015 
L 606.237394 289.075808 
L 606.516426 287.468537 
L 606.795458 290.990749 
L 607.07449 279.389984 
L 607.353522 280.515935 
L 607.632554 282.69321 
L 607.911586 281.950641 
L 608.190618 284.155054 
L 608.46965 279.53726 
L 608.748682 284.001835 
L 609.027714 283.969163 
L 609.306746 285.144984 
L 609.86481 282.801862 
L 610.143842 282.916712 
L 610.422874 286.518233 
L 610.701906 284.919556 
L 611.25997 288.099696 
L 611.539002 319.008458 
L 611.818034 257.666354 
L 612.097066 289.258464 
L 612.376098 284.329749 
L 612.934162 294.236777 
L 613.492226 282.71347 
L 613.771258 287.20026 
L 614.05029 288.467825 
L 614.329322 287.534224 
L 614.608354 285.00346 
L 615.166418 289.539482 
L 615.44545 297.575959 
L 615.724482 270.90254 
L 616.003513 291.633086 
L 616.282545 289.407299 
L 616.561577 289.962394 
L 616.840609 281.814809 
L 617.119641 288.741574 
L 617.398673 286.947808 
L 617.677705 288.615414 
L 617.956737 285.324544 
L 618.235769 287.07613 
L 618.514801 286.399211 
L 618.793833 289.243606 
L 619.072865 283.092407 
L 619.351897 288.759817 
L 619.630929 290.018952 
L 619.909961 285.230982 
L 620.468025 290.98073 
L 620.747057 285.910796 
L 621.026089 286.088547 
L 621.305121 287.588544 
L 621.584153 286.470464 
L 621.863185 287.058647 
L 622.142217 290.522652 
L 622.421249 289.170106 
L 622.700281 288.663297 
L 622.979313 282.905387 
L 623.258345 286.621563 
L 623.537377 287.623041 
L 623.816409 286.213146 
L 624.095441 283.47721 
L 624.374473 292.910113 
L 624.653505 291.01987 
L 624.932537 290.783611 
L 625.211569 282.547651 
L 625.490601 287.094773 
L 625.769633 287.831232 
L 626.048665 287.04813 
L 626.327697 288.916857 
L 626.885761 285.993336 
L 627.164793 287.693925 
L 627.443825 284.406319 
L 627.722857 285.518886 
L 628.001889 282.110814 
L 628.280921 289.348009 
L 628.559953 288.383505 
L 628.838985 288.166981 
L 629.118017 288.280769 
L 629.676081 292.317789 
L 629.955113 282.851894 
L 630.234145 285.102963 
L 630.513177 285.297044 
L 630.792209 283.850189 
L 631.071241 292.061865 
L 631.350273 280.238304 
L 631.629305 289.761852 
L 631.908337 289.086023 
L 632.187369 291.030513 
L 632.466401 280.785797 
L 632.745433 284.779505 
L 633.024465 285.930712 
L 633.303497 291.202404 
L 633.582529 285.868927 
L 633.861561 283.832072 
L 634.140593 287.145375 
L 634.419625 286.077825 
L 634.698657 288.629376 
L 634.977689 285.915292 
L 635.256721 288.220928 
L 635.535753 284.731075 
L 635.814785 286.62654 
L 636.093817 286.972052 
L 636.372849 289.235843 
L 636.651881 285.761521 
L 636.930913 286.102018 
L 637.209945 287.607725 
L 637.488977 286.554485 
L 637.768009 287.240588 
L 638.047041 286.035248 
L 638.326073 292.449127 
L 638.605105 286.175293 
L 638.884137 285.297041 
L 639.163169 285.348319 
L 639.721233 290.211475 
L 640.000265 286.129854 
L 640.279297 288.008718 
L 640.558329 283.472474 
L 640.837361 291.382491 
L 641.116393 290.516366 
L 641.395425 286.571414 
L 641.674457 289.05368 
L 641.953489 285.739339 
L 642.232521 290.483401 
L 642.790585 283.405896 
L 643.069617 288.2701 
L 643.348649 285.593259 
L 643.627681 288.931698 
L 644.185745 283.093663 
L 644.464777 287.714094 
L 644.743809 287.403607 
L 645.02284 284.245771 
L 645.301872 285.042448 
L 645.580904 292.674969 
L 645.859936 284.502319 
L 646.138968 287.481129 
L 646.418 285.862807 
L 646.697032 287.864894 
L 646.976064 288.160967 
L 647.255096 287.316977 
L 647.534128 288.978485 
L 647.81316 287.820602 
L 648.092192 283.848557 
L 648.650256 287.159239 
L 648.929288 288.729418 
L 649.20832 284.517473 
L 649.487352 288.658045 
L 649.766384 290.650054 
L 650.324448 284.148677 
L 650.60348 291.376464 
L 650.882512 287.360762 
L 651.161544 286.683984 
L 651.440576 288.360714 
L 651.719608 285.539228 
L 651.99864 285.431361 
L 652.556704 286.971636 
L 652.835736 283.777818 
L 653.114768 288.313114 
L 653.3938 288.491138 
L 653.672832 287.976126 
L 653.951864 287.987909 
L 654.230896 290.569988 
L 654.509928 285.480071 
L 654.78896 284.701942 
L 655.067992 286.137186 
L 655.347024 286.767384 
L 655.626056 286.246955 
L 655.905088 284.684938 
L 656.18412 285.737471 
L 656.463152 287.898243 
L 656.742184 288.575722 
L 657.300248 284.794862 
L 657.57928 286.547811 
L 657.858312 287.324359 
L 658.137344 287.27063 
L 658.416376 286.846256 
L 658.695408 288.276889 
L 658.97444 286.351023 
L 659.253472 287.154103 
L 659.532504 285.565455 
L 659.811536 288.503951 
L 660.090568 286.905804 
L 660.3696 287.876557 
L 660.648632 285.165168 
L 660.927664 285.427162 
L 661.485728 286.500889 
L 661.76476 286.57061 
L 662.043792 286.780135 
L 662.322824 286.238281 
L 662.601856 287.705064 
L 662.880888 285.660898 
L 663.15992 287.180038 
L 663.438952 286.326369 
L 663.717984 286.688299 
L 663.997016 288.880705 
L 664.276048 287.055715 
L 664.55508 288.282345 
L 664.834112 287.919215 
L 665.113144 287.003911 
L 665.392176 285.569392 
L 665.671208 289.115518 
L 665.95024 290.61721 
L 666.229272 290.263053 
L 666.508304 290.899861 
L 666.787336 285.138693 
L 667.066368 287.332916 
L 667.903464 286.064559 
L 668.182496 297.913393 
L 668.461528 282.578204 
L 668.74056 276.150189 
L 669.019592 285.969909 
L 669.298624 289.195429 
L 669.577656 286.973358 
L 669.856688 287.978981 
L 670.13572 285.292933 
L 670.693784 291.261745 
L 671.251848 281.363358 
L 671.53088 288.145787 
L 672.088944 284.841222 
L 672.367976 286.372948 
L 672.647008 286.858364 
L 672.92604 286.954207 
L 673.205072 284.816496 
L 673.484104 287.948423 
L 673.763136 293.960146 
L 674.042167 286.764316 
L 674.321199 285.307242 
L 674.600231 285.671266 
L 674.879263 286.339767 
L 675.158295 287.906682 
L 675.158295 287.906682 
" clip-path="url(#pac71ffe58e)" style="fill: none; stroke: #2878b5; stroke-width: 1.5; stroke-linecap: square"/>
   </g>
   <g id="line2d_22">
    <path d="M 33.23125 287.095961 
L 705.72625 287.095961 
" clip-path="url(#pac71ffe58e)" style="fill: none; stroke-dasharray: 7.4,3.2; stroke-dashoffset: 0; stroke: #c82423; stroke-width: 2"/>
   </g>
   <g id="patch_3">
    <path d="M 33.23125 392.71875 
L 33.23125 27.04375 
" style="fill: none; stroke: #000000; stroke-width: 0.8; stroke-linejoin: miter; stroke-linecap: square"/>
   </g>
   <g id="patch_4">
    <path d="M 705.72625 392.71875 
L 705.72625 27.04375 
" style="fill: none; stroke: #000000; stroke-width: 0.8; stroke-linejoin: miter; stroke-linecap: square"/>
   </g>
   <g id="patch_5">
    <path d="M 33.23125 392.71875 
L 705.72625 392.71875 
" style="fill: none; stroke: #000000; stroke-width: 0.8; stroke-linejoin: miter; stroke-linecap: square"/>
   </g>
   <g id="patch_6">
    <path d="M 33.23125 27.04375 
L 705.72625 27.04375 
" style="fill: none; stroke: #000000; stroke-width: 0.8; stroke-linejoin: miter; stroke-linecap: square"/>
   </g>
   <g id="text_13">
    <!-- pH 预测残差分析 -->
    <g transform="translate(324.47875 17.04375) scale(0.12 -0.12)">
     <defs>
      <path id="SimHei-70" d="M 2825 1525 
Q 2825 800 2475 425 
Q 2125 50 1625 50 
Q 1350 50 1150 162 
Q 950 275 800 500 
L 800 -800 
L 300 -800 
L 300 2925 
L 800 2925 
L 800 2550 
Q 950 2775 1150 2875 
Q 1350 2975 1625 2975 
Q 2125 2975 2475 2612 
Q 2825 2250 2825 1525 
z
M 2275 1525 
Q 2275 2000 2087 2262 
Q 1900 2525 1525 2525 
Q 1225 2525 1012 2262 
Q 800 2000 800 1525 
Q 800 1050 1012 775 
Q 1225 500 1525 500 
Q 1900 500 2087 775 
Q 2275 1050 2275 1525 
z
" transform="scale(0.015625)"/>
      <path id="SimHei-48" d="M 2850 125 
L 2275 125 
L 2275 2125 
L 850 2125 
L 850 125 
L 275 125 
L 275 4400 
L 850 4400 
L 850 2600 
L 2275 2600 
L 2275 4400 
L 2850 4400 
L 2850 125 
z
" transform="scale(0.015625)"/>
      <path id="SimHei-9884" d="M 5200 4800 
Q 5575 4800 5950 4825 
L 5950 4400 
Q 5575 4425 5200 4425 
L 4500 4425 
Q 4425 4050 4350 3600 
L 5725 3600 
Q 5700 3225 5700 2800 
L 5700 1725 
Q 5700 1300 5725 850 
L 5250 850 
L 5250 3225 
L 3550 3225 
L 3550 800 
L 3075 800 
Q 3100 1375 3100 1725 
L 3100 2775 
Q 3100 3175 3075 3600 
L 3900 3600 
Q 4000 4150 4000 4425 
L 3725 4425 
Q 3300 4425 2850 4400 
L 2850 4825 
Q 3325 4800 3725 4800 
L 5200 4800 
z
M 2600 1775 
Q 2350 1825 2150 1825 
Q 2250 2250 2300 2450 
L 1750 2450 
L 1750 125 
Q 1725 -300 1425 -400 
Q 1125 -500 750 -500 
Q 700 -225 575 25 
Q 1125 -25 1212 37 
Q 1300 100 1300 350 
L 1300 2450 
L 1025 2450 
Q 700 2450 350 2425 
L 350 2850 
Q 700 2825 1000 2825 
L 2850 2825 
Q 2725 2325 2600 1775 
z
M 4725 2875 
Q 4625 2575 4600 2100 
Q 4575 1625 4462 1037 
Q 4350 450 3962 62 
Q 3575 -325 2925 -675 
Q 2700 -500 2475 -350 
Q 3075 -125 3437 200 
Q 3800 525 3950 937 
Q 4100 1350 4137 1850 
Q 4175 2350 4175 2925 
L 4725 2875 
z
M 1625 2900 
Q 1275 3275 800 3650 
Q 925 3775 1075 3950 
Q 1250 3825 1425 3675 
Q 1750 4150 1950 4375 
L 1400 4375 
Q 900 4375 450 4350 
L 450 4775 
Q 900 4750 1375 4750 
L 2575 4750 
L 2575 4375 
Q 2200 4100 1725 3400 
L 1950 3200 
Q 1750 3025 1625 2900 
z
M 4775 725 
Q 5725 0 6075 -325 
Q 5850 -500 5725 -650 
Q 5400 -325 5137 -87 
Q 4875 150 4525 350 
Q 4650 525 4775 725 
z
" transform="scale(0.015625)"/>
      <path id="SimHei-6d4b" d="M 4025 4725 
Q 4000 4475 4000 4000 
L 4000 2225 
Q 4000 1775 4025 1350 
L 3550 1350 
L 3550 4325 
L 2350 4325 
L 2350 1325 
L 1900 1325 
Q 1925 1775 1925 2225 
L 1925 4000 
Q 1925 4200 1900 4725 
L 4025 4725 
z
M 5900 5075 
Q 5875 4800 5875 4375 
L 5875 0 
Q 5875 -325 5650 -425 
Q 5425 -525 4975 -600 
Q 4925 -325 4775 -50 
Q 5125 -50 5262 -25 
Q 5400 0 5400 250 
L 5400 4375 
Q 5400 4775 5375 5075 
L 5900 5075 
z
M 3275 3725 
Q 3225 3400 3200 2325 
Q 3175 1250 2837 550 
Q 2500 -150 2075 -600 
Q 1850 -400 1600 -325 
Q 2200 250 2475 962 
Q 2750 1675 2762 2475 
Q 2775 3275 2725 3800 
Q 3000 3750 3275 3725 
z
M 4950 4275 
Q 4925 4000 4925 3575 
L 4925 1825 
Q 4925 1300 4950 850 
L 4450 850 
Q 4475 1150 4475 1825 
L 4475 3575 
Q 4475 4000 4450 4275 
L 4950 4275 
z
M 1700 1675 
Q 1375 1075 1112 487 
Q 850 -100 725 -400 
Q 500 -200 200 -25 
Q 475 300 762 850 
Q 1050 1400 1250 2000 
Q 1475 1825 1700 1675 
z
M 3400 1050 
Q 3800 650 4300 -125 
Q 4100 -225 3875 -450 
Q 3475 275 3025 750 
Q 3225 875 3400 1050 
z
M 600 3525 
Q 1125 3125 1500 2775 
Q 1300 2575 1150 2375 
Q 825 2775 300 3150 
Q 450 3300 600 3525 
z
M 1350 4000 
Q 950 4375 475 4675 
Q 625 4850 775 5050 
Q 1300 4700 1675 4375 
Q 1500 4250 1350 4000 
z
" transform="scale(0.015625)"/>
      <path id="SimHei-5206" d="M 1000 -650 
Q 825 -375 575 -225 
Q 975 -75 1300 137 
Q 1625 350 1875 662 
Q 2125 975 2250 1350 
Q 2375 1725 2425 2275 
Q 1850 2275 1500 2250 
L 1500 2775 
Q 1900 2750 2525 2750 
L 5025 2750 
Q 4975 2375 4950 2100 
L 4750 250 
Q 4700 -200 4350 -350 
Q 4000 -500 3575 -525 
Q 3550 -275 3325 50 
Q 3850 25 4037 87 
Q 4225 150 4275 525 
L 4450 2275 
L 2950 2275 
Q 2875 1625 2737 1187 
Q 2600 750 2350 425 
Q 2100 100 1750 -175 
Q 1400 -450 1000 -650 
z
M 3950 5175 
Q 4125 4650 4662 3975 
Q 5200 3300 6175 2800 
Q 5975 2625 5775 2275 
Q 5325 2600 4987 2887 
Q 4650 3175 4425 3425 
Q 4200 3675 3925 4137 
Q 3650 4600 3475 5000 
Q 3750 5075 3950 5175 
z
M 2700 4825 
Q 2475 4425 2325 4125 
Q 2175 3825 2025 3587 
Q 1875 3350 1575 2950 
Q 1275 2550 850 2125 
Q 625 2350 400 2475 
Q 900 2925 1187 3300 
Q 1475 3675 1737 4112 
Q 2000 4550 2200 5075 
Q 2400 4925 2700 4825 
z
" transform="scale(0.015625)"/>
      <path id="SimHei-6790" d="M 5900 4550 
Q 5575 4525 5087 4450 
Q 4600 4375 3725 4275 
L 3725 3075 
L 5400 3075 
Q 5725 3075 6150 3100 
L 6150 2650 
Q 5700 2675 5250 2675 
L 5250 350 
Q 5250 -100 5275 -475 
L 4750 -475 
Q 4775 -75 4775 375 
L 4775 2675 
L 3725 2675 
Q 3725 2175 3650 1637 
Q 3575 1100 3437 637 
Q 3300 175 2850 -500 
Q 2675 -300 2275 -150 
Q 2825 325 3050 1112 
Q 3275 1900 3262 3000 
Q 3250 4100 3225 4650 
Q 3975 4700 4562 4800 
Q 5150 4900 5500 5050 
Q 5675 4750 5900 4550 
z
M 1900 525 
Q 1900 200 1925 -525 
L 1400 -525 
Q 1425 25 1425 525 
L 1425 2250 
Q 1175 1625 600 800 
Q 425 1075 200 1225 
Q 650 1725 962 2387 
Q 1275 3050 1375 3425 
Q 925 3425 450 3400 
L 450 3850 
Q 925 3825 1425 3825 
L 1425 4450 
Q 1425 4775 1400 5125 
L 1950 5125 
Q 1900 4825 1900 4450 
L 1900 3825 
Q 2300 3825 2775 3850 
L 2775 3400 
Q 2300 3425 1900 3425 
L 1900 525 
z
M 2375 2750 
Q 2800 2050 2925 1800 
Q 2700 1700 2450 1550 
Q 2300 1900 1950 2525 
Q 2175 2625 2375 2750 
z
" transform="scale(0.015625)"/>
     </defs>
     <use xlink:href="#SimHei-70"/>
     <use xlink:href="#SimHei-48" transform="translate(50 0)"/>
     <use xlink:href="#SimHei-20" transform="translate(100 0)"/>
     <use xlink:href="#SimHei-9884" transform="translate(150 0)"/>
     <use xlink:href="#SimHei-6d4b" transform="translate(250 0)"/>
     <use xlink:href="#SimHei-6b8b" transform="translate(350 0)"/>
     <use xlink:href="#SimHei-5dee" transform="translate(450 0)"/>
     <use xlink:href="#SimHei-5206" transform="translate(550 0)"/>
     <use xlink:href="#SimHei-6790" transform="translate(650 0)"/>
    </g>
   </g>
   <g id="legend_1">
    <g id="patch_7">
     <path d="M 634.62625 60.11875 
L 699.42625 60.11875 
Q 701.22625 60.11875 701.22625 58.31875 
L 701.22625 33.34375 
Q 701.22625 31.54375 699.42625 31.54375 
L 634.62625 31.54375 
Q 632.82625 31.54375 632.82625 33.34375 
L 632.82625 58.31875 
Q 632.82625 60.11875 634.62625 60.11875 
z
" style="fill: #ffffff; opacity: 0.8; stroke: #cccccc; stroke-width: 0.5; stroke-linejoin: miter"/>
    </g>
    <g id="line2d_23">
     <path d="M 636.42625 39.376562 
L 645.42625 39.376562 
L 654.42625 39.376562 
" style="fill: none; stroke: #2878b5; stroke-width: 1.5; stroke-linecap: square"/>
    </g>
    <g id="text_14">
     <!-- 预测残差 -->
     <g transform="translate(661.62625 42.526562) scale(0.09 -0.09)">
      <use xlink:href="#SimHei-9884"/>
      <use xlink:href="#SimHei-6d4b" transform="translate(100 0)"/>
      <use xlink:href="#SimHei-6b8b" transform="translate(200 0)"/>
      <use xlink:href="#SimHei-5dee" transform="translate(300 0)"/>
     </g>
    </g>
    <g id="line2d_24">
     <path d="M 636.42625 52.24375 
L 645.42625 52.24375 
L 654.42625 52.24375 
" style="fill: none; stroke-dasharray: 7.4,3.2; stroke-dashoffset: 0; stroke: #c82423; stroke-width: 2"/>
    </g>
    <g id="text_15">
     <!-- 零线 -->
     <g transform="translate(661.62625 55.39375) scale(0.09 -0.09)">
      <defs>
       <path id="SimHei-96f6" d="M 3375 2525 
Q 3425 2425 3950 2125 
Q 4475 1825 4975 1675 
Q 5475 1525 6075 1450 
Q 5875 1200 5775 925 
Q 5325 1025 4900 1175 
Q 4475 1325 3950 1637 
Q 3425 1950 3100 2250 
Q 2875 2075 2512 1812 
Q 2150 1550 1662 1312 
Q 1175 1075 625 900 
Q 525 1100 325 1375 
Q 800 1450 1175 1600 
Q 1550 1750 1875 1925 
Q 2200 2100 2475 2325 
Q 2750 2550 2925 2825 
Q 2950 3100 2950 3450 
L 2950 3925 
L 950 3925 
L 950 3250 
L 475 3250 
L 475 4300 
L 2950 4300 
L 2950 4700 
L 1775 4700 
Q 1425 4700 1100 4675 
L 1100 5100 
Q 1425 5075 1750 5075 
L 4625 5075 
Q 4875 5075 5325 5100 
L 5325 4675 
Q 4875 4700 4475 4700 
L 3400 4700 
L 3400 4300 
L 5875 4300 
Q 5850 4050 5850 3800 
Q 5850 3550 5875 3300 
L 5400 3300 
L 5400 3925 
L 3400 3925 
L 3400 3450 
Q 3400 3175 3425 2825 
L 3050 2825 
Q 3250 2750 3525 2675 
L 3375 2525 
z
M 2300 500 
Q 2750 350 3175 200 
Q 3325 325 3750 775 
L 2325 775 
Q 1900 775 1475 750 
L 1475 1200 
Q 1900 1175 2325 1175 
L 4700 1175 
Q 4475 950 4150 587 
Q 3825 225 3625 50 
Q 3775 -25 3950 -87 
Q 4125 -150 4400 -275 
Q 4250 -475 4125 -700 
Q 3450 -400 2950 -212 
Q 2450 -25 2100 75 
Q 2225 275 2300 500 
z
M 5075 2600 
L 3750 2600 
L 3750 2950 
L 5075 2950 
L 5075 2600 
z
M 5075 3325 
L 3775 3325 
L 3775 3675 
L 5075 3675 
L 5075 3325 
z
M 2500 3325 
L 1250 3325 
L 1250 3675 
L 2500 3675 
L 2500 3325 
z
M 2475 2600 
L 1225 2600 
L 1225 2950 
L 2475 2950 
L 2475 2600 
z
M 3100 1950 
Q 3200 1800 3237 1712 
Q 3275 1625 3400 1400 
Q 3150 1300 2975 1200 
Q 2850 1500 2700 1775 
Q 2975 1875 3100 1950 
z
" transform="scale(0.015625)"/>
       <path id="SimHei-7ebf" d="M 3450 4300 
Q 3450 4675 3375 5125 
Q 3700 5100 4050 5050 
Q 3975 4900 3950 4562 
Q 3925 4225 3950 3600 
L 4800 3750 
Q 5225 3850 5650 3975 
L 5750 3500 
Q 5325 3450 4875 3375 
L 3975 3200 
Q 3975 2800 4025 2500 
L 5000 2675 
Q 5500 2775 5950 2925 
L 6025 2450 
Q 5575 2375 5075 2275 
L 4100 2100 
Q 4150 1600 4350 1175 
Q 4575 1350 4787 1575 
Q 5000 1800 5175 2075 
Q 5550 1775 5750 1675 
Q 5425 1525 5237 1337 
Q 5050 1150 4625 750 
Q 4925 250 5162 112 
Q 5400 -25 5500 100 
Q 5600 225 5675 625 
Q 5900 450 6200 350 
Q 5775 -750 5275 -537 
Q 4775 -325 4225 450 
Q 3875 175 3537 -62 
Q 3200 -300 2700 -550 
Q 2575 -300 2325 -100 
Q 2825 75 3175 275 
Q 3525 475 3975 850 
Q 3750 1350 3650 2025 
Q 2900 1900 2600 1800 
L 2525 2275 
Q 2825 2275 3550 2425 
Q 3500 2825 3500 3100 
Q 2825 2950 2575 2875 
L 2475 3350 
Q 2725 3350 3450 3500 
L 3450 4300 
z
M 1950 4875 
Q 1700 4650 1462 4237 
Q 1225 3825 825 3225 
Q 1425 3250 1650 3250 
Q 1875 3625 2050 4075 
Q 2300 3900 2600 3800 
Q 2350 3550 2087 3125 
Q 1825 2700 1175 1675 
Q 1850 1725 2375 1775 
Q 2300 1525 2300 1350 
Q 2125 1350 1525 1287 
Q 925 1225 550 1125 
Q 525 1375 400 1650 
Q 700 1725 950 2050 
Q 1200 2375 1475 2875 
Q 650 2825 425 2675 
Q 350 2950 200 3225 
Q 525 3450 825 3962 
Q 1125 4475 1375 5150 
Q 1625 4975 1950 4875 
z
M 2575 875 
Q 2550 600 2575 450 
Q 1950 325 1450 200 
Q 950 75 525 -75 
Q 450 200 250 475 
Q 950 550 1325 612 
Q 1700 675 2575 875 
z
M 4850 4025 
Q 4675 4300 4375 4675 
L 4775 4875 
Q 4875 4750 5275 4275 
Q 5025 4175 4850 4025 
z
" transform="scale(0.015625)"/>
      </defs>
      <use xlink:href="#SimHei-96f6"/>
      <use xlink:href="#SimHei-7ebf" transform="translate(100 0)"/>
     </g>
    </g>
   </g>
  </g>
 </g>
 <defs>
  <clipPath id="pac71ffe58e">
   <rect x="33.23125" y="27.04375" width="672.495" height="365.675"/>
  </clipPath>
 </defs>
</svg>
