<?xml version="1.0" encoding="utf-8" standalone="no"?>
<!DOCTYPE svg PUBLIC "-//W3C//DTD SVG 1.1//EN"
  "http://www.w3.org/Graphics/SVG/1.1/DTD/svg11.dtd">
<svg xmlns:xlink="http://www.w3.org/1999/xlink" width="712.92625pt" height="423.989062pt" viewBox="0 0 712.92625 423.989062" xmlns="http://www.w3.org/2000/svg" version="1.1">
 <metadata>
  <rdf:RDF xmlns:dc="http://purl.org/dc/elements/1.1/" xmlns:cc="http://creativecommons.org/ns#" xmlns:rdf="http://www.w3.org/1999/02/22-rdf-syntax-ns#">
   <cc:Work>
    <dc:type rdf:resource="http://purl.org/dc/dcmitype/StillImage"/>
    <dc:date>2025-04-15T18:20:37.595137</dc:date>
    <dc:format>image/svg+xml</dc:format>
    <dc:creator>
     <cc:Agent>
      <dc:title>Matplotlib v3.10.0, https://matplotlib.org/</dc:title>
     </cc:Agent>
    </dc:creator>
   </cc:Work>
  </rdf:RDF>
 </metadata>
 <defs>
  <style type="text/css">*{stroke-linejoin: round; stroke-linecap: butt}</style>
 </defs>
 <g id="figure_1">
  <g id="patch_1">
   <path d="M 0 423.989062 
L 712.92625 423.989062 
L 712.92625 0 
L 0 0 
z
" style="fill: #ffffff"/>
  </g>
  <g id="axes_1">
   <g id="patch_2">
    <path d="M 33.23125 392.71875 
L 705.72625 392.71875 
L 705.72625 27.04375 
L 33.23125 27.04375 
z
" style="fill: #eeeeee"/>
   </g>
   <g id="matplotlib.axis_1">
    <g id="xtick_1">
     <g id="line2d_1">
      <path d="M 63.448252 392.71875 
L 63.448252 27.04375 
" clip-path="url(#p0d1b55eb58)" style="fill: none; stroke-dasharray: 1.85,0.8; stroke-dashoffset: 0; stroke: #b2b2b2; stroke-opacity: 0.3; stroke-width: 0.5"/>
     </g>
     <g id="line2d_2">
      <defs>
       <path id="m81b981cc85" d="M 0 0 
L 0 -3.5 
" style="stroke: #000000; stroke-width: 0.8"/>
      </defs>
      <g>
       <use xlink:href="#m81b981cc85" x="63.448252" y="392.71875" style="stroke: #000000; stroke-width: 0.8"/>
      </g>
     </g>
     <g id="text_1">
      <!-- 0 -->
      <g transform="translate(61.198252 402.40625) scale(0.09 -0.09)">
       <defs>
        <path id="SimHei-30" d="M 225 2537 
Q 250 3200 412 3587 
Q 575 3975 875 4225 
Q 1175 4475 1612 4475 
Q 2050 4475 2375 4112 
Q 2700 3750 2800 3200 
Q 2900 2650 2862 1937 
Q 2825 1225 2612 775 
Q 2400 325 1975 150 
Q 1550 -25 1125 187 
Q 700 400 525 750 
Q 350 1100 275 1487 
Q 200 1875 225 2537 
z
M 750 2687 
Q 675 2000 800 1462 
Q 925 925 1212 700 
Q 1500 475 1800 612 
Q 2100 750 2237 1162 
Q 2375 1575 2375 2062 
Q 2375 2550 2337 2950 
Q 2300 3350 2112 3675 
Q 1925 4000 1612 4012 
Q 1300 4025 1062 3700 
Q 825 3375 750 2687 
z
" transform="scale(0.015625)"/>
       </defs>
       <use xlink:href="#SimHei-30"/>
      </g>
     </g>
    </g>
    <g id="xtick_2">
     <g id="line2d_3">
      <path d="M 151.186354 392.71875 
L 151.186354 27.04375 
" clip-path="url(#p0d1b55eb58)" style="fill: none; stroke-dasharray: 1.85,0.8; stroke-dashoffset: 0; stroke: #b2b2b2; stroke-opacity: 0.3; stroke-width: 0.5"/>
     </g>
     <g id="line2d_4">
      <g>
       <use xlink:href="#m81b981cc85" x="151.186354" y="392.71875" style="stroke: #000000; stroke-width: 0.8"/>
      </g>
     </g>
     <g id="text_2">
      <!-- 250 -->
      <g transform="translate(144.436354 402.40625) scale(0.09 -0.09)">
       <defs>
        <path id="SimHei-32" d="M 300 250 
Q 325 625 650 925 
Q 975 1225 1475 1862 
Q 1975 2500 2125 2850 
Q 2275 3200 2237 3450 
Q 2200 3700 2000 3862 
Q 1800 4025 1537 4000 
Q 1275 3975 1037 3800 
Q 800 3625 675 3275 
L 200 3350 
Q 400 3925 712 4187 
Q 1025 4450 1450 4475 
Q 1700 4500 1900 4462 
Q 2100 4425 2312 4287 
Q 2525 4150 2662 3875 
Q 2800 3600 2762 3212 
Q 2725 2825 2375 2287 
Q 2025 1750 1025 600 
L 2825 600 
L 2825 150 
L 300 150 
L 300 250 
z
" transform="scale(0.015625)"/>
        <path id="SimHei-35" d="M 550 1325 
Q 725 650 1150 575 
Q 1575 500 1837 662 
Q 2100 825 2212 1087 
Q 2325 1350 2312 1675 
Q 2300 2000 2137 2225 
Q 1975 2450 1725 2525 
Q 1475 2600 1162 2525 
Q 850 2450 650 2175 
L 225 2225 
Q 275 2375 700 4375 
L 2675 4375 
L 2675 3925 
L 1075 3925 
Q 950 3250 825 2850 
Q 1200 3025 1525 3012 
Q 1850 3000 2150 2862 
Q 2450 2725 2587 2487 
Q 2725 2250 2787 2012 
Q 2850 1775 2837 1500 
Q 2825 1225 2725 937 
Q 2625 650 2425 462 
Q 2225 275 1937 162 
Q 1650 50 1275 75 
Q 900 100 562 350 
Q 225 600 100 1200 
L 550 1325 
z
" transform="scale(0.015625)"/>
       </defs>
       <use xlink:href="#SimHei-32"/>
       <use xlink:href="#SimHei-35" transform="translate(50 0)"/>
       <use xlink:href="#SimHei-30" transform="translate(100 0)"/>
      </g>
     </g>
    </g>
    <g id="xtick_3">
     <g id="line2d_5">
      <path d="M 238.924455 392.71875 
L 238.924455 27.04375 
" clip-path="url(#p0d1b55eb58)" style="fill: none; stroke-dasharray: 1.85,0.8; stroke-dashoffset: 0; stroke: #b2b2b2; stroke-opacity: 0.3; stroke-width: 0.5"/>
     </g>
     <g id="line2d_6">
      <g>
       <use xlink:href="#m81b981cc85" x="238.924455" y="392.71875" style="stroke: #000000; stroke-width: 0.8"/>
      </g>
     </g>
     <g id="text_3">
      <!-- 500 -->
      <g transform="translate(232.174455 402.40625) scale(0.09 -0.09)">
       <use xlink:href="#SimHei-35"/>
       <use xlink:href="#SimHei-30" transform="translate(50 0)"/>
       <use xlink:href="#SimHei-30" transform="translate(100 0)"/>
      </g>
     </g>
    </g>
    <g id="xtick_4">
     <g id="line2d_7">
      <path d="M 326.662556 392.71875 
L 326.662556 27.04375 
" clip-path="url(#p0d1b55eb58)" style="fill: none; stroke-dasharray: 1.85,0.8; stroke-dashoffset: 0; stroke: #b2b2b2; stroke-opacity: 0.3; stroke-width: 0.5"/>
     </g>
     <g id="line2d_8">
      <g>
       <use xlink:href="#m81b981cc85" x="326.662556" y="392.71875" style="stroke: #000000; stroke-width: 0.8"/>
      </g>
     </g>
     <g id="text_4">
      <!-- 750 -->
      <g transform="translate(319.912556 402.40625) scale(0.09 -0.09)">
       <defs>
        <path id="SimHei-37" d="M 850 150 
Q 1300 2050 2425 3925 
L 275 3925 
L 275 4375 
L 2950 4375 
L 2950 3950 
Q 1775 2050 1400 150 
L 850 150 
z
" transform="scale(0.015625)"/>
       </defs>
       <use xlink:href="#SimHei-37"/>
       <use xlink:href="#SimHei-35" transform="translate(50 0)"/>
       <use xlink:href="#SimHei-30" transform="translate(100 0)"/>
      </g>
     </g>
    </g>
    <g id="xtick_5">
     <g id="line2d_9">
      <path d="M 414.400658 392.71875 
L 414.400658 27.04375 
" clip-path="url(#p0d1b55eb58)" style="fill: none; stroke-dasharray: 1.85,0.8; stroke-dashoffset: 0; stroke: #b2b2b2; stroke-opacity: 0.3; stroke-width: 0.5"/>
     </g>
     <g id="line2d_10">
      <g>
       <use xlink:href="#m81b981cc85" x="414.400658" y="392.71875" style="stroke: #000000; stroke-width: 0.8"/>
      </g>
     </g>
     <g id="text_5">
      <!-- 1000 -->
      <g transform="translate(405.400658 402.40625) scale(0.09 -0.09)">
       <defs>
        <path id="SimHei-31" d="M 1400 3600 
Q 1075 3275 575 2975 
L 575 3450 
Q 1200 3875 1600 4450 
L 1900 4450 
L 1900 150 
L 1400 150 
L 1400 3600 
z
" transform="scale(0.015625)"/>
       </defs>
       <use xlink:href="#SimHei-31"/>
       <use xlink:href="#SimHei-30" transform="translate(50 0)"/>
       <use xlink:href="#SimHei-30" transform="translate(100 0)"/>
       <use xlink:href="#SimHei-30" transform="translate(150 0)"/>
      </g>
     </g>
    </g>
    <g id="xtick_6">
     <g id="line2d_11">
      <path d="M 502.138759 392.71875 
L 502.138759 27.04375 
" clip-path="url(#p0d1b55eb58)" style="fill: none; stroke-dasharray: 1.85,0.8; stroke-dashoffset: 0; stroke: #b2b2b2; stroke-opacity: 0.3; stroke-width: 0.5"/>
     </g>
     <g id="line2d_12">
      <g>
       <use xlink:href="#m81b981cc85" x="502.138759" y="392.71875" style="stroke: #000000; stroke-width: 0.8"/>
      </g>
     </g>
     <g id="text_6">
      <!-- 1250 -->
      <g transform="translate(493.138759 402.40625) scale(0.09 -0.09)">
       <use xlink:href="#SimHei-31"/>
       <use xlink:href="#SimHei-32" transform="translate(50 0)"/>
       <use xlink:href="#SimHei-35" transform="translate(100 0)"/>
       <use xlink:href="#SimHei-30" transform="translate(150 0)"/>
      </g>
     </g>
    </g>
    <g id="xtick_7">
     <g id="line2d_13">
      <path d="M 589.876861 392.71875 
L 589.876861 27.04375 
" clip-path="url(#p0d1b55eb58)" style="fill: none; stroke-dasharray: 1.85,0.8; stroke-dashoffset: 0; stroke: #b2b2b2; stroke-opacity: 0.3; stroke-width: 0.5"/>
     </g>
     <g id="line2d_14">
      <g>
       <use xlink:href="#m81b981cc85" x="589.876861" y="392.71875" style="stroke: #000000; stroke-width: 0.8"/>
      </g>
     </g>
     <g id="text_7">
      <!-- 1500 -->
      <g transform="translate(580.876861 402.40625) scale(0.09 -0.09)">
       <use xlink:href="#SimHei-31"/>
       <use xlink:href="#SimHei-35" transform="translate(50 0)"/>
       <use xlink:href="#SimHei-30" transform="translate(100 0)"/>
       <use xlink:href="#SimHei-30" transform="translate(150 0)"/>
      </g>
     </g>
    </g>
    <g id="xtick_8">
     <g id="line2d_15">
      <path d="M 677.614962 392.71875 
L 677.614962 27.04375 
" clip-path="url(#p0d1b55eb58)" style="fill: none; stroke-dasharray: 1.85,0.8; stroke-dashoffset: 0; stroke: #b2b2b2; stroke-opacity: 0.3; stroke-width: 0.5"/>
     </g>
     <g id="line2d_16">
      <g>
       <use xlink:href="#m81b981cc85" x="677.614962" y="392.71875" style="stroke: #000000; stroke-width: 0.8"/>
      </g>
     </g>
     <g id="text_8">
      <!-- 1750 -->
      <g transform="translate(668.614962 402.40625) scale(0.09 -0.09)">
       <use xlink:href="#SimHei-31"/>
       <use xlink:href="#SimHei-37" transform="translate(50 0)"/>
       <use xlink:href="#SimHei-35" transform="translate(100 0)"/>
       <use xlink:href="#SimHei-30" transform="translate(150 0)"/>
      </g>
     </g>
    </g>
    <g id="text_9">
     <!-- 时间 / 序号 -->
     <g transform="translate(341.97875 415.539062) scale(0.1 -0.1)">
      <defs>
       <path id="SimHei-65f6" d="M 2525 4575 
Q 2500 3675 2500 2400 
Q 2500 1125 2525 400 
L 2000 400 
L 2000 875 
L 1000 875 
L 1000 50 
L 475 50 
Q 500 1200 500 2350 
Q 500 3525 475 4575 
L 2525 4575 
z
M 4875 3825 
Q 4875 4575 4850 5225 
L 5400 5225 
Q 5375 4575 5375 3825 
Q 5750 3825 6175 3850 
L 6175 3375 
Q 5750 3400 5375 3400 
L 5375 50 
Q 5375 -325 5075 -425 
Q 4775 -525 4300 -575 
Q 4300 -275 4025 0 
Q 4500 -50 4687 -25 
Q 4875 0 4875 300 
L 4875 3400 
Q 3625 3400 2775 3375 
L 2775 3850 
Q 3575 3825 4875 3825 
z
M 2000 1300 
L 2000 2550 
L 1000 2550 
L 1000 1300 
L 2000 1300 
z
M 2000 2975 
L 2000 4150 
L 1000 4150 
L 1000 2975 
L 2000 2975 
z
M 3550 2725 
Q 3875 2200 4175 1600 
Q 3925 1525 3650 1375 
Q 3450 1975 3075 2500 
Q 3300 2600 3550 2725 
z
" transform="scale(0.015625)"/>
       <path id="SimHei-95f4" d="M 4450 3550 
Q 4425 3075 4425 2725 
L 4425 1400 
Q 4425 1075 4450 625 
L 1925 625 
Q 1950 1075 1950 1425 
L 1950 2725 
Q 1950 3075 1925 3550 
L 4450 3550 
z
M 5800 4875 
Q 5775 4400 5775 3925 
L 5775 250 
Q 5800 -325 5462 -450 
Q 5125 -575 4725 -625 
Q 4700 -325 4525 -25 
Q 5000 -50 5137 25 
Q 5275 100 5275 350 
L 5275 4450 
L 3775 4450 
Q 3175 4450 2650 4425 
L 2650 4900 
Q 3175 4875 3775 4875 
L 5800 4875 
z
M 550 -525 
Q 600 -25 600 525 
L 600 3150 
Q 600 3675 550 4025 
L 1125 4025 
Q 1100 3650 1100 3300 
L 1100 500 
Q 1100 0 1125 -525 
L 550 -525 
z
M 3950 1025 
L 3950 1950 
L 2425 1950 
L 2425 1025 
L 3950 1025 
z
M 3950 2350 
L 3950 3150 
L 2425 3150 
L 2425 2350 
L 3950 2350 
z
M 1525 5300 
Q 1750 5000 2225 4350 
Q 1950 4225 1700 4075 
Q 1450 4575 1075 5025 
Q 1350 5225 1525 5300 
z
" transform="scale(0.015625)"/>
       <path id="SimHei-20" transform="scale(0.015625)"/>
       <path id="SimHei-2f" d="M 3000 4550 
L 350 -175 
L 100 -25 
L 2750 4700 
L 3000 4550 
z
" transform="scale(0.015625)"/>
       <path id="SimHei-5e8f" d="M 4000 2075 
L 5975 2075 
Q 5750 1525 5575 1025 
Q 5325 1100 5050 1150 
Q 5175 1450 5275 1700 
L 4050 1700 
L 4050 150 
Q 4050 -375 3762 -462 
Q 3475 -550 2950 -575 
Q 2875 -300 2750 0 
Q 3350 -75 3475 25 
Q 3600 125 3575 375 
L 3575 1700 
L 2450 1700 
Q 2050 1700 1675 1675 
L 1675 2100 
Q 2100 2075 2425 2075 
L 3675 2075 
Q 3325 2400 2875 2775 
Q 2975 2875 3250 3100 
Q 3400 2975 3725 2725 
L 4575 3275 
L 3000 3275 
Q 2400 3275 1950 3250 
L 1950 3700 
Q 2400 3675 3000 3675 
L 5400 3675 
L 5400 3250 
Q 4700 2875 4025 2450 
L 4275 2250 
L 4000 2075 
z
M 3725 5275 
Q 3825 4925 3925 4525 
L 4850 4525 
Q 5425 4525 6000 4550 
L 6000 4125 
Q 5425 4150 4850 4150 
L 1400 4150 
Q 1400 2750 1362 2137 
Q 1325 1525 1200 887 
Q 1075 250 775 -350 
Q 625 -250 250 -125 
Q 475 300 600 700 
Q 725 1100 800 1637 
Q 875 2175 875 2825 
Q 875 3500 850 4525 
L 3350 4525 
Q 3275 4825 3150 5150 
Q 3425 5200 3725 5275 
z
" transform="scale(0.015625)"/>
       <path id="SimHei-53f7" d="M 5025 4925 
Q 5000 4550 5000 4075 
Q 5000 3600 5025 3175 
L 1400 3175 
Q 1425 3525 1425 4000 
Q 1425 4500 1400 4925 
L 5025 4925 
z
M 5175 2625 
Q 5650 2625 6025 2650 
L 6025 2200 
Q 5650 2225 5175 2225 
L 2450 2225 
Q 2350 1875 2225 1450 
L 5175 1450 
Q 5100 1050 5062 775 
Q 5025 500 4950 112 
Q 4875 -275 4650 -412 
Q 4425 -550 3225 -625 
Q 3125 -350 2975 -50 
Q 3875 -75 4112 -50 
Q 4350 -25 4425 212 
Q 4500 450 4575 1025 
L 1600 1025 
Q 1825 1625 1950 2225 
L 1350 2225 
Q 825 2225 375 2200 
L 375 2650 
Q 825 2625 1350 2625 
L 5175 2625 
z
M 4525 3575 
L 4525 4525 
L 1900 4525 
L 1900 3575 
L 4525 3575 
z
" transform="scale(0.015625)"/>
      </defs>
      <use xlink:href="#SimHei-65f6"/>
      <use xlink:href="#SimHei-95f4" transform="translate(100 0)"/>
      <use xlink:href="#SimHei-20" transform="translate(200 0)"/>
      <use xlink:href="#SimHei-2f" transform="translate(250 0)"/>
      <use xlink:href="#SimHei-20" transform="translate(300 0)"/>
      <use xlink:href="#SimHei-5e8f" transform="translate(350 0)"/>
      <use xlink:href="#SimHei-53f7" transform="translate(450 0)"/>
     </g>
    </g>
   </g>
   <g id="matplotlib.axis_2">
    <g id="ytick_1">
     <g id="line2d_17">
      <path d="M 33.23125 390.47863 
L 705.72625 390.47863 
" clip-path="url(#p0d1b55eb58)" style="fill: none; stroke-dasharray: 1.85,0.8; stroke-dashoffset: 0; stroke: #b2b2b2; stroke-opacity: 0.3; stroke-width: 0.5"/>
     </g>
     <g id="line2d_18">
      <defs>
       <path id="m0a6ccecea6" d="M 0 0 
L 3.5 0 
" style="stroke: #000000; stroke-width: 0.8"/>
      </defs>
      <g>
       <use xlink:href="#m0a6ccecea6" x="33.23125" y="390.47863" style="stroke: #000000; stroke-width: 0.8"/>
      </g>
     </g>
     <g id="text_10">
      <!-- -2 -->
      <g transform="translate(20.73125 393.57238) scale(0.09 -0.09)">
       <defs>
        <path id="SimHei-2d" d="M 2975 2125 
L 125 2125 
L 125 2525 
L 2975 2525 
L 2975 2125 
z
" transform="scale(0.015625)"/>
       </defs>
       <use xlink:href="#SimHei-2d"/>
       <use xlink:href="#SimHei-32" transform="translate(50 0)"/>
      </g>
     </g>
    </g>
    <g id="ytick_2">
     <g id="line2d_19">
      <path d="M 33.23125 309.54204 
L 705.72625 309.54204 
" clip-path="url(#p0d1b55eb58)" style="fill: none; stroke-dasharray: 1.85,0.8; stroke-dashoffset: 0; stroke: #b2b2b2; stroke-opacity: 0.3; stroke-width: 0.5"/>
     </g>
     <g id="line2d_20">
      <g>
       <use xlink:href="#m0a6ccecea6" x="33.23125" y="309.54204" style="stroke: #000000; stroke-width: 0.8"/>
      </g>
     </g>
     <g id="text_11">
      <!-- 0 -->
      <g transform="translate(25.23125 312.63579) scale(0.09 -0.09)">
       <use xlink:href="#SimHei-30"/>
      </g>
     </g>
    </g>
    <g id="ytick_3">
     <g id="line2d_21">
      <path d="M 33.23125 228.60545 
L 705.72625 228.60545 
" clip-path="url(#p0d1b55eb58)" style="fill: none; stroke-dasharray: 1.85,0.8; stroke-dashoffset: 0; stroke: #b2b2b2; stroke-opacity: 0.3; stroke-width: 0.5"/>
     </g>
     <g id="line2d_22">
      <g>
       <use xlink:href="#m0a6ccecea6" x="33.23125" y="228.60545" style="stroke: #000000; stroke-width: 0.8"/>
      </g>
     </g>
     <g id="text_12">
      <!-- 2 -->
      <g transform="translate(25.23125 231.6992) scale(0.09 -0.09)">
       <use xlink:href="#SimHei-32"/>
      </g>
     </g>
    </g>
    <g id="ytick_4">
     <g id="line2d_23">
      <path d="M 33.23125 147.668859 
L 705.72625 147.668859 
" clip-path="url(#p0d1b55eb58)" style="fill: none; stroke-dasharray: 1.85,0.8; stroke-dashoffset: 0; stroke: #b2b2b2; stroke-opacity: 0.3; stroke-width: 0.5"/>
     </g>
     <g id="line2d_24">
      <g>
       <use xlink:href="#m0a6ccecea6" x="33.23125" y="147.668859" style="stroke: #000000; stroke-width: 0.8"/>
      </g>
     </g>
     <g id="text_13">
      <!-- 4 -->
      <g transform="translate(25.23125 150.762609) scale(0.09 -0.09)">
       <defs>
        <path id="SimHei-34" d="M 2000 1100 
L 75 1100 
L 75 1525 
L 2100 4450 
L 2475 4450 
L 2475 1525 
L 3075 1525 
L 3075 1100 
L 2475 1100 
L 2475 150 
L 2000 150 
L 2000 1100 
z
M 2000 1525 
L 2000 3500 
L 600 1525 
L 2000 1525 
z
" transform="scale(0.015625)"/>
       </defs>
       <use xlink:href="#SimHei-34"/>
      </g>
     </g>
    </g>
    <g id="ytick_5">
     <g id="line2d_25">
      <path d="M 33.23125 66.732269 
L 705.72625 66.732269 
" clip-path="url(#p0d1b55eb58)" style="fill: none; stroke-dasharray: 1.85,0.8; stroke-dashoffset: 0; stroke: #b2b2b2; stroke-opacity: 0.3; stroke-width: 0.5"/>
     </g>
     <g id="line2d_26">
      <g>
       <use xlink:href="#m0a6ccecea6" x="33.23125" y="66.732269" style="stroke: #000000; stroke-width: 0.8"/>
      </g>
     </g>
     <g id="text_14">
      <!-- 6 -->
      <g transform="translate(25.23125 69.826019) scale(0.09 -0.09)">
       <defs>
        <path id="SimHei-36" d="M 250 1612 
Q 275 1975 387 2225 
Q 500 2475 725 2850 
L 1750 4450 
L 2325 4450 
L 1275 2800 
Q 1950 2975 2350 2750 
Q 2750 2525 2887 2237 
Q 3025 1950 3037 1612 
Q 3050 1275 2937 950 
Q 2825 625 2537 362 
Q 2250 100 1737 75 
Q 1225 50 862 262 
Q 500 475 362 862 
Q 225 1250 250 1612 
z
M 1025 787 
Q 1250 550 1625 525 
Q 2000 500 2250 775 
Q 2500 1050 2500 1575 
Q 2500 2100 2187 2300 
Q 1875 2500 1487 2450 
Q 1100 2400 925 2075 
Q 750 1750 775 1387 
Q 800 1025 1025 787 
z
" transform="scale(0.015625)"/>
       </defs>
       <use xlink:href="#SimHei-36"/>
      </g>
     </g>
    </g>
    <g id="text_15">
     <!-- 残差值 -->
     <g transform="translate(15.403125 224.88125) rotate(-90) scale(0.1 -0.1)">
      <defs>
       <path id="SimHei-6b8b" d="M 5700 3350 
Q 5325 3300 4900 3225 
Q 4475 3150 4075 3075 
Q 4100 2700 4150 2325 
Q 4625 2425 4987 2500 
Q 5350 2575 5925 2725 
L 6000 2250 
Q 5775 2225 5300 2137 
Q 4825 2050 4200 1900 
Q 4300 1375 4475 1075 
Q 5025 1500 5325 1950 
Q 5525 1750 5800 1550 
Q 5550 1425 5350 1237 
Q 5150 1050 4675 650 
Q 5000 200 5275 37 
Q 5550 -125 5600 -12 
Q 5650 100 5625 525 
Q 5825 325 6175 300 
Q 6125 -850 5450 -587 
Q 4775 -325 4275 400 
Q 3950 150 3537 -75 
Q 3125 -300 2625 -525 
Q 2475 -250 2250 -100 
Q 2775 50 3200 262 
Q 3625 475 4075 775 
Q 3850 1225 3750 1800 
Q 3100 1675 2700 1525 
L 2575 2025 
Q 3300 2125 3700 2225 
Q 3650 2600 3625 3000 
Q 3225 2950 2800 2850 
L 2675 3325 
Q 3150 3375 3600 3450 
Q 3575 3925 3550 4275 
Q 3525 4625 3475 5125 
Q 3775 5075 4050 5075 
Q 4025 4700 4012 4412 
Q 4000 4125 4050 3525 
Q 5200 3725 5625 3850 
L 5700 3350 
z
M 2125 4650 
Q 2450 4650 2800 4675 
L 2800 4175 
Q 2450 4200 2125 4200 
L 1675 4200 
Q 1550 3700 1425 3225 
L 2600 3225 
Q 2525 2500 2400 1925 
Q 2275 1350 2050 925 
Q 1825 500 1512 137 
Q 1200 -225 675 -625 
Q 525 -400 250 -225 
Q 700 25 1037 375 
Q 1375 725 1575 1075 
Q 1275 1450 950 1750 
Q 1125 1900 1250 2100 
Q 1550 1825 1800 1550 
Q 2025 2175 2075 2775 
L 1300 2775 
Q 1125 2375 987 2150 
Q 850 1925 550 1525 
Q 350 1825 200 1925 
Q 575 2300 825 2862 
Q 1075 3425 1200 4200 
Q 775 4200 375 4175 
L 375 4675 
Q 750 4650 1075 4650 
L 2125 4650 
z
M 4825 4975 
Q 5150 4575 5425 4175 
Q 5125 4050 4975 3900 
Q 4750 4325 4400 4700 
Q 4600 4825 4825 4975 
z
" transform="scale(0.015625)"/>
       <path id="SimHei-5dee" d="M 4725 4975 
Q 4500 4725 4250 4275 
L 4850 4275 
Q 5450 4275 5825 4300 
L 5825 3850 
Q 5425 3875 4850 3875 
L 3275 3875 
Q 3225 3600 3150 3275 
L 4525 3275 
Q 5075 3275 5525 3300 
L 5525 2850 
Q 5075 2875 4500 2875 
L 3050 2875 
Q 2975 2650 2850 2325 
L 5125 2325 
Q 5675 2325 6025 2350 
L 6025 1900 
Q 5700 1925 5150 1925 
L 2650 1925 
Q 2425 1550 2250 1300 
Q 2650 1275 3100 1275 
L 4525 1275 
Q 4975 1275 5350 1300 
L 5350 850 
Q 4975 875 4575 875 
L 3925 875 
L 3925 -50 
L 5000 -50 
Q 5200 -50 5900 -25 
L 5900 -500 
Q 5275 -475 5025 -475 
L 2100 -475 
Q 1700 -475 1400 -500 
L 1400 -25 
Q 1775 -50 2125 -50 
L 3425 -50 
L 3425 875 
L 3100 875 
Q 2625 875 2175 850 
L 2175 1200 
Q 1925 875 1487 475 
Q 1050 75 625 -250 
Q 425 -25 200 150 
Q 750 475 1262 925 
Q 1775 1375 2100 1925 
L 1325 1925 
Q 750 1925 375 1900 
L 375 2350 
Q 750 2325 1350 2325 
L 2325 2325 
Q 2450 2575 2550 2875 
L 1725 2875 
Q 1375 2875 1000 2850 
L 1000 3300 
Q 1500 3275 1700 3275 
L 2650 3275 
Q 2725 3575 2775 3875 
L 1500 3875 
Q 1100 3875 650 3850 
L 650 4300 
Q 1025 4275 1425 4275 
L 2275 4275 
Q 2075 4675 1850 4950 
Q 2025 5050 2250 5225 
Q 2450 4975 2725 4550 
Q 2525 4450 2325 4275 
L 3750 4275 
Q 4000 4700 4150 5250 
Q 4400 5100 4725 4975 
z
" transform="scale(0.015625)"/>
       <path id="SimHei-503c" d="M 3675 4450 
L 3675 5100 
Q 3975 5075 4350 5050 
Q 4225 4875 4200 4450 
L 5125 4450 
Q 5550 4450 5875 4475 
L 5875 4025 
Q 5525 4050 5125 4050 
L 4175 4050 
L 4125 3500 
L 5400 3500 
Q 5375 3200 5375 2700 
L 5375 150 
Q 5875 150 6100 175 
L 6100 -275 
Q 5775 -250 5200 -250 
L 2850 -250 
Q 2275 -250 1900 -275 
L 1900 175 
Q 2125 150 2600 150 
L 2600 2700 
Q 2600 3175 2575 3500 
L 3600 3500 
L 3650 4050 
L 3200 4050 
Q 2575 4050 2225 4025 
L 2225 4475 
Q 2550 4450 3200 4450 
L 3675 4450 
z
M 2225 4900 
Q 2025 4675 1650 3750 
L 1650 450 
Q 1650 -75 1675 -550 
L 1150 -550 
Q 1175 -125 1175 375 
L 1175 2950 
Q 875 2450 625 2150 
Q 425 2425 250 2575 
Q 500 2825 937 3537 
Q 1375 4250 1625 5150 
Q 1975 4975 2225 4900 
z
M 4925 2650 
L 4925 3150 
L 3075 3150 
L 3075 2650 
L 4925 2650 
z
M 4925 150 
L 4925 625 
L 3075 625 
L 3075 150 
L 4925 150 
z
M 4925 1000 
L 4925 1450 
L 3075 1450 
L 3075 1000 
L 4925 1000 
z
M 4925 1825 
L 4925 2275 
L 3075 2275 
L 3075 1825 
L 4925 1825 
z
" transform="scale(0.015625)"/>
      </defs>
      <use xlink:href="#SimHei-6b8b"/>
      <use xlink:href="#SimHei-5dee" transform="translate(100 0)"/>
      <use xlink:href="#SimHei-503c" transform="translate(200 0)"/>
     </g>
    </g>
   </g>
   <g id="line2d_27">
    <path d="M 63.799205 43.665341 
L 64.150157 311.160772 
L 64.501109 309.088175 
L 64.852062 314.957678 
L 65.203014 310.16426 
L 65.553967 313.57765 
L 65.904919 304.838657 
L 66.255871 313.036044 
L 66.606824 301.997703 
L 66.957776 320.533913 
L 67.308729 303.184897 
L 67.659681 311.120321 
L 68.010633 308.873707 
L 68.361586 309.248596 
L 68.712538 311.615495 
L 69.063491 305.322181 
L 69.414443 310.341799 
L 69.765395 311.685832 
L 70.116348 314.699485 
L 70.4673 307.286527 
L 70.818253 296.347163 
L 71.169205 318.658862 
L 71.520157 310.413043 
L 71.87111 312.395984 
L 72.222062 296.31552 
L 72.573015 316.110829 
L 72.923967 307.974008 
L 73.27492 305.861801 
L 73.625872 306.008968 
L 73.976824 322.447444 
L 74.327777 304.839396 
L 74.678729 313.276939 
L 75.029682 302.466781 
L 75.380634 315.350367 
L 75.731586 309.58975 
L 76.082539 312.278964 
L 76.433491 313.963441 
L 76.784444 311.234741 
L 77.135396 310.301374 
L 77.486348 306.888853 
L 77.837301 311.391346 
L 78.188253 303.291867 
L 78.539206 319.149955 
L 78.890158 309.961377 
L 79.24111 316.528518 
L 79.592063 307.435305 
L 79.943015 305.293228 
L 80.293968 307.130678 
L 80.64492 310.4143 
L 80.995872 315.361226 
L 81.346825 300.098378 
L 81.697777 313.294407 
L 82.04873 312.38397 
L 82.399682 306.969267 
L 82.750634 312.004368 
L 83.101587 296.039323 
L 83.452539 301.088417 
L 83.803492 310.561619 
L 84.154444 312.678386 
L 84.505396 300.131918 
L 85.207301 311.698605 
L 85.558254 313.607039 
L 85.909206 304.464925 
L 86.260159 302.782458 
L 86.611111 310.995246 
L 86.962063 310.376682 
L 87.313016 307.432274 
L 88.014921 315.658823 
L 88.716825 306.19671 
L 89.41873 312.769659 
L 89.769683 308.150051 
L 90.120635 306.486389 
L 90.471587 309.912185 
L 91.173492 310.235595 
L 91.524445 310.689161 
L 91.875397 309.117769 
L 92.226349 314.157307 
L 92.577302 312.492466 
L 92.928254 300.780429 
L 93.279207 308.523283 
L 93.630159 311.406845 
L 93.981111 310.094163 
L 94.332064 314.625368 
L 94.683016 310.6401 
L 95.033969 304.270326 
L 95.735873 310.273008 
L 96.086826 310.154116 
L 96.437778 310.868506 
L 96.788731 310.55579 
L 97.139683 308.719057 
L 97.490636 305.567678 
L 97.841588 311.274273 
L 98.19254 310.127868 
L 98.543493 307.582627 
L 98.894445 310.149471 
L 99.245398 308.054822 
L 99.59635 309.206613 
L 100.298255 309.410565 
L 100.649207 314.468631 
L 101.00016 303.616113 
L 101.351112 311.250521 
L 101.702064 308.831571 
L 102.053017 314.031231 
L 102.403969 306.044538 
L 102.754922 312.052564 
L 103.105874 310.879084 
L 103.456826 308.377896 
L 103.807779 309.590209 
L 104.158731 309.356054 
L 104.860636 312.687955 
L 105.211588 321.110196 
L 105.562541 303.264686 
L 105.913493 306.550001 
L 106.264446 307.478436 
L 106.615398 313.046503 
L 106.96635 310.487924 
L 107.317303 304.550718 
L 107.668255 307.749282 
L 108.019208 312.753822 
L 108.37016 309.028807 
L 108.721112 311.949197 
L 109.072065 306.521274 
L 109.423017 312.15105 
L 109.77397 307.994653 
L 110.124922 309.787002 
L 110.475875 307.966976 
L 110.826827 311.800548 
L 111.177779 308.47516 
L 111.528732 311.705045 
L 111.879684 306.822449 
L 112.230637 311.232633 
L 112.581589 307.601593 
L 112.932541 309.987204 
L 113.283494 313.523928 
L 113.634446 305.629118 
L 113.985399 310.642355 
L 114.336351 310.284868 
L 114.687303 311.515169 
L 115.038256 311.324935 
L 115.389208 307.02209 
L 115.740161 311.324957 
L 116.091113 309.657156 
L 116.442065 312.698916 
L 116.793018 307.466098 
L 117.14397 308.594714 
L 117.494923 313.637777 
L 117.845875 307.553223 
L 118.196827 310.43687 
L 118.54778 310.051368 
L 118.898732 310.330033 
L 119.249685 310.815704 
L 119.600637 308.584983 
L 119.951589 310.430482 
L 120.302542 308.05018 
L 120.653494 310.802778 
L 121.004447 310.225057 
L 121.355399 308.611908 
L 122.057304 310.376589 
L 122.408256 308.526721 
L 122.759209 311.569395 
L 123.110161 309.033045 
L 123.461114 310.74608 
L 123.812066 309.428461 
L 124.163018 310.821883 
L 124.513971 309.686777 
L 124.864923 309.945369 
L 125.215876 309.780803 
L 125.566828 310.70378 
L 125.91778 309.804268 
L 126.268733 306.240242 
L 126.619685 312.181454 
L 127.32159 306.321932 
L 127.672542 307.464476 
L 128.023495 312.168738 
L 128.374447 308.861776 
L 128.7254 310.779754 
L 129.076352 307.329032 
L 129.427304 309.838935 
L 129.778257 310.809141 
L 130.129209 319.383126 
L 130.831114 306.385651 
L 131.182066 310.616041 
L 131.533019 303.11939 
L 131.883971 306.264881 
L 132.234924 311.295976 
L 132.585876 310.100187 
L 132.936828 308.227669 
L 133.287781 308.431717 
L 133.638733 309.213737 
L 133.989686 308.015819 
L 134.340638 311.143127 
L 134.691591 308.649882 
L 135.042543 309.859182 
L 135.393495 308.648435 
L 135.744448 310.833152 
L 136.0954 307.696657 
L 136.446353 308.397288 
L 136.797305 308.786841 
L 137.148257 312.26067 
L 137.49921 307.518648 
L 137.850162 310.287223 
L 138.201115 307.875365 
L 138.552067 308.651521 
L 138.903019 310.729959 
L 139.253972 311.390252 
L 139.604924 313.078545 
L 139.955877 305.861279 
L 140.306829 310.158291 
L 140.657781 309.162329 
L 141.008734 315.565662 
L 141.359686 306.087312 
L 141.710639 310.306743 
L 142.061591 309.744154 
L 142.763496 314.407123 
L 143.465401 304.057512 
L 143.816353 314.136773 
L 144.167305 311.243963 
L 144.518258 310.432695 
L 144.86921 306.75293 
L 145.220163 311.095477 
L 145.571115 308.992408 
L 145.922068 310.370776 
L 146.27302 307.728618 
L 146.623972 311.813497 
L 146.974925 310.152913 
L 147.325877 306.649518 
L 147.67683 309.871031 
L 148.027782 311.488758 
L 148.378734 309.369866 
L 148.729687 311.793342 
L 149.080639 307.895211 
L 149.431592 310.969556 
L 149.782544 305.439584 
L 150.484449 310.627524 
L 150.835401 313.081649 
L 151.537306 308.699166 
L 151.888258 309.429151 
L 152.239211 308.044579 
L 152.590163 312.83619 
L 152.941116 308.681116 
L 153.292068 307.169671 
L 153.64302 306.867624 
L 153.993973 310.440786 
L 154.344925 311.202179 
L 155.04683 304.247962 
L 155.397782 316.391933 
L 155.748735 303.092232 
L 156.099687 311.190799 
L 156.45064 310.461307 
L 156.801592 307.118801 
L 157.152544 313.022834 
L 157.503497 305.798555 
L 157.854449 311.798717 
L 158.205402 311.902962 
L 158.907307 306.297832 
L 159.609211 311.734459 
L 159.960164 309.401601 
L 160.311116 310.090636 
L 160.662069 311.29307 
L 161.013021 307.802525 
L 161.714926 309.505753 
L 162.065878 309.385248 
L 162.416831 310.569451 
L 162.767783 319.398107 
L 163.118735 297.538376 
L 163.82064 311.657542 
L 164.171593 310.284224 
L 164.522545 313.545799 
L 164.873497 308.442361 
L 165.22445 307.490346 
L 165.575402 314.92589 
L 165.926355 313.127321 
L 166.277307 300.756003 
L 166.628259 307.804516 
L 167.330164 315.314869 
L 167.681117 309.323388 
L 168.032069 314.839851 
L 168.383021 300.041641 
L 168.733974 311.034237 
L 169.084926 307.747358 
L 169.435879 307.753497 
L 169.786831 309.862993 
L 170.137784 315.738956 
L 170.488736 307.590861 
L 170.839688 308.794871 
L 171.190641 308.537059 
L 171.541593 307.996786 
L 171.892546 312.302906 
L 172.243498 319.354313 
L 172.59445 292.028964 
L 172.945403 312.003102 
L 173.296355 317.618439 
L 173.647308 307.189247 
L 173.99826 307.547645 
L 174.349212 312.076585 
L 174.700165 303.793389 
L 175.051117 308.332348 
L 175.753022 308.841541 
L 176.103974 308.307832 
L 176.454927 310.265953 
L 176.805879 309.3115 
L 177.156832 307.427198 
L 177.507784 309.476234 
L 177.858736 309.157861 
L 178.209689 309.722655 
L 178.560641 308.602197 
L 178.911594 309.302096 
L 179.262546 310.426106 
L 179.613498 310.570126 
L 179.964451 309.44278 
L 180.315403 311.166279 
L 180.666356 307.246931 
L 181.017308 307.129851 
L 181.36826 310.578304 
L 182.070165 308.521631 
L 182.421118 309.360437 
L 182.77207 309.337068 
L 183.123023 309.78388 
L 183.473975 307.611827 
L 183.824927 311.049168 
L 184.17588 307.971105 
L 184.877785 315.511066 
L 185.228737 308.280109 
L 185.579689 307.366689 
L 185.930642 307.816138 
L 186.281594 306.449381 
L 186.632547 309.144185 
L 186.983499 313.674866 
L 187.334451 309.874762 
L 187.685404 310.45943 
L 188.036356 308.449888 
L 188.387309 310.232363 
L 188.738261 308.517497 
L 189.440166 311.507338 
L 189.791118 310.876909 
L 190.142071 307.288354 
L 190.493023 311.795112 
L 190.843975 310.513586 
L 191.194928 305.33819 
L 191.54588 303.053727 
L 191.896833 313.763878 
L 192.247785 313.345587 
L 192.598737 311.610679 
L 192.94969 305.507008 
L 193.300642 304.3552 
L 194.002547 314.56818 
L 194.3535 310.746928 
L 194.704452 305.474699 
L 195.055404 310.244448 
L 195.406357 311.746 
L 195.757309 312.407376 
L 196.108262 304.152154 
L 196.459214 307.9302 
L 196.810166 309.310595 
L 197.161119 310.138644 
L 197.512071 312.030145 
L 197.863024 305.770174 
L 198.213976 310.383759 
L 198.564928 311.813726 
L 198.915881 309.935358 
L 199.266833 310.210731 
L 199.968738 312.14857 
L 200.31969 305.968203 
L 200.670643 309.396694 
L 201.021595 308.858126 
L 201.372548 308.050111 
L 201.7235 312.35356 
L 202.425405 309.710958 
L 203.12731 301.028167 
L 203.478262 312.502226 
L 203.829214 311.221727 
L 204.180167 308.469097 
L 204.531119 309.500014 
L 204.882072 309.834778 
L 205.233024 311.987333 
L 205.583976 308.869705 
L 206.285881 311.222037 
L 206.636834 311.260161 
L 206.987786 309.120435 
L 207.689691 312.045767 
L 208.040643 312.669517 
L 208.391596 310.566261 
L 208.742548 311.675007 
L 209.444453 309.5985 
L 209.795405 310.868395 
L 210.146358 310.797847 
L 210.49731 308.340043 
L 210.848263 295.913317 
L 211.199215 308.551304 
L 211.550167 311.737237 
L 211.90112 309.23163 
L 212.252072 310.044258 
L 212.603025 310.145004 
L 212.953977 307.306908 
L 213.655882 309.637818 
L 214.006834 307.827264 
L 214.357787 308.651831 
L 215.059691 300.380399 
L 215.410644 314.332667 
L 215.761596 309.007314 
L 216.112549 311.389616 
L 216.463501 306.931745 
L 216.814453 310.033225 
L 217.165406 310.786851 
L 217.516358 310.395391 
L 217.867311 310.688617 
L 218.218263 312.840993 
L 218.569216 311.98906 
L 218.920168 302.591252 
L 219.27112 311.913472 
L 219.622073 309.138258 
L 219.973025 310.434136 
L 220.323978 308.705178 
L 221.025882 309.064987 
L 221.376835 310.613766 
L 221.727787 309.839386 
L 222.07874 310.308687 
L 222.780644 310.194116 
L 223.131597 309.381997 
L 223.482549 312.688166 
L 223.833502 311.055787 
L 224.184454 308.202927 
L 224.535406 309.169817 
L 224.886359 314.942452 
L 225.939216 309.055853 
L 226.290168 310.90883 
L 226.641121 305.837557 
L 226.992073 308.86056 
L 227.343026 309.910123 
L 227.693978 312.196663 
L 228.395883 307.11831 
L 229.44874 312.085545 
L 229.799692 306.526471 
L 230.501597 313.342475 
L 231.203502 305.719573 
L 231.554455 308.028368 
L 231.905407 312.215819 
L 232.256359 310.652642 
L 232.607312 308.057052 
L 232.958264 307.673646 
L 233.660169 311.105011 
L 234.011121 308.469465 
L 234.362074 310.569739 
L 234.713026 309.616405 
L 235.063979 310.583188 
L 235.414931 310.264887 
L 235.765883 312.241572 
L 236.116836 309.421782 
L 236.467788 310.961923 
L 236.818741 309.126378 
L 237.169693 310.375511 
L 237.520645 309.061038 
L 237.871598 310.465355 
L 238.573503 305.256375 
L 239.275407 309.846042 
L 239.62636 310.924039 
L 239.977312 310.433837 
L 240.328265 308.236837 
L 240.679217 310.275781 
L 241.030169 309.061515 
L 241.381122 310.597743 
L 241.732074 308.990375 
L 242.083027 312.169477 
L 242.433979 311.926158 
L 243.135884 309.178815 
L 243.486836 310.246161 
L 243.837789 301.363968 
L 244.188741 316.129403 
L 244.539694 312.384897 
L 245.241598 307.572572 
L 245.592551 311.04328 
L 245.943503 308.986969 
L 246.294456 311.997342 
L 246.645408 311.172849 
L 246.99636 311.366415 
L 247.347313 307.863988 
L 247.698265 312.732359 
L 248.049218 312.038859 
L 248.40017 306.085835 
L 248.751122 310.844711 
L 249.102075 311.449263 
L 249.453027 307.992069 
L 249.80398 316.019888 
L 250.154932 303.977596 
L 250.505884 311.222771 
L 250.856837 309.332897 
L 251.207789 309.957877 
L 251.558742 310.008211 
L 251.909694 307.583781 
L 252.260646 311.810345 
L 252.611599 310.907102 
L 252.962551 308.730435 
L 253.313504 307.51758 
L 253.664456 307.717574 
L 254.015408 311.273768 
L 254.366361 308.412154 
L 254.717313 308.954662 
L 255.068266 308.956052 
L 255.419218 310.668999 
L 255.770171 310.053548 
L 256.472075 307.812632 
L 256.823028 311.493883 
L 257.17398 309.026561 
L 257.524933 310.273744 
L 257.875885 310.509203 
L 258.226837 310.286898 
L 258.57779 308.539775 
L 259.279695 310.589979 
L 259.630647 309.346879 
L 259.981599 310.30508 
L 260.332552 310.325504 
L 260.683504 307.007036 
L 261.034457 312.559963 
L 261.385409 309.405765 
L 261.736361 309.299887 
L 262.087314 309.688652 
L 262.438266 310.716923 
L 262.789219 313.013126 
L 263.140171 306.074899 
L 263.491123 311.77238 
L 263.842076 307.066587 
L 264.193028 311.264053 
L 264.894933 306.232332 
L 265.245885 315.597783 
L 265.596838 307.360228 
L 265.94779 310.698187 
L 266.298743 308.629691 
L 266.649695 311.247985 
L 267.000648 307.135534 
L 267.3516 311.891249 
L 267.702552 308.568313 
L 268.404457 311.945529 
L 268.75541 309.967909 
L 269.106362 304.65613 
L 269.457314 310.919475 
L 269.808267 313.260462 
L 270.159219 309.344626 
L 270.510172 307.924112 
L 270.861124 288.967798 
L 271.212076 293.473969 
L 271.563029 305.316875 
L 271.913981 308.2261 
L 272.264934 303.015162 
L 272.615886 309.044402 
L 272.966838 304.81234 
L 273.317791 303.321635 
L 274.019696 306.756005 
L 274.370648 307.28127 
L 274.7216 304.958378 
L 275.072553 308.33897 
L 275.423505 300.812241 
L 275.774458 308.059347 
L 276.12541 308.544083 
L 276.476362 307.244273 
L 276.827315 308.55498 
L 277.178267 305.621087 
L 277.52922 308.470914 
L 277.880172 308.294257 
L 278.231124 309.588281 
L 278.582077 309.414504 
L 278.933029 307.819667 
L 279.283982 305.292168 
L 279.634934 308.804619 
L 280.336839 310.313791 
L 280.687791 308.157956 
L 281.389696 308.271195 
L 281.740649 309.25506 
L 282.091601 311.635219 
L 282.442553 313.100294 
L 282.793506 306.002027 
L 283.144458 311.758684 
L 283.495411 323.180793 
L 283.846363 291.577102 
L 284.197315 311.416889 
L 284.548268 312.727391 
L 284.89922 320.173837 
L 285.250173 311.901013 
L 285.952077 307.496789 
L 286.30303 308.210652 
L 286.653982 308.5996 
L 287.004935 310.044762 
L 287.355887 309.450802 
L 287.706839 307.351177 
L 288.057792 313.161738 
L 288.408744 313.209962 
L 288.759697 296.378269 
L 289.110649 311.591949 
L 289.461601 309.958019 
L 289.812554 311.634596 
L 290.163506 306.224125 
L 290.514459 305.654469 
L 290.865411 308.193567 
L 291.216364 309.461795 
L 291.918268 308.759908 
L 292.269221 311.229127 
L 293.322078 306.654457 
L 293.67303 311.721732 
L 294.023983 307.770643 
L 294.374935 309.493514 
L 294.725888 308.829236 
L 295.07684 309.812039 
L 295.427792 306.53201 
L 295.778745 309.249283 
L 296.129697 309.090609 
L 296.831602 312.343811 
L 297.182554 304.715993 
L 297.533507 309.159352 
L 297.884459 308.923243 
L 298.235412 309.432182 
L 298.586364 311.026895 
L 298.937316 307.822087 
L 299.639221 311.271631 
L 299.990174 317.053813 
L 300.341126 308.917084 
L 300.692078 310.986244 
L 301.043031 308.478299 
L 301.393983 310.268684 
L 301.744936 308.508566 
L 302.095888 309.182706 
L 302.44684 304.813067 
L 302.797793 311.669069 
L 303.148745 308.78992 
L 303.499698 309.295045 
L 303.85065 309.232358 
L 304.201603 308.21986 
L 304.552555 310.583763 
L 304.903507 307.793962 
L 305.25446 307.877432 
L 305.605412 311.553988 
L 305.956365 308.099116 
L 306.307317 308.330061 
L 306.658269 311.487802 
L 307.009222 305.367607 
L 307.360174 310.498448 
L 307.711127 308.835438 
L 308.062079 311.109609 
L 308.413031 309.336447 
L 308.763984 308.291852 
L 309.114936 315.972452 
L 309.465889 301.33494 
L 309.816841 313.365189 
L 310.167793 306.765546 
L 310.518746 309.035221 
L 310.869698 315.528631 
L 311.220651 305.017966 
L 311.571603 306.53014 
L 311.922555 310.319859 
L 312.273508 310.625425 
L 312.62446 307.681258 
L 312.975413 309.593122 
L 313.326365 314.719485 
L 314.02827 301.650422 
L 314.379222 309.809341 
L 314.730175 310.723997 
L 315.081127 310.35695 
L 315.43208 309.121327 
L 315.783032 309.749969 
L 316.133984 309.228846 
L 316.484937 307.763059 
L 316.835889 311.349986 
L 317.186842 309.58545 
L 317.537794 309.738842 
L 317.888746 310.873869 
L 318.239699 305.005386 
L 318.590651 313.421716 
L 318.941604 305.122401 
L 319.292556 309.679268 
L 319.643508 310.689026 
L 319.994461 309.213528 
L 320.345413 310.156097 
L 320.696366 308.159136 
L 321.047318 310.335481 
L 321.39827 309.64339 
L 322.100175 317.181314 
L 322.451128 311.665725 
L 322.80208 310.425395 
L 323.153032 307.272396 
L 323.503985 310.652226 
L 323.854937 303.806493 
L 324.20589 306.480808 
L 324.556842 310.918547 
L 324.907794 311.092343 
L 325.258747 308.9309 
L 325.609699 309.057774 
L 325.960652 310.687315 
L 326.311604 316.839248 
L 326.662556 314.157448 
L 327.364461 303.358412 
L 327.715414 305.955332 
L 328.417319 313.511766 
L 328.768271 306.546753 
L 329.119223 305.329276 
L 329.470176 299.132202 
L 329.821128 308.70122 
L 330.172081 311.578567 
L 330.523033 310.895217 
L 330.873985 303.95536 
L 331.224938 312.30824 
L 331.926843 308.387687 
L 332.277795 314.23285 
L 332.9797 309.426232 
L 333.330652 309.506575 
L 333.681605 313.162221 
L 334.032557 309.50199 
L 334.383509 309.109025 
L 334.734462 311.464869 
L 335.085414 307.692912 
L 335.787319 311.50732 
L 336.138271 311.711383 
L 336.489224 306.134537 
L 336.840176 305.472032 
L 337.191129 318.969569 
L 337.893033 306.028043 
L 338.243986 312.180203 
L 338.594938 303.926952 
L 338.945891 305.464199 
L 339.296843 310.718402 
L 339.998748 309.082885 
L 340.3497 310.866828 
L 340.700653 305.146473 
L 341.051605 309.296321 
L 341.402558 311.596337 
L 341.75351 308.311078 
L 342.104462 307.947429 
L 342.455415 311.293437 
L 342.806367 308.500971 
L 343.15732 307.272967 
L 343.508272 310.951702 
L 343.859224 306.028695 
L 344.210177 311.218256 
L 344.561129 307.457011 
L 344.912082 313.29611 
L 345.263034 313.046324 
L 345.613986 307.653176 
L 345.964939 307.430022 
L 346.315891 309.239971 
L 346.666844 312.569088 
L 347.017796 310.094253 
L 347.368748 311.567989 
L 347.719701 306.571092 
L 348.070653 312.745421 
L 348.421606 308.14919 
L 348.772558 310.188861 
L 349.12351 310.599161 
L 349.474463 309.80223 
L 349.825415 314.563105 
L 350.176368 314.202085 
L 350.52732 302.118529 
L 350.878272 311.34993 
L 351.229225 308.107194 
L 351.580177 310.476608 
L 351.93113 309.392784 
L 352.282082 307.760502 
L 352.633035 318.264712 
L 352.983987 299.498785 
L 353.334939 312.69896 
L 353.685892 308.875742 
L 354.036844 311.519109 
L 354.387797 307.302667 
L 354.738749 309.521243 
L 355.089701 310.928282 
L 355.440654 310.569417 
L 355.791606 307.875078 
L 356.142559 313.442821 
L 356.493511 305.150891 
L 356.844463 309.671191 
L 357.195416 309.459352 
L 357.546368 309.967182 
L 357.897321 310.149167 
L 358.248273 311.129591 
L 358.599225 308.940622 
L 358.950178 312.382131 
L 359.30113 310.774445 
L 359.652083 311.272757 
L 360.003035 306.878774 
L 360.353987 311.409569 
L 360.70494 313.92309 
L 361.055892 304.662709 
L 361.406845 313.745118 
L 361.757797 312.568385 
L 362.108749 305.84821 
L 362.459702 311.520084 
L 362.810654 308.411339 
L 363.161607 309.714989 
L 363.512559 312.409182 
L 363.863512 310.876406 
L 364.214464 307.169453 
L 364.565416 306.884905 
L 364.916369 311.89538 
L 365.267321 308.692462 
L 365.618274 309.451837 
L 365.969226 308.01808 
L 366.320178 309.334251 
L 366.671131 309.413419 
L 367.022083 309.012512 
L 367.373036 311.309897 
L 367.723988 310.996391 
L 368.07494 308.43725 
L 368.425893 307.804428 
L 368.776845 311.790763 
L 369.127798 308.148928 
L 369.47875 312.643851 
L 369.829702 313.085899 
L 370.180655 309.982842 
L 370.531607 308.154362 
L 370.88256 307.116458 
L 371.233512 312.09815 
L 371.584464 309.204377 
L 371.935417 310.321792 
L 372.286369 308.862855 
L 372.637322 311.1443 
L 372.988274 319.076109 
L 373.339226 309.473123 
L 373.690179 310.136359 
L 374.041131 313.484248 
L 374.743036 304.982033 
L 375.093988 309.639963 
L 375.444941 309.598801 
L 375.795893 311.375289 
L 376.146846 311.20357 
L 376.497798 305.922903 
L 376.848751 312.200558 
L 377.199703 311.042386 
L 377.550655 307.038428 
L 377.901608 309.061259 
L 378.25256 311.912826 
L 378.603513 309.284215 
L 378.954465 308.006783 
L 379.305417 309.866968 
L 379.65637 309.394395 
L 380.358275 309.783476 
L 380.709227 316.537645 
L 381.060179 302.778088 
L 381.411132 318.207694 
L 381.762084 308.445168 
L 382.113037 305.871503 
L 382.463989 314.919447 
L 382.814941 311.409631 
L 383.165894 305.847395 
L 383.516846 314.852464 
L 383.867799 308.516725 
L 384.218751 304.77617 
L 384.569703 313.718204 
L 384.920656 308.175043 
L 385.271608 307.801055 
L 385.622561 308.940105 
L 385.973513 311.317326 
L 386.324465 307.898508 
L 386.675418 310.310935 
L 387.02637 307.285894 
L 387.377323 308.229625 
L 387.728275 325.104271 
L 388.079228 308.83613 
L 388.43018 313.700799 
L 388.781132 303.797387 
L 389.483037 316.82866 
L 389.83399 305.697147 
L 390.184942 310.256925 
L 390.535894 309.416428 
L 390.886847 310.089881 
L 391.237799 315.568652 
L 391.588752 303.79943 
L 392.290656 311.366992 
L 392.641609 309.567885 
L 392.992561 310.69198 
L 393.343514 312.428274 
L 393.694466 304.249865 
L 394.045418 307.822498 
L 394.396371 313.34397 
L 394.747323 307.547922 
L 395.098276 309.030834 
L 395.449228 307.751555 
L 395.80018 313.534449 
L 396.151133 304.211637 
L 396.853038 315.713656 
L 397.20399 307.568802 
L 397.554942 308.316291 
L 397.905895 307.654087 
L 398.256847 308.693584 
L 398.6078 310.197423 
L 398.958752 315.862977 
L 399.309704 305.250367 
L 399.660657 309.280685 
L 400.011609 310.046988 
L 400.362562 310.494031 
L 400.713514 309.19468 
L 401.064467 313.298906 
L 401.415419 305.676994 
L 401.766371 309.899479 
L 402.117324 310.213472 
L 402.468276 307.51767 
L 402.819229 309.428204 
L 403.170181 310.159738 
L 403.521133 307.100942 
L 403.872086 308.843435 
L 404.223038 307.170638 
L 405.275895 310.289667 
L 405.626848 312.063054 
L 405.9778 309.119897 
L 406.328753 311.572927 
L 407.030657 342.152716 
L 407.38161 275.80155 
L 407.732562 315.563174 
L 408.083515 302.777969 
L 408.434467 317.870944 
L 408.785419 308.861036 
L 409.136372 305.555161 
L 409.487324 310.43484 
L 409.838277 311.105506 
L 410.189229 317.670966 
L 410.540181 306.989556 
L 410.891134 306.127339 
L 411.242086 312.625008 
L 411.593039 311.219467 
L 411.943991 308.95779 
L 412.294944 308.437969 
L 412.645896 308.321011 
L 412.996848 310.917095 
L 413.347801 310.44989 
L 413.698753 307.640857 
L 414.049706 305.792945 
L 414.400658 311.4561 
L 414.75161 305.398696 
L 415.453515 312.72537 
L 415.804468 311.051167 
L 416.15542 311.23898 
L 416.506372 308.374195 
L 416.857325 310.187545 
L 417.208277 304.761347 
L 417.55923 309.423864 
L 418.261134 312.058301 
L 418.612087 304.506399 
L 418.963039 309.985262 
L 419.313992 309.951117 
L 419.664944 308.623328 
L 420.015896 354.375461 
L 420.366849 282.015169 
L 420.717801 318.48014 
L 421.068754 308.617465 
L 421.419706 315.403558 
L 421.770658 306.906171 
L 422.121611 308.949084 
L 422.472563 309.103582 
L 422.823516 306.298929 
L 423.174468 308.23895 
L 423.52542 313.050552 
L 423.876373 301.020829 
L 424.227325 314.45255 
L 424.578278 306.966566 
L 424.92923 309.91312 
L 425.280183 307.781556 
L 425.631135 308.06991 
L 425.982087 308.809323 
L 426.33304 308.407151 
L 426.683992 306.769982 
L 427.034945 309.566316 
L 427.385897 308.782024 
L 427.736849 306.644584 
L 428.087802 307.128197 
L 428.438754 304.291194 
L 428.789707 310.145545 
L 429.140659 305.620523 
L 429.491611 311.879127 
L 429.842564 309.064791 
L 430.193516 304.034188 
L 430.544469 310.956642 
L 430.895421 311.730103 
L 431.246373 313.564318 
L 431.597326 307.289222 
L 431.948278 311.338125 
L 432.299231 309.743376 
L 432.650183 302.357835 
L 433.001135 308.002336 
L 433.352088 310.403334 
L 433.70304 307.833237 
L 434.053993 308.968384 
L 434.404945 307.649443 
L 434.755897 309.27082 
L 435.10685 310.012524 
L 435.457802 306.991497 
L 435.808755 310.319282 
L 436.159707 310.052476 
L 436.51066 310.716673 
L 436.861612 300.30427 
L 437.212564 315.361198 
L 437.563517 305.598129 
L 437.914469 309.785714 
L 438.265422 310.076537 
L 438.616374 310.929779 
L 438.967326 309.892501 
L 439.318279 304.583683 
L 439.669231 311.493111 
L 440.020184 309.269846 
L 440.371136 312.419547 
L 440.722088 303.924854 
L 441.073041 313.77145 
L 441.423993 308.718993 
L 441.774946 308.893461 
L 442.125898 309.597486 
L 442.47685 307.198073 
L 442.827803 310.09958 
L 443.178755 314.499571 
L 443.529708 301.180148 
L 443.88066 311.349992 
L 444.231612 309.797679 
L 444.582565 309.774942 
L 444.933517 311.038437 
L 445.28447 304.071455 
L 445.635422 312.819671 
L 445.986374 308.832183 
L 446.337327 310.884143 
L 446.688279 306.6546 
L 447.039232 308.704172 
L 447.390184 314.927285 
L 447.741136 324.423484 
L 448.092089 305.631222 
L 448.443041 301.996633 
L 448.793994 311.024016 
L 449.144946 306.787357 
L 449.495899 315.598032 
L 449.846851 313.200367 
L 450.197803 309.536497 
L 450.548756 310.589541 
L 450.899708 310.699797 
L 451.250661 309.445585 
L 451.601613 309.226602 
L 451.952565 300.013452 
L 452.303518 308.517473 
L 452.65447 311.037035 
L 453.005423 307.053743 
L 453.356375 311.467949 
L 453.707327 312.621004 
L 454.05828 308.26729 
L 454.409232 307.529315 
L 454.760185 311.683505 
L 455.111137 330.027301 
L 455.462089 277.175367 
L 455.813042 313.597197 
L 456.163994 312.967495 
L 456.514947 312.750481 
L 456.865899 305.519141 
L 457.216851 303.277678 
L 457.567804 322.73931 
L 457.918756 314.284021 
L 458.269709 297.797117 
L 458.620661 306.409068 
L 458.971613 310.857858 
L 459.322566 310.641638 
L 459.673518 314.416766 
L 460.024471 299.522449 
L 460.375423 317.35284 
L 460.726376 303.852789 
L 461.077328 312.626488 
L 461.42828 305.905798 
L 461.779233 307.973299 
L 462.130185 310.728272 
L 462.481138 311.308728 
L 462.83209 310.94839 
L 463.533995 307.143915 
L 463.884947 307.154914 
L 464.2359 306.172955 
L 464.586852 314.312817 
L 464.937804 309.917114 
L 465.288757 303.204599 
L 465.639709 310.906521 
L 465.990662 310.824905 
L 466.692566 304.75621 
L 467.043519 309.282208 
L 467.394471 310.038048 
L 467.745424 309.602668 
L 468.096376 309.822816 
L 468.447328 309.131024 
L 468.798281 311.205678 
L 469.149233 310.959465 
L 469.500186 309.602584 
L 469.851138 307.303694 
L 470.20209 314.426223 
L 470.553043 314.834209 
L 470.903995 312.698141 
L 471.254948 300.814745 
L 471.6059 313.070228 
L 471.956852 310.74646 
L 472.307805 309.652767 
L 472.658757 309.529023 
L 473.00971 311.710169 
L 473.360662 311.479983 
L 473.711615 312.703137 
L 474.062567 310.153145 
L 474.413519 313.571646 
L 474.764472 308.902759 
L 475.115424 309.473036 
L 475.466377 310.535632 
L 475.817329 313.149956 
L 476.168281 308.005176 
L 476.519234 311.999268 
L 476.870186 312.443172 
L 477.221139 315.339246 
L 477.572091 305.911138 
L 477.923043 310.758041 
L 478.273996 306.675051 
L 478.975901 315.619589 
L 479.677805 305.27374 
L 480.028758 311.703038 
L 480.37971 308.079678 
L 480.730663 305.907386 
L 481.432567 313.338922 
L 481.78352 303.91016 
L 482.134472 303.892259 
L 482.485425 311.214906 
L 482.836377 310.755365 
L 483.187329 311.214388 
L 483.538282 308.8379 
L 483.889234 312.601709 
L 484.240187 311.378153 
L 484.591139 312.394698 
L 484.942092 304.483072 
L 485.643996 316.85578 
L 485.994949 305.131748 
L 486.696854 310.561631 
L 487.047806 309.502939 
L 487.398758 311.510846 
L 487.749711 310.147492 
L 488.100663 309.304066 
L 488.451616 310.236938 
L 488.802568 308.819948 
L 489.15352 310.189447 
L 489.504473 310.980785 
L 489.855425 310.207893 
L 490.206378 314.850729 
L 490.55733 314.001095 
L 490.908282 310.494913 
L 491.259235 310.761344 
L 491.610187 308.065747 
L 491.96114 312.15634 
L 492.312092 313.353105 
L 492.663044 313.03357 
L 493.013997 307.042845 
L 493.364949 311.521431 
L 493.715902 309.342231 
L 494.066854 305.121459 
L 494.417806 314.952853 
L 494.768759 307.712284 
L 495.119711 308.203989 
L 495.470664 309.533548 
L 495.821616 307.734486 
L 496.172568 309.096261 
L 496.523521 307.299233 
L 497.576378 315.600113 
L 497.927331 315.908924 
L 498.629235 302.879539 
L 498.980188 310.627596 
L 499.33114 309.359664 
L 499.682093 314.70488 
L 500.033045 315.987923 
L 500.383997 311.050945 
L 500.73495 309.674031 
L 501.085902 309.794586 
L 501.436855 313.874723 
L 502.138759 309.019301 
L 502.489712 312.744292 
L 502.840664 309.497667 
L 503.191617 310.833435 
L 503.542569 305.09671 
L 503.893521 310.327381 
L 504.244474 309.666911 
L 504.595426 310.787396 
L 504.946379 320.445063 
L 505.297331 292.098388 
L 505.648283 322.843375 
L 505.999236 312.560601 
L 506.350188 294.408974 
L 506.701141 289.700403 
L 507.052093 317.329392 
L 507.403045 310.439693 
L 507.753998 306.583093 
L 508.10495 310.560354 
L 508.455903 308.424852 
L 508.806855 305.21164 
L 509.157808 307.957946 
L 509.50876 309.778739 
L 509.859712 304.239138 
L 510.210665 308.341101 
L 510.561617 307.300594 
L 510.91257 312.184985 
L 511.263522 301.607708 
L 511.614474 308.887058 
L 511.965427 307.311476 
L 512.316379 307.816144 
L 512.667332 312.093404 
L 513.018284 307.420303 
L 513.369236 311.976329 
L 513.720189 307.389536 
L 514.071141 313.35913 
L 514.422094 312.068481 
L 514.773046 311.237908 
L 515.123998 310.092682 
L 515.474951 307.608348 
L 515.825903 314.621524 
L 516.176856 308.825772 
L 516.527808 312.107621 
L 516.87876 311.816357 
L 517.229713 314.239315 
L 517.580665 312.144868 
L 517.931618 312.770295 
L 518.28257 297.424026 
L 518.633522 312.118987 
L 518.984475 309.28378 
L 519.335427 311.293911 
L 519.68638 315.880876 
L 520.388284 307.266079 
L 520.739237 310.811186 
L 521.090189 301.785927 
L 521.441142 311.508298 
L 521.792094 317.155054 
L 522.493999 305.870121 
L 522.844951 306.070399 
L 523.195904 312.048209 
L 523.546856 309.134517 
L 523.897809 307.448837 
L 524.248761 313.022927 
L 524.599713 310.243466 
L 524.950666 310.298238 
L 525.301618 311.589807 
L 525.652571 313.968815 
L 526.354475 306.140216 
L 526.705428 308.694137 
L 527.05638 316.562102 
L 527.407333 313.158504 
L 527.758285 299.725016 
L 528.109237 310.275833 
L 528.46019 311.341092 
L 528.811142 310.273782 
L 529.162095 305.529674 
L 529.513047 313.812008 
L 529.863999 313.698438 
L 530.214952 303.803311 
L 530.565904 315.729239 
L 530.916857 314.258832 
L 531.267809 306.666187 
L 531.618761 309.253756 
L 531.969714 305.130598 
L 532.320666 311.657004 
L 533.022571 306.182584 
L 533.373524 313.902623 
L 534.075428 304.359265 
L 534.426381 309.3566 
L 534.777333 311.578672 
L 535.128286 307.887165 
L 535.479238 306.061411 
L 535.83019 303.458893 
L 536.181143 310.177078 
L 536.532095 308.842858 
L 536.883048 310.663601 
L 537.584952 307.978619 
L 537.935905 311.628696 
L 538.286857 307.777007 
L 538.63781 314.142621 
L 538.988762 311.940539 
L 539.339714 307.547092 
L 539.690667 307.639773 
L 540.041619 311.882656 
L 540.392572 309.417631 
L 540.743524 304.692053 
L 541.094476 311.44232 
L 541.445429 310.552967 
L 541.796381 308.05189 
L 542.147334 310.05744 
L 542.498286 376.097159 
L 542.849238 352.291644 
L 543.200191 309.50693 
L 543.551143 319.653237 
L 544.253048 232.802099 
L 544.604 308.469353 
L 544.954953 301.014156 
L 545.305905 301.216343 
L 545.656858 289.690947 
L 546.00781 300.660525 
L 546.358763 299.93458 
L 546.709715 301.577291 
L 547.060667 288.70867 
L 547.41162 301.417144 
L 547.762572 301.903156 
L 548.113525 308.534077 
L 548.464477 299.576884 
L 548.815429 304.952073 
L 549.166382 302.444403 
L 549.517334 305.747401 
L 549.868287 305.211901 
L 550.219239 308.255658 
L 550.570191 306.16092 
L 550.921144 306.028285 
L 551.272096 305.556888 
L 551.623049 308.746105 
L 551.974001 306.633193 
L 552.324953 307.541236 
L 552.675906 307.83254 
L 553.026858 308.353805 
L 553.377811 307.31084 
L 553.728763 307.283061 
L 554.079715 308.96863 
L 554.430668 310.062332 
L 554.78162 308.379683 
L 555.132573 309.265837 
L 555.483525 308.866173 
L 555.834477 309.33803 
L 556.18543 311.162289 
L 556.536382 310.380091 
L 556.887335 304.575884 
L 557.238287 315.342217 
L 557.58924 308.672273 
L 557.940192 305.180515 
L 558.291144 314.539079 
L 558.642097 316.340752 
L 558.993049 315.053959 
L 559.344002 318.80509 
L 559.694954 310.776329 
L 560.045906 307.946548 
L 560.396859 303.071894 
L 560.747811 304.365907 
L 561.098764 309.355454 
L 561.449716 308.793598 
L 561.800668 311.059705 
L 562.151621 314.052679 
L 562.853526 304.72606 
L 563.204478 309.896355 
L 563.55543 308.338463 
L 563.906383 314.149056 
L 564.257335 306.836419 
L 564.608288 310.514129 
L 564.95924 306.684977 
L 565.310192 312.150469 
L 565.661145 308.757417 
L 566.012097 307.349188 
L 566.36305 305.442619 
L 566.714002 310.901567 
L 567.064954 308.251672 
L 567.415907 309.286627 
L 567.766859 307.566748 
L 568.117812 303.476579 
L 568.468764 308.927668 
L 568.819716 309.031855 
L 569.170669 308.839121 
L 569.521621 309.198175 
L 569.872574 308.002367 
L 570.223526 309.612076 
L 570.574479 307.577285 
L 570.925431 308.983306 
L 571.276383 309.023345 
L 571.627336 308.434789 
L 571.978288 309.791196 
L 572.329241 308.680306 
L 573.031145 312.155783 
L 573.382098 309.817809 
L 573.73305 310.952683 
L 574.084003 304.99015 
L 574.434955 314.204391 
L 574.785907 306.722935 
L 575.13686 314.868513 
L 575.487812 313.365816 
L 575.838765 312.748336 
L 576.189717 310.976409 
L 576.540669 311.51502 
L 576.891622 311.484219 
L 577.242574 309.25825 
L 577.593527 312.433255 
L 577.944479 309.261933 
L 578.295431 312.289931 
L 578.646384 308.61999 
L 578.997336 301.325064 
L 579.348289 307.331326 
L 580.050193 308.10678 
L 580.401146 309.197675 
L 580.752098 306.81742 
L 581.103051 308.166119 
L 581.454003 308.265636 
L 581.804956 307.648558 
L 582.155908 309.384232 
L 582.50686 309.225354 
L 583.208765 307.874573 
L 583.559718 309.816515 
L 583.91067 307.904618 
L 584.261622 316.511517 
L 584.612575 318.517876 
L 584.963527 306.326186 
L 585.665432 315.774978 
L 586.016384 317.613576 
L 586.367337 325.56127 
L 586.718289 311.218538 
L 587.069242 303.474306 
L 587.420194 312.711247 
L 587.771146 308.862267 
L 588.122099 310.140926 
L 588.473051 312.801007 
L 588.824004 308.030166 
L 589.174956 313.245869 
L 589.876861 314.691121 
L 590.227813 305.416842 
L 590.578766 310.263195 
L 590.929718 309.602907 
L 591.28067 315.697892 
L 591.631623 299.736275 
L 591.982575 311.61978 
L 592.333528 313.551884 
L 592.68448 305.41766 
L 593.035432 310.06518 
L 593.386385 312.716666 
L 594.08829 307.753809 
L 594.439242 308.908788 
L 594.790195 311.82643 
L 595.141147 309.230091 
L 595.492099 309.183464 
L 595.843052 308.062254 
L 596.544957 311.238209 
L 596.895909 309.278991 
L 597.246861 311.110841 
L 597.597814 305.335029 
L 597.948766 312.565251 
L 598.299719 293.991867 
L 598.650671 304.38315 
L 599.001623 304.834262 
L 599.352576 309.473716 
L 599.703528 307.276865 
L 600.054481 307.201314 
L 600.405433 311.01714 
L 600.756385 321.014763 
L 601.107338 310.308292 
L 601.45829 306.29058 
L 601.809243 305.43352 
L 602.160195 306.086283 
L 602.511147 307.738633 
L 602.8621 304.398157 
L 603.213052 310.678295 
L 603.564005 307.017555 
L 603.914957 309.497648 
L 604.265909 308.135135 
L 604.616862 311.354919 
L 604.967814 316.640521 
L 605.318767 319.103087 
L 605.669719 308.184715 
L 606.371624 312.115391 
L 606.722576 312.127652 
L 607.073529 314.016775 
L 607.424481 307.280012 
L 607.775434 309.067661 
L 608.126386 309.471122 
L 608.477338 313.052514 
L 608.828291 308.432208 
L 609.179243 315.733928 
L 609.530196 300.341023 
L 609.881148 317.888604 
L 610.2321 308.257322 
L 610.583053 311.141152 
L 610.934005 308.546681 
L 611.284958 305.056031 
L 611.63591 317.512188 
L 612.337815 294.2538 
L 612.688767 312.944888 
L 613.03972 306.378982 
L 613.390672 308.495142 
L 613.741624 305.311355 
L 614.092577 310.609104 
L 614.443529 311.121236 
L 614.794482 314.921522 
L 615.496386 302.711436 
L 615.847339 310.504284 
L 616.198291 310.773426 
L 616.549244 312.380359 
L 616.900196 310.792147 
L 617.251148 310.61761 
L 617.602101 310.949161 
L 617.953053 310.541615 
L 618.304006 312.573801 
L 618.654958 305.836491 
L 619.005911 318.719312 
L 619.356863 317.856244 
L 619.707815 307.4802 
L 620.058768 302.293028 
L 620.40972 312.51328 
L 620.760673 314.230128 
L 621.111625 308.810516 
L 621.462577 306.271916 
L 621.81353 308.294354 
L 622.164482 301.159569 
L 622.515435 304.405561 
L 622.866387 309.288475 
L 623.217339 312.063982 
L 623.568292 311.424248 
L 623.919244 314.737447 
L 624.270197 310.522388 
L 624.621149 303.318856 
L 624.972101 308.339048 
L 625.323054 308.030601 
L 626.024959 308.804922 
L 626.375911 311.494878 
L 626.726863 309.751026 
L 627.077816 313.305491 
L 627.428768 308.968304 
L 627.779721 312.366603 
L 628.130673 307.209727 
L 628.481625 311.544528 
L 628.832578 309.561193 
L 629.18353 315.425849 
L 629.885435 304.088033 
L 630.236388 314.331601 
L 630.58734 307.169825 
L 630.938292 309.591453 
L 631.289245 311.044288 
L 631.640197 309.577627 
L 631.99115 306.857306 
L 632.693054 312.840389 
L 633.044007 306.772905 
L 633.394959 309.187925 
L 633.745912 299.810365 
L 634.096864 312.330388 
L 634.447816 308.433311 
L 634.798769 318.623788 
L 635.149721 321.010711 
L 635.500674 304.240955 
L 635.851626 305.53636 
L 636.202578 315.032346 
L 636.553531 308.532673 
L 636.904483 308.711391 
L 637.255436 309.251542 
L 637.606388 309.349905 
L 637.95734 309.918343 
L 638.308293 308.022547 
L 638.659245 308.795415 
L 639.010198 313.69312 
L 639.36115 307.059185 
L 639.712102 303.021467 
L 640.063055 310.860146 
L 640.414007 315.546075 
L 640.76496 307.023808 
L 641.115912 308.102401 
L 641.466864 311.997295 
L 641.817817 309.171463 
L 642.168769 310.931352 
L 642.519722 308.491864 
L 642.870674 310.882226 
L 643.221627 306.951444 
L 643.572579 312.117472 
L 643.923531 305.644658 
L 644.274484 310.917627 
L 644.625436 306.763571 
L 644.976389 314.793769 
L 645.327341 306.970604 
L 645.678293 309.494626 
L 646.029246 308.052762 
L 646.380198 310.102765 
L 646.731151 309.744499 
L 647.082103 307.790064 
L 647.433055 309.072827 
L 647.784008 310.819672 
L 648.13496 308.647917 
L 648.485913 310.028822 
L 648.836865 307.479408 
L 649.187817 312.392627 
L 649.53877 309.119005 
L 649.889722 308.238377 
L 650.240675 308.844526 
L 650.591627 313.224586 
L 651.293532 307.989894 
L 651.644484 307.889778 
L 652.346389 310.921894 
L 652.697341 307.371692 
L 653.048294 305.21752 
L 653.399246 314.214269 
L 653.750199 307.774014 
L 654.101151 311.604469 
L 654.452104 307.866725 
L 654.803056 311.819622 
L 655.154008 306.478688 
L 655.504961 308.635008 
L 655.855913 312.362644 
L 656.206866 308.836593 
L 656.557818 307.886916 
L 656.90877 310.836493 
L 657.259723 305.196717 
L 657.610675 310.208955 
L 657.961628 312.275914 
L 658.31258 311.126905 
L 658.663532 309.563552 
L 659.014485 309.039249 
L 659.365437 309.536003 
L 659.71639 310.370902 
L 660.067342 308.20347 
L 660.418294 307.864462 
L 660.769247 308.469604 
L 661.120199 310.178478 
L 661.471152 309.348958 
L 661.822104 310.457942 
L 662.173056 311.996814 
L 662.524009 307.638861 
L 662.874961 301.18255 
L 663.225914 317.73149 
L 663.576866 324.640574 
L 663.927818 309.27364 
L 664.278771 305.61802 
L 664.629723 308.900445 
L 664.980676 306.773577 
L 665.331628 314.029645 
L 665.68258 306.439812 
L 666.033533 313.175358 
L 666.384485 301.448834 
L 666.735438 313.869255 
L 667.08639 311.943935 
L 667.437343 307.07668 
L 667.788295 308.893372 
L 668.4902 305.795267 
L 668.841152 305.893103 
L 669.192105 311.940487 
L 669.543057 308.982309 
L 669.894009 308.645451 
L 670.244962 307.285475 
L 670.595914 308.608058 
L 670.946867 311.212708 
L 671.297819 311.784263 
L 671.648771 305.947956 
L 671.999724 311.216776 
L 672.350676 307.885867 
L 672.701629 307.561241 
L 673.052581 313.529137 
L 673.754486 307.109276 
L 674.105438 307.088007 
L 674.456391 309.023839 
L 674.807343 309.916241 
L 675.158295 306.369759 
L 675.158295 306.369759 
" clip-path="url(#p0d1b55eb58)" style="fill: none; stroke: #c82423; stroke-width: 1.5; stroke-linecap: square"/>
   </g>
   <g id="line2d_28">
    <path d="M 33.23125 309.54204 
L 705.72625 309.54204 
" clip-path="url(#p0d1b55eb58)" style="fill: none; stroke-dasharray: 7.4,3.2; stroke-dashoffset: 0; stroke: #808080; stroke-opacity: 0.7; stroke-width: 2"/>
   </g>
   <g id="patch_3">
    <path d="M 33.23125 392.71875 
L 33.23125 27.04375 
" style="fill: none; stroke: #bcbcbc; stroke-width: 0.8; stroke-linejoin: miter; stroke-linecap: square"/>
   </g>
   <g id="patch_4">
    <path d="M 705.72625 392.71875 
L 705.72625 27.04375 
" style="fill: none; stroke: #bcbcbc; stroke-width: 0.8; stroke-linejoin: miter; stroke-linecap: square"/>
   </g>
   <g id="patch_5">
    <path d="M 33.23125 392.71875 
L 705.72625 392.71875 
" style="fill: none; stroke: #bcbcbc; stroke-width: 0.8; stroke-linejoin: miter; stroke-linecap: square"/>
   </g>
   <g id="patch_6">
    <path d="M 33.23125 27.04375 
L 705.72625 27.04375 
" style="fill: none; stroke: #bcbcbc; stroke-width: 0.8; stroke-linejoin: miter; stroke-linecap: square"/>
   </g>
   <g id="text_16">
    <!-- SARIMA 模型残差图 -->
    <g transform="translate(318.47875 17.04375) scale(0.12 -0.12)">
     <defs>
      <path id="SimHei-53" d="M 2900 1325 
Q 2900 750 2537 412 
Q 2175 75 1550 75 
Q 925 75 575 425 
Q 225 775 225 1300 
L 225 1475 
L 800 1475 
L 800 1325 
Q 800 950 1025 750 
Q 1250 550 1550 550 
Q 1950 550 2137 762 
Q 2325 975 2325 1275 
Q 2325 1525 2100 1737 
Q 1875 1950 1450 2125 
Q 850 2350 587 2625 
Q 325 2900 325 3275 
Q 325 3800 687 4125 
Q 1050 4450 1550 4450 
Q 2200 4450 2487 4062 
Q 2775 3675 2775 3225 
L 2200 3225 
Q 2225 3500 2050 3725 
Q 1875 3950 1550 3950 
Q 1250 3950 1075 3787 
Q 900 3625 900 3350 
Q 900 3125 1037 2962 
Q 1175 2800 1750 2575 
Q 2300 2350 2600 2037 
Q 2900 1725 2900 1325 
z
" transform="scale(0.015625)"/>
      <path id="SimHei-41" d="M 3075 125 
L 2475 125 
L 2125 1450 
L 1025 1450 
L 675 125 
L 75 125 
L 1325 4450 
L 1825 4450 
L 3075 125 
z
M 2000 1925 
L 1600 3450 
L 1550 3450 
L 1150 1925 
L 2000 1925 
z
" transform="scale(0.015625)"/>
      <path id="SimHei-52" d="M 3000 125 
L 2400 125 
L 1500 1975 
L 850 1975 
L 850 125 
L 275 125 
L 275 4400 
L 1525 4400 
Q 2125 4400 2500 4112 
Q 2875 3825 2875 3175 
Q 2875 2675 2625 2400 
Q 2375 2125 2050 2050 
L 3000 125 
z
M 2300 3175 
Q 2300 3525 2087 3725 
Q 1875 3925 1400 3925 
L 850 3925 
L 850 2450 
L 1550 2450 
Q 1850 2450 2075 2612 
Q 2300 2775 2300 3175 
z
" transform="scale(0.015625)"/>
      <path id="SimHei-49" d="M 1850 125 
L 1275 125 
L 1275 4400 
L 1850 4400 
L 1850 125 
z
" transform="scale(0.015625)"/>
      <path id="SimHei-4d" d="M 2925 125 
L 2425 125 
L 2425 3175 
L 2375 3175 
L 1775 125 
L 1375 125 
L 775 3175 
L 725 3175 
L 725 125 
L 225 125 
L 225 4400 
L 1000 4400 
L 1550 1575 
L 1600 1575 
L 2150 4400 
L 2925 4400 
L 2925 125 
z
" transform="scale(0.015625)"/>
      <path id="SimHei-6a21" d="M 5700 3675 
Q 5675 3400 5675 2725 
Q 5675 2050 5700 1725 
L 4375 1725 
Q 4350 1450 4325 1200 
L 5225 1200 
Q 5750 1200 6025 1225 
L 6025 825 
Q 5725 850 5225 850 
L 4700 850 
Q 5075 375 5437 137 
Q 5800 -100 6200 -200 
Q 5975 -375 5850 -625 
Q 5275 -400 4862 25 
Q 4450 450 4300 775 
L 4225 775 
Q 4000 275 3537 -62 
Q 3075 -400 2475 -625 
Q 2350 -375 2125 -200 
Q 2775 -75 3200 200 
Q 3625 475 3775 850 
L 3325 850 
Q 2800 850 2400 825 
L 2400 1225 
Q 2800 1200 3350 1200 
L 3875 1200 
Q 3925 1475 3925 1725 
L 2750 1725 
Q 2775 2075 2775 2700 
Q 2775 3350 2750 3675 
L 5700 3675 
z
M 2175 1650 
Q 2025 1975 1675 2525 
L 1675 300 
Q 1675 -300 1700 -550 
L 1175 -550 
Q 1200 -275 1200 250 
L 1200 2225 
Q 1125 2000 962 1712 
Q 800 1425 600 1050 
Q 450 1275 200 1425 
Q 600 1825 850 2425 
Q 1100 3025 1175 3425 
L 950 3425 
Q 700 3425 400 3400 
L 400 3825 
Q 675 3800 825 3800 
L 1200 3800 
L 1200 4350 
Q 1200 4775 1175 5150 
L 1700 5150 
Q 1675 4825 1675 4425 
L 1675 3800 
Q 2075 3800 2375 3825 
L 2375 3400 
Q 2050 3425 1675 3425 
L 1675 2575 
Q 1850 2675 2000 2775 
Q 2150 2525 2287 2325 
Q 2425 2125 2550 1925 
Q 2325 1775 2175 1650 
z
M 3375 4300 
L 3175 4300 
Q 2700 4300 2425 4275 
L 2425 4675 
Q 2700 4650 3150 4650 
L 3375 4650 
Q 3375 5000 3350 5225 
L 3825 5225 
Q 3800 5000 3800 4650 
L 4550 4650 
Q 4550 4975 4525 5200 
L 5025 5200 
Q 5000 4925 5000 4650 
L 5375 4650 
Q 5650 4650 5950 4675 
L 5950 4275 
Q 5650 4300 5375 4300 
L 5000 4300 
L 5000 3850 
L 4550 3850 
L 4550 4300 
L 3800 4300 
L 3800 3875 
L 3375 3875 
L 3375 4300 
z
M 5275 2075 
L 5275 2525 
L 3200 2525 
L 3200 2075 
L 5275 2075 
z
M 5275 2875 
L 5275 3325 
L 3200 3325 
L 3200 2875 
L 5275 2875 
z
" transform="scale(0.015625)"/>
      <path id="SimHei-578b" d="M 2625 1775 
Q 2650 2325 2650 2700 
L 2650 3000 
L 1825 3000 
Q 1725 2375 1425 2000 
Q 1125 1625 775 1425 
Q 650 1650 375 1900 
Q 850 2075 1062 2362 
Q 1275 2650 1350 3000 
Q 900 3000 375 2975 
L 375 3450 
Q 925 3425 1400 3425 
Q 1425 3950 1425 4475 
Q 1075 4475 700 4450 
L 700 4900 
Q 1050 4875 1525 4875 
L 3000 4875 
Q 3275 4875 3650 4900 
L 3650 4450 
Q 3325 4475 3125 4475 
L 3125 3425 
Q 3450 3425 3825 3450 
L 3825 2975 
Q 3450 3000 3125 3000 
L 3125 2675 
Q 3125 2225 3150 1775 
L 2625 1775 
z
M 3000 1175 
Q 3000 1375 2975 1725 
L 3500 1725 
Q 3475 1375 3475 1175 
L 4550 1175 
Q 5050 1175 5450 1200 
L 5450 725 
Q 4975 750 4550 750 
L 3475 750 
L 3475 -50 
L 5275 -50 
Q 5700 -50 6100 -25 
L 6100 -500 
Q 5725 -475 5300 -475 
L 1250 -475 
Q 775 -475 400 -500 
L 400 -25 
Q 775 -50 1250 -50 
L 3000 -50 
L 3000 750 
L 2025 750 
Q 1500 750 975 725 
L 1050 1200 
Q 1500 1175 2025 1175 
L 3000 1175 
z
M 5775 5200 
Q 5750 4775 5750 4325 
L 5750 2400 
Q 5775 1950 5612 1775 
Q 5450 1600 4900 1525 
Q 4825 1775 4675 2100 
Q 5175 2075 5237 2150 
Q 5300 2225 5300 2525 
L 5300 4325 
Q 5300 4775 5275 5200 
L 5775 5200 
z
M 4600 4750 
Q 4575 4450 4575 3975 
L 4575 3200 
Q 4575 2825 4600 2425 
L 4100 2425 
Q 4125 2825 4125 3200 
L 4125 3975 
Q 4125 4450 4100 4750 
L 4600 4750 
z
M 2650 3425 
L 2650 4475 
L 1875 4475 
Q 1850 3750 1850 3425 
L 2650 3425 
z
" transform="scale(0.015625)"/>
      <path id="SimHei-56fe" d="M 5800 4975 
Q 5775 4350 5775 3600 
L 5775 925 
Q 5775 150 5800 -600 
L 5300 -600 
L 5300 -275 
L 1125 -275 
L 1125 -650 
L 625 -650 
Q 650 125 650 950 
L 650 3600 
Q 650 4325 625 4975 
L 5800 4975 
z
M 5300 150 
L 5300 4575 
L 1125 4575 
L 1125 150 
L 5300 150 
z
M 3225 4250 
Q 3075 4100 2950 3925 
L 4625 3925 
Q 4525 3700 4300 3375 
Q 4075 3050 3600 2600 
Q 4350 2225 5075 2150 
Q 4900 1925 4775 1675 
Q 3850 1950 3225 2350 
Q 2500 1875 1675 1650 
Q 1600 1875 1400 2075 
Q 2200 2200 2875 2600 
Q 2525 2925 2375 3150 
Q 2150 2900 1900 2650 
Q 1725 2850 1525 2950 
Q 1950 3300 2250 3737 
Q 2550 4175 2675 4475 
Q 2925 4350 3225 4250 
z
M 2450 1275 
Q 3550 950 4100 725 
Q 3975 525 3850 300 
Q 2825 725 2275 850 
Q 2375 1050 2450 1275 
z
M 2925 2050 
Q 3775 1700 4075 1600 
Q 3950 1400 3850 1150 
Q 3000 1550 2700 1650 
Q 2825 1825 2925 2050 
z
M 2625 3450 
Q 3000 3025 3275 2850 
Q 3600 3100 3875 3525 
L 2675 3525 
L 2625 3450 
z
" transform="scale(0.015625)"/>
     </defs>
     <use xlink:href="#SimHei-53"/>
     <use xlink:href="#SimHei-41" transform="translate(50 0)"/>
     <use xlink:href="#SimHei-52" transform="translate(100 0)"/>
     <use xlink:href="#SimHei-49" transform="translate(150 0)"/>
     <use xlink:href="#SimHei-4d" transform="translate(200 0)"/>
     <use xlink:href="#SimHei-41" transform="translate(250 0)"/>
     <use xlink:href="#SimHei-20" transform="translate(300 0)"/>
     <use xlink:href="#SimHei-6a21" transform="translate(350 0)"/>
     <use xlink:href="#SimHei-578b" transform="translate(450 0)"/>
     <use xlink:href="#SimHei-6b8b" transform="translate(550 0)"/>
     <use xlink:href="#SimHei-5dee" transform="translate(650 0)"/>
     <use xlink:href="#SimHei-56fe" transform="translate(750 0)"/>
    </g>
   </g>
   <g id="legend_1">
    <g id="patch_7">
     <path d="M 634.62625 60.11875 
L 699.42625 60.11875 
Q 701.22625 60.11875 701.22625 58.31875 
L 701.22625 33.34375 
Q 701.22625 31.54375 699.42625 31.54375 
L 634.62625 31.54375 
Q 632.82625 31.54375 632.82625 33.34375 
L 632.82625 58.31875 
Q 632.82625 60.11875 634.62625 60.11875 
z
" style="fill: #eeeeee; opacity: 0.8; stroke: #cccccc; stroke-width: 0.5; stroke-linejoin: miter"/>
    </g>
    <g id="line2d_29">
     <path d="M 636.42625 39.376562 
L 645.42625 39.376562 
L 654.42625 39.376562 
" style="fill: none; stroke: #c82423; stroke-width: 1.5; stroke-linecap: square"/>
    </g>
    <g id="text_17">
     <!-- 模型残差 -->
     <g transform="translate(661.62625 42.526562) scale(0.09 -0.09)">
      <use xlink:href="#SimHei-6a21"/>
      <use xlink:href="#SimHei-578b" transform="translate(100 0)"/>
      <use xlink:href="#SimHei-6b8b" transform="translate(200 0)"/>
      <use xlink:href="#SimHei-5dee" transform="translate(300 0)"/>
     </g>
    </g>
    <g id="line2d_30">
     <path d="M 636.42625 52.24375 
L 645.42625 52.24375 
L 654.42625 52.24375 
" style="fill: none; stroke-dasharray: 7.4,3.2; stroke-dashoffset: 0; stroke: #808080; stroke-opacity: 0.7; stroke-width: 2"/>
    </g>
    <g id="text_18">
     <!-- 零线 -->
     <g transform="translate(661.62625 55.39375) scale(0.09 -0.09)">
      <defs>
       <path id="SimHei-96f6" d="M 3375 2525 
Q 3425 2425 3950 2125 
Q 4475 1825 4975 1675 
Q 5475 1525 6075 1450 
Q 5875 1200 5775 925 
Q 5325 1025 4900 1175 
Q 4475 1325 3950 1637 
Q 3425 1950 3100 2250 
Q 2875 2075 2512 1812 
Q 2150 1550 1662 1312 
Q 1175 1075 625 900 
Q 525 1100 325 1375 
Q 800 1450 1175 1600 
Q 1550 1750 1875 1925 
Q 2200 2100 2475 2325 
Q 2750 2550 2925 2825 
Q 2950 3100 2950 3450 
L 2950 3925 
L 950 3925 
L 950 3250 
L 475 3250 
L 475 4300 
L 2950 4300 
L 2950 4700 
L 1775 4700 
Q 1425 4700 1100 4675 
L 1100 5100 
Q 1425 5075 1750 5075 
L 4625 5075 
Q 4875 5075 5325 5100 
L 5325 4675 
Q 4875 4700 4475 4700 
L 3400 4700 
L 3400 4300 
L 5875 4300 
Q 5850 4050 5850 3800 
Q 5850 3550 5875 3300 
L 5400 3300 
L 5400 3925 
L 3400 3925 
L 3400 3450 
Q 3400 3175 3425 2825 
L 3050 2825 
Q 3250 2750 3525 2675 
L 3375 2525 
z
M 2300 500 
Q 2750 350 3175 200 
Q 3325 325 3750 775 
L 2325 775 
Q 1900 775 1475 750 
L 1475 1200 
Q 1900 1175 2325 1175 
L 4700 1175 
Q 4475 950 4150 587 
Q 3825 225 3625 50 
Q 3775 -25 3950 -87 
Q 4125 -150 4400 -275 
Q 4250 -475 4125 -700 
Q 3450 -400 2950 -212 
Q 2450 -25 2100 75 
Q 2225 275 2300 500 
z
M 5075 2600 
L 3750 2600 
L 3750 2950 
L 5075 2950 
L 5075 2600 
z
M 5075 3325 
L 3775 3325 
L 3775 3675 
L 5075 3675 
L 5075 3325 
z
M 2500 3325 
L 1250 3325 
L 1250 3675 
L 2500 3675 
L 2500 3325 
z
M 2475 2600 
L 1225 2600 
L 1225 2950 
L 2475 2950 
L 2475 2600 
z
M 3100 1950 
Q 3200 1800 3237 1712 
Q 3275 1625 3400 1400 
Q 3150 1300 2975 1200 
Q 2850 1500 2700 1775 
Q 2975 1875 3100 1950 
z
" transform="scale(0.015625)"/>
       <path id="SimHei-7ebf" d="M 3450 4300 
Q 3450 4675 3375 5125 
Q 3700 5100 4050 5050 
Q 3975 4900 3950 4562 
Q 3925 4225 3950 3600 
L 4800 3750 
Q 5225 3850 5650 3975 
L 5750 3500 
Q 5325 3450 4875 3375 
L 3975 3200 
Q 3975 2800 4025 2500 
L 5000 2675 
Q 5500 2775 5950 2925 
L 6025 2450 
Q 5575 2375 5075 2275 
L 4100 2100 
Q 4150 1600 4350 1175 
Q 4575 1350 4787 1575 
Q 5000 1800 5175 2075 
Q 5550 1775 5750 1675 
Q 5425 1525 5237 1337 
Q 5050 1150 4625 750 
Q 4925 250 5162 112 
Q 5400 -25 5500 100 
Q 5600 225 5675 625 
Q 5900 450 6200 350 
Q 5775 -750 5275 -537 
Q 4775 -325 4225 450 
Q 3875 175 3537 -62 
Q 3200 -300 2700 -550 
Q 2575 -300 2325 -100 
Q 2825 75 3175 275 
Q 3525 475 3975 850 
Q 3750 1350 3650 2025 
Q 2900 1900 2600 1800 
L 2525 2275 
Q 2825 2275 3550 2425 
Q 3500 2825 3500 3100 
Q 2825 2950 2575 2875 
L 2475 3350 
Q 2725 3350 3450 3500 
L 3450 4300 
z
M 1950 4875 
Q 1700 4650 1462 4237 
Q 1225 3825 825 3225 
Q 1425 3250 1650 3250 
Q 1875 3625 2050 4075 
Q 2300 3900 2600 3800 
Q 2350 3550 2087 3125 
Q 1825 2700 1175 1675 
Q 1850 1725 2375 1775 
Q 2300 1525 2300 1350 
Q 2125 1350 1525 1287 
Q 925 1225 550 1125 
Q 525 1375 400 1650 
Q 700 1725 950 2050 
Q 1200 2375 1475 2875 
Q 650 2825 425 2675 
Q 350 2950 200 3225 
Q 525 3450 825 3962 
Q 1125 4475 1375 5150 
Q 1625 4975 1950 4875 
z
M 2575 875 
Q 2550 600 2575 450 
Q 1950 325 1450 200 
Q 950 75 525 -75 
Q 450 200 250 475 
Q 950 550 1325 612 
Q 1700 675 2575 875 
z
M 4850 4025 
Q 4675 4300 4375 4675 
L 4775 4875 
Q 4875 4750 5275 4275 
Q 5025 4175 4850 4025 
z
" transform="scale(0.015625)"/>
      </defs>
      <use xlink:href="#SimHei-96f6"/>
      <use xlink:href="#SimHei-7ebf" transform="translate(100 0)"/>
     </g>
    </g>
   </g>
  </g>
 </g>
 <defs>
  <clipPath id="p0d1b55eb58">
   <rect x="33.23125" y="27.04375" width="672.495" height="365.675"/>
  </clipPath>
 </defs>
</svg>
