<?xml version="1.0" encoding="utf-8" standalone="no"?>
<!DOCTYPE svg PUBLIC "-//W3C//DTD SVG 1.1//EN"
  "http://www.w3.org/Graphics/SVG/1.1/DTD/svg11.dtd">
<svg xmlns:xlink="http://www.w3.org/1999/xlink" width="856.476875pt" height="423.709687pt" viewBox="0 0 856.476875 423.709687" xmlns="http://www.w3.org/2000/svg" version="1.1">
 <metadata>
  <rdf:RDF xmlns:dc="http://purl.org/dc/elements/1.1/" xmlns:cc="http://creativecommons.org/ns#" xmlns:rdf="http://www.w3.org/1999/02/22-rdf-syntax-ns#">
   <cc:Work>
    <dc:type rdf:resource="http://purl.org/dc/dcmitype/StillImage"/>
    <dc:date>2025-04-22T23:55:43.712261</dc:date>
    <dc:format>image/svg+xml</dc:format>
    <dc:creator>
     <cc:Agent>
      <dc:title>Matplotlib v3.10.0, https://matplotlib.org/</dc:title>
     </cc:Agent>
    </dc:creator>
   </cc:Work>
  </rdf:RDF>
 </metadata>
 <defs>
  <style type="text/css">*{stroke-linejoin: round; stroke-linecap: butt}</style>
 </defs>
 <g id="figure_1">
  <g id="patch_1">
   <path d="M 0 423.709687 
L 856.476875 423.709687 
L 856.476875 0 
L 0 0 
z
" style="fill: #ffffff"/>
  </g>
  <g id="axes_1">
   <g id="patch_2">
    <path d="M 33.153125 392.439375 
L 849.276875 392.439375 
L 849.276875 27.090625 
L 33.153125 27.090625 
z
" style="fill: #ffffff"/>
   </g>
   <g id="matplotlib.axis_1">
    <g id="xtick_1">
     <g id="line2d_1">
      <path d="M 69.572097 392.439375 
L 69.572097 27.090625 
" clip-path="url(#p472f83e9b6)" style="fill: none; stroke-dasharray: 1.85,0.8; stroke-dashoffset: 0; stroke: #b2b2b2; stroke-opacity: 0.3; stroke-width: 0.5"/>
     </g>
     <g id="line2d_2">
      <defs>
       <path id="m0852d95bf2" d="M 0 0 
L 0 -3.5 
" style="stroke: #000000; stroke-width: 0.8"/>
      </defs>
      <g>
       <use xlink:href="#m0852d95bf2" x="69.572097" y="392.439375" style="stroke: #000000; stroke-width: 0.8"/>
      </g>
     </g>
     <g id="text_1">
      <!-- 0 -->
      <g transform="translate(67.322097 402.126875) scale(0.09 -0.09)">
       <defs>
        <path id="SimHei-30" d="M 225 2537 
Q 250 3200 412 3587 
Q 575 3975 875 4225 
Q 1175 4475 1612 4475 
Q 2050 4475 2375 4112 
Q 2700 3750 2800 3200 
Q 2900 2650 2862 1937 
Q 2825 1225 2612 775 
Q 2400 325 1975 150 
Q 1550 -25 1125 187 
Q 700 400 525 750 
Q 350 1100 275 1487 
Q 200 1875 225 2537 
z
M 750 2687 
Q 675 2000 800 1462 
Q 925 925 1212 700 
Q 1500 475 1800 612 
Q 2100 750 2237 1162 
Q 2375 1575 2375 2062 
Q 2375 2550 2337 2950 
Q 2300 3350 2112 3675 
Q 1925 4000 1612 4012 
Q 1300 4025 1062 3700 
Q 825 3375 750 2687 
z
" transform="scale(0.015625)"/>
       </defs>
       <use xlink:href="#SimHei-30"/>
      </g>
     </g>
    </g>
    <g id="xtick_2">
     <g id="line2d_3">
      <path d="M 238.962663 392.439375 
L 238.962663 27.090625 
" clip-path="url(#p472f83e9b6)" style="fill: none; stroke-dasharray: 1.85,0.8; stroke-dashoffset: 0; stroke: #b2b2b2; stroke-opacity: 0.3; stroke-width: 0.5"/>
     </g>
     <g id="line2d_4">
      <g>
       <use xlink:href="#m0852d95bf2" x="238.962663" y="392.439375" style="stroke: #000000; stroke-width: 0.8"/>
      </g>
     </g>
     <g id="text_2">
      <!-- 500 -->
      <g transform="translate(232.212663 402.126875) scale(0.09 -0.09)">
       <defs>
        <path id="SimHei-35" d="M 550 1325 
Q 725 650 1150 575 
Q 1575 500 1837 662 
Q 2100 825 2212 1087 
Q 2325 1350 2312 1675 
Q 2300 2000 2137 2225 
Q 1975 2450 1725 2525 
Q 1475 2600 1162 2525 
Q 850 2450 650 2175 
L 225 2225 
Q 275 2375 700 4375 
L 2675 4375 
L 2675 3925 
L 1075 3925 
Q 950 3250 825 2850 
Q 1200 3025 1525 3012 
Q 1850 3000 2150 2862 
Q 2450 2725 2587 2487 
Q 2725 2250 2787 2012 
Q 2850 1775 2837 1500 
Q 2825 1225 2725 937 
Q 2625 650 2425 462 
Q 2225 275 1937 162 
Q 1650 50 1275 75 
Q 900 100 562 350 
Q 225 600 100 1200 
L 550 1325 
z
" transform="scale(0.015625)"/>
       </defs>
       <use xlink:href="#SimHei-35"/>
       <use xlink:href="#SimHei-30" transform="translate(50 0)"/>
       <use xlink:href="#SimHei-30" transform="translate(100 0)"/>
      </g>
     </g>
    </g>
    <g id="xtick_3">
     <g id="line2d_5">
      <path d="M 408.35323 392.439375 
L 408.35323 27.090625 
" clip-path="url(#p472f83e9b6)" style="fill: none; stroke-dasharray: 1.85,0.8; stroke-dashoffset: 0; stroke: #b2b2b2; stroke-opacity: 0.3; stroke-width: 0.5"/>
     </g>
     <g id="line2d_6">
      <g>
       <use xlink:href="#m0852d95bf2" x="408.35323" y="392.439375" style="stroke: #000000; stroke-width: 0.8"/>
      </g>
     </g>
     <g id="text_3">
      <!-- 1000 -->
      <g transform="translate(399.35323 402.126875) scale(0.09 -0.09)">
       <defs>
        <path id="SimHei-31" d="M 1400 3600 
Q 1075 3275 575 2975 
L 575 3450 
Q 1200 3875 1600 4450 
L 1900 4450 
L 1900 150 
L 1400 150 
L 1400 3600 
z
" transform="scale(0.015625)"/>
       </defs>
       <use xlink:href="#SimHei-31"/>
       <use xlink:href="#SimHei-30" transform="translate(50 0)"/>
       <use xlink:href="#SimHei-30" transform="translate(100 0)"/>
       <use xlink:href="#SimHei-30" transform="translate(150 0)"/>
      </g>
     </g>
    </g>
    <g id="xtick_4">
     <g id="line2d_7">
      <path d="M 577.743797 392.439375 
L 577.743797 27.090625 
" clip-path="url(#p472f83e9b6)" style="fill: none; stroke-dasharray: 1.85,0.8; stroke-dashoffset: 0; stroke: #b2b2b2; stroke-opacity: 0.3; stroke-width: 0.5"/>
     </g>
     <g id="line2d_8">
      <g>
       <use xlink:href="#m0852d95bf2" x="577.743797" y="392.439375" style="stroke: #000000; stroke-width: 0.8"/>
      </g>
     </g>
     <g id="text_4">
      <!-- 1500 -->
      <g transform="translate(568.743797 402.126875) scale(0.09 -0.09)">
       <use xlink:href="#SimHei-31"/>
       <use xlink:href="#SimHei-35" transform="translate(50 0)"/>
       <use xlink:href="#SimHei-30" transform="translate(100 0)"/>
       <use xlink:href="#SimHei-30" transform="translate(150 0)"/>
      </g>
     </g>
    </g>
    <g id="xtick_5">
     <g id="line2d_9">
      <path d="M 747.134363 392.439375 
L 747.134363 27.090625 
" clip-path="url(#p472f83e9b6)" style="fill: none; stroke-dasharray: 1.85,0.8; stroke-dashoffset: 0; stroke: #b2b2b2; stroke-opacity: 0.3; stroke-width: 0.5"/>
     </g>
     <g id="line2d_10">
      <g>
       <use xlink:href="#m0852d95bf2" x="747.134363" y="392.439375" style="stroke: #000000; stroke-width: 0.8"/>
      </g>
     </g>
     <g id="text_5">
      <!-- 2000 -->
      <g transform="translate(738.134363 402.126875) scale(0.09 -0.09)">
       <defs>
        <path id="SimHei-32" d="M 300 250 
Q 325 625 650 925 
Q 975 1225 1475 1862 
Q 1975 2500 2125 2850 
Q 2275 3200 2237 3450 
Q 2200 3700 2000 3862 
Q 1800 4025 1537 4000 
Q 1275 3975 1037 3800 
Q 800 3625 675 3275 
L 200 3350 
Q 400 3925 712 4187 
Q 1025 4450 1450 4475 
Q 1700 4500 1900 4462 
Q 2100 4425 2312 4287 
Q 2525 4150 2662 3875 
Q 2800 3600 2762 3212 
Q 2725 2825 2375 2287 
Q 2025 1750 1025 600 
L 2825 600 
L 2825 150 
L 300 150 
L 300 250 
z
" transform="scale(0.015625)"/>
       </defs>
       <use xlink:href="#SimHei-32"/>
       <use xlink:href="#SimHei-30" transform="translate(50 0)"/>
       <use xlink:href="#SimHei-30" transform="translate(100 0)"/>
       <use xlink:href="#SimHei-30" transform="translate(150 0)"/>
      </g>
     </g>
    </g>
    <g id="text_6">
     <!-- 时间 / 序号 -->
     <g transform="translate(413.715 415.259687) scale(0.1 -0.1)">
      <defs>
       <path id="SimHei-65f6" d="M 2525 4575 
Q 2500 3675 2500 2400 
Q 2500 1125 2525 400 
L 2000 400 
L 2000 875 
L 1000 875 
L 1000 50 
L 475 50 
Q 500 1200 500 2350 
Q 500 3525 475 4575 
L 2525 4575 
z
M 4875 3825 
Q 4875 4575 4850 5225 
L 5400 5225 
Q 5375 4575 5375 3825 
Q 5750 3825 6175 3850 
L 6175 3375 
Q 5750 3400 5375 3400 
L 5375 50 
Q 5375 -325 5075 -425 
Q 4775 -525 4300 -575 
Q 4300 -275 4025 0 
Q 4500 -50 4687 -25 
Q 4875 0 4875 300 
L 4875 3400 
Q 3625 3400 2775 3375 
L 2775 3850 
Q 3575 3825 4875 3825 
z
M 2000 1300 
L 2000 2550 
L 1000 2550 
L 1000 1300 
L 2000 1300 
z
M 2000 2975 
L 2000 4150 
L 1000 4150 
L 1000 2975 
L 2000 2975 
z
M 3550 2725 
Q 3875 2200 4175 1600 
Q 3925 1525 3650 1375 
Q 3450 1975 3075 2500 
Q 3300 2600 3550 2725 
z
" transform="scale(0.015625)"/>
       <path id="SimHei-95f4" d="M 4450 3550 
Q 4425 3075 4425 2725 
L 4425 1400 
Q 4425 1075 4450 625 
L 1925 625 
Q 1950 1075 1950 1425 
L 1950 2725 
Q 1950 3075 1925 3550 
L 4450 3550 
z
M 5800 4875 
Q 5775 4400 5775 3925 
L 5775 250 
Q 5800 -325 5462 -450 
Q 5125 -575 4725 -625 
Q 4700 -325 4525 -25 
Q 5000 -50 5137 25 
Q 5275 100 5275 350 
L 5275 4450 
L 3775 4450 
Q 3175 4450 2650 4425 
L 2650 4900 
Q 3175 4875 3775 4875 
L 5800 4875 
z
M 550 -525 
Q 600 -25 600 525 
L 600 3150 
Q 600 3675 550 4025 
L 1125 4025 
Q 1100 3650 1100 3300 
L 1100 500 
Q 1100 0 1125 -525 
L 550 -525 
z
M 3950 1025 
L 3950 1950 
L 2425 1950 
L 2425 1025 
L 3950 1025 
z
M 3950 2350 
L 3950 3150 
L 2425 3150 
L 2425 2350 
L 3950 2350 
z
M 1525 5300 
Q 1750 5000 2225 4350 
Q 1950 4225 1700 4075 
Q 1450 4575 1075 5025 
Q 1350 5225 1525 5300 
z
" transform="scale(0.015625)"/>
       <path id="SimHei-20" transform="scale(0.015625)"/>
       <path id="SimHei-2f" d="M 3000 4550 
L 350 -175 
L 100 -25 
L 2750 4700 
L 3000 4550 
z
" transform="scale(0.015625)"/>
       <path id="SimHei-5e8f" d="M 4000 2075 
L 5975 2075 
Q 5750 1525 5575 1025 
Q 5325 1100 5050 1150 
Q 5175 1450 5275 1700 
L 4050 1700 
L 4050 150 
Q 4050 -375 3762 -462 
Q 3475 -550 2950 -575 
Q 2875 -300 2750 0 
Q 3350 -75 3475 25 
Q 3600 125 3575 375 
L 3575 1700 
L 2450 1700 
Q 2050 1700 1675 1675 
L 1675 2100 
Q 2100 2075 2425 2075 
L 3675 2075 
Q 3325 2400 2875 2775 
Q 2975 2875 3250 3100 
Q 3400 2975 3725 2725 
L 4575 3275 
L 3000 3275 
Q 2400 3275 1950 3250 
L 1950 3700 
Q 2400 3675 3000 3675 
L 5400 3675 
L 5400 3250 
Q 4700 2875 4025 2450 
L 4275 2250 
L 4000 2075 
z
M 3725 5275 
Q 3825 4925 3925 4525 
L 4850 4525 
Q 5425 4525 6000 4550 
L 6000 4125 
Q 5425 4150 4850 4150 
L 1400 4150 
Q 1400 2750 1362 2137 
Q 1325 1525 1200 887 
Q 1075 250 775 -350 
Q 625 -250 250 -125 
Q 475 300 600 700 
Q 725 1100 800 1637 
Q 875 2175 875 2825 
Q 875 3500 850 4525 
L 3350 4525 
Q 3275 4825 3150 5150 
Q 3425 5200 3725 5275 
z
" transform="scale(0.015625)"/>
       <path id="SimHei-53f7" d="M 5025 4925 
Q 5000 4550 5000 4075 
Q 5000 3600 5025 3175 
L 1400 3175 
Q 1425 3525 1425 4000 
Q 1425 4500 1400 4925 
L 5025 4925 
z
M 5175 2625 
Q 5650 2625 6025 2650 
L 6025 2200 
Q 5650 2225 5175 2225 
L 2450 2225 
Q 2350 1875 2225 1450 
L 5175 1450 
Q 5100 1050 5062 775 
Q 5025 500 4950 112 
Q 4875 -275 4650 -412 
Q 4425 -550 3225 -625 
Q 3125 -350 2975 -50 
Q 3875 -75 4112 -50 
Q 4350 -25 4425 212 
Q 4500 450 4575 1025 
L 1600 1025 
Q 1825 1625 1950 2225 
L 1350 2225 
Q 825 2225 375 2200 
L 375 2650 
Q 825 2625 1350 2625 
L 5175 2625 
z
M 4525 3575 
L 4525 4525 
L 1900 4525 
L 1900 3575 
L 4525 3575 
z
" transform="scale(0.015625)"/>
      </defs>
      <use xlink:href="#SimHei-65f6"/>
      <use xlink:href="#SimHei-95f4" transform="translate(100 0)"/>
      <use xlink:href="#SimHei-20" transform="translate(200 0)"/>
      <use xlink:href="#SimHei-2f" transform="translate(250 0)"/>
      <use xlink:href="#SimHei-20" transform="translate(300 0)"/>
      <use xlink:href="#SimHei-5e8f" transform="translate(350 0)"/>
      <use xlink:href="#SimHei-53f7" transform="translate(450 0)"/>
     </g>
    </g>
   </g>
   <g id="matplotlib.axis_2">
    <g id="ytick_1">
     <g id="line2d_11">
      <path d="M 33.153125 351.545083 
L 849.276875 351.545083 
" clip-path="url(#p472f83e9b6)" style="fill: none; stroke-dasharray: 1.85,0.8; stroke-dashoffset: 0; stroke: #b2b2b2; stroke-opacity: 0.3; stroke-width: 0.5"/>
     </g>
     <g id="line2d_12">
      <defs>
       <path id="mc254c385f3" d="M 0 0 
L 3.5 0 
" style="stroke: #000000; stroke-width: 0.8"/>
      </defs>
      <g>
       <use xlink:href="#mc254c385f3" x="33.153125" y="351.545083" style="stroke: #000000; stroke-width: 0.8"/>
      </g>
     </g>
     <g id="text_7">
      <!-- -2 -->
      <g transform="translate(20.653125 354.638833) scale(0.09 -0.09)">
       <defs>
        <path id="SimHei-2d" d="M 2975 2125 
L 125 2125 
L 125 2525 
L 2975 2525 
L 2975 2125 
z
" transform="scale(0.015625)"/>
       </defs>
       <use xlink:href="#SimHei-2d"/>
       <use xlink:href="#SimHei-32" transform="translate(50 0)"/>
      </g>
     </g>
    </g>
    <g id="ytick_2">
     <g id="line2d_13">
      <path d="M 33.153125 286.605162 
L 849.276875 286.605162 
" clip-path="url(#p472f83e9b6)" style="fill: none; stroke-dasharray: 1.85,0.8; stroke-dashoffset: 0; stroke: #b2b2b2; stroke-opacity: 0.3; stroke-width: 0.5"/>
     </g>
     <g id="line2d_14">
      <g>
       <use xlink:href="#mc254c385f3" x="33.153125" y="286.605162" style="stroke: #000000; stroke-width: 0.8"/>
      </g>
     </g>
     <g id="text_8">
      <!-- -1 -->
      <g transform="translate(20.653125 289.698912) scale(0.09 -0.09)">
       <use xlink:href="#SimHei-2d"/>
       <use xlink:href="#SimHei-31" transform="translate(50 0)"/>
      </g>
     </g>
    </g>
    <g id="ytick_3">
     <g id="line2d_15">
      <path d="M 33.153125 221.665241 
L 849.276875 221.665241 
" clip-path="url(#p472f83e9b6)" style="fill: none; stroke-dasharray: 1.85,0.8; stroke-dashoffset: 0; stroke: #b2b2b2; stroke-opacity: 0.3; stroke-width: 0.5"/>
     </g>
     <g id="line2d_16">
      <g>
       <use xlink:href="#mc254c385f3" x="33.153125" y="221.665241" style="stroke: #000000; stroke-width: 0.8"/>
      </g>
     </g>
     <g id="text_9">
      <!-- 0 -->
      <g transform="translate(25.153125 224.758991) scale(0.09 -0.09)">
       <use xlink:href="#SimHei-30"/>
      </g>
     </g>
    </g>
    <g id="ytick_4">
     <g id="line2d_17">
      <path d="M 33.153125 156.725319 
L 849.276875 156.725319 
" clip-path="url(#p472f83e9b6)" style="fill: none; stroke-dasharray: 1.85,0.8; stroke-dashoffset: 0; stroke: #b2b2b2; stroke-opacity: 0.3; stroke-width: 0.5"/>
     </g>
     <g id="line2d_18">
      <g>
       <use xlink:href="#mc254c385f3" x="33.153125" y="156.725319" style="stroke: #000000; stroke-width: 0.8"/>
      </g>
     </g>
     <g id="text_10">
      <!-- 1 -->
      <g transform="translate(25.153125 159.819069) scale(0.09 -0.09)">
       <use xlink:href="#SimHei-31"/>
      </g>
     </g>
    </g>
    <g id="ytick_5">
     <g id="line2d_19">
      <path d="M 33.153125 91.785398 
L 849.276875 91.785398 
" clip-path="url(#p472f83e9b6)" style="fill: none; stroke-dasharray: 1.85,0.8; stroke-dashoffset: 0; stroke: #b2b2b2; stroke-opacity: 0.3; stroke-width: 0.5"/>
     </g>
     <g id="line2d_20">
      <g>
       <use xlink:href="#mc254c385f3" x="33.153125" y="91.785398" style="stroke: #000000; stroke-width: 0.8"/>
      </g>
     </g>
     <g id="text_11">
      <!-- 2 -->
      <g transform="translate(25.153125 94.879148) scale(0.09 -0.09)">
       <use xlink:href="#SimHei-32"/>
      </g>
     </g>
    </g>
    <g id="text_12">
     <!-- 差分后的 pH 值 -->
     <g transform="translate(15.403125 244.765) rotate(-90) scale(0.1 -0.1)">
      <defs>
       <path id="SimHei-5dee" d="M 4725 4975 
Q 4500 4725 4250 4275 
L 4850 4275 
Q 5450 4275 5825 4300 
L 5825 3850 
Q 5425 3875 4850 3875 
L 3275 3875 
Q 3225 3600 3150 3275 
L 4525 3275 
Q 5075 3275 5525 3300 
L 5525 2850 
Q 5075 2875 4500 2875 
L 3050 2875 
Q 2975 2650 2850 2325 
L 5125 2325 
Q 5675 2325 6025 2350 
L 6025 1900 
Q 5700 1925 5150 1925 
L 2650 1925 
Q 2425 1550 2250 1300 
Q 2650 1275 3100 1275 
L 4525 1275 
Q 4975 1275 5350 1300 
L 5350 850 
Q 4975 875 4575 875 
L 3925 875 
L 3925 -50 
L 5000 -50 
Q 5200 -50 5900 -25 
L 5900 -500 
Q 5275 -475 5025 -475 
L 2100 -475 
Q 1700 -475 1400 -500 
L 1400 -25 
Q 1775 -50 2125 -50 
L 3425 -50 
L 3425 875 
L 3100 875 
Q 2625 875 2175 850 
L 2175 1200 
Q 1925 875 1487 475 
Q 1050 75 625 -250 
Q 425 -25 200 150 
Q 750 475 1262 925 
Q 1775 1375 2100 1925 
L 1325 1925 
Q 750 1925 375 1900 
L 375 2350 
Q 750 2325 1350 2325 
L 2325 2325 
Q 2450 2575 2550 2875 
L 1725 2875 
Q 1375 2875 1000 2850 
L 1000 3300 
Q 1500 3275 1700 3275 
L 2650 3275 
Q 2725 3575 2775 3875 
L 1500 3875 
Q 1100 3875 650 3850 
L 650 4300 
Q 1025 4275 1425 4275 
L 2275 4275 
Q 2075 4675 1850 4950 
Q 2025 5050 2250 5225 
Q 2450 4975 2725 4550 
Q 2525 4450 2325 4275 
L 3750 4275 
Q 4000 4700 4150 5250 
Q 4400 5100 4725 4975 
z
" transform="scale(0.015625)"/>
       <path id="SimHei-5206" d="M 1000 -650 
Q 825 -375 575 -225 
Q 975 -75 1300 137 
Q 1625 350 1875 662 
Q 2125 975 2250 1350 
Q 2375 1725 2425 2275 
Q 1850 2275 1500 2250 
L 1500 2775 
Q 1900 2750 2525 2750 
L 5025 2750 
Q 4975 2375 4950 2100 
L 4750 250 
Q 4700 -200 4350 -350 
Q 4000 -500 3575 -525 
Q 3550 -275 3325 50 
Q 3850 25 4037 87 
Q 4225 150 4275 525 
L 4450 2275 
L 2950 2275 
Q 2875 1625 2737 1187 
Q 2600 750 2350 425 
Q 2100 100 1750 -175 
Q 1400 -450 1000 -650 
z
M 3950 5175 
Q 4125 4650 4662 3975 
Q 5200 3300 6175 2800 
Q 5975 2625 5775 2275 
Q 5325 2600 4987 2887 
Q 4650 3175 4425 3425 
Q 4200 3675 3925 4137 
Q 3650 4600 3475 5000 
Q 3750 5075 3950 5175 
z
M 2700 4825 
Q 2475 4425 2325 4125 
Q 2175 3825 2025 3587 
Q 1875 3350 1575 2950 
Q 1275 2550 850 2125 
Q 625 2350 400 2475 
Q 900 2925 1187 3300 
Q 1475 3675 1737 4112 
Q 2000 4550 2200 5075 
Q 2400 4925 2700 4825 
z
" transform="scale(0.015625)"/>
       <path id="SimHei-540e" d="M 5475 2150 
Q 5450 1750 5450 775 
Q 5450 -175 5500 -550 
L 4975 -550 
L 4975 -25 
L 2525 -25 
L 2525 -600 
L 2025 -600 
Q 2050 -175 2050 775 
Q 2050 1750 2025 2150 
L 5475 2150 
z
M 5175 5075 
Q 5300 4800 5525 4525 
Q 4950 4475 3750 4337 
Q 2550 4200 1575 4175 
L 1575 3375 
L 5200 3375 
Q 5550 3375 5975 3400 
L 5975 2900 
Q 5575 2925 5200 2925 
L 1575 2925 
Q 1550 2425 1487 1875 
Q 1425 1325 1250 712 
Q 1075 100 800 -325 
Q 650 -200 225 -50 
Q 625 325 825 1062 
Q 1025 1800 1050 2825 
Q 1075 3850 1075 4575 
Q 2300 4600 3625 4775 
Q 4950 4950 5175 5075 
z
M 4975 375 
L 4975 1725 
L 2525 1725 
L 2525 375 
L 4975 375 
z
" transform="scale(0.015625)"/>
       <path id="SimHei-7684" d="M 2100 4975 
Q 1975 4750 1750 3950 
L 2875 3950 
Q 2850 3525 2850 2875 
L 2850 675 
Q 2850 300 2875 -400 
L 2375 -400 
L 2375 100 
L 1100 100 
L 1100 -450 
L 600 -450 
Q 625 350 625 550 
L 625 2850 
Q 625 3525 600 3950 
L 1325 3950 
Q 1450 4525 1525 5150 
Q 1875 5025 2100 4975 
z
M 5825 3075 
Q 5800 1550 5700 175 
Q 5650 -275 5225 -425 
Q 4800 -575 4275 -625 
Q 4250 -350 4050 -50 
Q 4550 -75 4837 -25 
Q 5125 25 5200 200 
Q 5275 375 5312 1225 
Q 5350 2075 5375 3600 
L 3925 3600 
Q 3725 3125 3350 2475 
Q 3175 2650 2925 2750 
Q 3150 3050 3350 3475 
Q 3550 3900 3700 4400 
Q 3850 4900 3875 5175 
Q 4225 5025 4475 4950 
Q 4350 4750 4262 4512 
Q 4175 4275 4075 4050 
L 5850 4050 
Q 5825 3525 5825 3075 
z
M 2375 525 
L 2375 1850 
L 1100 1850 
L 1100 525 
L 2375 525 
z
M 2375 2275 
L 2375 3525 
L 1100 3525 
L 1100 2275 
L 2375 2275 
z
M 4350 2050 
Q 4500 1750 4700 1275 
Q 4525 1200 4225 1025 
Q 4050 1500 3900 1837 
Q 3750 2175 3600 2400 
Q 3775 2500 4050 2650 
L 4350 2050 
z
" transform="scale(0.015625)"/>
       <path id="SimHei-70" d="M 2825 1525 
Q 2825 800 2475 425 
Q 2125 50 1625 50 
Q 1350 50 1150 162 
Q 950 275 800 500 
L 800 -800 
L 300 -800 
L 300 2925 
L 800 2925 
L 800 2550 
Q 950 2775 1150 2875 
Q 1350 2975 1625 2975 
Q 2125 2975 2475 2612 
Q 2825 2250 2825 1525 
z
M 2275 1525 
Q 2275 2000 2087 2262 
Q 1900 2525 1525 2525 
Q 1225 2525 1012 2262 
Q 800 2000 800 1525 
Q 800 1050 1012 775 
Q 1225 500 1525 500 
Q 1900 500 2087 775 
Q 2275 1050 2275 1525 
z
" transform="scale(0.015625)"/>
       <path id="SimHei-48" d="M 2850 125 
L 2275 125 
L 2275 2125 
L 850 2125 
L 850 125 
L 275 125 
L 275 4400 
L 850 4400 
L 850 2600 
L 2275 2600 
L 2275 4400 
L 2850 4400 
L 2850 125 
z
" transform="scale(0.015625)"/>
       <path id="SimHei-503c" d="M 3675 4450 
L 3675 5100 
Q 3975 5075 4350 5050 
Q 4225 4875 4200 4450 
L 5125 4450 
Q 5550 4450 5875 4475 
L 5875 4025 
Q 5525 4050 5125 4050 
L 4175 4050 
L 4125 3500 
L 5400 3500 
Q 5375 3200 5375 2700 
L 5375 150 
Q 5875 150 6100 175 
L 6100 -275 
Q 5775 -250 5200 -250 
L 2850 -250 
Q 2275 -250 1900 -275 
L 1900 175 
Q 2125 150 2600 150 
L 2600 2700 
Q 2600 3175 2575 3500 
L 3600 3500 
L 3650 4050 
L 3200 4050 
Q 2575 4050 2225 4025 
L 2225 4475 
Q 2550 4450 3200 4450 
L 3675 4450 
z
M 2225 4900 
Q 2025 4675 1650 3750 
L 1650 450 
Q 1650 -75 1675 -550 
L 1150 -550 
Q 1175 -125 1175 375 
L 1175 2950 
Q 875 2450 625 2150 
Q 425 2425 250 2575 
Q 500 2825 937 3537 
Q 1375 4250 1625 5150 
Q 1975 4975 2225 4900 
z
M 4925 2650 
L 4925 3150 
L 3075 3150 
L 3075 2650 
L 4925 2650 
z
M 4925 150 
L 4925 625 
L 3075 625 
L 3075 150 
L 4925 150 
z
M 4925 1000 
L 4925 1450 
L 3075 1450 
L 3075 1000 
L 4925 1000 
z
M 4925 1825 
L 4925 2275 
L 3075 2275 
L 3075 1825 
L 4925 1825 
z
" transform="scale(0.015625)"/>
      </defs>
      <use xlink:href="#SimHei-5dee"/>
      <use xlink:href="#SimHei-5206" transform="translate(100 0)"/>
      <use xlink:href="#SimHei-540e" transform="translate(200 0)"/>
      <use xlink:href="#SimHei-7684" transform="translate(300 0)"/>
      <use xlink:href="#SimHei-20" transform="translate(400 0)"/>
      <use xlink:href="#SimHei-70" transform="translate(450 0)"/>
      <use xlink:href="#SimHei-48" transform="translate(500 0)"/>
      <use xlink:href="#SimHei-20" transform="translate(550 0)"/>
      <use xlink:href="#SimHei-503c" transform="translate(600 0)"/>
     </g>
    </g>
   </g>
   <g id="line2d_21">
    <path d="M 70.249659 224.262837 
L 70.58844 221.015841 
L 70.927221 230.10743 
L 71.266002 222.964039 
L 71.604784 226.860434 
L 71.943565 213.87245 
L 72.282346 224.912237 
L 72.621127 209.326656 
L 72.959908 237.250822 
L 73.298689 213.223051 
L 73.63747 221.665241 
L 73.976252 222.964039 
L 74.315033 219.067644 
L 74.653814 225.561636 
L 74.992595 215.171248 
L 75.331376 222.31464 
L 76.008938 229.458031 
L 76.347719 218.418245 
L 76.686501 199.585667 
L 77.025282 235.952023 
L 77.364063 224.262837 
L 77.702844 224.912237 
L 78.041625 203.482063 
L 78.380406 230.75683 
L 78.719187 221.015841 
L 79.057969 214.521849 
L 79.39675 219.067644 
L 79.735531 243.095415 
L 80.074312 215.171248 
L 80.413093 226.860434 
L 80.751874 211.924252 
L 81.090655 227.509833 
L 81.429436 222.964039 
L 81.768218 224.262837 
L 82.106999 229.458031 
L 82.44578 222.964039 
L 82.784561 221.015841 
L 83.123342 215.820648 
L 83.462123 222.31464 
L 83.800904 210.625454 
L 84.139686 235.952023 
L 84.478467 223.613438 
L 84.817248 230.75683 
L 85.156029 219.067644 
L 85.49481 211.274853 
L 86.172372 221.665241 
L 86.511153 230.75683 
L 86.849935 207.378458 
L 87.188716 227.509833 
L 87.527497 228.159233 
L 87.866278 215.820648 
L 88.205059 226.860434 
L 88.54384 200.235067 
L 88.882621 206.729059 
L 89.221403 226.860434 
L 89.560184 228.808632 
L 89.898965 210.625454 
L 90.576527 228.808632 
L 90.915308 230.10743 
L 91.254089 216.470047 
L 91.59287 212.573652 
L 91.931652 225.561636 
L 92.270433 224.262837 
L 92.609214 219.717043 
L 93.286776 232.705027 
L 93.964338 215.820648 
L 94.30312 221.665241 
L 94.641901 225.561636 
L 94.980682 218.418245 
L 95.319463 216.470047 
L 95.658244 222.31464 
L 95.997025 222.31464 
L 96.335806 222.964039 
L 96.674587 224.262837 
L 97.013369 221.015841 
L 97.35215 228.808632 
L 97.690931 226.211035 
L 98.029712 206.079659 
L 98.368493 219.067644 
L 98.707274 224.912237 
L 99.046055 221.665241 
L 99.384837 231.406229 
L 99.723618 224.262837 
L 100.062399 211.924252 
L 100.739961 222.31464 
L 101.078742 222.31464 
L 101.417523 224.912237 
L 101.756304 224.262837 
L 102.095086 220.366442 
L 102.433867 215.171248 
L 102.772648 224.262837 
L 103.111429 222.964039 
L 103.45021 218.418245 
L 103.788991 223.613438 
L 104.127772 219.717043 
L 104.805335 222.31464 
L 105.144116 221.665241 
L 105.482897 230.10743 
L 105.821678 212.573652 
L 106.160459 223.613438 
L 106.49924 221.665241 
L 106.838021 227.509833 
L 107.176803 217.119446 
L 107.515584 224.912237 
L 107.854365 224.262837 
L 108.193146 218.418245 
L 108.531927 221.665241 
L 108.870708 221.015841 
L 109.209489 222.964039 
L 109.548271 226.860434 
L 109.887052 239.848419 
L 110.225833 210.625454 
L 110.903395 217.768845 
L 111.242176 224.262837 
L 111.580957 223.613438 
L 111.919738 213.87245 
L 112.25852 219.067644 
L 112.597301 227.509833 
L 112.936082 221.015841 
L 113.274863 226.211035 
L 113.613644 217.768845 
L 113.952425 224.912237 
L 114.291206 219.717043 
L 114.629988 221.015841 
L 114.968769 219.717043 
L 115.30755 224.912237 
L 115.646331 220.366442 
L 115.985112 224.912237 
L 116.323893 217.768845 
L 116.662674 223.613438 
L 117.001455 219.067644 
L 117.340237 221.665241 
L 117.679018 228.808632 
L 118.017799 215.171248 
L 118.35658 222.964039 
L 118.695361 223.613438 
L 119.034142 223.613438 
L 119.372923 224.912237 
L 119.711705 217.119446 
L 120.050486 223.613438 
L 120.389267 221.665241 
L 120.728048 225.561636 
L 121.066829 218.418245 
L 121.40561 219.067644 
L 121.744391 228.159233 
L 122.083172 217.768845 
L 122.421954 222.31464 
L 122.760735 222.964039 
L 123.099516 221.665241 
L 123.438297 223.613438 
L 123.777078 219.717043 
L 124.115859 222.31464 
L 124.45464 219.067644 
L 124.793422 222.964039 
L 125.132203 222.964039 
L 125.470984 219.717043 
L 125.809765 221.665241 
L 126.148546 222.964039 
L 126.487327 219.717043 
L 126.826108 224.912237 
L 127.164889 221.015841 
L 127.503671 222.964039 
L 127.842452 221.665241 
L 128.181233 222.964039 
L 128.520014 221.665241 
L 129.197576 221.665241 
L 129.536357 222.964039 
L 129.875139 221.665241 
L 130.21392 215.820648 
L 130.552701 225.561636 
L 130.891482 221.665241 
L 131.230263 215.820648 
L 131.569044 219.067644 
L 131.907825 226.211035 
L 132.246606 221.015841 
L 132.585388 224.262837 
L 132.924169 219.067644 
L 133.601731 224.262837 
L 133.940512 237.250822 
L 134.618074 214.521849 
L 134.956856 221.665241 
L 135.295637 208.677256 
L 135.634418 213.87245 
L 135.973199 225.561636 
L 136.650761 221.015841 
L 136.989542 221.665241 
L 137.328323 221.665241 
L 137.667105 219.717043 
L 138.005886 224.912237 
L 138.344667 221.015841 
L 138.683448 222.31464 
L 139.022229 221.015841 
L 139.36101 223.613438 
L 139.699791 219.067644 
L 140.038573 219.717043 
L 140.377354 221.015841 
L 140.716135 226.211035 
L 141.054916 219.067644 
L 141.393697 222.964039 
L 141.732478 219.717043 
L 142.071259 219.717043 
L 142.41004 224.262837 
L 142.748822 224.912237 
L 143.087603 227.509833 
L 143.426384 215.820648 
L 143.765165 221.665241 
L 144.103946 221.015841 
L 144.442727 230.10743 
L 144.781508 216.470047 
L 145.12029 221.665241 
L 145.459071 222.31464 
L 145.797852 224.262837 
L 146.136633 229.458031 
L 146.814195 211.274853 
L 147.152976 228.159233 
L 147.491757 223.613438 
L 147.830539 221.665241 
L 148.16932 217.768845 
L 148.508101 222.964039 
L 148.846882 220.366442 
L 149.185663 222.31464 
L 149.524444 219.067644 
L 149.863225 224.912237 
L 150.202007 222.964039 
L 150.540788 216.470047 
L 150.879569 222.31464 
L 151.21835 224.912237 
L 151.557131 221.015841 
L 151.895912 225.561636 
L 152.234693 219.067644 
L 152.573474 222.964039 
L 152.912256 215.171248 
L 153.251037 219.067644 
L 153.589818 224.262837 
L 153.928599 227.509833 
L 154.606161 220.366442 
L 154.944942 221.015841 
L 155.283724 218.418245 
L 155.622505 226.211035 
L 155.961286 220.366442 
L 156.300067 217.119446 
L 156.638848 217.768845 
L 156.977629 222.964039 
L 157.31641 224.912237 
L 157.655191 221.665241 
L 157.993973 213.87245 
L 158.332754 233.354426 
L 158.671535 212.573652 
L 159.010316 222.964039 
L 159.349097 225.561636 
L 159.687878 216.470047 
L 160.026659 228.159233 
L 160.365441 216.470047 
L 160.704222 224.262837 
L 161.043003 226.860434 
L 161.381784 219.717043 
L 161.720565 216.470047 
L 162.398127 224.912237 
L 162.736908 221.665241 
L 163.07569 222.964039 
L 163.414471 224.912237 
L 163.753252 218.418245 
L 164.092033 219.717043 
L 164.430814 221.665241 
L 164.769595 221.015841 
L 165.108376 223.613438 
L 165.447158 237.900221 
L 165.785939 202.183264 
L 166.12472 211.274853 
L 166.463501 226.860434 
L 166.802282 221.665241 
L 167.141063 230.10743 
L 167.479844 222.31464 
L 167.818625 217.768845 
L 168.157407 230.75683 
L 168.496188 226.860434 
L 168.834969 206.079659 
L 169.17375 218.418245 
L 169.851312 230.10743 
L 170.190093 222.964039 
L 170.528875 230.10743 
L 170.867656 206.079659 
L 171.206437 221.665241 
L 171.545218 219.717043 
L 171.883999 217.119446 
L 172.561561 232.705027 
L 172.900342 219.067644 
L 173.239124 220.366442 
L 173.577905 220.366442 
L 173.916686 217.768845 
L 174.255467 226.211035 
L 174.594248 237.900221 
L 174.933029 193.091675 
L 175.27181 224.262837 
L 175.610592 237.250822 
L 175.949373 215.171248 
L 176.626935 226.860434 
L 176.965716 210.625454 
L 177.304497 219.717043 
L 177.643278 221.665241 
L 177.982059 220.366442 
L 178.320841 221.665241 
L 178.659622 224.262837 
L 178.998403 222.31464 
L 179.337184 219.067644 
L 179.675965 222.31464 
L 180.014746 221.665241 
L 180.353527 222.31464 
L 180.692309 221.015841 
L 181.03109 221.665241 
L 181.369871 223.613438 
L 181.708652 223.613438 
L 182.047433 221.665241 
L 182.386214 224.262837 
L 182.724995 217.768845 
L 183.063776 217.119446 
L 183.402558 223.613438 
L 183.741339 221.665241 
L 184.08012 220.366442 
L 184.418901 222.31464 
L 184.757682 221.665241 
L 185.096463 222.31464 
L 185.435244 219.067644 
L 185.774026 224.262837 
L 186.112807 219.717043 
L 186.451588 224.912237 
L 186.790369 232.055628 
L 187.12915 219.067644 
L 187.467931 217.119446 
L 187.806712 218.418245 
L 188.145493 215.171248 
L 188.484275 221.015841 
L 188.823056 229.458031 
L 189.161837 222.964039 
L 189.500618 223.613438 
L 189.839399 220.366442 
L 190.17818 221.665241 
L 190.516961 219.717043 
L 190.855743 221.665241 
L 191.194524 224.912237 
L 191.533305 223.613438 
L 191.872086 217.768845 
L 192.210867 224.912237 
L 192.549648 222.964039 
L 192.888429 213.87245 
L 193.22721 211.274853 
L 193.565992 228.808632 
L 193.904773 228.808632 
L 194.243554 225.561636 
L 194.582335 216.470047 
L 194.921116 212.573652 
L 195.598678 230.10743 
L 195.93746 224.262837 
L 196.276241 215.820648 
L 196.615022 222.964039 
L 196.953803 224.912237 
L 197.292584 225.561636 
L 197.631365 213.223051 
L 197.970146 218.418245 
L 198.308927 221.665241 
L 198.647709 222.31464 
L 198.98649 226.860434 
L 199.325271 216.470047 
L 199.664052 222.964039 
L 200.002833 226.211035 
L 200.341614 221.665241 
L 201.019177 224.262837 
L 201.357958 224.912237 
L 201.696739 215.171248 
L 202.03552 220.366442 
L 202.374301 220.366442 
L 202.713082 218.418245 
L 203.051863 226.860434 
L 203.729426 221.665241 
L 204.406988 207.378458 
L 204.745769 226.860434 
L 205.08455 226.211035 
L 205.423331 221.015841 
L 205.762112 224.262837 
L 206.100894 222.964039 
L 206.439675 225.561636 
L 206.778456 221.015841 
L 207.117237 222.31464 
L 207.456018 224.262837 
L 207.794799 223.613438 
L 208.13358 220.366442 
L 208.811143 224.912237 
L 209.149924 225.561636 
L 209.488705 222.31464 
L 209.827486 223.613438 
L 210.505048 219.717043 
L 210.843829 222.31464 
L 211.182611 222.31464 
L 211.521392 218.418245 
L 211.860173 198.936268 
L 212.198954 219.717043 
L 212.537735 227.509833 
L 212.876516 222.31464 
L 213.215297 226.211035 
L 213.554078 224.912237 
L 213.89286 218.418245 
L 214.570422 222.31464 
L 214.909203 219.067644 
L 215.247984 221.015841 
L 215.586765 221.665241 
L 215.925546 208.027857 
L 216.264328 230.10743 
L 216.603109 223.613438 
L 216.94189 224.912237 
L 217.280671 220.366442 
L 217.958233 224.262837 
L 218.297014 222.964039 
L 218.635795 223.613438 
L 218.974577 226.860434 
L 219.313358 224.912237 
L 219.652139 209.326656 
L 219.99092 224.262837 
L 220.329701 221.015841 
L 220.668482 221.665241 
L 221.007263 221.665241 
L 221.346045 220.366442 
L 221.684826 221.015841 
L 222.023607 223.613438 
L 222.362388 222.31464 
L 222.701169 222.964039 
L 223.03995 222.964039 
L 223.378731 222.31464 
L 223.717512 221.015841 
L 224.056294 226.211035 
L 224.395075 223.613438 
L 224.733856 218.418245 
L 225.072637 220.366442 
L 225.411418 229.458031 
L 226.427762 219.717043 
L 226.766543 221.665241 
L 227.105324 213.87245 
L 227.444105 219.067644 
L 228.121667 225.561636 
L 228.460448 222.964039 
L 228.799229 217.768845 
L 229.815573 225.561636 
L 230.154354 217.119446 
L 230.831916 228.159233 
L 231.170697 220.366442 
L 231.509479 215.171248 
L 231.84826 219.067644 
L 232.187041 225.561636 
L 232.525822 223.613438 
L 232.864603 219.717043 
L 233.203384 219.067644 
L 233.542165 221.015841 
L 233.880946 224.262837 
L 234.219728 220.366442 
L 234.558509 223.613438 
L 234.89729 222.31464 
L 235.236071 222.964039 
L 235.574852 222.964039 
L 235.913633 225.561636 
L 236.252414 221.015841 
L 236.591196 222.964039 
L 236.929977 220.366442 
L 237.268758 221.665241 
L 237.607539 220.366442 
L 237.94632 222.31464 
L 238.285101 221.665241 
L 238.623882 214.521849 
L 239.301445 222.964039 
L 239.640226 224.262837 
L 239.979007 224.262837 
L 240.317788 220.366442 
L 240.656569 222.964039 
L 240.99535 221.015841 
L 241.334131 222.964039 
L 241.672913 221.015841 
L 242.011694 225.561636 
L 242.350475 225.561636 
L 242.689256 222.31464 
L 243.028037 220.366442 
L 243.366818 221.665241 
L 243.705599 207.378458 
L 244.04438 231.406229 
L 244.383162 227.509833 
L 244.721943 221.015841 
L 245.060724 219.717043 
L 245.399505 222.964039 
L 245.738286 219.717043 
L 246.077067 224.912237 
L 246.75463 223.613438 
L 247.093411 218.418245 
L 247.432192 225.561636 
L 247.770973 224.912237 
L 248.109754 214.521849 
L 248.448535 222.964039 
L 248.787316 224.262837 
L 249.126097 217.768845 
L 249.464879 232.055628 
L 249.80366 212.573652 
L 250.142441 222.31464 
L 250.481222 222.31464 
L 250.820003 220.366442 
L 251.158784 222.964039 
L 251.497565 218.418245 
L 251.836347 224.912237 
L 252.175128 224.262837 
L 252.513909 219.717043 
L 252.85269 218.418245 
L 253.191471 218.418245 
L 253.530252 224.262837 
L 253.869033 220.366442 
L 254.546596 221.665241 
L 254.885377 223.613438 
L 255.224158 222.964039 
L 255.562939 221.665241 
L 255.90172 219.067644 
L 256.240501 224.912237 
L 256.579282 221.015841 
L 257.256845 223.613438 
L 257.595626 222.31464 
L 257.934407 219.717043 
L 258.273188 221.665241 
L 258.611969 222.964039 
L 258.95075 221.015841 
L 259.289531 222.31464 
L 259.628313 222.964039 
L 259.967094 217.119446 
L 260.305875 226.211035 
L 260.644656 221.665241 
L 260.983437 220.366442 
L 261.322218 222.31464 
L 261.660999 222.964039 
L 261.999781 226.860434 
L 262.338562 215.820648 
L 262.677343 224.262837 
L 263.016124 217.768845 
L 263.354905 222.964039 
L 263.693686 221.665241 
L 264.032467 217.119446 
L 264.371248 230.75683 
L 264.71003 219.067644 
L 265.048811 222.31464 
L 265.387592 221.015841 
L 265.726373 222.964039 
L 266.065154 217.768845 
L 266.403935 224.912237 
L 266.742716 220.366442 
L 267.081498 221.665241 
L 267.420279 224.782357 
L 267.75906 222.834159 
L 268.097841 212.898351 
L 268.436622 223.678378 
L 268.775403 228.029353 
L 269.114184 220.756082 
L 269.452965 219.457283 
L 269.791747 188.610821 
L 270.130528 195.429512 
L 270.469309 219.457283 
L 270.80809 224.847297 
L 271.146871 219.652103 
L 271.485652 229.847671 
L 271.824433 220.950901 
L 272.163215 215.950527 
L 272.501996 220.106682 
L 273.179558 221.98994 
L 273.518339 218.742944 
L 273.85712 223.483558 
L 274.195901 211.404733 
L 274.534682 222.18476 
L 274.873464 224.652477 
L 275.212245 220.691142 
L 275.551026 224.068018 
L 275.889807 218.418245 
L 276.228588 221.86006 
L 276.567369 222.37958 
L 276.90615 223.418618 
L 277.244932 223.613438 
L 277.583713 220.366442 
L 277.922494 215.950527 
L 278.261275 221.600301 
L 278.938837 224.132958 
L 279.277618 221.210661 
L 279.616399 220.561262 
L 279.955181 220.496322 
L 280.293962 221.79512 
L 280.632743 225.886335 
L 280.971524 228.159233 
L 281.310305 216.210287 
L 281.649086 224.847297 
L 281.987867 243.679874 
L 282.326649 191.143478 
L 282.66543 222.2497 
L 283.342992 234.977924 
L 284.020554 220.366442 
L 284.359335 216.080407 
L 284.698116 216.470047 
L 285.036898 218.028605 
L 285.375679 221.535361 
L 285.71446 221.600301 
L 286.053241 218.418245 
L 286.392022 227.964413 
L 286.730803 228.094293 
L 287.069584 199.910367 
L 287.408366 224.782357 
L 287.747147 224.132958 
L 288.085928 223.938138 
L 288.76349 215.950527 
L 289.102271 220.301502 
L 289.441052 222.639339 
L 290.118615 222.11982 
L 290.457396 225.691516 
L 291.473739 217.379206 
L 291.81252 225.236936 
L 292.151301 219.327403 
L 292.490083 221.73018 
L 292.828864 221.79512 
L 293.167645 222.11982 
L 293.506426 217.509086 
L 293.845207 221.600301 
L 294.183988 221.86006 
L 294.86155 227.250074 
L 295.200332 214.19715 
L 295.539113 220.821022 
L 295.877894 221.405481 
L 296.216675 220.950901 
L 296.555456 225.236936 
L 296.894237 219.587163 
L 297.233018 221.470421 
L 297.5718 225.171996 
L 297.910581 233.549246 
L 298.249362 220.561262 
L 298.588143 222.50946 
L 298.926924 219.067644 
L 299.265705 220.106682 
L 299.604486 219.067644 
L 299.943267 220.041743 
L 300.282049 213.87245 
L 300.62083 225.042116 
L 300.959611 221.600301 
L 301.298392 221.340541 
L 301.637173 222.704279 
L 301.975954 219.781983 
L 302.314735 223.678378 
L 302.653517 219.522223 
L 302.992298 219.002704 
L 303.331079 225.756456 
L 303.66986 219.781983 
L 304.008641 219.911863 
L 304.347422 225.821396 
L 304.686203 215.041369 
L 305.024984 223.288739 
L 305.363766 221.925 
L 305.702547 223.873198 
L 306.041328 222.574399 
L 306.380109 219.717043 
L 306.71889 232.185508 
L 307.057671 208.547376 
L 307.396452 226.470795 
L 307.735233 218.872824 
L 308.074015 218.807884 
L 308.412796 233.224547 
L 308.751577 214.391969 
L 309.090358 216.015467 
L 309.429139 224.327777 
L 309.76792 222.639339 
L 310.106701 219.327403 
L 310.445483 222.834159 
L 310.784264 230.43213 
L 311.461826 208.482437 
L 311.800607 222.2497 
L 312.139388 223.873198 
L 312.478169 223.093919 
L 312.81695 222.964039 
L 313.155732 222.639339 
L 313.494513 221.340541 
L 313.833294 218.872824 
L 314.172075 224.652477 
L 314.510856 222.05488 
L 314.849637 221.79512 
L 315.188418 224.262837 
L 315.5272 214.06727 
L 315.865981 227.509833 
L 316.204762 215.366068 
L 316.882324 225.366816 
L 317.221105 220.821022 
L 317.559886 223.353679 
L 317.898667 220.106682 
L 318.237449 222.574399 
L 318.57623 222.2497 
L 318.915011 227.315014 
L 319.253792 234.068766 
L 319.592573 224.132958 
L 319.931354 221.015841 
L 320.270135 215.885588 
L 320.608917 220.171622 
L 320.947698 210.755334 
L 321.286479 215.366068 
L 321.62526 224.912237 
L 321.964041 224.847297 
L 322.302822 222.11982 
L 322.641603 222.2497 
L 322.980384 223.873198 
L 323.319166 233.354426 
L 323.657947 228.873572 
L 324.335509 209.911115 
L 324.67429 213.352931 
L 325.351852 228.029353 
L 325.690634 218.093545 
L 326.029415 215.690768 
L 326.368196 206.144599 
L 326.706977 220.885962 
L 327.045758 228.094293 
L 327.384539 226.275975 
L 327.72332 216.145347 
L 328.062101 228.094293 
L 328.400883 224.847297 
L 328.739664 219.717043 
L 329.078445 230.49707 
L 329.756007 220.171622 
L 330.094788 221.210661 
L 330.433569 225.951275 
L 330.772351 220.171622 
L 331.111132 219.652103 
L 331.449913 224.068018 
L 331.788694 217.444146 
L 332.127475 220.561262 
L 332.466256 224.912237 
L 332.805037 224.457657 
L 333.143818 215.950527 
L 333.4826 214.716669 
L 333.821381 236.796242 
L 334.498943 214.781609 
L 334.837724 226.275975 
L 335.176505 211.015093 
L 335.515286 213.158111 
L 335.854068 225.042116 
L 336.192849 222.50946 
L 336.53163 222.2497 
L 336.870411 225.756456 
L 337.209192 215.106309 
L 337.886754 226.211035 
L 338.225535 219.652103 
L 338.564317 219.911863 
L 338.903098 225.366816 
L 339.241879 220.041743 
L 339.58066 218.158485 
L 339.919441 224.717417 
L 340.258222 216.275227 
L 340.597003 224.522597 
L 340.935785 219.846923 
L 341.274566 227.509833 
L 341.613347 228.678752 
L 341.952128 218.028605 
L 342.290909 217.833785 
L 342.62969 220.691142 
L 342.968471 225.561636 
L 343.307252 222.639339 
L 343.646034 224.782357 
L 343.984815 216.794746 
L 344.323596 225.691516 
L 344.662377 219.392343 
L 345.339939 223.808258 
L 345.67872 221.275601 
L 346.017502 229.393091 
L 346.356283 228.873572 
L 346.695064 208.027857 
L 347.033845 223.028979 
L 347.372626 218.937764 
L 348.050188 222.769219 
L 348.388969 218.613064 
L 348.727751 235.887083 
L 349.066532 206.01472 
L 349.405313 224.977177 
L 349.744094 222.704279 
L 350.082875 222.44452 
L 350.421656 219.781983 
L 350.760437 221.405481 
L 351.099219 224.068018 
L 351.438 223.288739 
L 351.776781 219.002704 
L 352.115562 227.834533 
L 352.454343 214.521849 
L 352.793124 220.756082 
L 353.131905 222.50946 
L 353.470686 221.535361 
L 353.809468 223.418618 
L 354.148249 224.587537 
L 354.48703 220.561262 
L 354.825811 225.951275 
L 355.164592 223.418618 
L 355.503373 223.223799 
L 355.842154 216.794746 
L 356.519717 228.224173 
L 356.858498 212.638592 
L 357.197279 227.639713 
L 357.53606 226.795494 
L 357.874841 213.48281 
L 358.213622 224.717417 
L 358.552403 219.457283 
L 358.891185 220.171622 
L 359.229966 226.990314 
L 359.568747 223.288739 
L 359.907528 217.184386 
L 360.246309 217.119446 
L 360.58509 224.912237 
L 360.923871 220.171622 
L 361.262653 221.535361 
L 361.601434 220.106682 
L 362.278996 221.98994 
L 362.617777 221.145721 
L 362.956558 224.977177 
L 363.295339 224.457657 
L 363.63412 219.717043 
L 363.972902 218.742944 
L 364.311683 225.042116 
L 364.650464 219.197524 
L 364.989245 226.340915 
L 365.328026 227.964413 
L 365.666807 221.275601 
L 366.34437 216.664867 
L 366.683151 224.457657 
L 367.021932 220.885962 
L 367.360713 222.44452 
L 367.699494 221.080781 
L 368.038275 223.678378 
L 368.377056 236.926122 
L 368.715837 220.885962 
L 369.054619 220.366442 
L 369.3934 226.860434 
L 369.732181 221.665241 
L 370.070962 210.950154 
L 370.409743 219.392343 
L 370.748524 221.535361 
L 371.087305 222.899099 
L 371.426087 224.847297 
L 371.764868 215.690768 
L 372.103649 225.366816 
L 372.44243 224.327777 
L 372.781211 216.470047 
L 373.458773 225.431756 
L 373.797554 220.691142 
L 374.136336 219.262463 
L 374.475117 222.37958 
L 374.813898 221.145721 
L 375.152679 221.600301 
L 375.49146 222.44452 
L 375.830241 232.899847 
L 376.169022 210.755334 
L 376.507804 234.198645 
L 376.846585 220.691142 
L 377.185366 212.184012 
L 377.524147 230.951649 
L 378.201709 213.74257 
L 378.54049 230.49707 
L 378.879271 219.067644 
L 379.218053 211.859312 
L 379.556834 229.003452 
L 379.895615 218.937764 
L 380.234396 217.833785 
L 380.573177 222.18476 
L 380.911958 224.132958 
L 381.250739 219.327403 
L 381.589521 223.353679 
L 381.928302 218.548124 
L 382.267083 219.262463 
L 382.605864 247.511329 
L 382.944645 220.691142 
L 383.283426 225.626576 
L 383.622207 212.248952 
L 383.960988 218.872824 
L 384.29977 232.315388 
L 384.638551 213.352931 
L 384.977332 221.275601 
L 385.316113 221.73018 
L 385.654894 220.171622 
L 385.993675 231.406229 
L 386.332456 212.054132 
L 386.671238 217.249326 
L 387.010019 225.366816 
L 387.3488 220.431382 
L 388.026362 227.120194 
L 388.365143 212.508712 
L 388.703924 218.353305 
L 389.042705 228.418992 
L 389.381487 217.963665 
L 389.720268 221.275601 
L 390.059049 220.041743 
L 390.39783 227.574773 
L 390.736611 213.93739 
L 391.414173 231.276349 
L 391.752955 219.846923 
L 392.091736 217.963665 
L 392.430517 219.846923 
L 392.769298 219.522223 
L 393.108079 223.028979 
L 393.44686 232.705027 
L 393.785641 215.171248 
L 394.124422 220.561262 
L 394.463204 223.158859 
L 394.801985 221.665241 
L 395.140766 221.405481 
L 395.479547 227.769593 
L 395.818328 215.171248 
L 396.157109 221.340541 
L 396.49589 223.288739 
L 396.834672 217.379206 
L 397.173453 221.925 
L 397.512234 223.288739 
L 397.851015 217.638965 
L 398.189796 221.145721 
L 398.528577 218.678004 
L 398.867358 219.652103 
L 399.206139 222.50946 
L 399.544921 223.938138 
L 399.883702 226.860434 
L 400.222483 221.86006 
L 400.561264 224.912237 
L 400.900045 221.665241 
L 401.238826 274.006817 
L 401.577607 165.946788 
L 401.916389 224.262837 
L 402.25517 215.106309 
L 402.593951 225.691516 
L 402.932732 226.665615 
L 403.271513 214.976429 
L 403.610294 223.873198 
L 403.949075 224.912237 
L 404.287856 234.003826 
L 404.626638 218.093545 
L 404.965419 214.456909 
L 405.3042 226.146095 
L 405.981762 219.652103 
L 406.320543 220.106682 
L 406.659324 218.937764 
L 406.998106 223.418618 
L 407.336887 223.353679 
L 407.675668 218.483184 
L 408.014449 215.820648 
L 408.35323 224.977177 
L 408.692011 215.560888 
L 409.369573 228.873572 
L 409.708355 224.457657 
L 410.047136 225.042116 
L 410.385917 220.106682 
L 410.724698 221.535361 
L 411.063479 213.48281 
L 411.40226 220.626202 
L 411.741041 224.522597 
L 412.079823 225.821396 
L 412.418604 214.586789 
L 412.757385 222.574399 
L 413.096166 223.158859 
L 413.434947 219.781983 
L 413.773728 294.657712 
L 414.112509 177.441154 
L 414.45129 226.600675 
L 414.790072 223.418618 
L 415.128853 217.379206 
L 415.467634 218.418245 
L 415.806415 218.093545 
L 416.145196 218.807884 
L 416.483977 215.625828 
L 416.822758 219.197524 
L 417.16154 227.899473 
L 417.500321 208.547376 
L 417.839102 229.97755 
L 418.177883 219.976803 
L 418.516664 221.145721 
L 418.855445 221.405481 
L 419.194226 219.132584 
L 419.533007 221.275601 
L 419.871789 220.821022 
L 420.21057 217.963665 
L 420.549351 222.899099 
L 420.888132 221.79512 
L 421.226913 217.898725 
L 421.565694 219.262463 
L 421.904475 214.586789 
L 422.243257 224.003078 
L 422.582038 217.963665 
L 422.920819 227.055254 
L 423.2596 224.003078 
L 423.598381 213.67763 
L 423.937162 225.691516 
L 424.275943 226.730554 
L 424.614724 228.354052 
L 424.953506 219.392343 
L 425.292287 224.003078 
L 425.631068 221.73018 
L 425.969849 208.677256 
L 426.30863 219.067644 
L 426.647411 224.068018 
L 426.986192 219.327403 
L 427.324974 222.834159 
L 427.663755 220.431382 
L 428.341317 223.873198 
L 428.680098 218.353305 
L 429.018879 223.678378 
L 429.35766 223.613438 
L 429.696441 223.678378 
L 430.035223 207.573278 
L 430.374004 231.081529 
L 430.712785 217.119446 
L 431.390347 225.626576 
L 431.729128 223.678378 
L 432.067909 222.964039 
L 432.406691 214.13221 
L 432.745472 224.522597 
L 433.084253 221.98994 
L 433.423034 225.951275 
L 433.761815 213.87245 
L 434.100596 228.029353 
L 434.439377 221.405481 
L 434.778158 219.457283 
L 435.11694 222.899099 
L 435.455721 217.509086 
L 435.794502 222.44452 
L 436.133283 230.49707 
L 436.472064 208.157737 
L 436.810845 224.327777 
L 437.149626 223.808258 
L 437.488408 220.756082 
L 437.827189 225.821396 
L 438.16597 213.223051 
L 438.504751 226.535735 
L 438.843532 221.86006 
L 439.182313 222.964039 
L 439.521094 218.353305 
L 439.859875 219.911863 
L 440.198657 230.821769 
L 440.537438 245.693011 
L 440.876219 214.651729 
L 441.215 206.599179 
L 441.553781 222.574399 
L 441.892562 213.93739 
L 442.231343 230.23731 
L 442.570125 229.522971 
L 442.908906 220.366442 
L 443.247687 223.223799 
L 443.586468 222.11982 
L 443.925249 219.262463 
L 444.26403 220.041743 
L 444.602811 205.36532 
L 444.941592 219.327403 
L 445.280374 225.886335 
L 445.619155 218.418245 
L 445.957936 227.379954 
L 446.296717 228.808632 
L 446.635498 219.652103 
L 446.974279 218.872824 
L 447.31306 225.107056 
L 447.651842 253.940381 
L 447.990623 169.128844 
L 448.329404 224.522597 
L 448.668185 232.315388 
L 449.006966 221.73018 
L 449.345747 220.885962 
L 449.684528 213.028231 
L 450.023309 242.705775 
L 450.362091 230.821769 
L 450.700872 200.884466 
L 451.039653 216.924626 
L 451.378434 223.223799 
L 451.717215 221.98994 
L 452.055996 231.860808 
L 452.394777 206.923878 
L 452.733559 233.614186 
L 453.07234 214.651729 
L 453.411121 224.197897 
L 453.749902 218.742944 
L 454.088683 217.768845 
L 454.427464 225.042116 
L 454.766245 225.107056 
L 455.105026 224.392717 
L 455.443808 221.470421 
L 455.782589 217.444146 
L 456.12137 217.444146 
L 456.460151 216.275227 
L 456.798932 229.847671 
L 457.137713 223.743318 
L 457.476494 211.729433 
L 457.815276 225.107056 
L 458.154057 224.457657 
L 458.492838 218.613064 
L 458.831619 215.495948 
L 459.1704 221.925 
L 459.509181 223.418618 
L 459.847962 222.834159 
L 460.186743 223.678378 
L 460.525525 221.86006 
L 460.864306 224.652477 
L 461.203087 224.262837 
L 461.880649 217.768845 
L 462.21943 229.003452 
L 462.558211 229.912611 
L 462.896993 225.431756 
L 463.235774 206.599179 
L 463.574555 225.107056 
L 463.913336 222.964039 
L 464.252117 219.652103 
L 464.929679 224.652477 
L 465.26846 224.068018 
L 465.607242 226.211035 
L 465.946023 221.73018 
L 466.284804 226.470795 
L 466.623585 219.262463 
L 466.962366 219.132584 
L 467.639928 225.756456 
L 467.97871 218.158485 
L 468.317491 224.457657 
L 468.656272 225.756456 
L 468.995053 229.133332 
L 469.333834 214.716669 
L 469.672615 221.275601 
L 470.011396 215.950527 
L 470.350177 221.600301 
L 470.688959 231.730928 
L 471.366521 213.80751 
L 471.705302 224.457657 
L 472.044083 218.093545 
L 472.382864 214.327029 
L 472.721645 222.964039 
L 473.060427 228.094293 
L 473.399208 212.963291 
L 473.737989 213.223051 
L 474.07677 225.821396 
L 474.415551 224.327777 
L 474.754332 225.756456 
L 475.093113 222.50946 
L 475.431894 226.665615 
L 475.770676 224.717417 
L 476.109457 225.236936 
L 476.448238 212.768471 
L 476.787019 221.015841 
L 477.1258 233.224547 
L 477.464581 213.352931 
L 478.142144 224.003078 
L 478.480925 219.911863 
L 478.819706 225.107056 
L 479.497268 220.496322 
L 479.836049 222.639339 
L 480.17483 219.911863 
L 480.852393 223.938138 
L 481.191174 222.2497 
L 481.529955 229.847671 
L 481.868736 228.354052 
L 482.207517 221.340541 
L 482.546298 221.79512 
L 482.885079 216.859686 
L 483.223861 223.158859 
L 483.562642 226.535735 
L 483.901423 225.496696 
L 484.240204 216.340167 
L 484.578985 222.964039 
L 484.917766 219.911863 
L 485.256547 212.443772 
L 485.595328 230.04249 
L 485.93411 218.807884 
L 486.272891 218.223425 
L 486.611672 222.964039 
L 486.950453 218.028605 
L 487.289234 221.015841 
L 487.628015 219.067644 
L 487.966796 222.639339 
L 488.305578 228.483932 
L 488.644359 231.925748 
L 488.98314 231.860808 
L 489.660702 208.222677 
L 489.999483 220.821022 
L 490.338264 219.717043 
L 490.677045 228.613812 
L 491.015827 233.094667 
L 491.354608 223.028979 
L 491.693389 220.236562 
L 492.03217 219.976803 
L 492.370951 225.626576 
L 492.709732 223.223799 
L 493.048513 218.742944 
L 493.387295 225.236936 
L 493.726076 219.846923 
L 494.064857 221.535361 
L 494.403638 213.67763 
L 494.742419 221.275601 
L 495.0812 221.98994 
L 495.419981 223.093919 
L 495.758762 239.913358 
L 496.097544 193.481315 
L 496.436325 240.757577 
L 496.775106 229.133332 
L 497.113887 192.052636 
L 497.452668 191.987697 
L 497.791449 235.367564 
L 498.13023 225.821396 
L 498.469012 220.885962 
L 498.807793 230.17237 
L 499.485355 215.625828 
L 499.824136 221.080781 
L 500.162917 223.093919 
L 500.501698 214.327029 
L 500.840479 221.665241 
L 501.179261 220.496322 
L 501.518042 227.250074 
L 501.856823 211.599553 
L 502.195604 221.73018 
L 502.534385 221.015841 
L 502.873166 219.717043 
L 503.211947 228.743692 
L 503.550729 220.301502 
L 503.88951 226.470795 
L 504.228291 219.976803 
L 504.567072 227.315014 
L 504.905853 226.600675 
L 505.244634 223.353679 
L 505.583415 222.05488 
L 505.922196 217.184386 
L 506.260978 228.289113 
L 506.599759 219.781983 
L 506.93854 224.003078 
L 507.277321 225.236936 
L 507.616102 227.185134 
L 507.954883 224.522597 
L 508.293664 224.652477 
L 508.632446 199.845427 
L 508.971227 223.028979 
L 509.310008 221.73018 
L 509.648789 222.769219 
L 509.98757 234.328525 
L 510.665132 216.599927 
L 511.003913 222.769219 
L 511.342695 207.248578 
L 512.020257 235.302624 
L 512.359038 222.704279 
L 512.697819 216.015467 
L 513.0366 215.950527 
L 513.375381 224.197897 
L 514.052944 218.418245 
L 514.391725 228.224173 
L 514.730506 223.093919 
L 515.069287 222.37958 
L 515.746849 227.704653 
L 516.424412 214.651729 
L 516.763193 219.002704 
L 517.101974 231.860808 
L 517.440755 226.860434 
L 517.779536 204.910741 
L 518.118317 222.11982 
L 518.457098 224.522597 
L 518.79588 221.340541 
L 519.134661 216.794746 
L 519.473442 228.873572 
L 519.812223 228.743692 
L 520.151004 211.729433 
L 520.489785 231.471169 
L 520.828566 229.263211 
L 521.167347 214.327029 
L 521.506129 220.821022 
L 521.84491 213.352931 
L 522.183691 223.028979 
L 522.522472 220.885962 
L 522.861253 215.950527 
L 523.200034 229.97755 
L 523.877597 212.898351 
L 524.216378 222.574399 
L 524.555159 225.301876 
L 524.89394 219.132584 
L 525.232721 217.314266 
L 525.571502 212.833411 
L 525.910283 223.418618 
L 526.249064 222.704279 
L 526.587846 225.042116 
L 526.926627 223.808258 
L 527.265408 220.106682 
L 527.604189 225.821396 
L 527.94297 219.392343 
L 528.281751 228.808632 
L 528.620532 226.275975 
L 528.959314 217.184386 
L 529.298095 218.158485 
L 529.636876 224.587537 
L 529.975657 220.561262 
L 530.314438 213.54775 
L 530.653219 225.107056 
L 530.992 223.808258 
L 531.330781 219.067644 
L 531.669563 223.613438 
L 532.008344 309.821184 
L 532.347125 221.665241 
L 533.363468 221.665241 
L 533.702249 77.855785 
L 534.041031 215.106309 
L 535.057374 217.898725 
L 535.396155 222.639339 
L 535.734936 220.496322 
L 536.073717 221.665241 
L 536.412498 200.235067 
L 536.75128 219.067644 
L 537.090061 221.86006 
L 537.428842 229.847671 
L 537.767623 217.833785 
L 538.106404 223.028979 
L 538.445185 219.002704 
L 538.783966 221.600301 
L 539.122748 221.86006 
L 539.461529 225.301876 
L 539.80031 221.86006 
L 540.477872 219.457283 
L 540.816653 223.743318 
L 541.155434 220.431382 
L 541.832997 222.11982 
L 542.171778 222.05488 
L 542.510559 220.431382 
L 542.84934 220.106682 
L 543.188121 222.704279 
L 543.526902 224.327777 
L 543.865683 221.405481 
L 544.204465 222.574399 
L 544.543246 221.73018 
L 544.882027 221.86006 
L 545.220808 225.042116 
L 545.559589 223.483558 
L 545.89837 213.74257 
L 546.237151 231.081529 
L 546.914714 213.352931 
L 547.253495 230.886709 
L 547.592276 232.380328 
L 547.931057 229.263211 
L 548.269838 236.016963 
L 548.608619 220.691142 
L 549.286182 207.573278 
L 549.624963 209.196776 
L 549.963744 220.236562 
L 550.302525 221.210661 
L 550.980087 231.406229 
L 551.657649 213.74257 
L 551.996431 221.925 
L 552.335212 219.262463 
L 552.673993 228.483932 
L 553.012774 218.548124 
L 553.351555 222.639339 
L 553.690336 217.898725 
L 554.029117 224.912237 
L 554.70668 217.703905 
L 555.045461 215.755708 
L 555.384242 224.132958 
L 555.723023 220.626202 
L 556.061804 222.05488 
L 556.400585 220.236562 
L 556.739366 212.508712 
L 557.078148 221.86006 
L 557.416929 222.834159 
L 557.75571 221.86006 
L 558.094491 223.613438 
L 558.433272 220.756082 
L 558.772053 222.769219 
L 559.110834 219.717043 
L 559.449616 221.340541 
L 559.788397 221.98994 
L 560.127178 220.561262 
L 560.465959 223.028979 
L 560.80474 221.210661 
L 561.482302 226.665615 
L 561.821083 222.18476 
L 562.159865 223.678378 
L 562.498646 214.06727 
L 562.837427 228.029353 
L 563.176208 217.509086 
L 563.514989 228.873572 
L 563.85377 229.003452 
L 564.192551 224.912237 
L 564.531333 223.028979 
L 565.208895 222.11982 
L 565.547676 218.807884 
L 565.886457 224.197897 
L 566.225238 219.652103 
L 566.564019 224.132958 
L 566.9028 219.392343 
L 567.241582 206.664119 
L 567.580363 217.638965 
L 567.919144 219.652103 
L 568.257925 220.041743 
L 568.596706 224.068018 
L 568.935487 219.522223 
L 569.274268 221.080781 
L 569.61305 221.665241 
L 569.951831 219.846923 
L 570.290612 223.028979 
L 570.629393 222.769219 
L 570.968174 221.080781 
L 571.306955 220.236562 
L 571.645736 223.028979 
L 571.984517 219.911863 
L 572.323299 233.549246 
L 572.66208 237.120942 
L 573.000861 215.301128 
L 573.678423 229.97755 
L 574.017204 230.75683 
L 574.355985 245.043612 
L 574.694767 220.950901 
L 575.033548 205.170501 
L 575.372329 221.79512 
L 575.71111 214.911489 
L 576.049891 218.223425 
L 576.388672 226.600675 
L 576.727453 217.574026 
L 577.066234 226.405855 
L 577.405016 228.483932 
L 577.743797 227.704653 
L 578.082578 213.54775 
L 578.421359 220.171622 
L 578.76014 220.106682 
L 579.098921 229.133332 
L 579.437702 205.62508 
L 579.776483 223.418618 
L 580.115265 229.458031 
L 580.454046 213.352931 
L 580.792827 223.483558 
L 581.131608 227.769593 
L 581.470389 221.73018 
L 581.80917 219.067644 
L 582.147951 220.431382 
L 582.486733 224.587537 
L 582.825514 220.885962 
L 583.164295 220.821022 
L 583.503076 219.392343 
L 583.841857 221.405481 
L 584.180638 224.587537 
L 584.519419 221.340541 
L 584.8582 224.197897 
L 585.196982 215.041369 
L 585.535763 225.821396 
L 585.874544 197.37771 
L 586.213325 212.703531 
L 586.890887 223.483558 
L 587.229668 223.938138 
L 587.56845 222.37958 
L 587.907231 227.769593 
L 588.246012 242.900595 
L 588.584793 224.262837 
L 588.923574 215.431008 
L 589.601136 213.54775 
L 589.939917 218.158485 
L 590.278699 214.651729 
L 590.61748 225.236936 
L 590.956261 220.626202 
L 591.295042 223.288739 
L 591.633823 222.2497 
L 591.972604 225.691516 
L 592.311385 234.523345 
L 592.650167 237.380702 
L 592.988948 218.353305 
L 593.327729 219.781983 
L 593.66651 223.158859 
L 594.005291 221.73018 
L 594.344072 226.600675 
L 594.682853 216.145347 
L 595.360416 220.366442 
L 595.699197 225.431756 
L 596.037978 219.392343 
L 596.376759 230.75683 
L 596.71554 206.599179 
L 597.054321 232.834907 
L 597.393102 220.821022 
L 597.731884 221.015841 
L 598.070665 221.405481 
L 598.409446 212.638592 
L 598.748227 233.873946 
L 599.425789 195.429512 
L 599.76457 229.263211 
L 600.103351 218.483184 
L 600.442133 220.950901 
L 600.780914 220.626202 
L 601.119695 225.107056 
L 601.458476 226.925374 
L 601.797257 232.055628 
L 602.474819 210.170875 
L 602.813601 222.964039 
L 603.152382 223.548498 
L 603.491163 225.821396 
L 603.829944 225.107056 
L 604.168725 223.158859 
L 604.507506 223.353679 
L 604.846287 222.2497 
L 605.185068 225.236936 
L 605.52385 214.586789 
L 605.862631 234.848045 
L 606.201412 234.718165 
L 606.540193 215.171248 
L 606.878974 208.027857 
L 607.217755 223.808258 
L 607.556536 226.860434 
L 607.895318 219.132584 
L 608.234099 216.534987 
L 608.57288 219.132584 
L 608.911661 207.508338 
L 609.250442 213.67763 
L 609.589223 223.873198 
L 609.928004 228.029353 
L 610.266785 228.029353 
L 610.605567 232.575147 
L 610.944348 224.132958 
L 611.283129 210.625454 
L 611.62191 218.807884 
L 611.960691 218.678004 
L 612.299472 219.457283 
L 612.638253 222.2497 
L 612.977035 226.081155 
L 613.315816 223.158859 
L 613.654597 228.354052 
L 613.993378 221.145721 
L 614.332159 225.107056 
L 614.67094 217.574026 
L 615.009721 223.093919 
L 615.348502 221.470421 
L 615.687284 229.782731 
L 616.364846 211.144973 
L 616.703627 228.678752 
L 617.042408 217.119446 
L 617.381189 220.106682 
L 617.71997 225.496696 
L 618.397533 217.249326 
L 619.075095 226.925374 
L 619.413876 217.184386 
L 619.752657 221.145721 
L 620.091438 206.664119 
L 620.430219 225.691516 
L 620.769001 222.50946 
L 621.107782 236.666362 
L 621.446563 243.030475 
L 621.785344 211.924252 
L 622.124125 212.768471 
L 622.462906 228.743692 
L 622.801687 216.340167 
L 623.47925 221.79512 
L 623.818031 219.976803 
L 624.156812 222.2497 
L 624.495593 219.522223 
L 624.834374 220.301502 
L 625.173155 228.808632 
L 625.511936 217.833785 
L 625.850718 210.755334 
L 626.189499 224.587537 
L 626.52828 231.795868 
L 626.867061 217.963665 
L 627.205842 220.171622 
L 627.544623 226.275975 
L 627.883404 220.041743 
L 628.222186 223.678378 
L 628.560967 220.301502 
L 628.899748 222.834159 
L 629.238529 217.574026 
L 629.57731 225.171996 
L 629.916091 215.820648 
L 630.254872 223.223799 
L 630.593653 218.418245 
L 630.932435 229.652851 
L 631.271216 218.872824 
L 631.609997 220.821022 
L 631.948778 220.236562 
L 632.287559 221.73018 
L 632.62634 222.44452 
L 632.965121 219.067644 
L 633.303903 221.210661 
L 633.642684 224.262837 
L 633.981465 220.431382 
L 634.320246 222.769219 
L 634.659027 218.872824 
L 634.997808 226.016215 
L 635.336589 221.600301 
L 635.67537 219.067644 
L 636.014152 221.015841 
L 636.352933 227.379954 
L 637.030495 218.807884 
L 637.369276 218.807884 
L 637.708057 220.626202 
L 638.046838 223.548498 
L 638.724401 214.911489 
L 639.063182 229.912611 
L 639.401963 219.652103 
L 639.740744 224.847297 
L 640.079525 220.626202 
L 640.418306 224.327777 
L 640.757087 217.184386 
L 641.095869 219.522223 
L 641.43465 226.795494 
L 641.773431 220.431382 
L 642.112212 219.067644 
L 642.450993 224.392717 
L 642.789774 214.456909 
L 643.128555 222.639339 
L 643.467337 227.444894 
L 643.806118 224.068018 
L 644.48368 220.821022 
L 644.822461 220.821022 
L 645.161242 222.44452 
L 645.500023 219.132584 
L 645.838804 218.678004 
L 646.177586 220.171622 
L 646.516367 222.899099 
L 646.855148 221.98994 
L 647.193929 223.743318 
L 647.53271 226.211035 
L 647.871491 218.548124 
L 648.210272 207.833037 
L 648.549054 234.977924 
L 648.887835 246.86193 
L 649.226616 219.976803 
L 649.565397 214.13221 
L 649.904178 218.418245 
L 650.242959 212.833411 
L 650.58174 227.055254 
L 650.920521 217.054506 
L 651.259303 226.470795 
L 651.598084 209.976055 
L 651.936865 227.315014 
L 652.275646 227.379954 
L 652.614427 216.534987 
L 652.953208 221.665241 
L 653.630771 214.911489 
L 653.969552 216.924626 
L 654.308333 226.795494 
L 654.647114 222.50946 
L 654.985895 221.665241 
L 655.324676 219.911863 
L 655.663457 220.691142 
L 656.002238 225.301876 
L 656.34102 226.146095 
L 656.679801 216.405107 
L 657.018582 224.587537 
L 657.357363 219.522223 
L 657.696144 217.703905 
L 658.034925 229.133332 
L 658.712488 217.379206 
L 659.051269 218.353305 
L 659.728831 222.44452 
L 660.067612 217.444146 
L 660.406393 221.79512 
L 660.745174 229.003452 
L 661.083955 239.783479 
L 661.761518 210.430634 
L 662.100299 220.950901 
L 662.43908 215.820648 
L 662.777861 224.003078 
L 663.116642 210.105935 
L 663.794205 237.120942 
L 664.132986 220.041743 
L 664.471767 213.287991 
L 664.810548 219.262463 
L 665.149329 228.938512 
L 665.48811 216.924626 
L 665.826891 223.158859 
L 666.165672 218.093545 
L 666.504454 222.704279 
L 666.843235 217.638965 
L 667.182016 222.11982 
L 667.520797 219.197524 
L 667.859578 226.016215 
L 668.198359 220.041743 
L 668.53714 219.262463 
L 668.875922 220.496322 
L 669.214703 229.003452 
L 669.553484 214.06727 
L 669.892265 217.379206 
L 670.231046 223.548498 
L 670.569827 221.210661 
L 670.908608 230.62695 
L 671.247389 216.664867 
L 671.586171 225.496696 
L 672.263733 218.093545 
L 672.602514 222.704279 
L 672.941295 220.756082 
L 673.280076 222.834159 
L 673.618857 223.678378 
L 673.957639 216.015467 
L 674.29642 220.171622 
L 674.635201 227.964413 
L 674.973982 221.275601 
L 675.312763 219.717043 
L 675.651544 219.717043 
L 675.990325 221.210661 
L 676.329106 225.821396 
L 676.667888 219.457283 
L 677.006669 221.405481 
L 677.34545 224.522597 
L 677.684231 223.613438 
L 678.023012 214.911489 
L 678.361793 231.211409 
L 678.700574 215.495948 
L 679.039356 219.197524 
L 679.378137 219.652103 
L 679.716918 221.79512 
L 680.055699 218.937764 
L 680.39448 220.821022 
L 680.733261 224.327777 
L 681.072042 223.158859 
L 681.410823 219.392343 
L 681.749605 222.769219 
L 682.088386 217.638965 
L 682.427167 223.678378 
L 682.765948 222.574399 
L 683.104729 225.561636 
L 683.44351 215.495948 
L 683.782291 220.950901 
L 684.121073 222.574399 
L 684.459854 220.691142 
L 685.137416 224.003078 
L 685.476197 220.885962 
L 685.814978 222.50946 
L 686.153759 220.821022 
L 686.831322 222.639339 
L 687.170103 220.950901 
L 687.508884 220.950901 
L 687.847665 223.093919 
L 688.186446 221.015841 
L 688.525227 219.911863 
L 688.864008 226.925374 
L 689.20279 219.911863 
L 689.541571 216.924626 
L 689.880352 219.911863 
L 690.219133 226.211035 
L 690.557914 229.068392 
L 690.896695 214.781609 
L 691.235476 226.405855 
L 691.574257 227.315014 
L 691.913039 221.925 
L 692.25182 227.185134 
L 692.590601 216.924626 
L 692.929382 218.353305 
L 693.268163 211.015093 
L 693.606944 217.054506 
L 694.284507 221.665241 
L 694.623288 221.600301 
L 694.962069 221.925 
L 695.30085 223.158859 
L 695.639631 224.977177 
L 695.978412 224.912237 
L 696.317193 217.444146 
L 696.655974 216.534987 
L 696.994756 224.392717 
L 697.333537 222.31464 
L 697.672318 230.04249 
L 698.011099 212.703531 
L 698.34988 220.561262 
L 698.688661 223.093919 
L 699.027442 222.11982 
L 699.366224 222.31464 
L 700.043786 220.626202 
L 700.382567 224.652477 
L 700.721348 222.50946 
L 701.060129 222.37958 
L 701.39891 222.05488 
L 701.737691 238.030101 
L 702.076473 225.301876 
L 702.415254 221.015841 
L 702.754035 218.742944 
L 703.092816 226.600675 
L 703.431597 216.989566 
L 703.770378 221.405481 
L 704.109159 222.639339 
L 704.447941 219.652103 
L 704.786722 222.704279 
L 705.125503 217.833785 
L 705.464284 227.834533 
L 705.803065 217.833785 
L 706.480627 221.535361 
L 706.819408 221.145721 
L 707.15819 219.392343 
L 707.496971 223.808258 
L 707.835752 209.716295 
L 708.174533 237.185882 
L 708.513314 233.289486 
L 708.852095 211.209913 
L 709.190876 220.756082 
L 709.529658 220.626202 
L 709.868439 222.899099 
L 710.20722 221.925 
L 710.546001 217.768845 
L 710.884782 226.211035 
L 711.562344 214.716669 
L 711.901125 221.86006 
L 712.239907 225.431756 
L 712.578688 214.26209 
L 712.917469 220.821022 
L 713.25625 223.158859 
L 713.595031 223.418618 
L 713.933812 225.496696 
L 714.272593 230.821769 
L 714.611375 213.74257 
L 714.950156 214.651729 
L 715.288937 219.652103 
L 715.627718 220.885962 
L 715.966499 221.535361 
L 716.30528 222.704279 
L 716.644061 227.250074 
L 716.982842 242.770715 
L 717.321624 228.354052 
L 717.660405 223.483558 
L 717.999186 215.820648 
L 718.337967 217.703905 
L 718.676748 217.379206 
L 719.015529 218.937764 
L 719.35431 217.184386 
L 719.693092 218.678004 
L 720.031873 218.872824 
L 720.370654 221.210661 
L 720.709435 220.301502 
L 721.048216 226.340915 
L 721.386997 219.457283 
L 721.725778 222.574399 
L 722.064559 218.807884 
L 722.403341 221.925 
L 722.742122 218.613064 
L 723.080903 223.548498 
L 723.419684 222.639339 
L 723.758465 219.457283 
L 724.097246 228.418992 
L 724.436027 221.86006 
L 724.774809 221.79512 
L 725.11359 227.769593 
L 725.452371 227.899473 
L 725.791152 214.911489 
L 726.129933 220.431382 
L 726.468714 220.171622 
L 726.807495 375.832614 
L 727.146276 221.665241 
L 727.485058 221.665241 
L 727.823839 222.21723 
L 728.16262 43.697386 
L 728.501401 227.444894 
L 728.840182 231.016589 
L 729.178963 230.951649 
L 729.517744 233.679126 
L 729.856526 221.86006 
L 730.195307 216.729807 
L 730.534088 214.716669 
L 730.872869 221.86006 
L 731.21165 214.26209 
L 731.550431 222.11982 
L 731.889212 221.470421 
L 732.227993 222.37958 
L 732.566775 220.821022 
L 732.905556 217.963665 
L 733.244337 218.028605 
L 733.583118 224.262837 
L 733.921899 220.756082 
L 734.599461 226.275975 
L 734.938243 278.487672 
L 735.277024 161.400994 
L 735.615805 227.769593 
L 735.954586 218.937764 
L 736.293367 218.418245 
L 736.632148 239.783479 
L 737.30971 212.313892 
L 737.648492 221.405481 
L 737.987273 221.86006 
L 738.326054 220.821022 
L 738.664835 218.872824 
L 739.003616 223.548498 
L 739.342397 225.691516 
L 739.681178 239.069139 
L 740.01996 190.299259 
L 740.358741 231.990688 
L 740.697522 225.821396 
L 741.036303 222.639339 
L 741.375084 214.911489 
L 741.713865 225.886335 
L 742.052646 220.301502 
L 742.391427 223.223799 
L 742.730209 219.457283 
L 743.06899 221.98994 
L 743.407771 220.496322 
L 743.746552 225.301876 
L 744.085333 214.586789 
L 744.424114 225.626576 
L 744.762895 227.185134 
L 745.101677 216.924626 
L 745.440458 224.003078 
L 745.779239 228.289113 
L 746.11802 217.184386 
L 746.795582 222.639339 
L 747.134363 219.262463 
L 747.473144 221.665241 
L 747.811926 228.289113 
L 748.150707 224.327777 
L 748.489488 223.223799 
L 748.828269 213.158111 
L 749.16705 220.301502 
L 749.505831 222.2497 
L 750.183394 216.794746 
L 750.522175 233.809006 
L 750.860956 227.574773 
L 751.199737 226.340915 
L 751.538518 212.573652 
L 751.877299 220.236562 
L 752.21608 221.340541 
L 752.554861 219.976803 
L 752.893643 225.821396 
L 753.571205 219.002704 
L 753.909986 222.704279 
L 754.248767 216.340167 
L 754.587548 219.327403 
L 754.926329 214.26209 
L 755.265111 227.639713 
L 755.603892 225.366816 
L 755.942673 224.132958 
L 756.281454 224.912237 
L 756.959016 228.678752 
L 757.297797 211.274853 
L 757.636578 217.379206 
L 757.97536 218.093545 
L 758.314141 215.041369 
L 758.652922 232.705027 
L 758.991703 210.365694 
L 759.330484 228.548872 
L 759.669265 226.730554 
L 760.008046 226.795494 
L 760.346828 210.495574 
L 760.685609 218.418245 
L 761.02439 220.171622 
L 761.363171 228.678752 
L 761.701952 220.496322 
L 762.040733 217.249326 
L 762.379514 223.288739 
L 762.718295 219.392343 
L 763.057077 224.847297 
L 763.395858 220.691142 
L 763.734639 224.197897 
L 764.07342 217.638965 
L 764.412201 221.015841 
L 764.750982 222.18476 
L 765.089763 225.561636 
L 765.428545 219.457283 
L 765.767326 220.366442 
L 766.106107 223.028979 
L 766.444888 220.171622 
L 766.783669 222.2497 
L 767.12245 220.366442 
L 767.461231 231.341289 
L 767.800012 218.807884 
L 768.138794 217.768845 
L 768.477575 219.132584 
L 768.816356 222.18476 
L 769.155137 227.055254 
L 769.493918 219.846923 
L 769.832699 223.678378 
L 770.17148 214.911489 
L 770.510262 228.938512 
L 770.849043 226.990314 
L 771.187824 219.002704 
L 771.526605 225.236936 
L 771.865386 217.444146 
L 772.204167 225.821396 
L 772.542948 221.145721 
L 772.881729 213.87245 
L 773.220511 224.587537 
L 773.559292 218.418245 
L 773.898073 224.847297 
L 774.236854 221.340541 
L 774.575635 214.716669 
L 774.914416 224.262837 
L 775.253197 222.50946 
L 775.591979 216.859686 
L 775.93076 220.301502 
L 776.269541 232.964787 
L 776.608322 216.015467 
L 776.947103 223.093919 
L 777.285884 220.496322 
L 777.963446 223.678378 
L 778.302228 221.925 
L 778.641009 224.977177 
L 778.97979 222.11982 
L 779.318571 214.846549 
L 779.657352 219.911863 
L 780.334914 224.587537 
L 780.673696 217.833785 
L 781.012477 225.691516 
L 781.351258 227.964413 
L 781.690039 219.522223 
L 782.02882 216.340167 
L 782.367601 229.522971 
L 782.706382 220.041743 
L 783.045163 219.846923 
L 783.383945 224.587537 
L 783.722726 217.509086 
L 784.061507 218.288365 
L 784.400288 221.145721 
L 784.739069 221.79512 
L 785.07785 216.599927 
L 785.416631 225.691516 
L 785.755413 224.977177 
L 786.094194 223.028979 
L 786.432975 223.743318 
L 786.771756 227.185134 
L 787.110537 216.859686 
L 787.449318 216.599927 
L 787.788099 220.236562 
L 788.12688 220.691142 
L 788.465662 220.821022 
L 788.804443 218.937764 
L 789.143224 220.885962 
L 789.482005 224.327777 
L 789.820786 224.912237 
L 790.498348 218.158485 
L 790.83713 221.210661 
L 791.175911 222.11982 
L 791.514692 222.18476 
L 791.853473 222.05488 
L 792.192254 224.262837 
L 792.531035 220.041743 
L 792.869816 221.665241 
L 793.208597 219.067644 
L 793.547379 224.262837 
L 793.88616 221.340541 
L 794.224941 223.028979 
L 794.563722 218.483184 
L 794.902503 218.872824 
L 795.580065 221.275601 
L 796.257628 222.37958 
L 796.596409 221.080781 
L 796.93519 223.483558 
L 797.273971 219.457283 
L 797.612752 222.37958 
L 797.951533 220.885962 
L 798.290314 221.210661 
L 798.629096 225.496696 
L 798.967877 221.405481 
L 799.306658 223.678378 
L 799.645439 222.834159 
L 800.323001 218.483184 
L 800.661782 225.171996 
L 801.000564 227.120194 
L 801.339345 225.821396 
L 801.678126 226.990314 
L 802.016907 215.560888 
L 802.355688 219.976803 
L 802.694469 219.652103 
L 803.03325 218.937764 
L 803.372031 220.236562 
L 803.710813 241.277097 
L 804.049594 210.885214 
L 804.388375 201.858565 
L 804.727156 223.223799 
L 805.065937 224.782357 
L 805.404718 222.31464 
L 805.743499 227.444894 
L 806.082281 219.976803 
L 806.421062 223.418618 
L 806.759843 228.678752 
L 807.437405 211.274853 
L 807.776186 224.717417 
L 808.114967 219.717043 
L 808.453748 217.898725 
L 808.79253 223.223799 
L 809.131311 222.44452 
L 809.470092 221.98994 
L 809.808873 218.742944 
L 810.147654 224.457657 
L 810.486435 234.133705 
L 810.825216 219.197524 
L 811.163998 217.898725 
L 811.502779 219.067644 
L 811.84156 218.613064 
L 812.180341 222.964039 
L 812.180341 222.964039 
" clip-path="url(#p472f83e9b6)" style="fill: none; stroke: #87ceeb; stroke-linecap: square"/>
   </g>
   <g id="patch_3">
    <path d="M 33.153125 392.439375 
L 33.153125 27.090625 
" style="fill: none; stroke: #000000; stroke-width: 0.8; stroke-linejoin: miter; stroke-linecap: square"/>
   </g>
   <g id="patch_4">
    <path d="M 849.276875 392.439375 
L 849.276875 27.090625 
" style="fill: none; stroke: #000000; stroke-width: 0.8; stroke-linejoin: miter; stroke-linecap: square"/>
   </g>
   <g id="patch_5">
    <path d="M 33.153125 392.439375 
L 849.276875 392.439375 
" style="fill: none; stroke: #000000; stroke-width: 0.8; stroke-linejoin: miter; stroke-linecap: square"/>
   </g>
   <g id="patch_6">
    <path d="M 33.153125 27.090625 
L 849.276875 27.090625 
" style="fill: none; stroke: #000000; stroke-width: 0.8; stroke-linejoin: miter; stroke-linecap: square"/>
   </g>
   <g id="text_13">
    <!-- 一阶差分后的  pH  值（用于ACF/PACF） -->
    <g transform="translate(333.215 17.090625) scale(0.12 -0.12)">
     <defs>
      <path id="SimHei-4e00" d="M 4875 2675 
Q 5525 2675 6050 2700 
L 6050 2050 
Q 5525 2075 4900 2075 
L 1600 2075 
Q 950 2075 350 2050 
L 350 2700 
Q 950 2675 1600 2675 
L 4875 2675 
z
" transform="scale(0.015625)"/>
      <path id="SimHei-9636" d="M 2450 4850 
Q 2350 4575 2175 3962 
Q 2000 3350 1825 2800 
Q 2225 2225 2312 1912 
Q 2400 1600 2375 1250 
Q 2350 900 2137 725 
Q 1925 550 1400 475 
Q 1300 925 1200 1075 
Q 1725 1025 1837 1225 
Q 1950 1425 1875 1775 
Q 1800 2125 1350 2725 
Q 1700 3825 1825 4400 
L 975 4400 
L 975 -500 
L 500 -500 
Q 525 175 525 675 
L 525 3650 
Q 525 4225 500 4850 
L 2450 4850 
z
M 4250 4825 
Q 4600 4100 5187 3637 
Q 5775 3175 6200 3025 
Q 5950 2775 5800 2500 
Q 4975 3075 4600 3512 
Q 4225 3950 4025 4400 
Q 3850 4025 3512 3487 
Q 3175 2950 2625 2350 
Q 2425 2575 2175 2700 
Q 2700 3075 3150 3787 
Q 3600 4500 3850 5275 
Q 4050 5150 4375 5075 
Q 4275 4900 4250 4825 
z
M 3750 2700 
Q 3650 2325 3575 1512 
Q 3500 700 3250 225 
Q 3000 -250 2650 -575 
Q 2425 -400 2175 -300 
Q 2550 -25 2762 337 
Q 2975 700 3087 1200 
Q 3200 1700 3200 2800 
Q 3350 2725 3750 2700 
z
M 5025 2775 
Q 4975 2425 4975 2025 
L 4975 350 
Q 4975 100 5000 -525 
L 4475 -525 
Q 4500 150 4500 375 
L 4500 2025 
Q 4500 2375 4475 2775 
L 5025 2775 
z
" transform="scale(0.015625)"/>
      <path id="SimHei-ff08" d="M 5425 5100 
L 5700 4775 
Q 4275 3725 4325 2350 
Q 4350 1025 5675 50 
L 5400 -275 
Q 3875 825 3925 2500 
Q 3925 3875 5425 5100 
z
" transform="scale(0.015625)"/>
      <path id="SimHei-7528" d="M 350 -300 
Q 650 125 812 600 
Q 975 1075 1012 1550 
Q 1050 2025 1050 3150 
Q 1050 4275 1025 4950 
L 5500 4950 
Q 5475 4225 5475 3650 
L 5475 375 
Q 5475 -150 5175 -275 
Q 4875 -400 4475 -450 
Q 4425 -75 4300 125 
Q 4800 100 4887 162 
Q 4975 225 4975 400 
L 4975 1650 
L 3450 1650 
L 3450 675 
Q 3450 125 3475 -325 
L 2925 -325 
Q 2950 100 2950 650 
L 2950 1650 
L 1525 1650 
Q 1425 575 850 -525 
Q 575 -350 350 -300 
z
M 4975 3475 
L 4975 4550 
L 3450 4550 
L 3450 3475 
L 4975 3475 
z
M 4975 2050 
L 4975 3100 
L 3450 3100 
L 3450 2050 
L 4975 2050 
z
M 2950 3475 
L 2950 4550 
L 1525 4550 
L 1525 3475 
L 2950 3475 
z
M 2950 2050 
L 2950 3100 
L 1525 3100 
L 1525 2050 
L 2950 2050 
z
" transform="scale(0.015625)"/>
      <path id="SimHei-4e8e" d="M 2900 2425 
L 1150 2425 
Q 650 2425 275 2400 
L 275 2900 
Q 650 2875 1150 2875 
L 2900 2875 
L 2900 4450 
L 1675 4450 
Q 1225 4450 900 4425 
L 900 4925 
Q 1225 4900 1675 4900 
L 4525 4900 
Q 4950 4900 5375 4925 
L 5375 4425 
Q 4950 4450 4525 4450 
L 3425 4450 
L 3425 2875 
L 5050 2875 
Q 5600 2875 6050 2900 
L 6050 2400 
Q 5650 2425 5050 2425 
L 3425 2425 
L 3425 125 
Q 3425 -325 3125 -412 
Q 2825 -500 2250 -525 
Q 2225 -200 2050 150 
Q 2450 100 2675 112 
Q 2900 125 2900 325 
L 2900 2425 
z
" transform="scale(0.015625)"/>
      <path id="SimHei-41" d="M 3075 125 
L 2475 125 
L 2125 1450 
L 1025 1450 
L 675 125 
L 75 125 
L 1325 4450 
L 1825 4450 
L 3075 125 
z
M 2000 1925 
L 1600 3450 
L 1550 3450 
L 1150 1925 
L 2000 1925 
z
" transform="scale(0.015625)"/>
      <path id="SimHei-43" d="M 2975 1825 
Q 2950 875 2575 475 
Q 2200 75 1675 75 
Q 1075 75 650 562 
Q 225 1050 225 2125 
Q 225 3300 637 3875 
Q 1050 4450 1700 4450 
Q 2250 4450 2612 4037 
Q 2975 3625 2950 2875 
L 2400 2875 
Q 2400 3425 2225 3700 
Q 2050 3975 1700 3975 
Q 1300 3975 1062 3562 
Q 825 3150 825 2175 
Q 825 1275 1062 912 
Q 1300 550 1675 550 
Q 1950 550 2175 812 
Q 2400 1075 2400 1825 
L 2975 1825 
z
" transform="scale(0.015625)"/>
      <path id="SimHei-46" d="M 2925 3925 
L 875 3925 
L 875 2525 
L 2425 2525 
L 2425 2050 
L 875 2050 
L 875 125 
L 300 125 
L 300 4400 
L 2925 4400 
L 2925 3925 
z
" transform="scale(0.015625)"/>
      <path id="SimHei-50" d="M 2950 3100 
Q 2950 2500 2600 2150 
Q 2250 1800 1625 1800 
L 900 1800 
L 900 125 
L 325 125 
L 325 4400 
L 1625 4400 
Q 2250 4400 2600 4050 
Q 2950 3700 2950 3100 
z
M 2375 3100 
Q 2375 3575 2150 3750 
Q 1925 3925 1475 3925 
L 900 3925 
L 900 2275 
L 1475 2275 
Q 1925 2275 2150 2450 
Q 2375 2625 2375 3100 
z
" transform="scale(0.015625)"/>
      <path id="SimHei-ff09" d="M 1000 5100 
Q 2500 3875 2500 2500 
Q 2550 825 1025 -275 
L 750 50 
Q 2075 1025 2100 2350 
Q 2150 3725 725 4775 
L 1000 5100 
z
" transform="scale(0.015625)"/>
     </defs>
     <use xlink:href="#SimHei-4e00"/>
     <use xlink:href="#SimHei-9636" transform="translate(100 0)"/>
     <use xlink:href="#SimHei-5dee" transform="translate(200 0)"/>
     <use xlink:href="#SimHei-5206" transform="translate(300 0)"/>
     <use xlink:href="#SimHei-540e" transform="translate(400 0)"/>
     <use xlink:href="#SimHei-7684" transform="translate(500 0)"/>
     <use xlink:href="#SimHei-20" transform="translate(600 0)"/>
     <use xlink:href="#SimHei-20" transform="translate(650 0)"/>
     <use xlink:href="#SimHei-70" transform="translate(700 0)"/>
     <use xlink:href="#SimHei-48" transform="translate(750 0)"/>
     <use xlink:href="#SimHei-20" transform="translate(800 0)"/>
     <use xlink:href="#SimHei-20" transform="translate(850 0)"/>
     <use xlink:href="#SimHei-503c" transform="translate(900 0)"/>
     <use xlink:href="#SimHei-ff08" transform="translate(1000 0)"/>
     <use xlink:href="#SimHei-7528" transform="translate(1100 0)"/>
     <use xlink:href="#SimHei-4e8e" transform="translate(1200 0)"/>
     <use xlink:href="#SimHei-41" transform="translate(1300 0)"/>
     <use xlink:href="#SimHei-43" transform="translate(1350 0)"/>
     <use xlink:href="#SimHei-46" transform="translate(1400 0)"/>
     <use xlink:href="#SimHei-2f" transform="translate(1450 0)"/>
     <use xlink:href="#SimHei-50" transform="translate(1500 0)"/>
     <use xlink:href="#SimHei-41" transform="translate(1550 0)"/>
     <use xlink:href="#SimHei-43" transform="translate(1600 0)"/>
     <use xlink:href="#SimHei-46" transform="translate(1650 0)"/>
     <use xlink:href="#SimHei-ff09" transform="translate(1700 0)"/>
    </g>
   </g>
   <g id="legend_1">
    <g id="patch_7">
     <path d="M 39.453125 47.333594 
L 230.253125 47.333594 
Q 232.053125 47.333594 232.053125 45.533594 
L 232.053125 33.390625 
Q 232.053125 31.590625 230.253125 31.590625 
L 39.453125 31.590625 
Q 37.653125 31.590625 37.653125 33.390625 
L 37.653125 45.533594 
Q 37.653125 47.333594 39.453125 47.333594 
z
" style="fill: #ffffff; opacity: 0.8; stroke: #cccccc; stroke-width: 0.5; stroke-linejoin: miter"/>
    </g>
    <g id="line2d_22">
     <path d="M 41.253125 39.458594 
L 50.253125 39.458594 
L 59.253125 39.458594 
" style="fill: none; stroke: #87ceeb; stroke-linecap: square"/>
    </g>
    <g id="text_14">
     <!-- 一阶差分后的  pH  值（用于ACF/PACF） -->
     <g transform="translate(66.453125 42.608594) scale(0.09 -0.09)">
      <use xlink:href="#SimHei-4e00"/>
      <use xlink:href="#SimHei-9636" transform="translate(100 0)"/>
      <use xlink:href="#SimHei-5dee" transform="translate(200 0)"/>
      <use xlink:href="#SimHei-5206" transform="translate(300 0)"/>
      <use xlink:href="#SimHei-540e" transform="translate(400 0)"/>
      <use xlink:href="#SimHei-7684" transform="translate(500 0)"/>
      <use xlink:href="#SimHei-20" transform="translate(600 0)"/>
      <use xlink:href="#SimHei-20" transform="translate(650 0)"/>
      <use xlink:href="#SimHei-70" transform="translate(700 0)"/>
      <use xlink:href="#SimHei-48" transform="translate(750 0)"/>
      <use xlink:href="#SimHei-20" transform="translate(800 0)"/>
      <use xlink:href="#SimHei-20" transform="translate(850 0)"/>
      <use xlink:href="#SimHei-503c" transform="translate(900 0)"/>
      <use xlink:href="#SimHei-ff08" transform="translate(1000 0)"/>
      <use xlink:href="#SimHei-7528" transform="translate(1100 0)"/>
      <use xlink:href="#SimHei-4e8e" transform="translate(1200 0)"/>
      <use xlink:href="#SimHei-41" transform="translate(1300 0)"/>
      <use xlink:href="#SimHei-43" transform="translate(1350 0)"/>
      <use xlink:href="#SimHei-46" transform="translate(1400 0)"/>
      <use xlink:href="#SimHei-2f" transform="translate(1450 0)"/>
      <use xlink:href="#SimHei-50" transform="translate(1500 0)"/>
      <use xlink:href="#SimHei-41" transform="translate(1550 0)"/>
      <use xlink:href="#SimHei-43" transform="translate(1600 0)"/>
      <use xlink:href="#SimHei-46" transform="translate(1650 0)"/>
      <use xlink:href="#SimHei-ff09" transform="translate(1700 0)"/>
     </g>
    </g>
   </g>
  </g>
 </g>
 <defs>
  <clipPath id="p472f83e9b6">
   <rect x="33.153125" y="27.090625" width="816.12375" height="365.34875"/>
  </clipPath>
 </defs>
</svg>
