<?xml version="1.0" encoding="utf-8" standalone="no"?>
<!DOCTYPE svg PUBLIC "-//W3C//DTD SVG 1.1//EN"
  "http://www.w3.org/Graphics/SVG/1.1/DTD/svg11.dtd">
<svg xmlns:xlink="http://www.w3.org/1999/xlink" width="856.476875pt" height="423.709687pt" viewBox="0 0 856.476875 423.709687" xmlns="http://www.w3.org/2000/svg" version="1.1">
 <metadata>
  <rdf:RDF xmlns:dc="http://purl.org/dc/elements/1.1/" xmlns:cc="http://creativecommons.org/ns#" xmlns:rdf="http://www.w3.org/1999/02/22-rdf-syntax-ns#">
   <cc:Work>
    <dc:type rdf:resource="http://purl.org/dc/dcmitype/StillImage"/>
    <dc:date>2025-04-16T14:24:54.317708</dc:date>
    <dc:format>image/svg+xml</dc:format>
    <dc:creator>
     <cc:Agent>
      <dc:title>Matplotlib v3.10.0, https://matplotlib.org/</dc:title>
     </cc:Agent>
    </dc:creator>
   </cc:Work>
  </rdf:RDF>
 </metadata>
 <defs>
  <style type="text/css">*{stroke-linejoin: round; stroke-linecap: butt}</style>
 </defs>
 <g id="figure_1">
  <g id="patch_1">
   <path d="M 0 423.709687 
L 856.476875 423.709687 
L 856.476875 0 
L 0 0 
z
" style="fill: #ffffff"/>
  </g>
  <g id="axes_1">
   <g id="patch_2">
    <path d="M 37.653125 392.439375 
L 849.276875 392.439375 
L 849.276875 27.090625 
L 37.653125 27.090625 
z
" style="fill: #ffffff"/>
   </g>
   <g id="matplotlib.axis_1">
    <g id="xtick_1">
     <g id="line2d_1">
      <path d="M 73.871287 392.439375 
L 73.871287 27.090625 
" clip-path="url(#p395b587d95)" style="fill: none; stroke-dasharray: 1.85,0.8; stroke-dashoffset: 0; stroke: #b2b2b2; stroke-opacity: 0.3; stroke-width: 0.5"/>
     </g>
     <g id="line2d_2">
      <defs>
       <path id="m9cad207f97" d="M 0 0 
L 0 -3.5 
" style="stroke: #000000; stroke-width: 0.8"/>
      </defs>
      <g>
       <use xlink:href="#m9cad207f97" x="73.871287" y="392.439375" style="stroke: #000000; stroke-width: 0.8"/>
      </g>
     </g>
     <g id="text_1">
      <!-- 0 -->
      <g transform="translate(71.621287 402.126875) scale(0.09 -0.09)">
       <defs>
        <path id="SimHei-30" d="M 225 2537 
Q 250 3200 412 3587 
Q 575 3975 875 4225 
Q 1175 4475 1612 4475 
Q 2050 4475 2375 4112 
Q 2700 3750 2800 3200 
Q 2900 2650 2862 1937 
Q 2825 1225 2612 775 
Q 2400 325 1975 150 
Q 1550 -25 1125 187 
Q 700 400 525 750 
Q 350 1100 275 1487 
Q 200 1875 225 2537 
z
M 750 2687 
Q 675 2000 800 1462 
Q 925 925 1212 700 
Q 1500 475 1800 612 
Q 2100 750 2237 1162 
Q 2375 1575 2375 2062 
Q 2375 2550 2337 2950 
Q 2300 3350 2112 3675 
Q 1925 4000 1612 4012 
Q 1300 4025 1062 3700 
Q 825 3375 750 2687 
z
" transform="scale(0.015625)"/>
       </defs>
       <use xlink:href="#SimHei-30"/>
      </g>
     </g>
    </g>
    <g id="xtick_2">
     <g id="line2d_3">
      <path d="M 242.327856 392.439375 
L 242.327856 27.090625 
" clip-path="url(#p395b587d95)" style="fill: none; stroke-dasharray: 1.85,0.8; stroke-dashoffset: 0; stroke: #b2b2b2; stroke-opacity: 0.3; stroke-width: 0.5"/>
     </g>
     <g id="line2d_4">
      <g>
       <use xlink:href="#m9cad207f97" x="242.327856" y="392.439375" style="stroke: #000000; stroke-width: 0.8"/>
      </g>
     </g>
     <g id="text_2">
      <!-- 500 -->
      <g transform="translate(235.577856 402.126875) scale(0.09 -0.09)">
       <defs>
        <path id="SimHei-35" d="M 550 1325 
Q 725 650 1150 575 
Q 1575 500 1837 662 
Q 2100 825 2212 1087 
Q 2325 1350 2312 1675 
Q 2300 2000 2137 2225 
Q 1975 2450 1725 2525 
Q 1475 2600 1162 2525 
Q 850 2450 650 2175 
L 225 2225 
Q 275 2375 700 4375 
L 2675 4375 
L 2675 3925 
L 1075 3925 
Q 950 3250 825 2850 
Q 1200 3025 1525 3012 
Q 1850 3000 2150 2862 
Q 2450 2725 2587 2487 
Q 2725 2250 2787 2012 
Q 2850 1775 2837 1500 
Q 2825 1225 2725 937 
Q 2625 650 2425 462 
Q 2225 275 1937 162 
Q 1650 50 1275 75 
Q 900 100 562 350 
Q 225 600 100 1200 
L 550 1325 
z
" transform="scale(0.015625)"/>
       </defs>
       <use xlink:href="#SimHei-35"/>
       <use xlink:href="#SimHei-30" transform="translate(50 0)"/>
       <use xlink:href="#SimHei-30" transform="translate(100 0)"/>
      </g>
     </g>
    </g>
    <g id="xtick_3">
     <g id="line2d_5">
      <path d="M 410.784426 392.439375 
L 410.784426 27.090625 
" clip-path="url(#p395b587d95)" style="fill: none; stroke-dasharray: 1.85,0.8; stroke-dashoffset: 0; stroke: #b2b2b2; stroke-opacity: 0.3; stroke-width: 0.5"/>
     </g>
     <g id="line2d_6">
      <g>
       <use xlink:href="#m9cad207f97" x="410.784426" y="392.439375" style="stroke: #000000; stroke-width: 0.8"/>
      </g>
     </g>
     <g id="text_3">
      <!-- 1000 -->
      <g transform="translate(401.784426 402.126875) scale(0.09 -0.09)">
       <defs>
        <path id="SimHei-31" d="M 1400 3600 
Q 1075 3275 575 2975 
L 575 3450 
Q 1200 3875 1600 4450 
L 1900 4450 
L 1900 150 
L 1400 150 
L 1400 3600 
z
" transform="scale(0.015625)"/>
       </defs>
       <use xlink:href="#SimHei-31"/>
       <use xlink:href="#SimHei-30" transform="translate(50 0)"/>
       <use xlink:href="#SimHei-30" transform="translate(100 0)"/>
       <use xlink:href="#SimHei-30" transform="translate(150 0)"/>
      </g>
     </g>
    </g>
    <g id="xtick_4">
     <g id="line2d_7">
      <path d="M 579.240995 392.439375 
L 579.240995 27.090625 
" clip-path="url(#p395b587d95)" style="fill: none; stroke-dasharray: 1.85,0.8; stroke-dashoffset: 0; stroke: #b2b2b2; stroke-opacity: 0.3; stroke-width: 0.5"/>
     </g>
     <g id="line2d_8">
      <g>
       <use xlink:href="#m9cad207f97" x="579.240995" y="392.439375" style="stroke: #000000; stroke-width: 0.8"/>
      </g>
     </g>
     <g id="text_4">
      <!-- 1500 -->
      <g transform="translate(570.240995 402.126875) scale(0.09 -0.09)">
       <use xlink:href="#SimHei-31"/>
       <use xlink:href="#SimHei-35" transform="translate(50 0)"/>
       <use xlink:href="#SimHei-30" transform="translate(100 0)"/>
       <use xlink:href="#SimHei-30" transform="translate(150 0)"/>
      </g>
     </g>
    </g>
    <g id="xtick_5">
     <g id="line2d_9">
      <path d="M 747.697564 392.439375 
L 747.697564 27.090625 
" clip-path="url(#p395b587d95)" style="fill: none; stroke-dasharray: 1.85,0.8; stroke-dashoffset: 0; stroke: #b2b2b2; stroke-opacity: 0.3; stroke-width: 0.5"/>
     </g>
     <g id="line2d_10">
      <g>
       <use xlink:href="#m9cad207f97" x="747.697564" y="392.439375" style="stroke: #000000; stroke-width: 0.8"/>
      </g>
     </g>
     <g id="text_5">
      <!-- 2000 -->
      <g transform="translate(738.697564 402.126875) scale(0.09 -0.09)">
       <defs>
        <path id="SimHei-32" d="M 300 250 
Q 325 625 650 925 
Q 975 1225 1475 1862 
Q 1975 2500 2125 2850 
Q 2275 3200 2237 3450 
Q 2200 3700 2000 3862 
Q 1800 4025 1537 4000 
Q 1275 3975 1037 3800 
Q 800 3625 675 3275 
L 200 3350 
Q 400 3925 712 4187 
Q 1025 4450 1450 4475 
Q 1700 4500 1900 4462 
Q 2100 4425 2312 4287 
Q 2525 4150 2662 3875 
Q 2800 3600 2762 3212 
Q 2725 2825 2375 2287 
Q 2025 1750 1025 600 
L 2825 600 
L 2825 150 
L 300 150 
L 300 250 
z
" transform="scale(0.015625)"/>
       </defs>
       <use xlink:href="#SimHei-32"/>
       <use xlink:href="#SimHei-30" transform="translate(50 0)"/>
       <use xlink:href="#SimHei-30" transform="translate(100 0)"/>
       <use xlink:href="#SimHei-30" transform="translate(150 0)"/>
      </g>
     </g>
    </g>
    <g id="text_6">
     <!-- 时间 / 序号 -->
     <g transform="translate(415.965 415.259687) scale(0.1 -0.1)">
      <defs>
       <path id="SimHei-65f6" d="M 2525 4575 
Q 2500 3675 2500 2400 
Q 2500 1125 2525 400 
L 2000 400 
L 2000 875 
L 1000 875 
L 1000 50 
L 475 50 
Q 500 1200 500 2350 
Q 500 3525 475 4575 
L 2525 4575 
z
M 4875 3825 
Q 4875 4575 4850 5225 
L 5400 5225 
Q 5375 4575 5375 3825 
Q 5750 3825 6175 3850 
L 6175 3375 
Q 5750 3400 5375 3400 
L 5375 50 
Q 5375 -325 5075 -425 
Q 4775 -525 4300 -575 
Q 4300 -275 4025 0 
Q 4500 -50 4687 -25 
Q 4875 0 4875 300 
L 4875 3400 
Q 3625 3400 2775 3375 
L 2775 3850 
Q 3575 3825 4875 3825 
z
M 2000 1300 
L 2000 2550 
L 1000 2550 
L 1000 1300 
L 2000 1300 
z
M 2000 2975 
L 2000 4150 
L 1000 4150 
L 1000 2975 
L 2000 2975 
z
M 3550 2725 
Q 3875 2200 4175 1600 
Q 3925 1525 3650 1375 
Q 3450 1975 3075 2500 
Q 3300 2600 3550 2725 
z
" transform="scale(0.015625)"/>
       <path id="SimHei-95f4" d="M 4450 3550 
Q 4425 3075 4425 2725 
L 4425 1400 
Q 4425 1075 4450 625 
L 1925 625 
Q 1950 1075 1950 1425 
L 1950 2725 
Q 1950 3075 1925 3550 
L 4450 3550 
z
M 5800 4875 
Q 5775 4400 5775 3925 
L 5775 250 
Q 5800 -325 5462 -450 
Q 5125 -575 4725 -625 
Q 4700 -325 4525 -25 
Q 5000 -50 5137 25 
Q 5275 100 5275 350 
L 5275 4450 
L 3775 4450 
Q 3175 4450 2650 4425 
L 2650 4900 
Q 3175 4875 3775 4875 
L 5800 4875 
z
M 550 -525 
Q 600 -25 600 525 
L 600 3150 
Q 600 3675 550 4025 
L 1125 4025 
Q 1100 3650 1100 3300 
L 1100 500 
Q 1100 0 1125 -525 
L 550 -525 
z
M 3950 1025 
L 3950 1950 
L 2425 1950 
L 2425 1025 
L 3950 1025 
z
M 3950 2350 
L 3950 3150 
L 2425 3150 
L 2425 2350 
L 3950 2350 
z
M 1525 5300 
Q 1750 5000 2225 4350 
Q 1950 4225 1700 4075 
Q 1450 4575 1075 5025 
Q 1350 5225 1525 5300 
z
" transform="scale(0.015625)"/>
       <path id="SimHei-20" transform="scale(0.015625)"/>
       <path id="SimHei-2f" d="M 3000 4550 
L 350 -175 
L 100 -25 
L 2750 4700 
L 3000 4550 
z
" transform="scale(0.015625)"/>
       <path id="SimHei-5e8f" d="M 4000 2075 
L 5975 2075 
Q 5750 1525 5575 1025 
Q 5325 1100 5050 1150 
Q 5175 1450 5275 1700 
L 4050 1700 
L 4050 150 
Q 4050 -375 3762 -462 
Q 3475 -550 2950 -575 
Q 2875 -300 2750 0 
Q 3350 -75 3475 25 
Q 3600 125 3575 375 
L 3575 1700 
L 2450 1700 
Q 2050 1700 1675 1675 
L 1675 2100 
Q 2100 2075 2425 2075 
L 3675 2075 
Q 3325 2400 2875 2775 
Q 2975 2875 3250 3100 
Q 3400 2975 3725 2725 
L 4575 3275 
L 3000 3275 
Q 2400 3275 1950 3250 
L 1950 3700 
Q 2400 3675 3000 3675 
L 5400 3675 
L 5400 3250 
Q 4700 2875 4025 2450 
L 4275 2250 
L 4000 2075 
z
M 3725 5275 
Q 3825 4925 3925 4525 
L 4850 4525 
Q 5425 4525 6000 4550 
L 6000 4125 
Q 5425 4150 4850 4150 
L 1400 4150 
Q 1400 2750 1362 2137 
Q 1325 1525 1200 887 
Q 1075 250 775 -350 
Q 625 -250 250 -125 
Q 475 300 600 700 
Q 725 1100 800 1637 
Q 875 2175 875 2825 
Q 875 3500 850 4525 
L 3350 4525 
Q 3275 4825 3150 5150 
Q 3425 5200 3725 5275 
z
" transform="scale(0.015625)"/>
       <path id="SimHei-53f7" d="M 5025 4925 
Q 5000 4550 5000 4075 
Q 5000 3600 5025 3175 
L 1400 3175 
Q 1425 3525 1425 4000 
Q 1425 4500 1400 4925 
L 5025 4925 
z
M 5175 2625 
Q 5650 2625 6025 2650 
L 6025 2200 
Q 5650 2225 5175 2225 
L 2450 2225 
Q 2350 1875 2225 1450 
L 5175 1450 
Q 5100 1050 5062 775 
Q 5025 500 4950 112 
Q 4875 -275 4650 -412 
Q 4425 -550 3225 -625 
Q 3125 -350 2975 -50 
Q 3875 -75 4112 -50 
Q 4350 -25 4425 212 
Q 4500 450 4575 1025 
L 1600 1025 
Q 1825 1625 1950 2225 
L 1350 2225 
Q 825 2225 375 2200 
L 375 2650 
Q 825 2625 1350 2625 
L 5175 2625 
z
M 4525 3575 
L 4525 4525 
L 1900 4525 
L 1900 3575 
L 4525 3575 
z
" transform="scale(0.015625)"/>
      </defs>
      <use xlink:href="#SimHei-65f6"/>
      <use xlink:href="#SimHei-95f4" transform="translate(100 0)"/>
      <use xlink:href="#SimHei-20" transform="translate(200 0)"/>
      <use xlink:href="#SimHei-2f" transform="translate(250 0)"/>
      <use xlink:href="#SimHei-20" transform="translate(300 0)"/>
      <use xlink:href="#SimHei-5e8f" transform="translate(350 0)"/>
      <use xlink:href="#SimHei-53f7" transform="translate(450 0)"/>
     </g>
    </g>
   </g>
   <g id="matplotlib.axis_2">
    <g id="ytick_1">
     <g id="line2d_11">
      <path d="M 37.653125 369.641438 
L 849.276875 369.641438 
" clip-path="url(#p395b587d95)" style="fill: none; stroke-dasharray: 1.85,0.8; stroke-dashoffset: 0; stroke: #b2b2b2; stroke-opacity: 0.3; stroke-width: 0.5"/>
     </g>
     <g id="line2d_12">
      <defs>
       <path id="m79a6abdf89" d="M 0 0 
L 3.5 0 
" style="stroke: #000000; stroke-width: 0.8"/>
      </defs>
      <g>
       <use xlink:href="#m79a6abdf89" x="37.653125" y="369.641438" style="stroke: #000000; stroke-width: 0.8"/>
      </g>
     </g>
     <g id="text_7">
      <!-- -60 -->
      <g transform="translate(20.653125 372.735188) scale(0.09 -0.09)">
       <defs>
        <path id="SimHei-2d" d="M 2975 2125 
L 125 2125 
L 125 2525 
L 2975 2525 
L 2975 2125 
z
" transform="scale(0.015625)"/>
        <path id="SimHei-36" d="M 250 1612 
Q 275 1975 387 2225 
Q 500 2475 725 2850 
L 1750 4450 
L 2325 4450 
L 1275 2800 
Q 1950 2975 2350 2750 
Q 2750 2525 2887 2237 
Q 3025 1950 3037 1612 
Q 3050 1275 2937 950 
Q 2825 625 2537 362 
Q 2250 100 1737 75 
Q 1225 50 862 262 
Q 500 475 362 862 
Q 225 1250 250 1612 
z
M 1025 787 
Q 1250 550 1625 525 
Q 2000 500 2250 775 
Q 2500 1050 2500 1575 
Q 2500 2100 2187 2300 
Q 1875 2500 1487 2450 
Q 1100 2400 925 2075 
Q 750 1750 775 1387 
Q 800 1025 1025 787 
z
" transform="scale(0.015625)"/>
       </defs>
       <use xlink:href="#SimHei-2d"/>
       <use xlink:href="#SimHei-36" transform="translate(50 0)"/>
       <use xlink:href="#SimHei-30" transform="translate(100 0)"/>
      </g>
     </g>
    </g>
    <g id="ytick_2">
     <g id="line2d_13">
      <path d="M 37.653125 316.269234 
L 849.276875 316.269234 
" clip-path="url(#p395b587d95)" style="fill: none; stroke-dasharray: 1.85,0.8; stroke-dashoffset: 0; stroke: #b2b2b2; stroke-opacity: 0.3; stroke-width: 0.5"/>
     </g>
     <g id="line2d_14">
      <g>
       <use xlink:href="#m79a6abdf89" x="37.653125" y="316.269234" style="stroke: #000000; stroke-width: 0.8"/>
      </g>
     </g>
     <g id="text_8">
      <!-- -40 -->
      <g transform="translate(20.653125 319.362984) scale(0.09 -0.09)">
       <defs>
        <path id="SimHei-34" d="M 2000 1100 
L 75 1100 
L 75 1525 
L 2100 4450 
L 2475 4450 
L 2475 1525 
L 3075 1525 
L 3075 1100 
L 2475 1100 
L 2475 150 
L 2000 150 
L 2000 1100 
z
M 2000 1525 
L 2000 3500 
L 600 1525 
L 2000 1525 
z
" transform="scale(0.015625)"/>
       </defs>
       <use xlink:href="#SimHei-2d"/>
       <use xlink:href="#SimHei-34" transform="translate(50 0)"/>
       <use xlink:href="#SimHei-30" transform="translate(100 0)"/>
      </g>
     </g>
    </g>
    <g id="ytick_3">
     <g id="line2d_15">
      <path d="M 37.653125 262.897029 
L 849.276875 262.897029 
" clip-path="url(#p395b587d95)" style="fill: none; stroke-dasharray: 1.85,0.8; stroke-dashoffset: 0; stroke: #b2b2b2; stroke-opacity: 0.3; stroke-width: 0.5"/>
     </g>
     <g id="line2d_16">
      <g>
       <use xlink:href="#m79a6abdf89" x="37.653125" y="262.897029" style="stroke: #000000; stroke-width: 0.8"/>
      </g>
     </g>
     <g id="text_9">
      <!-- -20 -->
      <g transform="translate(20.653125 265.990779) scale(0.09 -0.09)">
       <use xlink:href="#SimHei-2d"/>
       <use xlink:href="#SimHei-32" transform="translate(50 0)"/>
       <use xlink:href="#SimHei-30" transform="translate(100 0)"/>
      </g>
     </g>
    </g>
    <g id="ytick_4">
     <g id="line2d_17">
      <path d="M 37.653125 209.524825 
L 849.276875 209.524825 
" clip-path="url(#p395b587d95)" style="fill: none; stroke-dasharray: 1.85,0.8; stroke-dashoffset: 0; stroke: #b2b2b2; stroke-opacity: 0.3; stroke-width: 0.5"/>
     </g>
     <g id="line2d_18">
      <g>
       <use xlink:href="#m79a6abdf89" x="37.653125" y="209.524825" style="stroke: #000000; stroke-width: 0.8"/>
      </g>
     </g>
     <g id="text_10">
      <!-- 0 -->
      <g transform="translate(29.653125 212.618575) scale(0.09 -0.09)">
       <use xlink:href="#SimHei-30"/>
      </g>
     </g>
    </g>
    <g id="ytick_5">
     <g id="line2d_19">
      <path d="M 37.653125 156.152621 
L 849.276875 156.152621 
" clip-path="url(#p395b587d95)" style="fill: none; stroke-dasharray: 1.85,0.8; stroke-dashoffset: 0; stroke: #b2b2b2; stroke-opacity: 0.3; stroke-width: 0.5"/>
     </g>
     <g id="line2d_20">
      <g>
       <use xlink:href="#m79a6abdf89" x="37.653125" y="156.152621" style="stroke: #000000; stroke-width: 0.8"/>
      </g>
     </g>
     <g id="text_11">
      <!-- 20 -->
      <g transform="translate(25.153125 159.246371) scale(0.09 -0.09)">
       <use xlink:href="#SimHei-32"/>
       <use xlink:href="#SimHei-30" transform="translate(50 0)"/>
      </g>
     </g>
    </g>
    <g id="ytick_6">
     <g id="line2d_21">
      <path d="M 37.653125 102.780417 
L 849.276875 102.780417 
" clip-path="url(#p395b587d95)" style="fill: none; stroke-dasharray: 1.85,0.8; stroke-dashoffset: 0; stroke: #b2b2b2; stroke-opacity: 0.3; stroke-width: 0.5"/>
     </g>
     <g id="line2d_22">
      <g>
       <use xlink:href="#m79a6abdf89" x="37.653125" y="102.780417" style="stroke: #000000; stroke-width: 0.8"/>
      </g>
     </g>
     <g id="text_12">
      <!-- 40 -->
      <g transform="translate(25.153125 105.874167) scale(0.09 -0.09)">
       <use xlink:href="#SimHei-34"/>
       <use xlink:href="#SimHei-30" transform="translate(50 0)"/>
      </g>
     </g>
    </g>
    <g id="ytick_7">
     <g id="line2d_23">
      <path d="M 37.653125 49.408212 
L 849.276875 49.408212 
" clip-path="url(#p395b587d95)" style="fill: none; stroke-dasharray: 1.85,0.8; stroke-dashoffset: 0; stroke: #b2b2b2; stroke-opacity: 0.3; stroke-width: 0.5"/>
     </g>
     <g id="line2d_24">
      <g>
       <use xlink:href="#m79a6abdf89" x="37.653125" y="49.408212" style="stroke: #000000; stroke-width: 0.8"/>
      </g>
     </g>
     <g id="text_13">
      <!-- 60 -->
      <g transform="translate(25.153125 52.501962) scale(0.09 -0.09)">
       <use xlink:href="#SimHei-36"/>
       <use xlink:href="#SimHei-30" transform="translate(50 0)"/>
      </g>
     </g>
    </g>
    <g id="text_14">
     <!-- 差分后的 pH 值 -->
     <g transform="translate(15.403125 244.765) rotate(-90) scale(0.1 -0.1)">
      <defs>
       <path id="SimHei-5dee" d="M 4725 4975 
Q 4500 4725 4250 4275 
L 4850 4275 
Q 5450 4275 5825 4300 
L 5825 3850 
Q 5425 3875 4850 3875 
L 3275 3875 
Q 3225 3600 3150 3275 
L 4525 3275 
Q 5075 3275 5525 3300 
L 5525 2850 
Q 5075 2875 4500 2875 
L 3050 2875 
Q 2975 2650 2850 2325 
L 5125 2325 
Q 5675 2325 6025 2350 
L 6025 1900 
Q 5700 1925 5150 1925 
L 2650 1925 
Q 2425 1550 2250 1300 
Q 2650 1275 3100 1275 
L 4525 1275 
Q 4975 1275 5350 1300 
L 5350 850 
Q 4975 875 4575 875 
L 3925 875 
L 3925 -50 
L 5000 -50 
Q 5200 -50 5900 -25 
L 5900 -500 
Q 5275 -475 5025 -475 
L 2100 -475 
Q 1700 -475 1400 -500 
L 1400 -25 
Q 1775 -50 2125 -50 
L 3425 -50 
L 3425 875 
L 3100 875 
Q 2625 875 2175 850 
L 2175 1200 
Q 1925 875 1487 475 
Q 1050 75 625 -250 
Q 425 -25 200 150 
Q 750 475 1262 925 
Q 1775 1375 2100 1925 
L 1325 1925 
Q 750 1925 375 1900 
L 375 2350 
Q 750 2325 1350 2325 
L 2325 2325 
Q 2450 2575 2550 2875 
L 1725 2875 
Q 1375 2875 1000 2850 
L 1000 3300 
Q 1500 3275 1700 3275 
L 2650 3275 
Q 2725 3575 2775 3875 
L 1500 3875 
Q 1100 3875 650 3850 
L 650 4300 
Q 1025 4275 1425 4275 
L 2275 4275 
Q 2075 4675 1850 4950 
Q 2025 5050 2250 5225 
Q 2450 4975 2725 4550 
Q 2525 4450 2325 4275 
L 3750 4275 
Q 4000 4700 4150 5250 
Q 4400 5100 4725 4975 
z
" transform="scale(0.015625)"/>
       <path id="SimHei-5206" d="M 1000 -650 
Q 825 -375 575 -225 
Q 975 -75 1300 137 
Q 1625 350 1875 662 
Q 2125 975 2250 1350 
Q 2375 1725 2425 2275 
Q 1850 2275 1500 2250 
L 1500 2775 
Q 1900 2750 2525 2750 
L 5025 2750 
Q 4975 2375 4950 2100 
L 4750 250 
Q 4700 -200 4350 -350 
Q 4000 -500 3575 -525 
Q 3550 -275 3325 50 
Q 3850 25 4037 87 
Q 4225 150 4275 525 
L 4450 2275 
L 2950 2275 
Q 2875 1625 2737 1187 
Q 2600 750 2350 425 
Q 2100 100 1750 -175 
Q 1400 -450 1000 -650 
z
M 3950 5175 
Q 4125 4650 4662 3975 
Q 5200 3300 6175 2800 
Q 5975 2625 5775 2275 
Q 5325 2600 4987 2887 
Q 4650 3175 4425 3425 
Q 4200 3675 3925 4137 
Q 3650 4600 3475 5000 
Q 3750 5075 3950 5175 
z
M 2700 4825 
Q 2475 4425 2325 4125 
Q 2175 3825 2025 3587 
Q 1875 3350 1575 2950 
Q 1275 2550 850 2125 
Q 625 2350 400 2475 
Q 900 2925 1187 3300 
Q 1475 3675 1737 4112 
Q 2000 4550 2200 5075 
Q 2400 4925 2700 4825 
z
" transform="scale(0.015625)"/>
       <path id="SimHei-540e" d="M 5475 2150 
Q 5450 1750 5450 775 
Q 5450 -175 5500 -550 
L 4975 -550 
L 4975 -25 
L 2525 -25 
L 2525 -600 
L 2025 -600 
Q 2050 -175 2050 775 
Q 2050 1750 2025 2150 
L 5475 2150 
z
M 5175 5075 
Q 5300 4800 5525 4525 
Q 4950 4475 3750 4337 
Q 2550 4200 1575 4175 
L 1575 3375 
L 5200 3375 
Q 5550 3375 5975 3400 
L 5975 2900 
Q 5575 2925 5200 2925 
L 1575 2925 
Q 1550 2425 1487 1875 
Q 1425 1325 1250 712 
Q 1075 100 800 -325 
Q 650 -200 225 -50 
Q 625 325 825 1062 
Q 1025 1800 1050 2825 
Q 1075 3850 1075 4575 
Q 2300 4600 3625 4775 
Q 4950 4950 5175 5075 
z
M 4975 375 
L 4975 1725 
L 2525 1725 
L 2525 375 
L 4975 375 
z
" transform="scale(0.015625)"/>
       <path id="SimHei-7684" d="M 2100 4975 
Q 1975 4750 1750 3950 
L 2875 3950 
Q 2850 3525 2850 2875 
L 2850 675 
Q 2850 300 2875 -400 
L 2375 -400 
L 2375 100 
L 1100 100 
L 1100 -450 
L 600 -450 
Q 625 350 625 550 
L 625 2850 
Q 625 3525 600 3950 
L 1325 3950 
Q 1450 4525 1525 5150 
Q 1875 5025 2100 4975 
z
M 5825 3075 
Q 5800 1550 5700 175 
Q 5650 -275 5225 -425 
Q 4800 -575 4275 -625 
Q 4250 -350 4050 -50 
Q 4550 -75 4837 -25 
Q 5125 25 5200 200 
Q 5275 375 5312 1225 
Q 5350 2075 5375 3600 
L 3925 3600 
Q 3725 3125 3350 2475 
Q 3175 2650 2925 2750 
Q 3150 3050 3350 3475 
Q 3550 3900 3700 4400 
Q 3850 4900 3875 5175 
Q 4225 5025 4475 4950 
Q 4350 4750 4262 4512 
Q 4175 4275 4075 4050 
L 5850 4050 
Q 5825 3525 5825 3075 
z
M 2375 525 
L 2375 1850 
L 1100 1850 
L 1100 525 
L 2375 525 
z
M 2375 2275 
L 2375 3525 
L 1100 3525 
L 1100 2275 
L 2375 2275 
z
M 4350 2050 
Q 4500 1750 4700 1275 
Q 4525 1200 4225 1025 
Q 4050 1500 3900 1837 
Q 3750 2175 3600 2400 
Q 3775 2500 4050 2650 
L 4350 2050 
z
" transform="scale(0.015625)"/>
       <path id="SimHei-70" d="M 2825 1525 
Q 2825 800 2475 425 
Q 2125 50 1625 50 
Q 1350 50 1150 162 
Q 950 275 800 500 
L 800 -800 
L 300 -800 
L 300 2925 
L 800 2925 
L 800 2550 
Q 950 2775 1150 2875 
Q 1350 2975 1625 2975 
Q 2125 2975 2475 2612 
Q 2825 2250 2825 1525 
z
M 2275 1525 
Q 2275 2000 2087 2262 
Q 1900 2525 1525 2525 
Q 1225 2525 1012 2262 
Q 800 2000 800 1525 
Q 800 1050 1012 775 
Q 1225 500 1525 500 
Q 1900 500 2087 775 
Q 2275 1050 2275 1525 
z
" transform="scale(0.015625)"/>
       <path id="SimHei-48" d="M 2850 125 
L 2275 125 
L 2275 2125 
L 850 2125 
L 850 125 
L 275 125 
L 275 4400 
L 850 4400 
L 850 2600 
L 2275 2600 
L 2275 4400 
L 2850 4400 
L 2850 125 
z
" transform="scale(0.015625)"/>
       <path id="SimHei-503c" d="M 3675 4450 
L 3675 5100 
Q 3975 5075 4350 5050 
Q 4225 4875 4200 4450 
L 5125 4450 
Q 5550 4450 5875 4475 
L 5875 4025 
Q 5525 4050 5125 4050 
L 4175 4050 
L 4125 3500 
L 5400 3500 
Q 5375 3200 5375 2700 
L 5375 150 
Q 5875 150 6100 175 
L 6100 -275 
Q 5775 -250 5200 -250 
L 2850 -250 
Q 2275 -250 1900 -275 
L 1900 175 
Q 2125 150 2600 150 
L 2600 2700 
Q 2600 3175 2575 3500 
L 3600 3500 
L 3650 4050 
L 3200 4050 
Q 2575 4050 2225 4025 
L 2225 4475 
Q 2550 4450 3200 4450 
L 3675 4450 
z
M 2225 4900 
Q 2025 4675 1650 3750 
L 1650 450 
Q 1650 -75 1675 -550 
L 1150 -550 
Q 1175 -125 1175 375 
L 1175 2950 
Q 875 2450 625 2150 
Q 425 2425 250 2575 
Q 500 2825 937 3537 
Q 1375 4250 1625 5150 
Q 1975 4975 2225 4900 
z
M 4925 2650 
L 4925 3150 
L 3075 3150 
L 3075 2650 
L 4925 2650 
z
M 4925 150 
L 4925 625 
L 3075 625 
L 3075 150 
L 4925 150 
z
M 4925 1000 
L 4925 1450 
L 3075 1450 
L 3075 1000 
L 4925 1000 
z
M 4925 1825 
L 4925 2275 
L 3075 2275 
L 3075 1825 
L 4925 1825 
z
" transform="scale(0.015625)"/>
      </defs>
      <use xlink:href="#SimHei-5dee"/>
      <use xlink:href="#SimHei-5206" transform="translate(100 0)"/>
      <use xlink:href="#SimHei-540e" transform="translate(200 0)"/>
      <use xlink:href="#SimHei-7684" transform="translate(300 0)"/>
      <use xlink:href="#SimHei-20" transform="translate(400 0)"/>
      <use xlink:href="#SimHei-70" transform="translate(450 0)"/>
      <use xlink:href="#SimHei-48" transform="translate(500 0)"/>
      <use xlink:href="#SimHei-20" transform="translate(550 0)"/>
      <use xlink:href="#SimHei-503c" transform="translate(600 0)"/>
     </g>
    </g>
   </g>
   <g id="line2d_25">
    <path d="M 74.545114 236.798021 
L 74.882027 221.800432 
L 75.21894 194.874155 
L 75.555853 244.190072 
L 75.892766 225.669917 
L 76.229679 122.181213 
L 76.566592 206.936273 
L 76.903506 211.33948 
L 77.240419 194.927527 
L 77.577332 230.259926 
L 77.914245 218.73153 
L 78.251158 170.216197 
L 78.588071 212.353552 
L 78.924984 221.293396 
L 79.261898 210.912502 
L 79.598811 218.037692 
L 79.935724 192.44572 
L 80.60955 227.911549 
L 80.946463 212.246807 
L 81.283376 212.30018 
L 81.62029 206.856215 
L 81.957203 204.160919 
L 82.294116 181.771279 
L 82.631029 247.072171 
L 83.304855 180.410288 
L 83.641768 227.778119 
L 83.978682 228.552016 
L 84.315595 202.826613 
L 84.652508 205.815457 
L 84.989421 188.122571 
L 85.326334 248.593279 
L 86.00016 177.981852 
L 86.337073 199.624281 
L 87.0109 221.480199 
L 87.347813 199.330734 
L 87.684726 226.977536 
L 88.358552 191.778567 
L 88.695465 242.455475 
L 89.032379 171.203582 
L 89.369292 208.697556 
L 89.706205 210.37878 
L 90.043118 220.813046 
L 90.380031 215.10222 
L 90.716944 213.39431 
L 91.053857 197.702882 
L 91.390771 200.077945 
L 91.727684 218.037692 
L 92.064597 199.037187 
L 92.40151 212.006633 
L 92.738423 213.020704 
L 93.075336 218.011006 
L 93.412249 197.569451 
L 93.749163 223.161423 
L 94.086076 198.930443 
L 94.759902 228.898935 
L 95.096815 188.122571 
L 95.433728 196.395263 
L 95.770641 220.78636 
L 96.107554 219.905719 
L 96.444468 195.781482 
L 96.781381 218.838275 
L 97.118294 211.259422 
L 97.455207 187.321988 
L 97.79212 245.497691 
L 98.129033 170.66986 
L 98.465946 210.672327 
L 98.80286 229.299227 
L 99.139773 187.428733 
L 99.476686 223.481657 
L 99.813599 229.459343 
L 100.150512 241.521462 
L 100.487425 176.567489 
L 100.824338 223.348226 
L 101.161252 206.936273 
L 101.498165 218.891647 
L 101.835078 216.54327 
L 102.171991 184.493261 
L 102.508904 216.303095 
L 102.845817 217.664086 
L 103.18273 153.110405 
L 103.519644 231.220626 
L 103.856557 229.832949 
L 104.19347 257.453065 
L 104.530383 120.473302 
L 104.867296 239.306515 
L 105.204209 171.710618 
L 105.541122 277.921305 
L 105.878035 175.500045 
L 106.214949 215.502512 
L 106.551862 223.481657 
L 106.888775 223.081365 
L 107.225688 187.455419 
L 107.562601 226.443814 
L 108.236427 190.177401 
L 108.573341 188.442804 
L 108.910254 220.519499 
L 109.247167 220.946477 
L 109.58408 231.700976 
L 109.920993 218.998391 
L 110.257906 220.732988 
L 110.594819 213.901346 
L 110.931733 195.354505 
L 111.268646 257.82667 
L 111.605559 163.544671 
L 111.942472 168.641717 
L 112.279385 251.235203 
L 112.953211 178.568947 
L 113.290125 241.654892 
L 113.963951 178.702377 
L 114.300864 215.635942 
L 114.637777 206.669412 
L 114.97469 217.664086 
L 115.311603 253.71701 
L 115.648517 158.55437 
L 115.98543 260.201733 
L 116.322343 147.693126 
L 116.659256 229.566088 
L 116.996169 248.139615 
L 117.333082 233.835864 
L 117.669995 186.948383 
L 118.006908 220.065835 
L 118.343822 238.025582 
L 118.680735 137.899327 
L 119.017648 246.93874 
L 119.691474 179.049296 
L 120.028387 258.200275 
L 120.3653 163.357868 
L 120.702214 218.464669 
L 121.039127 199.997887 
L 121.712953 239.54669 
L 122.049866 201.305506 
L 122.386779 275.572928 
L 122.723692 169.549044 
L 123.060606 173.311784 
L 123.397519 210.24535 
L 123.734432 180.703835 
L 124.071345 244.323502 
L 124.408258 229.806263 
L 124.745171 223.668459 
L 125.082084 201.652425 
L 125.418998 198.850384 
L 125.755911 188.629607 
L 126.092824 237.331744 
L 126.429737 147.66644 
L 126.76665 308.690381 
L 127.103563 206.189062 
L 127.440476 158.527684 
L 127.777389 191.858625 
L 128.114303 284.539458 
L 128.451216 165.652873 
L 128.788129 154.79163 
L 129.461955 243.229372 
L 129.798868 257.026087 
L 130.135781 159.888675 
L 130.472695 197.596137 
L 130.809608 210.752386 
L 131.146521 261.829585 
L 131.483434 188.256002 
L 131.820347 219.238566 
L 132.15726 198.370034 
L 132.494173 153.163777 
L 132.831087 266.873259 
L 133.168 161.836761 
L 133.504913 252.889741 
L 133.841826 188.656293 
L 134.178739 215.262337 
L 134.515652 224.682531 
L 134.852565 175.366614 
L 135.189479 240.800937 
L 135.526392 111.720261 
L 135.863305 257.799984 
L 136.537131 198.156546 
L 136.874044 239.012968 
L 137.210957 216.703387 
L 137.54787 205.255049 
L 137.884784 198.770326 
L 138.221697 189.376818 
L 138.55861 261.562724 
L 138.895523 135.230717 
L 139.232436 228.098352 
L 139.569349 221.079907 
L 139.906262 180.543718 
L 140.580089 250.834911 
L 140.917002 186.254544 
L 141.253915 195.24776 
L 141.590828 239.093026 
L 141.927741 185.293844 
L 142.264654 167.787761 
L 142.601568 297.562276 
L 142.938481 169.869277 
L 143.275394 210.058547 
L 143.612307 199.490851 
L 143.94922 196.07503 
L 144.286133 200.531609 
L 144.623046 229.886321 
L 144.95996 216.783445 
L 145.296873 228.712133 
L 145.633786 259.080917 
L 145.970699 183.105584 
L 146.307612 222.013921 
L 146.644525 232.581617 
L 146.981438 203.120161 
L 147.318351 202.399636 
L 147.655265 211.552969 
L 147.992178 155.352038 
L 148.329091 216.703387 
L 148.666004 237.224999 
L 149.002917 202.266205 
L 149.676743 170.963407 
L 150.013657 263.110518 
L 150.35057 198.930443 
L 150.687483 220.492813 
L 151.024396 185.827566 
L 151.361309 234.929994 
L 151.698222 195.461249 
L 152.035135 177.021153 
L 152.372049 192.739267 
L 152.708962 268.287622 
L 153.045875 226.790733 
L 153.382788 140.541251 
L 153.719701 253.209974 
L 154.056614 199.570909 
L 154.393527 208.057089 
L 154.730441 226.523872 
L 155.067354 180.677149 
L 155.404267 241.12117 
L 155.74118 248.326418 
L 156.078093 158.207451 
L 156.415006 255.238118 
L 156.751919 145.95853 
L 157.088833 225.936778 
L 157.425746 180.59709 
L 157.762659 271.916932 
L 158.099572 202.773241 
L 158.436485 181.42436 
L 158.773398 212.113377 
L 159.110311 117.030795 
L 159.447224 253.823755 
L 159.784138 212.940646 
L 160.121051 236.157555 
L 160.457964 177.741677 
L 160.794877 166.960492 
L 161.13179 251.822297 
L 161.468703 209.524825 
L 161.805616 260.655397 
L 162.14253 227.938236 
L 162.479443 169.255497 
L 162.816356 180.783893 
L 163.153269 275.279381 
L 163.490182 190.417576 
L 163.827095 162.023563 
L 164.164008 273.197865 
L 164.500922 187.989141 
L 165.174748 265.458895 
L 165.511661 165.839676 
L 165.848574 165.999792 
L 166.185487 212.326866 
L 166.859314 183.479189 
L 167.196227 234.95668 
L 167.53314 232.63499 
L 167.870053 224.976078 
L 168.206966 162.850832 
L 168.543879 248.966884 
L 168.880792 216.836817 
L 169.217705 202.159461 
L 169.554619 170.483058 
L 169.891532 221.907176 
L 170.228445 218.11775 
L 170.565358 177.554875 
L 170.902271 259.267719 
L 171.239184 166.693631 
L 171.576097 224.388984 
L 171.913011 217.02362 
L 172.249924 185.1871 
L 172.586837 225.269625 
L 172.92375 205.255049 
L 173.260663 223.748518 
L 173.597576 230.766962 
L 173.934489 195.541308 
L 174.271403 210.565583 
L 174.608316 214.461754 
L 174.945229 229.539402 
L 175.282142 179.929938 
L 175.619055 189.563621 
L 175.955968 212.220121 
L 176.292881 215.022162 
L 176.629795 212.540355 
L 176.966708 244.296816 
L 177.303621 188.416118 
L 177.640534 191.778567 
L 177.977447 231.887779 
L 178.31436 307.195959 
L 178.651273 99.658143 
L 178.988186 272.770887 
L 179.3251 202.426322 
L 179.662013 193.006128 
L 179.998926 195.968285 
L 180.335839 159.915361 
L 181.009665 242.749022 
L 181.346578 193.379733 
L 181.683492 227.511258 
L 182.020405 237.892152 
L 182.357318 232.261384 
L 182.694231 213.954718 
L 183.031144 210.779072 
L 183.368057 225.749975 
L 183.70497 168.454914 
L 184.041884 220.78636 
L 184.378797 210.325408 
L 184.71571 193.806711 
L 185.052623 186.89501 
L 185.389536 198.983815 
L 185.726449 235.703891 
L 186.063362 192.659209 
L 186.400276 238.265757 
L 186.737189 155.618899 
L 187.074102 187.695594 
L 187.411015 166.239967 
L 187.747928 209.524825 
L 188.084841 269.194949 
L 188.758667 180.009996 
L 189.095581 301.084842 
L 189.432494 80.524207 
L 189.769407 216.356467 
L 190.10632 285.660274 
L 190.443233 230.019752 
L 191.117059 208.510753 
L 191.453973 197.009043 
L 191.790886 203.333649 
L 192.127799 231.487487 
L 192.464712 225.056137 
L 192.801625 206.482609 
L 193.138538 218.144436 
L 193.475451 208.8043 
L 193.812365 185.880939 
L 194.149278 176.22057 
L 194.486191 182.17157 
L 194.823104 271.890246 
L 195.160017 177.127897 
L 195.49693 235.890694 
L 195.833843 189.937226 
L 196.170757 207.09639 
L 196.50767 164.612115 
L 196.844583 236.851394 
L 197.181496 221.346768 
L 197.518409 226.897478 
L 197.855322 237.732035 
L 198.192235 200.45155 
L 198.529149 225.936778 
L 198.866062 158.661114 
L 199.202975 172.964865 
L 199.539888 243.923211 
L 199.876801 218.277867 
L 200.213714 228.792191 
L 200.550627 193.780025 
L 200.88754 221.186652 
L 201.224454 273.144493 
L 201.561367 183.61262 
L 201.89828 179.289471 
L 202.235193 248.299731 
L 202.572106 244.563677 
L 202.909019 145.291377 
L 203.245932 197.009043 
L 203.582846 166.42677 
L 203.919759 197.195846 
L 204.256672 251.395319 
L 204.593585 185.720822 
L 204.930498 211.899888 
L 205.267411 196.848927 
L 205.604324 196.101716 
L 205.941238 227.377827 
L 206.278151 199.304048 
L 206.615064 193.006128 
L 206.951977 253.183288 
L 207.28889 192.205545 
L 207.625803 224.068751 
L 207.962716 183.212328 
L 208.29963 212.380238 
L 208.636543 218.678158 
L 208.973456 215.208965 
L 209.310369 188.682979 
L 209.647282 227.244397 
L 209.984195 208.484067 
L 210.321108 231.327371 
L 210.658021 178.088597 
L 210.994935 230.23324 
L 211.331848 210.939188 
L 211.668761 201.972658 
L 212.005674 205.495224 
L 212.342587 222.467585 
L 212.6795 190.897926 
L 213.016413 228.391899 
L 213.353327 197.089101 
L 214.027153 215.876117 
L 214.364066 228.311841 
L 214.700979 197.409335 
L 215.037892 259.934872 
L 215.374805 261.269177 
L 215.711719 109.772175 
L 216.048632 225.109509 
L 216.385545 191.458334 
L 216.722458 244.483619 
L 217.059371 188.896468 
L 217.396284 216.783445 
L 217.733197 189.483562 
L 218.070111 219.21188 
L 218.407024 176.380686 
L 218.743937 247.41909 
L 219.08085 209.524825 
L 219.417763 301.138214 
L 219.754676 148.280221 
L 220.091589 209.791686 
L 220.428502 194.207002 
L 220.765416 256.999401 
L 221.102329 91.892487 
L 221.439242 296.281343 
L 221.776155 180.196799 
L 222.113068 204.42778 
L 222.449981 276.506941 
L 222.786894 236.664591 
L 223.123808 119.112311 
L 223.460721 195.781482 
L 223.797634 205.762085 
L 224.134547 201.358878 
L 224.47146 234.422958 
L 224.808373 170.322941 
L 225.145286 245.897982 
L 225.4822 215.075534 
L 225.819113 163.624729 
L 226.156026 257.506437 
L 226.829852 194.046886 
L 227.166765 212.807216 
L 227.503678 190.364204 
L 227.840592 204.374407 
L 228.177505 224.602473 
L 228.514418 210.618955 
L 228.851331 206.482609 
L 229.188244 192.072114 
L 229.525157 252.275961 
L 229.86207 191.084728 
L 230.198983 212.967332 
L 230.535897 222.84119 
L 230.87281 199.944514 
L 231.209723 230.820335 
L 231.546636 201.011958 
L 231.883549 231.861093 
L 232.220462 164.665487 
L 232.894289 210.352094 
L 233.231202 217.050306 
L 233.568115 192.178859 
L 234.241941 237.251685 
L 234.578854 199.063873 
L 234.915767 268.607855 
L 235.252681 182.972153 
L 235.589594 218.037692 
L 235.926507 173.151668 
L 236.26342 206.989645 
L 236.600333 201.652425 
L 236.937246 206.349179 
L 237.274159 232.314756 
L 237.611073 202.693183 
L 237.947986 226.657303 
L 238.284899 203.493766 
L 238.621812 202.479694 
L 238.958725 169.042008 
L 239.295638 250.56805 
L 239.632551 177.474816 
L 239.969465 239.626748 
L 240.306378 196.475321 
L 240.643291 241.815009 
L 240.980204 218.11775 
L 241.317117 177.021153 
L 241.65403 209.524825 
L 241.990943 128.265644 
L 242.327856 340.660331 
L 242.66477 175.126439 
L 243.001683 195.381191 
L 243.338596 200.905214 
L 243.675509 199.35742 
L 244.012422 190.631065 
L 244.349335 228.632074 
L 244.686248 222.040607 
L 245.023162 153.564069 
L 245.360075 272.370596 
L 245.696988 226.924164 
L 246.033901 204.42778 
L 246.370814 191.938684 
L 246.707727 225.269625 
L 247.381554 187.588849 
L 247.718467 188.576235 
L 248.05538 183.61262 
L 248.392293 259.668011 
L 248.729206 217.6374 
L 249.066119 194.607294 
L 249.403032 227.324455 
L 250.076859 174.459287 
L 250.413772 236.771335 
L 250.750685 204.614582 
L 251.087598 236.237613 
L 251.424511 196.20846 
L 251.761424 210.752386 
L 252.098337 202.50638 
L 252.435251 213.127449 
L 252.772164 231.354057 
L 253.109077 167.200667 
L 253.44599 225.109509 
L 253.782903 234.95668 
L 254.119816 194.180316 
L 254.456729 171.417071 
L 254.793643 225.99015 
L 255.130556 216.036234 
L 255.467469 226.363756 
L 255.804382 178.755749 
L 256.141295 249.313803 
L 256.478208 175.980395 
L 256.815121 233.275456 
L 257.152035 194.340433 
L 257.488948 235.730577 
L 257.825861 178.088597 
L 258.162774 181.984768 
L 258.499687 218.357925 
L 258.8366 209.524825 
L 259.173513 203.867371 
L 259.510427 259.454522 
L 259.84734 217.317167 
L 260.184253 160.849375 
L 260.521166 236.264299 
L 260.858079 161.5699 
L 261.194992 230.446729 
L 261.531905 209.524825 
L 261.868818 228.738819 
L 262.205732 174.539345 
L 262.542645 240.187156 
L 262.879558 238.799479 
L 263.216471 199.437478 
L 263.553384 204.507838 
L 263.890297 168.454914 
L 264.22721 217.690772 
L 264.901037 202.879986 
L 265.23795 245.631121 
L 265.574863 254.651024 
L 265.911776 192.285603 
L 266.248689 175.099753 
L 266.922516 209.524825 
L 267.259429 224.575787 
L 267.596342 317.416736 
L 267.933255 78.442691 
L 268.607081 245.897982 
L 268.943994 232.848478 
L 269.280908 171.897421 
L 269.617821 258.760684 
L 269.954734 197.275904 
L 270.291647 209.524825 
L 270.62856 163.224438 
L 270.965473 255.63841 
L 271.302386 158.607742 
L 271.6393 266.17942 
L 271.976213 235.703891 
L 272.313126 231.727662 
L 272.650039 140.594623 
L 272.986952 202.639811 
L 273.323865 187.668907 
L 273.660778 223.294854 
L 273.997691 178.729063 
L 274.334605 240.320587 
L 274.671518 166.053165 
L 275.008431 299.190128 
L 275.345344 145.664983 
L 275.682257 244.376874 
L 276.01917 214.888732 
L 276.356083 211.739772 
L 276.692997 173.124982 
L 277.02991 258.653939 
L 277.366823 175.686848 
L 278.040649 224.228867 
L 278.377562 196.048343 
L 278.714475 332.547756 
L 279.051389 118.792078 
L 279.388302 159.16815 
L 279.725215 242.829081 
L 280.062128 241.60152 
L 280.399041 169.255497 
L 280.735954 219.585486 
L 281.409781 193.433105 
L 281.746694 223.775204 
L 282.083607 232.554931 
L 282.42052 206.429237 
L 282.757433 220.679616 
L 283.094346 170.963407 
L 283.431259 209.418081 
L 283.768172 230.393357 
L 284.105086 221.853804 
L 284.441999 190.204087 
L 284.778912 238.986282 
L 285.115825 205.17499 
L 285.452738 188.015827 
L 285.789651 241.174542 
L 286.126564 219.505427 
L 286.463478 139.927471 
L 286.800391 264.551568 
L 287.137304 191.244845 
L 287.474217 200.371492 
L 287.81113 190.711123 
L 288.148043 229.672832 
L 288.484956 199.570909 
L 288.82187 222.70776 
L 289.158783 254.517593 
L 289.495696 189.29676 
L 289.832609 303.112985 
L 290.169522 103.367511 
L 290.506435 212.567041 
L 290.843348 179.129355 
L 291.180262 221.346768 
L 291.517175 222.734446 
L 291.854088 209.925117 
L 292.191001 205.708712 
L 292.527914 204.721327 
L 292.864827 253.023172 
L 293.538653 198.797012 
L 293.875567 219.852347 
L 294.21248 196.82224 
L 294.549393 199.83777 
L 294.886306 230.313299 
L 295.223219 191.031356 
L 295.560132 215.502512 
L 295.897045 186.548091 
L 296.233959 200.424864 
L 296.570872 222.414212 
L 296.907785 251.929041 
L 297.244698 190.150715 
L 297.581611 194.794097 
L 297.918524 210.645641 
L 298.255437 192.819325 
L 298.592351 234.636447 
L 298.929264 200.478236 
L 299.266177 184.546633 
L 299.940003 234.076039 
L 300.613829 175.846964 
L 300.950743 237.998896 
L 301.287656 201.038645 
L 301.624569 211.526283 
L 301.961482 206.402551 
L 302.298395 226.123581 
L 302.635308 192.285603 
L 302.972221 219.291938 
L 303.309134 231.834406 
L 303.646048 199.197304 
L 303.982961 206.509296 
L 304.319874 219.21188 
L 304.656787 216.06292 
L 304.9937 219.478741 
L 305.330613 224.89602 
L 305.667526 173.632018 
L 306.341353 220.252638 
L 306.678266 213.180821 
L 307.015179 250.247817 
L 307.352092 138.940085 
L 307.689005 317.736969 
L 308.025918 93.760514 
L 308.362832 214.061462 
L 308.699745 199.757712 
L 309.036658 228.605388 
L 309.373571 212.753843 
L 309.710484 228.632074 
L 310.047397 209.524825 
L 310.38431 197.035729 
L 310.721224 218.784903 
L 311.058137 217.50397 
L 311.39505 215.58257 
L 311.731963 201.305506 
L 312.068876 176.380686 
L 312.405789 202.773241 
L 312.742702 212.513669 
L 313.079616 230.900393 
L 313.416529 186.387975 
L 313.753442 220.359383 
L 314.090355 204.401093 
L 314.427268 209.391395 
L 314.764181 176.700919 
L 315.101094 235.463716 
L 315.438007 255.531665 
L 315.774921 190.39089 
L 316.111834 195.301133 
L 316.448747 205.682026 
L 316.78566 210.111919 
L 317.122573 182.545176 
L 317.459486 201.679111 
L 317.796399 200.291434 
L 318.133313 259.988244 
L 318.470226 191.671823 
L 318.807139 231.407429 
L 319.144052 203.46708 
L 319.480965 185.480647 
L 319.817878 200.238062 
L 320.154791 221.480199 
L 320.491705 221.26671 
L 320.828618 182.278315 
L 321.165531 227.110966 
L 321.502444 202.586439 
L 321.839357 242.855767 
L 322.17627 171.977479 
L 322.513183 213.741229 
L 322.850097 208.8043 
L 323.18701 212.673785 
L 323.523923 214.862046 
L 323.860836 237.785407 
L 324.197749 208.32395 
L 324.534662 219.718916 
L 324.871575 176.567489 
L 325.208488 179.769821 
L 325.545402 221.159966 
L 325.882315 183.532562 
L 326.556141 254.864513 
L 326.893054 215.422454 
L 327.229967 237.945524 
L 327.56688 168.775147 
L 327.903794 279.228924 
L 328.240707 185.267158 
L 328.57762 215.10222 
L 328.914533 140.381134 
L 329.251446 309.490964 
L 329.588359 140.941543 
L 329.925272 189.510248 
L 330.262186 331.667115 
L 330.599099 122.234585 
L 330.936012 189.590307 
L 331.272925 316.749583 
L 331.609838 126.824595 
L 331.946751 292.225056 
L 332.283664 161.623272 
L 332.620578 197.009043 
L 332.957491 198.476779 
L 333.294404 211.899888 
L 333.631317 192.392348 
L 333.96823 162.130308 
L 334.305143 211.633027 
L 334.642056 240.720878 
L 334.978969 207.736856 
L 335.315883 229.539402 
L 335.652796 209.578197 
L 335.989709 176.567489 
L 336.326622 199.35742 
L 336.663535 207.603426 
L 337.000448 204.214291 
L 337.337361 229.726204 
L 337.674275 233.995981 
L 338.011188 214.595184 
L 338.348101 172.511201 
L 338.685014 329.185307 
L 339.021927 86.581953 
L 339.35884 216.810131 
L 339.695753 238.666049 
L 340.032667 191.778567 
L 340.36958 204.134232 
L 340.706493 212.113377 
L 341.043406 224.735903 
L 341.380319 189.163329 
L 341.717232 223.668459 
L 342.054145 222.067293 
L 342.391059 187.829024 
L 342.727972 231.167254 
L 343.064885 180.009996 
L 343.401798 220.626244 
L 343.738711 235.623833 
L 344.075624 197.035729 
L 344.412537 201.919286 
L 344.74945 197.382649 
L 345.086364 217.957633 
L 345.423277 201.812542 
L 345.76019 205.495224 
L 346.097103 233.942609 
L 346.434016 201.919286 
L 346.770929 190.310832 
L 347.107842 216.943561 
L 347.444756 216.836817 
L 347.781669 226.043522 
L 348.118582 216.436526 
L 348.455495 178.328772 
L 348.792408 224.575787 
L 349.466234 188.175943 
L 349.803148 207.896973 
L 350.140061 283.231839 
L 350.476974 201.972658 
L 350.813887 244.323502 
L 351.1508 100.058434 
L 351.487713 321.366279 
L 351.824626 107.210309 
L 352.16154 201.8926 
L 352.835366 217.290481 
L 353.172279 192.152173 
L 353.509192 222.200724 
L 353.846105 235.356972 
L 354.183018 173.952251 
L 354.856845 216.996934 
L 355.193758 221.213338 
L 355.530671 220.092522 
L 355.867584 202.132775 
L 356.204497 204.107546 
L 356.54141 249.874212 
L 356.878323 213.581113 
L 357.215237 200.504923 
L 357.55215 199.090559 
L 357.889063 218.544728 
L 358.225976 203.760627 
L 358.562889 195.888227 
L 358.899802 264.845115 
L 359.236715 192.499092 
L 359.573629 213.234193 
L 359.910542 172.484515 
L 360.584368 251.582122 
L 360.921281 130.747452 
L 361.258194 267.833958 
L 361.595107 171.203582 
L 361.932021 226.844105 
L 362.268934 209.871744 
L 362.605847 210.005175 
L 362.94276 209.071161 
L 363.279673 227.751433 
L 363.616586 175.366614 
L 363.953499 221.720374 
L 364.290413 220.17258 
L 364.627326 146.492252 
L 364.964239 219.21188 
L 365.301152 225.776661 
L 365.638065 239.600062 
L 365.974978 201.011958 
L 366.648804 240.053726 
L 366.985718 227.778119 
L 367.322631 142.943 
L 367.996457 258.44045 
L 368.33337 171.070152 
L 368.670283 205.52191 
L 369.007196 219.638858 
L 369.34411 165.893048 
L 369.681023 275.226009 
L 370.017936 200.958586 
L 370.354849 193.513164 
L 370.691762 221.800432 
L 371.028675 221.240024 
L 371.365588 197.64951 
L 371.702502 211.045933 
L 372.039415 199.544223 
L 372.376328 209.524825 
L 372.713241 297.108612 
L 373.050154 126.904653 
L 373.387067 198.450093 
L 373.72398 197.062415 
L 374.060894 225.536486 
L 374.397807 195.72811 
L 374.73472 194.207002 
L 375.071633 219.959091 
L 375.745459 202.906672 
L 376.082372 244.163386 
L 376.419285 219.585486 
L 376.756199 224.976078 
L 377.093112 237.091569 
L 377.430025 152.843544 
L 377.766938 243.976583 
L 378.103851 195.407877 
L 378.440764 225.216253 
L 378.777677 220.999849 
L 379.114591 183.74605 
L 379.451504 222.467585 
L 379.788417 180.94401 
L 380.12533 199.330734 
L 380.462243 192.552464 
L 380.799156 333.108164 
L 381.136069 120.206441 
L 381.472983 183.852795 
L 381.809896 216.6767 
L 382.146809 220.546185 
L 382.483722 199.517537 
L 382.820635 235.356972 
L 383.157548 167.414156 
L 383.831375 225.830033 
L 384.168288 239.439946 
L 384.842114 205.762085 
L 385.179027 161.996877 
L 385.51594 243.629664 
L 386.189767 208.8043 
L 386.52668 173.311784 
L 386.863593 234.636447 
L 387.200506 189.29676 
L 387.537419 236.931452 
L 387.874332 233.702434 
L 388.211245 193.006128 
L 388.548158 230.153182 
L 388.885072 174.405915 
L 389.221985 212.673785 
L 389.558898 225.963464 
L 389.895811 195.674738 
L 390.232724 191.244845 
L 390.569637 193.726653 
L 390.90655 223.108051 
L 391.243464 199.170617 
L 391.580377 238.078954 
L 391.91729 244.083327 
L 392.591116 139.260318 
L 392.928029 296.601576 
L 393.264942 192.659209 
L 393.601856 209.524825 
L 393.938769 216.569956 
L 394.275682 144.570852 
L 394.612595 233.24877 
L 394.949508 193.566536 
L 395.286421 212.994018 
L 395.623334 186.868324 
L 395.960248 225.403056 
L 396.297161 197.622824 
L 396.634074 201.732483 
L 396.970987 181.050754 
L 397.3079 224.922706 
L 397.644813 196.715496 
L 397.981726 212.940646 
L 398.318639 210.512211 
L 398.655553 211.846516 
L 398.992466 210.7257 
L 399.329379 201.252133 
L 399.666292 226.737361 
L 400.003205 196.82224 
L 400.677031 213.87466 
L 401.013945 204.374407 
L 401.350858 217.770831 
L 401.687771 202.98673 
L 402.024684 229.699518 
L 402.361597 198.636895 
L 402.69851 198.289976 
L 403.035423 211.926574 
L 403.372337 209.524825 
L 403.70925 369.854927 
L 404.046163 43.697386 
L 404.383076 212.30018 
L 404.719989 222.334154 
L 405.056902 217.290481 
L 405.393815 195.701424 
L 405.730729 217.183736 
L 406.067642 195.11433 
L 406.741468 202.533066 
L 407.078381 238.239071 
L 407.415294 200.638353 
L 407.752207 200.424864 
L 408.08912 221.293396 
L 408.426034 214.755301 
L 408.762947 212.700471 
L 409.09986 198.023115 
L 409.436773 219.745602 
L 409.773686 194.367119 
L 410.110599 201.332192 
L 410.784426 230.526787 
L 411.121339 191.48502 
L 411.458252 202.906672 
L 411.795165 200.424864 
L 412.132078 229.219168 
L 412.468991 199.063873 
L 412.805904 205.495224 
L 413.142818 218.331239 
L 413.479731 219.158508 
L 413.816644 206.402551 
L 414.153557 203.760627 
L 414.49047 211.95326 
L 414.827383 201.038645 
L 415.164296 226.230325 
L 415.50121 221.079907 
L 415.838123 185.053669 
L 416.175036 375.832614 
L 416.511949 47.726988 
L 416.848862 217.130364 
L 418.196515 201.225447 
L 418.533428 222.894562 
L 418.870341 197.436021 
L 419.207254 214.541812 
L 419.544167 204.027488 
L 419.88108 207.22982 
L 420.217993 217.717458 
L 420.554907 203.680569 
L 420.89182 215.022162 
L 421.228733 205.868829 
L 421.565646 214.728615 
L 421.902559 191.618451 
L 422.239472 225.936778 
L 422.576385 205.628654 
L 422.913299 214.248265 
L 423.250212 205.628654 
L 423.587125 207.149762 
L 423.924038 212.753843 
L 424.260951 209.28465 
L 424.597864 203.333649 
L 424.934777 216.009548 
L 425.271691 207.336565 
L 425.608604 207.283193 
L 425.945517 205.228363 
L 426.28243 219.238566 
L 426.619343 207.896973 
L 426.956256 205.255049 
L 427.293169 211.152677 
L 427.630083 221.400141 
L 427.966996 196.235146 
L 428.303909 222.040607 
L 428.640822 192.258917 
L 428.977735 209.951803 
L 429.314648 208.857673 
L 429.651561 222.627701 
L 429.988474 206.74947 
L 430.325388 208.297264 
L 430.662301 218.5981 
L 430.999214 202.8533 
L 431.336127 263.564182 
L 431.67304 160.395711 
L 432.009953 363.770495 
L 432.346866 95.628541 
L 432.68378 166.320026 
L 433.020693 199.437478 
L 433.357606 218.304553 
L 433.694519 216.249723 
L 434.031432 187.962455 
L 434.705258 258.360392 
L 435.042172 247.952812 
L 435.379085 121.727549 
L 435.715998 257.799984 
L 436.052911 188.149257 
L 436.389824 226.096895 
L 436.726737 218.624786 
L 437.06365 186.841638 
L 437.400564 227.56463 
L 437.737477 209.631569 
L 438.07439 212.593727 
L 438.411303 204.56121 
L 438.748216 219.398683 
L 439.085129 199.143931 
L 439.422042 200.584981 
L 439.758955 223.32154 
L 440.095869 212.620413 
L 440.432782 198.183232 
L 440.769695 236.931452 
L 441.106608 210.24535 
L 441.443521 171.977479 
L 441.780434 206.082318 
L 442.117347 292.064939 
L 442.454261 136.084672 
L 442.791174 236.050811 
L 443.128087 186.28123 
L 443.801913 229.939693 
L 444.138826 190.284145 
L 444.475739 233.595689 
L 444.812653 207.603426 
L 445.149566 214.461754 
L 445.486479 197.195846 
L 445.823392 194.15363 
L 446.160305 180.196799 
L 446.497218 260.948944 
L 446.834131 199.677653 
L 447.171045 197.756254 
L 447.507958 221.827118 
L 447.844871 206.962959 
L 448.181784 200.558295 
L 448.518697 217.237109 
L 448.85561 215.208965 
L 449.192523 220.946477 
L 449.529436 198.610209 
L 449.86635 310.451663 
L 450.203263 113.828463 
L 450.540176 209.818372 
L 450.877089 199.277362 
L 451.214002 205.575282 
L 451.550915 218.971705 
L 451.887828 188.656293 
L 452.224742 183.826109 
L 452.561655 251.635494 
L 452.898568 207.523367 
L 453.235481 206.535982 
L 453.572394 209.338022 
L 453.909307 204.214291 
L 454.24622 196.315205 
L 454.583134 229.993065 
L 454.920047 209.338022 
L 455.25696 208.590812 
L 455.593873 229.405971 
L 455.930786 206.61604 
L 456.267699 203.573824 
L 456.604612 218.304553 
L 456.941526 199.143931 
L 457.278439 205.094932 
L 457.615352 207.816915 
L 457.952265 224.015379 
L 458.289178 192.045428 
L 458.626091 217.930947 
L 458.963004 202.079403 
L 459.299917 200.878528 
L 459.636831 220.706302 
L 459.973744 197.862998 
L 460.310657 225.5098 
L 460.64757 218.464669 
L 460.984483 183.799423 
L 461.658309 233.24877 
L 461.995223 222.307468 
L 462.332136 184.813494 
L 462.669049 222.601015 
L 463.005962 203.573824 
L 463.342875 203.200219 
L 463.679788 272.717515 
L 464.016701 161.756702 
L 464.353615 195.968285 
L 464.690528 215.075534 
L 465.027441 177.821736 
L 465.364354 247.312346 
L 465.701267 199.330734 
L 466.03818 203.520452 
L 466.375093 220.252638 
L 466.712007 214.408382 
L 467.04892 203.894058 
L 467.385833 198.450093 
L 467.722746 218.73153 
L 468.059659 199.490851 
L 468.733485 225.803347 
L 469.070399 210.272036 
L 469.407312 210.832444 
L 469.744225 201.172075 
L 470.081138 215.635942 
L 470.418051 255.798526 
L 470.754964 163.544671 
L 471.091877 199.677653 
L 471.42879 216.996934 
L 471.765704 200.31812 
L 472.102617 218.73153 
L 472.43953 196.341891 
L 472.776443 216.703387 
L 473.113356 206.242435 
L 473.450269 208.110462 
L 473.787182 215.796059 
L 474.124096 192.045428 
L 474.797922 221.88049 
L 475.134835 216.249723 
L 475.471748 225.696603 
L 475.808661 198.503465 
L 476.145574 198.26329 
L 476.482488 212.833902 
L 476.819401 207.790228 
L 477.156314 213.847974 
L 477.493227 187.055127 
L 477.83014 232.608303 
L 478.167053 204.801385 
L 478.503966 211.766458 
L 478.84088 209.124534 
L 479.177793 195.914913 
L 479.514706 222.440899 
L 479.851619 195.167702 
L 480.188532 227.511258 
L 480.525445 202.879986 
L 480.862358 217.664086 
L 481.199271 208.083776 
L 481.536185 212.700471 
L 482.210011 193.993514 
L 482.546924 227.004222 
L 482.883837 305.648165 
L 483.22075 119.219055 
L 483.557663 199.464165 
L 483.894577 217.557342 
L 484.23149 208.537439 
L 484.568403 205.014874 
L 484.905316 207.363251 
L 485.242229 203.253591 
L 485.579142 232.955223 
L 485.916055 187.588849 
L 486.589882 223.45497 
L 486.926795 190.897926 
L 487.263708 236.717963 
L 487.600621 186.975069 
L 487.937534 207.843601 
L 488.274447 206.562668 
L 488.611361 211.392852 
L 488.948274 226.310383 
L 489.285187 206.856215 
L 489.6221 210.005175 
L 489.959013 195.834855 
L 490.295926 224.362298 
L 490.632839 192.392348 
L 490.969752 220.145894 
L 491.306666 206.482609 
L 491.643579 217.984319 
L 491.980492 214.675243 
L 492.317405 213.714543 
L 492.654318 212.006633 
L 492.991231 185.026983 
L 493.328144 232.101267 
L 493.665058 227.618002 
L 494.001971 189.323446 
L 494.338884 204.054174 
L 494.675797 202.106089 
L 495.01271 212.700471 
L 495.349623 202.613125 
L 495.686536 215.208965 
L 496.02345 212.967332 
L 496.360363 201.972658 
L 496.697276 215.635942 
L 497.034189 197.809626 
L 497.371102 217.717458 
L 497.708015 205.068246 
L 498.044928 215.502512 
L 498.381842 192.125486 
L 498.718755 234.182783 
L 499.055668 206.109004 
L 499.392581 205.388479 
L 499.729494 259.641325 
L 500.066407 150.335051 
L 500.40332 202.639811 
L 500.740233 235.410344 
L 501.077147 198.797012 
L 501.41406 201.865914 
L 501.750973 206.189062 
L 502.087886 237.171627 
L 502.761712 187.108499 
L 503.098625 222.254096 
L 503.435539 200.478236 
L 503.772452 212.486982 
L 504.109365 218.704844 
L 504.446278 186.254544 
L 504.783191 199.437478 
L 505.120104 224.709217 
L 505.457017 229.859635 
L 505.793931 188.122571 
L 506.130844 210.111919 
L 506.467757 215.10222 
L 506.80467 200.238062 
L 507.141583 216.916875 
L 507.478496 217.957633 
L 507.815409 210.752386 
L 508.152323 212.006633 
L 508.489236 211.499597 
L 508.826149 203.94743 
L 509.163062 204.08086 
L 509.499975 206.322493 
L 509.836888 202.159461 
L 510.173801 216.596642 
L 510.510715 216.596642 
L 510.847628 205.04156 
L 511.184541 203.707255 
L 511.521454 213.981404 
L 511.858367 199.170617 
L 512.19528 227.698061 
L 512.869106 197.889685 
L 513.20602 223.561715 
L 513.542933 197.062415 
L 513.879846 223.615087 
L 514.216759 197.516079 
L 514.553672 196.20846 
L 514.890585 211.312794 
L 515.227498 213.340938 
L 515.564412 223.428284 
L 515.901325 210.645641 
L 516.575151 202.799927 
L 517.248977 220.813046 
L 517.58589 187.24193 
L 517.922804 210.165292 
L 518.259717 212.033319 
L 518.59663 233.408886 
L 518.933543 190.657751 
L 519.270456 191.404962 
L 519.607369 242.535533 
L 519.944282 196.448635 
L 520.281196 204.774699 
L 520.618109 216.703387 
L 520.955022 217.664086 
L 521.291935 202.933358 
L 521.628848 201.919286 
L 522.302674 222.147351 
L 522.639587 200.958586 
L 522.976501 210.592269 
L 523.313414 200.558295 
L 523.650327 215.742687 
L 523.98724 209.097847 
L 524.324153 211.793144 
L 524.661066 193.780025 
L 524.997979 216.730073 
L 525.334893 220.946477 
L 525.671806 198.530151 
L 526.008719 207.363251 
L 526.345632 230.71359 
L 526.682545 203.093474 
L 527.019458 197.355963 
L 527.356371 211.899888 
L 528.030198 205.788771 
L 528.367111 216.836817 
L 528.704024 200.077945 
L 529.040937 210.565583 
L 529.37785 211.312794 
L 529.714763 190.657751 
L 530.051677 233.328828 
L 530.38859 210.005175 
L 530.725503 205.922201 
L 531.062416 194.820783 
L 531.399329 225.429742 
L 531.736242 216.036234 
L 532.073155 213.661171 
L 532.410068 204.667954 
L 532.746982 216.756759 
L 533.083895 187.268616 
L 533.420808 229.779577 
L 533.757721 200.024573 
L 534.431547 218.037692 
L 534.76846 302.499205 
L 535.105374 131.094371 
L 535.442287 199.757712 
L 535.7792 195.621366 
L 536.116113 209.471453 
L 536.453026 217.210422 
L 536.789939 200.344806 
L 537.126852 210.37878 
L 537.463766 205.255049 
L 537.800679 205.495224 
L 538.137592 230.09981 
L 538.474505 226.123581 
L 538.811418 176.354 
L 539.148331 209.818372 
L 539.485244 220.813046 
L 539.822158 194.847469 
L 540.159071 216.730073 
L 540.495984 206.269121 
L 540.832897 181.397673 
L 541.16981 215.956176 
L 541.506723 213.420996 
L 541.843636 209.017789 
L 542.18055 200.9319 
L 542.517463 211.472911 
L 542.854376 207.71017 
L 543.191289 202.132775 
L 543.528202 214.808673 
L 543.865115 212.406924 
L 544.202028 252.089158 
L 544.538941 199.010501 
L 544.875855 226.310383 
L 545.212768 292.918894 
L 545.549681 80.070544 
L 545.886594 206.776157 
L 546.223507 220.839732 
L 546.56042 201.492308 
L 546.897333 213.287565 
L 547.234247 202.613125 
L 547.908073 208.991103 
L 548.581899 237.571918 
L 548.918812 183.319073 
L 549.255725 225.456428 
L 549.592639 190.684437 
L 549.929552 225.403056 
L 550.266465 205.922201 
L 550.603378 202.693183 
L 550.940291 184.893553 
L 551.277204 223.535029 
L 551.614117 222.067293 
L 551.951031 197.436021 
L 552.287944 205.468538 
L 552.624857 217.290481 
L 552.96177 191.324903 
L 553.298683 216.836817 
L 553.635596 222.387526 
L 553.972509 192.872697 
L 554.309422 204.667954 
L 554.646336 232.261384 
L 554.983249 186.174486 
L 555.320162 233.302142 
L 555.657075 237.571918 
L 555.993988 168.721775 
L 556.330901 267.353608 
L 556.667814 159.248209 
L 557.004728 215.44914 
L 557.341641 211.259422 
L 557.678554 190.470948 
L 558.35238 216.54327 
L 558.689293 210.432153 
L 559.026206 223.268168 
L 559.700033 196.742182 
L 560.036946 214.274951 
L 560.373859 210.592269 
L 560.710772 203.040102 
L 561.047685 204.801385 
L 561.384598 234.609761 
L 561.721512 195.808169 
L 562.058425 207.550054 
L 562.395338 340.260039 
L 562.732251 151.482553 
L 563.069164 267.567097 
L 563.406077 141.608695 
L 563.74299 216.489898 
L 564.416817 246.084785 
L 564.75373 142.062359 
L 565.090643 216.623328 
L 565.427556 211.019247 
L 565.764469 239.253143 
L 566.101382 128.932797 
L 566.438295 224.709217 
L 566.775209 195.461249 
L 567.112122 186.254544 
L 567.449035 217.290481 
L 567.785948 224.495728 
L 568.122861 197.035729 
L 568.459774 208.777614 
L 568.796687 205.388479 
L 569.133601 198.023115 
L 569.470514 220.893105 
L 569.807427 210.085233 
L 570.14434 240.694192 
L 570.481253 222.36084 
L 570.818166 161.142922 
L 571.155079 259.507894 
L 571.491993 177.421444 
L 571.828906 266.232792 
L 572.165819 198.770326 
L 572.502732 207.149762 
L 572.839645 181.717907 
L 573.176558 220.092522 
L 573.513471 219.798974 
L 573.850384 215.769373 
L 574.187298 204.42778 
L 574.524211 211.95326 
L 574.861124 214.568498 
L 575.198037 209.498139 
L 575.53495 233.515631 
L 575.871863 181.184185 
L 576.54569 213.287565 
L 576.882603 206.589354 
L 577.219516 218.971705 
L 577.556429 221.26671 
L 577.893342 207.523367 
L 578.230255 206.13569 
L 578.904082 255.024629 
L 579.240995 209.524825 
L 579.577908 138.059444 
L 579.914821 199.597595 
L 580.588647 229.13911 
L 580.92556 186.681522 
L 581.262474 246.218216 
L 581.599387 203.387022 
L 581.9363 175.87365 
L 582.273213 223.108051 
L 582.610126 222.520957 
L 582.947039 183.319073 
L 583.283952 231.167254 
L 583.620866 194.447177 
L 583.957779 217.450597 
L 584.631605 186.628149 
L 584.968518 212.43361 
L 585.305431 226.016836 
L 585.642344 214.915418 
L 585.979257 171.283641 
L 586.316171 244.937283 
L 586.653084 205.948887 
L 586.989997 212.486982 
L 587.32691 203.413708 
L 587.663823 208.724242 
L 588.000736 233.355514 
L 588.337649 178.515574 
L 588.674563 218.784903 
L 589.011476 216.06292 
L 589.348389 208.537439 
L 589.685302 235.997438 
L 590.022215 219.318625 
L 590.359128 183.452503 
L 590.696041 215.262337 
L 591.032955 189.643679 
L 591.369868 200.264748 
L 591.706781 220.866418 
L 592.043694 203.013416 
L 592.380607 203.707255 
L 592.71752 219.291938 
L 593.391347 213.180821 
L 593.72826 215.849431 
L 594.065173 199.250676 
L 594.402086 214.515126 
L 594.738999 211.659713 
L 595.075912 194.607294 
L 595.412825 214.301637 
L 595.749738 216.06292 
L 596.086652 196.795554 
L 596.423565 213.207507 
L 596.760478 198.316662 
L 597.097391 210.85913 
L 597.434304 206.936273 
L 597.771217 224.762589 
L 598.10813 199.784398 
L 598.445044 222.921248 
L 598.781957 216.089606 
L 599.11887 189.883854 
L 599.455783 215.44914 
L 599.792696 201.572367 
L 600.129609 209.311336 
L 600.466522 286.380799 
L 600.803436 134.963856 
L 601.140349 217.450597 
L 601.477262 205.762085 
L 602.151088 222.067293 
L 602.488001 186.014369 
L 602.824914 221.667002 
L 603.161828 217.290481 
L 603.498741 185.907625 
L 603.835654 227.404514 
L 604.172567 202.719869 
L 604.50948 207.203134 
L 604.846393 216.703387 
L 605.183306 217.050306 
L 605.520219 188.015827 
L 605.857133 246.778624 
L 606.194046 189.857168 
L 606.530959 179.636391 
L 606.867872 222.174037 
L 607.204785 216.196351 
L 607.541698 222.36084 
L 607.878611 205.441851 
L 608.215525 204.641268 
L 608.552438 230.900393 
L 608.889351 186.414661 
L 609.563177 240.240529 
L 609.90009 185.267158 
L 610.237003 266.526339 
L 610.573917 136.805197 
L 610.91083 193.67328 
L 611.247743 222.200724 
L 611.584656 208.003717 
L 611.921569 229.61946 
L 612.258482 199.650967 
L 612.595395 210.912502 
L 612.932309 205.094932 
L 613.269222 205.948887 
L 613.606135 205.842143 
L 613.943048 216.916875 
L 614.279961 204.854757 
L 614.616874 243.042569 
L 614.953787 231.994523 
L 615.2907 233.542317 
L 615.627614 209.524825 
L 623.039703 209.524825 
L 623.376616 163.89159 
L 623.713529 226.630617 
L 624.050442 201.118703 
L 624.387355 199.971201 
L 624.724268 201.358878 
L 625.061182 232.181326 
L 625.398095 175.233184 
L 625.735008 220.145894 
L 626.071921 191.138101 
L 626.408834 228.338527 
L 626.745747 200.825156 
L 627.08266 223.45497 
L 627.419573 195.087644 
L 627.756487 196.528693 
L 628.0934 211.366166 
L 628.430313 210.058547 
L 628.767226 222.093979 
L 629.104139 163.89159 
L 629.441052 214.114835 
L 629.777965 203.093474 
L 630.114879 214.835359 
L 630.451792 198.556837 
L 630.788705 220.893105 
L 631.125618 216.249723 
L 631.799444 202.052716 
L 632.136357 218.144436 
L 632.473271 202.02603 
L 632.810184 218.091064 
L 633.147097 205.975573 
L 633.48401 198.476779 
L 633.820923 226.417128 
L 634.157836 204.534524 
L 634.494749 203.440394 
L 634.831663 207.363251 
L 635.168576 216.436526 
L 635.842402 199.971201 
L 636.179315 219.532113 
L 636.516228 212.727157 
L 636.853141 200.905214 
L 637.190054 201.065331 
L 637.526968 219.398683 
L 637.863881 204.134232 
L 638.200794 223.45497 
L 638.537707 196.421949 
L 638.87462 221.827118 
L 639.211533 206.829529 
L 639.548446 211.392852 
L 639.88536 210.325408 
L 640.222273 214.568498 
L 640.559186 189.350132 
L 640.896099 278.668516 
L 641.233012 206.61604 
L 641.569925 232.715048 
L 641.906838 175.419987 
L 642.243752 215.635942 
L 642.580665 180.170113 
L 642.917578 218.11775 
L 643.254491 215.635942 
L 643.591404 219.425369 
L 643.928317 213.340938 
L 644.26523 191.48502 
L 644.602144 219.025077 
L 644.939057 196.528693 
L 645.27597 222.414212 
L 645.612883 200.104631 
L 645.949796 219.131822 
L 646.286709 213.234193 
L 646.623622 196.928985 
L 646.960535 210.005175 
L 647.297449 212.967332 
L 647.634362 212.887274 
L 647.971275 204.694641 
L 648.308188 217.664086 
L 648.645101 202.639811 
L 648.982014 198.129859 
L 649.318927 201.145389 
L 649.655841 222.280782 
L 649.992754 219.505427 
L 650.329667 203.200219 
L 650.66658 218.5981 
L 651.003493 197.329276 
L 651.340406 245.978041 
L 651.677319 177.101211 
L 652.014233 218.037692 
L 652.351146 195.941599 
L 652.688059 203.653883 
L 653.024972 214.061462 
L 653.698798 203.920744 
L 654.035711 211.099305 
L 654.372625 211.81983 
L 654.709538 229.165796 
L 655.046451 185.32053 
L 655.383364 211.33948 
L 655.720277 210.912502 
L 656.05719 228.311841 
L 656.394103 182.945467 
L 656.731017 212.353552 
L 657.06793 255.985329 
L 657.404843 247.792696 
L 657.741756 123.915809 
L 658.078669 219.532113 
L 658.415582 197.542765 
L 658.752495 206.082318 
L 659.089408 224.602473 
L 659.426322 205.255049 
L 659.763235 221.213338 
L 660.100148 202.933358 
L 660.437061 216.703387 
L 660.773974 206.082318 
L 661.4478 212.113377 
L 661.784714 198.903756 
L 662.45854 223.561715 
L 662.795453 198.663582 
L 663.132366 208.830986 
L 663.469279 211.793144 
L 663.806192 190.52432 
L 664.143106 228.365213 
L 664.480019 200.9319 
L 664.816932 203.787313 
L 665.153845 214.888732 
L 665.490758 201.011958 
L 665.827671 228.52533 
L 666.164584 202.799927 
L 666.501498 201.118703 
L 666.838411 230.980451 
L 667.175324 209.391395 
L 667.512237 207.603426 
L 667.84915 187.935768 
L 668.186063 222.947934 
L 668.522976 205.842143 
L 668.859889 219.532113 
L 669.196803 213.420996 
L 669.533716 180.116741 
L 669.870629 225.109509 
L 670.207542 208.911045 
L 670.544455 202.799927 
L 670.881368 227.297769 
L 671.218281 207.389937 
L 671.555195 178.942552 
L 671.892108 206.402551 
L 672.229021 195.541308 
L 672.565934 230.660218 
L 673.23976 187.508791 
L 673.576673 224.362298 
L 673.913587 209.418081 
L 674.2505 215.849431 
L 674.587413 233.488945 
L 674.924326 205.014874 
L 675.261239 189.937226 
L 675.598152 208.110462 
L 675.935065 211.366166 
L 676.271979 175.660161 
L 676.608892 238.159013 
L 676.945805 220.866418 
L 677.282718 192.178859 
L 677.619631 212.567041 
L 677.956544 203.760627 
L 678.293457 236.958138 
L 678.967284 191.244845 
L 679.64111 216.6767 
L 679.978023 203.253591 
L 680.314936 203.46708 
L 680.651849 223.027993 
L 680.988762 208.270578 
L 681.325676 203.200219 
L 681.662589 219.21188 
L 682.336415 196.662124 
L 682.673328 237.171627 
L 683.010241 224.122123 
L 683.347154 189.510248 
L 683.684068 230.179868 
L 684.357894 195.621366 
L 684.694807 215.742687 
L 685.03172 216.223037 
L 685.368633 203.894058 
L 685.705546 281.016893 
L 686.04246 144.8644 
L 686.379373 198.343348 
L 686.716286 218.678158 
L 687.053199 196.902299 
L 687.727025 219.905719 
L 688.063938 213.047391 
L 688.400851 200.9319 
L 688.737765 216.489898 
L 689.074678 205.788771 
L 689.411591 204.934816 
L 689.748504 197.889685 
L 690.085417 208.937731 
L 690.42233 243.30943 
L 690.759243 188.33606 
L 691.096157 195.24776 
L 691.43307 194.180316 
L 691.769983 266.472967 
L 692.106896 190.257459 
L 692.443809 168.428228 
L 692.780722 234.182783 
L 693.117635 226.737361 
L 693.454549 189.91054 
L 693.791462 195.941599 
L 694.128375 236.264299 
L 694.465288 165.519443 
L 694.802201 245.124085 
L 695.139114 216.06292 
L 695.476027 207.389937 
L 695.812941 211.099305 
L 696.149854 209.204592 
L 696.486767 215.662629 
L 697.497506 203.093474 
L 697.834419 194.63398 
L 698.171333 228.04498 
L 698.845159 186.094427 
L 699.182072 205.575282 
L 699.518985 211.232736 
L 699.855898 209.15122 
L 700.192811 240.427331 
L 700.529724 212.994018 
L 700.866638 197.943057 
L 701.203551 221.373454 
L 701.540464 217.263795 
L 701.877377 196.128402 
L 702.551203 258.733997 
L 702.888116 179.182727 
L 703.22503 167.227353 
L 703.561943 206.936273 
L 703.898856 225.483114 
L 704.235769 194.63398 
L 704.572682 259.000858 
L 705.246508 209.524825 
L 706.931074 209.524825 
L 707.267987 170.242883 
L 707.6049 225.002764 
L 707.941814 197.969743 
L 708.278727 204.374407 
L 708.61564 178.382144 
L 708.952553 211.179363 
L 709.289466 206.882901 
L 709.626379 207.603426 
L 709.963292 229.886321 
L 710.300205 204.347721 
L 710.637119 192.365661 
L 710.974032 263.937787 
L 711.310945 176.007081 
L 711.647858 192.659209 
L 711.984771 219.452055 
L 712.321684 211.766458 
L 712.658597 198.183232 
L 712.995511 206.962959 
L 713.332424 211.472911 
L 713.669337 201.759169 
L 714.00625 208.457381 
L 714.343163 222.414212 
L 714.680076 215.369081 
L 715.016989 220.332696 
L 715.353903 194.820783 
L 715.690816 209.15122 
L 716.027729 215.555884 
L 716.364642 212.30018 
L 716.701555 211.686399 
L 717.038468 190.924612 
L 717.375381 222.84119 
L 717.712295 200.985272 
L 718.049208 223.828576 
L 718.386121 204.748013 
L 719.059947 246.885368 
L 719.39686 196.101716 
L 719.733773 197.836312 
L 720.070686 176.914408 
L 720.4076 194.287061 
L 720.744513 235.677205 
L 721.081426 189.616993 
L 721.418339 206.295807 
L 721.755252 217.450597 
L 722.092165 203.573824 
L 722.429078 215.235651 
L 722.765992 203.894058 
L 723.102905 207.496681 
L 723.439818 219.105136 
L 723.776731 197.943057 
L 724.113644 266.392909 
L 724.450557 176.407372 
L 724.78747 203.894058 
L 725.124384 213.767915 
L 725.461297 189.190015 
L 725.79821 221.506885 
L 726.135123 209.898431 
L 726.472036 194.233689 
L 726.808949 223.374912 
L 727.145862 200.424864 
L 727.482776 198.636895 
L 727.819689 217.664086 
L 728.156602 221.667002 
L 728.493515 182.972153 
L 728.830428 220.199266 
L 729.167341 205.868829 
L 729.504254 216.569956 
L 729.841167 205.495224 
L 730.178081 223.348226 
L 730.514994 190.87124 
L 730.851907 214.194893 
L 731.18882 216.970248 
L 731.525733 194.260375 
L 731.862646 231.06051 
L 732.199559 186.681522 
L 732.536473 193.806711 
L 732.873386 245.631121 
L 733.210299 200.825156 
L 733.547212 228.738819 
L 733.884125 193.192931 
L 734.221038 225.403056 
L 734.557951 187.321988 
L 734.894865 193.993514 
L 735.568691 277.81456 
L 735.905604 203.94743 
L 736.242517 215.10222 
L 736.57943 150.308364 
L 736.916343 268.741286 
L 737.253257 209.524825 
L 737.59017 184.70675 
L 737.927083 178.969238 
L 738.263996 236.798021 
L 738.600909 237.625291 
L 738.937822 140.14096 
L 739.274735 219.051764 
L 739.611649 222.947934 
L 739.948562 192.632522 
L 740.285475 213.87466 
L 740.622388 208.937731 
L 740.959301 206.696098 
L 741.296214 210.779072 
L 741.97004 201.225447 
L 742.306954 234.636447 
L 742.643867 202.666497 
L 742.98078 195.621366 
L 743.317693 216.223037 
L 743.654606 210.458839 
L 743.991519 209.871744 
L 744.328432 215.208965 
L 744.665346 204.748013 
L 745.002259 213.234193 
L 745.339172 195.968285 
L 745.676085 216.943561 
L 746.012998 197.222532 
L 746.349911 217.183736 
L 746.686824 207.443309 
L 747.023738 206.61604 
L 747.360651 202.479694 
L 747.697564 228.391899 
L 748.034477 209.524825 
L 748.37139 208.964417 
L 748.708303 194.714038 
L 749.045216 219.798974 
L 749.38213 198.850384 
L 749.719043 221.533571 
L 750.055956 208.724242 
L 750.392869 215.689315 
L 750.729782 202.933358 
L 751.066695 200.238062 
L 751.403608 219.131822 
L 751.740521 203.200219 
L 752.077435 169.682475 
L 752.414348 215.289023 
L 752.751261 205.04156 
L 753.088174 191.058042 
L 753.425087 217.02362 
L 753.762 222.947934 
L 754.098913 205.788771 
L 754.435827 182.785351 
L 755.109653 230.339985 
L 755.446566 141.768812 
L 755.783479 252.436077 
L 756.120392 223.374912 
L 756.794219 207.123076 
L 757.131132 217.850889 
L 757.468045 198.183232 
L 757.804958 207.790228 
L 758.141871 205.922201 
L 758.478784 206.696098 
L 759.152611 209.951803 
L 759.489524 213.100763 
L 759.826437 213.87466 
L 760.16335 203.440394 
L 760.500263 199.010501 
L 760.837176 222.414212 
L 761.174089 213.207507 
L 761.511002 200.878528 
L 761.847916 214.781987 
L 762.184829 203.653883 
L 762.521742 226.257011 
L 762.858655 181.878023 
L 763.195568 218.891647 
L 763.532481 213.634485 
L 763.869394 215.58257 
L 764.206308 213.100763 
L 764.543221 206.696098 
L 764.880134 231.327371 
L 765.217047 193.139558 
L 765.55396 263.457438 
L 765.890873 216.916875 
L 766.227786 211.659713 
L 766.5647 165.94642 
L 766.901613 181.344301 
L 767.238526 208.377323 
L 767.575439 226.4705 
L 767.912352 195.888227 
L 768.249265 282.217767 
L 768.923092 214.35501 
L 769.260005 223.027993 
L 769.596918 187.85571 
L 769.933831 231.19394 
L 770.270744 209.524825 
L 770.607657 209.524825 
L 770.94457 195.434563 
L 771.281483 218.704844 
L 771.618397 168.721775 
L 771.95531 221.933863 
L 772.292223 182.65192 
L 772.629136 205.548596 
L 772.966049 190.897926 
L 773.302962 194.073572 
L 773.639875 219.612172 
L 773.976789 207.923659 
L 774.313702 216.916875 
L 774.650615 206.349179 
L 774.987528 248.486534 
L 775.324441 193.459792 
L 775.661354 206.455923 
L 775.998267 206.189062 
L 776.335181 214.48844 
L 777.009007 199.731026 
L 777.34592 223.641773 
L 777.682833 205.281735 
L 778.019746 209.498139 
L 778.356659 205.52191 
L 778.693573 221.400141 
L 779.030486 202.50638 
L 779.367399 238.532618 
L 779.704312 182.65192 
L 780.041225 210.565583 
L 780.378138 202.799927 
L 780.715051 206.482609 
L 781.051965 214.35501 
L 781.388878 219.025077 
L 781.725791 206.162376 
L 782.062704 204.134232 
L 782.399617 210.111919 
L 782.73653 207.71017 
L 783.073443 212.994018 
L 783.410356 207.683484 
L 783.74727 204.694641 
L 784.084183 199.677653 
L 784.421096 202.773241 
L 784.758009 296.414774 
L 785.094922 209.524825 
L 812.384886 209.524825 
L 812.384886 209.524825 
" clip-path="url(#p395b587d95)" style="fill: none; stroke: #87ceeb; stroke-linecap: square"/>
   </g>
   <g id="patch_3">
    <path d="M 37.653125 392.439375 
L 37.653125 27.090625 
" style="fill: none; stroke: #000000; stroke-width: 0.8; stroke-linejoin: miter; stroke-linecap: square"/>
   </g>
   <g id="patch_4">
    <path d="M 849.276875 392.439375 
L 849.276875 27.090625 
" style="fill: none; stroke: #000000; stroke-width: 0.8; stroke-linejoin: miter; stroke-linecap: square"/>
   </g>
   <g id="patch_5">
    <path d="M 37.653125 392.439375 
L 849.276875 392.439375 
" style="fill: none; stroke: #000000; stroke-width: 0.8; stroke-linejoin: miter; stroke-linecap: square"/>
   </g>
   <g id="patch_6">
    <path d="M 37.653125 27.090625 
L 849.276875 27.090625 
" style="fill: none; stroke: #000000; stroke-width: 0.8; stroke-linejoin: miter; stroke-linecap: square"/>
   </g>
   <g id="text_15">
    <!-- 一阶差分后的  pH  值（用于ACF/PACF） -->
    <g transform="translate(335.465 17.090625) scale(0.12 -0.12)">
     <defs>
      <path id="SimHei-4e00" d="M 4875 2675 
Q 5525 2675 6050 2700 
L 6050 2050 
Q 5525 2075 4900 2075 
L 1600 2075 
Q 950 2075 350 2050 
L 350 2700 
Q 950 2675 1600 2675 
L 4875 2675 
z
" transform="scale(0.015625)"/>
      <path id="SimHei-9636" d="M 2450 4850 
Q 2350 4575 2175 3962 
Q 2000 3350 1825 2800 
Q 2225 2225 2312 1912 
Q 2400 1600 2375 1250 
Q 2350 900 2137 725 
Q 1925 550 1400 475 
Q 1300 925 1200 1075 
Q 1725 1025 1837 1225 
Q 1950 1425 1875 1775 
Q 1800 2125 1350 2725 
Q 1700 3825 1825 4400 
L 975 4400 
L 975 -500 
L 500 -500 
Q 525 175 525 675 
L 525 3650 
Q 525 4225 500 4850 
L 2450 4850 
z
M 4250 4825 
Q 4600 4100 5187 3637 
Q 5775 3175 6200 3025 
Q 5950 2775 5800 2500 
Q 4975 3075 4600 3512 
Q 4225 3950 4025 4400 
Q 3850 4025 3512 3487 
Q 3175 2950 2625 2350 
Q 2425 2575 2175 2700 
Q 2700 3075 3150 3787 
Q 3600 4500 3850 5275 
Q 4050 5150 4375 5075 
Q 4275 4900 4250 4825 
z
M 3750 2700 
Q 3650 2325 3575 1512 
Q 3500 700 3250 225 
Q 3000 -250 2650 -575 
Q 2425 -400 2175 -300 
Q 2550 -25 2762 337 
Q 2975 700 3087 1200 
Q 3200 1700 3200 2800 
Q 3350 2725 3750 2700 
z
M 5025 2775 
Q 4975 2425 4975 2025 
L 4975 350 
Q 4975 100 5000 -525 
L 4475 -525 
Q 4500 150 4500 375 
L 4500 2025 
Q 4500 2375 4475 2775 
L 5025 2775 
z
" transform="scale(0.015625)"/>
      <path id="SimHei-ff08" d="M 5425 5100 
L 5700 4775 
Q 4275 3725 4325 2350 
Q 4350 1025 5675 50 
L 5400 -275 
Q 3875 825 3925 2500 
Q 3925 3875 5425 5100 
z
" transform="scale(0.015625)"/>
      <path id="SimHei-7528" d="M 350 -300 
Q 650 125 812 600 
Q 975 1075 1012 1550 
Q 1050 2025 1050 3150 
Q 1050 4275 1025 4950 
L 5500 4950 
Q 5475 4225 5475 3650 
L 5475 375 
Q 5475 -150 5175 -275 
Q 4875 -400 4475 -450 
Q 4425 -75 4300 125 
Q 4800 100 4887 162 
Q 4975 225 4975 400 
L 4975 1650 
L 3450 1650 
L 3450 675 
Q 3450 125 3475 -325 
L 2925 -325 
Q 2950 100 2950 650 
L 2950 1650 
L 1525 1650 
Q 1425 575 850 -525 
Q 575 -350 350 -300 
z
M 4975 3475 
L 4975 4550 
L 3450 4550 
L 3450 3475 
L 4975 3475 
z
M 4975 2050 
L 4975 3100 
L 3450 3100 
L 3450 2050 
L 4975 2050 
z
M 2950 3475 
L 2950 4550 
L 1525 4550 
L 1525 3475 
L 2950 3475 
z
M 2950 2050 
L 2950 3100 
L 1525 3100 
L 1525 2050 
L 2950 2050 
z
" transform="scale(0.015625)"/>
      <path id="SimHei-4e8e" d="M 2900 2425 
L 1150 2425 
Q 650 2425 275 2400 
L 275 2900 
Q 650 2875 1150 2875 
L 2900 2875 
L 2900 4450 
L 1675 4450 
Q 1225 4450 900 4425 
L 900 4925 
Q 1225 4900 1675 4900 
L 4525 4900 
Q 4950 4900 5375 4925 
L 5375 4425 
Q 4950 4450 4525 4450 
L 3425 4450 
L 3425 2875 
L 5050 2875 
Q 5600 2875 6050 2900 
L 6050 2400 
Q 5650 2425 5050 2425 
L 3425 2425 
L 3425 125 
Q 3425 -325 3125 -412 
Q 2825 -500 2250 -525 
Q 2225 -200 2050 150 
Q 2450 100 2675 112 
Q 2900 125 2900 325 
L 2900 2425 
z
" transform="scale(0.015625)"/>
      <path id="SimHei-41" d="M 3075 125 
L 2475 125 
L 2125 1450 
L 1025 1450 
L 675 125 
L 75 125 
L 1325 4450 
L 1825 4450 
L 3075 125 
z
M 2000 1925 
L 1600 3450 
L 1550 3450 
L 1150 1925 
L 2000 1925 
z
" transform="scale(0.015625)"/>
      <path id="SimHei-43" d="M 2975 1825 
Q 2950 875 2575 475 
Q 2200 75 1675 75 
Q 1075 75 650 562 
Q 225 1050 225 2125 
Q 225 3300 637 3875 
Q 1050 4450 1700 4450 
Q 2250 4450 2612 4037 
Q 2975 3625 2950 2875 
L 2400 2875 
Q 2400 3425 2225 3700 
Q 2050 3975 1700 3975 
Q 1300 3975 1062 3562 
Q 825 3150 825 2175 
Q 825 1275 1062 912 
Q 1300 550 1675 550 
Q 1950 550 2175 812 
Q 2400 1075 2400 1825 
L 2975 1825 
z
" transform="scale(0.015625)"/>
      <path id="SimHei-46" d="M 2925 3925 
L 875 3925 
L 875 2525 
L 2425 2525 
L 2425 2050 
L 875 2050 
L 875 125 
L 300 125 
L 300 4400 
L 2925 4400 
L 2925 3925 
z
" transform="scale(0.015625)"/>
      <path id="SimHei-50" d="M 2950 3100 
Q 2950 2500 2600 2150 
Q 2250 1800 1625 1800 
L 900 1800 
L 900 125 
L 325 125 
L 325 4400 
L 1625 4400 
Q 2250 4400 2600 4050 
Q 2950 3700 2950 3100 
z
M 2375 3100 
Q 2375 3575 2150 3750 
Q 1925 3925 1475 3925 
L 900 3925 
L 900 2275 
L 1475 2275 
Q 1925 2275 2150 2450 
Q 2375 2625 2375 3100 
z
" transform="scale(0.015625)"/>
      <path id="SimHei-ff09" d="M 1000 5100 
Q 2500 3875 2500 2500 
Q 2550 825 1025 -275 
L 750 50 
Q 2075 1025 2100 2350 
Q 2150 3725 725 4775 
L 1000 5100 
z
" transform="scale(0.015625)"/>
     </defs>
     <use xlink:href="#SimHei-4e00"/>
     <use xlink:href="#SimHei-9636" transform="translate(100 0)"/>
     <use xlink:href="#SimHei-5dee" transform="translate(200 0)"/>
     <use xlink:href="#SimHei-5206" transform="translate(300 0)"/>
     <use xlink:href="#SimHei-540e" transform="translate(400 0)"/>
     <use xlink:href="#SimHei-7684" transform="translate(500 0)"/>
     <use xlink:href="#SimHei-20" transform="translate(600 0)"/>
     <use xlink:href="#SimHei-20" transform="translate(650 0)"/>
     <use xlink:href="#SimHei-70" transform="translate(700 0)"/>
     <use xlink:href="#SimHei-48" transform="translate(750 0)"/>
     <use xlink:href="#SimHei-20" transform="translate(800 0)"/>
     <use xlink:href="#SimHei-20" transform="translate(850 0)"/>
     <use xlink:href="#SimHei-503c" transform="translate(900 0)"/>
     <use xlink:href="#SimHei-ff08" transform="translate(1000 0)"/>
     <use xlink:href="#SimHei-7528" transform="translate(1100 0)"/>
     <use xlink:href="#SimHei-4e8e" transform="translate(1200 0)"/>
     <use xlink:href="#SimHei-41" transform="translate(1300 0)"/>
     <use xlink:href="#SimHei-43" transform="translate(1350 0)"/>
     <use xlink:href="#SimHei-46" transform="translate(1400 0)"/>
     <use xlink:href="#SimHei-2f" transform="translate(1450 0)"/>
     <use xlink:href="#SimHei-50" transform="translate(1500 0)"/>
     <use xlink:href="#SimHei-41" transform="translate(1550 0)"/>
     <use xlink:href="#SimHei-43" transform="translate(1600 0)"/>
     <use xlink:href="#SimHei-46" transform="translate(1650 0)"/>
     <use xlink:href="#SimHei-ff09" transform="translate(1700 0)"/>
    </g>
   </g>
   <g id="legend_1">
    <g id="patch_7">
     <path d="M 652.176875 47.333594 
L 842.976875 47.333594 
Q 844.776875 47.333594 844.776875 45.533594 
L 844.776875 33.390625 
Q 844.776875 31.590625 842.976875 31.590625 
L 652.176875 31.590625 
Q 650.376875 31.590625 650.376875 33.390625 
L 650.376875 45.533594 
Q 650.376875 47.333594 652.176875 47.333594 
z
" style="fill: #ffffff; opacity: 0.8; stroke: #cccccc; stroke-width: 0.5; stroke-linejoin: miter"/>
    </g>
    <g id="line2d_26">
     <path d="M 653.976875 39.458594 
L 662.976875 39.458594 
L 671.976875 39.458594 
" style="fill: none; stroke: #87ceeb; stroke-linecap: square"/>
    </g>
    <g id="text_16">
     <!-- 一阶差分后的  pH  值（用于ACF/PACF） -->
     <g transform="translate(679.176875 42.608594) scale(0.09 -0.09)">
      <use xlink:href="#SimHei-4e00"/>
      <use xlink:href="#SimHei-9636" transform="translate(100 0)"/>
      <use xlink:href="#SimHei-5dee" transform="translate(200 0)"/>
      <use xlink:href="#SimHei-5206" transform="translate(300 0)"/>
      <use xlink:href="#SimHei-540e" transform="translate(400 0)"/>
      <use xlink:href="#SimHei-7684" transform="translate(500 0)"/>
      <use xlink:href="#SimHei-20" transform="translate(600 0)"/>
      <use xlink:href="#SimHei-20" transform="translate(650 0)"/>
      <use xlink:href="#SimHei-70" transform="translate(700 0)"/>
      <use xlink:href="#SimHei-48" transform="translate(750 0)"/>
      <use xlink:href="#SimHei-20" transform="translate(800 0)"/>
      <use xlink:href="#SimHei-20" transform="translate(850 0)"/>
      <use xlink:href="#SimHei-503c" transform="translate(900 0)"/>
      <use xlink:href="#SimHei-ff08" transform="translate(1000 0)"/>
      <use xlink:href="#SimHei-7528" transform="translate(1100 0)"/>
      <use xlink:href="#SimHei-4e8e" transform="translate(1200 0)"/>
      <use xlink:href="#SimHei-41" transform="translate(1300 0)"/>
      <use xlink:href="#SimHei-43" transform="translate(1350 0)"/>
      <use xlink:href="#SimHei-46" transform="translate(1400 0)"/>
      <use xlink:href="#SimHei-2f" transform="translate(1450 0)"/>
      <use xlink:href="#SimHei-50" transform="translate(1500 0)"/>
      <use xlink:href="#SimHei-41" transform="translate(1550 0)"/>
      <use xlink:href="#SimHei-43" transform="translate(1600 0)"/>
      <use xlink:href="#SimHei-46" transform="translate(1650 0)"/>
      <use xlink:href="#SimHei-ff09" transform="translate(1700 0)"/>
     </g>
    </g>
   </g>
  </g>
 </g>
 <defs>
  <clipPath id="p395b587d95">
   <rect x="37.653125" y="27.090625" width="811.62375" height="365.34875"/>
  </clipPath>
 </defs>
</svg>
