<?xml version="1.0" encoding="utf-8" standalone="no"?>
<!DOCTYPE svg PUBLIC "-//W3C//DTD SVG 1.1//EN"
  "http://www.w3.org/Graphics/SVG/1.1/DTD/svg11.dtd">
<svg xmlns:xlink="http://www.w3.org/1999/xlink" width="712.5675pt" height="423.711562pt" viewBox="0 0 712.5675 423.711562" xmlns="http://www.w3.org/2000/svg" version="1.1">
 <metadata>
  <rdf:RDF xmlns:dc="http://purl.org/dc/elements/1.1/" xmlns:cc="http://creativecommons.org/ns#" xmlns:rdf="http://www.w3.org/1999/02/22-rdf-syntax-ns#">
   <cc:Work>
    <dc:type rdf:resource="http://purl.org/dc/dcmitype/StillImage"/>
    <dc:date>2025-04-16T14:24:40.073199</dc:date>
    <dc:format>image/svg+xml</dc:format>
    <dc:creator>
     <cc:Agent>
      <dc:title>Matplotlib v3.10.0, https://matplotlib.org/</dc:title>
     </cc:Agent>
    </dc:creator>
   </cc:Work>
  </rdf:RDF>
 </metadata>
 <defs>
  <style type="text/css">*{stroke-linejoin: round; stroke-linecap: butt}</style>
 </defs>
 <g id="figure_1">
  <g id="patch_1">
   <path d="M 0 423.711562 
L 712.5675 423.711562 
L 712.5675 0 
L 0 0 
z
" style="fill: #ffffff"/>
  </g>
  <g id="axes_1">
   <g id="patch_2">
    <path d="M 37.575 392.44125 
L 705.3675 392.44125 
L 705.3675 27.1375 
L 37.575 27.1375 
z
" style="fill: #ffffff"/>
   </g>
   <g id="matplotlib.axis_1">
    <g id="xtick_1">
     <g id="line2d_1">
      <path d="M 67.652124 392.44125 
L 67.652124 27.1375 
" clip-path="url(#p1b472899af)" style="fill: none; stroke-dasharray: 1.85,0.8; stroke-dashoffset: 0; stroke: #b2b2b2; stroke-opacity: 0.3; stroke-width: 0.5"/>
     </g>
     <g id="line2d_2">
      <defs>
       <path id="m9070b90238" d="M 0 0 
L 0 -3.5 
" style="stroke: #000000; stroke-width: 0.8"/>
      </defs>
      <g>
       <use xlink:href="#m9070b90238" x="67.652124" y="392.44125" style="stroke: #000000; stroke-width: 0.8"/>
      </g>
     </g>
     <g id="text_1">
      <!-- 0 -->
      <g transform="translate(65.402124 402.12875) scale(0.09 -0.09)">
       <defs>
        <path id="SimHei-30" d="M 225 2537 
Q 250 3200 412 3587 
Q 575 3975 875 4225 
Q 1175 4475 1612 4475 
Q 2050 4475 2375 4112 
Q 2700 3750 2800 3200 
Q 2900 2650 2862 1937 
Q 2825 1225 2612 775 
Q 2400 325 1975 150 
Q 1550 -25 1125 187 
Q 700 400 525 750 
Q 350 1100 275 1487 
Q 200 1875 225 2537 
z
M 750 2687 
Q 675 2000 800 1462 
Q 925 925 1212 700 
Q 1500 475 1800 612 
Q 2100 750 2237 1162 
Q 2375 1575 2375 2062 
Q 2375 2550 2337 2950 
Q 2300 3350 2112 3675 
Q 1925 4000 1612 4012 
Q 1300 4025 1062 3700 
Q 825 3375 750 2687 
z
" transform="scale(0.015625)"/>
       </defs>
       <use xlink:href="#SimHei-30"/>
      </g>
     </g>
    </g>
    <g id="xtick_2">
     <g id="line2d_3">
      <path d="M 206.192537 392.44125 
L 206.192537 27.1375 
" clip-path="url(#p1b472899af)" style="fill: none; stroke-dasharray: 1.85,0.8; stroke-dashoffset: 0; stroke: #b2b2b2; stroke-opacity: 0.3; stroke-width: 0.5"/>
     </g>
     <g id="line2d_4">
      <g>
       <use xlink:href="#m9070b90238" x="206.192537" y="392.44125" style="stroke: #000000; stroke-width: 0.8"/>
      </g>
     </g>
     <g id="text_2">
      <!-- 500 -->
      <g transform="translate(199.442537 402.12875) scale(0.09 -0.09)">
       <defs>
        <path id="SimHei-35" d="M 550 1325 
Q 725 650 1150 575 
Q 1575 500 1837 662 
Q 2100 825 2212 1087 
Q 2325 1350 2312 1675 
Q 2300 2000 2137 2225 
Q 1975 2450 1725 2525 
Q 1475 2600 1162 2525 
Q 850 2450 650 2175 
L 225 2225 
Q 275 2375 700 4375 
L 2675 4375 
L 2675 3925 
L 1075 3925 
Q 950 3250 825 2850 
Q 1200 3025 1525 3012 
Q 1850 3000 2150 2862 
Q 2450 2725 2587 2487 
Q 2725 2250 2787 2012 
Q 2850 1775 2837 1500 
Q 2825 1225 2725 937 
Q 2625 650 2425 462 
Q 2225 275 1937 162 
Q 1650 50 1275 75 
Q 900 100 562 350 
Q 225 600 100 1200 
L 550 1325 
z
" transform="scale(0.015625)"/>
       </defs>
       <use xlink:href="#SimHei-35"/>
       <use xlink:href="#SimHei-30" transform="translate(50 0)"/>
       <use xlink:href="#SimHei-30" transform="translate(100 0)"/>
      </g>
     </g>
    </g>
    <g id="xtick_3">
     <g id="line2d_5">
      <path d="M 344.73295 392.44125 
L 344.73295 27.1375 
" clip-path="url(#p1b472899af)" style="fill: none; stroke-dasharray: 1.85,0.8; stroke-dashoffset: 0; stroke: #b2b2b2; stroke-opacity: 0.3; stroke-width: 0.5"/>
     </g>
     <g id="line2d_6">
      <g>
       <use xlink:href="#m9070b90238" x="344.73295" y="392.44125" style="stroke: #000000; stroke-width: 0.8"/>
      </g>
     </g>
     <g id="text_3">
      <!-- 1000 -->
      <g transform="translate(335.73295 402.12875) scale(0.09 -0.09)">
       <defs>
        <path id="SimHei-31" d="M 1400 3600 
Q 1075 3275 575 2975 
L 575 3450 
Q 1200 3875 1600 4450 
L 1900 4450 
L 1900 150 
L 1400 150 
L 1400 3600 
z
" transform="scale(0.015625)"/>
       </defs>
       <use xlink:href="#SimHei-31"/>
       <use xlink:href="#SimHei-30" transform="translate(50 0)"/>
       <use xlink:href="#SimHei-30" transform="translate(100 0)"/>
       <use xlink:href="#SimHei-30" transform="translate(150 0)"/>
      </g>
     </g>
    </g>
    <g id="xtick_4">
     <g id="line2d_7">
      <path d="M 483.273364 392.44125 
L 483.273364 27.1375 
" clip-path="url(#p1b472899af)" style="fill: none; stroke-dasharray: 1.85,0.8; stroke-dashoffset: 0; stroke: #b2b2b2; stroke-opacity: 0.3; stroke-width: 0.5"/>
     </g>
     <g id="line2d_8">
      <g>
       <use xlink:href="#m9070b90238" x="483.273364" y="392.44125" style="stroke: #000000; stroke-width: 0.8"/>
      </g>
     </g>
     <g id="text_4">
      <!-- 1500 -->
      <g transform="translate(474.273364 402.12875) scale(0.09 -0.09)">
       <use xlink:href="#SimHei-31"/>
       <use xlink:href="#SimHei-35" transform="translate(50 0)"/>
       <use xlink:href="#SimHei-30" transform="translate(100 0)"/>
       <use xlink:href="#SimHei-30" transform="translate(150 0)"/>
      </g>
     </g>
    </g>
    <g id="xtick_5">
     <g id="line2d_9">
      <path d="M 621.813777 392.44125 
L 621.813777 27.1375 
" clip-path="url(#p1b472899af)" style="fill: none; stroke-dasharray: 1.85,0.8; stroke-dashoffset: 0; stroke: #b2b2b2; stroke-opacity: 0.3; stroke-width: 0.5"/>
     </g>
     <g id="line2d_10">
      <g>
       <use xlink:href="#m9070b90238" x="621.813777" y="392.44125" style="stroke: #000000; stroke-width: 0.8"/>
      </g>
     </g>
     <g id="text_5">
      <!-- 2000 -->
      <g transform="translate(612.813777 402.12875) scale(0.09 -0.09)">
       <defs>
        <path id="SimHei-32" d="M 300 250 
Q 325 625 650 925 
Q 975 1225 1475 1862 
Q 1975 2500 2125 2850 
Q 2275 3200 2237 3450 
Q 2200 3700 2000 3862 
Q 1800 4025 1537 4000 
Q 1275 3975 1037 3800 
Q 800 3625 675 3275 
L 200 3350 
Q 400 3925 712 4187 
Q 1025 4450 1450 4475 
Q 1700 4500 1900 4462 
Q 2100 4425 2312 4287 
Q 2525 4150 2662 3875 
Q 2800 3600 2762 3212 
Q 2725 2825 2375 2287 
Q 2025 1750 1025 600 
L 2825 600 
L 2825 150 
L 300 150 
L 300 250 
z
" transform="scale(0.015625)"/>
       </defs>
       <use xlink:href="#SimHei-32"/>
       <use xlink:href="#SimHei-30" transform="translate(50 0)"/>
       <use xlink:href="#SimHei-30" transform="translate(100 0)"/>
       <use xlink:href="#SimHei-30" transform="translate(150 0)"/>
      </g>
     </g>
    </g>
    <g id="text_6">
     <!-- 时间 / 序号 -->
     <g transform="translate(343.97125 415.261562) scale(0.1 -0.1)">
      <defs>
       <path id="SimHei-65f6" d="M 2525 4575 
Q 2500 3675 2500 2400 
Q 2500 1125 2525 400 
L 2000 400 
L 2000 875 
L 1000 875 
L 1000 50 
L 475 50 
Q 500 1200 500 2350 
Q 500 3525 475 4575 
L 2525 4575 
z
M 4875 3825 
Q 4875 4575 4850 5225 
L 5400 5225 
Q 5375 4575 5375 3825 
Q 5750 3825 6175 3850 
L 6175 3375 
Q 5750 3400 5375 3400 
L 5375 50 
Q 5375 -325 5075 -425 
Q 4775 -525 4300 -575 
Q 4300 -275 4025 0 
Q 4500 -50 4687 -25 
Q 4875 0 4875 300 
L 4875 3400 
Q 3625 3400 2775 3375 
L 2775 3850 
Q 3575 3825 4875 3825 
z
M 2000 1300 
L 2000 2550 
L 1000 2550 
L 1000 1300 
L 2000 1300 
z
M 2000 2975 
L 2000 4150 
L 1000 4150 
L 1000 2975 
L 2000 2975 
z
M 3550 2725 
Q 3875 2200 4175 1600 
Q 3925 1525 3650 1375 
Q 3450 1975 3075 2500 
Q 3300 2600 3550 2725 
z
" transform="scale(0.015625)"/>
       <path id="SimHei-95f4" d="M 4450 3550 
Q 4425 3075 4425 2725 
L 4425 1400 
Q 4425 1075 4450 625 
L 1925 625 
Q 1950 1075 1950 1425 
L 1950 2725 
Q 1950 3075 1925 3550 
L 4450 3550 
z
M 5800 4875 
Q 5775 4400 5775 3925 
L 5775 250 
Q 5800 -325 5462 -450 
Q 5125 -575 4725 -625 
Q 4700 -325 4525 -25 
Q 5000 -50 5137 25 
Q 5275 100 5275 350 
L 5275 4450 
L 3775 4450 
Q 3175 4450 2650 4425 
L 2650 4900 
Q 3175 4875 3775 4875 
L 5800 4875 
z
M 550 -525 
Q 600 -25 600 525 
L 600 3150 
Q 600 3675 550 4025 
L 1125 4025 
Q 1100 3650 1100 3300 
L 1100 500 
Q 1100 0 1125 -525 
L 550 -525 
z
M 3950 1025 
L 3950 1950 
L 2425 1950 
L 2425 1025 
L 3950 1025 
z
M 3950 2350 
L 3950 3150 
L 2425 3150 
L 2425 2350 
L 3950 2350 
z
M 1525 5300 
Q 1750 5000 2225 4350 
Q 1950 4225 1700 4075 
Q 1450 4575 1075 5025 
Q 1350 5225 1525 5300 
z
" transform="scale(0.015625)"/>
       <path id="SimHei-20" transform="scale(0.015625)"/>
       <path id="SimHei-2f" d="M 3000 4550 
L 350 -175 
L 100 -25 
L 2750 4700 
L 3000 4550 
z
" transform="scale(0.015625)"/>
       <path id="SimHei-5e8f" d="M 4000 2075 
L 5975 2075 
Q 5750 1525 5575 1025 
Q 5325 1100 5050 1150 
Q 5175 1450 5275 1700 
L 4050 1700 
L 4050 150 
Q 4050 -375 3762 -462 
Q 3475 -550 2950 -575 
Q 2875 -300 2750 0 
Q 3350 -75 3475 25 
Q 3600 125 3575 375 
L 3575 1700 
L 2450 1700 
Q 2050 1700 1675 1675 
L 1675 2100 
Q 2100 2075 2425 2075 
L 3675 2075 
Q 3325 2400 2875 2775 
Q 2975 2875 3250 3100 
Q 3400 2975 3725 2725 
L 4575 3275 
L 3000 3275 
Q 2400 3275 1950 3250 
L 1950 3700 
Q 2400 3675 3000 3675 
L 5400 3675 
L 5400 3250 
Q 4700 2875 4025 2450 
L 4275 2250 
L 4000 2075 
z
M 3725 5275 
Q 3825 4925 3925 4525 
L 4850 4525 
Q 5425 4525 6000 4550 
L 6000 4125 
Q 5425 4150 4850 4150 
L 1400 4150 
Q 1400 2750 1362 2137 
Q 1325 1525 1200 887 
Q 1075 250 775 -350 
Q 625 -250 250 -125 
Q 475 300 600 700 
Q 725 1100 800 1637 
Q 875 2175 875 2825 
Q 875 3500 850 4525 
L 3350 4525 
Q 3275 4825 3150 5150 
Q 3425 5200 3725 5275 
z
" transform="scale(0.015625)"/>
       <path id="SimHei-53f7" d="M 5025 4925 
Q 5000 4550 5000 4075 
Q 5000 3600 5025 3175 
L 1400 3175 
Q 1425 3525 1425 4000 
Q 1425 4500 1400 4925 
L 5025 4925 
z
M 5175 2625 
Q 5650 2625 6025 2650 
L 6025 2200 
Q 5650 2225 5175 2225 
L 2450 2225 
Q 2350 1875 2225 1450 
L 5175 1450 
Q 5100 1050 5062 775 
Q 5025 500 4950 112 
Q 4875 -275 4650 -412 
Q 4425 -550 3225 -625 
Q 3125 -350 2975 -50 
Q 3875 -75 4112 -50 
Q 4350 -25 4425 212 
Q 4500 450 4575 1025 
L 1600 1025 
Q 1825 1625 1950 2225 
L 1350 2225 
Q 825 2225 375 2200 
L 375 2650 
Q 825 2625 1350 2625 
L 5175 2625 
z
M 4525 3575 
L 4525 4525 
L 1900 4525 
L 1900 3575 
L 4525 3575 
z
" transform="scale(0.015625)"/>
      </defs>
      <use xlink:href="#SimHei-65f6"/>
      <use xlink:href="#SimHei-95f4" transform="translate(100 0)"/>
      <use xlink:href="#SimHei-20" transform="translate(200 0)"/>
      <use xlink:href="#SimHei-2f" transform="translate(250 0)"/>
      <use xlink:href="#SimHei-20" transform="translate(300 0)"/>
      <use xlink:href="#SimHei-5e8f" transform="translate(350 0)"/>
      <use xlink:href="#SimHei-53f7" transform="translate(450 0)"/>
     </g>
    </g>
   </g>
   <g id="matplotlib.axis_2">
    <g id="ytick_1">
     <g id="line2d_11">
      <path d="M 37.575 365.506192 
L 705.3675 365.506192 
" clip-path="url(#p1b472899af)" style="fill: none; stroke-dasharray: 1.85,0.8; stroke-dashoffset: 0; stroke: #b2b2b2; stroke-opacity: 0.3; stroke-width: 0.5"/>
     </g>
     <g id="line2d_12">
      <defs>
       <path id="m05f6887212" d="M 0 0 
L 3.5 0 
" style="stroke: #000000; stroke-width: 0.8"/>
      </defs>
      <g>
       <use xlink:href="#m05f6887212" x="37.575" y="365.506192" style="stroke: #000000; stroke-width: 0.8"/>
      </g>
     </g>
     <g id="text_7">
      <!-- 330 -->
      <g transform="translate(20.575 368.599942) scale(0.09 -0.09)">
       <defs>
        <path id="SimHei-33" d="M 250 1225 
L 700 1300 
Q 800 975 1025 762 
Q 1250 550 1587 562 
Q 1925 575 2125 837 
Q 2325 1100 2300 1437 
Q 2275 1775 2037 1962 
Q 1800 2150 1275 2225 
L 1275 2550 
Q 1800 2600 2037 2825 
Q 2275 3050 2250 3412 
Q 2225 3775 1925 3937 
Q 1625 4100 1287 3975 
Q 950 3850 750 3275 
L 300 3350 
Q 450 3800 712 4100 
Q 975 4400 1425 4450 
Q 1875 4500 2212 4337 
Q 2550 4175 2687 3837 
Q 2825 3500 2725 3100 
Q 2625 2700 2150 2400 
Q 2500 2250 2687 1950 
Q 2875 1650 2812 1162 
Q 2750 675 2375 375 
Q 2000 75 1525 87 
Q 1050 100 700 387 
Q 350 675 250 1225 
z
" transform="scale(0.015625)"/>
       </defs>
       <use xlink:href="#SimHei-33"/>
       <use xlink:href="#SimHei-33" transform="translate(50 0)"/>
       <use xlink:href="#SimHei-30" transform="translate(100 0)"/>
      </g>
     </g>
    </g>
    <g id="ytick_2">
     <g id="line2d_13">
      <path d="M 37.575 317.900928 
L 705.3675 317.900928 
" clip-path="url(#p1b472899af)" style="fill: none; stroke-dasharray: 1.85,0.8; stroke-dashoffset: 0; stroke: #b2b2b2; stroke-opacity: 0.3; stroke-width: 0.5"/>
     </g>
     <g id="line2d_14">
      <g>
       <use xlink:href="#m05f6887212" x="37.575" y="317.900928" style="stroke: #000000; stroke-width: 0.8"/>
      </g>
     </g>
     <g id="text_8">
      <!-- 340 -->
      <g transform="translate(20.575 320.994678) scale(0.09 -0.09)">
       <defs>
        <path id="SimHei-34" d="M 2000 1100 
L 75 1100 
L 75 1525 
L 2100 4450 
L 2475 4450 
L 2475 1525 
L 3075 1525 
L 3075 1100 
L 2475 1100 
L 2475 150 
L 2000 150 
L 2000 1100 
z
M 2000 1525 
L 2000 3500 
L 600 1525 
L 2000 1525 
z
" transform="scale(0.015625)"/>
       </defs>
       <use xlink:href="#SimHei-33"/>
       <use xlink:href="#SimHei-34" transform="translate(50 0)"/>
       <use xlink:href="#SimHei-30" transform="translate(100 0)"/>
      </g>
     </g>
    </g>
    <g id="ytick_3">
     <g id="line2d_15">
      <path d="M 37.575 270.295665 
L 705.3675 270.295665 
" clip-path="url(#p1b472899af)" style="fill: none; stroke-dasharray: 1.85,0.8; stroke-dashoffset: 0; stroke: #b2b2b2; stroke-opacity: 0.3; stroke-width: 0.5"/>
     </g>
     <g id="line2d_16">
      <g>
       <use xlink:href="#m05f6887212" x="37.575" y="270.295665" style="stroke: #000000; stroke-width: 0.8"/>
      </g>
     </g>
     <g id="text_9">
      <!-- 350 -->
      <g transform="translate(20.575 273.389415) scale(0.09 -0.09)">
       <use xlink:href="#SimHei-33"/>
       <use xlink:href="#SimHei-35" transform="translate(50 0)"/>
       <use xlink:href="#SimHei-30" transform="translate(100 0)"/>
      </g>
     </g>
    </g>
    <g id="ytick_4">
     <g id="line2d_17">
      <path d="M 37.575 222.690401 
L 705.3675 222.690401 
" clip-path="url(#p1b472899af)" style="fill: none; stroke-dasharray: 1.85,0.8; stroke-dashoffset: 0; stroke: #b2b2b2; stroke-opacity: 0.3; stroke-width: 0.5"/>
     </g>
     <g id="line2d_18">
      <g>
       <use xlink:href="#m05f6887212" x="37.575" y="222.690401" style="stroke: #000000; stroke-width: 0.8"/>
      </g>
     </g>
     <g id="text_10">
      <!-- 360 -->
      <g transform="translate(20.575 225.784151) scale(0.09 -0.09)">
       <defs>
        <path id="SimHei-36" d="M 250 1612 
Q 275 1975 387 2225 
Q 500 2475 725 2850 
L 1750 4450 
L 2325 4450 
L 1275 2800 
Q 1950 2975 2350 2750 
Q 2750 2525 2887 2237 
Q 3025 1950 3037 1612 
Q 3050 1275 2937 950 
Q 2825 625 2537 362 
Q 2250 100 1737 75 
Q 1225 50 862 262 
Q 500 475 362 862 
Q 225 1250 250 1612 
z
M 1025 787 
Q 1250 550 1625 525 
Q 2000 500 2250 775 
Q 2500 1050 2500 1575 
Q 2500 2100 2187 2300 
Q 1875 2500 1487 2450 
Q 1100 2400 925 2075 
Q 750 1750 775 1387 
Q 800 1025 1025 787 
z
" transform="scale(0.015625)"/>
       </defs>
       <use xlink:href="#SimHei-33"/>
       <use xlink:href="#SimHei-36" transform="translate(50 0)"/>
       <use xlink:href="#SimHei-30" transform="translate(100 0)"/>
      </g>
     </g>
    </g>
    <g id="ytick_5">
     <g id="line2d_19">
      <path d="M 37.575 175.085138 
L 705.3675 175.085138 
" clip-path="url(#p1b472899af)" style="fill: none; stroke-dasharray: 1.85,0.8; stroke-dashoffset: 0; stroke: #b2b2b2; stroke-opacity: 0.3; stroke-width: 0.5"/>
     </g>
     <g id="line2d_20">
      <g>
       <use xlink:href="#m05f6887212" x="37.575" y="175.085138" style="stroke: #000000; stroke-width: 0.8"/>
      </g>
     </g>
     <g id="text_11">
      <!-- 370 -->
      <g transform="translate(20.575 178.178888) scale(0.09 -0.09)">
       <defs>
        <path id="SimHei-37" d="M 850 150 
Q 1300 2050 2425 3925 
L 275 3925 
L 275 4375 
L 2950 4375 
L 2950 3950 
Q 1775 2050 1400 150 
L 850 150 
z
" transform="scale(0.015625)"/>
       </defs>
       <use xlink:href="#SimHei-33"/>
       <use xlink:href="#SimHei-37" transform="translate(50 0)"/>
       <use xlink:href="#SimHei-30" transform="translate(100 0)"/>
      </g>
     </g>
    </g>
    <g id="ytick_6">
     <g id="line2d_21">
      <path d="M 37.575 127.479874 
L 705.3675 127.479874 
" clip-path="url(#p1b472899af)" style="fill: none; stroke-dasharray: 1.85,0.8; stroke-dashoffset: 0; stroke: #b2b2b2; stroke-opacity: 0.3; stroke-width: 0.5"/>
     </g>
     <g id="line2d_22">
      <g>
       <use xlink:href="#m05f6887212" x="37.575" y="127.479874" style="stroke: #000000; stroke-width: 0.8"/>
      </g>
     </g>
     <g id="text_12">
      <!-- 380 -->
      <g transform="translate(20.575 130.573624) scale(0.09 -0.09)">
       <defs>
        <path id="SimHei-38" d="M 175 1375 
Q 175 1675 325 1962 
Q 475 2250 825 2425 
Q 525 2600 425 2812 
Q 325 3025 312 3300 
Q 300 3575 387 3775 
Q 475 3975 650 4150 
Q 825 4325 1037 4387 
Q 1250 4450 1500 4450 
Q 1750 4450 1950 4400 
Q 2150 4350 2375 4187 
Q 2600 4025 2700 3725 
Q 2800 3425 2687 3025 
Q 2575 2625 2100 2400 
Q 2525 2275 2700 2012 
Q 2875 1750 2875 1375 
Q 2875 1000 2762 775 
Q 2650 550 2512 400 
Q 2375 250 2137 162 
Q 1900 75 1537 75 
Q 1175 75 912 162 
Q 650 250 475 425 
Q 300 600 237 837 
Q 175 1075 175 1375 
z
M 687 1400 
Q 675 1100 787 875 
Q 900 650 1200 587 
Q 1500 525 1825 600 
Q 2150 675 2275 950 
Q 2400 1225 2362 1500 
Q 2325 1775 2050 1962 
Q 1775 2150 1450 2125 
Q 1125 2100 912 1900 
Q 700 1700 687 1400 
z
M 775 3350 
Q 775 3100 950 2875 
Q 1125 2650 1500 2650 
Q 1875 2650 2062 2875 
Q 2250 3100 2237 3412 
Q 2225 3725 2012 3875 
Q 1800 4025 1437 4000 
Q 1075 3975 925 3787 
Q 775 3600 775 3350 
z
" transform="scale(0.015625)"/>
       </defs>
       <use xlink:href="#SimHei-33"/>
       <use xlink:href="#SimHei-38" transform="translate(50 0)"/>
       <use xlink:href="#SimHei-30" transform="translate(100 0)"/>
      </g>
     </g>
    </g>
    <g id="ytick_7">
     <g id="line2d_23">
      <path d="M 37.575 79.874611 
L 705.3675 79.874611 
" clip-path="url(#p1b472899af)" style="fill: none; stroke-dasharray: 1.85,0.8; stroke-dashoffset: 0; stroke: #b2b2b2; stroke-opacity: 0.3; stroke-width: 0.5"/>
     </g>
     <g id="line2d_24">
      <g>
       <use xlink:href="#m05f6887212" x="37.575" y="79.874611" style="stroke: #000000; stroke-width: 0.8"/>
      </g>
     </g>
     <g id="text_13">
      <!-- 390 -->
      <g transform="translate(20.575 82.968361) scale(0.09 -0.09)">
       <defs>
        <path id="SimHei-39" d="M 800 75 
Q 1350 1000 1700 1750 
Q 1075 1650 662 1912 
Q 250 2175 162 2625 
Q 75 3075 175 3437 
Q 275 3800 487 4037 
Q 700 4275 1000 4375 
Q 1300 4475 1537 4475 
Q 1775 4475 2025 4375 
Q 2275 4275 2475 4075 
Q 2675 3875 2750 3662 
Q 2825 3450 2825 3112 
Q 2825 2775 2575 2250 
Q 2325 1725 1350 75 
L 800 75 
z
M 662 2875 
Q 700 2550 937 2337 
Q 1175 2125 1450 2150 
Q 1725 2175 1887 2300 
Q 2050 2425 2200 2725 
Q 2300 3100 2250 3362 
Q 2200 3625 1987 3800 
Q 1775 3975 1525 3975 
Q 1375 4000 1137 3900 
Q 900 3800 762 3500 
Q 625 3200 662 2875 
z
" transform="scale(0.015625)"/>
       </defs>
       <use xlink:href="#SimHei-33"/>
       <use xlink:href="#SimHei-39" transform="translate(50 0)"/>
       <use xlink:href="#SimHei-30" transform="translate(100 0)"/>
      </g>
     </g>
    </g>
    <g id="ytick_8">
     <g id="line2d_25">
      <path d="M 37.575 32.269347 
L 705.3675 32.269347 
" clip-path="url(#p1b472899af)" style="fill: none; stroke-dasharray: 1.85,0.8; stroke-dashoffset: 0; stroke: #b2b2b2; stroke-opacity: 0.3; stroke-width: 0.5"/>
     </g>
     <g id="line2d_26">
      <g>
       <use xlink:href="#m05f6887212" x="37.575" y="32.269347" style="stroke: #000000; stroke-width: 0.8"/>
      </g>
     </g>
     <g id="text_14">
      <!-- 400 -->
      <g transform="translate(20.575 35.363097) scale(0.09 -0.09)">
       <use xlink:href="#SimHei-34"/>
       <use xlink:href="#SimHei-30" transform="translate(50 0)"/>
       <use xlink:href="#SimHei-30" transform="translate(100 0)"/>
      </g>
     </g>
    </g>
    <g id="text_15">
     <!-- qvm_L/s 值 -->
     <g transform="translate(15.246875 234.789375) rotate(-90) scale(0.1 -0.1)">
      <defs>
       <path id="SimHei-71" d="M 2750 -800 
L 2250 -800 
L 2250 500 
Q 2100 275 1900 162 
Q 1700 50 1425 50 
Q 925 50 575 425 
Q 225 800 225 1525 
Q 225 2250 575 2612 
Q 925 2975 1425 2975 
Q 1700 2975 1900 2875 
Q 2100 2775 2250 2550 
L 2250 2925 
L 2750 2925 
L 2750 -800 
z
M 2250 1525 
Q 2250 2000 2037 2262 
Q 1825 2525 1525 2525 
Q 1150 2525 962 2262 
Q 775 2000 775 1525 
Q 775 1050 962 775 
Q 1150 500 1525 500 
Q 1825 500 2037 775 
Q 2250 1050 2250 1525 
z
" transform="scale(0.015625)"/>
       <path id="SimHei-76" d="M 2875 2925 
L 1825 75 
L 1275 75 
L 225 2925 
L 750 2925 
L 1525 750 
L 1575 750 
L 2350 2925 
L 2875 2925 
z
" transform="scale(0.015625)"/>
       <path id="SimHei-6d" d="M 3050 125 
L 2550 125 
L 2550 2150 
Q 2550 2300 2500 2400 
Q 2450 2500 2300 2500 
Q 2125 2500 1975 2312 
Q 1825 2125 1825 1825 
L 1825 125 
L 1325 125 
L 1325 2150 
Q 1325 2300 1275 2400 
Q 1225 2500 1075 2500 
Q 900 2500 750 2312 
Q 600 2125 600 1825 
L 600 125 
L 100 125 
L 100 2925 
L 600 2925 
L 600 2550 
Q 725 2750 900 2862 
Q 1075 2975 1275 2975 
Q 1475 2975 1612 2862 
Q 1750 2750 1800 2550 
Q 1925 2750 2087 2862 
Q 2250 2975 2450 2975 
Q 2750 2975 2900 2812 
Q 3050 2650 3050 2350 
L 3050 125 
z
" transform="scale(0.015625)"/>
       <path id="SimHei-5f" d="M 3150 -850 
L 0 -850 
L 0 -550 
L 3150 -550 
L 3150 -850 
z
" transform="scale(0.015625)"/>
       <path id="SimHei-4c" d="M 2900 125 
L 300 125 
L 300 4400 
L 875 4400 
L 875 600 
L 2900 600 
L 2900 125 
z
" transform="scale(0.015625)"/>
       <path id="SimHei-73" d="M 2750 900 
Q 2750 500 2437 287 
Q 2125 75 1650 75 
Q 1050 75 725 312 
Q 400 550 400 1000 
L 900 1000 
Q 900 700 1112 600 
Q 1325 500 1625 500 
Q 1925 500 2075 612 
Q 2225 725 2225 900 
Q 2225 1025 2100 1150 
Q 1975 1275 1475 1350 
Q 900 1425 687 1637 
Q 475 1850 475 2200 
Q 475 2500 762 2737 
Q 1050 2975 1600 2975 
Q 2100 2975 2387 2750 
Q 2675 2525 2675 2150 
L 2175 2150 
Q 2175 2375 2012 2462 
Q 1850 2550 1600 2550 
Q 1275 2550 1137 2437 
Q 1000 2325 1000 2175 
Q 1000 2000 1125 1900 
Q 1250 1800 1650 1750 
Q 2300 1650 2525 1437 
Q 2750 1225 2750 900 
z
" transform="scale(0.015625)"/>
       <path id="SimHei-503c" d="M 3675 4450 
L 3675 5100 
Q 3975 5075 4350 5050 
Q 4225 4875 4200 4450 
L 5125 4450 
Q 5550 4450 5875 4475 
L 5875 4025 
Q 5525 4050 5125 4050 
L 4175 4050 
L 4125 3500 
L 5400 3500 
Q 5375 3200 5375 2700 
L 5375 150 
Q 5875 150 6100 175 
L 6100 -275 
Q 5775 -250 5200 -250 
L 2850 -250 
Q 2275 -250 1900 -275 
L 1900 175 
Q 2125 150 2600 150 
L 2600 2700 
Q 2600 3175 2575 3500 
L 3600 3500 
L 3650 4050 
L 3200 4050 
Q 2575 4050 2225 4025 
L 2225 4475 
Q 2550 4450 3200 4450 
L 3675 4450 
z
M 2225 4900 
Q 2025 4675 1650 3750 
L 1650 450 
Q 1650 -75 1675 -550 
L 1150 -550 
Q 1175 -125 1175 375 
L 1175 2950 
Q 875 2450 625 2150 
Q 425 2425 250 2575 
Q 500 2825 937 3537 
Q 1375 4250 1625 5150 
Q 1975 4975 2225 4900 
z
M 4925 2650 
L 4925 3150 
L 3075 3150 
L 3075 2650 
L 4925 2650 
z
M 4925 150 
L 4925 625 
L 3075 625 
L 3075 150 
L 4925 150 
z
M 4925 1000 
L 4925 1450 
L 3075 1450 
L 3075 1000 
L 4925 1000 
z
M 4925 1825 
L 4925 2275 
L 3075 2275 
L 3075 1825 
L 4925 1825 
z
" transform="scale(0.015625)"/>
      </defs>
      <use xlink:href="#SimHei-71"/>
      <use xlink:href="#SimHei-76" transform="translate(50 0)"/>
      <use xlink:href="#SimHei-6d" transform="translate(100 0)"/>
      <use xlink:href="#SimHei-5f" transform="translate(150 0)"/>
      <use xlink:href="#SimHei-4c" transform="translate(200 0)"/>
      <use xlink:href="#SimHei-2f" transform="translate(250 0)"/>
      <use xlink:href="#SimHei-73" transform="translate(300 0)"/>
      <use xlink:href="#SimHei-20" transform="translate(350 0)"/>
      <use xlink:href="#SimHei-503c" transform="translate(400 0)"/>
     </g>
    </g>
   </g>
   <g id="line2d_27">
    <path d="M 67.929205 159.708638 
L 68.206285 208.361217 
L 68.483366 230.259638 
L 68.760447 204.124349 
L 69.037528 265.963586 
L 69.314609 294.76477 
L 69.59169 138.952743 
L 69.86877 134.335032 
L 70.145851 137.57219 
L 70.422932 111.532111 
L 70.700013 148.521401 
L 70.977094 164.945217 
L 71.254174 94.822664 
L 71.531255 99.868822 
L 71.808336 120.862743 
L 72.085417 123.338216 
L 72.362498 138.524296 
L 72.639579 108.056927 
L 72.916659 105.771874 
L 73.19374 138.571901 
L 73.747902 148.378585 
L 74.024983 143.618059 
L 74.302064 134.049401 
L 74.579144 84.539927 
L 74.856225 151.520532 
L 75.133306 154.281638 
L 75.410387 102.344295 
L 75.964549 168.848848 
L 76.241629 156.899927 
L 76.51871 150.282796 
L 76.795791 112.103374 
L 77.072872 181.79748 
L 77.349953 176.084848 
L 77.627033 119.815427 
L 77.904114 102.153874 
L 78.181195 106.009901 
L 78.458276 127.337059 
L 78.735357 109.151848 
L 79.012438 140.28569 
L 79.289518 137.762611 
L 79.566599 106.105111 
L 79.84368 164.850006 
L 80.120761 96.488848 
L 80.397842 95.013085 
L 80.674923 96.536453 
L 80.952003 116.67348 
L 81.506165 133.525743 
L 82.060327 95.584348 
L 82.337408 110.770427 
L 82.614488 92.061558 
L 82.891569 96.488848 
L 83.16865 102.725137 
L 83.445731 117.863611 
L 83.722812 96.536453 
L 83.999892 120.862743 
L 84.276973 101.963453 
L 84.554054 112.960269 
L 84.831135 147.52169 
L 85.385297 85.920479 
L 85.939458 124.528348 
L 86.216539 100.011637 
L 86.49362 116.625874 
L 86.770701 119.720216 
L 87.047782 80.112637 
L 87.324862 144.284532 
L 87.601943 74.971269 
L 87.879024 77.018295 
L 88.156105 112.293795 
L 88.433186 72.876637 
L 88.710267 97.77419 
L 88.987347 133.335322 
L 89.264428 190.414033 
L 89.541509 131.621532 
L 89.81859 156.281059 
L 90.095671 151.663348 
L 90.649832 180.89298 
L 90.926913 136.239243 
L 91.481075 162.850585 
L 91.758156 62.213058 
L 92.312317 137.143743 
L 92.589398 222.642796 
L 92.866479 63.784032 
L 93.14356 116.911506 
L 93.420641 49.454848 
L 93.697721 171.467138 
L 93.974802 110.770427 
L 94.251883 121.434006 
L 94.806045 170.515033 
L 95.083126 131.14548 
L 95.360206 161.327217 
L 95.637287 157.280769 
L 96.191449 85.158795 
L 96.745611 125.147216 
L 97.022691 164.70719 
L 97.853934 209.408533 
L 98.131015 184.130138 
L 98.408095 270.295665 
L 98.962257 115.340532 
L 99.239338 189.747559 
L 99.516419 190.84248 
L 99.7935 135.620374 
L 100.07058 192.937112 
L 100.347661 192.841901 
L 100.624742 137.857822 
L 100.901823 148.759427 
L 101.178904 143.665664 
L 101.455985 158.185269 
L 101.733065 237.019586 
L 102.010146 146.093532 
L 102.287227 236.495928 
L 102.564308 126.194532 
L 102.841389 161.946085 
L 103.39555 274.199297 
L 103.672631 233.925244 
L 103.949712 252.729323 
L 104.226793 303.571744 
L 104.503874 175.799217 
L 104.780954 242.541796 
L 105.058035 243.20827 
L 105.335116 188.843059 
L 105.612197 275.67506 
L 105.889278 193.317954 
L 106.166359 209.265717 
L 106.443439 192.270638 
L 106.72052 216.97777 
L 106.997601 270.533691 
L 107.274682 255.87127 
L 107.551763 373.694297 
L 108.105924 237.78127 
L 108.383005 239.066612 
L 108.660086 187.652927 
L 108.937167 249.730191 
L 109.491329 311.140981 
L 110.04549 278.055323 
L 110.322571 240.780402 
L 110.599652 290.385086 
L 110.876733 180.036085 
L 111.153813 356.937244 
L 111.430894 350.986587 
L 111.707975 260.012928 
L 111.985056 228.498244 
L 112.262137 362.316639 
L 112.816298 186.415191 
L 113.093379 176.084848 
L 113.37046 236.210296 
L 113.647541 320.947665 
L 113.924622 232.401875 
L 114.201703 211.122322 
L 114.478783 213.312164 
L 114.755864 306.618481 
L 115.032945 268.677086 
L 115.310026 286.005402 
L 115.587107 266.106402 
L 115.864188 165.564085 
L 116.141268 267.867796 
L 116.418349 182.797191 
L 116.69543 260.155744 
L 116.972511 222.928428 
L 117.249592 233.163559 
L 117.526672 260.203349 
L 117.803753 199.268612 
L 118.080834 255.061981 
L 118.357915 80.58869 
L 118.634996 166.706612 
L 118.912077 201.172822 
L 119.189157 180.89298 
L 119.466238 233.496796 
L 119.743319 246.302612 
L 120.0204 238.68577 
L 120.297481 219.500849 
L 120.574562 183.558875 
L 120.851642 276.389139 
L 121.128723 143.856085 
L 121.682885 197.602428 
L 121.959966 145.903111 
L 122.237047 155.709796 
L 122.514127 229.402744 
L 123.068289 162.422138 
L 123.34537 215.16877 
L 123.622451 171.943191 
L 123.899532 97.488558 
L 124.176612 254.538323 
L 124.453693 183.796901 
L 124.730774 184.749006 
L 125.562016 126.813401 
L 125.839097 163.136217 
L 126.116178 176.084848 
L 126.393259 210.313033 
L 126.67034 298.716007 
L 126.947421 251.586796 
L 127.224501 273.86606 
L 127.501582 314.997007 
L 128.055744 290.861139 
L 128.332825 294.479139 
L 128.609906 197.840454 
L 128.886986 210.64627 
L 129.164067 260.060533 
L 129.441148 247.111902 
L 129.718229 208.646849 
L 129.99531 139.857243 
L 130.272391 235.448612 
L 130.549471 216.549322 
L 130.826552 236.115086 
L 131.103633 193.841612 
L 131.380714 239.161823 
L 131.657795 214.073849 
L 131.934875 156.090638 
L 132.211956 126.146927 
L 132.489037 230.973717 
L 132.766118 261.774323 
L 133.043199 138.714717 
L 133.32028 216.644533 
L 133.59736 198.88777 
L 133.874441 196.26948 
L 134.151522 226.594033 
L 134.428603 175.132743 
L 134.982765 300.715428 
L 135.259845 209.170507 
L 135.536926 290.718323 
L 135.814007 177.322585 
L 136.091088 206.599822 
L 136.368169 154.995717 
L 136.64525 266.296823 
L 136.92233 254.252691 
L 137.199411 204.124349 
L 137.476492 208.742059 
L 137.753573 43.742216 
L 138.030654 122.766953 
L 138.307734 128.860427 
L 138.584815 176.37048 
L 139.138977 43.742216 
L 139.416058 119.196559 
L 139.693139 119.196559 
L 139.970219 210.408243 
L 140.2473 243.255875 
L 140.801462 120.148664 
L 141.078543 237.448033 
L 141.355624 203.362664 
L 141.632704 118.625295 
L 141.909785 232.211454 
L 142.186866 193.794006 
L 142.463947 230.830901 
L 142.741028 330.611534 
L 143.295189 175.037533 
L 143.57227 180.036085 
L 143.849351 157.994848 
L 144.126432 111.532111 
L 144.680593 198.126085 
L 144.957674 225.689533 
L 145.234755 142.427927 
L 145.511836 212.788507 
L 145.788917 225.832349 
L 146.065998 212.693296 
L 146.343078 143.046796 
L 146.89724 180.464533 
L 147.174321 123.433427 
L 147.451402 212.169638 
L 147.728483 135.76319 
L 148.005563 162.279322 
L 148.282644 175.656401 
L 148.559725 132.240401 
L 148.836806 160.327506 
L 149.113887 152.710664 
L 149.390968 178.08427 
L 149.668048 215.978059 
L 149.945129 191.032901 
L 150.22221 192.889506 
L 150.499291 201.69648 
L 150.776372 237.400428 
L 151.330533 148.997454 
L 151.607614 153.805585 
L 151.884695 163.612269 
L 152.161776 168.991664 
L 152.438857 231.021323 
L 152.993018 161.708059 
L 153.270099 201.60127 
L 153.54718 375.836534 
L 153.824261 179.845664 
L 154.101342 292.670139 
L 154.378422 280.007139 
L 154.932584 226.356007 
L 155.209665 137.857822 
L 155.486746 134.335032 
L 155.763827 193.603585 
L 156.040907 164.802401 
L 156.317988 196.888349 
L 156.87215 288.052428 
L 157.149231 295.954902 
L 157.426312 298.192349 
L 157.703392 327.13635 
L 157.980473 253.871849 
L 158.257554 273.96127 
L 158.534635 275.389428 
L 158.811716 247.349928 
L 159.088796 206.980664 
L 159.365877 188.176585 
L 159.642958 234.877349 
L 159.920039 204.790822 
L 160.19712 256.061691 
L 160.474201 159.899059 
L 160.751281 120.957953 
L 161.028362 43.742216 
L 161.305443 43.742216 
L 161.582524 150.187585 
L 161.859605 163.183822 
L 162.136686 110.532401 
L 162.413766 273.86606 
L 162.690847 43.742216 
L 162.967928 55.929163 
L 163.245009 191.74698 
L 163.52209 228.307823 
L 163.799171 247.254717 
L 164.076251 245.445717 
L 164.353332 223.118849 
L 164.630413 212.074428 
L 165.184575 278.959823 
L 165.461655 273.532823 
L 165.738736 288.909323 
L 166.015817 287.623981 
L 166.292898 245.445717 
L 166.84706 137.238953 
L 167.12414 248.492454 
L 167.401221 190.699664 
L 167.678302 237.733665 
L 167.955383 202.791401 
L 168.232464 198.459322 
L 168.509545 118.339664 
L 168.786625 167.087454 
L 169.063706 188.176585 
L 169.340787 219.167612 
L 169.617868 269.486375 
L 169.894949 253.300586 
L 170.17203 282.577823 
L 170.726191 126.62298 
L 171.003272 187.986164 
L 171.280353 203.600691 
L 171.557434 237.971691 
L 171.834514 209.884586 
L 172.111595 230.688086 
L 172.388676 344.179034 
L 172.942838 244.017559 
L 173.496999 375.693718 
L 173.77408 261.107849 
L 174.051161 238.78098 
L 174.328242 161.89848 
L 174.605323 139.904848 
L 174.882404 214.597507 
L 175.159484 172.133612 
L 175.436565 176.37048 
L 175.990727 129.812532 
L 176.267808 161.660454 
L 176.544889 143.427638 
L 176.821969 113.95998 
L 177.09905 191.842191 
L 177.376131 160.946375 
L 177.653212 186.891243 
L 177.930293 139.952453 
L 178.207374 145.046217 
L 178.761535 171.514743 
L 179.038616 134.335032 
L 179.315697 165.944927 
L 179.592778 164.088322 
L 179.869858 202.981822 
L 180.146939 146.902822 
L 180.42402 183.844506 
L 180.701101 186.367585 
L 180.978182 172.895296 
L 181.255263 165.706901 
L 181.532343 188.795454 
L 181.809424 155.56698 
L 182.086505 189.223901 
L 182.363586 167.039848 
L 182.640667 160.803559 
L 182.917748 172.133612 
L 183.194828 205.647717 
L 183.471909 184.034927 
L 184.026071 366.267876 
L 184.303152 188.319401 
L 184.580233 216.120875 
L 184.857313 183.892112 
L 185.134394 246.255007 
L 185.411475 209.456138 
L 185.688556 222.40477 
L 185.965637 186.653217 
L 186.242717 203.933928 
L 186.519798 144.80819 
L 186.796879 212.407664 
L 187.07396 212.407664 
L 187.351041 375.836534 
L 187.628122 266.582454 
L 187.905202 267.058507 
L 188.182283 239.733086 
L 188.459364 324.42285 
L 188.736445 114.578848 
L 189.013526 269.34356 
L 189.290607 217.025375 
L 189.567687 207.93277 
L 189.844768 327.421981 
L 190.121849 375.836534 
L 190.39893 214.549901 
L 190.676011 190.033191 
L 190.953092 183.320848 
L 191.230172 168.753638 
L 191.507253 213.169349 
L 191.784334 143.237217 
L 192.061415 208.123191 
L 192.338496 218.025086 
L 192.615576 136.144032 
L 192.892657 221.738296 
L 193.169738 245.826559 
L 193.446819 218.215507 
L 193.7239 224.070954 
L 194.000981 189.890375 
L 194.278061 180.702559 
L 194.555142 207.599533 
L 194.832223 209.551349 
L 195.109304 204.124349 
L 195.386385 172.990506 
L 195.663466 249.254138 
L 195.940546 216.358901 
L 196.217627 222.49998 
L 196.494708 246.255007 
L 196.771789 229.164717 
L 197.04887 267.153718 
L 197.325951 251.967638 
L 197.603031 291.813244 
L 197.880112 211.788796 
L 198.157193 180.464533 
L 198.434274 181.940296 
L 198.711355 195.36498 
L 198.988435 164.421559 
L 199.265516 176.180059 
L 199.542597 225.641928 
L 199.819678 206.980664 
L 200.096759 312.378718 
L 200.37384 265.011481 
L 200.65092 280.19756 
L 200.928001 215.311586 
L 201.205082 210.789086 
L 201.482163 196.745533 
L 201.759244 191.080506 
L 202.036325 231.735401 
L 202.313405 219.548454 
L 202.590486 250.111033 
L 203.144648 226.784454 
L 203.421729 154.567269 
L 203.69881 227.784165 
L 203.97589 170.610243 
L 204.252971 224.30898 
L 204.530052 201.030007 
L 204.807133 258.632375 
L 205.084214 273.96127 
L 205.361295 215.978059 
L 205.638375 215.978059 
L 205.915456 71.020032 
L 206.192537 304.952297 
L 206.469618 243.589112 
L 207.023779 202.981822 
L 207.30086 184.844217 
L 207.577941 151.13969 
L 208.132103 207.551928 
L 208.409184 107.72369 
L 208.686264 219.834086 
L 208.963345 250.872717 
L 209.240426 241.780112 
L 209.517507 210.408243 
L 209.794588 238.495349 
L 210.071669 231.497375 
L 210.902911 108.771006 
L 211.179992 198.221296 
L 211.457073 212.693296 
L 211.734154 186.081954 
L 212.011234 217.834665 
L 212.288315 203.077033 
L 212.565396 140.523717 
L 212.842477 189.128691 
L 213.119558 180.369322 
L 213.396638 228.022191 
L 213.673719 204.267164 
L 213.9508 206.457007 
L 214.227881 193.936822 
L 214.504962 200.363533 
L 214.782043 239.304638 
L 215.059123 163.80269 
L 215.336204 191.604164 
L 215.613285 236.97198 
L 215.890366 209.598954 
L 216.167447 141.618638 
L 216.444528 170.991085 
L 216.721608 182.60677 
L 216.998689 212.645691 
L 217.27577 157.756822 
L 217.552851 228.73627 
L 217.829932 168.896454 
L 218.107013 211.265138 
L 218.384093 184.177743 
L 218.661174 230.926112 
L 219.215336 125.71848 
L 219.492417 141.475822 
L 219.769497 141.475822 
L 220.046578 131.383506 
L 220.323659 220.452954 
L 220.60074 234.353691 
L 220.877821 147.52169 
L 221.154902 195.222164 
L 221.431982 109.675506 
L 221.709063 146.998032 
L 221.986144 146.998032 
L 222.263225 181.273822 
L 222.540306 118.863322 
L 223.094467 225.784744 
L 223.371548 207.789954 
L 223.648629 198.840164 
L 223.92571 125.575664 
L 224.202791 140.142874 
L 224.479872 143.284822 
L 224.756952 131.431111 
L 225.311114 276.341533 
L 225.588195 245.588533 
L 225.865276 184.177743 
L 226.142356 156.519085 
L 226.419437 156.519085 
L 226.696518 183.368454 
L 226.973599 375.836534 
L 227.25068 141.99948 
L 227.527761 69.401453 
L 228.081922 175.894427 
L 228.359003 108.771006 
L 228.636084 196.602717 
L 228.913165 174.751901 
L 229.190246 174.751901 
L 229.467326 92.156769 
L 229.744407 174.418664 
L 230.021488 83.587821 
L 230.298569 184.653796 
L 230.852731 270.962139 
L 231.129811 147.997743 
L 231.406892 135.715585 
L 231.683973 96.726874 
L 231.961054 121.29119 
L 232.238135 66.354716 
L 232.515215 121.29119 
L 232.792296 43.742216 
L 233.069377 203.695901 
L 233.346458 89.776506 
L 233.623539 151.94898 
L 233.90062 161.517638 
L 234.1777 165.468875 
L 234.454781 100.535295 
L 234.731862 188.176585 
L 235.008943 127.813111 
L 235.286024 114.912085 
L 235.563105 141.142585 
L 235.840185 117.101927 
L 236.117266 336.562192 
L 236.394347 174.704296 
L 236.671428 84.873164 
L 237.22559 201.506059 
L 237.50267 129.669717 
L 237.779751 147.616901 
L 238.056832 142.856375 
L 238.333913 114.150401 
L 238.610994 139.571611 
L 238.888075 180.654954 
L 239.165155 175.132743 
L 239.442236 195.031743 
L 239.719317 126.242138 
L 239.996398 126.051717 
L 240.273479 163.279033 
L 240.550559 185.272664 
L 240.82764 150.806454 
L 241.104721 203.362664 
L 241.381802 195.603006 
L 241.658883 157.233164 
L 241.935964 213.693007 
L 242.213044 231.497375 
L 242.490125 107.342848 
L 242.767206 205.504901 
L 243.044287 172.895296 
L 243.321368 156.56669 
L 243.598449 123.00498 
L 243.875529 158.946954 
L 244.15261 141.19019 
L 244.429691 164.70719 
L 244.706772 244.969665 
L 244.983853 208.884875 
L 245.260934 375.836534 
L 245.538014 186.462796 
L 245.815095 191.889796 
L 246.092176 137.667401 
L 246.646338 182.321138 
L 246.923418 183.035217 
L 247.47758 167.658717 
L 247.754661 245.255296 
L 248.031742 265.059086 
L 248.308823 245.92177 
L 248.585903 264.345007 
L 249.140065 224.404191 
L 249.417146 261.488691 
L 249.694227 228.498244 
L 249.971308 239.161823 
L 250.248388 198.173691 
L 250.525469 181.940296 
L 250.80255 204.933638 
L 251.079631 280.578402 
L 251.633793 219.738875 
L 251.910873 221.738296 
L 252.187954 191.937401 
L 252.465035 236.733954 
L 252.742116 220.59577 
L 253.019197 176.037243 
L 253.296277 179.036375 
L 253.573358 222.833217 
L 253.850439 221.643086 
L 254.12752 161.565243 
L 254.404601 212.360059 
L 254.681682 197.221585 
L 254.958762 200.79198 
L 255.235843 195.222164 
L 255.512924 224.832638 
L 255.790005 194.079638 
L 256.067086 211.503164 
L 256.344167 251.301165 
L 256.621247 232.877928 
L 256.898328 227.498533 
L 258.006652 301.619928 
L 258.283732 237.590849 
L 258.560813 210.408243 
L 258.837894 229.545559 
L 259.114975 236.06748 
L 259.392056 308.713113 
L 259.669136 182.797191 
L 259.946217 375.836534 
L 260.223298 169.324901 
L 260.500379 177.417796 
L 260.77746 159.994269 
L 261.054541 194.032033 
L 261.331621 199.79227 
L 261.608702 233.877638 
L 261.885783 233.877638 
L 262.162864 211.598375 
L 262.717026 242.351375 
L 262.994106 253.15777 
L 263.271187 238.495349 
L 263.548268 179.369612 
L 263.825349 167.32548 
L 264.10243 172.657269 
L 264.379511 210.789086 
L 264.656591 169.515322 
L 264.933672 188.843059 
L 265.210753 179.702848 
L 265.487834 179.464822 
L 265.764915 120.910348 
L 266.041996 167.182664 
L 266.319076 249.254138 
L 266.873238 189.747559 
L 267.150319 182.892401 
L 267.4274 183.939717 
L 267.70448 135.810796 
L 268.258642 105.343427 
L 268.535723 195.36498 
L 268.812804 163.517059 
L 269.089885 202.553375 
L 269.366965 191.74698 
L 269.644046 148.854638 
L 269.921127 132.288006 
L 270.475289 174.56148 
L 270.75237 125.956506 
L 271.02945 157.328375 
L 271.306531 144.951006 
L 271.583612 204.40998 
L 271.860693 137.429374 
L 272.137774 144.951006 
L 272.414855 143.665664 
L 272.691935 149.283085 
L 272.969016 158.804138 
L 273.246097 209.218112 
L 273.523178 207.075875 
L 273.800259 225.261086 
L 274.35442 113.388716 
L 274.631501 134.144611 
L 274.908582 87.777085 
L 275.185663 100.582901 
L 275.462744 181.464243 
L 275.739824 191.985006 
L 276.016905 242.684612 
L 276.293986 169.991375 
L 276.571067 294.336323 
L 276.848148 251.063138 
L 277.125229 261.012639 
L 277.402309 137.667401 
L 277.67939 315.996718 
L 277.956471 193.651191 
L 278.233552 157.947243 
L 278.510633 375.836534 
L 278.787714 220.119717 
L 279.064794 184.558585 
L 279.341875 375.836534 
L 279.618956 228.307823 
L 279.896037 375.836534 
L 280.173118 290.385086 
L 280.727279 248.349638 
L 281.00436 252.586507 
L 281.281441 222.023928 
L 281.558522 137.47698 
L 281.835603 141.237796 
L 282.112683 196.888349 
L 282.389764 193.698796 
L 282.666845 229.402744 
L 282.943926 229.497954 
L 283.221007 170.705454 
L 283.498088 152.567848 
L 283.775168 149.140269 
L 284.052249 139.666822 
L 284.606411 219.358033 
L 284.883492 228.403033 
L 285.160573 162.374533 
L 285.437653 375.836534 
L 285.714734 156.519085 
L 285.991815 169.515322 
L 286.268896 221.50027 
L 286.545977 189.84277 
L 286.823057 180.226506 
L 287.100138 184.844217 
L 287.377219 211.979217 
L 287.6543 175.656401 
L 288.208462 223.261665 
L 288.485542 184.558585 
L 288.762623 223.166454 
L 289.039704 170.515033 
L 289.316785 190.318822 
L 289.593866 236.87677 
L 290.148027 201.030007 
L 290.425108 179.369612 
L 290.702189 194.412875 
L 290.97927 180.654954 
L 291.256351 173.466559 
L 291.533432 217.025375 
L 291.810512 203.457875 
L 292.087593 169.182085 
L 292.641755 195.460191 
L 292.918836 224.927849 
L 293.195917 237.257612 
L 293.472997 181.607059 
L 293.750078 208.456428 
L 294.027159 202.839007 
L 294.30424 164.754796 
L 294.581321 161.850875 
L 294.858401 293.336612 
L 295.135482 279.864323 
L 295.412563 341.941586 
L 295.689644 146.664796 
L 295.966725 346.178455 
L 296.243806 163.659875 
L 296.520886 150.044769 
L 296.797967 151.282506 
L 297.075048 165.135638 
L 297.352129 134.144611 
L 297.62921 156.757111 
L 297.906291 202.839007 
L 298.183371 139.38119 
L 298.460452 119.38698 
L 298.737533 132.716453 
L 299.291695 172.419243 
L 299.845856 149.568717 
L 300.122937 221.547875 
L 300.400018 228.783875 
L 300.95418 194.079638 
L 301.23126 210.170217 
L 301.508341 199.88748 
L 301.785422 175.561191 
L 302.062503 274.246902 
L 302.339584 243.874744 
L 302.616665 250.491875 
L 302.893745 184.41577 
L 303.170826 189.223901 
L 303.447907 264.249796 
L 303.724988 123.719059 
L 304.002069 227.736559 
L 304.27915 159.375401 
L 304.55623 190.271217 
L 305.110392 191.74698 
L 305.387473 190.937691 
L 305.664554 223.452086 
L 305.941635 162.517348 
L 306.495796 203.267454 
L 306.772877 90.823822 
L 307.049958 108.104532 
L 307.327039 137.096138 
L 307.604119 190.74727 
L 307.8812 175.561191 
L 308.158281 194.46048 
L 308.435362 248.920902 
L 308.712443 281.482902 
L 308.989524 162.707769 
L 309.266604 150.568427 
L 309.543685 237.828875 
L 309.820766 169.22969 
L 310.097847 162.088901 
L 310.374928 180.131296 
L 310.652009 102.29669 
L 310.929089 219.500849 
L 311.20617 204.219559 
L 311.483251 175.656401 
L 312.037413 218.453533 
L 312.314494 197.269191 
L 312.591574 199.982691 
L 312.868655 182.178322 
L 313.145736 182.178322 
L 313.422817 338.418797 
L 313.699898 191.032901 
L 314.254059 149.045059 
L 314.53114 177.608217 
L 315.085302 125.670874 
L 315.362383 144.284532 
L 315.639463 149.425901 
L 315.916544 137.619796 
L 316.193625 199.411428 
L 316.470706 217.358612 
L 316.747787 244.922059 
L 317.024868 294.098297 
L 317.301948 192.984717 
L 317.579029 254.443112 
L 317.85611 229.259928 
L 318.410272 277.722086 
L 318.687353 231.735401 
L 318.964433 254.823954 
L 319.241514 203.838717 
L 319.518595 185.653506 
L 319.795676 155.376559 
L 320.072757 375.836534 
L 320.349838 216.501717 
L 320.626918 170.705454 
L 320.903999 183.463664 
L 321.18108 203.124638 
L 321.458161 185.272664 
L 321.735242 231.354559 
L 322.012322 156.233454 
L 322.289403 142.713559 
L 322.566484 171.800375 
L 322.843565 225.165875 
L 323.120646 246.112191 
L 323.397727 239.399849 
L 323.674807 154.614875 
L 323.951888 215.454401 
L 324.228969 242.779823 
L 324.50605 241.49448 
L 324.783131 176.894138 
L 325.060212 221.690691 
L 325.337292 185.605901 
L 325.891454 277.626875 
L 326.168535 248.159217 
L 326.445616 284.958086 
L 326.722697 222.309559 
L 326.999777 227.92698 
L 327.276858 257.251823 
L 327.83102 199.935085 
L 328.108101 171.752769 
L 328.385181 195.983849 
L 328.662262 177.513006 
L 329.216424 290.099455 
L 329.493505 264.91627 
L 329.770586 139.571611 
L 330.047666 294.907586 
L 330.324747 264.82106 
L 330.601828 264.82106 
L 330.878909 277.388849 
L 331.15599 161.517638 
L 331.433071 203.838717 
L 331.710151 175.370769 
L 331.987232 181.559454 
L 332.264313 141.142585 
L 332.541394 169.467717 
L 333.095556 134.335032 
L 333.372636 83.540216 
L 333.649717 111.008453 
L 333.926798 88.157927 
L 334.203879 94.2514 
L 334.48096 96.012795 
L 334.75804 100.154453 
L 335.035121 102.29669 
L 335.312202 87.539058 
L 335.589283 118.244453 
L 335.866364 95.584348 
L 336.143445 87.396243 
L 336.420525 95.1559 
L 336.697606 85.968085 
L 336.974687 100.678111 
L 337.251768 89.014821 
L 337.528849 125.004401 
L 338.08301 85.539637 
L 338.360091 89.824111 
L 338.637172 89.824111 
L 338.914253 375.836534 
L 339.191334 80.017427 
L 339.468415 84.968374 
L 340.022576 121.672032 
L 340.299657 97.012506 
L 340.576738 110.675216 
L 341.130899 65.402611 
L 341.40798 52.930032 
L 341.685061 104.153295 
L 342.239223 72.067348 
L 342.516304 93.061269 
L 343.070465 108.056927 
L 343.347546 87.539058 
L 343.624627 105.771874 
L 343.901708 78.732085 
L 344.178789 64.117269 
L 344.455869 79.636585 
L 344.73295 117.101927 
L 345.010031 84.920769 
L 345.564193 56.881269 
L 345.841274 92.013953 
L 346.118354 73.35269 
L 346.395435 66.164295 
L 346.949597 99.059532 
L 347.226678 93.489716 
L 347.503759 83.206979 
L 347.780839 87.539058 
L 348.05792 72.400585 
L 348.612082 122.814559 
L 348.889163 79.160532 
L 349.166243 375.836534 
L 349.443324 87.205821 
L 349.720405 100.773322 
L 349.997486 107.009611 
L 350.274567 105.153006 
L 350.551648 95.917585 
L 350.828728 81.112348 
L 351.105809 104.962585 
L 351.38289 83.3974 
L 351.659971 92.34719 
L 351.937052 82.540506 
L 352.214133 78.446453 
L 352.491213 93.061269 
L 352.768294 82.635716 
L 353.045375 92.4424 
L 353.322456 85.920479 
L 353.599537 95.203506 
L 353.876618 63.260374 
L 354.153698 92.537611 
L 354.430779 85.587243 
L 354.70786 94.013374 
L 355.262022 82.826137 
L 355.539102 88.586374 
L 355.816183 88.157927 
L 356.093264 77.113506 
L 356.370345 88.681585 
L 356.924507 80.779111 
L 357.201587 73.114663 
L 357.478668 90.442979 
L 357.755749 87.539058 
L 358.03283 79.922216 
L 358.309911 82.826137 
L 358.586992 104.01048 
L 358.864072 80.303058 
L 359.141153 102.629927 
L 359.418234 71.829321 
L 359.695315 72.591006 
L 359.972396 71.400874 
L 360.249477 94.775058 
L 360.526557 89.824111 
L 360.803638 87.634269 
L 361.080719 103.820058 
L 361.3578 91.918743 
L 361.634881 188.319401 
L 361.911961 100.678111 
L 362.189042 375.836534 
L 362.466123 172.657269 
L 362.743204 95.584348 
L 363.020285 77.589558 
L 363.574446 105.248216 
L 363.851527 66.783163 
L 364.128608 96.726874 
L 364.68277 252.396086 
L 364.959851 95.774769 
L 365.236931 181.892691 
L 365.514012 143.760875 
L 365.791093 173.323743 
L 366.068174 189.557138 
L 366.345255 149.092664 
L 366.622336 181.273822 
L 366.899416 181.464243 
L 367.176497 186.938849 
L 367.453578 178.08427 
L 367.730659 195.698217 
L 368.28482 161.232006 
L 368.561901 185.843927 
L 368.838982 191.366138 
L 369.116063 171.133901 
L 369.393144 220.024507 
L 369.670225 221.309849 
L 369.947305 154.329243 
L 370.224386 148.188164 
L 370.501467 295.431244 
L 370.778548 164.421559 
L 371.055629 211.741191 
L 371.33271 170.277006 
L 371.60979 167.753927 
L 371.886871 204.171954 
L 372.163952 169.848559 
L 372.441033 212.788507 
L 372.718114 209.360928 
L 372.995195 218.167901 
L 373.549356 168.753638 
L 373.826437 116.435453 
L 374.103518 208.170796 
L 374.65768 169.610533 
L 374.93476 191.556559 
L 375.211841 186.986454 
L 375.488922 170.991085 
L 376.320164 215.26398 
L 376.597245 195.793428 
L 376.874326 375.836534 
L 377.151407 205.124059 
L 377.428488 205.647717 
L 377.705569 187.367296 
L 377.982649 180.321717 
L 378.25973 197.17398 
L 378.813892 114.102795 
L 379.090973 189.223901 
L 379.368054 185.653506 
L 379.645134 180.321717 
L 379.922215 179.98848 
L 380.199296 170.515033 
L 380.476377 146.950427 
L 380.753458 183.463664 
L 381.030539 183.130427 
L 381.307619 181.464243 
L 381.5847 216.930165 
L 381.861781 211.741191 
L 382.138862 201.125217 
L 382.415943 216.787349 
L 382.693023 198.268901 
L 382.970104 190.366427 
L 383.247185 187.319691 
L 383.524266 213.169349 
L 383.801347 181.987901 
L 384.078428 196.983559 
L 384.632589 168.277585 
L 384.90967 188.224191 
L 385.186751 167.42069 
L 385.463832 195.936243 
L 385.740913 211.884007 
L 386.017993 165.992533 
L 386.295074 167.563506 
L 386.572155 209.884586 
L 386.849236 232.687507 
L 387.126317 188.605033 
L 387.403398 211.931612 
L 387.957559 190.033191 
L 388.23464 302.762455 
L 388.511721 217.549033 
L 388.788802 193.365559 
L 389.065882 203.267454 
L 389.342963 146.712401 
L 389.620044 214.121454 
L 389.897125 195.936243 
L 390.174206 185.225059 
L 390.451287 204.362375 
L 390.728367 213.074138 
L 391.005448 203.029428 
L 391.282529 183.273243 
L 391.55961 199.697059 
L 391.836691 181.79748 
L 392.113772 190.890085 
L 392.390852 219.929296 
L 392.667933 221.262244 
L 392.945014 223.594901 
L 393.222095 208.694454 
L 393.499176 219.596059 
L 393.776257 302.143586 
L 394.053337 220.119717 
L 394.330418 202.553375 
L 394.607499 215.882849 
L 394.88458 199.459033 
L 395.161661 215.882849 
L 395.438741 192.365849 
L 395.715822 205.171664 
L 395.992903 199.316217 
L 396.269984 196.793138 
L 396.547065 207.980375 
L 396.824146 176.798927 
L 397.101226 170.848269 
L 397.378307 192.889506 
L 397.655388 204.886033 
L 397.932469 233.734823 
L 398.486631 193.984428 
L 398.763711 199.88748 
L 399.040792 196.793138 
L 399.317873 204.505191 
L 399.594954 164.421559 
L 399.872035 205.600112 
L 400.149116 197.17398 
L 400.426196 201.172822 
L 400.703277 200.458743 
L 400.980358 176.180059 
L 401.257439 199.221007 
L 401.53452 173.609375 
L 401.811601 205.695322 
L 402.088681 193.841612 
L 402.365762 208.361217 
L 402.642843 205.790533 
L 402.919924 211.455559 
L 403.197005 200.887191 
L 403.474085 173.180927 
L 403.751166 204.362375 
L 404.028247 375.836534 
L 404.305328 214.740322 
L 404.582409 196.793138 
L 404.85949 211.122322 
L 405.13657 209.360928 
L 405.413651 201.315638 
L 405.690732 197.459612 
L 405.967813 186.272375 
L 406.244894 228.069796 
L 406.521975 188.93827 
L 406.799055 185.177454 
L 407.076136 210.027401 
L 407.353217 176.798927 
L 407.630298 225.308691 
L 407.907379 185.082243 
L 408.18446 182.083112 
L 408.46154 176.798927 
L 408.738621 180.131296 
L 409.015702 210.075007 
L 409.292783 205.31448 
L 409.569864 206.171375 
L 409.846944 181.749875 
L 410.124025 208.218401 
L 410.401106 177.655822 
L 410.678187 196.602717 
L 410.955268 191.175717 
L 411.509429 215.454401 
L 411.78651 222.928428 
L 412.063591 227.355717 
L 412.340672 183.654085 
L 412.894834 256.204507 
L 413.171914 220.167322 
L 413.726076 197.17398 
L 414.003157 202.839007 
L 414.280238 190.509243 
L 414.834399 206.790243 
L 415.11148 193.317954 
L 415.388561 204.219559 
L 415.665642 183.320848 
L 415.942723 197.935664 
L 416.219803 189.985585 
L 416.496884 200.649164 
L 416.773965 169.610533 
L 417.051046 213.597796 
L 417.605208 200.125507 
L 417.882288 289.528191 
L 418.159369 183.939717 
L 418.43645 171.657559 
L 418.713531 217.834665 
L 419.267693 185.034638 
L 419.544773 179.08398 
L 419.821854 228.403033 
L 420.098935 227.117691 
L 420.376016 187.12927 
L 420.653097 209.83698 
L 420.930178 193.698796 
L 421.207258 198.98298 
L 421.484339 215.359191 
L 421.76142 173.847401 
L 422.038501 155.852611 
L 422.592662 219.215217 
L 422.869743 181.035796 
L 423.146824 182.083112 
L 423.423905 192.032612 
L 423.700986 175.46598 
L 424.255147 203.695901 
L 424.532228 205.885743 
L 425.08639 213.835822 
L 425.640552 194.174849 
L 425.917632 188.462217 
L 426.194713 175.323164 
L 426.748875 200.553954 
L 427.303037 182.178322 
L 427.580117 190.128401 
L 427.857198 171.657559 
L 428.134279 204.076743 
L 428.41136 211.598375 
L 428.688441 190.84248 
L 428.965522 215.882849 
L 429.242602 193.651191 
L 429.519683 218.78677 
L 430.073845 173.609375 
L 430.350926 176.798927 
L 430.628006 183.60648 
L 430.905087 208.408822 
L 431.182168 210.408243 
L 431.459249 205.742928 
L 431.73633 193.746401 
L 432.013411 198.98298 
L 432.290491 219.120007 
L 432.567572 179.369612 
L 432.844653 180.512138 
L 433.121734 184.987033 
L 433.398815 227.593744 
L 433.952976 161.612848 
L 434.230057 220.500559 
L 434.507138 197.17398 
L 434.784219 188.700243 
L 435.338381 216.025665 
L 435.892542 190.699664 
L 436.169623 195.412585 
L 436.446704 217.929875 
L 436.723785 202.648585 
L 437.000865 204.552796 
L 437.277946 188.557427 
L 437.555027 199.649454 
L 437.832108 198.88777 
L 438.109189 202.934217 
L 438.38627 174.847112 
L 438.66335 187.700533 
L 438.940431 208.075586 
L 439.217512 188.462217 
L 439.494593 184.606191 
L 439.771674 222.40477 
L 440.048755 210.931901 
L 440.325835 189.223901 
L 440.602916 193.46077 
L 440.879997 191.937401 
L 441.157078 185.272664 
L 441.434159 198.316506 
L 441.71124 181.464243 
L 441.98832 183.320848 
L 442.265401 186.510401 
L 442.542482 152.85348 
L 442.819563 195.317375 
L 443.096644 196.17427 
L 443.373724 189.747559 
L 443.650805 163.517059 
L 443.927886 191.889796 
L 444.482048 210.884296 
L 444.759129 202.220138 
L 445.036209 215.121165 
L 445.31329 175.418375 
L 445.590371 211.55077 
L 445.867452 194.603296 
L 446.144533 194.793717 
L 446.421614 209.979796 
L 446.698694 375.836534 
L 446.975775 235.924665 
L 447.252856 218.501138 
L 447.529937 193.698796 
L 447.807018 193.603585 
L 448.084099 207.313901 
L 448.361179 190.937691 
L 448.63826 192.461059 
L 449.192422 177.655822 
L 449.746583 243.969954 
L 450.023664 184.796612 
L 450.300745 185.32027 
L 450.577826 205.457296 
L 450.854907 179.274401 
L 451.131988 192.127822 
L 451.409068 186.31998 
L 451.686149 136.144032 
L 452.240311 154.567269 
L 452.517392 153.662769 
L 452.794473 138.333874 
L 453.071553 141.809059 
L 453.348634 138.571901 
L 453.625715 125.385243 
L 453.902796 134.811085 
L 454.179877 139.952453 
L 454.456958 215.882849 
L 454.734038 197.126375 
L 455.011119 227.070086 
L 455.2882 375.836534 
L 455.565281 144.903401 
L 455.842362 140.000059 
L 456.119443 160.18469 
L 456.396523 145.855506 
L 456.673604 152.567848 
L 456.950685 140.238085 
L 457.227766 133.097296 
L 457.504847 132.14519 
L 457.781927 157.280769 
L 458.059008 207.313901 
L 458.336089 160.565533 
L 458.61317 188.985875 
L 458.890251 155.376559 
L 459.167332 183.701691 
L 459.444412 177.27498 
L 459.721493 165.088033 
L 459.998574 121.148374 
L 460.552736 168.515612 
L 460.829817 146.950427 
L 461.106897 139.714427 
L 461.383978 153.567559 
L 461.661059 121.100769 
L 461.93814 134.144611 
L 462.215221 157.090348 
L 462.492302 127.384664 
L 462.769382 118.720506 
L 463.046463 159.28019 
L 463.323544 117.625585 
L 463.877706 210.075007 
L 464.154786 137.286559 
L 464.431867 240.447165 
L 464.708948 150.758848 
L 464.986029 161.327217 
L 465.26311 164.421559 
L 465.540191 130.431401 
L 465.817271 116.67348 
L 466.094352 129.193664 
L 466.371433 130.812243 
L 466.648514 155.328954 
L 466.925595 158.28048 
L 467.202676 135.477559 
L 467.479756 143.951296 
L 467.756837 145.855506 
L 468.310999 125.861295 
L 468.58808 170.610243 
L 468.865161 146.141138 
L 469.142241 142.618348 
L 469.419322 375.836534 
L 469.696403 272.295086 
L 469.973484 375.836534 
L 470.250565 254.681138 
L 470.527645 267.106112 
L 470.804726 310.617323 
L 471.081807 375.836534 
L 471.358888 255.490428 
L 471.635969 268.153428 
L 471.91305 270.819323 
L 472.19013 323.851586 
L 472.467211 180.083691 
L 472.744292 207.171086 
L 473.021373 182.083112 
L 473.298454 140.571322 
L 473.575535 154.424454 
L 473.852615 181.131006 
L 474.129696 158.851743 
L 474.406777 157.518796 
L 474.683858 150.13998 
L 474.960939 129.622111 
L 475.23802 149.901954 
L 475.5151 150.901664 
L 475.792181 206.504612 
L 476.069262 229.402744 
L 476.346343 143.094401 
L 476.623424 232.259059 
L 476.900504 174.989927 
L 477.177585 276.151112 
L 477.454666 256.966191 
L 477.731747 252.729323 
L 478.008828 203.124638 
L 478.562989 240.304349 
L 478.84007 251.443981 
L 479.117151 242.351375 
L 479.394232 246.683454 
L 479.671313 255.680849 
L 479.948394 255.633244 
L 480.225474 298.430376 
L 480.502555 247.873586 
L 480.779636 229.402744 
L 481.056717 236.115086 
L 481.333798 230.878507 
L 481.887959 268.677086 
L 482.16504 265.106691 
L 482.442121 259.060823 
L 482.719202 294.66956 
L 482.996283 375.836534 
L 483.273364 375.836534 
L 483.550444 248.349638 
L 483.827525 230.64048 
L 484.104606 243.684323 
L 484.381687 278.674191 
L 484.658768 237.924086 
L 484.935848 303.381323 
L 485.212929 292.432112 
L 485.49001 232.401875 
L 486.044172 279.816718 
L 486.321253 233.068349 
L 486.598333 271.676218 
L 486.875414 244.779244 
L 487.152495 258.918007 
L 487.429576 249.396954 
L 487.706657 208.551638 
L 487.983738 213.740612 
L 488.260818 243.160665 
L 488.537899 252.776928 
L 488.81498 184.558585 
L 489.092061 247.73077 
L 489.369142 241.351665 
L 489.646223 246.635849 
L 489.923303 235.734244 
L 490.200384 234.306086 
L 490.477465 276.817586 
L 490.754546 221.50027 
L 491.308707 249.682586 
L 491.585788 247.921191 
L 491.862869 295.145612 
L 492.13995 312.616744 
L 492.417031 266.106402 
L 492.694112 276.341533 
L 492.971192 240.875612 
L 493.248273 224.356586 
L 493.525354 244.588823 
L 494.079516 222.595191 
L 494.633677 251.491586 
L 494.910758 258.013507 
L 495.187839 269.295954 
L 495.46492 250.967928 
L 495.742001 259.870112 
L 496.019082 263.678533 
L 496.296162 237.067191 
L 496.850324 257.251823 
L 497.127405 234.544112 
L 497.404486 241.113638 
L 497.681566 221.119428 
L 497.958647 223.499691 
L 498.235728 218.88198 
L 498.512809 246.064586 
L 498.78989 228.688665 
L 499.066971 252.586507 
L 499.344051 264.297402 
L 499.621132 229.259928 
L 499.898213 239.828296 
L 500.175294 225.641928 
L 500.452375 225.261086 
L 500.729456 362.364245 
L 501.006536 229.355138 
L 501.283617 243.493902 
L 501.560698 236.781559 
L 501.837779 245.064875 
L 502.11486 267.439349 
L 502.391941 225.499112 
L 502.946102 261.012639 
L 503.223183 218.88198 
L 503.500264 250.777507 
L 503.777345 238.638165 
L 504.054425 234.496507 
L 504.608587 260.727007 
L 504.885668 222.357165 
L 505.162749 288.814112 
L 505.43983 253.729033 
L 505.71691 200.411138 
L 505.993991 222.976033 
L 506.271072 234.877349 
L 506.548153 257.775481 
L 507.102315 241.780112 
L 507.379395 279.911928 
L 507.656476 238.68577 
L 507.933557 253.300586 
L 508.210638 308.094244 
L 508.487719 264.82106 
L 508.7648 366.505902 
L 509.04188 236.781559 
L 509.318961 208.504033 
L 509.596042 231.116533 
L 509.873123 228.403033 
L 510.150204 264.249796 
L 510.427285 246.635849 
L 510.704365 249.111323 
L 511.535608 228.260217 
L 511.812689 241.446875 
L 512.089769 233.115954 
L 512.643931 332.991797 
L 512.921012 375.836534 
L 519.293871 375.836534 
L 519.570952 294.431534 
L 519.848033 324.946507 
L 520.679275 278.340954 
L 520.956356 318.757823 
L 521.233437 257.58506 
L 521.510518 276.531954 
L 521.787598 243.731928 
L 522.064679 277.293639 
L 522.34176 261.774323 
L 522.618841 286.62427 
L 523.173003 237.686059 
L 523.450083 240.970823 
L 523.727164 241.922928 
L 524.004245 264.345007 
L 524.281326 182.940006 
L 524.558407 191.128112 
L 524.835487 179.655243 
L 525.112568 189.128691 
L 525.389649 169.562927 
L 525.66673 189.84277 
L 525.943811 201.839296 
L 526.220892 198.744954 
L 526.497972 185.41548 
L 526.775053 200.79198 
L 527.052134 187.414901 
L 527.329215 202.696191 
L 527.606296 196.364691 
L 527.883377 176.656112 
L 528.160457 206.790243 
L 528.9917 183.178033 
L 529.268781 195.507796 
L 529.545862 193.317954 
L 529.822942 176.275269 
L 530.100023 194.127243 
L 530.377104 199.839875 
L 530.931266 169.372506 
L 531.208346 186.986454 
L 531.485427 177.370191 
L 531.762508 202.220138 
L 532.039589 178.845954 
L 532.31667 200.79198 
L 532.593751 195.983849 
L 532.870831 199.316217 
L 533.147912 200.744375 
L 533.424993 209.74177 
L 533.702074 173.752191 
L 533.979155 297.097428 
L 534.256236 291.908455 
L 534.533316 333.277429 
L 534.810397 272.437902 
L 535.087478 283.339507 
L 535.364559 230.973717 
L 536.195801 274.86577 
L 536.472882 281.673323 
L 536.749963 249.492165 
L 537.027044 266.439639 
L 537.304125 243.255875 
L 537.581205 266.249218 
L 537.858286 249.444559 
L 538.135367 266.582454 
L 538.412448 273.199586 
L 538.689529 250.729902 
L 538.96661 251.586796 
L 539.520771 263.726139 
L 539.797852 255.109586 
L 540.074933 269.629191 
L 540.352014 257.347033 
L 540.906175 222.071533 
L 541.460337 262.631217 
L 541.737418 251.34877 
L 542.014499 267.53456 
L 542.29158 245.778954 
L 542.56866 310.807744 
L 542.845741 252.967349 
L 543.122822 268.153428 
L 543.399903 243.922349 
L 543.676984 233.449191 
L 543.954065 241.542086 
L 544.231145 239.066612 
L 544.508226 229.069507 
L 544.785307 231.878217 
L 545.062388 235.97227 
L 545.339469 271.009744 
L 545.616549 227.83177 
L 546.170711 233.544401 
L 546.447792 267.058507 
L 546.724873 219.643665 
L 547.001954 224.689822 
L 547.556115 375.836534 
L 547.833196 223.118849 
L 548.110277 240.970823 
L 548.387358 219.596059 
L 548.664439 213.45498 
L 548.941519 240.351954 
L 549.2186 232.735112 
L 549.495681 253.586217 
L 549.772762 241.827717 
L 550.049843 254.633533 
L 550.326924 248.492454 
L 550.604004 248.63527 
L 550.881085 253.252981 
L 551.158166 234.306086 
L 551.435247 238.209717 
L 551.712328 263.250086 
L 551.989408 243.874744 
L 552.266489 242.637007 
L 552.54357 246.683454 
L 552.820651 212.788507 
L 553.097732 246.397823 
L 553.651893 220.833796 
L 553.928974 230.402454 
L 554.206055 215.216375 
L 554.483136 249.111323 
L 555.037298 222.119138 
L 555.314378 260.39377 
L 555.591459 260.155744 
L 555.86854 256.728165 
L 556.145621 218.215507 
L 556.422702 242.160954 
L 556.699783 235.591428 
L 556.976863 253.443402 
L 557.253944 260.39377 
L 557.531025 207.93277 
L 557.808106 235.734244 
L 558.085187 234.639323 
L 558.362267 222.642796 
L 558.639348 254.347902 
L 558.916429 250.539481 
L 559.19351 195.983849 
L 559.470591 190.414033 
L 559.747672 165.468875 
L 560.024752 203.172243 
L 560.301833 201.982112 
L 560.578914 162.707769 
L 560.855995 189.176296 
L 561.133076 188.985875 
L 561.410157 200.268322 
L 561.687237 243.017849 
L 561.964318 234.972559 
L 562.241399 200.030296 
L 562.51848 197.507217 
L 562.795561 200.79198 
L 563.072642 140.380901 
L 563.349722 191.461349 
L 563.626803 211.693586 
L 563.903884 180.750164 
L 564.180965 186.177164 
L 564.458046 175.894427 
L 564.735126 224.832638 
L 565.012207 226.451217 
L 565.289288 193.841612 
L 565.566369 185.748717 
L 565.84345 198.506928 
L 566.397611 176.513296 
L 566.674692 200.601559 
L 566.951773 198.364112 
L 567.228854 187.081664 
L 567.505935 204.362375 
L 567.783016 204.124349 
L 568.060096 181.178612 
L 568.337177 230.497665 
L 568.614258 256.537744 
L 568.891339 220.833796 
L 569.16842 257.68027 
L 569.445501 260.108139 
L 569.722581 235.305796 
L 570.276743 258.346744 
L 570.553824 248.302033 
L 570.830905 375.836534 
L 571.107986 260.488981 
L 571.385066 240.542375 
L 571.662147 256.870981 
L 571.939228 234.353691 
L 572.216309 235.924665 
L 572.49339 254.443112 
L 572.77047 260.727007 
L 573.047551 245.398112 
L 573.324632 257.823086 
L 573.878794 242.970244 
L 574.155875 222.214349 
L 574.432955 221.167033 
L 574.710036 281.435297 
L 575.264198 218.167901 
L 575.541279 190.794875 
L 575.81836 292.384507 
L 576.09544 258.013507 
L 576.372521 184.701401 
L 576.926683 259.39406 
L 577.480845 200.173112 
L 577.757925 247.873586 
L 578.035006 169.372506 
L 578.312087 232.877928 
L 578.589168 244.541217 
L 578.866249 240.732796 
L 579.143329 243.541507 
L 579.42041 242.970244 
L 579.697491 253.919454 
L 579.974572 256.490138 
L 580.251653 249.063717 
L 580.528734 237.590849 
L 580.805814 211.027112 
L 581.082895 244.065165 
L 581.359976 241.732507 
L 581.637057 199.935085 
L 581.914138 192.889506 
L 582.191219 195.936243 
L 582.468299 195.26977 
L 582.74538 250.396665 
L 583.022461 256.585349 
L 583.299542 235.924665 
L 583.853704 270.866928 
L 584.130784 246.969086 
L 584.407865 288.052428 
L 584.684946 375.836534 
L 585.239108 246.255007 
L 585.516188 241.637296 
L 585.793269 270.105244 
L 586.07035 243.541507 
L 586.347431 331.801665 
L 586.624512 375.836534 
L 588.286997 375.836534 
L 588.564078 305.761586 
L 588.841158 333.372639 
L 589.118239 312.75956 
L 589.39532 303.571744 
L 589.672401 248.016402 
L 589.949482 250.967928 
L 590.503643 242.827428 
L 590.780724 279.150244 
L 591.057805 269.914823 
L 591.334886 239.304638 
L 591.611967 336.371771 
L 591.889047 276.57956 
L 592.166128 246.493033 
L 592.443209 264.202191 
L 592.72029 268.201033 
L 592.997371 247.968796 
L 593.274452 243.398691 
L 593.551532 246.873875 
L 593.828613 233.020744 
L 594.105694 231.116533 
L 594.382775 254.109875 
L 594.659856 264.535428 
L 594.936937 283.81556 
L 595.214017 257.58506 
L 595.491098 256.918586 
L 595.768179 267.677375 
L 596.322341 276.484349 
L 596.599422 243.303481 
L 596.876502 267.058507 
L 597.153583 251.824823 
L 597.430664 277.341244 
L 597.707745 268.819902 
L 597.984826 305.190323 
L 598.261907 371.837692 
L 598.816068 327.041139 
L 599.093149 268.867507 
L 599.37023 241.684902 
L 599.647311 288.33806 
L 599.924391 252.824533 
L 600.201472 247.064296 
L 600.478553 261.20306 
L 600.755634 250.587086 
L 601.032715 260.774612 
L 601.309796 250.729902 
L 601.586876 247.111902 
L 601.863957 264.202191 
L 602.141038 243.541507 
L 602.418119 344.988323 
L 602.6952 285.910191 
L 602.972281 275.865481 
L 603.249361 283.434718 
L 603.526442 247.159507 
L 603.803523 268.53427 
L 604.080604 269.200744 
L 604.357685 241.922928 
L 604.634766 266.63006 
L 605.188927 230.973717 
L 605.466008 245.493323 
L 605.743089 267.153718 
L 606.02017 219.78648 
L 606.29725 238.828586 
L 606.574331 232.306665 
L 606.851412 244.874454 
L 607.128493 237.686059 
L 607.405574 262.345586 
L 607.682655 229.069507 
L 607.959735 237.400428 
L 608.236816 250.682296 
L 608.513897 223.452086 
L 608.790978 261.869533 
L 609.34514 193.079928 
L 609.62222 257.489849 
L 609.899301 241.970533 
L 610.176382 276.246323 
L 610.453463 247.111902 
L 610.730544 275.437033 
L 611.284705 208.123191 
L 611.561786 254.014665 
L 611.838867 375.836534 
L 612.115948 365.887034 
L 612.393029 375.836534 
L 612.670109 270.200454 
L 612.94719 375.836534 
L 613.224271 375.836534 
L 613.778433 277.055612 
L 614.332594 375.836534 
L 614.609675 252.062849 
L 614.886756 269.057928 
L 615.163837 293.003376 
L 615.440918 262.869244 
L 615.717999 270.628902 
L 615.995079 269.581586 
L 616.27216 264.535428 
L 616.549241 266.772875 
L 616.826322 260.108139 
L 617.103403 245.302902 
L 617.380484 290.099455 
L 617.657564 277.864902 
L 617.934645 253.06256 
L 618.211726 265.011481 
L 618.488807 266.677665 
L 618.765888 267.296533 
L 619.042968 277.436454 
L 619.320049 268.915112 
L 619.59713 275.532244 
L 619.874211 251.34877 
L 620.151292 264.583033 
L 620.428373 242.637007 
L 620.705453 256.299717 
L 621.259615 247.397533 
L 621.536696 234.829744 
L 621.813777 268.486665 
L 622.090858 268.486665 
L 622.367938 267.486954 
L 622.645019 241.066033 
L 622.9221 259.39406 
L 623.199181 240.351954 
L 623.476262 261.774323 
L 623.753343 260.346165 
L 624.030423 271.342981 
L 624.307504 259.584481 
L 624.584585 243.017849 
L 624.861666 260.155744 
L 625.138747 248.873296 
L 625.415828 177.798638 
L 625.692908 188.081375 
L 625.969989 180.083691 
L 626.24707 147.140848 
L 626.524151 160.517927 
L 626.801232 184.463375 
L 627.078312 177.798638 
L 627.355393 130.098164 
L 627.632474 127.479874 
L 627.909555 164.61198 
L 628.186636 43.742216 
L 628.463717 120.29148 
L 628.740797 144.998611 
L 629.017878 154.900506 
L 629.294959 150.616032 
L 629.57204 165.468875 
L 629.849121 145.236638 
L 630.126202 142.142296 
L 630.680363 130.669427 
L 630.957444 129.003243 
L 631.234525 129.764927 
L 631.788687 143.90369 
L 632.065767 133.04969 
L 632.342848 114.293216 
L 632.619929 137.286559 
L 632.89701 143.856085 
L 633.174091 128.43198 
L 633.451171 137.810217 
L 633.728252 127.337059 
L 634.005333 157.185559 
L 634.282414 107.866506 
L 634.559495 124.575953 
L 634.836576 131.907164 
L 635.113656 142.713559 
L 635.390737 149.092664 
L 635.667818 144.046506 
L 635.944899 182.940006 
L 636.22198 153.710375 
L 636.499061 249.920612 
L 636.776141 263.10727 
L 637.053222 266.915691 
L 637.607384 138.905138 
L 637.884465 136.858111 
L 638.161546 167.087454 
L 638.438626 142.761164 
L 638.715707 272.437902 
L 638.992788 343.131718 
L 639.269869 351.748271 
L 639.54695 375.836534 
L 639.82403 337.18106 
L 640.101111 375.836534 
L 640.655273 375.836534 
L 640.932354 350.700955 
L 641.209435 367.077166 
L 641.486515 294.288718 
L 641.763596 316.425165 
L 642.040677 268.486665 
L 642.317758 261.393481 
L 642.87192 200.601559 
L 643.149 218.596349 
L 643.426081 215.740033 
L 643.703162 228.926691 
L 643.980243 223.261665 
L 644.257324 292.765349 
L 644.534405 264.106981 
L 645.088566 252.681717 
L 645.365647 261.536296 
L 645.642728 258.537165 
L 645.919809 241.066033 
L 646.196889 266.249218 
L 646.47397 258.679981 
L 646.751051 258.632375 
L 647.028132 251.491586 
L 647.305213 272.675928 
L 647.582294 260.155744 
L 647.859374 311.902665 
L 648.136455 263.964165 
L 648.413536 265.82077 
L 648.690617 253.824244 
L 648.967698 248.397244 
L 649.244779 257.013796 
L 649.521859 273.96127 
L 649.79894 267.963007 
L 650.076021 258.346744 
L 650.353102 259.39406 
L 650.630183 256.156902 
L 650.907264 262.345586 
L 651.184344 259.060823 
L 651.461425 250.44427 
L 652.015587 220.833796 
L 652.292668 375.836534 
L 675.013295 375.836534 
L 675.013295 375.836534 
" clip-path="url(#p1b472899af)" style="fill: none; stroke: #2878b5; stroke-width: 1.5; stroke-linecap: square"/>
   </g>
   <g id="patch_3">
    <path d="M 37.575 392.44125 
L 37.575 27.1375 
" style="fill: none; stroke: #000000; stroke-width: 0.8; stroke-linejoin: miter; stroke-linecap: square"/>
   </g>
   <g id="patch_4">
    <path d="M 705.3675 392.44125 
L 705.3675 27.1375 
" style="fill: none; stroke: #000000; stroke-width: 0.8; stroke-linejoin: miter; stroke-linecap: square"/>
   </g>
   <g id="patch_5">
    <path d="M 37.575 392.44125 
L 705.3675 392.44125 
" style="fill: none; stroke: #000000; stroke-width: 0.8; stroke-linejoin: miter; stroke-linecap: square"/>
   </g>
   <g id="patch_6">
    <path d="M 37.575 27.1375 
L 705.3675 27.1375 
" style="fill: none; stroke: #000000; stroke-width: 0.8; stroke-linejoin: miter; stroke-linecap: square"/>
   </g>
   <g id="text_16">
    <!-- 原始 qvm_L/s 时间序列数据 -->
    <g transform="translate(296.47125 17.1375) scale(0.12 -0.12)">
     <defs>
      <path id="SimHei-539f" d="M 3850 4275 
Q 3675 4025 3600 3700 
L 5450 3700 
Q 5425 3475 5425 3000 
L 5425 2225 
Q 5425 1825 5450 1475 
L 4050 1475 
L 4050 -50 
Q 4050 -400 3825 -487 
Q 3600 -575 3100 -625 
Q 3050 -325 2925 -50 
Q 3400 -75 3475 -37 
Q 3550 0 3550 175 
L 3550 1475 
L 2125 1475 
Q 2150 1775 2150 2200 
L 2150 3025 
Q 2150 3425 2125 3700 
L 3150 3700 
Q 3300 4250 3300 4425 
L 3850 4275 
z
M 275 -325 
Q 725 275 875 1037 
Q 1025 1800 1025 2300 
L 1025 4125 
Q 1025 4650 1000 4900 
L 5025 4900 
Q 5575 4900 5800 4925 
L 5800 4475 
Q 5600 4500 5025 4500 
L 1525 4500 
L 1525 2375 
Q 1500 1650 1412 1112 
Q 1325 575 1137 125 
Q 950 -325 800 -575 
Q 550 -400 275 -325 
z
M 4925 2775 
L 4925 3325 
L 2625 3325 
L 2625 2775 
L 4925 2775 
z
M 4925 1875 
L 4925 2400 
L 2625 2400 
L 2625 1875 
L 4925 1875 
z
M 1475 -50 
Q 1800 150 2087 450 
Q 2375 750 2575 1100 
Q 2800 875 2975 750 
Q 2300 -50 1825 -400 
Q 1675 -225 1475 -50 
z
M 4825 1075 
Q 5700 300 5925 25 
Q 5750 -125 5575 -325 
Q 5250 75 4500 725 
Q 4675 925 4825 1075 
z
" transform="scale(0.015625)"/>
      <path id="SimHei-59cb" d="M 1750 5075 
Q 1650 4900 1587 4587 
Q 1525 4275 1475 3875 
L 2550 3875 
Q 2400 2150 1950 1100 
Q 2275 850 2725 425 
Q 2550 275 2375 50 
Q 2000 500 1750 675 
Q 1525 275 1250 -62 
Q 975 -400 700 -675 
Q 600 -525 250 -350 
Q 575 -125 862 200 
Q 1150 525 1375 975 
Q 800 1400 500 1550 
Q 875 2925 950 3425 
Q 650 3425 325 3400 
L 325 3900 
Q 675 3875 1025 3875 
Q 1175 4825 1175 5225 
Q 1550 5125 1750 5075 
z
M 5725 2050 
Q 5700 1650 5700 650 
Q 5700 -325 5725 -650 
L 5200 -650 
L 5200 -100 
L 3450 -100 
L 3450 -675 
L 2950 -675 
Q 2975 -300 2975 675 
Q 2975 1650 2950 2050 
L 5725 2050 
z
M 4400 4950 
Q 3750 3875 3250 3150 
Q 3875 3150 4250 3175 
Q 4625 3200 5200 3225 
Q 4875 3675 4625 3900 
Q 4825 4000 5025 4225 
Q 5750 3300 6125 2850 
Q 6000 2775 5725 2550 
Q 5575 2775 5450 2875 
Q 4575 2825 3937 2762 
Q 3300 2700 2825 2575 
Q 2775 2800 2600 3100 
Q 2875 3225 3237 3850 
Q 3600 4475 3825 5200 
Q 4025 5050 4400 4950 
z
M 5200 325 
L 5200 1600 
L 3450 1600 
L 3450 325 
L 5200 325 
z
M 1025 1775 
Q 1300 1550 1575 1400 
Q 1725 1725 1875 2337 
Q 2025 2950 2050 3425 
L 1400 3425 
Q 1300 2950 1025 1775 
z
" transform="scale(0.015625)"/>
      <path id="SimHei-5217" d="M 2950 4800 
Q 3525 4800 3825 4825 
L 3825 4400 
Q 3525 4425 2800 4425 
L 2125 4425 
Q 2075 4125 1925 3500 
L 3425 3500 
Q 3300 2500 3100 1862 
Q 2900 1225 2575 762 
Q 2250 300 1850 -12 
Q 1450 -325 925 -675 
Q 725 -375 475 -150 
Q 1125 125 1550 437 
Q 1975 750 2250 1225 
Q 2100 1350 1862 1550 
Q 1625 1750 1400 1925 
L 1750 2325 
Q 1925 2200 2100 2037 
Q 2275 1875 2500 1650 
Q 2650 2025 2737 2337 
Q 2825 2650 2875 3100 
L 1775 3100 
Q 1600 2650 1350 2237 
Q 1100 1825 775 1525 
Q 600 1675 325 1850 
Q 600 2125 825 2462 
Q 1050 2800 1200 3125 
Q 1350 3450 1425 3775 
Q 1500 4100 1550 4425 
L 1100 4425 
Q 575 4425 375 4400 
L 375 4825 
Q 575 4800 1125 4800 
L 2950 4800 
z
M 5975 5050 
Q 5925 4675 5925 4250 
L 5925 50 
Q 5925 -275 5737 -400 
Q 5550 -525 4900 -625 
Q 4825 -250 4650 25 
Q 5150 0 5287 25 
Q 5425 50 5425 325 
L 5425 4250 
Q 5425 4650 5400 5050 
L 5975 5050 
z
M 4725 4300 
Q 4675 4000 4675 3450 
L 4675 1650 
Q 4675 1200 4700 850 
L 4100 850 
Q 4150 1200 4150 1650 
L 4150 3550 
Q 4150 3975 4100 4300 
L 4725 4300 
z
" transform="scale(0.015625)"/>
      <path id="SimHei-6570" d="M 4525 4925 
Q 4475 4800 4400 4587 
Q 4325 4375 4175 3825 
L 5325 3825 
Q 5575 3825 5925 3850 
L 5925 3400 
Q 5650 3425 5500 3425 
Q 5500 3025 5362 2162 
Q 5225 1300 4875 675 
Q 5125 375 5437 137 
Q 5750 -100 6025 -200 
Q 5725 -425 5625 -625 
Q 5325 -450 5075 -225 
Q 4825 0 4575 325 
Q 4300 25 3987 -187 
Q 3675 -400 3200 -650 
Q 3075 -425 2850 -300 
Q 3225 -150 3650 125 
Q 4075 400 4300 675 
Q 4125 1025 3962 1425 
Q 3800 1825 3675 2475 
Q 3600 2275 3425 1950 
Q 3250 2050 3000 2150 
Q 3400 2850 3650 3675 
Q 3900 4500 3975 5100 
Q 4275 4975 4525 4925 
z
M 2100 2250 
Q 2000 2150 1875 1925 
L 3250 1925 
Q 3100 1300 2725 675 
Q 3125 525 3350 400 
Q 3225 225 3125 25 
Q 2900 175 2450 325 
Q 1950 -225 725 -650 
Q 600 -375 400 -275 
Q 1575 0 2000 475 
Q 1300 650 850 775 
Q 1000 1000 1250 1525 
Q 1000 1525 425 1500 
L 425 1950 
Q 900 1925 1400 1925 
Q 1500 2150 1550 2425 
Q 1825 2325 2100 2250 
z
M 1775 3950 
Q 1775 4550 1750 5100 
L 2250 5100 
Q 2225 4575 2225 3950 
Q 3075 3950 3425 3975 
L 3425 3525 
Q 3075 3550 2225 3550 
Q 2225 2825 2250 2425 
L 1750 2425 
Q 1775 2775 1775 3300 
Q 1650 3100 1300 2787 
Q 950 2475 650 2300 
Q 525 2525 275 2625 
Q 500 2700 875 2975 
Q 1250 3250 1450 3550 
Q 950 3550 500 3525 
L 500 3975 
Q 925 3950 1775 3950 
z
M 3975 3175 
Q 4200 1700 4600 1125 
Q 4850 1700 4937 2287 
Q 5025 2875 5050 3425 
L 4075 3425 
L 3975 3175 
z
M 1450 1000 
Q 1750 925 2275 800 
Q 2475 1050 2650 1525 
L 1725 1525 
Q 1600 1275 1450 1000 
z
M 3325 4825 
Q 3200 4625 3125 4450 
Q 3050 4275 2925 4025 
Q 2725 4125 2525 4175 
Q 2725 4500 2900 5000 
Q 3150 4875 3325 4825 
z
M 2575 3375 
Q 2900 3050 3200 2725 
Q 3050 2600 2875 2425 
Q 2525 2850 2300 3100 
Q 2450 3225 2575 3375 
z
M 925 5000 
Q 1275 4650 1500 4300 
L 1125 4075 
Q 950 4425 600 4725 
Q 825 4875 925 5000 
z
" transform="scale(0.015625)"/>
      <path id="SimHei-636e" d="M 5750 4775 
Q 5725 4550 5725 4225 
L 5725 3900 
Q 5725 3450 5750 3250 
L 3100 3250 
L 3100 2500 
L 4250 2500 
Q 4250 2725 4225 3175 
L 4700 3175 
Q 4675 2775 4675 2500 
L 5350 2500 
Q 5800 2500 6100 2525 
L 6100 2075 
Q 5800 2100 5375 2100 
L 4675 2100 
L 4675 1425 
L 5775 1425 
Q 5750 950 5750 800 
L 5750 175 
Q 5750 -225 5775 -575 
L 5325 -575 
L 5325 -225 
L 3675 -225 
L 3675 -600 
L 3225 -600 
Q 3250 -325 3250 100 
L 3250 825 
Q 3250 1075 3225 1425 
L 4250 1425 
L 4250 2100 
L 3075 2100 
Q 3050 1375 2887 737 
Q 2725 100 2425 -475 
Q 2200 -325 1950 -250 
Q 2250 150 2387 600 
Q 2525 1050 2600 1562 
Q 2675 2075 2675 2625 
L 2675 3575 
Q 2675 3975 2650 4775 
L 5750 4775 
z
M 1275 4425 
Q 1275 4775 1250 5075 
L 1750 5075 
Q 1725 4800 1725 4425 
L 1725 3775 
Q 1975 3775 2500 3800 
L 2500 3375 
Q 1975 3400 1725 3400 
L 1725 2450 
Q 2050 2625 2400 2850 
Q 2425 2650 2525 2475 
Q 2050 2200 1725 2000 
L 1725 175 
Q 1725 -300 1487 -400 
Q 1250 -500 775 -575 
Q 725 -325 600 -50 
Q 1025 -50 1150 -12 
Q 1275 25 1275 325 
L 1275 1800 
Q 900 1600 525 1325 
Q 450 1525 275 1800 
Q 775 1975 1275 2250 
L 1275 3400 
Q 800 3400 350 3375 
L 350 3800 
Q 800 3775 1275 3775 
L 1275 4425 
z
M 5300 3625 
L 5300 4400 
L 3100 4400 
L 3100 3625 
L 5300 3625 
z
M 5325 150 
L 5325 1075 
L 3675 1075 
L 3675 150 
L 5325 150 
z
" transform="scale(0.015625)"/>
     </defs>
     <use xlink:href="#SimHei-539f"/>
     <use xlink:href="#SimHei-59cb" transform="translate(100 0)"/>
     <use xlink:href="#SimHei-20" transform="translate(200 0)"/>
     <use xlink:href="#SimHei-71" transform="translate(250 0)"/>
     <use xlink:href="#SimHei-76" transform="translate(300 0)"/>
     <use xlink:href="#SimHei-6d" transform="translate(350 0)"/>
     <use xlink:href="#SimHei-5f" transform="translate(400 0)"/>
     <use xlink:href="#SimHei-4c" transform="translate(450 0)"/>
     <use xlink:href="#SimHei-2f" transform="translate(500 0)"/>
     <use xlink:href="#SimHei-73" transform="translate(550 0)"/>
     <use xlink:href="#SimHei-20" transform="translate(600 0)"/>
     <use xlink:href="#SimHei-65f6" transform="translate(650 0)"/>
     <use xlink:href="#SimHei-95f4" transform="translate(750 0)"/>
     <use xlink:href="#SimHei-5e8f" transform="translate(850 0)"/>
     <use xlink:href="#SimHei-5217" transform="translate(950 0)"/>
     <use xlink:href="#SimHei-6570" transform="translate(1050 0)"/>
     <use xlink:href="#SimHei-636e" transform="translate(1150 0)"/>
    </g>
   </g>
   <g id="legend_1">
    <g id="patch_7">
     <path d="M 323.32125 47.380469 
L 419.62125 47.380469 
Q 421.42125 47.380469 421.42125 45.580469 
L 421.42125 33.4375 
Q 421.42125 31.6375 419.62125 31.6375 
L 323.32125 31.6375 
Q 321.52125 31.6375 321.52125 33.4375 
L 321.52125 45.580469 
Q 321.52125 47.380469 323.32125 47.380469 
z
" style="fill: #ffffff; opacity: 0.8; stroke: #cccccc; stroke-width: 0.5; stroke-linejoin: miter"/>
    </g>
    <g id="line2d_28">
     <path d="M 325.12125 39.435156 
L 334.12125 39.435156 
L 343.12125 39.435156 
" style="fill: none; stroke: #2878b5; stroke-width: 1.5; stroke-linecap: square"/>
    </g>
    <g id="text_17">
     <!-- 原始 qvm_L/s 值 -->
     <g transform="translate(350.32125 42.585156) scale(0.09 -0.09)">
      <use xlink:href="#SimHei-539f"/>
      <use xlink:href="#SimHei-59cb" transform="translate(100 0)"/>
      <use xlink:href="#SimHei-20" transform="translate(200 0)"/>
      <use xlink:href="#SimHei-71" transform="translate(250 0)"/>
      <use xlink:href="#SimHei-76" transform="translate(300 0)"/>
      <use xlink:href="#SimHei-6d" transform="translate(350 0)"/>
      <use xlink:href="#SimHei-5f" transform="translate(400 0)"/>
      <use xlink:href="#SimHei-4c" transform="translate(450 0)"/>
      <use xlink:href="#SimHei-2f" transform="translate(500 0)"/>
      <use xlink:href="#SimHei-73" transform="translate(550 0)"/>
      <use xlink:href="#SimHei-20" transform="translate(600 0)"/>
      <use xlink:href="#SimHei-503c" transform="translate(650 0)"/>
     </g>
    </g>
   </g>
  </g>
 </g>
 <defs>
  <clipPath id="p1b472899af">
   <rect x="37.575" y="27.1375" width="667.7925" height="365.30375"/>
  </clipPath>
 </defs>
</svg>
