<?xml version="1.0" encoding="utf-8" standalone="no"?>
<!DOCTYPE svg PUBLIC "-//W3C//DTD SVG 1.1//EN"
  "http://www.w3.org/Graphics/SVG/1.1/DTD/svg11.dtd">
<svg xmlns:xlink="http://www.w3.org/1999/xlink" width="712.92625pt" height="423.989062pt" viewBox="0 0 712.92625 423.989062" xmlns="http://www.w3.org/2000/svg" version="1.1">
 <metadata>
  <rdf:RDF xmlns:dc="http://purl.org/dc/elements/1.1/" xmlns:cc="http://creativecommons.org/ns#" xmlns:rdf="http://www.w3.org/1999/02/22-rdf-syntax-ns#">
   <cc:Work>
    <dc:type rdf:resource="http://purl.org/dc/dcmitype/StillImage"/>
    <dc:date>2025-04-23T00:24:06.855034</dc:date>
    <dc:format>image/svg+xml</dc:format>
    <dc:creator>
     <cc:Agent>
      <dc:title>Matplotlib v3.10.0, https://matplotlib.org/</dc:title>
     </cc:Agent>
    </dc:creator>
   </cc:Work>
  </rdf:RDF>
 </metadata>
 <defs>
  <style type="text/css">*{stroke-linejoin: round; stroke-linecap: butt}</style>
 </defs>
 <g id="figure_1">
  <g id="patch_1">
   <path d="M 0 423.989062 
L 712.92625 423.989062 
L 712.92625 0 
L 0 0 
z
" style="fill: #ffffff"/>
  </g>
  <g id="axes_1">
   <g id="patch_2">
    <path d="M 42.23125 392.71875 
L 705.72625 392.71875 
L 705.72625 27.04375 
L 42.23125 27.04375 
z
" style="fill: #ffffff"/>
   </g>
   <g id="matplotlib.axis_1">
    <g id="xtick_1">
     <g id="line2d_1">
      <path d="M 72.114816 392.71875 
L 72.114816 27.04375 
" clip-path="url(#pd7de66dcfe)" style="fill: none; stroke-dasharray: 1.85,0.8; stroke-dashoffset: 0; stroke: #b2b2b2; stroke-opacity: 0.3; stroke-width: 0.5"/>
     </g>
     <g id="line2d_2">
      <defs>
       <path id="m4b4b8bfd9f" d="M 0 0 
L 0 -3.5 
" style="stroke: #000000; stroke-width: 0.8"/>
      </defs>
      <g>
       <use xlink:href="#m4b4b8bfd9f" x="72.114816" y="392.71875" style="stroke: #000000; stroke-width: 0.8"/>
      </g>
     </g>
     <g id="text_1">
      <!-- 0 -->
      <g transform="translate(69.864816 402.40625) scale(0.09 -0.09)">
       <defs>
        <path id="SimHei-30" d="M 225 2537 
Q 250 3200 412 3587 
Q 575 3975 875 4225 
Q 1175 4475 1612 4475 
Q 2050 4475 2375 4112 
Q 2700 3750 2800 3200 
Q 2900 2650 2862 1937 
Q 2825 1225 2612 775 
Q 2400 325 1975 150 
Q 1550 -25 1125 187 
Q 700 400 525 750 
Q 350 1100 275 1487 
Q 200 1875 225 2537 
z
M 750 2687 
Q 675 2000 800 1462 
Q 925 925 1212 700 
Q 1500 475 1800 612 
Q 2100 750 2237 1162 
Q 2375 1575 2375 2062 
Q 2375 2550 2337 2950 
Q 2300 3350 2112 3675 
Q 1925 4000 1612 4012 
Q 1300 4025 1062 3700 
Q 825 3375 750 2687 
z
" transform="scale(0.015625)"/>
       </defs>
       <use xlink:href="#SimHei-30"/>
      </g>
     </g>
    </g>
    <g id="xtick_2">
     <g id="line2d_3">
      <path d="M 209.763669 392.71875 
L 209.763669 27.04375 
" clip-path="url(#pd7de66dcfe)" style="fill: none; stroke-dasharray: 1.85,0.8; stroke-dashoffset: 0; stroke: #b2b2b2; stroke-opacity: 0.3; stroke-width: 0.5"/>
     </g>
     <g id="line2d_4">
      <g>
       <use xlink:href="#m4b4b8bfd9f" x="209.763669" y="392.71875" style="stroke: #000000; stroke-width: 0.8"/>
      </g>
     </g>
     <g id="text_2">
      <!-- 500 -->
      <g transform="translate(203.013669 402.40625) scale(0.09 -0.09)">
       <defs>
        <path id="SimHei-35" d="M 550 1325 
Q 725 650 1150 575 
Q 1575 500 1837 662 
Q 2100 825 2212 1087 
Q 2325 1350 2312 1675 
Q 2300 2000 2137 2225 
Q 1975 2450 1725 2525 
Q 1475 2600 1162 2525 
Q 850 2450 650 2175 
L 225 2225 
Q 275 2375 700 4375 
L 2675 4375 
L 2675 3925 
L 1075 3925 
Q 950 3250 825 2850 
Q 1200 3025 1525 3012 
Q 1850 3000 2150 2862 
Q 2450 2725 2587 2487 
Q 2725 2250 2787 2012 
Q 2850 1775 2837 1500 
Q 2825 1225 2725 937 
Q 2625 650 2425 462 
Q 2225 275 1937 162 
Q 1650 50 1275 75 
Q 900 100 562 350 
Q 225 600 100 1200 
L 550 1325 
z
" transform="scale(0.015625)"/>
       </defs>
       <use xlink:href="#SimHei-35"/>
       <use xlink:href="#SimHei-30" transform="translate(50 0)"/>
       <use xlink:href="#SimHei-30" transform="translate(100 0)"/>
      </g>
     </g>
    </g>
    <g id="xtick_3">
     <g id="line2d_5">
      <path d="M 347.412521 392.71875 
L 347.412521 27.04375 
" clip-path="url(#pd7de66dcfe)" style="fill: none; stroke-dasharray: 1.85,0.8; stroke-dashoffset: 0; stroke: #b2b2b2; stroke-opacity: 0.3; stroke-width: 0.5"/>
     </g>
     <g id="line2d_6">
      <g>
       <use xlink:href="#m4b4b8bfd9f" x="347.412521" y="392.71875" style="stroke: #000000; stroke-width: 0.8"/>
      </g>
     </g>
     <g id="text_3">
      <!-- 1000 -->
      <g transform="translate(338.412521 402.40625) scale(0.09 -0.09)">
       <defs>
        <path id="SimHei-31" d="M 1400 3600 
Q 1075 3275 575 2975 
L 575 3450 
Q 1200 3875 1600 4450 
L 1900 4450 
L 1900 150 
L 1400 150 
L 1400 3600 
z
" transform="scale(0.015625)"/>
       </defs>
       <use xlink:href="#SimHei-31"/>
       <use xlink:href="#SimHei-30" transform="translate(50 0)"/>
       <use xlink:href="#SimHei-30" transform="translate(100 0)"/>
       <use xlink:href="#SimHei-30" transform="translate(150 0)"/>
      </g>
     </g>
    </g>
    <g id="xtick_4">
     <g id="line2d_7">
      <path d="M 485.061374 392.71875 
L 485.061374 27.04375 
" clip-path="url(#pd7de66dcfe)" style="fill: none; stroke-dasharray: 1.85,0.8; stroke-dashoffset: 0; stroke: #b2b2b2; stroke-opacity: 0.3; stroke-width: 0.5"/>
     </g>
     <g id="line2d_8">
      <g>
       <use xlink:href="#m4b4b8bfd9f" x="485.061374" y="392.71875" style="stroke: #000000; stroke-width: 0.8"/>
      </g>
     </g>
     <g id="text_4">
      <!-- 1500 -->
      <g transform="translate(476.061374 402.40625) scale(0.09 -0.09)">
       <use xlink:href="#SimHei-31"/>
       <use xlink:href="#SimHei-35" transform="translate(50 0)"/>
       <use xlink:href="#SimHei-30" transform="translate(100 0)"/>
       <use xlink:href="#SimHei-30" transform="translate(150 0)"/>
      </g>
     </g>
    </g>
    <g id="xtick_5">
     <g id="line2d_9">
      <path d="M 622.710227 392.71875 
L 622.710227 27.04375 
" clip-path="url(#pd7de66dcfe)" style="fill: none; stroke-dasharray: 1.85,0.8; stroke-dashoffset: 0; stroke: #b2b2b2; stroke-opacity: 0.3; stroke-width: 0.5"/>
     </g>
     <g id="line2d_10">
      <g>
       <use xlink:href="#m4b4b8bfd9f" x="622.710227" y="392.71875" style="stroke: #000000; stroke-width: 0.8"/>
      </g>
     </g>
     <g id="text_5">
      <!-- 2000 -->
      <g transform="translate(613.710227 402.40625) scale(0.09 -0.09)">
       <defs>
        <path id="SimHei-32" d="M 300 250 
Q 325 625 650 925 
Q 975 1225 1475 1862 
Q 1975 2500 2125 2850 
Q 2275 3200 2237 3450 
Q 2200 3700 2000 3862 
Q 1800 4025 1537 4000 
Q 1275 3975 1037 3800 
Q 800 3625 675 3275 
L 200 3350 
Q 400 3925 712 4187 
Q 1025 4450 1450 4475 
Q 1700 4500 1900 4462 
Q 2100 4425 2312 4287 
Q 2525 4150 2662 3875 
Q 2800 3600 2762 3212 
Q 2725 2825 2375 2287 
Q 2025 1750 1025 600 
L 2825 600 
L 2825 150 
L 300 150 
L 300 250 
z
" transform="scale(0.015625)"/>
       </defs>
       <use xlink:href="#SimHei-32"/>
       <use xlink:href="#SimHei-30" transform="translate(50 0)"/>
       <use xlink:href="#SimHei-30" transform="translate(100 0)"/>
       <use xlink:href="#SimHei-30" transform="translate(150 0)"/>
      </g>
     </g>
    </g>
    <g id="text_6">
     <!-- 时间 / 序号 -->
     <g transform="translate(346.47875 415.539062) scale(0.1 -0.1)">
      <defs>
       <path id="SimHei-65f6" d="M 2525 4575 
Q 2500 3675 2500 2400 
Q 2500 1125 2525 400 
L 2000 400 
L 2000 875 
L 1000 875 
L 1000 50 
L 475 50 
Q 500 1200 500 2350 
Q 500 3525 475 4575 
L 2525 4575 
z
M 4875 3825 
Q 4875 4575 4850 5225 
L 5400 5225 
Q 5375 4575 5375 3825 
Q 5750 3825 6175 3850 
L 6175 3375 
Q 5750 3400 5375 3400 
L 5375 50 
Q 5375 -325 5075 -425 
Q 4775 -525 4300 -575 
Q 4300 -275 4025 0 
Q 4500 -50 4687 -25 
Q 4875 0 4875 300 
L 4875 3400 
Q 3625 3400 2775 3375 
L 2775 3850 
Q 3575 3825 4875 3825 
z
M 2000 1300 
L 2000 2550 
L 1000 2550 
L 1000 1300 
L 2000 1300 
z
M 2000 2975 
L 2000 4150 
L 1000 4150 
L 1000 2975 
L 2000 2975 
z
M 3550 2725 
Q 3875 2200 4175 1600 
Q 3925 1525 3650 1375 
Q 3450 1975 3075 2500 
Q 3300 2600 3550 2725 
z
" transform="scale(0.015625)"/>
       <path id="SimHei-95f4" d="M 4450 3550 
Q 4425 3075 4425 2725 
L 4425 1400 
Q 4425 1075 4450 625 
L 1925 625 
Q 1950 1075 1950 1425 
L 1950 2725 
Q 1950 3075 1925 3550 
L 4450 3550 
z
M 5800 4875 
Q 5775 4400 5775 3925 
L 5775 250 
Q 5800 -325 5462 -450 
Q 5125 -575 4725 -625 
Q 4700 -325 4525 -25 
Q 5000 -50 5137 25 
Q 5275 100 5275 350 
L 5275 4450 
L 3775 4450 
Q 3175 4450 2650 4425 
L 2650 4900 
Q 3175 4875 3775 4875 
L 5800 4875 
z
M 550 -525 
Q 600 -25 600 525 
L 600 3150 
Q 600 3675 550 4025 
L 1125 4025 
Q 1100 3650 1100 3300 
L 1100 500 
Q 1100 0 1125 -525 
L 550 -525 
z
M 3950 1025 
L 3950 1950 
L 2425 1950 
L 2425 1025 
L 3950 1025 
z
M 3950 2350 
L 3950 3150 
L 2425 3150 
L 2425 2350 
L 3950 2350 
z
M 1525 5300 
Q 1750 5000 2225 4350 
Q 1950 4225 1700 4075 
Q 1450 4575 1075 5025 
Q 1350 5225 1525 5300 
z
" transform="scale(0.015625)"/>
       <path id="SimHei-20" transform="scale(0.015625)"/>
       <path id="SimHei-2f" d="M 3000 4550 
L 350 -175 
L 100 -25 
L 2750 4700 
L 3000 4550 
z
" transform="scale(0.015625)"/>
       <path id="SimHei-5e8f" d="M 4000 2075 
L 5975 2075 
Q 5750 1525 5575 1025 
Q 5325 1100 5050 1150 
Q 5175 1450 5275 1700 
L 4050 1700 
L 4050 150 
Q 4050 -375 3762 -462 
Q 3475 -550 2950 -575 
Q 2875 -300 2750 0 
Q 3350 -75 3475 25 
Q 3600 125 3575 375 
L 3575 1700 
L 2450 1700 
Q 2050 1700 1675 1675 
L 1675 2100 
Q 2100 2075 2425 2075 
L 3675 2075 
Q 3325 2400 2875 2775 
Q 2975 2875 3250 3100 
Q 3400 2975 3725 2725 
L 4575 3275 
L 3000 3275 
Q 2400 3275 1950 3250 
L 1950 3700 
Q 2400 3675 3000 3675 
L 5400 3675 
L 5400 3250 
Q 4700 2875 4025 2450 
L 4275 2250 
L 4000 2075 
z
M 3725 5275 
Q 3825 4925 3925 4525 
L 4850 4525 
Q 5425 4525 6000 4550 
L 6000 4125 
Q 5425 4150 4850 4150 
L 1400 4150 
Q 1400 2750 1362 2137 
Q 1325 1525 1200 887 
Q 1075 250 775 -350 
Q 625 -250 250 -125 
Q 475 300 600 700 
Q 725 1100 800 1637 
Q 875 2175 875 2825 
Q 875 3500 850 4525 
L 3350 4525 
Q 3275 4825 3150 5150 
Q 3425 5200 3725 5275 
z
" transform="scale(0.015625)"/>
       <path id="SimHei-53f7" d="M 5025 4925 
Q 5000 4550 5000 4075 
Q 5000 3600 5025 3175 
L 1400 3175 
Q 1425 3525 1425 4000 
Q 1425 4500 1400 4925 
L 5025 4925 
z
M 5175 2625 
Q 5650 2625 6025 2650 
L 6025 2200 
Q 5650 2225 5175 2225 
L 2450 2225 
Q 2350 1875 2225 1450 
L 5175 1450 
Q 5100 1050 5062 775 
Q 5025 500 4950 112 
Q 4875 -275 4650 -412 
Q 4425 -550 3225 -625 
Q 3125 -350 2975 -50 
Q 3875 -75 4112 -50 
Q 4350 -25 4425 212 
Q 4500 450 4575 1025 
L 1600 1025 
Q 1825 1625 1950 2225 
L 1350 2225 
Q 825 2225 375 2200 
L 375 2650 
Q 825 2625 1350 2625 
L 5175 2625 
z
M 4525 3575 
L 4525 4525 
L 1900 4525 
L 1900 3575 
L 4525 3575 
z
" transform="scale(0.015625)"/>
      </defs>
      <use xlink:href="#SimHei-65f6"/>
      <use xlink:href="#SimHei-95f4" transform="translate(100 0)"/>
      <use xlink:href="#SimHei-20" transform="translate(200 0)"/>
      <use xlink:href="#SimHei-2f" transform="translate(250 0)"/>
      <use xlink:href="#SimHei-20" transform="translate(300 0)"/>
      <use xlink:href="#SimHei-5e8f" transform="translate(350 0)"/>
      <use xlink:href="#SimHei-53f7" transform="translate(450 0)"/>
     </g>
    </g>
   </g>
   <g id="matplotlib.axis_2">
    <g id="ytick_1">
     <g id="line2d_11">
      <path d="M 42.23125 332.258111 
L 705.72625 332.258111 
" clip-path="url(#pd7de66dcfe)" style="fill: none; stroke-dasharray: 1.85,0.8; stroke-dashoffset: 0; stroke: #b2b2b2; stroke-opacity: 0.3; stroke-width: 0.5"/>
     </g>
     <g id="line2d_12">
      <defs>
       <path id="m053bebdb66" d="M 0 0 
L 3.5 0 
" style="stroke: #000000; stroke-width: 0.8"/>
      </defs>
      <g>
       <use xlink:href="#m053bebdb66" x="42.23125" y="332.258111" style="stroke: #000000; stroke-width: 0.8"/>
      </g>
     </g>
     <g id="text_7">
      <!-- -100 -->
      <g transform="translate(20.73125 335.351861) scale(0.09 -0.09)">
       <defs>
        <path id="SimHei-2d" d="M 2975 2125 
L 125 2125 
L 125 2525 
L 2975 2525 
L 2975 2125 
z
" transform="scale(0.015625)"/>
       </defs>
       <use xlink:href="#SimHei-2d"/>
       <use xlink:href="#SimHei-31" transform="translate(50 0)"/>
       <use xlink:href="#SimHei-30" transform="translate(100 0)"/>
       <use xlink:href="#SimHei-30" transform="translate(150 0)"/>
      </g>
     </g>
    </g>
    <g id="ytick_2">
     <g id="line2d_13">
      <path d="M 42.23125 271.274494 
L 705.72625 271.274494 
" clip-path="url(#pd7de66dcfe)" style="fill: none; stroke-dasharray: 1.85,0.8; stroke-dashoffset: 0; stroke: #b2b2b2; stroke-opacity: 0.3; stroke-width: 0.5"/>
     </g>
     <g id="line2d_14">
      <g>
       <use xlink:href="#m053bebdb66" x="42.23125" y="271.274494" style="stroke: #000000; stroke-width: 0.8"/>
      </g>
     </g>
     <g id="text_8">
      <!-- 0 -->
      <g transform="translate(34.23125 274.368244) scale(0.09 -0.09)">
       <use xlink:href="#SimHei-30"/>
      </g>
     </g>
    </g>
    <g id="ytick_3">
     <g id="line2d_15">
      <path d="M 42.23125 210.290877 
L 705.72625 210.290877 
" clip-path="url(#pd7de66dcfe)" style="fill: none; stroke-dasharray: 1.85,0.8; stroke-dashoffset: 0; stroke: #b2b2b2; stroke-opacity: 0.3; stroke-width: 0.5"/>
     </g>
     <g id="line2d_16">
      <g>
       <use xlink:href="#m053bebdb66" x="42.23125" y="210.290877" style="stroke: #000000; stroke-width: 0.8"/>
      </g>
     </g>
     <g id="text_9">
      <!-- 100 -->
      <g transform="translate(25.23125 213.384627) scale(0.09 -0.09)">
       <use xlink:href="#SimHei-31"/>
       <use xlink:href="#SimHei-30" transform="translate(50 0)"/>
       <use xlink:href="#SimHei-30" transform="translate(100 0)"/>
      </g>
     </g>
    </g>
    <g id="ytick_4">
     <g id="line2d_17">
      <path d="M 42.23125 149.307261 
L 705.72625 149.307261 
" clip-path="url(#pd7de66dcfe)" style="fill: none; stroke-dasharray: 1.85,0.8; stroke-dashoffset: 0; stroke: #b2b2b2; stroke-opacity: 0.3; stroke-width: 0.5"/>
     </g>
     <g id="line2d_18">
      <g>
       <use xlink:href="#m053bebdb66" x="42.23125" y="149.307261" style="stroke: #000000; stroke-width: 0.8"/>
      </g>
     </g>
     <g id="text_10">
      <!-- 200 -->
      <g transform="translate(25.23125 152.401011) scale(0.09 -0.09)">
       <use xlink:href="#SimHei-32"/>
       <use xlink:href="#SimHei-30" transform="translate(50 0)"/>
       <use xlink:href="#SimHei-30" transform="translate(100 0)"/>
      </g>
     </g>
    </g>
    <g id="ytick_5">
     <g id="line2d_19">
      <path d="M 42.23125 88.323644 
L 705.72625 88.323644 
" clip-path="url(#pd7de66dcfe)" style="fill: none; stroke-dasharray: 1.85,0.8; stroke-dashoffset: 0; stroke: #b2b2b2; stroke-opacity: 0.3; stroke-width: 0.5"/>
     </g>
     <g id="line2d_20">
      <g>
       <use xlink:href="#m053bebdb66" x="42.23125" y="88.323644" style="stroke: #000000; stroke-width: 0.8"/>
      </g>
     </g>
     <g id="text_11">
      <!-- 300 -->
      <g transform="translate(25.23125 91.417394) scale(0.09 -0.09)">
       <defs>
        <path id="SimHei-33" d="M 250 1225 
L 700 1300 
Q 800 975 1025 762 
Q 1250 550 1587 562 
Q 1925 575 2125 837 
Q 2325 1100 2300 1437 
Q 2275 1775 2037 1962 
Q 1800 2150 1275 2225 
L 1275 2550 
Q 1800 2600 2037 2825 
Q 2275 3050 2250 3412 
Q 2225 3775 1925 3937 
Q 1625 4100 1287 3975 
Q 950 3850 750 3275 
L 300 3350 
Q 450 3800 712 4100 
Q 975 4400 1425 4450 
Q 1875 4500 2212 4337 
Q 2550 4175 2687 3837 
Q 2825 3500 2725 3100 
Q 2625 2700 2150 2400 
Q 2500 2250 2687 1950 
Q 2875 1650 2812 1162 
Q 2750 675 2375 375 
Q 2000 75 1525 87 
Q 1050 100 700 387 
Q 350 675 250 1225 
z
" transform="scale(0.015625)"/>
       </defs>
       <use xlink:href="#SimHei-33"/>
       <use xlink:href="#SimHei-30" transform="translate(50 0)"/>
       <use xlink:href="#SimHei-30" transform="translate(100 0)"/>
      </g>
     </g>
    </g>
    <g id="ytick_6">
     <g id="line2d_21">
      <path d="M 42.23125 27.340027 
L 705.72625 27.340027 
" clip-path="url(#pd7de66dcfe)" style="fill: none; stroke-dasharray: 1.85,0.8; stroke-dashoffset: 0; stroke: #b2b2b2; stroke-opacity: 0.3; stroke-width: 0.5"/>
     </g>
     <g id="line2d_22">
      <g>
       <use xlink:href="#m053bebdb66" x="42.23125" y="27.340027" style="stroke: #000000; stroke-width: 0.8"/>
      </g>
     </g>
     <g id="text_12">
      <!-- 400 -->
      <g transform="translate(25.23125 30.433777) scale(0.09 -0.09)">
       <defs>
        <path id="SimHei-34" d="M 2000 1100 
L 75 1100 
L 75 1525 
L 2100 4450 
L 2475 4450 
L 2475 1525 
L 3075 1525 
L 3075 1100 
L 2475 1100 
L 2475 150 
L 2000 150 
L 2000 1100 
z
M 2000 1525 
L 2000 3500 
L 600 1525 
L 2000 1525 
z
" transform="scale(0.015625)"/>
       </defs>
       <use xlink:href="#SimHei-34"/>
       <use xlink:href="#SimHei-30" transform="translate(50 0)"/>
       <use xlink:href="#SimHei-30" transform="translate(100 0)"/>
      </g>
     </g>
    </g>
    <g id="text_13">
     <!-- 残差值 -->
     <g transform="translate(15.403125 224.88125) rotate(-90) scale(0.1 -0.1)">
      <defs>
       <path id="SimHei-6b8b" d="M 5700 3350 
Q 5325 3300 4900 3225 
Q 4475 3150 4075 3075 
Q 4100 2700 4150 2325 
Q 4625 2425 4987 2500 
Q 5350 2575 5925 2725 
L 6000 2250 
Q 5775 2225 5300 2137 
Q 4825 2050 4200 1900 
Q 4300 1375 4475 1075 
Q 5025 1500 5325 1950 
Q 5525 1750 5800 1550 
Q 5550 1425 5350 1237 
Q 5150 1050 4675 650 
Q 5000 200 5275 37 
Q 5550 -125 5600 -12 
Q 5650 100 5625 525 
Q 5825 325 6175 300 
Q 6125 -850 5450 -587 
Q 4775 -325 4275 400 
Q 3950 150 3537 -75 
Q 3125 -300 2625 -525 
Q 2475 -250 2250 -100 
Q 2775 50 3200 262 
Q 3625 475 4075 775 
Q 3850 1225 3750 1800 
Q 3100 1675 2700 1525 
L 2575 2025 
Q 3300 2125 3700 2225 
Q 3650 2600 3625 3000 
Q 3225 2950 2800 2850 
L 2675 3325 
Q 3150 3375 3600 3450 
Q 3575 3925 3550 4275 
Q 3525 4625 3475 5125 
Q 3775 5075 4050 5075 
Q 4025 4700 4012 4412 
Q 4000 4125 4050 3525 
Q 5200 3725 5625 3850 
L 5700 3350 
z
M 2125 4650 
Q 2450 4650 2800 4675 
L 2800 4175 
Q 2450 4200 2125 4200 
L 1675 4200 
Q 1550 3700 1425 3225 
L 2600 3225 
Q 2525 2500 2400 1925 
Q 2275 1350 2050 925 
Q 1825 500 1512 137 
Q 1200 -225 675 -625 
Q 525 -400 250 -225 
Q 700 25 1037 375 
Q 1375 725 1575 1075 
Q 1275 1450 950 1750 
Q 1125 1900 1250 2100 
Q 1550 1825 1800 1550 
Q 2025 2175 2075 2775 
L 1300 2775 
Q 1125 2375 987 2150 
Q 850 1925 550 1525 
Q 350 1825 200 1925 
Q 575 2300 825 2862 
Q 1075 3425 1200 4200 
Q 775 4200 375 4175 
L 375 4675 
Q 750 4650 1075 4650 
L 2125 4650 
z
M 4825 4975 
Q 5150 4575 5425 4175 
Q 5125 4050 4975 3900 
Q 4750 4325 4400 4700 
Q 4600 4825 4825 4975 
z
" transform="scale(0.015625)"/>
       <path id="SimHei-5dee" d="M 4725 4975 
Q 4500 4725 4250 4275 
L 4850 4275 
Q 5450 4275 5825 4300 
L 5825 3850 
Q 5425 3875 4850 3875 
L 3275 3875 
Q 3225 3600 3150 3275 
L 4525 3275 
Q 5075 3275 5525 3300 
L 5525 2850 
Q 5075 2875 4500 2875 
L 3050 2875 
Q 2975 2650 2850 2325 
L 5125 2325 
Q 5675 2325 6025 2350 
L 6025 1900 
Q 5700 1925 5150 1925 
L 2650 1925 
Q 2425 1550 2250 1300 
Q 2650 1275 3100 1275 
L 4525 1275 
Q 4975 1275 5350 1300 
L 5350 850 
Q 4975 875 4575 875 
L 3925 875 
L 3925 -50 
L 5000 -50 
Q 5200 -50 5900 -25 
L 5900 -500 
Q 5275 -475 5025 -475 
L 2100 -475 
Q 1700 -475 1400 -500 
L 1400 -25 
Q 1775 -50 2125 -50 
L 3425 -50 
L 3425 875 
L 3100 875 
Q 2625 875 2175 850 
L 2175 1200 
Q 1925 875 1487 475 
Q 1050 75 625 -250 
Q 425 -25 200 150 
Q 750 475 1262 925 
Q 1775 1375 2100 1925 
L 1325 1925 
Q 750 1925 375 1900 
L 375 2350 
Q 750 2325 1350 2325 
L 2325 2325 
Q 2450 2575 2550 2875 
L 1725 2875 
Q 1375 2875 1000 2850 
L 1000 3300 
Q 1500 3275 1700 3275 
L 2650 3275 
Q 2725 3575 2775 3875 
L 1500 3875 
Q 1100 3875 650 3850 
L 650 4300 
Q 1025 4275 1425 4275 
L 2275 4275 
Q 2075 4675 1850 4950 
Q 2025 5050 2250 5225 
Q 2450 4975 2725 4550 
Q 2525 4450 2325 4275 
L 3750 4275 
Q 4000 4700 4150 5250 
Q 4400 5100 4725 4975 
z
" transform="scale(0.015625)"/>
       <path id="SimHei-503c" d="M 3675 4450 
L 3675 5100 
Q 3975 5075 4350 5050 
Q 4225 4875 4200 4450 
L 5125 4450 
Q 5550 4450 5875 4475 
L 5875 4025 
Q 5525 4050 5125 4050 
L 4175 4050 
L 4125 3500 
L 5400 3500 
Q 5375 3200 5375 2700 
L 5375 150 
Q 5875 150 6100 175 
L 6100 -275 
Q 5775 -250 5200 -250 
L 2850 -250 
Q 2275 -250 1900 -275 
L 1900 175 
Q 2125 150 2600 150 
L 2600 2700 
Q 2600 3175 2575 3500 
L 3600 3500 
L 3650 4050 
L 3200 4050 
Q 2575 4050 2225 4025 
L 2225 4475 
Q 2550 4450 3200 4450 
L 3675 4450 
z
M 2225 4900 
Q 2025 4675 1650 3750 
L 1650 450 
Q 1650 -75 1675 -550 
L 1150 -550 
Q 1175 -125 1175 375 
L 1175 2950 
Q 875 2450 625 2150 
Q 425 2425 250 2575 
Q 500 2825 937 3537 
Q 1375 4250 1625 5150 
Q 1975 4975 2225 4900 
z
M 4925 2650 
L 4925 3150 
L 3075 3150 
L 3075 2650 
L 4925 2650 
z
M 4925 150 
L 4925 625 
L 3075 625 
L 3075 150 
L 4925 150 
z
M 4925 1000 
L 4925 1450 
L 3075 1450 
L 3075 1000 
L 4925 1000 
z
M 4925 1825 
L 4925 2275 
L 3075 2275 
L 3075 1825 
L 4925 1825 
z
" transform="scale(0.015625)"/>
      </defs>
      <use xlink:href="#SimHei-6b8b"/>
      <use xlink:href="#SimHei-5dee" transform="translate(100 0)"/>
      <use xlink:href="#SimHei-503c" transform="translate(200 0)"/>
     </g>
    </g>
   </g>
   <g id="line2d_23">
    <path d="M 72.390114 43.665341 
L 72.665411 277.496811 
L 72.940709 274.080002 
L 73.216007 267.926348 
L 73.491304 279.196193 
L 73.766602 274.964014 
L 74.0419 251.315879 
L 74.317198 270.681014 
L 74.592495 271.688926 
L 74.867793 267.938884 
L 75.143091 276.012766 
L 75.418388 273.38353 
L 75.693686 376.097159 
L 75.968984 265.708103 
L 76.244282 268.814872 
L 76.519579 273.596866 
L 77.070175 260.994224 
L 77.345472 284.744369 
L 77.62077 283.658673 
L 77.896068 278.96073 
L 78.171365 280.141948 
L 78.446663 271.602491 
L 78.721961 269.103403 
L 79.272556 277.147921 
L 79.823152 266.451552 
L 80.098449 268.253257 
L 80.649045 280.898889 
L 81.19964 267.663515 
L 81.474938 279.995479 
L 82.025533 264.913299 
L 82.300831 273.395285 
L 82.576129 267.478662 
L 82.851426 270.362008 
L 83.126724 271.148318 
L 83.67732 269.422399 
L 83.952617 272.932643 
L 84.227915 279.244512 
L 84.503213 268.553568 
L 84.77851 267.372096 
L 85.053808 268.190231 
L 85.604403 279.755631 
L 86.154999 268.666504 
L 86.430297 270.806049 
L 86.705594 269.645983 
L 86.980892 267.642687 
L 87.25619 271.170599 
L 87.531487 268.102441 
L 87.806785 276.128422 
L 88.082083 268.365334 
L 88.357381 273.21529 
L 88.632678 271.905294 
L 88.907976 275.142973 
L 89.183274 274.988213 
L 89.458571 268.148687 
L 89.733869 270.755383 
L 90.009167 269.957051 
L 90.284464 272.400631 
L 90.559762 270.041164 
L 90.83506 270.221666 
L 91.110358 275.021222 
L 91.385655 266.375179 
L 91.660953 275.876949 
L 91.936251 267.314557 
L 92.211548 269.202654 
L 92.486846 272.624602 
L 92.762144 268.183096 
L 93.037442 275.773633 
L 93.312739 274.975061 
L 93.588037 281.223048 
L 93.863335 272.057346 
L 94.138632 271.507219 
L 94.41393 273.455957 
L 94.689228 276.997771 
L 95.239823 268.784206 
L 95.515121 270.899951 
L 95.790419 269.602354 
L 96.065716 261.522015 
L 96.341014 270.630176 
L 96.616312 272.278297 
L 96.891609 280.229714 
L 97.166907 259.650801 
L 97.442205 269.565649 
L 97.717503 261.634332 
L 97.9928 282.341774 
L 98.268098 265.493813 
L 98.543396 274.213709 
L 98.818693 276.414331 
L 99.093991 273.362592 
L 99.369289 276.3616 
L 99.644586 275.091066 
L 99.919884 270.064785 
L 100.195182 258.892875 
L 100.47048 269.83958 
L 100.745777 268.460724 
L 101.021075 274.970746 
L 101.296373 273.606664 
L 101.57167 274.640796 
L 101.846968 281.060454 
L 102.122266 275.968124 
L 102.397564 268.059743 
L 102.672861 287.791548 
L 102.948159 266.278553 
L 103.223457 256.586404 
L 103.774052 279.246404 
L 104.04935 265.06992 
L 104.324647 275.705269 
L 104.599945 267.333432 
L 104.875243 263.964954 
L 105.150541 268.79825 
L 105.425838 266.112528 
L 105.701136 270.391398 
L 105.976434 281.825754 
L 106.251731 267.054463 
L 106.527029 283.188731 
L 106.802327 258.32509 
L 107.077625 276.884686 
L 107.352922 282.805966 
L 107.62822 281.764795 
L 107.903518 266.839273 
L 108.454113 279.693088 
L 108.729411 257.843616 
L 109.004708 271.080871 
L 109.280006 265.080449 
L 109.555304 267.480496 
L 109.830602 278.565497 
L 110.105899 267.814646 
L 110.381197 272.686169 
L 110.656495 267.600727 
L 110.931792 267.473347 
L 111.20709 276.234457 
L 111.482388 271.885251 
L 111.757686 283.649003 
L 112.583579 260.5538 
L 113.409472 280.268228 
L 113.960067 274.574984 
L 114.235365 266.397113 
L 114.510663 262.813464 
L 114.78596 274.714438 
L 115.061258 250.139022 
L 115.336556 290.055191 
L 115.611853 280.679187 
L 115.887151 262.255165 
L 116.437747 277.532682 
L 116.713044 272.795155 
L 116.988342 254.371666 
L 117.26364 258.519143 
L 117.814235 282.015965 
L 118.089533 262.908207 
L 118.36483 262.418996 
L 118.640128 267.575213 
L 118.915426 280.96902 
L 119.190724 275.674474 
L 119.466021 281.016244 
L 119.741319 263.285769 
L 120.016617 260.129881 
L 120.291914 280.860115 
L 120.567212 266.278925 
L 120.84251 275.373715 
L 121.117808 263.526037 
L 121.393105 271.798736 
L 121.668403 276.039798 
L 121.943701 260.806888 
L 122.218998 271.847532 
L 122.494296 253.771135 
L 122.769594 275.280122 
L 123.044891 270.380165 
L 123.320189 273.729168 
L 123.870785 281.551903 
L 124.146082 272.742419 
L 124.696678 266.710016 
L 124.971975 284.45713 
L 125.247273 256.720973 
L 125.522571 260.780595 
L 125.797869 281.522916 
L 126.073166 266.772604 
L 126.348464 264.063939 
L 126.623762 283.504138 
L 126.899059 271.855296 
L 127.449655 272.36454 
L 127.724952 265.690646 
L 128.00025 264.140356 
L 128.275548 281.332395 
L 128.550846 276.651284 
L 128.826143 267.029483 
L 129.101441 274.288376 
L 129.376739 268.577525 
L 129.652036 267.175906 
L 129.927334 274.085609 
L 130.202632 269.786087 
L 130.477929 279.669262 
L 130.753227 281.70349 
L 131.028525 276.112964 
L 131.303823 282.129706 
L 131.57912 270.587845 
L 131.854418 281.103336 
L 132.129716 271.23203 
L 132.405013 278.82985 
L 132.680311 263.135672 
L 132.955609 266.649839 
L 133.230907 271.680421 
L 133.781502 263.494746 
L 134.0568 251.331882 
L 134.332097 277.284429 
L 134.607395 275.11504 
L 134.882693 263.592968 
L 135.433288 276.083027 
L 135.708586 271.609493 
L 135.983884 270.669273 
L 136.259181 266.581034 
L 136.534479 275.797862 
L 136.809777 279.39469 
L 137.085074 261.361959 
L 137.360372 273.540273 
L 137.63567 269.393097 
L 137.910968 273.199477 
L 138.186265 266.742085 
L 138.461563 266.864367 
L 139.012158 283.521215 
L 139.287456 274.449524 
L 139.562754 285.30402 
L 139.838051 257.220205 
L 140.113349 265.960808 
L 140.388647 266.93332 
L 140.663945 277.023926 
L 140.939242 272.333623 
L 141.21454 264.393315 
L 141.489838 265.773695 
L 141.765135 251.197212 
L 142.040433 265.786427 
L 142.315731 265.132568 
L 142.591029 283.969121 
L 142.866326 268.509716 
L 143.141624 259.343127 
L 143.416922 273.507781 
L 143.692219 280.593755 
L 143.967517 283.164784 
L 144.242815 278.621812 
L 144.79341 263.372488 
L 145.068708 292.849302 
L 145.344006 270.730293 
L 145.619303 258.088761 
L 145.894601 282.298832 
L 146.169899 273.257944 
L 146.445196 281.718989 
L 146.720494 282.499787 
L 146.995792 275.951349 
L 147.27109 253.776802 
L 147.821685 267.459188 
L 148.096983 262.79606 
L 148.37228 274.656684 
L 148.647578 274.267662 
L 148.922876 278.852861 
L 149.198173 262.059193 
L 149.473471 275.544345 
L 149.748769 281.814622 
L 150.024067 266.132935 
L 150.299364 265.502494 
L 150.574662 265.603594 
L 150.84996 269.708504 
L 151.125257 268.238236 
L 151.400555 284.036929 
L 151.675853 269.73578 
L 151.951151 270.431117 
L 152.226448 274.717922 
L 152.501746 264.869129 
L 152.777044 272.154732 
L 153.052341 270.637004 
L 153.327639 268.128079 
L 153.602937 280.739191 
L 153.878234 271.326364 
L 154.153532 270.070137 
L 154.42883 278.188224 
L 154.704128 279.613591 
L 154.979425 266.639321 
L 155.254723 262.140851 
L 155.530021 268.765562 
L 155.805318 271.40744 
L 156.080616 268.873689 
L 156.355914 275.636592 
L 156.631212 264.684395 
L 156.906509 268.274045 
L 157.181807 278.012415 
L 157.457105 296.204779 
L 157.732402 263.743389 
L 158.0077 278.470711 
L 158.282998 278.294901 
L 158.833593 265.761866 
L 159.108891 259.756886 
L 159.384189 261.228855 
L 159.659486 268.775289 
L 159.934784 266.755031 
L 160.210082 275.748015 
L 160.485379 278.762864 
L 160.760677 272.534904 
L 161.035975 284.913458 
L 161.311273 268.917125 
L 161.58657 280.109695 
L 161.861868 268.39411 
L 162.137166 272.256451 
L 162.412463 278.036405 
L 162.963059 261.103088 
L 163.238356 264.035362 
L 163.513654 271.4279 
L 163.788952 264.118674 
L 164.06425 264.311454 
L 164.339547 261.971527 
L 164.614845 255.231716 
L 164.890143 253.267839 
L 165.440738 281.315464 
L 165.716036 281.497332 
L 165.991334 272.241764 
L 166.266631 290.922326 
L 166.541929 257.706627 
L 166.817227 263.1363 
L 167.092524 280.704858 
L 167.367822 268.99226 
L 167.64312 285.543818 
L 167.918417 274.886303 
L 168.193715 275.58588 
L 168.469013 277.187882 
L 168.744311 274.012863 
L 169.019608 280.279306 
L 169.294906 278.556008 
L 169.570204 269.447512 
L 169.845501 283.0445 
L 170.396097 255.260036 
L 170.671394 250.017558 
L 170.946692 274.903767 
L 171.22199 267.186422 
L 171.497288 276.583814 
L 171.772585 274.034691 
L 172.323181 257.705712 
L 172.598478 271.839273 
L 172.873776 268.810066 
L 173.149074 282.868351 
L 173.424372 283.919634 
L 173.699669 275.876121 
L 173.974967 277.964194 
L 174.250265 261.343052 
L 174.525562 262.069471 
L 174.80086 274.636141 
L 175.076158 276.259822 
L 175.626753 270.651623 
L 176.177349 279.814155 
L 176.452646 278.10259 
L 176.727944 267.09261 
L 177.278539 280.844348 
L 177.553837 261.014683 
L 177.829135 267.785151 
L 178.104433 255.234092 
L 178.37973 260.561199 
L 178.655028 270.751581 
L 178.930326 267.532528 
L 179.205623 267.976374 
L 179.480921 259.420796 
L 179.756219 263.131348 
L 180.031516 272.79835 
L 180.582112 264.162201 
L 180.85741 281.369036 
L 181.132707 279.670672 
L 181.408005 279.035747 
L 181.683303 271.648792 
L 181.9586 267.918602 
L 182.233898 278.571051 
L 182.509196 272.616963 
L 182.784494 262.908787 
L 183.059791 272.038105 
L 183.335089 270.011046 
L 183.610387 274.568787 
L 183.885684 263.069084 
L 184.160982 276.065894 
L 184.43628 280.009596 
L 184.711577 273.42294 
L 184.986875 274.511477 
L 185.262173 271.297235 
L 185.537471 270.004286 
L 185.812768 272.787101 
L 186.088066 266.614877 
L 186.638661 272.534023 
L 186.913959 272.235691 
L 187.189257 270.390928 
L 187.739852 291.814407 
L 188.01515 263.524679 
L 188.290448 274.071872 
L 188.565745 264.410744 
L 188.841043 278.019209 
L 189.116341 267.546403 
L 189.391638 272.986604 
L 189.666936 269.251337 
L 189.942234 269.962485 
L 190.217532 261.360987 
L 190.492829 277.730012 
L 190.768127 266.324937 
L 191.043425 285.859326 
L 191.318722 273.780891 
L 191.59402 273.924063 
L 191.869318 270.926671 
L 192.144616 278.690706 
L 192.419913 249.452642 
L 192.695211 279.129285 
L 192.970509 269.636679 
L 193.245806 267.629643 
L 193.521104 284.800408 
L 193.796402 284.345977 
L 194.071699 255.548041 
L 194.346997 246.821003 
L 194.622295 268.989847 
L 194.897593 266.511508 
L 195.17289 274.299427 
L 195.448188 258.254201 
L 195.723486 283.465171 
L 196.274081 265.693495 
L 196.549379 278.865025 
L 197.099974 266.175461 
L 197.375272 271.647715 
L 197.65057 258.013559 
L 197.925867 275.027008 
L 198.201165 275.328969 
L 198.476463 274.091759 
L 198.75176 270.315687 
L 199.302356 276.196631 
L 199.577654 276.589679 
L 199.852951 270.749903 
L 200.128249 270.799606 
L 200.403547 265.659096 
L 200.678844 278.762519 
L 200.954142 268.969768 
L 201.22944 280.171824 
L 201.504738 265.846854 
L 201.780035 263.565359 
L 202.055333 266.99262 
L 202.330631 277.063326 
L 202.605928 260.474412 
L 202.881226 272.746096 
L 203.156524 275.739827 
L 203.431821 264.534627 
L 203.707119 281.083348 
L 203.982417 274.785023 
L 204.257715 279.553508 
L 204.533012 266.365087 
L 204.80831 271.0164 
L 205.083608 269.621372 
L 205.358905 271.606604 
L 205.634203 274.602499 
L 205.909501 269.141464 
L 206.184799 278.989275 
L 206.460096 268.038332 
L 206.735394 267.044449 
L 207.010692 256.466948 
L 207.285989 272.019774 
L 207.561287 265.571267 
L 207.836585 275.761544 
L 208.111882 273.552276 
L 208.38718 281.881796 
L 208.662478 281.035051 
L 208.937776 268.008118 
L 209.213073 268.899059 
L 209.488371 250.248048 
L 209.763669 287.269329 
L 210.038966 271.729295 
L 210.589562 265.281742 
L 210.864859 267.947787 
L 211.140157 264.882628 
L 211.415455 274.333759 
L 211.690753 275.31493 
L 211.96605 260.43581 
L 212.241348 280.492491 
L 212.516646 282.085051 
L 212.791943 281.935328 
L 213.067241 260.869883 
L 213.342539 273.100642 
L 213.617837 271.954878 
L 213.893134 265.309646 
L 214.168432 265.159158 
L 214.44373 263.324468 
L 214.719027 278.632021 
L 214.994325 273.875038 
L 215.269623 273.744325 
L 215.54492 272.754145 
L 216.095516 267.596358 
L 216.370814 267.217235 
L 216.646111 269.329137 
L 216.921409 280.370951 
L 217.196707 272.727863 
L 217.472004 277.67626 
L 217.747302 275.046942 
L 218.0226 270.044673 
L 218.297898 271.860093 
L 218.573195 265.662281 
L 218.848493 268.383724 
L 219.399088 278.729347 
L 219.674386 256.305688 
L 219.949684 268.432332 
L 220.224981 270.342473 
L 220.500279 277.526995 
L 220.775577 269.694471 
L 221.050875 282.792816 
L 221.326172 266.558722 
L 221.60147 270.587437 
L 221.876768 276.313497 
L 222.152065 272.126253 
L 222.427363 262.363223 
L 222.702661 262.999308 
L 222.977959 271.706329 
L 223.528554 265.968256 
L 223.803852 280.753129 
L 224.079149 283.101236 
L 224.354447 266.60699 
L 224.629745 273.621858 
L 224.905042 257.716307 
L 225.18034 273.842393 
L 225.455638 267.013077 
L 225.730936 273.808333 
L 226.006233 271.636197 
L 226.556829 282.309342 
L 226.832126 272.809612 
L 227.382722 260.919416 
L 227.65802 268.948785 
L 227.933317 269.392894 
L 228.208615 268.55354 
L 228.483913 280.664335 
L 228.75921 284.244701 
L 229.034508 274.435561 
L 229.860401 265.805516 
L 230.135699 271.468294 
L 230.410997 290.810559 
L 230.686294 258.044517 
L 230.961592 254.749861 
L 231.23689 270.788015 
L 231.512187 277.950375 
L 231.787485 262.897111 
L 232.062783 270.476119 
L 232.338081 271.964652 
L 232.613378 279.721526 
L 232.888676 263.623285 
L 233.163974 274.854084 
L 233.439271 262.431285 
L 233.714569 266.310122 
L 233.989867 287.470848 
L 234.265164 291.19246 
L 234.540462 263.269095 
L 234.81576 267.434319 
L 235.091058 263.962466 
L 235.366355 262.749103 
L 235.641653 258.572397 
L 235.916951 274.491164 
L 236.192248 266.775862 
L 236.467546 283.017638 
L 236.742844 267.838394 
L 237.018142 265.820268 
L 237.293439 280.277574 
L 237.568737 276.203181 
L 237.844035 269.607129 
L 238.119332 280.157765 
L 238.669928 262.133348 
L 238.945225 273.441731 
L 239.220523 269.020301 
L 239.495821 306.458119 
L 239.771119 259.514151 
L 240.046416 261.888485 
L 240.321714 259.608508 
L 240.597012 278.202224 
L 240.872309 267.533085 
L 241.147607 273.566909 
L 241.422905 268.844169 
L 241.698203 273.61857 
L 241.9735 272.577081 
L 242.248798 278.024515 
L 242.799393 271.47459 
L 243.074691 260.936593 
L 243.349989 277.529333 
L 243.625286 270.017249 
L 243.900584 267.783002 
L 244.175882 266.560999 
L 244.45118 282.015246 
L 244.726477 274.549523 
L 245.001775 272.941079 
L 245.277073 278.371034 
L 245.55237 277.238824 
L 245.827668 258.298718 
L 246.102966 269.298931 
L 246.378264 268.680929 
L 246.653561 275.732226 
L 246.928859 262.446257 
L 247.479454 271.838796 
L 247.754752 273.51041 
L 248.03005 279.82565 
L 248.305347 276.589601 
L 248.580645 293.739987 
L 248.855943 256.789554 
L 249.131241 271.1328 
L 249.406538 249.499663 
L 249.681836 271.481912 
L 249.957134 278.540657 
L 250.232431 271.089472 
L 250.507729 267.694303 
L 251.058324 279.756474 
L 251.333622 274.643114 
L 251.60892 274.851163 
L 251.884218 264.968616 
L 252.159515 271.63817 
L 252.434813 273.827146 
L 252.710111 274.704214 
L 252.985408 272.403828 
L 253.260706 272.767322 
L 253.536004 267.354264 
L 253.811302 264.748618 
L 254.086599 272.733243 
L 254.361897 274.577495 
L 254.637195 265.008872 
L 254.912492 268.245488 
L 255.18779 260.185078 
L 255.738385 280.830146 
L 256.013683 270.424809 
L 256.288981 268.01137 
L 256.564279 269.112312 
L 256.839576 279.510582 
L 257.114874 275.148132 
L 257.390172 265.143103 
L 257.665469 267.266322 
L 257.940767 264.568531 
L 258.216065 271.237664 
L 258.491363 261.766367 
L 258.76666 279.657047 
L 259.041958 270.887054 
L 259.317256 274.98157 
L 259.592553 281.589303 
L 259.867851 273.028793 
L 260.143149 272.284122 
L 260.418446 274.237535 
L 260.693744 277.11908 
L 260.969042 268.210926 
L 261.24434 273.85722 
L 261.519637 266.494238 
L 261.794935 264.524609 
L 262.070233 270.33139 
L 262.34553 271.29891 
L 262.620828 279.211198 
L 262.896126 260.694425 
L 263.171424 290.800236 
L 263.446721 256.613899 
L 263.722019 263.842965 
L 263.997317 265.60136 
L 264.272614 264.991015 
L 264.82321 276.698239 
L 265.098507 277.51869 
L 265.373805 271.415155 
L 265.649103 272.904491 
L 265.924401 270.898355 
L 266.199698 278.583681 
L 266.474996 264.719227 
L 266.750294 267.822836 
L 267.025591 266.948656 
L 267.300889 271.994526 
L 267.576187 272.188072 
L 267.851485 265.111538 
L 268.126782 271.754011 
L 268.40208 271.520319 
L 268.677378 270.535488 
L 268.952675 263.424682 
L 269.227973 268.25881 
L 269.503271 283.051905 
L 269.778568 267.13023 
L 270.053866 277.021052 
L 270.329164 273.360682 
L 270.604462 273.129151 
L 270.879759 262.570772 
L 271.155057 263.938765 
L 271.430355 265.941215 
L 271.705652 280.34669 
L 271.98095 272.376234 
L 272.256248 278.766464 
L 272.531546 269.421571 
L 272.806843 266.113103 
L 273.082141 260.510611 
L 273.357439 278.797063 
L 273.632736 278.677528 
L 273.908034 269.277358 
L 274.183332 274.29221 
L 274.458629 273.781639 
L 274.733927 279.688935 
L 275.009225 262.885641 
L 275.284523 269.713935 
L 275.55982 270.340706 
L 275.835118 269.064377 
L 276.110416 269.516259 
L 276.385713 278.788123 
L 276.661011 278.698015 
L 276.936309 277.708124 
L 277.486904 262.832503 
L 277.762202 272.094758 
L 278.0375 261.944357 
L 278.312797 267.116275 
L 278.588095 279.709585 
L 278.863393 278.522616 
L 279.13869 281.050173 
L 279.413988 265.354155 
L 279.689286 284.546677 
L 279.964584 273.778686 
L 280.239881 272.027959 
L 280.515179 260.685832 
L 280.790477 290.743667 
L 281.065774 267.702706 
L 281.341072 264.307353 
L 281.61637 294.052193 
L 281.891668 261.357948 
L 282.166965 260.500311 
L 282.442263 285.616133 
L 282.717561 265.855502 
L 282.992858 280.827448 
L 283.268156 265.160734 
L 283.543454 264.335534 
L 283.818751 275.652721 
L 284.094049 264.797063 
L 284.369347 270.027528 
L 284.644645 259.700467 
L 284.919942 257.735929 
L 285.19524 274.401544 
L 285.470538 272.78684 
L 285.745835 266.000159 
L 286.021133 277.518377 
L 286.296431 254.010032 
L 286.571729 265.440391 
L 286.847026 266.263134 
L 287.122324 274.704353 
L 287.397622 273.283228 
L 287.672919 282.563959 
L 287.948217 287.981842 
L 288.223515 263.356336 
L 288.498812 294.981939 
L 288.77411 257.54491 
L 289.049408 254.146423 
L 289.324706 276.305084 
L 289.600003 260.041697 
L 289.875301 270.975576 
L 290.150599 269.991489 
L 290.425896 281.953007 
L 290.701194 264.402172 
L 291.25179 281.052107 
L 291.527087 265.24623 
L 291.802385 267.617321 
L 292.077683 273.316309 
L 292.35298 265.667548 
L 292.628278 277.416319 
L 292.903576 268.766815 
L 293.178873 273.672696 
L 293.454171 270.982091 
L 293.729469 272.542972 
L 294.004767 271.003775 
L 294.280064 267.874935 
L 294.555362 277.473057 
L 294.83066 277.029035 
L 295.105957 257.916774 
L 295.381255 276.60159 
L 295.656553 272.892522 
L 295.93185 271.896325 
L 296.207148 277.683937 
L 296.482446 269.264841 
L 296.757744 276.043651 
L 297.308339 266.974343 
L 297.583637 266.074938 
L 297.858934 281.164094 
L 298.134232 280.410414 
L 298.40953 275.422692 
L 298.684828 259.991272 
L 298.960125 288.882426 
L 299.235423 252.794891 
L 299.786018 267.863992 
L 300.061316 269.594715 
L 300.336614 265.923357 
L 300.887209 279.320632 
L 301.162507 259.151814 
L 301.437805 264.565226 
L 301.713102 265.568113 
L 301.9884 281.369456 
L 302.263698 268.31783 
L 302.538995 272.811746 
L 302.814293 273.362189 
L 303.089591 284.395148 
L 303.640186 274.274831 
L 303.915484 272.713413 
L 304.190782 272.380526 
L 304.466079 266.692447 
L 304.741377 266.695204 
L 305.016675 279.45335 
L 305.291972 278.129071 
L 305.56727 267.075523 
L 305.842568 267.247317 
L 306.117866 270.37432 
L 306.393163 279.321527 
L 306.668461 255.069763 
L 306.943759 277.326696 
L 307.219056 267.892703 
L 307.494354 270.828579 
L 307.769652 268.657519 
L 308.04495 271.398255 
L 308.320247 265.033949 
L 308.595545 279.504011 
L 308.870843 259.083806 
L 309.14614 278.268608 
L 309.421438 278.578952 
L 309.696736 254.382358 
L 309.972033 270.434456 
L 310.247331 270.171295 
L 310.522629 281.408796 
L 310.797927 270.302521 
L 311.073224 275.978443 
L 311.348522 284.478174 
L 311.62382 278.278114 
L 311.899117 259.427844 
L 312.174415 264.234943 
L 312.449713 280.710834 
L 312.725011 266.534541 
L 313.000308 266.345237 
L 313.275606 275.057064 
L 313.550904 259.640602 
L 313.826201 280.786625 
L 314.101499 272.363505 
L 314.376797 268.392966 
L 314.652094 271.390246 
L 314.927392 267.638341 
L 315.20269 273.09854 
L 315.477988 274.143456 
L 315.753285 268.667572 
L 316.028583 272.421243 
L 316.303881 293.431294 
L 316.579178 269.882403 
L 316.854476 266.485055 
L 317.129774 261.116145 
L 317.405072 269.078443 
L 317.680369 267.106924 
L 317.955667 260.192022 
L 318.506262 272.970345 
L 318.78156 273.971314 
L 319.332155 279.021122 
L 319.607453 277.802029 
L 319.882751 287.130733 
L 320.158049 270.238732 
L 320.433346 273.118825 
L 320.708644 268.999301 
L 320.983942 274.635813 
L 321.259239 273.916704 
L 321.534537 262.921303 
L 321.809835 275.875997 
L 322.36043 261.458126 
L 322.635728 263.468727 
L 322.911026 287.321803 
L 323.186323 263.282242 
L 323.461621 269.239303 
L 323.736919 265.231328 
L 324.012216 271.258855 
L 324.287514 270.10085 
L 324.562812 273.885592 
L 324.83811 264.888183 
L 325.113407 265.305211 
L 325.388705 274.573885 
L 325.664003 278.63618 
L 325.9393 279.07835 
L 326.214598 256.866881 
L 326.489896 264.701859 
L 326.765194 282.172682 
L 327.315789 273.773409 
L 327.591087 265.17652 
L 327.866384 273.195255 
L 328.141682 272.295361 
L 328.692277 280.896513 
L 328.967575 268.856591 
L 329.242873 275.020865 
L 329.518171 255.707684 
L 329.793468 271.159023 
L 330.068766 277.527027 
L 330.344064 266.434605 
L 330.619361 265.49671 
L 330.894659 266.362837 
L 331.169957 267.849262 
L 331.445255 272.78129 
L 331.720552 275.197819 
L 331.99585 280.916005 
L 332.271148 274.127941 
L 332.546445 256.058093 
L 332.821743 276.600227 
L 333.097041 279.656535 
L 333.372338 273.919149 
L 333.647636 273.80464 
L 333.922934 258.856008 
L 334.198232 275.594569 
L 334.473529 264.13301 
L 334.748827 272.744073 
L 335.024125 263.275395 
L 335.299422 264.133518 
L 335.57472 265.464771 
L 335.850018 268.470477 
L 336.125315 259.102339 
L 336.400613 271.81323 
L 336.675911 265.179686 
L 336.951209 267.707641 
L 337.226506 276.284971 
L 337.501804 276.150224 
L 337.777102 273.823703 
L 338.052399 272.463924 
L 338.327697 274.290335 
L 338.602995 264.690782 
L 339.15359 274.773178 
L 339.428888 270.868132 
L 339.704186 272.714854 
L 339.979483 270.291437 
L 340.254781 276.227126 
L 340.530079 277.465865 
L 340.805376 271.349849 
L 341.355972 273.057386 
L 341.63127 307.130731 
L 341.906567 251.246723 
L 342.457163 275.434484 
L 343.007758 267.505842 
L 343.283056 269.428545 
L 343.558354 267.151117 
L 343.833651 272.01729 
L 344.108949 268.372788 
L 344.384247 277.089885 
L 344.659544 273.195346 
L 344.934842 257.399932 
L 345.21014 279.934685 
L 345.760735 275.263193 
L 346.036033 272.703975 
L 346.311331 273.972078 
L 346.861926 268.05126 
L 347.412521 278.017961 
L 347.687819 268.48989 
L 347.963117 269.593736 
L 348.238415 256.594341 
L 348.513712 279.003897 
L 348.78901 272.474596 
L 349.064308 268.968055 
L 349.339605 273.466657 
L 349.890201 274.591256 
L 350.165498 271.03831 
L 350.440796 272.813216 
L 350.716094 270.064455 
L 351.266689 276.264497 
L 351.541987 257.829447 
L 351.817285 311.836456 
L 352.092582 257.697881 
L 352.36788 265.314589 
L 352.643178 268.433613 
L 352.918476 267.798085 
L 353.193773 270.361603 
L 353.469071 267.057798 
L 353.744369 274.299428 
L 354.019666 269.944552 
L 354.294964 269.424542 
L 354.570262 269.195814 
L 354.845559 272.836952 
L 355.120857 257.970533 
L 355.396155 275.686009 
L 355.671453 274.369439 
L 355.94675 272.127202 
L 356.222048 271.961322 
L 356.497346 269.086577 
L 356.772643 276.631857 
L 357.047941 270.674474 
L 357.323239 272.019931 
L 357.598537 270.722938 
L 357.873834 270.5315 
L 358.149132 274.410481 
L 358.42443 258.712493 
L 358.699727 275.508229 
L 358.975025 274.156525 
L 359.52562 270.264888 
L 359.800918 271.450914 
L 360.076216 274.34267 
L 360.351514 271.110941 
L 360.626811 271.296325 
L 360.902109 270.458039 
L 361.177407 273.344994 
L 361.452704 271.108687 
L 361.728002 260.80999 
L 362.0033 274.518131 
L 362.278598 271.434859 
L 362.553895 271.36785 
L 362.829193 274.160918 
L 363.104491 274.287048 
L 363.379788 272.337647 
L 363.655086 272.87148 
L 363.930384 271.752285 
L 364.205681 283.726338 
L 364.480979 266.719246 
L 364.756277 305.140507 
L 365.031575 263.489518 
L 365.306872 259.867811 
L 365.58217 262.089103 
L 366.132765 269.609293 
L 366.408063 264.126891 
L 366.683361 270.848443 
L 366.958659 282.240154 
L 367.233956 287.124432 
L 367.509254 256.284434 
L 367.784552 277.615642 
L 368.059849 258.089128 
L 368.335147 275.73093 
L 368.610445 280.331217 
L 368.885742 270.498683 
L 369.16104 276.717122 
L 369.436338 272.164761 
L 369.711636 276.21005 
L 369.986933 270.327943 
L 370.537529 264.983642 
L 371.088124 271.28306 
L 371.363422 263.460201 
L 371.63872 270.034184 
L 371.914017 280.339847 
L 372.189315 279.436767 
L 372.464613 265.59027 
L 372.73991 265.930035 
L 373.015208 289.021908 
L 373.290506 263.705905 
L 373.565803 267.732037 
L 373.841101 262.369366 
L 374.391697 273.949622 
L 374.666994 256.172366 
L 374.942292 277.652058 
L 375.21759 274.443831 
L 375.492887 276.947118 
L 376.043483 268.333689 
L 376.31878 258.803557 
L 376.594078 279.918548 
L 376.869376 267.042162 
L 377.144674 265.595047 
L 377.419971 278.366112 
L 377.695269 268.360701 
L 377.970567 271.711267 
L 378.245864 269.678078 
L 378.521162 269.649755 
L 378.79646 274.509691 
L 379.071758 272.098634 
L 379.347055 296.84859 
L 379.622353 260.655066 
L 379.897651 267.240671 
L 380.172948 265.12088 
L 380.723544 272.19188 
L 380.998841 262.558335 
L 381.274139 263.991308 
L 381.549437 274.934351 
L 381.824735 270.526652 
L 382.100032 268.659285 
L 382.37533 274.194675 
L 382.650628 265.109596 
L 382.925925 268.860816 
L 383.201223 275.75982 
L 383.476521 273.312963 
L 383.751819 275.460763 
L 384.027116 276.466371 
L 384.302414 274.700428 
L 384.577712 276.37232 
L 384.853009 270.097208 
L 385.128307 268.336403 
L 385.403605 267.504778 
L 385.678902 270.048188 
L 385.9542 268.244419 
L 386.229498 275.225865 
L 386.504796 270.047845 
L 386.780093 270.574162 
L 387.055391 270.372099 
L 387.330689 269.895221 
L 387.605986 269.897486 
L 387.881284 276.582557 
L 388.43188 266.706783 
L 388.707177 268.738427 
L 388.982475 276.11045 
L 389.257773 268.51633 
L 389.53307 273.235525 
L 389.808368 273.351843 
L 390.083666 272.882886 
L 390.358963 272.057496 
L 390.634261 282.689451 
L 390.909559 270.173554 
L 391.460154 266.601004 
L 391.735452 264.147168 
L 392.01075 276.21018 
L 392.286047 268.790811 
L 392.561345 267.330367 
L 392.836643 275.918131 
L 393.111941 271.902847 
L 393.387238 271.864009 
L 393.662536 269.735051 
L 393.937834 265.211406 
L 394.213131 270.714032 
L 394.488429 271.868968 
L 394.763727 273.580762 
L 395.039024 278.040521 
L 395.314322 272.777676 
L 395.58962 270.197071 
L 395.864918 270.558532 
L 396.140215 283.465062 
L 396.415513 265.724315 
L 396.690811 267.15367 
L 396.966108 272.827242 
L 397.241406 263.920048 
L 397.516704 274.336877 
L 397.792002 268.155959 
L 398.067299 269.465633 
L 398.342597 273.744519 
L 398.617895 269.092796 
L 398.893192 271.753635 
L 399.16849 265.981165 
L 399.443788 264.927087 
L 399.719085 272.851908 
L 399.994383 274.836184 
L 400.269681 277.847602 
L 400.544979 267.956074 
L 401.095574 273.919401 
L 401.370872 269.811669 
L 401.646169 273.898209 
L 401.921467 264.430378 
L 402.196765 273.962174 
L 402.472063 273.075743 
L 402.74736 268.761576 
L 403.022658 271.920796 
L 403.297956 268.717701 
L 403.573253 272.30808 
L 403.848551 269.001707 
L 404.123849 275.002066 
L 404.399146 272.401578 
L 404.674444 272.114808 
L 404.949742 271.56991 
L 405.22504 273.895593 
L 405.500337 269.966354 
L 405.775635 267.818582 
L 406.050933 269.906837 
L 406.32623 294.919043 
L 406.601528 265.712277 
L 406.876826 263.41244 
L 407.152124 271.716323 
L 407.427421 269.646639 
L 407.702719 270.728989 
L 407.978017 267.382768 
L 408.253314 268.828081 
L 408.528612 277.004962 
L 408.80391 267.555032 
L 409.079207 271.797597 
L 409.354505 273.396826 
L 409.629803 259.418399 
L 409.905101 278.789139 
L 410.180398 268.333901 
L 410.455696 270.8042 
L 410.730994 269.985913 
L 411.006291 271.163893 
L 411.281589 275.839758 
L 411.556887 272.544424 
L 411.832185 272.219996 
L 412.107482 269.242276 
L 412.38278 275.234923 
L 412.658078 267.022537 
L 412.933375 265.834441 
L 413.208673 272.535389 
L 413.483971 275.272486 
L 413.759268 275.627976 
L 414.034566 273.459885 
L 414.309864 274.390079 
L 414.585162 266.030085 
L 414.860459 274.005661 
L 415.135757 274.705777 
L 415.411055 271.565234 
L 415.686352 270.475826 
L 415.96165 268.12475 
L 416.236948 263.913187 
L 416.512245 270.101523 
L 416.787543 273.084055 
L 417.062841 272.110084 
L 417.338139 270.10495 
L 417.613436 272.197713 
L 417.888734 270.60714 
L 418.164032 271.355852 
L 418.439329 266.784024 
L 418.714627 274.277029 
L 418.989925 268.63028 
L 419.265223 276.028714 
L 419.54052 273.782999 
L 419.815818 270.490848 
L 420.091116 283.462657 
L 420.366413 263.858298 
L 420.641711 266.62919 
L 420.917009 273.253785 
L 421.192306 271.034365 
L 421.467604 267.601495 
L 421.742902 266.486581 
L 422.0182 277.619229 
L 422.293497 275.46466 
L 422.568795 268.112794 
L 422.844093 271.878779 
L 423.11939 270.833577 
L 423.394688 266.680748 
L 423.669986 274.396692 
L 423.945284 268.276277 
L 424.220581 264.871227 
L 424.495879 274.458333 
L 424.771177 275.887908 
L 425.046474 268.653662 
L 425.321772 268.451376 
L 425.59707 272.863434 
L 425.872367 271.045879 
L 426.147665 271.335571 
L 426.422963 274.53045 
L 426.698261 269.605111 
L 426.973558 274.25097 
L 427.248856 276.229235 
L 427.524154 271.549541 
L 427.799451 270.773588 
L 428.074749 268.287662 
L 428.350047 270.467833 
L 428.625345 269.660262 
L 428.900642 272.490425 
L 429.17594 271.56012 
L 429.451238 268.916705 
L 429.726535 271.418294 
L 430.001833 264.785408 
L 430.277131 275.324802 
L 430.552428 276.22923 
L 430.827726 270.690973 
L 431.103024 274.789432 
L 431.378322 269.791011 
L 431.653619 276.608523 
L 431.928917 268.432522 
L 432.204215 265.480177 
L 432.479512 271.331779 
L 432.75481 270.665231 
L 433.030108 274.020993 
L 433.305406 273.231082 
L 433.580703 269.844087 
L 433.856001 270.629479 
L 434.131299 273.470863 
L 434.406596 273.173346 
L 434.681894 266.849484 
L 434.957192 269.824595 
L 435.232489 271.564646 
L 435.507787 277.006461 
L 436.058383 266.54826 
L 436.33368 274.478543 
L 436.608978 270.474319 
L 436.884276 268.456791 
L 437.434871 274.037178 
L 437.710169 270.204262 
L 437.985467 271.570944 
L 438.260764 271.719699 
L 438.536062 274.683443 
L 438.81136 269.668501 
L 439.086657 272.213485 
L 439.361955 271.672498 
L 439.637253 268.783394 
L 439.91255 271.576184 
L 440.187848 270.846335 
L 440.463146 267.211498 
L 440.738444 270.434818 
L 441.013741 271.961691 
L 441.289039 272.403067 
L 441.564337 270.021681 
L 441.839634 275.101386 
L 442.39023 270.211472 
L 442.665528 272.9502 
L 442.940825 268.057959 
L 443.216123 269.622057 
L 443.491421 271.94439 
L 444.042016 269.97168 
L 444.317314 269.409111 
L 444.592611 269.245973 
L 444.867909 275.442551 
L 445.143207 270.737801 
L 445.418505 269.595318 
L 445.693802 269.450419 
L 445.9691 275.637394 
L 446.244398 272.498822 
L 446.519695 273.935829 
L 446.794993 271.591542 
L 447.070291 274.63571 
L 447.345589 267.128051 
L 447.620886 272.723203 
L 447.896184 272.896798 
L 448.171482 269.982898 
L 448.446779 270.218909 
L 448.722077 293.014053 
L 448.997375 268.376665 
L 449.54797 264.871663 
L 450.098566 270.490874 
L 450.373863 267.954653 
L 450.649161 271.722647 
L 450.924459 268.038525 
L 451.475054 274.686077 
L 451.750352 274.542748 
L 452.02565 258.837641 
L 452.300947 272.579043 
L 452.576245 274.098798 
L 452.851543 269.984973 
L 453.12684 272.121326 
L 453.402138 269.913123 
L 453.677436 266.140231 
L 453.952733 270.642424 
L 454.228031 270.214639 
L 454.503329 273.034822 
L 454.778627 266.692996 
L 455.053924 267.144616 
L 455.329222 265.27694 
L 455.60452 272.31547 
L 455.879817 271.455826 
L 456.155115 273.440597 
L 456.430413 281.787663 
L 456.70571 275.218434 
L 456.981008 280.511288 
L 457.256306 296.739653 
L 457.531604 255.206238 
L 457.806901 263.151382 
L 458.082199 267.729952 
L 458.357497 264.90971 
L 458.632794 263.488319 
L 458.908092 269.677026 
L 459.18339 270.787317 
L 459.458688 272.671179 
L 459.733985 271.163345 
L 460.009283 278.386101 
L 460.284581 271.060184 
L 460.559878 267.222951 
L 460.835176 275.594515 
L 461.110474 277.682008 
L 461.385771 272.45108 
L 461.936367 267.289792 
L 462.211665 273.523988 
L 462.486962 273.998707 
L 462.76226 270.671748 
L 463.037558 265.578695 
L 463.312855 268.585048 
L 463.588153 268.77974 
L 463.863451 263.367237 
L 464.138749 279.733104 
L 464.414046 271.097319 
L 464.689344 270.730157 
L 464.964642 277.332325 
L 465.239939 271.311496 
L 465.515237 277.352416 
L 465.790535 279.187309 
L 466.065832 267.782401 
L 466.34113 279.069424 
L 466.616428 262.041667 
L 466.891726 269.731354 
L 467.167023 262.342068 
L 467.442321 271.021951 
L 467.717619 270.285391 
L 467.992916 271.148895 
L 468.268214 271.613096 
L 468.543512 277.686896 
L 468.81881 273.578067 
L 469.094107 266.573517 
L 469.369405 274.178325 
L 469.644703 267.411125 
L 470.195298 271.197334 
L 470.470596 275.008086 
L 470.745893 272.854128 
L 471.021191 272.054531 
L 471.296489 302.123746 
L 471.571787 274.804903 
L 471.847084 289.747461 
L 472.122382 263.997034 
L 472.39768 267.24755 
L 472.672977 278.345207 
L 472.948275 277.18569 
L 473.223573 263.999308 
L 473.498871 269.052061 
L 473.774168 268.757999 
L 474.049466 278.04501 
L 474.324764 258.101166 
L 474.600061 255.823708 
L 474.875359 262.762489 
L 475.150657 256.109566 
L 475.425954 267.748794 
L 475.701252 269.57876 
L 475.97655 268.909301 
L 476.251848 262.84943 
L 476.527145 275.172768 
L 476.802443 270.671112 
L 477.077741 271.115371 
L 477.353038 271.211826 
L 477.628336 285.756466 
L 477.903634 272.276606 
L 478.178932 265.740431 
L 478.454229 276.814349 
L 478.729527 270.90845 
L 479.004825 283.449237 
L 479.280122 273.817627 
L 479.55542 270.371829 
L 479.830718 270.825255 
L 480.106015 273.606856 
L 480.656611 271.340759 
L 480.931909 273.648113 
L 481.207206 261.433123 
L 481.482504 276.268637 
L 481.757802 266.827785 
L 482.033099 281.372888 
L 482.308397 264.416231 
L 482.583695 264.753695 
L 482.858993 266.80771 
L 483.13429 274.536096 
L 483.409588 275.10884 
L 483.684886 273.411105 
L 483.960183 270.311828 
L 484.235481 274.574071 
L 484.510779 275.722387 
L 484.786076 287.871146 
L 485.061374 279.195876 
L 485.336672 259.641983 
L 485.61197 260.273966 
L 485.887267 268.641761 
L 486.162565 273.528589 
L 486.437863 268.556246 
L 486.71316 277.386204 
L 486.988458 272.002969 
L 487.263756 264.300109 
L 487.539054 268.557762 
L 487.814351 269.291953 
L 488.089649 263.705411 
L 488.640244 272.156644 
L 488.915542 272.490092 
L 489.19084 271.63734 
L 489.466137 264.5421 
L 489.741435 272.73301 
L 490.016733 271.187259 
L 490.292031 271.038852 
L 490.567328 264.862571 
L 490.842626 275.077975 
L 491.117924 270.377781 
L 491.393221 269.664406 
L 491.668519 267.284569 
L 492.219115 280.353158 
L 492.494412 269.581066 
L 493.045008 275.600617 
L 493.320305 269.15639 
L 493.870901 280.810689 
L 494.146198 267.707567 
L 494.421496 268.628487 
L 494.696794 263.154996 
L 494.972092 263.620244 
L 495.247389 275.41974 
L 495.522687 269.361011 
L 495.797985 271.873025 
L 496.34858 275.325292 
L 496.623878 271.037242 
L 496.899176 269.953475 
L 497.174473 272.851913 
L 497.725069 270.819791 
L 498.000366 270.847506 
L 498.275664 271.868945 
L 498.550962 273.429343 
L 498.826259 267.742152 
L 499.101557 273.206445 
L 499.376855 270.095044 
L 499.652153 269.667657 
L 499.92745 268.269508 
L 500.753343 272.896313 
L 501.028641 273.551145 
L 501.303939 270.621563 
L 501.579236 273.230642 
L 501.854534 269.299246 
L 502.129832 269.776607 
L 502.40513 290.2772 
L 502.680427 264.584818 
L 502.955725 268.825975 
L 503.231023 269.050096 
L 503.50632 267.251327 
L 503.781618 272.764132 
L 504.056916 265.499748 
L 504.607511 276.797075 
L 504.882809 268.882273 
L 505.158107 273.711296 
L 505.433404 272.281406 
L 505.708702 265.506507 
L 505.984 275.827656 
L 506.259297 273.755299 
L 506.534595 268.426136 
L 506.809893 276.161934 
L 507.360488 264.909692 
L 508.186381 276.372635 
L 508.461679 271.409198 
L 508.736977 272.168432 
L 509.012275 271.751995 
L 509.287572 271.754743 
L 509.56287 271.968771 
L 509.838168 280.604654 
L 510.113465 266.764841 
L 510.388763 283.404443 
L 510.664061 264.908881 
L 510.939358 261.752267 
L 511.214656 269.1741 
L 511.489954 268.620941 
L 511.765252 274.636087 
L 512.040549 270.643397 
L 512.315847 264.745908 
L 512.591145 274.088059 
L 512.866442 269.885833 
L 513.14174 268.883058 
L 513.417038 270.327304 
L 513.692336 265.285216 
L 513.967633 285.8618 
L 514.793526 279.498968 
L 515.068824 273.703209 
L 515.344122 275.301252 
L 515.619419 271.123052 
L 515.894717 272.368674 
L 516.170015 270.834053 
L 516.445313 270.676766 
L 516.995908 267.909166 
L 517.271206 273.987124 
L 517.821801 267.760268 
L 518.097099 268.437611 
L 518.372397 268.509277 
L 518.647694 270.800366 
L 518.922992 268.832721 
L 519.19829 271.93197 
L 519.473587 271.465922 
L 519.748885 269.371423 
L 520.024183 271.613882 
L 520.29948 267.351664 
L 520.574778 272.244055 
L 520.850076 271.212141 
L 521.125374 258.107989 
L 521.400671 267.864375 
L 521.675969 265.360186 
L 521.951267 266.3708 
L 522.226564 266.085284 
L 522.501862 273.427609 
L 522.77716 265.740488 
L 523.052458 270.492973 
L 523.327755 266.212955 
L 523.603053 272.935918 
L 523.878351 267.808165 
L 524.153648 270.230396 
L 524.428946 269.845305 
L 524.704244 265.737923 
L 524.979541 269.533842 
L 525.254839 270.628111 
L 525.530137 274.627255 
L 525.805435 260.788435 
L 526.080732 269.220236 
L 526.35603 267.847426 
L 526.631328 271.688065 
L 526.906625 267.346081 
L 527.181923 271.874002 
L 527.457221 272.847017 
L 527.732519 275.880657 
L 528.007816 272.384312 
L 528.283114 274.240854 
L 528.558412 272.345769 
L 529.109007 273.866397 
L 529.384305 272.026676 
L 529.659602 275.600499 
L 530.210198 270.893079 
L 530.485496 270.278431 
L 530.760793 270.637754 
L 531.036091 275.247182 
L 531.311389 271.332513 
L 531.861984 274.791046 
L 532.137282 270.48045 
L 532.41258 270.864563 
L 532.687877 276.170951 
L 532.963175 271.232146 
L 533.238473 275.865517 
L 533.51377 270.710783 
L 533.789068 274.093431 
L 534.064366 270.351216 
L 534.614961 274.502073 
L 534.890259 272.353303 
L 535.165557 267.867807 
L 535.440854 284.12018 
L 535.716152 282.571477 
L 535.99145 282.931158 
L 536.266747 270.381721 
L 536.542045 271.398441 
L 536.817343 267.593146 
L 537.092641 268.269723 
L 537.367938 269.771327 
L 537.918534 274.279298 
L 538.193831 267.108523 
L 538.469129 273.479915 
L 538.744427 263.776005 
L 539.019724 270.920572 
L 539.295022 266.843091 
L 539.57032 272.428474 
L 539.845618 272.055218 
L 540.120915 272.234949 
L 540.396213 271.265629 
L 540.671511 270.952113 
L 540.946808 271.337548 
L 541.222106 270.247418 
L 541.497404 272.929742 
L 541.772701 270.941357 
L 542.047999 265.45219 
L 542.323297 265.799141 
L 542.598595 269.237164 
L 542.873892 274.200391 
L 543.14919 269.433057 
L 543.424488 276.465901 
L 543.699785 270.342896 
L 543.975083 278.846235 
L 544.250381 267.192663 
L 544.525679 270.731615 
L 544.800976 268.389097 
L 545.076274 269.059853 
L 545.351572 267.968894 
L 545.626869 268.281208 
L 545.902167 266.611643 
L 546.177465 269.720425 
L 546.452762 270.745315 
L 546.72806 277.667701 
L 547.003358 269.927891 
L 547.278656 267.367107 
L 547.829251 274.720967 
L 548.104549 269.087506 
L 548.379846 270.465809 
L 548.655144 283.151853 
L 548.930442 286.831882 
L 549.20574 261.254434 
L 549.481037 266.547684 
L 549.756335 266.023188 
L 550.031633 265.789724 
L 550.30693 273.388966 
L 550.582228 267.438189 
L 550.857526 274.974696 
L 551.132823 270.103025 
L 551.408121 274.996259 
L 551.683419 273.62567 
L 551.958717 268.935537 
L 552.234014 268.531023 
L 552.509312 273.360004 
L 552.78461 271.427124 
L 553.059907 275.594794 
L 553.335205 269.534672 
L 553.610503 271.811782 
L 554.161098 267.126897 
L 554.436396 271.846722 
L 554.986991 270.827489 
L 555.262289 268.563892 
L 555.537587 265.06039 
L 555.812884 279.506637 
L 556.088182 273.093948 
L 556.36348 269.996815 
L 556.638778 275.366513 
L 556.914075 274.526318 
L 557.189373 273.255703 
L 557.464671 267.457469 
L 558.290564 274.016846 
L 558.565862 269.725467 
L 558.841159 261.36262 
L 559.116457 275.062124 
L 559.667052 270.995634 
L 559.94235 274.350148 
L 560.217648 271.605344 
L 560.492945 265.642413 
L 560.768243 268.977611 
L 561.043541 264.633486 
L 561.318839 272.528825 
L 561.594136 271.240796 
L 561.869434 265.465554 
L 562.144732 274.696159 
L 562.420029 271.114869 
L 562.695327 273.39569 
L 562.970625 277.80001 
L 563.52122 268.070918 
L 564.071816 274.924212 
L 564.347113 264.295008 
L 564.622411 272.61095 
L 564.897709 274.461464 
L 565.173006 270.517824 
L 565.448304 273.08079 
L 565.723602 268.151561 
L 565.9989 276.467879 
L 566.274197 273.223318 
L 566.549495 265.584701 
L 567.10009 273.726095 
L 567.375388 273.116802 
L 567.650686 273.330834 
L 568.201281 270.357188 
L 568.476579 272.062691 
L 568.751877 274.560047 
L 569.027174 272.425168 
L 569.302472 266.337357 
L 569.57777 273.578951 
L 569.853067 276.453325 
L 570.128365 271.531502 
L 570.403663 277.939041 
L 570.678961 276.148254 
L 570.954258 275.487547 
L 571.229556 270.377057 
L 571.504854 271.492202 
L 571.780151 273.783312 
L 572.055449 286.439628 
L 572.330747 265.710177 
L 572.606045 264.511967 
L 572.881342 265.668011 
L 573.15664 265.149622 
L 573.431938 271.108222 
L 573.707235 270.005132 
L 574.257831 274.39437 
L 574.533128 271.228597 
L 574.808426 269.412217 
L 575.083724 271.168372 
L 575.359022 261.641349 
L 575.909617 278.291069 
L 576.184915 267.654101 
L 576.460212 267.735414 
L 576.73551 267.264705 
L 577.010808 279.647949 
L 577.561403 263.613852 
L 577.836701 271.11133 
L 578.111999 274.934932 
L 578.387296 270.273581 
L 578.662594 262.147625 
L 578.937892 276.941038 
L 579.213189 263.750596 
L 579.488487 273.871715 
L 580.039083 275.605444 
L 580.31438 268.045993 
L 580.589678 269.895381 
L 580.864976 277.741831 
L 581.140273 271.768589 
L 581.415571 268.945904 
L 581.690869 270.712572 
L 581.966166 264.483578 
L 582.241464 274.231881 
L 582.516762 274.109775 
L 582.79206 265.50626 
L 583.342655 271.198575 
L 583.617953 266.593447 
L 583.89325 276.262214 
L 584.168548 277.644034 
L 584.443846 270.517741 
L 584.994441 276.382006 
L 585.269739 274.681709 
L 585.545037 274.795848 
L 585.820334 285.03771 
L 586.37093 264.387936 
L 586.646227 267.885857 
L 586.921525 268.35041 
L 587.196823 264.835318 
L 587.472121 280.184717 
L 587.747418 281.13848 
L 588.022716 275.804269 
L 588.298014 275.692329 
L 588.573311 277.301285 
L 588.848609 270.166202 
L 589.123907 269.282617 
L 589.399205 271.229439 
L 589.674502 265.552551 
L 589.9498 271.663895 
L 590.225098 267.013083 
L 590.500395 266.959184 
L 590.775693 256.866651 
L 591.326288 264.526102 
L 591.601586 266.03957 
L 591.876884 274.925631 
L 592.427479 263.587037 
L 592.702777 283.312168 
L 593.253372 269.777579 
L 593.52867 272.442181 
L 593.803968 271.805907 
L 594.079266 268.500382 
L 594.354563 266.966628 
L 594.629861 268.429379 
L 594.905159 267.618263 
L 595.180456 267.969104 
L 595.455754 270.840093 
L 595.731052 270.165317 
L 596.006349 270.974969 
L 596.281647 276.455091 
L 596.832243 273.733715 
L 597.10754 274.717745 
L 597.382838 273.332721 
L 597.658136 266.610693 
L 597.933433 271.362629 
L 598.208731 269.986323 
L 598.484029 272.348006 
L 598.759327 269.956733 
L 599.034624 275.835798 
L 599.309922 278.1949 
L 599.58522 278.650895 
L 599.860517 273.319515 
L 600.135815 264.839427 
L 600.411113 264.406614 
L 600.68641 275.710628 
L 600.961708 270.293342 
L 601.237006 268.646086 
L 601.512304 273.150703 
L 601.787601 268.784356 
L 602.062899 271.409457 
L 602.338197 268.5905 
L 602.613494 261.39608 
L 602.888792 272.515111 
L 603.16409 271.02648 
L 603.439388 285.789278 
L 603.714685 272.997294 
L 603.989983 269.991334 
L 604.265281 275.675695 
L 604.540578 267.818104 
L 604.815876 272.781747 
L 605.091174 270.655033 
L 605.366471 266.654086 
L 605.641769 270.636067 
L 605.917067 265.071048 
L 606.192365 266.75944 
L 606.467662 271.941359 
L 606.74296 271.306558 
L 607.018258 269.136263 
L 607.844151 274.846101 
L 608.119449 271.316969 
L 608.394746 273.86195 
L 608.670044 269.980748 
L 608.945342 269.322515 
L 609.220639 269.838053 
L 609.495937 267.884203 
L 609.771235 275.328837 
L 610.046532 265.544673 
L 610.597128 276.531893 
L 610.872426 273.683507 
L 611.147723 278.541415 
L 611.423021 270.320211 
L 611.698319 274.413918 
L 612.248914 265.797251 
L 612.524212 274.249792 
L 612.79951 289.264367 
L 613.074807 279.296707 
L 613.350105 274.303442 
L 613.625403 265.890876 
L 613.9007 278.915095 
L 614.175998 275.984266 
L 614.451296 266.586647 
L 614.726593 262.700195 
L 615.001891 270.200509 
L 615.277189 281.720921 
L 615.552487 260.510987 
L 615.827784 265.413165 
L 616.103082 267.480236 
L 616.37838 263.642299 
L 616.653677 267.775077 
L 616.928975 275.897181 
L 617.204273 265.947949 
L 617.479571 269.507145 
L 617.754868 269.543627 
L 618.030166 272.581173 
L 618.305464 273.322474 
L 618.580761 270.892618 
L 618.856059 275.057779 
L 619.131357 271.802288 
L 619.406654 267.199315 
L 619.681952 269.101407 
L 620.232548 275.982531 
L 620.507845 267.938286 
L 620.783143 267.012177 
L 621.058441 271.436796 
L 621.333738 272.448591 
L 621.609036 268.333206 
L 621.884334 269.028548 
L 622.159631 276.828652 
L 622.434929 269.825189 
L 622.710227 268.561035 
L 622.985525 271.225949 
L 623.260822 270.024387 
L 623.53612 272.125087 
L 623.811418 268.995379 
L 624.086715 268.839969 
L 624.362013 274.259034 
L 624.637311 276.503228 
L 624.912609 271.407185 
L 625.187906 268.465259 
L 625.463204 274.216288 
L 625.738502 274.616477 
L 626.289097 261.882401 
L 626.564395 266.613413 
L 626.839692 269.097817 
L 627.11499 264.314174 
L 627.390288 270.416015 
L 627.665586 272.603565 
L 627.940883 273.202351 
L 628.216181 263.401056 
L 628.491479 267.57695 
L 628.766776 276.120658 
L 629.042074 257.319315 
L 629.317372 272.080849 
L 629.59267 277.738314 
L 629.867967 275.811736 
L 630.143265 275.455645 
L 630.418563 275.719477 
L 630.69386 273.827774 
L 630.969158 269.510314 
L 631.519753 271.207651 
L 631.795051 271.620834 
L 632.070349 270.522977 
L 632.345647 277.183211 
L 632.620944 271.37959 
L 632.896242 271.743012 
L 633.17154 268.411407 
L 633.446837 274.122544 
L 633.722135 273.649068 
L 633.997433 271.419686 
L 634.272731 271.22123 
L 634.548028 270.513638 
L 634.823326 276.585729 
L 635.098624 268.3775 
L 635.373921 270.993425 
L 635.649219 275.867591 
L 635.924517 272.360049 
L 636.199814 275.508934 
L 636.475112 272.794577 
L 636.75041 277.094647 
L 637.025708 271.4995 
L 637.301005 284.490861 
L 637.576303 279.532058 
L 637.851601 277.66253 
L 638.126898 266.425106 
L 638.402196 264.390445 
L 638.677494 264.943254 
L 638.952792 274.720736 
L 639.228089 265.755014 
L 639.503387 283.556623 
L 639.778685 288.584286 
L 640.053982 280.4102 
L 640.32928 281.191613 
L 640.604578 268.937451 
L 640.879875 275.025255 
L 641.155173 273.011848 
L 641.430471 274.140413 
L 641.705769 274.264331 
L 641.981066 274.2655 
L 642.256364 262.468791 
L 642.531662 269.240221 
L 642.806959 257.936691 
L 643.082257 259.909085 
L 643.357555 257.079222 
L 643.632853 258.468393 
L 643.90815 265.103754 
L 644.183448 263.746526 
L 644.458746 269.385876 
L 644.734043 271.205121 
L 645.009341 285.725515 
L 645.284639 274.919168 
L 645.559936 274.890768 
L 646.661127 265.615689 
L 646.936425 272.972107 
L 647.211723 267.603094 
L 647.48702 267.224142 
L 647.762318 267.325348 
L 648.037616 275.23365 
L 648.312914 271.959373 
L 648.588211 278.743737 
L 648.863509 271.707318 
L 649.138807 272.533461 
L 649.414104 266.82219 
L 649.689402 264.957792 
L 649.9647 270.539535 
L 650.239997 271.064501 
L 650.515295 271.831212 
L 650.790593 268.763422 
L 651.065891 270.157026 
L 651.341188 269.688573 
L 651.616486 269.790351 
L 651.891784 267.896229 
L 652.167081 273.585633 
L 652.442379 269.660201 
L 652.717677 271.042376 
L 652.992975 291.772618 
L 653.54357 279.309848 
L 653.818868 276.190608 
L 654.094165 275.280328 
L 654.369463 273.659821 
L 654.920058 268.204024 
L 655.195356 268.838189 
L 655.470654 272.311082 
L 655.745952 272.699113 
L 656.021249 272.77114 
L 656.296547 265.385779 
L 656.571845 268.519036 
L 656.847142 267.88831 
L 657.12244 269.498827 
L 657.397738 270.431519 
L 657.673036 270.81886 
L 657.948333 270.702364 
L 658.223631 271.195505 
L 658.498929 269.287675 
L 658.774226 272.447646 
L 659.049524 272.490456 
L 659.324822 272.925995 
L 659.600119 266.470409 
L 659.875417 268.14889 
L 660.426013 269.750886 
L 660.70131 270.651009 
L 660.976608 270.65522 
L 661.251906 271.441138 
L 661.527203 271.135481 
L 662.077799 271.697488 
L 662.353097 272.232366 
L 662.628394 272.356626 
L 662.903692 265.361786 
L 663.17899 267.912548 
L 663.454287 269.170758 
L 664.004883 270.286995 
L 664.28018 270.529937 
L 664.555478 271.274494 
L 675.567386 271.274494 
L 675.567386 271.274494 
" clip-path="url(#pd7de66dcfe)" style="fill: none; stroke: #2878b5; stroke-width: 1.5; stroke-linecap: square"/>
   </g>
   <g id="line2d_24">
    <path d="M 42.23125 271.274494 
L 705.72625 271.274494 
" clip-path="url(#pd7de66dcfe)" style="fill: none; stroke-dasharray: 7.4,3.2; stroke-dashoffset: 0; stroke: #c82423; stroke-width: 2"/>
   </g>
   <g id="patch_3">
    <path d="M 42.23125 392.71875 
L 42.23125 27.04375 
" style="fill: none; stroke: #000000; stroke-width: 0.8; stroke-linejoin: miter; stroke-linecap: square"/>
   </g>
   <g id="patch_4">
    <path d="M 705.72625 392.71875 
L 705.72625 27.04375 
" style="fill: none; stroke: #000000; stroke-width: 0.8; stroke-linejoin: miter; stroke-linecap: square"/>
   </g>
   <g id="patch_5">
    <path d="M 42.23125 392.71875 
L 705.72625 392.71875 
" style="fill: none; stroke: #000000; stroke-width: 0.8; stroke-linejoin: miter; stroke-linecap: square"/>
   </g>
   <g id="patch_6">
    <path d="M 42.23125 27.04375 
L 705.72625 27.04375 
" style="fill: none; stroke: #000000; stroke-width: 0.8; stroke-linejoin: miter; stroke-linecap: square"/>
   </g>
   <g id="text_14">
    <!-- qvm_L/s 预测残差分析 -->
    <g transform="translate(313.97875 17.04375) scale(0.12 -0.12)">
     <defs>
      <path id="SimHei-71" d="M 2750 -800 
L 2250 -800 
L 2250 500 
Q 2100 275 1900 162 
Q 1700 50 1425 50 
Q 925 50 575 425 
Q 225 800 225 1525 
Q 225 2250 575 2612 
Q 925 2975 1425 2975 
Q 1700 2975 1900 2875 
Q 2100 2775 2250 2550 
L 2250 2925 
L 2750 2925 
L 2750 -800 
z
M 2250 1525 
Q 2250 2000 2037 2262 
Q 1825 2525 1525 2525 
Q 1150 2525 962 2262 
Q 775 2000 775 1525 
Q 775 1050 962 775 
Q 1150 500 1525 500 
Q 1825 500 2037 775 
Q 2250 1050 2250 1525 
z
" transform="scale(0.015625)"/>
      <path id="SimHei-76" d="M 2875 2925 
L 1825 75 
L 1275 75 
L 225 2925 
L 750 2925 
L 1525 750 
L 1575 750 
L 2350 2925 
L 2875 2925 
z
" transform="scale(0.015625)"/>
      <path id="SimHei-6d" d="M 3050 125 
L 2550 125 
L 2550 2150 
Q 2550 2300 2500 2400 
Q 2450 2500 2300 2500 
Q 2125 2500 1975 2312 
Q 1825 2125 1825 1825 
L 1825 125 
L 1325 125 
L 1325 2150 
Q 1325 2300 1275 2400 
Q 1225 2500 1075 2500 
Q 900 2500 750 2312 
Q 600 2125 600 1825 
L 600 125 
L 100 125 
L 100 2925 
L 600 2925 
L 600 2550 
Q 725 2750 900 2862 
Q 1075 2975 1275 2975 
Q 1475 2975 1612 2862 
Q 1750 2750 1800 2550 
Q 1925 2750 2087 2862 
Q 2250 2975 2450 2975 
Q 2750 2975 2900 2812 
Q 3050 2650 3050 2350 
L 3050 125 
z
" transform="scale(0.015625)"/>
      <path id="SimHei-5f" d="M 3150 -850 
L 0 -850 
L 0 -550 
L 3150 -550 
L 3150 -850 
z
" transform="scale(0.015625)"/>
      <path id="SimHei-4c" d="M 2900 125 
L 300 125 
L 300 4400 
L 875 4400 
L 875 600 
L 2900 600 
L 2900 125 
z
" transform="scale(0.015625)"/>
      <path id="SimHei-73" d="M 2750 900 
Q 2750 500 2437 287 
Q 2125 75 1650 75 
Q 1050 75 725 312 
Q 400 550 400 1000 
L 900 1000 
Q 900 700 1112 600 
Q 1325 500 1625 500 
Q 1925 500 2075 612 
Q 2225 725 2225 900 
Q 2225 1025 2100 1150 
Q 1975 1275 1475 1350 
Q 900 1425 687 1637 
Q 475 1850 475 2200 
Q 475 2500 762 2737 
Q 1050 2975 1600 2975 
Q 2100 2975 2387 2750 
Q 2675 2525 2675 2150 
L 2175 2150 
Q 2175 2375 2012 2462 
Q 1850 2550 1600 2550 
Q 1275 2550 1137 2437 
Q 1000 2325 1000 2175 
Q 1000 2000 1125 1900 
Q 1250 1800 1650 1750 
Q 2300 1650 2525 1437 
Q 2750 1225 2750 900 
z
" transform="scale(0.015625)"/>
      <path id="SimHei-9884" d="M 5200 4800 
Q 5575 4800 5950 4825 
L 5950 4400 
Q 5575 4425 5200 4425 
L 4500 4425 
Q 4425 4050 4350 3600 
L 5725 3600 
Q 5700 3225 5700 2800 
L 5700 1725 
Q 5700 1300 5725 850 
L 5250 850 
L 5250 3225 
L 3550 3225 
L 3550 800 
L 3075 800 
Q 3100 1375 3100 1725 
L 3100 2775 
Q 3100 3175 3075 3600 
L 3900 3600 
Q 4000 4150 4000 4425 
L 3725 4425 
Q 3300 4425 2850 4400 
L 2850 4825 
Q 3325 4800 3725 4800 
L 5200 4800 
z
M 2600 1775 
Q 2350 1825 2150 1825 
Q 2250 2250 2300 2450 
L 1750 2450 
L 1750 125 
Q 1725 -300 1425 -400 
Q 1125 -500 750 -500 
Q 700 -225 575 25 
Q 1125 -25 1212 37 
Q 1300 100 1300 350 
L 1300 2450 
L 1025 2450 
Q 700 2450 350 2425 
L 350 2850 
Q 700 2825 1000 2825 
L 2850 2825 
Q 2725 2325 2600 1775 
z
M 4725 2875 
Q 4625 2575 4600 2100 
Q 4575 1625 4462 1037 
Q 4350 450 3962 62 
Q 3575 -325 2925 -675 
Q 2700 -500 2475 -350 
Q 3075 -125 3437 200 
Q 3800 525 3950 937 
Q 4100 1350 4137 1850 
Q 4175 2350 4175 2925 
L 4725 2875 
z
M 1625 2900 
Q 1275 3275 800 3650 
Q 925 3775 1075 3950 
Q 1250 3825 1425 3675 
Q 1750 4150 1950 4375 
L 1400 4375 
Q 900 4375 450 4350 
L 450 4775 
Q 900 4750 1375 4750 
L 2575 4750 
L 2575 4375 
Q 2200 4100 1725 3400 
L 1950 3200 
Q 1750 3025 1625 2900 
z
M 4775 725 
Q 5725 0 6075 -325 
Q 5850 -500 5725 -650 
Q 5400 -325 5137 -87 
Q 4875 150 4525 350 
Q 4650 525 4775 725 
z
" transform="scale(0.015625)"/>
      <path id="SimHei-6d4b" d="M 4025 4725 
Q 4000 4475 4000 4000 
L 4000 2225 
Q 4000 1775 4025 1350 
L 3550 1350 
L 3550 4325 
L 2350 4325 
L 2350 1325 
L 1900 1325 
Q 1925 1775 1925 2225 
L 1925 4000 
Q 1925 4200 1900 4725 
L 4025 4725 
z
M 5900 5075 
Q 5875 4800 5875 4375 
L 5875 0 
Q 5875 -325 5650 -425 
Q 5425 -525 4975 -600 
Q 4925 -325 4775 -50 
Q 5125 -50 5262 -25 
Q 5400 0 5400 250 
L 5400 4375 
Q 5400 4775 5375 5075 
L 5900 5075 
z
M 3275 3725 
Q 3225 3400 3200 2325 
Q 3175 1250 2837 550 
Q 2500 -150 2075 -600 
Q 1850 -400 1600 -325 
Q 2200 250 2475 962 
Q 2750 1675 2762 2475 
Q 2775 3275 2725 3800 
Q 3000 3750 3275 3725 
z
M 4950 4275 
Q 4925 4000 4925 3575 
L 4925 1825 
Q 4925 1300 4950 850 
L 4450 850 
Q 4475 1150 4475 1825 
L 4475 3575 
Q 4475 4000 4450 4275 
L 4950 4275 
z
M 1700 1675 
Q 1375 1075 1112 487 
Q 850 -100 725 -400 
Q 500 -200 200 -25 
Q 475 300 762 850 
Q 1050 1400 1250 2000 
Q 1475 1825 1700 1675 
z
M 3400 1050 
Q 3800 650 4300 -125 
Q 4100 -225 3875 -450 
Q 3475 275 3025 750 
Q 3225 875 3400 1050 
z
M 600 3525 
Q 1125 3125 1500 2775 
Q 1300 2575 1150 2375 
Q 825 2775 300 3150 
Q 450 3300 600 3525 
z
M 1350 4000 
Q 950 4375 475 4675 
Q 625 4850 775 5050 
Q 1300 4700 1675 4375 
Q 1500 4250 1350 4000 
z
" transform="scale(0.015625)"/>
      <path id="SimHei-5206" d="M 1000 -650 
Q 825 -375 575 -225 
Q 975 -75 1300 137 
Q 1625 350 1875 662 
Q 2125 975 2250 1350 
Q 2375 1725 2425 2275 
Q 1850 2275 1500 2250 
L 1500 2775 
Q 1900 2750 2525 2750 
L 5025 2750 
Q 4975 2375 4950 2100 
L 4750 250 
Q 4700 -200 4350 -350 
Q 4000 -500 3575 -525 
Q 3550 -275 3325 50 
Q 3850 25 4037 87 
Q 4225 150 4275 525 
L 4450 2275 
L 2950 2275 
Q 2875 1625 2737 1187 
Q 2600 750 2350 425 
Q 2100 100 1750 -175 
Q 1400 -450 1000 -650 
z
M 3950 5175 
Q 4125 4650 4662 3975 
Q 5200 3300 6175 2800 
Q 5975 2625 5775 2275 
Q 5325 2600 4987 2887 
Q 4650 3175 4425 3425 
Q 4200 3675 3925 4137 
Q 3650 4600 3475 5000 
Q 3750 5075 3950 5175 
z
M 2700 4825 
Q 2475 4425 2325 4125 
Q 2175 3825 2025 3587 
Q 1875 3350 1575 2950 
Q 1275 2550 850 2125 
Q 625 2350 400 2475 
Q 900 2925 1187 3300 
Q 1475 3675 1737 4112 
Q 2000 4550 2200 5075 
Q 2400 4925 2700 4825 
z
" transform="scale(0.015625)"/>
      <path id="SimHei-6790" d="M 5900 4550 
Q 5575 4525 5087 4450 
Q 4600 4375 3725 4275 
L 3725 3075 
L 5400 3075 
Q 5725 3075 6150 3100 
L 6150 2650 
Q 5700 2675 5250 2675 
L 5250 350 
Q 5250 -100 5275 -475 
L 4750 -475 
Q 4775 -75 4775 375 
L 4775 2675 
L 3725 2675 
Q 3725 2175 3650 1637 
Q 3575 1100 3437 637 
Q 3300 175 2850 -500 
Q 2675 -300 2275 -150 
Q 2825 325 3050 1112 
Q 3275 1900 3262 3000 
Q 3250 4100 3225 4650 
Q 3975 4700 4562 4800 
Q 5150 4900 5500 5050 
Q 5675 4750 5900 4550 
z
M 1900 525 
Q 1900 200 1925 -525 
L 1400 -525 
Q 1425 25 1425 525 
L 1425 2250 
Q 1175 1625 600 800 
Q 425 1075 200 1225 
Q 650 1725 962 2387 
Q 1275 3050 1375 3425 
Q 925 3425 450 3400 
L 450 3850 
Q 925 3825 1425 3825 
L 1425 4450 
Q 1425 4775 1400 5125 
L 1950 5125 
Q 1900 4825 1900 4450 
L 1900 3825 
Q 2300 3825 2775 3850 
L 2775 3400 
Q 2300 3425 1900 3425 
L 1900 525 
z
M 2375 2750 
Q 2800 2050 2925 1800 
Q 2700 1700 2450 1550 
Q 2300 1900 1950 2525 
Q 2175 2625 2375 2750 
z
" transform="scale(0.015625)"/>
     </defs>
     <use xlink:href="#SimHei-71"/>
     <use xlink:href="#SimHei-76" transform="translate(50 0)"/>
     <use xlink:href="#SimHei-6d" transform="translate(100 0)"/>
     <use xlink:href="#SimHei-5f" transform="translate(150 0)"/>
     <use xlink:href="#SimHei-4c" transform="translate(200 0)"/>
     <use xlink:href="#SimHei-2f" transform="translate(250 0)"/>
     <use xlink:href="#SimHei-73" transform="translate(300 0)"/>
     <use xlink:href="#SimHei-20" transform="translate(350 0)"/>
     <use xlink:href="#SimHei-9884" transform="translate(400 0)"/>
     <use xlink:href="#SimHei-6d4b" transform="translate(500 0)"/>
     <use xlink:href="#SimHei-6b8b" transform="translate(600 0)"/>
     <use xlink:href="#SimHei-5dee" transform="translate(700 0)"/>
     <use xlink:href="#SimHei-5206" transform="translate(800 0)"/>
     <use xlink:href="#SimHei-6790" transform="translate(900 0)"/>
    </g>
   </g>
   <g id="legend_1">
    <g id="patch_7">
     <path d="M 634.62625 60.11875 
L 699.42625 60.11875 
Q 701.22625 60.11875 701.22625 58.31875 
L 701.22625 33.34375 
Q 701.22625 31.54375 699.42625 31.54375 
L 634.62625 31.54375 
Q 632.82625 31.54375 632.82625 33.34375 
L 632.82625 58.31875 
Q 632.82625 60.11875 634.62625 60.11875 
z
" style="fill: #ffffff; opacity: 0.8; stroke: #cccccc; stroke-width: 0.5; stroke-linejoin: miter"/>
    </g>
    <g id="line2d_25">
     <path d="M 636.42625 39.376562 
L 645.42625 39.376562 
L 654.42625 39.376562 
" style="fill: none; stroke: #2878b5; stroke-width: 1.5; stroke-linecap: square"/>
    </g>
    <g id="text_15">
     <!-- 预测残差 -->
     <g transform="translate(661.62625 42.526562) scale(0.09 -0.09)">
      <use xlink:href="#SimHei-9884"/>
      <use xlink:href="#SimHei-6d4b" transform="translate(100 0)"/>
      <use xlink:href="#SimHei-6b8b" transform="translate(200 0)"/>
      <use xlink:href="#SimHei-5dee" transform="translate(300 0)"/>
     </g>
    </g>
    <g id="line2d_26">
     <path d="M 636.42625 52.24375 
L 645.42625 52.24375 
L 654.42625 52.24375 
" style="fill: none; stroke-dasharray: 7.4,3.2; stroke-dashoffset: 0; stroke: #c82423; stroke-width: 2"/>
    </g>
    <g id="text_16">
     <!-- 零线 -->
     <g transform="translate(661.62625 55.39375) scale(0.09 -0.09)">
      <defs>
       <path id="SimHei-96f6" d="M 3375 2525 
Q 3425 2425 3950 2125 
Q 4475 1825 4975 1675 
Q 5475 1525 6075 1450 
Q 5875 1200 5775 925 
Q 5325 1025 4900 1175 
Q 4475 1325 3950 1637 
Q 3425 1950 3100 2250 
Q 2875 2075 2512 1812 
Q 2150 1550 1662 1312 
Q 1175 1075 625 900 
Q 525 1100 325 1375 
Q 800 1450 1175 1600 
Q 1550 1750 1875 1925 
Q 2200 2100 2475 2325 
Q 2750 2550 2925 2825 
Q 2950 3100 2950 3450 
L 2950 3925 
L 950 3925 
L 950 3250 
L 475 3250 
L 475 4300 
L 2950 4300 
L 2950 4700 
L 1775 4700 
Q 1425 4700 1100 4675 
L 1100 5100 
Q 1425 5075 1750 5075 
L 4625 5075 
Q 4875 5075 5325 5100 
L 5325 4675 
Q 4875 4700 4475 4700 
L 3400 4700 
L 3400 4300 
L 5875 4300 
Q 5850 4050 5850 3800 
Q 5850 3550 5875 3300 
L 5400 3300 
L 5400 3925 
L 3400 3925 
L 3400 3450 
Q 3400 3175 3425 2825 
L 3050 2825 
Q 3250 2750 3525 2675 
L 3375 2525 
z
M 2300 500 
Q 2750 350 3175 200 
Q 3325 325 3750 775 
L 2325 775 
Q 1900 775 1475 750 
L 1475 1200 
Q 1900 1175 2325 1175 
L 4700 1175 
Q 4475 950 4150 587 
Q 3825 225 3625 50 
Q 3775 -25 3950 -87 
Q 4125 -150 4400 -275 
Q 4250 -475 4125 -700 
Q 3450 -400 2950 -212 
Q 2450 -25 2100 75 
Q 2225 275 2300 500 
z
M 5075 2600 
L 3750 2600 
L 3750 2950 
L 5075 2950 
L 5075 2600 
z
M 5075 3325 
L 3775 3325 
L 3775 3675 
L 5075 3675 
L 5075 3325 
z
M 2500 3325 
L 1250 3325 
L 1250 3675 
L 2500 3675 
L 2500 3325 
z
M 2475 2600 
L 1225 2600 
L 1225 2950 
L 2475 2950 
L 2475 2600 
z
M 3100 1950 
Q 3200 1800 3237 1712 
Q 3275 1625 3400 1400 
Q 3150 1300 2975 1200 
Q 2850 1500 2700 1775 
Q 2975 1875 3100 1950 
z
" transform="scale(0.015625)"/>
       <path id="SimHei-7ebf" d="M 3450 4300 
Q 3450 4675 3375 5125 
Q 3700 5100 4050 5050 
Q 3975 4900 3950 4562 
Q 3925 4225 3950 3600 
L 4800 3750 
Q 5225 3850 5650 3975 
L 5750 3500 
Q 5325 3450 4875 3375 
L 3975 3200 
Q 3975 2800 4025 2500 
L 5000 2675 
Q 5500 2775 5950 2925 
L 6025 2450 
Q 5575 2375 5075 2275 
L 4100 2100 
Q 4150 1600 4350 1175 
Q 4575 1350 4787 1575 
Q 5000 1800 5175 2075 
Q 5550 1775 5750 1675 
Q 5425 1525 5237 1337 
Q 5050 1150 4625 750 
Q 4925 250 5162 112 
Q 5400 -25 5500 100 
Q 5600 225 5675 625 
Q 5900 450 6200 350 
Q 5775 -750 5275 -537 
Q 4775 -325 4225 450 
Q 3875 175 3537 -62 
Q 3200 -300 2700 -550 
Q 2575 -300 2325 -100 
Q 2825 75 3175 275 
Q 3525 475 3975 850 
Q 3750 1350 3650 2025 
Q 2900 1900 2600 1800 
L 2525 2275 
Q 2825 2275 3550 2425 
Q 3500 2825 3500 3100 
Q 2825 2950 2575 2875 
L 2475 3350 
Q 2725 3350 3450 3500 
L 3450 4300 
z
M 1950 4875 
Q 1700 4650 1462 4237 
Q 1225 3825 825 3225 
Q 1425 3250 1650 3250 
Q 1875 3625 2050 4075 
Q 2300 3900 2600 3800 
Q 2350 3550 2087 3125 
Q 1825 2700 1175 1675 
Q 1850 1725 2375 1775 
Q 2300 1525 2300 1350 
Q 2125 1350 1525 1287 
Q 925 1225 550 1125 
Q 525 1375 400 1650 
Q 700 1725 950 2050 
Q 1200 2375 1475 2875 
Q 650 2825 425 2675 
Q 350 2950 200 3225 
Q 525 3450 825 3962 
Q 1125 4475 1375 5150 
Q 1625 4975 1950 4875 
z
M 2575 875 
Q 2550 600 2575 450 
Q 1950 325 1450 200 
Q 950 75 525 -75 
Q 450 200 250 475 
Q 950 550 1325 612 
Q 1700 675 2575 875 
z
M 4850 4025 
Q 4675 4300 4375 4675 
L 4775 4875 
Q 4875 4750 5275 4275 
Q 5025 4175 4850 4025 
z
" transform="scale(0.015625)"/>
      </defs>
      <use xlink:href="#SimHei-96f6"/>
      <use xlink:href="#SimHei-7ebf" transform="translate(100 0)"/>
     </g>
    </g>
   </g>
  </g>
 </g>
 <defs>
  <clipPath id="pd7de66dcfe">
   <rect x="42.23125" y="27.04375" width="663.495" height="365.675"/>
  </clipPath>
 </defs>
</svg>
