<?xml version="1.0" encoding="utf-8" standalone="no"?>
<!DOCTYPE svg PUBLIC "-//W3C//DTD SVG 1.1//EN"
  "http://www.w3.org/Graphics/SVG/1.1/DTD/svg11.dtd">
<svg xmlns:xlink="http://www.w3.org/1999/xlink" width="856.476875pt" height="423.709687pt" viewBox="0 0 856.476875 423.709687" xmlns="http://www.w3.org/2000/svg" version="1.1">
 <metadata>
  <rdf:RDF xmlns:dc="http://purl.org/dc/elements/1.1/" xmlns:cc="http://creativecommons.org/ns#" xmlns:rdf="http://www.w3.org/1999/02/22-rdf-syntax-ns#">
   <cc:Work>
    <dc:type rdf:resource="http://purl.org/dc/dcmitype/StillImage"/>
    <dc:date>2025-04-16T13:30:49.683635</dc:date>
    <dc:format>image/svg+xml</dc:format>
    <dc:creator>
     <cc:Agent>
      <dc:title>Matplotlib v3.10.0, https://matplotlib.org/</dc:title>
     </cc:Agent>
    </dc:creator>
   </cc:Work>
  </rdf:RDF>
 </metadata>
 <defs>
  <style type="text/css">*{stroke-linejoin: round; stroke-linecap: butt}</style>
 </defs>
 <g id="figure_1">
  <g id="patch_1">
   <path d="M 0 423.709687 
L 856.476875 423.709687 
L 856.476875 0 
L 0 0 
z
" style="fill: #ffffff"/>
  </g>
  <g id="axes_1">
   <g id="patch_2">
    <path d="M 37.653125 392.439375 
L 849.276875 392.439375 
L 849.276875 27.090625 
L 37.653125 27.090625 
z
" style="fill: #ffffff"/>
   </g>
   <g id="matplotlib.axis_1">
    <g id="xtick_1">
     <g id="line2d_1">
      <path d="M 73.871287 392.439375 
L 73.871287 27.090625 
" clip-path="url(#pe539f72eff)" style="fill: none; stroke-dasharray: 1.85,0.8; stroke-dashoffset: 0; stroke: #b2b2b2; stroke-opacity: 0.3; stroke-width: 0.5"/>
     </g>
     <g id="line2d_2">
      <defs>
       <path id="m050a5b44c9" d="M 0 0 
L 0 -3.5 
" style="stroke: #000000; stroke-width: 0.8"/>
      </defs>
      <g>
       <use xlink:href="#m050a5b44c9" x="73.871287" y="392.439375" style="stroke: #000000; stroke-width: 0.8"/>
      </g>
     </g>
     <g id="text_1">
      <!-- 0 -->
      <g transform="translate(71.621287 402.126875) scale(0.09 -0.09)">
       <defs>
        <path id="SimHei-30" d="M 225 2537 
Q 250 3200 412 3587 
Q 575 3975 875 4225 
Q 1175 4475 1612 4475 
Q 2050 4475 2375 4112 
Q 2700 3750 2800 3200 
Q 2900 2650 2862 1937 
Q 2825 1225 2612 775 
Q 2400 325 1975 150 
Q 1550 -25 1125 187 
Q 700 400 525 750 
Q 350 1100 275 1487 
Q 200 1875 225 2537 
z
M 750 2687 
Q 675 2000 800 1462 
Q 925 925 1212 700 
Q 1500 475 1800 612 
Q 2100 750 2237 1162 
Q 2375 1575 2375 2062 
Q 2375 2550 2337 2950 
Q 2300 3350 2112 3675 
Q 1925 4000 1612 4012 
Q 1300 4025 1062 3700 
Q 825 3375 750 2687 
z
" transform="scale(0.015625)"/>
       </defs>
       <use xlink:href="#SimHei-30"/>
      </g>
     </g>
    </g>
    <g id="xtick_2">
     <g id="line2d_3">
      <path d="M 242.327856 392.439375 
L 242.327856 27.090625 
" clip-path="url(#pe539f72eff)" style="fill: none; stroke-dasharray: 1.85,0.8; stroke-dashoffset: 0; stroke: #b2b2b2; stroke-opacity: 0.3; stroke-width: 0.5"/>
     </g>
     <g id="line2d_4">
      <g>
       <use xlink:href="#m050a5b44c9" x="242.327856" y="392.439375" style="stroke: #000000; stroke-width: 0.8"/>
      </g>
     </g>
     <g id="text_2">
      <!-- 500 -->
      <g transform="translate(235.577856 402.126875) scale(0.09 -0.09)">
       <defs>
        <path id="SimHei-35" d="M 550 1325 
Q 725 650 1150 575 
Q 1575 500 1837 662 
Q 2100 825 2212 1087 
Q 2325 1350 2312 1675 
Q 2300 2000 2137 2225 
Q 1975 2450 1725 2525 
Q 1475 2600 1162 2525 
Q 850 2450 650 2175 
L 225 2225 
Q 275 2375 700 4375 
L 2675 4375 
L 2675 3925 
L 1075 3925 
Q 950 3250 825 2850 
Q 1200 3025 1525 3012 
Q 1850 3000 2150 2862 
Q 2450 2725 2587 2487 
Q 2725 2250 2787 2012 
Q 2850 1775 2837 1500 
Q 2825 1225 2725 937 
Q 2625 650 2425 462 
Q 2225 275 1937 162 
Q 1650 50 1275 75 
Q 900 100 562 350 
Q 225 600 100 1200 
L 550 1325 
z
" transform="scale(0.015625)"/>
       </defs>
       <use xlink:href="#SimHei-35"/>
       <use xlink:href="#SimHei-30" transform="translate(50 0)"/>
       <use xlink:href="#SimHei-30" transform="translate(100 0)"/>
      </g>
     </g>
    </g>
    <g id="xtick_3">
     <g id="line2d_5">
      <path d="M 410.784426 392.439375 
L 410.784426 27.090625 
" clip-path="url(#pe539f72eff)" style="fill: none; stroke-dasharray: 1.85,0.8; stroke-dashoffset: 0; stroke: #b2b2b2; stroke-opacity: 0.3; stroke-width: 0.5"/>
     </g>
     <g id="line2d_6">
      <g>
       <use xlink:href="#m050a5b44c9" x="410.784426" y="392.439375" style="stroke: #000000; stroke-width: 0.8"/>
      </g>
     </g>
     <g id="text_3">
      <!-- 1000 -->
      <g transform="translate(401.784426 402.126875) scale(0.09 -0.09)">
       <defs>
        <path id="SimHei-31" d="M 1400 3600 
Q 1075 3275 575 2975 
L 575 3450 
Q 1200 3875 1600 4450 
L 1900 4450 
L 1900 150 
L 1400 150 
L 1400 3600 
z
" transform="scale(0.015625)"/>
       </defs>
       <use xlink:href="#SimHei-31"/>
       <use xlink:href="#SimHei-30" transform="translate(50 0)"/>
       <use xlink:href="#SimHei-30" transform="translate(100 0)"/>
       <use xlink:href="#SimHei-30" transform="translate(150 0)"/>
      </g>
     </g>
    </g>
    <g id="xtick_4">
     <g id="line2d_7">
      <path d="M 579.240995 392.439375 
L 579.240995 27.090625 
" clip-path="url(#pe539f72eff)" style="fill: none; stroke-dasharray: 1.85,0.8; stroke-dashoffset: 0; stroke: #b2b2b2; stroke-opacity: 0.3; stroke-width: 0.5"/>
     </g>
     <g id="line2d_8">
      <g>
       <use xlink:href="#m050a5b44c9" x="579.240995" y="392.439375" style="stroke: #000000; stroke-width: 0.8"/>
      </g>
     </g>
     <g id="text_4">
      <!-- 1500 -->
      <g transform="translate(570.240995 402.126875) scale(0.09 -0.09)">
       <use xlink:href="#SimHei-31"/>
       <use xlink:href="#SimHei-35" transform="translate(50 0)"/>
       <use xlink:href="#SimHei-30" transform="translate(100 0)"/>
       <use xlink:href="#SimHei-30" transform="translate(150 0)"/>
      </g>
     </g>
    </g>
    <g id="xtick_5">
     <g id="line2d_9">
      <path d="M 747.697564 392.439375 
L 747.697564 27.090625 
" clip-path="url(#pe539f72eff)" style="fill: none; stroke-dasharray: 1.85,0.8; stroke-dashoffset: 0; stroke: #b2b2b2; stroke-opacity: 0.3; stroke-width: 0.5"/>
     </g>
     <g id="line2d_10">
      <g>
       <use xlink:href="#m050a5b44c9" x="747.697564" y="392.439375" style="stroke: #000000; stroke-width: 0.8"/>
      </g>
     </g>
     <g id="text_5">
      <!-- 2000 -->
      <g transform="translate(738.697564 402.126875) scale(0.09 -0.09)">
       <defs>
        <path id="SimHei-32" d="M 300 250 
Q 325 625 650 925 
Q 975 1225 1475 1862 
Q 1975 2500 2125 2850 
Q 2275 3200 2237 3450 
Q 2200 3700 2000 3862 
Q 1800 4025 1537 4000 
Q 1275 3975 1037 3800 
Q 800 3625 675 3275 
L 200 3350 
Q 400 3925 712 4187 
Q 1025 4450 1450 4475 
Q 1700 4500 1900 4462 
Q 2100 4425 2312 4287 
Q 2525 4150 2662 3875 
Q 2800 3600 2762 3212 
Q 2725 2825 2375 2287 
Q 2025 1750 1025 600 
L 2825 600 
L 2825 150 
L 300 150 
L 300 250 
z
" transform="scale(0.015625)"/>
       </defs>
       <use xlink:href="#SimHei-32"/>
       <use xlink:href="#SimHei-30" transform="translate(50 0)"/>
       <use xlink:href="#SimHei-30" transform="translate(100 0)"/>
       <use xlink:href="#SimHei-30" transform="translate(150 0)"/>
      </g>
     </g>
    </g>
    <g id="text_6">
     <!-- 时间 / 序号 -->
     <g transform="translate(415.965 415.259687) scale(0.1 -0.1)">
      <defs>
       <path id="SimHei-65f6" d="M 2525 4575 
Q 2500 3675 2500 2400 
Q 2500 1125 2525 400 
L 2000 400 
L 2000 875 
L 1000 875 
L 1000 50 
L 475 50 
Q 500 1200 500 2350 
Q 500 3525 475 4575 
L 2525 4575 
z
M 4875 3825 
Q 4875 4575 4850 5225 
L 5400 5225 
Q 5375 4575 5375 3825 
Q 5750 3825 6175 3850 
L 6175 3375 
Q 5750 3400 5375 3400 
L 5375 50 
Q 5375 -325 5075 -425 
Q 4775 -525 4300 -575 
Q 4300 -275 4025 0 
Q 4500 -50 4687 -25 
Q 4875 0 4875 300 
L 4875 3400 
Q 3625 3400 2775 3375 
L 2775 3850 
Q 3575 3825 4875 3825 
z
M 2000 1300 
L 2000 2550 
L 1000 2550 
L 1000 1300 
L 2000 1300 
z
M 2000 2975 
L 2000 4150 
L 1000 4150 
L 1000 2975 
L 2000 2975 
z
M 3550 2725 
Q 3875 2200 4175 1600 
Q 3925 1525 3650 1375 
Q 3450 1975 3075 2500 
Q 3300 2600 3550 2725 
z
" transform="scale(0.015625)"/>
       <path id="SimHei-95f4" d="M 4450 3550 
Q 4425 3075 4425 2725 
L 4425 1400 
Q 4425 1075 4450 625 
L 1925 625 
Q 1950 1075 1950 1425 
L 1950 2725 
Q 1950 3075 1925 3550 
L 4450 3550 
z
M 5800 4875 
Q 5775 4400 5775 3925 
L 5775 250 
Q 5800 -325 5462 -450 
Q 5125 -575 4725 -625 
Q 4700 -325 4525 -25 
Q 5000 -50 5137 25 
Q 5275 100 5275 350 
L 5275 4450 
L 3775 4450 
Q 3175 4450 2650 4425 
L 2650 4900 
Q 3175 4875 3775 4875 
L 5800 4875 
z
M 550 -525 
Q 600 -25 600 525 
L 600 3150 
Q 600 3675 550 4025 
L 1125 4025 
Q 1100 3650 1100 3300 
L 1100 500 
Q 1100 0 1125 -525 
L 550 -525 
z
M 3950 1025 
L 3950 1950 
L 2425 1950 
L 2425 1025 
L 3950 1025 
z
M 3950 2350 
L 3950 3150 
L 2425 3150 
L 2425 2350 
L 3950 2350 
z
M 1525 5300 
Q 1750 5000 2225 4350 
Q 1950 4225 1700 4075 
Q 1450 4575 1075 5025 
Q 1350 5225 1525 5300 
z
" transform="scale(0.015625)"/>
       <path id="SimHei-20" transform="scale(0.015625)"/>
       <path id="SimHei-2f" d="M 3000 4550 
L 350 -175 
L 100 -25 
L 2750 4700 
L 3000 4550 
z
" transform="scale(0.015625)"/>
       <path id="SimHei-5e8f" d="M 4000 2075 
L 5975 2075 
Q 5750 1525 5575 1025 
Q 5325 1100 5050 1150 
Q 5175 1450 5275 1700 
L 4050 1700 
L 4050 150 
Q 4050 -375 3762 -462 
Q 3475 -550 2950 -575 
Q 2875 -300 2750 0 
Q 3350 -75 3475 25 
Q 3600 125 3575 375 
L 3575 1700 
L 2450 1700 
Q 2050 1700 1675 1675 
L 1675 2100 
Q 2100 2075 2425 2075 
L 3675 2075 
Q 3325 2400 2875 2775 
Q 2975 2875 3250 3100 
Q 3400 2975 3725 2725 
L 4575 3275 
L 3000 3275 
Q 2400 3275 1950 3250 
L 1950 3700 
Q 2400 3675 3000 3675 
L 5400 3675 
L 5400 3250 
Q 4700 2875 4025 2450 
L 4275 2250 
L 4000 2075 
z
M 3725 5275 
Q 3825 4925 3925 4525 
L 4850 4525 
Q 5425 4525 6000 4550 
L 6000 4125 
Q 5425 4150 4850 4150 
L 1400 4150 
Q 1400 2750 1362 2137 
Q 1325 1525 1200 887 
Q 1075 250 775 -350 
Q 625 -250 250 -125 
Q 475 300 600 700 
Q 725 1100 800 1637 
Q 875 2175 875 2825 
Q 875 3500 850 4525 
L 3350 4525 
Q 3275 4825 3150 5150 
Q 3425 5200 3725 5275 
z
" transform="scale(0.015625)"/>
       <path id="SimHei-53f7" d="M 5025 4925 
Q 5000 4550 5000 4075 
Q 5000 3600 5025 3175 
L 1400 3175 
Q 1425 3525 1425 4000 
Q 1425 4500 1400 4925 
L 5025 4925 
z
M 5175 2625 
Q 5650 2625 6025 2650 
L 6025 2200 
Q 5650 2225 5175 2225 
L 2450 2225 
Q 2350 1875 2225 1450 
L 5175 1450 
Q 5100 1050 5062 775 
Q 5025 500 4950 112 
Q 4875 -275 4650 -412 
Q 4425 -550 3225 -625 
Q 3125 -350 2975 -50 
Q 3875 -75 4112 -50 
Q 4350 -25 4425 212 
Q 4500 450 4575 1025 
L 1600 1025 
Q 1825 1625 1950 2225 
L 1350 2225 
Q 825 2225 375 2200 
L 375 2650 
Q 825 2625 1350 2625 
L 5175 2625 
z
M 4525 3575 
L 4525 4525 
L 1900 4525 
L 1900 3575 
L 4525 3575 
z
" transform="scale(0.015625)"/>
      </defs>
      <use xlink:href="#SimHei-65f6"/>
      <use xlink:href="#SimHei-95f4" transform="translate(100 0)"/>
      <use xlink:href="#SimHei-20" transform="translate(200 0)"/>
      <use xlink:href="#SimHei-2f" transform="translate(250 0)"/>
      <use xlink:href="#SimHei-20" transform="translate(300 0)"/>
      <use xlink:href="#SimHei-5e8f" transform="translate(350 0)"/>
      <use xlink:href="#SimHei-53f7" transform="translate(450 0)"/>
     </g>
    </g>
   </g>
   <g id="matplotlib.axis_2">
    <g id="ytick_1">
     <g id="line2d_11">
      <path d="M 37.653125 360.119066 
L 849.276875 360.119066 
" clip-path="url(#pe539f72eff)" style="fill: none; stroke-dasharray: 1.85,0.8; stroke-dashoffset: 0; stroke: #b2b2b2; stroke-opacity: 0.3; stroke-width: 0.5"/>
     </g>
     <g id="line2d_12">
      <defs>
       <path id="mc11db8bfbe" d="M 0 0 
L 3.5 0 
" style="stroke: #000000; stroke-width: 0.8"/>
      </defs>
      <g>
       <use xlink:href="#mc11db8bfbe" x="37.653125" y="360.119066" style="stroke: #000000; stroke-width: 0.8"/>
      </g>
     </g>
     <g id="text_7">
      <!-- -20 -->
      <g transform="translate(20.653125 363.212816) scale(0.09 -0.09)">
       <defs>
        <path id="SimHei-2d" d="M 2975 2125 
L 125 2125 
L 125 2525 
L 2975 2525 
L 2975 2125 
z
" transform="scale(0.015625)"/>
       </defs>
       <use xlink:href="#SimHei-2d"/>
       <use xlink:href="#SimHei-32" transform="translate(50 0)"/>
       <use xlink:href="#SimHei-30" transform="translate(100 0)"/>
      </g>
     </g>
    </g>
    <g id="ytick_2">
     <g id="line2d_13">
      <path d="M 37.653125 286.96475 
L 849.276875 286.96475 
" clip-path="url(#pe539f72eff)" style="fill: none; stroke-dasharray: 1.85,0.8; stroke-dashoffset: 0; stroke: #b2b2b2; stroke-opacity: 0.3; stroke-width: 0.5"/>
     </g>
     <g id="line2d_14">
      <g>
       <use xlink:href="#mc11db8bfbe" x="37.653125" y="286.96475" style="stroke: #000000; stroke-width: 0.8"/>
      </g>
     </g>
     <g id="text_8">
      <!-- -10 -->
      <g transform="translate(20.653125 290.0585) scale(0.09 -0.09)">
       <use xlink:href="#SimHei-2d"/>
       <use xlink:href="#SimHei-31" transform="translate(50 0)"/>
       <use xlink:href="#SimHei-30" transform="translate(100 0)"/>
      </g>
     </g>
    </g>
    <g id="ytick_3">
     <g id="line2d_15">
      <path d="M 37.653125 213.810434 
L 849.276875 213.810434 
" clip-path="url(#pe539f72eff)" style="fill: none; stroke-dasharray: 1.85,0.8; stroke-dashoffset: 0; stroke: #b2b2b2; stroke-opacity: 0.3; stroke-width: 0.5"/>
     </g>
     <g id="line2d_16">
      <g>
       <use xlink:href="#mc11db8bfbe" x="37.653125" y="213.810434" style="stroke: #000000; stroke-width: 0.8"/>
      </g>
     </g>
     <g id="text_9">
      <!-- 0 -->
      <g transform="translate(29.653125 216.904184) scale(0.09 -0.09)">
       <use xlink:href="#SimHei-30"/>
      </g>
     </g>
    </g>
    <g id="ytick_4">
     <g id="line2d_17">
      <path d="M 37.653125 140.656117 
L 849.276875 140.656117 
" clip-path="url(#pe539f72eff)" style="fill: none; stroke-dasharray: 1.85,0.8; stroke-dashoffset: 0; stroke: #b2b2b2; stroke-opacity: 0.3; stroke-width: 0.5"/>
     </g>
     <g id="line2d_18">
      <g>
       <use xlink:href="#mc11db8bfbe" x="37.653125" y="140.656117" style="stroke: #000000; stroke-width: 0.8"/>
      </g>
     </g>
     <g id="text_10">
      <!-- 10 -->
      <g transform="translate(25.153125 143.749867) scale(0.09 -0.09)">
       <use xlink:href="#SimHei-31"/>
       <use xlink:href="#SimHei-30" transform="translate(50 0)"/>
      </g>
     </g>
    </g>
    <g id="ytick_5">
     <g id="line2d_19">
      <path d="M 37.653125 67.501801 
L 849.276875 67.501801 
" clip-path="url(#pe539f72eff)" style="fill: none; stroke-dasharray: 1.85,0.8; stroke-dashoffset: 0; stroke: #b2b2b2; stroke-opacity: 0.3; stroke-width: 0.5"/>
     </g>
     <g id="line2d_20">
      <g>
       <use xlink:href="#mc11db8bfbe" x="37.653125" y="67.501801" style="stroke: #000000; stroke-width: 0.8"/>
      </g>
     </g>
     <g id="text_11">
      <!-- 20 -->
      <g transform="translate(25.153125 70.595551) scale(0.09 -0.09)">
       <use xlink:href="#SimHei-32"/>
       <use xlink:href="#SimHei-30" transform="translate(50 0)"/>
      </g>
     </g>
    </g>
    <g id="text_12">
     <!-- 差分后的 pH 值 -->
     <g transform="translate(15.403125 244.765) rotate(-90) scale(0.1 -0.1)">
      <defs>
       <path id="SimHei-5dee" d="M 4725 4975 
Q 4500 4725 4250 4275 
L 4850 4275 
Q 5450 4275 5825 4300 
L 5825 3850 
Q 5425 3875 4850 3875 
L 3275 3875 
Q 3225 3600 3150 3275 
L 4525 3275 
Q 5075 3275 5525 3300 
L 5525 2850 
Q 5075 2875 4500 2875 
L 3050 2875 
Q 2975 2650 2850 2325 
L 5125 2325 
Q 5675 2325 6025 2350 
L 6025 1900 
Q 5700 1925 5150 1925 
L 2650 1925 
Q 2425 1550 2250 1300 
Q 2650 1275 3100 1275 
L 4525 1275 
Q 4975 1275 5350 1300 
L 5350 850 
Q 4975 875 4575 875 
L 3925 875 
L 3925 -50 
L 5000 -50 
Q 5200 -50 5900 -25 
L 5900 -500 
Q 5275 -475 5025 -475 
L 2100 -475 
Q 1700 -475 1400 -500 
L 1400 -25 
Q 1775 -50 2125 -50 
L 3425 -50 
L 3425 875 
L 3100 875 
Q 2625 875 2175 850 
L 2175 1200 
Q 1925 875 1487 475 
Q 1050 75 625 -250 
Q 425 -25 200 150 
Q 750 475 1262 925 
Q 1775 1375 2100 1925 
L 1325 1925 
Q 750 1925 375 1900 
L 375 2350 
Q 750 2325 1350 2325 
L 2325 2325 
Q 2450 2575 2550 2875 
L 1725 2875 
Q 1375 2875 1000 2850 
L 1000 3300 
Q 1500 3275 1700 3275 
L 2650 3275 
Q 2725 3575 2775 3875 
L 1500 3875 
Q 1100 3875 650 3850 
L 650 4300 
Q 1025 4275 1425 4275 
L 2275 4275 
Q 2075 4675 1850 4950 
Q 2025 5050 2250 5225 
Q 2450 4975 2725 4550 
Q 2525 4450 2325 4275 
L 3750 4275 
Q 4000 4700 4150 5250 
Q 4400 5100 4725 4975 
z
" transform="scale(0.015625)"/>
       <path id="SimHei-5206" d="M 1000 -650 
Q 825 -375 575 -225 
Q 975 -75 1300 137 
Q 1625 350 1875 662 
Q 2125 975 2250 1350 
Q 2375 1725 2425 2275 
Q 1850 2275 1500 2250 
L 1500 2775 
Q 1900 2750 2525 2750 
L 5025 2750 
Q 4975 2375 4950 2100 
L 4750 250 
Q 4700 -200 4350 -350 
Q 4000 -500 3575 -525 
Q 3550 -275 3325 50 
Q 3850 25 4037 87 
Q 4225 150 4275 525 
L 4450 2275 
L 2950 2275 
Q 2875 1625 2737 1187 
Q 2600 750 2350 425 
Q 2100 100 1750 -175 
Q 1400 -450 1000 -650 
z
M 3950 5175 
Q 4125 4650 4662 3975 
Q 5200 3300 6175 2800 
Q 5975 2625 5775 2275 
Q 5325 2600 4987 2887 
Q 4650 3175 4425 3425 
Q 4200 3675 3925 4137 
Q 3650 4600 3475 5000 
Q 3750 5075 3950 5175 
z
M 2700 4825 
Q 2475 4425 2325 4125 
Q 2175 3825 2025 3587 
Q 1875 3350 1575 2950 
Q 1275 2550 850 2125 
Q 625 2350 400 2475 
Q 900 2925 1187 3300 
Q 1475 3675 1737 4112 
Q 2000 4550 2200 5075 
Q 2400 4925 2700 4825 
z
" transform="scale(0.015625)"/>
       <path id="SimHei-540e" d="M 5475 2150 
Q 5450 1750 5450 775 
Q 5450 -175 5500 -550 
L 4975 -550 
L 4975 -25 
L 2525 -25 
L 2525 -600 
L 2025 -600 
Q 2050 -175 2050 775 
Q 2050 1750 2025 2150 
L 5475 2150 
z
M 5175 5075 
Q 5300 4800 5525 4525 
Q 4950 4475 3750 4337 
Q 2550 4200 1575 4175 
L 1575 3375 
L 5200 3375 
Q 5550 3375 5975 3400 
L 5975 2900 
Q 5575 2925 5200 2925 
L 1575 2925 
Q 1550 2425 1487 1875 
Q 1425 1325 1250 712 
Q 1075 100 800 -325 
Q 650 -200 225 -50 
Q 625 325 825 1062 
Q 1025 1800 1050 2825 
Q 1075 3850 1075 4575 
Q 2300 4600 3625 4775 
Q 4950 4950 5175 5075 
z
M 4975 375 
L 4975 1725 
L 2525 1725 
L 2525 375 
L 4975 375 
z
" transform="scale(0.015625)"/>
       <path id="SimHei-7684" d="M 2100 4975 
Q 1975 4750 1750 3950 
L 2875 3950 
Q 2850 3525 2850 2875 
L 2850 675 
Q 2850 300 2875 -400 
L 2375 -400 
L 2375 100 
L 1100 100 
L 1100 -450 
L 600 -450 
Q 625 350 625 550 
L 625 2850 
Q 625 3525 600 3950 
L 1325 3950 
Q 1450 4525 1525 5150 
Q 1875 5025 2100 4975 
z
M 5825 3075 
Q 5800 1550 5700 175 
Q 5650 -275 5225 -425 
Q 4800 -575 4275 -625 
Q 4250 -350 4050 -50 
Q 4550 -75 4837 -25 
Q 5125 25 5200 200 
Q 5275 375 5312 1225 
Q 5350 2075 5375 3600 
L 3925 3600 
Q 3725 3125 3350 2475 
Q 3175 2650 2925 2750 
Q 3150 3050 3350 3475 
Q 3550 3900 3700 4400 
Q 3850 4900 3875 5175 
Q 4225 5025 4475 4950 
Q 4350 4750 4262 4512 
Q 4175 4275 4075 4050 
L 5850 4050 
Q 5825 3525 5825 3075 
z
M 2375 525 
L 2375 1850 
L 1100 1850 
L 1100 525 
L 2375 525 
z
M 2375 2275 
L 2375 3525 
L 1100 3525 
L 1100 2275 
L 2375 2275 
z
M 4350 2050 
Q 4500 1750 4700 1275 
Q 4525 1200 4225 1025 
Q 4050 1500 3900 1837 
Q 3750 2175 3600 2400 
Q 3775 2500 4050 2650 
L 4350 2050 
z
" transform="scale(0.015625)"/>
       <path id="SimHei-70" d="M 2825 1525 
Q 2825 800 2475 425 
Q 2125 50 1625 50 
Q 1350 50 1150 162 
Q 950 275 800 500 
L 800 -800 
L 300 -800 
L 300 2925 
L 800 2925 
L 800 2550 
Q 950 2775 1150 2875 
Q 1350 2975 1625 2975 
Q 2125 2975 2475 2612 
Q 2825 2250 2825 1525 
z
M 2275 1525 
Q 2275 2000 2087 2262 
Q 1900 2525 1525 2525 
Q 1225 2525 1012 2262 
Q 800 2000 800 1525 
Q 800 1050 1012 775 
Q 1225 500 1525 500 
Q 1900 500 2087 775 
Q 2275 1050 2275 1525 
z
" transform="scale(0.015625)"/>
       <path id="SimHei-48" d="M 2850 125 
L 2275 125 
L 2275 2125 
L 850 2125 
L 850 125 
L 275 125 
L 275 4400 
L 850 4400 
L 850 2600 
L 2275 2600 
L 2275 4400 
L 2850 4400 
L 2850 125 
z
" transform="scale(0.015625)"/>
       <path id="SimHei-503c" d="M 3675 4450 
L 3675 5100 
Q 3975 5075 4350 5050 
Q 4225 4875 4200 4450 
L 5125 4450 
Q 5550 4450 5875 4475 
L 5875 4025 
Q 5525 4050 5125 4050 
L 4175 4050 
L 4125 3500 
L 5400 3500 
Q 5375 3200 5375 2700 
L 5375 150 
Q 5875 150 6100 175 
L 6100 -275 
Q 5775 -250 5200 -250 
L 2850 -250 
Q 2275 -250 1900 -275 
L 1900 175 
Q 2125 150 2600 150 
L 2600 2700 
Q 2600 3175 2575 3500 
L 3600 3500 
L 3650 4050 
L 3200 4050 
Q 2575 4050 2225 4025 
L 2225 4475 
Q 2550 4450 3200 4450 
L 3675 4450 
z
M 2225 4900 
Q 2025 4675 1650 3750 
L 1650 450 
Q 1650 -75 1675 -550 
L 1150 -550 
Q 1175 -125 1175 375 
L 1175 2950 
Q 875 2450 625 2150 
Q 425 2425 250 2575 
Q 500 2825 937 3537 
Q 1375 4250 1625 5150 
Q 1975 4975 2225 4900 
z
M 4925 2650 
L 4925 3150 
L 3075 3150 
L 3075 2650 
L 4925 2650 
z
M 4925 150 
L 4925 625 
L 3075 625 
L 3075 150 
L 4925 150 
z
M 4925 1000 
L 4925 1450 
L 3075 1450 
L 3075 1000 
L 4925 1000 
z
M 4925 1825 
L 4925 2275 
L 3075 2275 
L 3075 1825 
L 4925 1825 
z
" transform="scale(0.015625)"/>
      </defs>
      <use xlink:href="#SimHei-5dee"/>
      <use xlink:href="#SimHei-5206" transform="translate(100 0)"/>
      <use xlink:href="#SimHei-540e" transform="translate(200 0)"/>
      <use xlink:href="#SimHei-7684" transform="translate(300 0)"/>
      <use xlink:href="#SimHei-20" transform="translate(400 0)"/>
      <use xlink:href="#SimHei-70" transform="translate(450 0)"/>
      <use xlink:href="#SimHei-48" transform="translate(500 0)"/>
      <use xlink:href="#SimHei-20" transform="translate(550 0)"/>
      <use xlink:href="#SimHei-503c" transform="translate(600 0)"/>
     </g>
    </g>
   </g>
   <g id="line2d_21">
    <path d="M 74.545114 201.440039 
L 74.882027 213.298353 
L 75.21894 198.484604 
L 75.555853 225.368816 
L 75.892766 213.3203 
L 76.229679 214.468823 
L 76.566592 206.575472 
L 76.903506 223.737474 
L 77.240419 211.54265 
L 77.577332 206.348693 
L 77.914245 219.911504 
L 78.251158 218.038753 
L 78.588071 215.317413 
L 78.924984 205.763459 
L 79.261898 215.324728 
L 79.598811 213.825065 
L 79.935724 207.328961 
L 80.272637 220.730832 
L 80.946463 222.662106 
L 81.283376 220.233383 
L 81.62029 202.976279 
L 81.957203 209.633322 
L 82.294116 206.553526 
L 82.631029 214.644393 
L 82.967942 200.342724 
L 83.304855 205.836613 
L 83.978682 212.786273 
L 84.315595 206.787619 
L 84.652508 218.126538 
L 84.989421 209.640638 
L 85.326334 221.7111 
L 85.663247 225.661433 
L 86.00016 212.05473 
L 86.337073 190.69367 
L 86.673987 207.372854 
L 87.0109 217.182848 
L 87.347813 195.11219 
L 87.684726 217.651035 
L 88.021639 210.884261 
L 88.358552 214.029897 
L 88.695465 232.830556 
L 89.706205 211.447549 
L 90.043118 225.741903 
L 90.380031 208.66037 
L 90.716944 218.324055 
L 91.053857 215.683184 
L 91.390771 225.039621 
L 91.727684 202.208159 
L 92.064597 220.921033 
L 92.40151 206.868089 
L 92.738423 217.168217 
L 93.075336 217.512042 
L 93.412249 217.621774 
L 93.749163 199.17957 
L 94.086076 235.003239 
L 94.422989 218.243585 
L 94.759902 216.28305 
L 95.096815 216.239157 
L 95.433728 211.62312 
L 95.770641 202.171582 
L 96.107554 210.811107 
L 96.444468 206.948559 
L 96.781381 218.353317 
L 97.118294 204.907553 
L 97.455207 223.722844 
L 97.79212 207.460639 
L 98.129033 219.077544 
L 98.465946 209.691846 
L 98.80286 219.289692 
L 99.139773 209.450436 
L 99.476686 214.659024 
L 99.813599 222.091502 
L 100.150512 241.360349 
L 100.487425 200.759704 
L 100.824338 191.454475 
L 101.498165 214.183521 
L 101.835078 221.484321 
L 102.171991 216.28305 
L 102.508904 202.383729 
L 102.845817 209.501644 
L 103.18273 211.696274 
L 103.519644 237.095453 
L 104.19347 209.230973 
L 104.530383 218.836135 
L 105.204209 208.623793 
L 105.541122 222.881569 
L 105.878035 211.747482 
L 106.214949 213.020367 
L 106.551862 206.670572 
L 106.888775 220.277275 
L 107.225688 203.846816 
L 107.899514 245.252159 
L 108.573341 172.536768 
L 108.910254 221.030765 
L 109.247167 221.264859 
L 109.58408 221.016134 
L 109.920993 178.030658 
L 110.257906 220.035866 
L 110.594819 211.506073 
L 110.931733 216.129426 
L 111.268646 202.471515 
L 111.605559 215.339359 
L 111.942472 223.547273 
L 112.279385 216.978016 
L 112.616298 220.430899 
L 112.953211 188.477094 
L 113.290125 227.600022 
L 113.627038 217.22674 
L 113.963951 222.340227 
L 114.300864 216.085533 
L 114.637777 213.144729 
L 114.97469 212.778958 
L 115.311603 210.818422 
L 115.648517 215.770969 
L 115.98543 218.872712 
L 116.322343 219.399423 
L 116.659256 212.969159 
L 116.996169 200.02816 
L 117.333082 219.721302 
L 117.669995 223.48875 
L 118.006908 229.523981 
L 118.343822 219.699356 
L 118.680735 185.587498 
L 119.017648 232.793979 
L 119.354561 206.553526 
L 119.691474 212.493656 
L 120.028387 206.641311 
L 120.3653 210.591644 
L 120.702214 219.077544 
L 121.039127 209.274866 
L 121.37604 209.713792 
L 121.712953 229.977538 
L 122.049866 210.906207 
L 122.386779 208.367753 
L 122.723692 236.246863 
L 123.060606 212.698488 
L 123.397519 203.049434 
L 123.734432 216.978016 
L 124.071345 216.356204 
L 124.408258 226.62707 
L 124.745171 185.52166 
L 125.082084 231.360154 
L 125.418998 211.857213 
L 125.755911 203.473729 
L 126.092824 238.821894 
L 126.429737 203.832185 
L 126.76665 204.856345 
L 127.440476 209.84547 
L 127.777389 223.430226 
L 128.114303 199.201517 
L 128.451216 224.073984 
L 128.788129 239.099881 
L 129.125042 187.065216 
L 129.461955 230.065323 
L 129.798868 228.9168 
L 130.135781 208.192182 
L 130.472695 210.796476 
L 130.809608 198.711383 
L 131.146521 211.352449 
L 131.483434 155.374766 
L 131.820347 285.172469 
L 132.15726 210.657483 
L 132.494173 196.977625 
L 132.831087 225.837003 
L 133.168 200.986482 
L 133.504913 244.813233 
L 133.841826 136.976455 
L 134.178739 102.974329 
L 134.852565 364.58148 
L 135.189479 207.438693 
L 135.526392 211.97426 
L 135.863305 210.050302 
L 136.200218 219.011706 
L 136.537131 205.419634 
L 136.874044 222.786468 
L 137.54787 201.593663 
L 137.884784 236.71505 
L 138.221697 189.457362 
L 138.55861 227.131835 
L 139.232436 208.426276 
L 139.569349 231.294315 
L 139.906262 198.726014 
L 140.243176 245.120481 
L 140.580089 200.086684 
L 140.917002 190.6132 
L 141.590828 225.032306 
L 141.927741 218.843451 
L 142.264654 204.073594 
L 142.601568 221.974455 
L 142.938481 210.116141 
L 143.275394 217.277948 
L 143.612307 216.180634 
L 143.94922 211.871844 
L 144.286133 209.84547 
L 144.623046 202.800709 
L 144.95996 229.326464 
L 145.633786 211.191509 
L 145.970699 211.008623 
L 146.307612 213.810434 
L 146.644525 207.73131 
L 146.981438 222.325596 
L 147.318351 205.10507 
L 147.655265 43.697386 
L 148.329091 375.832614 
L 148.666004 187.708974 
L 149.002917 202.778763 
L 149.33983 199.947691 
L 149.676743 207.014398 
L 150.013657 269.341875 
L 150.35057 204.746614 
L 150.687483 226.334453 
L 151.024396 214.746809 
L 151.361309 214.585869 
L 152.035135 193.919775 
L 152.372049 237.870888 
L 152.708962 212.800904 
L 153.045875 232.515992 
L 153.719701 201.066952 
L 154.056614 223.795998 
L 154.393527 211.323187 
L 154.730441 219.172645 
L 155.067354 207.043659 
L 155.404267 229.114317 
L 155.74118 239.275451 
L 156.078093 209.786946 
L 156.415006 208.177551 
L 156.751919 224.476333 
L 157.088833 210.986677 
L 157.425746 202.837286 
L 157.762659 236.320017 
L 158.099572 223.934991 
L 158.436485 192.529843 
L 158.773398 203.605407 
L 159.110311 206.334063 
L 159.447224 226.217406 
L 159.784138 233.020757 
L 160.121051 214.607816 
L 160.457964 203.58346 
L 160.794877 212.910636 
L 161.13179 217.153586 
L 161.468703 213.810434 
L 161.805616 208.616477 
L 162.14253 212.113254 
L 162.479443 210.160033 
L 162.816356 216.290365 
L 163.153269 215.924593 
L 163.490182 203.620037 
L 163.827095 218.111908 
L 164.500922 228.060895 
L 164.837835 182.771057 
L 165.174748 238.302499 
L 165.511661 176.238377 
L 165.848574 187.372464 
L 166.185487 238.719478 
L 166.5224 152.953358 
L 166.859314 168.703482 
L 167.53314 243.284308 
L 167.870053 227.7317 
L 168.206966 246.108064 
L 168.543879 200.788965 
L 168.880792 238.565854 
L 169.217705 182.902735 
L 169.554619 194.585479 
L 169.891532 253.621013 
L 170.228445 232.267268 
L 170.565358 195.317023 
L 170.902271 224.951836 
L 171.239184 219.918819 
L 171.576097 211.257348 
L 171.913011 150.01987 
L 172.586837 275.750193 
L 172.92375 209.194396 
L 173.260663 216.304996 
L 173.597576 251.404437 
L 173.934489 204.76856 
L 174.271403 199.494134 
L 174.608316 237.490486 
L 174.945229 210.18198 
L 175.282142 218.997075 
L 175.619055 213.459293 
L 175.955968 226.232037 
L 176.292881 208.711578 
L 176.629795 223.364387 
L 176.966708 213.773857 
L 177.303621 220.994188 
L 177.640534 196.311921 
L 178.31436 208.514061 
L 178.651273 214.710232 
L 178.988186 213.020367 
L 179.3251 223.788682 
L 179.662013 217.292579 
L 179.998926 214.768755 
L 180.335839 213.766541 
L 180.672752 217.490096 
L 181.009665 196.567961 
L 181.346578 216.078218 
L 181.683492 216.948754 
L 182.020405 211.893791 
L 182.357318 219.384793 
L 182.694231 230.796866 
L 183.031144 208.462853 
L 183.368057 218.499625 
L 183.70497 207.365538 
L 184.041884 189.332999 
L 184.378797 212.90332 
L 184.71571 173.092741 
L 185.389536 244.798602 
L 185.726449 219.143383 
L 186.063362 216.370835 
L 186.400276 214.673655 
L 186.737189 218.916605 
L 187.074102 212.778958 
L 187.747928 214.227413 
L 188.084841 180.62032 
L 188.421754 202.764132 
L 188.758667 281.960995 
L 189.095581 233.291428 
L 189.432494 203.042118 
L 189.769407 192.968769 
L 190.10632 228.624183 
L 190.443233 182.2224 
L 190.780146 156.091678 
L 191.117059 211.762113 
L 191.453973 223.283918 
L 191.790886 211.930368 
L 192.127799 194.329439 
L 192.464712 261.909397 
L 192.801625 259.626982 
L 193.138538 201.96675 
L 193.475451 224.695796 
L 193.812365 218.653249 
L 194.149278 194.943935 
L 194.486191 243.459878 
L 194.823104 122.338276 
L 195.160017 269.093151 
L 195.49693 207.855672 
L 195.833843 204.578359 
L 196.170757 214.359091 
L 196.50767 213.305669 
L 196.844583 215.19305 
L 197.181496 210.138087 
L 197.518409 213.876273 
L 197.855322 212.252247 
L 198.192235 205.10507 
L 198.529149 214.827279 
L 198.866062 214.476138 
L 199.202975 216.729291 
L 199.539888 214.351776 
L 199.876801 207.884934 
L 200.550627 221.008818 
L 200.88754 211.806005 
L 201.224454 213.773857 
L 201.561367 211.345133 
L 201.89828 204.497889 
L 202.235193 203.32742 
L 202.572106 221.37459 
L 202.909019 192.588367 
L 203.245932 240.043572 
L 203.582846 186.099579 
L 203.919759 252.487121 
L 204.593585 174.453411 
L 204.930498 181.410387 
L 205.267411 271.477981 
L 205.604324 225.968681 
L 205.941238 213.964058 
L 206.278151 215.119896 
L 206.615064 208.455538 
L 206.951977 193.91246 
L 207.28889 214.037212 
L 207.625803 206.648626 
L 207.962716 224.264186 
L 208.29963 216.670767 
L 208.636543 220.145597 
L 208.973456 214.037212 
L 209.310369 217.351103 
L 209.647282 221.857408 
L 209.984195 215.983117 
L 210.321108 215.558822 
L 210.658021 212.222985 
L 210.994935 215.368621 
L 211.331848 198.170041 
L 211.668761 218.623988 
L 212.005674 211.937683 
L 212.342587 221.345328 
L 212.6795 216.056271 
L 213.016413 193.005346 
L 213.353327 221.784254 
L 213.69024 159.354361 
L 214.027153 253.423496 
L 214.364066 236.480956 
L 214.700979 211.63775 
L 215.037892 218.287478 
L 215.374805 208.865202 
L 215.711719 215.09795 
L 216.048632 232.435523 
L 216.385545 203.846816 
L 216.722458 230.058007 
L 217.059371 206.407217 
L 217.396284 219.172645 
L 217.733197 191.959239 
L 218.070111 218.872712 
L 218.407024 218.821504 
L 218.743937 214.490769 
L 219.08085 213.810434 
L 219.417763 205.682989 
L 219.754676 258.258996 
L 220.091589 222.830361 
L 220.428502 210.920838 
L 220.765416 226.88311 
L 221.102329 188.030853 
L 221.439242 220.694255 
L 221.776155 221.103919 
L 222.113068 216.670767 
L 222.449981 231.045591 
L 222.786894 236.144446 
L 223.123808 213.67144 
L 223.460721 214.015266 
L 223.797634 212.354663 
L 224.134547 203.561514 
L 224.47146 228.390089 
L 224.808373 219.640833 
L 225.145286 147.115643 
L 225.4822 272.926437 
L 225.819113 224.359286 
L 226.156026 196.319237 
L 226.492939 216.304996 
L 226.829852 207.862988 
L 227.166765 204.249165 
L 227.503678 210.291711 
L 227.840592 212.969159 
L 228.177505 201.674133 
L 228.514418 227.102573 
L 228.851331 214.132313 
L 229.188244 213.956742 
L 229.525157 211.396341 
L 229.86207 212.018153 
L 230.535897 218.272847 
L 230.87281 212.493656 
L 231.209723 217.234056 
L 231.546636 213.130099 
L 231.883549 179.047503 
L 232.220462 217.409626 
L 232.557375 209.17245 
L 232.894289 204.410104 
L 233.231202 216.063587 
L 233.568115 209.669899 
L 233.905028 215.858755 
L 234.241941 158.556979 
L 234.578854 282.063411 
L 234.915767 206.253593 
L 235.252681 211.469496 
L 235.589594 258.939331 
L 236.26342 206.480371 
L 236.600333 219.860296 
L 236.937246 211.432918 
L 237.274159 191.827562 
L 237.611073 238.953572 
L 237.947986 221.111234 
L 238.284899 219.618886 
L 238.621812 208.718893 
L 238.958725 213.254461 
L 239.295638 191.820246 
L 239.632551 162.580466 
L 239.969465 218.872712 
L 240.306378 245.142427 
L 240.643291 249.92672 
L 240.980204 190.386422 
L 241.317117 194.790311 
L 241.65403 213.810434 
L 241.990943 182.632064 
L 242.327856 221.696469 
L 242.66477 204.117487 
L 243.001683 225.529755 
L 243.675509 193.261386 
L 244.012422 249.882827 
L 244.349335 231.989281 
L 245.023162 209.757685 
L 245.360075 205.002654 
L 245.696988 195.456016 
L 246.033901 218.697142 
L 246.370814 211.864529 
L 246.707727 231.184584 
L 247.04464 215.010164 
L 247.381554 229.304518 
L 247.718467 201.476616 
L 248.05538 188.316154 
L 248.392293 210.342919 
L 248.729206 220.694255 
L 249.066119 204.263795 
L 249.403032 219.348215 
L 249.739946 210.145402 
L 250.076859 210.716006 
L 250.413772 204.183326 
L 250.750685 215.507614 
L 251.087598 210.050302 
L 251.424511 228.170626 
L 251.761424 211.630435 
L 252.098337 214.124997 
L 252.435251 212.2303 
L 252.772164 204.490574 
L 253.109077 219.699356 
L 253.44599 211.476811 
L 253.782903 220.526 
L 254.119816 220.123651 
L 254.456729 176.487101 
L 254.793643 266.064562 
L 255.130556 212.018153 
L 255.467469 213.459293 
L 255.804382 207.328961 
L 256.141295 221.074657 
L 256.478208 224.827474 
L 256.815121 205.339164 
L 257.152035 202.003327 
L 257.488948 202.017958 
L 257.825861 217.687612 
L 258.162774 208.448222 
L 258.8366 213.810434 
L 259.173513 228.565659 
L 259.510427 211.747482 
L 260.184253 234.747199 
L 260.521166 190.401052 
L 261.194992 217.321841 
L 261.531905 213.810434 
L 261.868818 202.808025 
L 262.205732 214.015266 
L 262.542645 229.955591 
L 262.879558 211.308556 
L 263.216471 221.828147 
L 263.553384 212.778958 
L 263.890297 224.84942 
L 264.22721 188.696557 
L 264.564124 287.549985 
L 264.901037 110.311707 
L 265.23795 305.048497 
L 265.574863 141.98021 
L 265.911776 215.236943 
L 266.248689 223.137609 
L 266.585602 200.437825 
L 267.259429 224.483648 
L 267.596342 202.661716 
L 267.933255 222.135395 
L 268.270168 203.254266 
L 268.607081 203.078695 
L 268.943994 219.823719 
L 269.280908 211.937683 
L 269.617821 221.155127 
L 269.954734 214.819963 
L 270.291647 213.810434 
L 270.62856 224.564118 
L 270.965473 180.01314 
L 271.302386 222.9913 
L 271.6393 245.391152 
L 271.976213 228.134049 
L 272.313126 133.84545 
L 272.650039 217.555935 
L 272.986952 216.912177 
L 273.323865 211.250033 
L 273.660778 184.460922 
L 273.997691 226.03452 
L 274.334605 229.414249 
L 274.671518 245.274105 
L 275.008431 206.70715 
L 275.345344 206.487687 
L 275.682257 200.796281 
L 276.01917 229.436196 
L 276.356083 227.292774 
L 276.692997 265.398858 
L 277.02991 156.413557 
L 277.366823 220.408953 
L 277.703736 240.52639 
L 278.040649 219.809088 
L 278.377562 166.589322 
L 278.714475 245.149743 
L 279.051389 215.851439 
L 279.388302 211.418288 
L 279.725215 196.926417 
L 280.062128 227.526868 
L 280.399041 223.810629 
L 281.072867 205.624466 
L 281.409781 217.424257 
L 281.746694 211.191509 
L 282.083607 215.405198 
L 282.42052 229.58982 
L 282.757433 215.895332 
L 283.094346 210.906207 
L 283.431259 220.789355 
L 283.768172 198.170041 
L 284.105086 199.17957 
L 284.441999 216.326942 
L 284.778912 195.156083 
L 285.115825 245.683769 
L 285.452738 210.050302 
L 285.789651 225.485863 
L 286.126564 200.276885 
L 286.463478 229.487404 
L 286.800391 222.764522 
L 287.137304 208.828625 
L 287.474217 202.669031 
L 287.81113 212.998421 
L 288.148043 207.738625 
L 288.484956 184.08052 
L 288.82187 230.965121 
L 289.158783 232.574516 
L 289.495696 208.433591 
L 289.832609 218.382578 
L 290.169522 191.330112 
L 290.506435 223.283918 
L 290.843348 206.524264 
L 291.180262 227.329351 
L 291.517175 204.132118 
L 291.854088 254.337925 
L 292.527914 177.833141 
L 292.864827 227.548814 
L 293.538653 198.031048 
L 293.875567 233.971763 
L 294.21248 160.429729 
L 294.549393 239.875317 
L 294.886306 196.319237 
L 295.223219 205.090439 
L 295.560132 225.566332 
L 295.897045 208.360437 
L 296.233959 246.993232 
L 296.570872 195.207291 
L 296.907785 182.149246 
L 297.244698 186.011793 
L 297.581611 281.368445 
L 297.918524 212.171777 
L 298.255437 240.27035 
L 298.592351 198.060309 
L 298.929264 240.94337 
L 299.266177 192.478635 
L 299.60309 230.431094 
L 299.940003 205.470842 
L 300.276916 203.393259 
L 300.613829 195.507224 
L 300.950743 222.486536 
L 301.287656 205.85856 
L 301.624569 238.895049 
L 301.961482 187.81139 
L 302.298395 216.604929 
L 302.635308 195.331653 
L 302.972221 233.481629 
L 303.309134 200.218362 
L 303.646048 223.276602 
L 303.982961 235.010555 
L 304.319874 201.915542 
L 304.9937 228.112103 
L 305.330613 237.183238 
L 305.667526 156.464765 
L 306.00444 282.626699 
L 306.678266 124.554852 
L 307.015179 203.693192 
L 307.352092 210.854999 
L 307.689005 200.818227 
L 308.025918 219.50184 
L 308.362832 199.713597 
L 308.699745 242.311355 
L 309.036658 168.652274 
L 309.373571 226.912372 
L 309.710484 185.404613 
L 310.047397 256.174098 
L 310.38431 245.44236 
L 310.721224 193.744205 
L 311.058137 223.759421 
L 311.39505 232.559885 
L 311.731963 235.091024 
L 312.068876 179.054818 
L 312.405789 211.045201 
L 312.742702 209.911309 
L 313.079616 228.192572 
L 313.416529 186.106894 
L 313.753442 263.23349 
L 314.090355 176.662672 
L 314.427268 307.81373 
L 314.764181 237.168607 
L 315.101094 199.713597 
L 315.438007 180.678844 
L 315.774921 210.013725 
L 316.448747 191.739776 
L 316.78566 235.61042 
L 317.122573 170.737172 
L 317.459486 193.232124 
L 318.133313 273.189792 
L 318.470226 204.9295 
L 318.807139 199.567288 
L 319.144052 214.278621 
L 319.480965 267.805635 
L 319.817878 212.669226 
L 320.154791 200.60608 
L 320.491705 230.657873 
L 320.828618 213.547078 
L 321.165531 217.197479 
L 321.502444 200.328093 
L 321.839357 176.765088 
L 322.17627 247.541889 
L 322.513183 173.736499 
L 322.850097 192.120179 
L 323.18701 235.471427 
L 323.523923 202.837286 
L 323.860836 190.891186 
L 324.197749 238.4927 
L 324.534662 230.679819 
L 324.871575 203.649299 
L 325.208488 225.544386 
L 325.545402 182.617433 
L 325.882315 239.714377 
L 326.219228 220.26996 
L 326.556141 171.571131 
L 326.893054 253.935576 
L 327.229967 170.700595 
L 327.56688 161.600198 
L 327.903794 233.964448 
L 328.240707 267.037514 
L 328.57762 171.629655 
L 328.914533 248.968398 
L 329.251446 240.467867 
L 329.588359 217.636404 
L 329.925272 229.582504 
L 330.262186 178.23549 
L 330.599099 230.233578 
L 330.936012 200.876751 
L 331.272925 184.702331 
L 331.609838 251.177659 
L 331.946751 205.039231 
L 332.283664 235.566527 
L 332.620578 213.056944 
L 332.957491 202.771447 
L 333.294404 237.358808 
L 333.631317 177.679517 
L 333.96823 231.096799 
L 334.305143 249.034237 
L 334.978969 213.291038 
L 335.315883 212.778958 
L 335.652796 200.913328 
L 336.326622 218.141169 
L 336.663535 216.575667 
L 337.000448 204.293057 
L 337.337361 227.819485 
L 337.674275 210.811107 
L 338.011188 216.897546 
L 338.348101 210.69406 
L 338.685014 200.408563 
L 339.35884 218.1558 
L 339.695753 214.805332 
L 340.032667 198.638228 
L 340.36958 227.943848 
L 340.706493 209.260235 
L 341.043406 211.981576 
L 341.380319 213.503186 
L 341.717232 205.346479 
L 342.054145 220.182175 
L 342.391059 203.876078 
L 343.401798 222.325596 
L 343.738711 210.77453 
L 344.075624 234.717937 
L 344.412537 204.885607 
L 344.74945 201.959434 
L 345.086364 193.458903 
L 345.423277 205.87319 
L 345.76019 226.853848 
L 346.097103 204.439366 
L 346.434016 237.110083 
L 346.770929 197.336082 
L 347.107842 219.801772 
L 347.444756 230.284786 
L 347.781669 210.028356 
L 348.118582 208.726209 
L 348.455495 214.08842 
L 348.792408 207.767887 
L 349.129321 216.948754 
L 349.466234 218.499625 
L 349.803148 212.991105 
L 350.140061 212.698488 
L 350.476974 235.259279 
L 350.813887 206.348693 
L 351.1508 208.631108 
L 351.487713 226.773379 
L 351.824626 214.585869 
L 352.16154 223.196132 
L 352.498453 219.728618 
L 352.835366 187.840651 
L 353.172279 219.567678 
L 353.509192 184.899848 
L 353.846105 214.585869 
L 354.183018 218.41184 
L 354.519932 253.774637 
L 354.856845 182.193138 
L 355.193758 201.908226 
L 355.530671 172.032004 
L 355.867584 240.175249 
L 356.204497 204.102856 
L 356.54141 233.189012 
L 357.215237 218.419156 
L 357.55215 196.421653 
L 357.889063 251.667792 
L 358.225976 195.4487 
L 358.562889 168.791267 
L 358.899802 229.063109 
L 359.236715 207.189968 
L 359.573629 196.977625 
L 359.910542 232.376999 
L 360.247455 208.711578 
L 360.584368 245.85934 
L 360.921281 201.030375 
L 361.258194 197.467759 
L 361.595107 232.208744 
L 361.932021 211.54265 
L 362.268934 208.470169 
L 362.605847 231.96002 
L 362.94276 227.292774 
L 363.616586 175.697035 
L 363.953499 228.880223 
L 364.290413 202.610508 
L 364.627326 201.571717 
L 364.964239 224.037407 
L 365.301152 209.852785 
L 365.638065 214.929695 
L 365.974978 166.443014 
L 366.648804 259.561143 
L 366.985718 238.214714 
L 367.322631 225.376131 
L 367.659544 227.439083 
L 367.996457 253.606382 
L 368.33337 246.824977 
L 368.670283 162.777983 
L 369.007196 174.043747 
L 369.34411 219.443316 
L 369.681023 235.464111 
L 370.017936 146.80108 
L 370.354849 217.541304 
L 370.691762 228.48519 
L 371.028675 205.821982 
L 371.365588 215.997748 
L 371.702502 215.083319 
L 372.039415 192.56642 
L 372.376328 213.810434 
L 372.713241 284.411664 
L 373.050154 185.346089 
L 373.387067 213.042313 
L 373.72398 260.117116 
L 374.060894 189.208637 
L 374.397807 195.082929 
L 374.73472 194.629372 
L 375.071633 231.579617 
L 375.408546 218.975128 
L 375.745459 230.584718 
L 376.082372 219.684725 
L 376.419285 181.300655 
L 376.756199 263.752885 
L 377.093112 171.658917 
L 377.430025 166.655161 
L 377.766938 256.217991 
L 378.103851 202.252052 
L 378.440764 274.711402 
L 379.114591 149.734568 
L 379.451504 249.619472 
L 379.788417 247.534574 
L 380.12533 215.200366 
L 380.462243 229.545927 
L 380.799156 230.687134 
L 381.136069 189.289107 
L 381.472983 198.982054 
L 381.809896 191.271589 
L 382.146809 216.195264 
L 382.483722 181.900521 
L 383.157548 258.756446 
L 383.494461 208.989564 
L 383.831375 221.184389 
L 384.168288 202.076481 
L 384.505201 205.426949 
L 384.842114 197.343397 
L 385.51594 244.879072 
L 385.852853 228.199888 
L 386.189767 160.817447 
L 386.52668 236.276124 
L 386.863593 185.741122 
L 387.200506 223.898414 
L 387.537419 245.925179 
L 387.874332 195.712056 
L 388.211245 225.932104 
L 388.548158 209.17245 
L 388.885072 223.452173 
L 389.221985 204.439366 
L 389.558898 268.273822 
L 389.895811 195.682794 
L 390.232724 221.338013 
L 390.569637 197.972524 
L 390.90655 220.811302 
L 391.243464 214.717547 
L 391.580377 179.705891 
L 391.91729 224.410494 
L 392.254203 235.054447 
L 392.928029 185.397297 
L 393.601856 213.810434 
L 393.938769 191.747092 
L 394.275682 251.265444 
L 394.949508 212.47171 
L 395.286421 222.084187 
L 395.623334 188.901389 
L 395.960248 186.297095 
L 396.297161 229.831229 
L 396.634074 184.658439 
L 396.970987 247.563835 
L 397.3079 220.613785 
L 397.644813 253.599066 
L 398.318639 208.865202 
L 398.655553 230.840759 
L 398.992466 217.833921 
L 399.329379 215.27352 
L 399.666292 190.766824 
L 400.003205 174.804552 
L 400.340118 232.172167 
L 400.677031 207.13876 
L 401.013945 214.776071 
L 401.350858 213.978689 
L 401.687771 214.85654 
L 402.024684 152.631479 
L 402.361597 225.376131 
L 402.69851 207.936142 
L 403.035423 199.062524 
L 403.372337 213.810434 
L 403.70925 258.602822 
L 404.046163 202.676347 
L 404.383076 188.630718 
L 404.719989 260.512149 
L 405.056902 241.345718 
L 405.393815 181.812736 
L 405.730729 231.169953 
L 406.067642 156.79396 
L 406.404555 270.936639 
L 406.741468 222.237811 
L 407.078381 192.032394 
L 407.415294 240.248404 
L 408.08912 196.04125 
L 408.426034 229.202102 
L 408.762947 219.289692 
L 409.09986 212.961844 
L 409.436773 131.855653 
L 409.773686 202.091112 
L 410.110599 232.867133 
L 410.447512 226.027205 
L 410.784426 228.902169 
L 411.121339 202.273998 
L 411.458252 224.981098 
L 411.795165 194.885412 
L 412.132078 241.667597 
L 412.468991 209.209027 
L 412.805904 212.815535 
L 413.142818 203.590776 
L 413.479731 201.388831 
L 413.816644 211.688959 
L 414.153557 229.655659 
L 414.49047 204.9295 
L 414.827383 231.345523 
L 415.164296 201.835072 
L 415.50121 196.216821 
L 415.838123 218.594726 
L 416.175036 223.715528 
L 416.511949 241.689544 
L 417.185775 190.079173 
L 417.522688 221.089288 
L 417.859601 219.984658 
L 418.196515 214.498084 
L 418.533428 203.23232 
L 418.870341 222.245126 
L 419.207254 229.58982 
L 419.544167 196.692324 
L 419.88108 199.201517 
L 420.217993 230.752973 
L 420.554907 233.079281 
L 420.89182 179.34012 
L 421.228733 225.85895 
L 421.565646 223.978884 
L 421.902559 212.764327 
L 422.239472 233.020757 
L 423.250212 186.787229 
L 423.587125 206.246277 
L 423.924038 237.614848 
L 424.260951 221.659892 
L 424.597864 233.225589 
L 424.934777 210.730637 
L 425.271691 207.47527 
L 425.608604 196.875209 
L 425.945517 237.995251 
L 426.28243 222.289019 
L 426.619343 222.150026 
L 426.956256 183.129513 
L 427.293169 220.591839 
L 427.630083 213.437347 
L 427.966996 223.181502 
L 428.303909 229.516665 
L 428.640822 149.975977 
L 428.977735 204.366211 
L 429.314648 219.684725 
L 429.651561 225.968681 
L 429.988474 200.657288 
L 430.325388 246.225111 
L 430.662301 216.612244 
L 430.999214 217.775398 
L 431.336127 195.024405 
L 431.67304 239.08525 
L 432.346866 211.191509 
L 433.020693 204.549097 
L 433.357606 218.441102 
L 433.694519 219.428685 
L 434.031432 214.117682 
L 434.705258 181.88589 
L 435.042172 255.413293 
L 435.379085 223.064455 
L 435.715998 217.629089 
L 436.052911 215.631976 
L 436.389824 210.650167 
L 436.726737 213.883588 
L 437.06365 197.277558 
L 437.400564 200.986482 
L 437.737477 206.538895 
L 438.07439 218.441102 
L 438.411303 222.281704 
L 438.748216 208.91641 
L 439.422042 215.046742 
L 439.758955 203.144534 
L 440.095869 213.203253 
L 440.432782 205.95366 
L 440.769695 226.722171 
L 441.106608 215.251574 
L 441.443521 212.340032 
L 441.780434 207.943458 
L 442.454261 219.59694 
L 442.791174 220.116336 
L 443.128087 194.322124 
L 443.465 210.042986 
L 443.801913 214.995534 
L 444.138826 210.145402 
L 444.475739 225.712641 
L 444.812653 231.104114 
L 445.149566 217.336472 
L 445.823392 211.147617 
L 446.160305 213.810434 
L 446.497218 288.259581 
L 446.834131 126.873844 
L 447.507958 235.398272 
L 447.844871 207.841041 
L 448.181784 231.089483 
L 448.518697 203.32742 
L 448.85561 228.894854 
L 449.192523 215.149158 
L 449.529436 222.866938 
L 449.86635 225.785795 
L 450.203263 245.435045 
L 450.540176 206.151177 
L 450.877089 182.983205 
L 451.214002 194.958566 
L 451.550915 235.910353 
L 451.887828 195.880311 
L 452.224742 230.840759 
L 452.561655 210.884261 
L 452.898568 216.334258 
L 453.235481 204.388158 
L 453.572394 222.581636 
L 453.909307 212.793589 
L 454.24622 208.221444 
L 454.583134 216.005063 
L 454.920047 232.208744 
L 455.25696 232.691563 
L 455.593873 213.605602 
L 455.930786 183.846426 
L 456.267699 175.94576 
L 456.604612 218.953182 
L 456.941526 174.607036 
L 457.278439 245.6984 
L 457.615352 235.676259 
L 457.952265 212.90332 
L 458.289178 173.985224 
L 458.963004 218.07533 
L 459.299917 226.29056 
L 459.636831 243.847596 
L 459.973744 182.010252 
L 460.310657 256.847118 
L 460.984483 197.577491 
L 461.321396 165.272545 
L 461.658309 271.924223 
L 461.995223 204.966077 
L 462.332136 224.922574 
L 462.669049 227.607338 
L 463.342875 186.611659 
L 463.679788 220.628416 
L 464.353615 192.932192 
L 464.690528 204.490574 
L 465.027441 238.931626 
L 465.364354 184.241459 
L 465.701267 214.410299 
L 466.03818 191.388636 
L 466.375093 252.940678 
L 466.712007 181.80542 
L 467.04892 223.203448 
L 467.385833 207.277753 
L 467.722746 254.798797 
L 468.733485 133.41384 
L 469.070399 208.514061 
L 469.407312 229.158209 
L 469.744225 183.209983 
L 470.081138 241.872429 
L 470.418051 208.045874 
L 470.754964 244.074374 
L 471.091877 254.615911 
L 471.42879 205.470842 
L 471.765704 244.330414 
L 472.102617 216.517143 
L 472.43953 224.666534 
L 472.776443 184.702331 
L 473.113356 234.717937 
L 473.450269 206.758358 
L 473.787182 247.754037 
L 474.124096 197.782323 
L 474.461009 217.182848 
L 474.797922 218.645934 
L 475.134835 217.680297 
L 475.471748 228.814384 
L 475.808661 200.840173 
L 476.145574 199.85259 
L 476.482488 213.686071 
L 476.819401 214.461507 
L 477.156314 195.851049 
L 477.493227 198.579705 
L 477.83014 231.674718 
L 478.167053 220.708886 
L 478.503966 226.619754 
L 478.84088 198.960107 
L 479.177793 228.433982 
L 479.514706 225.785795 
L 479.851619 217.38768 
L 480.188532 189.215953 
L 480.525445 226.634385 
L 481.199271 197.22635 
L 481.536185 202.486146 
L 481.873098 187.299309 
L 482.210011 233.701092 
L 482.546924 194.190446 
L 482.883837 235.61042 
L 483.22075 206.473056 
L 483.557663 224.066669 
L 483.894577 226.809956 
L 484.23149 201.366884 
L 484.568403 218.814189 
L 484.905316 223.218079 
L 485.242229 229.999484 
L 485.579142 192.412796 
L 485.916055 177.138175 
L 486.252969 235.749413 
L 486.589882 182.763742 
L 486.926795 227.322036 
L 487.263708 234.908139 
L 487.600621 188.550248 
L 487.937534 221.959825 
L 488.274447 267.900735 
L 488.611361 237.292969 
L 488.948274 176.772403 
L 489.285187 193.232124 
L 489.6221 228.412035 
L 489.959013 227.095258 
L 490.295926 233.130489 
L 490.632839 164.519055 
L 490.969752 169.588649 
L 491.306666 269.341875 
L 491.643579 185.163203 
L 491.980492 234.58626 
L 492.317405 223.07177 
L 492.654318 198.067625 
L 492.991231 201.308361 
L 493.328144 215.01748 
L 493.665058 241.250618 
L 494.338884 164.182545 
L 494.675797 201.176683 
L 495.01271 281.361129 
L 495.349623 168.535227 
L 495.686536 294.002195 
L 496.02345 190.188905 
L 496.360363 219.179961 
L 496.697276 215.222312 
L 497.034189 198.908899 
L 497.371102 230.416464 
L 497.708015 203.956547 
L 498.044928 195.492593 
L 498.381842 195.068298 
L 498.718755 265.881676 
L 499.055668 199.223463 
L 499.392581 231.096799 
L 499.729494 221.579422 
L 500.066407 188.886758 
L 500.40332 234.271696 
L 500.740233 156.384295 
L 501.077147 215.602714 
L 501.41406 225.785795 
L 501.750973 207.958088 
L 502.087886 229.260625 
L 502.424799 181.754212 
L 502.761712 235.390957 
L 503.098625 214.285937 
L 503.435539 214.615131 
L 503.772452 248.419741 
L 504.109365 203.349366 
L 504.446278 220.021235 
L 504.783191 226.063782 
L 505.120104 189.771925 
L 505.457017 209.677215 
L 505.793931 173.904754 
L 506.130844 237.358808 
L 506.467757 241.162833 
L 506.80467 175.550726 
L 507.141583 258.880808 
L 507.478496 208.967618 
L 507.815409 176.487101 
L 508.152323 221.901301 
L 508.489236 214.183521 
L 508.826149 129.361091 
L 509.163062 296.986891 
L 509.499975 221.169758 
L 509.836888 208.557954 
L 510.173801 206.275539 
L 510.510715 207.606948 
L 510.847628 212.778958 
L 511.184541 204.439366 
L 511.521454 244.279206 
L 511.858367 231.374785 
L 512.19528 191.63736 
L 512.532193 222.069556 
L 512.869106 124.927939 
L 513.20602 302.568566 
L 513.542933 219.50184 
L 513.879846 184.5926 
L 514.216759 232.062436 
L 514.553672 197.621383 
L 514.890585 210.547751 
L 515.227498 250.153498 
L 515.564412 189.281791 
L 516.238238 216.385466 
L 516.575151 200.576818 
L 516.912064 199.940375 
L 517.248977 244.710817 
L 517.58589 190.327898 
L 517.922804 233.364582 
L 518.259717 201.227891 
L 518.933543 210.072248 
L 519.270456 189.984073 
L 519.607369 218.726404 
L 519.944282 204.351581 
L 520.281196 247.13954 
L 520.618109 163.816774 
L 520.955022 226.239352 
L 521.291935 182.763742 
L 521.628848 221.338013 
L 521.965761 324.032042 
L 522.302674 196.758163 
L 522.639587 242.750281 
L 522.976501 221.447744 
L 523.313414 219.026336 
L 523.650327 201.893596 
L 523.98724 227.592707 
L 524.324153 200.211046 
L 524.661066 244.601085 
L 524.997979 223.927676 
L 525.334893 177.416161 
L 525.671806 252.640745 
L 526.008719 199.816013 
L 526.345632 206.458425 
L 526.682545 236.744312 
L 527.019458 201.11816 
L 527.356371 218.49231 
L 527.693285 218.726404 
L 528.030198 163.012076 
L 528.367111 244.718132 
L 528.704024 229.107001 
L 529.040937 191.410582 
L 529.37785 209.472383 
L 529.714763 211.359764 
L 530.051677 181.359179 
L 530.725503 257.315306 
L 531.062416 165.294491 
L 531.399329 247.863768 
L 531.736242 208.623793 
L 532.073155 248.32464 
L 532.410068 192.851722 
L 532.746982 236.254178 
L 533.083895 213.759226 
L 533.420808 214.081105 
L 533.757721 213.40077 
L 534.094634 207.592317 
L 534.431547 199.128362 
L 534.76846 194.00756 
L 535.105374 237.680687 
L 535.442287 188.974543 
L 535.7792 187.584611 
L 536.116113 237.666056 
L 536.453026 180.803206 
L 536.789939 258.427251 
L 537.126852 179.51569 
L 537.463766 244.381623 
L 537.800679 196.450914 
L 538.137592 230.665188 
L 538.474505 233.7523 
L 538.811418 214.68097 
L 539.148331 187.021323 
L 539.485244 240.18988 
L 539.822158 198.769906 
L 540.159071 211.549965 
L 540.495984 198.535812 
L 540.832897 213.086206 
L 541.16981 218.177746 
L 541.506723 230.474987 
L 541.843636 203.620037 
L 542.18055 202.947018 
L 542.517463 218.404525 
L 542.854376 228.668075 
L 543.191289 209.062719 
L 543.528202 166.055296 
L 543.865115 259.400204 
L 544.202028 207.197283 
L 544.538941 201.315676 
L 544.875855 230.95049 
L 545.212768 227.439083 
L 545.549681 220.847879 
L 545.886594 207.526478 
L 546.223507 236.04203 
L 546.56042 172.434352 
L 546.897333 203.678561 
L 547.234247 246.481151 
L 547.57116 214.746809 
L 547.908073 223.298549 
L 548.244986 201.520509 
L 548.581899 223.832575 
L 548.918812 197.438498 
L 549.255725 221.016134 
L 549.929552 168.454758 
L 550.266465 264.579529 
L 550.603378 223.810629 
L 550.940291 223.883783 
L 551.277204 214.907748 
L 551.614117 191.63736 
L 551.951031 255.596179 
L 552.287944 178.403745 
L 552.624857 239.860686 
L 552.96177 195.039036 
L 553.298683 194.066084 
L 553.635596 234.622837 
L 553.972509 206.195069 
L 554.309422 248.683096 
L 554.646336 198.82843 
L 554.983249 218.514256 
L 555.320162 208.645739 
L 555.657075 222.55969 
L 555.993988 179.51569 
L 556.330901 230.504249 
L 556.667814 234.908139 
L 557.004728 206.553526 
L 557.341641 202.998226 
L 557.678554 187.518772 
L 558.015467 226.634385 
L 558.35238 225.142037 
L 558.689293 183.934211 
L 559.026206 214.798017 
L 559.36312 207.628894 
L 559.700033 207.877619 
L 560.036946 237.761157 
L 560.373859 148.278797 
L 560.710772 280.680794 
L 561.047685 230.460356 
L 561.384598 204.578359 
L 561.721512 197.965209 
L 562.058425 216.224526 
L 562.395338 171.900326 
L 562.732251 224.878682 
L 563.069164 234.703306 
L 563.406077 238.361022 
L 563.74299 220.86251 
L 564.079903 219.896873 
L 564.416817 204.51252 
L 564.75373 199.574604 
L 565.090643 211.46218 
L 565.427556 230.599349 
L 565.764469 209.501644 
L 566.101382 214.307883 
L 566.438295 204.622252 
L 566.775209 224.666534 
L 567.112122 215.463721 
L 567.449035 232.259952 
L 567.785948 175.302002 
L 568.122861 242.538134 
L 568.459774 207.563055 
L 568.796687 221.169758 
L 569.133601 224.659219 
L 569.470514 205.456211 
L 569.807427 213.920165 
L 570.14434 188.857496 
L 570.481253 218.784927 
L 570.818166 195.338969 
L 571.155079 268.061675 
L 571.491993 170.583548 
L 571.828906 258.807654 
L 572.165819 205.690305 
L 572.502732 176.955289 
L 572.839645 242.691758 
L 573.176558 198.579705 
L 574.187298 221.184389 
L 574.524211 172.865963 
L 574.861124 247.293164 
L 575.198037 265.815837 
L 575.53495 113.267141 
L 575.871863 238.053774 
L 576.208776 224.695796 
L 576.54569 223.474119 
L 576.882603 215.873385 
L 577.219516 217.570566 
L 577.556429 212.749696 
L 577.893342 223.737474 
L 578.230255 213.071575 
L 578.567168 224.030092 
L 578.904082 170.539656 
L 579.240995 212.105938 
L 579.577908 225.829688 
L 579.914821 222.537744 
L 580.251734 200.554872 
L 580.588647 197.957893 
L 580.92556 222.274388 
L 581.262474 205.068493 
L 581.599387 205.946345 
L 581.9363 212.493656 
L 582.273213 222.39875 
L 582.610126 244.323099 
L 582.947039 215.734392 
L 583.283952 204.197957 
L 583.620866 230.650557 
L 583.957779 185.931324 
L 584.294692 235.456796 
L 584.631605 139.200346 
L 584.968518 238.617062 
L 585.305431 210.540436 
L 585.642344 225.924788 
L 586.316171 198.535812 
L 586.653084 241.250618 
L 586.989997 213.481239 
L 587.32691 215.156473 
L 587.663823 230.416464 
L 588.000736 200.393932 
L 588.337649 231.016329 
L 588.674563 223.978884 
L 589.011476 184.292667 
L 589.685302 244.966857 
L 590.022215 238.031828 
L 590.359128 202.683662 
L 590.696041 187.767497 
L 591.032955 223.686266 
L 591.369868 220.760094 
L 591.706781 221.945194 
L 592.043694 219.040967 
L 592.380607 200.262254 
L 592.71752 204.761245 
L 593.054433 215.917278 
L 593.391347 223.115663 
L 593.72826 201.483931 
L 594.065173 246.795715 
L 594.402086 184.753539 
L 594.738999 220.130967 
L 595.075912 195.441385 
L 595.412825 226.458815 
L 595.749738 186.933538 
L 596.086652 237.512432 
L 596.423565 234.959347 
L 596.760478 217.431572 
L 597.097391 228.850961 
L 597.771217 193.736889 
L 598.10813 200.262254 
L 598.445044 188.016222 
L 598.781957 203.385944 
L 599.11887 240.745853 
L 599.455783 209.106611 
L 599.792696 216.531774 
L 600.129609 228.207203 
L 600.466522 168.24261 
L 600.803436 221.769623 
L 601.140349 213.861642 
L 601.477262 227.629284 
L 601.814175 214.5054 
L 602.151088 238.163506 
L 602.488001 226.96358 
L 602.824914 180.10824 
L 603.161828 200.657288 
L 603.498741 276.408582 
L 603.835654 180.934884 
L 604.172567 230.804181 
L 604.50948 227.007472 
L 604.846393 208.462853 
L 605.183306 144.569873 
L 605.520219 190.481522 
L 605.857133 194.000245 
L 606.194046 205.500103 
L 606.530959 170.993212 
L 606.867872 207.65084 
L 607.204785 278.427641 
L 607.541698 242.325986 
L 608.215525 199.67702 
L 608.552438 233.730354 
L 608.889351 163.750935 
L 609.563177 260.029331 
L 609.90009 229.216733 
L 610.237003 218.046069 
L 610.573917 239.034042 
L 610.91083 150.11497 
L 611.247743 251.477591 
L 611.584656 200.840173 
L 611.921569 183.392869 
L 612.258482 261.836242 
L 612.595395 219.479893 
L 612.932309 245.610615 
L 613.269222 228.360827 
L 613.606135 149.815038 
L 613.943048 246.466521 
L 614.279961 220.035866 
L 614.616874 243.620818 
L 614.953787 98.446077 
L 615.627614 253.767321 
L 615.964527 230.972436 
L 616.30144 171.007843 
L 616.638353 206.911982 
L 616.975266 202.866548 
L 617.312179 170.378716 
L 617.986006 235.288541 
L 618.322919 257.72497 
L 618.996745 153.604431 
L 619.670571 274.155429 
L 620.344398 192.127494 
L 620.681311 223.188817 
L 621.018224 201.125475 
L 621.355137 280.234553 
L 621.69205 244.586455 
L 622.028963 168.293818 
L 622.365876 166.004088 
L 622.70279 260.27074 
L 623.039703 233.232905 
L 623.376616 186.216626 
L 623.713529 271.873015 
L 624.050442 166.077242 
L 624.387355 222.164657 
L 624.724268 169.917844 
L 625.061182 247.644305 
L 625.398095 242.962429 
L 625.735008 242.567395 
L 626.071921 165.61637 
L 626.408834 270.629391 
L 626.745747 191.842192 
L 627.08266 183.722063 
L 627.419573 213.539763 
L 627.756487 217.438888 
L 628.0934 248.346586 
L 628.430313 161.497782 
L 628.767226 130.86807 
L 629.104139 283.592336 
L 629.441052 141.643701 
L 629.777965 294.192397 
L 630.114879 223.752105 
L 630.451792 220.372376 
L 630.788705 222.428012 
L 631.125618 218.945867 
L 631.462531 200.693865 
L 631.799444 174.094955 
L 632.136357 211.923052 
L 632.473271 223.48875 
L 632.810184 219.85298 
L 633.147097 213.356877 
L 633.48401 218.1558 
L 633.820923 199.106416 
L 634.157836 197.89937 
L 634.494749 278.332541 
L 634.831663 154.372552 
L 635.168576 223.781367 
L 635.505489 243.189207 
L 635.842402 241.587128 
L 636.516228 151.022084 
L 636.853141 219.428685 
L 637.190054 205.10507 
L 637.526968 248.010077 
L 637.863881 199.377087 
L 638.200794 240.562967 
L 638.537707 234.403374 
L 639.211533 158.022952 
L 639.548446 238.946257 
L 639.88536 261.726511 
L 640.222273 154.218928 
L 640.559186 250.233968 
L 640.896099 203.502991 
L 641.233012 218.477679 
L 641.569925 225.500493 
L 641.906838 207.050975 
L 642.243752 202.369099 
L 642.580665 248.851351 
L 642.917578 238.185452 
L 643.254491 213.91285 
L 643.591404 210.342919 
L 643.928317 268.603017 
L 644.26523 157.949798 
L 644.602144 218.133854 
L 644.939057 239.363236 
L 645.27597 215.054057 
L 645.612883 208.470169 
L 645.949796 187.701658 
L 646.286709 185.163203 
L 646.623622 230.577403 
L 646.960535 217.768082 
L 647.297449 211.732851 
L 647.634362 220.255329 
L 647.971275 210.577013 
L 648.308188 218.821504 
L 648.645101 197.080042 
L 648.982014 207.928827 
L 649.318927 224.161769 
L 649.655841 209.84547 
L 649.992754 240.138672 
L 650.329667 218.250901 
L 650.66658 175.309317 
L 651.003493 173.465828 
L 651.340406 213.378823 
L 651.677319 239.099881 
L 652.014233 209.304128 
L 652.351146 248.383164 
L 652.688059 216.048956 
L 653.024972 204.446681 
L 653.361885 176.092068 
L 653.698798 256.942219 
L 654.035711 212.427817 
L 654.372625 211.996207 
L 654.709538 216.502513 
L 655.046451 217.13164 
L 655.383364 153.41423 
L 655.720277 231.447939 
L 656.05719 257.732285 
L 656.394103 220.387007 
L 656.731017 219.692041 
L 657.06793 210.577013 
L 657.404843 205.690305 
L 657.741756 188.257631 
L 658.078669 235.720151 
L 658.415582 218.609357 
L 658.752495 237.944043 
L 659.089408 156.63302 
L 659.426322 173.070795 
L 659.763235 230.262839 
L 660.100148 219.531101 
L 660.437061 219.121437 
L 660.773974 200.123261 
L 661.110887 216.765868 
L 661.784714 237.505117 
L 662.121627 192.017763 
L 662.45854 208.258021 
L 662.795453 213.15936 
L 663.132366 225.946735 
L 663.469279 222.962039 
L 663.806192 230.02143 
L 664.143106 216.604929 
L 664.480019 220.855194 
L 664.816932 212.771642 
L 665.153845 212.976474 
L 665.490758 214.695601 
L 665.827671 214.139628 
L 666.164584 228.83633 
L 666.501498 174.665559 
L 666.838411 179.537636 
L 667.175324 232.428207 
L 667.512237 210.503859 
L 667.84915 240.775115 
L 668.522976 223.730159 
L 668.859889 217.299895 
L 669.196803 206.648626 
L 669.533716 201.557086 
L 669.870629 158.044898 
L 670.207542 221.023449 
L 670.544455 209.969832 
L 670.881368 254.732958 
L 671.555195 213.013052 
L 671.892108 235.164179 
L 672.229021 210.108825 
L 672.565934 261.28027 
L 672.902847 150.078393 
L 673.23976 191.739776 
L 673.576673 209.040772 
L 673.913587 206.473056 
L 674.2505 222.032979 
L 674.587413 246.839608 
L 674.924326 192.749306 
L 675.261239 200.730442 
L 675.598152 236.400487 
L 675.935065 257.359198 
L 676.271979 178.476899 
L 676.608892 224.008145 
L 676.945805 172.463614 
L 677.619631 264.996509 
L 678.293457 121.840827 
L 678.63037 286.78918 
L 678.967284 199.874536 
L 679.304197 171.827172 
L 679.64111 225.412708 
L 679.978023 210.445335 
L 680.314936 215.631976 
L 680.651849 240.921423 
L 680.988762 147.583831 
L 681.325676 237.797734 
L 681.662589 215.61003 
L 681.999502 263.460268 
L 682.336415 186.392196 
L 682.673328 232.428207 
L 683.010241 204.373527 
L 683.347154 230.796866 
L 683.684068 193.619842 
L 684.020981 212.596072 
L 684.357894 274.309053 
L 684.694807 122.323646 
L 685.03172 241.411557 
L 685.368633 209.282182 
L 685.705546 233.335321 
L 686.04246 210.459966 
L 686.379373 169.17167 
L 686.716286 185.675284 
L 687.053199 211.652381 
L 687.390112 199.85259 
L 687.727025 301.37615 
L 688.063938 200.174469 
L 688.400851 205.939029 
L 688.737765 197.540914 
L 689.074678 206.831512 
L 689.411591 225.398077 
L 689.748504 232.442838 
L 690.085417 208.16292 
L 690.42233 216.465935 
L 690.759243 229.099686 
L 691.096157 196.71427 
L 691.43307 246.912762 
L 691.769983 181.651796 
L 692.106896 188.572195 
L 692.443809 249.634102 
L 692.780722 223.510696 
L 693.117635 181.29334 
L 693.454549 268.4055 
L 693.791462 189.793872 
L 694.128375 190.510784 
L 694.465288 155.038256 
L 694.802201 231.082168 
L 695.139114 215.917278 
L 695.476027 229.180156 
L 695.812941 206.875405 
L 696.149854 223.986199 
L 696.486767 230.760289 
L 696.82368 231.97465 
L 697.160593 221.908617 
L 697.497506 207.204599 
L 697.834419 213.825065 
L 698.171333 248.22954 
L 698.508246 184.526761 
L 698.845159 240.936054 
L 699.182072 225.478547 
L 699.518985 175.323948 
L 700.192811 195.19266 
L 700.529724 228.112103 
L 700.866638 240.255719 
L 701.203551 167.335496 
L 701.540464 225.412708 
L 701.877377 252.64806 
L 702.21429 242.157731 
L 702.551203 124.554852 
L 702.888116 204.234534 
L 703.22503 181.695689 
L 703.561943 248.587996 
L 703.898856 290.77609 
L 704.235769 169.559388 
L 704.572682 235.493373 
L 704.909595 223.276602 
L 705.246508 224.893313 
L 705.583422 192.017763 
L 705.920335 189.896288 
L 706.257248 233.028073 
L 706.594161 213.861642 
L 706.931074 206.758358 
L 707.267987 197.30682 
L 707.6049 208.258021 
L 707.941814 277.271803 
L 708.61564 175.27274 
L 708.952553 155.206511 
L 709.626379 256.700809 
L 709.963292 254.191616 
L 710.300205 209.538222 
L 710.637119 133.033438 
L 711.310945 238.448807 
L 711.647858 264.00161 
L 711.984771 167.064826 
L 712.321684 167.935362 
L 712.658597 288.288843 
L 712.995511 171.476031 
L 713.332424 181.666427 
L 713.669337 253.73806 
L 714.00625 212.603387 
L 714.343163 253.225979 
L 714.680076 135.674308 
L 715.016989 234.154649 
L 715.353903 252.691953 
L 715.690816 154.584699 
L 716.027729 242.625919 
L 716.364642 229.304518 
L 716.701555 224.622642 
L 717.038468 243.291623 
L 717.375381 134.050283 
L 718.049208 266.583958 
L 718.386121 161.03691 
L 718.723034 216.151372 
L 719.059947 235.281226 
L 719.39686 221.11855 
L 719.733773 261.441209 
L 720.070686 181.381125 
L 720.4076 189.720717 
L 720.744513 248.171016 
L 721.081426 166.340598 
L 721.418339 239.831424 
L 721.755252 274.821134 
L 722.092165 155.038256 
L 722.429078 181.703004 
L 722.765992 284.279987 
L 723.439818 139.266185 
L 723.776731 240.365451 
L 724.113644 194.50501 
L 724.450557 251.016719 
L 724.78747 183.436762 
L 725.124384 205.346479 
L 725.461297 204.944131 
L 725.79821 213.810434 
L 726.472036 213.810434 
L 726.808949 245.376521 
L 727.145862 226.744117 
L 727.482776 225.632171 
L 727.819689 230.577403 
L 728.156602 240.555652 
L 728.493515 196.648431 
L 728.830428 218.653249 
L 729.167341 220.518685 
L 729.504254 204.417419 
L 729.841167 200.913328 
L 730.178081 202.647085 
L 730.514994 215.514929 
L 730.851907 195.104875 
L 731.525733 243.262361 
L 732.199559 206.143861 
L 732.536473 204.900238 
L 732.873386 206.955874 
L 733.210299 231.191899 
L 733.547212 200.78165 
L 733.884125 207.087552 
L 734.221038 191.871454 
L 734.557951 211.97426 
L 734.894865 219.896873 
L 735.231778 230.489618 
L 735.568691 197.38729 
L 735.905604 216.414727 
L 736.242517 218.07533 
L 736.916343 207.687417 
L 737.253257 215.141842 
L 737.59017 231.54304 
L 737.927083 214.198152 
L 738.263996 222.128079 
L 738.600909 352.2184 
L 738.937822 213.810434 
L 739.274735 274.601671 
L 739.611649 49.966711 
L 739.948562 171.863749 
L 740.285475 213.013052 
L 740.622388 226.078413 
L 740.959301 191.359374 
L 741.296214 225.763849 
L 741.633127 213.027683 
L 741.97004 209.230973 
L 742.306954 203.495675 
L 742.643867 235.003239 
L 742.98078 185.748438 
L 743.317693 190.210851 
L 743.654606 227.175727 
L 743.991519 241.821221 
L 744.328432 201.739971 
L 744.665346 244.586455 
L 745.002259 211.762113 
L 745.339172 258.105372 
L 745.676085 174.694821 
L 746.012998 177.957503 
L 746.349911 242.655181 
L 746.686824 233.840086 
L 747.023738 157.971744 
L 747.360651 181.776159 
L 747.697564 240.116726 
L 748.034477 213.810434 
L 748.37139 296.211456 
L 748.708303 186.80186 
L 749.045216 186.340988 
L 749.38213 239.034042 
L 749.719043 170.876165 
L 750.392869 263.57 
L 750.729782 234.300958 
L 751.066695 160.87597 
L 751.403608 192.844407 
L 751.740521 284.894483 
L 752.077435 182.251662 
L 752.414348 142.455713 
L 752.751261 279.561533 
L 753.088174 186.355619 
L 753.762 251.697054 
L 754.098913 153.487384 
L 754.435827 250.885041 
L 754.77274 212.164462 
L 755.109653 218.111908 
L 755.446566 269.115097 
L 755.783479 232.194113 
L 756.120392 160.854024 
L 756.794219 241.418873 
L 757.131132 182.939312 
L 757.468045 202.391045 
L 757.804958 236.941829 
L 758.141871 244.666924 
L 758.478784 200.064738 
L 758.815697 242.918536 
L 759.489524 177.247906 
L 759.826437 235.705521 
L 760.16335 192.873668 
L 760.500263 205.426949 
L 760.837176 199.077154 
L 761.174089 208.397014 
L 761.511002 197.884739 
L 761.847916 209.991778 
L 762.184829 276.840193 
L 762.521742 216.261103 
L 762.858655 176.648041 
L 763.195568 206.897351 
L 763.532481 216.392781 
L 763.869394 176.392001 
L 764.206308 232.574516 
L 764.543221 251.419068 
L 764.880134 173.421936 
L 765.217047 235.939614 
L 765.55396 142.075311 
L 765.890873 248.456318 
L 766.227786 234.535052 
L 766.5647 239.16572 
L 766.901613 251.770208 
L 767.238526 187.665081 
L 767.575439 178.052604 
L 767.912352 250.724102 
L 768.249265 151.087923 
L 768.586178 224.439756 
L 768.923092 270.095365 
L 769.260005 242.267463 
L 769.596918 127.217669 
L 769.933831 185.572868 
L 770.270744 224.373917 
L 770.607657 235.486058 
L 770.94457 224.227608 
L 771.281483 168.315764 
L 771.618397 338.83116 
L 771.95531 134.862295 
L 772.629136 285.062738 
L 772.966049 225.807742 
L 773.302962 191.008233 
L 773.639875 176.779719 
L 773.976789 245.040011 
L 774.313702 157.379194 
L 774.650615 254.403764 
L 774.987528 246.54699 
L 775.324441 170.35677 
L 775.661354 212.588757 
L 775.998267 198.908899 
L 776.335181 195.521855 
L 776.672094 242.801489 
L 777.009007 202.003327 
L 777.34592 218.338686 
L 777.682833 206.590103 
L 778.356659 224.33734 
L 778.693573 192.720044 
L 779.030486 263.145705 
L 779.367399 171.183414 
L 779.704312 231.630825 
L 780.041225 199.150309 
L 780.378138 208.155605 
L 780.715051 221.747677 
L 781.051965 223.58385 
L 781.388878 190.518099 
L 781.725791 216.985331 
L 782.062704 190.708301 
L 782.399617 175.931129 
L 782.73653 289.093541 
L 783.073443 140.626856 
L 783.74727 270.900062 
L 784.084183 207.98735 
L 784.421096 213.868957 
L 784.758009 225.712641 
L 785.094922 223.503381 
L 785.431835 203.415205 
L 785.768748 194.146553 
L 786.105662 192.888299 
L 786.442575 240.70196 
L 786.779488 263.394429 
L 787.116401 183.451392 
L 787.453314 216.341573 
L 787.790227 229.158209 
L 788.12714 192.588367 
L 788.464054 179.17918 
L 789.13788 271.148787 
L 789.474793 134.481893 
L 789.811706 224.798212 
L 790.148619 214.849225 
L 790.485532 231.060222 
L 790.822446 218.602041 
L 791.159359 219.08486 
L 791.496272 190.891186 
L 791.833185 262.948188 
L 792.170098 184.109781 
L 792.507011 211.754797 
L 792.843924 219.728618 
L 793.180837 240.738538 
L 793.517751 160.590669 
L 793.854664 204.351581 
L 794.191577 224.117877 
L 794.52849 250.833833 
L 794.865403 191.87877 
L 795.202316 184.285352 
L 795.539229 232.640355 
L 795.876143 220.211436 
L 796.213056 219.092175 
L 796.549969 212.120569 
L 796.886882 181.044615 
L 797.223795 214.095736 
L 797.560708 202.581246 
L 797.897621 264.286912 
L 798.234535 162.14154 
L 798.571448 213.810434 
L 798.908361 230.409148 
L 799.245274 197.211719 
L 799.582187 229.143578 
L 799.9191 202.800709 
L 800.256013 237.2125 
L 800.592927 207.416746 
L 800.92984 192.478635 
L 801.266753 217.936337 
L 801.603666 209.68453 
L 802.277492 225.52244 
L 802.614405 222.318281 
L 802.951318 208.214128 
L 803.288232 208.879833 
L 803.625145 275.984287 
L 803.962058 212.237616 
L 804.298971 171.563816 
L 804.635884 256.291145 
L 804.972797 208.594531 
L 805.30971 180.788575 
L 805.983537 226.37103 
L 806.32045 198.850376 
L 806.657363 187.357833 
L 807.331189 238.704848 
L 807.668102 239.055988 
L 808.005016 176.721195 
L 808.341929 229.143578 
L 808.678842 185.426559 
L 809.352668 237.329546 
L 809.689581 193.634473 
L 810.026494 210.467281 
L 810.363408 213.810434 
L 812.384886 213.810434 
L 812.384886 213.810434 
" clip-path="url(#pe539f72eff)" style="fill: none; stroke: #87ceeb; stroke-linecap: square"/>
   </g>
   <g id="patch_3">
    <path d="M 37.653125 392.439375 
L 37.653125 27.090625 
" style="fill: none; stroke: #000000; stroke-width: 0.8; stroke-linejoin: miter; stroke-linecap: square"/>
   </g>
   <g id="patch_4">
    <path d="M 849.276875 392.439375 
L 849.276875 27.090625 
" style="fill: none; stroke: #000000; stroke-width: 0.8; stroke-linejoin: miter; stroke-linecap: square"/>
   </g>
   <g id="patch_5">
    <path d="M 37.653125 392.439375 
L 849.276875 392.439375 
" style="fill: none; stroke: #000000; stroke-width: 0.8; stroke-linejoin: miter; stroke-linecap: square"/>
   </g>
   <g id="patch_6">
    <path d="M 37.653125 27.090625 
L 849.276875 27.090625 
" style="fill: none; stroke: #000000; stroke-width: 0.8; stroke-linejoin: miter; stroke-linecap: square"/>
   </g>
   <g id="text_13">
    <!-- 一阶差分后的  pH  值（用于ACF/PACF） -->
    <g transform="translate(335.465 17.090625) scale(0.12 -0.12)">
     <defs>
      <path id="SimHei-4e00" d="M 4875 2675 
Q 5525 2675 6050 2700 
L 6050 2050 
Q 5525 2075 4900 2075 
L 1600 2075 
Q 950 2075 350 2050 
L 350 2700 
Q 950 2675 1600 2675 
L 4875 2675 
z
" transform="scale(0.015625)"/>
      <path id="SimHei-9636" d="M 2450 4850 
Q 2350 4575 2175 3962 
Q 2000 3350 1825 2800 
Q 2225 2225 2312 1912 
Q 2400 1600 2375 1250 
Q 2350 900 2137 725 
Q 1925 550 1400 475 
Q 1300 925 1200 1075 
Q 1725 1025 1837 1225 
Q 1950 1425 1875 1775 
Q 1800 2125 1350 2725 
Q 1700 3825 1825 4400 
L 975 4400 
L 975 -500 
L 500 -500 
Q 525 175 525 675 
L 525 3650 
Q 525 4225 500 4850 
L 2450 4850 
z
M 4250 4825 
Q 4600 4100 5187 3637 
Q 5775 3175 6200 3025 
Q 5950 2775 5800 2500 
Q 4975 3075 4600 3512 
Q 4225 3950 4025 4400 
Q 3850 4025 3512 3487 
Q 3175 2950 2625 2350 
Q 2425 2575 2175 2700 
Q 2700 3075 3150 3787 
Q 3600 4500 3850 5275 
Q 4050 5150 4375 5075 
Q 4275 4900 4250 4825 
z
M 3750 2700 
Q 3650 2325 3575 1512 
Q 3500 700 3250 225 
Q 3000 -250 2650 -575 
Q 2425 -400 2175 -300 
Q 2550 -25 2762 337 
Q 2975 700 3087 1200 
Q 3200 1700 3200 2800 
Q 3350 2725 3750 2700 
z
M 5025 2775 
Q 4975 2425 4975 2025 
L 4975 350 
Q 4975 100 5000 -525 
L 4475 -525 
Q 4500 150 4500 375 
L 4500 2025 
Q 4500 2375 4475 2775 
L 5025 2775 
z
" transform="scale(0.015625)"/>
      <path id="SimHei-ff08" d="M 5425 5100 
L 5700 4775 
Q 4275 3725 4325 2350 
Q 4350 1025 5675 50 
L 5400 -275 
Q 3875 825 3925 2500 
Q 3925 3875 5425 5100 
z
" transform="scale(0.015625)"/>
      <path id="SimHei-7528" d="M 350 -300 
Q 650 125 812 600 
Q 975 1075 1012 1550 
Q 1050 2025 1050 3150 
Q 1050 4275 1025 4950 
L 5500 4950 
Q 5475 4225 5475 3650 
L 5475 375 
Q 5475 -150 5175 -275 
Q 4875 -400 4475 -450 
Q 4425 -75 4300 125 
Q 4800 100 4887 162 
Q 4975 225 4975 400 
L 4975 1650 
L 3450 1650 
L 3450 675 
Q 3450 125 3475 -325 
L 2925 -325 
Q 2950 100 2950 650 
L 2950 1650 
L 1525 1650 
Q 1425 575 850 -525 
Q 575 -350 350 -300 
z
M 4975 3475 
L 4975 4550 
L 3450 4550 
L 3450 3475 
L 4975 3475 
z
M 4975 2050 
L 4975 3100 
L 3450 3100 
L 3450 2050 
L 4975 2050 
z
M 2950 3475 
L 2950 4550 
L 1525 4550 
L 1525 3475 
L 2950 3475 
z
M 2950 2050 
L 2950 3100 
L 1525 3100 
L 1525 2050 
L 2950 2050 
z
" transform="scale(0.015625)"/>
      <path id="SimHei-4e8e" d="M 2900 2425 
L 1150 2425 
Q 650 2425 275 2400 
L 275 2900 
Q 650 2875 1150 2875 
L 2900 2875 
L 2900 4450 
L 1675 4450 
Q 1225 4450 900 4425 
L 900 4925 
Q 1225 4900 1675 4900 
L 4525 4900 
Q 4950 4900 5375 4925 
L 5375 4425 
Q 4950 4450 4525 4450 
L 3425 4450 
L 3425 2875 
L 5050 2875 
Q 5600 2875 6050 2900 
L 6050 2400 
Q 5650 2425 5050 2425 
L 3425 2425 
L 3425 125 
Q 3425 -325 3125 -412 
Q 2825 -500 2250 -525 
Q 2225 -200 2050 150 
Q 2450 100 2675 112 
Q 2900 125 2900 325 
L 2900 2425 
z
" transform="scale(0.015625)"/>
      <path id="SimHei-41" d="M 3075 125 
L 2475 125 
L 2125 1450 
L 1025 1450 
L 675 125 
L 75 125 
L 1325 4450 
L 1825 4450 
L 3075 125 
z
M 2000 1925 
L 1600 3450 
L 1550 3450 
L 1150 1925 
L 2000 1925 
z
" transform="scale(0.015625)"/>
      <path id="SimHei-43" d="M 2975 1825 
Q 2950 875 2575 475 
Q 2200 75 1675 75 
Q 1075 75 650 562 
Q 225 1050 225 2125 
Q 225 3300 637 3875 
Q 1050 4450 1700 4450 
Q 2250 4450 2612 4037 
Q 2975 3625 2950 2875 
L 2400 2875 
Q 2400 3425 2225 3700 
Q 2050 3975 1700 3975 
Q 1300 3975 1062 3562 
Q 825 3150 825 2175 
Q 825 1275 1062 912 
Q 1300 550 1675 550 
Q 1950 550 2175 812 
Q 2400 1075 2400 1825 
L 2975 1825 
z
" transform="scale(0.015625)"/>
      <path id="SimHei-46" d="M 2925 3925 
L 875 3925 
L 875 2525 
L 2425 2525 
L 2425 2050 
L 875 2050 
L 875 125 
L 300 125 
L 300 4400 
L 2925 4400 
L 2925 3925 
z
" transform="scale(0.015625)"/>
      <path id="SimHei-50" d="M 2950 3100 
Q 2950 2500 2600 2150 
Q 2250 1800 1625 1800 
L 900 1800 
L 900 125 
L 325 125 
L 325 4400 
L 1625 4400 
Q 2250 4400 2600 4050 
Q 2950 3700 2950 3100 
z
M 2375 3100 
Q 2375 3575 2150 3750 
Q 1925 3925 1475 3925 
L 900 3925 
L 900 2275 
L 1475 2275 
Q 1925 2275 2150 2450 
Q 2375 2625 2375 3100 
z
" transform="scale(0.015625)"/>
      <path id="SimHei-ff09" d="M 1000 5100 
Q 2500 3875 2500 2500 
Q 2550 825 1025 -275 
L 750 50 
Q 2075 1025 2100 2350 
Q 2150 3725 725 4775 
L 1000 5100 
z
" transform="scale(0.015625)"/>
     </defs>
     <use xlink:href="#SimHei-4e00"/>
     <use xlink:href="#SimHei-9636" transform="translate(100 0)"/>
     <use xlink:href="#SimHei-5dee" transform="translate(200 0)"/>
     <use xlink:href="#SimHei-5206" transform="translate(300 0)"/>
     <use xlink:href="#SimHei-540e" transform="translate(400 0)"/>
     <use xlink:href="#SimHei-7684" transform="translate(500 0)"/>
     <use xlink:href="#SimHei-20" transform="translate(600 0)"/>
     <use xlink:href="#SimHei-20" transform="translate(650 0)"/>
     <use xlink:href="#SimHei-70" transform="translate(700 0)"/>
     <use xlink:href="#SimHei-48" transform="translate(750 0)"/>
     <use xlink:href="#SimHei-20" transform="translate(800 0)"/>
     <use xlink:href="#SimHei-20" transform="translate(850 0)"/>
     <use xlink:href="#SimHei-503c" transform="translate(900 0)"/>
     <use xlink:href="#SimHei-ff08" transform="translate(1000 0)"/>
     <use xlink:href="#SimHei-7528" transform="translate(1100 0)"/>
     <use xlink:href="#SimHei-4e8e" transform="translate(1200 0)"/>
     <use xlink:href="#SimHei-41" transform="translate(1300 0)"/>
     <use xlink:href="#SimHei-43" transform="translate(1350 0)"/>
     <use xlink:href="#SimHei-46" transform="translate(1400 0)"/>
     <use xlink:href="#SimHei-2f" transform="translate(1450 0)"/>
     <use xlink:href="#SimHei-50" transform="translate(1500 0)"/>
     <use xlink:href="#SimHei-41" transform="translate(1550 0)"/>
     <use xlink:href="#SimHei-43" transform="translate(1600 0)"/>
     <use xlink:href="#SimHei-46" transform="translate(1650 0)"/>
     <use xlink:href="#SimHei-ff09" transform="translate(1700 0)"/>
    </g>
   </g>
   <g id="legend_1">
    <g id="patch_7">
     <path d="M 652.176875 47.333594 
L 842.976875 47.333594 
Q 844.776875 47.333594 844.776875 45.533594 
L 844.776875 33.390625 
Q 844.776875 31.590625 842.976875 31.590625 
L 652.176875 31.590625 
Q 650.376875 31.590625 650.376875 33.390625 
L 650.376875 45.533594 
Q 650.376875 47.333594 652.176875 47.333594 
z
" style="fill: #ffffff; opacity: 0.8; stroke: #cccccc; stroke-width: 0.5; stroke-linejoin: miter"/>
    </g>
    <g id="line2d_22">
     <path d="M 653.976875 39.458594 
L 662.976875 39.458594 
L 671.976875 39.458594 
" style="fill: none; stroke: #87ceeb; stroke-linecap: square"/>
    </g>
    <g id="text_14">
     <!-- 一阶差分后的  pH  值（用于ACF/PACF） -->
     <g transform="translate(679.176875 42.608594) scale(0.09 -0.09)">
      <use xlink:href="#SimHei-4e00"/>
      <use xlink:href="#SimHei-9636" transform="translate(100 0)"/>
      <use xlink:href="#SimHei-5dee" transform="translate(200 0)"/>
      <use xlink:href="#SimHei-5206" transform="translate(300 0)"/>
      <use xlink:href="#SimHei-540e" transform="translate(400 0)"/>
      <use xlink:href="#SimHei-7684" transform="translate(500 0)"/>
      <use xlink:href="#SimHei-20" transform="translate(600 0)"/>
      <use xlink:href="#SimHei-20" transform="translate(650 0)"/>
      <use xlink:href="#SimHei-70" transform="translate(700 0)"/>
      <use xlink:href="#SimHei-48" transform="translate(750 0)"/>
      <use xlink:href="#SimHei-20" transform="translate(800 0)"/>
      <use xlink:href="#SimHei-20" transform="translate(850 0)"/>
      <use xlink:href="#SimHei-503c" transform="translate(900 0)"/>
      <use xlink:href="#SimHei-ff08" transform="translate(1000 0)"/>
      <use xlink:href="#SimHei-7528" transform="translate(1100 0)"/>
      <use xlink:href="#SimHei-4e8e" transform="translate(1200 0)"/>
      <use xlink:href="#SimHei-41" transform="translate(1300 0)"/>
      <use xlink:href="#SimHei-43" transform="translate(1350 0)"/>
      <use xlink:href="#SimHei-46" transform="translate(1400 0)"/>
      <use xlink:href="#SimHei-2f" transform="translate(1450 0)"/>
      <use xlink:href="#SimHei-50" transform="translate(1500 0)"/>
      <use xlink:href="#SimHei-41" transform="translate(1550 0)"/>
      <use xlink:href="#SimHei-43" transform="translate(1600 0)"/>
      <use xlink:href="#SimHei-46" transform="translate(1650 0)"/>
      <use xlink:href="#SimHei-ff09" transform="translate(1700 0)"/>
     </g>
    </g>
   </g>
  </g>
 </g>
 <defs>
  <clipPath id="pe539f72eff">
   <rect x="37.653125" y="27.090625" width="811.62375" height="365.34875"/>
  </clipPath>
 </defs>
</svg>
