<?xml version="1.0" encoding="utf-8" standalone="no"?>
<!DOCTYPE svg PUBLIC "-//W3C//DTD SVG 1.1//EN"
  "http://www.w3.org/Graphics/SVG/1.1/DTD/svg11.dtd">
<svg xmlns:xlink="http://www.w3.org/1999/xlink" width="712.5675pt" height="423.711562pt" viewBox="0 0 712.5675 423.711562" xmlns="http://www.w3.org/2000/svg" version="1.1">
 <metadata>
  <rdf:RDF xmlns:dc="http://purl.org/dc/elements/1.1/" xmlns:cc="http://creativecommons.org/ns#" xmlns:rdf="http://www.w3.org/1999/02/22-rdf-syntax-ns#">
   <cc:Work>
    <dc:type rdf:resource="http://purl.org/dc/dcmitype/StillImage"/>
    <dc:date>2025-04-16T13:30:31.901598</dc:date>
    <dc:format>image/svg+xml</dc:format>
    <dc:creator>
     <cc:Agent>
      <dc:title>Matplotlib v3.10.0, https://matplotlib.org/</dc:title>
     </cc:Agent>
    </dc:creator>
   </cc:Work>
  </rdf:RDF>
 </metadata>
 <defs>
  <style type="text/css">*{stroke-linejoin: round; stroke-linecap: butt}</style>
 </defs>
 <g id="figure_1">
  <g id="patch_1">
   <path d="M 0 423.711562 
L 712.5675 423.711562 
L 712.5675 0 
L 0 0 
z
" style="fill: #ffffff"/>
  </g>
  <g id="axes_1">
   <g id="patch_2">
    <path d="M 33.075 392.44125 
L 705.3675 392.44125 
L 705.3675 27.1375 
L 33.075 27.1375 
z
" style="fill: #ffffff"/>
   </g>
   <g id="matplotlib.axis_1">
    <g id="xtick_1">
     <g id="line2d_1">
      <path d="M 63.354802 392.44125 
L 63.354802 27.1375 
" clip-path="url(#p5ab066db46)" style="fill: none; stroke-dasharray: 1.85,0.8; stroke-dashoffset: 0; stroke: #b2b2b2; stroke-opacity: 0.3; stroke-width: 0.5"/>
     </g>
     <g id="line2d_2">
      <defs>
       <path id="md009a91a0f" d="M 0 0 
L 0 -3.5 
" style="stroke: #000000; stroke-width: 0.8"/>
      </defs>
      <g>
       <use xlink:href="#md009a91a0f" x="63.354802" y="392.44125" style="stroke: #000000; stroke-width: 0.8"/>
      </g>
     </g>
     <g id="text_1">
      <!-- 0 -->
      <g transform="translate(61.104802 402.12875) scale(0.09 -0.09)">
       <defs>
        <path id="SimHei-30" d="M 225 2537 
Q 250 3200 412 3587 
Q 575 3975 875 4225 
Q 1175 4475 1612 4475 
Q 2050 4475 2375 4112 
Q 2700 3750 2800 3200 
Q 2900 2650 2862 1937 
Q 2825 1225 2612 775 
Q 2400 325 1975 150 
Q 1550 -25 1125 187 
Q 700 400 525 750 
Q 350 1100 275 1487 
Q 200 1875 225 2537 
z
M 750 2687 
Q 675 2000 800 1462 
Q 925 925 1212 700 
Q 1500 475 1800 612 
Q 2100 750 2237 1162 
Q 2375 1575 2375 2062 
Q 2375 2550 2337 2950 
Q 2300 3350 2112 3675 
Q 1925 4000 1612 4012 
Q 1300 4025 1062 3700 
Q 825 3375 750 2687 
z
" transform="scale(0.015625)"/>
       </defs>
       <use xlink:href="#SimHei-30"/>
      </g>
     </g>
    </g>
    <g id="xtick_2">
     <g id="line2d_3">
      <path d="M 202.828787 392.44125 
L 202.828787 27.1375 
" clip-path="url(#p5ab066db46)" style="fill: none; stroke-dasharray: 1.85,0.8; stroke-dashoffset: 0; stroke: #b2b2b2; stroke-opacity: 0.3; stroke-width: 0.5"/>
     </g>
     <g id="line2d_4">
      <g>
       <use xlink:href="#md009a91a0f" x="202.828787" y="392.44125" style="stroke: #000000; stroke-width: 0.8"/>
      </g>
     </g>
     <g id="text_2">
      <!-- 500 -->
      <g transform="translate(196.078787 402.12875) scale(0.09 -0.09)">
       <defs>
        <path id="SimHei-35" d="M 550 1325 
Q 725 650 1150 575 
Q 1575 500 1837 662 
Q 2100 825 2212 1087 
Q 2325 1350 2312 1675 
Q 2300 2000 2137 2225 
Q 1975 2450 1725 2525 
Q 1475 2600 1162 2525 
Q 850 2450 650 2175 
L 225 2225 
Q 275 2375 700 4375 
L 2675 4375 
L 2675 3925 
L 1075 3925 
Q 950 3250 825 2850 
Q 1200 3025 1525 3012 
Q 1850 3000 2150 2862 
Q 2450 2725 2587 2487 
Q 2725 2250 2787 2012 
Q 2850 1775 2837 1500 
Q 2825 1225 2725 937 
Q 2625 650 2425 462 
Q 2225 275 1937 162 
Q 1650 50 1275 75 
Q 900 100 562 350 
Q 225 600 100 1200 
L 550 1325 
z
" transform="scale(0.015625)"/>
       </defs>
       <use xlink:href="#SimHei-35"/>
       <use xlink:href="#SimHei-30" transform="translate(50 0)"/>
       <use xlink:href="#SimHei-30" transform="translate(100 0)"/>
      </g>
     </g>
    </g>
    <g id="xtick_3">
     <g id="line2d_5">
      <path d="M 342.302771 392.44125 
L 342.302771 27.1375 
" clip-path="url(#p5ab066db46)" style="fill: none; stroke-dasharray: 1.85,0.8; stroke-dashoffset: 0; stroke: #b2b2b2; stroke-opacity: 0.3; stroke-width: 0.5"/>
     </g>
     <g id="line2d_6">
      <g>
       <use xlink:href="#md009a91a0f" x="342.302771" y="392.44125" style="stroke: #000000; stroke-width: 0.8"/>
      </g>
     </g>
     <g id="text_3">
      <!-- 1000 -->
      <g transform="translate(333.302771 402.12875) scale(0.09 -0.09)">
       <defs>
        <path id="SimHei-31" d="M 1400 3600 
Q 1075 3275 575 2975 
L 575 3450 
Q 1200 3875 1600 4450 
L 1900 4450 
L 1900 150 
L 1400 150 
L 1400 3600 
z
" transform="scale(0.015625)"/>
       </defs>
       <use xlink:href="#SimHei-31"/>
       <use xlink:href="#SimHei-30" transform="translate(50 0)"/>
       <use xlink:href="#SimHei-30" transform="translate(100 0)"/>
       <use xlink:href="#SimHei-30" transform="translate(150 0)"/>
      </g>
     </g>
    </g>
    <g id="xtick_4">
     <g id="line2d_7">
      <path d="M 481.776755 392.44125 
L 481.776755 27.1375 
" clip-path="url(#p5ab066db46)" style="fill: none; stroke-dasharray: 1.85,0.8; stroke-dashoffset: 0; stroke: #b2b2b2; stroke-opacity: 0.3; stroke-width: 0.5"/>
     </g>
     <g id="line2d_8">
      <g>
       <use xlink:href="#md009a91a0f" x="481.776755" y="392.44125" style="stroke: #000000; stroke-width: 0.8"/>
      </g>
     </g>
     <g id="text_4">
      <!-- 1500 -->
      <g transform="translate(472.776755 402.12875) scale(0.09 -0.09)">
       <use xlink:href="#SimHei-31"/>
       <use xlink:href="#SimHei-35" transform="translate(50 0)"/>
       <use xlink:href="#SimHei-30" transform="translate(100 0)"/>
       <use xlink:href="#SimHei-30" transform="translate(150 0)"/>
      </g>
     </g>
    </g>
    <g id="xtick_5">
     <g id="line2d_9">
      <path d="M 621.25074 392.44125 
L 621.25074 27.1375 
" clip-path="url(#p5ab066db46)" style="fill: none; stroke-dasharray: 1.85,0.8; stroke-dashoffset: 0; stroke: #b2b2b2; stroke-opacity: 0.3; stroke-width: 0.5"/>
     </g>
     <g id="line2d_10">
      <g>
       <use xlink:href="#md009a91a0f" x="621.25074" y="392.44125" style="stroke: #000000; stroke-width: 0.8"/>
      </g>
     </g>
     <g id="text_5">
      <!-- 2000 -->
      <g transform="translate(612.25074 402.12875) scale(0.09 -0.09)">
       <defs>
        <path id="SimHei-32" d="M 300 250 
Q 325 625 650 925 
Q 975 1225 1475 1862 
Q 1975 2500 2125 2850 
Q 2275 3200 2237 3450 
Q 2200 3700 2000 3862 
Q 1800 4025 1537 4000 
Q 1275 3975 1037 3800 
Q 800 3625 675 3275 
L 200 3350 
Q 400 3925 712 4187 
Q 1025 4450 1450 4475 
Q 1700 4500 1900 4462 
Q 2100 4425 2312 4287 
Q 2525 4150 2662 3875 
Q 2800 3600 2762 3212 
Q 2725 2825 2375 2287 
Q 2025 1750 1025 600 
L 2825 600 
L 2825 150 
L 300 150 
L 300 250 
z
" transform="scale(0.015625)"/>
       </defs>
       <use xlink:href="#SimHei-32"/>
       <use xlink:href="#SimHei-30" transform="translate(50 0)"/>
       <use xlink:href="#SimHei-30" transform="translate(100 0)"/>
       <use xlink:href="#SimHei-30" transform="translate(150 0)"/>
      </g>
     </g>
    </g>
    <g id="text_6">
     <!-- 时间 / 序号 -->
     <g transform="translate(341.72125 415.261562) scale(0.1 -0.1)">
      <defs>
       <path id="SimHei-65f6" d="M 2525 4575 
Q 2500 3675 2500 2400 
Q 2500 1125 2525 400 
L 2000 400 
L 2000 875 
L 1000 875 
L 1000 50 
L 475 50 
Q 500 1200 500 2350 
Q 500 3525 475 4575 
L 2525 4575 
z
M 4875 3825 
Q 4875 4575 4850 5225 
L 5400 5225 
Q 5375 4575 5375 3825 
Q 5750 3825 6175 3850 
L 6175 3375 
Q 5750 3400 5375 3400 
L 5375 50 
Q 5375 -325 5075 -425 
Q 4775 -525 4300 -575 
Q 4300 -275 4025 0 
Q 4500 -50 4687 -25 
Q 4875 0 4875 300 
L 4875 3400 
Q 3625 3400 2775 3375 
L 2775 3850 
Q 3575 3825 4875 3825 
z
M 2000 1300 
L 2000 2550 
L 1000 2550 
L 1000 1300 
L 2000 1300 
z
M 2000 2975 
L 2000 4150 
L 1000 4150 
L 1000 2975 
L 2000 2975 
z
M 3550 2725 
Q 3875 2200 4175 1600 
Q 3925 1525 3650 1375 
Q 3450 1975 3075 2500 
Q 3300 2600 3550 2725 
z
" transform="scale(0.015625)"/>
       <path id="SimHei-95f4" d="M 4450 3550 
Q 4425 3075 4425 2725 
L 4425 1400 
Q 4425 1075 4450 625 
L 1925 625 
Q 1950 1075 1950 1425 
L 1950 2725 
Q 1950 3075 1925 3550 
L 4450 3550 
z
M 5800 4875 
Q 5775 4400 5775 3925 
L 5775 250 
Q 5800 -325 5462 -450 
Q 5125 -575 4725 -625 
Q 4700 -325 4525 -25 
Q 5000 -50 5137 25 
Q 5275 100 5275 350 
L 5275 4450 
L 3775 4450 
Q 3175 4450 2650 4425 
L 2650 4900 
Q 3175 4875 3775 4875 
L 5800 4875 
z
M 550 -525 
Q 600 -25 600 525 
L 600 3150 
Q 600 3675 550 4025 
L 1125 4025 
Q 1100 3650 1100 3300 
L 1100 500 
Q 1100 0 1125 -525 
L 550 -525 
z
M 3950 1025 
L 3950 1950 
L 2425 1950 
L 2425 1025 
L 3950 1025 
z
M 3950 2350 
L 3950 3150 
L 2425 3150 
L 2425 2350 
L 3950 2350 
z
M 1525 5300 
Q 1750 5000 2225 4350 
Q 1950 4225 1700 4075 
Q 1450 4575 1075 5025 
Q 1350 5225 1525 5300 
z
" transform="scale(0.015625)"/>
       <path id="SimHei-20" transform="scale(0.015625)"/>
       <path id="SimHei-2f" d="M 3000 4550 
L 350 -175 
L 100 -25 
L 2750 4700 
L 3000 4550 
z
" transform="scale(0.015625)"/>
       <path id="SimHei-5e8f" d="M 4000 2075 
L 5975 2075 
Q 5750 1525 5575 1025 
Q 5325 1100 5050 1150 
Q 5175 1450 5275 1700 
L 4050 1700 
L 4050 150 
Q 4050 -375 3762 -462 
Q 3475 -550 2950 -575 
Q 2875 -300 2750 0 
Q 3350 -75 3475 25 
Q 3600 125 3575 375 
L 3575 1700 
L 2450 1700 
Q 2050 1700 1675 1675 
L 1675 2100 
Q 2100 2075 2425 2075 
L 3675 2075 
Q 3325 2400 2875 2775 
Q 2975 2875 3250 3100 
Q 3400 2975 3725 2725 
L 4575 3275 
L 3000 3275 
Q 2400 3275 1950 3250 
L 1950 3700 
Q 2400 3675 3000 3675 
L 5400 3675 
L 5400 3250 
Q 4700 2875 4025 2450 
L 4275 2250 
L 4000 2075 
z
M 3725 5275 
Q 3825 4925 3925 4525 
L 4850 4525 
Q 5425 4525 6000 4550 
L 6000 4125 
Q 5425 4150 4850 4150 
L 1400 4150 
Q 1400 2750 1362 2137 
Q 1325 1525 1200 887 
Q 1075 250 775 -350 
Q 625 -250 250 -125 
Q 475 300 600 700 
Q 725 1100 800 1637 
Q 875 2175 875 2825 
Q 875 3500 850 4525 
L 3350 4525 
Q 3275 4825 3150 5150 
Q 3425 5200 3725 5275 
z
" transform="scale(0.015625)"/>
       <path id="SimHei-53f7" d="M 5025 4925 
Q 5000 4550 5000 4075 
Q 5000 3600 5025 3175 
L 1400 3175 
Q 1425 3525 1425 4000 
Q 1425 4500 1400 4925 
L 5025 4925 
z
M 5175 2625 
Q 5650 2625 6025 2650 
L 6025 2200 
Q 5650 2225 5175 2225 
L 2450 2225 
Q 2350 1875 2225 1450 
L 5175 1450 
Q 5100 1050 5062 775 
Q 5025 500 4950 112 
Q 4875 -275 4650 -412 
Q 4425 -550 3225 -625 
Q 3125 -350 2975 -50 
Q 3875 -75 4112 -50 
Q 4350 -25 4425 212 
Q 4500 450 4575 1025 
L 1600 1025 
Q 1825 1625 1950 2225 
L 1350 2225 
Q 825 2225 375 2200 
L 375 2650 
Q 825 2625 1350 2625 
L 5175 2625 
z
M 4525 3575 
L 4525 4525 
L 1900 4525 
L 1900 3575 
L 4525 3575 
z
" transform="scale(0.015625)"/>
      </defs>
      <use xlink:href="#SimHei-65f6"/>
      <use xlink:href="#SimHei-95f4" transform="translate(100 0)"/>
      <use xlink:href="#SimHei-20" transform="translate(200 0)"/>
      <use xlink:href="#SimHei-2f" transform="translate(250 0)"/>
      <use xlink:href="#SimHei-20" transform="translate(300 0)"/>
      <use xlink:href="#SimHei-5e8f" transform="translate(350 0)"/>
      <use xlink:href="#SimHei-53f7" transform="translate(450 0)"/>
     </g>
    </g>
   </g>
   <g id="matplotlib.axis_2">
    <g id="ytick_1">
     <g id="line2d_11">
      <path d="M 33.075 353.514198 
L 705.3675 353.514198 
" clip-path="url(#p5ab066db46)" style="fill: none; stroke-dasharray: 1.85,0.8; stroke-dashoffset: 0; stroke: #b2b2b2; stroke-opacity: 0.3; stroke-width: 0.5"/>
     </g>
     <g id="line2d_12">
      <defs>
       <path id="m6b46d9f15a" d="M 0 0 
L 3.5 0 
" style="stroke: #000000; stroke-width: 0.8"/>
      </defs>
      <g>
       <use xlink:href="#m6b46d9f15a" x="33.075" y="353.514198" style="stroke: #000000; stroke-width: 0.8"/>
      </g>
     </g>
     <g id="text_7">
      <!-- 5 -->
      <g transform="translate(25.075 356.607948) scale(0.09 -0.09)">
       <use xlink:href="#SimHei-35"/>
      </g>
     </g>
    </g>
    <g id="ytick_2">
     <g id="line2d_13">
      <path d="M 33.075 309.451158 
L 705.3675 309.451158 
" clip-path="url(#p5ab066db46)" style="fill: none; stroke-dasharray: 1.85,0.8; stroke-dashoffset: 0; stroke: #b2b2b2; stroke-opacity: 0.3; stroke-width: 0.5"/>
     </g>
     <g id="line2d_14">
      <g>
       <use xlink:href="#m6b46d9f15a" x="33.075" y="309.451158" style="stroke: #000000; stroke-width: 0.8"/>
      </g>
     </g>
     <g id="text_8">
      <!-- 10 -->
      <g transform="translate(20.575 312.544908) scale(0.09 -0.09)">
       <use xlink:href="#SimHei-31"/>
       <use xlink:href="#SimHei-30" transform="translate(50 0)"/>
      </g>
     </g>
    </g>
    <g id="ytick_3">
     <g id="line2d_15">
      <path d="M 33.075 265.388119 
L 705.3675 265.388119 
" clip-path="url(#p5ab066db46)" style="fill: none; stroke-dasharray: 1.85,0.8; stroke-dashoffset: 0; stroke: #b2b2b2; stroke-opacity: 0.3; stroke-width: 0.5"/>
     </g>
     <g id="line2d_16">
      <g>
       <use xlink:href="#m6b46d9f15a" x="33.075" y="265.388119" style="stroke: #000000; stroke-width: 0.8"/>
      </g>
     </g>
     <g id="text_9">
      <!-- 15 -->
      <g transform="translate(20.575 268.481869) scale(0.09 -0.09)">
       <use xlink:href="#SimHei-31"/>
       <use xlink:href="#SimHei-35" transform="translate(50 0)"/>
      </g>
     </g>
    </g>
    <g id="ytick_4">
     <g id="line2d_17">
      <path d="M 33.075 221.325079 
L 705.3675 221.325079 
" clip-path="url(#p5ab066db46)" style="fill: none; stroke-dasharray: 1.85,0.8; stroke-dashoffset: 0; stroke: #b2b2b2; stroke-opacity: 0.3; stroke-width: 0.5"/>
     </g>
     <g id="line2d_18">
      <g>
       <use xlink:href="#m6b46d9f15a" x="33.075" y="221.325079" style="stroke: #000000; stroke-width: 0.8"/>
      </g>
     </g>
     <g id="text_10">
      <!-- 20 -->
      <g transform="translate(20.575 224.418829) scale(0.09 -0.09)">
       <use xlink:href="#SimHei-32"/>
       <use xlink:href="#SimHei-30" transform="translate(50 0)"/>
      </g>
     </g>
    </g>
    <g id="ytick_5">
     <g id="line2d_19">
      <path d="M 33.075 177.262039 
L 705.3675 177.262039 
" clip-path="url(#p5ab066db46)" style="fill: none; stroke-dasharray: 1.85,0.8; stroke-dashoffset: 0; stroke: #b2b2b2; stroke-opacity: 0.3; stroke-width: 0.5"/>
     </g>
     <g id="line2d_20">
      <g>
       <use xlink:href="#m6b46d9f15a" x="33.075" y="177.262039" style="stroke: #000000; stroke-width: 0.8"/>
      </g>
     </g>
     <g id="text_11">
      <!-- 25 -->
      <g transform="translate(20.575 180.355789) scale(0.09 -0.09)">
       <use xlink:href="#SimHei-32"/>
       <use xlink:href="#SimHei-35" transform="translate(50 0)"/>
      </g>
     </g>
    </g>
    <g id="ytick_6">
     <g id="line2d_21">
      <path d="M 33.075 133.198999 
L 705.3675 133.198999 
" clip-path="url(#p5ab066db46)" style="fill: none; stroke-dasharray: 1.85,0.8; stroke-dashoffset: 0; stroke: #b2b2b2; stroke-opacity: 0.3; stroke-width: 0.5"/>
     </g>
     <g id="line2d_22">
      <g>
       <use xlink:href="#m6b46d9f15a" x="33.075" y="133.198999" style="stroke: #000000; stroke-width: 0.8"/>
      </g>
     </g>
     <g id="text_12">
      <!-- 30 -->
      <g transform="translate(20.575 136.292749) scale(0.09 -0.09)">
       <defs>
        <path id="SimHei-33" d="M 250 1225 
L 700 1300 
Q 800 975 1025 762 
Q 1250 550 1587 562 
Q 1925 575 2125 837 
Q 2325 1100 2300 1437 
Q 2275 1775 2037 1962 
Q 1800 2150 1275 2225 
L 1275 2550 
Q 1800 2600 2037 2825 
Q 2275 3050 2250 3412 
Q 2225 3775 1925 3937 
Q 1625 4100 1287 3975 
Q 950 3850 750 3275 
L 300 3350 
Q 450 3800 712 4100 
Q 975 4400 1425 4450 
Q 1875 4500 2212 4337 
Q 2550 4175 2687 3837 
Q 2825 3500 2725 3100 
Q 2625 2700 2150 2400 
Q 2500 2250 2687 1950 
Q 2875 1650 2812 1162 
Q 2750 675 2375 375 
Q 2000 75 1525 87 
Q 1050 100 700 387 
Q 350 675 250 1225 
z
" transform="scale(0.015625)"/>
       </defs>
       <use xlink:href="#SimHei-33"/>
       <use xlink:href="#SimHei-30" transform="translate(50 0)"/>
      </g>
     </g>
    </g>
    <g id="ytick_7">
     <g id="line2d_23">
      <path d="M 33.075 89.135959 
L 705.3675 89.135959 
" clip-path="url(#p5ab066db46)" style="fill: none; stroke-dasharray: 1.85,0.8; stroke-dashoffset: 0; stroke: #b2b2b2; stroke-opacity: 0.3; stroke-width: 0.5"/>
     </g>
     <g id="line2d_24">
      <g>
       <use xlink:href="#m6b46d9f15a" x="33.075" y="89.135959" style="stroke: #000000; stroke-width: 0.8"/>
      </g>
     </g>
     <g id="text_13">
      <!-- 35 -->
      <g transform="translate(20.575 92.229709) scale(0.09 -0.09)">
       <use xlink:href="#SimHei-33"/>
       <use xlink:href="#SimHei-35" transform="translate(50 0)"/>
      </g>
     </g>
    </g>
    <g id="ytick_8">
     <g id="line2d_25">
      <path d="M 33.075 45.07292 
L 705.3675 45.07292 
" clip-path="url(#p5ab066db46)" style="fill: none; stroke-dasharray: 1.85,0.8; stroke-dashoffset: 0; stroke: #b2b2b2; stroke-opacity: 0.3; stroke-width: 0.5"/>
     </g>
     <g id="line2d_26">
      <g>
       <use xlink:href="#m6b46d9f15a" x="33.075" y="45.07292" style="stroke: #000000; stroke-width: 0.8"/>
      </g>
     </g>
     <g id="text_14">
      <!-- 40 -->
      <g transform="translate(20.575 48.16667) scale(0.09 -0.09)">
       <defs>
        <path id="SimHei-34" d="M 2000 1100 
L 75 1100 
L 75 1525 
L 2100 4450 
L 2475 4450 
L 2475 1525 
L 3075 1525 
L 3075 1100 
L 2475 1100 
L 2475 150 
L 2000 150 
L 2000 1100 
z
M 2000 1525 
L 2000 3500 
L 600 1525 
L 2000 1525 
z
" transform="scale(0.015625)"/>
       </defs>
       <use xlink:href="#SimHei-34"/>
       <use xlink:href="#SimHei-30" transform="translate(50 0)"/>
      </g>
     </g>
    </g>
    <g id="text_15">
     <!-- TN_mg/L 值 -->
     <g transform="translate(15.246875 234.789375) rotate(-90) scale(0.1 -0.1)">
      <defs>
       <path id="SimHei-54" d="M 2850 3925 
L 1850 3925 
L 1850 125 
L 1275 125 
L 1275 3925 
L 275 3925 
L 275 4400 
L 2850 4400 
L 2850 3925 
z
" transform="scale(0.015625)"/>
       <path id="SimHei-4e" d="M 2850 125 
L 2225 125 
L 850 3225 
L 825 3225 
L 825 125 
L 250 125 
L 250 4400 
L 875 4400 
L 2250 1300 
L 2275 1300 
L 2275 4400 
L 2850 4400 
L 2850 125 
z
" transform="scale(0.015625)"/>
       <path id="SimHei-5f" d="M 3150 -850 
L 0 -850 
L 0 -550 
L 3150 -550 
L 3150 -850 
z
" transform="scale(0.015625)"/>
       <path id="SimHei-6d" d="M 3050 125 
L 2550 125 
L 2550 2150 
Q 2550 2300 2500 2400 
Q 2450 2500 2300 2500 
Q 2125 2500 1975 2312 
Q 1825 2125 1825 1825 
L 1825 125 
L 1325 125 
L 1325 2150 
Q 1325 2300 1275 2400 
Q 1225 2500 1075 2500 
Q 900 2500 750 2312 
Q 600 2125 600 1825 
L 600 125 
L 100 125 
L 100 2925 
L 600 2925 
L 600 2550 
Q 725 2750 900 2862 
Q 1075 2975 1275 2975 
Q 1475 2975 1612 2862 
Q 1750 2750 1800 2550 
Q 1925 2750 2087 2862 
Q 2250 2975 2450 2975 
Q 2750 2975 2900 2812 
Q 3050 2650 3050 2350 
L 3050 125 
z
" transform="scale(0.015625)"/>
       <path id="SimHei-67" d="M 2975 2500 
Q 2800 2550 2637 2562 
Q 2475 2575 2300 2525 
Q 2375 2450 2425 2337 
Q 2475 2225 2475 2000 
Q 2475 1575 2187 1300 
Q 1900 1025 1475 1025 
Q 1375 1025 1212 1062 
Q 1050 1100 950 1150 
Q 875 1100 850 1050 
Q 825 1000 825 925 
Q 825 800 1000 737 
Q 1175 675 1625 675 
Q 2350 675 2612 475 
Q 2875 275 2875 -25 
Q 2875 -425 2487 -612 
Q 2100 -800 1575 -800 
Q 900 -800 575 -625 
Q 250 -450 250 -150 
Q 250 0 375 150 
Q 500 300 700 400 
Q 550 475 462 587 
Q 375 700 375 875 
Q 375 1025 487 1137 
Q 600 1250 750 1325 
Q 625 1450 550 1625 
Q 475 1800 475 2000 
Q 475 2425 762 2700 
Q 1050 2975 1475 2975 
Q 1700 2975 1862 2912 
Q 2025 2850 2150 2725 
Q 2350 2875 2550 2937 
Q 2750 3000 2975 2975 
L 2975 2500 
z
M 1975 2000 
Q 1975 2250 1850 2400 
Q 1725 2550 1475 2550 
Q 1225 2550 1100 2400 
Q 975 2250 975 2000 
Q 975 1750 1100 1600 
Q 1225 1450 1475 1450 
Q 1725 1450 1850 1600 
Q 1975 1750 1975 2000 
z
M 2400 -75 
Q 2400 25 2287 125 
Q 2175 225 1725 225 
Q 1625 225 1450 237 
Q 1275 250 1050 275 
Q 850 200 775 100 
Q 700 0 700 -100 
Q 700 -250 900 -350 
Q 1100 -450 1600 -450 
Q 2025 -450 2212 -337 
Q 2400 -225 2400 -75 
z
" transform="scale(0.015625)"/>
       <path id="SimHei-4c" d="M 2900 125 
L 300 125 
L 300 4400 
L 875 4400 
L 875 600 
L 2900 600 
L 2900 125 
z
" transform="scale(0.015625)"/>
       <path id="SimHei-503c" d="M 3675 4450 
L 3675 5100 
Q 3975 5075 4350 5050 
Q 4225 4875 4200 4450 
L 5125 4450 
Q 5550 4450 5875 4475 
L 5875 4025 
Q 5525 4050 5125 4050 
L 4175 4050 
L 4125 3500 
L 5400 3500 
Q 5375 3200 5375 2700 
L 5375 150 
Q 5875 150 6100 175 
L 6100 -275 
Q 5775 -250 5200 -250 
L 2850 -250 
Q 2275 -250 1900 -275 
L 1900 175 
Q 2125 150 2600 150 
L 2600 2700 
Q 2600 3175 2575 3500 
L 3600 3500 
L 3650 4050 
L 3200 4050 
Q 2575 4050 2225 4025 
L 2225 4475 
Q 2550 4450 3200 4450 
L 3675 4450 
z
M 2225 4900 
Q 2025 4675 1650 3750 
L 1650 450 
Q 1650 -75 1675 -550 
L 1150 -550 
Q 1175 -125 1175 375 
L 1175 2950 
Q 875 2450 625 2150 
Q 425 2425 250 2575 
Q 500 2825 937 3537 
Q 1375 4250 1625 5150 
Q 1975 4975 2225 4900 
z
M 4925 2650 
L 4925 3150 
L 3075 3150 
L 3075 2650 
L 4925 2650 
z
M 4925 150 
L 4925 625 
L 3075 625 
L 3075 150 
L 4925 150 
z
M 4925 1000 
L 4925 1450 
L 3075 1450 
L 3075 1000 
L 4925 1000 
z
M 4925 1825 
L 4925 2275 
L 3075 2275 
L 3075 1825 
L 4925 1825 
z
" transform="scale(0.015625)"/>
      </defs>
      <use xlink:href="#SimHei-54"/>
      <use xlink:href="#SimHei-4e" transform="translate(50 0)"/>
      <use xlink:href="#SimHei-5f" transform="translate(100 0)"/>
      <use xlink:href="#SimHei-6d" transform="translate(150 0)"/>
      <use xlink:href="#SimHei-67" transform="translate(200 0)"/>
      <use xlink:href="#SimHei-2f" transform="translate(250 0)"/>
      <use xlink:href="#SimHei-4c" transform="translate(300 0)"/>
      <use xlink:href="#SimHei-20" transform="translate(350 0)"/>
      <use xlink:href="#SimHei-503c" transform="translate(400 0)"/>
     </g>
    </g>
   </g>
   <g id="line2d_27">
    <path d="M 63.63375 234.746681 
L 63.912698 219.844561 
L 64.191646 219.227678 
L 64.470594 200.765264 
L 64.749542 214.689185 
L 65.02849 214.09874 
L 65.307438 214.891875 
L 65.586386 206.176206 
L 65.865334 218.134915 
L 66.144282 215.403006 
L 66.42323 206.414146 
L 66.981126 218.857549 
L 67.260074 220.672946 
L 67.539022 210.979077 
L 67.81797 212.803287 
L 68.096918 212.820912 
L 68.375865 205.012941 
L 68.933761 222.761534 
L 69.491657 241.162259 
L 69.770605 228.110787 
L 70.049553 223.078788 
L 70.328501 214.336681 
L 70.607449 215.341318 
L 70.886397 199.117307 
L 71.165345 189.511564 
L 71.444293 184.312125 
L 71.723241 183.07836 
L 72.002189 174.618257 
L 72.281137 179.817695 
L 72.560085 174.794509 
L 72.839033 184.312125 
L 73.117981 198.58855 
L 73.396929 196.473524 
L 73.675877 168.625683 
L 73.954825 160.870588 
L 74.233773 164.933201 
L 74.512721 142.408175 
L 74.791669 147.034794 
L 75.070617 143.509751 
L 75.349565 143.774129 
L 75.628513 166.686909 
L 75.907461 180.073261 
L 76.186409 184.391439 
L 76.465357 181.544967 
L 76.744305 195.91833 
L 77.023253 189.714254 
L 77.3022 195.151633 
L 77.581148 197.407661 
L 77.860096 210.935014 
L 78.139044 196.958218 
L 78.417992 205.524073 
L 78.69694 197.160908 
L 79.533784 210.256443 
L 79.812732 192.631227 
L 80.09168 218.161353 
L 80.370628 223.501793 
L 80.928524 229.40624 
L 81.207472 226.771271 
L 81.48642 212.750411 
L 81.765368 209.137242 
L 82.044316 200.871016 
L 82.323264 206.343645 
L 82.602212 195.618701 
L 82.88116 207.559785 
L 83.160108 199.910441 
L 83.439056 206.255519 
L 83.718004 201.294021 
L 83.996952 207.894664 
L 84.2759 202.64235 
L 84.554848 203.664612 
L 84.833796 213.640485 
L 85.112744 246.828766 
L 85.391692 231.107074 
L 85.67064 204.175744 
L 85.949588 192.384474 
L 86.228535 192.833917 
L 86.507483 202.078343 
L 86.786431 205.057005 
L 87.065379 191.291711 
L 87.344327 186.101085 
L 87.623275 183.554241 
L 87.902223 211.604772 
L 88.181171 224.153926 
L 88.460119 218.637233 
L 88.739067 224.691495 
L 89.018015 224.189176 
L 89.296963 217.941037 
L 89.575911 228.868671 
L 89.854859 226.383516 
L 90.133807 225.431754 
L 90.412755 216.830649 
L 90.691703 224.620994 
L 90.970651 212.618222 
L 91.249599 226.859397 
L 91.528547 264.735986 
L 91.807495 264.348231 
L 92.086443 214.627497 
L 92.923287 240.986007 
L 93.202235 197.883542 
L 93.481183 205.383071 
L 93.760131 202.6071 
L 94.039079 205.400696 
L 94.318027 191.741154 
L 94.596975 193.582989 
L 94.875923 205.31257 
L 95.15487 209.128429 
L 95.433818 217.10384 
L 95.712766 186.585778 
L 95.991714 203.197544 
L 96.270662 207.313032 
L 96.54961 217.588533 
L 96.828558 220.329254 
L 97.107506 219.527307 
L 97.386454 218.284729 
L 97.665402 214.680372 
L 97.94435 217.042151 
L 98.502246 229.873309 
L 98.781194 228.859859 
L 99.060142 212.256905 
L 99.33909 219.377492 
L 99.618038 231.036573 
L 99.896986 249.966055 
L 100.175934 257.060204 
L 100.454882 223.061163 
L 100.73383 245.92988 
L 101.012778 237.187773 
L 101.291726 235.601504 
L 101.570674 226.965148 
L 101.849622 223.0876 
L 102.12857 229.432678 
L 102.686466 219.033801 
L 102.965414 238.509664 
L 103.244362 235.011059 
L 103.52331 228.454479 
L 103.802258 255.482747 
L 104.081205 254.143231 
L 104.360153 241.179885 
L 104.918049 248.062531 
L 105.196997 263.50222 
L 105.475945 229.423866 
L 105.754893 250.565312 
L 106.033841 248.212346 
L 106.312789 235.760131 
L 106.591737 265.890437 
L 107.149633 243.083408 
L 107.707529 231.107074 
L 107.986477 242.695653 
L 108.265425 225.096875 
L 108.544373 237.460964 
L 108.823321 267.92615 
L 109.102269 235.707255 
L 109.660165 273.486905 
L 109.939113 266.718822 
L 110.218061 263.088028 
L 110.497009 244.898805 
L 110.775957 241.937769 
L 111.054905 171.542656 
L 111.333853 257.509647 
L 111.612801 253.711413 
L 111.891749 233.433602 
L 112.170697 247.92153 
L 112.449645 232.473028 
L 112.728593 269.82086 
L 113.007541 177.262039 
L 113.286488 43.742216 
L 113.565436 81.292738 
L 113.844384 262.920588 
L 114.123332 255.244807 
L 114.40228 253.032842 
L 114.681228 248.503162 
L 114.960176 254.768926 
L 115.239124 244.660865 
L 115.518072 255.473935 
L 115.79702 252.874215 
L 116.075968 238.15716 
L 116.354916 265.749436 
L 116.633864 236.412264 
L 116.912812 252.460023 
L 117.19176 255.385809 
L 117.470708 248.899729 
L 117.749656 269.961862 
L 118.028604 251.790265 
L 118.307552 289.508227 
L 118.5865 272.975774 
L 118.865448 245.030994 
L 119.144396 237.857531 
L 119.423344 251.376072 
L 119.702292 257.439146 
L 119.98124 245.709565 
L 120.260188 255.544436 
L 120.539136 251.094068 
L 121.097032 258.12653 
L 121.37598 255.791189 
L 121.654928 251.014755 
L 121.933876 237.75178 
L 122.212823 256.443322 
L 122.491771 262.753149 
L 123.049667 256.223006 
L 123.328615 256.223006 
L 123.607563 248.899729 
L 123.886511 259.157605 
L 124.165459 248.670601 
L 124.444407 43.742216 
L 124.723355 43.742216 
L 125.002303 238.923857 
L 125.281251 207.480472 
L 126.118095 169.304254 
L 126.397043 236.200761 
L 126.675991 225.28194 
L 126.954939 240.369125 
L 127.512835 242.431275 
L 127.791783 231.776832 
L 128.070731 207.815351 
L 128.349679 236.800018 
L 128.628627 235.583878 
L 128.907575 258.117717 
L 129.186523 258.487847 
L 129.465471 243.136284 
L 129.744419 255.165493 
L 130.023367 252.169207 
L 130.302315 258.628848 
L 130.581263 250.477186 
L 130.860211 268.913162 
L 131.139158 299.58985 
L 131.418106 294.742916 
L 131.697054 287.957208 
L 131.976002 300.80599 
L 132.25495 297.404323 
L 132.533898 284.185411 
L 132.812846 311.301806 
L 133.091794 323.498455 
L 133.370742 297.862579 
L 133.928638 276.562505 
L 134.207586 291.508689 
L 134.486534 314.650597 
L 134.765482 315.611171 
L 135.04443 303.291145 
L 135.323378 302.207195 
L 135.602326 306.234556 
L 135.881274 306.234556 
L 136.160222 299.977605 
L 136.43917 297.93308 
L 136.718118 293.535588 
L 137.276014 299.069906 
L 137.554962 286.793943 
L 137.83391 291.975757 
L 138.112858 302.383447 
L 138.391806 319.550407 
L 138.670754 282.158512 
L 138.949702 311.663123 
L 139.507598 234.552803 
L 139.786546 264.559733 
L 140.344441 136.909107 
L 140.623389 124.025074 
L 140.902337 159.531072 
L 141.181285 176.301465 
L 141.460233 215.209129 
L 141.739181 199.522687 
L 142.018129 229.344552 
L 142.576025 168.95175 
L 142.854973 216.909962 
L 143.133921 239.144172 
L 143.412869 216.865899 
L 143.691817 230.287501 
L 143.970765 237.646029 
L 144.249713 234.570429 
L 144.528661 157.724487 
L 144.807609 156.966603 
L 145.086557 231.582954 
L 145.365505 226.022199 
L 145.644453 229.027298 
L 145.923401 274.31529 
L 146.202349 263.422907 
L 146.481297 246.176633 
L 146.760245 274.703045 
L 147.039193 270.331992 
L 147.318141 276.580131 
L 147.597089 276.157126 
L 147.876037 291.120934 
L 148.154985 284.978546 
L 148.433933 296.487812 
L 148.712881 296.443749 
L 148.991829 305.09773 
L 149.270776 284.017972 
L 149.549724 271.345442 
L 149.828672 264.965113 
L 150.10762 266.049064 
L 150.386568 265.097303 
L 150.665516 277.1177 
L 150.944464 281.312501 
L 151.223412 282.466953 
L 151.50236 282.414077 
L 151.781308 286.846819 
L 152.060256 266.075502 
L 152.618152 272.588019 
L 152.8971 270.279116 
L 153.176048 276.994323 
L 153.454996 297.457199 
L 153.733944 291.015183 
L 154.012892 296.664064 
L 154.29184 288.900157 
L 154.570788 259.41317 
L 154.849736 258.320407 
L 155.128684 209.269431 
L 155.407632 202.184094 
L 155.68658 239.514302 
L 155.965528 245.938693 
L 156.244476 249.023106 
L 156.523424 250.062993 
L 156.802372 256.214194 
L 157.08132 254.971616 
L 157.360268 254.557423 
L 157.639216 255.059742 
L 157.918164 215.07694 
L 158.197111 201.769902 
L 158.476059 283.868157 
L 158.755007 307.336132 
L 159.033955 294.363974 
L 159.312903 269.256853 
L 159.591851 287.102385 
L 159.870799 249.049543 
L 160.149747 179.518067 
L 160.428695 177.050536 
L 160.707643 188.462864 
L 160.986591 186.198024 
L 161.265539 162.730049 
L 161.823435 275.866309 
L 162.102383 261.598697 
L 162.381331 274.711858 
L 162.660279 280.545804 
L 162.939227 257.818088 
L 163.218175 293.535588 
L 163.497123 183.342739 
L 163.776071 249.939617 
L 164.055019 242.766154 
L 164.333967 231.644643 
L 164.612915 232.305588 
L 164.891863 231.697518 
L 165.170811 233.363101 
L 165.449759 228.939172 
L 165.728707 229.018486 
L 166.007655 227.1414 
L 166.286603 216.654397 
L 166.844499 218.681296 
L 167.123446 222.197527 
L 167.402394 222.84966 
L 167.681342 215.711448 
L 167.96029 215.746698 
L 168.239238 224.418304 
L 168.518186 222.00365 
L 168.797134 221.959587 
L 169.076082 218.989738 
L 169.633978 195.142821 
L 169.912926 204.255057 
L 170.191874 178.689682 
L 170.470822 210.291694 
L 170.74977 176.909535 
L 171.028718 223.501793 
L 171.307666 214.627497 
L 171.865562 128.184625 
L 172.14451 197.654414 
L 172.423458 212.300968 
L 172.702406 212.486033 
L 172.981354 214.06349 
L 173.260302 207.612661 
L 173.53925 183.642367 
L 173.818198 183.915558 
L 174.097146 175.288015 
L 174.376094 187.881232 
L 174.655042 191.326961 
L 174.93399 198.95868 
L 175.212938 199.231871 
L 175.491886 203.497173 
L 175.770834 213.191042 
L 176.328729 217.9146 
L 176.607677 216.002264 
L 176.886625 217.879349 
L 177.165573 199.037993 
L 177.444521 204.836689 
L 177.723469 202.580662 
L 178.002417 211.657648 
L 178.281365 214.363119 
L 178.560313 189.300062 
L 178.839261 198.905804 
L 179.118209 133.304751 
L 179.397157 181.025023 
L 179.676105 208.335295 
L 179.955053 205.71795 
L 180.234001 211.111266 
L 180.512949 205.153943 
L 180.791897 206.704962 
L 181.070845 229.141862 
L 181.349793 217.13909 
L 181.628741 236.711892 
L 181.907689 227.793533 
L 182.186637 234.253175 
L 182.465585 207.929915 
L 183.023481 220.064876 
L 183.302429 220.884448 
L 183.581377 220.884448 
L 183.860325 211.093641 
L 184.139273 264.639047 
L 184.418221 275.504993 
L 184.697169 272.024012 
L 184.976116 287.772143 
L 185.255064 256.716512 
L 185.81296 273.795347 
L 186.091908 277.241076 
L 186.649804 324.908473 
L 186.928752 324.741033 
L 187.2077 324.987786 
L 187.486648 323.234077 
L 187.765596 310.887613 
L 188.044544 328.451141 
L 188.323492 335.47479 
L 188.60244 255.130243 
L 188.881388 326.344928 
L 189.160336 339.052708 
L 189.439284 317.981763 
L 189.718232 320.986862 
L 189.99718 313.822212 
L 190.276128 302.304133 
L 190.555076 298.065269 
L 190.834024 297.051819 
L 191.112972 282.431702 
L 191.39192 298.444211 
L 191.670868 298.831966 
L 191.949816 299.008218 
L 192.507712 293.940968 
L 192.78666 295.456737 
L 193.065608 300.832428 
L 193.344556 299.246158 
L 193.623504 303.370459 
L 193.902452 302.550886 
L 194.181399 260.673373 
L 194.460347 265.009176 
L 194.739295 259.421983 
L 195.018243 248.097782 
L 195.297191 250.812065 
L 195.576139 245.824129 
L 195.855087 248.291659 
L 196.134035 181.730031 
L 196.412983 263.951663 
L 196.691931 254.848239 
L 196.970879 252.028205 
L 197.249827 306.393183 
L 197.528775 325.093537 
L 197.807723 316.263304 
L 198.086671 323.551331 
L 198.365619 320.687234 
L 198.644567 294.205347 
L 198.923515 324.49428 
L 199.481411 340.286474 
L 199.760359 334.152898 
L 200.039307 333.48314 
L 200.318255 306.992441 
L 200.597203 245.277747 
L 200.876151 251.376072 
L 201.434047 332.628317 
L 201.991943 281.497566 
L 202.270891 281.497566 
L 202.549839 243.938231 
L 202.828787 253.438222 
L 203.107734 241.761517 
L 203.386682 255.879315 
L 203.66563 246.934518 
L 203.944578 222.179902 
L 204.223526 265.634872 
L 204.502474 287.534202 
L 204.781422 296.655252 
L 205.06037 291.773067 
L 205.339318 281.162687 
L 205.618266 259.051853 
L 205.897214 264.938676 
L 206.176162 262.594522 
L 206.45511 283.524466 
L 206.734058 284.969733 
L 207.013006 303.634837 
L 207.291954 288.77678 
L 207.570902 258.064841 
L 207.84985 253.887665 
L 208.128798 262.180329 
L 208.407746 250.679876 
L 208.686694 257.35102 
L 209.24459 249.20817 
L 209.523538 237.610778 
L 209.802486 239.655303 
L 210.081434 235.125623 
L 210.360382 252.424772 
L 210.63933 249.798615 
L 210.918278 250.177557 
L 211.197226 248.274034 
L 211.476174 237.046771 
L 211.755122 244.140921 
L 212.034069 241.329699 
L 212.591965 257.024954 
L 212.870913 212.063028 
L 213.149861 275.011486 
L 213.428809 272.852398 
L 213.707757 272.429392 
L 213.986705 264.621422 
L 214.265653 273.372341 
L 214.544601 286.644129 
L 215.102497 262.21558 
L 215.381445 248.009656 
L 215.660393 252.680338 
L 215.939341 246.220696 
L 216.218289 242.713278 
L 216.497237 242.713278 
L 216.776185 260.488309 
L 217.055133 258.003153 
L 217.334081 267.741085 
L 217.613029 292.962769 
L 217.891977 264.762423 
L 218.170925 255.103805 
L 218.449873 259.333857 
L 218.728821 259.333857 
L 219.007769 246.079695 
L 219.286717 246.326448 
L 219.565665 265.775873 
L 219.844613 262.761961 
L 220.123561 272.42058 
L 220.402509 271.178002 
L 220.681457 284.476227 
L 220.960404 254.222544 
L 221.239352 343.053632 
L 221.5183 218.372855 
L 221.797248 328.283702 
L 222.076196 241.752704 
L 222.355144 243.471163 
L 222.634092 254.707238 
L 222.91304 238.59779 
L 223.191988 238.59779 
L 223.470936 251.455385 
L 223.749884 238.024971 
L 224.028832 248.053719 
L 224.586728 222.40903 
L 224.865676 229.652993 
L 225.144624 227.396966 
L 225.423572 236.244824 
L 225.70252 237.460964 
L 225.981468 237.460964 
L 226.260416 250.415498 
L 226.539364 209.701249 
L 226.818312 220.761072 
L 227.09726 258.8051 
L 227.376208 276.060187 
L 227.655156 179.729569 
L 228.213052 187.97817 
L 228.492 184.893758 
L 228.770948 149.537574 
L 229.328844 183.060735 
L 229.607792 220.963762 
L 230.165687 203.585299 
L 230.444635 187.907669 
L 231.002531 222.973037 
L 231.281479 285.119548 
L 231.560427 215.975826 
L 231.839375 223.924798 
L 232.118323 256.108442 
L 232.397271 263.334781 
L 232.676219 206.449397 
L 232.955167 244.202609 
L 233.234115 246.661327 
L 233.513063 243.779604 
L 233.792011 223.440105 
L 234.349907 252.01058 
L 234.628855 253.26197 
L 234.907803 243.400662 
L 235.186751 247.75409 
L 235.465699 244.599176 
L 235.744647 246.520325 
L 236.023595 265.52912 
L 236.302543 268.040714 
L 236.581491 264.542108 
L 236.860439 272.949336 
L 237.418335 236.482764 
L 237.697283 239.514302 
L 237.976231 217.042151 
L 238.255179 255.438684 
L 238.534127 250.909004 
L 238.813075 264.973926 
L 239.092022 248.670601 
L 239.37097 267.55602 
L 239.649918 278.342652 
L 239.928866 272.341266 
L 240.207814 258.919664 
L 240.486762 257.941465 
L 240.76571 250.627 
L 241.044658 214.812562 
L 241.602554 258.082467 
L 241.881502 251.6052 
L 242.16045 257.11308 
L 242.439398 230.031935 
L 242.718346 241.444263 
L 242.997294 232.666905 
L 243.276242 248.952605 
L 243.55519 237.293524 
L 243.834138 286.115372 
L 244.113086 290.865368 
L 244.392034 247.524962 
L 244.670982 264.07504 
L 244.94993 262.21558 
L 245.228878 243.206784 
L 245.507826 267.494332 
L 245.786774 203.188732 
L 246.065722 234.588054 
L 246.34467 213.517108 
L 246.623618 203.012479 
L 246.902566 217.17434 
L 247.181514 210.608948 
L 247.460462 250.582937 
L 247.73941 228.172475 
L 248.297305 156.543598 
L 248.576253 237.928032 
L 248.855201 235.954008 
L 249.134149 267.829211 
L 249.413097 248.855666 
L 249.692045 281.541629 
L 249.970993 255.844064 
L 250.249941 275.866309 
L 250.807837 253.270783 
L 251.086785 231.221638 
L 251.365733 241.673391 
L 251.644681 232.094086 
L 251.923629 262.312518 
L 252.202577 230.99251 
L 252.481525 234.358926 
L 252.760473 212.098278 
L 253.039421 235.795381 
L 253.318369 219.421555 
L 253.597317 230.82507 
L 253.876265 256.364008 
L 254.155213 242.034708 
L 254.434161 245.550938 
L 254.713109 262.779587 
L 254.992057 290.935869 
L 255.271005 221.853835 
L 255.549953 304.754038 
L 255.828901 292.469263 
L 256.107849 184.946633 
L 256.386797 172.758796 
L 256.665745 169.198503 
L 256.944692 153.547311 
L 257.22364 160.40352 
L 257.502588 143.421624 
L 257.781536 177.755545 
L 258.060484 123.355316 
L 258.339432 139.138697 
L 258.61838 104.91934 
L 259.176276 194.05887 
L 259.455224 169.885886 
L 259.734172 181.871033 
L 260.292068 230.093624 
L 260.571016 188.224923 
L 260.849964 184.893758 
L 261.128912 180.196637 
L 261.40786 197.522225 
L 261.686808 164.148878 
L 261.965756 223.686858 
L 262.244704 178.936435 
L 262.523652 292.178447 
L 262.8026 320.317104 
L 263.081548 303.335208 
L 263.360496 263.422907 
L 263.639444 258.849163 
L 263.918392 241.611702 
L 264.19734 215.024064 
L 264.476288 241.285636 
L 264.755236 189.397 
L 265.034184 164.607134 
L 265.313132 185.466577 
L 265.59208 256.998516 
L 265.871027 246.30001 
L 266.149975 229.141862 
L 266.428923 229.705869 
L 266.707871 294.751728 
L 266.986819 293.376961 
L 267.265767 277.470204 
L 267.544715 297.76564 
L 267.823663 297.448386 
L 268.102611 301.528624 
L 268.381559 285.286987 
L 268.660507 240.659941 
L 268.939455 281.294876 
L 269.218403 233.01941 
L 269.497351 206.890027 
L 269.776299 232.984159 
L 270.055247 219.765247 
L 270.334195 192.155346 
L 270.892091 242.21096 
L 271.171039 229.970247 
L 271.449987 244.10567 
L 271.728935 206.52871 
L 272.007883 237.734155 
L 272.286831 245.515688 
L 272.565779 194.631689 
L 272.844727 242.968844 
L 273.402623 128.140562 
L 273.681571 152.419297 
L 273.960519 216.539833 
L 274.239467 165.726335 
L 274.797363 240.192872 
L 275.07631 244.801866 
L 275.355258 263.801849 
L 275.634206 220.946137 
L 275.913154 240.730442 
L 276.192102 225.149751 
L 276.47105 190.084384 
L 276.749998 235.099185 
L 277.028946 224.532868 
L 277.307894 250.741564 
L 277.586842 249.833866 
L 277.86579 236.53564 
L 278.144738 264.903425 
L 278.423686 221.377954 
L 278.702634 242.202147 
L 278.981582 284.634854 
L 279.26053 302.498011 
L 279.539478 301.872316 
L 279.818426 300.629738 
L 280.097374 285.09311 
L 280.376322 281.894133 
L 280.934218 290.442363 
L 281.213166 278.97716 
L 281.492114 295.853304 
L 281.771062 292.240135 
L 282.05001 295.959056 
L 282.328958 292.204885 
L 282.607906 276.060187 
L 282.886854 272.173827 
L 283.165802 277.408516 
L 283.44475 278.607031 
L 283.723698 260.329682 
L 284.002645 277.35564 
L 284.281593 271.874198 
L 284.560541 269.671046 
L 284.839489 269.300917 
L 285.118437 259.104729 
L 285.397385 266.780511 
L 285.676333 254.812989 
L 285.955281 249.825053 
L 286.234229 254.028667 
L 286.513177 264.286543 
L 286.792125 260.62931 
L 287.071073 285.815744 
L 287.628969 260.787937 
L 287.907917 236.271262 
L 288.186865 226.709582 
L 288.465813 242.422462 
L 288.744761 231.133511 
L 289.023709 259.201668 
L 289.302657 239.355675 
L 289.581605 246.573201 
L 289.860553 266.419194 
L 290.418449 255.738313 
L 290.697397 256.073192 
L 290.976345 248.793978 
L 291.255293 252.574587 
L 291.534241 258.223468 
L 292.092137 255.89694 
L 292.371085 281.735506 
L 292.92898 266.50732 
L 293.207928 282.123261 
L 293.486876 283.057398 
L 294.044772 301.493373 
L 294.32372 270.208615 
L 294.602668 277.144138 
L 294.881616 242.316711 
L 295.160564 243.250847 
L 295.439512 248.793978 
L 295.71846 296.937255 
L 295.997408 258.849163 
L 296.276356 244.51105 
L 296.555304 194.182246 
L 296.834252 225.942885 
L 297.1132 214.248555 
L 297.392148 237.593153 
L 297.671096 250.565312 
L 297.950044 256.117255 
L 298.228992 235.169686 
L 298.50794 280.774932 
L 298.786888 258.655286 
L 299.065836 204.422497 
L 299.344784 222.796784 
L 299.623732 214.821374 
L 299.90268 194.543563 
L 300.181628 216.909962 
L 300.460576 210.767574 
L 300.739524 249.37561 
L 301.29742 214.292618 
L 301.576368 236.456327 
L 301.855315 233.724418 
L 302.134263 227.291214 
L 302.692159 265.396931 
L 302.971107 248.291659 
L 303.250055 202.377972 
L 303.529003 220.531944 
L 304.086899 192.296348 
L 304.365847 204.616374 
L 304.644795 199.848753 
L 304.923743 201.197082 
L 305.202691 144.135446 
L 305.481639 145.677652 
L 305.760587 200.791702 
L 306.039535 230.190562 
L 306.597431 260.541184 
L 307.155327 348.253071 
L 307.713223 238.870981 
L 307.992171 245.656689 
L 308.271119 271.742009 
L 308.550067 191.01852 
L 308.829015 195.51295 
L 309.107963 213.191042 
L 309.386911 203.567674 
L 309.665859 206.202644 
L 309.944807 207.736037 
L 310.223755 182.144224 
L 310.502703 182.144224 
L 310.781651 267.194703 
L 311.060598 232.904846 
L 311.339546 231.979522 
L 311.618494 287.76333 
L 312.17639 235.566253 
L 312.455338 212.459595 
L 312.734286 233.86542 
L 313.013234 240.087121 
L 313.292182 260.294431 
L 313.57113 267.370955 
L 313.850078 228.207726 
L 314.129026 288.3714 
L 314.686922 180.787082 
L 314.96587 231.873771 
L 315.244818 217.94985 
L 315.523766 291.314811 
L 315.802714 281.806007 
L 316.081662 204.616374 
L 316.639558 288.380213 
L 316.918506 290.054608 
L 317.476402 329.341215 
L 318.034298 281.938196 
L 318.313246 254.786551 
L 318.592194 257.659461 
L 318.871142 219.218866 
L 319.15009 224.30374 
L 319.429038 278.448404 
L 319.707986 272.640895 
L 319.986933 281.524004 
L 320.823777 237.452151 
L 321.102725 249.525424 
L 321.381673 286.95257 
L 321.660621 304.28697 
L 321.939569 240.448438 
L 322.218517 267.511957 
L 322.497465 233.69798 
L 322.776413 245.850567 
L 323.055361 284.537916 
L 323.334309 262.735524 
L 323.613257 277.338015 
L 323.892205 271.750822 
L 324.171153 283.365839 
L 324.450101 272.076888 
L 324.729049 337.686754 
L 325.007997 315.849112 
L 325.286945 324.917285 
L 325.565893 305.837989 
L 325.844841 314.271655 
L 326.123789 315.364418 
L 326.402737 274.28004 
L 326.681685 287.049509 
L 326.960633 312.641322 
L 327.239581 306.55181 
L 327.518529 272.323641 
L 327.797477 258.214656 
L 328.076425 258.214656 
L 328.355373 231.63583 
L 328.634321 276.756383 
L 328.913268 296.857942 
L 329.192216 295.245234 
L 329.471164 305.212294 
L 330.02906 242.061145 
L 330.308008 261.360757 
L 330.586956 226.242514 
L 330.865904 266.903887 
L 331.144852 275.099613 
L 331.4238 323.031387 
L 331.702748 341.86393 
L 331.981696 335.906607 
L 332.260644 356.422359 
L 332.539592 361.269293 
L 332.81854 363.031815 
L 333.097488 335.2721 
L 333.376436 288.283274 
L 333.655384 310.40292 
L 333.934332 302.365822 
L 334.21328 303.529086 
L 334.492228 303.731776 
L 334.771176 304.991979 
L 335.050124 231.292138 
L 335.329072 245.224872 
L 335.60802 238.148347 
L 335.886968 220.38213 
L 336.165916 220.38213 
L 336.444864 274.341728 
L 336.723812 260.928939 
L 337.00276 230.595942 
L 337.281708 286.855632 
L 337.560656 320.026288 
L 337.839603 281.479941 
L 338.118551 302.392259 
L 338.397499 233.706793 
L 338.676447 302.524449 
L 338.955395 312.676573 
L 339.234343 286.441439 
L 339.513291 318.290204 
L 339.792239 322.67007 
L 340.071187 301.264246 
L 340.350135 319.805973 
L 340.629083 326.406616 
L 340.908031 325.384354 
L 341.186979 226.656707 
L 341.465927 212.538909 
L 342.023823 250.212808 
L 342.302771 268.393218 
L 342.581719 254.495735 
L 342.860667 267.952588 
L 343.139615 245.154371 
L 343.418563 278.712782 
L 343.697511 273.169651 
L 343.976459 271.971137 
L 344.534355 244.696115 
L 344.813303 242.140459 
L 345.092251 261.228568 
L 345.371199 250.530062 
L 345.650147 271.653883 
L 345.929095 257.227644 
L 346.208043 236.033321 
L 346.486991 241.796767 
L 346.765938 253.729038 
L 347.044886 287.313887 
L 347.323834 290.971119 
L 347.602782 262.383019 
L 348.160678 278.589405 
L 348.439626 279.41779 
L 348.718574 266.674759 
L 348.997522 276.835696 
L 349.27647 295.844492 
L 349.834366 257.624211 
L 350.392262 301.24662 
L 350.67121 259.721612 
L 351.229106 286.485502 
L 351.508054 285.225299 
L 351.787002 308.367208 
L 352.06595 311.425183 
L 352.344898 294.593101 
L 352.623846 262.039328 
L 352.902794 252.927091 
L 353.181742 281.603317 
L 353.46069 291.059246 
L 353.739638 314.447907 
L 354.018586 310.737799 
L 354.297534 303.106081 
L 354.576482 282.704893 
L 354.85543 311.839375 
L 355.413326 332.099561 
L 355.692274 295.139483 
L 355.971221 303.308771 
L 356.250169 302.859328 
L 356.529117 314.148278 
L 356.808065 333.068948 
L 357.087013 256.170131 
L 357.365961 244.793054 
L 357.644909 251.869578 
L 357.923857 266.516132 
L 358.202805 250.671063 
L 358.481753 289.719729 
L 358.760701 293.094958 
L 359.039649 297.871392 
L 359.318597 275.240614 
L 359.597545 305.688175 
L 359.876493 319.9646 
L 360.155441 316.809686 
L 360.434389 309.160342 
L 360.713337 298.003581 
L 361.271233 310.350044 
L 361.550181 310.720174 
L 361.829129 288.908969 
L 362.108077 250.450748 
L 362.387025 300.56805 
L 362.665973 311.715999 
L 362.944921 316.31618 
L 363.223869 318.510519 
L 363.502817 314.703473 
L 363.781765 314.791599 
L 364.339661 279.426603 
L 364.618609 270.666871 
L 364.897556 276.245252 
L 365.176504 286.450252 
L 365.455452 280.554617 
L 365.7344 277.92846 
L 366.013348 279.41779 
L 366.292296 266.569008 
L 366.571244 265.837562 
L 366.850192 256.372821 
L 367.12914 271.927074 
L 367.408088 273.663157 
L 367.687036 271.891823 
L 367.965984 264.824112 
L 368.244932 266.005001 
L 368.802828 280.572242 
L 369.081776 257.095455 
L 369.360724 252.556961 
L 369.639672 253.984604 
L 369.91862 249.569487 
L 370.197568 263.9076 
L 370.476516 284.740606 
L 370.755464 288.988283 
L 371.034412 289.358412 
L 371.31336 286.150623 
L 371.592308 286.150623 
L 371.871256 375.836534 
L 372.150204 271.107501 
L 372.429152 233.045847 
L 372.7081 259.051853 
L 372.987048 251.860765 
L 373.265996 272.676145 
L 373.544944 260.047678 
L 373.823891 278.219276 
L 374.102839 279.831983 
L 374.660735 305.168231 
L 374.939683 343.265135 
L 375.218631 334.038335 
L 375.776527 274.191914 
L 376.055475 300.814803 
L 376.334423 279.2151 
L 376.613371 299.730852 
L 376.892319 296.205809 
L 377.171267 299.246158 
L 377.450215 287.895519 
L 377.729163 298.461836 
L 378.008111 297.236884 
L 378.287059 290.504051 
L 378.566007 293.147834 
L 379.123903 338.056884 
L 379.402851 337.810131 
L 379.960747 256.09963 
L 380.239695 262.294893 
L 380.518643 215.068127 
L 381.076539 279.82317 
L 381.355487 278.730407 
L 381.634435 230.754569 
L 381.913383 212.653473 
L 382.192331 217.791223 
L 382.471279 232.825532 
L 382.750226 269.0101 
L 383.029174 230.701694 
L 383.308122 282.546266 
L 383.58707 302.780014 
L 383.866018 283.224837 
L 384.144966 224.753183 
L 384.423914 294.760541 
L 384.702862 284.106098 
L 385.260758 314.113028 
L 385.539706 303.194207 
L 385.818654 270.42893 
L 386.097602 278.642281 
L 386.37655 271.935886 
L 386.655498 246.784703 
L 386.934446 235.557441 
L 387.213394 265.819936 
L 387.492342 230.199375 
L 387.77129 230.922009 
L 388.050238 203.911365 
L 388.329186 251.050005 
L 388.608134 212.494846 
L 388.887082 223.810234 
L 389.16603 215.940575 
L 389.444978 265.317618 
L 389.723926 267.970213 
L 390.002874 218.011538 
L 390.281822 121.160977 
L 390.56077 114.780649 
L 390.839718 133.2695 
L 391.118666 96.406361 
L 391.397614 130.211525 
L 391.676562 123.26719 
L 392.234457 208.881676 
L 392.513405 198.835303 
L 392.792353 235.601504 
L 393.071301 238.862169 
L 393.350249 251.940079 
L 393.629197 216.874712 
L 393.908145 242.061145 
L 394.187093 233.565791 
L 394.466041 274.456292 
L 394.744989 255.147868 
L 395.023937 259.21048 
L 395.581833 269.697484 
L 395.860781 287.772143 
L 396.418677 255.332933 
L 396.697625 255.183119 
L 396.976573 255.967441 
L 397.534469 215.984638 
L 397.813417 237.505027 
L 398.092365 245.815316 
L 398.371313 261.246193 
L 398.650261 243.356599 
L 399.208157 275.399241 
L 399.487105 279.708607 
L 399.766053 250.080619 
L 400.045001 265.52912 
L 400.323949 263.158529 
L 401.160792 197.601538 
L 401.43974 221.563019 
L 401.718688 197.927605 
L 401.997636 224.189176 
L 402.276584 215.350131 
L 402.83448 243.365411 
L 403.113428 228.375165 
L 403.392376 234.402989 
L 403.671324 245.736003 
L 403.950272 265.238304 
L 404.22922 239.461426 
L 404.508168 195.283822 
L 404.787116 221.712834 
L 405.066064 184.312125 
L 405.345012 200.589012 
L 405.62396 226.004574 
L 405.902908 195.574638 
L 406.181856 205.391884 
L 406.460804 270.552307 
L 406.739752 298.840778 
L 407.0187 254.222544 
L 407.297648 229.432678 
L 408.134492 286.300437 
L 408.692388 173.64887 
L 408.971336 240.545377 
L 409.250284 206.035204 
L 409.529232 231.063011 
L 409.808179 242.219772 
L 410.366075 208.194293 
L 410.645023 209.648373 
L 410.923971 242.704466 
L 411.202919 229.088986 
L 411.481867 169.304254 
L 411.760815 154.08488 
L 412.039763 235.460502 
L 412.318711 180.919271 
L 412.597659 277.52308 
L 412.876607 249.067169 
L 413.155555 255.535623 
L 413.434503 257.236456 
L 413.713451 239.285174 
L 413.992399 259.289794 
L 414.271347 247.419211 
L 414.829243 202.774539 
L 415.108191 265.502682 
L 415.387139 247.930342 
L 415.666087 268.754535 
L 415.945035 278.113524 
L 416.223983 248.088969 
L 416.502931 272.737834 
L 416.781879 203.558861 
L 417.060827 205.71795 
L 417.339775 220.144189 
L 417.618723 213.094103 
L 417.897671 231.706331 
L 418.176619 193.089483 
L 418.455567 219.086676 
L 418.734514 219.659496 
L 419.013462 220.628883 
L 419.29241 262.321331 
L 419.571358 249.719302 
L 419.850306 257.201206 
L 420.129254 271.962324 
L 420.408202 243.004094 
L 420.68715 238.024971 
L 420.966098 189.952194 
L 421.523994 251.270321 
L 421.802942 205.180381 
L 422.08189 259.474859 
L 422.360838 253.640912 
L 422.639786 208.678986 
L 422.918734 218.425731 
L 423.197682 218.875174 
L 423.47663 117.142428 
L 423.755578 217.34178 
L 424.034526 226.207264 
L 424.313474 219.879811 
L 424.87137 203.329733 
L 425.150318 202.087156 
L 425.429266 190.798205 
L 425.708214 227.502717 
L 425.987162 248.661789 
L 426.26611 221.950774 
L 426.545058 231.900208 
L 426.824006 124.827022 
L 427.102954 231.750394 
L 427.381902 238.606603 
L 427.660849 203.409047 
L 427.939797 225.396504 
L 428.218745 205.894202 
L 428.497693 201.963779 
L 428.776641 245.744815 
L 429.055589 216.196141 
L 429.334537 204.09643 
L 429.613485 207.198468 
L 430.171381 174.547756 
L 430.450329 211.772212 
L 430.729277 183.48374 
L 431.008225 207.039841 
L 431.287173 191.882156 
L 431.566121 182.902108 
L 431.845069 178.398865 
L 432.124017 149.696201 
L 432.402965 155.618274 
L 432.681913 144.223572 
L 432.960861 184.373814 
L 433.239809 124.148451 
L 433.518757 139.121072 
L 433.797705 101.720364 
L 434.076653 110.788537 
L 434.355601 243.568101 
L 434.634549 223.025912 
L 434.913497 257.888589 
L 435.471393 273.372341 
L 435.750341 259.016603 
L 436.029289 275.619556 
L 436.308237 259.236918 
L 436.587185 296.329185 
L 436.866132 308.517022 
L 437.14508 264.674297 
L 437.424028 311.45162 
L 437.702976 294.593101 
L 437.981924 285.73643 
L 438.260872 313.363956 
L 438.53982 298.074081 
L 439.097716 309.636223 
L 439.376664 248.441473 
L 439.655612 285.674742 
L 439.93456 304.101905 
L 440.213508 277.1177 
L 440.492456 271.891823 
L 440.771404 268.9396 
L 441.050352 229.846871 
L 441.3293 234.552803 
L 441.608248 286.961383 
L 441.887196 228.516167 
L 442.166144 269.538857 
L 442.445092 263.290718 
L 442.72404 304.868602 
L 443.002988 279.62048 
L 443.281936 306.657562 
L 443.560884 306.595873 
L 443.839832 306.92194 
L 444.11878 306.428434 
L 444.397728 298.937717 
L 444.955624 257.395083 
L 445.234572 286.150623 
L 445.792467 224.638619 
L 446.071415 253.376534 
L 446.350363 213.614047 
L 446.629311 267.362143 
L 446.908259 226.048637 
L 447.187207 262.876525 
L 447.466155 241.964207 
L 448.024051 286.291625 
L 448.302999 287.340325 
L 448.581947 255.068555 
L 448.860895 286.846819 
L 449.139843 268.728097 
L 449.418791 266.005001 
L 449.697739 247.604276 
L 449.976687 246.731828 
L 450.255635 251.992954 
L 450.534583 272.068075 
L 451.092479 246.70539 
L 451.371427 252.239708 
L 451.650375 270.138114 
L 451.929323 264.418732 
L 452.208271 206.890027 
L 452.487219 261.8102 
L 452.766167 253.843602 
L 453.045115 238.791668 
L 453.603011 275.857497 
L 453.881959 284.335226 
L 454.160907 276.765195 
L 454.439855 303.546711 
L 454.718802 253.7026 
L 454.99775 241.497138 
L 455.276698 280.854246 
L 455.555646 281.982259 
L 455.834594 293.412212 
L 456.113542 278.607031 
L 456.39249 290.680303 
L 456.671438 270.957687 
L 456.950386 279.638106 
L 457.229334 251.631638 
L 457.508282 196.993468 
L 457.78723 258.152967 
L 458.345126 282.334764 
L 458.624074 283.656655 
L 458.903022 256.94564 
L 459.18197 307.283257 
L 459.460918 264.630234 
L 459.739866 296.011931 
L 460.297762 249.61355 
L 460.57671 274.68542 
L 460.855658 265.511495 
L 461.134606 307.521197 
L 461.413554 289.472976 
L 461.692502 295.139483 
L 461.97145 288.917782 
L 462.250398 299.457661 
L 462.529346 258.144155 
L 463.087242 303.670088 
L 463.36619 294.92798 
L 463.645137 281.902946 
L 463.924085 250.230433 
L 464.481981 279.329664 
L 464.760929 243.338973 
L 465.039877 244.528676 
L 465.597773 229.934997 
L 465.876721 258.787475 
L 466.155669 179.844133 
L 466.434617 260.400182 
L 466.713565 280.457678 
L 466.992513 269.336167 
L 467.271461 250.248058 
L 467.550409 253.156219 
L 467.829357 202.668788 
L 468.108305 216.002264 
L 468.666201 270.746184 
L 469.224097 286.573628 
L 469.503045 275.372803 
L 469.781993 258.223468 
L 470.060941 255.394621 
L 470.339889 275.619556 
L 470.618837 270.42893 
L 470.897785 271.028188 
L 471.176733 259.959552 
L 471.455681 273.037462 
L 471.734629 275.029112 
L 472.013577 297.254509 
L 472.292525 250.864941 
L 472.571473 285.472052 
L 472.85042 277.946085 
L 473.129368 286.811569 
L 473.408316 299.880666 
L 473.687264 289.816668 
L 473.966212 289.948857 
L 474.24516 259.889051 
L 474.524108 265.881625 
L 474.803056 243.62979 
L 475.082004 308.98409 
L 475.360952 256.91039 
L 475.6399 311.116741 
L 475.918848 301.334746 
L 476.197796 256.936828 
L 476.476744 291.729004 
L 476.755692 273.381154 
L 477.03464 263.361219 
L 477.313588 260.074116 
L 477.592536 268.957225 
L 477.871484 219.633058 
L 478.150432 259.968365 
L 478.42938 322.617195 
L 478.708328 201.496711 
L 478.987276 230.701694 
L 479.545172 255.456309 
L 479.82412 257.941465 
L 480.103068 262.471145 
L 480.382016 261.193317 
L 480.660964 273.152026 
L 480.939912 272.261953 
L 481.21886 284.573166 
L 481.497808 232.44659 
L 481.776755 230.393252 
L 482.334651 255.385809 
L 482.892547 220.320442 
L 483.171495 230.516629 
L 483.729391 210.512009 
L 484.008339 208.925739 
L 484.287287 219.271741 
L 484.566235 256.029129 
L 484.845183 258.346845 
L 485.124131 246.767078 
L 485.403079 267.053701 
L 485.682027 233.468853 
L 485.960975 259.54536 
L 486.239923 169.665571 
L 486.518871 199.549125 
L 486.797819 195.609889 
L 487.076767 210.203568 
L 487.355715 207.313032 
L 487.634663 188.912307 
L 487.913611 221.968399 
L 488.192559 221.571832 
L 488.471507 223.193352 
L 488.750455 243.197972 
L 489.029403 227.035649 
L 489.308351 247.762903 
L 489.587299 260.012428 
L 489.866247 224.453555 
L 490.145195 221.210515 
L 490.70309 287.921957 
L 490.982038 274.51798 
L 491.260986 243.145096 
L 491.818882 263.414094 
L 492.376778 279.514729 
L 492.934674 252.292583 
L 493.213622 254.830614 
L 493.49257 266.040252 
L 493.771518 251.191007 
L 494.050466 290.927056 
L 494.329414 255.923378 
L 494.608362 263.537471 
L 494.88731 241.409012 
L 495.166258 256.646011 
L 495.445206 224.26849 
L 496.003102 278.298589 
L 496.28205 282.66083 
L 496.560998 300.779552 
L 496.839946 295.121858 
L 497.67679 223.545856 
L 497.955738 210.98789 
L 498.234686 243.435912 
L 498.513634 237.769405 
L 498.792582 241.047695 
L 499.07153 258.390908 
L 499.350478 203.497173 
L 499.629425 213.08529 
L 499.908373 213.146979 
L 500.187321 229.793995 
L 500.466269 230.631193 
L 500.745217 259.968365 
L 501.024165 275.813434 
L 501.303113 235.213749 
L 501.582061 219.36868 
L 501.861009 294.778166 
L 502.139957 255.174306 
L 502.697853 291.543939 
L 502.976801 285.101923 
L 503.255749 201.690588 
L 503.813645 149.722639 
L 504.092593 139.711517 
L 504.371541 88.131322 
L 504.650489 80.711106 
L 504.929437 158.552872 
L 505.208385 192.904418 
L 505.487333 203.223982 
L 505.766281 186.198024 
L 506.045229 210.194755 
L 506.324177 149.890079 
L 506.603125 146.655852 
L 506.882073 202.333909 
L 507.161021 220.893261 
L 507.439969 225.995761 
L 507.718917 256.381633 
L 507.997865 179.650256 
L 508.276813 225.026374 
L 508.55576 209.40162 
L 508.834708 172.758796 
L 509.113656 230.613568 
L 509.392604 237.443339 
L 509.671552 275.751746 
L 509.9505 293.280023 
L 510.229448 216.187328 
L 510.508396 255.52681 
L 510.787344 263.02634 
L 511.066292 298.937717 
L 511.34524 159.96289 
L 511.624188 123.610882 
L 511.903136 171.745346 
L 512.182084 192.419725 
L 512.461032 140.857156 
L 512.73998 132.546866 
L 513.018928 119.363205 
L 513.297876 67.042751 
L 513.576824 57.586823 
L 513.855772 83.46064 
L 514.13472 136.362726 
L 514.413668 116.269979 
L 514.692616 43.742216 
L 514.971564 43.742216 
L 515.250512 116.437419 
L 515.52946 133.322376 
L 515.808408 107.201806 
L 516.087356 118.499569 
L 516.366304 103.218507 
L 516.645252 183.236987 
L 516.9242 220.311629 
L 517.482096 107.889189 
L 517.761043 163.858062 
L 518.039991 187.255536 
L 518.318939 154.014379 
L 518.597887 223.960049 
L 518.876835 166.457782 
L 519.155783 176.52178 
L 519.434731 123.646132 
L 520.271575 234.165049 
L 520.550523 176.107587 
L 520.829471 244.555113 
L 521.387367 181.844595 
L 521.666315 181.518529 
L 521.945263 185.889582 
L 522.224211 227.493904 
L 522.503159 164.474945 
L 522.782107 64.557596 
L 523.061055 148.621063 
L 523.340003 61.684686 
L 523.618951 158.517622 
L 524.176847 178.398865 
L 524.455795 188.780118 
L 524.734743 194.966568 
L 525.013691 179.165562 
L 525.292639 131.321914 
L 525.571587 129.048261 
L 526.129483 147.986555 
L 526.408431 147.440174 
L 526.687378 152.674863 
L 527.245274 115.794099 
L 527.524222 193.521301 
L 527.80317 121.918861 
L 528.082118 133.930446 
L 528.640014 202.783352 
L 528.918962 180.61083 
L 529.19791 104.972216 
L 529.476858 111.740299 
L 529.755806 101.253295 
L 530.034754 142.452238 
L 530.313702 125.064962 
L 530.871598 182.100161 
L 531.150546 161.593222 
L 531.429494 94.388274 
L 531.708442 124.668395 
L 531.98739 182.390977 
L 532.266338 110.603472 
L 532.545286 154.481447 
L 532.824234 142.064483 
L 533.103182 147.686927 
L 533.38213 161.769474 
L 533.661078 153.626625 
L 533.940026 139.843706 
L 534.497922 211.419707 
L 534.77687 211.543084 
L 535.055818 207.365908 
L 535.334766 273.372341 
L 535.613713 206.079267 
L 535.892661 211.287518 
L 536.171609 242.069958 
L 536.450557 243.568101 
L 536.729505 237.134897 
L 537.287401 171.172527 
L 537.566349 191.371024 
L 537.845297 196.138645 
L 538.124245 193.635865 
L 538.403193 201.399772 
L 538.682141 197.5046 
L 538.961089 203.541236 
L 539.240037 183.386802 
L 539.518985 176.301465 
L 539.797933 188.771305 
L 540.076881 183.994872 
L 540.355829 215.711448 
L 540.634777 221.060701 
L 541.192673 126.078412 
L 541.471621 125.558468 
L 541.750569 156.023654 
L 542.029517 150.595087 
L 542.308465 192.243473 
L 542.587413 194.940131 
L 542.866361 183.659992 
L 543.145309 138.222186 
L 543.424257 190.181322 
L 543.982153 186.330213 
L 544.540048 193.574176 
L 544.818996 120.817285 
L 545.097944 142.064483 
L 545.376892 194.975381 
L 545.934788 209.983252 
L 546.213736 206.08808 
L 546.492684 196.306085 
L 546.771632 165.523645 
L 547.05058 191.917406 
L 547.329528 197.698477 
L 547.608476 226.771271 
L 548.166372 108.814513 
L 548.44532 128.634068 
L 549.003216 141.923481 
L 549.282164 125.435092 
L 549.561112 128.995385 
L 549.84006 144.92858 
L 550.119008 173.472618 
L 550.397956 147.219859 
L 550.676904 140.531089 
L 550.955852 139.746767 
L 551.792696 184.920195 
L 552.071644 188.286612 
L 552.350592 196.773153 
L 552.908488 194.517125 
L 553.187436 195.583451 
L 553.466384 195.980018 
L 553.745331 214.081115 
L 554.303227 125.637782 
L 554.582175 148.065869 
L 554.861123 144.08257 
L 555.419019 197.081594 
L 555.697967 209.031491 
L 555.976915 213.235105 
L 556.255863 204.607562 
L 556.534811 189.846443 
L 556.813759 122.667933 
L 557.092707 131.357164 
L 557.371655 126.730545 
L 557.650603 176.028274 
L 557.929551 202.422035 
L 558.208499 201.46146 
L 558.487447 227.185463 
L 558.766395 222.726283 
L 559.045343 279.911296 
L 559.324291 203.135856 
L 559.603239 176.548218 
L 559.882187 170.802397 
L 560.161135 161.963352 
L 560.440083 171.868723 
L 560.719031 211.657648 
L 561.276927 170.529207 
L 561.555875 197.74254 
L 561.834823 250.203995 
L 562.113771 207.639099 
L 562.392719 219.923874 
L 562.671666 170.115014 
L 562.950614 180.452203 
L 563.229562 242.114021 
L 563.50851 227.079712 
L 563.787458 116.287605 
L 564.066406 204.202182 
L 564.345354 187.414163 
L 564.624302 136.838606 
L 564.90325 150.815403 
L 565.182198 146.761603 
L 565.461146 148.955942 
L 565.740094 181.615467 
L 566.019042 101.834928 
L 566.29799 130.731469 
L 566.576938 132.899371 
L 566.855886 192.710541 
L 567.134834 159.680886 
L 567.413782 182.108973 
L 567.69273 170.740709 
L 567.971678 191.203585 
L 568.250626 166.880787 
L 568.529574 165.417894 
L 568.808522 238.298162 
L 569.08747 128.087687 
L 569.366418 161.337656 
L 569.645366 155.882652 
L 569.924314 179.403503 
L 570.203262 175.367328 
L 570.761158 87.699504 
L 571.040106 85.099785 
L 571.319054 68.285329 
L 571.598001 173.772246 
L 571.876949 157.345545 
L 572.155897 147.863179 
L 572.434845 128.263939 
L 572.713793 119.856711 
L 572.992741 133.815882 
L 573.271689 156.261594 
L 573.550637 149.458261 
L 573.829585 152.657238 
L 574.108533 171.075588 
L 574.387481 150.480523 
L 574.666429 190.357574 
L 575.224325 121.213852 
L 575.503273 164.369194 
L 575.782221 176.054712 
L 576.061169 136.882669 
L 576.340117 202.651163 
L 576.898013 145.651214 
L 577.176961 74.850722 
L 577.455909 95.657289 
L 577.734857 98.19532 
L 578.013805 116.71061 
L 578.292753 108.356257 
L 578.571701 120.614595 
L 579.129597 162.915113 
L 579.408545 172.67067 
L 579.687493 164.712885 
L 579.966441 164.730511 
L 580.245389 206.193831 
L 580.524336 170.916961 
L 580.803284 203.594112 
L 581.082232 217.650221 
L 581.640128 135.90447 
L 581.919076 113.476383 
L 582.198024 130.705031 
L 582.476972 162.562609 
L 582.75592 106.576111 
L 583.034868 120.552907 
L 583.592764 201.487898 
L 583.871712 93.965269 
L 584.15066 82.429565 
L 584.429608 43.742216 
L 584.708556 85.637354 
L 584.987504 178.354802 
L 585.266452 125.047337 
L 585.5454 151.167907 
L 586.103296 175.922523 
L 586.661192 120.861348 
L 586.94014 144.012069 
L 587.219088 144.073757 
L 587.498036 135.578403 
L 587.776984 115.69716 
L 588.055932 109.00839 
L 588.33488 185.457764 
L 588.613828 205.233257 
L 588.892776 158.808438 
L 589.171724 88.210636 
L 589.450671 89.00377 
L 590.008567 189.317687 
L 590.287515 184.171124 
L 590.566463 86.862307 
L 590.845411 65.174478 
L 591.124359 94.855342 
L 591.403307 155.318645 
L 591.961203 43.742216 
L 592.240151 133.463378 
L 592.798047 43.742216 
L 593.076995 91.84143 
L 593.355943 90.38735 
L 593.634891 137.869681 
L 593.913839 43.742216 
L 594.192787 68.250079 
L 594.471735 115.08909 
L 594.750683 43.742216 
L 595.029631 78.455079 
L 595.587527 110.145217 
L 595.866475 145.660027 
L 596.145423 49.576162 
L 596.424371 43.742216 
L 596.703319 107.31637 
L 596.982267 43.742216 
L 597.261215 46.56225 
L 597.540163 72.427255 
L 597.819111 81.23105 
L 598.098059 138.609941 
L 598.655954 70.523731 
L 598.934902 111.916551 
L 599.21385 54.731538 
L 599.492798 86.077985 
L 599.771746 159.575135 
L 600.050694 88.774643 
L 600.329642 50.096106 
L 600.60859 134.987959 
L 600.887538 137.455489 
L 601.166486 47.655014 
L 601.445434 79.644781 
L 601.724382 56.388308 
L 602.00333 101.209232 
L 602.282278 64.619284 
L 602.840174 43.742216 
L 603.677018 43.742216 
L 603.955966 81.768619 
L 604.79281 131.788982 
L 605.071758 164.007877 
L 605.350706 143.333498 
L 605.908602 157.248606 
L 606.466498 130.39659 
L 606.745446 116.94855 
L 607.024394 119.001888 
L 607.303342 96.468049 
L 607.582289 104.179081 
L 607.861237 139.658641 
L 608.140185 151.132656 
L 608.977029 122.905873 
L 609.255977 143.84463 
L 609.534925 128.149375 
L 609.813873 120.050588 
L 610.092821 93.621577 
L 610.371769 91.409612 
L 610.650717 98.741702 
L 610.929665 118.834448 
L 611.208613 99.050143 
L 611.487561 102.187432 
L 611.766509 107.325182 
L 612.045457 105.474535 
L 612.324405 98.098382 
L 612.603353 99.702276 
L 612.882301 121.064038 
L 613.161249 121.531106 
L 613.440197 131.551042 
L 613.719145 298.285584 
L 613.998093 298.285584 
L 614.277041 371.518356 
L 614.555989 174.142376 
L 614.834937 123.610882 
L 615.113885 122.650308 
L 615.392833 137.429051 
L 615.671781 110.383157 
L 615.950729 124.782959 
L 616.229677 123.84001 
L 616.508624 118.323317 
L 616.787572 105.89754 
L 617.06652 131.427665 
L 617.624416 69.193028 
L 617.903364 85.293662 
L 618.182312 119.037138 
L 618.46126 104.496335 
L 618.740208 141.570977 
L 619.019156 139.103447 
L 619.298104 192.463788 
L 619.856 102.152181 
L 620.413896 161.029215 
L 620.692844 93.762579 
L 620.971792 55.172168 
L 621.25074 86.862307 
L 621.529688 86.862307 
L 621.808636 186.127523 
L 622.366532 120.500031 
L 622.64548 150.885903 
L 622.924428 99.164707 
L 623.203376 109.54596 
L 623.482324 169.489319 
L 623.761272 194.173434 
L 624.04022 130.405403 
L 624.319168 105.148468 
L 624.598116 190.78058 
L 624.877064 152.762989 
L 625.156012 66.804811 
L 625.434959 146.012531 
L 625.713907 112.938814 
L 625.992855 114.798274 
L 626.271803 160.43877 
L 626.550751 87.770005 
L 626.829699 132.432302 
L 627.108647 130.449466 
L 627.387595 135.631279 
L 627.666543 202.254595 
L 627.945491 224.400679 
L 628.224439 160.60621 
L 628.503387 147.669302 
L 628.782335 180.928084 
L 629.061283 143.738878 
L 629.340231 129.982397 
L 629.898127 195.019444 
L 630.177075 178.460554 
L 630.456023 213.525921 
L 630.734971 214.574621 
L 631.013919 170.529207 
L 631.292867 196.905342 
L 631.571815 171.683658 
L 631.850763 161.584409 
L 632.129711 143.835817 
L 632.408659 137.314487 
L 632.687607 118.12944 
L 632.966555 113.529258 
L 633.245503 189.458688 
L 633.524451 192.410912 
L 633.803399 147.642864 
L 634.082347 139.314949 
L 634.361295 142.4258 
L 634.640242 97.34931 
L 634.91919 119.95365 
L 635.198138 165.259267 
L 635.477086 116.604858 
L 635.756034 143.262998 
L 636.034982 56.846564 
L 636.31393 98.583075 
L 636.871826 154.093693 
L 637.150774 199.822315 
L 637.70867 125.250027 
L 637.987618 169.718447 
L 638.266566 94.159146 
L 638.545514 106.963865 
L 638.824462 174.768071 
L 639.10341 209.049116 
L 639.382358 104.734276 
L 639.661306 70.717609 
L 639.940254 83.443015 
L 640.219202 109.554772 
L 640.49815 122.103926 
L 640.777098 67.298317 
L 641.056046 217.905787 
L 641.334994 122.800122 
L 641.613942 130.696219 
L 641.89289 216.53102 
L 642.171838 230.983697 
L 642.450786 203.514798 
L 642.729734 158.905377 
L 643.008682 196.5264 
L 643.28763 128.545942 
L 643.845525 216.883524 
L 644.124473 164.536633 
L 644.403421 163.064928 
L 644.961317 123.082125 
L 645.240265 158.006491 
L 645.519213 143.782941 
L 645.798161 149.237946 
L 646.077109 140.539902 
L 646.356057 143.897505 
L 646.635005 156.578848 
L 646.913953 131.172099 
L 647.192901 190.604327 
L 647.471849 139.253261 
L 647.750797 160.720774 
L 648.029745 143.060308 
L 648.308693 136.248162 
L 648.866589 157.583485 
L 649.145537 129.524142 
L 649.424485 133.348814 
L 649.703433 105.518598 
L 649.982381 59.886914 
L 650.261329 150.577462 
L 650.540277 62.416132 
L 650.819225 43.742216 
L 651.098173 112.515808 
L 651.377121 105.500972 
L 651.656069 105.571473 
L 652.213965 131.586292 
L 652.492912 119.063576 
L 653.050808 70.171227 
L 653.329756 102.566374 
L 653.608704 162.298231 
L 653.887652 125.725908 
L 654.1666 128.77507 
L 654.445548 147.263922 
L 654.724496 121.698546 
L 655.003444 79.97966 
L 655.282392 89.788092 
L 655.56134 158.861314 
L 655.840288 63.297393 
L 656.119236 76.53393 
L 656.398184 77.78532 
L 656.677132 98.56545 
L 657.235028 110.691599 
L 657.513976 83.081698 
L 657.792924 142.275985 
L 658.071872 106.496797 
L 658.35082 104.020454 
L 658.629768 111.149854 
L 658.908716 143.589064 
L 659.187664 79.477341 
L 659.466612 68.082639 
L 659.74556 80.499604 
L 660.024508 125.100213 
L 660.582404 63.112328 
L 660.861352 85.795981 
L 661.419247 99.869716 
L 661.698195 97.834004 
L 661.977143 58.362333 
L 662.256091 58.706024 
L 662.535039 45.178671 
L 662.813987 105.985666 
L 663.092935 43.742216 
L 663.371883 43.742216 
L 663.650831 63.738023 
L 663.929779 43.742216 
L 664.208727 62.213442 
L 664.487675 48.950467 
L 664.766623 77.142 
L 665.045571 69.439781 
L 665.324519 43.742216 
L 665.603467 48.712527 
L 665.882415 43.742216 
L 666.161363 48.774215 
L 666.719259 73.132263 
L 667.277155 60.450921 
L 667.556103 135.349276 
L 667.835051 133.454565 
L 668.113999 82.561754 
L 668.392947 133.736568 
L 668.671895 127.453179 
L 668.950843 87.673067 
L 669.229791 78.499142 
L 669.508739 93.63039 
L 669.787687 75.608606 
L 670.066635 43.742216 
L 670.345582 43.742216 
L 670.903478 104.143831 
L 671.182426 59.463909 
L 671.461374 77.935135 
L 671.740322 43.742216 
L 672.01927 43.742216 
L 672.298218 72.07475 
L 672.577166 47.769578 
L 672.856114 43.742216 
L 674.80875 43.742216 
L 674.80875 43.742216 
" clip-path="url(#p5ab066db46)" style="fill: none; stroke: #2878b5; stroke-width: 1.5; stroke-linecap: square"/>
   </g>
   <g id="patch_3">
    <path d="M 33.075 392.44125 
L 33.075 27.1375 
" style="fill: none; stroke: #000000; stroke-width: 0.8; stroke-linejoin: miter; stroke-linecap: square"/>
   </g>
   <g id="patch_4">
    <path d="M 705.3675 392.44125 
L 705.3675 27.1375 
" style="fill: none; stroke: #000000; stroke-width: 0.8; stroke-linejoin: miter; stroke-linecap: square"/>
   </g>
   <g id="patch_5">
    <path d="M 33.075 392.44125 
L 705.3675 392.44125 
" style="fill: none; stroke: #000000; stroke-width: 0.8; stroke-linejoin: miter; stroke-linecap: square"/>
   </g>
   <g id="patch_6">
    <path d="M 33.075 27.1375 
L 705.3675 27.1375 
" style="fill: none; stroke: #000000; stroke-width: 0.8; stroke-linejoin: miter; stroke-linecap: square"/>
   </g>
   <g id="text_16">
    <!-- 原始 TN_mg/L 时间序列数据 -->
    <g transform="translate(294.22125 17.1375) scale(0.12 -0.12)">
     <defs>
      <path id="SimHei-539f" d="M 3850 4275 
Q 3675 4025 3600 3700 
L 5450 3700 
Q 5425 3475 5425 3000 
L 5425 2225 
Q 5425 1825 5450 1475 
L 4050 1475 
L 4050 -50 
Q 4050 -400 3825 -487 
Q 3600 -575 3100 -625 
Q 3050 -325 2925 -50 
Q 3400 -75 3475 -37 
Q 3550 0 3550 175 
L 3550 1475 
L 2125 1475 
Q 2150 1775 2150 2200 
L 2150 3025 
Q 2150 3425 2125 3700 
L 3150 3700 
Q 3300 4250 3300 4425 
L 3850 4275 
z
M 275 -325 
Q 725 275 875 1037 
Q 1025 1800 1025 2300 
L 1025 4125 
Q 1025 4650 1000 4900 
L 5025 4900 
Q 5575 4900 5800 4925 
L 5800 4475 
Q 5600 4500 5025 4500 
L 1525 4500 
L 1525 2375 
Q 1500 1650 1412 1112 
Q 1325 575 1137 125 
Q 950 -325 800 -575 
Q 550 -400 275 -325 
z
M 4925 2775 
L 4925 3325 
L 2625 3325 
L 2625 2775 
L 4925 2775 
z
M 4925 1875 
L 4925 2400 
L 2625 2400 
L 2625 1875 
L 4925 1875 
z
M 1475 -50 
Q 1800 150 2087 450 
Q 2375 750 2575 1100 
Q 2800 875 2975 750 
Q 2300 -50 1825 -400 
Q 1675 -225 1475 -50 
z
M 4825 1075 
Q 5700 300 5925 25 
Q 5750 -125 5575 -325 
Q 5250 75 4500 725 
Q 4675 925 4825 1075 
z
" transform="scale(0.015625)"/>
      <path id="SimHei-59cb" d="M 1750 5075 
Q 1650 4900 1587 4587 
Q 1525 4275 1475 3875 
L 2550 3875 
Q 2400 2150 1950 1100 
Q 2275 850 2725 425 
Q 2550 275 2375 50 
Q 2000 500 1750 675 
Q 1525 275 1250 -62 
Q 975 -400 700 -675 
Q 600 -525 250 -350 
Q 575 -125 862 200 
Q 1150 525 1375 975 
Q 800 1400 500 1550 
Q 875 2925 950 3425 
Q 650 3425 325 3400 
L 325 3900 
Q 675 3875 1025 3875 
Q 1175 4825 1175 5225 
Q 1550 5125 1750 5075 
z
M 5725 2050 
Q 5700 1650 5700 650 
Q 5700 -325 5725 -650 
L 5200 -650 
L 5200 -100 
L 3450 -100 
L 3450 -675 
L 2950 -675 
Q 2975 -300 2975 675 
Q 2975 1650 2950 2050 
L 5725 2050 
z
M 4400 4950 
Q 3750 3875 3250 3150 
Q 3875 3150 4250 3175 
Q 4625 3200 5200 3225 
Q 4875 3675 4625 3900 
Q 4825 4000 5025 4225 
Q 5750 3300 6125 2850 
Q 6000 2775 5725 2550 
Q 5575 2775 5450 2875 
Q 4575 2825 3937 2762 
Q 3300 2700 2825 2575 
Q 2775 2800 2600 3100 
Q 2875 3225 3237 3850 
Q 3600 4475 3825 5200 
Q 4025 5050 4400 4950 
z
M 5200 325 
L 5200 1600 
L 3450 1600 
L 3450 325 
L 5200 325 
z
M 1025 1775 
Q 1300 1550 1575 1400 
Q 1725 1725 1875 2337 
Q 2025 2950 2050 3425 
L 1400 3425 
Q 1300 2950 1025 1775 
z
" transform="scale(0.015625)"/>
      <path id="SimHei-5217" d="M 2950 4800 
Q 3525 4800 3825 4825 
L 3825 4400 
Q 3525 4425 2800 4425 
L 2125 4425 
Q 2075 4125 1925 3500 
L 3425 3500 
Q 3300 2500 3100 1862 
Q 2900 1225 2575 762 
Q 2250 300 1850 -12 
Q 1450 -325 925 -675 
Q 725 -375 475 -150 
Q 1125 125 1550 437 
Q 1975 750 2250 1225 
Q 2100 1350 1862 1550 
Q 1625 1750 1400 1925 
L 1750 2325 
Q 1925 2200 2100 2037 
Q 2275 1875 2500 1650 
Q 2650 2025 2737 2337 
Q 2825 2650 2875 3100 
L 1775 3100 
Q 1600 2650 1350 2237 
Q 1100 1825 775 1525 
Q 600 1675 325 1850 
Q 600 2125 825 2462 
Q 1050 2800 1200 3125 
Q 1350 3450 1425 3775 
Q 1500 4100 1550 4425 
L 1100 4425 
Q 575 4425 375 4400 
L 375 4825 
Q 575 4800 1125 4800 
L 2950 4800 
z
M 5975 5050 
Q 5925 4675 5925 4250 
L 5925 50 
Q 5925 -275 5737 -400 
Q 5550 -525 4900 -625 
Q 4825 -250 4650 25 
Q 5150 0 5287 25 
Q 5425 50 5425 325 
L 5425 4250 
Q 5425 4650 5400 5050 
L 5975 5050 
z
M 4725 4300 
Q 4675 4000 4675 3450 
L 4675 1650 
Q 4675 1200 4700 850 
L 4100 850 
Q 4150 1200 4150 1650 
L 4150 3550 
Q 4150 3975 4100 4300 
L 4725 4300 
z
" transform="scale(0.015625)"/>
      <path id="SimHei-6570" d="M 4525 4925 
Q 4475 4800 4400 4587 
Q 4325 4375 4175 3825 
L 5325 3825 
Q 5575 3825 5925 3850 
L 5925 3400 
Q 5650 3425 5500 3425 
Q 5500 3025 5362 2162 
Q 5225 1300 4875 675 
Q 5125 375 5437 137 
Q 5750 -100 6025 -200 
Q 5725 -425 5625 -625 
Q 5325 -450 5075 -225 
Q 4825 0 4575 325 
Q 4300 25 3987 -187 
Q 3675 -400 3200 -650 
Q 3075 -425 2850 -300 
Q 3225 -150 3650 125 
Q 4075 400 4300 675 
Q 4125 1025 3962 1425 
Q 3800 1825 3675 2475 
Q 3600 2275 3425 1950 
Q 3250 2050 3000 2150 
Q 3400 2850 3650 3675 
Q 3900 4500 3975 5100 
Q 4275 4975 4525 4925 
z
M 2100 2250 
Q 2000 2150 1875 1925 
L 3250 1925 
Q 3100 1300 2725 675 
Q 3125 525 3350 400 
Q 3225 225 3125 25 
Q 2900 175 2450 325 
Q 1950 -225 725 -650 
Q 600 -375 400 -275 
Q 1575 0 2000 475 
Q 1300 650 850 775 
Q 1000 1000 1250 1525 
Q 1000 1525 425 1500 
L 425 1950 
Q 900 1925 1400 1925 
Q 1500 2150 1550 2425 
Q 1825 2325 2100 2250 
z
M 1775 3950 
Q 1775 4550 1750 5100 
L 2250 5100 
Q 2225 4575 2225 3950 
Q 3075 3950 3425 3975 
L 3425 3525 
Q 3075 3550 2225 3550 
Q 2225 2825 2250 2425 
L 1750 2425 
Q 1775 2775 1775 3300 
Q 1650 3100 1300 2787 
Q 950 2475 650 2300 
Q 525 2525 275 2625 
Q 500 2700 875 2975 
Q 1250 3250 1450 3550 
Q 950 3550 500 3525 
L 500 3975 
Q 925 3950 1775 3950 
z
M 3975 3175 
Q 4200 1700 4600 1125 
Q 4850 1700 4937 2287 
Q 5025 2875 5050 3425 
L 4075 3425 
L 3975 3175 
z
M 1450 1000 
Q 1750 925 2275 800 
Q 2475 1050 2650 1525 
L 1725 1525 
Q 1600 1275 1450 1000 
z
M 3325 4825 
Q 3200 4625 3125 4450 
Q 3050 4275 2925 4025 
Q 2725 4125 2525 4175 
Q 2725 4500 2900 5000 
Q 3150 4875 3325 4825 
z
M 2575 3375 
Q 2900 3050 3200 2725 
Q 3050 2600 2875 2425 
Q 2525 2850 2300 3100 
Q 2450 3225 2575 3375 
z
M 925 5000 
Q 1275 4650 1500 4300 
L 1125 4075 
Q 950 4425 600 4725 
Q 825 4875 925 5000 
z
" transform="scale(0.015625)"/>
      <path id="SimHei-636e" d="M 5750 4775 
Q 5725 4550 5725 4225 
L 5725 3900 
Q 5725 3450 5750 3250 
L 3100 3250 
L 3100 2500 
L 4250 2500 
Q 4250 2725 4225 3175 
L 4700 3175 
Q 4675 2775 4675 2500 
L 5350 2500 
Q 5800 2500 6100 2525 
L 6100 2075 
Q 5800 2100 5375 2100 
L 4675 2100 
L 4675 1425 
L 5775 1425 
Q 5750 950 5750 800 
L 5750 175 
Q 5750 -225 5775 -575 
L 5325 -575 
L 5325 -225 
L 3675 -225 
L 3675 -600 
L 3225 -600 
Q 3250 -325 3250 100 
L 3250 825 
Q 3250 1075 3225 1425 
L 4250 1425 
L 4250 2100 
L 3075 2100 
Q 3050 1375 2887 737 
Q 2725 100 2425 -475 
Q 2200 -325 1950 -250 
Q 2250 150 2387 600 
Q 2525 1050 2600 1562 
Q 2675 2075 2675 2625 
L 2675 3575 
Q 2675 3975 2650 4775 
L 5750 4775 
z
M 1275 4425 
Q 1275 4775 1250 5075 
L 1750 5075 
Q 1725 4800 1725 4425 
L 1725 3775 
Q 1975 3775 2500 3800 
L 2500 3375 
Q 1975 3400 1725 3400 
L 1725 2450 
Q 2050 2625 2400 2850 
Q 2425 2650 2525 2475 
Q 2050 2200 1725 2000 
L 1725 175 
Q 1725 -300 1487 -400 
Q 1250 -500 775 -575 
Q 725 -325 600 -50 
Q 1025 -50 1150 -12 
Q 1275 25 1275 325 
L 1275 1800 
Q 900 1600 525 1325 
Q 450 1525 275 1800 
Q 775 1975 1275 2250 
L 1275 3400 
Q 800 3400 350 3375 
L 350 3800 
Q 800 3775 1275 3775 
L 1275 4425 
z
M 5300 3625 
L 5300 4400 
L 3100 4400 
L 3100 3625 
L 5300 3625 
z
M 5325 150 
L 5325 1075 
L 3675 1075 
L 3675 150 
L 5325 150 
z
" transform="scale(0.015625)"/>
     </defs>
     <use xlink:href="#SimHei-539f"/>
     <use xlink:href="#SimHei-59cb" transform="translate(100 0)"/>
     <use xlink:href="#SimHei-20" transform="translate(200 0)"/>
     <use xlink:href="#SimHei-54" transform="translate(250 0)"/>
     <use xlink:href="#SimHei-4e" transform="translate(300 0)"/>
     <use xlink:href="#SimHei-5f" transform="translate(350 0)"/>
     <use xlink:href="#SimHei-6d" transform="translate(400 0)"/>
     <use xlink:href="#SimHei-67" transform="translate(450 0)"/>
     <use xlink:href="#SimHei-2f" transform="translate(500 0)"/>
     <use xlink:href="#SimHei-4c" transform="translate(550 0)"/>
     <use xlink:href="#SimHei-20" transform="translate(600 0)"/>
     <use xlink:href="#SimHei-65f6" transform="translate(650 0)"/>
     <use xlink:href="#SimHei-95f4" transform="translate(750 0)"/>
     <use xlink:href="#SimHei-5e8f" transform="translate(850 0)"/>
     <use xlink:href="#SimHei-5217" transform="translate(950 0)"/>
     <use xlink:href="#SimHei-6570" transform="translate(1050 0)"/>
     <use xlink:href="#SimHei-636e" transform="translate(1150 0)"/>
    </g>
   </g>
   <g id="legend_1">
    <g id="patch_7">
     <path d="M 39.375 387.94125 
L 135.675 387.94125 
Q 137.475 387.94125 137.475 386.14125 
L 137.475 373.998281 
Q 137.475 372.198281 135.675 372.198281 
L 39.375 372.198281 
Q 37.575 372.198281 37.575 373.998281 
L 37.575 386.14125 
Q 37.575 387.94125 39.375 387.94125 
z
" style="fill: #ffffff; opacity: 0.8; stroke: #cccccc; stroke-width: 0.5; stroke-linejoin: miter"/>
    </g>
    <g id="line2d_28">
     <path d="M 41.175 379.995937 
L 50.175 379.995937 
L 59.175 379.995937 
" style="fill: none; stroke: #2878b5; stroke-width: 1.5; stroke-linecap: square"/>
    </g>
    <g id="text_17">
     <!-- 原始 TN_mg/L 值 -->
     <g transform="translate(66.375 383.145937) scale(0.09 -0.09)">
      <use xlink:href="#SimHei-539f"/>
      <use xlink:href="#SimHei-59cb" transform="translate(100 0)"/>
      <use xlink:href="#SimHei-20" transform="translate(200 0)"/>
      <use xlink:href="#SimHei-54" transform="translate(250 0)"/>
      <use xlink:href="#SimHei-4e" transform="translate(300 0)"/>
      <use xlink:href="#SimHei-5f" transform="translate(350 0)"/>
      <use xlink:href="#SimHei-6d" transform="translate(400 0)"/>
      <use xlink:href="#SimHei-67" transform="translate(450 0)"/>
      <use xlink:href="#SimHei-2f" transform="translate(500 0)"/>
      <use xlink:href="#SimHei-4c" transform="translate(550 0)"/>
      <use xlink:href="#SimHei-20" transform="translate(600 0)"/>
      <use xlink:href="#SimHei-503c" transform="translate(650 0)"/>
     </g>
    </g>
   </g>
  </g>
 </g>
 <defs>
  <clipPath id="p5ab066db46">
   <rect x="33.075" y="27.1375" width="672.2925" height="365.30375"/>
  </clipPath>
 </defs>
</svg>
