<?xml version="1.0" encoding="utf-8" standalone="no"?>
<!DOCTYPE svg PUBLIC "-//W3C//DTD SVG 1.1//EN"
  "http://www.w3.org/Graphics/SVG/1.1/DTD/svg11.dtd">
<svg xmlns:xlink="http://www.w3.org/1999/xlink" width="712.92625pt" height="423.989062pt" viewBox="0 0 712.92625 423.989062" xmlns="http://www.w3.org/2000/svg" version="1.1">
 <metadata>
  <rdf:RDF xmlns:dc="http://purl.org/dc/elements/1.1/" xmlns:cc="http://creativecommons.org/ns#" xmlns:rdf="http://www.w3.org/1999/02/22-rdf-syntax-ns#">
   <cc:Work>
    <dc:type rdf:resource="http://purl.org/dc/dcmitype/StillImage"/>
    <dc:date>2025-04-23T00:29:10.908969</dc:date>
    <dc:format>image/svg+xml</dc:format>
    <dc:creator>
     <cc:Agent>
      <dc:title>Matplotlib v3.10.0, https://matplotlib.org/</dc:title>
     </cc:Agent>
    </dc:creator>
   </cc:Work>
  </rdf:RDF>
 </metadata>
 <defs>
  <style type="text/css">*{stroke-linejoin: round; stroke-linecap: butt}</style>
 </defs>
 <g id="figure_1">
  <g id="patch_1">
   <path d="M 0 423.989062 
L 712.92625 423.989062 
L 712.92625 0 
L 0 0 
z
" style="fill: #ffffff"/>
  </g>
  <g id="axes_1">
   <g id="patch_2">
    <path d="M 37.73125 392.71875 
L 705.72625 392.71875 
L 705.72625 27.04375 
L 37.73125 27.04375 
z
" style="fill: #ffffff"/>
   </g>
   <g id="matplotlib.axis_1">
    <g id="xtick_1">
     <g id="line2d_1">
      <path d="M 67.817494 392.71875 
L 67.817494 27.04375 
" clip-path="url(#pc5aaaf71ef)" style="fill: none; stroke-dasharray: 1.85,0.8; stroke-dashoffset: 0; stroke: #b2b2b2; stroke-opacity: 0.3; stroke-width: 0.5"/>
     </g>
     <g id="line2d_2">
      <defs>
       <path id="md0ec3d1917" d="M 0 0 
L 0 -3.5 
" style="stroke: #000000; stroke-width: 0.8"/>
      </defs>
      <g>
       <use xlink:href="#md0ec3d1917" x="67.817494" y="392.71875" style="stroke: #000000; stroke-width: 0.8"/>
      </g>
     </g>
     <g id="text_1">
      <!-- 0 -->
      <g transform="translate(65.567494 402.40625) scale(0.09 -0.09)">
       <defs>
        <path id="SimHei-30" d="M 225 2537 
Q 250 3200 412 3587 
Q 575 3975 875 4225 
Q 1175 4475 1612 4475 
Q 2050 4475 2375 4112 
Q 2700 3750 2800 3200 
Q 2900 2650 2862 1937 
Q 2825 1225 2612 775 
Q 2400 325 1975 150 
Q 1550 -25 1125 187 
Q 700 400 525 750 
Q 350 1100 275 1487 
Q 200 1875 225 2537 
z
M 750 2687 
Q 675 2000 800 1462 
Q 925 925 1212 700 
Q 1500 475 1800 612 
Q 2100 750 2237 1162 
Q 2375 1575 2375 2062 
Q 2375 2550 2337 2950 
Q 2300 3350 2112 3675 
Q 1925 4000 1612 4012 
Q 1300 4025 1062 3700 
Q 825 3375 750 2687 
z
" transform="scale(0.015625)"/>
       </defs>
       <use xlink:href="#SimHei-30"/>
      </g>
     </g>
    </g>
    <g id="xtick_2">
     <g id="line2d_3">
      <path d="M 206.399918 392.71875 
L 206.399918 27.04375 
" clip-path="url(#pc5aaaf71ef)" style="fill: none; stroke-dasharray: 1.85,0.8; stroke-dashoffset: 0; stroke: #b2b2b2; stroke-opacity: 0.3; stroke-width: 0.5"/>
     </g>
     <g id="line2d_4">
      <g>
       <use xlink:href="#md0ec3d1917" x="206.399918" y="392.71875" style="stroke: #000000; stroke-width: 0.8"/>
      </g>
     </g>
     <g id="text_2">
      <!-- 500 -->
      <g transform="translate(199.649918 402.40625) scale(0.09 -0.09)">
       <defs>
        <path id="SimHei-35" d="M 550 1325 
Q 725 650 1150 575 
Q 1575 500 1837 662 
Q 2100 825 2212 1087 
Q 2325 1350 2312 1675 
Q 2300 2000 2137 2225 
Q 1975 2450 1725 2525 
Q 1475 2600 1162 2525 
Q 850 2450 650 2175 
L 225 2225 
Q 275 2375 700 4375 
L 2675 4375 
L 2675 3925 
L 1075 3925 
Q 950 3250 825 2850 
Q 1200 3025 1525 3012 
Q 1850 3000 2150 2862 
Q 2450 2725 2587 2487 
Q 2725 2250 2787 2012 
Q 2850 1775 2837 1500 
Q 2825 1225 2725 937 
Q 2625 650 2425 462 
Q 2225 275 1937 162 
Q 1650 50 1275 75 
Q 900 100 562 350 
Q 225 600 100 1200 
L 550 1325 
z
" transform="scale(0.015625)"/>
       </defs>
       <use xlink:href="#SimHei-35"/>
       <use xlink:href="#SimHei-30" transform="translate(50 0)"/>
       <use xlink:href="#SimHei-30" transform="translate(100 0)"/>
      </g>
     </g>
    </g>
    <g id="xtick_3">
     <g id="line2d_5">
      <path d="M 344.982342 392.71875 
L 344.982342 27.04375 
" clip-path="url(#pc5aaaf71ef)" style="fill: none; stroke-dasharray: 1.85,0.8; stroke-dashoffset: 0; stroke: #b2b2b2; stroke-opacity: 0.3; stroke-width: 0.5"/>
     </g>
     <g id="line2d_6">
      <g>
       <use xlink:href="#md0ec3d1917" x="344.982342" y="392.71875" style="stroke: #000000; stroke-width: 0.8"/>
      </g>
     </g>
     <g id="text_3">
      <!-- 1000 -->
      <g transform="translate(335.982342 402.40625) scale(0.09 -0.09)">
       <defs>
        <path id="SimHei-31" d="M 1400 3600 
Q 1075 3275 575 2975 
L 575 3450 
Q 1200 3875 1600 4450 
L 1900 4450 
L 1900 150 
L 1400 150 
L 1400 3600 
z
" transform="scale(0.015625)"/>
       </defs>
       <use xlink:href="#SimHei-31"/>
       <use xlink:href="#SimHei-30" transform="translate(50 0)"/>
       <use xlink:href="#SimHei-30" transform="translate(100 0)"/>
       <use xlink:href="#SimHei-30" transform="translate(150 0)"/>
      </g>
     </g>
    </g>
    <g id="xtick_4">
     <g id="line2d_7">
      <path d="M 483.564766 392.71875 
L 483.564766 27.04375 
" clip-path="url(#pc5aaaf71ef)" style="fill: none; stroke-dasharray: 1.85,0.8; stroke-dashoffset: 0; stroke: #b2b2b2; stroke-opacity: 0.3; stroke-width: 0.5"/>
     </g>
     <g id="line2d_8">
      <g>
       <use xlink:href="#md0ec3d1917" x="483.564766" y="392.71875" style="stroke: #000000; stroke-width: 0.8"/>
      </g>
     </g>
     <g id="text_4">
      <!-- 1500 -->
      <g transform="translate(474.564766 402.40625) scale(0.09 -0.09)">
       <use xlink:href="#SimHei-31"/>
       <use xlink:href="#SimHei-35" transform="translate(50 0)"/>
       <use xlink:href="#SimHei-30" transform="translate(100 0)"/>
       <use xlink:href="#SimHei-30" transform="translate(150 0)"/>
      </g>
     </g>
    </g>
    <g id="xtick_5">
     <g id="line2d_9">
      <path d="M 622.14719 392.71875 
L 622.14719 27.04375 
" clip-path="url(#pc5aaaf71ef)" style="fill: none; stroke-dasharray: 1.85,0.8; stroke-dashoffset: 0; stroke: #b2b2b2; stroke-opacity: 0.3; stroke-width: 0.5"/>
     </g>
     <g id="line2d_10">
      <g>
       <use xlink:href="#md0ec3d1917" x="622.14719" y="392.71875" style="stroke: #000000; stroke-width: 0.8"/>
      </g>
     </g>
     <g id="text_5">
      <!-- 2000 -->
      <g transform="translate(613.14719 402.40625) scale(0.09 -0.09)">
       <defs>
        <path id="SimHei-32" d="M 300 250 
Q 325 625 650 925 
Q 975 1225 1475 1862 
Q 1975 2500 2125 2850 
Q 2275 3200 2237 3450 
Q 2200 3700 2000 3862 
Q 1800 4025 1537 4000 
Q 1275 3975 1037 3800 
Q 800 3625 675 3275 
L 200 3350 
Q 400 3925 712 4187 
Q 1025 4450 1450 4475 
Q 1700 4500 1900 4462 
Q 2100 4425 2312 4287 
Q 2525 4150 2662 3875 
Q 2800 3600 2762 3212 
Q 2725 2825 2375 2287 
Q 2025 1750 1025 600 
L 2825 600 
L 2825 150 
L 300 150 
L 300 250 
z
" transform="scale(0.015625)"/>
       </defs>
       <use xlink:href="#SimHei-32"/>
       <use xlink:href="#SimHei-30" transform="translate(50 0)"/>
       <use xlink:href="#SimHei-30" transform="translate(100 0)"/>
       <use xlink:href="#SimHei-30" transform="translate(150 0)"/>
      </g>
     </g>
    </g>
    <g id="text_6">
     <!-- 时间 / 序号 -->
     <g transform="translate(344.22875 415.539062) scale(0.1 -0.1)">
      <defs>
       <path id="SimHei-65f6" d="M 2525 4575 
Q 2500 3675 2500 2400 
Q 2500 1125 2525 400 
L 2000 400 
L 2000 875 
L 1000 875 
L 1000 50 
L 475 50 
Q 500 1200 500 2350 
Q 500 3525 475 4575 
L 2525 4575 
z
M 4875 3825 
Q 4875 4575 4850 5225 
L 5400 5225 
Q 5375 4575 5375 3825 
Q 5750 3825 6175 3850 
L 6175 3375 
Q 5750 3400 5375 3400 
L 5375 50 
Q 5375 -325 5075 -425 
Q 4775 -525 4300 -575 
Q 4300 -275 4025 0 
Q 4500 -50 4687 -25 
Q 4875 0 4875 300 
L 4875 3400 
Q 3625 3400 2775 3375 
L 2775 3850 
Q 3575 3825 4875 3825 
z
M 2000 1300 
L 2000 2550 
L 1000 2550 
L 1000 1300 
L 2000 1300 
z
M 2000 2975 
L 2000 4150 
L 1000 4150 
L 1000 2975 
L 2000 2975 
z
M 3550 2725 
Q 3875 2200 4175 1600 
Q 3925 1525 3650 1375 
Q 3450 1975 3075 2500 
Q 3300 2600 3550 2725 
z
" transform="scale(0.015625)"/>
       <path id="SimHei-95f4" d="M 4450 3550 
Q 4425 3075 4425 2725 
L 4425 1400 
Q 4425 1075 4450 625 
L 1925 625 
Q 1950 1075 1950 1425 
L 1950 2725 
Q 1950 3075 1925 3550 
L 4450 3550 
z
M 5800 4875 
Q 5775 4400 5775 3925 
L 5775 250 
Q 5800 -325 5462 -450 
Q 5125 -575 4725 -625 
Q 4700 -325 4525 -25 
Q 5000 -50 5137 25 
Q 5275 100 5275 350 
L 5275 4450 
L 3775 4450 
Q 3175 4450 2650 4425 
L 2650 4900 
Q 3175 4875 3775 4875 
L 5800 4875 
z
M 550 -525 
Q 600 -25 600 525 
L 600 3150 
Q 600 3675 550 4025 
L 1125 4025 
Q 1100 3650 1100 3300 
L 1100 500 
Q 1100 0 1125 -525 
L 550 -525 
z
M 3950 1025 
L 3950 1950 
L 2425 1950 
L 2425 1025 
L 3950 1025 
z
M 3950 2350 
L 3950 3150 
L 2425 3150 
L 2425 2350 
L 3950 2350 
z
M 1525 5300 
Q 1750 5000 2225 4350 
Q 1950 4225 1700 4075 
Q 1450 4575 1075 5025 
Q 1350 5225 1525 5300 
z
" transform="scale(0.015625)"/>
       <path id="SimHei-20" transform="scale(0.015625)"/>
       <path id="SimHei-2f" d="M 3000 4550 
L 350 -175 
L 100 -25 
L 2750 4700 
L 3000 4550 
z
" transform="scale(0.015625)"/>
       <path id="SimHei-5e8f" d="M 4000 2075 
L 5975 2075 
Q 5750 1525 5575 1025 
Q 5325 1100 5050 1150 
Q 5175 1450 5275 1700 
L 4050 1700 
L 4050 150 
Q 4050 -375 3762 -462 
Q 3475 -550 2950 -575 
Q 2875 -300 2750 0 
Q 3350 -75 3475 25 
Q 3600 125 3575 375 
L 3575 1700 
L 2450 1700 
Q 2050 1700 1675 1675 
L 1675 2100 
Q 2100 2075 2425 2075 
L 3675 2075 
Q 3325 2400 2875 2775 
Q 2975 2875 3250 3100 
Q 3400 2975 3725 2725 
L 4575 3275 
L 3000 3275 
Q 2400 3275 1950 3250 
L 1950 3700 
Q 2400 3675 3000 3675 
L 5400 3675 
L 5400 3250 
Q 4700 2875 4025 2450 
L 4275 2250 
L 4000 2075 
z
M 3725 5275 
Q 3825 4925 3925 4525 
L 4850 4525 
Q 5425 4525 6000 4550 
L 6000 4125 
Q 5425 4150 4850 4150 
L 1400 4150 
Q 1400 2750 1362 2137 
Q 1325 1525 1200 887 
Q 1075 250 775 -350 
Q 625 -250 250 -125 
Q 475 300 600 700 
Q 725 1100 800 1637 
Q 875 2175 875 2825 
Q 875 3500 850 4525 
L 3350 4525 
Q 3275 4825 3150 5150 
Q 3425 5200 3725 5275 
z
" transform="scale(0.015625)"/>
       <path id="SimHei-53f7" d="M 5025 4925 
Q 5000 4550 5000 4075 
Q 5000 3600 5025 3175 
L 1400 3175 
Q 1425 3525 1425 4000 
Q 1425 4500 1400 4925 
L 5025 4925 
z
M 5175 2625 
Q 5650 2625 6025 2650 
L 6025 2200 
Q 5650 2225 5175 2225 
L 2450 2225 
Q 2350 1875 2225 1450 
L 5175 1450 
Q 5100 1050 5062 775 
Q 5025 500 4950 112 
Q 4875 -275 4650 -412 
Q 4425 -550 3225 -625 
Q 3125 -350 2975 -50 
Q 3875 -75 4112 -50 
Q 4350 -25 4425 212 
Q 4500 450 4575 1025 
L 1600 1025 
Q 1825 1625 1950 2225 
L 1350 2225 
Q 825 2225 375 2200 
L 375 2650 
Q 825 2625 1350 2625 
L 5175 2625 
z
M 4525 3575 
L 4525 4525 
L 1900 4525 
L 1900 3575 
L 4525 3575 
z
" transform="scale(0.015625)"/>
      </defs>
      <use xlink:href="#SimHei-65f6"/>
      <use xlink:href="#SimHei-95f4" transform="translate(100 0)"/>
      <use xlink:href="#SimHei-20" transform="translate(200 0)"/>
      <use xlink:href="#SimHei-2f" transform="translate(250 0)"/>
      <use xlink:href="#SimHei-20" transform="translate(300 0)"/>
      <use xlink:href="#SimHei-5e8f" transform="translate(350 0)"/>
      <use xlink:href="#SimHei-53f7" transform="translate(450 0)"/>
     </g>
    </g>
   </g>
   <g id="matplotlib.axis_2">
    <g id="ytick_1">
     <g id="line2d_11">
      <path d="M 37.73125 371.347374 
L 705.72625 371.347374 
" clip-path="url(#pc5aaaf71ef)" style="fill: none; stroke-dasharray: 1.85,0.8; stroke-dashoffset: 0; stroke: #b2b2b2; stroke-opacity: 0.3; stroke-width: 0.5"/>
     </g>
     <g id="line2d_12">
      <defs>
       <path id="m7fdfbeb063" d="M 0 0 
L 3.5 0 
" style="stroke: #000000; stroke-width: 0.8"/>
      </defs>
      <g>
       <use xlink:href="#m7fdfbeb063" x="37.73125" y="371.347374" style="stroke: #000000; stroke-width: 0.8"/>
      </g>
     </g>
     <g id="text_7">
      <!-- -20 -->
      <g transform="translate(20.73125 374.441124) scale(0.09 -0.09)">
       <defs>
        <path id="SimHei-2d" d="M 2975 2125 
L 125 2125 
L 125 2525 
L 2975 2525 
L 2975 2125 
z
" transform="scale(0.015625)"/>
       </defs>
       <use xlink:href="#SimHei-2d"/>
       <use xlink:href="#SimHei-32" transform="translate(50 0)"/>
       <use xlink:href="#SimHei-30" transform="translate(100 0)"/>
      </g>
     </g>
    </g>
    <g id="ytick_2">
     <g id="line2d_13">
      <path d="M 37.73125 299.33649 
L 705.72625 299.33649 
" clip-path="url(#pc5aaaf71ef)" style="fill: none; stroke-dasharray: 1.85,0.8; stroke-dashoffset: 0; stroke: #b2b2b2; stroke-opacity: 0.3; stroke-width: 0.5"/>
     </g>
     <g id="line2d_14">
      <g>
       <use xlink:href="#m7fdfbeb063" x="37.73125" y="299.33649" style="stroke: #000000; stroke-width: 0.8"/>
      </g>
     </g>
     <g id="text_8">
      <!-- -10 -->
      <g transform="translate(20.73125 302.43024) scale(0.09 -0.09)">
       <use xlink:href="#SimHei-2d"/>
       <use xlink:href="#SimHei-31" transform="translate(50 0)"/>
       <use xlink:href="#SimHei-30" transform="translate(100 0)"/>
      </g>
     </g>
    </g>
    <g id="ytick_3">
     <g id="line2d_15">
      <path d="M 37.73125 227.325606 
L 705.72625 227.325606 
" clip-path="url(#pc5aaaf71ef)" style="fill: none; stroke-dasharray: 1.85,0.8; stroke-dashoffset: 0; stroke: #b2b2b2; stroke-opacity: 0.3; stroke-width: 0.5"/>
     </g>
     <g id="line2d_16">
      <g>
       <use xlink:href="#m7fdfbeb063" x="37.73125" y="227.325606" style="stroke: #000000; stroke-width: 0.8"/>
      </g>
     </g>
     <g id="text_9">
      <!-- 0 -->
      <g transform="translate(29.73125 230.419356) scale(0.09 -0.09)">
       <use xlink:href="#SimHei-30"/>
      </g>
     </g>
    </g>
    <g id="ytick_4">
     <g id="line2d_17">
      <path d="M 37.73125 155.314722 
L 705.72625 155.314722 
" clip-path="url(#pc5aaaf71ef)" style="fill: none; stroke-dasharray: 1.85,0.8; stroke-dashoffset: 0; stroke: #b2b2b2; stroke-opacity: 0.3; stroke-width: 0.5"/>
     </g>
     <g id="line2d_18">
      <g>
       <use xlink:href="#m7fdfbeb063" x="37.73125" y="155.314722" style="stroke: #000000; stroke-width: 0.8"/>
      </g>
     </g>
     <g id="text_10">
      <!-- 10 -->
      <g transform="translate(25.23125 158.408472) scale(0.09 -0.09)">
       <use xlink:href="#SimHei-31"/>
       <use xlink:href="#SimHei-30" transform="translate(50 0)"/>
      </g>
     </g>
    </g>
    <g id="ytick_5">
     <g id="line2d_19">
      <path d="M 37.73125 83.303838 
L 705.72625 83.303838 
" clip-path="url(#pc5aaaf71ef)" style="fill: none; stroke-dasharray: 1.85,0.8; stroke-dashoffset: 0; stroke: #b2b2b2; stroke-opacity: 0.3; stroke-width: 0.5"/>
     </g>
     <g id="line2d_20">
      <g>
       <use xlink:href="#m7fdfbeb063" x="37.73125" y="83.303838" style="stroke: #000000; stroke-width: 0.8"/>
      </g>
     </g>
     <g id="text_11">
      <!-- 20 -->
      <g transform="translate(25.23125 86.397588) scale(0.09 -0.09)">
       <use xlink:href="#SimHei-32"/>
       <use xlink:href="#SimHei-30" transform="translate(50 0)"/>
      </g>
     </g>
    </g>
    <g id="text_12">
     <!-- 残差值 -->
     <g transform="translate(15.403125 224.88125) rotate(-90) scale(0.1 -0.1)">
      <defs>
       <path id="SimHei-6b8b" d="M 5700 3350 
Q 5325 3300 4900 3225 
Q 4475 3150 4075 3075 
Q 4100 2700 4150 2325 
Q 4625 2425 4987 2500 
Q 5350 2575 5925 2725 
L 6000 2250 
Q 5775 2225 5300 2137 
Q 4825 2050 4200 1900 
Q 4300 1375 4475 1075 
Q 5025 1500 5325 1950 
Q 5525 1750 5800 1550 
Q 5550 1425 5350 1237 
Q 5150 1050 4675 650 
Q 5000 200 5275 37 
Q 5550 -125 5600 -12 
Q 5650 100 5625 525 
Q 5825 325 6175 300 
Q 6125 -850 5450 -587 
Q 4775 -325 4275 400 
Q 3950 150 3537 -75 
Q 3125 -300 2625 -525 
Q 2475 -250 2250 -100 
Q 2775 50 3200 262 
Q 3625 475 4075 775 
Q 3850 1225 3750 1800 
Q 3100 1675 2700 1525 
L 2575 2025 
Q 3300 2125 3700 2225 
Q 3650 2600 3625 3000 
Q 3225 2950 2800 2850 
L 2675 3325 
Q 3150 3375 3600 3450 
Q 3575 3925 3550 4275 
Q 3525 4625 3475 5125 
Q 3775 5075 4050 5075 
Q 4025 4700 4012 4412 
Q 4000 4125 4050 3525 
Q 5200 3725 5625 3850 
L 5700 3350 
z
M 2125 4650 
Q 2450 4650 2800 4675 
L 2800 4175 
Q 2450 4200 2125 4200 
L 1675 4200 
Q 1550 3700 1425 3225 
L 2600 3225 
Q 2525 2500 2400 1925 
Q 2275 1350 2050 925 
Q 1825 500 1512 137 
Q 1200 -225 675 -625 
Q 525 -400 250 -225 
Q 700 25 1037 375 
Q 1375 725 1575 1075 
Q 1275 1450 950 1750 
Q 1125 1900 1250 2100 
Q 1550 1825 1800 1550 
Q 2025 2175 2075 2775 
L 1300 2775 
Q 1125 2375 987 2150 
Q 850 1925 550 1525 
Q 350 1825 200 1925 
Q 575 2300 825 2862 
Q 1075 3425 1200 4200 
Q 775 4200 375 4175 
L 375 4675 
Q 750 4650 1075 4650 
L 2125 4650 
z
M 4825 4975 
Q 5150 4575 5425 4175 
Q 5125 4050 4975 3900 
Q 4750 4325 4400 4700 
Q 4600 4825 4825 4975 
z
" transform="scale(0.015625)"/>
       <path id="SimHei-5dee" d="M 4725 4975 
Q 4500 4725 4250 4275 
L 4850 4275 
Q 5450 4275 5825 4300 
L 5825 3850 
Q 5425 3875 4850 3875 
L 3275 3875 
Q 3225 3600 3150 3275 
L 4525 3275 
Q 5075 3275 5525 3300 
L 5525 2850 
Q 5075 2875 4500 2875 
L 3050 2875 
Q 2975 2650 2850 2325 
L 5125 2325 
Q 5675 2325 6025 2350 
L 6025 1900 
Q 5700 1925 5150 1925 
L 2650 1925 
Q 2425 1550 2250 1300 
Q 2650 1275 3100 1275 
L 4525 1275 
Q 4975 1275 5350 1300 
L 5350 850 
Q 4975 875 4575 875 
L 3925 875 
L 3925 -50 
L 5000 -50 
Q 5200 -50 5900 -25 
L 5900 -500 
Q 5275 -475 5025 -475 
L 2100 -475 
Q 1700 -475 1400 -500 
L 1400 -25 
Q 1775 -50 2125 -50 
L 3425 -50 
L 3425 875 
L 3100 875 
Q 2625 875 2175 850 
L 2175 1200 
Q 1925 875 1487 475 
Q 1050 75 625 -250 
Q 425 -25 200 150 
Q 750 475 1262 925 
Q 1775 1375 2100 1925 
L 1325 1925 
Q 750 1925 375 1900 
L 375 2350 
Q 750 2325 1350 2325 
L 2325 2325 
Q 2450 2575 2550 2875 
L 1725 2875 
Q 1375 2875 1000 2850 
L 1000 3300 
Q 1500 3275 1700 3275 
L 2650 3275 
Q 2725 3575 2775 3875 
L 1500 3875 
Q 1100 3875 650 3850 
L 650 4300 
Q 1025 4275 1425 4275 
L 2275 4275 
Q 2075 4675 1850 4950 
Q 2025 5050 2250 5225 
Q 2450 4975 2725 4550 
Q 2525 4450 2325 4275 
L 3750 4275 
Q 4000 4700 4150 5250 
Q 4400 5100 4725 4975 
z
" transform="scale(0.015625)"/>
       <path id="SimHei-503c" d="M 3675 4450 
L 3675 5100 
Q 3975 5075 4350 5050 
Q 4225 4875 4200 4450 
L 5125 4450 
Q 5550 4450 5875 4475 
L 5875 4025 
Q 5525 4050 5125 4050 
L 4175 4050 
L 4125 3500 
L 5400 3500 
Q 5375 3200 5375 2700 
L 5375 150 
Q 5875 150 6100 175 
L 6100 -275 
Q 5775 -250 5200 -250 
L 2850 -250 
Q 2275 -250 1900 -275 
L 1900 175 
Q 2125 150 2600 150 
L 2600 2700 
Q 2600 3175 2575 3500 
L 3600 3500 
L 3650 4050 
L 3200 4050 
Q 2575 4050 2225 4025 
L 2225 4475 
Q 2550 4450 3200 4450 
L 3675 4450 
z
M 2225 4900 
Q 2025 4675 1650 3750 
L 1650 450 
Q 1650 -75 1675 -550 
L 1150 -550 
Q 1175 -125 1175 375 
L 1175 2950 
Q 875 2450 625 2150 
Q 425 2425 250 2575 
Q 500 2825 937 3537 
Q 1375 4250 1625 5150 
Q 1975 4975 2225 4900 
z
M 4925 2650 
L 4925 3150 
L 3075 3150 
L 3075 2650 
L 4925 2650 
z
M 4925 150 
L 4925 625 
L 3075 625 
L 3075 150 
L 4925 150 
z
M 4925 1000 
L 4925 1450 
L 3075 1450 
L 3075 1000 
L 4925 1000 
z
M 4925 1825 
L 4925 2275 
L 3075 2275 
L 3075 1825 
L 4925 1825 
z
" transform="scale(0.015625)"/>
      </defs>
      <use xlink:href="#SimHei-6b8b"/>
      <use xlink:href="#SimHei-5dee" transform="translate(100 0)"/>
      <use xlink:href="#SimHei-503c" transform="translate(200 0)"/>
     </g>
    </g>
   </g>
   <g id="line2d_21">
    <path d="M 68.094659 94.271096 
L 68.371824 215.148155 
L 68.648989 226.821185 
L 68.926154 212.239283 
L 69.203318 238.703203 
L 69.480483 226.843122 
L 69.757648 227.973783 
L 70.034813 220.203739 
L 70.311978 237.097447 
L 70.589143 225.093305 
L 70.866308 219.980646 
L 71.143472 233.331475 
L 71.420637 298.015129 
L 71.697802 240.986839 
L 71.974967 223.14658 
L 72.252132 244.812939 
L 72.529297 220.686459 
L 72.806462 222.595051 
L 73.083626 230.807322 
L 73.360791 242.413068 
L 73.637956 231.815123 
L 73.915121 239.543661 
L 74.746615 211.634839 
L 75.02378 227.51374 
L 75.300945 216.08106 
L 75.57811 222.046219 
L 75.855275 213.753007 
L 76.13244 224.927999 
L 76.409605 213.764432 
L 76.686769 226.163932 
L 76.963934 211.270147 
L 77.518264 245.422245 
L 78.072594 210.182759 
L 78.349758 219.424813 
L 78.626923 233.498562 
L 78.904088 216.625199 
L 79.181253 225.485111 
L 79.458418 224.337156 
L 79.735583 227.376719 
L 80.012748 244.021249 
L 80.844242 230.818758 
L 81.121407 241.632241 
L 81.398572 236.826813 
L 81.952901 239.532339 
L 82.230066 253.147133 
L 82.507231 226.65004 
L 82.784396 241.724936 
L 83.061561 224.80807 
L 83.338726 221.781193 
L 83.615891 222.672782 
L 83.893055 222.030587 
L 84.17022 211.055891 
L 84.447385 239.101037 
L 84.72455 244.156037 
L 85.001715 237.932844 
L 85.27888 238.694822 
L 85.556045 235.536059 
L 85.833209 225.70695 
L 86.110374 223.416556 
L 86.387539 222.803474 
L 86.664704 220.84909 
L 86.941869 211.808467 
L 87.219034 225.642782 
L 87.496198 220.205059 
L 87.773363 219.363 
L 88.327693 231.090473 
L 88.604858 222.146958 
L 88.882023 230.159685 
L 89.159188 242.201703 
L 89.436352 259.976418 
L 89.990682 203.917572 
L 90.267847 209.766807 
L 90.545012 212.147445 
L 90.822177 233.554864 
L 91.099341 215.117037 
L 91.376506 214.798574 
L 91.653671 213.917906 
L 91.930836 219.839727 
L 92.208001 242.437777 
L 92.485166 244.879603 
L 92.762331 220.320691 
L 93.039495 242.565449 
L 93.31666 236.87958 
L 93.593825 233.584208 
L 93.87099 234.533067 
L 94.148155 232.01961 
L 94.42532 220.716573 
L 94.702484 222.506628 
L 94.979649 229.647463 
L 95.256814 218.745642 
L 95.533979 228.359451 
L 95.811144 254.279854 
L 96.088309 230.519415 
L 96.365474 197.152314 
L 96.642638 230.606692 
L 96.919803 238.746136 
L 97.196968 232.16756 
L 97.474133 194.333574 
L 97.751298 221.437519 
L 98.028463 226.409316 
L 98.305628 225.490913 
L 98.859957 214.114536 
L 99.414287 217.320489 
L 99.691452 245.376512 
L 99.968617 210.97911 
L 100.245781 240.958138 
L 100.522946 227.137219 
L 100.800111 249.869888 
L 101.077276 234.129667 
L 101.354441 238.900965 
L 101.631606 230.358334 
L 101.908771 235.128301 
L 102.185935 220.656533 
L 102.4631 214.225514 
L 102.740265 227.485781 
L 103.01743 233.003242 
L 103.294595 222.465563 
L 103.848924 229.847753 
L 104.126089 253.015326 
L 104.403254 239.30913 
L 104.680419 210.899976 
L 104.957584 240.55082 
L 105.234749 229.747085 
L 105.511914 224.213225 
L 105.789078 203.484251 
L 106.066243 212.701975 
L 106.343408 235.667818 
L 106.620573 233.082484 
L 106.897738 217.409439 
L 107.174903 234.384261 
L 107.452067 229.252416 
L 107.729232 219.689061 
L 108.006397 257.411624 
L 108.283562 227.291294 
L 108.560727 229.688069 
L 108.837892 230.16464 
L 109.115057 229.460541 
L 109.392221 239.834473 
L 109.669386 198.962677 
L 109.946551 251.425503 
L 110.223716 223.742686 
L 110.500881 210.563613 
L 110.778046 238.671991 
L 111.055211 217.622256 
L 111.332375 219.498306 
L 111.60954 210.665863 
L 112.16387 232.07382 
L 112.441035 213.002512 
L 112.7182 228.319785 
L 112.995364 259.162741 
L 113.272529 211.86216 
L 113.549694 243.83161 
L 113.826859 240.085663 
L 114.104024 217.022814 
L 114.381189 226.190592 
L 114.658354 214.089932 
L 114.935518 217.726718 
L 115.212683 170.700971 
L 115.489848 272.619802 
L 115.767013 236.178061 
L 116.044178 215.336309 
L 116.321343 234.591421 
L 116.598507 221.746161 
L 116.875672 255.630408 
L 117.152837 150.222415 
L 117.430002 92.263939 
L 117.984332 346.086953 
L 118.261497 258.661222 
L 118.538661 279.967306 
L 118.815826 220.728065 
L 119.092991 252.407569 
L 119.370156 224.446047 
L 119.647321 230.125675 
L 119.924486 230.905716 
L 120.201651 200.700923 
L 120.478815 268.617333 
L 120.75598 245.558719 
L 121.033145 247.224754 
L 121.31031 192.800831 
L 121.587475 219.555708 
L 121.86464 257.138836 
L 122.141804 195.311606 
L 122.418969 255.121755 
L 122.973299 195.084503 
L 123.250464 222.978759 
L 123.527629 219.656539 
L 124.081958 264.500216 
L 124.359123 236.638734 
L 124.636288 191.832431 
L 124.913453 225.710237 
L 125.190618 235.928213 
L 125.467783 211.269608 
L 125.744947 205.555483 
L 126.022112 219.220947 
L 126.299277 239.949872 
L 126.576442 241.986192 
L 126.853607 220.946139 
L 127.130772 240.975075 
L 127.407937 277.810701 
L 127.685101 223.770434 
L 127.962266 195.638542 
L 128.239431 209.567756 
L 128.516596 43.665341 
L 129.070926 322.267416 
L 129.34809 234.023494 
L 129.625255 234.044381 
L 129.90242 218.515532 
L 130.179585 229.666877 
L 130.45675 274.771674 
L 130.733915 238.686932 
L 131.01108 246.042158 
L 131.288244 234.345929 
L 131.565409 238.812375 
L 131.842574 278.337993 
L 132.396904 194.092268 
L 132.674069 232.622984 
L 132.951234 248.558579 
L 133.228398 240.397146 
L 133.505563 220.016549 
L 133.782728 216.90154 
L 134.059893 228.714618 
L 134.337058 225.947271 
L 134.614223 217.231923 
L 134.891387 239.51251 
L 135.168552 310.733809 
L 135.445717 261.313397 
L 135.722882 189.758324 
L 136.000047 243.617523 
L 136.277212 216.531471 
L 136.554377 217.939914 
L 136.831541 247.446929 
L 137.108706 221.497358 
L 137.663036 207.664023 
L 137.940201 211.21343 
L 138.217366 228.089037 
L 138.49453 289.602648 
L 138.771695 256.316534 
L 139.04886 182.062015 
L 139.326025 222.314385 
L 139.60319 220.890471 
L 139.880355 232.347712 
L 140.434684 197.897209 
L 140.711849 226.120657 
L 140.989014 222.832264 
L 141.266179 232.000251 
L 141.543344 207.845432 
L 141.820509 214.299188 
L 142.097673 236.45711 
L 142.374838 239.936293 
L 142.652003 199.489047 
L 142.929168 237.927819 
L 143.206333 193.128502 
L 143.483498 191.524109 
L 143.760663 227.141428 
L 144.037827 169.331091 
L 144.314992 165.22207 
L 144.592157 188.930239 
L 144.869322 229.052538 
L 145.146487 219.99904 
L 145.423652 253.927963 
L 145.700817 223.694523 
L 145.977981 266.012991 
L 146.255146 200.810499 
L 146.532311 222.961741 
L 146.809476 263.809242 
L 147.086641 244.482893 
L 147.363806 250.4617 
L 147.64097 266.233964 
L 147.918135 257.676024 
L 148.1953 231.133083 
L 148.472465 157.187075 
L 148.74963 189.449184 
L 149.026795 266.261636 
L 149.30396 228.519238 
L 149.581124 237.606101 
L 149.858289 286.738623 
L 150.135454 239.790843 
L 150.412619 215.547964 
L 150.689784 273.224299 
L 150.966949 246.299682 
L 151.244113 247.051163 
L 151.521278 228.944599 
L 151.798443 261.261883 
L 152.075608 222.518441 
L 152.352773 217.048472 
L 152.907103 233.237943 
L 153.184267 216.156453 
L 153.738597 207.028635 
L 154.015762 236.234716 
L 154.292927 237.708811 
L 154.570092 241.271292 
L 154.847256 229.065355 
L 155.124421 243.334323 
L 155.678751 214.116064 
L 155.955916 198.557103 
L 156.233081 223.789739 
L 156.510246 224.628138 
L 156.78741 217.311611 
L 157.34174 241.924973 
L 157.618905 226.357621 
L 157.89607 226.921642 
L 158.173235 220.168424 
L 158.4504 217.202801 
L 158.727564 223.349723 
L 159.004729 159.570141 
L 159.559059 234.959656 
L 159.836224 224.211867 
L 160.113389 236.536338 
L 160.390553 234.94119 
L 160.667718 225.755954 
L 160.944883 231.047648 
L 161.222048 220.490103 
L 161.499213 227.330976 
L 161.776378 197.432788 
L 162.053543 208.286909 
L 162.330707 293.331525 
L 162.607872 272.395198 
L 162.885037 229.259229 
L 163.162202 217.963162 
L 163.439367 244.396096 
L 163.993696 153.940405 
L 164.270861 196.419931 
L 164.548026 209.860109 
L 164.825191 215.620826 
L 165.102356 218.935002 
L 165.379521 275.218842 
L 165.656686 277.118256 
L 165.93385 241.698923 
L 166.211015 244.850811 
L 166.48818 245.870937 
L 166.765345 212.963828 
L 167.04251 261.969882 
L 167.319675 157.815111 
L 167.596839 268.073352 
L 167.874004 217.228232 
L 168.151169 225.012643 
L 168.428334 250.044326 
L 168.705499 220.056996 
L 168.982664 208.15448 
L 169.259829 214.444239 
L 169.536993 209.595167 
L 169.814158 220.965734 
L 170.091323 213.454657 
L 170.368488 221.93806 
L 170.645653 273.739424 
L 170.922818 226.255772 
L 171.199983 235.461472 
L 171.477147 227.712875 
L 171.754312 246.31459 
L 172.031477 229.170229 
L 172.308642 190.97276 
L 172.585807 214.555833 
L 172.862972 214.576554 
L 173.140136 217.356673 
L 173.417301 214.570372 
L 173.694466 229.130406 
L 173.971631 252.948733 
L 174.248796 244.680251 
L 174.525961 209.060854 
L 174.803126 268.341724 
L 175.08029 236.901438 
L 175.357455 181.382322 
L 175.63462 166.210562 
L 175.911785 260.633581 
L 176.18895 237.853915 
L 176.466115 236.966121 
L 176.743279 244.953512 
L 177.020444 220.493288 
L 177.297609 247.513475 
L 177.574774 203.222973 
L 177.851939 226.64627 
L 178.129104 223.56753 
L 178.406269 230.909208 
L 178.683433 246.168588 
L 178.960598 245.719078 
L 179.237763 221.84321 
L 179.514928 233.333243 
L 179.792093 233.934844 
L 180.069258 237.795526 
L 180.346423 228.552883 
L 180.623587 244.010147 
L 180.900752 209.028817 
L 181.177917 240.178152 
L 181.455082 212.143386 
L 181.732247 233.203067 
L 182.009412 236.162463 
L 182.286576 221.154606 
L 182.563741 216.054648 
L 182.840906 162.757514 
L 183.118071 245.782904 
L 183.395236 246.105319 
L 183.672401 233.946209 
L 183.949566 249.056425 
L 184.22673 229.212625 
L 184.503895 245.316517 
L 184.78106 235.999962 
L 185.058225 221.08568 
L 185.33539 252.129655 
L 185.612555 244.119251 
L 185.889719 220.62136 
L 186.166884 219.113779 
L 186.444049 213.651545 
L 186.721214 217.817186 
L 186.998379 224.191145 
L 187.275544 227.968615 
L 187.552709 226.020471 
L 187.829873 271.557603 
L 188.107038 241.747615 
L 188.384203 237.792763 
L 188.661368 237.546462 
L 188.938533 216.662962 
L 189.215698 226.869997 
L 189.492862 252.842281 
L 189.770027 223.182103 
L 190.324357 252.841693 
L 190.601522 236.665974 
L 190.878687 244.480841 
L 191.155852 214.296679 
L 191.433016 208.059588 
L 191.710181 234.52544 
L 191.987346 220.65003 
L 192.264511 178.395636 
L 192.541676 260.923755 
L 192.818841 262.359893 
L 193.096006 213.552769 
L 193.37317 215.471449 
L 193.650335 208.35029 
L 193.9275 210.67329 
L 194.204665 216.927486 
L 194.48183 204.246275 
L 194.758995 201.698878 
L 195.036159 227.444268 
L 195.313324 212.538611 
L 195.590489 257.199228 
L 195.867654 207.093942 
L 196.144819 225.917872 
L 196.421984 228.88017 
L 196.976313 220.155278 
L 197.253478 229.942334 
L 197.530643 230.809307 
L 197.807808 181.762957 
L 198.084973 220.879668 
L 198.362138 204.272817 
L 198.639302 203.676571 
L 198.916467 245.669482 
L 199.193632 205.221308 
L 199.470797 222.18183 
L 199.747962 171.355489 
L 200.025127 268.288368 
L 200.302292 219.054616 
L 200.579456 230.378294 
L 200.856621 272.405344 
L 201.133786 272.395383 
L 201.410951 250.696057 
L 201.688116 239.979043 
L 202.242445 231.250019 
L 202.51961 236.395344 
L 202.796775 232.971748 
L 203.07394 261.055999 
L 203.351105 207.973544 
L 203.62827 231.598881 
L 203.905435 206.468207 
L 204.182599 156.181167 
L 204.736929 243.826312 
L 205.014094 261.104385 
L 205.291259 221.299562 
L 205.568424 220.652317 
L 205.845589 220.55653 
L 206.122753 191.266054 
L 206.399918 234.891569 
L 206.677083 191.032736 
L 206.954248 231.666374 
L 207.508578 211.497868 
L 207.785742 262.104988 
L 208.062907 243.500653 
L 208.340072 234.07731 
L 208.617237 239.974771 
L 208.894402 237.354814 
L 209.171567 209.017469 
L 209.448732 234.492957 
L 209.725896 236.615534 
L 210.280226 229.629118 
L 210.557391 254.4449 
L 210.834556 234.751228 
L 211.111721 189.946819 
L 211.388885 198.326815 
L 211.66605 202.164233 
L 211.943215 213.97151 
L 212.22038 238.228852 
L 212.497545 223.162277 
L 212.77471 232.357767 
L 213.051875 216.376261 
L 213.329039 225.634496 
L 213.606204 217.194081 
L 213.883369 240.721684 
L 214.160534 254.531207 
L 214.992028 201.063246 
L 215.269193 235.74577 
L 215.546358 229.163128 
L 215.823523 241.663412 
L 216.100688 247.49386 
L 216.377853 202.320602 
L 216.655018 272.442527 
L 216.932182 232.908264 
L 217.209347 229.150814 
L 217.486512 232.461937 
L 217.763677 232.879109 
L 218.040842 238.030756 
L 218.318007 220.543549 
L 218.872336 213.486611 
L 219.149501 229.323152 
L 219.426666 217.067247 
L 219.703831 237.922656 
L 219.980996 204.53619 
L 220.258161 238.327812 
L 220.535325 215.954094 
L 221.089655 255.419117 
L 221.36682 213.305349 
L 221.92115 232.441182 
L 222.198315 232.323559 
L 222.475479 215.866567 
L 222.752644 224.254311 
L 223.029809 256.786883 
L 223.306974 217.657826 
L 223.584139 233.29641 
L 223.861304 222.604139 
L 224.138468 238.528717 
L 224.415633 195.41688 
L 224.692798 295.551802 
L 224.969963 150.992623 
L 225.247128 305.064048 
L 225.524293 172.493198 
L 225.801458 226.064379 
L 226.078622 225.688893 
L 226.632952 210.669896 
L 226.910117 221.298162 
L 227.187282 214.371566 
L 227.464447 226.369399 
L 227.741611 213.792962 
L 228.018776 189.954955 
L 228.295941 261.137011 
L 228.573106 200.151665 
L 228.850271 261.245313 
L 229.127436 235.759112 
L 229.404601 235.625232 
L 229.681765 243.750205 
L 229.95893 200.640427 
L 230.236095 220.340607 
L 230.51326 255.063847 
L 230.790425 240.007463 
L 231.06759 162.34335 
L 231.621919 244.067671 
L 231.899084 196.963256 
L 232.176249 208.770089 
L 232.453414 229.743783 
L 232.730579 240.762455 
L 233.007744 259.145517 
L 233.284908 244.518703 
L 233.839238 209.75117 
L 234.116403 224.873746 
L 234.393568 275.734984 
L 234.670733 270.914152 
L 234.947898 222.701364 
L 235.225062 213.446642 
L 235.502227 280.778967 
L 235.779392 243.681881 
L 236.056557 184.664257 
L 236.333722 234.512018 
L 236.610887 238.754823 
L 236.888051 227.610305 
L 237.165216 208.167608 
L 237.442381 221.524504 
L 237.719546 257.85923 
L 237.996711 220.904692 
L 238.273876 239.079499 
L 238.828205 227.297726 
L 239.10537 223.492427 
L 239.382535 252.263472 
L 239.6597 212.791969 
L 239.936865 236.016154 
L 240.21403 234.37733 
L 240.768359 196.251842 
L 241.045524 234.131548 
L 241.322689 188.681658 
L 241.599854 266.771537 
L 241.877019 226.318424 
L 242.154184 248.313175 
L 242.431348 215.216665 
L 242.708513 247.013351 
L 242.985678 221.109512 
L 243.262843 225.027398 
L 243.540008 214.414139 
L 243.817173 236.642634 
L 244.094338 218.584311 
L 244.371502 187.97144 
L 244.925832 246.041439 
L 245.202997 225.340985 
L 245.480162 221.759543 
L 245.757327 205.785595 
L 246.034491 235.025575 
L 246.311656 205.12517 
L 246.588821 235.429513 
L 246.865986 218.717999 
L 247.143151 276.973674 
L 247.697481 214.492531 
L 247.974645 240.441218 
L 248.25181 214.057225 
L 248.528975 211.924028 
L 248.80614 232.806828 
L 249.083305 184.941983 
L 249.36047 227.680226 
L 249.637634 201.355984 
L 249.914799 208.705944 
L 250.191964 232.987266 
L 250.469129 210.989463 
L 250.746294 262.022236 
L 251.023459 238.6166 
L 251.577788 178.864932 
L 251.854953 281.908242 
L 252.132118 223.183269 
L 252.409283 290.248835 
L 252.686448 213.369183 
L 252.963613 268.97122 
L 253.240778 219.845495 
L 253.517942 249.24002 
L 253.795107 213.673986 
L 254.072272 203.678472 
L 254.349437 226.707379 
L 254.626602 232.317711 
L 254.903767 225.733511 
L 255.180931 234.114689 
L 255.458096 197.222377 
L 255.735261 236.995147 
L 256.012426 201.184797 
L 256.289591 237.541442 
L 256.566756 218.216482 
L 257.121085 239.909481 
L 257.39825 212.082288 
L 257.675415 251.798056 
L 257.95258 248.773136 
L 258.229745 274.10338 
L 258.50691 164.683645 
L 258.784074 286.039414 
L 259.061239 233.792597 
L 259.338404 155.106873 
L 259.892734 210.388706 
L 260.169899 191.681916 
L 260.447064 211.734356 
L 260.724228 198.016161 
L 261.001393 257.281423 
L 261.278558 191.112278 
L 261.555723 236.437495 
L 261.832888 187.765175 
L 262.110053 242.580084 
L 262.664382 259.472187 
L 262.941547 241.571106 
L 263.218712 268.452792 
L 263.495877 262.450161 
L 263.773042 205.661927 
L 264.050207 234.340919 
L 264.327371 215.776159 
L 264.604536 247.876022 
L 264.881701 193.425892 
L 265.158866 287.734773 
L 265.436031 177.483227 
L 265.713196 305.778886 
L 265.990361 307.742284 
L 266.267525 247.634146 
L 266.54469 214.531631 
L 266.821855 215.192392 
L 267.09902 213.639975 
L 267.376185 205.009324 
L 267.65335 226.448102 
L 267.930514 185.146524 
L 268.207679 192.972459 
L 268.762009 261.377931 
L 269.039174 191.240357 
L 269.316339 232.935411 
L 269.593504 230.045083 
L 269.870668 291.162462 
L 270.147833 244.910752 
L 270.424998 244.091977 
L 270.702163 267.364595 
L 270.979328 228.61424 
L 271.256493 262.888843 
L 271.533657 235.245331 
L 271.810822 187.024208 
L 272.087987 225.471217 
L 272.365152 142.982241 
L 272.919482 218.098106 
L 273.196647 190.659669 
L 273.473811 186.951463 
L 273.750976 251.831374 
L 274.028141 249.958635 
L 274.305306 224.933549 
L 274.582471 248.70307 
L 274.859636 224.644303 
L 275.1368 249.656521 
L 275.413965 219.885742 
L 275.69113 173.707912 
L 275.968295 252.891051 
L 276.24546 179.926079 
L 276.522625 162.49784 
L 277.076954 268.444396 
L 277.354119 196.532873 
L 277.631284 254.003327 
L 277.908449 266.983148 
L 278.185614 274.312161 
L 278.462779 260.972702 
L 278.739944 178.125227 
L 279.017108 265.441927 
L 279.294273 214.826864 
L 279.571438 208.253052 
L 279.848603 258.095432 
L 280.125768 225.672018 
L 280.402933 233.619875 
L 280.680097 231.280643 
L 280.957262 210.367496 
L 281.234427 232.276263 
L 281.511592 201.46195 
L 282.065922 259.618825 
L 282.343087 273.901064 
L 282.620251 247.29156 
L 282.897416 258.287385 
L 283.174581 236.164599 
L 283.451746 237.315314 
L 283.728911 202.574848 
L 284.006076 230.207677 
L 284.28324 210.175157 
L 284.560405 214.973392 
L 284.83757 238.412898 
L 285.114735 212.74761 
L 285.3919 218.956522 
L 285.669065 211.433398 
L 285.94623 209.70651 
L 286.223394 246.219645 
L 286.500559 239.983187 
L 286.777724 217.620391 
L 287.054889 215.442955 
L 287.332054 230.639321 
L 287.609219 220.986142 
L 287.886384 203.512159 
L 288.163548 220.273724 
L 288.440713 216.277187 
L 288.717878 214.575671 
L 288.995043 211.523227 
L 289.549373 242.239038 
L 289.826537 221.441671 
L 290.103702 257.697775 
L 290.380867 214.75746 
L 290.658032 218.6777 
L 291.212362 199.838232 
L 291.489527 243.105425 
L 291.766691 208.456099 
L 292.043856 240.717218 
L 292.321021 213.523577 
L 292.598186 232.114508 
L 292.875351 239.246227 
L 293.42968 224.497854 
L 293.706845 224.594858 
L 293.98401 225.35649 
L 294.261175 240.045434 
L 294.815505 229.603591 
L 295.09267 228.719864 
L 295.369834 245.466904 
L 295.646999 237.703456 
L 295.924164 226.090776 
L 296.201329 231.314451 
L 296.478494 231.437112 
L 296.755659 238.795912 
L 297.032823 235.086298 
L 297.309988 213.344724 
L 297.587153 235.887016 
L 297.864318 200.174429 
L 298.141483 219.493691 
L 298.418648 225.026932 
L 298.695813 252.65264 
L 298.972977 213.568342 
L 299.250142 214.232335 
L 299.527307 168.034486 
L 299.804472 234.019452 
L 300.081637 200.437574 
L 300.358802 238.062774 
L 300.635967 251.34534 
L 300.913131 246.343556 
L 301.190296 234.203401 
L 301.467461 265.838364 
L 301.744626 225.586402 
L 302.021791 160.525505 
L 302.298956 237.394047 
L 302.57612 215.982077 
L 302.853285 214.448253 
L 303.13045 228.515333 
L 303.407615 223.367486 
L 303.68478 252.128774 
L 304.23911 211.22818 
L 304.516274 254.355642 
L 304.793439 217.68281 
L 305.624934 252.254452 
L 306.179263 209.732291 
L 306.456428 222.597554 
L 306.733593 213.930329 
L 307.010758 189.987421 
L 307.287923 230.754077 
L 307.565088 220.489005 
L 307.842253 235.732899 
L 308.119417 170.778453 
L 308.673747 255.649683 
L 309.228077 264.175094 
L 309.505242 290.347127 
L 309.782406 277.208192 
L 310.059571 296.821295 
L 310.336736 195.594948 
L 310.613901 186.248881 
L 310.891066 217.681363 
L 311.168231 235.917111 
L 311.445396 165.900326 
L 311.72256 216.819475 
L 311.999725 221.819024 
L 312.27689 200.898154 
L 312.554055 221.362653 
L 312.83122 233.460152 
L 313.108385 185.033778 
L 313.38555 207.731493 
L 313.662714 294.346859 
L 313.939879 234.104995 
L 314.217044 244.665514 
L 314.494209 265.175309 
L 314.771374 260.9968 
L 315.325703 185.878465 
L 315.602868 222.14472 
L 315.880033 223.564409 
L 316.157198 247.396222 
L 316.434363 227.792269 
L 316.711528 193.038131 
L 316.988693 262.053472 
L 317.265857 210.95645 
L 317.543022 181.168936 
L 318.374517 301.703511 
L 318.928846 169.021687 
L 319.206011 241.026199 
L 319.483176 244.59543 
L 319.760341 226.990285 
L 320.037506 242.780762 
L 320.314671 225.733285 
L 320.591836 245.554124 
L 320.869 233.207016 
L 321.146165 172.895319 
L 321.42333 245.642802 
L 321.700495 174.731723 
L 322.254825 278.805112 
L 322.531989 223.930992 
L 322.809154 226.766093 
L 323.086319 218.619549 
L 323.363484 223.210315 
L 323.640649 164.184373 
L 323.917814 243.659218 
L 324.194979 272.241781 
L 324.749308 197.460712 
L 325.026473 240.914408 
L 325.303638 209.079449 
L 325.580803 231.023593 
L 325.857968 242.56173 
L 326.135133 196.729079 
L 326.412297 235.300541 
L 326.689462 227.956902 
L 326.966627 224.246257 
L 327.243792 233.937827 
L 327.520957 290.276696 
L 327.798122 221.270124 
L 328.075286 265.546979 
L 328.352451 205.711007 
L 328.629616 246.219049 
L 328.906781 232.343443 
L 329.183946 175.349067 
L 329.461111 215.046647 
L 329.738276 233.182742 
L 330.01544 222.535788 
L 330.292605 194.065291 
L 330.56977 211.651787 
L 330.846935 194.309512 
L 331.1241 201.409558 
L 331.401265 261.571995 
L 331.678429 259.086182 
L 331.955594 248.626738 
L 332.787089 196.867567 
L 333.064254 220.958037 
L 333.341419 195.229099 
L 333.618583 260.454885 
L 333.895748 243.095506 
L 334.450078 263.640787 
L 334.727243 240.475157 
L 335.004408 247.803348 
L 335.281572 246.009653 
L 336.113067 197.770094 
L 336.390232 217.867698 
L 336.667397 225.391092 
L 336.944562 219.054579 
L 337.221726 228.340238 
L 337.776056 165.544529 
L 338.053221 200.655908 
L 338.330386 195.198777 
L 338.607551 194.013211 
L 338.884716 206.365831 
L 339.16188 286.577792 
L 339.439045 253.707392 
L 339.71621 204.017694 
L 339.993375 283.826223 
L 340.27054 268.787583 
L 340.547705 221.572816 
L 340.824869 233.50861 
L 341.102034 195.735981 
L 341.379199 261.92881 
L 341.656364 230.42122 
L 341.933529 215.922481 
L 342.210694 247.535419 
L 342.487859 235.409536 
L 342.765023 242.249239 
L 343.042188 245.356655 
L 343.319353 235.840085 
L 343.596518 212.490571 
L 343.873683 151.806028 
L 344.150848 169.004311 
L 344.428012 247.529333 
L 344.705177 212.299589 
L 344.982342 233.22543 
L 345.259507 226.785714 
L 345.536672 233.363484 
L 345.813837 204.458718 
L 346.091002 268.662306 
L 346.368166 228.712172 
L 346.645331 219.587323 
L 346.922496 205.823028 
L 347.199661 246.460162 
L 347.476826 227.067972 
L 347.753991 274.659431 
L 348.031156 207.732153 
L 348.30832 241.603738 
L 348.585485 233.117631 
L 348.86265 202.010123 
L 349.41698 226.091561 
L 349.694145 258.020239 
L 349.971309 223.627025 
L 350.248474 203.142971 
L 350.525639 267.292926 
L 350.802804 242.133859 
L 351.079969 245.925584 
L 351.357134 205.106953 
L 351.634299 218.884293 
L 351.911463 252.187945 
L 352.188628 210.054283 
L 352.465793 213.618654 
L 352.742958 229.316298 
L 353.020123 232.745418 
L 353.297288 193.269632 
L 353.574452 239.499594 
L 353.851617 263.120363 
L 354.128782 243.280298 
L 354.405947 245.8532 
L 354.683112 241.437632 
L 354.960277 210.251279 
L 355.237442 198.790749 
L 355.514606 213.763067 
L 355.791771 250.481605 
L 356.068936 221.640128 
L 356.346101 233.957237 
L 356.623266 238.158166 
L 356.900431 234.031382 
L 357.177595 212.905666 
L 357.45476 245.368241 
L 357.731925 227.131664 
L 358.00909 243.84011 
L 358.286255 198.620308 
L 358.56342 236.218708 
L 358.840585 239.026658 
L 359.117749 236.070248 
L 359.394914 235.933097 
L 359.672079 146.858876 
L 359.949244 205.410202 
L 360.503574 232.041436 
L 360.780739 202.381832 
L 361.057903 242.486144 
L 361.335068 233.822752 
L 361.612233 249.828193 
L 361.889398 217.58251 
L 362.166563 260.605215 
L 362.720892 222.000672 
L 362.998057 232.022824 
L 363.275222 233.749541 
L 363.552387 231.538206 
L 363.829552 231.74264 
L 364.106717 226.747009 
L 364.383882 190.534478 
L 364.661046 179.27792 
L 364.938211 258.196665 
L 365.215376 251.00307 
L 365.769706 221.496533 
L 366.046871 220.003423 
L 366.324035 242.248726 
L 366.6012 220.00095 
L 366.878365 211.76336 
L 367.15553 212.9842 
L 367.432695 221.566003 
L 367.987025 227.912829 
L 368.264189 218.723717 
L 368.541354 226.969328 
L 368.818519 206.526206 
L 369.095684 212.606716 
L 369.372849 207.787679 
L 369.650014 252.971574 
L 370.204343 237.679747 
L 370.481508 225.828668 
L 370.758673 233.096481 
L 371.035838 227.766025 
L 371.313003 244.215503 
L 371.590168 199.214149 
L 371.867332 219.895762 
L 372.144497 215.953524 
L 372.421662 214.796616 
L 372.698827 237.058811 
L 373.253157 246.08418 
L 373.807486 235.172966 
L 374.084651 230.795496 
L 374.361816 303.702641 
L 374.638981 176.116252 
L 374.916146 186.922883 
L 375.193311 223.727162 
L 375.470475 215.843291 
L 375.74764 239.823623 
L 376.024805 214.712646 
L 376.30197 232.693441 
L 376.579135 233.974364 
L 377.410629 266.625543 
L 377.687794 206.191641 
L 377.964959 227.695497 
L 378.242124 223.062314 
L 378.519289 240.677899 
L 378.796454 216.998366 
L 379.073618 236.879138 
L 379.350783 229.47917 
L 379.627948 218.041602 
L 379.905113 213.159112 
L 380.182278 226.335655 
L 380.459443 222.232607 
L 380.736608 207.88335 
L 381.013772 199.516107 
L 381.290937 269.590004 
L 381.568102 278.184422 
L 381.845267 237.692617 
L 382.122432 217.937115 
L 382.399597 179.975058 
L 382.676761 217.273899 
L 382.953926 163.620397 
L 383.231091 235.179073 
L 383.508256 233.401558 
L 383.785421 228.557732 
L 384.062586 183.217858 
L 384.339751 177.162646 
L 384.616915 239.825827 
L 384.89408 243.055807 
L 385.171245 249.026632 
L 385.44841 223.596323 
L 385.725575 277.568496 
L 386.00274 264.451655 
L 386.279905 240.180022 
L 386.557069 180.037547 
L 386.834234 257.579753 
L 387.111399 217.566582 
L 387.388564 244.646291 
L 387.665729 249.777979 
L 387.942894 232.137153 
L 388.220058 203.992184 
L 388.497223 208.644449 
L 388.774388 238.138346 
L 389.051553 197.486331 
L 389.328718 202.12065 
L 389.605883 255.530558 
L 389.883048 215.002463 
L 390.160212 199.020856 
L 390.437377 196.476267 
L 390.714542 262.495507 
L 390.991707 201.705941 
L 391.268872 228.580727 
L 391.546037 216.549521 
L 391.823201 254.805214 
L 392.100366 258.593742 
L 392.654696 143.849024 
L 393.209026 234.627319 
L 393.486191 167.872709 
L 393.763355 245.272178 
L 394.04052 213.326923 
L 394.317685 271.931358 
L 394.59485 277.770608 
L 394.872015 249.896197 
L 395.14918 249.363435 
L 395.426344 251.837637 
L 395.703509 258.249136 
L 395.980674 237.812679 
L 396.257839 254.001493 
L 396.535004 249.914158 
L 396.812169 265.43742 
L 397.089334 227.256296 
L 397.366498 223.096889 
L 397.643663 225.560608 
L 397.920828 214.756747 
L 398.197993 250.263176 
L 398.475158 192.665251 
L 398.752323 206.782688 
L 399.029488 230.343261 
L 399.306652 264.323367 
L 399.583817 208.562593 
L 399.860982 218.586828 
L 400.138147 237.428135 
L 400.415312 241.479217 
L 400.692477 233.700822 
L 400.969641 214.331301 
L 401.246806 222.549689 
L 401.523971 235.369525 
L 401.801136 214.274878 
L 402.078301 202.848783 
L 402.355466 239.083941 
L 402.632631 259.934788 
L 402.909795 225.487794 
L 403.18696 223.462488 
L 403.464125 193.064648 
L 403.74129 230.125074 
L 404.018455 198.069536 
L 404.29562 232.213669 
L 404.572784 196.943306 
L 404.849949 222.741135 
L 405.127114 227.45944 
L 405.404279 226.677278 
L 405.681444 224.533077 
L 405.958609 244.909189 
L 406.235774 254.488174 
L 406.512938 229.52601 
L 406.790103 189.604895 
L 407.067268 232.881155 
L 407.344433 194.164699 
L 407.621598 225.198833 
L 407.898763 236.555918 
L 408.175928 193.492057 
L 408.453092 225.695494 
L 408.730257 290.383476 
L 409.007422 266.448776 
L 409.284587 211.53541 
L 409.561752 213.156822 
L 409.838917 252.467286 
L 410.116081 262.249937 
L 410.393246 242.590124 
L 410.947576 172.932667 
L 411.224741 251.078633 
L 411.501906 198.170751 
L 411.779071 232.354317 
L 412.056235 224.068291 
L 412.3334 199.848798 
L 412.610565 218.359874 
L 412.88773 227.032072 
L 413.164895 258.328823 
L 413.44206 240.826954 
L 413.719224 168.249134 
L 414.273554 290.453161 
L 414.550719 180.204253 
L 414.827884 314.48835 
L 415.105049 209.99402 
L 415.382214 230.16351 
L 415.659378 221.979422 
L 415.936543 222.675467 
L 416.213708 243.543396 
L 416.490873 211.282576 
L 416.768038 218.827786 
L 417.045203 208.762599 
L 417.322367 301.132256 
L 417.599532 219.285891 
L 417.876697 246.268706 
L 418.431027 207.5382 
L 418.708192 219.423344 
L 418.985357 158.580227 
L 419.262521 226.188382 
L 419.539686 226.219138 
L 419.816851 211.464557 
L 420.094016 243.219953 
L 420.371181 214.979487 
L 420.648346 250.996368 
L 420.925511 230.875575 
L 421.202675 223.578349 
L 421.47984 242.232156 
L 421.757005 230.594584 
L 422.03417 225.67502 
L 422.311335 263.512642 
L 422.5885 223.276611 
L 422.865664 218.941895 
L 423.142829 180.393316 
L 423.697159 282.21406 
L 423.974324 188.01099 
L 424.251489 251.274476 
L 424.528654 233.08506 
L 424.805818 159.570918 
L 425.082983 231.446519 
L 425.360148 204.207026 
L 425.637313 152.336565 
L 425.914478 291.466798 
L 426.191643 234.71792 
L 426.468807 258.354373 
L 426.745972 222.661474 
L 427.023137 232.938974 
L 427.300302 220.711929 
L 427.577467 202.387088 
L 427.854632 242.637804 
L 428.131797 244.651674 
L 428.408961 222.545078 
L 428.686126 228.306567 
L 428.963291 184.463741 
L 429.240456 279.321346 
L 429.517621 236.198997 
L 429.794786 226.045111 
L 430.07195 236.580588 
L 430.349115 219.096765 
L 430.62628 230.365979 
L 430.903445 249.314208 
L 431.18061 200.752004 
L 431.457775 207.468249 
L 431.73494 227.0266 
L 432.012104 206.430383 
L 432.289269 260.507822 
L 432.566434 213.61267 
L 432.843599 203.945505 
L 433.120764 261.771755 
L 433.397929 210.836056 
L 433.952258 229.982983 
L 434.229423 180.257942 
L 434.506588 218.839515 
L 434.783753 214.995127 
L 435.060918 258.72921 
L 435.338083 188.193258 
L 435.615247 291.487476 
L 435.892412 147.70848 
L 436.446742 323.788734 
L 436.723907 242.720407 
L 437.001072 287.989101 
L 437.278237 257.88664 
L 437.555401 258.243927 
L 437.832566 227.795873 
L 438.109731 243.243695 
L 438.386896 213.041034 
L 438.664061 273.788485 
L 438.941226 276.862929 
L 439.21839 189.44041 
L 439.495555 265.059044 
L 439.77272 183.255344 
L 440.049885 217.799059 
L 440.32705 233.162469 
L 440.604215 213.064077 
L 441.158544 237.886842 
L 441.435709 183.313566 
L 441.712874 239.265281 
L 441.990039 246.446063 
L 442.267204 211.200762 
L 442.544369 233.567813 
L 442.821533 215.023948 
L 443.098698 159.017075 
L 443.375863 217.564146 
L 443.653028 238.703965 
L 443.930193 185.587058 
L 444.207358 252.331759 
L 444.484523 224.009228 
L 444.761687 284.865171 
L 445.038852 207.19033 
L 445.316017 253.022322 
L 445.593182 234.387864 
L 445.870347 256.944027 
L 446.147512 223.444235 
L 446.424677 204.674702 
L 446.701841 211.969339 
L 446.979006 166.741463 
L 447.256171 246.480454 
L 447.533336 181.785219 
L 447.810501 194.325831 
L 448.087666 231.462414 
L 448.36483 193.69929 
L 448.641995 240.106601 
L 448.91916 194.093519 
L 449.196325 263.069993 
L 449.47349 205.603244 
L 449.750655 259.619826 
L 450.02782 260.534017 
L 450.304984 231.239468 
L 450.582149 219.394018 
L 450.859314 247.10789 
L 451.136479 228.071737 
L 451.413644 224.374335 
L 451.690809 218.295381 
L 451.967973 195.958253 
L 452.245138 239.695114 
L 452.522303 231.740894 
L 453.076633 223.681599 
L 453.353798 227.702757 
L 453.908127 241.902098 
L 454.185292 173.486253 
L 454.462457 272.335051 
L 454.739622 208.738292 
L 455.016787 239.625784 
L 455.293952 222.916838 
L 455.571116 250.999851 
L 455.848281 227.614165 
L 456.125446 233.000592 
L 456.402611 251.909109 
L 456.679776 192.655047 
L 456.956941 210.928821 
L 457.234106 249.523573 
L 457.51127 249.687382 
L 457.788435 244.097495 
L 458.0656 219.17972 
L 458.342765 259.2125 
L 458.61993 201.39536 
L 458.897095 234.941342 
L 459.17426 183.520423 
L 459.451424 180.546101 
L 459.728589 244.282791 
L 460.005754 240.582316 
L 460.282919 243.980067 
L 460.560084 234.000108 
L 460.837249 219.084398 
L 461.114413 256.118627 
L 461.391578 206.443893 
L 461.668743 255.246451 
L 461.945908 214.182856 
L 462.223073 200.738574 
L 462.500238 237.726371 
L 462.777403 239.298383 
L 463.054567 246.45019 
L 463.331732 227.574902 
L 463.608897 231.054884 
L 463.886062 215.926143 
L 464.163227 255.124365 
L 464.440392 167.508777 
L 464.717556 246.914435 
L 464.994721 235.245189 
L 465.271886 233.34364 
L 465.549051 220.160167 
L 465.826216 197.187425 
L 466.103381 250.168883 
L 466.380546 204.574604 
L 466.65771 208.761958 
L 466.934875 215.93643 
L 467.21204 206.289371 
L 467.489205 216.994984 
L 467.76637 238.713144 
L 468.043535 174.39435 
L 468.3207 259.611092 
L 468.597864 258.61994 
L 469.152194 232.119526 
L 469.429359 246.09337 
L 469.706524 164.630597 
L 469.983689 231.744095 
L 470.260853 231.207948 
L 470.538018 257.053533 
L 470.815183 250.307688 
L 471.092348 235.046854 
L 471.369513 257.146162 
L 471.646678 186.101759 
L 472.201007 244.936226 
L 472.478172 234.046112 
L 472.755337 230.017077 
L 473.032502 219.972684 
L 473.309667 248.586034 
L 473.586832 226.029017 
L 473.863996 242.437072 
L 474.141161 190.127566 
L 474.418326 247.587009 
L 474.695491 239.957121 
L 474.972656 219.338289 
L 475.249821 235.004497 
L 475.526986 220.493645 
L 475.80415 243.097515 
L 476.081315 200.756857 
L 476.35848 238.391548 
L 476.635645 210.478028 
L 476.91281 269.80552 
L 477.189975 183.221226 
L 477.467139 277.861107 
L 477.744304 209.132712 
L 478.298634 230.477769 
L 478.575799 202.876939 
L 479.407293 238.399841 
L 479.684458 204.136233 
L 479.961623 253.975045 
L 480.238788 257.615376 
L 480.515953 145.818964 
L 480.793118 223.086476 
L 481.070283 213.786692 
L 481.347447 251.003111 
L 481.624612 224.149054 
L 481.901777 235.91706 
L 482.178942 232.590001 
L 482.456107 243.440805 
L 482.733272 237.430015 
L 483.010436 258.438397 
L 483.287601 187.114584 
L 483.564766 181.939598 
L 483.841931 260.481036 
L 484.119096 228.075729 
L 484.396261 209.045701 
L 484.95059 218.671241 
L 485.227755 215.65609 
L 485.50492 217.599334 
L 485.782085 217.41061 
L 486.05925 237.573129 
L 486.336415 266.942264 
L 486.613579 255.074441 
L 486.890744 201.660232 
L 487.167909 281.564512 
L 487.445074 188.941488 
L 487.722239 249.247905 
L 487.999404 166.039681 
L 488.276569 222.677132 
L 488.553733 219.135278 
L 488.830898 240.04363 
L 489.385228 208.928897 
L 489.662393 249.205993 
L 490.216722 221.871548 
L 490.493887 263.873234 
L 490.771052 225.07354 
L 491.325382 269.834783 
L 491.602547 203.304916 
L 492.156876 250.778196 
L 492.434041 257.739242 
L 492.711206 232.705572 
L 492.988371 184.642044 
L 493.265536 238.786884 
L 493.542701 234.117473 
L 493.819866 223.363576 
L 494.09703 241.171303 
L 494.374195 209.554531 
L 494.65136 242.001814 
L 494.928525 230.597528 
L 495.20569 244.513453 
L 495.482855 208.864699 
L 495.760019 248.990243 
L 496.037184 209.313564 
L 496.314349 222.388338 
L 496.591514 199.701722 
L 496.868679 229.730068 
L 497.145844 183.838269 
L 497.423009 247.147351 
L 497.700173 239.822622 
L 497.977338 262.768991 
L 498.254503 257.034436 
L 498.531668 237.625737 
L 499.085998 190.515569 
L 499.363162 204.370684 
L 499.640327 198.789664 
L 499.917492 242.570494 
L 500.194657 215.161492 
L 500.471822 231.7609 
L 500.748987 236.386795 
L 501.026152 178.626443 
L 501.303316 219.508877 
L 501.580481 218.318738 
L 501.857646 236.507487 
L 502.134811 229.773167 
L 502.411976 240.349611 
L 502.689141 268.958855 
L 502.966305 220.684885 
L 503.24347 212.477096 
L 503.520635 277.900869 
L 503.7978 214.100982 
L 504.35213 252.036271 
L 504.629295 231.672519 
L 504.906459 160.303914 
L 505.460789 189.225994 
L 506.015119 173.995808 
L 506.292284 208.564754 
L 506.569449 280.338904 
L 506.846613 246.482018 
L 507.123778 271.244979 
L 507.400943 214.387544 
L 507.678108 255.842448 
L 507.955273 183.375061 
L 508.509602 270.818548 
L 508.786767 270.180921 
L 509.063932 253.28027 
L 509.341097 287.300635 
L 509.618262 207.585273 
L 509.895427 241.466764 
L 510.172592 185.052384 
L 510.449756 191.274024 
L 510.726921 249.134204 
L 511.004086 235.120982 
L 511.281251 282.994923 
L 511.558416 283.748223 
L 511.835581 181.575638 
L 512.112745 256.489672 
L 512.38991 227.367012 
L 512.667075 261.891522 
L 512.94424 157.115856 
L 513.221405 149.651961 
L 513.775735 242.22179 
L 514.052899 167.03516 
L 514.607229 202.282381 
L 514.884394 190.902774 
L 515.161559 218.010156 
L 515.438724 226.803391 
L 515.715889 269.895794 
L 515.993053 220.973648 
L 516.270218 237.093055 
L 516.547383 209.185498 
L 516.824548 263.904535 
L 517.101713 249.714172 
L 517.378878 222.795901 
L 517.656042 233.528388 
L 517.933207 226.472021 
L 518.210372 306.353534 
L 518.487537 290.019371 
L 518.764702 193.604476 
L 519.041867 161.860179 
L 519.596196 315.54799 
L 519.873361 224.07664 
L 520.150526 265.913144 
L 520.427691 194.493808 
L 520.704856 242.528693 
L 520.982021 179.041036 
L 521.259185 241.386362 
L 521.53635 236.738091 
L 521.813515 272.443645 
L 522.09068 196.603407 
L 522.367845 282.977924 
L 522.64501 199.663891 
L 522.922175 246.723216 
L 523.199339 246.089944 
L 523.476504 187.463532 
L 523.753669 259.65406 
L 524.030834 195.065687 
L 524.307999 157.166056 
L 524.585164 261.450998 
L 524.862328 137.146698 
L 525.139493 266.885 
L 525.416658 256.42926 
L 525.693823 233.362336 
L 525.970988 243.381171 
L 526.248153 261.368601 
L 526.525318 240.642126 
L 526.802482 158.442047 
L 527.633977 272.741924 
L 527.911142 210.188107 
L 528.188307 229.553274 
L 528.465472 166.87738 
L 529.019801 270.682738 
L 529.296966 168.679235 
L 529.574131 226.980363 
L 529.851296 259.569978 
L 530.128461 263.418449 
L 530.405625 231.045448 
L 530.68279 181.079607 
L 530.959955 258.717268 
L 531.23712 189.082626 
L 531.514285 263.808649 
L 531.79145 187.115469 
L 532.068615 265.735137 
L 532.345779 211.712275 
L 532.622944 237.24088 
L 532.900109 177.718441 
L 533.454439 268.938246 
L 533.731604 178.045825 
L 534.008768 289.955463 
L 534.285933 251.378273 
L 534.563098 235.068579 
L 534.840263 253.710342 
L 535.117428 213.920335 
L 535.394593 210.8718 
L 535.671758 221.889102 
L 535.948922 267.508788 
L 536.226087 254.963138 
L 536.503252 225.256173 
L 536.780417 273.029794 
L 537.057582 216.260247 
L 537.334747 239.948514 
L 537.611911 252.358279 
L 537.889076 239.713281 
L 538.166241 214.527312 
L 538.443406 209.784565 
L 538.720571 192.807189 
L 538.997736 190.072322 
L 539.274901 226.7316 
L 539.552065 232.137881 
L 539.82923 219.78817 
L 540.106395 179.782648 
L 540.38356 261.182295 
L 540.660725 221.799543 
L 540.93789 217.510381 
L 541.215055 232.689246 
L 541.492219 211.892812 
L 541.769384 266.987536 
L 542.046549 245.602544 
L 542.323714 179.151523 
L 542.600879 171.740775 
L 542.878044 218.552715 
L 543.155208 230.971641 
L 543.432373 189.042782 
L 543.709538 282.424508 
L 543.986703 236.652768 
L 544.263868 231.197141 
L 544.541033 186.735928 
L 544.818198 256.639814 
L 545.095362 230.455412 
L 545.372527 240.245773 
L 545.649692 230.962991 
L 545.926857 240.729448 
L 546.204022 175.579493 
L 546.481187 218.990834 
L 546.758351 243.383862 
L 547.035516 241.15963 
L 547.312681 242.669375 
L 547.589846 228.539517 
L 547.867011 235.028579 
L 548.144176 192.958616 
L 548.421341 238.29357 
L 548.698505 236.939932 
L 548.97567 261.599404 
L 549.252835 193.827168 
L 549.807165 215.604671 
L 550.361494 209.172522 
L 550.638659 205.987955 
L 551.192989 249.189568 
L 551.470154 254.842207 
L 551.747319 203.336364 
L 552.024484 216.938312 
L 552.301648 222.550136 
L 552.578813 267.960558 
L 552.855978 280.733437 
L 553.133143 247.588138 
L 553.410308 233.270907 
L 553.687473 226.314033 
L 553.964638 229.930471 
L 554.241802 228.151707 
L 554.518967 236.222061 
L 554.796132 216.219451 
L 555.073297 241.950466 
L 555.350462 193.145365 
L 555.627627 176.995435 
L 555.904791 235.135479 
L 556.181956 245.977108 
L 556.459121 244.89972 
L 556.736286 235.463995 
L 557.290616 241.19542 
L 557.844945 214.173624 
L 558.12211 167.822387 
L 558.399275 207.000059 
L 558.67644 220.121202 
L 558.953605 265.974854 
L 559.23077 267.395612 
L 559.785099 248.469572 
L 560.062264 228.636772 
L 560.339429 270.760933 
L 560.616594 180.629795 
L 560.893759 198.170216 
L 561.170924 203.570681 
L 561.448088 219.816504 
L 561.725253 227.962719 
L 562.002418 272.340235 
L 562.279583 219.856977 
L 562.556748 204.19021 
L 562.833913 239.50236 
L 563.111077 249.444039 
L 563.388242 196.395434 
L 563.665407 206.384337 
L 563.942572 196.878212 
L 564.496902 278.709329 
L 564.774067 251.890862 
L 565.051231 145.304562 
L 565.328396 279.52278 
L 565.882726 185.584667 
L 566.159891 213.453891 
L 566.437056 181.440571 
L 566.714221 223.907915 
L 566.991385 220.434988 
L 567.26855 192.461437 
L 567.545715 246.001782 
L 567.82288 216.664508 
L 568.100045 301.850881 
L 568.37721 250.346626 
L 568.654374 231.614501 
L 568.931539 223.195727 
L 569.208704 255.739671 
L 569.485869 205.210665 
L 569.763034 201.621074 
L 570.040199 284.960031 
L 570.317364 124.966613 
L 570.594528 287.962634 
L 570.871693 218.772455 
L 571.148858 241.601097 
L 571.426023 215.101008 
L 571.703188 216.397654 
L 571.980353 157.886906 
L 572.257517 212.67545 
L 572.534682 206.717311 
L 572.811847 300.474537 
L 573.089012 221.653043 
L 573.366177 220.599702 
L 573.920507 246.088753 
L 574.474836 224.753284 
L 574.752001 212.381509 
L 575.029166 279.359643 
L 575.306331 238.045375 
L 575.583496 230.644241 
L 575.860661 275.216368 
L 576.137825 184.495267 
L 576.692155 228.155278 
L 576.96932 259.039677 
L 577.246485 220.205062 
L 577.52365 272.091374 
L 577.800814 206.064908 
L 578.077979 194.788033 
L 578.355144 175.70917 
L 578.632309 217.956158 
L 578.909474 226.609443 
L 579.186639 225.718847 
L 579.463804 210.836807 
L 579.740968 247.400745 
L 580.018133 220.35787 
L 580.295298 276.862738 
L 580.572463 254.484632 
L 580.849628 217.135953 
L 581.126793 225.813129 
L 581.403957 269.871356 
L 581.681122 246.858249 
L 581.958287 263.743924 
L 582.235452 258.388695 
L 582.512617 196.431688 
L 582.789782 179.177152 
L 583.344111 206.792673 
L 583.621276 234.628017 
L 583.898441 188.24139 
L 584.175606 210.593611 
L 584.452771 257.053241 
L 584.729936 260.100633 
L 585.0071 183.178892 
L 585.284265 188.333091 
L 585.56143 177.341141 
L 586.11576 317.896701 
L 586.392925 225.044286 
L 586.67009 244.234181 
L 586.947254 225.912045 
L 587.224419 268.117472 
L 587.501584 198.203229 
L 587.778749 190.774025 
L 588.055914 215.515858 
L 588.333079 277.369737 
L 588.610244 224.035505 
L 588.887408 224.331438 
L 589.164573 216.406598 
L 589.441738 272.19953 
L 589.718903 274.50343 
L 589.996068 192.767551 
L 590.273233 149.183768 
L 590.827562 255.567384 
L 591.104727 266.2603 
L 591.381892 211.435995 
L 591.659057 188.744699 
L 591.936222 195.411958 
L 592.213387 247.401896 
L 592.490551 278.326786 
L 592.767716 161.686005 
L 593.044881 184.136023 
L 593.322046 279.676156 
L 593.599211 206.8987 
L 593.876376 206.840816 
L 594.15354 241.001531 
L 594.430705 211.839941 
L 594.70787 251.83303 
L 594.985035 209.500657 
L 595.2622 258.416659 
L 595.539365 280.05007 
L 595.81653 164.347551 
L 596.370859 252.662598 
L 596.648024 224.43079 
L 596.925189 288.014822 
L 597.202354 173.80963 
L 597.479519 198.709715 
L 597.756683 256.283321 
L 598.033848 160.252025 
L 598.311013 264.780956 
L 598.865343 234.320339 
L 599.142508 287.904286 
L 599.419673 200.056618 
L 599.696837 211.830247 
L 599.974002 234.443122 
L 600.251167 200.671356 
L 600.528332 283.135788 
L 600.805497 274.260755 
L 601.082662 165.464106 
L 601.359827 192.511795 
L 601.636991 323.535269 
L 602.191321 151.790188 
L 602.468486 215.343003 
L 602.745651 213.13597 
L 603.022816 277.302145 
L 603.29998 166.168481 
L 603.577145 228.017263 
L 603.85431 237.662676 
L 604.131475 199.519511 
L 604.40864 223.732597 
L 604.685805 234.597682 
L 604.96297 261.506448 
L 605.240134 238.533732 
L 605.517299 259.990346 
L 605.794464 252.276999 
L 606.071629 276.232889 
L 606.348794 219.616703 
L 606.903123 243.041421 
L 607.180288 244.140902 
L 607.457453 204.285232 
L 607.734618 211.955987 
L 608.011783 247.456599 
L 608.288948 179.206822 
L 608.566113 208.298298 
L 608.843277 257.444773 
L 609.120442 215.527496 
L 609.397607 228.02191 
L 609.674772 217.566859 
L 609.951937 216.971099 
L 610.229102 255.035691 
L 610.506266 217.837187 
L 610.783431 208.124847 
L 611.337761 230.063154 
L 611.614926 207.79938 
L 611.892091 229.305995 
L 612.169256 217.916527 
L 612.44642 211.333113 
L 612.723585 224.943304 
L 613.00075 218.789735 
L 613.277915 229.213647 
L 613.55508 221.735025 
L 613.832245 253.917067 
L 614.10941 242.496234 
L 614.386574 256.625011 
L 614.663739 376.097159 
L 614.940904 275.533115 
L 615.218069 317.857817 
L 615.495234 96.356063 
L 615.772399 151.242719 
L 616.049563 169.270485 
L 616.326728 210.362011 
L 616.603893 188.383782 
L 616.881058 212.732099 
L 617.435388 228.842845 
L 617.712553 224.758624 
L 617.989717 197.647628 
L 618.266882 194.03228 
L 618.544047 159.017356 
L 618.821212 266.181898 
L 619.098377 266.140654 
L 619.375542 236.42535 
L 619.652706 266.917147 
L 619.929871 254.306947 
L 620.207036 279.706388 
L 620.484201 207.298291 
L 620.761366 196.463187 
L 621.038531 250.022121 
L 621.315696 198.141746 
L 621.870025 155.023796 
L 622.14719 273.301447 
L 622.424355 233.211697 
L 622.70152 320.099659 
L 622.978685 218.156994 
L 623.533014 232.850957 
L 623.810179 193.940465 
L 624.087344 238.265196 
L 624.364509 260.474199 
L 624.641674 203.818018 
L 624.918839 202.77749 
L 625.196003 194.28781 
L 625.473168 322.10289 
L 626.027498 145.793528 
L 626.304663 261.584552 
L 626.581828 217.456797 
L 626.858993 205.94648 
L 627.136157 277.886838 
L 627.413322 191.169079 
L 627.690487 241.656349 
L 627.967652 201.809094 
L 628.521982 317.083628 
L 628.799146 242.969519 
L 629.076311 199.791164 
L 629.353476 214.577277 
L 629.630641 222.548254 
L 629.907806 209.992917 
L 630.184971 182.538683 
L 630.7393 287.754896 
L 631.016465 199.639826 
L 631.29363 245.023406 
L 631.570795 262.569077 
L 631.84796 205.507939 
L 632.125125 209.055218 
L 632.402289 222.807866 
L 632.679454 216.419301 
L 632.956619 185.893316 
L 633.233784 232.858352 
L 633.510949 203.059966 
L 633.788114 211.061776 
L 634.065279 284.12414 
L 634.619608 184.767293 
L 634.896773 220.151516 
L 635.173938 223.774603 
L 635.451103 152.459233 
L 635.728268 251.048758 
L 636.005433 287.811537 
L 636.282597 190.221317 
L 636.559762 267.146436 
L 636.836927 172.335773 
L 637.114092 236.602011 
L 637.391257 225.478594 
L 637.668422 242.433992 
L 637.945586 274.978705 
L 638.222751 220.069835 
L 638.499916 193.52098 
L 638.777081 252.110801 
L 639.054246 184.367277 
L 639.331411 219.58985 
L 639.608576 280.188031 
L 639.88574 276.088468 
L 640.162905 203.134644 
L 640.44007 180.789082 
L 640.717235 183.579604 
L 640.9944 221.302283 
L 641.271565 213.199183 
L 641.548729 185.364116 
L 641.825894 358.938655 
L 642.103059 179.84702 
L 642.380224 266.483543 
L 642.657389 287.903853 
L 642.934554 265.390311 
L 643.211719 212.958489 
L 643.488883 245.916679 
L 643.766048 264.720366 
L 644.043213 157.174424 
L 644.320378 231.15695 
L 644.597543 243.635305 
L 645.151872 190.46386 
L 645.429037 226.251374 
L 646.260532 197.650438 
L 646.537697 212.025585 
L 646.814862 274.34316 
L 647.092026 229.283532 
L 647.369191 256.864337 
L 647.646356 187.881226 
L 647.923521 243.115533 
L 648.200686 221.593826 
L 648.477851 216.498234 
L 648.755016 225.695952 
L 649.03218 243.146082 
L 649.309345 205.892505 
L 649.58651 214.950534 
L 649.863675 192.97558 
L 650.14084 259.151425 
L 650.418005 206.603003 
L 650.695169 198.612882 
L 650.972334 276.782137 
L 651.249499 136.658753 
L 651.526664 235.053914 
L 651.803829 222.397993 
L 652.080994 257.704169 
L 652.358159 242.029524 
L 652.635323 213.131592 
L 652.912488 234.95125 
L 653.189653 231.54387 
L 653.466818 222.845211 
L 653.743983 201.839743 
L 654.021148 272.129064 
L 654.298312 254.234127 
L 654.575477 214.590964 
L 654.852642 262.383883 
L 655.129807 227.165448 
L 655.406972 225.284339 
L 655.684137 197.553528 
L 655.961302 208.546256 
L 656.238466 270.357529 
L 656.515631 168.380202 
L 656.792796 234.41769 
L 657.069961 234.271204 
L 657.347126 248.892655 
L 657.624291 205.438984 
L 657.901455 245.460969 
L 658.17862 226.62958 
L 658.455785 250.018085 
L 658.73295 218.131284 
L 659.010115 239.965839 
L 659.28728 227.484669 
L 659.564445 229.279416 
L 659.841609 214.161065 
L 660.118774 214.697089 
L 660.673104 264.339174 
L 660.950269 179.908232 
L 661.504599 248.034761 
L 661.781763 199.837266 
L 662.058928 244.430917 
L 662.336093 236.253758 
L 662.613258 195.381843 
L 662.890423 188.224768 
L 663.444752 282.79556 
L 663.721917 199.11743 
L 663.999082 199.7858 
L 664.276247 222.255953 
L 664.553412 225.383093 
L 664.830577 238.682147 
L 665.107742 194.287847 
L 665.384906 257.123618 
L 666.216401 204.690255 
L 666.493566 260.599034 
L 666.770731 221.142997 
L 667.047895 256.296005 
L 667.32506 226.072181 
L 667.602225 227.166419 
L 667.87939 236.502996 
L 668.156555 286.311691 
L 668.710885 196.616582 
L 668.988049 263.650522 
L 669.265214 245.790171 
L 669.542379 196.859468 
L 669.819544 231.743174 
L 670.096709 222.028164 
L 670.373874 222.497646 
L 670.651038 181.997071 
L 671.205368 257.380152 
L 671.759698 197.348467 
L 672.036863 238.817455 
L 672.314028 187.556001 
L 672.591192 235.371044 
L 672.868357 254.116548 
L 673.422687 207.467558 
L 673.699852 238.19764 
L 673.977017 236.032558 
L 674.254182 228.162746 
L 674.531346 225.084595 
L 674.808511 193.861263 
L 675.085676 234.35557 
L 675.362841 223.489942 
L 675.362841 223.489942 
" clip-path="url(#pc5aaaf71ef)" style="fill: none; stroke: #2878b5; stroke-width: 1.5; stroke-linecap: square"/>
   </g>
   <g id="line2d_22">
    <path d="M 37.73125 227.325606 
L 705.72625 227.325606 
" clip-path="url(#pc5aaaf71ef)" style="fill: none; stroke-dasharray: 7.4,3.2; stroke-dashoffset: 0; stroke: #c82423; stroke-width: 2"/>
   </g>
   <g id="patch_3">
    <path d="M 37.73125 392.71875 
L 37.73125 27.04375 
" style="fill: none; stroke: #000000; stroke-width: 0.8; stroke-linejoin: miter; stroke-linecap: square"/>
   </g>
   <g id="patch_4">
    <path d="M 705.72625 392.71875 
L 705.72625 27.04375 
" style="fill: none; stroke: #000000; stroke-width: 0.8; stroke-linejoin: miter; stroke-linecap: square"/>
   </g>
   <g id="patch_5">
    <path d="M 37.73125 392.71875 
L 705.72625 392.71875 
" style="fill: none; stroke: #000000; stroke-width: 0.8; stroke-linejoin: miter; stroke-linecap: square"/>
   </g>
   <g id="patch_6">
    <path d="M 37.73125 27.04375 
L 705.72625 27.04375 
" style="fill: none; stroke: #000000; stroke-width: 0.8; stroke-linejoin: miter; stroke-linecap: square"/>
   </g>
   <g id="text_13">
    <!-- TN_mg/L 预测残差分析 -->
    <g transform="translate(311.72875 17.04375) scale(0.12 -0.12)">
     <defs>
      <path id="SimHei-54" d="M 2850 3925 
L 1850 3925 
L 1850 125 
L 1275 125 
L 1275 3925 
L 275 3925 
L 275 4400 
L 2850 4400 
L 2850 3925 
z
" transform="scale(0.015625)"/>
      <path id="SimHei-4e" d="M 2850 125 
L 2225 125 
L 850 3225 
L 825 3225 
L 825 125 
L 250 125 
L 250 4400 
L 875 4400 
L 2250 1300 
L 2275 1300 
L 2275 4400 
L 2850 4400 
L 2850 125 
z
" transform="scale(0.015625)"/>
      <path id="SimHei-5f" d="M 3150 -850 
L 0 -850 
L 0 -550 
L 3150 -550 
L 3150 -850 
z
" transform="scale(0.015625)"/>
      <path id="SimHei-6d" d="M 3050 125 
L 2550 125 
L 2550 2150 
Q 2550 2300 2500 2400 
Q 2450 2500 2300 2500 
Q 2125 2500 1975 2312 
Q 1825 2125 1825 1825 
L 1825 125 
L 1325 125 
L 1325 2150 
Q 1325 2300 1275 2400 
Q 1225 2500 1075 2500 
Q 900 2500 750 2312 
Q 600 2125 600 1825 
L 600 125 
L 100 125 
L 100 2925 
L 600 2925 
L 600 2550 
Q 725 2750 900 2862 
Q 1075 2975 1275 2975 
Q 1475 2975 1612 2862 
Q 1750 2750 1800 2550 
Q 1925 2750 2087 2862 
Q 2250 2975 2450 2975 
Q 2750 2975 2900 2812 
Q 3050 2650 3050 2350 
L 3050 125 
z
" transform="scale(0.015625)"/>
      <path id="SimHei-67" d="M 2975 2500 
Q 2800 2550 2637 2562 
Q 2475 2575 2300 2525 
Q 2375 2450 2425 2337 
Q 2475 2225 2475 2000 
Q 2475 1575 2187 1300 
Q 1900 1025 1475 1025 
Q 1375 1025 1212 1062 
Q 1050 1100 950 1150 
Q 875 1100 850 1050 
Q 825 1000 825 925 
Q 825 800 1000 737 
Q 1175 675 1625 675 
Q 2350 675 2612 475 
Q 2875 275 2875 -25 
Q 2875 -425 2487 -612 
Q 2100 -800 1575 -800 
Q 900 -800 575 -625 
Q 250 -450 250 -150 
Q 250 0 375 150 
Q 500 300 700 400 
Q 550 475 462 587 
Q 375 700 375 875 
Q 375 1025 487 1137 
Q 600 1250 750 1325 
Q 625 1450 550 1625 
Q 475 1800 475 2000 
Q 475 2425 762 2700 
Q 1050 2975 1475 2975 
Q 1700 2975 1862 2912 
Q 2025 2850 2150 2725 
Q 2350 2875 2550 2937 
Q 2750 3000 2975 2975 
L 2975 2500 
z
M 1975 2000 
Q 1975 2250 1850 2400 
Q 1725 2550 1475 2550 
Q 1225 2550 1100 2400 
Q 975 2250 975 2000 
Q 975 1750 1100 1600 
Q 1225 1450 1475 1450 
Q 1725 1450 1850 1600 
Q 1975 1750 1975 2000 
z
M 2400 -75 
Q 2400 25 2287 125 
Q 2175 225 1725 225 
Q 1625 225 1450 237 
Q 1275 250 1050 275 
Q 850 200 775 100 
Q 700 0 700 -100 
Q 700 -250 900 -350 
Q 1100 -450 1600 -450 
Q 2025 -450 2212 -337 
Q 2400 -225 2400 -75 
z
" transform="scale(0.015625)"/>
      <path id="SimHei-4c" d="M 2900 125 
L 300 125 
L 300 4400 
L 875 4400 
L 875 600 
L 2900 600 
L 2900 125 
z
" transform="scale(0.015625)"/>
      <path id="SimHei-9884" d="M 5200 4800 
Q 5575 4800 5950 4825 
L 5950 4400 
Q 5575 4425 5200 4425 
L 4500 4425 
Q 4425 4050 4350 3600 
L 5725 3600 
Q 5700 3225 5700 2800 
L 5700 1725 
Q 5700 1300 5725 850 
L 5250 850 
L 5250 3225 
L 3550 3225 
L 3550 800 
L 3075 800 
Q 3100 1375 3100 1725 
L 3100 2775 
Q 3100 3175 3075 3600 
L 3900 3600 
Q 4000 4150 4000 4425 
L 3725 4425 
Q 3300 4425 2850 4400 
L 2850 4825 
Q 3325 4800 3725 4800 
L 5200 4800 
z
M 2600 1775 
Q 2350 1825 2150 1825 
Q 2250 2250 2300 2450 
L 1750 2450 
L 1750 125 
Q 1725 -300 1425 -400 
Q 1125 -500 750 -500 
Q 700 -225 575 25 
Q 1125 -25 1212 37 
Q 1300 100 1300 350 
L 1300 2450 
L 1025 2450 
Q 700 2450 350 2425 
L 350 2850 
Q 700 2825 1000 2825 
L 2850 2825 
Q 2725 2325 2600 1775 
z
M 4725 2875 
Q 4625 2575 4600 2100 
Q 4575 1625 4462 1037 
Q 4350 450 3962 62 
Q 3575 -325 2925 -675 
Q 2700 -500 2475 -350 
Q 3075 -125 3437 200 
Q 3800 525 3950 937 
Q 4100 1350 4137 1850 
Q 4175 2350 4175 2925 
L 4725 2875 
z
M 1625 2900 
Q 1275 3275 800 3650 
Q 925 3775 1075 3950 
Q 1250 3825 1425 3675 
Q 1750 4150 1950 4375 
L 1400 4375 
Q 900 4375 450 4350 
L 450 4775 
Q 900 4750 1375 4750 
L 2575 4750 
L 2575 4375 
Q 2200 4100 1725 3400 
L 1950 3200 
Q 1750 3025 1625 2900 
z
M 4775 725 
Q 5725 0 6075 -325 
Q 5850 -500 5725 -650 
Q 5400 -325 5137 -87 
Q 4875 150 4525 350 
Q 4650 525 4775 725 
z
" transform="scale(0.015625)"/>
      <path id="SimHei-6d4b" d="M 4025 4725 
Q 4000 4475 4000 4000 
L 4000 2225 
Q 4000 1775 4025 1350 
L 3550 1350 
L 3550 4325 
L 2350 4325 
L 2350 1325 
L 1900 1325 
Q 1925 1775 1925 2225 
L 1925 4000 
Q 1925 4200 1900 4725 
L 4025 4725 
z
M 5900 5075 
Q 5875 4800 5875 4375 
L 5875 0 
Q 5875 -325 5650 -425 
Q 5425 -525 4975 -600 
Q 4925 -325 4775 -50 
Q 5125 -50 5262 -25 
Q 5400 0 5400 250 
L 5400 4375 
Q 5400 4775 5375 5075 
L 5900 5075 
z
M 3275 3725 
Q 3225 3400 3200 2325 
Q 3175 1250 2837 550 
Q 2500 -150 2075 -600 
Q 1850 -400 1600 -325 
Q 2200 250 2475 962 
Q 2750 1675 2762 2475 
Q 2775 3275 2725 3800 
Q 3000 3750 3275 3725 
z
M 4950 4275 
Q 4925 4000 4925 3575 
L 4925 1825 
Q 4925 1300 4950 850 
L 4450 850 
Q 4475 1150 4475 1825 
L 4475 3575 
Q 4475 4000 4450 4275 
L 4950 4275 
z
M 1700 1675 
Q 1375 1075 1112 487 
Q 850 -100 725 -400 
Q 500 -200 200 -25 
Q 475 300 762 850 
Q 1050 1400 1250 2000 
Q 1475 1825 1700 1675 
z
M 3400 1050 
Q 3800 650 4300 -125 
Q 4100 -225 3875 -450 
Q 3475 275 3025 750 
Q 3225 875 3400 1050 
z
M 600 3525 
Q 1125 3125 1500 2775 
Q 1300 2575 1150 2375 
Q 825 2775 300 3150 
Q 450 3300 600 3525 
z
M 1350 4000 
Q 950 4375 475 4675 
Q 625 4850 775 5050 
Q 1300 4700 1675 4375 
Q 1500 4250 1350 4000 
z
" transform="scale(0.015625)"/>
      <path id="SimHei-5206" d="M 1000 -650 
Q 825 -375 575 -225 
Q 975 -75 1300 137 
Q 1625 350 1875 662 
Q 2125 975 2250 1350 
Q 2375 1725 2425 2275 
Q 1850 2275 1500 2250 
L 1500 2775 
Q 1900 2750 2525 2750 
L 5025 2750 
Q 4975 2375 4950 2100 
L 4750 250 
Q 4700 -200 4350 -350 
Q 4000 -500 3575 -525 
Q 3550 -275 3325 50 
Q 3850 25 4037 87 
Q 4225 150 4275 525 
L 4450 2275 
L 2950 2275 
Q 2875 1625 2737 1187 
Q 2600 750 2350 425 
Q 2100 100 1750 -175 
Q 1400 -450 1000 -650 
z
M 3950 5175 
Q 4125 4650 4662 3975 
Q 5200 3300 6175 2800 
Q 5975 2625 5775 2275 
Q 5325 2600 4987 2887 
Q 4650 3175 4425 3425 
Q 4200 3675 3925 4137 
Q 3650 4600 3475 5000 
Q 3750 5075 3950 5175 
z
M 2700 4825 
Q 2475 4425 2325 4125 
Q 2175 3825 2025 3587 
Q 1875 3350 1575 2950 
Q 1275 2550 850 2125 
Q 625 2350 400 2475 
Q 900 2925 1187 3300 
Q 1475 3675 1737 4112 
Q 2000 4550 2200 5075 
Q 2400 4925 2700 4825 
z
" transform="scale(0.015625)"/>
      <path id="SimHei-6790" d="M 5900 4550 
Q 5575 4525 5087 4450 
Q 4600 4375 3725 4275 
L 3725 3075 
L 5400 3075 
Q 5725 3075 6150 3100 
L 6150 2650 
Q 5700 2675 5250 2675 
L 5250 350 
Q 5250 -100 5275 -475 
L 4750 -475 
Q 4775 -75 4775 375 
L 4775 2675 
L 3725 2675 
Q 3725 2175 3650 1637 
Q 3575 1100 3437 637 
Q 3300 175 2850 -500 
Q 2675 -300 2275 -150 
Q 2825 325 3050 1112 
Q 3275 1900 3262 3000 
Q 3250 4100 3225 4650 
Q 3975 4700 4562 4800 
Q 5150 4900 5500 5050 
Q 5675 4750 5900 4550 
z
M 1900 525 
Q 1900 200 1925 -525 
L 1400 -525 
Q 1425 25 1425 525 
L 1425 2250 
Q 1175 1625 600 800 
Q 425 1075 200 1225 
Q 650 1725 962 2387 
Q 1275 3050 1375 3425 
Q 925 3425 450 3400 
L 450 3850 
Q 925 3825 1425 3825 
L 1425 4450 
Q 1425 4775 1400 5125 
L 1950 5125 
Q 1900 4825 1900 4450 
L 1900 3825 
Q 2300 3825 2775 3850 
L 2775 3400 
Q 2300 3425 1900 3425 
L 1900 525 
z
M 2375 2750 
Q 2800 2050 2925 1800 
Q 2700 1700 2450 1550 
Q 2300 1900 1950 2525 
Q 2175 2625 2375 2750 
z
" transform="scale(0.015625)"/>
     </defs>
     <use xlink:href="#SimHei-54"/>
     <use xlink:href="#SimHei-4e" transform="translate(50 0)"/>
     <use xlink:href="#SimHei-5f" transform="translate(100 0)"/>
     <use xlink:href="#SimHei-6d" transform="translate(150 0)"/>
     <use xlink:href="#SimHei-67" transform="translate(200 0)"/>
     <use xlink:href="#SimHei-2f" transform="translate(250 0)"/>
     <use xlink:href="#SimHei-4c" transform="translate(300 0)"/>
     <use xlink:href="#SimHei-20" transform="translate(350 0)"/>
     <use xlink:href="#SimHei-9884" transform="translate(400 0)"/>
     <use xlink:href="#SimHei-6d4b" transform="translate(500 0)"/>
     <use xlink:href="#SimHei-6b8b" transform="translate(600 0)"/>
     <use xlink:href="#SimHei-5dee" transform="translate(700 0)"/>
     <use xlink:href="#SimHei-5206" transform="translate(800 0)"/>
     <use xlink:href="#SimHei-6790" transform="translate(900 0)"/>
    </g>
   </g>
   <g id="legend_1">
    <g id="patch_7">
     <path d="M 634.62625 60.11875 
L 699.42625 60.11875 
Q 701.22625 60.11875 701.22625 58.31875 
L 701.22625 33.34375 
Q 701.22625 31.54375 699.42625 31.54375 
L 634.62625 31.54375 
Q 632.82625 31.54375 632.82625 33.34375 
L 632.82625 58.31875 
Q 632.82625 60.11875 634.62625 60.11875 
z
" style="fill: #ffffff; opacity: 0.8; stroke: #cccccc; stroke-width: 0.5; stroke-linejoin: miter"/>
    </g>
    <g id="line2d_23">
     <path d="M 636.42625 39.376562 
L 645.42625 39.376562 
L 654.42625 39.376562 
" style="fill: none; stroke: #2878b5; stroke-width: 1.5; stroke-linecap: square"/>
    </g>
    <g id="text_14">
     <!-- 预测残差 -->
     <g transform="translate(661.62625 42.526562) scale(0.09 -0.09)">
      <use xlink:href="#SimHei-9884"/>
      <use xlink:href="#SimHei-6d4b" transform="translate(100 0)"/>
      <use xlink:href="#SimHei-6b8b" transform="translate(200 0)"/>
      <use xlink:href="#SimHei-5dee" transform="translate(300 0)"/>
     </g>
    </g>
    <g id="line2d_24">
     <path d="M 636.42625 52.24375 
L 645.42625 52.24375 
L 654.42625 52.24375 
" style="fill: none; stroke-dasharray: 7.4,3.2; stroke-dashoffset: 0; stroke: #c82423; stroke-width: 2"/>
    </g>
    <g id="text_15">
     <!-- 零线 -->
     <g transform="translate(661.62625 55.39375) scale(0.09 -0.09)">
      <defs>
       <path id="SimHei-96f6" d="M 3375 2525 
Q 3425 2425 3950 2125 
Q 4475 1825 4975 1675 
Q 5475 1525 6075 1450 
Q 5875 1200 5775 925 
Q 5325 1025 4900 1175 
Q 4475 1325 3950 1637 
Q 3425 1950 3100 2250 
Q 2875 2075 2512 1812 
Q 2150 1550 1662 1312 
Q 1175 1075 625 900 
Q 525 1100 325 1375 
Q 800 1450 1175 1600 
Q 1550 1750 1875 1925 
Q 2200 2100 2475 2325 
Q 2750 2550 2925 2825 
Q 2950 3100 2950 3450 
L 2950 3925 
L 950 3925 
L 950 3250 
L 475 3250 
L 475 4300 
L 2950 4300 
L 2950 4700 
L 1775 4700 
Q 1425 4700 1100 4675 
L 1100 5100 
Q 1425 5075 1750 5075 
L 4625 5075 
Q 4875 5075 5325 5100 
L 5325 4675 
Q 4875 4700 4475 4700 
L 3400 4700 
L 3400 4300 
L 5875 4300 
Q 5850 4050 5850 3800 
Q 5850 3550 5875 3300 
L 5400 3300 
L 5400 3925 
L 3400 3925 
L 3400 3450 
Q 3400 3175 3425 2825 
L 3050 2825 
Q 3250 2750 3525 2675 
L 3375 2525 
z
M 2300 500 
Q 2750 350 3175 200 
Q 3325 325 3750 775 
L 2325 775 
Q 1900 775 1475 750 
L 1475 1200 
Q 1900 1175 2325 1175 
L 4700 1175 
Q 4475 950 4150 587 
Q 3825 225 3625 50 
Q 3775 -25 3950 -87 
Q 4125 -150 4400 -275 
Q 4250 -475 4125 -700 
Q 3450 -400 2950 -212 
Q 2450 -25 2100 75 
Q 2225 275 2300 500 
z
M 5075 2600 
L 3750 2600 
L 3750 2950 
L 5075 2950 
L 5075 2600 
z
M 5075 3325 
L 3775 3325 
L 3775 3675 
L 5075 3675 
L 5075 3325 
z
M 2500 3325 
L 1250 3325 
L 1250 3675 
L 2500 3675 
L 2500 3325 
z
M 2475 2600 
L 1225 2600 
L 1225 2950 
L 2475 2950 
L 2475 2600 
z
M 3100 1950 
Q 3200 1800 3237 1712 
Q 3275 1625 3400 1400 
Q 3150 1300 2975 1200 
Q 2850 1500 2700 1775 
Q 2975 1875 3100 1950 
z
" transform="scale(0.015625)"/>
       <path id="SimHei-7ebf" d="M 3450 4300 
Q 3450 4675 3375 5125 
Q 3700 5100 4050 5050 
Q 3975 4900 3950 4562 
Q 3925 4225 3950 3600 
L 4800 3750 
Q 5225 3850 5650 3975 
L 5750 3500 
Q 5325 3450 4875 3375 
L 3975 3200 
Q 3975 2800 4025 2500 
L 5000 2675 
Q 5500 2775 5950 2925 
L 6025 2450 
Q 5575 2375 5075 2275 
L 4100 2100 
Q 4150 1600 4350 1175 
Q 4575 1350 4787 1575 
Q 5000 1800 5175 2075 
Q 5550 1775 5750 1675 
Q 5425 1525 5237 1337 
Q 5050 1150 4625 750 
Q 4925 250 5162 112 
Q 5400 -25 5500 100 
Q 5600 225 5675 625 
Q 5900 450 6200 350 
Q 5775 -750 5275 -537 
Q 4775 -325 4225 450 
Q 3875 175 3537 -62 
Q 3200 -300 2700 -550 
Q 2575 -300 2325 -100 
Q 2825 75 3175 275 
Q 3525 475 3975 850 
Q 3750 1350 3650 2025 
Q 2900 1900 2600 1800 
L 2525 2275 
Q 2825 2275 3550 2425 
Q 3500 2825 3500 3100 
Q 2825 2950 2575 2875 
L 2475 3350 
Q 2725 3350 3450 3500 
L 3450 4300 
z
M 1950 4875 
Q 1700 4650 1462 4237 
Q 1225 3825 825 3225 
Q 1425 3250 1650 3250 
Q 1875 3625 2050 4075 
Q 2300 3900 2600 3800 
Q 2350 3550 2087 3125 
Q 1825 2700 1175 1675 
Q 1850 1725 2375 1775 
Q 2300 1525 2300 1350 
Q 2125 1350 1525 1287 
Q 925 1225 550 1125 
Q 525 1375 400 1650 
Q 700 1725 950 2050 
Q 1200 2375 1475 2875 
Q 650 2825 425 2675 
Q 350 2950 200 3225 
Q 525 3450 825 3962 
Q 1125 4475 1375 5150 
Q 1625 4975 1950 4875 
z
M 2575 875 
Q 2550 600 2575 450 
Q 1950 325 1450 200 
Q 950 75 525 -75 
Q 450 200 250 475 
Q 950 550 1325 612 
Q 1700 675 2575 875 
z
M 4850 4025 
Q 4675 4300 4375 4675 
L 4775 4875 
Q 4875 4750 5275 4275 
Q 5025 4175 4850 4025 
z
" transform="scale(0.015625)"/>
      </defs>
      <use xlink:href="#SimHei-96f6"/>
      <use xlink:href="#SimHei-7ebf" transform="translate(100 0)"/>
     </g>
    </g>
   </g>
  </g>
 </g>
 <defs>
  <clipPath id="pc5aaaf71ef">
   <rect x="37.73125" y="27.04375" width="667.995" height="365.675"/>
  </clipPath>
 </defs>
</svg>
