<?xml version="1.0" encoding="utf-8" standalone="no"?>
<!DOCTYPE svg PUBLIC "-//W3C//DTD SVG 1.1//EN"
  "http://www.w3.org/Graphics/SVG/1.1/DTD/svg11.dtd">
<svg xmlns:xlink="http://www.w3.org/1999/xlink" width="856.686094pt" height="351.188438pt" viewBox="0 0 856.686094 351.188438" xmlns="http://www.w3.org/2000/svg" version="1.1">
 <metadata>
  <rdf:RDF xmlns:dc="http://purl.org/dc/elements/1.1/" xmlns:cc="http://creativecommons.org/ns#" xmlns:rdf="http://www.w3.org/1999/02/22-rdf-syntax-ns#">
   <cc:Work>
    <dc:type rdf:resource="http://purl.org/dc/dcmitype/StillImage"/>
    <dc:date>2026-01-16T01:39:54.351993</dc:date>
    <dc:format>image/svg+xml</dc:format>
    <dc:creator>
     <cc:Agent>
      <dc:title>Matplotlib v3.10.0, https://matplotlib.org/</dc:title>
     </cc:Agent>
    </dc:creator>
   </cc:Work>
  </rdf:RDF>
 </metadata>
 <defs>
  <style type="text/css">*{stroke-linejoin: round; stroke-linecap: butt}</style>
 </defs>
 <g id="figure_1">
  <g id="patch_1">
   <path d="M -0 351.188438 
L 856.686094 351.188438 
L 856.686094 0 
L -0 0 
z
" style="fill: #ffffff"/>
  </g>
  <g id="axes_1">
   <g id="patch_2">
    <path d="M 33.986094 331.778125 
L 422.886094 331.778125 
L 422.886094 26.318125 
L 33.986094 26.318125 
z
" style="fill: #ffffff"/>
   </g>
   <g id="FillBetweenPolyCollection_1">
    <path d="M 60.286426 172.696305 
L 60.286426 185.399945 
L 86.155606 185.400602 
L 103.401726 185.404188 
L 120.647845 185.408265 
L 137.893965 185.418076 
L 155.140085 185.438917 
L 172.386205 185.511183 
L 189.632324 185.516417 
L 206.878444 185.519816 
L 224.124564 185.519872 
L 241.370684 185.519875 
L 258.616803 185.526094 
L 275.862923 185.580316 
L 293.109043 185.592455 
L 310.355162 185.592575 
L 327.601282 185.598906 
L 344.847402 185.615263 
L 362.093522 185.630746 
L 379.339641 185.644139 
L 405.208821 185.64421 
L 405.208821 172.45204 
L 405.208821 172.45204 
L 379.339641 172.452111 
L 362.093522 172.465504 
L 344.847402 172.480987 
L 327.601282 172.497344 
L 310.355162 172.503675 
L 293.109043 172.503795 
L 275.862923 172.515934 
L 258.616803 172.570156 
L 241.370684 172.576375 
L 224.124564 172.576378 
L 206.878444 172.576434 
L 189.632324 172.579833 
L 172.386205 172.585067 
L 155.140085 172.657333 
L 137.893965 172.678174 
L 120.647845 172.687985 
L 103.401726 172.692062 
L 86.155606 172.695648 
L 60.286426 172.696305 
z
" clip-path="url(#p4a56f49dd2)" style="fill: #348abd; fill-opacity: 0.25"/>
   </g>
   <g id="matplotlib.axis_1">
    <g id="xtick_1">
     <g id="line2d_1">
      <path d="M 51.663366 331.778125 
L 51.663366 26.318125 
" clip-path="url(#p4a56f49dd2)" style="fill: none; stroke-dasharray: 1.85,0.8; stroke-dashoffset: 0; stroke: #b2b2b2; stroke-opacity: 0.3; stroke-width: 0.5"/>
     </g>
     <g id="line2d_2">
      <defs>
       <path id="m0ec9331f80" d="M 0 0 
L 0 -3.5 
" style="stroke: #000000; stroke-width: 0.8"/>
      </defs>
      <g>
       <use xlink:href="#m0ec9331f80" x="51.663366" y="331.778125" style="stroke: #000000; stroke-width: 0.8"/>
      </g>
     </g>
     <g id="text_1">
      <!-- 0 -->
      <g transform="translate(48.800241 342.116719) scale(0.09 -0.09)">
       <defs>
        <path id="DejaVuSans-30" d="M 2034 4250 
Q 1547 4250 1301 3770 
Q 1056 3291 1056 2328 
Q 1056 1369 1301 889 
Q 1547 409 2034 409 
Q 2525 409 2770 889 
Q 3016 1369 3016 2328 
Q 3016 3291 2770 3770 
Q 2525 4250 2034 4250 
z
M 2034 4750 
Q 2819 4750 3233 4129 
Q 3647 3509 3647 2328 
Q 3647 1150 3233 529 
Q 2819 -91 2034 -91 
Q 1250 -91 836 529 
Q 422 1150 422 2328 
Q 422 3509 836 4129 
Q 1250 4750 2034 4750 
z
" transform="scale(0.015625)"/>
       </defs>
       <use xlink:href="#DejaVuSans-30"/>
      </g>
     </g>
    </g>
    <g id="xtick_2">
     <g id="line2d_3">
      <path d="M 137.893965 331.778125 
L 137.893965 26.318125 
" clip-path="url(#p4a56f49dd2)" style="fill: none; stroke-dasharray: 1.85,0.8; stroke-dashoffset: 0; stroke: #b2b2b2; stroke-opacity: 0.3; stroke-width: 0.5"/>
     </g>
     <g id="line2d_4">
      <g>
       <use xlink:href="#m0ec9331f80" x="137.893965" y="331.778125" style="stroke: #000000; stroke-width: 0.8"/>
      </g>
     </g>
     <g id="text_2">
      <!-- 5 -->
      <g transform="translate(135.03084 342.116719) scale(0.09 -0.09)">
       <defs>
        <path id="DejaVuSans-35" d="M 691 4666 
L 3169 4666 
L 3169 4134 
L 1269 4134 
L 1269 2991 
Q 1406 3038 1543 3061 
Q 1681 3084 1819 3084 
Q 2600 3084 3056 2656 
Q 3513 2228 3513 1497 
Q 3513 744 3044 326 
Q 2575 -91 1722 -91 
Q 1428 -91 1123 -41 
Q 819 9 494 109 
L 494 744 
Q 775 591 1075 516 
Q 1375 441 1709 441 
Q 2250 441 2565 725 
Q 2881 1009 2881 1497 
Q 2881 1984 2565 2268 
Q 2250 2553 1709 2553 
Q 1456 2553 1204 2497 
Q 953 2441 691 2322 
L 691 4666 
z
" transform="scale(0.015625)"/>
       </defs>
       <use xlink:href="#DejaVuSans-35"/>
      </g>
     </g>
    </g>
    <g id="xtick_3">
     <g id="line2d_5">
      <path d="M 224.124564 331.778125 
L 224.124564 26.318125 
" clip-path="url(#p4a56f49dd2)" style="fill: none; stroke-dasharray: 1.85,0.8; stroke-dashoffset: 0; stroke: #b2b2b2; stroke-opacity: 0.3; stroke-width: 0.5"/>
     </g>
     <g id="line2d_6">
      <g>
       <use xlink:href="#m0ec9331f80" x="224.124564" y="331.778125" style="stroke: #000000; stroke-width: 0.8"/>
      </g>
     </g>
     <g id="text_3">
      <!-- 10 -->
      <g transform="translate(218.398314 342.116719) scale(0.09 -0.09)">
       <defs>
        <path id="DejaVuSans-31" d="M 794 531 
L 1825 531 
L 1825 4091 
L 703 3866 
L 703 4441 
L 1819 4666 
L 2450 4666 
L 2450 531 
L 3481 531 
L 3481 0 
L 794 0 
L 794 531 
z
" transform="scale(0.015625)"/>
       </defs>
       <use xlink:href="#DejaVuSans-31"/>
       <use xlink:href="#DejaVuSans-30" transform="translate(63.623047 0)"/>
      </g>
     </g>
    </g>
    <g id="xtick_4">
     <g id="line2d_7">
      <path d="M 310.355162 331.778125 
L 310.355162 26.318125 
" clip-path="url(#p4a56f49dd2)" style="fill: none; stroke-dasharray: 1.85,0.8; stroke-dashoffset: 0; stroke: #b2b2b2; stroke-opacity: 0.3; stroke-width: 0.5"/>
     </g>
     <g id="line2d_8">
      <g>
       <use xlink:href="#m0ec9331f80" x="310.355162" y="331.778125" style="stroke: #000000; stroke-width: 0.8"/>
      </g>
     </g>
     <g id="text_4">
      <!-- 15 -->
      <g transform="translate(304.628912 342.116719) scale(0.09 -0.09)">
       <use xlink:href="#DejaVuSans-31"/>
       <use xlink:href="#DejaVuSans-35" transform="translate(63.623047 0)"/>
      </g>
     </g>
    </g>
    <g id="xtick_5">
     <g id="line2d_9">
      <path d="M 396.585761 331.778125 
L 396.585761 26.318125 
" clip-path="url(#p4a56f49dd2)" style="fill: none; stroke-dasharray: 1.85,0.8; stroke-dashoffset: 0; stroke: #b2b2b2; stroke-opacity: 0.3; stroke-width: 0.5"/>
     </g>
     <g id="line2d_10">
      <g>
       <use xlink:href="#m0ec9331f80" x="396.585761" y="331.778125" style="stroke: #000000; stroke-width: 0.8"/>
      </g>
     </g>
     <g id="text_5">
      <!-- 20 -->
      <g transform="translate(390.859511 342.116719) scale(0.09 -0.09)">
       <defs>
        <path id="DejaVuSans-32" d="M 1228 531 
L 3431 531 
L 3431 0 
L 469 0 
L 469 531 
Q 828 903 1448 1529 
Q 2069 2156 2228 2338 
Q 2531 2678 2651 2914 
Q 2772 3150 2772 3378 
Q 2772 3750 2511 3984 
Q 2250 4219 1831 4219 
Q 1534 4219 1204 4116 
Q 875 4013 500 3803 
L 500 4441 
Q 881 4594 1212 4672 
Q 1544 4750 1819 4750 
Q 2544 4750 2975 4387 
Q 3406 4025 3406 3419 
Q 3406 3131 3298 2873 
Q 3191 2616 2906 2266 
Q 2828 2175 2409 1742 
Q 1991 1309 1228 531 
z
" transform="scale(0.015625)"/>
       </defs>
       <use xlink:href="#DejaVuSans-32"/>
       <use xlink:href="#DejaVuSans-30" transform="translate(63.623047 0)"/>
      </g>
     </g>
    </g>
   </g>
   <g id="matplotlib.axis_2">
    <g id="ytick_1">
     <g id="line2d_11">
      <path d="M 33.986094 331.778125 
L 422.886094 331.778125 
" clip-path="url(#p4a56f49dd2)" style="fill: none; stroke-dasharray: 1.85,0.8; stroke-dashoffset: 0; stroke: #b2b2b2; stroke-opacity: 0.3; stroke-width: 0.5"/>
     </g>
     <g id="line2d_12">
      <defs>
       <path id="m795fc69cc6" d="M 0 0 
L 3.5 0 
" style="stroke: #000000; stroke-width: 0.8"/>
      </defs>
      <g>
       <use xlink:href="#m795fc69cc6" x="33.986094" y="331.778125" style="stroke: #000000; stroke-width: 0.8"/>
      </g>
     </g>
     <g id="text_6">
      <!-- -1.00 -->
      <g transform="translate(7.2 335.197422) scale(0.09 -0.09)">
       <defs>
        <path id="DejaVuSans-2d" d="M 313 2009 
L 1997 2009 
L 1997 1497 
L 313 1497 
L 313 2009 
z
" transform="scale(0.015625)"/>
        <path id="DejaVuSans-2e" d="M 684 794 
L 1344 794 
L 1344 0 
L 684 0 
L 684 794 
z
" transform="scale(0.015625)"/>
       </defs>
       <use xlink:href="#DejaVuSans-2d"/>
       <use xlink:href="#DejaVuSans-31" transform="translate(36.083984 0)"/>
       <use xlink:href="#DejaVuSans-2e" transform="translate(99.707031 0)"/>
       <use xlink:href="#DejaVuSans-30" transform="translate(131.494141 0)"/>
       <use xlink:href="#DejaVuSans-30" transform="translate(195.117188 0)"/>
      </g>
     </g>
    </g>
    <g id="ytick_2">
     <g id="line2d_13">
      <path d="M 33.986094 293.595625 
L 422.886094 293.595625 
" clip-path="url(#p4a56f49dd2)" style="fill: none; stroke-dasharray: 1.85,0.8; stroke-dashoffset: 0; stroke: #b2b2b2; stroke-opacity: 0.3; stroke-width: 0.5"/>
     </g>
     <g id="line2d_14">
      <g>
       <use xlink:href="#m795fc69cc6" x="33.986094" y="293.595625" style="stroke: #000000; stroke-width: 0.8"/>
      </g>
     </g>
     <g id="text_7">
      <!-- -0.75 -->
      <g transform="translate(7.2 297.014922) scale(0.09 -0.09)">
       <defs>
        <path id="DejaVuSans-37" d="M 525 4666 
L 3525 4666 
L 3525 4397 
L 1831 0 
L 1172 0 
L 2766 4134 
L 525 4134 
L 525 4666 
z
" transform="scale(0.015625)"/>
       </defs>
       <use xlink:href="#DejaVuSans-2d"/>
       <use xlink:href="#DejaVuSans-30" transform="translate(36.083984 0)"/>
       <use xlink:href="#DejaVuSans-2e" transform="translate(99.707031 0)"/>
       <use xlink:href="#DejaVuSans-37" transform="translate(131.494141 0)"/>
       <use xlink:href="#DejaVuSans-35" transform="translate(195.117188 0)"/>
      </g>
     </g>
    </g>
    <g id="ytick_3">
     <g id="line2d_15">
      <path d="M 33.986094 255.413125 
L 422.886094 255.413125 
" clip-path="url(#p4a56f49dd2)" style="fill: none; stroke-dasharray: 1.85,0.8; stroke-dashoffset: 0; stroke: #b2b2b2; stroke-opacity: 0.3; stroke-width: 0.5"/>
     </g>
     <g id="line2d_16">
      <g>
       <use xlink:href="#m795fc69cc6" x="33.986094" y="255.413125" style="stroke: #000000; stroke-width: 0.8"/>
      </g>
     </g>
     <g id="text_8">
      <!-- -0.50 -->
      <g transform="translate(7.2 258.832422) scale(0.09 -0.09)">
       <use xlink:href="#DejaVuSans-2d"/>
       <use xlink:href="#DejaVuSans-30" transform="translate(36.083984 0)"/>
       <use xlink:href="#DejaVuSans-2e" transform="translate(99.707031 0)"/>
       <use xlink:href="#DejaVuSans-35" transform="translate(131.494141 0)"/>
       <use xlink:href="#DejaVuSans-30" transform="translate(195.117188 0)"/>
      </g>
     </g>
    </g>
    <g id="ytick_4">
     <g id="line2d_17">
      <path d="M 33.986094 217.230625 
L 422.886094 217.230625 
" clip-path="url(#p4a56f49dd2)" style="fill: none; stroke-dasharray: 1.85,0.8; stroke-dashoffset: 0; stroke: #b2b2b2; stroke-opacity: 0.3; stroke-width: 0.5"/>
     </g>
     <g id="line2d_18">
      <g>
       <use xlink:href="#m795fc69cc6" x="33.986094" y="217.230625" style="stroke: #000000; stroke-width: 0.8"/>
      </g>
     </g>
     <g id="text_9">
      <!-- -0.25 -->
      <g transform="translate(7.2 220.649922) scale(0.09 -0.09)">
       <use xlink:href="#DejaVuSans-2d"/>
       <use xlink:href="#DejaVuSans-30" transform="translate(36.083984 0)"/>
       <use xlink:href="#DejaVuSans-2e" transform="translate(99.707031 0)"/>
       <use xlink:href="#DejaVuSans-32" transform="translate(131.494141 0)"/>
       <use xlink:href="#DejaVuSans-35" transform="translate(195.117188 0)"/>
      </g>
     </g>
    </g>
    <g id="ytick_5">
     <g id="line2d_19">
      <path d="M 33.986094 179.048125 
L 422.886094 179.048125 
" clip-path="url(#p4a56f49dd2)" style="fill: none; stroke-dasharray: 1.85,0.8; stroke-dashoffset: 0; stroke: #b2b2b2; stroke-opacity: 0.3; stroke-width: 0.5"/>
     </g>
     <g id="line2d_20">
      <g>
       <use xlink:href="#m795fc69cc6" x="33.986094" y="179.048125" style="stroke: #000000; stroke-width: 0.8"/>
      </g>
     </g>
     <g id="text_10">
      <!-- 0.00 -->
      <g transform="translate(10.447031 182.467422) scale(0.09 -0.09)">
       <use xlink:href="#DejaVuSans-30"/>
       <use xlink:href="#DejaVuSans-2e" transform="translate(63.623047 0)"/>
       <use xlink:href="#DejaVuSans-30" transform="translate(95.410156 0)"/>
       <use xlink:href="#DejaVuSans-30" transform="translate(159.033203 0)"/>
      </g>
     </g>
    </g>
    <g id="ytick_6">
     <g id="line2d_21">
      <path d="M 33.986094 140.865625 
L 422.886094 140.865625 
" clip-path="url(#p4a56f49dd2)" style="fill: none; stroke-dasharray: 1.85,0.8; stroke-dashoffset: 0; stroke: #b2b2b2; stroke-opacity: 0.3; stroke-width: 0.5"/>
     </g>
     <g id="line2d_22">
      <g>
       <use xlink:href="#m795fc69cc6" x="33.986094" y="140.865625" style="stroke: #000000; stroke-width: 0.8"/>
      </g>
     </g>
     <g id="text_11">
      <!-- 0.25 -->
      <g transform="translate(10.447031 144.284922) scale(0.09 -0.09)">
       <use xlink:href="#DejaVuSans-30"/>
       <use xlink:href="#DejaVuSans-2e" transform="translate(63.623047 0)"/>
       <use xlink:href="#DejaVuSans-32" transform="translate(95.410156 0)"/>
       <use xlink:href="#DejaVuSans-35" transform="translate(159.033203 0)"/>
      </g>
     </g>
    </g>
    <g id="ytick_7">
     <g id="line2d_23">
      <path d="M 33.986094 102.683125 
L 422.886094 102.683125 
" clip-path="url(#p4a56f49dd2)" style="fill: none; stroke-dasharray: 1.85,0.8; stroke-dashoffset: 0; stroke: #b2b2b2; stroke-opacity: 0.3; stroke-width: 0.5"/>
     </g>
     <g id="line2d_24">
      <g>
       <use xlink:href="#m795fc69cc6" x="33.986094" y="102.683125" style="stroke: #000000; stroke-width: 0.8"/>
      </g>
     </g>
     <g id="text_12">
      <!-- 0.50 -->
      <g transform="translate(10.447031 106.102422) scale(0.09 -0.09)">
       <use xlink:href="#DejaVuSans-30"/>
       <use xlink:href="#DejaVuSans-2e" transform="translate(63.623047 0)"/>
       <use xlink:href="#DejaVuSans-35" transform="translate(95.410156 0)"/>
       <use xlink:href="#DejaVuSans-30" transform="translate(159.033203 0)"/>
      </g>
     </g>
    </g>
    <g id="ytick_8">
     <g id="line2d_25">
      <path d="M 33.986094 64.500625 
L 422.886094 64.500625 
" clip-path="url(#p4a56f49dd2)" style="fill: none; stroke-dasharray: 1.85,0.8; stroke-dashoffset: 0; stroke: #b2b2b2; stroke-opacity: 0.3; stroke-width: 0.5"/>
     </g>
     <g id="line2d_26">
      <g>
       <use xlink:href="#m795fc69cc6" x="33.986094" y="64.500625" style="stroke: #000000; stroke-width: 0.8"/>
      </g>
     </g>
     <g id="text_13">
      <!-- 0.75 -->
      <g transform="translate(10.447031 67.919922) scale(0.09 -0.09)">
       <use xlink:href="#DejaVuSans-30"/>
       <use xlink:href="#DejaVuSans-2e" transform="translate(63.623047 0)"/>
       <use xlink:href="#DejaVuSans-37" transform="translate(95.410156 0)"/>
       <use xlink:href="#DejaVuSans-35" transform="translate(159.033203 0)"/>
      </g>
     </g>
    </g>
    <g id="ytick_9">
     <g id="line2d_27">
      <path d="M 33.986094 26.318125 
L 422.886094 26.318125 
" clip-path="url(#p4a56f49dd2)" style="fill: none; stroke-dasharray: 1.85,0.8; stroke-dashoffset: 0; stroke: #b2b2b2; stroke-opacity: 0.3; stroke-width: 0.5"/>
     </g>
     <g id="line2d_28">
      <g>
       <use xlink:href="#m795fc69cc6" x="33.986094" y="26.318125" style="stroke: #000000; stroke-width: 0.8"/>
      </g>
     </g>
     <g id="text_14">
      <!-- 1.00 -->
      <g transform="translate(10.447031 29.737422) scale(0.09 -0.09)">
       <use xlink:href="#DejaVuSans-31"/>
       <use xlink:href="#DejaVuSans-2e" transform="translate(63.623047 0)"/>
       <use xlink:href="#DejaVuSans-30" transform="translate(95.410156 0)"/>
       <use xlink:href="#DejaVuSans-30" transform="translate(159.033203 0)"/>
      </g>
     </g>
    </g>
   </g>
   <g id="LineCollection_1">
    <path d="M 51.663366 179.048125 
L 51.663366 26.318125 
" clip-path="url(#p4a56f49dd2)" style="fill: none; stroke: #348abd; stroke-width: 2"/>
    <path d="M 68.909486 179.048125 
L 68.909486 180.602126 
" clip-path="url(#p4a56f49dd2)" style="fill: none; stroke: #348abd; stroke-width: 2"/>
    <path d="M 86.155606 179.048125 
L 86.155606 182.677681 
" clip-path="url(#p4a56f49dd2)" style="fill: none; stroke: #348abd; stroke-width: 2"/>
    <path d="M 103.401726 179.048125 
L 103.401726 182.919203 
" clip-path="url(#p4a56f49dd2)" style="fill: none; stroke: #348abd; stroke-width: 2"/>
    <path d="M 120.647845 179.048125 
L 120.647845 185.057007 
" clip-path="url(#p4a56f49dd2)" style="fill: none; stroke: #348abd; stroke-width: 2"/>
    <path d="M 137.893965 179.048125 
L 137.893965 187.816244 
" clip-path="url(#p4a56f49dd2)" style="fill: none; stroke: #348abd; stroke-width: 2"/>
    <path d="M 155.140085 179.048125 
L 155.140085 195.434947 
" clip-path="url(#p4a56f49dd2)" style="fill: none; stroke: #348abd; stroke-width: 2"/>
    <path d="M 172.386205 179.048125 
L 172.386205 183.471615 
" clip-path="url(#p4a56f49dd2)" style="fill: none; stroke: #348abd; stroke-width: 2"/>
    <path d="M 189.632324 179.048125 
L 189.632324 175.482327 
" clip-path="url(#p4a56f49dd2)" style="fill: none; stroke: #348abd; stroke-width: 2"/>
    <path d="M 206.878444 179.048125 
L 206.878444 179.506945 
" clip-path="url(#p4a56f49dd2)" style="fill: none; stroke: #348abd; stroke-width: 2"/>
    <path d="M 224.124564 179.048125 
L 224.124564 179.152476 
" clip-path="url(#p4a56f49dd2)" style="fill: none; stroke: #348abd; stroke-width: 2"/>
    <path d="M 241.370684 179.048125 
L 241.370684 183.872959 
" clip-path="url(#p4a56f49dd2)" style="fill: none; stroke: #348abd; stroke-width: 2"/>
    <path d="M 258.616803 179.048125 
L 258.616803 193.328581 
" clip-path="url(#p4a56f49dd2)" style="fill: none; stroke: #348abd; stroke-width: 2"/>
    <path d="M 275.862923 179.048125 
L 275.862923 172.274201 
" clip-path="url(#p4a56f49dd2)" style="fill: none; stroke: #348abd; stroke-width: 2"/>
    <path d="M 293.109043 179.048125 
L 293.109043 179.723088 
" clip-path="url(#p4a56f49dd2)" style="fill: none; stroke: #348abd; stroke-width: 2"/>
    <path d="M 310.355162 179.048125 
L 310.355162 183.943687 
" clip-path="url(#p4a56f49dd2)" style="fill: none; stroke: #348abd; stroke-width: 2"/>
    <path d="M 327.601282 179.048125 
L 327.601282 186.923948 
" clip-path="url(#p4a56f49dd2)" style="fill: none; stroke: #348abd; stroke-width: 2"/>
    <path d="M 344.847402 179.048125 
L 344.847402 171.376266 
" clip-path="url(#p4a56f49dd2)" style="fill: none; stroke: #348abd; stroke-width: 2"/>
    <path d="M 362.093522 179.048125 
L 362.093522 171.905163 
" clip-path="url(#p4a56f49dd2)" style="fill: none; stroke: #348abd; stroke-width: 2"/>
    <path d="M 379.339641 179.048125 
L 379.339641 179.567695 
" clip-path="url(#p4a56f49dd2)" style="fill: none; stroke: #348abd; stroke-width: 2"/>
    <path d="M 396.585761 179.048125 
L 396.585761 175.804653 
" clip-path="url(#p4a56f49dd2)" style="fill: none; stroke: #348abd; stroke-width: 2"/>
   </g>
   <g id="line2d_29">
    <path d="M 33.986094 179.048125 
L 422.886094 179.048125 
" clip-path="url(#p4a56f49dd2)" style="fill: none; stroke: #348abd; stroke-width: 2; stroke-linecap: square"/>
   </g>
   <g id="line2d_30">
    <defs>
     <path id="m56bf3961dc" d="M 0 2.5 
C 0.663008 2.5 1.29895 2.236584 1.767767 1.767767 
C 2.236584 1.29895 2.5 0.663008 2.5 0 
C 2.5 -0.663008 2.236584 -1.29895 1.767767 -1.767767 
C 1.29895 -2.236584 0.663008 -2.5 0 -2.5 
C -0.663008 -2.5 -1.29895 -2.236584 -1.767767 -1.767767 
C -2.236584 -1.29895 -2.5 -0.663008 -2.5 0 
C -2.5 0.663008 -2.236584 1.29895 -1.767767 1.767767 
C -1.29895 2.236584 -0.663008 2.5 0 2.5 
z
" style="stroke: #348abd"/>
    </defs>
    <g clip-path="url(#p4a56f49dd2)">
     <use xlink:href="#m56bf3961dc" x="51.663366" y="26.318125" style="fill: #348abd; stroke: #348abd"/>
     <use xlink:href="#m56bf3961dc" x="68.909486" y="180.602126" style="fill: #348abd; stroke: #348abd"/>
     <use xlink:href="#m56bf3961dc" x="86.155606" y="182.677681" style="fill: #348abd; stroke: #348abd"/>
     <use xlink:href="#m56bf3961dc" x="103.401726" y="182.919203" style="fill: #348abd; stroke: #348abd"/>
     <use xlink:href="#m56bf3961dc" x="120.647845" y="185.057007" style="fill: #348abd; stroke: #348abd"/>
     <use xlink:href="#m56bf3961dc" x="137.893965" y="187.816244" style="fill: #348abd; stroke: #348abd"/>
     <use xlink:href="#m56bf3961dc" x="155.140085" y="195.434947" style="fill: #348abd; stroke: #348abd"/>
     <use xlink:href="#m56bf3961dc" x="172.386205" y="183.471615" style="fill: #348abd; stroke: #348abd"/>
     <use xlink:href="#m56bf3961dc" x="189.632324" y="175.482327" style="fill: #348abd; stroke: #348abd"/>
     <use xlink:href="#m56bf3961dc" x="206.878444" y="179.506945" style="fill: #348abd; stroke: #348abd"/>
     <use xlink:href="#m56bf3961dc" x="224.124564" y="179.152476" style="fill: #348abd; stroke: #348abd"/>
     <use xlink:href="#m56bf3961dc" x="241.370684" y="183.872959" style="fill: #348abd; stroke: #348abd"/>
     <use xlink:href="#m56bf3961dc" x="258.616803" y="193.328581" style="fill: #348abd; stroke: #348abd"/>
     <use xlink:href="#m56bf3961dc" x="275.862923" y="172.274201" style="fill: #348abd; stroke: #348abd"/>
     <use xlink:href="#m56bf3961dc" x="293.109043" y="179.723088" style="fill: #348abd; stroke: #348abd"/>
     <use xlink:href="#m56bf3961dc" x="310.355162" y="183.943687" style="fill: #348abd; stroke: #348abd"/>
     <use xlink:href="#m56bf3961dc" x="327.601282" y="186.923948" style="fill: #348abd; stroke: #348abd"/>
     <use xlink:href="#m56bf3961dc" x="344.847402" y="171.376266" style="fill: #348abd; stroke: #348abd"/>
     <use xlink:href="#m56bf3961dc" x="362.093522" y="171.905163" style="fill: #348abd; stroke: #348abd"/>
     <use xlink:href="#m56bf3961dc" x="379.339641" y="179.567695" style="fill: #348abd; stroke: #348abd"/>
     <use xlink:href="#m56bf3961dc" x="396.585761" y="175.804653" style="fill: #348abd; stroke: #348abd"/>
    </g>
   </g>
   <g id="patch_3">
    <path d="M 33.986094 331.778125 
L 33.986094 26.318125 
" style="fill: none; stroke: #000000; stroke-width: 0.8; stroke-linejoin: miter; stroke-linecap: square"/>
   </g>
   <g id="patch_4">
    <path d="M 422.886094 331.778125 
L 422.886094 26.318125 
" style="fill: none; stroke: #000000; stroke-width: 0.8; stroke-linejoin: miter; stroke-linecap: square"/>
   </g>
   <g id="patch_5">
    <path d="M 33.986094 331.778125 
L 422.886094 331.778125 
" style="fill: none; stroke: #000000; stroke-width: 0.8; stroke-linejoin: miter; stroke-linecap: square"/>
   </g>
   <g id="patch_6">
    <path d="M 33.986094 26.318125 
L 422.886094 26.318125 
" style="fill: none; stroke: #000000; stroke-width: 0.8; stroke-linejoin: miter; stroke-linecap: square"/>
   </g>
   <g id="text_15">
    <!-- 残差的自相关函数 (ACF) -->
    <g transform="translate(181.399844 16.318125) scale(0.12 -0.12)">
     <defs>
      <path id="DejaVuSans-6b8b" d="M 319 -1131 
L 319 4513 
L 3519 4513 
L 3519 -1131 
L 319 -1131 
z
M 678 -775 
L 3163 -775 
L 3163 4153 
L 678 4153 
L 678 -775 
z
" transform="scale(0.015625)"/>
      <path id="DejaVuSans-5dee" d="M 319 -1131 
L 319 4513 
L 3519 4513 
L 3519 -1131 
L 319 -1131 
z
M 678 -775 
L 3163 -775 
L 3163 4153 
L 678 4153 
L 678 -775 
z
" transform="scale(0.015625)"/>
      <path id="DejaVuSans-7684" d="M 319 -1131 
L 319 4513 
L 3519 4513 
L 3519 -1131 
L 319 -1131 
z
M 678 -775 
L 3163 -775 
L 3163 4153 
L 678 4153 
L 678 -775 
z
" transform="scale(0.015625)"/>
      <path id="DejaVuSans-81ea" d="M 319 -1131 
L 319 4513 
L 3519 4513 
L 3519 -1131 
L 319 -1131 
z
M 678 -775 
L 3163 -775 
L 3163 4153 
L 678 4153 
L 678 -775 
z
" transform="scale(0.015625)"/>
      <path id="DejaVuSans-76f8" d="M 319 -1131 
L 319 4513 
L 3519 4513 
L 3519 -1131 
L 319 -1131 
z
M 678 -775 
L 3163 -775 
L 3163 4153 
L 678 4153 
L 678 -775 
z
" transform="scale(0.015625)"/>
      <path id="DejaVuSans-5173" d="M 319 -1131 
L 319 4513 
L 3519 4513 
L 3519 -1131 
L 319 -1131 
z
M 678 -775 
L 3163 -775 
L 3163 4153 
L 678 4153 
L 678 -775 
z
" transform="scale(0.015625)"/>
      <path id="DejaVuSans-51fd" d="M 319 -1131 
L 319 4513 
L 3519 4513 
L 3519 -1131 
L 319 -1131 
z
M 678 -775 
L 3163 -775 
L 3163 4153 
L 678 4153 
L 678 -775 
z
" transform="scale(0.015625)"/>
      <path id="DejaVuSans-6570" d="M 319 -1131 
L 319 4513 
L 3519 4513 
L 3519 -1131 
L 319 -1131 
z
M 678 -775 
L 3163 -775 
L 3163 4153 
L 678 4153 
L 678 -775 
z
" transform="scale(0.015625)"/>
      <path id="DejaVuSans-20" transform="scale(0.015625)"/>
      <path id="DejaVuSans-28" d="M 1984 4856 
Q 1566 4138 1362 3434 
Q 1159 2731 1159 2009 
Q 1159 1288 1364 580 
Q 1569 -128 1984 -844 
L 1484 -844 
Q 1016 -109 783 600 
Q 550 1309 550 2009 
Q 550 2706 781 3412 
Q 1013 4119 1484 4856 
L 1984 4856 
z
" transform="scale(0.015625)"/>
      <path id="DejaVuSans-41" d="M 2188 4044 
L 1331 1722 
L 3047 1722 
L 2188 4044 
z
M 1831 4666 
L 2547 4666 
L 4325 0 
L 3669 0 
L 3244 1197 
L 1141 1197 
L 716 0 
L 50 0 
L 1831 4666 
z
" transform="scale(0.015625)"/>
      <path id="DejaVuSans-43" d="M 4122 4306 
L 4122 3641 
Q 3803 3938 3442 4084 
Q 3081 4231 2675 4231 
Q 1875 4231 1450 3742 
Q 1025 3253 1025 2328 
Q 1025 1406 1450 917 
Q 1875 428 2675 428 
Q 3081 428 3442 575 
Q 3803 722 4122 1019 
L 4122 359 
Q 3791 134 3420 21 
Q 3050 -91 2638 -91 
Q 1578 -91 968 557 
Q 359 1206 359 2328 
Q 359 3453 968 4101 
Q 1578 4750 2638 4750 
Q 3056 4750 3426 4639 
Q 3797 4528 4122 4306 
z
" transform="scale(0.015625)"/>
      <path id="DejaVuSans-46" d="M 628 4666 
L 3309 4666 
L 3309 4134 
L 1259 4134 
L 1259 2759 
L 3109 2759 
L 3109 2228 
L 1259 2228 
L 1259 0 
L 628 0 
L 628 4666 
z
" transform="scale(0.015625)"/>
      <path id="DejaVuSans-29" d="M 513 4856 
L 1013 4856 
Q 1481 4119 1714 3412 
Q 1947 2706 1947 2009 
Q 1947 1309 1714 600 
Q 1481 -109 1013 -844 
L 513 -844 
Q 928 -128 1133 580 
Q 1338 1288 1338 2009 
Q 1338 2731 1133 3434 
Q 928 4138 513 4856 
z
" transform="scale(0.015625)"/>
     </defs>
     <use xlink:href="#DejaVuSans-6b8b"/>
     <use xlink:href="#DejaVuSans-5dee" transform="translate(60.009766 0)"/>
     <use xlink:href="#DejaVuSans-7684" transform="translate(120.019531 0)"/>
     <use xlink:href="#DejaVuSans-81ea" transform="translate(180.029297 0)"/>
     <use xlink:href="#DejaVuSans-76f8" transform="translate(240.039062 0)"/>
     <use xlink:href="#DejaVuSans-5173" transform="translate(300.048828 0)"/>
     <use xlink:href="#DejaVuSans-51fd" transform="translate(360.058594 0)"/>
     <use xlink:href="#DejaVuSans-6570" transform="translate(420.068359 0)"/>
     <use xlink:href="#DejaVuSans-20" transform="translate(480.078125 0)"/>
     <use xlink:href="#DejaVuSans-28" transform="translate(511.865234 0)"/>
     <use xlink:href="#DejaVuSans-41" transform="translate(550.878906 0)"/>
     <use xlink:href="#DejaVuSans-43" transform="translate(617.537109 0)"/>
     <use xlink:href="#DejaVuSans-46" transform="translate(687.361328 0)"/>
     <use xlink:href="#DejaVuSans-29" transform="translate(744.880859 0)"/>
    </g>
   </g>
  </g>
  <g id="axes_2">
   <g id="patch_7">
    <path d="M 460.586094 331.778125 
L 849.486094 331.778125 
L 849.486094 26.318125 
L 460.586094 26.318125 
z
" style="fill: #ffffff"/>
   </g>
   <g id="FillBetweenPolyCollection_2">
    <path d="M 486.886426 172.696305 
L 486.886426 185.399945 
L 512.755606 185.399945 
L 530.001726 185.399945 
L 547.247845 185.399945 
L 564.493965 185.399945 
L 581.740085 185.399945 
L 598.986205 185.399945 
L 616.232324 185.399945 
L 633.478444 185.399945 
L 650.724564 185.399945 
L 667.970684 185.399945 
L 685.216803 185.399945 
L 702.462923 185.399945 
L 719.709043 185.399945 
L 736.955162 185.399945 
L 754.201282 185.399945 
L 771.447402 185.399945 
L 788.693522 185.399945 
L 805.939641 185.399945 
L 831.808821 185.399945 
L 831.808821 172.696305 
L 831.808821 172.696305 
L 805.939641 172.696305 
L 788.693522 172.696305 
L 771.447402 172.696305 
L 754.201282 172.696305 
L 736.955162 172.696305 
L 719.709043 172.696305 
L 702.462923 172.696305 
L 685.216803 172.696305 
L 667.970684 172.696305 
L 650.724564 172.696305 
L 633.478444 172.696305 
L 616.232324 172.696305 
L 598.986205 172.696305 
L 581.740085 172.696305 
L 564.493965 172.696305 
L 547.247845 172.696305 
L 530.001726 172.696305 
L 512.755606 172.696305 
L 486.886426 172.696305 
z
" clip-path="url(#p14d6347e47)" style="fill: #348abd; fill-opacity: 0.25"/>
   </g>
   <g id="matplotlib.axis_3">
    <g id="xtick_6">
     <g id="line2d_31">
      <path d="M 478.263366 331.778125 
L 478.263366 26.318125 
" clip-path="url(#p14d6347e47)" style="fill: none; stroke-dasharray: 1.85,0.8; stroke-dashoffset: 0; stroke: #b2b2b2; stroke-opacity: 0.3; stroke-width: 0.5"/>
     </g>
     <g id="line2d_32">
      <g>
       <use xlink:href="#m0ec9331f80" x="478.263366" y="331.778125" style="stroke: #000000; stroke-width: 0.8"/>
      </g>
     </g>
     <g id="text_16">
      <!-- 0 -->
      <g transform="translate(475.400241 342.116719) scale(0.09 -0.09)">
       <use xlink:href="#DejaVuSans-30"/>
      </g>
     </g>
    </g>
    <g id="xtick_7">
     <g id="line2d_33">
      <path d="M 564.493965 331.778125 
L 564.493965 26.318125 
" clip-path="url(#p14d6347e47)" style="fill: none; stroke-dasharray: 1.85,0.8; stroke-dashoffset: 0; stroke: #b2b2b2; stroke-opacity: 0.3; stroke-width: 0.5"/>
     </g>
     <g id="line2d_34">
      <g>
       <use xlink:href="#m0ec9331f80" x="564.493965" y="331.778125" style="stroke: #000000; stroke-width: 0.8"/>
      </g>
     </g>
     <g id="text_17">
      <!-- 5 -->
      <g transform="translate(561.63084 342.116719) scale(0.09 -0.09)">
       <use xlink:href="#DejaVuSans-35"/>
      </g>
     </g>
    </g>
    <g id="xtick_8">
     <g id="line2d_35">
      <path d="M 650.724564 331.778125 
L 650.724564 26.318125 
" clip-path="url(#p14d6347e47)" style="fill: none; stroke-dasharray: 1.85,0.8; stroke-dashoffset: 0; stroke: #b2b2b2; stroke-opacity: 0.3; stroke-width: 0.5"/>
     </g>
     <g id="line2d_36">
      <g>
       <use xlink:href="#m0ec9331f80" x="650.724564" y="331.778125" style="stroke: #000000; stroke-width: 0.8"/>
      </g>
     </g>
     <g id="text_18">
      <!-- 10 -->
      <g transform="translate(644.998314 342.116719) scale(0.09 -0.09)">
       <use xlink:href="#DejaVuSans-31"/>
       <use xlink:href="#DejaVuSans-30" transform="translate(63.623047 0)"/>
      </g>
     </g>
    </g>
    <g id="xtick_9">
     <g id="line2d_37">
      <path d="M 736.955162 331.778125 
L 736.955162 26.318125 
" clip-path="url(#p14d6347e47)" style="fill: none; stroke-dasharray: 1.85,0.8; stroke-dashoffset: 0; stroke: #b2b2b2; stroke-opacity: 0.3; stroke-width: 0.5"/>
     </g>
     <g id="line2d_38">
      <g>
       <use xlink:href="#m0ec9331f80" x="736.955162" y="331.778125" style="stroke: #000000; stroke-width: 0.8"/>
      </g>
     </g>
     <g id="text_19">
      <!-- 15 -->
      <g transform="translate(731.228912 342.116719) scale(0.09 -0.09)">
       <use xlink:href="#DejaVuSans-31"/>
       <use xlink:href="#DejaVuSans-35" transform="translate(63.623047 0)"/>
      </g>
     </g>
    </g>
    <g id="xtick_10">
     <g id="line2d_39">
      <path d="M 823.185761 331.778125 
L 823.185761 26.318125 
" clip-path="url(#p14d6347e47)" style="fill: none; stroke-dasharray: 1.85,0.8; stroke-dashoffset: 0; stroke: #b2b2b2; stroke-opacity: 0.3; stroke-width: 0.5"/>
     </g>
     <g id="line2d_40">
      <g>
       <use xlink:href="#m0ec9331f80" x="823.185761" y="331.778125" style="stroke: #000000; stroke-width: 0.8"/>
      </g>
     </g>
     <g id="text_20">
      <!-- 20 -->
      <g transform="translate(817.459511 342.116719) scale(0.09 -0.09)">
       <use xlink:href="#DejaVuSans-32"/>
       <use xlink:href="#DejaVuSans-30" transform="translate(63.623047 0)"/>
      </g>
     </g>
    </g>
   </g>
   <g id="matplotlib.axis_4">
    <g id="ytick_10">
     <g id="line2d_41">
      <path d="M 460.586094 331.778125 
L 849.486094 331.778125 
" clip-path="url(#p14d6347e47)" style="fill: none; stroke-dasharray: 1.85,0.8; stroke-dashoffset: 0; stroke: #b2b2b2; stroke-opacity: 0.3; stroke-width: 0.5"/>
     </g>
     <g id="line2d_42">
      <g>
       <use xlink:href="#m795fc69cc6" x="460.586094" y="331.778125" style="stroke: #000000; stroke-width: 0.8"/>
      </g>
     </g>
     <g id="text_21">
      <!-- -1.00 -->
      <g transform="translate(433.8 335.197422) scale(0.09 -0.09)">
       <use xlink:href="#DejaVuSans-2d"/>
       <use xlink:href="#DejaVuSans-31" transform="translate(36.083984 0)"/>
       <use xlink:href="#DejaVuSans-2e" transform="translate(99.707031 0)"/>
       <use xlink:href="#DejaVuSans-30" transform="translate(131.494141 0)"/>
       <use xlink:href="#DejaVuSans-30" transform="translate(195.117188 0)"/>
      </g>
     </g>
    </g>
    <g id="ytick_11">
     <g id="line2d_43">
      <path d="M 460.586094 293.595625 
L 849.486094 293.595625 
" clip-path="url(#p14d6347e47)" style="fill: none; stroke-dasharray: 1.85,0.8; stroke-dashoffset: 0; stroke: #b2b2b2; stroke-opacity: 0.3; stroke-width: 0.5"/>
     </g>
     <g id="line2d_44">
      <g>
       <use xlink:href="#m795fc69cc6" x="460.586094" y="293.595625" style="stroke: #000000; stroke-width: 0.8"/>
      </g>
     </g>
     <g id="text_22">
      <!-- -0.75 -->
      <g transform="translate(433.8 297.014922) scale(0.09 -0.09)">
       <use xlink:href="#DejaVuSans-2d"/>
       <use xlink:href="#DejaVuSans-30" transform="translate(36.083984 0)"/>
       <use xlink:href="#DejaVuSans-2e" transform="translate(99.707031 0)"/>
       <use xlink:href="#DejaVuSans-37" transform="translate(131.494141 0)"/>
       <use xlink:href="#DejaVuSans-35" transform="translate(195.117188 0)"/>
      </g>
     </g>
    </g>
    <g id="ytick_12">
     <g id="line2d_45">
      <path d="M 460.586094 255.413125 
L 849.486094 255.413125 
" clip-path="url(#p14d6347e47)" style="fill: none; stroke-dasharray: 1.85,0.8; stroke-dashoffset: 0; stroke: #b2b2b2; stroke-opacity: 0.3; stroke-width: 0.5"/>
     </g>
     <g id="line2d_46">
      <g>
       <use xlink:href="#m795fc69cc6" x="460.586094" y="255.413125" style="stroke: #000000; stroke-width: 0.8"/>
      </g>
     </g>
     <g id="text_23">
      <!-- -0.50 -->
      <g transform="translate(433.8 258.832422) scale(0.09 -0.09)">
       <use xlink:href="#DejaVuSans-2d"/>
       <use xlink:href="#DejaVuSans-30" transform="translate(36.083984 0)"/>
       <use xlink:href="#DejaVuSans-2e" transform="translate(99.707031 0)"/>
       <use xlink:href="#DejaVuSans-35" transform="translate(131.494141 0)"/>
       <use xlink:href="#DejaVuSans-30" transform="translate(195.117188 0)"/>
      </g>
     </g>
    </g>
    <g id="ytick_13">
     <g id="line2d_47">
      <path d="M 460.586094 217.230625 
L 849.486094 217.230625 
" clip-path="url(#p14d6347e47)" style="fill: none; stroke-dasharray: 1.85,0.8; stroke-dashoffset: 0; stroke: #b2b2b2; stroke-opacity: 0.3; stroke-width: 0.5"/>
     </g>
     <g id="line2d_48">
      <g>
       <use xlink:href="#m795fc69cc6" x="460.586094" y="217.230625" style="stroke: #000000; stroke-width: 0.8"/>
      </g>
     </g>
     <g id="text_24">
      <!-- -0.25 -->
      <g transform="translate(433.8 220.649922) scale(0.09 -0.09)">
       <use xlink:href="#DejaVuSans-2d"/>
       <use xlink:href="#DejaVuSans-30" transform="translate(36.083984 0)"/>
       <use xlink:href="#DejaVuSans-2e" transform="translate(99.707031 0)"/>
       <use xlink:href="#DejaVuSans-32" transform="translate(131.494141 0)"/>
       <use xlink:href="#DejaVuSans-35" transform="translate(195.117188 0)"/>
      </g>
     </g>
    </g>
    <g id="ytick_14">
     <g id="line2d_49">
      <path d="M 460.586094 179.048125 
L 849.486094 179.048125 
" clip-path="url(#p14d6347e47)" style="fill: none; stroke-dasharray: 1.85,0.8; stroke-dashoffset: 0; stroke: #b2b2b2; stroke-opacity: 0.3; stroke-width: 0.5"/>
     </g>
     <g id="line2d_50">
      <g>
       <use xlink:href="#m795fc69cc6" x="460.586094" y="179.048125" style="stroke: #000000; stroke-width: 0.8"/>
      </g>
     </g>
     <g id="text_25">
      <!-- 0.00 -->
      <g transform="translate(437.047031 182.467422) scale(0.09 -0.09)">
       <use xlink:href="#DejaVuSans-30"/>
       <use xlink:href="#DejaVuSans-2e" transform="translate(63.623047 0)"/>
       <use xlink:href="#DejaVuSans-30" transform="translate(95.410156 0)"/>
       <use xlink:href="#DejaVuSans-30" transform="translate(159.033203 0)"/>
      </g>
     </g>
    </g>
    <g id="ytick_15">
     <g id="line2d_51">
      <path d="M 460.586094 140.865625 
L 849.486094 140.865625 
" clip-path="url(#p14d6347e47)" style="fill: none; stroke-dasharray: 1.85,0.8; stroke-dashoffset: 0; stroke: #b2b2b2; stroke-opacity: 0.3; stroke-width: 0.5"/>
     </g>
     <g id="line2d_52">
      <g>
       <use xlink:href="#m795fc69cc6" x="460.586094" y="140.865625" style="stroke: #000000; stroke-width: 0.8"/>
      </g>
     </g>
     <g id="text_26">
      <!-- 0.25 -->
      <g transform="translate(437.047031 144.284922) scale(0.09 -0.09)">
       <use xlink:href="#DejaVuSans-30"/>
       <use xlink:href="#DejaVuSans-2e" transform="translate(63.623047 0)"/>
       <use xlink:href="#DejaVuSans-32" transform="translate(95.410156 0)"/>
       <use xlink:href="#DejaVuSans-35" transform="translate(159.033203 0)"/>
      </g>
     </g>
    </g>
    <g id="ytick_16">
     <g id="line2d_53">
      <path d="M 460.586094 102.683125 
L 849.486094 102.683125 
" clip-path="url(#p14d6347e47)" style="fill: none; stroke-dasharray: 1.85,0.8; stroke-dashoffset: 0; stroke: #b2b2b2; stroke-opacity: 0.3; stroke-width: 0.5"/>
     </g>
     <g id="line2d_54">
      <g>
       <use xlink:href="#m795fc69cc6" x="460.586094" y="102.683125" style="stroke: #000000; stroke-width: 0.8"/>
      </g>
     </g>
     <g id="text_27">
      <!-- 0.50 -->
      <g transform="translate(437.047031 106.102422) scale(0.09 -0.09)">
       <use xlink:href="#DejaVuSans-30"/>
       <use xlink:href="#DejaVuSans-2e" transform="translate(63.623047 0)"/>
       <use xlink:href="#DejaVuSans-35" transform="translate(95.410156 0)"/>
       <use xlink:href="#DejaVuSans-30" transform="translate(159.033203 0)"/>
      </g>
     </g>
    </g>
    <g id="ytick_17">
     <g id="line2d_55">
      <path d="M 460.586094 64.500625 
L 849.486094 64.500625 
" clip-path="url(#p14d6347e47)" style="fill: none; stroke-dasharray: 1.85,0.8; stroke-dashoffset: 0; stroke: #b2b2b2; stroke-opacity: 0.3; stroke-width: 0.5"/>
     </g>
     <g id="line2d_56">
      <g>
       <use xlink:href="#m795fc69cc6" x="460.586094" y="64.500625" style="stroke: #000000; stroke-width: 0.8"/>
      </g>
     </g>
     <g id="text_28">
      <!-- 0.75 -->
      <g transform="translate(437.047031 67.919922) scale(0.09 -0.09)">
       <use xlink:href="#DejaVuSans-30"/>
       <use xlink:href="#DejaVuSans-2e" transform="translate(63.623047 0)"/>
       <use xlink:href="#DejaVuSans-37" transform="translate(95.410156 0)"/>
       <use xlink:href="#DejaVuSans-35" transform="translate(159.033203 0)"/>
      </g>
     </g>
    </g>
    <g id="ytick_18">
     <g id="line2d_57">
      <path d="M 460.586094 26.318125 
L 849.486094 26.318125 
" clip-path="url(#p14d6347e47)" style="fill: none; stroke-dasharray: 1.85,0.8; stroke-dashoffset: 0; stroke: #b2b2b2; stroke-opacity: 0.3; stroke-width: 0.5"/>
     </g>
     <g id="line2d_58">
      <g>
       <use xlink:href="#m795fc69cc6" x="460.586094" y="26.318125" style="stroke: #000000; stroke-width: 0.8"/>
      </g>
     </g>
     <g id="text_29">
      <!-- 1.00 -->
      <g transform="translate(437.047031 29.737422) scale(0.09 -0.09)">
       <use xlink:href="#DejaVuSans-31"/>
       <use xlink:href="#DejaVuSans-2e" transform="translate(63.623047 0)"/>
       <use xlink:href="#DejaVuSans-30" transform="translate(95.410156 0)"/>
       <use xlink:href="#DejaVuSans-30" transform="translate(159.033203 0)"/>
      </g>
     </g>
    </g>
   </g>
   <g id="LineCollection_2">
    <path d="M 478.263366 179.048125 
L 478.263366 26.318125 
" clip-path="url(#p14d6347e47)" style="fill: none; stroke: #348abd; stroke-width: 2"/>
    <path d="M 495.509486 179.048125 
L 495.509486 180.602126 
" clip-path="url(#p14d6347e47)" style="fill: none; stroke: #348abd; stroke-width: 2"/>
    <path d="M 512.755606 179.048125 
L 512.755606 182.69387 
" clip-path="url(#p14d6347e47)" style="fill: none; stroke: #348abd; stroke-width: 2"/>
    <path d="M 530.001726 179.048125 
L 530.001726 182.996768 
" clip-path="url(#p14d6347e47)" style="fill: none; stroke: #348abd; stroke-width: 2"/>
    <path d="M 547.247845 179.048125 
L 547.247845 185.235817 
" clip-path="url(#p14d6347e47)" style="fill: none; stroke: #348abd; stroke-width: 2"/>
    <path d="M 564.493965 179.048125 
L 564.493965 188.171689 
" clip-path="url(#p14d6347e47)" style="fill: none; stroke: #348abd; stroke-width: 2"/>
    <path d="M 581.740085 179.048125 
L 581.740085 196.184638 
" clip-path="url(#p14d6347e47)" style="fill: none; stroke: #348abd; stroke-width: 2"/>
    <path d="M 598.986205 179.048125 
L 598.986205 184.960377 
" clip-path="url(#p14d6347e47)" style="fill: none; stroke: #348abd; stroke-width: 2"/>
    <path d="M 616.232324 179.048125 
L 616.232324 177.385019 
" clip-path="url(#p14d6347e47)" style="fill: none; stroke: #348abd; stroke-width: 2"/>
    <path d="M 633.478444 179.048125 
L 633.478444 181.460812 
" clip-path="url(#p14d6347e47)" style="fill: none; stroke: #348abd; stroke-width: 2"/>
    <path d="M 650.724564 179.048125 
L 650.724564 181.364969 
" clip-path="url(#p14d6347e47)" style="fill: none; stroke: #348abd; stroke-width: 2"/>
    <path d="M 667.970684 179.048125 
L 667.970684 186.461308 
" clip-path="url(#p14d6347e47)" style="fill: none; stroke: #348abd; stroke-width: 2"/>
    <path d="M 685.216803 179.048125 
L 685.216803 196.44685 
" clip-path="url(#p14d6347e47)" style="fill: none; stroke: #348abd; stroke-width: 2"/>
    <path d="M 702.462923 179.048125 
L 702.462923 174.428962 
" clip-path="url(#p14d6347e47)" style="fill: none; stroke: #348abd; stroke-width: 2"/>
    <path d="M 719.709043 179.048125 
L 719.709043 180.805411 
" clip-path="url(#p14d6347e47)" style="fill: none; stroke: #348abd; stroke-width: 2"/>
    <path d="M 736.955162 179.048125 
L 736.955162 185.773887 
" clip-path="url(#p14d6347e47)" style="fill: none; stroke: #348abd; stroke-width: 2"/>
    <path d="M 754.201282 179.048125 
L 754.201282 190.012666 
" clip-path="url(#p14d6347e47)" style="fill: none; stroke: #348abd; stroke-width: 2"/>
    <path d="M 771.447402 179.048125 
L 771.447402 175.23983 
" clip-path="url(#p14d6347e47)" style="fill: none; stroke: #348abd; stroke-width: 2"/>
    <path d="M 788.693522 179.048125 
L 788.693522 175.898146 
" clip-path="url(#p14d6347e47)" style="fill: none; stroke: #348abd; stroke-width: 2"/>
    <path d="M 805.939641 179.048125 
L 805.939641 179.952252 
" clip-path="url(#p14d6347e47)" style="fill: none; stroke: #348abd; stroke-width: 2"/>
    <path d="M 823.185761 179.048125 
L 823.185761 176.264279 
" clip-path="url(#p14d6347e47)" style="fill: none; stroke: #348abd; stroke-width: 2"/>
   </g>
   <g id="line2d_59">
    <path d="M 460.586094 179.048125 
L 849.486094 179.048125 
" clip-path="url(#p14d6347e47)" style="fill: none; stroke: #348abd; stroke-width: 2; stroke-linecap: square"/>
   </g>
   <g id="line2d_60">
    <g clip-path="url(#p14d6347e47)">
     <use xlink:href="#m56bf3961dc" x="478.263366" y="26.318125" style="fill: #348abd; stroke: #348abd"/>
     <use xlink:href="#m56bf3961dc" x="495.509486" y="180.602126" style="fill: #348abd; stroke: #348abd"/>
     <use xlink:href="#m56bf3961dc" x="512.755606" y="182.69387" style="fill: #348abd; stroke: #348abd"/>
     <use xlink:href="#m56bf3961dc" x="530.001726" y="182.996768" style="fill: #348abd; stroke: #348abd"/>
     <use xlink:href="#m56bf3961dc" x="547.247845" y="185.235817" style="fill: #348abd; stroke: #348abd"/>
     <use xlink:href="#m56bf3961dc" x="564.493965" y="188.171689" style="fill: #348abd; stroke: #348abd"/>
     <use xlink:href="#m56bf3961dc" x="581.740085" y="196.184638" style="fill: #348abd; stroke: #348abd"/>
     <use xlink:href="#m56bf3961dc" x="598.986205" y="184.960377" style="fill: #348abd; stroke: #348abd"/>
     <use xlink:href="#m56bf3961dc" x="616.232324" y="177.385019" style="fill: #348abd; stroke: #348abd"/>
     <use xlink:href="#m56bf3961dc" x="633.478444" y="181.460812" style="fill: #348abd; stroke: #348abd"/>
     <use xlink:href="#m56bf3961dc" x="650.724564" y="181.364969" style="fill: #348abd; stroke: #348abd"/>
     <use xlink:href="#m56bf3961dc" x="667.970684" y="186.461308" style="fill: #348abd; stroke: #348abd"/>
     <use xlink:href="#m56bf3961dc" x="685.216803" y="196.44685" style="fill: #348abd; stroke: #348abd"/>
     <use xlink:href="#m56bf3961dc" x="702.462923" y="174.428962" style="fill: #348abd; stroke: #348abd"/>
     <use xlink:href="#m56bf3961dc" x="719.709043" y="180.805411" style="fill: #348abd; stroke: #348abd"/>
     <use xlink:href="#m56bf3961dc" x="736.955162" y="185.773887" style="fill: #348abd; stroke: #348abd"/>
     <use xlink:href="#m56bf3961dc" x="754.201282" y="190.012666" style="fill: #348abd; stroke: #348abd"/>
     <use xlink:href="#m56bf3961dc" x="771.447402" y="175.23983" style="fill: #348abd; stroke: #348abd"/>
     <use xlink:href="#m56bf3961dc" x="788.693522" y="175.898146" style="fill: #348abd; stroke: #348abd"/>
     <use xlink:href="#m56bf3961dc" x="805.939641" y="179.952252" style="fill: #348abd; stroke: #348abd"/>
     <use xlink:href="#m56bf3961dc" x="823.185761" y="176.264279" style="fill: #348abd; stroke: #348abd"/>
    </g>
   </g>
   <g id="patch_8">
    <path d="M 460.586094 331.778125 
L 460.586094 26.318125 
" style="fill: none; stroke: #000000; stroke-width: 0.8; stroke-linejoin: miter; stroke-linecap: square"/>
   </g>
   <g id="patch_9">
    <path d="M 849.486094 331.778125 
L 849.486094 26.318125 
" style="fill: none; stroke: #000000; stroke-width: 0.8; stroke-linejoin: miter; stroke-linecap: square"/>
   </g>
   <g id="patch_10">
    <path d="M 460.586094 331.778125 
L 849.486094 331.778125 
" style="fill: none; stroke: #000000; stroke-width: 0.8; stroke-linejoin: miter; stroke-linecap: square"/>
   </g>
   <g id="patch_11">
    <path d="M 460.586094 26.318125 
L 849.486094 26.318125 
" style="fill: none; stroke: #000000; stroke-width: 0.8; stroke-linejoin: miter; stroke-linecap: square"/>
   </g>
   <g id="text_30">
    <!-- 残差的偏自相关函数 (PACF) -->
    <g transform="translate(601.163594 16.318125) scale(0.12 -0.12)">
     <defs>
      <path id="DejaVuSans-504f" d="M 319 -1131 
L 319 4513 
L 3519 4513 
L 3519 -1131 
L 319 -1131 
z
M 678 -775 
L 3163 -775 
L 3163 4153 
L 678 4153 
L 678 -775 
z
" transform="scale(0.015625)"/>
      <path id="DejaVuSans-50" d="M 1259 4147 
L 1259 2394 
L 2053 2394 
Q 2494 2394 2734 2622 
Q 2975 2850 2975 3272 
Q 2975 3691 2734 3919 
Q 2494 4147 2053 4147 
L 1259 4147 
z
M 628 4666 
L 2053 4666 
Q 2838 4666 3239 4311 
Q 3641 3956 3641 3272 
Q 3641 2581 3239 2228 
Q 2838 1875 2053 1875 
L 1259 1875 
L 1259 0 
L 628 0 
L 628 4666 
z
" transform="scale(0.015625)"/>
     </defs>
     <use xlink:href="#DejaVuSans-6b8b"/>
     <use xlink:href="#DejaVuSans-5dee" transform="translate(60.009766 0)"/>
     <use xlink:href="#DejaVuSans-7684" transform="translate(120.019531 0)"/>
     <use xlink:href="#DejaVuSans-504f" transform="translate(180.029297 0)"/>
     <use xlink:href="#DejaVuSans-81ea" transform="translate(240.039062 0)"/>
     <use xlink:href="#DejaVuSans-76f8" transform="translate(300.048828 0)"/>
     <use xlink:href="#DejaVuSans-5173" transform="translate(360.058594 0)"/>
     <use xlink:href="#DejaVuSans-51fd" transform="translate(420.068359 0)"/>
     <use xlink:href="#DejaVuSans-6570" transform="translate(480.078125 0)"/>
     <use xlink:href="#DejaVuSans-20" transform="translate(540.087891 0)"/>
     <use xlink:href="#DejaVuSans-28" transform="translate(571.875 0)"/>
     <use xlink:href="#DejaVuSans-50" transform="translate(610.888672 0)"/>
     <use xlink:href="#DejaVuSans-41" transform="translate(664.816406 0)"/>
     <use xlink:href="#DejaVuSans-43" transform="translate(731.474609 0)"/>
     <use xlink:href="#DejaVuSans-46" transform="translate(801.298828 0)"/>
     <use xlink:href="#DejaVuSans-29" transform="translate(858.818359 0)"/>
    </g>
   </g>
  </g>
 </g>
 <defs>
  <clipPath id="p4a56f49dd2">
   <rect x="33.986094" y="26.318125" width="388.9" height="305.46"/>
  </clipPath>
  <clipPath id="p14d6347e47">
   <rect x="460.586094" y="26.318125" width="388.9" height="305.46"/>
  </clipPath>
 </defs>
</svg>
