<?xml version="1.0" encoding="utf-8" standalone="no"?>
<!DOCTYPE svg PUBLIC "-//W3C//DTD SVG 1.1//EN"
  "http://www.w3.org/Graphics/SVG/1.1/DTD/svg11.dtd">
<svg xmlns:xlink="http://www.w3.org/1999/xlink" width="856.495469pt" height="422.765937pt" viewBox="0 0 856.495469 422.765937" xmlns="http://www.w3.org/2000/svg" version="1.1">
 <metadata>
  <rdf:RDF xmlns:dc="http://purl.org/dc/elements/1.1/" xmlns:cc="http://creativecommons.org/ns#" xmlns:rdf="http://www.w3.org/1999/02/22-rdf-syntax-ns#">
   <cc:Work>
    <dc:type rdf:resource="http://purl.org/dc/dcmitype/StillImage"/>
    <dc:date>2026-01-16T01:39:57.623036</dc:date>
    <dc:format>image/svg+xml</dc:format>
    <dc:creator>
     <cc:Agent>
      <dc:title>Matplotlib v3.10.0, https://matplotlib.org/</dc:title>
     </cc:Agent>
    </dc:creator>
   </cc:Work>
  </rdf:RDF>
 </metadata>
 <defs>
  <style type="text/css">*{stroke-linejoin: round; stroke-linecap: butt}</style>
 </defs>
 <g id="figure_1">
  <g id="patch_1">
   <path d="M -0 422.765937 
L 856.495469 422.765937 
L 856.495469 0 
L -0 0 
z
" style="fill: #ffffff"/>
  </g>
  <g id="axes_1">
   <g id="patch_2">
    <path d="M 44.905469 389.6775 
L 849.295469 389.6775 
L 849.295469 26.10625 
L 44.905469 26.10625 
z
" style="fill: #ffffff"/>
   </g>
   <g id="matplotlib.axis_1">
    <g id="xtick_1">
     <g id="line2d_1">
      <path d="M 80.80083 389.6775 
L 80.80083 26.10625 
" clip-path="url(#p364c14407e)" style="fill: none; stroke-dasharray: 1.85,0.8; stroke-dashoffset: 0; stroke: #b2b2b2; stroke-opacity: 0.3; stroke-width: 0.5"/>
     </g>
     <g id="line2d_2">
      <defs>
       <path id="m10d4782e1c" d="M 0 0 
L 0 -3.5 
" style="stroke: #000000; stroke-width: 0.8"/>
      </defs>
      <g>
       <use xlink:href="#m10d4782e1c" x="80.80083" y="389.6775" style="stroke: #000000; stroke-width: 0.8"/>
      </g>
     </g>
     <g id="text_1">
      <!-- 0 -->
      <g transform="translate(77.937705 400.016094) scale(0.09 -0.09)">
       <defs>
        <path id="DejaVuSans-30" d="M 2034 4250 
Q 1547 4250 1301 3770 
Q 1056 3291 1056 2328 
Q 1056 1369 1301 889 
Q 1547 409 2034 409 
Q 2525 409 2770 889 
Q 3016 1369 3016 2328 
Q 3016 3291 2770 3770 
Q 2525 4250 2034 4250 
z
M 2034 4750 
Q 2819 4750 3233 4129 
Q 3647 3509 3647 2328 
Q 3647 1150 3233 529 
Q 2819 -91 2034 -91 
Q 1250 -91 836 529 
Q 422 1150 422 2328 
Q 422 3509 836 4129 
Q 1250 4750 2034 4750 
z
" transform="scale(0.015625)"/>
       </defs>
       <use xlink:href="#DejaVuSans-30"/>
      </g>
     </g>
    </g>
    <g id="xtick_2">
     <g id="line2d_3">
      <path d="M 247.755998 389.6775 
L 247.755998 26.10625 
" clip-path="url(#p364c14407e)" style="fill: none; stroke-dasharray: 1.85,0.8; stroke-dashoffset: 0; stroke: #b2b2b2; stroke-opacity: 0.3; stroke-width: 0.5"/>
     </g>
     <g id="line2d_4">
      <g>
       <use xlink:href="#m10d4782e1c" x="247.755998" y="389.6775" style="stroke: #000000; stroke-width: 0.8"/>
      </g>
     </g>
     <g id="text_2">
      <!-- 500 -->
      <g transform="translate(239.166623 400.016094) scale(0.09 -0.09)">
       <defs>
        <path id="DejaVuSans-35" d="M 691 4666 
L 3169 4666 
L 3169 4134 
L 1269 4134 
L 1269 2991 
Q 1406 3038 1543 3061 
Q 1681 3084 1819 3084 
Q 2600 3084 3056 2656 
Q 3513 2228 3513 1497 
Q 3513 744 3044 326 
Q 2575 -91 1722 -91 
Q 1428 -91 1123 -41 
Q 819 9 494 109 
L 494 744 
Q 775 591 1075 516 
Q 1375 441 1709 441 
Q 2250 441 2565 725 
Q 2881 1009 2881 1497 
Q 2881 1984 2565 2268 
Q 2250 2553 1709 2553 
Q 1456 2553 1204 2497 
Q 953 2441 691 2322 
L 691 4666 
z
" transform="scale(0.015625)"/>
       </defs>
       <use xlink:href="#DejaVuSans-35"/>
       <use xlink:href="#DejaVuSans-30" transform="translate(63.623047 0)"/>
       <use xlink:href="#DejaVuSans-30" transform="translate(127.246094 0)"/>
      </g>
     </g>
    </g>
    <g id="xtick_3">
     <g id="line2d_5">
      <path d="M 414.711166 389.6775 
L 414.711166 26.10625 
" clip-path="url(#p364c14407e)" style="fill: none; stroke-dasharray: 1.85,0.8; stroke-dashoffset: 0; stroke: #b2b2b2; stroke-opacity: 0.3; stroke-width: 0.5"/>
     </g>
     <g id="line2d_6">
      <g>
       <use xlink:href="#m10d4782e1c" x="414.711166" y="389.6775" style="stroke: #000000; stroke-width: 0.8"/>
      </g>
     </g>
     <g id="text_3">
      <!-- 1000 -->
      <g transform="translate(403.258666 400.016094) scale(0.09 -0.09)">
       <defs>
        <path id="DejaVuSans-31" d="M 794 531 
L 1825 531 
L 1825 4091 
L 703 3866 
L 703 4441 
L 1819 4666 
L 2450 4666 
L 2450 531 
L 3481 531 
L 3481 0 
L 794 0 
L 794 531 
z
" transform="scale(0.015625)"/>
       </defs>
       <use xlink:href="#DejaVuSans-31"/>
       <use xlink:href="#DejaVuSans-30" transform="translate(63.623047 0)"/>
       <use xlink:href="#DejaVuSans-30" transform="translate(127.246094 0)"/>
       <use xlink:href="#DejaVuSans-30" transform="translate(190.869141 0)"/>
      </g>
     </g>
    </g>
    <g id="xtick_4">
     <g id="line2d_7">
      <path d="M 581.666334 389.6775 
L 581.666334 26.10625 
" clip-path="url(#p364c14407e)" style="fill: none; stroke-dasharray: 1.85,0.8; stroke-dashoffset: 0; stroke: #b2b2b2; stroke-opacity: 0.3; stroke-width: 0.5"/>
     </g>
     <g id="line2d_8">
      <g>
       <use xlink:href="#m10d4782e1c" x="581.666334" y="389.6775" style="stroke: #000000; stroke-width: 0.8"/>
      </g>
     </g>
     <g id="text_4">
      <!-- 1500 -->
      <g transform="translate(570.213834 400.016094) scale(0.09 -0.09)">
       <use xlink:href="#DejaVuSans-31"/>
       <use xlink:href="#DejaVuSans-35" transform="translate(63.623047 0)"/>
       <use xlink:href="#DejaVuSans-30" transform="translate(127.246094 0)"/>
       <use xlink:href="#DejaVuSans-30" transform="translate(190.869141 0)"/>
      </g>
     </g>
    </g>
    <g id="xtick_5">
     <g id="line2d_9">
      <path d="M 748.621502 389.6775 
L 748.621502 26.10625 
" clip-path="url(#p364c14407e)" style="fill: none; stroke-dasharray: 1.85,0.8; stroke-dashoffset: 0; stroke: #b2b2b2; stroke-opacity: 0.3; stroke-width: 0.5"/>
     </g>
     <g id="line2d_10">
      <g>
       <use xlink:href="#m10d4782e1c" x="748.621502" y="389.6775" style="stroke: #000000; stroke-width: 0.8"/>
      </g>
     </g>
     <g id="text_5">
      <!-- 2000 -->
      <g transform="translate(737.169002 400.016094) scale(0.09 -0.09)">
       <defs>
        <path id="DejaVuSans-32" d="M 1228 531 
L 3431 531 
L 3431 0 
L 469 0 
L 469 531 
Q 828 903 1448 1529 
Q 2069 2156 2228 2338 
Q 2531 2678 2651 2914 
Q 2772 3150 2772 3378 
Q 2772 3750 2511 3984 
Q 2250 4219 1831 4219 
Q 1534 4219 1204 4116 
Q 875 4013 500 3803 
L 500 4441 
Q 881 4594 1212 4672 
Q 1544 4750 1819 4750 
Q 2544 4750 2975 4387 
Q 3406 4025 3406 3419 
Q 3406 3131 3298 2873 
Q 3191 2616 2906 2266 
Q 2828 2175 2409 1742 
Q 1991 1309 1228 531 
z
" transform="scale(0.015625)"/>
       </defs>
       <use xlink:href="#DejaVuSans-32"/>
       <use xlink:href="#DejaVuSans-30" transform="translate(63.623047 0)"/>
       <use xlink:href="#DejaVuSans-30" transform="translate(127.246094 0)"/>
       <use xlink:href="#DejaVuSans-30" transform="translate(190.869141 0)"/>
      </g>
     </g>
    </g>
    <g id="text_6">
     <!-- 时间 / 序号 -->
     <g transform="translate(430.234844 413.48625) scale(0.1 -0.1)">
      <defs>
       <path id="DejaVuSans-65f6" d="M 319 -1131 
L 319 4513 
L 3519 4513 
L 3519 -1131 
L 319 -1131 
z
M 678 -775 
L 3163 -775 
L 3163 4153 
L 678 4153 
L 678 -775 
z
" transform="scale(0.015625)"/>
       <path id="DejaVuSans-95f4" d="M 319 -1131 
L 319 4513 
L 3519 4513 
L 3519 -1131 
L 319 -1131 
z
M 678 -775 
L 3163 -775 
L 3163 4153 
L 678 4153 
L 678 -775 
z
" transform="scale(0.015625)"/>
       <path id="DejaVuSans-20" transform="scale(0.015625)"/>
       <path id="DejaVuSans-2f" d="M 1625 4666 
L 2156 4666 
L 531 -594 
L 0 -594 
L 1625 4666 
z
" transform="scale(0.015625)"/>
       <path id="DejaVuSans-5e8f" d="M 319 -1131 
L 319 4513 
L 3519 4513 
L 3519 -1131 
L 319 -1131 
z
M 678 -775 
L 3163 -775 
L 3163 4153 
L 678 4153 
L 678 -775 
z
" transform="scale(0.015625)"/>
       <path id="DejaVuSans-53f7" d="M 319 -1131 
L 319 4513 
L 3519 4513 
L 3519 -1131 
L 319 -1131 
z
M 678 -775 
L 3163 -775 
L 3163 4153 
L 678 4153 
L 678 -775 
z
" transform="scale(0.015625)"/>
      </defs>
      <use xlink:href="#DejaVuSans-65f6"/>
      <use xlink:href="#DejaVuSans-95f4" transform="translate(60.009766 0)"/>
      <use xlink:href="#DejaVuSans-20" transform="translate(120.019531 0)"/>
      <use xlink:href="#DejaVuSans-2f" transform="translate(151.806641 0)"/>
      <use xlink:href="#DejaVuSans-20" transform="translate(185.498047 0)"/>
      <use xlink:href="#DejaVuSans-5e8f" transform="translate(217.285156 0)"/>
      <use xlink:href="#DejaVuSans-53f7" transform="translate(277.294922 0)"/>
     </g>
    </g>
   </g>
   <g id="matplotlib.axis_2">
    <g id="ytick_1">
     <g id="line2d_11">
      <path d="M 44.905469 336.467084 
L 849.295469 336.467084 
" clip-path="url(#p364c14407e)" style="fill: none; stroke-dasharray: 1.85,0.8; stroke-dashoffset: 0; stroke: #b2b2b2; stroke-opacity: 0.3; stroke-width: 0.5"/>
     </g>
     <g id="line2d_12">
      <defs>
       <path id="m3eec9e9495" d="M 0 0 
L 3.5 0 
" style="stroke: #000000; stroke-width: 0.8"/>
      </defs>
      <g>
       <use xlink:href="#m3eec9e9495" x="44.905469" y="336.467084" style="stroke: #000000; stroke-width: 0.8"/>
      </g>
     </g>
     <g id="text_7">
      <!-- -200 -->
      <g transform="translate(20.979688 339.886381) scale(0.09 -0.09)">
       <defs>
        <path id="DejaVuSans-2d" d="M 313 2009 
L 1997 2009 
L 1997 1497 
L 313 1497 
L 313 2009 
z
" transform="scale(0.015625)"/>
       </defs>
       <use xlink:href="#DejaVuSans-2d"/>
       <use xlink:href="#DejaVuSans-32" transform="translate(36.083984 0)"/>
       <use xlink:href="#DejaVuSans-30" transform="translate(99.707031 0)"/>
       <use xlink:href="#DejaVuSans-30" transform="translate(163.330078 0)"/>
      </g>
     </g>
    </g>
    <g id="ytick_2">
     <g id="line2d_13">
      <path d="M 44.905469 272.197475 
L 849.295469 272.197475 
" clip-path="url(#p364c14407e)" style="fill: none; stroke-dasharray: 1.85,0.8; stroke-dashoffset: 0; stroke: #b2b2b2; stroke-opacity: 0.3; stroke-width: 0.5"/>
     </g>
     <g id="line2d_14">
      <g>
       <use xlink:href="#m3eec9e9495" x="44.905469" y="272.197475" style="stroke: #000000; stroke-width: 0.8"/>
      </g>
     </g>
     <g id="text_8">
      <!-- -100 -->
      <g transform="translate(20.979688 275.616772) scale(0.09 -0.09)">
       <use xlink:href="#DejaVuSans-2d"/>
       <use xlink:href="#DejaVuSans-31" transform="translate(36.083984 0)"/>
       <use xlink:href="#DejaVuSans-30" transform="translate(99.707031 0)"/>
       <use xlink:href="#DejaVuSans-30" transform="translate(163.330078 0)"/>
      </g>
     </g>
    </g>
    <g id="ytick_3">
     <g id="line2d_15">
      <path d="M 44.905469 207.927866 
L 849.295469 207.927866 
" clip-path="url(#p364c14407e)" style="fill: none; stroke-dasharray: 1.85,0.8; stroke-dashoffset: 0; stroke: #b2b2b2; stroke-opacity: 0.3; stroke-width: 0.5"/>
     </g>
     <g id="line2d_16">
      <g>
       <use xlink:href="#m3eec9e9495" x="44.905469" y="207.927866" style="stroke: #000000; stroke-width: 0.8"/>
      </g>
     </g>
     <g id="text_9">
      <!-- 0 -->
      <g transform="translate(35.679219 211.347163) scale(0.09 -0.09)">
       <use xlink:href="#DejaVuSans-30"/>
      </g>
     </g>
    </g>
    <g id="ytick_4">
     <g id="line2d_17">
      <path d="M 44.905469 143.658257 
L 849.295469 143.658257 
" clip-path="url(#p364c14407e)" style="fill: none; stroke-dasharray: 1.85,0.8; stroke-dashoffset: 0; stroke: #b2b2b2; stroke-opacity: 0.3; stroke-width: 0.5"/>
     </g>
     <g id="line2d_18">
      <g>
       <use xlink:href="#m3eec9e9495" x="44.905469" y="143.658257" style="stroke: #000000; stroke-width: 0.8"/>
      </g>
     </g>
     <g id="text_10">
      <!-- 100 -->
      <g transform="translate(24.226719 147.077554) scale(0.09 -0.09)">
       <use xlink:href="#DejaVuSans-31"/>
       <use xlink:href="#DejaVuSans-30" transform="translate(63.623047 0)"/>
       <use xlink:href="#DejaVuSans-30" transform="translate(127.246094 0)"/>
      </g>
     </g>
    </g>
    <g id="ytick_5">
     <g id="line2d_19">
      <path d="M 44.905469 79.388648 
L 849.295469 79.388648 
" clip-path="url(#p364c14407e)" style="fill: none; stroke-dasharray: 1.85,0.8; stroke-dashoffset: 0; stroke: #b2b2b2; stroke-opacity: 0.3; stroke-width: 0.5"/>
     </g>
     <g id="line2d_20">
      <g>
       <use xlink:href="#m3eec9e9495" x="44.905469" y="79.388648" style="stroke: #000000; stroke-width: 0.8"/>
      </g>
     </g>
     <g id="text_11">
      <!-- 200 -->
      <g transform="translate(24.226719 82.807945) scale(0.09 -0.09)">
       <use xlink:href="#DejaVuSans-32"/>
       <use xlink:href="#DejaVuSans-30" transform="translate(63.623047 0)"/>
       <use xlink:href="#DejaVuSans-30" transform="translate(127.246094 0)"/>
      </g>
     </g>
    </g>
    <g id="text_12">
     <!-- 差分后的 COD_mg/L 值 -->
     <g transform="translate(14.621875 252.366094) rotate(-90) scale(0.1 -0.1)">
      <defs>
       <path id="DejaVuSans-5dee" d="M 319 -1131 
L 319 4513 
L 3519 4513 
L 3519 -1131 
L 319 -1131 
z
M 678 -775 
L 3163 -775 
L 3163 4153 
L 678 4153 
L 678 -775 
z
" transform="scale(0.015625)"/>
       <path id="DejaVuSans-5206" d="M 319 -1131 
L 319 4513 
L 3519 4513 
L 3519 -1131 
L 319 -1131 
z
M 678 -775 
L 3163 -775 
L 3163 4153 
L 678 4153 
L 678 -775 
z
" transform="scale(0.015625)"/>
       <path id="DejaVuSans-540e" d="M 319 -1131 
L 319 4513 
L 3519 4513 
L 3519 -1131 
L 319 -1131 
z
M 678 -775 
L 3163 -775 
L 3163 4153 
L 678 4153 
L 678 -775 
z
" transform="scale(0.015625)"/>
       <path id="DejaVuSans-7684" d="M 319 -1131 
L 319 4513 
L 3519 4513 
L 3519 -1131 
L 319 -1131 
z
M 678 -775 
L 3163 -775 
L 3163 4153 
L 678 4153 
L 678 -775 
z
" transform="scale(0.015625)"/>
       <path id="DejaVuSans-43" d="M 4122 4306 
L 4122 3641 
Q 3803 3938 3442 4084 
Q 3081 4231 2675 4231 
Q 1875 4231 1450 3742 
Q 1025 3253 1025 2328 
Q 1025 1406 1450 917 
Q 1875 428 2675 428 
Q 3081 428 3442 575 
Q 3803 722 4122 1019 
L 4122 359 
Q 3791 134 3420 21 
Q 3050 -91 2638 -91 
Q 1578 -91 968 557 
Q 359 1206 359 2328 
Q 359 3453 968 4101 
Q 1578 4750 2638 4750 
Q 3056 4750 3426 4639 
Q 3797 4528 4122 4306 
z
" transform="scale(0.015625)"/>
       <path id="DejaVuSans-4f" d="M 2522 4238 
Q 1834 4238 1429 3725 
Q 1025 3213 1025 2328 
Q 1025 1447 1429 934 
Q 1834 422 2522 422 
Q 3209 422 3611 934 
Q 4013 1447 4013 2328 
Q 4013 3213 3611 3725 
Q 3209 4238 2522 4238 
z
M 2522 4750 
Q 3503 4750 4090 4092 
Q 4678 3434 4678 2328 
Q 4678 1225 4090 567 
Q 3503 -91 2522 -91 
Q 1538 -91 948 565 
Q 359 1222 359 2328 
Q 359 3434 948 4092 
Q 1538 4750 2522 4750 
z
" transform="scale(0.015625)"/>
       <path id="DejaVuSans-44" d="M 1259 4147 
L 1259 519 
L 2022 519 
Q 2988 519 3436 956 
Q 3884 1394 3884 2338 
Q 3884 3275 3436 3711 
Q 2988 4147 2022 4147 
L 1259 4147 
z
M 628 4666 
L 1925 4666 
Q 3281 4666 3915 4102 
Q 4550 3538 4550 2338 
Q 4550 1131 3912 565 
Q 3275 0 1925 0 
L 628 0 
L 628 4666 
z
" transform="scale(0.015625)"/>
       <path id="DejaVuSans-5f" d="M 3263 -1063 
L 3263 -1509 
L -63 -1509 
L -63 -1063 
L 3263 -1063 
z
" transform="scale(0.015625)"/>
       <path id="DejaVuSans-6d" d="M 3328 2828 
Q 3544 3216 3844 3400 
Q 4144 3584 4550 3584 
Q 5097 3584 5394 3201 
Q 5691 2819 5691 2113 
L 5691 0 
L 5113 0 
L 5113 2094 
Q 5113 2597 4934 2840 
Q 4756 3084 4391 3084 
Q 3944 3084 3684 2787 
Q 3425 2491 3425 1978 
L 3425 0 
L 2847 0 
L 2847 2094 
Q 2847 2600 2669 2842 
Q 2491 3084 2119 3084 
Q 1678 3084 1418 2786 
Q 1159 2488 1159 1978 
L 1159 0 
L 581 0 
L 581 3500 
L 1159 3500 
L 1159 2956 
Q 1356 3278 1631 3431 
Q 1906 3584 2284 3584 
Q 2666 3584 2933 3390 
Q 3200 3197 3328 2828 
z
" transform="scale(0.015625)"/>
       <path id="DejaVuSans-67" d="M 2906 1791 
Q 2906 2416 2648 2759 
Q 2391 3103 1925 3103 
Q 1463 3103 1205 2759 
Q 947 2416 947 1791 
Q 947 1169 1205 825 
Q 1463 481 1925 481 
Q 2391 481 2648 825 
Q 2906 1169 2906 1791 
z
M 3481 434 
Q 3481 -459 3084 -895 
Q 2688 -1331 1869 -1331 
Q 1566 -1331 1297 -1286 
Q 1028 -1241 775 -1147 
L 775 -588 
Q 1028 -725 1275 -790 
Q 1522 -856 1778 -856 
Q 2344 -856 2625 -561 
Q 2906 -266 2906 331 
L 2906 616 
Q 2728 306 2450 153 
Q 2172 0 1784 0 
Q 1141 0 747 490 
Q 353 981 353 1791 
Q 353 2603 747 3093 
Q 1141 3584 1784 3584 
Q 2172 3584 2450 3431 
Q 2728 3278 2906 2969 
L 2906 3500 
L 3481 3500 
L 3481 434 
z
" transform="scale(0.015625)"/>
       <path id="DejaVuSans-4c" d="M 628 4666 
L 1259 4666 
L 1259 531 
L 3531 531 
L 3531 0 
L 628 0 
L 628 4666 
z
" transform="scale(0.015625)"/>
       <path id="DejaVuSans-503c" d="M 319 -1131 
L 319 4513 
L 3519 4513 
L 3519 -1131 
L 319 -1131 
z
M 678 -775 
L 3163 -775 
L 3163 4153 
L 678 4153 
L 678 -775 
z
" transform="scale(0.015625)"/>
      </defs>
      <use xlink:href="#DejaVuSans-5dee"/>
      <use xlink:href="#DejaVuSans-5206" transform="translate(60.009766 0)"/>
      <use xlink:href="#DejaVuSans-540e" transform="translate(120.019531 0)"/>
      <use xlink:href="#DejaVuSans-7684" transform="translate(180.029297 0)"/>
      <use xlink:href="#DejaVuSans-20" transform="translate(240.039062 0)"/>
      <use xlink:href="#DejaVuSans-43" transform="translate(271.826172 0)"/>
      <use xlink:href="#DejaVuSans-4f" transform="translate(341.650391 0)"/>
      <use xlink:href="#DejaVuSans-44" transform="translate(420.361328 0)"/>
      <use xlink:href="#DejaVuSans-5f" transform="translate(497.363281 0)"/>
      <use xlink:href="#DejaVuSans-6d" transform="translate(547.363281 0)"/>
      <use xlink:href="#DejaVuSans-67" transform="translate(644.775391 0)"/>
      <use xlink:href="#DejaVuSans-2f" transform="translate(708.251953 0)"/>
      <use xlink:href="#DejaVuSans-4c" transform="translate(741.943359 0)"/>
      <use xlink:href="#DejaVuSans-20" transform="translate(797.65625 0)"/>
      <use xlink:href="#DejaVuSans-503c" transform="translate(829.443359 0)"/>
     </g>
    </g>
   </g>
   <g id="line2d_21">
    <path d="M 81.468651 202.220725 
L 81.802561 206.141171 
L 82.136471 196.712819 
L 82.470382 214.097748 
L 83.138202 206.006205 
L 83.472113 207.445844 
L 83.806023 214.039906 
L 84.139933 193.884956 
L 84.473844 145.734808 
L 84.807754 266.393287 
L 85.141664 211.796896 
L 85.475575 207.702922 
L 85.809485 207.13735 
L 86.143395 208.814787 
L 86.477306 217.362645 
L 86.811216 195.755202 
L 87.145126 214.946107 
L 87.479037 207.111642 
L 87.812947 207.902158 
L 88.146857 216.597836 
L 88.480768 197.766841 
L 88.814678 212.143952 
L 89.148588 192.901631 
L 89.482499 217.426914 
L 89.816409 206.179733 
L 90.150319 204.348049 
L 90.48423 150.413636 
L 90.81814 262.299312 
L 91.15205 202.04077 
L 91.485961 216.045118 
L 91.819871 204.624408 
L 92.153781 212.625974 
L 92.487692 211.886874 
L 92.821602 210.704313 
L 93.155512 205.215688 
L 93.489423 196.468595 
L 93.823333 192.220374 
L 94.157243 217.002735 
L 94.491154 194.476237 
L 94.825064 187.528692 
L 95.158974 203.043376 
L 95.492885 248.546259 
L 95.826795 198.364548 
L 96.160705 211.584807 
L 96.494616 206.822429 
L 96.828526 212.439593 
L 97.162436 202.342837 
L 97.496347 215.331725 
L 97.830257 218.750868 
L 98.164167 207.664361 
L 98.498078 203.036949 
L 98.831988 209.31609 
L 99.165898 204.66297 
L 99.499809 197.83111 
L 99.833719 208.936899 
L 100.167629 215.839455 
L 100.50154 210.717167 
L 100.83545 192.483879 
L 101.16936 233.834945 
L 101.503271 209.078292 
L 101.837181 207.535821 
L 102.171091 196.693538 
L 102.505002 210.402246 
L 102.838912 206.873844 
L 103.506733 210.537212 
L 104.174553 203.384005 
L 104.508464 209.483191 
L 104.842374 193.807833 
L 105.176284 171.513348 
L 105.510195 220.491932 
L 105.844105 195.3638 
L 106.178015 207.927866 
L 106.511926 207.927866 
L 106.845836 239.110838 
L 107.179746 194.55336 
L 107.513657 197.953223 
L 107.847567 204.232363 
L 108.181477 244.619386 
L 108.515388 246.283969 
L 108.849298 214.335546 
L 109.183208 193.820687 
L 109.517119 257.068409 
L 109.851029 191.333453 
L 110.184939 178.055352 
L 110.51885 204.804363 
L 110.85276 203.878881 
L 111.18667 216.52714 
L 111.520581 204.579419 
L 111.854491 204.065262 
L 112.188402 214.734018 
L 112.522312 207.998563 
L 112.856222 204.322341 
L 113.190133 204.148813 
L 113.524043 207.477979 
L 113.857953 140.509689 
L 114.191864 278.353861 
L 115.193595 166.743901 
L 115.527505 217.105566 
L 115.861415 202.509938 
L 116.195326 213.54503 
L 116.529236 200.787512 
L 116.863146 211.012807 
L 117.197057 203.628229 
L 117.530967 209.148989 
L 117.864877 206.501081 
L 118.198788 195.035382 
L 118.532698 214.836849 
L 118.866608 216.597836 
L 119.200519 208.879056 
L 119.534429 153.06797 
L 119.868339 252.549613 
L 120.20225 218.416666 
L 120.53616 215.813747 
L 120.87007 204.045982 
L 121.203981 204.354476 
L 121.537891 208.95618 
L 121.871801 221.205967 
L 122.205712 201.584456 
L 122.539622 201.051018 
L 122.873532 223.635358 
L 123.207443 195.478843 
L 123.541353 199.469985 
L 123.875263 220.074822 
L 124.209174 208.525573 
L 124.543084 211.128493 
L 124.876994 188.164961 
L 125.210905 220.698237 
L 125.544815 226.746007 
L 125.878725 198.480233 
L 126.212636 246.669586 
L 126.546546 185.684154 
L 126.880456 217.77397 
L 127.214367 219.605654 
L 127.548277 205.061441 
L 127.882187 211.848312 
L 128.216098 200.170524 
L 128.550008 197.336234 
L 128.883918 188.306354 
L 129.217829 222.36282 
L 129.885649 208.634832 
L 130.21956 182.939842 
L 130.55347 202.946971 
L 130.88738 199.688502 
L 131.221291 222.761292 
L 131.555201 217.677566 
L 131.889111 204.116678 
L 132.223022 155.348899 
L 132.556932 273.926327 
L 132.890842 187.747209 
L 133.224753 209.875235 
L 133.558663 205.074295 
L 133.892573 212.960176 
L 134.226484 202.098612 
L 134.560394 183.633954 
L 134.894304 219.303587 
L 135.228215 219.541384 
L 135.562125 207.960001 
L 135.896035 214.952534 
L 136.229946 240.236198 
L 137.231677 166.904575 
L 137.565587 217.253386 
L 137.899497 197.985357 
L 138.233408 203.936723 
L 138.567318 229.824522 
L 138.901228 202.150028 
L 139.235139 222.857696 
L 139.569049 193.769271 
L 139.902959 223.153336 
L 140.23687 225.184256 
L 140.57078 179.655665 
L 140.90469 204.695105 
L 141.238601 206.738878 
L 141.572511 227.81931 
L 142.240332 190.647054 
L 142.574242 204.665541 
L 142.908152 192.397115 
L 143.242063 225.366782 
L 143.575973 210.1291 
L 143.909883 133.323704 
L 144.243794 256.130715 
L 144.577704 236.542624 
L 144.911614 202.601201 
L 145.245525 195.076515 
L 145.579435 224.300549 
L 145.913345 234.585614 
L 146.247256 187.651447 
L 146.581166 242.461855 
L 146.915076 193.136215 
L 147.248987 188.564075 
L 147.582897 173.154151 
L 147.916807 274.302305 
L 148.250718 155.997379 
L 148.584628 232.671665 
L 148.918538 230.657456 
L 149.252449 184.589 
L 149.586359 122.350954 
L 149.920269 296.671342 
L 150.25418 189.170781 
L 150.58809 183.470709 
L 150.922001 218.938535 
L 151.255911 231.111842 
L 151.589821 177.438363 
L 151.923732 215.723127 
L 152.257642 224.790926 
L 152.591552 219.857591 
L 152.925463 199.994425 
L 153.259373 199.71421 
L 153.593283 204.454094 
L 153.927194 185.606388 
L 154.261104 220.449514 
L 154.595014 199.004673 
L 154.928925 224.837843 
L 155.262835 211.044299 
L 155.596745 167.07746 
L 155.930656 230.829698 
L 156.264566 198.136391 
L 156.598476 242.974726 
L 156.932387 195.941584 
L 157.266297 196.659475 
L 157.600207 216.259778 
L 157.934118 188.020997 
L 158.268028 231.152332 
L 158.935849 178.18132 
L 159.269759 220.946961 
L 159.603669 239.69312 
L 159.93758 198.585636 
L 160.27149 207.467696 
L 160.6054 209.602089 
L 160.939311 189.05381 
L 161.273221 234.322109 
L 161.607131 178.596502 
L 161.941042 264.179199 
L 162.274952 204.822358 
L 162.608862 194.71532 
L 162.942773 219.443695 
L 163.276683 213.370216 
L 163.610593 195.305957 
L 163.944504 196.042487 
L 164.278414 236.826053 
L 164.612324 178.016147 
L 164.946235 223.456689 
L 165.280145 187.071735 
L 165.614055 229.143907 
L 165.947966 188.447747 
L 166.281876 246.107227 
L 166.615786 198.199375 
L 166.949697 208.428526 
L 167.283607 212.584842 
L 167.617517 207.927866 
L 167.951428 169.020973 
L 168.285338 229.116271 
L 168.953159 199.700713 
L 169.287069 225.741474 
L 169.620979 180.83437 
L 169.95489 231.655563 
L 170.2888 190.084052 
L 170.62271 214.178085 
L 170.956621 117.483173 
L 171.290531 297.628959 
L 171.624441 218.635183 
L 171.958352 199.122287 
L 172.292262 226.480574 
L 172.626172 204.463734 
L 172.960083 193.824543 
L 173.293993 206.575633 
L 173.627903 199.872956 
L 173.961814 223.04922 
L 174.295724 216.023266 
L 174.629634 200.33634 
L 174.963545 219.534315 
L 175.297455 187.767132 
L 175.631365 227.215176 
L 175.965276 239.529233 
L 176.299186 170.745326 
L 176.967007 218.29841 
L 177.300917 209.319946 
L 177.634827 178.775814 
L 177.968738 176.097057 
L 178.302648 266.173485 
L 178.636558 217.06829 
L 179.304379 172.232525 
L 179.638289 241.203456 
L 179.9722 218.874266 
L 180.30611 101.582872 
L 180.64002 311.120436 
L 180.973931 208.016558 
L 181.307841 204.676466 
L 181.641751 218.270131 
L 181.975662 192.663834 
L 182.309572 216.01941 
L 182.643482 224.101313 
L 182.977393 209.515968 
L 183.311303 210.426026 
L 183.645213 207.139278 
L 183.979124 215.564381 
L 184.313034 206.888626 
L 184.646944 206.512649 
L 184.980855 195.984645 
L 185.314765 218.784931 
L 185.648675 213.568167 
L 185.982586 211.179266 
L 186.316496 200.182093 
L 186.650406 201.529184 
L 186.984317 204.079402 
L 187.318227 203.587739 
L 187.652137 225.379636 
L 187.986048 207.760122 
L 188.319958 203.806256 
L 188.987779 208.290347 
L 189.321689 207.087219 
L 189.6556 207.605875 
L 189.98951 204.997172 
L 190.32342 211.489045 
L 190.657331 171.690732 
L 190.991241 249.661337 
L 191.325151 195.438996 
L 191.659062 212.125314 
L 191.992972 148.31459 
L 192.326882 269.749446 
L 192.660793 207.188123 
L 192.994703 208.030697 
L 193.328613 211.188906 
L 193.662524 211.122708 
L 193.996434 191.103368 
L 194.330344 219.428913 
L 194.664255 227.168902 
L 194.998165 199.27075 
L 195.332075 212.050119 
L 195.665986 208.82507 
L 195.999896 212.235215 
L 196.333806 174.037216 
L 196.667717 223.500392 
L 197.001627 210.530785 
L 197.335537 216.819566 
L 197.669448 190.316708 
L 198.003358 204.396894 
L 198.337268 228.394523 
L 199.005089 196.061768 
L 199.338999 228.251202 
L 199.67291 193.867604 
L 200.00682 212.02891 
L 200.34073 181.109444 
L 200.674641 94.788289 
L 201.008551 314.288285 
L 201.342461 213.489758 
L 201.676372 200.586349 
L 202.010282 202.560711 
L 202.678103 218.435304 
L 203.012013 205.10643 
L 203.345923 148.568455 
L 203.679834 241.526089 
L 204.013744 197.662724 
L 204.347654 225.059573 
L 204.681565 198.579209 
L 205.015475 215.127348 
L 205.349385 209.111069 
L 205.683296 213.397852 
L 206.017206 190.003072 
L 206.351116 202.067763 
L 206.685027 209.238323 
L 207.352847 193.193415 
L 207.686758 200.454596 
L 208.020668 213.555956 
L 208.354578 211.845741 
L 208.688489 210.945324 
L 209.022399 204.830714 
L 209.356309 156.341222 
L 209.69022 280.040295 
L 210.02413 206.465732 
L 210.35804 209.498615 
L 210.691951 205.180983 
L 211.025861 231.527024 
L 211.359771 216.153733 
L 211.693682 216.392816 
L 212.027592 207.155345 
L 212.361502 209.888732 
L 212.695413 208.177875 
L 213.029323 210.058404 
L 213.363233 206.287063 
L 213.697144 210.353401 
L 214.031054 188.763311 
L 215.032785 209.862381 
L 215.366695 209.014022 
L 215.700606 209.600161 
L 216.034516 210.738376 
L 216.368426 207.78583 
L 216.702337 200.361405 
L 217.036247 211.341868 
L 217.370157 209.598233 
L 217.704068 204.209869 
L 218.037978 206.625764 
L 218.371888 206.59877 
L 218.705799 208.009488 
L 219.039709 206.844923 
L 219.373619 210.095037 
L 219.70753 208.909906 
L 220.04144 199.922443 
L 220.37535 212.379822 
L 220.709261 205.784475 
L 221.043171 195.618308 
L 221.377081 231.125981 
L 221.710992 151.818569 
L 222.044902 178.924277 
L 222.378812 279.092961 
L 222.712723 191.023031 
L 223.046633 256.182774 
L 223.380543 236.702655 
L 223.714454 224.938103 
L 224.048364 206.893768 
L 224.382274 199.395433 
L 224.716185 207.927866 
L 225.050095 200.606915 
L 225.384005 222.046614 
L 225.717916 207.494046 
L 226.051826 205.710564 
L 226.385736 207.468338 
L 226.719647 194.441531 
L 227.053557 224.636679 
L 227.387468 204.168094 
L 227.721378 205.85003 
L 228.055288 211.443414 
L 228.389199 210.803288 
L 228.723109 207.882235 
L 229.057019 210.995454 
L 229.39093 208.382252 
L 229.72484 221.56652 
L 230.05875 206.458663 
L 230.392661 211.381072 
L 230.726571 42.632216 
L 231.060481 373.151534 
L 231.394392 205.634084 
L 231.728302 212.351543 
L 232.396123 208.148953 
L 232.730033 203.226544 
L 233.397854 209.810323 
L 233.731764 200.583135 
L 234.399585 211.387499 
L 234.733495 205.060799 
L 235.067405 204.105752 
L 235.401316 207.602019 
L 235.735226 213.51161 
L 236.069136 208.085327 
L 236.403047 207.960001 
L 236.736957 209.238966 
L 237.070867 207.840459 
L 237.404778 194.449886 
L 237.738688 213.705061 
L 238.072598 211.606016 
L 238.406509 204.499082 
L 238.740419 206.570492 
L 239.074329 204.276709 
L 239.40824 206.504294 
L 239.74215 62.555795 
L 240.07606 346.851767 
L 240.409971 207.672716 
L 240.743881 196.63441 
L 241.077791 217.328582 
L 241.411702 200.381328 
L 241.745612 210.642614 
L 242.079522 197.643443 
L 242.413433 219.422486 
L 242.747343 213.043084 
L 243.081253 219.200113 
L 243.415164 207.965142 
L 243.749074 203.243254 
L 244.082984 204.140458 
L 244.416895 209.515968 
L 244.750805 207.558316 
L 245.084715 209.446557 
L 245.418626 206.49144 
L 245.752536 214.235285 
L 246.420357 204.045339 
L 246.754267 205.369936 
L 247.088177 207.927866 
L 247.422088 201.138424 
L 247.755998 200.240578 
L 248.089908 223.077498 
L 248.757729 204.639833 
L 249.091639 202.915479 
L 249.42555 210.160592 
L 249.75946 207.295453 
L 250.09337 208.750517 
L 250.761191 201.167989 
L 251.095101 188.020997 
L 251.429012 237.442399 
L 251.762922 208.593056 
L 252.096832 198.155029 
L 252.764653 218.527853 
L 253.098563 201.194339 
L 253.432474 206.853278 
L 253.766384 202.847353 
L 254.100294 213.930005 
L 254.434205 207.102002 
L 254.768115 209.242179 
L 255.102025 204.108323 
L 255.435936 204.676466 
L 255.769846 204.988174 
L 256.103756 212.121458 
L 256.437667 207.810895 
L 256.771577 208.296131 
L 257.105487 207.923367 
L 257.439398 210.789792 
L 257.773308 208.328266 
L 258.107218 199.198768 
L 258.441129 196.769376 
L 258.775039 227.688843 
L 259.108949 208.062832 
L 259.44286 205.668789 
L 259.77677 71.18656 
L 260.11068 354.784565 
L 260.444591 210.825783 
L 261.112411 201.819682 
L 261.446322 204.990745 
L 261.780232 204.718242 
L 262.114142 214.817568 
L 262.781963 195.492339 
L 263.115873 210.825783 
L 263.449784 216.838205 
L 263.783694 209.12778 
L 264.117604 207.927866 
L 264.451515 207.197763 
L 264.785425 213.717915 
L 265.119335 209.673429 
L 265.453246 209.181123 
L 265.787156 204.520934 
L 266.121067 214.35804 
L 266.454977 213.196689 
L 267.122798 203.200194 
L 267.456708 214.100319 
L 267.790618 209.145132 
L 268.124529 176.177394 
L 268.458439 220.526637 
L 268.792349 211.82646 
L 269.12626 209.593092 
L 269.46017 196.770662 
L 269.79408 199.556749 
L 270.127991 80.231223 
L 270.461901 343.76297 
L 270.795811 182.070917 
L 271.129722 215.03737 
L 271.463632 215.887014 
L 272.131453 207.927866 
L 272.465363 221.499679 
L 272.799273 164.975844 
L 273.133184 248.422219 
L 273.467094 206.519076 
L 273.801004 214.93968 
L 274.134915 214.635685 
L 274.468825 207.448415 
L 274.802735 209.54746 
L 275.136646 210.857275 
L 275.470556 207.927866 
L 275.804466 217.333723 
L 276.138377 166.03822 
L 276.472287 206.072402 
L 276.806197 210.449163 
L 277.140108 204.211154 
L 277.474018 224.848769 
L 277.807928 198.291281 
L 278.141839 210.745446 
L 278.475749 207.184267 
L 278.809659 210.33412 
L 279.14357 205.168129 
L 279.47748 204.97532 
L 279.81139 221.588371 
L 280.813121 198.99439 
L 281.147032 208.057691 
L 281.480942 207.051871 
L 281.814852 203.125641 
L 282.148763 223.786392 
L 282.482673 199.572817 
L 282.816583 205.494619 
L 283.150494 177.725006 
L 283.484404 240.386589 
L 283.818314 210.890695 
L 284.152225 217.027157 
L 284.486135 216.376106 
L 285.153956 197.826612 
L 285.487866 212.489723 
L 285.821776 207.217044 
L 286.155687 204.619909 
L 286.489597 200.070906 
L 286.823507 206.433598 
L 287.157418 197.367727 
L 287.491328 215.770686 
L 287.825238 210.981315 
L 288.159149 213.817533 
L 288.826969 182.473245 
L 289.16088 234.256554 
L 289.49479 200.757948 
L 289.8287 83.604092 
L 290.162611 340.731373 
L 290.496521 209.654148 
L 290.830431 206.700959 
L 291.164342 201.322236 
L 291.498252 208.391893 
L 291.832162 206.621908 
L 292.166073 219.900009 
L 292.499983 207.740841 
L 292.833893 203.074225 
L 293.167804 205.760695 
L 293.501714 175.816841 
L 293.835624 230.863761 
L 294.169535 200.91798 
L 294.503445 225.285159 
L 294.837355 204.335838 
L 295.171266 196.884419 
L 295.505176 209.357865 
L 295.839086 201.674433 
L 296.172997 203.975928 
L 296.506907 207.124496 
L 296.840817 240.923883 
L 297.174728 191.820617 
L 297.508638 206.178447 
L 297.842548 210.809715 
L 298.176459 233.57144 
L 298.510369 207.927866 
L 298.844279 223.848734 
L 299.17819 156.38621 
L 299.5121 222.798568 
L 299.84601 200.566425 
L 300.179921 221.979773 
L 300.513831 192.819366 
L 300.847741 226.721585 
L 301.181652 213.206972 
L 301.515562 205.955432 
L 301.849472 202.831929 
L 302.183383 206.600699 
L 302.517293 202.579349 
L 302.851203 205.47341 
L 303.185114 206.106465 
L 303.519024 172.7891 
L 303.852935 238.218775 
L 304.186845 211.690852 
L 304.520755 197.650513 
L 304.854666 228.378456 
L 305.188576 205.135994 
L 305.522486 205.451558 
L 305.856397 195.431283 
L 306.190307 205.371221 
L 306.524217 206.425243 
L 306.858128 204.208584 
L 307.192038 203.464342 
L 307.525948 208.772369 
L 307.859859 205.256178 
L 308.193769 212.895907 
L 308.527679 204.375042 
L 308.86159 212.467228 
L 309.1955 204.631478 
L 309.52941 208.724166 
L 309.863321 201.612734 
L 310.197231 215.056008 
L 310.865052 203.603164 
L 311.198962 207.825035 
L 311.532872 204.91812 
L 311.866783 212.336118 
L 312.200693 201.303597 
L 312.534603 215.154341 
L 312.868514 203.479124 
L 313.202424 215.343293 
L 313.536334 175.979443 
L 313.870245 242.421365 
L 314.204155 206.880914 
L 314.538065 209.549388 
L 315.205886 207.427848 
L 315.539796 208.611695 
L 315.873707 200.069621 
L 316.207617 211.058439 
L 316.541527 242.50363 
L 316.875438 208.877771 
L 317.209348 209.568026 
L 317.543258 209.108499 
L 317.877169 207.834675 
L 318.211079 208.296131 
L 318.544989 209.20426 
L 318.8789 209.176624 
L 319.21281 204.444453 
L 319.54672 207.699709 
L 319.880631 205.051801 
L 320.214541 212.565561 
L 320.548451 206.04091 
L 320.882362 205.117356 
L 321.216272 206.978604 
L 321.550182 206.211867 
L 321.884093 209.367505 
L 322.218003 206.849422 
L 322.551913 211.815535 
L 322.885824 205.126996 
L 323.219734 202.149385 
L 323.553644 211.329014 
L 323.887555 168.451544 
L 324.221465 246.980651 
L 324.555375 211.091216 
L 324.889286 207.281956 
L 325.223196 205.245253 
L 325.557106 208.311556 
L 325.891017 209.660575 
L 326.224927 202.772801 
L 326.558837 227.260807 
L 326.892748 212.569417 
L 327.226658 182.942413 
L 327.560568 216.01941 
L 327.894479 197.815043 
L 328.228389 202.377543 
L 328.562299 209.737055 
L 328.89621 213.221754 
L 329.23012 212.901691 
L 329.56403 210.125244 
L 329.897941 214.875411 
L 330.231851 221.954708 
L 330.565761 185.364734 
L 330.899672 220.480363 
L 331.233582 200.179522 
L 331.567492 209.097573 
L 331.901403 206.916262 
L 332.235313 210.594412 
L 332.569223 205.657863 
L 332.903134 211.379787 
L 333.237044 206.476658 
L 333.570954 210.577702 
L 333.904865 162.067001 
L 334.238775 260.216334 
L 334.572685 212.197939 
L 334.906596 203.887878 
L 335.240506 201.009885 
L 335.574416 208.429812 
L 335.908327 205.947719 
L 336.242237 206.877701 
L 336.576147 59.484993 
L 336.910058 351.729831 
L 337.243968 209.649649 
L 337.577878 205.603877 
L 337.911789 223.839736 
L 338.245699 198.901199 
L 338.579609 202.560711 
L 338.91352 210.041051 
L 339.24743 213.246176 
L 339.915251 201.583813 
L 340.249161 199.805473 
L 340.583071 202.350549 
L 340.916982 209.52368 
L 341.250892 206.225364 
L 341.584802 207.818608 
L 341.918713 206.962536 
L 342.252623 209.289096 
L 342.586534 205.309522 
L 342.920444 203.22076 
L 343.254354 168.016439 
L 343.588265 265.310986 
L 343.922175 201.87881 
L 344.256085 198.243079 
L 344.589996 208.339834 
L 344.923906 211.623368 
L 345.257816 202.794652 
L 345.591727 206.70353 
L 345.925637 205.827535 
L 346.259547 219.757973 
L 346.593458 209.521752 
L 346.927368 205.207976 
L 347.261278 205.340372 
L 347.595189 185.731714 
L 347.929099 229.617574 
L 348.263009 200.817719 
L 348.59692 202.218797 
L 348.93083 208.838566 
L 349.26474 202.363403 
L 349.598651 207.601376 
L 349.932561 214.771294 
L 350.266471 204.031842 
L 350.600382 204.569779 
L 350.934292 215.073361 
L 351.268202 210.910619 
L 351.602113 204.405249 
L 351.936023 210.345689 
L 352.269933 210.283347 
L 352.603844 170.366778 
L 352.937754 240.066527 
L 353.271664 206.714456 
L 353.605575 209.922152 
L 353.939485 209.544889 
L 354.273395 207.78583 
L 354.607306 196.489161 
L 354.941216 225.116773 
L 355.275126 213.057223 
L 355.609037 208.346261 
L 355.942947 191.787196 
L 356.276857 223.069786 
L 356.610768 203.445061 
L 357.278588 215.140844 
L 357.612499 209.507613 
L 357.946409 210.410601 
L 358.280319 198.234724 
L 358.61423 207.271031 
L 358.94814 208.656041 
L 359.28205 209.41635 
L 359.615961 203.941222 
L 359.949871 213.881803 
L 360.283781 204.153312 
L 360.617692 212.793075 
L 360.951602 203.033093 
L 361.285512 205.695782 
L 361.619423 205.387288 
L 361.953333 213.255174 
L 362.287243 206.98953 
L 362.621154 183.655805 
L 362.955064 218.105601 
L 363.288974 173.251841 
L 363.622885 244.61553 
L 363.956795 214.005843 
L 364.290705 211.029517 
L 364.624616 212.61312 
L 364.958526 212.796289 
L 365.292436 199.611379 
L 365.626347 202.718814 
L 365.960257 200.370403 
L 366.294167 199.285532 
L 366.628078 233.967341 
L 366.961988 204.95154 
L 367.295898 208.188158 
L 367.629809 202.819075 
L 367.963719 202.866634 
L 368.297629 208.642544 
L 368.63154 206.123818 
L 368.96545 202.133318 
L 369.29936 214.275133 
L 369.633271 220.936678 
L 369.967181 201.256681 
L 370.301091 212.656824 
L 370.635002 207.997277 
L 370.968912 205.995279 
L 371.302822 215.114494 
L 371.636733 193.829042 
L 371.970643 214.078468 
L 372.304553 208.903479 
L 372.638464 227.728047 
L 372.972374 183.544619 
L 373.306284 170.442617 
L 373.640195 248.606672 
L 373.974105 209.966498 
L 374.308015 208.903479 
L 374.641926 200.910267 
L 374.975836 198.882561 
L 375.309746 207.21126 
L 375.643657 195.233333 
L 375.977567 224.524207 
L 376.311477 231.796956 
L 376.979298 191.701718 
L 377.313208 208.045479 
L 377.647119 210.978744 
L 377.981029 197.440994 
L 378.314939 244.380946 
L 378.64885 202.465592 
L 378.98276 202.774086 
L 379.31667 211.056511 
L 379.650581 208.34112 
L 379.984491 148.591592 
L 380.318402 257.794656 
L 380.652312 209.935649 
L 380.986222 210.907405 
L 381.654043 202.955969 
L 381.987953 193.780197 
L 382.321864 206.944541 
L 382.655774 231.61186 
L 382.989684 200.249576 
L 383.323595 217.041297 
L 383.657505 152.722843 
L 383.991415 267.368257 
L 384.325326 207.264604 
L 384.659236 197.397933 
L 384.993146 224.145016 
L 385.327057 208.447807 
L 385.660967 218.463583 
L 385.994877 194.397828 
L 386.328788 189.116794 
L 386.662698 214.214076 
L 386.996608 211.08029 
L 387.330519 211.798825 
L 387.664429 218.717448 
L 387.998339 201.423139 
L 388.33225 203.813968 
L 388.66616 212.698599 
L 389.00007 209.567384 
L 389.333981 198.604917 
L 389.667891 206.415602 
L 390.001801 199.141568 
L 390.335712 199.462916 
L 390.669622 228.32704 
L 391.003532 211.832245 
L 391.337443 204.464377 
L 391.671353 187.461852 
L 392.005263 211.528892 
L 392.673084 222.713732 
L 393.006994 202.774086 
L 393.340905 198.831146 
L 393.674815 217.219966 
L 394.008725 200.14096 
L 394.342636 204.326197 
L 394.676546 168.744613 
L 395.010456 240.646239 
L 395.344367 192.204949 
L 395.678277 231.38306 
L 396.012187 223.414271 
L 396.346098 201.484195 
L 396.680008 212.401031 
L 397.013918 208.063475 
L 397.347829 199.95265 
L 397.681739 207.927866 
L 398.015649 198.1576 
L 398.34956 201.290743 
L 399.01738 231.80274 
L 399.351291 206.637975 
L 399.685201 195.250686 
L 400.019111 215.493684 
L 400.353022 210.608551 
L 400.686932 216.471225 
L 401.020842 208.052549 
L 401.354753 207.404711 
L 402.022573 215.281595 
L 402.356484 208.612337 
L 402.690394 204.601271 
L 403.024304 195.068803 
L 403.358215 179.624173 
L 403.692125 217.442982 
L 404.026035 175.20628 
L 404.359946 259.606416 
L 404.693856 207.839817 
L 405.027766 212.115031 
L 405.361677 201.607593 
L 405.695587 201.259894 
L 406.029497 191.436927 
L 406.697318 197.160136 
L 407.031228 209.012737 
L 407.365139 207.927866 
L 407.699049 246.889388 
L 408.032959 211.54753 
L 408.36687 202.471376 
L 408.70078 200.875562 
L 409.03469 202.133961 
L 409.368601 197.114504 
L 409.702511 200.673113 
L 410.036421 195.891454 
L 410.370332 203.040805 
L 410.704242 233.49046 
L 411.038152 186.732392 
L 411.372063 179.469283 
L 411.705973 183.998362 
L 412.039883 264.199122 
L 412.373794 257.452741 
L 412.707704 213.804679 
L 413.375525 195.129859 
L 413.709435 210.5867 
L 414.043345 162.799675 
L 414.377256 243.325639 
L 414.711166 221.774753 
L 415.378987 199.608808 
L 415.712897 198.985393 
L 416.046807 211.264101 
L 416.380718 209.407995 
L 416.714628 198.337555 
L 417.048538 211.871449 
L 417.382449 186.764526 
L 417.716359 218.047116 
L 418.050269 206.402105 
L 418.38418 213.32587 
L 418.71809 215.791253 
L 419.052001 209.117496 
L 419.385911 209.108499 
L 419.719821 206.300559 
L 420.053732 207.690711 
L 420.387642 214.393389 
L 420.721552 203.887236 
L 421.055463 200.11718 
L 421.389373 208.73445 
L 421.723283 208.407317 
L 422.057194 212.237786 
L 422.391104 205.310165 
L 422.725014 208.375182 
L 423.058925 198.627411 
L 423.392835 227.571229 
L 423.726745 200.928263 
L 424.060656 204.57235 
L 424.394566 215.822102 
L 424.728476 162.860731 
L 425.062387 249.428038 
L 425.396297 205.117999 
L 425.730207 204.890484 
L 426.064118 210.560992 
L 426.398028 218.42245 
L 426.731938 210.56292 
L 427.065849 211.375931 
L 427.399759 210.326408 
L 427.733669 210.323194 
L 428.06758 201.656438 
L 428.40149 205.001028 
L 428.7354 198.685254 
L 429.069311 214.95639 
L 429.403221 216.90633 
L 429.737131 200.180165 
L 430.071042 210.100821 
L 430.404952 205.558888 
L 430.738862 206.62962 
L 431.072773 212.288559 
L 431.406683 209.576381 
L 431.740593 208.977389 
L 432.074504 202.038199 
L 432.408414 207.576954 
L 432.742324 205.935508 
L 433.076235 207.182339 
L 433.410145 212.968531 
L 433.744055 208.174661 
L 434.077966 207.828891 
L 434.411876 206.170092 
L 434.745786 211.506398 
L 435.079697 155.172157 
L 435.413607 252.906952 
L 435.747517 212.875983 
L 436.415338 196.832361 
L 437.083159 213.60223 
L 437.417069 190.047418 
L 437.750979 222.846128 
L 438.08489 200.799724 
L 438.75271 220.110813 
L 439.086621 187.874463 
L 439.754441 223.83588 
L 440.088352 206.949683 
L 440.422262 205.444488 
L 440.756172 218.606262 
L 441.090083 196.374118 
L 441.423993 210.624619 
L 441.757903 203.535038 
L 442.091814 203.928368 
L 442.425724 206.463804 
L 442.759634 210.263424 
L 443.093545 211.940218 
L 443.427455 205.630227 
L 443.761365 204.421959 
L 444.095276 207.588522 
L 444.429186 212.645255 
L 444.763096 211.747409 
L 445.097007 207.913727 
L 445.430917 161.033546 
L 445.764827 257.722674 
L 446.098738 202.209799 
L 446.432648 207.474765 
L 446.766558 209.37586 
L 447.100469 214.590054 
L 447.434379 213.076504 
L 447.768289 212.756442 
L 448.1022 206.281279 
L 448.43611 208.12196 
L 448.77002 202.5485 
L 449.103931 199.329235 
L 449.437841 189.753706 
L 449.771751 209.321231 
L 450.105662 193.963365 
L 450.439572 218.3389 
L 450.773482 207.206118 
L 451.107393 216.216717 
L 451.441303 219.291376 
L 451.775213 217.189759 
L 452.109124 210.763441 
L 452.776944 207.505615 
L 453.110855 206.699031 
L 453.444765 214.075254 
L 453.778675 205.031877 
L 454.112586 209.519181 
L 454.446496 206.67975 
L 454.780406 209.246678 
L 455.114317 205.985638 
L 455.448227 165.810063 
L 455.782137 245.133543 
L 456.116048 209.454912 
L 456.449958 209.197833 
L 456.783869 209.343083 
L 457.117779 218.367179 
L 457.451689 217.567665 
L 457.7856 201.762482 
L 458.11951 193.915806 
L 458.45342 204.274781 
L 458.787331 198.528436 
L 459.121241 210.285918 
L 459.455151 199.066372 
L 459.789062 214.845847 
L 460.122972 205.893733 
L 460.456882 212.033409 
L 460.790793 207.839817 
L 461.124703 210.429882 
L 461.458613 203.300454 
L 461.792524 208.645758 
L 462.126434 205.274817 
L 462.460344 212.756442 
L 462.794255 204.704102 
L 463.128165 209.656076 
L 463.462075 207.670145 
L 463.795986 199.878097 
L 464.129896 209.413779 
L 464.463806 211.668357 
L 464.797717 209.609159 
L 465.131627 206.035126 
L 465.465537 167.647531 
L 465.799448 247.775024 
L 466.133358 207.305736 
L 466.467268 214.323977 
L 466.801179 209.241537 
L 467.468999 205.63794 
L 467.80291 206.542213 
L 468.13682 200.601131 
L 468.47073 208.389964 
L 468.804641 208.477371 
L 469.138551 219.366571 
L 469.472461 199.858174 
L 469.806372 221.802389 
L 470.140282 203.830678 
L 470.474192 202.382684 
L 470.808103 206.682321 
L 471.142013 207.111642 
L 471.475923 205.765194 
L 471.809834 216.050902 
L 472.143744 208.861703 
L 472.477654 205.930367 
L 472.811565 213.455695 
L 473.145475 201.67122 
L 473.813296 211.140704 
L 474.147206 207.615516 
L 474.481116 161.629325 
L 474.815027 252.256543 
L 475.148937 206.001063 
L 475.482847 204.432885 
L 475.816758 199.268822 
L 476.150668 204.572992 
L 476.484578 223.504248 
L 476.818489 207.544819 
L 477.152399 204.724669 
L 477.486309 209.884233 
L 477.82022 220.778574 
L 478.15413 204.905909 
L 478.48804 202.433457 
L 478.821951 206.401463 
L 479.155861 200.027846 
L 479.489771 214.52964 
L 479.823682 217.058007 
L 480.157592 203.544036 
L 480.491502 211.878519 
L 480.825413 209.506328 
L 481.159323 200.741238 
L 481.493233 205.482407 
L 481.827144 199.787477 
L 482.161054 218.756652 
L 482.828875 203.463056 
L 483.162785 209.679213 
L 483.496695 206.105823 
L 483.830606 205.685499 
L 484.164516 209.398997 
L 484.498426 203.684144 
L 484.832337 172.773033 
L 485.166247 248.757706 
L 485.500157 210.861131 
L 485.834068 208.722881 
L 486.167978 209.413137 
L 486.501888 206.616766 
L 486.835799 201.99321 
L 487.169709 195.166492 
L 487.503619 227.268519 
L 487.83753 205.305023 
L 488.17144 210.175374 
L 488.50535 207.075008 
L 488.839261 211.747409 
L 489.173171 196.075265 
L 489.507081 212.542424 
L 489.840992 211.698564 
L 490.508812 200.997674 
L 490.842723 207.333372 
L 491.176633 199.912803 
L 491.510543 196.768734 
L 491.844454 225.245312 
L 492.178364 199.761769 
L 492.512274 211.176695 
L 492.846185 209.316732 
L 493.180095 210.051977 
L 493.514005 202.404536 
L 493.847916 180.353633 
L 494.181826 107.322791 
L 494.515736 345.370996 
L 494.849647 177.831693 
L 495.183557 255.145462 
L 495.517468 187.493986 
L 495.851378 202.407749 
L 496.185288 200.757306 
L 496.519199 223.724693 
L 496.853109 208.077614 
L 497.187019 184.425755 
L 497.52093 206.928474 
L 498.18875 221.920003 
L 498.522661 209.060296 
L 498.856571 207.75948 
L 499.190481 191.264042 
L 499.524392 220.612116 
L 500.192212 196.75588 
L 500.526123 201.419283 
L 500.860033 228.685664 
L 501.193943 196.69161 
L 501.861764 222.387885 
L 502.195674 206.078187 
L 502.529585 220.280485 
L 502.863495 208.519146 
L 503.197405 187.417506 
L 503.531316 214.514858 
L 503.865226 216.760438 
L 504.199136 206.7678 
L 504.533047 209.672143 
L 504.866957 208.13867 
L 505.200867 181.68787 
L 505.534778 246.20813 
L 505.868688 204.420673 
L 506.202598 195.415859 
L 506.536509 234.454504 
L 506.870419 206.350047 
L 507.204329 195.681935 
L 507.87215 212.028267 
L 508.20606 201.550393 
L 508.539971 211.393283 
L 508.873881 211.382357 
L 509.207791 202.72267 
L 509.541702 202.995816 
L 509.875612 193.637518 
L 510.209522 204.112822 
L 510.543433 209.736413 
L 510.877343 198.289995 
L 511.211253 202.347336 
L 511.545164 221.191828 
L 511.879074 213.344509 
L 512.212984 201.300384 
L 512.546895 207.962572 
L 512.880805 194.509657 
L 513.214715 211.616942 
L 513.548626 202.84414 
L 513.882536 216.369679 
L 514.216446 214.070113 
L 514.550357 186.772239 
L 514.884267 243.768456 
L 515.218177 203.027308 
L 515.552088 205.290241 
L 515.885998 220.144233 
L 516.219908 194.127253 
L 516.553819 215.687136 
L 516.887729 213.765475 
L 517.55555 200.346623 
L 518.22337 216.158875 
L 518.557281 195.174205 
L 518.891191 215.352934 
L 519.225101 203.866669 
L 519.559012 196.487876 
L 520.226832 225.095564 
L 520.560743 196.773233 
L 520.894653 195.917804 
L 521.228563 215.247532 
L 521.562474 214.082966 
L 521.896384 199.005316 
L 522.230294 207.346869 
L 522.564205 211.582236 
L 522.898115 214.289272 
L 523.232025 205.625729 
L 523.565936 215.685208 
L 523.899846 212.166447 
L 524.233756 207.157916 
L 524.567667 208.884198 
L 524.901577 207.844315 
L 525.235487 163.556771 
L 525.569398 229.703695 
L 525.903308 212.410671 
L 526.237218 228.593759 
L 526.571129 206.425885 
L 526.905039 199.808686 
L 527.238949 206.062119 
L 527.57286 229.155475 
L 527.90677 196.858711 
L 528.24068 209.323159 
L 528.574591 203.866669 
L 528.908501 212.534712 
L 529.242411 208.487012 
L 529.576322 211.722986 
L 529.910232 205.037019 
L 530.578053 204.419388 
L 530.911963 203.954719 
L 531.579784 211.886231 
L 531.913694 205.783189 
L 532.247604 205.703495 
L 532.581515 214.665249 
L 532.915425 203.395573 
L 533.249335 222.014479 
L 533.583246 204.653329 
L 533.917156 207.968356 
L 534.251067 206.60584 
L 534.584977 202.17188 
L 534.918887 216.746299 
L 535.252798 163.293908 
L 535.586708 254.514335 
L 535.920618 216.34847 
L 536.254529 215.122206 
L 536.588439 194.368264 
L 536.922349 195.765485 
L 537.25626 218.416023 
L 537.59017 210.039123 
L 537.92408 187.18742 
L 538.257991 207.176554 
L 538.591901 204.776727 
L 538.925811 199.128714 
L 539.259722 204.988174 
L 539.593632 226.970951 
L 540.595363 204.317199 
L 540.929273 203.68093 
L 541.263184 214.792503 
L 541.597094 207.715776 
L 541.931004 214.673604 
L 542.264915 206.521004 
L 542.598825 206.91562 
L 542.932735 207.68814 
L 543.600556 208.431097 
L 543.934466 206.652114 
L 544.268377 206.1958 
L 544.602287 207.979282 
L 544.936197 186.885996 
L 545.270108 230.019901 
L 545.604018 206.238218 
L 545.937928 207.510114 
L 546.271839 216.271347 
L 546.605749 205.670717 
L 546.939659 205.589738 
L 547.27357 206.090398 
L 547.60748 210.278848 
L 547.94139 209.434346 
L 548.275301 207.419493 
L 548.609211 209.103357 
L 548.943121 207.401498 
L 549.277032 206.624478 
L 549.610942 208.008203 
L 549.944852 210.845064 
L 550.278763 207.577597 
L 550.612673 207.19455 
L 550.946583 208.918903 
L 551.280494 206.249144 
L 551.614404 212.075827 
L 551.948314 177.640813 
L 552.282225 171.334679 
L 552.616135 207.383502 
L 553.283956 240.842904 
L 553.617866 206.322411 
L 553.951776 203.008027 
L 554.285687 214.548278 
L 554.619597 208.120032 
L 554.953507 209.318018 
L 555.287418 209.35915 
L 555.621328 186.969546 
L 555.955238 227.172758 
L 556.289149 207.103287 
L 556.623059 208.217722 
L 556.956969 203.205978 
L 557.29088 211.672213 
L 557.62479 210.399675 
L 557.9587 202.730383 
L 558.292611 209.711348 
L 558.626521 204.906552 
L 558.960431 212.255781 
L 559.294342 205.968928 
L 559.628252 206.075616 
L 559.962162 210.309055 
L 560.296073 208.811573 
L 560.629983 210.157379 
L 560.963893 205.720205 
L 561.297804 211.113068 
L 561.631714 207.071152 
L 561.965624 206.819858 
L 562.299535 210.393248 
L 562.633445 197.455133 
L 562.967355 206.342977 
L 563.301266 210.940825 
L 563.635176 195.950582 
L 563.969086 216.047688 
L 564.302997 217.694276 
L 564.970817 201.817112 
L 565.304728 212.725592 
L 565.638638 187.630881 
L 565.972548 216.876766 
L 566.306459 216.556061 
L 566.640369 213.20183 
L 566.974279 215.408206 
L 567.30819 202.038199 
L 567.6421 210.429882 
L 567.97601 194.927409 
L 568.643831 208.366185 
L 568.977741 198.635766 
L 569.311652 216.183297 
L 569.645562 211.743553 
L 569.979472 203.784404 
L 570.313383 203.839676 
L 570.647293 214.464728 
L 570.981203 201.461058 
L 571.315114 209.900943 
L 571.649024 192.869497 
L 571.982935 217.182047 
L 572.316845 201.408357 
L 572.650755 176.105412 
L 572.984666 237.210385 
L 573.318576 208.009488 
L 573.652486 206.068546 
L 573.986397 207.568599 
L 574.320307 193.128503 
L 574.654217 220.718161 
L 574.988128 193.599599 
L 575.322038 227.071854 
L 575.655948 215.15884 
L 575.989859 216.532924 
L 576.323769 205.226614 
L 576.657679 188.768453 
L 576.99159 202.972679 
L 577.3255 201.827395 
L 577.65941 209.282669 
L 577.993321 186.057561 
L 578.327231 225.983127 
L 578.661141 210.150952 
L 578.995052 207.736343 
L 579.328962 212.699242 
L 579.662872 207.231183 
L 579.996783 209.289096 
L 580.330693 212.163233 
L 580.998514 206.066618 
L 581.332424 219.353717 
L 581.666334 203.56396 
L 582.000245 200.750236 
L 582.334155 218.852414 
L 582.668065 189.790982 
L 583.001976 208.686247 
L 583.335886 208.427241 
L 583.669796 198.651833 
L 584.003707 215.529033 
L 584.337617 210.870129 
L 584.671527 204.025415 
L 585.005438 203.251609 
L 585.339348 212.311053 
L 585.673258 186.112833 
L 586.007169 226.550628 
L 586.341079 204.645617 
L 586.674989 231.08999 
L 587.0089 213.467264 
L 587.34281 205.297311 
L 587.67672 212.967246 
L 588.010631 210.995454 
L 588.344541 207.495332 
L 588.678451 193.158067 
L 589.012362 207.109714 
L 589.346272 206.623836 
L 589.680182 176.053353 
L 590.014093 237.893571 
L 590.681913 199.127428 
L 591.015824 206.001063 
L 591.349734 205.453486 
L 591.683644 203.718849 
L 592.351465 193.808476 
L 592.685375 211.622726 
L 593.019286 220.047829 
L 593.353196 231.821379 
L 593.687106 196.14339 
L 594.021017 112.704085 
L 594.354927 298.402123 
L 594.688837 197.315668 
L 595.022748 212.672891 
L 595.356658 197.980859 
L 595.690568 231.579082 
L 596.024479 235.786171 
L 596.358389 213.455052 
L 596.692299 204.253572 
L 597.02621 201.806828 
L 597.36012 200.182735 
L 597.69403 199.786192 
L 598.027941 191.272397 
L 598.361851 206.619337 
L 598.695761 213.831672 
L 599.029672 193.479415 
L 599.363582 212.53921 
L 599.697492 206.053121 
L 600.031403 190.5198 
L 600.365313 232.255841 
L 600.699223 241.348063 
L 601.033134 200.687895 
L 601.367044 198.861995 
L 601.700954 208.774939 
L 602.034865 207.420136 
L 602.368775 207.380289 
L 602.702685 196.915911 
L 603.036596 197.066302 
L 603.370506 229.35921 
L 603.704416 197.374153 
L 604.038327 185.562042 
L 604.372237 238.081881 
L 604.706147 196.985965 
L 605.040058 214.084895 
L 605.373968 181.490562 
L 605.707878 226.603972 
L 606.041789 233.144047 
L 606.375699 219.136486 
L 606.709609 200.054196 
L 607.04352 193.350233 
L 607.37743 205.429706 
L 607.71134 200.180165 
L 608.045251 216.459014 
L 608.379161 219.936 
L 608.713071 202.348621 
L 609.046982 208.180446 
L 609.380892 191.13486 
L 609.714802 183.421221 
L 610.048713 214.559847 
L 610.382623 219.164122 
L 610.716534 208.138028 
L 611.050444 204.637262 
L 611.384354 196.563071 
L 611.718265 214.902404 
L 612.052175 202.7773 
L 612.386085 207.235682 
L 612.719996 199.208408 
L 613.053906 207.028091 
L 613.387816 191.301318 
L 613.721727 243.646344 
L 614.389547 183.087019 
L 614.723458 215.442911 
L 615.057368 203.084508 
L 615.391278 240.161003 
L 615.725189 193.338022 
L 616.059099 128.882031 
L 616.72692 252.208984 
L 617.06083 223.765826 
L 617.39474 217.753404 
L 617.728651 202.432172 
L 618.062561 202.664828 
L 618.396471 202.391039 
L 618.730382 210.77501 
L 619.064292 212.124029 
L 619.398202 205.267104 
L 619.732113 211.291737 
L 620.066023 203.946364 
L 620.399933 201.245755 
L 620.733844 202.776657 
L 621.067754 196.145961 
L 621.401664 237.418619 
L 621.735575 214.442876 
L 622.069485 222.933534 
L 622.403395 225.535168 
L 622.737306 188.637986 
L 623.071216 213.604801 
L 623.405126 258.173204 
L 623.739037 217.883871 
L 624.072947 206.414317 
L 624.406857 176.741681 
L 625.074678 198.921123 
L 625.408588 200.113967 
L 625.742499 180.814446 
L 626.076409 228.496069 
L 626.410319 242.139864 
L 627.07814 208.323124 
L 627.41205 201.939867 
L 627.745961 232.68709 
L 628.079871 186.513875 
L 628.413781 186.183529 
L 628.747692 201.466199 
L 629.081602 202.299134 
L 629.415512 211.80718 
L 630.083333 193.028243 
L 630.417243 229.075138 
L 630.751154 236.289402 
L 631.085064 197.53547 
L 631.418974 189.33981 
L 631.752885 197.946796 
L 632.086795 225.006229 
L 632.754616 192.596351 
L 633.088526 207.503687 
L 633.422436 201.169917 
L 633.756347 200.306776 
L 634.090257 209.314161 
L 634.424167 209.469051 
L 634.758078 201.617876 
L 635.091988 212.588698 
L 635.425898 209.612372 
L 635.759809 185.337741 
L 636.093719 229.773749 
L 636.427629 252.792552 
L 636.76154 180.71997 
L 637.09545 194.793729 
L 637.42936 199.805473 
L 637.763271 213.311731 
L 638.097181 190.845647 
L 638.431091 205.759409 
L 638.765002 286.636285 
L 639.098912 195.047594 
L 639.432822 186.027997 
L 639.766733 192.499304 
L 640.100643 207.884163 
L 640.434553 216.808641 
L 640.768464 238.993224 
L 641.102374 222.024762 
L 641.770195 206.741449 
L 642.104105 191.510194 
L 642.438015 183.396799 
L 642.771926 195.459562 
L 643.105836 202.95147 
L 643.439746 238.26762 
L 643.773657 226.213855 
L 644.107567 186.019642 
L 644.441477 193.025672 
L 644.775388 207.522967 
L 645.109298 202.841569 
L 645.443208 200.473234 
L 645.777119 242.931023 
L 646.111029 198.381258 
L 646.444939 187.510054 
L 646.77885 239.84801 
L 647.11276 206.472159 
L 647.44667 234.89925 
L 647.780581 200.192376 
L 648.114491 215.674282 
L 648.448402 193.522476 
L 648.782312 200.115252 
L 649.116222 213.510967 
L 649.450133 216.939751 
L 649.784043 216.04576 
L 650.117953 217.801606 
L 650.451864 185.74264 
L 650.785774 187.03703 
L 651.119684 201.597952 
L 651.453595 203.833249 
L 651.787505 203.477196 
L 652.121415 212.4653 
L 652.455326 227.306438 
L 652.789236 194.609918 
L 653.123146 204.015775 
L 653.457057 199.628089 
L 653.790967 222.576838 
L 654.124877 229.447902 
L 654.458788 197.444207 
L 654.792698 192.013425 
L 655.126608 215.06822 
L 655.460519 209.684354 
L 655.794429 211.19469 
L 656.128339 198.814435 
L 656.46225 195.395935 
L 656.79616 194.618915 
L 657.13007 223.51646 
L 657.463981 230.577119 
L 657.797891 208.59627 
L 658.131801 212.723022 
L 658.465712 210.775652 
L 658.799622 172.511455 
L 659.133532 218.408954 
L 659.467443 216.376106 
L 659.801353 204.809505 
L 660.135263 181.908315 
L 660.469174 236.597896 
L 660.803084 192.287857 
L 661.136994 216.683315 
L 661.470905 218.622972 
L 661.804815 211.974923 
L 662.138725 207.965142 
L 662.472636 218.755367 
L 662.806546 203.000315 
L 663.140456 228.021117 
L 663.474367 205.292812 
L 663.808277 205.700924 
L 664.142187 202.218797 
L 664.810008 206.551211 
L 665.143918 206.705458 
L 665.477829 212.634329 
L 665.811739 214.801501 
L 666.145649 176.409407 
L 666.47956 227.604649 
L 666.81347 201.194339 
L 667.481291 209.090503 
L 668.149111 206.918833 
L 668.483022 216.20065 
L 668.816932 204.037627 
L 669.484753 213.389497 
L 669.818663 205.472767 
L 670.152573 209.945289 
L 670.486484 204.412318 
L 670.820394 203.078724 
L 671.154304 211.480047 
L 671.488215 205.350655 
L 671.822125 209.401568 
L 672.156035 207.875808 
L 672.489946 195.734636 
L 672.823856 216.320192 
L 673.157766 206.40082 
L 673.491677 204.532503 
L 673.825587 209.426633 
L 674.159497 205.673288 
L 674.493408 218.776576 
L 674.827318 203.911015 
L 675.161228 207.542891 
L 675.495139 209.680498 
L 675.829049 204.094827 
L 676.162959 208.242144 
L 676.49687 224.253632 
L 676.83078 181.498275 
L 677.16469 230.670953 
L 677.498601 202.997744 
L 677.832511 187.068522 
L 678.166421 189.677868 
L 678.500332 232.238488 
L 678.834242 211.296879 
L 679.168152 204.438669 
L 679.502063 203.629515 
L 679.835973 211.970424 
L 680.169883 206.871274 
L 680.503794 206.10518 
L 680.837704 203.357654 
L 681.171614 210.48194 
L 681.839435 199.576673 
L 682.173345 209.970997 
L 682.507256 209.692709 
L 682.841166 205.15399 
L 683.175076 196.0502 
L 683.508987 226.149586 
L 683.842897 207.814109 
L 684.176807 201.49962 
L 684.844628 219.356931 
L 685.178538 205.087149 
L 685.512449 219.281092 
L 685.846359 198.180737 
L 686.180269 191.465206 
L 686.51418 171.881613 
L 686.84809 225.227317 
L 687.182001 198.234724 
L 687.515911 219.189187 
L 687.849821 210.77501 
L 688.183732 222.18158 
L 688.517642 207.075651 
L 688.851552 200.367189 
L 689.185463 214.376679 
L 689.853283 204.948327 
L 690.187194 205.607733 
L 690.521104 207.803826 
L 690.855014 207.772976 
L 691.188925 214.557276 
L 691.522835 214.627973 
L 691.856745 206.393108 
L 692.524566 218.550347 
L 692.858476 207.238253 
L 693.192387 203.956647 
L 693.526297 206.107108 
L 693.860207 214.435164 
L 694.194118 193.309743 
L 694.528028 230.769285 
L 694.861938 197.110648 
L 695.195849 197.703214 
L 695.529759 204.500368 
L 695.863669 207.821821 
L 696.19758 177.922314 
L 696.53149 216.13638 
L 696.8654 201.288173 
L 697.199311 269.148525 
L 697.533221 190.777521 
L 697.867131 183.558758 
L 698.201042 207.99085 
L 698.534952 206.395036 
L 698.868862 210.084754 
L 699.202773 211.445984 
L 699.536683 206.742092 
L 699.870593 194.951189 
L 700.204504 215.028372 
L 700.538414 206.248501 
L 700.872324 204.289563 
L 701.206235 198.686539 
L 701.540145 216.185225 
L 701.874055 204.873131 
L 702.207966 211.674141 
L 702.541876 198.963541 
L 702.875786 204.535073 
L 703.209697 214.378607 
L 703.543607 210.475513 
L 703.877517 215.690349 
L 704.211428 226.765931 
L 704.545338 192.637483 
L 704.879248 195.264825 
L 705.213159 194.694111 
L 705.547069 198.835002 
L 705.880979 209.229326 
L 706.21489 202.316486 
L 706.5488 216.320834 
L 706.88271 218.622972 
L 707.216621 182.478386 
L 707.550531 236.485424 
L 707.884441 215.030943 
L 708.218352 211.778901 
L 708.552262 201.519543 
L 708.886172 200.014349 
L 709.220083 219.675708 
L 709.553993 205.050516 
L 709.887903 209.078935 
L 710.221814 210.017914 
L 710.555724 201.276604 
L 710.889634 213.955713 
L 711.223545 216.252708 
L 711.557455 183.610817 
L 711.891365 211.298807 
L 712.225276 200.7798 
L 712.559186 225.895721 
L 712.893096 204.166166 
L 713.227007 211.019234 
L 713.560917 203.625016 
L 713.894827 210.102107 
L 714.228738 206.995314 
L 714.562648 192.466526 
L 714.896558 231.775104 
L 715.230469 197.97636 
L 715.564379 218.293269 
L 715.898289 199.561248 
L 716.2322 241.661056 
L 716.56611 154.30259 
L 716.90002 219.920575 
L 717.233931 207.750482 
L 717.567841 211.307805 
L 717.901751 211.524393 
L 718.235662 213.829101 
L 718.569572 192.326418 
L 718.903482 223.389206 
L 719.237393 200.488016 
L 719.571303 204.38404 
L 719.905213 204.592273 
L 720.239124 198.149888 
L 720.573034 240.008684 
L 720.906944 201.036879 
L 721.240855 225.980556 
L 721.574765 212.467871 
L 721.908675 185.479134 
L 722.242586 222.752937 
L 722.576496 202.642333 
L 723.244317 208.637402 
L 723.578227 206.544141 
L 723.912137 212.898478 
L 724.246048 212.796289 
L 724.579958 203.313308 
L 724.913869 203.984283 
L 725.247779 207.189408 
L 725.9156 201.914159 
L 726.24951 209.108499 
L 726.58342 213.416491 
L 726.917331 184.223306 
L 727.251241 230.544341 
L 727.585151 203.552391 
L 727.919062 210.296201 
L 728.252972 210.096323 
L 728.586882 211.734555 
L 728.920793 217.932073 
L 729.254703 212.711453 
L 729.588613 205.485621 
L 729.922524 213.393354 
L 730.256434 205.006812 
L 730.590344 208.220935 
L 731.258165 196.435817 
L 731.592075 194.310421 
L 731.925986 207.559601 
L 732.259896 211.227468 
L 732.593806 219.46169 
L 732.927717 207.935578 
L 733.261627 218.401884 
L 733.595537 214.65111 
L 733.929448 205.697711 
L 734.263358 202.499012 
L 734.597268 201.378793 
L 734.931179 202.418032 
L 735.265089 178.525805 
L 735.598999 216.856843 
L 735.93291 207.312806 
L 736.26682 208.280063 
L 736.60073 143.076617 
L 736.934641 265.958824 
L 737.268551 194.28857 
L 737.936372 223.44255 
L 738.270282 206.859705 
L 738.604192 208.279421 
L 738.938103 202.448239 
L 739.272013 215.498826 
L 739.939834 204.900767 
L 740.273744 177.151721 
L 740.607654 240.03632 
L 740.941565 201.66415 
L 741.275475 211.789184 
L 741.609385 215.96221 
L 742.277206 199.308026 
L 742.611116 219.267596 
L 742.945027 206.065333 
L 743.278937 201.860815 
L 743.612847 222.257418 
L 743.946758 197.476342 
L 744.280668 209.908655 
L 744.614578 198.432031 
L 744.948489 221.218821 
L 745.282399 193.525047 
L 745.616309 235.951986 
L 745.95022 182.78688 
L 746.28413 227.03265 
L 746.61804 205.433562 
L 746.951951 216.916613 
L 747.285861 191.998643 
L 747.953682 216.570843 
L 748.287592 205.366722 
L 748.621502 206.379611 
L 748.955413 207.927866 
L 749.289323 240.373735 
L 749.623233 226.281981 
L 749.957144 185.203418 
L 750.291054 197.941011 
L 750.624964 228.609183 
L 750.958875 200.86078 
L 751.292785 213.462765 
L 751.626695 192.444032 
L 751.960606 200.667971 
L 752.628426 236.232202 
L 753.296247 180.009791 
L 753.630157 202.869848 
L 753.964068 199.685289 
L 754.297978 200.602416 
L 754.631888 200.279783 
L 754.965799 199.556749 
L 755.299709 270.994991 
L 755.633619 218.712949 
L 755.96753 184.368555 
L 756.30144 233.960914 
L 756.63535 201.30424 
L 756.969261 193.114364 
L 757.303171 203.283744 
L 757.637081 187.254904 
L 757.970992 181.061241 
L 758.304902 257.541433 
L 758.638812 199.072157 
L 758.972723 204.882129 
L 759.306633 183.707864 
L 759.640543 271.382536 
L 759.974454 195.404933 
L 760.308364 196.456383 
L 760.642274 186.927771 
L 761.310095 226.531347 
L 761.644005 199.328592 
L 761.977916 192.111758 
L 762.311826 207.356509 
L 762.645736 197.724423 
L 762.979647 255.979682 
L 763.313557 198.80608 
L 763.647468 185.812051 
L 763.981378 198.892844 
L 764.315288 198.973824 
L 764.649199 201.712352 
L 764.983109 198.289353 
L 765.317019 252.153712 
L 765.65093 186.954764 
L 765.98484 185.195063 
L 766.31875 216.048331 
L 766.652661 200.22901 
L 766.986571 218.198792 
L 767.320481 207.259462 
L 767.654392 249.963404 
L 767.988302 192.128468 
L 768.322212 212.454375 
L 768.656123 187.871892 
L 768.990033 206.103894 
L 769.323943 208.382252 
L 769.657854 216.530996 
L 769.991764 197.806688 
L 770.325674 202.122392 
L 770.659585 228.291692 
L 770.993495 197.8144 
L 771.661316 216.29127 
L 771.995226 195.027027 
L 772.329136 236.755356 
L 772.663047 191.290392 
L 773.330867 228.831556 
L 773.998688 214.356755 
L 774.332598 191.595673 
L 774.666509 193.291748 
L 775.000419 186.217592 
L 775.334329 230.772498 
L 775.66824 223.73112 
L 776.33606 199.318952 
L 776.669971 188.401473 
L 777.003881 188.15982 
L 777.337791 234.233417 
L 777.671702 212.304626 
L 778.005612 205.362223 
L 778.339522 177.535411 
L 778.673433 229.263448 
L 779.007343 192.809726 
L 779.341253 216.927539 
L 779.675164 211.928006 
L 780.009074 193.376584 
L 780.342984 218.0529 
L 780.676895 118.614318 
L 781.344715 300.184319 
L 781.678626 155.457515 
L 782.012536 176.735897 
L 782.346446 296.597432 
L 782.680357 192.689542 
L 783.014267 193.834183 
L 783.348177 194.13368 
L 783.682088 219.730337 
L 784.015998 218.700095 
L 784.349908 210.786578 
L 784.683819 234.86583 
L 785.017729 200.163455 
L 785.351639 211.534676 
L 785.68555 214.759083 
L 786.01946 203.665506 
L 786.35337 187.612243 
L 786.687281 200.966825 
L 787.021191 202.48423 
L 787.355101 207.402141 
L 787.689012 233.725044 
L 788.022922 176.129192 
L 788.356832 218.938535 
L 788.690743 209.992206 
L 789.024653 194.417109 
L 789.358563 216.328547 
L 789.692474 200.552286 
L 790.026384 220.92768 
L 790.360294 209.141919 
L 790.694205 190.916343 
L 791.028115 210.080255 
L 791.362025 206.533215 
L 791.695936 204.788296 
L 792.029846 223.735619 
L 792.697667 201.590883 
L 793.031577 200.886488 
L 793.365487 226.841127 
L 793.699398 187.13729 
L 794.033308 237.247019 
L 794.367218 207.182339 
L 794.701129 216.551562 
L 795.035039 245.28779 
L 795.368949 193.760916 
L 795.70286 192.511515 
L 796.03677 202.28628 
L 796.37068 195.69993 
L 796.704591 205.292812 
L 797.038501 204.743307 
L 797.372411 203.675146 
L 797.706322 206.996599 
L 798.040232 203.474625 
L 798.374142 187.207987 
L 798.708053 237.712974 
L 799.041963 206.161737 
L 799.375873 199.759199 
L 799.709784 206.808289 
L 800.043694 197.932656 
L 800.377604 219.384566 
L 800.711515 205.713135 
L 801.045425 209.469694 
L 801.379335 211.74998 
L 801.713246 209.517253 
L 802.047156 210.098251 
L 802.381067 208.769798 
L 802.714977 212.697314 
L 803.048887 203.448274 
L 803.382798 201.644869 
L 803.716708 211.010236 
L 804.050618 199.667293 
L 804.384529 204.260642 
L 804.718439 206.177162 
L 805.052349 209.916368 
L 805.38626 200.007922 
L 805.72017 208.644472 
L 806.05408 228.082173 
L 806.387991 205.463126 
L 806.721901 191.311601 
L 807.055811 213.544387 
L 807.389722 210.933756 
L 807.723632 188.368696 
L 808.391453 230.060391 
L 808.725363 191.518549 
L 809.059273 219.768899 
L 809.393184 184.061989 
L 809.727094 200.949472 
L 810.061004 232.671665 
L 810.394915 222.64175 
L 810.728825 180.394765 
L 811.062735 179.622887 
L 811.396646 240.279259 
L 811.730556 210.118817 
L 812.064466 205.051158 
L 812.398377 209.694638 
L 812.732287 207.585309 
L 812.732287 207.585309 
" clip-path="url(#p364c14407e)" style="fill: none; stroke: #87ceeb; stroke-linecap: square"/>
   </g>
   <g id="patch_3">
    <path d="M 44.905469 389.6775 
L 44.905469 26.10625 
" style="fill: none; stroke: #000000; stroke-width: 0.8; stroke-linejoin: miter; stroke-linecap: square"/>
   </g>
   <g id="patch_4">
    <path d="M 849.295469 389.6775 
L 849.295469 26.10625 
" style="fill: none; stroke: #000000; stroke-width: 0.8; stroke-linejoin: miter; stroke-linecap: square"/>
   </g>
   <g id="patch_5">
    <path d="M 44.905469 389.6775 
L 849.295469 389.6775 
" style="fill: none; stroke: #000000; stroke-width: 0.8; stroke-linejoin: miter; stroke-linecap: square"/>
   </g>
   <g id="patch_6">
    <path d="M 44.905469 26.10625 
L 849.295469 26.10625 
" style="fill: none; stroke: #000000; stroke-width: 0.8; stroke-linejoin: miter; stroke-linecap: square"/>
   </g>
   <g id="text_13">
    <!-- 一阶差分后的 COD_mg/L 值（用于ACF/PACF） -->
    <g transform="translate(343.589219 16.10625) scale(0.12 -0.12)">
     <defs>
      <path id="DejaVuSans-4e00" d="M 319 -1131 
L 319 4513 
L 3519 4513 
L 3519 -1131 
L 319 -1131 
z
M 678 -775 
L 3163 -775 
L 3163 4153 
L 678 4153 
L 678 -775 
z
" transform="scale(0.015625)"/>
      <path id="DejaVuSans-9636" d="M 319 -1131 
L 319 4513 
L 3519 4513 
L 3519 -1131 
L 319 -1131 
z
M 678 -775 
L 3163 -775 
L 3163 4153 
L 678 4153 
L 678 -775 
z
" transform="scale(0.015625)"/>
      <path id="DejaVuSans-ff08" d="M 319 -1131 
L 319 4513 
L 3519 4513 
L 3519 -1131 
L 319 -1131 
z
M 678 -775 
L 3163 -775 
L 3163 4153 
L 678 4153 
L 678 -775 
z
" transform="scale(0.015625)"/>
      <path id="DejaVuSans-7528" d="M 319 -1131 
L 319 4513 
L 3519 4513 
L 3519 -1131 
L 319 -1131 
z
M 678 -775 
L 3163 -775 
L 3163 4153 
L 678 4153 
L 678 -775 
z
" transform="scale(0.015625)"/>
      <path id="DejaVuSans-4e8e" d="M 319 -1131 
L 319 4513 
L 3519 4513 
L 3519 -1131 
L 319 -1131 
z
M 678 -775 
L 3163 -775 
L 3163 4153 
L 678 4153 
L 678 -775 
z
" transform="scale(0.015625)"/>
      <path id="DejaVuSans-41" d="M 2188 4044 
L 1331 1722 
L 3047 1722 
L 2188 4044 
z
M 1831 4666 
L 2547 4666 
L 4325 0 
L 3669 0 
L 3244 1197 
L 1141 1197 
L 716 0 
L 50 0 
L 1831 4666 
z
" transform="scale(0.015625)"/>
      <path id="DejaVuSans-46" d="M 628 4666 
L 3309 4666 
L 3309 4134 
L 1259 4134 
L 1259 2759 
L 3109 2759 
L 3109 2228 
L 1259 2228 
L 1259 0 
L 628 0 
L 628 4666 
z
" transform="scale(0.015625)"/>
      <path id="DejaVuSans-50" d="M 1259 4147 
L 1259 2394 
L 2053 2394 
Q 2494 2394 2734 2622 
Q 2975 2850 2975 3272 
Q 2975 3691 2734 3919 
Q 2494 4147 2053 4147 
L 1259 4147 
z
M 628 4666 
L 2053 4666 
Q 2838 4666 3239 4311 
Q 3641 3956 3641 3272 
Q 3641 2581 3239 2228 
Q 2838 1875 2053 1875 
L 1259 1875 
L 1259 0 
L 628 0 
L 628 4666 
z
" transform="scale(0.015625)"/>
      <path id="DejaVuSans-ff09" d="M 319 -1131 
L 319 4513 
L 3519 4513 
L 3519 -1131 
L 319 -1131 
z
M 678 -775 
L 3163 -775 
L 3163 4153 
L 678 4153 
L 678 -775 
z
" transform="scale(0.015625)"/>
     </defs>
     <use xlink:href="#DejaVuSans-4e00"/>
     <use xlink:href="#DejaVuSans-9636" transform="translate(60.009766 0)"/>
     <use xlink:href="#DejaVuSans-5dee" transform="translate(120.019531 0)"/>
     <use xlink:href="#DejaVuSans-5206" transform="translate(180.029297 0)"/>
     <use xlink:href="#DejaVuSans-540e" transform="translate(240.039062 0)"/>
     <use xlink:href="#DejaVuSans-7684" transform="translate(300.048828 0)"/>
     <use xlink:href="#DejaVuSans-20" transform="translate(360.058594 0)"/>
     <use xlink:href="#DejaVuSans-43" transform="translate(391.845703 0)"/>
     <use xlink:href="#DejaVuSans-4f" transform="translate(461.669922 0)"/>
     <use xlink:href="#DejaVuSans-44" transform="translate(540.380859 0)"/>
     <use xlink:href="#DejaVuSans-5f" transform="translate(617.382812 0)"/>
     <use xlink:href="#DejaVuSans-6d" transform="translate(667.382812 0)"/>
     <use xlink:href="#DejaVuSans-67" transform="translate(764.794922 0)"/>
     <use xlink:href="#DejaVuSans-2f" transform="translate(828.271484 0)"/>
     <use xlink:href="#DejaVuSans-4c" transform="translate(861.962891 0)"/>
     <use xlink:href="#DejaVuSans-20" transform="translate(917.675781 0)"/>
     <use xlink:href="#DejaVuSans-503c" transform="translate(949.462891 0)"/>
     <use xlink:href="#DejaVuSans-ff08" transform="translate(1009.472656 0)"/>
     <use xlink:href="#DejaVuSans-7528" transform="translate(1069.482422 0)"/>
     <use xlink:href="#DejaVuSans-4e8e" transform="translate(1129.492188 0)"/>
     <use xlink:href="#DejaVuSans-41" transform="translate(1189.501953 0)"/>
     <use xlink:href="#DejaVuSans-43" transform="translate(1256.160156 0)"/>
     <use xlink:href="#DejaVuSans-46" transform="translate(1325.984375 0)"/>
     <use xlink:href="#DejaVuSans-2f" transform="translate(1383.503906 0)"/>
     <use xlink:href="#DejaVuSans-50" transform="translate(1417.195312 0)"/>
     <use xlink:href="#DejaVuSans-41" transform="translate(1471.123047 0)"/>
     <use xlink:href="#DejaVuSans-43" transform="translate(1537.78125 0)"/>
     <use xlink:href="#DejaVuSans-46" transform="translate(1607.605469 0)"/>
     <use xlink:href="#DejaVuSans-ff09" transform="translate(1665.125 0)"/>
    </g>
   </g>
   <g id="legend_1">
    <g id="patch_7">
     <path d="M 658.928594 46.766875 
L 842.995469 46.766875 
Q 844.795469 46.766875 844.795469 44.966875 
L 844.795469 32.40625 
Q 844.795469 30.60625 842.995469 30.60625 
L 658.928594 30.60625 
Q 657.128594 30.60625 657.128594 32.40625 
L 657.128594 44.966875 
Q 657.128594 46.766875 658.928594 46.766875 
z
" style="fill: #ffffff; opacity: 0.8; stroke: #cccccc; stroke-width: 0.5; stroke-linejoin: miter"/>
    </g>
    <g id="line2d_22">
     <path d="M 660.728594 37.894844 
L 669.728594 37.894844 
L 678.728594 37.894844 
" style="fill: none; stroke: #87ceeb; stroke-linecap: square"/>
    </g>
    <g id="text_14">
     <!-- 一阶差分后的 COD_mg/L 值（用于ACF/PACF） -->
     <g transform="translate(685.928594 41.044844) scale(0.09 -0.09)">
      <use xlink:href="#DejaVuSans-4e00"/>
      <use xlink:href="#DejaVuSans-9636" transform="translate(60.009766 0)"/>
      <use xlink:href="#DejaVuSans-5dee" transform="translate(120.019531 0)"/>
      <use xlink:href="#DejaVuSans-5206" transform="translate(180.029297 0)"/>
      <use xlink:href="#DejaVuSans-540e" transform="translate(240.039062 0)"/>
      <use xlink:href="#DejaVuSans-7684" transform="translate(300.048828 0)"/>
      <use xlink:href="#DejaVuSans-20" transform="translate(360.058594 0)"/>
      <use xlink:href="#DejaVuSans-43" transform="translate(391.845703 0)"/>
      <use xlink:href="#DejaVuSans-4f" transform="translate(461.669922 0)"/>
      <use xlink:href="#DejaVuSans-44" transform="translate(540.380859 0)"/>
      <use xlink:href="#DejaVuSans-5f" transform="translate(617.382812 0)"/>
      <use xlink:href="#DejaVuSans-6d" transform="translate(667.382812 0)"/>
      <use xlink:href="#DejaVuSans-67" transform="translate(764.794922 0)"/>
      <use xlink:href="#DejaVuSans-2f" transform="translate(828.271484 0)"/>
      <use xlink:href="#DejaVuSans-4c" transform="translate(861.962891 0)"/>
      <use xlink:href="#DejaVuSans-20" transform="translate(917.675781 0)"/>
      <use xlink:href="#DejaVuSans-503c" transform="translate(949.462891 0)"/>
      <use xlink:href="#DejaVuSans-ff08" transform="translate(1009.472656 0)"/>
      <use xlink:href="#DejaVuSans-7528" transform="translate(1069.482422 0)"/>
      <use xlink:href="#DejaVuSans-4e8e" transform="translate(1129.492188 0)"/>
      <use xlink:href="#DejaVuSans-41" transform="translate(1189.501953 0)"/>
      <use xlink:href="#DejaVuSans-43" transform="translate(1256.160156 0)"/>
      <use xlink:href="#DejaVuSans-46" transform="translate(1325.984375 0)"/>
      <use xlink:href="#DejaVuSans-2f" transform="translate(1383.503906 0)"/>
      <use xlink:href="#DejaVuSans-50" transform="translate(1417.195312 0)"/>
      <use xlink:href="#DejaVuSans-41" transform="translate(1471.123047 0)"/>
      <use xlink:href="#DejaVuSans-43" transform="translate(1537.78125 0)"/>
      <use xlink:href="#DejaVuSans-46" transform="translate(1607.605469 0)"/>
      <use xlink:href="#DejaVuSans-ff09" transform="translate(1665.125 0)"/>
     </g>
    </g>
   </g>
  </g>
 </g>
 <defs>
  <clipPath id="p364c14407e">
   <rect x="44.905469" y="26.10625" width="804.39" height="363.57125"/>
  </clipPath>
 </defs>
</svg>
