<?xml version="1.0" encoding="utf-8" standalone="no"?>
<!DOCTYPE svg PUBLIC "-//W3C//DTD SVG 1.1//EN"
  "http://www.w3.org/Graphics/SVG/1.1/DTD/svg11.dtd">
<svg xmlns:xlink="http://www.w3.org/1999/xlink" width="712.5675pt" height="423.711562pt" viewBox="0 0 712.5675 423.711562" xmlns="http://www.w3.org/2000/svg" version="1.1">
 <metadata>
  <rdf:RDF xmlns:dc="http://purl.org/dc/elements/1.1/" xmlns:cc="http://creativecommons.org/ns#" xmlns:rdf="http://www.w3.org/1999/02/22-rdf-syntax-ns#">
   <cc:Work>
    <dc:type rdf:resource="http://purl.org/dc/dcmitype/StillImage"/>
    <dc:date>2025-04-16T12:05:02.168119</dc:date>
    <dc:format>image/svg+xml</dc:format>
    <dc:creator>
     <cc:Agent>
      <dc:title>Matplotlib v3.10.0, https://matplotlib.org/</dc:title>
     </cc:Agent>
    </dc:creator>
   </cc:Work>
  </rdf:RDF>
 </metadata>
 <defs>
  <style type="text/css">*{stroke-linejoin: round; stroke-linecap: butt}</style>
 </defs>
 <g id="figure_1">
  <g id="patch_1">
   <path d="M 0 423.711562 
L 712.5675 423.711562 
L 712.5675 0 
L 0 0 
z
" style="fill: #ffffff"/>
  </g>
  <g id="axes_1">
   <g id="patch_2">
    <path d="M 37.575 392.44125 
L 705.3675 392.44125 
L 705.3675 27.1375 
L 37.575 27.1375 
z
" style="fill: #ffffff"/>
   </g>
   <g id="matplotlib.axis_1">
    <g id="xtick_1">
     <g id="line2d_1">
      <path d="M 67.652124 392.44125 
L 67.652124 27.1375 
" clip-path="url(#pb984783be3)" style="fill: none; stroke-dasharray: 1.85,0.8; stroke-dashoffset: 0; stroke: #b2b2b2; stroke-opacity: 0.3; stroke-width: 0.5"/>
     </g>
     <g id="line2d_2">
      <defs>
       <path id="m42b037d32d" d="M 0 0 
L 0 -3.5 
" style="stroke: #000000; stroke-width: 0.8"/>
      </defs>
      <g>
       <use xlink:href="#m42b037d32d" x="67.652124" y="392.44125" style="stroke: #000000; stroke-width: 0.8"/>
      </g>
     </g>
     <g id="text_1">
      <!-- 0 -->
      <g transform="translate(65.402124 402.12875) scale(0.09 -0.09)">
       <defs>
        <path id="SimHei-30" d="M 225 2537 
Q 250 3200 412 3587 
Q 575 3975 875 4225 
Q 1175 4475 1612 4475 
Q 2050 4475 2375 4112 
Q 2700 3750 2800 3200 
Q 2900 2650 2862 1937 
Q 2825 1225 2612 775 
Q 2400 325 1975 150 
Q 1550 -25 1125 187 
Q 700 400 525 750 
Q 350 1100 275 1487 
Q 200 1875 225 2537 
z
M 750 2687 
Q 675 2000 800 1462 
Q 925 925 1212 700 
Q 1500 475 1800 612 
Q 2100 750 2237 1162 
Q 2375 1575 2375 2062 
Q 2375 2550 2337 2950 
Q 2300 3350 2112 3675 
Q 1925 4000 1612 4012 
Q 1300 4025 1062 3700 
Q 825 3375 750 2687 
z
" transform="scale(0.015625)"/>
       </defs>
       <use xlink:href="#SimHei-30"/>
      </g>
     </g>
    </g>
    <g id="xtick_2">
     <g id="line2d_3">
      <path d="M 206.192537 392.44125 
L 206.192537 27.1375 
" clip-path="url(#pb984783be3)" style="fill: none; stroke-dasharray: 1.85,0.8; stroke-dashoffset: 0; stroke: #b2b2b2; stroke-opacity: 0.3; stroke-width: 0.5"/>
     </g>
     <g id="line2d_4">
      <g>
       <use xlink:href="#m42b037d32d" x="206.192537" y="392.44125" style="stroke: #000000; stroke-width: 0.8"/>
      </g>
     </g>
     <g id="text_2">
      <!-- 500 -->
      <g transform="translate(199.442537 402.12875) scale(0.09 -0.09)">
       <defs>
        <path id="SimHei-35" d="M 550 1325 
Q 725 650 1150 575 
Q 1575 500 1837 662 
Q 2100 825 2212 1087 
Q 2325 1350 2312 1675 
Q 2300 2000 2137 2225 
Q 1975 2450 1725 2525 
Q 1475 2600 1162 2525 
Q 850 2450 650 2175 
L 225 2225 
Q 275 2375 700 4375 
L 2675 4375 
L 2675 3925 
L 1075 3925 
Q 950 3250 825 2850 
Q 1200 3025 1525 3012 
Q 1850 3000 2150 2862 
Q 2450 2725 2587 2487 
Q 2725 2250 2787 2012 
Q 2850 1775 2837 1500 
Q 2825 1225 2725 937 
Q 2625 650 2425 462 
Q 2225 275 1937 162 
Q 1650 50 1275 75 
Q 900 100 562 350 
Q 225 600 100 1200 
L 550 1325 
z
" transform="scale(0.015625)"/>
       </defs>
       <use xlink:href="#SimHei-35"/>
       <use xlink:href="#SimHei-30" transform="translate(50 0)"/>
       <use xlink:href="#SimHei-30" transform="translate(100 0)"/>
      </g>
     </g>
    </g>
    <g id="xtick_3">
     <g id="line2d_5">
      <path d="M 344.73295 392.44125 
L 344.73295 27.1375 
" clip-path="url(#pb984783be3)" style="fill: none; stroke-dasharray: 1.85,0.8; stroke-dashoffset: 0; stroke: #b2b2b2; stroke-opacity: 0.3; stroke-width: 0.5"/>
     </g>
     <g id="line2d_6">
      <g>
       <use xlink:href="#m42b037d32d" x="344.73295" y="392.44125" style="stroke: #000000; stroke-width: 0.8"/>
      </g>
     </g>
     <g id="text_3">
      <!-- 1000 -->
      <g transform="translate(335.73295 402.12875) scale(0.09 -0.09)">
       <defs>
        <path id="SimHei-31" d="M 1400 3600 
Q 1075 3275 575 2975 
L 575 3450 
Q 1200 3875 1600 4450 
L 1900 4450 
L 1900 150 
L 1400 150 
L 1400 3600 
z
" transform="scale(0.015625)"/>
       </defs>
       <use xlink:href="#SimHei-31"/>
       <use xlink:href="#SimHei-30" transform="translate(50 0)"/>
       <use xlink:href="#SimHei-30" transform="translate(100 0)"/>
       <use xlink:href="#SimHei-30" transform="translate(150 0)"/>
      </g>
     </g>
    </g>
    <g id="xtick_4">
     <g id="line2d_7">
      <path d="M 483.273364 392.44125 
L 483.273364 27.1375 
" clip-path="url(#pb984783be3)" style="fill: none; stroke-dasharray: 1.85,0.8; stroke-dashoffset: 0; stroke: #b2b2b2; stroke-opacity: 0.3; stroke-width: 0.5"/>
     </g>
     <g id="line2d_8">
      <g>
       <use xlink:href="#m42b037d32d" x="483.273364" y="392.44125" style="stroke: #000000; stroke-width: 0.8"/>
      </g>
     </g>
     <g id="text_4">
      <!-- 1500 -->
      <g transform="translate(474.273364 402.12875) scale(0.09 -0.09)">
       <use xlink:href="#SimHei-31"/>
       <use xlink:href="#SimHei-35" transform="translate(50 0)"/>
       <use xlink:href="#SimHei-30" transform="translate(100 0)"/>
       <use xlink:href="#SimHei-30" transform="translate(150 0)"/>
      </g>
     </g>
    </g>
    <g id="xtick_5">
     <g id="line2d_9">
      <path d="M 621.813777 392.44125 
L 621.813777 27.1375 
" clip-path="url(#pb984783be3)" style="fill: none; stroke-dasharray: 1.85,0.8; stroke-dashoffset: 0; stroke: #b2b2b2; stroke-opacity: 0.3; stroke-width: 0.5"/>
     </g>
     <g id="line2d_10">
      <g>
       <use xlink:href="#m42b037d32d" x="621.813777" y="392.44125" style="stroke: #000000; stroke-width: 0.8"/>
      </g>
     </g>
     <g id="text_5">
      <!-- 2000 -->
      <g transform="translate(612.813777 402.12875) scale(0.09 -0.09)">
       <defs>
        <path id="SimHei-32" d="M 300 250 
Q 325 625 650 925 
Q 975 1225 1475 1862 
Q 1975 2500 2125 2850 
Q 2275 3200 2237 3450 
Q 2200 3700 2000 3862 
Q 1800 4025 1537 4000 
Q 1275 3975 1037 3800 
Q 800 3625 675 3275 
L 200 3350 
Q 400 3925 712 4187 
Q 1025 4450 1450 4475 
Q 1700 4500 1900 4462 
Q 2100 4425 2312 4287 
Q 2525 4150 2662 3875 
Q 2800 3600 2762 3212 
Q 2725 2825 2375 2287 
Q 2025 1750 1025 600 
L 2825 600 
L 2825 150 
L 300 150 
L 300 250 
z
" transform="scale(0.015625)"/>
       </defs>
       <use xlink:href="#SimHei-32"/>
       <use xlink:href="#SimHei-30" transform="translate(50 0)"/>
       <use xlink:href="#SimHei-30" transform="translate(100 0)"/>
       <use xlink:href="#SimHei-30" transform="translate(150 0)"/>
      </g>
     </g>
    </g>
    <g id="text_6">
     <!-- 时间 / 序号 -->
     <g transform="translate(343.97125 415.261562) scale(0.1 -0.1)">
      <defs>
       <path id="SimHei-65f6" d="M 2525 4575 
Q 2500 3675 2500 2400 
Q 2500 1125 2525 400 
L 2000 400 
L 2000 875 
L 1000 875 
L 1000 50 
L 475 50 
Q 500 1200 500 2350 
Q 500 3525 475 4575 
L 2525 4575 
z
M 4875 3825 
Q 4875 4575 4850 5225 
L 5400 5225 
Q 5375 4575 5375 3825 
Q 5750 3825 6175 3850 
L 6175 3375 
Q 5750 3400 5375 3400 
L 5375 50 
Q 5375 -325 5075 -425 
Q 4775 -525 4300 -575 
Q 4300 -275 4025 0 
Q 4500 -50 4687 -25 
Q 4875 0 4875 300 
L 4875 3400 
Q 3625 3400 2775 3375 
L 2775 3850 
Q 3575 3825 4875 3825 
z
M 2000 1300 
L 2000 2550 
L 1000 2550 
L 1000 1300 
L 2000 1300 
z
M 2000 2975 
L 2000 4150 
L 1000 4150 
L 1000 2975 
L 2000 2975 
z
M 3550 2725 
Q 3875 2200 4175 1600 
Q 3925 1525 3650 1375 
Q 3450 1975 3075 2500 
Q 3300 2600 3550 2725 
z
" transform="scale(0.015625)"/>
       <path id="SimHei-95f4" d="M 4450 3550 
Q 4425 3075 4425 2725 
L 4425 1400 
Q 4425 1075 4450 625 
L 1925 625 
Q 1950 1075 1950 1425 
L 1950 2725 
Q 1950 3075 1925 3550 
L 4450 3550 
z
M 5800 4875 
Q 5775 4400 5775 3925 
L 5775 250 
Q 5800 -325 5462 -450 
Q 5125 -575 4725 -625 
Q 4700 -325 4525 -25 
Q 5000 -50 5137 25 
Q 5275 100 5275 350 
L 5275 4450 
L 3775 4450 
Q 3175 4450 2650 4425 
L 2650 4900 
Q 3175 4875 3775 4875 
L 5800 4875 
z
M 550 -525 
Q 600 -25 600 525 
L 600 3150 
Q 600 3675 550 4025 
L 1125 4025 
Q 1100 3650 1100 3300 
L 1100 500 
Q 1100 0 1125 -525 
L 550 -525 
z
M 3950 1025 
L 3950 1950 
L 2425 1950 
L 2425 1025 
L 3950 1025 
z
M 3950 2350 
L 3950 3150 
L 2425 3150 
L 2425 2350 
L 3950 2350 
z
M 1525 5300 
Q 1750 5000 2225 4350 
Q 1950 4225 1700 4075 
Q 1450 4575 1075 5025 
Q 1350 5225 1525 5300 
z
" transform="scale(0.015625)"/>
       <path id="SimHei-20" transform="scale(0.015625)"/>
       <path id="SimHei-2f" d="M 3000 4550 
L 350 -175 
L 100 -25 
L 2750 4700 
L 3000 4550 
z
" transform="scale(0.015625)"/>
       <path id="SimHei-5e8f" d="M 4000 2075 
L 5975 2075 
Q 5750 1525 5575 1025 
Q 5325 1100 5050 1150 
Q 5175 1450 5275 1700 
L 4050 1700 
L 4050 150 
Q 4050 -375 3762 -462 
Q 3475 -550 2950 -575 
Q 2875 -300 2750 0 
Q 3350 -75 3475 25 
Q 3600 125 3575 375 
L 3575 1700 
L 2450 1700 
Q 2050 1700 1675 1675 
L 1675 2100 
Q 2100 2075 2425 2075 
L 3675 2075 
Q 3325 2400 2875 2775 
Q 2975 2875 3250 3100 
Q 3400 2975 3725 2725 
L 4575 3275 
L 3000 3275 
Q 2400 3275 1950 3250 
L 1950 3700 
Q 2400 3675 3000 3675 
L 5400 3675 
L 5400 3250 
Q 4700 2875 4025 2450 
L 4275 2250 
L 4000 2075 
z
M 3725 5275 
Q 3825 4925 3925 4525 
L 4850 4525 
Q 5425 4525 6000 4550 
L 6000 4125 
Q 5425 4150 4850 4150 
L 1400 4150 
Q 1400 2750 1362 2137 
Q 1325 1525 1200 887 
Q 1075 250 775 -350 
Q 625 -250 250 -125 
Q 475 300 600 700 
Q 725 1100 800 1637 
Q 875 2175 875 2825 
Q 875 3500 850 4525 
L 3350 4525 
Q 3275 4825 3150 5150 
Q 3425 5200 3725 5275 
z
" transform="scale(0.015625)"/>
       <path id="SimHei-53f7" d="M 5025 4925 
Q 5000 4550 5000 4075 
Q 5000 3600 5025 3175 
L 1400 3175 
Q 1425 3525 1425 4000 
Q 1425 4500 1400 4925 
L 5025 4925 
z
M 5175 2625 
Q 5650 2625 6025 2650 
L 6025 2200 
Q 5650 2225 5175 2225 
L 2450 2225 
Q 2350 1875 2225 1450 
L 5175 1450 
Q 5100 1050 5062 775 
Q 5025 500 4950 112 
Q 4875 -275 4650 -412 
Q 4425 -550 3225 -625 
Q 3125 -350 2975 -50 
Q 3875 -75 4112 -50 
Q 4350 -25 4425 212 
Q 4500 450 4575 1025 
L 1600 1025 
Q 1825 1625 1950 2225 
L 1350 2225 
Q 825 2225 375 2200 
L 375 2650 
Q 825 2625 1350 2625 
L 5175 2625 
z
M 4525 3575 
L 4525 4525 
L 1900 4525 
L 1900 3575 
L 4525 3575 
z
" transform="scale(0.015625)"/>
      </defs>
      <use xlink:href="#SimHei-65f6"/>
      <use xlink:href="#SimHei-95f4" transform="translate(100 0)"/>
      <use xlink:href="#SimHei-20" transform="translate(200 0)"/>
      <use xlink:href="#SimHei-2f" transform="translate(250 0)"/>
      <use xlink:href="#SimHei-20" transform="translate(300 0)"/>
      <use xlink:href="#SimHei-5e8f" transform="translate(350 0)"/>
      <use xlink:href="#SimHei-53f7" transform="translate(450 0)"/>
     </g>
    </g>
   </g>
   <g id="matplotlib.axis_2">
    <g id="ytick_1">
     <g id="line2d_11">
      <path d="M 37.575 345.425885 
L 705.3675 345.425885 
" clip-path="url(#pb984783be3)" style="fill: none; stroke-dasharray: 1.85,0.8; stroke-dashoffset: 0; stroke: #b2b2b2; stroke-opacity: 0.3; stroke-width: 0.5"/>
     </g>
     <g id="line2d_12">
      <defs>
       <path id="m1061c21668" d="M 0 0 
L 3.5 0 
" style="stroke: #000000; stroke-width: 0.8"/>
      </defs>
      <g>
       <use xlink:href="#m1061c21668" x="37.575" y="345.425885" style="stroke: #000000; stroke-width: 0.8"/>
      </g>
     </g>
     <g id="text_7">
      <!-- 50 -->
      <g transform="translate(25.075 348.519635) scale(0.09 -0.09)">
       <use xlink:href="#SimHei-35"/>
       <use xlink:href="#SimHei-30" transform="translate(50 0)"/>
      </g>
     </g>
    </g>
    <g id="ytick_2">
     <g id="line2d_13">
      <path d="M 37.575 283.65078 
L 705.3675 283.65078 
" clip-path="url(#pb984783be3)" style="fill: none; stroke-dasharray: 1.85,0.8; stroke-dashoffset: 0; stroke: #b2b2b2; stroke-opacity: 0.3; stroke-width: 0.5"/>
     </g>
     <g id="line2d_14">
      <g>
       <use xlink:href="#m1061c21668" x="37.575" y="283.65078" style="stroke: #000000; stroke-width: 0.8"/>
      </g>
     </g>
     <g id="text_8">
      <!-- 100 -->
      <g transform="translate(20.575 286.74453) scale(0.09 -0.09)">
       <use xlink:href="#SimHei-31"/>
       <use xlink:href="#SimHei-30" transform="translate(50 0)"/>
       <use xlink:href="#SimHei-30" transform="translate(100 0)"/>
      </g>
     </g>
    </g>
    <g id="ytick_3">
     <g id="line2d_15">
      <path d="M 37.575 221.875674 
L 705.3675 221.875674 
" clip-path="url(#pb984783be3)" style="fill: none; stroke-dasharray: 1.85,0.8; stroke-dashoffset: 0; stroke: #b2b2b2; stroke-opacity: 0.3; stroke-width: 0.5"/>
     </g>
     <g id="line2d_16">
      <g>
       <use xlink:href="#m1061c21668" x="37.575" y="221.875674" style="stroke: #000000; stroke-width: 0.8"/>
      </g>
     </g>
     <g id="text_9">
      <!-- 150 -->
      <g transform="translate(20.575 224.969424) scale(0.09 -0.09)">
       <use xlink:href="#SimHei-31"/>
       <use xlink:href="#SimHei-35" transform="translate(50 0)"/>
       <use xlink:href="#SimHei-30" transform="translate(100 0)"/>
      </g>
     </g>
    </g>
    <g id="ytick_4">
     <g id="line2d_17">
      <path d="M 37.575 160.100569 
L 705.3675 160.100569 
" clip-path="url(#pb984783be3)" style="fill: none; stroke-dasharray: 1.85,0.8; stroke-dashoffset: 0; stroke: #b2b2b2; stroke-opacity: 0.3; stroke-width: 0.5"/>
     </g>
     <g id="line2d_18">
      <g>
       <use xlink:href="#m1061c21668" x="37.575" y="160.100569" style="stroke: #000000; stroke-width: 0.8"/>
      </g>
     </g>
     <g id="text_10">
      <!-- 200 -->
      <g transform="translate(20.575 163.194319) scale(0.09 -0.09)">
       <use xlink:href="#SimHei-32"/>
       <use xlink:href="#SimHei-30" transform="translate(50 0)"/>
       <use xlink:href="#SimHei-30" transform="translate(100 0)"/>
      </g>
     </g>
    </g>
    <g id="ytick_5">
     <g id="line2d_19">
      <path d="M 37.575 98.325464 
L 705.3675 98.325464 
" clip-path="url(#pb984783be3)" style="fill: none; stroke-dasharray: 1.85,0.8; stroke-dashoffset: 0; stroke: #b2b2b2; stroke-opacity: 0.3; stroke-width: 0.5"/>
     </g>
     <g id="line2d_20">
      <g>
       <use xlink:href="#m1061c21668" x="37.575" y="98.325464" style="stroke: #000000; stroke-width: 0.8"/>
      </g>
     </g>
     <g id="text_11">
      <!-- 250 -->
      <g transform="translate(20.575 101.419214) scale(0.09 -0.09)">
       <use xlink:href="#SimHei-32"/>
       <use xlink:href="#SimHei-35" transform="translate(50 0)"/>
       <use xlink:href="#SimHei-30" transform="translate(100 0)"/>
      </g>
     </g>
    </g>
    <g id="ytick_6">
     <g id="line2d_21">
      <path d="M 37.575 36.550358 
L 705.3675 36.550358 
" clip-path="url(#pb984783be3)" style="fill: none; stroke-dasharray: 1.85,0.8; stroke-dashoffset: 0; stroke: #b2b2b2; stroke-opacity: 0.3; stroke-width: 0.5"/>
     </g>
     <g id="line2d_22">
      <g>
       <use xlink:href="#m1061c21668" x="37.575" y="36.550358" style="stroke: #000000; stroke-width: 0.8"/>
      </g>
     </g>
     <g id="text_12">
      <!-- 300 -->
      <g transform="translate(20.575 39.644108) scale(0.09 -0.09)">
       <defs>
        <path id="SimHei-33" d="M 250 1225 
L 700 1300 
Q 800 975 1025 762 
Q 1250 550 1587 562 
Q 1925 575 2125 837 
Q 2325 1100 2300 1437 
Q 2275 1775 2037 1962 
Q 1800 2150 1275 2225 
L 1275 2550 
Q 1800 2600 2037 2825 
Q 2275 3050 2250 3412 
Q 2225 3775 1925 3937 
Q 1625 4100 1287 3975 
Q 950 3850 750 3275 
L 300 3350 
Q 450 3800 712 4100 
Q 975 4400 1425 4450 
Q 1875 4500 2212 4337 
Q 2550 4175 2687 3837 
Q 2825 3500 2725 3100 
Q 2625 2700 2150 2400 
Q 2500 2250 2687 1950 
Q 2875 1650 2812 1162 
Q 2750 675 2375 375 
Q 2000 75 1525 87 
Q 1050 100 700 387 
Q 350 675 250 1225 
z
" transform="scale(0.015625)"/>
       </defs>
       <use xlink:href="#SimHei-33"/>
       <use xlink:href="#SimHei-30" transform="translate(50 0)"/>
       <use xlink:href="#SimHei-30" transform="translate(100 0)"/>
      </g>
     </g>
    </g>
    <g id="text_13">
     <!-- COD_mg/L 值 -->
     <g transform="translate(15.246875 237.289375) rotate(-90) scale(0.1 -0.1)">
      <defs>
       <path id="SimHei-43" d="M 2975 1825 
Q 2950 875 2575 475 
Q 2200 75 1675 75 
Q 1075 75 650 562 
Q 225 1050 225 2125 
Q 225 3300 637 3875 
Q 1050 4450 1700 4450 
Q 2250 4450 2612 4037 
Q 2975 3625 2950 2875 
L 2400 2875 
Q 2400 3425 2225 3700 
Q 2050 3975 1700 3975 
Q 1300 3975 1062 3562 
Q 825 3150 825 2175 
Q 825 1275 1062 912 
Q 1300 550 1675 550 
Q 1950 550 2175 812 
Q 2400 1075 2400 1825 
L 2975 1825 
z
" transform="scale(0.015625)"/>
       <path id="SimHei-4f" d="M 2950 2275 
Q 2950 1100 2587 587 
Q 2225 75 1575 75 
Q 925 75 550 587 
Q 175 1100 175 2275 
Q 175 3450 550 3950 
Q 925 4450 1575 4450 
Q 2225 4450 2587 3950 
Q 2950 3450 2950 2275 
z
M 2350 2275 
Q 2350 3325 2125 3650 
Q 1900 3975 1575 3975 
Q 1250 3975 1012 3650 
Q 775 3325 775 2275 
Q 775 1225 1012 887 
Q 1250 550 1575 550 
Q 1900 550 2125 887 
Q 2350 1225 2350 2275 
z
" transform="scale(0.015625)"/>
       <path id="SimHei-44" d="M 2925 2250 
Q 2925 1100 2437 612 
Q 1950 125 1125 125 
L 275 125 
L 275 4400 
L 1125 4400 
Q 2050 4400 2487 3900 
Q 2925 3400 2925 2250 
z
M 2325 2250 
Q 2325 3175 2025 3550 
Q 1725 3925 1125 3925 
L 850 3925 
L 850 600 
L 1125 600 
Q 1725 600 2025 962 
Q 2325 1325 2325 2250 
z
" transform="scale(0.015625)"/>
       <path id="SimHei-5f" d="M 3150 -850 
L 0 -850 
L 0 -550 
L 3150 -550 
L 3150 -850 
z
" transform="scale(0.015625)"/>
       <path id="SimHei-6d" d="M 3050 125 
L 2550 125 
L 2550 2150 
Q 2550 2300 2500 2400 
Q 2450 2500 2300 2500 
Q 2125 2500 1975 2312 
Q 1825 2125 1825 1825 
L 1825 125 
L 1325 125 
L 1325 2150 
Q 1325 2300 1275 2400 
Q 1225 2500 1075 2500 
Q 900 2500 750 2312 
Q 600 2125 600 1825 
L 600 125 
L 100 125 
L 100 2925 
L 600 2925 
L 600 2550 
Q 725 2750 900 2862 
Q 1075 2975 1275 2975 
Q 1475 2975 1612 2862 
Q 1750 2750 1800 2550 
Q 1925 2750 2087 2862 
Q 2250 2975 2450 2975 
Q 2750 2975 2900 2812 
Q 3050 2650 3050 2350 
L 3050 125 
z
" transform="scale(0.015625)"/>
       <path id="SimHei-67" d="M 2975 2500 
Q 2800 2550 2637 2562 
Q 2475 2575 2300 2525 
Q 2375 2450 2425 2337 
Q 2475 2225 2475 2000 
Q 2475 1575 2187 1300 
Q 1900 1025 1475 1025 
Q 1375 1025 1212 1062 
Q 1050 1100 950 1150 
Q 875 1100 850 1050 
Q 825 1000 825 925 
Q 825 800 1000 737 
Q 1175 675 1625 675 
Q 2350 675 2612 475 
Q 2875 275 2875 -25 
Q 2875 -425 2487 -612 
Q 2100 -800 1575 -800 
Q 900 -800 575 -625 
Q 250 -450 250 -150 
Q 250 0 375 150 
Q 500 300 700 400 
Q 550 475 462 587 
Q 375 700 375 875 
Q 375 1025 487 1137 
Q 600 1250 750 1325 
Q 625 1450 550 1625 
Q 475 1800 475 2000 
Q 475 2425 762 2700 
Q 1050 2975 1475 2975 
Q 1700 2975 1862 2912 
Q 2025 2850 2150 2725 
Q 2350 2875 2550 2937 
Q 2750 3000 2975 2975 
L 2975 2500 
z
M 1975 2000 
Q 1975 2250 1850 2400 
Q 1725 2550 1475 2550 
Q 1225 2550 1100 2400 
Q 975 2250 975 2000 
Q 975 1750 1100 1600 
Q 1225 1450 1475 1450 
Q 1725 1450 1850 1600 
Q 1975 1750 1975 2000 
z
M 2400 -75 
Q 2400 25 2287 125 
Q 2175 225 1725 225 
Q 1625 225 1450 237 
Q 1275 250 1050 275 
Q 850 200 775 100 
Q 700 0 700 -100 
Q 700 -250 900 -350 
Q 1100 -450 1600 -450 
Q 2025 -450 2212 -337 
Q 2400 -225 2400 -75 
z
" transform="scale(0.015625)"/>
       <path id="SimHei-4c" d="M 2900 125 
L 300 125 
L 300 4400 
L 875 4400 
L 875 600 
L 2900 600 
L 2900 125 
z
" transform="scale(0.015625)"/>
       <path id="SimHei-503c" d="M 3675 4450 
L 3675 5100 
Q 3975 5075 4350 5050 
Q 4225 4875 4200 4450 
L 5125 4450 
Q 5550 4450 5875 4475 
L 5875 4025 
Q 5525 4050 5125 4050 
L 4175 4050 
L 4125 3500 
L 5400 3500 
Q 5375 3200 5375 2700 
L 5375 150 
Q 5875 150 6100 175 
L 6100 -275 
Q 5775 -250 5200 -250 
L 2850 -250 
Q 2275 -250 1900 -275 
L 1900 175 
Q 2125 150 2600 150 
L 2600 2700 
Q 2600 3175 2575 3500 
L 3600 3500 
L 3650 4050 
L 3200 4050 
Q 2575 4050 2225 4025 
L 2225 4475 
Q 2550 4450 3200 4450 
L 3675 4450 
z
M 2225 4900 
Q 2025 4675 1650 3750 
L 1650 450 
Q 1650 -75 1675 -550 
L 1150 -550 
Q 1175 -125 1175 375 
L 1175 2950 
Q 875 2450 625 2150 
Q 425 2425 250 2575 
Q 500 2825 937 3537 
Q 1375 4250 1625 5150 
Q 1975 4975 2225 4900 
z
M 4925 2650 
L 4925 3150 
L 3075 3150 
L 3075 2650 
L 4925 2650 
z
M 4925 150 
L 4925 625 
L 3075 625 
L 3075 150 
L 4925 150 
z
M 4925 1000 
L 4925 1450 
L 3075 1450 
L 3075 1000 
L 4925 1000 
z
M 4925 1825 
L 4925 2275 
L 3075 2275 
L 3075 1825 
L 4925 1825 
z
" transform="scale(0.015625)"/>
      </defs>
      <use xlink:href="#SimHei-43"/>
      <use xlink:href="#SimHei-4f" transform="translate(50 0)"/>
      <use xlink:href="#SimHei-44" transform="translate(100 0)"/>
      <use xlink:href="#SimHei-5f" transform="translate(150 0)"/>
      <use xlink:href="#SimHei-6d" transform="translate(200 0)"/>
      <use xlink:href="#SimHei-67" transform="translate(250 0)"/>
      <use xlink:href="#SimHei-2f" transform="translate(300 0)"/>
      <use xlink:href="#SimHei-4c" transform="translate(350 0)"/>
      <use xlink:href="#SimHei-20" transform="translate(400 0)"/>
      <use xlink:href="#SimHei-503c" transform="translate(450 0)"/>
     </g>
    </g>
   </g>
   <g id="line2d_23">
    <path d="M 67.929205 203.466693 
L 68.206285 192.495434 
L 68.483366 189.060738 
L 68.760447 167.501227 
L 69.037528 179.362047 
L 69.314609 183.167393 
L 69.59169 179.473242 
L 69.86877 178.546615 
L 70.145851 190.29624 
L 70.422932 163.300519 
L 70.700013 43.742216 
L 70.977094 156.134607 
L 71.254174 163.57233 
L 71.531255 163.139904 
L 71.808336 161.620237 
L 72.085417 163.325229 
L 72.362498 181.4624 
L 72.639579 158.06199 
L 72.916659 171.553674 
L 73.19374 169.984586 
L 73.470821 169.935166 
L 73.747902 186.602089 
L 74.024983 167.068801 
L 74.302064 175.173695 
L 74.579144 146.287655 
L 74.856225 164.548377 
L 75.133306 161.187811 
L 75.410387 154.306064 
L 75.687468 43.742216 
L 75.964549 148.264459 
L 76.241629 136.947259 
L 76.51871 152.551651 
L 76.795791 146.20117 
L 77.349953 162.843384 
L 77.627033 168.180753 
L 77.904114 162.966934 
L 78.458276 110.74226 
L 78.735357 128.18755 
L 79.012438 102.32849 
L 79.289518 63.113653 
L 79.566599 53.723837 
L 79.84368 131.807571 
L 80.120761 113.423299 
L 80.397842 120.453306 
L 80.674923 118.328243 
L 80.952003 127.001467 
L 81.229084 116.264954 
L 81.506165 130.497938 
L 81.783246 151.303794 
L 82.060327 150.797238 
L 82.337408 141.395067 
L 82.614488 144.063752 
L 82.891569 137.787401 
L 83.16865 118.377663 
L 83.445731 120.317401 
L 83.722812 135.526432 
L 83.999892 140.888511 
L 84.276973 111.199396 
L 84.554054 161.002486 
L 84.831135 163.214034 
L 85.108216 162.460378 
L 85.385297 140.863801 
L 85.662377 145.620484 
L 85.939458 143.594261 
L 86.216539 144.842118 
L 86.49362 149.858256 
L 86.770701 146.633596 
L 87.047782 137.898596 
L 87.324862 140.888511 
L 87.601943 113.74453 
L 87.879024 43.742216 
L 88.156105 67.895047 
L 88.433186 43.742216 
L 88.987347 43.742216 
L 89.264428 103.687543 
L 89.81859 58.801751 
L 90.095671 51.697614 
L 90.649832 195.967195 
L 90.926913 208.285151 
L 91.203994 181.16588 
L 91.481075 275.632371 
L 91.758156 243.731707 
L 92.035236 186.305569 
L 92.589398 172.517365 
L 92.866479 189.048383 
L 93.420641 175.18605 
L 93.697721 188.270017 
L 93.974802 188.405922 
L 94.528964 174.210003 
L 94.806045 173.345152 
L 95.083126 43.742216 
L 95.360206 179.127301 
L 95.637287 239.086219 
L 95.914368 219.812386 
L 96.191449 140.641411 
L 96.46853 158.284381 
L 96.745611 147.869098 
L 97.022691 158.667387 
L 97.299772 144.940958 
L 97.576853 150.871368 
L 97.853934 142.605859 
L 98.131015 144.953313 
L 98.408095 142.210498 
L 98.685176 117.426326 
L 99.239338 147.374897 
L 99.516419 149.20344 
L 99.7935 43.742216 
L 100.07058 129.521892 
L 100.624742 164.844897 
L 101.178904 150.513073 
L 101.455985 152.489876 
L 101.733065 178.01535 
L 102.287227 152.601071 
L 102.564308 182.796743 
L 103.11847 142.605859 
L 103.39555 165.956849 
L 103.672631 167.105866 
L 103.949712 173.258666 
L 104.226793 135.266977 
L 104.503874 159.816403 
L 104.780954 195.991905 
L 105.058035 177.830024 
L 105.335116 252.306091 
L 105.612197 209.545363 
L 106.166359 250.922329 
L 106.443439 245.41199 
L 106.72052 252.948552 
L 107.274682 217.674967 
L 107.551763 179.955088 
L 107.828844 207.704465 
L 108.105924 223.593022 
L 108.383005 224.952075 
L 108.660086 176.915753 
L 108.937167 167.340611 
L 109.214248 151.501474 
L 109.768409 198.75943 
L 110.04549 191.432902 
L 110.322571 90.356475 
L 110.599652 217.230186 
L 110.876733 178.43542 
L 111.153813 182.178992 
L 111.430894 176.693362 
L 111.707975 186.367344 
L 111.985056 175.16134 
L 112.262137 128.45936 
L 112.816298 172.65327 
L 113.093379 172.715045 
L 113.37046 186.219084 
L 113.647541 248.327775 
L 113.924622 266.40317 
L 114.201703 231.277845 
L 114.478783 152.415746 
L 114.755864 170.342881 
L 115.032945 151.229664 
L 115.310026 143.557196 
L 115.587107 185.650753 
L 115.864188 174.543589 
L 116.141268 203.244303 
L 116.418349 176.026191 
L 116.972511 238.468468 
L 117.249592 184.11873 
L 117.526672 177.904154 
L 117.803753 175.618475 
L 118.080834 213.857266 
L 118.357915 218.75109 
L 118.634996 185.530909 
L 118.912077 179.2595 
L 119.189157 149.403592 
L 119.466238 182.927706 
L 119.743319 187.159301 
L 120.0204 43.742216 
L 120.297481 136.40611 
L 120.574562 191.41437 
L 120.851642 181.174528 
L 121.128723 156.469428 
L 121.405804 187.943844 
L 121.682885 239.190001 
L 121.959966 200.211145 
L 122.237047 266.59838 
L 122.791208 200.938856 
L 123.068289 134.090779 
L 123.34537 261.687259 
L 123.622451 161.857453 
L 124.176612 253.119052 
L 124.453693 208.253028 
L 124.730774 43.742216 
L 125.007855 214.340347 
L 125.562016 131.266421 
L 125.839097 152.433043 
L 126.116178 197.00131 
L 126.393259 138.38909 
L 126.67034 153.374495 
L 127.224501 208.72499 
L 127.778663 177.684235 
L 128.055744 171.006346 
L 128.332825 128.096122 
L 128.609906 152.16741 
L 128.886986 135.013699 
L 129.164067 167.520995 
L 129.441148 173.511944 
L 129.718229 94.982195 
L 129.99531 139.008077 
L 130.272391 120.185202 
L 130.549471 187.558368 
L 131.103633 142.854195 
L 131.380714 158.871244 
L 131.657795 120.602802 
L 131.934875 165.248906 
L 132.211956 165.250142 
L 132.489037 108.066162 
L 132.766118 133.093728 
L 133.043199 194.15842 
L 133.32028 176.199161 
L 133.59736 175.314542 
L 133.874441 178.533025 
L 134.151522 142.250035 
L 134.428603 192.989635 
L 134.705684 136.60379 
L 134.982765 244.739876 
L 135.259845 238.76993 
L 135.536926 213.370478 
L 135.814007 235.508205 
L 136.091088 245.970436 
L 136.64525 198.85827 
L 136.92233 254.411387 
L 137.199411 196.909883 
L 137.476492 226.762085 
L 137.753573 186.668806 
L 138.030654 227.453966 
L 138.307734 190.005897 
L 138.584815 263.4009 
L 138.861896 244.699105 
L 139.138977 245.661561 
L 139.416058 254.614009 
L 139.693139 254.614009 
L 139.970219 179.820418 
L 140.2473 220.552452 
L 140.524381 227.939519 
L 140.801462 212.123856 
L 141.078543 246.368268 
L 141.355624 194.284441 
L 141.632704 239.897944 
L 141.909785 205.595463 
L 142.186866 217.610721 
L 142.463947 43.742216 
L 142.741028 216.181245 
L 143.018109 236.76471 
L 143.295189 219.837096 
L 143.57227 255.502335 
L 143.849351 248.842979 
L 144.126432 221.731121 
L 144.403513 219.131624 
L 144.680593 203.647076 
L 144.957674 232.71597 
L 145.234755 248.278354 
L 145.511836 233.684604 
L 145.788917 255.996536 
L 146.065998 217.24007 
L 146.343078 254.317489 
L 146.620159 315.067127 
L 146.89724 243.588388 
L 147.174321 221.031826 
L 147.451402 240.967888 
L 147.728483 243.643986 
L 148.282644 126.412133 
L 148.559725 238.381983 
L 148.836806 255.953294 
L 149.113887 231.785637 
L 149.390968 163.16585 
L 149.668048 227.133971 
L 149.945129 248.177043 
L 150.22221 43.742216 
L 150.499291 242.116905 
L 150.776372 242.287405 
L 151.053453 236.037 
L 151.330533 255.918699 
L 151.607614 226.575524 
L 151.884695 242.130496 
L 152.161776 273.221906 
L 152.438857 276.274832 
L 152.715937 281.077229 
L 152.993018 279.561268 
L 153.270099 294.241504 
L 153.824261 289.523121 
L 154.101342 266.563786 
L 154.378422 287.435123 
L 154.655503 298.277889 
L 154.932584 304.528294 
L 155.486746 277.337364 
L 156.040907 261.595832 
L 156.317988 295.144656 
L 156.595069 294.82219 
L 156.87215 286.898915 
L 157.149231 283.487694 
L 157.426312 284.184517 
L 157.703392 282.56848 
L 157.980473 281.949493 
L 158.257554 276.315604 
L 158.534635 283.161521 
L 158.811716 213.500206 
L 159.088796 293.727535 
L 159.365877 269.719258 
L 159.642958 277.788322 
L 159.920039 163.189324 
L 160.19712 282.033508 
L 160.474201 280.611445 
L 160.751281 280.809125 
L 161.305443 293.219744 
L 161.582524 260.876769 
L 161.859605 282.98608 
L 162.136686 319.974542 
L 162.413766 303.332328 
L 162.690847 311.256839 
L 162.967928 312.9816 
L 163.245009 321.261935 
L 163.52209 256.111438 
L 163.799171 286.047654 
L 164.076251 291.051437 
L 164.353332 308.144609 
L 164.630413 274.28938 
L 164.907494 267.501532 
L 165.184575 306.846096 
L 165.461655 315.681172 
L 165.738736 292.870097 
L 166.015817 331.939144 
L 166.292898 304.910065 
L 166.569979 312.793804 
L 166.84706 261.238772 
L 167.12414 43.742216 
L 167.401221 248.206695 
L 167.678302 258.898731 
L 168.232464 234.467912 
L 168.509545 238.174418 
L 168.786625 258.373642 
L 169.063706 252.949788 
L 169.340787 138.838813 
L 169.617868 203.427157 
L 169.894949 183.693717 
L 170.17203 216.627261 
L 170.44911 198.655648 
L 170.726191 212.495742 
L 171.003272 214.770302 
L 171.280353 225.28566 
L 171.557434 190.827506 
L 171.834514 179.562198 
L 172.111595 182.081387 
L 172.388676 167.404857 
L 172.665757 139.079736 
L 172.942838 124.713318 
L 173.496999 143.06423 
L 173.77408 148.864913 
L 174.051161 142.911028 
L 174.328242 43.742216 
L 174.605323 182.369259 
L 174.882404 179.558492 
L 175.159484 182.578059 
L 175.436565 177.297523 
L 175.713646 222.663925 
L 176.267808 254.749914 
L 176.544889 253.264841 
L 176.821969 257.034358 
L 177.09905 257.514968 
L 177.376131 261.610658 
L 177.653212 258.456421 
L 177.930293 263.119206 
L 178.484454 203.183763 
L 178.761535 196.077155 
L 179.038616 199.796016 
L 179.315697 201.884015 
L 179.592778 205.098791 
L 179.869858 210.501642 
L 180.146939 210.228596 
L 180.42402 195.68303 
L 180.701101 202.246017 
L 180.978182 205.457087 
L 181.255263 198.309707 
L 181.809424 193.251562 
L 182.086505 193.40847 
L 182.363586 191.326649 
L 182.640667 195.492762 
L 182.917748 197.38061 
L 183.194828 181.991195 
L 183.471909 190.549518 
L 183.74899 186.429119 
L 184.026071 162.765547 
L 184.303152 207.360996 
L 184.580233 99.497955 
L 184.857313 43.742216 
L 185.134394 180.548129 
L 185.411475 148.050717 
L 185.688556 240.814686 
L 185.965637 296.130587 
L 186.242717 328.830621 
L 186.519798 326.842698 
L 186.796879 310.440172 
L 187.07396 310.440172 
L 187.351041 296.366567 
L 187.628122 323.508078 
L 187.905202 322.674114 
L 188.182283 318.411632 
L 188.459364 317.528248 
L 188.736445 291.602471 
L 189.013526 323.723055 
L 189.290607 316.495368 
L 189.567687 312.50099 
L 190.121849 324.786822 
L 190.39893 324.699102 
L 190.676011 330.596153 
L 190.953092 331.469653 
L 191.230172 357.688244 
L 191.507253 354.863886 
L 191.784334 361.502239 
L 192.061415 43.742216 
L 192.338496 361.363862 
L 192.615576 356.954355 
L 192.892657 365.458316 
L 193.169738 369.976548 
L 193.446819 370.40156 
L 193.7239 361.363862 
L 194.000981 358.826141 
L 194.278061 362.444927 
L 194.555142 348.325609 
L 194.832223 343.274876 
L 195.109304 349.925584 
L 195.663466 337.066478 
L 195.940546 336.440078 
L 196.217627 347.174121 
L 196.494708 347.476819 
L 196.771789 347.538594 
L 197.04887 350.059018 
L 197.325951 349.89099 
L 197.603031 323.981275 
L 198.157193 342.157982 
L 198.434274 335.566578 
L 198.711355 332.957198 
L 198.988435 325.93831 
L 199.265516 323.201673 
L 199.542597 43.742216 
L 199.819678 310.805881 
L 200.096759 310.315386 
L 200.37384 288.605143 
L 200.65092 306.676833 
L 200.928001 292.169567 
L 201.205082 297.388328 
L 201.482163 277.617823 
L 201.759244 299.714778 
L 202.036325 309.548139 
L 202.313405 331.217611 
L 202.590486 331.28927 
L 203.144648 315.002881 
L 203.421729 318.055807 
L 203.69881 317.345393 
L 203.97589 320.264885 
L 204.252971 317.503538 
L 204.530052 329.628755 
L 204.807133 332.780521 
L 205.361295 320.399554 
L 205.638375 320.399554 
L 206.192537 292.56987 
L 206.469618 321.693125 
L 206.746699 332.424697 
L 207.023779 326.103868 
L 207.30086 316.468187 
L 207.577941 320.760321 
L 207.855022 319.544587 
L 208.132103 321.12603 
L 208.409184 316.2668 
L 208.686264 303.271789 
L 208.963345 265.003346 
L 209.240426 321.74131 
L 209.517507 323.020054 
L 209.794588 304.233009 
L 210.071669 307.295819 
L 210.348749 327.672955 
L 210.62583 314.7286 
L 210.902911 312.66284 
L 211.179992 302.896196 
L 211.457073 314.43455 
L 211.734154 312.84693 
L 212.011234 315.373532 
L 212.842477 296.129351 
L 213.119558 304.191002 
L 213.396638 303.966141 
L 213.673719 304.674084 
L 213.9508 304.665435 
L 214.227881 310.167126 
L 214.504962 310.936844 
L 215.059123 272.705467 
L 215.336204 310.69345 
L 215.613285 310.952905 
L 215.890366 306.610115 
L 216.167447 43.742216 
L 216.444528 326.055683 
L 216.721608 331.626562 
L 216.998689 329.240808 
L 217.27577 317.498596 
L 217.829932 305.682253 
L 218.107013 318.926836 
L 218.384093 315.23392 
L 218.661174 291.32819 
L 218.938255 296.899069 
L 219.215336 314.02807 
L 219.492417 316.334753 
L 219.769497 316.334753 
L 220.046578 314.931222 
L 220.323659 326.061861 
L 220.877821 331.826713 
L 221.154902 325.277317 
L 221.709063 347.767162 
L 221.986144 347.767162 
L 222.263225 338.678808 
L 222.540306 350.54457 
L 222.817387 352.884611 
L 223.094467 291.848336 
L 223.371548 316.067884 
L 223.648629 323.56244 
L 223.92571 326.763626 
L 224.479872 289.222894 
L 224.756952 43.742216 
L 225.034033 304.868057 
L 225.311114 255.161337 
L 226.142356 291.31707 
L 226.419437 291.31707 
L 226.696518 317.407168 
L 226.973599 234.837327 
L 227.25068 312.682608 
L 227.527761 309.974388 
L 228.081922 336.348651 
L 228.359003 335.426967 
L 228.636084 338.540432 
L 228.913165 344.171851 
L 229.190246 344.171851 
L 229.467326 362.253424 
L 229.744407 281.725868 
L 230.021488 278.158973 
L 230.298569 283.005848 
L 230.57565 275.860939 
L 230.852731 308.389238 
L 231.129811 289.86412 
L 231.406892 295.280561 
L 231.683973 293.851085 
L 231.961054 298.476805 
L 232.515215 287.495662 
L 232.792296 313.75626 
L 233.069377 323.913322 
L 233.346458 312.714731 
L 233.623539 295.541252 
L 233.90062 295.790824 
L 234.1777 294.106834 
L 234.454781 284.875162 
L 234.731862 315.361177 
L 235.008943 299.299649 
L 235.286024 294.622039 
L 235.563105 236.560852 
L 235.840185 298.958651 
L 236.117266 304.654316 
L 236.671428 338.38723 
L 236.948509 337.708939 
L 237.22559 318.290552 
L 237.50267 327.060146 
L 237.779751 325.693681 
L 238.056832 319.334552 
L 238.333913 304.230538 
L 238.610994 301.357996 
L 238.888075 281.057461 
L 239.165155 296.134293 
L 239.442236 302.004164 
L 239.719317 313.326305 
L 239.996398 294.841958 
L 240.273479 245.908661 
L 240.550559 296.522241 
L 240.82764 282.738979 
L 241.104721 43.742216 
L 241.381802 299.040194 
L 241.658883 302.358753 
L 241.935964 300.000179 
L 242.213044 287.301689 
L 242.490125 288.193721 
L 242.767206 285.683181 
L 243.044287 308.698114 
L 243.321368 308.338583 
L 243.598449 299.008071 
L 243.875529 294.841958 
L 244.15261 233.112566 
L 244.429691 277.20393 
L 244.706772 263.728308 
L 244.983853 297.095514 
L 245.260934 290.190292 
L 245.538014 268.96066 
L 245.815095 271.709652 
L 246.369257 252.091114 
L 246.646338 250.546736 
L 246.923418 313.977415 
L 247.200499 283.013261 
L 247.47758 279.650224 
L 247.754661 285.190215 
L 248.031742 334.48675 
L 248.308823 334.48675 
L 248.585903 365.092608 
L 248.862984 266.010281 
L 249.140065 294.597328 
L 249.417146 280.445887 
L 249.694227 307.458905 
L 249.971308 278.414722 
L 250.248388 314.543275 
L 250.525469 324.691689 
L 250.80255 320.899933 
L 251.079631 311.103637 
L 251.356712 308.552325 
L 251.633793 298.270476 
L 252.187954 290.050681 
L 252.465035 222.500838 
L 252.742116 280.731288 
L 253.019197 287.965153 
L 253.296277 268.208239 
L 253.573358 307.521916 
L 254.12752 297.394505 
L 254.404601 273.371402 
L 254.681682 268.456575 
L 254.958762 265.567971 
L 255.512924 249.837558 
L 255.790005 251.461008 
L 256.067086 246.325026 
L 256.344167 255.875457 
L 256.621247 249.045601 
L 256.898328 257.771953 
L 257.175409 251.435062 
L 257.45249 252.965849 
L 257.729571 240.825806 
L 258.006652 254.52876 
L 258.283732 255.481332 
L 258.560813 247.167638 
L 258.837894 246.969958 
L 259.114975 241.184101 
L 259.392056 249.65841 
L 259.669136 236.92409 
L 259.946217 250.816076 
L 260.223298 242.26393 
L 260.500379 256.519153 
L 260.77746 195.102344 
L 261.054541 261.411742 
L 261.331621 259.399109 
L 261.608702 262.516281 
L 261.885783 263.63441 
L 262.162864 262.673189 
L 262.439945 263.987764 
L 262.717026 248.881279 
L 262.994106 254.89941 
L 263.271187 321.366953 
L 263.548268 323.193025 
L 264.10243 328.615644 
L 264.379511 328.436496 
L 264.656591 329.144438 
L 265.210753 333.998726 
L 265.487834 327.302305 
L 265.764915 326.863702 
L 266.041996 321.33483 
L 266.319076 330.250213 
L 266.596157 326.622779 
L 266.873238 321.219928 
L 267.150319 319.395091 
L 267.4274 316.096301 
L 267.70448 318.863825 
L 267.981561 316.790653 
L 268.258642 324.264205 
L 268.535723 318.879887 
L 268.812804 307.771487 
L 269.089885 314.309765 
L 269.366965 238.421519 
L 269.644046 313.495569 
L 269.921127 319.57671 
L 270.198208 318.33503 
L 270.475289 313.178045 
L 270.75237 313.915639 
L 271.02945 317.246553 
L 271.306531 307.336591 
L 271.583612 344.50173 
L 271.860693 353.424526 
L 272.137774 305.393146 
L 272.414855 320.948117 
L 272.691935 301.507492 
L 272.969016 290.837696 
L 273.246097 294.315634 
L 273.800259 314.054016 
L 274.077339 318.278197 
L 274.35442 331.633975 
L 274.631501 358.598809 
L 274.908582 315.224036 
L 275.185663 339.354628 
L 275.462744 324.459414 
L 275.739824 326.708028 
L 276.016905 324.763348 
L 276.293986 329.889446 
L 276.571067 325.525653 
L 276.848148 332.161535 
L 277.125229 329.371771 
L 277.402309 334.465746 
L 277.67939 246.304022 
L 277.956471 346.822003 
L 278.233552 355.030679 
L 278.510633 347.264312 
L 278.787714 333.965368 
L 279.064794 334.930295 
L 279.341875 331.123713 
L 279.618956 329.104902 
L 279.896037 43.742216 
L 280.173118 320.183342 
L 280.450198 323.493252 
L 280.727279 319.025676 
L 281.00436 349.614237 
L 281.281441 332.26161 
L 281.558522 321.943932 
L 281.835603 326.006263 
L 282.112683 336.230043 
L 282.389764 335.245348 
L 283.221007 296.713744 
L 283.498088 299.781495 
L 283.775168 296.50865 
L 284.052249 296.298615 
L 284.32933 294.442891 
L 284.606411 297.059684 
L 284.883492 292.026249 
L 285.160573 282.977431 
L 285.437653 206.25275 
L 285.714734 316.564556 
L 285.991815 304.93601 
L 286.268896 286.318229 
L 286.545977 287.110186 
L 286.823057 294.214323 
L 287.100138 284.346367 
L 287.377219 281.992736 
L 287.6543 277.955115 
L 287.931381 300.697002 
L 288.208462 303.761048 
L 288.762623 293.558271 
L 289.039704 250.88897 
L 289.316785 292.584696 
L 289.870947 267.94137 
L 290.148027 269.692077 
L 290.425108 258.9951 
L 290.702189 258.367465 
L 290.97927 271.523091 
L 291.533432 257.577979 
L 291.810512 271.314291 
L 292.087593 277.048257 
L 292.364674 270.276469 
L 292.918836 279.452544 
L 293.195917 207.246094 
L 293.472997 269.028612 
L 293.750078 266.695984 
L 294.30424 273.638271 
L 294.581321 273.365225 
L 294.858401 251.375758 
L 295.135482 284.419262 
L 295.412563 294.279804 
L 295.689644 295.084116 
L 295.966725 264.055716 
L 296.243806 293.164146 
L 296.520886 284.546519 
L 296.797967 285.769666 
L 297.075048 299.635706 
L 297.352129 302.67257 
L 297.62921 307.445315 
L 297.906291 288.811472 
L 298.183371 287.548789 
L 298.460452 288.948613 
L 298.737533 291.810036 
L 299.014614 284.146216 
L 299.291695 295.591908 
L 299.568776 288.335804 
L 299.845856 297.688555 
L 300.122937 288.278971 
L 300.677099 279.104132 
L 300.95418 289.345209 
L 301.23126 287.541376 
L 301.508341 240.881403 
L 301.785422 260.446815 
L 302.062503 193.786534 
L 302.339584 264.313936 
L 302.616665 275.99808 
L 302.893745 281.960613 
L 303.447907 300.326352 
L 304.002069 274.32521 
L 304.55623 243.183144 
L 304.833311 293.240747 
L 305.110392 287.519137 
L 305.387473 288.019515 
L 305.941635 268.46893 
L 306.218715 269.842808 
L 306.495796 266.374754 
L 306.772877 255.235467 
L 307.049958 267.437286 
L 307.327039 292.445084 
L 307.604119 279.620572 
L 307.8812 288.711396 
L 308.158281 288.844831 
L 308.435362 285.129676 
L 308.712443 298.94506 
L 308.989524 271.841851 
L 309.266604 283.665606 
L 309.543685 285.541098 
L 309.820766 323.604447 
L 310.097847 276.730732 
L 310.374928 204.670072 
L 310.652009 282.869942 
L 310.929089 286.788955 
L 311.20617 288.664447 
L 311.760332 257.785543 
L 312.037413 256.407958 
L 312.314494 232.004321 
L 312.591574 263.908692 
L 312.868655 309.794004 
L 313.145736 309.794004 
L 313.422817 278.601283 
L 313.699898 278.82738 
L 313.976978 284.692308 
L 314.254059 264.53262 
L 314.53114 334.609064 
L 315.085302 314.20104 
L 315.362383 320.215465 
L 315.639463 321.009893 
L 315.916544 206.943396 
L 316.193625 302.806004 
L 316.470706 306.665713 
L 316.747787 312.393501 
L 317.024868 309.055174 
L 317.301948 299.49733 
L 317.579029 272.300222 
L 317.85611 270.409904 
L 318.133191 315.939392 
L 318.410272 301.178848 
L 318.687353 318.698268 
L 318.964433 212.573579 
L 319.241514 326.840227 
L 319.518595 325.565189 
L 319.795676 305.322722 
L 320.072757 336.498147 
L 320.349838 337.497668 
L 320.626918 357.751254 
L 321.18108 295.579553 
L 321.458161 307.663999 
L 322.012322 321.165566 
L 322.289403 341.907175 
L 322.843565 321.494209 
L 323.120646 330.665342 
L 323.397727 333.817107 
L 323.674807 315.894914 
L 323.951888 312.987777 
L 324.50605 279.82443 
L 324.783131 319.039267 
L 325.060212 326.544942 
L 325.337292 319.886821 
L 325.614373 280.543492 
L 325.891454 287.46601 
L 326.168535 304.069923 
L 326.445616 332.493885 
L 326.722697 322.586393 
L 326.999777 305.099096 
L 327.276858 322.961986 
L 327.553939 307.992642 
L 327.83102 301.068889 
L 328.108101 225.744031 
L 328.385181 288.640973 
L 328.662262 258.415649 
L 329.216424 333.275957 
L 329.493505 320.888813 
L 329.770586 329.487908 
L 330.047666 329.748599 
L 330.324747 314.417253 
L 330.601828 314.417253 
L 331.15599 282.87612 
L 331.433071 298.297657 
L 331.710151 344.19409 
L 331.987232 341.714437 
L 332.264313 317.344158 
L 332.541394 331.888489 
L 332.818475 337.041768 
L 333.095556 353.465297 
L 333.372636 353.704985 
L 333.649717 352.699286 
L 333.926798 360.384109 
L 334.203879 374.520724 
L 334.48096 375.836534 
L 334.75804 369.441575 
L 335.035121 344.721649 
L 335.312202 290.311372 
L 335.589283 308.60298 
L 335.866364 245.699862 
L 336.143445 345.045351 
L 336.420525 344.876087 
L 336.697606 352.925383 
L 337.251768 327.957121 
L 337.80593 270.133151 
L 338.08301 249.433549 
L 338.360091 251.519076 
L 338.637172 251.519076 
L 338.914253 326.417685 
L 339.191334 333.376033 
L 340.022576 298.191404 
L 340.853819 240.31925 
L 341.130899 230.924492 
L 341.40798 280.065353 
L 341.962142 184.611695 
L 342.239223 138.610245 
L 342.793384 341.989954 
L 343.070465 353.287385 
L 343.347546 344.643812 
L 343.624627 320.041259 
L 343.901708 325.152531 
L 344.178789 238.39928 
L 344.455869 306.447029 
L 344.73295 333.065922 
L 345.010031 339.806822 
L 345.564193 306.623706 
L 345.841274 313.037197 
L 346.118354 315.882559 
L 346.395435 297.446396 
L 346.672516 305.027437 
L 346.949597 264.343588 
L 347.226678 283.796569 
L 347.503759 280.863487 
L 347.780839 291.240469 
L 348.05792 306.356838 
L 348.612082 310.913369 
L 348.889163 307.785078 
L 349.166243 307.329178 
L 349.443324 319.758329 
L 349.720405 311.990727 
L 349.997486 296.97567 
L 350.551648 299.44791 
L 350.828728 307.733187 
L 351.105809 302.700987 
L 351.38289 303.560896 
L 351.659971 285.681945 
L 351.937052 323.443832 
L 352.214133 309.987978 
L 352.491213 303.537422 
L 352.768294 318.713094 
L 353.045375 232.077215 
L 353.322456 311.856057 
L 353.876618 300.615459 
L 354.153698 305.677311 
L 354.430779 325.851825 
L 355.539102 346.761463 
L 355.816183 334.705433 
L 356.093264 329.078957 
L 356.370345 311.311201 
L 356.924507 342.082616 
L 357.201587 327.188639 
L 357.478668 331.365871 
L 357.755749 326.81181 
L 358.03283 324.316096 
L 358.309911 332.698978 
L 358.864072 337.885616 
L 359.141153 326.563475 
L 359.418234 325.88889 
L 359.695315 322.058834 
L 359.972396 320.625651 
L 360.249477 330.315694 
L 360.526557 330.790127 
L 360.803638 330.59986 
L 361.080719 327.220762 
L 361.3578 334.100037 
L 361.634881 232.683847 
L 361.911961 319.150462 
L 362.189042 328.662593 
L 362.466123 324.673156 
L 362.743204 303.343448 
L 363.020285 300.842792 
L 363.297366 311.75104 
L 363.574446 277.378136 
L 363.851527 306.056611 
L 364.128608 292.353657 
L 364.405689 297.825695 
L 364.68277 321.245873 
L 364.959851 282.695737 
L 365.236931 284.709605 
L 365.514012 315.290753 
L 365.791093 313.410319 
L 366.068174 308.636339 
L 366.345255 329.164206 
L 366.622336 306.953585 
L 366.899416 312.137752 
L 367.453578 296.004565 
L 367.730659 293.190092 
L 368.00774 297.679906 
L 368.28482 305.393146 
L 368.561901 300.976226 
L 368.838982 294.236562 
L 369.116063 293.584217 
L 369.670225 309.995391 
L 369.947305 309.96821 
L 370.224386 219.819799 
L 370.501467 315.544031 
L 370.778548 304.551769 
L 371.055629 303.68074 
L 371.33271 306.464326 
L 371.886871 329.169148 
L 372.163952 338.451476 
L 372.441033 335.286119 
L 372.718114 335.659241 
L 372.995195 325.318088 
L 373.272275 308.788306 
L 373.549356 273.850777 
L 373.826437 276.529346 
L 374.103518 249.684356 
L 374.380599 269.698254 
L 374.65768 268.310786 
L 375.211841 306.089969 
L 375.488922 323.89479 
L 375.766003 329.345825 
L 376.043084 331.159542 
L 376.320164 330.347817 
L 376.597245 327.985537 
L 376.874326 339.803115 
L 377.151407 334.235943 
L 377.428488 337.295046 
L 377.705569 334.895701 
L 377.982649 337.430951 
L 378.25973 333.697264 
L 378.536811 252.731104 
L 378.813892 324.254321 
L 379.645134 332.351802 
L 380.199296 370.951359 
L 380.476377 359.099187 
L 380.753458 332.16277 
L 381.030539 325.140176 
L 381.307619 307.070958 
L 381.5847 311.604015 
L 381.861781 294.568912 
L 382.138862 307.867857 
L 382.415943 303.957492 
L 382.693023 311.84988 
L 382.970104 311.680616 
L 383.247185 316.490426 
L 383.524266 307.594811 
L 383.801347 308.974866 
L 384.078428 303.874714 
L 384.355508 313.157041 
L 384.632589 306.959763 
L 384.90967 310.282028 
L 385.186751 309.786591 
L 385.463832 294.311927 
L 385.740913 297.168408 
L 386.017993 304.359031 
L 386.295074 307.591104 
L 386.572155 303.95255 
L 386.849236 226.518691 
L 387.126317 303.119822 
L 387.403398 301.923856 
L 387.680478 314.219573 
L 387.957559 316.744939 
L 388.23464 315.408126 
L 388.788802 308.342289 
L 389.065882 294.257565 
L 389.620044 296.202246 
L 389.897125 318.191712 
L 390.174206 302.678748 
L 390.451287 329.350767 
L 391.282529 308.420126 
L 391.55961 306.851038 
L 391.836691 302.693574 
L 392.113772 318.309085 
L 392.390852 320.104269 
L 392.667933 316.264329 
L 392.945014 326.890883 
L 393.222095 314.86327 
L 393.499176 312.08339 
L 393.776257 318.259665 
L 394.053337 317.659211 
L 394.330418 228.65611 
L 394.607499 313.872397 
L 394.88458 310.168362 
L 395.161661 303.449701 
L 395.438741 286.803781 
L 395.715822 280.35446 
L 395.992903 310.298089 
L 396.269984 309.56173 
L 396.547065 303.403987 
L 396.824146 307.164856 
L 397.101226 331.868721 
L 397.378307 326.05939 
L 397.655388 315.497082 
L 397.932469 312.562765 
L 398.20955 297.375973 
L 398.763711 327.618593 
L 399.040792 319.191233 
L 399.317873 326.785865 
L 399.594954 329.820258 
L 399.872035 316.004873 
L 400.149116 311.303788 
L 400.426196 295.654918 
L 400.703277 316.471893 
L 400.980358 323.521668 
L 401.257439 314.938635 
L 401.53452 318.305378 
L 402.088681 310.492063 
L 402.365762 313.320127 
L 402.642843 305.162107 
L 402.919924 237.581377 
L 403.197005 316.071591 
L 403.474085 321.710422 
L 403.751166 323.238738 
L 404.028247 326.093984 
L 404.305328 323.573559 
L 404.582409 312.164933 
L 404.85949 287.632803 
L 405.13657 324.812768 
L 405.413651 319.770684 
L 405.690732 324.091235 
L 405.967813 322.451723 
L 406.244894 329.794313 
L 406.521975 307.009183 
L 407.076136 323.128779 
L 407.353217 321.502858 
L 407.630298 308.180439 
L 407.907379 307.037599 
L 408.46154 270.177629 
L 408.738621 303.468234 
L 409.015702 287.769944 
L 409.292783 294.015407 
L 409.569864 296.685327 
L 409.846944 300.768661 
L 410.124025 290.150756 
L 410.401106 237.142774 
L 410.678187 43.742216 
L 410.955268 307.959284 
L 411.232349 250.103191 
L 411.509429 340.87306 
L 411.78651 301.591506 
L 412.340672 277.195281 
L 412.617753 307.562688 
L 412.894834 307.85056 
L 413.171914 262.670718 
L 413.448995 260.749513 
L 413.726076 272.994574 
L 414.003157 299.892691 
L 414.280238 302.069645 
L 414.557319 301.745944 
L 414.834399 269.711845 
L 415.11148 294.095715 
L 415.388561 292.852799 
L 415.665642 271.376066 
L 415.942723 258.864136 
L 416.219803 298.768384 
L 416.496884 277.1681 
L 416.773965 277.826623 
L 417.051046 305.624185 
L 417.328127 302.06841 
L 417.605208 325.81476 
L 417.882288 326.951422 
L 418.159369 287.522843 
L 418.713531 317.16501 
L 418.990612 314.934929 
L 419.267693 318.288081 
L 419.544773 318.693326 
L 419.821854 268.250246 
L 420.098935 341.839223 
L 420.376016 335.097088 
L 420.653097 311.044333 
L 420.930178 362.038447 
L 421.207258 359.005289 
L 421.484339 335.464032 
L 421.76142 328.059668 
L 422.038501 335.942171 
L 422.315582 323.682284 
L 422.869743 336.984935 
L 423.423905 317.49736 
L 423.700986 290.025971 
L 423.978067 282.69203 
L 424.255147 286.168733 
L 424.532228 267.641143 
L 424.809309 256.913279 
L 425.08639 282.411571 
L 425.363471 292.824383 
L 425.640552 280.083885 
L 425.917632 280.150602 
L 426.194713 254.355789 
L 426.471794 261.447571 
L 426.748875 251.67475 
L 427.303037 279.710764 
L 427.580117 239.041741 
L 427.857198 307.940751 
L 428.134279 298.520048 
L 428.41136 293.449547 
L 428.688441 316.933971 
L 428.965522 290.404034 
L 429.519683 316.542317 
L 429.796764 313.565992 
L 430.073845 298.992009 
L 430.350926 299.609761 
L 430.628006 315.432836 
L 430.905087 290.915532 
L 431.182168 305.189288 
L 431.459249 297.38215 
L 431.73633 275.390213 
L 432.013411 285.9031 
L 432.290491 318.905832 
L 432.844653 274.37463 
L 433.398815 300.278167 
L 433.675896 283.125691 
L 433.952976 282.008797 
L 434.230057 289.033862 
L 434.507138 301.262862 
L 434.784219 296.837294 
L 435.0613 311.749804 
L 435.338381 319.897941 
L 435.615461 318.417809 
L 435.892542 320.256236 
L 436.169623 320.095621 
L 436.446704 234.797791 
L 436.723785 276.659073 
L 437.000865 285.276701 
L 437.277946 325.004271 
L 437.555027 322.116902 
L 437.832108 306.508804 
L 438.109189 302.922142 
L 438.38627 343.729541 
L 438.66335 322.450488 
L 438.940431 325.132763 
L 439.217512 317.325625 
L 439.494593 326.181704 
L 439.771674 327.256591 
L 440.048755 334.552231 
L 440.879997 316.100007 
L 441.157078 308.462133 
L 441.434159 309.845895 
L 441.71124 317.455353 
L 442.265401 309.05641 
L 442.542482 322.008178 
L 442.819563 313.295417 
L 443.096644 340.375153 
L 443.373724 334.080269 
L 443.650805 334.158106 
L 443.927886 331.616678 
L 444.204967 320.551521 
L 444.482048 337.503846 
L 444.759129 251.700695 
L 445.036209 341.257301 
L 445.590371 371.27506 
L 446.144533 321.827795 
L 446.421614 341.989954 
L 446.698694 346.048578 
L 446.975775 306.17769 
L 447.252856 304.733388 
L 447.529937 298.675721 
L 447.807018 281.760462 
L 448.084099 276.109275 
L 448.361179 312.717202 
L 448.63826 333.322907 
L 448.915341 335.565343 
L 449.469503 320.460094 
L 449.746583 333.656492 
L 450.023664 333.248776 
L 450.300745 346.216607 
L 450.854907 341.566177 
L 451.131988 341.105334 
L 451.409068 341.320312 
L 451.686149 342.28771 
L 452.240311 336.50556 
L 452.517392 336.6044 
L 452.794473 296.154061 
L 453.071553 338.623211 
L 453.348634 335.375076 
L 453.625715 334.571999 
L 453.902796 350.611288 
L 454.734038 338.245147 
L 455.2882 345.660631 
L 455.565281 344.683348 
L 455.842362 346.943082 
L 456.119443 345.931206 
L 456.396523 343.425607 
L 456.673604 343.580045 
L 456.950685 349.187989 
L 457.227766 348.51464 
L 457.504847 347.104933 
L 457.781927 349.010077 
L 458.059008 345.782945 
L 458.336089 353.756876 
L 458.890251 225.188056 
L 459.167332 224.141585 
L 459.444412 258.869078 
L 459.721493 322.144083 
L 459.998574 319.057799 
L 460.275655 309.600031 
L 460.552736 322.326938 
L 460.829817 322.696353 
L 461.383978 328.120207 
L 461.661059 287.830483 
L 461.93814 324.826359 
L 462.215221 323.241209 
L 462.492302 323.798421 
L 462.769382 314.721187 
L 463.323544 326.670963 
L 463.600625 316.679458 
L 463.877706 320.107976 
L 464.154786 314.299881 
L 464.431867 322.619752 
L 464.986029 315.293224 
L 465.26311 319.87076 
L 465.540191 321.569575 
L 465.817271 325.855532 
L 466.094352 321.611582 
L 466.371433 327.734731 
L 466.925595 323.957801 
L 467.202676 328.697187 
L 467.479756 308.56468 
L 467.756837 305.517932 
L 468.033918 311.309965 
L 468.310999 288.285148 
L 468.865161 322.669172 
L 469.142241 326.952658 
L 469.419322 315.205504 
L 469.696403 324.428527 
L 469.973484 285.410135 
L 470.527645 319.199882 
L 470.804726 329.338412 
L 471.081807 343.718421 
L 471.358888 332.39628 
L 471.635969 337.20609 
L 471.91305 312.214353 
L 472.19013 299.779024 
L 472.467211 300.621637 
L 472.744292 282.758747 
L 473.021373 298.628772 
L 473.298454 305.963948 
L 473.852615 290.139637 
L 474.129696 302.705929 
L 474.406777 290.274307 
L 474.683858 294.067298 
L 474.960939 265.119484 
L 475.23802 282.909479 
L 475.5151 270.376545 
L 475.792181 209.201894 
L 476.069262 265.493841 
L 476.346343 265.65075 
L 476.623424 262.076442 
L 476.900504 261.385796 
L 477.177585 232.935889 
L 477.454666 257.523617 
L 477.731747 229.979333 
L 478.008828 266.781234 
L 478.562989 297.224006 
L 478.84007 292.031191 
L 479.117151 255.199637 
L 479.671313 233.94653 
L 479.948394 236.550968 
L 480.225474 194.508067 
L 480.502555 229.217028 
L 480.779636 233.49063 
L 481.056717 233.12245 
L 481.333798 242.294818 
L 481.610879 240.955533 
L 481.887959 243.572327 
L 482.16504 251.714286 
L 482.442121 253.337736 
L 482.719202 249.759721 
L 482.996283 271.724478 
L 483.273364 263.335419 
L 483.550444 249.537331 
L 483.827525 270.538396 
L 484.104606 235.672526 
L 484.658768 238.090404 
L 484.935848 220.258402 
L 485.212929 234.870686 
L 485.49001 240.526814 
L 486.044172 224.035332 
L 486.321253 232.461456 
L 486.598333 190.524808 
L 486.875414 226.324717 
L 487.152495 220.015008 
L 487.429576 264.541269 
L 487.706657 275.190061 
L 487.983738 270.133151 
L 488.537899 285.717775 
L 488.81498 284.886282 
L 489.092061 256.493208 
L 489.369142 254.920414 
L 489.646223 252.41358 
L 489.923303 191.138853 
L 490.200384 248.744139 
L 490.477465 269.975007 
L 490.754546 253.057277 
L 491.308707 244.596558 
L 491.585788 236.505255 
L 491.862869 220.220102 
L 492.13995 193.077356 
L 492.417031 200.180257 
L 492.694112 223.479356 
L 492.971192 269.411618 
L 493.248273 246.757451 
L 493.525354 63.701752 
L 493.802435 237.627091 
L 494.079516 217.22648 
L 494.356597 226.348192 
L 494.633677 207.226326 
L 495.187839 306.246878 
L 495.46492 316.872196 
L 495.742001 309.80883 
L 496.296162 283.152872 
L 496.573243 267.501532 
L 496.850324 235.483495 
L 497.127405 232.968012 
L 497.404486 244.317335 
L 497.681566 216.542012 
L 497.958647 225.406739 
L 498.235728 221.80278 
L 498.512809 188.33797 
L 499.066971 299.351541 
L 499.621132 268.005617 
L 499.898213 269.634008 
L 500.452375 267.605314 
L 501.006536 225.556235 
L 501.283617 266.755288 
L 501.560698 246.467108 
L 501.837779 203.471635 
L 502.11486 261.438923 
L 502.391941 240.404499 
L 502.669021 252.24061 
L 502.946102 201.41823 
L 503.777345 307.342768 
L 504.054425 292.206632 
L 504.331506 264.182973 
L 504.608587 259.380576 
L 504.885668 244.486598 
L 505.162749 260.886653 
L 505.43983 283.970775 
L 505.71691 273.245381 
L 505.993991 273.730933 
L 506.271072 241.448499 
L 506.548153 194.337568 
L 506.825234 207.086714 
L 507.102315 228.686997 
L 507.379395 229.091007 
L 507.656476 222.765236 
L 507.933557 200.917852 
L 508.210638 214.325521 
L 508.487719 204.424207 
L 508.7648 203.093571 
L 509.04188 186.331514 
L 509.318961 184.601811 
L 509.596042 152.639372 
L 509.873123 221.303637 
L 510.150204 225.472221 
L 510.427285 177.718829 
L 510.704365 192.165555 
L 510.981446 182.854811 
L 511.258527 244.818949 
L 511.535608 216.771815 
L 511.812689 64.816175 
L 512.089769 43.742216 
L 512.36685 128.867076 
L 512.921012 178.20191 
L 513.752254 146.875754 
L 514.029335 152.349029 
L 514.306416 160.415622 
L 514.583497 155.300643 
L 514.860578 161.767261 
L 515.137659 154.113326 
L 515.69182 131.365261 
L 515.968901 108.716036 
L 516.245982 165.408286 
L 516.523063 177.932571 
L 517.077224 240.62689 
L 517.354305 203.54453 
L 517.631386 214.45772 
L 517.908467 311.048039 
L 518.185548 330.187202 
L 518.462628 327.277595 
L 519.01679 225.920708 
L 519.570952 193.585147 
L 519.848033 141.46302 
L 520.125113 181.002794 
L 520.402194 246.771042 
L 520.679275 280.466891 
L 520.956356 281.226725 
L 521.233437 269.715552 
L 521.510518 317.312035 
L 522.064679 234.345597 
L 522.618841 211.103331 
L 522.895922 218.560822 
L 523.173003 205.240874 
L 523.450083 176.598229 
L 524.004245 271.772663 
L 524.281326 251.794593 
L 524.558407 216.061401 
L 524.835487 196.874054 
L 525.112568 229.705051 
L 525.389649 235.293227 
L 525.66673 205.820324 
L 525.943811 205.004893 
L 526.497972 177.363004 
L 527.052134 182.990717 
L 527.329215 170.860557 
L 527.606296 179.820418 
L 527.883377 183.058669 
L 528.160457 139.632006 
L 528.437538 181.627958 
L 528.714619 267.874653 
L 528.9917 215.570907 
L 529.545862 174.70791 
L 529.822942 185.057712 
L 530.100023 152.219301 
L 530.377104 148.050717 
L 530.654185 299.357718 
L 530.931266 274.59702 
L 531.485427 202.837822 
L 531.762508 202.753808 
L 532.039589 219.825976 
L 532.31667 279.545206 
L 532.593751 306.64471 
L 532.870831 320.350134 
L 533.147912 318.069398 
L 533.424993 286.508496 
L 533.702074 239.350616 
L 533.979155 215.381875 
L 534.256236 205.815382 
L 534.810397 299.292236 
L 535.364559 228.528853 
L 535.64164 227.750487 
L 535.918721 217.972723 
L 536.195801 203.642134 
L 536.472882 270.931286 
L 536.749963 252.579137 
L 537.027044 213.328471 
L 537.304125 274.690918 
L 537.581205 271.892506 
L 537.858286 323.741588 
L 538.135367 308.871084 
L 538.412448 323.762591 
L 538.689529 296.070047 
L 538.96661 281.051283 
L 539.24369 291.78409 
L 540.074933 343.694947 
L 540.629095 260.886653 
L 541.183256 240.846809 
L 541.460337 232.290957 
L 541.737418 241.013602 
L 542.014499 278.266462 
L 542.29158 252.664387 
L 542.56866 245.143886 
L 542.845741 229.188611 
L 543.122822 257.349411 
L 543.399903 298.718963 
L 543.676984 278.565453 
L 543.954065 247.97195 
L 544.231145 261.698378 
L 544.508226 265.075006 
L 544.785307 271.355063 
L 545.339469 229.744587 
L 545.616549 204.15981 
L 545.89363 234.126913 
L 546.170711 277.667243 
L 546.447792 278.952165 
L 546.724873 288.170246 
L 547.001954 293.644756 
L 547.279034 225.561177 
L 547.833196 261.950421 
L 548.110277 255.955765 
L 548.387358 205.936462 
L 548.664439 261.050975 
L 548.941519 230.985031 
L 549.772762 276.156224 
L 550.049843 276.227883 
L 550.326924 297.042387 
L 550.604004 287.569792 
L 550.881085 326.19653 
L 551.435247 316.849957 
L 551.989408 298.791858 
L 552.54357 293.795488 
L 552.820651 302.84307 
L 553.097732 316.056765 
L 553.374813 255.466506 
L 553.651893 293.292638 
L 553.928974 280.348283 
L 554.206055 276.234061 
L 554.483136 278.469084 
L 554.760217 278.920042 
L 555.037298 276.980304 
L 555.314378 292.883687 
L 555.591459 285.405193 
L 555.86854 286.760539 
L 556.145621 297.259836 
L 556.422702 292.540217 
L 556.699783 296.418459 
L 557.253944 280.338399 
L 557.531025 287.167019 
L 557.808106 282.212655 
L 558.085187 285.045662 
L 558.362267 284.945586 
L 558.639348 261.50564 
L 558.916429 277.638827 
L 559.19351 274.703274 
L 559.470591 268.176116 
L 559.747672 271.057307 
L 560.024752 266.723165 
L 560.301833 287.578441 
L 560.578914 279.856553 
L 560.855995 279.116487 
L 561.133076 282.485701 
L 561.410157 275.117167 
L 561.687237 275.721327 
L 561.964318 307.105552 
L 562.241399 256.297999 
L 562.51848 300.018712 
L 562.795561 290.541175 
L 563.349722 215.358401 
L 563.626803 262.092503 
L 563.903884 268.569006 
L 564.458046 253.598427 
L 564.735126 261.369735 
L 565.012207 259.338569 
L 565.289288 255.834685 
L 565.566369 247.04903 
L 565.84345 251.958915 
L 566.120531 245.538011 
L 566.397611 229.483896 
L 566.951773 236.804246 
L 567.228854 231.471819 
L 567.505935 208.638505 
L 567.783016 243.667461 
L 568.060096 243.448777 
L 568.337177 231.091285 
L 568.614258 238.508004 
L 568.891339 260.478938 
L 569.16842 255.018018 
L 569.445501 276.843163 
L 569.722581 258.105538 
L 569.999662 226.458152 
L 570.276743 157.16378 
L 570.553824 190.419791 
L 570.830905 171.785948 
L 571.107986 193.434416 
L 571.385066 198.90769 
L 571.662147 226.308656 
L 571.939228 224.67038 
L 572.216309 210.135933 
L 572.49339 222.532961 
L 572.77047 225.863875 
L 573.324632 215.675925 
L 573.878794 215.139717 
L 574.432955 240.764031 
L 574.710036 237.813652 
L 574.987117 247.710023 
L 575.264198 268.130402 
L 575.541279 266.804709 
L 575.81836 259.170541 
L 576.09544 255.670364 
L 576.372521 268.179822 
L 576.649602 240.078327 
L 576.926683 283.988072 
L 577.480845 243.537733 
L 577.757925 236.9488 
L 578.035006 236.744942 
L 578.312087 179.063055 
L 578.589168 194.842888 
L 578.866249 182.078916 
L 579.143329 299.767905 
L 579.42041 266.798531 
L 579.697491 219.951998 
L 579.974572 220.073077 
L 580.251653 217.126404 
L 580.528734 221.272749 
L 580.805814 228.035888 
L 581.082895 225.756386 
L 581.359976 200.810363 
L 581.637057 214.460191 
L 581.914138 211.231824 
L 582.191219 204.237646 
L 582.468299 186.472361 
L 582.74538 202.346093 
L 583.022461 196.473751 
L 583.299542 203.675493 
L 583.576623 186.442709 
L 583.853704 179.920494 
L 584.130784 192.321228 
L 584.407865 197.218759 
L 584.684946 212.141153 
L 584.962027 248.354956 
L 585.793269 169.177803 
L 586.07035 151.697919 
L 586.347431 154.199811 
L 586.624512 143.412642 
L 587.178673 180.107055 
L 587.455754 131.183642 
L 587.732835 186.081943 
L 588.009916 199.736712 
L 588.286997 207.139841 
L 588.841158 179.607912 
L 589.118239 202.191655 
L 589.39532 196.660312 
L 589.672401 198.873096 
L 589.949482 202.890949 
L 590.226563 190.104738 
L 590.780724 217.695971 
L 591.057805 170.949513 
L 591.334886 177.429722 
L 591.611967 163.688467 
L 591.889047 198.2294 
L 592.166128 190.998006 
L 592.443209 196.940771 
L 592.72029 188.669084 
L 592.997371 192.848788 
L 593.274452 191.056074 
L 593.551532 161.3336 
L 593.828613 207.176906 
L 594.105694 188.046391 
L 594.382775 207.972569 
L 594.659856 191.888803 
L 594.936937 256.736602 
L 595.214017 153.648777 
L 595.491098 176.703246 
L 595.768179 176.362248 
L 596.322341 189.773623 
L 596.599422 201.118003 
L 596.876502 171.12619 
L 597.153583 200.848664 
L 597.430664 186.546492 
L 597.984826 173.321677 
L 598.261907 154.524748 
L 598.538987 216.196071 
L 598.816068 202.949018 
L 599.093149 237.653036 
L 599.37023 246.380623 
L 599.647311 203.22577 
L 599.924391 231.725097 
L 600.201472 221.564328 
L 600.478553 217.258603 
L 600.755634 218.622597 
L 601.032715 215.962561 
L 601.586876 234.876863 
L 602.141038 218.424917 
L 602.418119 217.005325 
L 602.6952 209.897481 
L 602.972281 198.336888 
L 603.249361 200.606506 
L 603.526442 211.157694 
L 603.803523 165.588669 
L 604.080604 209.065989 
L 604.357685 200.65469 
L 604.911846 209.3761 
L 605.188927 216.693979 
L 605.466008 235.925804 
L 605.743089 245.121647 
L 606.02017 240.426739 
L 606.29725 250.933448 
L 606.574331 245.318091 
L 606.851412 245.88148 
L 607.128493 233.565995 
L 607.682655 185.296163 
L 607.959735 184.588221 
L 608.236816 190.931289 
L 608.513897 213.103609 
L 608.790978 213.118435 
L 609.34514 246.178001 
L 609.62222 241.890809 
L 610.453463 208.272796 
L 610.730544 151.751046 
L 611.007625 168.915877 
L 611.284705 167.733501 
L 611.561786 168.410556 
L 611.838867 43.742216 
L 612.115948 155.299408 
L 612.393029 129.079582 
L 612.670109 127.91821 
L 612.94719 157.743231 
L 613.224271 155.689826 
L 613.501352 156.365646 
L 613.778433 145.831755 
L 614.055514 160.38597 
L 614.332594 164.622507 
L 614.609675 158.803292 
L 614.886756 99.640038 
L 615.163837 161.364488 
L 615.440918 149.323284 
L 615.717999 156.746181 
L 615.995079 172.191193 
L 616.27216 172.010809 
L 616.549241 155.440255 
L 616.826322 177.239454 
L 617.103403 173.658969 
L 617.380484 161.995829 
L 617.657564 189.542584 
L 617.934645 169.450849 
L 618.211726 173.258666 
L 618.488807 155.004123 
L 618.765888 180.554306 
L 619.042968 152.866704 
L 619.320049 206.739538 
L 619.59713 158.409167 
L 619.874211 195.135702 
L 620.151292 190.340719 
L 620.428373 207.620451 
L 620.705453 176.998531 
L 620.982534 169.87092 
L 621.259615 186.485952 
L 621.813777 178.586152 
L 622.090858 178.586152 
L 622.367938 240.95924 
L 622.645019 276.242709 
L 622.9221 232.557826 
L 623.199181 213.359358 
L 623.476262 253.116581 
L 623.753343 239.531 
L 624.030423 250.171144 
L 624.307504 220.405427 
L 624.584585 206.449195 
L 624.861666 229.782888 
L 625.138747 284.194401 
L 625.415828 286.891502 
L 625.692908 233.222526 
L 625.969989 223.499124 
L 627.078312 162.776667 
L 627.355393 284.015253 
L 627.632474 304.748214 
L 627.909555 259.458413 
L 628.186636 309.503661 
L 628.463717 296.770577 
L 628.740797 268.293489 
L 629.017878 259.36575 
L 629.57204 167.976895 
L 629.849121 263.352716 
L 630.126202 246.328732 
L 630.403282 240.473688 
L 630.680363 193.913791 
L 630.957444 315.897385 
L 631.511606 269.771149 
L 631.788687 229.401118 
L 632.065767 224.813698 
L 632.342848 260.576542 
L 632.619929 244.045524 
L 632.89701 213.641053 
L 633.174091 212.542691 
L 633.451171 192.92786 
L 633.728252 285.301411 
L 634.005333 267.765929 
L 634.282414 225.251066 
L 635.390737 160.191996 
L 635.667818 245.210603 
L 636.22198 161.191517 
L 636.499061 176.802086 
L 636.776141 162.002007 
L 637.053222 181.746566 
L 637.330303 180.461644 
L 637.607384 261.269659 
L 637.884465 230.897311 
L 638.161546 239.598952 
L 638.438626 201.043873 
L 638.715707 197.537518 
L 638.992788 198.411018 
L 639.269869 214.94945 
L 639.54695 195.492762 
L 639.82403 184.332472 
L 640.101111 223.479356 
L 640.378192 204.037495 
L 640.655273 203.254187 
L 640.932354 219.331776 
L 641.209435 194.531542 
L 641.486515 249.948753 
L 641.763596 217.96531 
L 642.040677 229.113246 
L 642.594839 295.601792 
L 642.87192 307.960519 
L 643.703162 206.692589 
L 644.257324 280.988273 
L 644.534405 283.465454 
L 644.811485 266.915904 
L 645.365647 191.377305 
L 645.642728 241.946406 
L 645.919809 250.360175 
L 646.196889 245.428051 
L 646.47397 187.002392 
L 646.751051 228.017355 
L 647.028132 198.954639 
L 647.305213 216.255375 
L 647.582294 223.94514 
L 647.859374 195.972137 
L 648.136455 215.436237 
L 648.413536 43.742216 
L 648.690617 43.742216 
L 648.967698 221.093602 
L 649.244779 120.225974 
L 649.521859 60.26335 
L 649.79894 230.719398 
L 650.630183 147.814736 
L 651.184344 191.211748 
L 651.461425 196.707261 
L 651.738506 248.492096 
L 652.015587 233.565995 
L 652.292668 240.499633 
L 652.569749 253.631785 
L 652.846829 245.437935 
L 653.12391 206.383713 
L 653.678072 182.537287 
L 653.955153 181.526647 
L 654.232233 231.118466 
L 654.509314 169.989528 
L 654.786395 191.15615 
L 655.063476 195.124583 
L 655.340557 169.151857 
L 655.617638 185.301105 
L 655.894718 171.122483 
L 656.171799 196.112984 
L 656.44888 198.446848 
L 656.725961 165.744343 
L 657.003042 169.882039 
L 657.280123 167.201 
L 657.557203 161.165572 
L 657.834284 191.553982 
L 658.111365 199.656404 
L 658.665527 173.938193 
L 658.942608 210.296549 
L 659.219688 170.329291 
L 659.496769 226.691662 
L 659.77385 225.258479 
L 660.050931 241.836446 
L 660.328012 313.656184 
L 660.882173 256.786022 
L 661.159254 245.940784 
L 661.436335 222.434121 
L 661.990497 211.24665 
L 662.267577 203.071332 
L 662.544658 201.28109 
L 662.821739 192.720296 
L 663.09882 152.888943 
L 663.375901 210.147053 
L 663.652982 206.751893 
L 663.930062 191.048661 
L 664.207143 188.896417 
L 664.484224 169.681888 
L 664.761305 191.705948 
L 665.038386 187.448408 
L 665.315467 190.412378 
L 665.592547 197.759909 
L 666.42379 206.606104 
L 666.700871 215.774765 
L 666.977951 207.163315 
L 667.255032 195.085047 
L 667.532113 201.010515 
L 667.809194 185.130606 
L 668.086275 178.080831 
L 668.363356 174.715323 
L 668.640436 178.537967 
L 668.917517 163.312874 
L 669.194598 164.690459 
L 669.471679 203.43457 
L 669.74876 198.696419 
L 670.025841 166.753748 
L 670.302921 177.550801 
L 670.580002 183.329244 
L 670.857083 145.729208 
L 671.134164 146.978301 
L 671.411245 189.525287 
L 671.688326 157.980447 
L 671.965406 180.743338 
L 672.242487 134.864203 
L 672.519568 121.449121 
L 672.796649 169.015952 
L 673.07373 197.301537 
L 673.627891 89.959879 
L 673.904972 152.151348 
L 674.182053 156.363175 
L 674.459134 150.833068 
L 674.736215 154.229463 
L 675.013295 153.57094 
L 675.013295 153.57094 
" clip-path="url(#pb984783be3)" style="fill: none; stroke: #2878b5; stroke-width: 1.5; stroke-linecap: square"/>
   </g>
   <g id="patch_3">
    <path d="M 37.575 392.44125 
L 37.575 27.1375 
" style="fill: none; stroke: #000000; stroke-width: 0.8; stroke-linejoin: miter; stroke-linecap: square"/>
   </g>
   <g id="patch_4">
    <path d="M 705.3675 392.44125 
L 705.3675 27.1375 
" style="fill: none; stroke: #000000; stroke-width: 0.8; stroke-linejoin: miter; stroke-linecap: square"/>
   </g>
   <g id="patch_5">
    <path d="M 37.575 392.44125 
L 705.3675 392.44125 
" style="fill: none; stroke: #000000; stroke-width: 0.8; stroke-linejoin: miter; stroke-linecap: square"/>
   </g>
   <g id="patch_6">
    <path d="M 37.575 27.1375 
L 705.3675 27.1375 
" style="fill: none; stroke: #000000; stroke-width: 0.8; stroke-linejoin: miter; stroke-linecap: square"/>
   </g>
   <g id="text_14">
    <!-- 原始 COD_mg/L 时间序列数据 -->
    <g transform="translate(293.47125 17.1375) scale(0.12 -0.12)">
     <defs>
      <path id="SimHei-539f" d="M 3850 4275 
Q 3675 4025 3600 3700 
L 5450 3700 
Q 5425 3475 5425 3000 
L 5425 2225 
Q 5425 1825 5450 1475 
L 4050 1475 
L 4050 -50 
Q 4050 -400 3825 -487 
Q 3600 -575 3100 -625 
Q 3050 -325 2925 -50 
Q 3400 -75 3475 -37 
Q 3550 0 3550 175 
L 3550 1475 
L 2125 1475 
Q 2150 1775 2150 2200 
L 2150 3025 
Q 2150 3425 2125 3700 
L 3150 3700 
Q 3300 4250 3300 4425 
L 3850 4275 
z
M 275 -325 
Q 725 275 875 1037 
Q 1025 1800 1025 2300 
L 1025 4125 
Q 1025 4650 1000 4900 
L 5025 4900 
Q 5575 4900 5800 4925 
L 5800 4475 
Q 5600 4500 5025 4500 
L 1525 4500 
L 1525 2375 
Q 1500 1650 1412 1112 
Q 1325 575 1137 125 
Q 950 -325 800 -575 
Q 550 -400 275 -325 
z
M 4925 2775 
L 4925 3325 
L 2625 3325 
L 2625 2775 
L 4925 2775 
z
M 4925 1875 
L 4925 2400 
L 2625 2400 
L 2625 1875 
L 4925 1875 
z
M 1475 -50 
Q 1800 150 2087 450 
Q 2375 750 2575 1100 
Q 2800 875 2975 750 
Q 2300 -50 1825 -400 
Q 1675 -225 1475 -50 
z
M 4825 1075 
Q 5700 300 5925 25 
Q 5750 -125 5575 -325 
Q 5250 75 4500 725 
Q 4675 925 4825 1075 
z
" transform="scale(0.015625)"/>
      <path id="SimHei-59cb" d="M 1750 5075 
Q 1650 4900 1587 4587 
Q 1525 4275 1475 3875 
L 2550 3875 
Q 2400 2150 1950 1100 
Q 2275 850 2725 425 
Q 2550 275 2375 50 
Q 2000 500 1750 675 
Q 1525 275 1250 -62 
Q 975 -400 700 -675 
Q 600 -525 250 -350 
Q 575 -125 862 200 
Q 1150 525 1375 975 
Q 800 1400 500 1550 
Q 875 2925 950 3425 
Q 650 3425 325 3400 
L 325 3900 
Q 675 3875 1025 3875 
Q 1175 4825 1175 5225 
Q 1550 5125 1750 5075 
z
M 5725 2050 
Q 5700 1650 5700 650 
Q 5700 -325 5725 -650 
L 5200 -650 
L 5200 -100 
L 3450 -100 
L 3450 -675 
L 2950 -675 
Q 2975 -300 2975 675 
Q 2975 1650 2950 2050 
L 5725 2050 
z
M 4400 4950 
Q 3750 3875 3250 3150 
Q 3875 3150 4250 3175 
Q 4625 3200 5200 3225 
Q 4875 3675 4625 3900 
Q 4825 4000 5025 4225 
Q 5750 3300 6125 2850 
Q 6000 2775 5725 2550 
Q 5575 2775 5450 2875 
Q 4575 2825 3937 2762 
Q 3300 2700 2825 2575 
Q 2775 2800 2600 3100 
Q 2875 3225 3237 3850 
Q 3600 4475 3825 5200 
Q 4025 5050 4400 4950 
z
M 5200 325 
L 5200 1600 
L 3450 1600 
L 3450 325 
L 5200 325 
z
M 1025 1775 
Q 1300 1550 1575 1400 
Q 1725 1725 1875 2337 
Q 2025 2950 2050 3425 
L 1400 3425 
Q 1300 2950 1025 1775 
z
" transform="scale(0.015625)"/>
      <path id="SimHei-5217" d="M 2950 4800 
Q 3525 4800 3825 4825 
L 3825 4400 
Q 3525 4425 2800 4425 
L 2125 4425 
Q 2075 4125 1925 3500 
L 3425 3500 
Q 3300 2500 3100 1862 
Q 2900 1225 2575 762 
Q 2250 300 1850 -12 
Q 1450 -325 925 -675 
Q 725 -375 475 -150 
Q 1125 125 1550 437 
Q 1975 750 2250 1225 
Q 2100 1350 1862 1550 
Q 1625 1750 1400 1925 
L 1750 2325 
Q 1925 2200 2100 2037 
Q 2275 1875 2500 1650 
Q 2650 2025 2737 2337 
Q 2825 2650 2875 3100 
L 1775 3100 
Q 1600 2650 1350 2237 
Q 1100 1825 775 1525 
Q 600 1675 325 1850 
Q 600 2125 825 2462 
Q 1050 2800 1200 3125 
Q 1350 3450 1425 3775 
Q 1500 4100 1550 4425 
L 1100 4425 
Q 575 4425 375 4400 
L 375 4825 
Q 575 4800 1125 4800 
L 2950 4800 
z
M 5975 5050 
Q 5925 4675 5925 4250 
L 5925 50 
Q 5925 -275 5737 -400 
Q 5550 -525 4900 -625 
Q 4825 -250 4650 25 
Q 5150 0 5287 25 
Q 5425 50 5425 325 
L 5425 4250 
Q 5425 4650 5400 5050 
L 5975 5050 
z
M 4725 4300 
Q 4675 4000 4675 3450 
L 4675 1650 
Q 4675 1200 4700 850 
L 4100 850 
Q 4150 1200 4150 1650 
L 4150 3550 
Q 4150 3975 4100 4300 
L 4725 4300 
z
" transform="scale(0.015625)"/>
      <path id="SimHei-6570" d="M 4525 4925 
Q 4475 4800 4400 4587 
Q 4325 4375 4175 3825 
L 5325 3825 
Q 5575 3825 5925 3850 
L 5925 3400 
Q 5650 3425 5500 3425 
Q 5500 3025 5362 2162 
Q 5225 1300 4875 675 
Q 5125 375 5437 137 
Q 5750 -100 6025 -200 
Q 5725 -425 5625 -625 
Q 5325 -450 5075 -225 
Q 4825 0 4575 325 
Q 4300 25 3987 -187 
Q 3675 -400 3200 -650 
Q 3075 -425 2850 -300 
Q 3225 -150 3650 125 
Q 4075 400 4300 675 
Q 4125 1025 3962 1425 
Q 3800 1825 3675 2475 
Q 3600 2275 3425 1950 
Q 3250 2050 3000 2150 
Q 3400 2850 3650 3675 
Q 3900 4500 3975 5100 
Q 4275 4975 4525 4925 
z
M 2100 2250 
Q 2000 2150 1875 1925 
L 3250 1925 
Q 3100 1300 2725 675 
Q 3125 525 3350 400 
Q 3225 225 3125 25 
Q 2900 175 2450 325 
Q 1950 -225 725 -650 
Q 600 -375 400 -275 
Q 1575 0 2000 475 
Q 1300 650 850 775 
Q 1000 1000 1250 1525 
Q 1000 1525 425 1500 
L 425 1950 
Q 900 1925 1400 1925 
Q 1500 2150 1550 2425 
Q 1825 2325 2100 2250 
z
M 1775 3950 
Q 1775 4550 1750 5100 
L 2250 5100 
Q 2225 4575 2225 3950 
Q 3075 3950 3425 3975 
L 3425 3525 
Q 3075 3550 2225 3550 
Q 2225 2825 2250 2425 
L 1750 2425 
Q 1775 2775 1775 3300 
Q 1650 3100 1300 2787 
Q 950 2475 650 2300 
Q 525 2525 275 2625 
Q 500 2700 875 2975 
Q 1250 3250 1450 3550 
Q 950 3550 500 3525 
L 500 3975 
Q 925 3950 1775 3950 
z
M 3975 3175 
Q 4200 1700 4600 1125 
Q 4850 1700 4937 2287 
Q 5025 2875 5050 3425 
L 4075 3425 
L 3975 3175 
z
M 1450 1000 
Q 1750 925 2275 800 
Q 2475 1050 2650 1525 
L 1725 1525 
Q 1600 1275 1450 1000 
z
M 3325 4825 
Q 3200 4625 3125 4450 
Q 3050 4275 2925 4025 
Q 2725 4125 2525 4175 
Q 2725 4500 2900 5000 
Q 3150 4875 3325 4825 
z
M 2575 3375 
Q 2900 3050 3200 2725 
Q 3050 2600 2875 2425 
Q 2525 2850 2300 3100 
Q 2450 3225 2575 3375 
z
M 925 5000 
Q 1275 4650 1500 4300 
L 1125 4075 
Q 950 4425 600 4725 
Q 825 4875 925 5000 
z
" transform="scale(0.015625)"/>
      <path id="SimHei-636e" d="M 5750 4775 
Q 5725 4550 5725 4225 
L 5725 3900 
Q 5725 3450 5750 3250 
L 3100 3250 
L 3100 2500 
L 4250 2500 
Q 4250 2725 4225 3175 
L 4700 3175 
Q 4675 2775 4675 2500 
L 5350 2500 
Q 5800 2500 6100 2525 
L 6100 2075 
Q 5800 2100 5375 2100 
L 4675 2100 
L 4675 1425 
L 5775 1425 
Q 5750 950 5750 800 
L 5750 175 
Q 5750 -225 5775 -575 
L 5325 -575 
L 5325 -225 
L 3675 -225 
L 3675 -600 
L 3225 -600 
Q 3250 -325 3250 100 
L 3250 825 
Q 3250 1075 3225 1425 
L 4250 1425 
L 4250 2100 
L 3075 2100 
Q 3050 1375 2887 737 
Q 2725 100 2425 -475 
Q 2200 -325 1950 -250 
Q 2250 150 2387 600 
Q 2525 1050 2600 1562 
Q 2675 2075 2675 2625 
L 2675 3575 
Q 2675 3975 2650 4775 
L 5750 4775 
z
M 1275 4425 
Q 1275 4775 1250 5075 
L 1750 5075 
Q 1725 4800 1725 4425 
L 1725 3775 
Q 1975 3775 2500 3800 
L 2500 3375 
Q 1975 3400 1725 3400 
L 1725 2450 
Q 2050 2625 2400 2850 
Q 2425 2650 2525 2475 
Q 2050 2200 1725 2000 
L 1725 175 
Q 1725 -300 1487 -400 
Q 1250 -500 775 -575 
Q 725 -325 600 -50 
Q 1025 -50 1150 -12 
Q 1275 25 1275 325 
L 1275 1800 
Q 900 1600 525 1325 
Q 450 1525 275 1800 
Q 775 1975 1275 2250 
L 1275 3400 
Q 800 3400 350 3375 
L 350 3800 
Q 800 3775 1275 3775 
L 1275 4425 
z
M 5300 3625 
L 5300 4400 
L 3100 4400 
L 3100 3625 
L 5300 3625 
z
M 5325 150 
L 5325 1075 
L 3675 1075 
L 3675 150 
L 5325 150 
z
" transform="scale(0.015625)"/>
     </defs>
     <use xlink:href="#SimHei-539f"/>
     <use xlink:href="#SimHei-59cb" transform="translate(100 0)"/>
     <use xlink:href="#SimHei-20" transform="translate(200 0)"/>
     <use xlink:href="#SimHei-43" transform="translate(250 0)"/>
     <use xlink:href="#SimHei-4f" transform="translate(300 0)"/>
     <use xlink:href="#SimHei-44" transform="translate(350 0)"/>
     <use xlink:href="#SimHei-5f" transform="translate(400 0)"/>
     <use xlink:href="#SimHei-6d" transform="translate(450 0)"/>
     <use xlink:href="#SimHei-67" transform="translate(500 0)"/>
     <use xlink:href="#SimHei-2f" transform="translate(550 0)"/>
     <use xlink:href="#SimHei-4c" transform="translate(600 0)"/>
     <use xlink:href="#SimHei-20" transform="translate(650 0)"/>
     <use xlink:href="#SimHei-65f6" transform="translate(700 0)"/>
     <use xlink:href="#SimHei-95f4" transform="translate(800 0)"/>
     <use xlink:href="#SimHei-5e8f" transform="translate(900 0)"/>
     <use xlink:href="#SimHei-5217" transform="translate(1000 0)"/>
     <use xlink:href="#SimHei-6570" transform="translate(1100 0)"/>
     <use xlink:href="#SimHei-636e" transform="translate(1200 0)"/>
    </g>
   </g>
   <g id="legend_1">
    <g id="patch_7">
     <path d="M 43.875 387.94125 
L 144.675 387.94125 
Q 146.475 387.94125 146.475 386.14125 
L 146.475 373.998281 
Q 146.475 372.198281 144.675 372.198281 
L 43.875 372.198281 
Q 42.075 372.198281 42.075 373.998281 
L 42.075 386.14125 
Q 42.075 387.94125 43.875 387.94125 
z
" style="fill: #ffffff; opacity: 0.8; stroke: #cccccc; stroke-width: 0.5; stroke-linejoin: miter"/>
    </g>
    <g id="line2d_24">
     <path d="M 45.675 379.995937 
L 54.675 379.995937 
L 63.675 379.995937 
" style="fill: none; stroke: #2878b5; stroke-width: 1.5; stroke-linecap: square"/>
    </g>
    <g id="text_15">
     <!-- 原始 COD_mg/L 值 -->
     <g transform="translate(70.875 383.145937) scale(0.09 -0.09)">
      <use xlink:href="#SimHei-539f"/>
      <use xlink:href="#SimHei-59cb" transform="translate(100 0)"/>
      <use xlink:href="#SimHei-20" transform="translate(200 0)"/>
      <use xlink:href="#SimHei-43" transform="translate(250 0)"/>
      <use xlink:href="#SimHei-4f" transform="translate(300 0)"/>
      <use xlink:href="#SimHei-44" transform="translate(350 0)"/>
      <use xlink:href="#SimHei-5f" transform="translate(400 0)"/>
      <use xlink:href="#SimHei-6d" transform="translate(450 0)"/>
      <use xlink:href="#SimHei-67" transform="translate(500 0)"/>
      <use xlink:href="#SimHei-2f" transform="translate(550 0)"/>
      <use xlink:href="#SimHei-4c" transform="translate(600 0)"/>
      <use xlink:href="#SimHei-20" transform="translate(650 0)"/>
      <use xlink:href="#SimHei-503c" transform="translate(700 0)"/>
     </g>
    </g>
   </g>
  </g>
 </g>
 <defs>
  <clipPath id="pb984783be3">
   <rect x="37.575" y="27.1375" width="667.7925" height="365.30375"/>
  </clipPath>
 </defs>
</svg>
