<?xml version="1.0" encoding="utf-8" standalone="no"?>
<!DOCTYPE svg PUBLIC "-//W3C//DTD SVG 1.1//EN"
  "http://www.w3.org/Graphics/SVG/1.1/DTD/svg11.dtd">
<svg xmlns:xlink="http://www.w3.org/1999/xlink" width="712.488437pt" height="422.765937pt" viewBox="0 0 712.488437 422.765937" xmlns="http://www.w3.org/2000/svg" version="1.1">
 <metadata>
  <rdf:RDF xmlns:dc="http://purl.org/dc/elements/1.1/" xmlns:cc="http://creativecommons.org/ns#" xmlns:rdf="http://www.w3.org/1999/02/22-rdf-syntax-ns#">
   <cc:Work>
    <dc:type rdf:resource="http://purl.org/dc/dcmitype/StillImage"/>
    <dc:date>2026-01-16T01:28:16.220450</dc:date>
    <dc:format>image/svg+xml</dc:format>
    <dc:creator>
     <cc:Agent>
      <dc:title>Matplotlib v3.10.0, https://matplotlib.org/</dc:title>
     </cc:Agent>
    </dc:creator>
   </cc:Work>
  </rdf:RDF>
 </metadata>
 <defs>
  <style type="text/css">*{stroke-linejoin: round; stroke-linecap: butt}</style>
 </defs>
 <g id="figure_1">
  <g id="patch_1">
   <path d="M 0 422.765937 
L 712.488437 422.765937 
L 712.488437 0 
L 0 0 
z
" style="fill: #ffffff"/>
  </g>
  <g id="axes_1">
   <g id="patch_2">
    <path d="M 41.658438 389.6775 
L 705.288438 389.6775 
L 705.288438 26.10625 
L 41.658438 26.10625 
z
" style="fill: #ffffff"/>
   </g>
   <g id="matplotlib.axis_1">
    <g id="xtick_1">
     <g id="line2d_1">
      <path d="M 71.548084 389.6775 
L 71.548084 26.10625 
" clip-path="url(#pddbba0d0e3)" style="fill: none; stroke-dasharray: 1.85,0.8; stroke-dashoffset: 0; stroke: #b2b2b2; stroke-opacity: 0.3; stroke-width: 0.5"/>
     </g>
     <g id="line2d_2">
      <defs>
       <path id="m30d75e2862" d="M 0 0 
L 0 -3.5 
" style="stroke: #000000; stroke-width: 0.8"/>
      </defs>
      <g>
       <use xlink:href="#m30d75e2862" x="71.548084" y="389.6775" style="stroke: #000000; stroke-width: 0.8"/>
      </g>
     </g>
     <g id="text_1">
      <!-- 0 -->
      <g transform="translate(68.684959 400.016094) scale(0.09 -0.09)">
       <defs>
        <path id="DejaVuSans-30" d="M 2034 4250 
Q 1547 4250 1301 3770 
Q 1056 3291 1056 2328 
Q 1056 1369 1301 889 
Q 1547 409 2034 409 
Q 2525 409 2770 889 
Q 3016 1369 3016 2328 
Q 3016 3291 2770 3770 
Q 2525 4250 2034 4250 
z
M 2034 4750 
Q 2819 4750 3233 4129 
Q 3647 3509 3647 2328 
Q 3647 1150 3233 529 
Q 2819 -91 2034 -91 
Q 1250 -91 836 529 
Q 422 1150 422 2328 
Q 422 3509 836 4129 
Q 1250 4750 2034 4750 
z
" transform="scale(0.015625)"/>
       </defs>
       <use xlink:href="#DejaVuSans-30"/>
      </g>
     </g>
    </g>
    <g id="xtick_2">
     <g id="line2d_3">
      <path d="M 209.224944 389.6775 
L 209.224944 26.10625 
" clip-path="url(#pddbba0d0e3)" style="fill: none; stroke-dasharray: 1.85,0.8; stroke-dashoffset: 0; stroke: #b2b2b2; stroke-opacity: 0.3; stroke-width: 0.5"/>
     </g>
     <g id="line2d_4">
      <g>
       <use xlink:href="#m30d75e2862" x="209.224944" y="389.6775" style="stroke: #000000; stroke-width: 0.8"/>
      </g>
     </g>
     <g id="text_2">
      <!-- 500 -->
      <g transform="translate(200.635569 400.016094) scale(0.09 -0.09)">
       <defs>
        <path id="DejaVuSans-35" d="M 691 4666 
L 3169 4666 
L 3169 4134 
L 1269 4134 
L 1269 2991 
Q 1406 3038 1543 3061 
Q 1681 3084 1819 3084 
Q 2600 3084 3056 2656 
Q 3513 2228 3513 1497 
Q 3513 744 3044 326 
Q 2575 -91 1722 -91 
Q 1428 -91 1123 -41 
Q 819 9 494 109 
L 494 744 
Q 775 591 1075 516 
Q 1375 441 1709 441 
Q 2250 441 2565 725 
Q 2881 1009 2881 1497 
Q 2881 1984 2565 2268 
Q 2250 2553 1709 2553 
Q 1456 2553 1204 2497 
Q 953 2441 691 2322 
L 691 4666 
z
" transform="scale(0.015625)"/>
       </defs>
       <use xlink:href="#DejaVuSans-35"/>
       <use xlink:href="#DejaVuSans-30" transform="translate(63.623047 0)"/>
       <use xlink:href="#DejaVuSans-30" transform="translate(127.246094 0)"/>
      </g>
     </g>
    </g>
    <g id="xtick_3">
     <g id="line2d_5">
      <path d="M 346.901804 389.6775 
L 346.901804 26.10625 
" clip-path="url(#pddbba0d0e3)" style="fill: none; stroke-dasharray: 1.85,0.8; stroke-dashoffset: 0; stroke: #b2b2b2; stroke-opacity: 0.3; stroke-width: 0.5"/>
     </g>
     <g id="line2d_6">
      <g>
       <use xlink:href="#m30d75e2862" x="346.901804" y="389.6775" style="stroke: #000000; stroke-width: 0.8"/>
      </g>
     </g>
     <g id="text_3">
      <!-- 1000 -->
      <g transform="translate(335.449304 400.016094) scale(0.09 -0.09)">
       <defs>
        <path id="DejaVuSans-31" d="M 794 531 
L 1825 531 
L 1825 4091 
L 703 3866 
L 703 4441 
L 1819 4666 
L 2450 4666 
L 2450 531 
L 3481 531 
L 3481 0 
L 794 0 
L 794 531 
z
" transform="scale(0.015625)"/>
       </defs>
       <use xlink:href="#DejaVuSans-31"/>
       <use xlink:href="#DejaVuSans-30" transform="translate(63.623047 0)"/>
       <use xlink:href="#DejaVuSans-30" transform="translate(127.246094 0)"/>
       <use xlink:href="#DejaVuSans-30" transform="translate(190.869141 0)"/>
      </g>
     </g>
    </g>
    <g id="xtick_4">
     <g id="line2d_7">
      <path d="M 484.578663 389.6775 
L 484.578663 26.10625 
" clip-path="url(#pddbba0d0e3)" style="fill: none; stroke-dasharray: 1.85,0.8; stroke-dashoffset: 0; stroke: #b2b2b2; stroke-opacity: 0.3; stroke-width: 0.5"/>
     </g>
     <g id="line2d_8">
      <g>
       <use xlink:href="#m30d75e2862" x="484.578663" y="389.6775" style="stroke: #000000; stroke-width: 0.8"/>
      </g>
     </g>
     <g id="text_4">
      <!-- 1500 -->
      <g transform="translate(473.126163 400.016094) scale(0.09 -0.09)">
       <use xlink:href="#DejaVuSans-31"/>
       <use xlink:href="#DejaVuSans-35" transform="translate(63.623047 0)"/>
       <use xlink:href="#DejaVuSans-30" transform="translate(127.246094 0)"/>
       <use xlink:href="#DejaVuSans-30" transform="translate(190.869141 0)"/>
      </g>
     </g>
    </g>
    <g id="xtick_5">
     <g id="line2d_9">
      <path d="M 622.255523 389.6775 
L 622.255523 26.10625 
" clip-path="url(#pddbba0d0e3)" style="fill: none; stroke-dasharray: 1.85,0.8; stroke-dashoffset: 0; stroke: #b2b2b2; stroke-opacity: 0.3; stroke-width: 0.5"/>
     </g>
     <g id="line2d_10">
      <g>
       <use xlink:href="#m30d75e2862" x="622.255523" y="389.6775" style="stroke: #000000; stroke-width: 0.8"/>
      </g>
     </g>
     <g id="text_5">
      <!-- 2000 -->
      <g transform="translate(610.803023 400.016094) scale(0.09 -0.09)">
       <defs>
        <path id="DejaVuSans-32" d="M 1228 531 
L 3431 531 
L 3431 0 
L 469 0 
L 469 531 
Q 828 903 1448 1529 
Q 2069 2156 2228 2338 
Q 2531 2678 2651 2914 
Q 2772 3150 2772 3378 
Q 2772 3750 2511 3984 
Q 2250 4219 1831 4219 
Q 1534 4219 1204 4116 
Q 875 4013 500 3803 
L 500 4441 
Q 881 4594 1212 4672 
Q 1544 4750 1819 4750 
Q 2544 4750 2975 4387 
Q 3406 4025 3406 3419 
Q 3406 3131 3298 2873 
Q 3191 2616 2906 2266 
Q 2828 2175 2409 1742 
Q 1991 1309 1228 531 
z
" transform="scale(0.015625)"/>
       </defs>
       <use xlink:href="#DejaVuSans-32"/>
       <use xlink:href="#DejaVuSans-30" transform="translate(63.623047 0)"/>
       <use xlink:href="#DejaVuSans-30" transform="translate(127.246094 0)"/>
       <use xlink:href="#DejaVuSans-30" transform="translate(190.869141 0)"/>
      </g>
     </g>
    </g>
    <g id="text_6">
     <!-- 时间 / 序号 -->
     <g transform="translate(356.607813 413.48625) scale(0.1 -0.1)">
      <defs>
       <path id="DejaVuSans-65f6" d="M 319 -1131 
L 319 4513 
L 3519 4513 
L 3519 -1131 
L 319 -1131 
z
M 678 -775 
L 3163 -775 
L 3163 4153 
L 678 4153 
L 678 -775 
z
" transform="scale(0.015625)"/>
       <path id="DejaVuSans-95f4" d="M 319 -1131 
L 319 4513 
L 3519 4513 
L 3519 -1131 
L 319 -1131 
z
M 678 -775 
L 3163 -775 
L 3163 4153 
L 678 4153 
L 678 -775 
z
" transform="scale(0.015625)"/>
       <path id="DejaVuSans-20" transform="scale(0.015625)"/>
       <path id="DejaVuSans-2f" d="M 1625 4666 
L 2156 4666 
L 531 -594 
L 0 -594 
L 1625 4666 
z
" transform="scale(0.015625)"/>
       <path id="DejaVuSans-5e8f" d="M 319 -1131 
L 319 4513 
L 3519 4513 
L 3519 -1131 
L 319 -1131 
z
M 678 -775 
L 3163 -775 
L 3163 4153 
L 678 4153 
L 678 -775 
z
" transform="scale(0.015625)"/>
       <path id="DejaVuSans-53f7" d="M 319 -1131 
L 319 4513 
L 3519 4513 
L 3519 -1131 
L 319 -1131 
z
M 678 -775 
L 3163 -775 
L 3163 4153 
L 678 4153 
L 678 -775 
z
" transform="scale(0.015625)"/>
      </defs>
      <use xlink:href="#DejaVuSans-65f6"/>
      <use xlink:href="#DejaVuSans-95f4" transform="translate(60.009766 0)"/>
      <use xlink:href="#DejaVuSans-20" transform="translate(120.019531 0)"/>
      <use xlink:href="#DejaVuSans-2f" transform="translate(151.806641 0)"/>
      <use xlink:href="#DejaVuSans-20" transform="translate(185.498047 0)"/>
      <use xlink:href="#DejaVuSans-5e8f" transform="translate(217.285156 0)"/>
      <use xlink:href="#DejaVuSans-53f7" transform="translate(277.294922 0)"/>
     </g>
    </g>
   </g>
   <g id="matplotlib.axis_2">
    <g id="ytick_1">
     <g id="line2d_11">
      <path d="M 41.658438 342.885112 
L 705.288438 342.885112 
" clip-path="url(#pddbba0d0e3)" style="fill: none; stroke-dasharray: 1.85,0.8; stroke-dashoffset: 0; stroke: #b2b2b2; stroke-opacity: 0.3; stroke-width: 0.5"/>
     </g>
     <g id="line2d_12">
      <defs>
       <path id="mf9b32f4aa2" d="M 0 0 
L 3.5 0 
" style="stroke: #000000; stroke-width: 0.8"/>
      </defs>
      <g>
       <use xlink:href="#mf9b32f4aa2" x="41.658438" y="342.885112" style="stroke: #000000; stroke-width: 0.8"/>
      </g>
     </g>
     <g id="text_7">
      <!-- 50 -->
      <g transform="translate(26.705938 346.304408) scale(0.09 -0.09)">
       <use xlink:href="#DejaVuSans-35"/>
       <use xlink:href="#DejaVuSans-30" transform="translate(63.623047 0)"/>
      </g>
     </g>
    </g>
    <g id="ytick_2">
     <g id="line2d_13">
      <path d="M 41.658438 281.402983 
L 705.288438 281.402983 
" clip-path="url(#pddbba0d0e3)" style="fill: none; stroke-dasharray: 1.85,0.8; stroke-dashoffset: 0; stroke: #b2b2b2; stroke-opacity: 0.3; stroke-width: 0.5"/>
     </g>
     <g id="line2d_14">
      <g>
       <use xlink:href="#mf9b32f4aa2" x="41.658438" y="281.402983" style="stroke: #000000; stroke-width: 0.8"/>
      </g>
     </g>
     <g id="text_8">
      <!-- 100 -->
      <g transform="translate(20.979688 284.822279) scale(0.09 -0.09)">
       <use xlink:href="#DejaVuSans-31"/>
       <use xlink:href="#DejaVuSans-30" transform="translate(63.623047 0)"/>
       <use xlink:href="#DejaVuSans-30" transform="translate(127.246094 0)"/>
      </g>
     </g>
    </g>
    <g id="ytick_3">
     <g id="line2d_15">
      <path d="M 41.658438 219.920854 
L 705.288438 219.920854 
" clip-path="url(#pddbba0d0e3)" style="fill: none; stroke-dasharray: 1.85,0.8; stroke-dashoffset: 0; stroke: #b2b2b2; stroke-opacity: 0.3; stroke-width: 0.5"/>
     </g>
     <g id="line2d_16">
      <g>
       <use xlink:href="#mf9b32f4aa2" x="41.658438" y="219.920854" style="stroke: #000000; stroke-width: 0.8"/>
      </g>
     </g>
     <g id="text_9">
      <!-- 150 -->
      <g transform="translate(20.979688 223.34015) scale(0.09 -0.09)">
       <use xlink:href="#DejaVuSans-31"/>
       <use xlink:href="#DejaVuSans-35" transform="translate(63.623047 0)"/>
       <use xlink:href="#DejaVuSans-30" transform="translate(127.246094 0)"/>
      </g>
     </g>
    </g>
    <g id="ytick_4">
     <g id="line2d_17">
      <path d="M 41.658438 158.438725 
L 705.288438 158.438725 
" clip-path="url(#pddbba0d0e3)" style="fill: none; stroke-dasharray: 1.85,0.8; stroke-dashoffset: 0; stroke: #b2b2b2; stroke-opacity: 0.3; stroke-width: 0.5"/>
     </g>
     <g id="line2d_18">
      <g>
       <use xlink:href="#mf9b32f4aa2" x="41.658438" y="158.438725" style="stroke: #000000; stroke-width: 0.8"/>
      </g>
     </g>
     <g id="text_10">
      <!-- 200 -->
      <g transform="translate(20.979688 161.858021) scale(0.09 -0.09)">
       <use xlink:href="#DejaVuSans-32"/>
       <use xlink:href="#DejaVuSans-30" transform="translate(63.623047 0)"/>
       <use xlink:href="#DejaVuSans-30" transform="translate(127.246094 0)"/>
      </g>
     </g>
    </g>
    <g id="ytick_5">
     <g id="line2d_19">
      <path d="M 41.658438 96.956595 
L 705.288438 96.956595 
" clip-path="url(#pddbba0d0e3)" style="fill: none; stroke-dasharray: 1.85,0.8; stroke-dashoffset: 0; stroke: #b2b2b2; stroke-opacity: 0.3; stroke-width: 0.5"/>
     </g>
     <g id="line2d_20">
      <g>
       <use xlink:href="#mf9b32f4aa2" x="41.658438" y="96.956595" style="stroke: #000000; stroke-width: 0.8"/>
      </g>
     </g>
     <g id="text_11">
      <!-- 250 -->
      <g transform="translate(20.979688 100.375892) scale(0.09 -0.09)">
       <use xlink:href="#DejaVuSans-32"/>
       <use xlink:href="#DejaVuSans-35" transform="translate(63.623047 0)"/>
       <use xlink:href="#DejaVuSans-30" transform="translate(127.246094 0)"/>
      </g>
     </g>
    </g>
    <g id="ytick_6">
     <g id="line2d_21">
      <path d="M 41.658438 35.474466 
L 705.288438 35.474466 
" clip-path="url(#pddbba0d0e3)" style="fill: none; stroke-dasharray: 1.85,0.8; stroke-dashoffset: 0; stroke: #b2b2b2; stroke-opacity: 0.3; stroke-width: 0.5"/>
     </g>
     <g id="line2d_22">
      <g>
       <use xlink:href="#mf9b32f4aa2" x="41.658438" y="35.474466" style="stroke: #000000; stroke-width: 0.8"/>
      </g>
     </g>
     <g id="text_12">
      <!-- 300 -->
      <g transform="translate(20.979688 38.893763) scale(0.09 -0.09)">
       <defs>
        <path id="DejaVuSans-33" d="M 2597 2516 
Q 3050 2419 3304 2112 
Q 3559 1806 3559 1356 
Q 3559 666 3084 287 
Q 2609 -91 1734 -91 
Q 1441 -91 1130 -33 
Q 819 25 488 141 
L 488 750 
Q 750 597 1062 519 
Q 1375 441 1716 441 
Q 2309 441 2620 675 
Q 2931 909 2931 1356 
Q 2931 1769 2642 2001 
Q 2353 2234 1838 2234 
L 1294 2234 
L 1294 2753 
L 1863 2753 
Q 2328 2753 2575 2939 
Q 2822 3125 2822 3475 
Q 2822 3834 2567 4026 
Q 2313 4219 1838 4219 
Q 1578 4219 1281 4162 
Q 984 4106 628 3988 
L 628 4550 
Q 988 4650 1302 4700 
Q 1616 4750 1894 4750 
Q 2613 4750 3031 4423 
Q 3450 4097 3450 3541 
Q 3450 3153 3228 2886 
Q 3006 2619 2597 2516 
z
" transform="scale(0.015625)"/>
       </defs>
       <use xlink:href="#DejaVuSans-33"/>
       <use xlink:href="#DejaVuSans-30" transform="translate(63.623047 0)"/>
       <use xlink:href="#DejaVuSans-30" transform="translate(127.246094 0)"/>
      </g>
     </g>
    </g>
    <g id="text_13">
     <!-- COD_mg/L 值 -->
     <g transform="translate(14.621875 238.773906) rotate(-90) scale(0.1 -0.1)">
      <defs>
       <path id="DejaVuSans-43" d="M 4122 4306 
L 4122 3641 
Q 3803 3938 3442 4084 
Q 3081 4231 2675 4231 
Q 1875 4231 1450 3742 
Q 1025 3253 1025 2328 
Q 1025 1406 1450 917 
Q 1875 428 2675 428 
Q 3081 428 3442 575 
Q 3803 722 4122 1019 
L 4122 359 
Q 3791 134 3420 21 
Q 3050 -91 2638 -91 
Q 1578 -91 968 557 
Q 359 1206 359 2328 
Q 359 3453 968 4101 
Q 1578 4750 2638 4750 
Q 3056 4750 3426 4639 
Q 3797 4528 4122 4306 
z
" transform="scale(0.015625)"/>
       <path id="DejaVuSans-4f" d="M 2522 4238 
Q 1834 4238 1429 3725 
Q 1025 3213 1025 2328 
Q 1025 1447 1429 934 
Q 1834 422 2522 422 
Q 3209 422 3611 934 
Q 4013 1447 4013 2328 
Q 4013 3213 3611 3725 
Q 3209 4238 2522 4238 
z
M 2522 4750 
Q 3503 4750 4090 4092 
Q 4678 3434 4678 2328 
Q 4678 1225 4090 567 
Q 3503 -91 2522 -91 
Q 1538 -91 948 565 
Q 359 1222 359 2328 
Q 359 3434 948 4092 
Q 1538 4750 2522 4750 
z
" transform="scale(0.015625)"/>
       <path id="DejaVuSans-44" d="M 1259 4147 
L 1259 519 
L 2022 519 
Q 2988 519 3436 956 
Q 3884 1394 3884 2338 
Q 3884 3275 3436 3711 
Q 2988 4147 2022 4147 
L 1259 4147 
z
M 628 4666 
L 1925 4666 
Q 3281 4666 3915 4102 
Q 4550 3538 4550 2338 
Q 4550 1131 3912 565 
Q 3275 0 1925 0 
L 628 0 
L 628 4666 
z
" transform="scale(0.015625)"/>
       <path id="DejaVuSans-5f" d="M 3263 -1063 
L 3263 -1509 
L -63 -1509 
L -63 -1063 
L 3263 -1063 
z
" transform="scale(0.015625)"/>
       <path id="DejaVuSans-6d" d="M 3328 2828 
Q 3544 3216 3844 3400 
Q 4144 3584 4550 3584 
Q 5097 3584 5394 3201 
Q 5691 2819 5691 2113 
L 5691 0 
L 5113 0 
L 5113 2094 
Q 5113 2597 4934 2840 
Q 4756 3084 4391 3084 
Q 3944 3084 3684 2787 
Q 3425 2491 3425 1978 
L 3425 0 
L 2847 0 
L 2847 2094 
Q 2847 2600 2669 2842 
Q 2491 3084 2119 3084 
Q 1678 3084 1418 2786 
Q 1159 2488 1159 1978 
L 1159 0 
L 581 0 
L 581 3500 
L 1159 3500 
L 1159 2956 
Q 1356 3278 1631 3431 
Q 1906 3584 2284 3584 
Q 2666 3584 2933 3390 
Q 3200 3197 3328 2828 
z
" transform="scale(0.015625)"/>
       <path id="DejaVuSans-67" d="M 2906 1791 
Q 2906 2416 2648 2759 
Q 2391 3103 1925 3103 
Q 1463 3103 1205 2759 
Q 947 2416 947 1791 
Q 947 1169 1205 825 
Q 1463 481 1925 481 
Q 2391 481 2648 825 
Q 2906 1169 2906 1791 
z
M 3481 434 
Q 3481 -459 3084 -895 
Q 2688 -1331 1869 -1331 
Q 1566 -1331 1297 -1286 
Q 1028 -1241 775 -1147 
L 775 -588 
Q 1028 -725 1275 -790 
Q 1522 -856 1778 -856 
Q 2344 -856 2625 -561 
Q 2906 -266 2906 331 
L 2906 616 
Q 2728 306 2450 153 
Q 2172 0 1784 0 
Q 1141 0 747 490 
Q 353 981 353 1791 
Q 353 2603 747 3093 
Q 1141 3584 1784 3584 
Q 2172 3584 2450 3431 
Q 2728 3278 2906 2969 
L 2906 3500 
L 3481 3500 
L 3481 434 
z
" transform="scale(0.015625)"/>
       <path id="DejaVuSans-4c" d="M 628 4666 
L 1259 4666 
L 1259 531 
L 3531 531 
L 3531 0 
L 628 0 
L 628 4666 
z
" transform="scale(0.015625)"/>
       <path id="DejaVuSans-503c" d="M 319 -1131 
L 319 4513 
L 3519 4513 
L 3519 -1131 
L 319 -1131 
z
M 678 -775 
L 3163 -775 
L 3163 4153 
L 678 4153 
L 678 -775 
z
" transform="scale(0.015625)"/>
      </defs>
      <use xlink:href="#DejaVuSans-43"/>
      <use xlink:href="#DejaVuSans-4f" transform="translate(69.824219 0)"/>
      <use xlink:href="#DejaVuSans-44" transform="translate(148.535156 0)"/>
      <use xlink:href="#DejaVuSans-5f" transform="translate(225.537109 0)"/>
      <use xlink:href="#DejaVuSans-6d" transform="translate(275.537109 0)"/>
      <use xlink:href="#DejaVuSans-67" transform="translate(372.949219 0)"/>
      <use xlink:href="#DejaVuSans-2f" transform="translate(436.425781 0)"/>
      <use xlink:href="#DejaVuSans-4c" transform="translate(470.117188 0)"/>
      <use xlink:href="#DejaVuSans-20" transform="translate(525.830078 0)"/>
      <use xlink:href="#DejaVuSans-503c" transform="translate(557.617188 0)"/>
     </g>
    </g>
   </g>
   <g id="line2d_23">
    <path d="M 71.823438 201.599179 
L 72.098791 190.679953 
L 72.374145 187.261547 
L 72.649499 165.804284 
L 72.924852 177.608852 
L 73.200206 181.396151 
L 73.47556 177.71952 
L 73.750914 176.797288 
L 74.026267 188.491189 
L 74.301621 161.623499 
L 74.576975 42.632216 
L 74.852328 154.491572 
L 75.127682 161.89402 
L 75.403036 161.463645 
L 75.67839 159.951185 
L 75.953743 161.648092 
L 76.229097 179.699245 
L 76.504451 156.409814 
L 76.779804 169.837511 
L 77.055158 168.275865 
L 77.330512 168.226679 
L 77.605866 184.814558 
L 77.881219 165.373909 
L 78.156573 173.440364 
L 78.431927 144.69132 
L 78.70728 162.865438 
L 78.982634 159.52081 
L 79.257988 152.671701 
L 79.533342 42.632216 
L 79.808695 146.658749 
L 80.084049 135.395223 
L 80.359403 150.925608 
L 80.634757 144.605245 
L 81.185464 161.168531 
L 81.460818 166.480587 
L 81.736171 161.291495 
L 82.286879 109.314503 
L 82.562233 126.677057 
L 82.837586 100.940637 
L 83.11294 61.911782 
L 83.388294 52.566498 
L 83.663647 130.279909 
L 83.939001 111.982828 
L 84.214355 118.979494 
L 84.489709 116.864509 
L 84.765062 125.4966 
L 85.040416 114.811006 
L 85.31577 128.976488 
L 85.591123 149.683669 
L 85.866477 149.179516 
L 86.141831 139.821936 
L 86.417185 142.477964 
L 86.692538 136.23138 
L 86.967892 116.913695 
L 87.243246 118.844233 
L 87.5186 133.981134 
L 87.793953 139.317782 
L 88.069307 109.769471 
L 88.344661 159.336364 
L 88.620014 161.537424 
L 88.895368 160.787342 
L 89.170722 139.29319 
L 89.446076 144.027313 
L 89.721429 142.0107 
L 89.996783 143.252639 
L 90.272137 148.244988 
L 90.54749 145.03562 
L 90.822844 136.342047 
L 91.098198 139.317782 
L 91.373552 112.302535 
L 91.648905 42.632216 
L 91.924259 66.670499 
L 92.199613 42.632216 
L 92.75032 42.632216 
L 93.025674 102.293244 
L 93.576381 57.620329 
L 93.851735 50.549884 
L 94.402443 194.135249 
L 94.677796 206.394785 
L 94.95315 179.404131 
L 95.228504 273.422602 
L 95.503857 241.673231 
L 95.779211 184.519444 
L 96.329919 170.796632 
L 96.605272 187.24925 
L 97.15598 173.45266 
L 97.431333 186.474575 
L 97.706687 186.609836 
L 98.257395 172.481243 
L 98.532748 171.620493 
L 98.808102 42.632216 
L 99.083456 177.37522 
L 99.358809 237.049775 
L 99.634163 217.86735 
L 99.909517 139.071854 
L 100.184871 156.63115 
L 100.460224 146.265263 
L 100.735578 157.012339 
L 101.010932 143.35101 
L 101.286286 149.253294 
L 101.561639 141.026986 
L 101.836993 143.363306 
L 102.112347 140.6335 
L 102.3877 115.96687 
L 102.938408 145.773406 
L 103.213762 147.593277 
L 103.489115 42.632216 
L 103.764469 128.005071 
L 104.315176 163.160552 
L 104.865884 148.896698 
L 105.141238 150.864126 
L 105.416591 176.268542 
L 105.967299 150.974794 
L 106.242652 181.027259 
L 106.79336 141.026986 
L 107.068714 164.26723 
L 107.344067 165.410798 
L 107.619421 171.534418 
L 107.894775 133.722909 
L 108.170129 158.155907 
L 108.445482 194.159841 
L 108.720836 176.084096 
L 108.99619 250.20695 
L 109.271543 207.649021 
L 109.822251 248.829751 
L 110.097605 243.345545 
L 110.372958 250.846364 
L 110.923666 215.740069 
L 111.199019 178.199081 
L 111.474373 205.816853 
L 111.749727 221.630057 
L 112.025081 222.982664 
L 112.300434 175.17416 
L 112.575788 165.64443 
L 112.851142 149.880412 
L 113.401849 196.914241 
L 113.677203 189.62246 
L 113.952557 89.025401 
L 114.22791 215.297397 
L 114.503264 176.68662 
L 114.778618 180.412437 
L 115.053972 174.952824 
L 115.329325 184.580926 
L 115.604679 173.428068 
L 115.880033 126.947578 
L 116.43074 170.931893 
L 116.706094 170.993375 
L 116.981448 184.433369 
L 117.256801 246.247501 
L 117.532155 264.237172 
L 117.807509 229.278434 
L 118.082862 150.790348 
L 118.358216 168.632462 
L 118.63357 149.609891 
L 118.908924 141.97381 
L 119.184277 183.867733 
L 119.459631 172.813246 
L 119.734985 201.377843 
L 120.010338 174.288817 
L 120.561046 236.434953 
L 120.8364 182.342976 
L 121.111753 176.157874 
L 121.387107 173.883035 
L 121.662461 211.940473 
L 121.937814 216.811087 
L 122.213168 183.748458 
L 122.488522 177.506792 
L 122.763876 147.792479 
L 123.039229 181.157601 
L 123.314583 185.369127 
L 123.589937 42.632216 
L 123.865291 134.856639 
L 124.140644 189.604016 
L 124.415998 179.412738 
L 124.691352 154.824805 
L 124.966705 186.14995 
L 125.242059 237.153065 
L 125.517413 198.359071 
L 125.792767 264.431456 
L 126.343474 199.08333 
L 126.618828 132.552289 
L 126.894181 259.543626 
L 127.169535 160.187276 
L 127.720243 251.016055 
L 127.995596 206.362814 
L 128.27095 42.632216 
L 128.546304 212.421263 
L 129.097011 129.741326 
L 129.372365 150.807563 
L 129.647719 195.164459 
L 129.923072 136.830215 
L 130.198426 151.74455 
L 130.749134 206.832538 
L 131.299841 175.938998 
L 131.575195 169.29278 
L 131.850548 126.586063 
L 132.125902 150.54319 
L 132.401256 133.470832 
L 132.67661 165.823958 
L 132.951963 171.786495 
L 133.227317 93.629183 
L 133.502671 137.446266 
L 133.778024 118.712662 
L 134.053378 185.766301 
L 134.604086 141.274144 
L 134.879439 157.21523 
L 135.154793 119.128281 
L 135.430147 163.562645 
L 135.7055 163.563875 
L 135.980854 106.651098 
L 136.256208 131.559967 
L 136.531562 192.335052 
L 136.806915 174.460967 
L 137.082269 173.580543 
L 137.357623 176.783762 
L 137.632977 140.672849 
L 137.90833 191.17181 
L 138.183684 135.053382 
L 138.459038 242.676619 
L 138.734391 236.734986 
L 139.009745 211.455994 
L 139.285099 233.48873 
L 139.560453 243.901343 
L 140.11116 197.012612 
L 140.386514 252.302261 
L 140.661867 195.073466 
L 140.937221 224.78409 
L 141.212575 184.880959 
L 141.487929 225.47269 
L 141.763282 188.202223 
L 142.038636 261.249141 
L 142.31399 242.636041 
L 142.589343 243.593933 
L 142.864697 252.503923 
L 143.140051 252.503923 
L 143.415405 178.06505 
L 143.690758 218.603906 
L 143.966112 225.955939 
L 144.241466 210.215285 
L 144.51682 244.297288 
L 144.792173 192.460475 
L 145.067527 237.85765 
L 145.342881 203.717853 
L 145.618234 215.676127 
L 145.893588 42.632216 
L 146.168942 214.253431 
L 146.444296 234.739276 
L 146.719649 217.891943 
L 146.995003 253.388036 
L 147.270357 246.760262 
L 147.54571 219.776985 
L 147.821064 217.189817 
L 148.096418 201.778707 
L 148.371772 230.709738 
L 148.647125 246.198315 
L 148.922479 231.673777 
L 149.197833 253.879893 
L 149.473186 215.307235 
L 149.74854 252.208808 
L 150.023894 312.670334 
L 150.299248 241.530592 
L 150.574601 219.081008 
L 150.849955 238.92252 
L 151.125309 241.585926 
L 151.676016 124.91006 
L 151.95137 236.348878 
L 152.226724 253.836855 
L 152.502077 229.783817 
L 152.777431 161.489468 
L 153.052785 225.154212 
L 153.328139 246.097485 
L 153.603492 42.632216 
L 153.878846 240.066088 
L 154.1542 240.235779 
L 154.429553 234.015017 
L 154.704907 253.802425 
L 154.980261 224.598414 
L 155.255615 240.079614 
L 155.530968 271.02357 
L 155.806322 274.062016 
L 156.081676 278.841637 
L 156.357029 277.332866 
L 156.632383 291.943479 
L 157.183091 287.247474 
L 157.458444 264.397026 
L 157.733798 285.169378 
L 158.009152 295.960721 
L 158.284506 302.181483 
L 158.835213 275.119509 
L 159.38592 259.452633 
L 159.661274 292.842348 
L 159.936628 292.521411 
L 160.211982 284.635713 
L 160.487335 281.24067 
L 160.762689 281.934188 
L 161.038043 280.325816 
L 161.313396 279.709765 
L 161.58875 274.102595 
L 161.864104 280.916044 
L 162.139458 211.585106 
L 162.414811 291.431947 
L 162.690165 267.537533 
L 162.965519 275.568329 
L 163.240872 161.512831 
L 163.516226 279.79338 
L 163.79158 278.378062 
L 164.066934 278.574805 
L 164.617641 290.926564 
L 164.892995 258.736981 
L 165.168348 280.741435 
L 165.443702 317.554474 
L 165.719056 300.991189 
L 165.99441 308.878116 
L 166.269763 310.594697 
L 166.545117 318.835762 
L 166.820471 253.994249 
L 167.095825 283.788489 
L 167.371178 288.768542 
L 167.646532 305.780647 
L 167.921886 272.085981 
L 168.197239 265.330324 
L 168.472593 304.488292 
L 168.747947 313.281466 
L 169.023301 290.578576 
L 169.298654 329.462333 
L 169.574008 302.561442 
L 169.849362 310.407792 
L 170.124715 259.097266 
L 170.400069 42.632216 
L 170.675423 246.126996 
L 170.950777 256.768323 
L 171.501484 232.453371 
L 171.776838 236.142298 
L 172.052191 256.245725 
L 172.327545 250.847594 
L 172.602899 137.277805 
L 172.878253 201.559831 
L 173.153606 181.919979 
L 173.42896 214.697332 
L 173.704314 196.810951 
L 173.979668 210.585407 
L 174.255021 212.849179 
L 174.530375 223.314667 
L 174.805729 189.019935 
L 175.081082 177.808054 
L 175.356436 180.315296 
L 175.63179 165.708371 
L 175.907144 137.517586 
L 176.182497 123.219302 
L 176.733205 141.483183 
L 177.008558 147.256355 
L 177.283912 141.330707 
L 177.559266 42.632216 
L 177.83462 180.601802 
L 178.109973 177.804366 
L 178.385327 180.809612 
L 178.660681 175.55412 
L 178.936034 220.705366 
L 179.486742 252.639183 
L 179.762096 251.161153 
L 180.037449 254.912792 
L 180.312803 255.391123 
L 180.588157 259.467389 
L 180.863511 256.328111 
L 181.138864 260.968782 
L 181.689572 201.317591 
L 181.964925 194.244687 
L 182.240279 197.945911 
L 182.515633 200.024007 
L 182.790987 203.223537 
L 183.06634 208.600764 
L 183.341694 208.329013 
L 183.617048 193.852431 
L 183.892401 200.384292 
L 184.167755 203.580133 
L 184.443109 196.466651 
L 184.993816 191.432494 
L 185.26917 191.588659 
L 185.544524 189.516711 
L 185.819877 193.663066 
L 186.095231 195.54196 
L 186.370585 180.225532 
L 186.645939 188.743266 
L 186.921292 184.642408 
L 187.196646 161.091064 
L 187.472 205.475013 
L 187.747354 98.123526 
L 188.022707 42.632216 
L 188.298061 178.789309 
L 188.573415 146.44602 
L 188.848768 238.770045 
L 189.124122 293.823602 
L 189.399476 326.368552 
L 189.67483 324.390058 
L 189.950183 308.065323 
L 190.225537 308.065323 
L 190.500891 294.058464 
L 190.776244 321.071252 
L 191.051598 320.241243 
L 191.326952 315.998977 
L 191.602306 315.119782 
L 191.877659 289.316962 
L 192.153013 321.28521 
L 192.428367 314.091801 
L 192.70372 310.116366 
L 193.254428 322.343932 
L 193.529782 322.256628 
L 193.805135 328.125712 
L 194.080489 328.995069 
L 194.355843 355.089314 
L 194.631197 352.278351 
L 194.90655 358.885221 
L 195.181904 42.632216 
L 195.457258 358.747501 
L 195.732611 354.358907 
L 196.007965 362.822536 
L 196.283319 367.319339 
L 196.558673 367.742336 
L 196.834026 358.747501 
L 197.10938 356.221815 
L 197.384734 359.823438 
L 197.660087 345.771083 
L 197.935441 340.744304 
L 198.210795 347.36347 
L 198.761502 334.56535 
L 199.036856 333.941921 
L 199.31221 344.625056 
L 199.587563 344.926318 
L 199.862917 344.9878 
L 200.138271 347.496271 
L 200.413625 347.32904 
L 200.688978 321.542205 
L 201.239686 339.632707 
L 201.51504 333.072564 
L 201.790393 330.475559 
L 202.065747 323.489959 
L 202.341101 320.766301 
L 202.616454 42.632216 
L 202.891808 308.429297 
L 203.167162 307.941129 
L 203.442516 286.333849 
L 203.717869 304.319831 
L 203.993223 289.881368 
L 204.268577 295.075378 
L 204.54393 275.398638 
L 204.819284 297.390795 
L 205.094638 307.177521 
L 205.369992 328.744222 
L 205.645345 328.815541 
L 206.196053 312.606393 
L 206.471406 315.64484 
L 206.74676 314.937795 
L 207.022114 317.84344 
L 207.297468 315.095189 
L 207.572821 327.162902 
L 207.848175 330.29972 
L 208.398883 317.977471 
L 208.674236 317.977471 
L 209.224944 290.279772 
L 209.500297 319.264907 
L 209.775651 329.945583 
L 210.051005 323.654731 
L 210.326359 314.064749 
L 210.601712 318.336527 
L 210.877066 317.126559 
L 211.15242 318.700501 
L 211.427773 313.864317 
L 211.703127 300.930936 
L 211.978481 262.843987 
L 212.253835 319.312863 
L 212.529188 320.585543 
L 212.804542 301.887598 
L 213.079896 304.935882 
L 213.355249 325.216377 
L 213.630603 312.333412 
L 213.905957 310.27745 
L 214.181311 300.557125 
L 214.456664 312.040757 
L 214.732018 310.460666 
L 215.007372 312.975285 
L 215.833433 293.822373 
L 216.108787 301.84579 
L 216.38414 301.621996 
L 216.659494 302.326581 
L 216.934848 302.317973 
L 217.210202 307.793572 
L 217.485555 308.559639 
L 218.036263 270.509579 
L 218.311616 308.317399 
L 218.58697 308.575624 
L 218.862324 304.253431 
L 219.137678 42.632216 
L 219.413031 323.606775 
L 219.688385 329.151234 
L 219.963739 326.776794 
L 220.239092 315.090271 
L 220.7898 303.329969 
L 221.065154 316.511738 
L 221.340507 312.836336 
L 221.615861 289.043982 
L 221.891215 294.58844 
L 222.166568 311.636205 
L 222.441922 313.931947 
L 222.717276 313.931947 
L 222.99263 312.535073 
L 223.267983 323.612923 
L 223.818691 329.350436 
L 224.094045 322.8321 
L 224.644752 345.215284 
L 224.920106 345.215284 
L 225.195459 336.170033 
L 225.470813 347.979521 
L 225.746167 350.308464 
L 226.021521 289.561661 
L 226.296874 313.666345 
L 226.572228 321.125357 
L 226.847582 324.31136 
L 227.398289 286.948671 
L 227.673643 42.632216 
L 227.948997 302.519635 
L 228.22435 253.048654 
L 229.050411 289.032915 
L 229.325765 289.032915 
L 229.601119 314.999277 
L 229.876473 232.821034 
L 230.151826 310.297124 
L 230.42718 307.601747 
L 230.977888 333.850928 
L 231.253241 332.933614 
L 231.528595 336.032314 
L 231.803949 341.637024 
L 232.079302 341.637024 
L 232.354656 359.632844 
L 232.63001 279.487199 
L 232.905364 275.937221 
L 233.180717 280.761109 
L 233.456071 273.650086 
L 233.731425 306.024116 
L 234.006778 287.586855 
L 234.282132 292.977608 
L 234.557486 291.554912 
L 234.83284 296.158694 
L 235.383547 285.22963 
L 235.658901 311.365683 
L 235.934254 321.474575 
L 236.209608 310.329095 
L 236.484962 293.237063 
L 236.760316 293.485451 
L 237.035669 291.809448 
L 237.311023 282.621558 
L 237.586377 312.962989 
L 237.861731 296.977636 
L 238.137084 292.322209 
L 238.412438 234.536385 
L 238.687792 296.638254 
L 238.963145 302.306906 
L 239.513853 335.879838 
L 239.789207 335.204764 
L 240.06456 315.878472 
L 240.339914 324.606475 
L 240.615268 323.24649 
L 240.890621 316.91752 
L 241.165975 301.885139 
L 241.441329 299.02622 
L 241.716683 278.821963 
L 241.992036 293.827291 
L 242.26739 299.669323 
L 242.542744 310.937768 
L 242.818097 292.541085 
L 243.093451 243.839861 
L 243.368805 294.213399 
L 243.644159 280.495506 
L 243.919512 42.632216 
L 244.194866 296.719411 
L 244.47022 300.022231 
L 244.745574 297.674843 
L 245.020927 285.036576 
L 245.296281 285.924378 
L 245.571635 283.425745 
L 245.846988 306.331527 
L 246.122342 305.973701 
L 246.397696 296.68744 
L 246.67305 292.541085 
L 246.948403 231.104453 
L 247.223757 274.986708 
L 247.499111 261.574996 
L 247.774464 294.783953 
L 248.049818 287.911481 
L 248.325172 266.782532 
L 248.600526 269.518487 
L 249.151233 249.992992 
L 249.426587 248.455939 
L 249.70194 311.585789 
L 249.977294 280.768487 
L 250.252648 277.4214 
L 250.528002 282.935117 
L 250.803355 331.997856 
L 251.078709 331.997856 
L 251.354063 362.458562 
L 251.629417 263.846146 
L 251.90477 292.297616 
L 252.180124 278.21329 
L 252.455478 305.098195 
L 252.730831 276.191757 
L 253.006185 312.148966 
L 253.281539 322.24925 
L 253.556893 318.475477 
L 253.832246 308.725641 
L 254.1076 306.186429 
L 254.382954 295.953343 
L 254.933661 287.772531 
L 255.209015 220.543053 
L 255.484369 278.497337 
L 255.759722 285.696894 
L 256.035076 266.03368 
L 256.31043 305.160907 
L 256.861137 295.081527 
L 257.136491 271.172356 
L 257.411845 266.280838 
L 257.687198 263.405934 
L 258.237906 247.750124 
L 258.513259 249.365875 
L 258.788613 244.254251 
L 259.063967 253.759388 
L 259.339321 246.961924 
L 259.614674 255.646889 
L 259.890028 249.340052 
L 260.165382 250.863579 
L 260.440736 238.781111 
L 260.716089 252.419077 
L 260.991443 253.367132 
L 261.266797 245.092867 
L 261.54215 244.896124 
L 261.817504 239.137708 
L 262.092858 247.571826 
L 262.368212 234.8979 
L 262.643565 248.724001 
L 262.918919 240.212415 
L 263.194273 254.400032 
L 263.469626 193.274499 
L 263.74498 259.269416 
L 264.020334 257.266328 
L 264.295688 260.368717 
L 264.571041 261.481543 
L 264.846395 260.524881 
L 265.121749 261.833221 
L 265.397102 246.798381 
L 265.672456 252.78797 
L 265.94781 318.940282 
L 266.223164 320.757693 
L 266.773871 326.154595 
L 267.049225 325.976296 
L 267.324579 326.680882 
L 267.875286 331.512147 
L 268.15064 324.847485 
L 268.425993 324.410961 
L 268.701347 318.908311 
L 268.976701 327.781412 
L 269.252055 324.171181 
L 269.527408 318.793954 
L 269.802762 316.977772 
L 270.078116 313.694626 
L 270.353469 316.449026 
L 270.628823 314.385686 
L 270.904177 321.823793 
L 271.179531 316.465011 
L 271.454884 305.409295 
L 271.730238 311.916563 
L 272.005592 236.388227 
L 272.280945 311.106229 
L 272.556299 317.15853 
L 272.831653 315.922739 
L 273.107007 310.790211 
L 273.38236 311.524307 
L 273.657714 314.839424 
L 273.933068 304.97646 
L 274.208422 341.965339 
L 274.483775 350.845818 
L 274.759129 303.042233 
L 275.034483 318.523433 
L 275.309836 299.175007 
L 275.58519 288.555813 
L 275.860544 292.017257 
L 276.411251 311.662027 
L 276.686605 315.866175 
L 276.961959 329.158611 
L 277.237312 355.995561 
L 277.512666 312.826499 
L 277.78802 336.842648 
L 278.063374 322.018077 
L 278.338727 324.256027 
L 278.614081 322.320569 
L 278.889435 327.422356 
L 279.164788 323.079259 
L 279.440142 329.683669 
L 279.715496 326.907136 
L 279.99085 331.976952 
L 280.266203 244.233347 
L 280.541557 344.274608 
L 280.816911 352.444353 
L 281.092265 344.71482 
L 281.367618 331.478947 
L 281.642972 332.439298 
L 281.918326 328.650769 
L 282.193679 326.641533 
L 282.469033 42.632216 
L 282.744387 317.762284 
L 283.019741 321.056497 
L 283.295094 316.610109 
L 283.570448 347.0536 
L 283.845802 329.78327 
L 284.121155 319.514525 
L 284.396509 323.55759 
L 284.671863 333.732882 
L 284.947217 332.752857 
L 285.773278 294.403994 
L 286.048631 297.457196 
L 286.323985 294.199873 
L 286.599339 293.990834 
L 286.874693 292.143911 
L 287.150046 294.748294 
L 287.4254 289.73873 
L 287.700754 280.732827 
L 287.976108 204.372023 
L 288.251461 314.160661 
L 288.526815 302.587265 
L 288.802169 284.057781 
L 289.077522 284.845982 
L 289.352876 291.916427 
L 289.62823 282.095271 
L 289.903584 279.752802 
L 290.178937 275.73433 
L 290.454291 298.368361 
L 290.729645 301.417875 
L 291.280352 291.263486 
L 291.555706 248.79655 
L 291.83106 290.294528 
L 292.381767 265.768077 
L 292.657121 267.510481 
L 292.932474 256.864235 
L 293.207828 256.239577 
L 293.483182 269.332811 
L 294.033889 255.453835 
L 294.309243 269.125001 
L 294.584597 274.831773 
L 294.859951 268.092102 
L 295.410658 277.224657 
L 295.686012 205.360656 
L 295.961365 266.850163 
L 296.236719 264.528597 
L 296.787427 271.437959 
L 297.06278 271.166208 
L 297.338134 249.281029 
L 297.613488 282.16782 
L 297.888841 291.981598 
L 298.164195 292.782095 
L 298.439549 261.900851 
L 298.714903 290.87123 
L 298.990256 282.294473 
L 299.26561 283.51182 
L 299.540964 297.312098 
L 299.816317 300.33456 
L 300.091671 305.084669 
L 300.367025 286.5392 
L 300.642379 285.282505 
L 300.917732 286.67569 
L 301.193086 289.523542 
L 301.46844 281.896069 
L 301.743794 293.287478 
L 302.019147 286.065787 
L 302.294501 295.374182 
L 302.569855 286.009224 
L 303.120562 276.877898 
L 303.395916 287.070405 
L 303.67127 285.275127 
L 303.946623 238.836445 
L 304.221977 258.309065 
L 304.497331 191.964929 
L 304.772684 262.157847 
L 305.048038 273.786576 
L 305.323392 279.720832 
L 305.874099 297.999468 
L 306.424807 272.12164 
L 306.975514 241.127269 
L 307.250868 290.947468 
L 307.526222 285.252993 
L 307.801575 285.750999 
L 308.352283 266.293135 
L 308.627636 267.660497 
L 308.90299 264.20889 
L 309.178344 253.122433 
L 309.453698 265.266383 
L 309.729051 290.155578 
L 310.004405 277.391888 
L 310.279759 286.439599 
L 310.555113 286.5724 
L 310.830466 282.874865 
L 311.10582 296.624728 
L 311.381174 269.650059 
L 311.656527 281.417738 
L 311.931881 283.284336 
L 312.207235 321.167164 
L 312.482589 274.515754 
L 312.757942 202.796851 
L 313.033296 280.625848 
L 313.30865 284.526275 
L 313.584003 286.392872 
L 314.134711 255.660415 
L 314.410065 254.289364 
L 314.685418 230.001463 
L 314.960772 261.754524 
L 315.236126 307.42222 
L 315.511479 307.42222 
L 315.786833 276.377433 
L 316.062187 276.602458 
L 316.337541 282.439571 
L 316.612894 262.375493 
L 316.888248 332.119591 
L 317.438956 311.808355 
L 317.714309 317.794255 
L 317.989663 318.584915 
L 318.265017 205.059393 
L 318.54037 300.467361 
L 318.815724 304.308765 
L 319.091078 310.009388 
L 319.366432 306.686893 
L 319.641785 297.174378 
L 319.917139 270.106256 
L 320.192493 268.224903 
L 320.467846 313.538462 
L 320.7432 298.847922 
L 321.018554 316.284254 
L 321.293908 210.662875 
L 321.569261 324.387598 
L 321.844615 323.118607 
L 322.119969 302.972143 
L 322.395322 333.999714 
L 322.670676 334.994495 
L 322.94603 355.152026 
L 323.496737 293.275182 
L 323.772091 305.302316 
L 324.322799 318.73985 
L 324.598152 339.38309 
L 325.14886 319.066935 
L 325.424213 328.194572 
L 325.699567 331.33139 
L 325.974921 313.494195 
L 326.250275 310.600846 
L 326.800982 277.59478 
L 327.076336 316.623635 
L 327.351689 324.093714 
L 327.627043 317.46717 
L 327.902397 278.310431 
L 328.177751 285.200119 
L 328.453104 301.725286 
L 328.728458 330.014443 
L 329.003812 320.153939 
L 329.279165 302.749578 
L 329.554519 320.52775 
L 329.829873 305.629401 
L 330.105227 298.738484 
L 330.38058 223.770864 
L 330.655934 286.369509 
L 330.931288 256.287533 
L 331.481995 330.792806 
L 331.757349 318.46441 
L 332.032703 327.022722 
L 332.308056 327.282177 
L 332.58341 312.023542 
L 332.858764 312.023542 
L 333.409471 280.631997 
L 333.684825 295.980395 
L 333.960179 341.659158 
L 334.235532 339.191265 
L 334.510886 314.936565 
L 334.78624 329.411918 
L 335.061594 334.540757 
L 335.336947 350.886396 
L 335.612301 351.124947 
L 335.887655 350.124017 
L 336.163008 357.772394 
L 336.438362 371.841965 
L 336.713716 373.151534 
L 336.98907 366.786904 
L 337.264423 342.184215 
L 337.539777 288.031986 
L 337.815131 306.236844 
L 338.090485 243.632051 
L 338.365838 342.506382 
L 338.641192 342.337921 
L 338.916546 350.349042 
L 339.467253 325.499195 
L 340.017961 267.949463 
L 340.293314 247.348031 
L 340.568668 249.423668 
L 340.844022 249.423668 
L 341.119375 323.967061 
L 341.394729 330.892408 
L 342.22079 295.874646 
L 343.046851 238.276958 
L 343.322205 228.926756 
L 343.597559 277.83456 
L 344.148266 182.833604 
L 344.42362 137.050321 
L 344.974328 339.465476 
L 345.249681 350.709327 
L 345.525035 342.106748 
L 345.800389 317.620875 
L 346.075742 322.707907 
L 346.351096 236.366093 
L 346.62645 304.091118 
L 346.901804 330.583767 
L 347.177157 337.292697 
L 347.727865 304.266957 
L 348.003218 310.650031 
L 348.278572 313.481898 
L 348.553926 295.133172 
L 348.82928 302.678259 
L 349.104633 262.187358 
L 349.379987 281.54808 
L 349.655341 278.628909 
L 349.930694 288.956677 
L 350.206048 304.001354 
L 350.756756 308.536276 
L 351.032109 305.422821 
L 351.307463 304.969083 
L 351.582817 317.339287 
L 351.85817 309.608524 
L 352.133524 294.664678 
L 352.684232 297.125193 
L 352.959585 305.371176 
L 353.234939 300.362842 
L 353.510293 301.218673 
L 353.785647 283.424515 
L 354.061 321.007311 
L 354.336354 307.615273 
L 354.611708 301.19531 
L 354.887061 316.299009 
L 355.162415 230.074012 
L 355.437769 309.474493 
L 355.988476 298.287205 
L 356.26383 303.325051 
L 356.539184 323.403884 
L 357.640599 344.214355 
L 357.915952 332.215503 
L 358.191306 326.615711 
L 358.46666 308.932221 
L 359.017367 339.557699 
L 359.292721 324.734357 
L 359.568075 328.891779 
L 359.843428 324.359316 
L 360.118782 321.875438 
L 360.394136 330.218563 
L 360.944843 335.380603 
L 361.220197 324.112158 
L 361.495551 323.440773 
L 361.770904 319.628881 
L 362.046258 318.202496 
L 362.321612 327.846583 
L 362.596966 328.318766 
L 362.872319 328.129401 
L 363.147673 324.766328 
L 363.423027 331.612978 
L 363.69838 230.677767 
L 363.973734 316.734303 
L 364.249088 326.201321 
L 364.524442 322.230805 
L 364.799795 301.002256 
L 365.075149 298.513459 
L 365.350503 309.369973 
L 365.625856 275.160087 
L 365.90121 303.702551 
L 366.176564 290.064585 
L 366.451918 295.510672 
L 366.727271 318.819777 
L 367.002625 280.452469 
L 367.277979 282.456786 
L 367.553333 312.892899 
L 367.828686 311.021383 
L 368.10404 306.270044 
L 368.379394 326.700556 
L 368.654747 304.595271 
L 368.930101 309.754852 
L 369.480809 293.698179 
L 369.756162 290.897053 
L 370.031516 295.365574 
L 370.30687 303.042233 
L 370.582223 298.64626 
L 370.857577 291.93856 
L 371.132931 291.289309 
L 371.683638 307.622651 
L 371.958992 307.595599 
L 372.234346 217.874728 
L 372.509699 313.144976 
L 372.785053 302.204846 
L 373.060407 301.337948 
L 373.335761 304.108333 
L 373.886468 326.705475 
L 374.161822 335.943779 
L 374.437176 332.793435 
L 374.712529 333.164787 
L 374.987883 322.872679 
L 375.263237 306.421291 
L 375.53859 271.649458 
L 375.813944 274.315323 
L 376.089298 247.597649 
L 376.364652 267.516629 
L 376.640005 266.13574 
L 377.190713 303.735751 
L 377.466066 321.45613 
L 377.74142 326.881313 
L 378.016774 328.686429 
L 378.292128 327.878554 
L 378.567481 325.527477 
L 378.842835 337.289008 
L 379.118189 331.748239 
L 379.393542 334.792834 
L 379.668896 332.404868 
L 379.94425 334.928094 
L 380.219604 331.212115 
L 380.494957 250.629947 
L 380.770311 321.813956 
L 381.596372 329.873034 
L 382.14708 368.289527 
L 382.422433 356.493566 
L 382.697787 329.684899 
L 382.973141 322.69561 
L 383.248495 304.712087 
L 383.523848 309.223646 
L 383.799202 292.269334 
L 384.074556 305.505207 
L 384.349909 301.613388 
L 384.625263 309.468345 
L 384.900617 309.299884 
L 385.175971 314.086882 
L 385.451324 305.233456 
L 385.726678 306.606967 
L 386.002032 301.531002 
L 386.277385 310.769307 
L 386.552739 304.60142 
L 386.828093 307.907928 
L 387.103447 307.414842 
L 387.3788 292.013568 
L 387.654154 294.856502 
L 387.929508 302.013022 
L 388.204862 305.229767 
L 388.480215 301.608469 
L 388.755569 224.54185 
L 389.030923 300.77969 
L 389.306276 299.589396 
L 389.58163 311.826799 
L 389.856984 314.340189 
L 390.132338 313.009715 
L 390.683045 305.97739 
L 390.958399 291.959464 
L 391.509106 293.894922 
L 391.78446 315.7801 
L 392.059814 300.340708 
L 392.335167 326.886232 
L 393.161228 306.054857 
L 393.436582 304.493211 
L 393.711936 300.355464 
L 393.98729 315.896916 
L 394.262643 317.683587 
L 394.537997 313.861858 
L 394.813351 324.438014 
L 395.088705 312.467443 
L 395.364058 309.700747 
L 395.639412 315.847731 
L 395.914766 315.250124 
L 396.190119 226.669132 
L 396.465473 311.48127 
L 396.740827 307.794801 
L 397.016181 301.108005 
L 397.291534 284.54103 
L 397.566888 278.122296 
L 397.842242 307.923914 
L 398.117595 307.191047 
L 398.392949 301.062508 
L 398.668303 304.80554 
L 398.943657 329.392244 
L 399.21901 323.610464 
L 399.494364 313.09825 
L 399.769718 310.177849 
L 400.045071 295.063082 
L 400.595779 325.162273 
L 400.871133 316.774881 
L 401.146486 324.333494 
L 401.42184 327.353496 
L 401.697194 313.603633 
L 401.972547 308.924843 
L 402.247901 293.35019 
L 402.523255 314.068438 
L 402.798609 321.084778 
L 403.073962 312.542451 
L 403.349316 315.893227 
L 403.900024 308.116968 
L 404.175377 310.93162 
L 404.450731 302.81229 
L 404.726085 235.55207 
L 405.001438 313.670034 
L 405.276792 319.282122 
L 405.552146 320.80319 
L 405.8275 323.644894 
L 406.102853 321.136423 
L 406.378207 309.781904 
L 406.653561 285.366121 
L 406.928914 322.369755 
L 407.204268 317.351583 
L 407.479622 321.651644 
L 407.754976 320.019908 
L 408.030329 327.327674 
L 408.305683 304.650605 
L 408.85639 320.693752 
L 409.131744 319.075542 
L 409.407098 305.816306 
L 409.682452 304.678887 
L 410.233159 267.99373 
L 410.508513 301.12645 
L 410.783867 285.502611 
L 411.05922 291.718454 
L 411.334574 294.375712 
L 411.609928 298.439681 
L 411.885281 287.872132 
L 412.160635 235.115547 
L 412.435989 42.632216 
L 412.711343 305.5962 
L 412.986696 248.014498 
L 413.26205 338.353879 
L 413.537404 299.258622 
L 414.088111 274.9781 
L 414.363465 305.201485 
L 414.638819 305.487992 
L 414.914172 260.522422 
L 415.189526 258.610328 
L 415.46488 270.797315 
L 415.740233 297.567864 
L 416.015587 299.734494 
L 416.290941 299.412328 
L 416.566295 267.530155 
L 416.841648 291.798381 
L 417.117002 290.561361 
L 417.392356 269.186484 
L 417.66771 256.733893 
L 417.943063 296.448889 
L 418.218417 274.951048 
L 418.493771 275.606447 
L 418.769124 303.272176 
L 419.044478 299.733265 
L 419.319832 323.366995 
L 419.595186 324.498266 
L 419.870539 285.256682 
L 420.421247 314.758267 
L 420.6966 312.538762 
L 420.971954 315.876012 
L 421.247308 316.279335 
L 421.522662 266.075488 
L 421.798015 339.315459 
L 422.073369 332.6053 
L 422.348723 308.666618 
L 422.624076 359.418886 
L 422.89943 356.400113 
L 423.174784 332.970503 
L 423.450138 325.601255 
L 423.725491 333.446375 
L 424.000845 321.244632 
L 424.551553 334.484193 
L 425.10226 315.089041 
L 425.377614 287.747938 
L 425.652967 280.44878 
L 425.928321 283.908994 
L 426.203675 265.469274 
L 426.479029 254.792287 
L 426.754382 280.169651 
L 427.029736 290.533079 
L 427.30509 277.853004 
L 427.580443 277.919405 
L 427.855797 252.246927 
L 428.131151 259.305076 
L 428.406505 249.578603 
L 428.957212 277.481652 
L 429.232566 237.005508 
L 429.507919 305.577756 
L 429.783273 296.201731 
L 430.058627 291.155278 
L 430.333981 314.528324 
L 430.609334 288.124209 
L 431.160042 314.138527 
L 431.435396 311.176318 
L 431.710749 296.671455 
L 431.986103 297.286276 
L 432.261457 313.034308 
L 432.53681 288.633281 
L 432.812164 302.839342 
L 433.087518 295.06923 
L 433.362872 273.181592 
L 433.638225 283.644621 
L 433.913579 316.490834 
L 434.464286 272.170826 
L 435.014994 297.951512 
L 435.290348 280.880384 
L 435.565701 279.768788 
L 435.841055 286.760535 
L 436.116409 298.931538 
L 436.391762 294.526958 
L 436.667116 309.368744 
L 436.94247 317.478237 
L 437.217824 316.005125 
L 437.493177 317.834833 
L 437.768531 317.674979 
L 438.043885 232.781685 
L 438.319239 274.444435 
L 438.594592 283.021192 
L 438.869946 322.560349 
L 439.1453 319.686675 
L 439.420653 304.1526 
L 439.696007 300.582948 
L 439.971361 341.196812 
L 440.246715 320.018678 
L 440.522068 322.688232 
L 440.797422 314.918121 
L 441.072776 323.732199 
L 441.348129 324.801988 
L 441.623483 332.063027 
L 442.449544 313.698315 
L 442.724898 306.096665 
L 443.000252 307.473865 
L 443.275605 315.047233 
L 443.826313 306.688123 
L 444.101667 319.578466 
L 444.37702 310.907027 
L 444.652374 337.858333 
L 444.927728 331.593304 
L 445.203081 331.670771 
L 445.478435 329.141396 
L 445.753789 318.128718 
L 446.029143 335.000643 
L 446.304496 249.604425 
L 446.57985 338.736298 
L 447.130558 368.611694 
L 447.681265 319.398938 
L 447.956619 339.465476 
L 448.231972 343.504851 
L 448.507326 303.823056 
L 448.78268 302.385604 
L 449.058034 296.356666 
L 449.333387 279.521629 
L 449.608741 273.897244 
L 449.884095 310.331554 
L 450.159448 330.839533 
L 450.434802 333.071334 
L 450.98551 318.037724 
L 451.260863 331.171536 
L 451.536217 330.765754 
L 451.811571 343.672083 
L 452.362278 339.043708 
L 452.637632 338.585052 
L 452.912986 338.799009 
L 453.188339 339.761819 
L 453.739047 334.007092 
L 454.014401 334.105464 
L 454.289754 293.846965 
L 454.565108 336.1147 
L 454.840462 332.881969 
L 455.115815 332.082702 
L 455.391169 348.045922 
L 456.21723 335.738429 
L 456.767938 343.118744 
L 457.043291 342.146096 
L 457.318645 344.395113 
L 457.593999 343.388035 
L 457.869353 340.89432 
L 458.144706 341.048026 
L 458.42006 346.629373 
L 458.695414 345.959218 
L 458.970767 344.556196 
L 459.246121 346.452305 
L 459.521475 343.240478 
L 459.796829 351.176592 
L 460.347536 223.217525 
L 460.62289 222.176018 
L 460.898244 256.738812 
L 461.173597 319.713727 
L 461.448951 316.64208 
L 461.724305 307.229166 
L 461.999658 319.895714 
L 462.275012 320.263377 
L 462.82572 325.661508 
L 463.101073 285.562863 
L 463.376427 322.383281 
L 463.651781 320.805649 
L 463.927134 321.360218 
L 464.202488 312.326034 
L 464.753196 324.219137 
L 465.028549 314.275018 
L 465.303903 317.687276 
L 465.579257 311.906726 
L 465.85461 320.187139 
L 466.405318 312.895359 
L 466.680672 317.451184 
L 466.956025 319.141943 
L 467.231379 323.407573 
L 467.506733 319.183751 
L 467.782087 325.277859 
L 468.332794 321.518842 
L 468.608148 326.235751 
L 468.883501 306.198725 
L 469.158855 303.166427 
L 469.434209 308.930991 
L 469.709563 286.015372 
L 470.26027 320.236325 
L 470.535624 324.499496 
L 470.810977 312.808054 
L 471.086331 321.987336 
L 471.361685 283.153994 
L 471.912392 316.783489 
L 472.187746 326.873936 
L 472.4631 341.185746 
L 472.738453 329.917301 
L 473.013807 334.7043 
L 473.289161 309.831089 
L 473.564515 297.454737 
L 473.839868 298.293353 
L 474.115222 280.515181 
L 474.390576 296.30994 
L 474.66593 303.610328 
L 475.216637 287.861065 
L 475.491991 300.36776 
L 475.767344 287.995096 
L 476.042698 291.770099 
L 476.318052 262.959574 
L 476.593406 280.665197 
L 476.868759 268.191703 
L 477.144113 207.30718 
L 477.419467 263.332155 
L 477.69482 263.48832 
L 477.970174 259.930964 
L 478.245528 259.243594 
L 478.520882 230.928614 
L 478.796235 255.399731 
L 479.071589 227.986079 
L 479.346943 264.613443 
L 479.89765 294.911836 
L 480.173004 289.743648 
L 480.448358 253.086773 
L 480.999065 231.934462 
L 481.274419 234.526548 
L 481.549773 192.683041 
L 481.825126 227.22739 
L 482.10048 231.480723 
L 482.375834 231.11429 
L 482.651187 240.243156 
L 482.926541 238.910224 
L 483.201895 241.514607 
L 483.477249 249.617952 
L 483.752602 251.233702 
L 484.027956 247.672657 
L 484.30331 269.533243 
L 484.578663 261.18397 
L 484.854017 247.451321 
L 485.129371 268.352786 
L 485.404725 233.652272 
L 485.955432 236.058683 
L 486.230786 218.311251 
L 486.506139 232.854234 
L 486.781493 238.483538 
L 487.332201 222.070269 
L 487.607554 230.456431 
L 487.882908 188.718673 
L 488.158262 224.348796 
L 488.433616 218.069012 
L 488.708969 262.384101 
L 488.984323 272.98239 
L 489.259677 267.949463 
L 489.810384 283.460175 
L 490.085738 282.632625 
L 490.361092 254.374209 
L 490.636445 252.808874 
L 490.911799 250.313929 
L 491.187153 189.329805 
L 491.462506 246.661891 
L 491.73786 267.792069 
L 492.013214 250.954573 
L 492.563921 242.533981 
L 492.839275 234.481051 
L 493.114629 218.273132 
L 493.389982 191.259115 
L 493.665336 198.32833 
L 493.94069 221.51693 
L 494.216044 267.231352 
L 494.491397 244.684625 
L 494.766751 62.497092 
L 495.042105 235.597567 
L 495.317458 215.293709 
L 495.592812 224.37216 
L 495.868166 205.340981 
L 496.418873 303.891916 
L 496.694227 314.466842 
L 496.969581 307.436975 
L 497.520288 280.907437 
L 497.795642 265.330324 
L 498.070996 233.464137 
L 498.346349 230.960585 
L 498.621703 242.256081 
L 498.897057 214.612487 
L 499.172411 223.435172 
L 499.447764 219.848305 
L 499.723118 186.542206 
L 500.273825 297.02928 
L 500.824533 265.832019 
L 501.099887 267.452688 
L 501.650594 265.433614 
L 502.201301 223.583959 
L 502.476655 264.58762 
L 502.752009 244.395659 
L 503.027363 201.604098 
L 503.302716 259.296468 
L 503.57807 238.361803 
L 503.853424 250.141779 
L 504.128778 199.560432 
L 504.954839 304.982609 
L 505.230192 289.918257 
L 505.505546 262.027504 
L 505.7809 257.247884 
L 506.056254 242.424542 
L 506.331607 258.746818 
L 506.606961 281.72146 
L 506.882315 271.046933 
L 507.157668 271.530182 
L 507.433022 239.400851 
L 507.708376 192.51335 
L 507.98373 205.202032 
L 508.259083 226.699873 
L 508.534437 227.101966 
L 508.809791 220.806196 
L 509.085144 199.062426 
L 509.360498 212.406508 
L 509.635852 202.552152 
L 509.911206 201.227827 
L 510.186559 184.545266 
L 510.461913 182.823767 
L 510.737267 151.012913 
L 511.012621 219.351529 
L 511.287974 223.500343 
L 511.563328 175.973428 
L 511.838682 190.351638 
L 512.114035 181.085052 
L 512.389389 242.755316 
L 512.664743 214.8412 
L 512.940097 63.606229 
L 513.21545 42.632216 
L 513.490804 127.35336 
L 514.041511 176.454218 
L 514.867573 145.27663 
L 515.142926 150.723947 
L 515.41828 158.752283 
L 515.693634 153.661563 
L 515.968987 160.097512 
L 516.244341 152.479877 
L 516.795049 129.839697 
L 517.070402 107.29789 
L 517.345756 163.721269 
L 517.62111 176.186156 
L 518.171817 238.583139 
L 518.447171 201.676647 
L 518.722525 212.538079 
L 518.997878 308.670307 
L 519.273232 327.7187 
L 519.548586 324.822892 
L 520.099293 223.946703 
L 520.650001 191.764498 
L 520.925354 139.889566 
L 521.200708 179.241818 
L 521.476062 244.698152 
L 521.751416 278.234194 
L 522.026769 278.990424 
L 522.302123 267.533844 
L 522.577477 314.904595 
L 523.128184 232.331636 
L 523.678892 209.1996 
L 523.954245 216.621723 
L 524.229599 203.364946 
L 524.504953 174.858142 
L 525.05566 269.581199 
L 525.331014 249.697878 
L 525.606368 214.134156 
L 525.881721 195.037806 
L 526.157075 227.713099 
L 526.432429 233.274772 
L 526.707783 203.941648 
L 526.983136 203.130084 
L 527.533844 175.619291 
L 528.084551 181.220313 
L 528.359905 169.147682 
L 528.635259 178.06505 
L 528.910612 181.287943 
L 529.185966 138.067236 
L 529.46132 179.864017 
L 529.736673 265.701676 
L 530.012027 213.645987 
L 530.562735 172.976789 
L 530.838088 183.277505 
L 531.113442 150.594834 
L 531.388796 146.44602 
L 531.66415 297.035429 
L 531.939503 272.392162 
L 532.490211 200.973291 
L 532.765564 200.889675 
L 533.040918 217.880877 
L 533.316272 277.31688 
L 533.591626 304.287861 
L 533.866979 317.928286 
L 534.142333 315.658366 
L 534.417687 284.247146 
L 534.69304 237.312918 
L 534.968394 213.457852 
L 535.243748 203.93673 
L 535.794455 296.970258 
L 536.345163 226.542479 
L 536.620516 225.767804 
L 536.89587 216.036413 
L 537.171224 201.773788 
L 537.446578 268.743812 
L 537.721931 250.478701 
L 537.997285 211.414186 
L 538.272639 272.485615 
L 538.547992 269.700474 
L 538.823346 321.303655 
L 539.0987 306.503677 
L 539.374054 321.324559 
L 539.649407 293.76335 
L 539.924761 278.815815 
L 540.200115 289.49772 
L 541.026176 341.162382 
L 541.576883 258.746818 
L 542.127591 238.802015 
L 542.402945 230.286741 
L 542.678298 238.968017 
L 542.953652 276.0442 
L 543.229006 250.563547 
L 543.504359 243.078712 
L 543.779713 227.199108 
L 544.055067 255.226351 
L 544.330421 296.399703 
L 544.605774 276.341774 
L 544.881128 245.893364 
L 545.156482 259.554693 
L 545.431835 262.915306 
L 545.707189 269.16558 
L 546.257897 227.752447 
L 546.53325 202.289009 
L 546.808604 232.113989 
L 547.083958 275.447824 
L 547.359312 276.726652 
L 547.634665 285.901015 
L 547.910019 291.349561 
L 548.185373 223.588877 
L 548.73608 259.80554 
L 549.011434 253.839314 
L 549.286788 204.057235 
L 549.562141 258.91036 
L 549.837495 228.987008 
L 550.663556 273.943971 
L 550.93891 274.01529 
L 551.214264 294.731079 
L 551.489617 285.303409 
L 551.764971 323.746954 
L 552.315678 314.444708 
L 552.866386 296.472252 
L 553.417093 291.499578 
L 553.692447 300.50425 
L 553.967801 313.655278 
L 554.243155 253.352376 
L 554.518508 290.999113 
L 554.793862 278.116148 
L 555.069216 274.021438 
L 555.344569 276.245862 
L 555.619923 276.694681 
L 555.895277 274.764142 
L 556.170631 290.592102 
L 556.445984 283.149075 
L 556.721338 284.497993 
L 556.996692 294.947496 
L 557.272045 290.250261 
L 557.547399 294.110109 
L 558.098107 278.106311 
L 558.37346 284.902545 
L 558.648814 279.971679 
L 558.924168 282.791249 
L 559.199521 282.691648 
L 559.474875 259.362869 
L 559.750229 275.419542 
L 560.025583 272.497911 
L 560.300936 266.001709 
L 560.57629 268.869236 
L 560.851644 264.55565 
L 561.126998 285.312016 
L 561.402351 277.62675 
L 561.677705 276.890194 
L 561.953059 280.24343 
L 562.228412 272.909841 
L 562.503766 273.511136 
L 562.77912 304.746517 
L 563.054474 254.179925 
L 563.329827 297.693287 
L 563.605181 288.260699 
L 564.155888 213.434489 
L 564.431242 259.946949 
L 564.706596 266.392736 
L 565.257303 251.493156 
L 565.532657 259.227608 
L 565.808011 257.206076 
L 566.083364 253.71881 
L 566.358718 244.974821 
L 566.634072 249.861421 
L 566.909426 243.470968 
L 567.184779 227.492993 
L 567.735487 234.778625 
L 568.010841 229.471487 
L 568.286194 206.746463 
L 568.561548 241.609289 
L 568.836902 241.391643 
L 569.112255 229.092758 
L 569.387609 236.474302 
L 569.662963 258.341036 
L 569.938317 252.906016 
L 570.21367 274.627652 
L 570.489024 255.978893 
L 570.764378 224.481598 
L 571.039731 155.515864 
L 571.315085 188.614153 
L 571.590439 170.068684 
L 571.865793 191.614481 
L 572.141146 197.061798 
L 572.4165 224.332811 
L 572.691854 222.702305 
L 572.967207 208.23679 
L 573.242561 220.575023 
L 573.517915 223.89014 
L 574.068622 213.750507 
L 574.61933 213.216842 
L 575.170037 238.719629 
L 575.445391 235.783243 
L 575.720745 245.63268 
L 575.996098 265.956212 
L 576.271452 264.636806 
L 576.546806 257.038844 
L 576.82216 253.555267 
L 577.097513 266.005398 
L 577.372867 238.037178 
L 577.648221 281.738675 
L 578.198928 241.480177 
L 578.474282 234.922493 
L 578.749636 234.719602 
L 579.024989 177.311279 
L 579.300343 193.016274 
L 579.575697 180.312836 
L 579.85105 297.44367 
L 580.126404 264.630658 
L 580.401758 218.0063 
L 580.677112 218.126805 
L 580.952465 215.194107 
L 581.227819 219.320788 
L 581.503173 226.051851 
L 581.778527 223.783161 
L 582.05388 198.955448 
L 582.329234 212.540539 
L 582.604588 209.327483 
L 582.879941 202.366476 
L 583.155295 184.685445 
L 583.430649 200.483893 
L 583.706003 194.639402 
L 583.981356 201.806989 
L 584.25671 184.655934 
L 584.532064 178.164651 
L 584.807417 190.506573 
L 585.082771 195.380877 
L 585.358125 210.2325 
L 585.633479 246.274553 
L 586.45954 167.472909 
L 586.734893 150.075925 
L 587.010247 152.565952 
L 587.285601 141.829942 
L 587.836308 178.350327 
L 588.111662 129.65894 
L 588.387016 184.296878 
L 588.662369 197.886888 
L 588.937723 205.254906 
L 589.488431 177.853551 
L 589.763784 200.330188 
L 590.039138 194.825078 
L 590.314492 197.027368 
L 590.589846 201.026166 
L 590.865199 188.300595 
L 591.415907 215.760973 
L 591.69126 169.236216 
L 591.966614 175.685691 
L 592.241968 162.009607 
L 592.517322 196.386724 
L 592.792675 189.189626 
L 593.068029 195.104207 
L 593.343383 186.87175 
L 593.618736 191.031631 
L 593.89409 189.247419 
L 594.169444 159.665908 
L 594.444798 205.291796 
L 594.720151 186.25201 
L 594.995505 206.083686 
L 595.270859 190.076198 
L 595.546212 254.616449 
L 595.821566 152.017531 
L 596.09692 174.962662 
L 596.372274 174.62328 
L 596.922981 187.97105 
L 597.198335 199.261629 
L 597.473689 169.412055 
L 597.749042 198.993566 
L 598.024396 184.759224 
L 598.575103 171.59713 
L 598.850457 152.889348 
L 599.125811 214.268187 
L 599.401165 201.083959 
L 599.676518 235.623389 
L 599.951872 244.309584 
L 600.227226 201.359399 
L 600.502579 229.723564 
L 600.777933 219.610984 
L 601.053287 215.325679 
L 601.328641 216.683205 
L 601.603994 214.035784 
L 602.154702 232.860382 
L 602.705409 216.486462 
L 602.980763 215.073602 
L 603.256117 207.999469 
L 603.53147 196.493703 
L 603.806824 198.752557 
L 604.082178 209.253704 
L 604.357532 163.900797 
L 604.632885 207.171919 
L 604.908239 198.800513 
L 605.458946 207.48056 
L 605.7343 214.763733 
L 606.009654 233.904349 
L 606.285008 243.056579 
L 606.560361 238.383937 
L 606.835715 248.840817 
L 607.111069 243.252092 
L 607.386422 243.812809 
L 607.661776 231.555732 
L 608.212484 183.514826 
L 608.487837 182.81024 
L 608.763191 189.123225 
L 609.038545 211.190391 
L 609.313898 211.205147 
L 609.864606 244.107923 
L 610.13996 239.841063 
L 610.966021 206.382489 
L 611.241375 150.1288 
L 611.516728 167.212224 
L 611.792082 166.035456 
L 612.067436 166.709301 
L 612.342789 42.632216 
L 612.618143 153.660333 
L 612.893497 127.564859 
L 613.168851 126.408995 
L 613.444204 156.092566 
L 613.719558 154.0489 
L 613.994912 154.721515 
L 614.270265 144.237582 
L 614.545619 158.722772 
L 614.820973 162.939216 
L 615.096327 157.1476 
L 615.37168 98.264935 
L 615.647034 159.696649 
L 615.922388 147.712552 
L 616.197741 155.100245 
L 616.473095 170.472007 
L 616.748449 170.292479 
L 617.023803 153.800513 
L 617.299156 175.496326 
L 617.57451 171.932822 
L 617.849864 160.324996 
L 618.125218 187.741107 
L 618.400571 167.74466 
L 618.675925 171.534418 
L 618.951279 153.366449 
L 619.226632 178.795457 
L 619.501986 151.239167 
L 619.77734 204.856502 
L 620.052694 156.755344 
L 620.328047 193.307699 
L 620.603401 188.535456 
L 620.878755 205.733237 
L 621.154108 175.256546 
L 621.429462 168.162738 
L 621.704816 184.698971 
L 622.255523 176.836637 
L 622.530877 176.836637 
L 622.806231 238.913913 
L 623.081584 274.030046 
L 623.356938 230.552343 
L 623.632292 211.444927 
L 623.907646 251.013596 
L 624.182999 237.492446 
L 624.458353 248.082128 
L 624.733707 218.457579 
L 625.009061 204.567536 
L 625.284414 227.790566 
L 625.559768 281.944025 
L 625.835122 284.628335 
L 626.110475 231.213891 
L 626.385829 221.536604 
L 627.487244 161.10213 
L 627.762598 281.765727 
L 628.037951 302.400359 
L 628.313305 257.325351 
L 628.588659 307.133254 
L 628.864013 294.460557 
L 629.139366 266.118525 
L 629.41472 257.233128 
L 629.965427 166.277696 
L 630.240781 261.201185 
L 630.516135 244.25794 
L 630.791489 238.430663 
L 631.066842 192.091583 
L 631.342196 313.496654 
L 631.892903 267.589178 
L 632.168257 227.410607 
L 632.443611 222.844944 
L 632.718965 258.438178 
L 632.994318 241.98556 
L 633.269672 211.725286 
L 633.545026 210.632133 
L 633.82038 191.110328 
L 634.095733 283.045785 
L 634.371087 265.593468 
L 634.646441 223.280237 
L 635.747856 158.529718 
L 636.023209 243.145113 
L 636.573917 159.524499 
L 636.84927 175.061033 
L 637.124624 160.331144 
L 637.399978 179.982063 
L 637.675332 178.703234 
L 637.950685 259.128007 
L 638.226039 228.899704 
L 638.501393 237.560076 
L 638.776746 199.18785 
L 639.0521 195.698124 
L 639.327454 196.567482 
L 639.602808 213.027477 
L 639.878161 193.663066 
L 640.153515 182.555704 
L 640.428869 221.51693 
L 640.704223 202.167274 
L 640.979576 201.387681 
L 641.25493 217.389019 
L 641.530284 192.706404 
L 641.805637 247.860792 
L 642.080991 216.029035 
L 642.356345 227.1241 
L 642.907052 293.297315 
L 643.182406 305.59743 
L 644.008467 204.809776 
L 644.559175 278.753103 
L 644.834528 281.218536 
L 645.109882 264.747474 
L 645.660589 189.567126 
L 645.935943 239.896397 
L 646.211297 248.270263 
L 646.486651 243.36153 
L 646.762004 185.212962 
L 647.037358 226.033407 
L 647.312712 197.108524 
L 647.588066 214.327209 
L 647.863419 221.980505 
L 648.138773 194.140167 
L 648.414127 213.511956 
L 648.68948 42.632216 
L 648.964834 42.632216 
L 649.240188 219.14249 
L 649.515542 118.75324 
L 649.790895 59.074996 
L 650.066249 228.722635 
L 650.89231 146.211159 
L 651.443018 189.402354 
L 651.718371 194.871805 
L 651.993725 246.411044 
L 652.269079 231.555732 
L 652.544432 238.456486 
L 652.819786 251.526357 
L 653.09514 243.371367 
L 653.370494 204.502365 
L 653.921201 180.769034 
L 654.196555 179.763186 
L 654.471909 229.11981 
L 654.747262 168.280784 
L 655.022616 189.34702 
L 655.29797 193.296632 
L 655.573323 167.447086 
L 655.848677 183.519744 
L 656.124031 169.408366 
L 656.399385 194.280346 
L 656.674738 196.603141 
L 656.950092 164.055732 
L 657.225446 168.173805 
L 657.500799 165.50548 
L 657.776153 159.498676 
L 658.051507 189.742965 
L 658.326861 197.806961 
L 658.877568 172.210721 
L 659.152922 208.396643 
L 659.428275 168.618935 
L 659.703629 224.714 
L 659.978983 223.287615 
L 660.254337 239.786959 
L 660.52969 311.266082 
L 661.080398 254.665634 
L 661.355752 243.871832 
L 661.631105 220.476652 
L 662.181813 209.342238 
L 662.457166 201.205693 
L 662.73252 199.423941 
L 663.007874 190.903748 
L 663.283228 151.261301 
L 663.558581 208.247857 
L 663.833935 204.868799 
L 664.109289 189.240042 
L 664.384642 187.098004 
L 664.659996 167.974603 
L 664.93535 189.894211 
L 665.210704 185.656863 
L 665.486057 188.606776 
L 665.761411 195.91946 
L 666.587472 204.723701 
L 666.862826 213.848878 
L 667.413533 193.257284 
L 667.688887 199.15465 
L 667.964241 183.350054 
L 668.239595 176.333713 
L 668.514948 172.984167 
L 668.790302 176.788681 
L 669.065656 161.635795 
L 669.341009 163.006847 
L 669.616363 201.567208 
L 669.891717 196.851529 
L 670.167071 165.06035 
L 670.442424 175.806196 
L 670.717778 181.557235 
L 670.993132 144.135522 
L 671.268485 145.378691 
L 671.543839 187.723892 
L 671.819193 156.328658 
L 672.094547 178.983593 
L 672.3699 133.322045 
L 672.645254 119.970586 
L 672.920608 167.311825 
L 673.195961 195.463263 
L 673.746669 88.630686 
L 674.022023 150.527204 
L 674.297376 154.719056 
L 674.57273 149.215176 
L 674.848084 152.595463 
L 675.123438 151.940063 
L 675.123438 151.940063 
" clip-path="url(#pddbba0d0e3)" style="fill: none; stroke: #2878b5; stroke-width: 1.5; stroke-linecap: square"/>
   </g>
   <g id="patch_3">
    <path d="M 41.658438 389.6775 
L 41.658438 26.10625 
" style="fill: none; stroke: #000000; stroke-width: 0.8; stroke-linejoin: miter; stroke-linecap: square"/>
   </g>
   <g id="patch_4">
    <path d="M 705.288438 389.6775 
L 705.288438 26.10625 
" style="fill: none; stroke: #000000; stroke-width: 0.8; stroke-linejoin: miter; stroke-linecap: square"/>
   </g>
   <g id="patch_5">
    <path d="M 41.658438 389.6775 
L 705.288438 389.6775 
" style="fill: none; stroke: #000000; stroke-width: 0.8; stroke-linejoin: miter; stroke-linecap: square"/>
   </g>
   <g id="patch_6">
    <path d="M 41.658438 26.10625 
L 705.288438 26.10625 
" style="fill: none; stroke: #000000; stroke-width: 0.8; stroke-linejoin: miter; stroke-linecap: square"/>
   </g>
   <g id="text_14">
    <!-- 原始 COD_mg/L 时间序列数据 -->
    <g transform="translate(309.301563 16.10625) scale(0.12 -0.12)">
     <defs>
      <path id="DejaVuSans-539f" d="M 319 -1131 
L 319 4513 
L 3519 4513 
L 3519 -1131 
L 319 -1131 
z
M 678 -775 
L 3163 -775 
L 3163 4153 
L 678 4153 
L 678 -775 
z
" transform="scale(0.015625)"/>
      <path id="DejaVuSans-59cb" d="M 319 -1131 
L 319 4513 
L 3519 4513 
L 3519 -1131 
L 319 -1131 
z
M 678 -775 
L 3163 -775 
L 3163 4153 
L 678 4153 
L 678 -775 
z
" transform="scale(0.015625)"/>
      <path id="DejaVuSans-5217" d="M 319 -1131 
L 319 4513 
L 3519 4513 
L 3519 -1131 
L 319 -1131 
z
M 678 -775 
L 3163 -775 
L 3163 4153 
L 678 4153 
L 678 -775 
z
" transform="scale(0.015625)"/>
      <path id="DejaVuSans-6570" d="M 319 -1131 
L 319 4513 
L 3519 4513 
L 3519 -1131 
L 319 -1131 
z
M 678 -775 
L 3163 -775 
L 3163 4153 
L 678 4153 
L 678 -775 
z
" transform="scale(0.015625)"/>
      <path id="DejaVuSans-636e" d="M 319 -1131 
L 319 4513 
L 3519 4513 
L 3519 -1131 
L 319 -1131 
z
M 678 -775 
L 3163 -775 
L 3163 4153 
L 678 4153 
L 678 -775 
z
" transform="scale(0.015625)"/>
     </defs>
     <use xlink:href="#DejaVuSans-539f"/>
     <use xlink:href="#DejaVuSans-59cb" transform="translate(60.009766 0)"/>
     <use xlink:href="#DejaVuSans-20" transform="translate(120.019531 0)"/>
     <use xlink:href="#DejaVuSans-43" transform="translate(151.806641 0)"/>
     <use xlink:href="#DejaVuSans-4f" transform="translate(221.630859 0)"/>
     <use xlink:href="#DejaVuSans-44" transform="translate(300.341797 0)"/>
     <use xlink:href="#DejaVuSans-5f" transform="translate(377.34375 0)"/>
     <use xlink:href="#DejaVuSans-6d" transform="translate(427.34375 0)"/>
     <use xlink:href="#DejaVuSans-67" transform="translate(524.755859 0)"/>
     <use xlink:href="#DejaVuSans-2f" transform="translate(588.232422 0)"/>
     <use xlink:href="#DejaVuSans-4c" transform="translate(621.923828 0)"/>
     <use xlink:href="#DejaVuSans-20" transform="translate(677.636719 0)"/>
     <use xlink:href="#DejaVuSans-65f6" transform="translate(709.423828 0)"/>
     <use xlink:href="#DejaVuSans-95f4" transform="translate(769.433594 0)"/>
     <use xlink:href="#DejaVuSans-5e8f" transform="translate(829.443359 0)"/>
     <use xlink:href="#DejaVuSans-5217" transform="translate(889.453125 0)"/>
     <use xlink:href="#DejaVuSans-6570" transform="translate(949.462891 0)"/>
     <use xlink:href="#DejaVuSans-636e" transform="translate(1009.472656 0)"/>
    </g>
   </g>
   <g id="legend_1">
    <g id="patch_7">
     <path d="M 47.958438 385.1775 
L 146.009219 385.1775 
Q 147.809219 385.1775 147.809219 383.3775 
L 147.809219 370.816875 
Q 147.809219 369.016875 146.009219 369.016875 
L 47.958438 369.016875 
Q 46.158438 369.016875 46.158438 370.816875 
L 46.158438 383.3775 
Q 46.158438 385.1775 47.958438 385.1775 
z
" style="fill: #ffffff; opacity: 0.8; stroke: #cccccc; stroke-width: 0.5; stroke-linejoin: miter"/>
    </g>
    <g id="line2d_24">
     <path d="M 49.758438 376.305469 
L 58.758438 376.305469 
L 67.758438 376.305469 
" style="fill: none; stroke: #2878b5; stroke-width: 1.5; stroke-linecap: square"/>
    </g>
    <g id="text_15">
     <!-- 原始 COD_mg/L 值 -->
     <g transform="translate(74.958438 379.455469) scale(0.09 -0.09)">
      <use xlink:href="#DejaVuSans-539f"/>
      <use xlink:href="#DejaVuSans-59cb" transform="translate(60.009766 0)"/>
      <use xlink:href="#DejaVuSans-20" transform="translate(120.019531 0)"/>
      <use xlink:href="#DejaVuSans-43" transform="translate(151.806641 0)"/>
      <use xlink:href="#DejaVuSans-4f" transform="translate(221.630859 0)"/>
      <use xlink:href="#DejaVuSans-44" transform="translate(300.341797 0)"/>
      <use xlink:href="#DejaVuSans-5f" transform="translate(377.34375 0)"/>
      <use xlink:href="#DejaVuSans-6d" transform="translate(427.34375 0)"/>
      <use xlink:href="#DejaVuSans-67" transform="translate(524.755859 0)"/>
      <use xlink:href="#DejaVuSans-2f" transform="translate(588.232422 0)"/>
      <use xlink:href="#DejaVuSans-4c" transform="translate(621.923828 0)"/>
      <use xlink:href="#DejaVuSans-20" transform="translate(677.636719 0)"/>
      <use xlink:href="#DejaVuSans-503c" transform="translate(709.423828 0)"/>
     </g>
    </g>
   </g>
  </g>
 </g>
 <defs>
  <clipPath id="pddbba0d0e3">
   <rect x="41.658438" y="26.10625" width="663.63" height="363.57125"/>
  </clipPath>
 </defs>
</svg>
