<?xml version="1.0" encoding="utf-8" standalone="no"?>
<!DOCTYPE svg PUBLIC "-//W3C//DTD SVG 1.1//EN"
  "http://www.w3.org/Graphics/SVG/1.1/DTD/svg11.dtd">
<svg xmlns:xlink="http://www.w3.org/1999/xlink" width="712.488437pt" height="418.722912pt" viewBox="0 0 712.488437 418.722912" xmlns="http://www.w3.org/2000/svg" version="1.1">
 <metadata>
  <rdf:RDF xmlns:dc="http://purl.org/dc/elements/1.1/" xmlns:cc="http://creativecommons.org/ns#" xmlns:rdf="http://www.w3.org/1999/02/22-rdf-syntax-ns#">
   <cc:Work>
    <dc:type rdf:resource="http://purl.org/dc/dcmitype/StillImage"/>
    <dc:date>2026-01-16T01:39:49.612633</dc:date>
    <dc:format>image/svg+xml</dc:format>
    <dc:creator>
     <cc:Agent>
      <dc:title>Matplotlib v3.10.0, https://matplotlib.org/</dc:title>
     </cc:Agent>
    </dc:creator>
   </cc:Work>
  </rdf:RDF>
 </metadata>
 <defs>
  <style type="text/css">*{stroke-linejoin: round; stroke-linecap: butt}</style>
 </defs>
 <g id="figure_1">
  <g id="patch_1">
   <path d="M 0 418.722912 
L 712.488437 418.722912 
L 712.488437 0 
L 0 0 
z
" style="fill: #ffffff"/>
  </g>
  <g id="axes_1">
   <g id="patch_2">
    <path d="M 41.658438 385.634475 
L 705.288438 385.634475 
L 705.288438 40.772875 
L 41.658438 40.772875 
z
" style="fill: #ffffff"/>
   </g>
   <g id="matplotlib.axis_1">
    <g id="xtick_1">
     <g id="line2d_1">
      <path d="M 71.548084 385.634475 
L 71.548084 40.772875 
" clip-path="url(#p54ea7a5dee)" style="fill: none; stroke-dasharray: 1.85,0.8; stroke-dashoffset: 0; stroke: #b2b2b2; stroke-opacity: 0.3; stroke-width: 0.5"/>
     </g>
     <g id="line2d_2">
      <defs>
       <path id="m0cd8bfedfb" d="M 0 0 
L 0 -3.5 
" style="stroke: #000000; stroke-width: 0.8"/>
      </defs>
      <g>
       <use xlink:href="#m0cd8bfedfb" x="71.548084" y="385.634475" style="stroke: #000000; stroke-width: 0.8"/>
      </g>
     </g>
     <g id="text_1">
      <!-- 0 -->
      <g transform="translate(68.684959 395.973069) scale(0.09 -0.09)">
       <defs>
        <path id="DejaVuSans-30" d="M 2034 4250 
Q 1547 4250 1301 3770 
Q 1056 3291 1056 2328 
Q 1056 1369 1301 889 
Q 1547 409 2034 409 
Q 2525 409 2770 889 
Q 3016 1369 3016 2328 
Q 3016 3291 2770 3770 
Q 2525 4250 2034 4250 
z
M 2034 4750 
Q 2819 4750 3233 4129 
Q 3647 3509 3647 2328 
Q 3647 1150 3233 529 
Q 2819 -91 2034 -91 
Q 1250 -91 836 529 
Q 422 1150 422 2328 
Q 422 3509 836 4129 
Q 1250 4750 2034 4750 
z
" transform="scale(0.015625)"/>
       </defs>
       <use xlink:href="#DejaVuSans-30"/>
      </g>
     </g>
    </g>
    <g id="xtick_2">
     <g id="line2d_3">
      <path d="M 209.224944 385.634475 
L 209.224944 40.772875 
" clip-path="url(#p54ea7a5dee)" style="fill: none; stroke-dasharray: 1.85,0.8; stroke-dashoffset: 0; stroke: #b2b2b2; stroke-opacity: 0.3; stroke-width: 0.5"/>
     </g>
     <g id="line2d_4">
      <g>
       <use xlink:href="#m0cd8bfedfb" x="209.224944" y="385.634475" style="stroke: #000000; stroke-width: 0.8"/>
      </g>
     </g>
     <g id="text_2">
      <!-- 500 -->
      <g transform="translate(200.635569 395.973069) scale(0.09 -0.09)">
       <defs>
        <path id="DejaVuSans-35" d="M 691 4666 
L 3169 4666 
L 3169 4134 
L 1269 4134 
L 1269 2991 
Q 1406 3038 1543 3061 
Q 1681 3084 1819 3084 
Q 2600 3084 3056 2656 
Q 3513 2228 3513 1497 
Q 3513 744 3044 326 
Q 2575 -91 1722 -91 
Q 1428 -91 1123 -41 
Q 819 9 494 109 
L 494 744 
Q 775 591 1075 516 
Q 1375 441 1709 441 
Q 2250 441 2565 725 
Q 2881 1009 2881 1497 
Q 2881 1984 2565 2268 
Q 2250 2553 1709 2553 
Q 1456 2553 1204 2497 
Q 953 2441 691 2322 
L 691 4666 
z
" transform="scale(0.015625)"/>
       </defs>
       <use xlink:href="#DejaVuSans-35"/>
       <use xlink:href="#DejaVuSans-30" transform="translate(63.623047 0)"/>
       <use xlink:href="#DejaVuSans-30" transform="translate(127.246094 0)"/>
      </g>
     </g>
    </g>
    <g id="xtick_3">
     <g id="line2d_5">
      <path d="M 346.901804 385.634475 
L 346.901804 40.772875 
" clip-path="url(#p54ea7a5dee)" style="fill: none; stroke-dasharray: 1.85,0.8; stroke-dashoffset: 0; stroke: #b2b2b2; stroke-opacity: 0.3; stroke-width: 0.5"/>
     </g>
     <g id="line2d_6">
      <g>
       <use xlink:href="#m0cd8bfedfb" x="346.901804" y="385.634475" style="stroke: #000000; stroke-width: 0.8"/>
      </g>
     </g>
     <g id="text_3">
      <!-- 1000 -->
      <g transform="translate(335.449304 395.973069) scale(0.09 -0.09)">
       <defs>
        <path id="DejaVuSans-31" d="M 794 531 
L 1825 531 
L 1825 4091 
L 703 3866 
L 703 4441 
L 1819 4666 
L 2450 4666 
L 2450 531 
L 3481 531 
L 3481 0 
L 794 0 
L 794 531 
z
" transform="scale(0.015625)"/>
       </defs>
       <use xlink:href="#DejaVuSans-31"/>
       <use xlink:href="#DejaVuSans-30" transform="translate(63.623047 0)"/>
       <use xlink:href="#DejaVuSans-30" transform="translate(127.246094 0)"/>
       <use xlink:href="#DejaVuSans-30" transform="translate(190.869141 0)"/>
      </g>
     </g>
    </g>
    <g id="xtick_4">
     <g id="line2d_7">
      <path d="M 484.578663 385.634475 
L 484.578663 40.772875 
" clip-path="url(#p54ea7a5dee)" style="fill: none; stroke-dasharray: 1.85,0.8; stroke-dashoffset: 0; stroke: #b2b2b2; stroke-opacity: 0.3; stroke-width: 0.5"/>
     </g>
     <g id="line2d_8">
      <g>
       <use xlink:href="#m0cd8bfedfb" x="484.578663" y="385.634475" style="stroke: #000000; stroke-width: 0.8"/>
      </g>
     </g>
     <g id="text_4">
      <!-- 1500 -->
      <g transform="translate(473.126163 395.973069) scale(0.09 -0.09)">
       <use xlink:href="#DejaVuSans-31"/>
       <use xlink:href="#DejaVuSans-35" transform="translate(63.623047 0)"/>
       <use xlink:href="#DejaVuSans-30" transform="translate(127.246094 0)"/>
       <use xlink:href="#DejaVuSans-30" transform="translate(190.869141 0)"/>
      </g>
     </g>
    </g>
    <g id="xtick_5">
     <g id="line2d_9">
      <path d="M 622.255523 385.634475 
L 622.255523 40.772875 
" clip-path="url(#p54ea7a5dee)" style="fill: none; stroke-dasharray: 1.85,0.8; stroke-dashoffset: 0; stroke: #b2b2b2; stroke-opacity: 0.3; stroke-width: 0.5"/>
     </g>
     <g id="line2d_10">
      <g>
       <use xlink:href="#m0cd8bfedfb" x="622.255523" y="385.634475" style="stroke: #000000; stroke-width: 0.8"/>
      </g>
     </g>
     <g id="text_5">
      <!-- 2000 -->
      <g transform="translate(610.803023 395.973069) scale(0.09 -0.09)">
       <defs>
        <path id="DejaVuSans-32" d="M 1228 531 
L 3431 531 
L 3431 0 
L 469 0 
L 469 531 
Q 828 903 1448 1529 
Q 2069 2156 2228 2338 
Q 2531 2678 2651 2914 
Q 2772 3150 2772 3378 
Q 2772 3750 2511 3984 
Q 2250 4219 1831 4219 
Q 1534 4219 1204 4116 
Q 875 4013 500 3803 
L 500 4441 
Q 881 4594 1212 4672 
Q 1544 4750 1819 4750 
Q 2544 4750 2975 4387 
Q 3406 4025 3406 3419 
Q 3406 3131 3298 2873 
Q 3191 2616 2906 2266 
Q 2828 2175 2409 1742 
Q 1991 1309 1228 531 
z
" transform="scale(0.015625)"/>
       </defs>
       <use xlink:href="#DejaVuSans-32"/>
       <use xlink:href="#DejaVuSans-30" transform="translate(63.623047 0)"/>
       <use xlink:href="#DejaVuSans-30" transform="translate(127.246094 0)"/>
       <use xlink:href="#DejaVuSans-30" transform="translate(190.869141 0)"/>
      </g>
     </g>
    </g>
    <g id="text_6">
     <!-- 时间 / 序号 -->
     <g transform="translate(356.607813 409.443225) scale(0.1 -0.1)">
      <defs>
       <path id="DejaVuSans-65f6" d="M 319 -1131 
L 319 4513 
L 3519 4513 
L 3519 -1131 
L 319 -1131 
z
M 678 -775 
L 3163 -775 
L 3163 4153 
L 678 4153 
L 678 -775 
z
" transform="scale(0.015625)"/>
       <path id="DejaVuSans-95f4" d="M 319 -1131 
L 319 4513 
L 3519 4513 
L 3519 -1131 
L 319 -1131 
z
M 678 -775 
L 3163 -775 
L 3163 4153 
L 678 4153 
L 678 -775 
z
" transform="scale(0.015625)"/>
       <path id="DejaVuSans-20" transform="scale(0.015625)"/>
       <path id="DejaVuSans-2f" d="M 1625 4666 
L 2156 4666 
L 531 -594 
L 0 -594 
L 1625 4666 
z
" transform="scale(0.015625)"/>
       <path id="DejaVuSans-5e8f" d="M 319 -1131 
L 319 4513 
L 3519 4513 
L 3519 -1131 
L 319 -1131 
z
M 678 -775 
L 3163 -775 
L 3163 4153 
L 678 4153 
L 678 -775 
z
" transform="scale(0.015625)"/>
       <path id="DejaVuSans-53f7" d="M 319 -1131 
L 319 4513 
L 3519 4513 
L 3519 -1131 
L 319 -1131 
z
M 678 -775 
L 3163 -775 
L 3163 4153 
L 678 4153 
L 678 -775 
z
" transform="scale(0.015625)"/>
      </defs>
      <use xlink:href="#DejaVuSans-65f6"/>
      <use xlink:href="#DejaVuSans-95f4" transform="translate(60.009766 0)"/>
      <use xlink:href="#DejaVuSans-20" transform="translate(120.019531 0)"/>
      <use xlink:href="#DejaVuSans-2f" transform="translate(151.806641 0)"/>
      <use xlink:href="#DejaVuSans-20" transform="translate(185.498047 0)"/>
      <use xlink:href="#DejaVuSans-5e8f" transform="translate(217.285156 0)"/>
      <use xlink:href="#DejaVuSans-53f7" transform="translate(277.294922 0)"/>
     </g>
    </g>
   </g>
   <g id="matplotlib.axis_2">
    <g id="ytick_1">
     <g id="line2d_11">
      <path d="M 41.658438 341.250058 
L 705.288438 341.250058 
" clip-path="url(#p54ea7a5dee)" style="fill: none; stroke-dasharray: 1.85,0.8; stroke-dashoffset: 0; stroke: #b2b2b2; stroke-opacity: 0.3; stroke-width: 0.5"/>
     </g>
     <g id="line2d_12">
      <defs>
       <path id="m5f4da490f6" d="M 0 0 
L 3.5 0 
" style="stroke: #000000; stroke-width: 0.8"/>
      </defs>
      <g>
       <use xlink:href="#m5f4da490f6" x="41.658438" y="341.250058" style="stroke: #000000; stroke-width: 0.8"/>
      </g>
     </g>
     <g id="text_7">
      <!-- 50 -->
      <g transform="translate(26.705938 344.669355) scale(0.09 -0.09)">
       <use xlink:href="#DejaVuSans-35"/>
       <use xlink:href="#DejaVuSans-30" transform="translate(63.623047 0)"/>
      </g>
     </g>
    </g>
    <g id="ytick_2">
     <g id="line2d_13">
      <path d="M 41.658438 282.931846 
L 705.288438 282.931846 
" clip-path="url(#p54ea7a5dee)" style="fill: none; stroke-dasharray: 1.85,0.8; stroke-dashoffset: 0; stroke: #b2b2b2; stroke-opacity: 0.3; stroke-width: 0.5"/>
     </g>
     <g id="line2d_14">
      <g>
       <use xlink:href="#m5f4da490f6" x="41.658438" y="282.931846" style="stroke: #000000; stroke-width: 0.8"/>
      </g>
     </g>
     <g id="text_8">
      <!-- 100 -->
      <g transform="translate(20.979688 286.351143) scale(0.09 -0.09)">
       <use xlink:href="#DejaVuSans-31"/>
       <use xlink:href="#DejaVuSans-30" transform="translate(63.623047 0)"/>
       <use xlink:href="#DejaVuSans-30" transform="translate(127.246094 0)"/>
      </g>
     </g>
    </g>
    <g id="ytick_3">
     <g id="line2d_15">
      <path d="M 41.658438 224.613633 
L 705.288438 224.613633 
" clip-path="url(#p54ea7a5dee)" style="fill: none; stroke-dasharray: 1.85,0.8; stroke-dashoffset: 0; stroke: #b2b2b2; stroke-opacity: 0.3; stroke-width: 0.5"/>
     </g>
     <g id="line2d_16">
      <g>
       <use xlink:href="#m5f4da490f6" x="41.658438" y="224.613633" style="stroke: #000000; stroke-width: 0.8"/>
      </g>
     </g>
     <g id="text_9">
      <!-- 150 -->
      <g transform="translate(20.979688 228.03293) scale(0.09 -0.09)">
       <use xlink:href="#DejaVuSans-31"/>
       <use xlink:href="#DejaVuSans-35" transform="translate(63.623047 0)"/>
       <use xlink:href="#DejaVuSans-30" transform="translate(127.246094 0)"/>
      </g>
     </g>
    </g>
    <g id="ytick_4">
     <g id="line2d_17">
      <path d="M 41.658438 166.295421 
L 705.288438 166.295421 
" clip-path="url(#p54ea7a5dee)" style="fill: none; stroke-dasharray: 1.85,0.8; stroke-dashoffset: 0; stroke: #b2b2b2; stroke-opacity: 0.3; stroke-width: 0.5"/>
     </g>
     <g id="line2d_18">
      <g>
       <use xlink:href="#m5f4da490f6" x="41.658438" y="166.295421" style="stroke: #000000; stroke-width: 0.8"/>
      </g>
     </g>
     <g id="text_10">
      <!-- 200 -->
      <g transform="translate(20.979688 169.714718) scale(0.09 -0.09)">
       <use xlink:href="#DejaVuSans-32"/>
       <use xlink:href="#DejaVuSans-30" transform="translate(63.623047 0)"/>
       <use xlink:href="#DejaVuSans-30" transform="translate(127.246094 0)"/>
      </g>
     </g>
    </g>
    <g id="ytick_5">
     <g id="line2d_19">
      <path d="M 41.658438 107.977208 
L 705.288438 107.977208 
" clip-path="url(#p54ea7a5dee)" style="fill: none; stroke-dasharray: 1.85,0.8; stroke-dashoffset: 0; stroke: #b2b2b2; stroke-opacity: 0.3; stroke-width: 0.5"/>
     </g>
     <g id="line2d_20">
      <g>
       <use xlink:href="#m5f4da490f6" x="41.658438" y="107.977208" style="stroke: #000000; stroke-width: 0.8"/>
      </g>
     </g>
     <g id="text_11">
      <!-- 250 -->
      <g transform="translate(20.979688 111.396505) scale(0.09 -0.09)">
       <use xlink:href="#DejaVuSans-32"/>
       <use xlink:href="#DejaVuSans-35" transform="translate(63.623047 0)"/>
       <use xlink:href="#DejaVuSans-30" transform="translate(127.246094 0)"/>
      </g>
     </g>
    </g>
    <g id="ytick_6">
     <g id="line2d_21">
      <path d="M 41.658438 49.658996 
L 705.288438 49.658996 
" clip-path="url(#p54ea7a5dee)" style="fill: none; stroke-dasharray: 1.85,0.8; stroke-dashoffset: 0; stroke: #b2b2b2; stroke-opacity: 0.3; stroke-width: 0.5"/>
     </g>
     <g id="line2d_22">
      <g>
       <use xlink:href="#m5f4da490f6" x="41.658438" y="49.658996" style="stroke: #000000; stroke-width: 0.8"/>
      </g>
     </g>
     <g id="text_12">
      <!-- 300 -->
      <g transform="translate(20.979688 53.078293) scale(0.09 -0.09)">
       <defs>
        <path id="DejaVuSans-33" d="M 2597 2516 
Q 3050 2419 3304 2112 
Q 3559 1806 3559 1356 
Q 3559 666 3084 287 
Q 2609 -91 1734 -91 
Q 1441 -91 1130 -33 
Q 819 25 488 141 
L 488 750 
Q 750 597 1062 519 
Q 1375 441 1716 441 
Q 2309 441 2620 675 
Q 2931 909 2931 1356 
Q 2931 1769 2642 2001 
Q 2353 2234 1838 2234 
L 1294 2234 
L 1294 2753 
L 1863 2753 
Q 2328 2753 2575 2939 
Q 2822 3125 2822 3475 
Q 2822 3834 2567 4026 
Q 2313 4219 1838 4219 
Q 1578 4219 1281 4162 
Q 984 4106 628 3988 
L 628 4550 
Q 988 4650 1302 4700 
Q 1616 4750 1894 4750 
Q 2613 4750 3031 4423 
Q 3450 4097 3450 3541 
Q 3450 3153 3228 2886 
Q 3006 2619 2597 2516 
z
" transform="scale(0.015625)"/>
       </defs>
       <use xlink:href="#DejaVuSans-33"/>
       <use xlink:href="#DejaVuSans-30" transform="translate(63.623047 0)"/>
       <use xlink:href="#DejaVuSans-30" transform="translate(127.246094 0)"/>
      </g>
     </g>
    </g>
    <g id="text_13">
     <!-- COD_mg/L 值 -->
     <g transform="translate(14.621875 244.085706) rotate(-90) scale(0.1 -0.1)">
      <defs>
       <path id="DejaVuSans-43" d="M 4122 4306 
L 4122 3641 
Q 3803 3938 3442 4084 
Q 3081 4231 2675 4231 
Q 1875 4231 1450 3742 
Q 1025 3253 1025 2328 
Q 1025 1406 1450 917 
Q 1875 428 2675 428 
Q 3081 428 3442 575 
Q 3803 722 4122 1019 
L 4122 359 
Q 3791 134 3420 21 
Q 3050 -91 2638 -91 
Q 1578 -91 968 557 
Q 359 1206 359 2328 
Q 359 3453 968 4101 
Q 1578 4750 2638 4750 
Q 3056 4750 3426 4639 
Q 3797 4528 4122 4306 
z
" transform="scale(0.015625)"/>
       <path id="DejaVuSans-4f" d="M 2522 4238 
Q 1834 4238 1429 3725 
Q 1025 3213 1025 2328 
Q 1025 1447 1429 934 
Q 1834 422 2522 422 
Q 3209 422 3611 934 
Q 4013 1447 4013 2328 
Q 4013 3213 3611 3725 
Q 3209 4238 2522 4238 
z
M 2522 4750 
Q 3503 4750 4090 4092 
Q 4678 3434 4678 2328 
Q 4678 1225 4090 567 
Q 3503 -91 2522 -91 
Q 1538 -91 948 565 
Q 359 1222 359 2328 
Q 359 3434 948 4092 
Q 1538 4750 2522 4750 
z
" transform="scale(0.015625)"/>
       <path id="DejaVuSans-44" d="M 1259 4147 
L 1259 519 
L 2022 519 
Q 2988 519 3436 956 
Q 3884 1394 3884 2338 
Q 3884 3275 3436 3711 
Q 2988 4147 2022 4147 
L 1259 4147 
z
M 628 4666 
L 1925 4666 
Q 3281 4666 3915 4102 
Q 4550 3538 4550 2338 
Q 4550 1131 3912 565 
Q 3275 0 1925 0 
L 628 0 
L 628 4666 
z
" transform="scale(0.015625)"/>
       <path id="DejaVuSans-5f" d="M 3263 -1063 
L 3263 -1509 
L -63 -1509 
L -63 -1063 
L 3263 -1063 
z
" transform="scale(0.015625)"/>
       <path id="DejaVuSans-6d" d="M 3328 2828 
Q 3544 3216 3844 3400 
Q 4144 3584 4550 3584 
Q 5097 3584 5394 3201 
Q 5691 2819 5691 2113 
L 5691 0 
L 5113 0 
L 5113 2094 
Q 5113 2597 4934 2840 
Q 4756 3084 4391 3084 
Q 3944 3084 3684 2787 
Q 3425 2491 3425 1978 
L 3425 0 
L 2847 0 
L 2847 2094 
Q 2847 2600 2669 2842 
Q 2491 3084 2119 3084 
Q 1678 3084 1418 2786 
Q 1159 2488 1159 1978 
L 1159 0 
L 581 0 
L 581 3500 
L 1159 3500 
L 1159 2956 
Q 1356 3278 1631 3431 
Q 1906 3584 2284 3584 
Q 2666 3584 2933 3390 
Q 3200 3197 3328 2828 
z
" transform="scale(0.015625)"/>
       <path id="DejaVuSans-67" d="M 2906 1791 
Q 2906 2416 2648 2759 
Q 2391 3103 1925 3103 
Q 1463 3103 1205 2759 
Q 947 2416 947 1791 
Q 947 1169 1205 825 
Q 1463 481 1925 481 
Q 2391 481 2648 825 
Q 2906 1169 2906 1791 
z
M 3481 434 
Q 3481 -459 3084 -895 
Q 2688 -1331 1869 -1331 
Q 1566 -1331 1297 -1286 
Q 1028 -1241 775 -1147 
L 775 -588 
Q 1028 -725 1275 -790 
Q 1522 -856 1778 -856 
Q 2344 -856 2625 -561 
Q 2906 -266 2906 331 
L 2906 616 
Q 2728 306 2450 153 
Q 2172 0 1784 0 
Q 1141 0 747 490 
Q 353 981 353 1791 
Q 353 2603 747 3093 
Q 1141 3584 1784 3584 
Q 2172 3584 2450 3431 
Q 2728 3278 2906 2969 
L 2906 3500 
L 3481 3500 
L 3481 434 
z
" transform="scale(0.015625)"/>
       <path id="DejaVuSans-4c" d="M 628 4666 
L 1259 4666 
L 1259 531 
L 3531 531 
L 3531 0 
L 628 0 
L 628 4666 
z
" transform="scale(0.015625)"/>
       <path id="DejaVuSans-503c" d="M 319 -1131 
L 319 4513 
L 3519 4513 
L 3519 -1131 
L 319 -1131 
z
M 678 -775 
L 3163 -775 
L 3163 4153 
L 678 4153 
L 678 -775 
z
" transform="scale(0.015625)"/>
      </defs>
      <use xlink:href="#DejaVuSans-43"/>
      <use xlink:href="#DejaVuSans-4f" transform="translate(69.824219 0)"/>
      <use xlink:href="#DejaVuSans-44" transform="translate(148.535156 0)"/>
      <use xlink:href="#DejaVuSans-5f" transform="translate(225.537109 0)"/>
      <use xlink:href="#DejaVuSans-6d" transform="translate(275.537109 0)"/>
      <use xlink:href="#DejaVuSans-67" transform="translate(372.949219 0)"/>
      <use xlink:href="#DejaVuSans-2f" transform="translate(436.425781 0)"/>
      <use xlink:href="#DejaVuSans-4c" transform="translate(470.117188 0)"/>
      <use xlink:href="#DejaVuSans-20" transform="translate(525.830078 0)"/>
      <use xlink:href="#DejaVuSans-503c" transform="translate(557.617188 0)"/>
     </g>
    </g>
   </g>
   <g id="line2d_23">
    <path d="M 71.823438 207.234806 
L 72.098791 196.877491 
L 72.374145 193.634999 
L 72.649499 173.281943 
L 72.924852 184.479039 
L 73.200206 188.071441 
L 73.47556 184.584012 
L 73.750914 183.709239 
L 74.026267 194.801363 
L 74.301621 169.316304 
L 74.576975 56.448402 
L 74.852328 162.551392 
L 75.127682 169.572904 
L 75.403036 169.164677 
L 75.67839 167.730049 
L 75.953743 169.339632 
L 76.229097 186.461859 
L 76.504451 164.37092 
L 76.779804 177.107617 
L 77.055158 175.626335 
L 77.330512 175.57968 
L 77.605866 191.313934 
L 77.881219 172.873715 
L 78.156573 180.525065 
L 78.431927 153.255469 
L 78.70728 170.494332 
L 78.982634 167.321821 
L 79.257988 160.825173 
L 79.533342 56.448402 
L 79.808695 155.121651 
L 80.084049 144.437755 
L 80.359403 159.168935 
L 80.634757 153.173823 
L 81.185464 168.884749 
L 81.460818 173.923443 
L 81.736171 169.001386 
L 82.286879 119.699169 
L 82.562233 136.168232 
L 82.837586 111.756229 
L 83.11294 74.735827 
L 83.388294 65.871459 
L 83.663647 139.58568 
L 83.939001 122.23018 
L 84.214355 128.866792 
L 84.489709 126.860646 
L 84.765062 135.048523 
L 85.040416 124.912817 
L 85.31577 138.349333 
L 85.591123 157.990907 
L 85.866477 157.512698 
L 86.141831 148.636666 
L 86.417185 151.156013 
L 86.692538 145.230883 
L 86.967892 126.9073 
L 87.243246 128.738492 
L 87.5186 143.096436 
L 87.793953 148.158457 
L 88.069307 120.130724 
L 88.344661 167.146867 
L 88.620014 169.234659 
L 88.895368 168.523177 
L 89.170722 148.135129 
L 89.446076 152.625632 
L 89.721429 150.712794 
L 89.996783 151.890822 
L 90.272137 156.626261 
L 90.54749 153.582051 
L 90.822844 145.335855 
L 91.098198 148.158457 
L 91.373552 122.533434 
L 91.648905 56.448402 
L 91.924259 79.249657 
L 92.199613 56.448402 
L 92.75032 56.448402 
L 93.025674 113.039229 
L 93.576381 70.665216 
L 93.851735 63.958622 
L 94.402443 200.154975 
L 94.677796 211.783627 
L 94.95315 186.181931 
L 95.228504 275.362142 
L 95.503857 245.246617 
L 95.779211 191.034007 
L 96.329919 178.017382 
L 96.605272 193.623335 
L 97.15598 180.536728 
L 97.431333 192.888526 
L 97.706687 193.016826 
L 98.257395 179.615301 
L 98.532748 178.798846 
L 98.808102 56.448402 
L 99.083456 184.25743 
L 99.358809 240.861087 
L 99.634163 222.665805 
L 99.909517 147.925184 
L 100.184871 164.580865 
L 100.460224 154.748415 
L 100.735578 164.942438 
L 101.010932 151.984132 
L 101.286286 157.58268 
L 101.561639 149.779703 
L 101.836993 151.995795 
L 102.112347 149.406467 
L 102.3877 126.0092 
L 102.938408 154.281869 
L 103.213762 156.008088 
L 103.489115 56.448402 
L 103.764469 137.427906 
L 104.315176 170.77426 
L 104.865884 157.244434 
L 105.141238 159.110617 
L 105.416591 183.207702 
L 105.967299 159.21559 
L 106.242652 187.721532 
L 106.79336 149.779703 
L 107.068714 171.823987 
L 107.344067 172.908706 
L 107.619421 178.7172 
L 107.894775 142.851499 
L 108.170129 166.027157 
L 108.445482 200.178302 
L 108.720836 183.032748 
L 108.99619 253.341185 
L 109.271543 212.973318 
L 109.822251 252.034857 
L 110.097605 246.832872 
L 110.372958 253.947694 
L 110.923666 220.647995 
L 111.199019 185.038894 
L 111.474373 211.235435 
L 111.749727 226.23488 
L 112.025081 227.51788 
L 112.300434 182.169638 
L 112.575788 173.130315 
L 112.851142 158.177526 
L 113.401849 202.790958 
L 113.677203 195.874418 
L 113.952557 100.454159 
L 114.22791 220.228104 
L 114.503264 183.604266 
L 114.778618 187.13835 
L 115.053972 181.959693 
L 115.329325 191.092325 
L 115.604679 180.513401 
L 115.880033 136.424832 
L 116.43074 178.145682 
L 116.706094 178.204 
L 116.981448 190.952361 
L 117.256801 249.585492 
L 117.532155 266.649401 
L 117.807509 233.489665 
L 118.082862 159.040635 
L 118.358216 175.96458 
L 118.63357 157.920926 
L 118.908924 150.677804 
L 119.184277 190.415833 
L 119.459631 179.930219 
L 119.734985 207.02486 
L 120.010338 181.329856 
L 120.561046 240.277905 
L 120.8364 188.969542 
L 121.111753 183.10273 
L 121.387107 180.944956 
L 121.662461 217.043929 
L 121.937814 221.663898 
L 122.213168 190.302696 
L 122.488522 184.382231 
L 122.763876 156.197039 
L 123.039229 187.845167 
L 123.314583 191.839964 
L 123.589937 56.448402 
L 123.865291 143.926887 
L 124.140644 195.856923 
L 124.415998 186.190096 
L 124.691352 162.867476 
L 124.966705 192.580606 
L 125.242059 240.959062 
L 125.517413 204.161436 
L 125.792767 266.833686 
L 126.343474 204.848425 
L 126.618828 141.741121 
L 126.894181 262.197388 
L 127.169535 167.953991 
L 127.720243 254.108652 
L 127.995596 211.753301 
L 128.27095 56.448402 
L 128.546304 217.499978 
L 129.097011 139.074812 
L 129.372365 159.056964 
L 129.647719 201.131222 
L 129.923072 145.798902 
L 130.198426 159.945734 
L 130.749134 212.198852 
L 131.299841 182.895117 
L 131.575195 176.590918 
L 131.850548 136.081921 
L 132.125902 158.806196 
L 132.401256 142.612395 
L 132.67661 173.300605 
L 132.951963 178.956305 
L 133.227317 104.821027 
L 133.502671 146.38325 
L 133.778024 128.613691 
L 134.053378 192.2167 
L 134.604086 150.014142 
L 134.879439 165.134888 
L 135.154793 129.007922 
L 135.430147 171.155661 
L 135.7055 171.156827 
L 135.980854 117.172824 
L 136.256208 140.799865 
L 136.531562 198.447418 
L 136.806915 181.493147 
L 137.082269 180.65803 
L 137.357623 183.696409 
L 137.632977 149.44379 
L 137.90833 197.344037 
L 138.183684 144.113506 
L 138.459038 246.19837 
L 138.734391 240.562498 
L 139.009745 216.584382 
L 139.285099 237.483296 
L 139.560453 247.360069 
L 140.11116 202.884267 
L 140.386514 255.328669 
L 140.661867 201.044911 
L 140.937221 229.226604 
L 141.212575 191.376918 
L 141.487929 229.879768 
L 141.763282 194.527267 
L 142.038636 263.815136 
L 142.31399 246.15988 
L 142.589343 247.068478 
L 142.864697 255.519953 
L 143.140051 255.519953 
L 143.415405 184.911761 
L 143.690758 223.364457 
L 143.966112 230.338149 
L 144.241466 215.40752 
L 144.51682 247.735638 
L 144.792173 198.566387 
L 145.067527 241.627389 
L 145.342881 209.244452 
L 145.618234 220.587344 
L 145.893588 56.448402 
L 146.168942 219.23786 
L 146.444296 238.669489 
L 146.719649 222.689132 
L 146.995003 256.358569 
L 147.270357 250.071866 
L 147.54571 224.477169 
L 147.821064 222.023138 
L 148.096418 207.405095 
L 148.371772 234.847313 
L 148.647125 249.538837 
L 148.922479 235.761743 
L 149.197833 256.825115 
L 149.473186 220.237435 
L 149.74854 255.240026 
L 150.023894 312.590156 
L 150.299248 245.111319 
L 150.574601 223.817006 
L 150.849955 242.63746 
L 151.125309 245.163805 
L 151.676016 134.492167 
L 151.95137 240.19626 
L 152.226724 256.784292 
L 152.502077 233.969041 
L 152.777431 169.189171 
L 153.052785 229.57768 
L 153.328139 249.443195 
L 153.603492 56.448402 
L 153.878846 243.722179 
L 154.1542 243.883137 
L 154.429553 237.9825 
L 154.704907 256.751634 
L 154.980261 229.050483 
L 155.255615 243.735009 
L 155.530968 273.086565 
L 155.806322 275.968651 
L 156.081676 280.502309 
L 156.357029 279.07118 
L 156.632383 292.92992 
L 157.183091 288.475575 
L 157.458444 266.801028 
L 157.733798 286.504419 
L 158.009152 296.740432 
L 158.284506 302.641069 
L 158.835213 276.971724 
L 159.38592 262.111077 
L 159.661274 293.782532 
L 159.936628 293.478111 
L 160.211982 285.998217 
L 160.487335 282.777886 
L 160.762689 283.435715 
L 161.038043 281.910111 
L 161.313396 281.325762 
L 161.58875 276.007141 
L 161.864104 282.469965 
L 162.139458 216.70685 
L 162.414811 292.444712 
L 162.690165 269.779922 
L 162.965519 277.397447 
L 163.240872 169.211331 
L 163.516226 281.405075 
L 163.79158 280.06259 
L 164.066934 280.249208 
L 164.617641 291.965337 
L 164.892995 261.432253 
L 165.168348 282.304342 
L 165.443702 317.222955 
L 165.719056 301.512028 
L 165.99441 308.993088 
L 166.269763 310.621333 
L 166.545117 318.438306 
L 166.820471 256.933587 
L 167.095825 285.194592 
L 167.371178 289.918368 
L 167.646532 306.055017 
L 167.921886 274.094304 
L 168.197239 267.686299 
L 168.472593 304.829168 
L 168.747947 313.169839 
L 169.023301 291.635256 
L 169.298654 328.518026 
L 169.574008 303.001475 
L 169.849362 310.444046 
L 170.124715 261.773998 
L 170.400069 56.448402 
L 170.675423 249.471188 
L 170.950777 259.564904 
L 171.501484 236.501218 
L 171.776838 240.00031 
L 172.052191 259.0692 
L 172.327545 253.94886 
L 172.602899 146.223458 
L 172.878253 207.197482 
L 173.153606 188.568313 
L 173.42896 219.658918 
L 173.704314 202.692984 
L 173.979668 215.758596 
L 174.255021 217.905872 
L 174.530375 227.832799 
L 174.805729 195.3029 
L 175.081082 184.66799 
L 175.356436 187.046207 
L 175.63179 173.190966 
L 175.907144 146.4509 
L 176.182497 132.888416 
L 176.733205 150.212424 
L 177.008558 155.688504 
L 177.283912 150.067795 
L 177.559266 56.448402 
L 177.83462 187.31797 
L 178.109973 184.664491 
L 178.385327 187.515086 
L 178.660681 182.530045 
L 178.936034 225.357774 
L 179.486742 255.648253 
L 179.762096 254.246283 
L 180.037449 257.804861 
L 180.312803 258.258576 
L 180.588157 262.125074 
L 180.863511 259.147346 
L 181.138864 263.549205 
L 181.689572 206.967709 
L 181.964925 200.258781 
L 182.240279 203.769538 
L 182.515633 205.740693 
L 182.790987 208.775573 
L 183.06634 213.876084 
L 183.341694 213.618317 
L 183.617048 199.886711 
L 183.892401 206.082438 
L 184.167755 209.113819 
L 184.443109 202.366402 
L 184.993816 197.591306 
L 185.26917 197.739435 
L 185.544524 195.774111 
L 185.819877 199.707091 
L 186.095231 201.489296 
L 186.370585 186.961063 
L 186.645939 195.040468 
L 186.921292 191.150643 
L 187.196646 168.811269 
L 187.472 210.911186 
L 187.747354 109.084088 
L 188.022707 56.448402 
L 188.298061 185.598749 
L 188.573415 154.91987 
L 188.848768 242.492831 
L 189.124122 294.713291 
L 189.399476 325.583454 
L 189.67483 323.706773 
L 189.950183 308.222122 
L 190.225537 308.222122 
L 190.500891 294.936067 
L 190.776244 320.558756 
L 191.051598 319.77146 
L 191.326952 315.747504 
L 191.602306 314.913553 
L 191.877659 290.438566 
L 192.153013 320.761704 
L 192.428367 313.938473 
L 192.70372 310.167617 
L 193.254428 321.765943 
L 193.529782 321.683131 
L 193.805135 327.250188 
L 194.080489 328.074808 
L 194.355843 352.826223 
L 194.631197 350.159915 
L 194.90655 356.42679 
L 195.181904 56.448402 
L 195.457258 356.296157 
L 195.732611 352.133403 
L 196.007965 360.161488 
L 196.283319 364.426882 
L 196.558673 364.828111 
L 196.834026 356.296157 
L 197.10938 353.900445 
L 197.384734 357.316726 
L 197.660087 343.987515 
L 197.935441 339.219418 
L 198.210795 345.497957 
L 198.761502 333.358438 
L 199.036856 332.767091 
L 199.31221 342.900464 
L 199.587563 343.186223 
L 199.862917 343.244541 
L 200.138271 345.623924 
L 200.413625 345.465299 
L 200.688978 321.005474 
L 201.239686 338.165025 
L 201.51504 331.942471 
L 201.790393 329.47911 
L 202.065747 322.852995 
L 202.341101 320.269498 
L 202.616454 56.448402 
L 202.891808 308.567366 
L 203.167162 308.104319 
L 203.442516 287.608966 
L 203.717869 304.669376 
L 203.993223 290.973927 
L 204.268577 295.90065 
L 204.54393 277.236489 
L 204.819284 298.096914 
L 205.094638 307.380007 
L 205.369992 327.836869 
L 205.645345 327.904518 
L 206.196053 312.529505 
L 206.471406 315.411591 
L 206.74676 314.740931 
L 207.022114 317.49705 
L 207.297468 314.890226 
L 207.572821 326.336925 
L 207.848175 329.31232 
L 208.398883 317.624184 
L 208.674236 317.624184 
L 209.224944 291.351829 
L 209.500297 318.845367 
L 209.775651 328.976407 
L 210.051005 323.009288 
L 210.326359 313.912813 
L 210.601712 317.964762 
L 210.877066 316.81706 
L 211.15242 318.310006 
L 211.427773 313.722695 
L 211.703127 301.454876 
L 211.978481 265.32791 
L 212.253835 318.890855 
L 212.529188 320.098042 
L 212.804542 302.362308 
L 213.079896 305.253725 
L 213.355249 324.49057 
L 213.630603 312.270572 
L 213.905957 310.320411 
L 214.181311 301.100302 
L 214.456664 311.992977 
L 214.732018 310.494199 
L 215.007372 312.879414 
L 215.833433 294.712125 
L 216.108787 302.322651 
L 216.38414 302.110373 
L 216.659494 302.7787 
L 216.934848 302.770535 
L 217.210202 307.964355 
L 217.485555 308.691 
L 218.036263 272.599025 
L 218.311616 308.461226 
L 218.58697 308.706163 
L 218.862324 304.606393 
L 219.137678 56.448402 
L 219.413031 322.963799 
L 219.688385 328.222936 
L 219.963739 325.970686 
L 220.239092 314.885561 
L 220.7898 303.730453 
L 221.065154 316.233878 
L 221.340507 312.747615 
L 221.615861 290.179633 
L 221.891215 295.43877 
L 222.166568 311.609243 
L 222.441922 313.786846 
L 222.717276 313.786846 
L 222.99263 312.461856 
L 223.267983 322.969631 
L 223.818691 328.411887 
L 224.094045 322.22899 
L 224.644752 343.460318 
L 224.920106 343.460318 
L 225.195459 334.880543 
L 225.470813 346.082305 
L 225.746167 348.291399 
L 226.021521 290.670672 
L 226.296874 313.534911 
L 226.572228 320.610076 
L 226.847582 323.632126 
L 227.398289 288.192148 
L 227.673643 56.448402 
L 227.948997 302.961819 
L 228.22435 256.036652 
L 229.050411 290.169136 
L 229.325765 290.169136 
L 229.601119 314.79925 
L 229.876473 236.849961 
L 230.151826 310.339073 
L 230.42718 307.782402 
L 230.977888 332.68078 
L 231.253241 331.810672 
L 231.528595 334.74991 
L 231.803949 340.066198 
L 232.079302 340.066198 
L 232.354656 357.135939 
L 232.63001 281.11465 
L 232.905364 277.747357 
L 233.180717 282.323004 
L 233.456071 275.577919 
L 233.731425 306.285957 
L 234.006778 288.797491 
L 234.282132 293.910832 
L 234.557486 292.561349 
L 234.83284 296.928217 
L 235.383547 286.561571 
L 235.658901 311.352643 
L 235.934254 320.941324 
L 236.209608 310.369398 
L 236.484962 294.156935 
L 236.760316 294.392541 
L 237.035669 292.802786 
L 237.311023 284.087713 
L 237.586377 312.86775 
L 237.861731 297.705015 
L 238.137084 293.28916 
L 238.412438 238.477039 
L 238.687792 297.383099 
L 238.963145 302.760038 
L 239.513853 334.605281 
L 239.789207 333.964947 
L 240.06456 315.6332 
L 240.339914 323.912054 
L 240.615268 322.622055 
L 240.890621 316.618778 
L 241.165975 302.359975 
L 241.441329 299.648178 
L 241.716683 280.483647 
L 241.992036 294.71679 
L 242.26739 300.258187 
L 242.542744 310.946749 
L 242.818097 293.496773 
L 243.093451 247.301751 
L 243.368805 295.083028 
L 243.644159 282.071069 
L 243.919512 56.448402 
L 244.194866 297.460079 
L 244.47022 300.592933 
L 244.745574 298.366344 
L 245.020927 286.378452 
L 245.296281 287.220567 
L 245.571635 284.850515 
L 245.846988 306.577548 
L 246.122342 306.238136 
L 246.397696 297.429753 
L 246.67305 293.496773 
L 246.948403 235.221716 
L 247.223757 276.845757 
L 247.499111 264.124222 
L 247.774464 295.624221 
L 248.049818 289.105412 
L 248.325172 269.063775 
L 248.600526 271.658935 
L 249.151233 253.138237 
L 249.426587 251.680282 
L 249.70194 311.561423 
L 249.977294 282.330002 
L 250.252648 279.155158 
L 250.528002 284.385136 
L 250.803355 330.923069 
L 251.078709 330.923069 
L 251.354063 359.816244 
L 251.629417 266.278497 
L 251.90477 293.265833 
L 252.180124 279.906297 
L 252.455478 305.407685 
L 252.730831 277.988794 
L 253.006185 312.095617 
L 253.281539 321.676133 
L 253.556893 318.096561 
L 253.832246 308.848459 
L 254.1076 306.439917 
L 254.382954 296.733434 
L 254.933661 288.973612 
L 255.209015 225.203814 
L 255.484369 280.175727 
L 255.759722 287.00479 
L 256.035076 268.353459 
L 256.31043 305.467169 
L 256.861137 295.906482 
L 257.136491 273.227695 
L 257.411845 268.587898 
L 257.687198 265.860939 
L 258.237906 251.010789 
L 258.513259 252.543392 
L 258.788613 247.694815 
L 259.063967 256.710811 
L 259.339321 250.263149 
L 259.614674 258.50118 
L 259.890028 252.518898 
L 260.165382 253.964023 
L 260.440736 242.503328 
L 260.716089 255.439474 
L 260.991443 256.338741 
L 261.266797 248.490276 
L 261.54215 248.303658 
L 261.817504 242.841574 
L 262.092858 250.841666 
L 262.368212 238.81995 
L 262.643565 251.934549 
L 262.918919 243.860976 
L 263.194273 257.318487 
L 263.469626 199.33852 
L 263.74498 261.937289 
L 264.020334 260.037282 
L 264.295688 262.980019 
L 264.571041 264.035578 
L 264.846395 263.128147 
L 265.121749 264.369159 
L 265.397102 250.108023 
L 265.672456 255.789383 
L 265.94781 318.537447 
L 266.223164 320.261333 
L 266.773871 325.380506 
L 267.049225 325.211383 
L 267.324579 325.87971 
L 267.875286 330.462355 
L 268.15064 324.140661 
L 268.425993 323.726602 
L 268.701347 318.507122 
L 268.976701 326.923606 
L 269.252055 323.499161 
L 269.527408 318.39865 
L 269.802762 316.67593 
L 270.078116 313.561737 
L 270.353469 316.174393 
L 270.628823 314.217234 
L 270.904177 321.272571 
L 271.179531 316.189556 
L 271.454884 305.702775 
L 271.730238 311.875175 
L 272.005592 240.233583 
L 272.280945 311.10654 
L 272.556299 316.847385 
L 272.831653 315.675189 
L 273.107007 310.806785 
L 273.38236 311.503104 
L 273.657714 314.647622 
L 273.933068 305.292215 
L 274.208422 340.377618 
L 274.483775 348.8011 
L 274.759129 303.457524 
L 275.034483 318.14205 
L 275.309836 299.789308 
L 275.58519 289.716587 
L 275.860544 292.999902 
L 276.411251 311.633737 
L 276.686605 315.621536 
L 276.961959 328.229934 
L 277.237312 353.685834 
L 277.512666 312.738284 
L 277.78802 335.518544 
L 278.063374 321.456857 
L 278.338727 323.57964 
L 278.614081 321.743782 
L 278.889435 326.583028 
L 279.164788 322.463429 
L 279.440142 328.727972 
L 279.715496 326.094321 
L 279.99085 330.903241 
L 280.266203 247.674987 
L 280.541557 342.56805 
L 280.816911 350.317374 
L 281.092265 342.985608 
L 281.367618 330.430863 
L 281.642972 331.341794 
L 281.918326 327.748226 
L 282.193679 325.842386 
L 282.469033 56.448402 
L 282.744387 317.42007 
L 283.019741 320.54476 
L 283.295094 316.327187 
L 283.570448 345.204033 
L 283.845802 328.822447 
L 284.121155 319.082139 
L 284.396509 322.917145 
L 284.671863 332.568809 
L 284.947217 331.639217 
L 285.773278 295.263815 
L 286.048631 298.159897 
L 286.323985 295.070198 
L 286.599339 294.871916 
L 286.874693 293.120037 
L 287.150046 295.590397 
L 287.4254 290.838629 
L 287.700754 282.296177 
L 287.976108 209.864957 
L 288.251461 314.003789 
L 288.526815 303.025969 
L 288.802169 285.450026 
L 289.077522 286.197666 
L 289.352876 292.90426 
L 289.62823 283.588509 
L 289.903584 281.366585 
L 290.178937 277.554907 
L 290.454291 299.024173 
L 290.729645 301.916757 
L 291.280352 292.284921 
L 291.555706 252.003365 
L 291.83106 291.365826 
L 292.381767 268.101524 
L 292.657121 269.754262 
L 292.932474 259.655881 
L 293.207828 259.063368 
L 293.483182 271.482814 
L 294.033889 258.318061 
L 294.309243 271.285699 
L 294.584597 276.698795 
L 294.859951 270.305953 
L 295.410658 278.96854 
L 295.686012 210.802714 
L 295.961365 269.127925 
L 296.236719 266.925829 
L 296.787427 273.47963 
L 297.06278 273.221863 
L 297.338134 252.462912 
L 297.613488 283.657324 
L 297.888841 292.966077 
L 298.164195 293.72538 
L 298.439549 264.433309 
L 298.714903 291.91285 
L 298.990256 283.77746 
L 299.26561 284.93216 
L 299.540964 298.022266 
L 299.816317 300.88919 
L 300.091671 305.394855 
L 300.367025 287.803749 
L 300.642379 286.611725 
L 300.917732 287.933216 
L 301.193086 290.634515 
L 301.46844 283.399558 
L 301.743794 294.204756 
L 302.019147 287.354699 
L 302.294501 296.184076 
L 302.569855 287.301046 
L 303.120562 278.639625 
L 303.395916 288.307619 
L 303.67127 286.604727 
L 303.946623 242.555814 
L 304.221977 261.026359 
L 304.497331 198.096342 
L 304.772684 264.677079 
L 305.048038 275.707386 
L 305.323392 281.336259 
L 305.874099 298.674264 
L 306.424807 274.128128 
L 306.975514 244.728751 
L 307.250868 291.985165 
L 307.526222 286.583732 
L 307.801575 287.05611 
L 308.352283 268.599562 
L 308.627636 269.896559 
L 308.90299 266.622574 
L 309.178344 256.106634 
L 309.453698 267.625648 
L 309.729051 291.234026 
L 310.004405 279.127166 
L 310.279759 287.709274 
L 310.555113 287.835241 
L 310.830466 284.327984 
L 311.10582 297.370269 
L 311.381174 271.783736 
L 311.656527 282.945842 
L 311.931881 284.716383 
L 312.207235 320.649733 
L 312.482589 276.39904 
L 312.757942 208.370845 
L 313.033296 282.194703 
L 313.30865 285.894411 
L 313.584003 287.664952 
L 314.134711 258.51401 
L 314.410065 257.213514 
L 314.685418 234.175487 
L 314.960772 264.294511 
L 315.236126 307.612113 
L 315.511479 307.612113 
L 315.786833 278.164915 
L 316.062187 278.37836 
L 316.337541 283.915091 
L 316.612894 264.883525 
L 316.888248 331.038539 
L 317.438956 311.772534 
L 317.714309 317.450396 
L 317.989663 318.200368 
L 318.265017 210.516955 
L 318.54037 301.015157 
L 318.815724 304.658879 
L 319.091078 310.066144 
L 319.366432 306.914627 
L 319.641785 297.891634 
L 319.917139 272.216457 
L 320.192493 270.43192 
L 320.467846 313.413609 
L 320.7432 299.479055 
L 321.018554 316.0181 
L 321.293908 215.832077 
L 321.569261 323.704441 
L 321.844615 322.500753 
L 322.119969 303.391041 
L 322.395322 332.82191 
L 322.670676 333.765499 
L 322.94603 352.885708 
L 323.496737 294.193093 
L 323.772091 305.601301 
L 324.322799 318.34733 
L 324.598152 337.928253 
L 325.14886 318.657583 
L 325.424213 327.315504 
L 325.699567 330.2909 
L 325.974921 313.37162 
L 326.250275 310.627165 
L 326.800982 279.319616 
L 327.076336 316.340017 
L 327.351689 323.42568 
L 327.627043 317.140143 
L 327.902397 279.99844 
L 328.177751 286.533578 
L 328.453104 302.208348 
L 328.728458 329.041724 
L 329.003812 319.688649 
L 329.279165 303.179929 
L 329.554519 320.043223 
L 329.829873 305.911554 
L 330.105227 299.375249 
L 330.38058 228.26552 
L 330.655934 287.642791 
L 330.931288 259.108856 
L 331.481995 329.780032 
L 331.757349 318.086064 
L 332.032703 326.203959 
L 332.308056 326.450062 
L 332.58341 311.976648 
L 332.858764 311.976648 
L 333.409471 282.200535 
L 333.684825 296.759094 
L 333.960179 340.087193 
L 334.235532 337.7463 
L 334.510886 314.739765 
L 334.78624 328.470205 
L 335.061594 333.33511 
L 335.336947 348.83959 
L 335.612301 349.065865 
L 335.887655 348.116444 
L 336.163008 355.37123 
L 336.438362 368.71677 
L 336.713716 369.958948 
L 336.98907 363.921846 
L 337.264423 340.58523 
L 337.539777 289.219715 
L 337.815131 306.487738 
L 338.090485 247.104635 
L 338.365838 340.890818 
L 338.641192 340.731026 
L 338.916546 348.329889 
L 339.467253 324.758834 
L 340.017961 270.170654 
L 340.293314 250.629388 
L 340.568668 252.598211 
L 340.844022 252.598211 
L 341.119375 323.305544 
L 341.394729 329.874508 
L 342.22079 296.658787 
L 343.046851 242.025119 
L 343.322205 233.156085 
L 343.597559 279.547057 
L 344.148266 189.434921 
L 344.42362 146.007681 
L 344.974328 338.006399 
L 345.249681 348.671634 
L 345.525035 340.51175 
L 345.800389 317.285938 
L 346.075742 322.111187 
L 346.351096 240.212589 
L 346.62645 304.452432 
L 346.901804 329.58175 
L 347.177157 335.945434 
L 347.727865 304.619223 
L 348.003218 310.673819 
L 348.278572 313.359956 
L 348.553926 295.955469 
L 348.82928 303.11228 
L 349.104633 264.705072 
L 349.379987 283.069477 
L 349.655341 280.300528 
L 349.930694 290.096821 
L 350.206048 304.367288 
L 350.756756 308.668839 
L 351.032109 305.715605 
L 351.307463 305.285217 
L 351.582817 317.018841 
L 351.85817 309.685909 
L 352.133524 295.511084 
L 352.684232 297.844979 
L 352.959585 305.666618 
L 353.234939 300.916016 
L 353.510293 301.727806 
L 353.785647 284.849349 
L 354.061 320.498105 
L 354.336354 307.795232 
L 354.611708 301.705645 
L 354.887061 316.032097 
L 355.162415 234.244303 
L 355.437769 309.558775 
L 355.988476 298.947193 
L 356.26383 303.725788 
L 356.539184 322.771349 
L 357.640599 342.510898 
L 357.915952 331.129516 
L 358.191306 325.817893 
L 358.46666 309.044408 
L 359.017367 338.093876 
L 359.292721 324.033355 
L 359.568075 327.976833 
L 359.843428 323.677614 
L 360.118782 321.321559 
L 360.394136 329.23534 
L 360.944843 334.131737 
L 361.220197 323.443175 
L 361.495551 322.80634 
L 361.770904 319.190611 
L 362.046258 317.837629 
L 362.321612 326.985423 
L 362.596966 327.433307 
L 362.872319 327.253687 
L 363.147673 324.063681 
L 363.423027 330.557997 
L 363.69838 234.816988 
L 363.973734 316.44499 
L 364.249088 325.424828 
L 364.524442 321.658638 
L 364.799795 301.522525 
L 365.075149 299.161804 
L 365.350503 309.459634 
L 365.625856 277.010214 
L 365.90121 304.083861 
L 366.176564 291.147715 
L 366.451918 296.313543 
L 366.727271 318.423143 
L 367.002625 282.030246 
L 367.277979 283.93142 
L 367.553333 312.801268 
L 367.828686 311.026061 
L 368.10404 306.51923 
L 368.379394 325.898372 
L 368.654747 304.930642 
L 368.930101 309.824706 
L 369.480809 294.594322 
L 369.756162 291.937344 
L 370.031516 296.175912 
L 370.30687 303.457524 
L 370.582223 299.287772 
L 370.857577 292.925255 
L 371.132931 292.309414 
L 371.683638 307.802231 
L 371.958992 307.776571 
L 372.234346 222.672803 
L 372.509699 313.040372 
L 372.785053 302.66323 
L 373.060407 301.840943 
L 373.335761 304.468762 
L 373.886468 325.903037 
L 374.161822 334.665932 
L 374.437176 331.677707 
L 374.712529 332.029949 
L 374.987883 322.26748 
L 375.263237 306.662693 
L 375.53859 273.680244 
L 375.813944 276.208922 
L 376.089298 250.86616 
L 376.364652 269.760094 
L 376.640005 268.450267 
L 377.190713 304.115353 
L 377.466066 320.923828 
L 377.74142 326.069827 
L 378.016774 327.78205 
L 378.292128 327.015749 
L 378.567481 324.78566 
L 378.842835 335.941934 
L 379.118189 330.686297 
L 379.393542 333.574215 
L 379.668896 331.309136 
L 379.94425 333.702515 
L 380.219604 330.177762 
L 380.494957 253.742414 
L 380.770311 321.26324 
L 381.596372 328.907592 
L 382.14708 365.347143 
L 382.422433 354.158211 
L 382.697787 328.729138 
L 382.973141 322.099524 
L 383.248495 305.041446 
L 383.523848 309.320837 
L 383.799202 293.239007 
L 384.074556 305.793751 
L 384.349909 302.102208 
L 384.625263 309.552943 
L 384.900617 309.393151 
L 385.175971 313.933807 
L 385.451324 305.535985 
L 385.726678 306.838814 
L 386.002032 302.024062 
L 386.277385 310.786957 
L 386.552739 304.936474 
L 386.828093 308.072827 
L 387.103447 307.605115 
L 387.3788 292.996403 
L 387.654154 295.693037 
L 387.929508 302.481277 
L 388.204862 305.532486 
L 388.480215 302.097543 
L 388.755569 228.99683 
L 389.030923 301.311414 
L 389.306276 300.182373 
L 389.58163 311.79003 
L 389.856984 314.174078 
L 390.132338 312.912072 
L 390.683045 306.241635 
L 390.958399 292.945083 
L 391.509106 294.78094 
L 391.78446 315.539891 
L 392.059814 300.895021 
L 392.335167 326.074493 
L 393.161228 306.315116 
L 393.436582 304.833834 
L 393.711936 300.909018 
L 393.98729 315.650696 
L 394.262643 317.345423 
L 394.537997 313.720363 
L 394.813351 323.752262 
L 395.088705 312.397706 
L 395.364058 309.773386 
L 395.639412 315.604041 
L 395.914766 315.037188 
L 396.190119 231.01464 
L 396.465473 311.462282 
L 396.740827 307.965522 
L 397.016181 301.622833 
L 397.291534 285.908407 
L 397.566888 279.819986 
L 397.842242 308.08799 
L 398.117595 307.392837 
L 398.392949 301.579677 
L 398.668303 305.13009 
L 398.943657 328.451543 
L 399.21901 322.967299 
L 399.494364 312.996051 
L 399.769718 310.225935 
L 400.045071 295.888986 
L 400.595779 324.43925 
L 400.871133 316.48348 
L 401.146486 323.653121 
L 401.42184 326.517711 
L 401.697194 313.475426 
L 401.972547 309.03741 
L 402.247901 294.264241 
L 402.523255 313.916312 
L 402.798609 320.571586 
L 403.073962 312.468854 
L 403.349316 315.647196 
L 403.900024 308.271109 
L 404.175377 310.940917 
L 404.450731 303.239414 
L 404.726085 239.440456 
L 405.001438 313.53841 
L 405.276792 318.861696 
L 405.552146 320.304489 
L 405.8275 322.999957 
L 406.102853 320.620574 
L 406.378207 309.850366 
L 406.653561 286.691038 
L 406.928914 321.790437 
L 407.204268 317.030504 
L 407.479622 321.10928 
L 407.754976 319.561515 
L 408.030329 326.493218 
L 408.305683 304.983128 
L 408.85639 320.200683 
L 409.131744 318.665747 
L 409.407098 306.088841 
L 409.682452 305.009955 
L 410.233159 270.212644 
L 410.508513 301.640328 
L 410.783867 286.820504 
L 411.05922 292.716475 
L 411.334574 295.236989 
L 411.609928 299.091822 
L 411.885281 289.068088 
L 412.160635 239.026396 
L 412.435989 56.448402 
L 412.711343 305.880062 
L 412.986696 251.261557 
L 413.26205 336.952006 
L 413.537404 299.868621 
L 414.088111 276.837592 
L 414.363465 305.505659 
L 414.638819 305.777422 
L 414.914172 263.125814 
L 415.189526 261.312118 
L 415.46488 272.871954 
L 415.740233 298.26487 
L 416.015587 300.320004 
L 416.290941 300.014416 
L 416.566295 269.772924 
L 416.841648 292.792289 
L 417.117002 291.618927 
L 417.392356 271.344017 
L 417.66771 259.532246 
L 417.943063 297.203479 
L 418.218417 276.811932 
L 418.493771 277.433605 
L 418.769124 303.675634 
L 419.044478 300.318838 
L 419.319832 322.736358 
L 419.595186 323.809414 
L 419.870539 286.587231 
L 420.421247 314.570642 
L 420.6966 312.465355 
L 420.971954 315.630867 
L 421.247308 316.013435 
L 421.522662 268.393115 
L 421.798015 337.864103 
L 422.073369 331.499253 
L 422.348723 308.792474 
L 422.624076 356.932992 
L 422.89943 354.069568 
L 423.174784 331.845663 
L 423.450138 324.855642 
L 423.725491 332.297046 
L 424.000845 320.723214 
L 424.551553 333.281458 
L 425.10226 314.884394 
L 425.377614 288.950285 
L 425.652967 282.026747 
L 425.928321 285.308896 
L 426.203675 267.818098 
L 426.479029 257.690557 
L 426.754382 281.761982 
L 427.029736 291.5921 
L 427.30509 279.564552 
L 427.580443 279.627536 
L 427.855797 255.276183 
L 428.131151 261.971114 
L 428.406505 252.745173 
L 428.957212 279.21231 
L 429.232566 240.819098 
L 429.507919 305.862567 
L 429.783273 296.969039 
L 430.058627 292.182281 
L 430.333981 314.352532 
L 430.609334 289.307193 
L 431.160042 313.982795 
L 431.435396 311.173023 
L 431.710749 297.414591 
L 431.986103 297.997773 
L 432.261457 312.9354 
L 432.53681 289.790067 
L 432.812164 303.265074 
L 433.087518 295.894818 
L 433.362872 275.133534 
L 433.638225 285.058128 
L 433.913579 316.21405 
L 434.464286 274.174783 
L 435.014994 298.628776 
L 435.290348 282.436141 
L 435.565701 281.381748 
L 435.841055 288.013695 
L 436.116409 299.558368 
L 436.391762 295.380451 
L 436.667116 309.458468 
L 436.94247 317.15064 
L 437.217824 315.753336 
L 437.493177 317.488886 
L 437.768531 317.337258 
L 438.043885 236.812637 
L 438.319239 276.33139 
L 438.594592 284.466781 
L 438.869946 321.971223 
L 439.1453 319.24543 
L 439.420653 304.510751 
L 439.696007 301.124795 
L 439.971361 339.64864 
L 440.246715 319.560349 
L 440.522068 322.092525 
L 440.797422 314.72227 
L 441.072776 323.082769 
L 441.348129 324.097505 
L 441.623483 330.984886 
L 442.449544 313.565236 
L 442.724898 306.354773 
L 443.000252 307.6611 
L 443.275605 314.844738 
L 443.826313 306.915794 
L 444.101667 319.14279 
L 444.37702 310.917589 
L 444.652374 336.481961 
L 444.927728 330.539335 
L 445.203081 330.612816 
L 445.478435 328.213605 
L 445.753789 317.767647 
L 446.029143 333.771331 
L 446.304496 252.769666 
L 446.57985 337.314745 
L 447.130558 365.652731 
L 447.681265 318.972501 
L 447.956619 338.006399 
L 448.231972 341.837906 
L 448.507326 304.198165 
L 448.78268 302.834685 
L 449.058034 297.116001 
L 449.333387 281.147308 
L 449.608741 275.812358 
L 449.884095 310.371731 
L 450.159448 329.824354 
L 450.434802 331.941305 
L 450.98551 317.681336 
L 451.260863 330.139272 
L 451.536217 329.754372 
L 451.811571 341.996531 
L 452.362278 337.606336 
L 452.637632 337.171282 
L 452.912986 337.37423 
L 453.188339 338.287493 
L 453.739047 332.828908 
L 454.014401 332.922217 
L 454.289754 294.735452 
L 454.565108 334.828057 
L 454.840462 331.761685 
L 455.115815 331.003548 
L 455.391169 346.145289 
L 456.21723 334.471149 
L 456.767938 341.471667 
L 457.043291 340.549073 
L 457.318645 342.682353 
L 457.593999 341.727101 
L 457.869353 339.361714 
L 458.144706 339.50751 
L 458.42006 344.801637 
L 458.695414 344.165969 
L 458.970767 342.835147 
L 459.246121 344.633681 
L 459.521475 341.587137 
L 459.796829 349.114852 
L 460.347536 227.740656 
L 460.62289 226.752745 
L 460.898244 259.536912 
L 461.173597 319.27109 
L 461.448951 316.357512 
L 461.724305 307.428994 
L 461.999658 319.443712 
L 462.275012 319.792455 
L 462.82572 324.912794 
L 463.101073 286.877656 
L 463.376427 321.803267 
L 463.651781 320.306822 
L 463.927134 320.832852 
L 464.202488 312.263574 
L 464.753196 323.544649 
L 465.028549 314.112261 
L 465.303903 317.348922 
L 465.579257 311.865844 
L 465.85461 319.72014 
L 466.405318 312.8036 
L 466.680672 317.12498 
L 466.956025 318.728731 
L 467.231379 322.774848 
L 467.506733 318.768387 
L 467.782087 324.548888 
L 468.332794 320.983313 
L 468.608148 325.457486 
L 468.883501 306.451581 
L 469.158855 303.575327 
L 469.434209 309.043242 
L 469.709563 287.306878 
L 470.26027 319.766795 
L 470.535624 323.81058 
L 470.810977 312.720789 
L 471.086331 321.427698 
L 471.361685 284.592748 
L 471.912392 316.491644 
L 472.187746 326.062829 
L 472.4631 339.638143 
L 472.738453 328.949581 
L 473.013807 333.490237 
L 473.289161 309.897021 
L 473.564515 298.157565 
L 473.839868 298.953025 
L 474.115222 282.089731 
L 474.390576 297.071679 
L 474.66593 303.996384 
L 475.216637 289.057591 
L 475.491991 300.920681 
L 475.767344 289.184724 
L 476.042698 292.765463 
L 476.318052 265.437548 
L 476.593406 282.232027 
L 476.868759 270.400428 
L 477.144113 212.649069 
L 477.419467 265.790957 
L 477.69482 265.939085 
L 477.970174 262.564793 
L 478.245528 261.912796 
L 478.520882 235.054926 
L 478.796235 258.266741 
L 479.071589 232.263816 
L 479.346943 267.006308 
L 479.89765 295.745523 
L 480.173004 290.843294 
L 480.448358 256.07281 
L 480.999065 236.009012 
L 481.274419 238.467708 
L 481.549773 198.777499 
L 481.825126 231.54417 
L 482.10048 235.578624 
L 482.375834 235.231047 
L 482.651187 243.890135 
L 482.926541 242.625796 
L 483.201895 245.096156 
L 483.477249 252.782496 
L 483.752602 254.315099 
L 484.027956 250.937308 
L 484.30331 271.672932 
L 484.578663 263.753318 
L 484.854017 250.727362 
L 485.129371 270.553222 
L 485.404725 237.638423 
L 485.955432 239.920998 
L 486.230786 223.086862 
L 486.506139 236.881452 
L 486.781493 242.221068 
L 487.332201 226.652438 
L 487.607554 234.607042 
L 487.882908 195.01714 
L 488.158262 228.813711 
L 488.433616 222.857089 
L 488.708969 264.89169 
L 488.984323 274.944583 
L 489.259677 270.170654 
L 489.810384 284.883173 
L 490.085738 284.09821 
L 490.361092 257.293993 
L 490.636445 255.809211 
L 490.911799 253.442658 
L 491.187153 195.596823 
L 491.462506 249.978557 
L 491.73786 270.02136 
L 492.013214 254.050334 
L 492.563921 246.063072 
L 492.839275 238.424552 
L 493.114629 223.050705 
L 493.389982 197.426849 
L 493.665336 204.132277 
L 493.94069 226.127574 
L 494.216044 269.489498 
L 494.491397 248.103043 
L 494.766751 75.291017 
L 495.042105 239.483611 
L 495.317458 220.224605 
L 495.592812 228.835872 
L 495.868166 210.784052 
L 496.418873 304.263481 
L 496.694227 314.294214 
L 496.969581 307.62611 
L 497.520288 282.461801 
L 497.795642 267.686299 
L 498.070996 237.459969 
L 498.346349 235.085251 
L 498.621703 245.799473 
L 498.897057 219.578439 
L 499.172411 227.947102 
L 499.447764 224.544818 
L 499.723118 192.952676 
L 500.273825 297.754003 
L 500.824533 268.162175 
L 501.099887 269.699443 
L 501.650594 267.784273 
L 502.201301 228.088232 
L 502.476655 266.981815 
L 502.752009 247.828947 
L 503.027363 207.239471 
L 503.302716 261.962949 
L 503.57807 242.105598 
L 503.853424 253.279367 
L 504.128778 205.300974 
L 504.954839 305.298047 
L 505.230192 291.008918 
L 505.505546 264.553444 
L 505.7809 260.019786 
L 506.056254 245.959265 
L 506.331607 261.441584 
L 506.606961 283.233934 
L 506.882315 273.108726 
L 507.157668 273.567107 
L 507.433022 243.091176 
L 507.708376 198.616541 
L 507.98373 210.652253 
L 508.259083 231.043799 
L 508.534437 231.4252 
L 508.809791 225.453416 
L 509.085144 204.828597 
L 509.360498 217.485981 
L 509.635852 208.138738 
L 509.911206 206.882564 
L 510.186559 191.0585 
L 510.461913 189.42559 
L 510.737267 159.251747 
L 511.012621 224.073607 
L 511.287974 228.00892 
L 511.563328 182.927775 
L 511.838682 196.566072 
L 512.114035 187.776351 
L 512.389389 246.273017 
L 512.664743 219.795383 
L 512.940097 76.343077 
L 513.21545 56.448402 
L 513.490804 136.809733 
L 514.041511 183.383823 
L 514.867573 153.810658 
L 515.142926 158.977652 
L 515.41828 166.592844 
L 515.693634 161.764096 
L 515.968987 167.868846 
L 516.244341 160.64322 
L 516.795049 139.168121 
L 517.070402 117.786332 
L 517.345756 171.306122 
L 517.62111 183.129556 
L 518.171817 242.315543 
L 518.447171 207.308287 
L 518.722525 217.610782 
L 518.997878 308.795973 
L 519.273232 326.864121 
L 519.548586 324.117334 
L 520.099293 228.43231 
L 520.650001 197.906225 
L 520.925354 148.700816 
L 521.200708 186.027971 
L 521.476062 248.115873 
L 521.751416 279.926125 
L 522.026769 280.643439 
L 522.302123 269.776423 
L 522.577477 314.70944 
L 523.128184 236.385748 
L 523.678892 214.444103 
L 523.954245 221.484278 
L 524.229599 208.909705 
L 524.504953 181.869883 
L 525.05566 271.71842 
L 525.331014 252.85831 
L 525.606368 219.124723 
L 525.881721 201.011086 
L 526.157075 232.004884 
L 526.432429 237.280349 
L 526.707783 209.45673 
L 526.983136 208.686929 
L 527.533844 182.591862 
L 528.084551 187.904651 
L 528.359905 176.453287 
L 528.635259 184.911761 
L 528.910612 187.968801 
L 529.185966 146.972264 
L 529.46132 186.618152 
L 529.736673 268.038541 
L 530.012027 218.661677 
L 530.562735 180.085345 
L 530.838088 189.855979 
L 531.113442 158.855183 
L 531.388796 154.91987 
L 531.66415 297.759834 
L 531.939503 274.384728 
L 532.490211 206.641127 
L 532.765564 206.561814 
L 533.040918 222.678635 
L 533.316272 279.056017 
L 533.591626 304.639051 
L 533.866979 317.577529 
L 534.142333 315.424421 
L 534.417687 285.629646 
L 534.69304 241.110689 
L 534.968394 218.483223 
L 535.243748 209.452064 
L 535.794455 297.698017 
L 536.345163 230.894505 
L 536.620516 230.159695 
L 536.89587 220.929089 
L 537.171224 207.40043 
L 537.446578 270.924126 
L 537.721931 253.598951 
L 537.997285 216.544725 
L 538.272639 274.473372 
L 538.547992 271.831557 
L 538.823346 320.779199 
L 539.0987 306.740839 
L 539.374054 320.799027 
L 539.649407 294.656139 
L 539.924761 280.477815 
L 540.200115 290.610022 
L 541.026176 339.615982 
L 541.576883 261.441584 
L 542.127591 242.523156 
L 542.402945 234.446084 
L 542.678298 242.680615 
L 542.953652 277.84883 
L 543.229006 253.67943 
L 543.504359 246.579771 
L 543.779713 231.517343 
L 544.055067 258.102284 
L 544.330421 297.156824 
L 544.605774 278.13109 
L 544.881128 249.249579 
L 545.156482 262.207886 
L 545.431835 265.395559 
L 545.707189 271.324189 
L 546.257897 232.042207 
L 546.53325 207.889136 
L 546.808604 236.179301 
L 547.083958 277.283144 
L 547.359312 278.496162 
L 547.634665 287.198406 
L 547.910019 292.366566 
L 548.185373 228.092898 
L 548.73608 262.445824 
L 549.011434 256.786625 
L 549.286788 209.566368 
L 549.562141 261.596711 
L 549.837495 233.213237 
L 550.663556 275.85668 
L 550.93891 275.924329 
L 551.214264 295.574068 
L 551.489617 286.631553 
L 551.764971 323.096765 
L 552.315678 314.273219 
L 552.866386 297.22564 
L 553.417093 292.508863 
L 553.692447 301.050148 
L 553.967801 313.524414 
L 554.243155 256.324744 
L 554.518508 292.034152 
L 554.793862 279.814154 
L 555.069216 275.930161 
L 555.344569 278.040114 
L 555.619923 278.465837 
L 555.895277 276.634645 
L 556.170631 291.648086 
L 556.445984 284.588083 
L 556.721338 285.867585 
L 556.996692 295.779348 
L 557.272045 291.323836 
L 557.547399 294.985054 
L 558.098107 279.804823 
L 558.37346 286.251318 
L 558.648814 281.574198 
L 558.924168 284.248671 
L 559.199521 284.154195 
L 559.474875 262.025933 
L 559.750229 277.256317 
L 560.025583 274.485036 
L 560.300936 268.323133 
L 560.57629 271.043095 
L 560.851644 266.951489 
L 561.126998 286.639718 
L 561.402351 279.349941 
L 561.677705 278.651289 
L 561.953059 281.831964 
L 562.228412 274.875768 
L 562.503766 275.44612 
L 562.77912 305.074105 
L 563.054474 257.109708 
L 563.329827 298.383839 
L 563.605181 289.436659 
L 564.155888 218.461062 
L 564.431242 262.579956 
L 564.706596 268.694037 
L 565.257303 254.561202 
L 565.532657 261.897633 
L 565.808011 259.98013 
L 566.083364 256.672321 
L 566.358718 248.378305 
L 566.634072 253.013436 
L 566.909426 246.951841 
L 567.184779 231.796104 
L 567.735487 238.706812 
L 568.010841 233.672784 
L 568.286194 212.117207 
L 568.561548 245.185966 
L 568.836902 244.979519 
L 569.112255 233.313544 
L 569.387609 240.315229 
L 569.662963 261.056684 
L 569.938317 255.901354 
L 570.21367 276.505179 
L 570.489024 258.816098 
L 570.764378 228.939678 
L 571.039731 163.522973 
L 571.315085 194.917999 
L 571.590439 177.326894 
L 571.865793 197.763928 
L 572.141146 202.930922 
L 572.4165 228.798548 
L 572.691854 227.251949 
L 572.967207 213.53084 
L 573.242561 225.234139 
L 573.517915 228.378657 
L 574.068622 218.760817 
L 574.61933 218.254615 
L 575.170037 242.44501 
L 575.445391 239.659732 
L 575.720745 249.00231 
L 575.996098 268.279978 
L 576.271452 267.028469 
L 576.546806 259.821504 
L 576.82216 256.517195 
L 577.097513 268.326633 
L 577.372867 241.797678 
L 577.648221 283.250263 
L 578.198928 245.063498 
L 578.474282 238.843277 
L 578.749636 238.650827 
L 579.024989 184.196779 
L 579.300343 199.093584 
L 579.575697 187.043874 
L 579.85105 298.147067 
L 580.126404 267.022637 
L 580.401758 222.797604 
L 580.677112 222.911908 
L 580.952465 220.130129 
L 581.227819 224.044448 
L 581.503173 230.429125 
L 581.778527 228.277183 
L 582.05388 204.727123 
L 582.329234 217.613115 
L 582.604588 214.565405 
L 582.879941 207.962617 
L 583.155295 191.191466 
L 583.430649 206.176914 
L 583.706003 200.633184 
L 583.981356 207.431922 
L 584.25671 191.163473 
L 584.532064 185.006236 
L 584.807417 196.713034 
L 585.082771 201.336502 
L 585.358125 215.423849 
L 585.633479 249.611152 
L 586.45954 174.864699 
L 586.734893 158.362978 
L 587.010247 160.724865 
L 587.285601 150.541339 
L 587.836308 185.182357 
L 588.111662 138.996666 
L 588.387016 190.822895 
L 588.662369 203.713552 
L 588.937723 210.702407 
L 589.488431 184.711146 
L 589.763784 206.031118 
L 590.039138 200.809305 
L 590.314492 202.898264 
L 590.589846 206.69128 
L 590.865199 194.620577 
L 591.415907 220.667823 
L 591.69126 176.537265 
L 591.966614 182.654846 
L 592.241968 169.682543 
L 592.517322 202.290588 
L 592.792675 195.463858 
L 593.068029 201.07407 
L 593.343383 193.265261 
L 593.618736 197.211072 
L 593.89409 195.518677 
L 594.169444 167.459452 
L 594.444798 210.737398 
L 594.720151 192.677414 
L 594.995505 211.488536 
L 595.270859 196.304807 
L 595.546212 257.523767 
L 595.821566 160.204667 
L 596.09692 181.969024 
L 596.372274 181.647107 
L 596.922981 194.307991 
L 597.198335 205.017548 
L 597.473689 176.704055 
L 597.749042 204.76328 
L 598.024396 191.261448 
L 598.575103 178.776685 
L 598.850457 161.031619 
L 599.125811 219.251857 
L 599.401165 206.746099 
L 599.676518 239.508105 
L 599.951872 247.747302 
L 600.227226 207.007365 
L 600.502579 233.911889 
L 600.777933 224.319709 
L 601.053287 220.25493 
L 601.328641 221.542596 
L 601.603994 219.031414 
L 602.154702 236.887284 
L 602.705409 221.355978 
L 602.980763 220.015825 
L 603.256117 213.305732 
L 603.53147 202.392062 
L 603.806824 204.534673 
L 604.082178 214.495423 
L 604.357532 171.476411 
L 604.632885 212.520769 
L 604.908239 204.580161 
L 605.458946 212.813526 
L 605.7343 219.721902 
L 606.009654 237.877527 
L 606.285008 246.558777 
L 606.560361 242.126592 
L 606.835715 252.045354 
L 607.111069 246.744229 
L 607.386422 247.276091 
L 607.661776 235.649772 
L 608.212484 190.081087 
L 608.487837 189.41276 
L 608.763191 195.400874 
L 609.038545 216.332447 
L 609.313898 216.346443 
L 609.864606 247.556018 
L 610.13996 243.508734 
L 610.966021 211.771963 
L 611.241375 158.413131 
L 611.516728 174.61743 
L 611.792082 173.501219 
L 612.067436 174.140387 
L 612.342789 56.448402 
L 612.618143 161.762929 
L 612.893497 137.010347 
L 613.168851 135.913965 
L 613.444204 164.069998 
L 613.719558 162.1315 
L 613.994912 162.769502 
L 614.270265 152.82508 
L 614.545619 166.564851 
L 614.820973 170.564314 
L 615.096327 165.070738 
L 615.37168 109.21822 
L 615.647034 167.488611 
L 615.922388 156.121225 
L 616.197741 163.128742 
L 616.473095 177.709461 
L 616.748449 177.539172 
L 617.023803 161.895895 
L 617.299156 182.475226 
L 617.57451 179.095102 
L 617.849864 168.084624 
L 618.125218 194.089881 
L 618.400571 175.122465 
L 618.675925 178.7172 
L 618.951279 161.484168 
L 619.226632 185.604581 
L 619.501986 159.466358 
L 619.77734 210.324505 
L 620.052694 164.698668 
L 620.328047 199.370012 
L 620.603401 194.843352 
L 620.878755 211.156123 
L 621.154108 182.247785 
L 621.429462 175.519029 
L 621.704816 191.204296 
L 622.255523 183.746563 
L 622.530877 183.746563 
L 622.806231 242.629295 
L 623.081584 275.938326 
L 623.356938 234.698019 
L 623.632292 216.573884 
L 623.907646 254.10632 
L 624.182999 241.280978 
L 624.458353 251.325707 
L 624.733707 223.22566 
L 625.009061 210.050409 
L 625.284414 232.078364 
L 625.559768 283.445046 
L 625.835122 285.991219 
L 626.110475 235.325523 
L 626.385829 226.146236 
L 627.487244 168.821766 
L 627.762598 283.275923 
L 628.037951 302.848682 
L 628.313305 260.093267 
L 628.588659 307.338018 
L 628.864013 295.317468 
L 629.139366 268.433938 
L 629.41472 260.00579 
L 629.965427 173.730993 
L 630.240781 263.769647 
L 630.516135 247.698314 
L 630.791489 242.170914 
L 631.066842 198.216478 
L 631.342196 313.373953 
L 631.892903 269.82891 
L 632.168257 231.717958 
L 632.443611 227.387247 
L 632.718965 261.148827 
L 632.994318 245.542873 
L 633.269672 216.839816 
L 633.545026 215.802918 
L 633.82038 197.285719 
L 634.095733 284.490108 
L 634.371087 267.935901 
L 634.646441 227.80014 
L 635.747856 166.381732 
L 636.023209 246.642755 
L 636.573917 167.32532 
L 636.84927 182.062333 
L 637.124624 168.090455 
L 637.399978 186.730122 
L 637.675332 185.517104 
L 637.950685 261.803157 
L 638.226039 233.130425 
L 638.501393 241.345128 
L 638.776746 204.947566 
L 639.0521 201.637424 
L 639.327454 202.462043 
L 639.602808 218.074995 
L 639.878161 199.707091 
L 640.153515 189.171323 
L 640.428869 226.127574 
L 640.704223 207.773666 
L 640.979576 207.034191 
L 641.25493 222.212089 
L 641.530284 198.79966 
L 641.805637 251.115762 
L 642.080991 220.92209 
L 642.356345 231.446195 
L 642.907052 294.214087 
L 643.182406 305.881229 
L 644.008467 210.280183 
L 644.559175 280.418331 
L 644.834528 282.756891 
L 645.109882 267.133442 
L 645.660589 195.821932 
L 645.935943 243.56122 
L 646.211297 251.504161 
L 646.486651 246.848035 
L 646.762004 191.691836 
L 647.037358 230.41163 
L 647.312712 202.975244 
L 647.588066 219.307842 
L 647.863419 226.567293 
L 648.138773 200.15964 
L 648.414127 218.534543 
L 648.68948 56.448402 
L 648.964834 56.448402 
L 649.240188 223.875325 
L 649.515542 128.652181 
L 649.790895 72.045025 
L 650.066249 232.962469 
L 650.89231 154.697095 
L 651.443018 195.665639 
L 651.718371 200.853627 
L 651.993725 249.740618 
L 652.269079 235.649772 
L 652.544432 242.195408 
L 652.819786 254.592694 
L 653.09514 246.857366 
L 653.370494 209.988592 
L 653.921201 187.476596 
L 654.196555 186.52251 
L 654.471909 233.339204 
L 654.747262 175.631 
L 655.022616 195.613153 
L 655.29797 199.359515 
L 655.573323 174.840205 
L 655.848677 190.085752 
L 656.124031 176.700556 
L 656.399385 200.292606 
L 656.674738 202.495868 
L 656.950092 171.623373 
L 657.225446 175.529527 
L 657.500799 172.998516 
L 657.776153 167.300827 
L 658.051507 195.988722 
L 658.326861 203.637739 
L 658.877568 179.3587 
L 659.152922 213.682468 
L 659.428275 175.95175 
L 659.703629 229.160121 
L 659.978983 227.807139 
L 660.254337 243.457414 
L 660.52969 311.258168 
L 661.080398 257.570421 
L 661.355752 247.332076 
L 661.631105 225.14083 
L 662.181813 214.579402 
L 662.457166 206.861569 
L 662.73252 205.171508 
L 663.007874 197.08977 
L 663.283228 159.487353 
L 663.558581 213.541337 
L 663.833935 210.336168 
L 664.109289 195.511679 
L 664.384642 193.479872 
L 664.659996 175.340576 
L 664.93535 196.132185 
L 665.210704 192.112893 
L 665.486057 194.911001 
L 665.761411 201.847369 
L 666.587472 210.198538 
L 666.862826 218.854127 
L 667.413533 199.322191 
L 667.688887 204.916074 
L 667.964241 189.924794 
L 668.239595 183.26952 
L 668.514948 180.092344 
L 668.790302 183.701075 
L 669.065656 169.327968 
L 669.341009 170.628464 
L 669.616363 207.20448 
L 669.891717 202.731474 
L 670.167071 172.576292 
L 670.442424 182.769149 
L 670.717778 188.224235 
L 670.993132 152.728272 
L 671.268485 153.907466 
L 671.543839 194.073552 
L 671.819193 164.29394 
L 672.094547 185.783035 
L 672.3699 142.471265 
L 672.645254 129.806882 
L 672.920608 174.711905 
L 673.195961 201.414648 
L 673.746669 100.079756 
L 674.022023 158.791033 
L 674.297376 162.767169 
L 674.57273 157.546523 
L 674.848084 160.752858 
L 675.123438 160.131186 
L 675.123438 160.131186 
" clip-path="url(#p54ea7a5dee)" style="fill: none; stroke: #2878b5; stroke-width: 1.5; stroke-linecap: square"/>
   </g>
   <g id="line2d_24">
    <path d="M 560.851644 263.960715 
L 561.126998 279.796808 
L 561.402351 274.045701 
L 561.677705 289.175095 
L 561.953059 279.773023 
L 562.228412 280.700717 
L 562.503766 274.385682 
L 562.77912 270.952273 
L 563.054474 289.524588 
L 563.329827 267.781967 
L 563.605181 290.205799 
L 563.880535 291.002353 
L 564.155888 250.1833 
L 564.431242 259.500154 
L 564.706596 250.69282 
L 564.98195 261.569825 
L 565.257303 259.903446 
L 565.532657 253.362725 
L 565.808011 255.937237 
L 566.083364 265.808972 
L 566.358718 249.481045 
L 566.634072 262.396162 
L 566.909426 255.656513 
L 567.460133 226.346187 
L 567.735487 248.849289 
L 568.010841 239.60116 
L 568.286194 236.97845 
L 568.561548 222.343316 
L 568.836902 235.989962 
L 569.112255 238.894575 
L 569.387609 234.571848 
L 569.662963 225.323781 
L 569.938317 254.085116 
L 570.21367 246.365958 
L 570.489024 244.565196 
L 570.764378 237.021377 
L 571.039731 253.267627 
L 571.315085 211.723106 
L 571.590439 201.840412 
L 571.865793 202.728268 
L 572.4165 198.899398 
L 572.691854 217.144997 
L 572.967207 207.817705 
L 573.242561 223.216368 
L 573.517915 226.296955 
L 573.793269 202.882354 
L 574.068622 194.892642 
L 574.343976 199.289697 
L 574.61933 216.306882 
L 574.894684 200.24988 
L 575.170037 229.357211 
L 575.445391 238.026468 
L 575.996098 246.968398 
L 576.546806 263.897566 
L 576.82216 266.502282 
L 577.097513 248.809317 
L 577.372867 249.292992 
L 577.648221 224.20818 
L 577.923574 261.970224 
L 578.198928 247.19919 
L 578.474282 266.077449 
L 578.749636 257.150128 
L 579.024989 255.876705 
L 579.300343 235.749593 
L 579.575697 225.497056 
L 579.85105 210.109099 
L 580.126404 260.22631 
L 580.401758 251.238093 
L 580.677112 210.515209 
L 580.952465 212.098367 
L 581.503173 218.562457 
L 581.778527 232.028626 
L 582.05388 226.188564 
L 582.329234 211.600478 
L 582.604588 228.26963 
L 582.879941 211.626434 
L 583.155295 248.789263 
L 583.430649 211.362517 
L 583.981356 192.156199 
L 584.25671 210.047608 
L 584.532064 195.178009 
L 584.807417 187.772861 
L 585.082771 196.177184 
L 585.358125 189.03737 
L 585.633479 192.142538 
L 585.908832 226.252591 
L 586.184186 211.040315 
L 586.45954 235.361677 
L 587.010247 174.577266 
L 587.285601 169.221773 
L 587.560955 166.74926 
L 587.836308 159.357632 
L 588.111662 167.633884 
L 588.387016 147.971086 
L 588.662369 169.012819 
L 589.213077 184.502342 
L 589.488431 178.181093 
L 589.763784 201.732668 
L 590.039138 195.283614 
L 590.314492 182.372654 
L 590.589846 191.806988 
L 591.140553 198.536114 
L 591.415907 193.155065 
L 591.69126 223.25681 
L 591.966614 199.396273 
L 592.241968 214.521578 
L 592.517322 180.510874 
L 592.792675 179.530338 
L 593.068029 181.038458 
L 593.343383 181.819771 
L 593.618736 185.823974 
L 594.169444 188.844871 
L 594.444798 186.063668 
L 594.720151 194.810803 
L 594.995505 195.743608 
L 595.270859 214.137583 
L 595.546212 215.002414 
L 595.821566 231.476086 
L 596.09692 180.586172 
L 596.372274 187.102462 
L 596.647627 177.305787 
L 596.922981 180.833076 
L 597.198335 188.997917 
L 597.473689 180.646796 
L 597.749042 203.139971 
L 598.024396 187.400331 
L 598.29975 199.978935 
L 598.575103 193.614947 
L 598.850457 206.855286 
L 599.125811 160.505801 
L 599.401165 192.829679 
L 599.951872 214.589127 
L 600.227226 232.63105 
L 600.502579 216.566208 
L 600.777933 211.047671 
L 601.053287 243.029992 
L 601.328641 225.843451 
L 601.879348 210.346739 
L 602.154702 228.994152 
L 602.430055 230.311871 
L 602.705409 227.214199 
L 602.980763 236.984936 
L 603.256117 231.66697 
L 603.53147 215.960782 
L 603.806824 222.731758 
L 604.082178 192.343323 
L 604.357532 227.300028 
L 604.632885 186.61079 
L 604.908239 207.0277 
L 605.183593 199.82482 
L 605.458946 219.68409 
L 605.7343 202.40147 
L 606.009654 206.958128 
L 606.285008 233.91712 
L 606.560361 238.697167 
L 606.835715 225.32571 
L 607.111069 250.200945 
L 607.386422 237.211715 
L 607.661776 238.242088 
L 607.93713 245.485217 
L 608.212484 223.739516 
L 608.763191 202.613601 
L 609.038545 221.485779 
L 609.313898 218.37685 
L 609.589252 229.474003 
L 609.864606 230.101382 
L 610.13996 222.629194 
L 610.415313 239.815547 
L 610.690667 234.912169 
L 610.966021 209.795427 
L 611.241375 219.922385 
L 611.516728 178.953179 
L 611.792082 188.105585 
L 612.067436 187.286783 
L 612.342789 185.60557 
L 612.618143 129.779174 
L 612.893497 161.6785 
L 613.444204 139.75132 
L 613.719558 152.30119 
L 614.270265 135.714707 
L 614.545619 131.648603 
L 614.820973 140.050677 
L 615.096327 154.226131 
L 615.37168 160.429431 
L 615.647034 106.513125 
L 615.922388 181.761584 
L 616.197741 166.626705 
L 616.473095 168.695348 
L 616.748449 187.101725 
L 617.023803 168.872834 
L 617.299156 169.204075 
L 617.57451 163.149086 
L 617.849864 148.301591 
L 618.125218 154.956598 
L 618.400571 169.379596 
L 618.675925 151.478102 
L 618.951279 152.305294 
L 619.226632 186.612058 
L 619.77734 184.272964 
L 620.052694 206.051276 
L 620.328047 175.548581 
L 620.603401 192.866799 
L 621.154108 175.440041 
L 621.429462 195.797671 
L 621.704816 172.452258 
L 621.98017 169.543475 
L 622.255523 148.110168 
L 622.530877 205.484148 
L 622.806231 176.783446 
L 623.081584 229.371934 
L 623.356938 242.627219 
L 623.632292 238.592527 
L 623.907646 238.12299 
L 624.182999 245.266544 
L 624.458353 237.71557 
L 624.733707 254.067114 
L 625.009061 233.003446 
L 625.284414 201.999352 
L 625.835122 258.080308 
L 626.110475 280.431672 
L 626.385829 286.510644 
L 626.661183 232.234588 
L 626.936537 231.034341 
L 627.21189 236.902583 
L 627.487244 214.924367 
L 627.762598 183.858983 
L 628.037951 230.431303 
L 628.313305 250.109888 
L 628.588659 252.668315 
L 628.864013 287.592758 
L 629.139366 292.332724 
L 629.41472 281.646129 
L 629.690074 303.86388 
L 629.965427 228.808286 
L 630.240781 214.097101 
L 630.516135 249.91701 
L 630.791489 236.362606 
L 631.066842 268.368197 
L 631.342196 225.717752 
L 631.892903 293.426525 
L 632.168257 287.869114 
L 632.443611 258.373276 
L 632.718965 242.727215 
L 632.994318 258.954187 
L 633.269672 215.807353 
L 633.545026 232.906061 
L 633.82038 224.3088 
L 634.095733 200.37157 
L 634.371087 274.124015 
L 634.646441 295.195858 
L 634.921794 236.327022 
L 635.197148 248.928399 
L 636.023209 180.427411 
L 636.298563 189.152559 
L 636.573917 161.471841 
L 636.84927 184.174942 
L 637.124624 167.100404 
L 637.399978 185.934047 
L 637.950685 231.336608 
L 638.226039 220.239209 
L 638.501393 226.968738 
L 639.0521 191.392182 
L 639.327454 228.417278 
L 639.602808 187.464592 
L 639.878161 165.004691 
L 640.153515 215.498348 
L 640.428869 180.570184 
L 640.704223 240.162592 
L 640.979576 196.390812 
L 641.25493 257.152403 
L 641.805637 198.270467 
L 642.080991 202.164502 
L 642.356345 193.315631 
L 642.631699 249.456545 
L 643.182406 233.477687 
L 643.45776 269.288589 
L 643.733113 265.97847 
L 644.008467 289.845014 
L 644.283821 246.992526 
L 644.559175 274.977378 
L 644.834528 258.255652 
L 645.109882 280.038481 
L 645.385236 245.168154 
L 645.660589 229.811309 
L 645.935943 258.188802 
L 646.211297 254.728291 
L 646.486651 240.203505 
L 646.762004 233.406733 
L 647.037358 210.840376 
L 647.312712 209.714289 
L 647.588066 217.596242 
L 647.863419 259.006082 
L 648.138773 228.57466 
L 648.414127 228.881713 
L 648.68948 195.49428 
L 648.964834 118.549648 
L 649.240188 130.671107 
L 649.515542 197.001817 
L 650.066249 87.201788 
L 650.341603 175.868799 
L 650.616956 142.506687 
L 650.89231 185.599311 
L 651.167664 182.384786 
L 651.443018 157.494164 
L 651.718371 209.971353 
L 651.993725 125.644643 
L 652.269079 178.537407 
L 652.544432 273.808104 
L 652.819786 231.602799 
L 653.09514 235.619582 
L 653.370494 259.292178 
L 653.645847 236.034421 
L 653.921201 193.753416 
L 654.196555 200.895016 
L 654.747262 224.417478 
L 655.022616 197.374977 
L 655.29797 148.624084 
L 655.573323 158.929645 
L 655.848677 233.414219 
L 656.399385 161.15633 
L 656.674738 203.741127 
L 656.950092 202.431599 
L 657.225446 167.103111 
L 657.500799 167.736372 
L 657.776153 193.193783 
L 658.051507 161.868003 
L 658.326861 195.412485 
L 658.602214 154.062547 
L 658.877568 159.54776 
L 659.152922 232.570037 
L 659.428275 184.568689 
L 659.703629 171.294321 
L 659.978983 244.624717 
L 660.254337 208.243624 
L 660.52969 216.03796 
L 661.080398 274.961177 
L 661.355752 265.279081 
L 661.631105 267.581982 
L 661.906459 264.52845 
L 662.181813 235.594537 
L 662.457166 248.593741 
L 662.73252 214.007737 
L 663.007874 234.803222 
L 663.558581 173.247045 
L 663.833935 217.920536 
L 664.109289 198.397094 
L 664.384642 203.075854 
L 664.659996 184.460161 
L 664.93535 179.741751 
L 665.210704 189.11405 
L 665.486057 173.19757 
L 665.761411 196.787406 
L 666.036765 179.031712 
L 666.312118 213.370101 
L 666.587472 198.440337 
L 666.862826 215.758431 
L 667.13818 240.776803 
L 667.413533 210.470031 
L 667.688887 198.019346 
L 667.964241 201.989771 
L 668.239595 197.403055 
L 668.790302 176.586226 
L 669.065656 191.369579 
L 669.341009 168.38349 
L 669.616363 187.869372 
L 669.891717 183.956743 
L 670.167071 216.575512 
L 670.442424 214.495211 
L 670.717778 184.142369 
L 670.993132 181.552617 
L 671.268485 153.070207 
L 671.543839 154.54576 
L 671.819193 166.29509 
L 672.094547 158.942602 
L 672.3699 169.002303 
L 672.645254 153.255315 
L 672.920608 154.020645 
L 673.195961 156.687514 
L 673.471315 185.940757 
L 673.746669 165.375348 
L 674.022023 127.813518 
L 674.297376 138.416244 
L 674.57273 137.002455 
L 674.848084 165.043884 
L 675.123438 146.757436 
L 675.123438 146.757436 
" clip-path="url(#p54ea7a5dee)" style="fill: none; stroke-dasharray: 5.55,2.4; stroke-dashoffset: 0; stroke: #c82423; stroke-width: 1.5"/>
   </g>
   <g id="patch_3">
    <path d="M 41.658438 385.634475 
L 41.658438 40.772875 
" style="fill: none; stroke: #000000; stroke-width: 0.8; stroke-linejoin: miter; stroke-linecap: square"/>
   </g>
   <g id="patch_4">
    <path d="M 705.288438 385.634475 
L 705.288438 40.772875 
" style="fill: none; stroke: #000000; stroke-width: 0.8; stroke-linejoin: miter; stroke-linecap: square"/>
   </g>
   <g id="patch_5">
    <path d="M 41.658438 385.634475 
L 705.288438 385.634475 
" style="fill: none; stroke: #000000; stroke-width: 0.8; stroke-linejoin: miter; stroke-linecap: square"/>
   </g>
   <g id="patch_6">
    <path d="M 41.658438 40.772875 
L 705.288438 40.772875 
" style="fill: none; stroke: #000000; stroke-width: 0.8; stroke-linejoin: miter; stroke-linecap: square"/>
   </g>
   <g id="text_14">
    <!-- COD_mg/L 时间序列：真实值与预测值对比 -->
    <g transform="translate(289.602813 16.10625) scale(0.12 -0.12)">
     <defs>
      <path id="DejaVuSans-5217" d="M 319 -1131 
L 319 4513 
L 3519 4513 
L 3519 -1131 
L 319 -1131 
z
M 678 -775 
L 3163 -775 
L 3163 4153 
L 678 4153 
L 678 -775 
z
" transform="scale(0.015625)"/>
      <path id="DejaVuSans-ff1a" d="M 319 -1131 
L 319 4513 
L 3519 4513 
L 3519 -1131 
L 319 -1131 
z
M 678 -775 
L 3163 -775 
L 3163 4153 
L 678 4153 
L 678 -775 
z
" transform="scale(0.015625)"/>
      <path id="DejaVuSans-771f" d="M 319 -1131 
L 319 4513 
L 3519 4513 
L 3519 -1131 
L 319 -1131 
z
M 678 -775 
L 3163 -775 
L 3163 4153 
L 678 4153 
L 678 -775 
z
" transform="scale(0.015625)"/>
      <path id="DejaVuSans-5b9e" d="M 319 -1131 
L 319 4513 
L 3519 4513 
L 3519 -1131 
L 319 -1131 
z
M 678 -775 
L 3163 -775 
L 3163 4153 
L 678 4153 
L 678 -775 
z
" transform="scale(0.015625)"/>
      <path id="DejaVuSans-4e0e" d="M 319 -1131 
L 319 4513 
L 3519 4513 
L 3519 -1131 
L 319 -1131 
z
M 678 -775 
L 3163 -775 
L 3163 4153 
L 678 4153 
L 678 -775 
z
" transform="scale(0.015625)"/>
      <path id="DejaVuSans-9884" d="M 319 -1131 
L 319 4513 
L 3519 4513 
L 3519 -1131 
L 319 -1131 
z
M 678 -775 
L 3163 -775 
L 3163 4153 
L 678 4153 
L 678 -775 
z
" transform="scale(0.015625)"/>
      <path id="DejaVuSans-6d4b" d="M 319 -1131 
L 319 4513 
L 3519 4513 
L 3519 -1131 
L 319 -1131 
z
M 678 -775 
L 3163 -775 
L 3163 4153 
L 678 4153 
L 678 -775 
z
" transform="scale(0.015625)"/>
      <path id="DejaVuSans-5bf9" d="M 319 -1131 
L 319 4513 
L 3519 4513 
L 3519 -1131 
L 319 -1131 
z
M 678 -775 
L 3163 -775 
L 3163 4153 
L 678 4153 
L 678 -775 
z
" transform="scale(0.015625)"/>
      <path id="DejaVuSans-6bd4" d="M 319 -1131 
L 319 4513 
L 3519 4513 
L 3519 -1131 
L 319 -1131 
z
M 678 -775 
L 3163 -775 
L 3163 4153 
L 678 4153 
L 678 -775 
z
" transform="scale(0.015625)"/>
     </defs>
     <use xlink:href="#DejaVuSans-43"/>
     <use xlink:href="#DejaVuSans-4f" transform="translate(69.824219 0)"/>
     <use xlink:href="#DejaVuSans-44" transform="translate(148.535156 0)"/>
     <use xlink:href="#DejaVuSans-5f" transform="translate(225.537109 0)"/>
     <use xlink:href="#DejaVuSans-6d" transform="translate(275.537109 0)"/>
     <use xlink:href="#DejaVuSans-67" transform="translate(372.949219 0)"/>
     <use xlink:href="#DejaVuSans-2f" transform="translate(436.425781 0)"/>
     <use xlink:href="#DejaVuSans-4c" transform="translate(470.117188 0)"/>
     <use xlink:href="#DejaVuSans-20" transform="translate(525.830078 0)"/>
     <use xlink:href="#DejaVuSans-65f6" transform="translate(557.617188 0)"/>
     <use xlink:href="#DejaVuSans-95f4" transform="translate(617.626953 0)"/>
     <use xlink:href="#DejaVuSans-5e8f" transform="translate(677.636719 0)"/>
     <use xlink:href="#DejaVuSans-5217" transform="translate(737.646484 0)"/>
     <use xlink:href="#DejaVuSans-ff1a" transform="translate(797.65625 0)"/>
     <use xlink:href="#DejaVuSans-771f" transform="translate(857.666016 0)"/>
     <use xlink:href="#DejaVuSans-5b9e" transform="translate(917.675781 0)"/>
     <use xlink:href="#DejaVuSans-503c" transform="translate(977.685547 0)"/>
     <use xlink:href="#DejaVuSans-4e0e" transform="translate(1037.695312 0)"/>
     <use xlink:href="#DejaVuSans-9884" transform="translate(1097.705078 0)"/>
     <use xlink:href="#DejaVuSans-6d4b" transform="translate(1157.714844 0)"/>
     <use xlink:href="#DejaVuSans-503c" transform="translate(1217.724609 0)"/>
     <use xlink:href="#DejaVuSans-5bf9" transform="translate(1277.734375 0)"/>
     <use xlink:href="#DejaVuSans-6bd4" transform="translate(1337.744141 0)"/>
    </g>
    <!-- $R^2$ = 0.8756,$RMSE$ =0.1628 -->
    <g transform="translate(289.533438 30.772875) scale(0.12 -0.12)">
     <defs>
      <path id="DejaVuSans-Oblique-52" d="M 1613 4147 
L 1294 2491 
L 2106 2491 
Q 2584 2491 2879 2755 
Q 3175 3019 3175 3444 
Q 3175 3784 2976 3965 
Q 2778 4147 2406 4147 
L 1613 4147 
z
M 2772 2241 
Q 2972 2194 3105 2009 
Q 3238 1825 3413 1275 
L 3809 0 
L 3144 0 
L 2778 1197 
Q 2638 1659 2453 1815 
Q 2269 1972 1888 1972 
L 1191 1972 
L 806 0 
L 172 0 
L 1081 4666 
L 2503 4666 
Q 3150 4666 3495 4373 
Q 3841 4081 3841 3531 
Q 3841 3044 3547 2687 
Q 3253 2331 2772 2241 
z
" transform="scale(0.015625)"/>
      <path id="DejaVuSans-3d" d="M 678 2906 
L 4684 2906 
L 4684 2381 
L 678 2381 
L 678 2906 
z
M 678 1631 
L 4684 1631 
L 4684 1100 
L 678 1100 
L 678 1631 
z
" transform="scale(0.015625)"/>
      <path id="DejaVuSans-2e" d="M 684 794 
L 1344 794 
L 1344 0 
L 684 0 
L 684 794 
z
" transform="scale(0.015625)"/>
      <path id="DejaVuSans-38" d="M 2034 2216 
Q 1584 2216 1326 1975 
Q 1069 1734 1069 1313 
Q 1069 891 1326 650 
Q 1584 409 2034 409 
Q 2484 409 2743 651 
Q 3003 894 3003 1313 
Q 3003 1734 2745 1975 
Q 2488 2216 2034 2216 
z
M 1403 2484 
Q 997 2584 770 2862 
Q 544 3141 544 3541 
Q 544 4100 942 4425 
Q 1341 4750 2034 4750 
Q 2731 4750 3128 4425 
Q 3525 4100 3525 3541 
Q 3525 3141 3298 2862 
Q 3072 2584 2669 2484 
Q 3125 2378 3379 2068 
Q 3634 1759 3634 1313 
Q 3634 634 3220 271 
Q 2806 -91 2034 -91 
Q 1263 -91 848 271 
Q 434 634 434 1313 
Q 434 1759 690 2068 
Q 947 2378 1403 2484 
z
M 1172 3481 
Q 1172 3119 1398 2916 
Q 1625 2713 2034 2713 
Q 2441 2713 2670 2916 
Q 2900 3119 2900 3481 
Q 2900 3844 2670 4047 
Q 2441 4250 2034 4250 
Q 1625 4250 1398 4047 
Q 1172 3844 1172 3481 
z
" transform="scale(0.015625)"/>
      <path id="DejaVuSans-37" d="M 525 4666 
L 3525 4666 
L 3525 4397 
L 1831 0 
L 1172 0 
L 2766 4134 
L 525 4134 
L 525 4666 
z
" transform="scale(0.015625)"/>
      <path id="DejaVuSans-36" d="M 2113 2584 
Q 1688 2584 1439 2293 
Q 1191 2003 1191 1497 
Q 1191 994 1439 701 
Q 1688 409 2113 409 
Q 2538 409 2786 701 
Q 3034 994 3034 1497 
Q 3034 2003 2786 2293 
Q 2538 2584 2113 2584 
z
M 3366 4563 
L 3366 3988 
Q 3128 4100 2886 4159 
Q 2644 4219 2406 4219 
Q 1781 4219 1451 3797 
Q 1122 3375 1075 2522 
Q 1259 2794 1537 2939 
Q 1816 3084 2150 3084 
Q 2853 3084 3261 2657 
Q 3669 2231 3669 1497 
Q 3669 778 3244 343 
Q 2819 -91 2113 -91 
Q 1303 -91 875 529 
Q 447 1150 447 2328 
Q 447 3434 972 4092 
Q 1497 4750 2381 4750 
Q 2619 4750 2861 4703 
Q 3103 4656 3366 4563 
z
" transform="scale(0.015625)"/>
      <path id="DejaVuSans-2c" d="M 750 794 
L 1409 794 
L 1409 256 
L 897 -744 
L 494 -744 
L 750 256 
L 750 794 
z
" transform="scale(0.015625)"/>
      <path id="DejaVuSans-Oblique-4d" d="M 1081 4666 
L 2028 4666 
L 2572 1522 
L 4378 4666 
L 5350 4666 
L 4441 0 
L 3828 0 
L 4622 4091 
L 2791 897 
L 2175 897 
L 1581 4103 
L 788 0 
L 172 0 
L 1081 4666 
z
" transform="scale(0.015625)"/>
      <path id="DejaVuSans-Oblique-53" d="M 3859 4513 
L 3738 3897 
Q 3422 4066 3111 4152 
Q 2800 4238 2509 4238 
Q 1944 4238 1609 3991 
Q 1275 3744 1275 3334 
Q 1275 3109 1398 2989 
Q 1522 2869 2034 2731 
L 2413 2638 
Q 3053 2472 3303 2217 
Q 3553 1963 3553 1503 
Q 3553 797 2998 353 
Q 2444 -91 1538 -91 
Q 1166 -91 791 -17 
Q 416 56 38 206 
L 166 856 
Q 513 641 861 531 
Q 1209 422 1556 422 
Q 2147 422 2503 684 
Q 2859 947 2859 1369 
Q 2859 1650 2717 1795 
Q 2575 1941 2106 2059 
L 1728 2156 
Q 1081 2325 845 2545 
Q 609 2766 609 3163 
Q 609 3859 1145 4304 
Q 1681 4750 2541 4750 
Q 2875 4750 3203 4690 
Q 3531 4631 3859 4513 
z
" transform="scale(0.015625)"/>
      <path id="DejaVuSans-Oblique-45" d="M 1081 4666 
L 4031 4666 
L 3928 4134 
L 1606 4134 
L 1338 2753 
L 3566 2753 
L 3463 2222 
L 1234 2222 
L 909 531 
L 3284 531 
L 3181 0 
L 172 0 
L 1081 4666 
z
" transform="scale(0.015625)"/>
     </defs>
     <use xlink:href="#DejaVuSans-Oblique-52" transform="translate(0 0.765625)"/>
     <use xlink:href="#DejaVuSans-32" transform="translate(76.499193 39.046875) scale(0.7)"/>
     <use xlink:href="#DejaVuSans-20" transform="translate(123.769701 0.765625)"/>
     <use xlink:href="#DejaVuSans-3d" transform="translate(155.55681 0.765625)"/>
     <use xlink:href="#DejaVuSans-20" transform="translate(239.345872 0.765625)"/>
     <use xlink:href="#DejaVuSans-30" transform="translate(271.132982 0.765625)"/>
     <use xlink:href="#DejaVuSans-2e" transform="translate(334.756029 0.765625)"/>
     <use xlink:href="#DejaVuSans-38" transform="translate(363.918138 0.765625)"/>
     <use xlink:href="#DejaVuSans-37" transform="translate(427.541185 0.765625)"/>
     <use xlink:href="#DejaVuSans-35" transform="translate(491.164232 0.765625)"/>
     <use xlink:href="#DejaVuSans-36" transform="translate(554.787279 0.765625)"/>
     <use xlink:href="#DejaVuSans-2c" transform="translate(618.410326 0.765625)"/>
     <use xlink:href="#DejaVuSans-Oblique-52" transform="translate(650.197435 0.765625)"/>
     <use xlink:href="#DejaVuSans-Oblique-4d" transform="translate(719.679857 0.765625)"/>
     <use xlink:href="#DejaVuSans-Oblique-53" transform="translate(805.959154 0.765625)"/>
     <use xlink:href="#DejaVuSans-Oblique-45" transform="translate(869.435716 0.765625)"/>
     <use xlink:href="#DejaVuSans-20" transform="translate(932.61931 0.765625)"/>
     <use xlink:href="#DejaVuSans-3d" transform="translate(964.406419 0.765625)"/>
     <use xlink:href="#DejaVuSans-30" transform="translate(1048.195482 0.765625)"/>
     <use xlink:href="#DejaVuSans-2e" transform="translate(1111.818529 0.765625)"/>
     <use xlink:href="#DejaVuSans-31" transform="translate(1143.605638 0.765625)"/>
     <use xlink:href="#DejaVuSans-36" transform="translate(1207.228685 0.765625)"/>
     <use xlink:href="#DejaVuSans-32" transform="translate(1270.851732 0.765625)"/>
     <use xlink:href="#DejaVuSans-38" transform="translate(1334.474779 0.765625)"/>
    </g>
   </g>
   <g id="legend_1">
    <g id="patch_7">
     <path d="M 47.958438 381.134475 
L 189.521406 381.134475 
Q 191.321406 381.134475 191.321406 379.334475 
L 191.321406 353.563537 
Q 191.321406 351.763537 189.521406 351.763537 
L 47.958438 351.763537 
Q 46.158438 351.763537 46.158438 353.563537 
L 46.158438 379.334475 
Q 46.158438 381.134475 47.958438 381.134475 
z
" style="fill: #ffffff; opacity: 0.8; stroke: #cccccc; stroke-width: 0.5; stroke-linejoin: miter"/>
    </g>
    <g id="line2d_25">
     <path d="M 49.758438 359.052131 
L 58.758438 359.052131 
L 67.758438 359.052131 
" style="fill: none; stroke: #2878b5; stroke-width: 1.5; stroke-linecap: square"/>
    </g>
    <g id="text_15">
     <!-- 真实 COD_mg/L 值 -->
     <g transform="translate(74.958438 362.202131) scale(0.09 -0.09)">
      <use xlink:href="#DejaVuSans-771f"/>
      <use xlink:href="#DejaVuSans-5b9e" transform="translate(60.009766 0)"/>
      <use xlink:href="#DejaVuSans-20" transform="translate(120.019531 0)"/>
      <use xlink:href="#DejaVuSans-43" transform="translate(151.806641 0)"/>
      <use xlink:href="#DejaVuSans-4f" transform="translate(221.630859 0)"/>
      <use xlink:href="#DejaVuSans-44" transform="translate(300.341797 0)"/>
      <use xlink:href="#DejaVuSans-5f" transform="translate(377.34375 0)"/>
      <use xlink:href="#DejaVuSans-6d" transform="translate(427.34375 0)"/>
      <use xlink:href="#DejaVuSans-67" transform="translate(524.755859 0)"/>
      <use xlink:href="#DejaVuSans-2f" transform="translate(588.232422 0)"/>
      <use xlink:href="#DejaVuSans-4c" transform="translate(621.923828 0)"/>
      <use xlink:href="#DejaVuSans-20" transform="translate(677.636719 0)"/>
      <use xlink:href="#DejaVuSans-503c" transform="translate(709.423828 0)"/>
     </g>
    </g>
    <g id="line2d_26">
     <path d="M 49.758438 372.512756 
L 58.758438 372.512756 
L 67.758438 372.512756 
" style="fill: none; stroke-dasharray: 5.55,2.4; stroke-dashoffset: 0; stroke: #c82423; stroke-width: 1.5"/>
    </g>
    <g id="text_16">
     <!-- 预测值 (SARIMA + XGBoost) -->
     <g transform="translate(74.958438 375.662756) scale(0.09 -0.09)">
      <defs>
       <path id="DejaVuSans-28" d="M 1984 4856 
Q 1566 4138 1362 3434 
Q 1159 2731 1159 2009 
Q 1159 1288 1364 580 
Q 1569 -128 1984 -844 
L 1484 -844 
Q 1016 -109 783 600 
Q 550 1309 550 2009 
Q 550 2706 781 3412 
Q 1013 4119 1484 4856 
L 1984 4856 
z
" transform="scale(0.015625)"/>
       <path id="DejaVuSans-53" d="M 3425 4513 
L 3425 3897 
Q 3066 4069 2747 4153 
Q 2428 4238 2131 4238 
Q 1616 4238 1336 4038 
Q 1056 3838 1056 3469 
Q 1056 3159 1242 3001 
Q 1428 2844 1947 2747 
L 2328 2669 
Q 3034 2534 3370 2195 
Q 3706 1856 3706 1288 
Q 3706 609 3251 259 
Q 2797 -91 1919 -91 
Q 1588 -91 1214 -16 
Q 841 59 441 206 
L 441 856 
Q 825 641 1194 531 
Q 1563 422 1919 422 
Q 2459 422 2753 634 
Q 3047 847 3047 1241 
Q 3047 1584 2836 1778 
Q 2625 1972 2144 2069 
L 1759 2144 
Q 1053 2284 737 2584 
Q 422 2884 422 3419 
Q 422 4038 858 4394 
Q 1294 4750 2059 4750 
Q 2388 4750 2728 4690 
Q 3069 4631 3425 4513 
z
" transform="scale(0.015625)"/>
       <path id="DejaVuSans-41" d="M 2188 4044 
L 1331 1722 
L 3047 1722 
L 2188 4044 
z
M 1831 4666 
L 2547 4666 
L 4325 0 
L 3669 0 
L 3244 1197 
L 1141 1197 
L 716 0 
L 50 0 
L 1831 4666 
z
" transform="scale(0.015625)"/>
       <path id="DejaVuSans-52" d="M 2841 2188 
Q 3044 2119 3236 1894 
Q 3428 1669 3622 1275 
L 4263 0 
L 3584 0 
L 2988 1197 
Q 2756 1666 2539 1819 
Q 2322 1972 1947 1972 
L 1259 1972 
L 1259 0 
L 628 0 
L 628 4666 
L 2053 4666 
Q 2853 4666 3247 4331 
Q 3641 3997 3641 3322 
Q 3641 2881 3436 2590 
Q 3231 2300 2841 2188 
z
M 1259 4147 
L 1259 2491 
L 2053 2491 
Q 2509 2491 2742 2702 
Q 2975 2913 2975 3322 
Q 2975 3731 2742 3939 
Q 2509 4147 2053 4147 
L 1259 4147 
z
" transform="scale(0.015625)"/>
       <path id="DejaVuSans-49" d="M 628 4666 
L 1259 4666 
L 1259 0 
L 628 0 
L 628 4666 
z
" transform="scale(0.015625)"/>
       <path id="DejaVuSans-4d" d="M 628 4666 
L 1569 4666 
L 2759 1491 
L 3956 4666 
L 4897 4666 
L 4897 0 
L 4281 0 
L 4281 4097 
L 3078 897 
L 2444 897 
L 1241 4097 
L 1241 0 
L 628 0 
L 628 4666 
z
" transform="scale(0.015625)"/>
       <path id="DejaVuSans-2b" d="M 2944 4013 
L 2944 2272 
L 4684 2272 
L 4684 1741 
L 2944 1741 
L 2944 0 
L 2419 0 
L 2419 1741 
L 678 1741 
L 678 2272 
L 2419 2272 
L 2419 4013 
L 2944 4013 
z
" transform="scale(0.015625)"/>
       <path id="DejaVuSans-58" d="M 403 4666 
L 1081 4666 
L 2241 2931 
L 3406 4666 
L 4084 4666 
L 2584 2425 
L 4184 0 
L 3506 0 
L 2194 1984 
L 872 0 
L 191 0 
L 1856 2491 
L 403 4666 
z
" transform="scale(0.015625)"/>
       <path id="DejaVuSans-47" d="M 3809 666 
L 3809 1919 
L 2778 1919 
L 2778 2438 
L 4434 2438 
L 4434 434 
Q 4069 175 3628 42 
Q 3188 -91 2688 -91 
Q 1594 -91 976 548 
Q 359 1188 359 2328 
Q 359 3472 976 4111 
Q 1594 4750 2688 4750 
Q 3144 4750 3555 4637 
Q 3966 4525 4313 4306 
L 4313 3634 
Q 3963 3931 3569 4081 
Q 3175 4231 2741 4231 
Q 1884 4231 1454 3753 
Q 1025 3275 1025 2328 
Q 1025 1384 1454 906 
Q 1884 428 2741 428 
Q 3075 428 3337 486 
Q 3600 544 3809 666 
z
" transform="scale(0.015625)"/>
       <path id="DejaVuSans-42" d="M 1259 2228 
L 1259 519 
L 2272 519 
Q 2781 519 3026 730 
Q 3272 941 3272 1375 
Q 3272 1813 3026 2020 
Q 2781 2228 2272 2228 
L 1259 2228 
z
M 1259 4147 
L 1259 2741 
L 2194 2741 
Q 2656 2741 2882 2914 
Q 3109 3088 3109 3444 
Q 3109 3797 2882 3972 
Q 2656 4147 2194 4147 
L 1259 4147 
z
M 628 4666 
L 2241 4666 
Q 2963 4666 3353 4366 
Q 3744 4066 3744 3513 
Q 3744 3084 3544 2831 
Q 3344 2578 2956 2516 
Q 3422 2416 3680 2098 
Q 3938 1781 3938 1306 
Q 3938 681 3513 340 
Q 3088 0 2303 0 
L 628 0 
L 628 4666 
z
" transform="scale(0.015625)"/>
       <path id="DejaVuSans-6f" d="M 1959 3097 
Q 1497 3097 1228 2736 
Q 959 2375 959 1747 
Q 959 1119 1226 758 
Q 1494 397 1959 397 
Q 2419 397 2687 759 
Q 2956 1122 2956 1747 
Q 2956 2369 2687 2733 
Q 2419 3097 1959 3097 
z
M 1959 3584 
Q 2709 3584 3137 3096 
Q 3566 2609 3566 1747 
Q 3566 888 3137 398 
Q 2709 -91 1959 -91 
Q 1206 -91 779 398 
Q 353 888 353 1747 
Q 353 2609 779 3096 
Q 1206 3584 1959 3584 
z
" transform="scale(0.015625)"/>
       <path id="DejaVuSans-73" d="M 2834 3397 
L 2834 2853 
Q 2591 2978 2328 3040 
Q 2066 3103 1784 3103 
Q 1356 3103 1142 2972 
Q 928 2841 928 2578 
Q 928 2378 1081 2264 
Q 1234 2150 1697 2047 
L 1894 2003 
Q 2506 1872 2764 1633 
Q 3022 1394 3022 966 
Q 3022 478 2636 193 
Q 2250 -91 1575 -91 
Q 1294 -91 989 -36 
Q 684 19 347 128 
L 347 722 
Q 666 556 975 473 
Q 1284 391 1588 391 
Q 1994 391 2212 530 
Q 2431 669 2431 922 
Q 2431 1156 2273 1281 
Q 2116 1406 1581 1522 
L 1381 1569 
Q 847 1681 609 1914 
Q 372 2147 372 2553 
Q 372 3047 722 3315 
Q 1072 3584 1716 3584 
Q 2034 3584 2315 3537 
Q 2597 3491 2834 3397 
z
" transform="scale(0.015625)"/>
       <path id="DejaVuSans-74" d="M 1172 4494 
L 1172 3500 
L 2356 3500 
L 2356 3053 
L 1172 3053 
L 1172 1153 
Q 1172 725 1289 603 
Q 1406 481 1766 481 
L 2356 481 
L 2356 0 
L 1766 0 
Q 1100 0 847 248 
Q 594 497 594 1153 
L 594 3053 
L 172 3053 
L 172 3500 
L 594 3500 
L 594 4494 
L 1172 4494 
z
" transform="scale(0.015625)"/>
       <path id="DejaVuSans-29" d="M 513 4856 
L 1013 4856 
Q 1481 4119 1714 3412 
Q 1947 2706 1947 2009 
Q 1947 1309 1714 600 
Q 1481 -109 1013 -844 
L 513 -844 
Q 928 -128 1133 580 
Q 1338 1288 1338 2009 
Q 1338 2731 1133 3434 
Q 928 4138 513 4856 
z
" transform="scale(0.015625)"/>
      </defs>
      <use xlink:href="#DejaVuSans-9884"/>
      <use xlink:href="#DejaVuSans-6d4b" transform="translate(60.009766 0)"/>
      <use xlink:href="#DejaVuSans-503c" transform="translate(120.019531 0)"/>
      <use xlink:href="#DejaVuSans-20" transform="translate(180.029297 0)"/>
      <use xlink:href="#DejaVuSans-28" transform="translate(211.816406 0)"/>
      <use xlink:href="#DejaVuSans-53" transform="translate(250.830078 0)"/>
      <use xlink:href="#DejaVuSans-41" transform="translate(316.181641 0)"/>
      <use xlink:href="#DejaVuSans-52" transform="translate(384.589844 0)"/>
      <use xlink:href="#DejaVuSans-49" transform="translate(454.072266 0)"/>
      <use xlink:href="#DejaVuSans-4d" transform="translate(483.564453 0)"/>
      <use xlink:href="#DejaVuSans-41" transform="translate(569.84375 0)"/>
      <use xlink:href="#DejaVuSans-20" transform="translate(638.251953 0)"/>
      <use xlink:href="#DejaVuSans-2b" transform="translate(670.039062 0)"/>
      <use xlink:href="#DejaVuSans-20" transform="translate(753.828125 0)"/>
      <use xlink:href="#DejaVuSans-58" transform="translate(785.615234 0)"/>
      <use xlink:href="#DejaVuSans-47" transform="translate(854.121094 0)"/>
      <use xlink:href="#DejaVuSans-42" transform="translate(931.611328 0)"/>
      <use xlink:href="#DejaVuSans-6f" transform="translate(1000.214844 0)"/>
      <use xlink:href="#DejaVuSans-6f" transform="translate(1061.396484 0)"/>
      <use xlink:href="#DejaVuSans-73" transform="translate(1122.578125 0)"/>
      <use xlink:href="#DejaVuSans-74" transform="translate(1174.677734 0)"/>
      <use xlink:href="#DejaVuSans-29" transform="translate(1213.886719 0)"/>
     </g>
    </g>
   </g>
  </g>
 </g>
 <defs>
  <clipPath id="p54ea7a5dee">
   <rect x="41.658438" y="40.772875" width="663.63" height="344.8616"/>
  </clipPath>
 </defs>
</svg>
