<?xml version="1.0" encoding="utf-8" standalone="no"?>
<!DOCTYPE svg PUBLIC "-//W3C//DTD SVG 1.1//EN"
  "http://www.w3.org/Graphics/SVG/1.1/DTD/svg11.dtd">
<svg xmlns:xlink="http://www.w3.org/1999/xlink" width="712.393906pt" height="422.765937pt" viewBox="0 0 712.393906 422.765937" xmlns="http://www.w3.org/2000/svg" version="1.1">
 <metadata>
  <rdf:RDF xmlns:dc="http://purl.org/dc/elements/1.1/" xmlns:cc="http://creativecommons.org/ns#" xmlns:rdf="http://www.w3.org/1999/02/22-rdf-syntax-ns#">
   <cc:Work>
    <dc:type rdf:resource="http://purl.org/dc/dcmitype/StillImage"/>
    <dc:date>2026-01-16T01:39:52.498055</dc:date>
    <dc:format>image/svg+xml</dc:format>
    <dc:creator>
     <cc:Agent>
      <dc:title>Matplotlib v3.10.0, https://matplotlib.org/</dc:title>
     </cc:Agent>
    </dc:creator>
   </cc:Work>
  </rdf:RDF>
 </metadata>
 <defs>
  <style type="text/css">*{stroke-linejoin: round; stroke-linecap: butt}</style>
 </defs>
 <g id="figure_1">
  <g id="patch_1">
   <path d="M 0 422.765937 
L 712.393906 422.765937 
L 712.393906 0 
L 0 0 
z
" style="fill: #ffffff"/>
  </g>
  <g id="axes_1">
   <g id="patch_2">
    <path d="M 44.803906 389.6775 
L 705.193906 389.6775 
L 705.193906 26.10625 
L 44.803906 26.10625 
z
" style="fill: #ffffff"/>
   </g>
   <g id="matplotlib.axis_1">
    <g id="xtick_1">
     <g id="line2d_1">
      <path d="M 74.547624 389.6775 
L 74.547624 26.10625 
" clip-path="url(#p3355681820)" style="fill: none; stroke-dasharray: 1.85,0.8; stroke-dashoffset: 0; stroke: #b2b2b2; stroke-opacity: 0.3; stroke-width: 0.5"/>
     </g>
     <g id="line2d_2">
      <defs>
       <path id="m165ab942f2" d="M 0 0 
L 0 -3.5 
" style="stroke: #000000; stroke-width: 0.8"/>
      </defs>
      <g>
       <use xlink:href="#m165ab942f2" x="74.547624" y="389.6775" style="stroke: #000000; stroke-width: 0.8"/>
      </g>
     </g>
     <g id="text_1">
      <!-- 0 -->
      <g transform="translate(71.684499 400.016094) scale(0.09 -0.09)">
       <defs>
        <path id="DejaVuSans-30" d="M 2034 4250 
Q 1547 4250 1301 3770 
Q 1056 3291 1056 2328 
Q 1056 1369 1301 889 
Q 1547 409 2034 409 
Q 2525 409 2770 889 
Q 3016 1369 3016 2328 
Q 3016 3291 2770 3770 
Q 2525 4250 2034 4250 
z
M 2034 4750 
Q 2819 4750 3233 4129 
Q 3647 3509 3647 2328 
Q 3647 1150 3233 529 
Q 2819 -91 2034 -91 
Q 1250 -91 836 529 
Q 422 1150 422 2328 
Q 422 3509 836 4129 
Q 1250 4750 2034 4750 
z
" transform="scale(0.015625)"/>
       </defs>
       <use xlink:href="#DejaVuSans-30"/>
      </g>
     </g>
    </g>
    <g id="xtick_2">
     <g id="line2d_3">
      <path d="M 211.552313 389.6775 
L 211.552313 26.10625 
" clip-path="url(#p3355681820)" style="fill: none; stroke-dasharray: 1.85,0.8; stroke-dashoffset: 0; stroke: #b2b2b2; stroke-opacity: 0.3; stroke-width: 0.5"/>
     </g>
     <g id="line2d_4">
      <g>
       <use xlink:href="#m165ab942f2" x="211.552313" y="389.6775" style="stroke: #000000; stroke-width: 0.8"/>
      </g>
     </g>
     <g id="text_2">
      <!-- 500 -->
      <g transform="translate(202.962938 400.016094) scale(0.09 -0.09)">
       <defs>
        <path id="DejaVuSans-35" d="M 691 4666 
L 3169 4666 
L 3169 4134 
L 1269 4134 
L 1269 2991 
Q 1406 3038 1543 3061 
Q 1681 3084 1819 3084 
Q 2600 3084 3056 2656 
Q 3513 2228 3513 1497 
Q 3513 744 3044 326 
Q 2575 -91 1722 -91 
Q 1428 -91 1123 -41 
Q 819 9 494 109 
L 494 744 
Q 775 591 1075 516 
Q 1375 441 1709 441 
Q 2250 441 2565 725 
Q 2881 1009 2881 1497 
Q 2881 1984 2565 2268 
Q 2250 2553 1709 2553 
Q 1456 2553 1204 2497 
Q 953 2441 691 2322 
L 691 4666 
z
" transform="scale(0.015625)"/>
       </defs>
       <use xlink:href="#DejaVuSans-35"/>
       <use xlink:href="#DejaVuSans-30" transform="translate(63.623047 0)"/>
       <use xlink:href="#DejaVuSans-30" transform="translate(127.246094 0)"/>
      </g>
     </g>
    </g>
    <g id="xtick_3">
     <g id="line2d_5">
      <path d="M 348.557001 389.6775 
L 348.557001 26.10625 
" clip-path="url(#p3355681820)" style="fill: none; stroke-dasharray: 1.85,0.8; stroke-dashoffset: 0; stroke: #b2b2b2; stroke-opacity: 0.3; stroke-width: 0.5"/>
     </g>
     <g id="line2d_6">
      <g>
       <use xlink:href="#m165ab942f2" x="348.557001" y="389.6775" style="stroke: #000000; stroke-width: 0.8"/>
      </g>
     </g>
     <g id="text_3">
      <!-- 1000 -->
      <g transform="translate(337.104501 400.016094) scale(0.09 -0.09)">
       <defs>
        <path id="DejaVuSans-31" d="M 794 531 
L 1825 531 
L 1825 4091 
L 703 3866 
L 703 4441 
L 1819 4666 
L 2450 4666 
L 2450 531 
L 3481 531 
L 3481 0 
L 794 0 
L 794 531 
z
" transform="scale(0.015625)"/>
       </defs>
       <use xlink:href="#DejaVuSans-31"/>
       <use xlink:href="#DejaVuSans-30" transform="translate(63.623047 0)"/>
       <use xlink:href="#DejaVuSans-30" transform="translate(127.246094 0)"/>
       <use xlink:href="#DejaVuSans-30" transform="translate(190.869141 0)"/>
      </g>
     </g>
    </g>
    <g id="xtick_4">
     <g id="line2d_7">
      <path d="M 485.56169 389.6775 
L 485.56169 26.10625 
" clip-path="url(#p3355681820)" style="fill: none; stroke-dasharray: 1.85,0.8; stroke-dashoffset: 0; stroke: #b2b2b2; stroke-opacity: 0.3; stroke-width: 0.5"/>
     </g>
     <g id="line2d_8">
      <g>
       <use xlink:href="#m165ab942f2" x="485.56169" y="389.6775" style="stroke: #000000; stroke-width: 0.8"/>
      </g>
     </g>
     <g id="text_4">
      <!-- 1500 -->
      <g transform="translate(474.10919 400.016094) scale(0.09 -0.09)">
       <use xlink:href="#DejaVuSans-31"/>
       <use xlink:href="#DejaVuSans-35" transform="translate(63.623047 0)"/>
       <use xlink:href="#DejaVuSans-30" transform="translate(127.246094 0)"/>
       <use xlink:href="#DejaVuSans-30" transform="translate(190.869141 0)"/>
      </g>
     </g>
    </g>
    <g id="xtick_5">
     <g id="line2d_9">
      <path d="M 622.566379 389.6775 
L 622.566379 26.10625 
" clip-path="url(#p3355681820)" style="fill: none; stroke-dasharray: 1.85,0.8; stroke-dashoffset: 0; stroke: #b2b2b2; stroke-opacity: 0.3; stroke-width: 0.5"/>
     </g>
     <g id="line2d_10">
      <g>
       <use xlink:href="#m165ab942f2" x="622.566379" y="389.6775" style="stroke: #000000; stroke-width: 0.8"/>
      </g>
     </g>
     <g id="text_5">
      <!-- 2000 -->
      <g transform="translate(611.113879 400.016094) scale(0.09 -0.09)">
       <defs>
        <path id="DejaVuSans-32" d="M 1228 531 
L 3431 531 
L 3431 0 
L 469 0 
L 469 531 
Q 828 903 1448 1529 
Q 2069 2156 2228 2338 
Q 2531 2678 2651 2914 
Q 2772 3150 2772 3378 
Q 2772 3750 2511 3984 
Q 2250 4219 1831 4219 
Q 1534 4219 1204 4116 
Q 875 4013 500 3803 
L 500 4441 
Q 881 4594 1212 4672 
Q 1544 4750 1819 4750 
Q 2544 4750 2975 4387 
Q 3406 4025 3406 3419 
Q 3406 3131 3298 2873 
Q 3191 2616 2906 2266 
Q 2828 2175 2409 1742 
Q 1991 1309 1228 531 
z
" transform="scale(0.015625)"/>
       </defs>
       <use xlink:href="#DejaVuSans-32"/>
       <use xlink:href="#DejaVuSans-30" transform="translate(63.623047 0)"/>
       <use xlink:href="#DejaVuSans-30" transform="translate(127.246094 0)"/>
       <use xlink:href="#DejaVuSans-30" transform="translate(190.869141 0)"/>
      </g>
     </g>
    </g>
    <g id="text_6">
     <!-- 时间 / 序号 -->
     <g transform="translate(358.133281 413.48625) scale(0.1 -0.1)">
      <defs>
       <path id="DejaVuSans-65f6" d="M 319 -1131 
L 319 4513 
L 3519 4513 
L 3519 -1131 
L 319 -1131 
z
M 678 -775 
L 3163 -775 
L 3163 4153 
L 678 4153 
L 678 -775 
z
" transform="scale(0.015625)"/>
       <path id="DejaVuSans-95f4" d="M 319 -1131 
L 319 4513 
L 3519 4513 
L 3519 -1131 
L 319 -1131 
z
M 678 -775 
L 3163 -775 
L 3163 4153 
L 678 4153 
L 678 -775 
z
" transform="scale(0.015625)"/>
       <path id="DejaVuSans-20" transform="scale(0.015625)"/>
       <path id="DejaVuSans-2f" d="M 1625 4666 
L 2156 4666 
L 531 -594 
L 0 -594 
L 1625 4666 
z
" transform="scale(0.015625)"/>
       <path id="DejaVuSans-5e8f" d="M 319 -1131 
L 319 4513 
L 3519 4513 
L 3519 -1131 
L 319 -1131 
z
M 678 -775 
L 3163 -775 
L 3163 4153 
L 678 4153 
L 678 -775 
z
" transform="scale(0.015625)"/>
       <path id="DejaVuSans-53f7" d="M 319 -1131 
L 319 4513 
L 3519 4513 
L 3519 -1131 
L 319 -1131 
z
M 678 -775 
L 3163 -775 
L 3163 4153 
L 678 4153 
L 678 -775 
z
" transform="scale(0.015625)"/>
      </defs>
      <use xlink:href="#DejaVuSans-65f6"/>
      <use xlink:href="#DejaVuSans-95f4" transform="translate(60.009766 0)"/>
      <use xlink:href="#DejaVuSans-20" transform="translate(120.019531 0)"/>
      <use xlink:href="#DejaVuSans-2f" transform="translate(151.806641 0)"/>
      <use xlink:href="#DejaVuSans-20" transform="translate(185.498047 0)"/>
      <use xlink:href="#DejaVuSans-5e8f" transform="translate(217.285156 0)"/>
      <use xlink:href="#DejaVuSans-53f7" transform="translate(277.294922 0)"/>
     </g>
    </g>
   </g>
   <g id="matplotlib.axis_2">
    <g id="ytick_1">
     <g id="line2d_11">
      <path d="M 44.803906 350.944425 
L 705.193906 350.944425 
" clip-path="url(#p3355681820)" style="fill: none; stroke-dasharray: 1.85,0.8; stroke-dashoffset: 0; stroke: #b2b2b2; stroke-opacity: 0.3; stroke-width: 0.5"/>
     </g>
     <g id="line2d_12">
      <defs>
       <path id="m210d55f4a0" d="M 0 0 
L 3.5 0 
" style="stroke: #000000; stroke-width: 0.8"/>
      </defs>
      <g>
       <use xlink:href="#m210d55f4a0" x="44.803906" y="350.944425" style="stroke: #000000; stroke-width: 0.8"/>
      </g>
     </g>
     <g id="text_7">
      <!-- -100 -->
      <g transform="translate(20.878125 354.363722) scale(0.09 -0.09)">
       <defs>
        <path id="DejaVuSans-2d" d="M 313 2009 
L 1997 2009 
L 1997 1497 
L 313 1497 
L 313 2009 
z
" transform="scale(0.015625)"/>
       </defs>
       <use xlink:href="#DejaVuSans-2d"/>
       <use xlink:href="#DejaVuSans-31" transform="translate(36.083984 0)"/>
       <use xlink:href="#DejaVuSans-30" transform="translate(99.707031 0)"/>
       <use xlink:href="#DejaVuSans-30" transform="translate(163.330078 0)"/>
      </g>
     </g>
    </g>
    <g id="ytick_2">
     <g id="line2d_13">
      <path d="M 44.803906 305.973495 
L 705.193906 305.973495 
" clip-path="url(#p3355681820)" style="fill: none; stroke-dasharray: 1.85,0.8; stroke-dashoffset: 0; stroke: #b2b2b2; stroke-opacity: 0.3; stroke-width: 0.5"/>
     </g>
     <g id="line2d_14">
      <g>
       <use xlink:href="#m210d55f4a0" x="44.803906" y="305.973495" style="stroke: #000000; stroke-width: 0.8"/>
      </g>
     </g>
     <g id="text_8">
      <!-- -50 -->
      <g transform="translate(26.604375 309.392792) scale(0.09 -0.09)">
       <use xlink:href="#DejaVuSans-2d"/>
       <use xlink:href="#DejaVuSans-35" transform="translate(36.083984 0)"/>
       <use xlink:href="#DejaVuSans-30" transform="translate(99.707031 0)"/>
      </g>
     </g>
    </g>
    <g id="ytick_3">
     <g id="line2d_15">
      <path d="M 44.803906 261.002564 
L 705.193906 261.002564 
" clip-path="url(#p3355681820)" style="fill: none; stroke-dasharray: 1.85,0.8; stroke-dashoffset: 0; stroke: #b2b2b2; stroke-opacity: 0.3; stroke-width: 0.5"/>
     </g>
     <g id="line2d_16">
      <g>
       <use xlink:href="#m210d55f4a0" x="44.803906" y="261.002564" style="stroke: #000000; stroke-width: 0.8"/>
      </g>
     </g>
     <g id="text_9">
      <!-- 0 -->
      <g transform="translate(35.577656 264.421861) scale(0.09 -0.09)">
       <use xlink:href="#DejaVuSans-30"/>
      </g>
     </g>
    </g>
    <g id="ytick_4">
     <g id="line2d_17">
      <path d="M 44.803906 216.031634 
L 705.193906 216.031634 
" clip-path="url(#p3355681820)" style="fill: none; stroke-dasharray: 1.85,0.8; stroke-dashoffset: 0; stroke: #b2b2b2; stroke-opacity: 0.3; stroke-width: 0.5"/>
     </g>
     <g id="line2d_18">
      <g>
       <use xlink:href="#m210d55f4a0" x="44.803906" y="216.031634" style="stroke: #000000; stroke-width: 0.8"/>
      </g>
     </g>
     <g id="text_10">
      <!-- 50 -->
      <g transform="translate(29.851406 219.450931) scale(0.09 -0.09)">
       <use xlink:href="#DejaVuSans-35"/>
       <use xlink:href="#DejaVuSans-30" transform="translate(63.623047 0)"/>
      </g>
     </g>
    </g>
    <g id="ytick_5">
     <g id="line2d_19">
      <path d="M 44.803906 171.060703 
L 705.193906 171.060703 
" clip-path="url(#p3355681820)" style="fill: none; stroke-dasharray: 1.85,0.8; stroke-dashoffset: 0; stroke: #b2b2b2; stroke-opacity: 0.3; stroke-width: 0.5"/>
     </g>
     <g id="line2d_20">
      <g>
       <use xlink:href="#m210d55f4a0" x="44.803906" y="171.060703" style="stroke: #000000; stroke-width: 0.8"/>
      </g>
     </g>
     <g id="text_11">
      <!-- 100 -->
      <g transform="translate(24.125156 174.48) scale(0.09 -0.09)">
       <use xlink:href="#DejaVuSans-31"/>
       <use xlink:href="#DejaVuSans-30" transform="translate(63.623047 0)"/>
       <use xlink:href="#DejaVuSans-30" transform="translate(127.246094 0)"/>
      </g>
     </g>
    </g>
    <g id="ytick_6">
     <g id="line2d_21">
      <path d="M 44.803906 126.089773 
L 705.193906 126.089773 
" clip-path="url(#p3355681820)" style="fill: none; stroke-dasharray: 1.85,0.8; stroke-dashoffset: 0; stroke: #b2b2b2; stroke-opacity: 0.3; stroke-width: 0.5"/>
     </g>
     <g id="line2d_22">
      <g>
       <use xlink:href="#m210d55f4a0" x="44.803906" y="126.089773" style="stroke: #000000; stroke-width: 0.8"/>
      </g>
     </g>
     <g id="text_12">
      <!-- 150 -->
      <g transform="translate(24.125156 129.50907) scale(0.09 -0.09)">
       <use xlink:href="#DejaVuSans-31"/>
       <use xlink:href="#DejaVuSans-35" transform="translate(63.623047 0)"/>
       <use xlink:href="#DejaVuSans-30" transform="translate(127.246094 0)"/>
      </g>
     </g>
    </g>
    <g id="ytick_7">
     <g id="line2d_23">
      <path d="M 44.803906 81.118842 
L 705.193906 81.118842 
" clip-path="url(#p3355681820)" style="fill: none; stroke-dasharray: 1.85,0.8; stroke-dashoffset: 0; stroke: #b2b2b2; stroke-opacity: 0.3; stroke-width: 0.5"/>
     </g>
     <g id="line2d_24">
      <g>
       <use xlink:href="#m210d55f4a0" x="44.803906" y="81.118842" style="stroke: #000000; stroke-width: 0.8"/>
      </g>
     </g>
     <g id="text_13">
      <!-- 200 -->
      <g transform="translate(24.125156 84.538139) scale(0.09 -0.09)">
       <use xlink:href="#DejaVuSans-32"/>
       <use xlink:href="#DejaVuSans-30" transform="translate(63.623047 0)"/>
       <use xlink:href="#DejaVuSans-30" transform="translate(127.246094 0)"/>
      </g>
     </g>
    </g>
    <g id="ytick_8">
     <g id="line2d_25">
      <path d="M 44.803906 36.147912 
L 705.193906 36.147912 
" clip-path="url(#p3355681820)" style="fill: none; stroke-dasharray: 1.85,0.8; stroke-dashoffset: 0; stroke: #b2b2b2; stroke-opacity: 0.3; stroke-width: 0.5"/>
     </g>
     <g id="line2d_26">
      <g>
       <use xlink:href="#m210d55f4a0" x="44.803906" y="36.147912" style="stroke: #000000; stroke-width: 0.8"/>
      </g>
     </g>
     <g id="text_14">
      <!-- 250 -->
      <g transform="translate(24.125156 39.567209) scale(0.09 -0.09)">
       <use xlink:href="#DejaVuSans-32"/>
       <use xlink:href="#DejaVuSans-35" transform="translate(63.623047 0)"/>
       <use xlink:href="#DejaVuSans-30" transform="translate(127.246094 0)"/>
      </g>
     </g>
    </g>
    <g id="text_15">
     <!-- 残差值 -->
     <g transform="translate(14.798438 216.894219) rotate(-90) scale(0.1 -0.1)">
      <defs>
       <path id="DejaVuSans-6b8b" d="M 319 -1131 
L 319 4513 
L 3519 4513 
L 3519 -1131 
L 319 -1131 
z
M 678 -775 
L 3163 -775 
L 3163 4153 
L 678 4153 
L 678 -775 
z
" transform="scale(0.015625)"/>
       <path id="DejaVuSans-5dee" d="M 319 -1131 
L 319 4513 
L 3519 4513 
L 3519 -1131 
L 319 -1131 
z
M 678 -775 
L 3163 -775 
L 3163 4153 
L 678 4153 
L 678 -775 
z
" transform="scale(0.015625)"/>
       <path id="DejaVuSans-503c" d="M 319 -1131 
L 319 4513 
L 3519 4513 
L 3519 -1131 
L 319 -1131 
z
M 678 -775 
L 3163 -775 
L 3163 4153 
L 678 4153 
L 678 -775 
z
" transform="scale(0.015625)"/>
      </defs>
      <use xlink:href="#DejaVuSans-6b8b"/>
      <use xlink:href="#DejaVuSans-5dee" transform="translate(60.009766 0)"/>
      <use xlink:href="#DejaVuSans-503c" transform="translate(120.019531 0)"/>
     </g>
    </g>
   </g>
   <g id="line2d_27">
    <path d="M 74.821634 112.688436 
L 75.095643 252.960664 
L 75.369652 258.484578 
L 75.643662 245.302616 
L 75.917671 269.628861 
L 76.46569 258.321235 
L 76.739699 260.329517 
L 77.013709 269.550649 
L 77.287718 241.358483 
L 77.561727 173.959855 
L 77.835737 342.781098 
L 78.109746 340.609039 
L 78.383755 268.797123 
L 78.657765 265.264386 
L 78.931774 280.43452 
L 79.205784 275.624442 
L 79.479793 250.184375 
L 79.753802 269.989206 
L 80.027812 263.648376 
L 80.301821 254.542666 
L 80.57583 289.790904 
L 80.84984 346.684908 
L 81.123849 232.342215 
L 81.397859 224.024285 
L 81.671868 260.585128 
L 81.945877 256.454617 
L 82.219887 261.122115 
L 82.493896 164.728788 
L 82.767905 297.623747 
L 83.041915 261.014557 
L 83.315924 275.535276 
L 83.589934 261.898871 
L 83.863943 270.372522 
L 84.137952 329.586347 
L 84.411962 251.900112 
L 84.685971 264.478445 
L 84.95998 243.851444 
L 85.23399 232.12732 
L 85.507999 264.902896 
L 85.782009 255.203317 
L 86.056018 212.495427 
L 86.330027 229.422581 
L 86.604037 294.282481 
L 86.878046 261.687935 
L 87.152055 270.242744 
L 87.426065 297.276745 
L 87.700074 257.372194 
L 88.248093 269.114997 
L 88.522102 288.495611 
L 88.796112 273.515499 
L 89.070121 288.793642 
L 89.344131 269.733656 
L 89.61814 265.261668 
L 89.892149 228.240859 
L 90.166159 249.400957 
L 90.714177 262.516584 
L 90.988187 235.320134 
L 91.262196 294.923861 
L 91.536206 277.656075 
L 91.810215 275.286796 
L 92.084224 252.689084 
L 92.358234 296.182429 
L 92.632243 261.77 
L 92.906252 269.040826 
L 93.180262 250.804072 
L 93.454271 258.3796 
L 93.728281 247.106434 
L 94.00229 249.809696 
L 94.276299 238.915605 
L 94.550309 189.176509 
L 94.824318 242.349903 
L 95.098327 229.069562 
L 95.646346 258.193392 
L 95.920356 311.10176 
L 96.468374 242.772959 
L 96.742384 254.088984 
L 97.290402 334.263084 
L 97.564412 319.495534 
L 97.838421 286.047685 
L 98.112431 340.585872 
L 98.660449 240.075716 
L 98.934459 245.872598 
L 99.208468 227.715592 
L 99.482477 263.422793 
L 99.756487 258.606845 
L 100.030496 256.867468 
L 100.304506 253.463386 
L 100.578515 237.586591 
L 100.852524 256.074198 
L 101.126534 260.264666 
L 101.400543 230.667091 
L 101.674552 164.904919 
L 101.948562 326.150639 
L 102.222571 330.064912 
L 102.77059 222.039454 
L 103.044599 258.993237 
L 103.318609 259.727027 
L 103.592618 243.233227 
L 103.866628 219.435491 
L 104.414646 274.721532 
L 104.688656 238.949968 
L 104.962665 293.485044 
L 105.236674 240.245126 
L 105.510684 252.485508 
L 105.784693 258.598584 
L 106.058703 278.034926 
L 106.332712 198.188399 
L 106.606721 295.585494 
L 106.880731 265.834681 
L 107.15474 261.987007 
L 107.428749 255.91886 
L 107.702759 259.787172 
L 107.976768 243.348793 
L 108.250778 306.169848 
L 108.524787 261.271718 
L 108.798796 239.976497 
L 109.072806 276.631354 
L 109.346815 262.026052 
L 109.620824 275.833408 
L 110.168843 255.553559 
L 110.442853 265.638547 
L 110.716862 235.499596 
L 110.990871 271.615484 
L 111.264881 289.01246 
L 111.53889 290.279767 
L 111.812899 308.963692 
L 112.086909 241.255003 
L 112.360918 265.03941 
L 112.634928 301.618684 
L 112.908937 300.22968 
L 113.456956 246.637007 
L 113.730965 240.334455 
L 114.004974 230.628958 
L 114.278984 258.968474 
L 114.552993 256.998771 
L 114.827003 259.441419 
L 115.101012 218.631361 
L 115.375021 242.576263 
L 115.649031 221.598184 
L 116.197049 301.867321 
L 116.745068 185.889114 
L 117.019078 312.411494 
L 117.293087 272.688785 
L 117.567096 263.810989 
L 117.841106 244.844178 
L 118.115115 256.513409 
L 118.389124 252.605436 
L 118.663134 232.193794 
L 118.937143 252.500468 
L 119.211153 264.266719 
L 119.485162 264.487156 
L 119.759171 266.989545 
L 120.033181 336.892426 
L 120.30719 289.130126 
L 120.5812 285.092695 
L 120.855209 204.680141 
L 121.129218 233.985566 
L 121.677237 226.271805 
L 121.951246 296.364522 
L 122.225256 260.373905 
L 122.499265 272.670286 
L 122.773275 245.176804 
L 123.321293 304.842697 
L 123.595303 211.033488 
L 123.869312 263.294808 
L 124.143321 265.411146 
L 124.417331 285.058588 
L 124.69134 280.252695 
L 124.96535 261.397334 
L 125.239359 267.48669 
L 125.513368 242.857746 
L 125.787378 256.667134 
L 126.061387 260.1768 
L 126.335396 146.649646 
L 126.609406 273.390621 
L 126.883415 271.779778 
L 127.157425 280.693081 
L 127.431434 275.641303 
L 127.705443 278.182851 
L 127.979453 318.685236 
L 128.253462 272.597901 
L 128.527471 322.497557 
L 129.3495 202.202739 
L 129.623509 338.605338 
L 129.897518 178.603043 
L 130.171528 253.460027 
L 130.445537 295.231854 
L 130.719546 271.259426 
L 130.993556 136.926823 
L 131.267565 304.05741 
L 131.541575 270.424528 
L 131.815584 210.113135 
L 132.089593 267.850511 
L 132.363603 280.534104 
L 132.637612 262.312064 
L 132.911621 266.599415 
L 133.185631 277.82013 
L 133.45964 280.584377 
L 133.73365 254.795136 
L 134.007659 262.615065 
L 134.281668 278.329732 
L 134.555678 185.227668 
L 134.829687 266.681495 
L 135.103697 239.473419 
L 135.377706 283.953844 
L 135.651715 267.269344 
L 135.925725 234.486701 
L 136.199734 289.418207 
L 136.473743 249.146752 
L 136.747753 277.036644 
L 137.021762 245.407925 
L 137.295772 258.315954 
L 137.569781 306.273728 
L 137.84379 208.858403 
L 138.1178 286.063257 
L 138.391809 266.025943 
L 138.665818 218.952039 
L 138.939828 257.754604 
L 139.213837 343.591736 
L 139.487847 248.98284 
L 139.761856 282.845349 
L 140.035865 239.448505 
L 140.309875 224.917774 
L 140.583884 299.672686 
L 140.857893 267.359602 
L 141.131903 326.726559 
L 141.405912 283.808929 
L 141.679922 277.321717 
L 141.953931 291.619648 
L 142.22794 262.362087 
L 142.50195 267.296882 
L 142.775959 233.492817 
L 143.049968 284.17504 
L 143.323978 206.267476 
L 143.597987 273.134382 
L 143.871997 231.577025 
L 144.146006 285.94695 
L 144.420015 242.856876 
L 144.694025 287.597152 
L 144.968034 275.423955 
L 145.242043 268.47352 
L 145.516053 266.256024 
L 145.790062 271.392289 
L 146.064072 213.436038 
L 146.338081 256.788319 
L 146.8861 252.853888 
L 147.160109 285.386647 
L 147.434118 232.877267 
L 147.708128 278.691663 
L 147.982137 214.760356 
L 148.256147 256.946431 
L 148.530156 138.358245 
L 148.804165 308.507904 
L 149.078175 282.62543 
L 149.352184 288.41374 
L 149.626193 287.682729 
L 150.174212 269.088461 
L 150.448222 246.692193 
L 150.722231 258.256699 
L 150.99624 248.9413 
L 151.27025 257.44788 
L 151.544259 255.108331 
L 151.818269 308.928645 
L 152.092278 213.420851 
L 152.640297 333.55334 
L 152.914306 213.121342 
L 153.188315 244.151596 
L 153.462325 259.800709 
L 153.736334 266.237235 
L 154.284353 186.121781 
L 154.558362 291.89817 
L 154.832372 288.479801 
L 155.106381 296.359487 
L 155.38039 197.588611 
L 155.6544 265.330337 
L 155.928409 286.331007 
L 156.202419 118.138027 
L 156.476428 339.505621 
L 156.750437 289.903039 
L 157.024447 275.238406 
L 157.298456 318.863333 
L 157.572465 258.999543 
L 158.120484 275.415424 
L 158.394494 312.395609 
L 158.942512 240.499725 
L 159.216522 248.57536 
L 159.490531 306.998193 
L 159.76454 242.076252 
L 160.03855 237.86718 
L 160.586569 282.138824 
L 160.860578 293.214679 
L 161.134587 230.119825 
L 161.408597 233.57658 
L 161.682606 239.406661 
L 161.956615 264.918201 
L 162.230625 260.117161 
L 162.504634 234.743833 
L 162.778644 312.794754 
L 163.052653 242.255849 
L 163.326662 257.958989 
L 163.600672 252.030127 
L 163.874681 260.355565 
L 164.14869 280.492003 
L 164.696709 196.091513 
L 164.970719 291.597575 
L 165.518737 251.21738 
L 165.792747 164.753985 
L 166.066756 350.56629 
L 166.340766 253.029629 
L 166.614775 266.81411 
L 166.888784 266.612836 
L 167.162794 258.040866 
L 167.436803 253.917773 
L 167.710812 261.095806 
L 167.984822 300.593409 
L 168.258831 251.799786 
L 168.532841 272.568099 
L 168.80685 257.684181 
L 169.080859 289.851042 
L 169.354869 203.380623 
L 169.628878 254.115256 
L 169.902887 263.309461 
L 170.176897 265.725821 
L 170.450906 237.558295 
L 170.724916 248.191649 
L 170.998925 282.914642 
L 171.272934 287.708112 
L 171.546944 246.429689 
L 171.820953 289.852782 
L 172.094962 245.548468 
L 172.368972 287.461741 
L 172.642981 223.234012 
L 172.916991 77.111784 
L 173.191 313.3996 
L 173.465009 268.694972 
L 173.739019 268.418024 
L 174.013028 270.680793 
L 174.287037 250.963084 
L 174.561047 292.961879 
L 174.835056 252.669584 
L 175.109066 169.834893 
L 175.383075 264.780278 
L 175.657084 263.838172 
L 176.205103 304.797223 
L 176.479112 245.894022 
L 177.027131 272.966866 
L 177.57515 232.919599 
L 177.849159 228.462525 
L 178.123169 243.681732 
L 178.397178 244.495215 
L 178.671187 230.382974 
L 179.219206 282.170892 
L 179.493216 325.716746 
L 180.041234 176.476874 
L 180.315244 327.245189 
L 180.589253 295.341497 
L 181.137272 259.270549 
L 181.411281 305.675402 
L 181.685291 327.511767 
L 181.9593 299.163576 
L 182.233309 284.950922 
L 182.507319 282.847135 
L 182.781328 334.194515 
L 183.055338 247.28654 
L 183.329347 275.740543 
L 183.603356 238.959607 
L 184.151375 231.00043 
L 184.425384 227.487184 
L 184.699394 241.616533 
L 184.973403 280.433782 
L 185.247413 256.527998 
L 185.521422 268.667951 
L 185.795431 254.745637 
L 186.069441 251.0572 
L 186.34345 258.191238 
L 186.617459 282.145588 
L 186.891469 230.084025 
L 187.165478 263.017405 
L 187.439488 265.405456 
L 187.713497 265.698059 
L 187.987506 255.598734 
L 188.261516 261.724136 
L 188.535525 264.141996 
L 188.809534 247.104663 
L 189.083544 257.308249 
L 189.357553 255.996546 
L 189.631563 240.468741 
L 189.905572 307.625686 
L 190.179581 169.340396 
L 190.453591 189.057676 
L 190.7276 320.547871 
L 191.001609 261.555047 
L 191.275619 327.066751 
L 191.823638 324.165155 
L 192.097647 307.162817 
L 192.371656 267.769919 
L 192.645666 274.061841 
L 192.919675 257.370811 
L 193.193684 266.833705 
L 193.467694 287.220199 
L 193.741703 294.220008 
L 194.015713 256.179749 
L 194.289722 252.015577 
L 194.563731 257.600976 
L 194.837741 237.888926 
L 195.11175 235.80492 
L 195.385759 251.520891 
L 195.659769 260.772198 
L 195.933778 265.882604 
L 196.207788 275.105082 
L 196.481797 252.623719 
L 196.755806 306.383003 
L 197.029816 296.247889 
L 197.303825 255.481072 
L 197.577835 44.685712 
L 197.851844 348.902685 
L 198.125853 270.137746 
L 198.399863 268.924479 
L 198.673872 276.21076 
L 198.947881 264.744511 
L 199.221891 278.572027 
L 199.76991 247.656511 
L 200.043919 266.007575 
L 200.317928 274.174081 
L 200.591938 236.559394 
L 200.865947 334.878645 
L 201.139956 185.454274 
L 201.413966 218.437822 
L 201.687975 230.904023 
L 201.961985 235.207663 
L 202.235994 253.069582 
L 202.510003 251.01425 
L 202.784013 264.630987 
L 203.058022 237.216885 
L 203.332031 254.539514 
L 203.606041 263.534878 
L 203.88005 253.5499 
L 204.15406 340.49034 
L 204.428069 212.172161 
L 204.702078 246.612378 
L 204.976088 42.632216 
L 205.250097 335.478152 
L 205.524106 279.263806 
L 205.798116 254.607007 
L 206.072125 283.090927 
L 206.346135 259.961333 
L 206.620144 278.634741 
L 206.894153 244.595448 
L 207.168163 266.076735 
L 207.442172 353.195474 
L 207.716181 246.535098 
L 207.990191 265.336291 
L 208.2642 315.779682 
L 208.53821 220.111 
L 208.812219 249.367024 
L 209.086228 249.860175 
L 209.360238 254.594238 
L 209.634247 266.069998 
L 209.908256 266.50595 
L 210.182266 275.095957 
L 210.456275 258.946001 
L 210.730285 256.951677 
L 211.004294 257.261818 
L 211.278303 249.41593 
L 211.552313 310.395141 
L 211.826322 242.884049 
L 212.100332 264.402661 
L 212.374341 262.130402 
L 212.64835 248.452128 
L 212.92236 270.926429 
L 213.196369 252.286457 
L 213.470378 263.324955 
L 214.018397 248.087768 
L 214.292407 223.831583 
L 214.840425 347.454052 
L 215.114435 221.007852 
L 215.662453 273.044693 
L 215.936463 254.390435 
L 216.210472 260.649175 
L 216.484482 241.754216 
L 216.758491 268.237391 
L 217.0325 260.624354 
L 217.30651 263.154529 
L 217.580519 261.11565 
L 217.854528 246.250082 
L 218.128538 255.951016 
L 218.402547 261.052145 
L 218.676557 256.396842 
L 218.950566 256.188784 
L 219.498585 266.438364 
L 219.772594 264.196657 
L 220.046603 246.749318 
L 220.320613 241.959906 
L 220.594622 281.452664 
L 220.868632 280.406509 
L 221.142641 260.796148 
L 221.41665 76.428969 
L 221.69066 367.146288 
L 221.964669 299.160852 
L 222.238678 282.742821 
L 222.512688 277.062338 
L 222.786697 259.305419 
L 223.060707 276.55233 
L 223.334716 266.724411 
L 223.608725 267.008514 
L 223.882735 241.571486 
L 224.156744 267.398826 
L 224.430753 263.190801 
L 224.704763 326.597826 
L 224.978772 232.238788 
L 225.252782 248.609657 
L 225.8008 263.766988 
L 226.07481 266.337932 
L 226.348819 257.441394 
L 226.896838 280.224049 
L 227.444857 259.589739 
L 227.718866 267.911937 
L 227.992875 330.407225 
L 228.266885 182.466914 
L 228.540894 243.160184 
L 228.814904 247.712246 
L 229.088913 255.11425 
L 229.636932 235.4714 
L 229.910941 73.4543 
L 230.18495 355.86549 
L 230.45896 251.007344 
L 230.732969 274.048223 
L 231.006979 278.282597 
L 231.280988 335.971354 
L 231.554997 260.927123 
L 231.829007 267.803938 
L 232.103016 201.92376 
L 232.377025 287.21589 
L 232.651035 274.32011 
L 232.925044 280.266377 
L 233.199054 337.608152 
L 233.473063 237.226356 
L 233.747072 281.757216 
L 234.295091 253.357496 
L 234.5691 269.164476 
L 234.84311 214.6434 
L 235.117119 227.880995 
L 235.391129 256.96349 
L 235.665138 229.644743 
L 235.939147 275.023181 
L 236.213157 253.160232 
L 236.487166 317.805486 
L 236.761175 225.510128 
L 237.035185 260.82585 
L 237.309194 253.9628 
L 237.583204 242.823 
L 238.131222 298.118093 
L 238.405232 265.338476 
L 238.679241 271.26881 
L 238.95325 249.135693 
L 239.22726 253.304624 
L 239.501269 254.546969 
L 239.775279 333.406209 
L 240.049288 221.514422 
L 240.323297 254.947928 
L 240.597307 209.974142 
L 240.871316 275.097312 
L 241.145325 258.037251 
L 241.419335 283.153227 
L 241.693344 286.907559 
L 241.967354 298.56436 
L 242.241363 255.012931 
L 242.789382 261.641643 
L 243.063391 242.054253 
L 243.337401 244.652378 
L 243.61141 245.503964 
L 243.885419 251.847839 
L 244.159429 253.311959 
L 244.433438 247.839889 
L 244.707447 276.76323 
L 245.255466 227.095543 
L 245.529476 286.480553 
L 245.803485 250.308474 
L 246.077494 92.265102 
L 246.351504 350.873537 
L 246.625513 299.858619 
L 246.899522 291.113062 
L 247.173532 292.949997 
L 247.447541 258.852323 
L 247.721551 266.795756 
L 247.99556 260.19959 
L 248.269569 260.972771 
L 248.543579 270.372566 
L 248.817588 254.926482 
L 249.091597 216.16123 
L 249.365607 328.680273 
L 249.639616 215.493519 
L 249.913626 275.250151 
L 250.187635 261.965089 
L 250.461644 267.615038 
L 251.009663 238.715908 
L 251.283672 235.765494 
L 251.557682 243.325265 
L 251.831691 309.935791 
L 252.105701 254.880261 
L 252.37971 277.104094 
L 252.653719 321.834351 
L 252.927729 272.849533 
L 253.201738 270.333174 
L 253.475747 287.485912 
L 253.749757 217.009046 
L 254.023766 257.673436 
L 254.297776 242.54032 
L 254.571785 264.0393 
L 254.845794 247.017322 
L 255.119804 277.283939 
L 255.393813 275.258613 
L 255.667822 285.3816 
L 255.941832 317.823774 
L 256.215841 216.154213 
L 256.489851 228.677834 
L 256.76386 229.929349 
L 257.037869 268.891431 
L 257.311879 206.053166 
L 257.585888 278.575455 
L 257.859897 264.713401 
L 258.133907 258.367992 
L 258.407916 270.067505 
L 258.681926 263.771951 
L 258.955935 281.870473 
L 259.229944 241.438335 
L 259.503954 241.098054 
L 259.777963 241.365093 
L 260.051973 238.232034 
L 260.325982 271.658982 
L 260.599991 272.164883 
L 260.874001 258.815029 
L 261.422019 269.055584 
L 261.696029 238.631811 
L 261.970038 251.061379 
L 262.244048 256.573403 
L 262.518057 255.754516 
L 262.792066 257.813803 
L 263.066076 261.729442 
L 263.340085 251.89922 
L 263.614094 284.531785 
L 264.162113 268.095508 
L 264.436123 246.679467 
L 264.710132 277.221702 
L 264.984141 242.070894 
L 265.258151 261.488553 
L 265.53216 216.322613 
L 265.806169 296.591137 
L 266.080179 274.573612 
L 266.354188 274.403419 
L 266.628198 278.136307 
L 266.902207 271.126318 
L 267.176216 291.039215 
L 267.450226 247.000202 
L 267.724235 259.490128 
L 267.998244 310.501411 
L 268.272254 276.518781 
L 268.546263 276.428866 
L 268.820273 285.768076 
L 269.094282 269.473785 
L 269.368291 267.814302 
L 269.642301 263.059763 
L 269.91631 267.748459 
L 270.190319 262.601686 
L 270.738338 260.459823 
L 271.012348 266.571404 
L 271.286357 244.159995 
L 271.560366 247.913087 
L 271.834376 248.882427 
L 272.108385 264.688755 
L 272.382394 251.34463 
L 272.656404 251.074137 
L 272.930413 260.278656 
L 273.478432 253.406124 
L 273.752441 261.882592 
L 274.026451 208.727339 
L 274.30046 289.058002 
L 274.57447 255.821046 
L 274.848479 262.714113 
L 275.122488 255.729206 
L 275.396498 272.433837 
L 275.670507 256.246929 
L 275.944516 249.595897 
L 276.218526 279.33918 
L 276.492535 275.631268 
L 276.766545 240.882187 
L 277.040554 260.657866 
L 277.314563 267.845799 
L 277.588573 236.238141 
L 277.862582 233.151995 
L 278.410601 262.95056 
L 278.68461 264.408774 
L 278.95862 270.459902 
L 279.232629 290.137942 
L 279.506638 235.737687 
L 279.780648 266.750096 
L 280.054657 265.532538 
L 280.328666 259.48311 
L 280.602676 284.203676 
L 280.876685 255.930415 
L 281.424704 263.320576 
L 281.698713 258.318285 
L 281.972723 264.038917 
L 282.246732 191.785782 
L 282.520741 296.09796 
L 283.06876 260.280361 
L 283.34277 272.673327 
L 283.616779 259.057307 
L 283.890788 288.699458 
L 284.164798 251.976627 
L 284.438807 48.436509 
L 284.712816 349.409227 
L 284.986826 286.281806 
L 285.260835 276.490459 
L 285.534845 314.145659 
L 285.808854 243.926815 
L 286.082863 267.590463 
L 286.356873 247.752014 
L 286.630882 277.586409 
L 286.904891 264.507052 
L 287.45291 253.342985 
L 287.72692 315.856957 
L 288.000929 223.212411 
L 288.274938 240.100048 
L 288.548948 245.776492 
L 288.822957 258.929712 
L 289.096966 236.11322 
L 289.370976 250.638091 
L 289.644985 245.594102 
L 289.918995 201.500126 
L 290.193004 309.424818 
L 290.467013 274.476808 
L 290.741023 263.696411 
L 291.015032 338.09529 
L 291.289042 235.279645 
L 291.563051 254.026592 
L 291.83706 248.469829 
L 292.11107 263.60435 
L 292.385079 258.883231 
L 292.659088 257.877599 
L 292.933098 262.356459 
L 293.207107 277.363179 
L 293.481117 213.437461 
L 293.755126 274.042611 
L 294.029135 262.08766 
L 294.303145 328.822523 
L 294.577154 226.339153 
L 295.125173 253.963914 
L 295.399182 254.628378 
L 295.673192 252.16846 
L 295.947201 248.386101 
L 296.49522 286.957021 
L 296.769229 254.010026 
L 297.043238 259.381617 
L 297.317248 274.781295 
L 297.591257 220.236873 
L 297.865267 283.322151 
L 298.139276 270.541449 
L 298.413285 272.329553 
L 298.687295 270.244306 
L 299.235313 251.147518 
L 299.783332 294.397439 
L 300.331351 235.393184 
L 300.60536 276.124406 
L 300.87937 279.966453 
L 301.153379 255.444484 
L 301.427388 274.14788 
L 301.701398 269.190074 
L 301.975407 269.603795 
L 302.249417 247.710069 
L 302.523426 258.171367 
L 302.797435 250.784522 
L 303.071445 254.036661 
L 303.345454 263.184749 
L 303.619463 264.736014 
L 303.893473 255.002942 
L 304.167482 287.098597 
L 304.441492 251.800233 
L 304.715501 255.874271 
L 304.98951 252.41995 
L 305.26352 257.051659 
L 305.537529 264.632909 
L 305.811539 233.419166 
L 306.085548 250.984451 
L 306.359557 200.45978 
L 306.633567 283.588485 
L 306.907576 279.298139 
L 307.181585 269.229476 
L 307.455595 295.331538 
L 307.729604 270.806869 
L 308.551632 238.752231 
L 308.825642 241.868044 
L 309.099651 300.402307 
L 309.37366 262.004677 
L 309.64767 279.259634 
L 309.921679 249.709467 
L 310.195689 252.188699 
L 310.469698 251.272779 
L 310.743707 245.920989 
L 311.017717 245.214827 
L 311.565735 281.551097 
L 311.839745 262.40236 
L 312.113754 280.087907 
L 312.661773 262.064366 
L 312.935782 287.902241 
L 313.209792 240.305312 
L 313.483801 258.809155 
L 313.75781 258.564562 
L 314.03182 282.430152 
L 314.579839 200.614892 
L 314.853848 285.123694 
L 315.127857 273.427582 
L 315.401867 273.961167 
L 315.949885 245.575112 
L 316.223895 270.152915 
L 316.497904 233.664417 
L 317.045923 292.249454 
L 317.319932 267.363771 
L 317.593942 258.015745 
L 317.867951 276.791215 
L 318.14196 252.888613 
L 318.41597 249.052862 
L 318.689979 304.363089 
L 318.963989 264.591799 
L 319.237998 267.860714 
L 319.512007 265.276524 
L 319.786017 278.908037 
L 320.060026 181.817315 
L 320.334035 276.350285 
L 320.608045 256.261851 
L 320.882054 284.887016 
L 321.156064 287.12178 
L 321.430073 239.505375 
L 321.704082 247.410643 
L 321.978092 227.722991 
L 322.252101 280.938802 
L 322.526111 263.603506 
L 322.80012 270.923672 
L 323.074129 204.566964 
L 323.348139 332.0588 
L 323.622148 259.604587 
L 323.896157 238.706477 
L 324.170167 292.232457 
L 324.444176 290.800316 
L 324.718186 281.781721 
L 324.992195 259.735422 
L 325.266204 219.483791 
L 325.540214 246.13267 
L 325.814223 261.484946 
L 326.088232 257.864114 
L 326.362242 306.035815 
L 326.910261 231.719553 
L 327.18427 257.816615 
L 327.458279 255.882245 
L 327.732289 246.03671 
L 328.006298 244.085755 
L 328.280307 256.078784 
L 328.554317 239.127359 
L 328.828326 266.575219 
L 329.102336 271.572434 
L 329.376345 255.190272 
L 329.650354 252.280591 
L 329.924364 264.331375 
L 330.198373 253.135146 
L 330.472382 279.060702 
L 330.746392 251.691691 
L 331.020401 250.434689 
L 331.294411 267.101243 
L 331.56842 267.976969 
L 331.842429 274.417215 
L 332.116439 188.638854 
L 332.390448 272.085124 
L 332.664457 233.679483 
L 332.938467 310.519162 
L 333.212476 279.321577 
L 333.486486 261.72167 
L 333.760495 273.206484 
L 334.034504 256.921891 
L 334.308514 259.538388 
L 334.582523 247.02517 
L 335.130542 262.223397 
L 335.404551 276.877851 
L 335.678561 285.313956 
L 335.95257 280.226408 
L 336.226579 250.049644 
L 336.500589 262.40744 
L 336.774598 264.834219 
L 337.048608 262.576434 
L 337.322617 263.188858 
L 337.596626 272.92102 
L 337.870636 271.064212 
L 338.144645 289.897687 
L 338.418654 286.291796 
L 338.692664 276.611517 
L 338.966673 225.993496 
L 339.240683 213.27912 
L 339.514692 250.883036 
L 339.788701 191.018264 
L 340.062711 293.554153 
L 340.33672 257.491003 
L 340.610729 272.738878 
L 340.884739 270.970151 
L 341.158748 248.259336 
L 341.432758 242.874385 
L 341.706767 231.095548 
L 341.980776 245.809957 
L 342.254786 230.079511 
L 342.802804 305.564053 
L 343.076814 293.947712 
L 343.350823 255.481506 
L 343.624833 245.124141 
L 344.172851 241.00627 
L 344.446861 236.959664 
L 344.72087 237.155973 
L 344.994879 250.369474 
L 345.268889 292.783453 
L 345.542898 241.383423 
L 345.816908 228.772125 
L 346.090917 194.246641 
L 346.364926 311.718948 
L 346.638936 327.927577 
L 347.186954 287.859235 
L 347.460964 269.426232 
L 347.734973 280.500122 
L 348.008983 212.773458 
L 348.282992 291.546559 
L 348.557001 285.651598 
L 348.831011 296.465546 
L 349.10502 299.07263 
L 349.379029 257.202393 
L 349.653039 261.305734 
L 349.927048 214.374162 
L 350.201058 222.381625 
L 350.475067 243.672215 
L 350.749076 230.51191 
L 351.297095 292.302114 
L 351.571104 280.944338 
L 351.845114 274.622223 
L 352.119123 278.590197 
L 352.393133 290.738822 
L 352.667142 271.070524 
L 352.941151 237.002579 
L 353.215161 237.212925 
L 353.48917 245.542821 
L 353.76318 242.401617 
L 354.037189 270.621596 
L 354.311198 262.587474 
L 354.585208 298.348318 
L 354.859217 261.800673 
L 355.133226 242.94019 
L 355.407236 248.177762 
L 355.681245 294.965004 
L 355.955255 284.605928 
L 356.229264 240.557674 
L 356.503273 237.312922 
L 356.777283 187.98696 
L 357.051292 283.843048 
L 357.325301 274.717134 
L 357.599311 258.201257 
L 357.87332 289.276704 
L 358.14733 270.86952 
L 358.421339 267.156494 
L 358.695348 268.60866 
L 358.969358 261.389594 
L 359.243367 274.593289 
L 359.517376 257.701122 
L 359.791386 249.06328 
L 360.065395 269.048211 
L 360.339405 256.234222 
L 360.613414 283.458922 
L 360.887423 256.816511 
L 361.161433 261.69577 
L 361.435442 252.999567 
L 361.709451 248.326449 
L 361.983461 263.00154 
L 362.25747 250.327444 
L 362.53148 261.092924 
L 363.079498 252.966107 
L 363.353508 281.611517 
L 363.627517 250.393841 
L 363.901526 262.171269 
L 364.175536 265.558306 
L 364.449545 258.512357 
L 364.723555 256.458016 
L 364.997564 260.51135 
L 365.271573 188.550255 
L 365.545583 275.192845 
L 365.819592 269.514128 
L 366.093601 270.590129 
L 366.367611 251.283722 
L 366.64162 280.00202 
L 366.91563 260.479719 
L 367.189639 229.523449 
L 367.463648 269.994603 
L 367.737658 248.947178 
L 368.011667 258.140695 
L 368.285677 272.022828 
L 368.833695 242.98545 
L 369.107705 268.179237 
L 369.655723 268.963295 
L 369.929733 286.164702 
L 370.203742 252.757719 
L 370.477752 266.081189 
L 370.751761 252.746066 
L 371.02577 252.670799 
L 371.29978 255.06194 
L 371.573789 251.837951 
L 371.847798 294.221194 
L 372.121808 251.609132 
L 372.395817 245.216304 
L 372.943836 269.254543 
L 373.217845 268.166395 
L 373.491855 265.649578 
L 373.765864 204.36181 
L 374.039873 298.071051 
L 374.313883 271.666831 
L 374.587892 268.225662 
L 374.861902 260.851085 
L 375.135911 301.776594 
L 375.40992 273.229786 
L 375.68393 265.758847 
L 375.957939 263.930731 
L 376.231948 266.720121 
L 376.505958 252.088488 
L 376.779967 244.310858 
L 377.053977 255.075234 
L 377.327986 230.825976 
L 377.601995 233.555233 
L 377.876005 257.58587 
L 378.150014 248.337238 
L 378.424023 272.008275 
L 378.698033 279.415004 
L 378.972042 277.542635 
L 379.246052 278.363215 
L 379.79407 262.976976 
L 380.06808 269.801682 
L 380.342089 301.657386 
L 380.616098 256.687506 
L 380.890108 275.626923 
L 381.164117 262.627259 
L 381.438127 263.189273 
L 381.712136 251.506598 
L 381.986145 187.538573 
L 382.260155 271.391046 
L 382.534164 259.988823 
L 382.808174 260.430527 
L 383.082183 264.966476 
L 383.356192 281.034435 
L 383.630202 319.412184 
L 383.904211 258.115372 
L 384.45223 247.84539 
L 384.726239 238.378223 
L 385.000249 244.876614 
L 385.274258 245.388774 
L 385.548267 239.554935 
L 385.822277 245.651397 
L 386.096286 256.230107 
L 386.644305 264.26902 
L 386.918314 257.88773 
L 387.466333 271.89068 
L 387.740342 270.51674 
L 388.288361 262.565472 
L 388.56237 280.187116 
L 388.83638 234.656186 
L 389.110389 249.61225 
L 389.658408 257.859515 
L 389.932417 251.87894 
L 390.206427 192.377059 
L 390.480436 286.896577 
L 390.754445 273.826744 
L 391.028455 278.796185 
L 391.302464 279.880942 
L 391.576474 269.065723 
L 391.850483 294.128315 
L 392.124492 255.429472 
L 392.398502 249.578549 
L 392.672511 250.601401 
L 392.94652 252.635891 
L 393.22053 266.947529 
L 393.494539 265.671949 
L 393.768549 269.415658 
L 394.042558 269.476504 
L 394.316567 255.325375 
L 394.590577 262.887174 
L 394.864586 257.851944 
L 395.138595 261.514983 
L 395.412605 273.229649 
L 395.686614 271.720192 
L 395.960624 261.908658 
L 396.234633 269.148973 
L 396.508642 251.076759 
L 396.782652 279.146136 
L 397.056661 248.135331 
L 397.33067 258.306208 
L 397.60468 191.693603 
L 397.878689 287.334755 
L 398.152699 266.554126 
L 398.426708 261.332333 
L 398.700717 253.731218 
L 398.974727 252.526909 
L 399.248736 282.487849 
L 399.522746 263.188636 
L 399.796755 257.835897 
L 400.070764 286.682258 
L 400.344774 264.907217 
L 400.618783 264.346219 
L 400.892792 274.328308 
L 401.166802 245.576681 
L 401.440811 245.986182 
L 401.98883 273.875338 
L 402.262839 267.116038 
L 402.536849 263.785302 
L 402.810858 263.757236 
L 403.084867 252.245838 
L 403.358877 256.483573 
L 403.632886 231.255468 
L 404.180905 291.547397 
L 404.454914 251.105354 
L 404.728924 267.716904 
L 405.276942 255.423611 
L 405.550952 263.162075 
L 405.824961 244.495546 
L 406.098971 201.907699 
L 406.37298 293.713323 
L 406.646989 276.752629 
L 406.920999 270.063984 
L 407.195008 267.117297 
L 407.469017 285.649496 
L 407.743027 251.911186 
L 408.017036 240.724018 
L 408.291046 275.227013 
L 408.565055 263.098231 
L 408.839064 270.55236 
L 409.113074 255.886665 
L 409.387083 280.776803 
L 409.661092 242.628223 
L 409.935102 256.822532 
L 410.209111 259.776796 
L 410.483121 253.342792 
L 410.75713 250.332864 
L 411.031139 257.433029 
L 411.305149 257.566656 
L 411.579158 232.282435 
L 411.853167 267.733135 
L 412.127177 250.764061 
L 412.675196 276.691526 
L 412.949205 261.162155 
L 413.223214 255.266437 
L 413.497224 219.956788 
L 413.771233 93.147039 
L 414.045243 364.781027 
L 414.319252 259.39697 
L 414.593261 344.976964 
L 414.867271 277.150426 
L 415.14128 260.873658 
L 415.415289 269.861291 
L 415.689299 273.814997 
L 415.963308 285.652893 
L 416.237318 221.35811 
L 416.785336 267.268726 
L 417.059346 326.892526 
L 417.333355 239.272727 
L 417.607364 270.843553 
L 417.881374 232.939854 
L 418.155383 269.413282 
L 418.977411 239.350388 
L 419.251421 273.066135 
L 419.52543 267.329493 
L 419.799439 265.413671 
L 420.347458 316.117838 
L 420.621468 250.664191 
L 420.895477 274.806556 
L 421.169486 227.284075 
L 421.443496 262.743451 
L 421.717505 264.799033 
L 421.991514 269.389692 
L 422.265524 266.051085 
L 422.813543 238.590689 
L 423.087552 304.216797 
L 423.361561 279.636788 
L 423.635571 299.984716 
L 423.90958 247.750488 
L 424.183589 269.642952 
L 424.457599 243.62468 
L 424.731608 243.958376 
L 425.005618 255.933559 
L 425.279627 254.096994 
L 425.553636 259.283111 
L 425.827646 253.725293 
L 426.101655 279.615692 
L 426.649674 226.976711 
L 426.923683 236.520154 
L 427.197693 228.754015 
L 427.471702 229.9197 
L 427.745711 255.775094 
L 428.019721 267.275018 
L 428.29373 268.129025 
L 428.567739 265.751951 
L 428.841749 265.817721 
L 429.115758 234.552328 
L 429.389768 272.181334 
L 429.663777 240.323678 
L 430.211796 278.177011 
L 430.485805 220.116592 
L 430.759815 299.732414 
L 431.307833 267.673646 
L 431.581843 276.431774 
L 431.855852 253.634589 
L 432.129861 271.027507 
L 432.67788 278.682667 
L 432.95189 247.871112 
L 433.499908 276.801194 
L 433.773918 246.149609 
L 434.321936 259.818849 
L 434.595946 241.85131 
L 434.869955 249.317352 
L 435.143965 287.884172 
L 435.417974 254.07296 
L 435.691983 245.9679 
L 436.240002 278.226411 
L 436.514011 261.849674 
L 436.788021 255.120631 
L 437.06203 278.583608 
L 437.33604 264.207774 
L 437.610049 267.715011 
L 437.884058 274.247087 
L 438.158068 263.637118 
L 438.432077 265.564162 
L 438.706086 264.842881 
L 438.980096 272.561757 
L 439.254105 200.974366 
L 439.528115 264.076614 
L 439.802124 262.851172 
L 440.076133 283.920052 
L 440.350143 287.065549 
L 440.624152 239.194529 
L 441.172171 289.405741 
L 441.44618 248.665811 
L 441.72019 257.761591 
L 441.994199 251.885708 
L 442.542218 282.2509 
L 442.816227 266.072278 
L 443.090236 265.379145 
L 443.364246 246.417144 
L 443.638255 254.306386 
L 443.912265 247.291041 
L 444.186274 256.595585 
L 444.734293 255.024432 
L 445.008302 247.152867 
L 445.282312 269.451482 
L 445.556321 262.19625 
L 445.83033 298.630275 
L 446.10434 261.514295 
L 446.378349 268.329355 
L 446.652358 256.576094 
L 446.926368 249.890782 
L 447.200377 270.596914 
L 447.474387 200.953149 
L 447.748396 281.997873 
L 448.022405 281.725121 
L 448.296415 284.316505 
L 448.570424 257.033625 
L 448.844433 241.377874 
L 449.118443 285.129551 
L 449.666462 231.923217 
L 449.940471 236.192056 
L 450.21448 246.30077 
L 450.48849 242.384868 
L 450.762499 264.74389 
L 451.036508 254.697306 
L 451.310518 277.816488 
L 451.584527 269.163331 
L 451.858537 266.254424 
L 452.132546 265.139631 
L 452.406555 260.224415 
L 452.680565 260.01609 
L 452.954574 279.265268 
L 453.228583 270.739145 
L 453.502593 272.254786 
L 453.776602 269.418828 
L 454.050612 288.035617 
L 454.324621 244.864193 
L 454.59863 244.43313 
L 454.87264 245.609512 
L 455.146649 255.115335 
L 455.420658 237.487149 
L 455.694668 262.450012 
L 455.968677 259.79616 
L 456.242687 267.258954 
L 456.516696 278.490575 
L 457.064715 266.36793 
L 457.338724 284.354081 
L 457.612733 244.793414 
L 457.886743 248.287425 
L 458.160752 248.06207 
L 458.708771 277.880146 
L 458.98278 247.994161 
L 459.530799 270.010616 
L 459.804808 262.156921 
L 460.078818 264.462765 
L 460.352827 268.201415 
L 460.626837 265.9297 
L 460.900846 259.960886 
L 461.174855 212.398147 
L 461.448865 185.113437 
L 461.722874 217.487927 
L 461.996884 267.579702 
L 462.270893 293.483579 
L 462.818912 264.566422 
L 463.092921 274.503769 
L 463.64094 267.860727 
L 463.914949 266.489252 
L 464.188959 231.436989 
L 464.462968 287.605816 
L 464.736977 287.694622 
L 465.284996 268.553193 
L 465.559005 245.374458 
L 465.833015 261.303603 
L 466.107024 251.005876 
L 466.381034 249.788736 
L 466.655043 251.541339 
L 466.929052 260.978586 
L 467.203062 259.993998 
L 467.477071 263.991593 
L 467.75108 270.963167 
L 468.02509 285.495437 
L 468.299099 277.697678 
L 468.847118 251.65674 
L 469.395137 257.757412 
L 469.669146 257.066393 
L 469.943155 245.288004 
L 470.217165 247.735532 
L 470.491174 258.761331 
L 470.765184 250.477808 
L 471.313202 296.91358 
L 471.587212 283.51431 
L 471.861221 262.886931 
L 472.13523 251.167091 
L 472.40924 227.914045 
L 472.683249 260.055917 
L 472.957259 261.858786 
L 473.231268 273.989565 
L 473.505277 277.796658 
L 473.779287 261.907048 
L 474.053296 285.551716 
L 474.327305 240.336791 
L 474.601315 238.638163 
L 474.875324 245.293649 
L 475.149334 242.157629 
L 475.697352 269.194948 
L 476.245371 251.236905 
L 476.519381 269.159264 
L 476.79339 250.756728 
L 477.067399 261.36786 
L 477.341409 243.624153 
L 477.615418 265.685109 
L 477.889427 251.919309 
L 478.163437 208.667566 
L 478.437446 283.547114 
L 478.711456 259.22891 
L 478.985465 269.029105 
L 479.259474 263.026732 
L 479.533484 237.636392 
L 479.807493 271.322382 
L 480.081502 240.82686 
L 480.355512 278.728666 
L 480.629521 289.922027 
L 480.903531 286.863517 
L 481.17754 277.24623 
L 481.451549 256.344285 
L 481.725559 248.8465 
L 481.999568 237.8737 
L 482.273577 256.961181 
L 482.547587 222.883605 
L 482.821596 270.519032 
L 483.095606 255.132303 
L 483.369615 264.772169 
L 483.643624 264.749614 
L 483.917634 263.084911 
L 484.191643 265.514164 
L 484.465652 274.834048 
L 484.739662 293.237208 
L 485.013671 269.188119 
L 485.287681 283.13076 
L 485.56169 265.319499 
L 485.835699 266.94874 
L 486.109709 280.31234 
L 486.383718 233.598995 
L 486.657727 260.588026 
L 486.931737 245.781428 
L 487.205746 244.262849 
L 487.753765 260.014636 
L 488.027774 281.086136 
L 488.301784 253.142265 
L 488.575793 263.376343 
L 488.849802 233.942602 
L 489.123812 286.47552 
L 489.397821 260.972585 
L 489.671831 294.729553 
L 489.94584 294.90989 
L 490.219849 264.952273 
L 490.493859 277.51775 
L 490.767868 262.680364 
L 491.041877 261.368213 
L 491.315887 249.69236 
L 491.589896 257.571614 
L 491.863906 253.148098 
L 492.137915 222.609084 
L 492.411924 288.486018 
L 492.959943 255.951385 
L 493.233953 255.070744 
L 493.507962 251.539019 
L 493.781971 255.118659 
L 494.32999 224.026554 
L 494.878009 274.430563 
L 495.152018 294.123529 
L 495.426028 290.00763 
L 495.700037 128.325545 
L 495.974046 315.317227 
L 496.248056 262.102108 
L 496.522065 268.862839 
L 496.796074 255.327201 
L 497.344093 326.187818 
L 497.618103 303.004639 
L 497.892112 291.317917 
L 498.440131 245.679714 
L 498.71414 270.968112 
L 498.988149 257.654479 
L 499.262159 213.253557 
L 499.536168 241.998729 
L 499.810178 222.337313 
L 500.084187 254.336152 
L 500.358196 239.789766 
L 500.632206 214.100821 
L 501.180224 317.903524 
L 501.728243 257.462728 
L 502.276262 312.458732 
L 502.550271 240.996568 
L 502.824281 243.046431 
L 503.09829 239.526514 
L 503.372299 282.782552 
L 503.920318 220.030497 
L 504.194328 277.588525 
L 504.468337 235.307778 
L 504.742346 259.738635 
L 505.016356 214.995427 
L 505.290365 272.303333 
L 505.564374 355.881228 
L 505.838384 280.104043 
L 506.112393 279.688345 
L 506.386403 260.462579 
L 506.660412 253.661133 
L 506.934421 240.147765 
L 507.208431 258.513629 
L 507.75645 237.91757 
L 508.030459 252.955458 
L 508.304468 251.055541 
L 508.578478 217.712862 
L 509.126496 259.422945 
L 509.400506 265.621521 
L 509.674515 277.9094 
L 509.948525 242.758245 
L 510.222534 275.137581 
L 510.496543 274.498026 
L 510.770553 235.806396 
L 511.044562 228.750384 
L 511.592581 249.266724 
L 511.86659 304.143796 
L 512.414609 227.07064 
L 512.688618 266.154948 
L 512.962628 266.2161 
L 513.236637 305.672782 
L 513.510646 266.839748 
L 513.784656 166.318406 
L 514.058665 181.365559 
L 514.332675 282.599522 
L 514.606684 283.017772 
L 514.880693 314.838879 
L 515.154703 269.919214 
L 515.428712 252.927563 
L 515.702721 255.195786 
L 515.976731 255.880988 
L 516.25074 273.095082 
L 516.52475 251.921389 
L 517.072768 294.663136 
L 517.620787 248.996116 
L 517.894796 230.967593 
L 518.168806 297.352658 
L 518.442815 283.421318 
L 518.716825 293.157052 
L 518.990834 313.95981 
L 519.264843 259.846978 
L 519.538853 278.376083 
L 519.812862 328.313335 
L 520.086871 311.465726 
L 520.360881 332.361325 
L 520.63489 264.726857 
L 520.9089 226.858346 
L 521.182909 230.115988 
L 521.456918 215.684304 
L 521.730928 177.921331 
L 522.278946 295.313908 
L 522.552956 307.528218 
L 522.826965 289.360741 
L 523.100975 235.708184 
L 523.374984 290.374251 
L 523.648993 283.980244 
L 524.197012 244.418812 
L 524.471022 245.056171 
L 524.745031 245.140479 
L 525.01904 251.385229 
L 525.29305 219.01747 
L 525.567059 247.492725 
L 525.841068 290.874941 
L 526.389087 217.490373 
L 526.663097 206.361635 
L 526.937106 266.3065 
L 527.211115 290.189362 
L 527.485125 267.889236 
L 527.759134 280.508902 
L 528.033143 252.353378 
L 528.307153 263.009153 
L 528.581162 251.29503 
L 528.855172 221.198641 
L 529.129181 220.055401 
L 529.40319 242.906189 
L 529.6772 237.88957 
L 529.951209 204.22614 
L 530.499228 345.399071 
L 530.773237 288.861342 
L 531.321256 263.799346 
L 531.595265 292.99921 
L 532.143284 221.29967 
L 532.417293 331.138176 
L 532.691303 277.845854 
L 533.239322 241.232001 
L 533.513331 242.538994 
L 533.78734 255.295254 
L 534.06135 315.799324 
L 534.335359 317.301591 
L 534.609368 311.796584 
L 534.883378 297.641137 
L 535.157387 275.898451 
L 535.705406 177.553033 
L 535.979415 213.738269 
L 536.253425 287.322976 
L 536.527434 317.559307 
L 536.801443 244.826619 
L 537.075453 214.045595 
L 537.349462 245.258601 
L 537.623472 241.289268 
L 537.897481 239.64313 
L 538.17149 294.822159 
L 538.719509 260.786858 
L 538.993519 280.050095 
L 539.267528 274.025091 
L 539.541537 304.345067 
L 539.815547 280.718165 
L 540.089556 284.195734 
L 540.363565 237.062334 
L 540.637575 237.443891 
L 541.185594 269.936995 
L 541.459603 259.35457 
L 541.733612 294.085909 
L 542.007622 270.928237 
L 542.281631 194.353376 
L 542.55564 228.130169 
L 542.82965 214.087085 
L 543.377669 252.527814 
L 543.651678 288.6478 
L 543.925687 250.326985 
L 544.199697 246.458623 
L 544.473706 238.308193 
L 544.747715 248.803203 
L 545.021725 290.775283 
L 545.295734 288.690326 
L 545.569744 258.463542 
L 545.843753 279.678995 
L 546.117762 247.970357 
L 546.391772 257.534977 
L 546.93979 239.391239 
L 547.2138 241.862492 
L 547.761819 300.721044 
L 548.035828 256.215262 
L 548.309837 260.40781 
L 548.583847 289.823124 
L 548.857856 227.665276 
L 549.131865 261.27202 
L 549.405875 254.651575 
L 549.679884 258.303937 
L 549.953894 222.788589 
L 550.227903 281.662543 
L 550.501912 265.336954 
L 550.775922 268.807871 
L 551.049931 270.740644 
L 551.59795 248.104406 
L 551.871959 280.93276 
L 552.145969 296.365021 
L 552.419978 304.204709 
L 552.693987 280.637362 
L 552.967997 274.057619 
L 553.242006 276.730801 
L 553.516015 246.731108 
L 553.790025 271.164129 
L 554.064034 251.838333 
L 554.338044 252.530063 
L 554.612053 256.885829 
L 554.886062 199.989764 
L 555.160072 257.64353 
L 555.434081 269.077777 
L 555.708091 244.563936 
L 555.9821 253.188139 
L 556.256109 255.269265 
L 556.530119 279.003949 
L 556.804128 275.091135 
L 557.078137 277.183664 
L 557.626156 252.70635 
L 557.900166 248.278117 
L 558.174175 266.672208 
L 558.448184 242.149362 
L 558.722194 266.931831 
L 558.996203 254.418288 
L 559.270212 251.464383 
L 559.818231 274.373531 
L 560.092241 236.546954 
L 560.36625 270.620154 
L 560.914269 245.768628 
L 561.188278 251.686646 
L 561.462287 263.057358 
L 561.736297 266.027856 
L 562.010306 264.841341 
L 562.284316 252.635858 
L 562.558325 262.338794 
L 562.832334 256.259288 
L 563.106344 261.568818 
L 563.380353 287.063454 
L 563.654362 235.754991 
L 563.928372 284.349108 
L 564.476391 230.352198 
L 564.7504 236.289109 
L 565.024409 263.12601 
L 565.298419 274.632363 
L 565.572428 261.361833 
L 565.846437 256.631517 
L 566.120447 267.332607 
L 566.394456 263.868679 
L 566.668466 253.705536 
L 566.942475 259.900726 
L 567.216484 253.51578 
L 567.764503 254.558361 
L 568.038512 267.812929 
L 568.312522 252.929913 
L 568.586531 256.179533 
L 568.860541 241.579828 
L 569.13455 278.365738 
L 569.682569 256.447381 
L 569.956578 265.179976 
L 570.230588 288.305801 
L 570.504597 262.151638 
L 570.778606 283.992343 
L 571.326625 254.519041 
L 571.600634 191.546276 
L 571.874644 247.792159 
L 572.148653 241.84797 
L 572.422663 256.92293 
L 572.696672 262.202135 
L 572.970681 283.807217 
L 573.244691 268.544858 
L 573.792709 262.307047 
L 574.066719 262.356346 
L 574.340728 276.242345 
L 574.614738 279.156551 
L 574.888747 275.592262 
L 575.162756 262.253038 
L 575.436766 283.912579 
L 575.984784 262.010541 
L 576.258794 266.192451 
L 576.532803 277.185084 
L 576.806813 270.073917 
L 577.080822 257.607909 
L 577.354831 253.051281 
L 577.628841 275.801472 
L 577.90285 254.971219 
L 578.176859 306.280211 
L 578.450869 262.022647 
L 578.724878 259.104186 
L 578.998888 239.749992 
L 579.272897 246.485714 
L 579.546906 205.476532 
L 579.820916 232.484529 
L 580.094925 231.098675 
L 580.368934 328.639812 
L 580.642944 265.991935 
L 580.916953 238.819764 
L 581.190963 270.31055 
L 581.464972 266.944616 
L 581.738981 266.870371 
L 582.012991 269.901828 
L 582.561009 244.201518 
L 582.835019 265.387608 
L 583.109028 250.183341 
L 583.383038 257.925803 
L 583.657047 216.335686 
L 583.931056 256.752307 
L 584.205066 261.309235 
L 584.479075 272.530652 
L 584.753084 246.188957 
L 585.027094 252.907321 
L 585.301103 267.645119 
L 585.575113 264.729588 
L 585.849122 281.098491 
L 586.123131 305.066862 
L 586.397141 257.365504 
L 586.67115 251.374904 
L 586.94516 214.10004 
L 587.219169 227.389181 
L 587.493178 250.069079 
L 587.767188 246.346037 
L 588.041197 259.998174 
L 588.315206 280.665305 
L 588.589216 238.668061 
L 588.863225 293.795403 
L 589.137235 287.509863 
L 589.411244 285.695399 
L 589.685253 271.986638 
L 589.959263 265.786603 
L 590.233272 264.065747 
L 590.507281 265.012109 
L 590.781291 276.578998 
L 591.0553 272.228809 
L 591.32931 260.591772 
L 591.603319 266.167341 
L 591.877328 281.966998 
L 592.151338 224.724234 
L 592.425347 247.841264 
L 592.699356 226.174351 
L 592.973366 277.546076 
L 593.247375 273.0379 
L 593.521385 276.201146 
L 593.795394 269.577045 
L 594.069403 269.532017 
L 594.343413 267.006217 
L 594.617422 244.260141 
L 594.891431 279.777739 
L 595.165441 259.105962 
L 595.43945 272.892471 
L 595.71346 246.999691 
L 595.987469 293.540578 
L 596.261478 205.791544 
L 596.535488 261.817441 
L 596.809497 256.544294 
L 597.083506 268.828848 
L 597.631525 273.104302 
L 597.905535 257.710716 
L 598.179544 262.002865 
L 598.453553 263.728506 
L 598.727563 249.069371 
L 599.001572 249.308851 
L 599.275581 225.415072 
L 599.549591 306.051935 
L 599.8236 271.482453 
L 600.09761 288.538647 
L 600.371619 286.320349 
L 600.645628 240.991887 
L 600.919638 274.126859 
L 601.193647 270.985551 
L 601.467657 243.188546 
L 601.741666 257.434563 
L 602.015675 262.486407 
L 602.289685 274.4042 
L 602.837703 259.363756 
L 603.111713 256.233631 
L 603.385722 247.66569 
L 603.659732 246.592178 
L 603.933741 250.287833 
L 604.20775 246.718761 
L 604.48176 277.833234 
L 604.755769 217.703809 
L 605.029778 280.731047 
L 605.303788 258.863711 
L 605.577797 267.732426 
L 605.851807 255.452983 
L 606.125816 274.107389 
L 606.399825 284.593963 
L 606.673835 270.499444 
L 606.947844 263.395616 
L 607.221853 281.355405 
L 607.495863 258.085504 
L 607.769872 268.512026 
L 608.043882 258.752069 
L 608.317891 237.08417 
L 608.5919 234.796054 
L 608.86591 241.120158 
L 609.139919 255.189131 
L 609.413928 256.777193 
L 609.687938 259.185375 
L 609.961947 265.28585 
L 610.235957 274.210878 
L 610.509966 276.851925 
L 610.783975 256.001621 
L 611.057985 250.617688 
L 611.331994 262.275248 
L 611.606003 213.319444 
L 611.880013 257.407655 
L 612.154022 249.489216 
L 612.428032 250.6135 
L 612.702041 161.154099 
L 612.97605 285.414719 
L 613.25006 241.728726 
L 613.524069 250.825235 
L 613.798078 279.503948 
L 614.072088 268.331531 
L 614.346097 275.960459 
L 614.620107 273.945407 
L 614.894116 287.676053 
L 615.168125 284.281067 
L 615.442135 269.113686 
L 615.716144 221.260574 
L 615.990154 307.771117 
L 616.264163 240.97903 
L 616.538172 258.053697 
L 616.812182 267.702136 
L 617.086191 253.37711 
L 617.3602 255.370954 
L 617.63421 270.984866 
L 617.908219 273.047535 
L 618.182229 276.006375 
L 618.456238 290.927935 
L 618.730247 265.179582 
L 619.004257 281.755971 
L 619.278266 267.829189 
L 619.552275 259.974186 
L 619.826285 240.600169 
L 620.100294 280.84021 
L 620.374304 228.862841 
L 620.648313 279.120505 
L 620.922322 262.275262 
L 621.196332 281.242762 
L 621.74435 245.113611 
L 622.01836 275.211343 
L 622.292369 273.87021 
L 622.566379 288.231379 
L 622.840388 243.988576 
L 623.114397 311.5268 
L 623.388407 296.65983 
L 623.662416 254.636637 
L 623.936425 243.771843 
L 624.210435 273.076309 
L 624.484444 257.677692 
L 624.758454 271.246269 
L 625.032463 236.968308 
L 625.306472 243.051304 
L 625.580482 283.945915 
L 625.854491 297.792619 
L 626.1285 282.274026 
L 626.40251 225.968371 
L 626.676519 214.202269 
L 626.950529 244.521127 
L 627.224538 235.1951 
L 627.498547 219.96684 
L 627.772557 225.199978 
L 628.046566 337.41448 
L 628.320575 316.594305 
L 628.594585 268.449567 
L 628.868594 302.908537 
L 629.416613 242.322008 
L 629.690622 244.063565 
L 629.964632 198.000089 
L 630.238641 218.279322 
L 630.51265 299.055079 
L 630.78666 259.04018 
L 631.060669 265.230044 
L 631.334679 206.654978 
L 631.608688 328.345419 
L 632.156707 242.554251 
L 632.430716 217.451234 
L 632.704726 236.856822 
L 632.978735 274.956542 
L 633.252744 250.409215 
L 633.526754 261.547245 
L 633.800763 247.562333 
L 634.074772 239.912771 
L 634.348782 325.617422 
L 634.896801 208.780214 
L 635.17081 241.53172 
L 635.444819 219.283719 
L 635.718829 230.286935 
L 635.992838 230.115589 
L 636.266847 311.811729 
L 636.540857 275.732776 
L 636.814866 265.264877 
L 637.088876 259.121986 
L 637.362885 261.514541 
L 637.636894 261.36496 
L 637.910904 239.70283 
L 638.184913 284.244756 
L 638.458922 270.691887 
L 638.732932 271.83715 
L 639.006941 255.801352 
L 639.280951 268.651497 
L 639.55496 240.736219 
L 639.828969 284.355687 
L 640.102979 287.511148 
L 640.376988 240.44952 
L 640.650997 295.881758 
L 640.925007 235.775006 
L 641.199016 268.958512 
L 641.473026 233.807553 
L 641.747035 243.795175 
L 642.021044 301.501681 
L 642.295054 275.215624 
L 642.569063 290.154709 
L 642.843072 276.116349 
L 643.117082 301.812825 
L 643.391091 316.583635 
L 643.665101 266.112743 
L 643.93911 248.182816 
L 644.213119 199.396244 
L 644.487129 264.410923 
L 644.761138 264.946765 
L 645.035147 279.644726 
L 645.309157 250.799618 
L 645.583166 250.363041 
L 645.857176 234.540849 
L 646.131185 249.471313 
L 646.679204 265.874879 
L 646.953213 228.583468 
L 647.227223 275.843066 
L 647.501232 255.554402 
L 647.775241 262.070949 
L 648.049251 235.736555 
L 648.32326 238.839405 
L 648.597269 252.772068 
L 648.871279 153.528617 
L 649.145288 212.862941 
L 649.419298 332.623662 
L 649.693307 208.044619 
L 649.967316 203.213979 
L 650.241326 373.151534 
L 650.515335 283.452516 
L 650.789344 289.455694 
L 651.063354 236.921452 
L 651.337363 255.917193 
L 651.611373 290.186256 
L 651.885382 253.720129 
L 652.159391 356.445228 
L 652.70741 236.37358 
L 652.981419 278.479283 
L 653.255429 269.416876 
L 653.529438 222.731601 
L 653.803448 230.924756 
L 654.077457 255.910837 
L 654.351466 249.66801 
L 654.625476 275.774025 
L 654.899485 223.13036 
L 655.447504 299.874701 
L 655.721513 273.020194 
L 655.995523 227.339196 
L 656.269532 251.692724 
L 656.543541 290.930244 
L 657.09156 236.99393 
L 657.365569 267.248945 
L 657.639579 264.80888 
L 657.913588 240.784243 
L 658.187598 287.062596 
L 658.461607 267.093823 
L 658.735616 290.111739 
L 659.009626 276.027895 
L 659.283635 246.186309 
L 659.557644 254.106302 
L 659.831654 305.373144 
L 660.105663 247.782541 
L 660.653682 334.178253 
L 661.201701 247.340547 
L 661.47571 246.911606 
L 661.749719 228.023431 
L 662.023729 226.690485 
L 662.297738 244.545678 
L 662.571748 228.570148 
L 662.845757 253.937199 
L 663.119766 231.669103 
L 663.393776 227.244619 
L 663.667785 291.823225 
L 663.941795 254.902548 
L 664.215804 258.526052 
L 664.489813 253.351332 
L 664.763823 253.718695 
L 665.037832 273.39024 
L 665.311841 263.063581 
L 665.585851 277.494964 
L 665.85986 264.652972 
L 666.13387 280.569186 
L 666.407879 257.127156 
L 666.681888 269.818185 
L 666.955898 263.138266 
L 667.229907 237.576899 
L 667.777926 266.069356 
L 668.051935 251.447415 
L 668.325945 249.852288 
L 668.873963 266.237556 
L 669.147973 243.754132 
L 669.695991 275.660967 
L 669.970001 275.228843 
L 670.24401 226.821958 
L 670.51802 236.28616 
L 670.792029 263.898732 
L 671.066038 238.523761 
L 671.614057 291.232153 
L 671.888066 259.207935 
L 672.162076 281.448549 
L 672.436085 240.292199 
L 672.710095 242.669289 
L 672.984104 276.706736 
L 673.258113 295.241523 
L 673.532123 234.152373 
L 673.806132 210.399684 
L 674.080141 284.638778 
L 674.354151 279.528814 
L 674.62816 276.593232 
L 674.90217 257.442143 
L 675.176179 271.063984 
L 675.176179 271.063984 
" clip-path="url(#p3355681820)" style="fill: none; stroke: #2878b5; stroke-width: 1.5; stroke-linecap: square"/>
   </g>
   <g id="line2d_28">
    <path d="M 44.803906 261.002564 
L 705.193906 261.002564 
" clip-path="url(#p3355681820)" style="fill: none; stroke-dasharray: 7.4,3.2; stroke-dashoffset: 0; stroke: #c82423; stroke-width: 2"/>
   </g>
   <g id="patch_3">
    <path d="M 44.803906 389.6775 
L 44.803906 26.10625 
" style="fill: none; stroke: #000000; stroke-width: 0.8; stroke-linejoin: miter; stroke-linecap: square"/>
   </g>
   <g id="patch_4">
    <path d="M 705.193906 389.6775 
L 705.193906 26.10625 
" style="fill: none; stroke: #000000; stroke-width: 0.8; stroke-linejoin: miter; stroke-linecap: square"/>
   </g>
   <g id="patch_5">
    <path d="M 44.803906 389.6775 
L 705.193906 389.6775 
" style="fill: none; stroke: #000000; stroke-width: 0.8; stroke-linejoin: miter; stroke-linecap: square"/>
   </g>
   <g id="patch_6">
    <path d="M 44.803906 26.10625 
L 705.193906 26.10625 
" style="fill: none; stroke: #000000; stroke-width: 0.8; stroke-linejoin: miter; stroke-linecap: square"/>
   </g>
   <g id="text_16">
    <!-- COD_mg/L 预测残差分析 -->
    <g transform="translate(319.935781 16.10625) scale(0.12 -0.12)">
     <defs>
      <path id="DejaVuSans-43" d="M 4122 4306 
L 4122 3641 
Q 3803 3938 3442 4084 
Q 3081 4231 2675 4231 
Q 1875 4231 1450 3742 
Q 1025 3253 1025 2328 
Q 1025 1406 1450 917 
Q 1875 428 2675 428 
Q 3081 428 3442 575 
Q 3803 722 4122 1019 
L 4122 359 
Q 3791 134 3420 21 
Q 3050 -91 2638 -91 
Q 1578 -91 968 557 
Q 359 1206 359 2328 
Q 359 3453 968 4101 
Q 1578 4750 2638 4750 
Q 3056 4750 3426 4639 
Q 3797 4528 4122 4306 
z
" transform="scale(0.015625)"/>
      <path id="DejaVuSans-4f" d="M 2522 4238 
Q 1834 4238 1429 3725 
Q 1025 3213 1025 2328 
Q 1025 1447 1429 934 
Q 1834 422 2522 422 
Q 3209 422 3611 934 
Q 4013 1447 4013 2328 
Q 4013 3213 3611 3725 
Q 3209 4238 2522 4238 
z
M 2522 4750 
Q 3503 4750 4090 4092 
Q 4678 3434 4678 2328 
Q 4678 1225 4090 567 
Q 3503 -91 2522 -91 
Q 1538 -91 948 565 
Q 359 1222 359 2328 
Q 359 3434 948 4092 
Q 1538 4750 2522 4750 
z
" transform="scale(0.015625)"/>
      <path id="DejaVuSans-44" d="M 1259 4147 
L 1259 519 
L 2022 519 
Q 2988 519 3436 956 
Q 3884 1394 3884 2338 
Q 3884 3275 3436 3711 
Q 2988 4147 2022 4147 
L 1259 4147 
z
M 628 4666 
L 1925 4666 
Q 3281 4666 3915 4102 
Q 4550 3538 4550 2338 
Q 4550 1131 3912 565 
Q 3275 0 1925 0 
L 628 0 
L 628 4666 
z
" transform="scale(0.015625)"/>
      <path id="DejaVuSans-5f" d="M 3263 -1063 
L 3263 -1509 
L -63 -1509 
L -63 -1063 
L 3263 -1063 
z
" transform="scale(0.015625)"/>
      <path id="DejaVuSans-6d" d="M 3328 2828 
Q 3544 3216 3844 3400 
Q 4144 3584 4550 3584 
Q 5097 3584 5394 3201 
Q 5691 2819 5691 2113 
L 5691 0 
L 5113 0 
L 5113 2094 
Q 5113 2597 4934 2840 
Q 4756 3084 4391 3084 
Q 3944 3084 3684 2787 
Q 3425 2491 3425 1978 
L 3425 0 
L 2847 0 
L 2847 2094 
Q 2847 2600 2669 2842 
Q 2491 3084 2119 3084 
Q 1678 3084 1418 2786 
Q 1159 2488 1159 1978 
L 1159 0 
L 581 0 
L 581 3500 
L 1159 3500 
L 1159 2956 
Q 1356 3278 1631 3431 
Q 1906 3584 2284 3584 
Q 2666 3584 2933 3390 
Q 3200 3197 3328 2828 
z
" transform="scale(0.015625)"/>
      <path id="DejaVuSans-67" d="M 2906 1791 
Q 2906 2416 2648 2759 
Q 2391 3103 1925 3103 
Q 1463 3103 1205 2759 
Q 947 2416 947 1791 
Q 947 1169 1205 825 
Q 1463 481 1925 481 
Q 2391 481 2648 825 
Q 2906 1169 2906 1791 
z
M 3481 434 
Q 3481 -459 3084 -895 
Q 2688 -1331 1869 -1331 
Q 1566 -1331 1297 -1286 
Q 1028 -1241 775 -1147 
L 775 -588 
Q 1028 -725 1275 -790 
Q 1522 -856 1778 -856 
Q 2344 -856 2625 -561 
Q 2906 -266 2906 331 
L 2906 616 
Q 2728 306 2450 153 
Q 2172 0 1784 0 
Q 1141 0 747 490 
Q 353 981 353 1791 
Q 353 2603 747 3093 
Q 1141 3584 1784 3584 
Q 2172 3584 2450 3431 
Q 2728 3278 2906 2969 
L 2906 3500 
L 3481 3500 
L 3481 434 
z
" transform="scale(0.015625)"/>
      <path id="DejaVuSans-4c" d="M 628 4666 
L 1259 4666 
L 1259 531 
L 3531 531 
L 3531 0 
L 628 0 
L 628 4666 
z
" transform="scale(0.015625)"/>
      <path id="DejaVuSans-9884" d="M 319 -1131 
L 319 4513 
L 3519 4513 
L 3519 -1131 
L 319 -1131 
z
M 678 -775 
L 3163 -775 
L 3163 4153 
L 678 4153 
L 678 -775 
z
" transform="scale(0.015625)"/>
      <path id="DejaVuSans-6d4b" d="M 319 -1131 
L 319 4513 
L 3519 4513 
L 3519 -1131 
L 319 -1131 
z
M 678 -775 
L 3163 -775 
L 3163 4153 
L 678 4153 
L 678 -775 
z
" transform="scale(0.015625)"/>
      <path id="DejaVuSans-5206" d="M 319 -1131 
L 319 4513 
L 3519 4513 
L 3519 -1131 
L 319 -1131 
z
M 678 -775 
L 3163 -775 
L 3163 4153 
L 678 4153 
L 678 -775 
z
" transform="scale(0.015625)"/>
      <path id="DejaVuSans-6790" d="M 319 -1131 
L 319 4513 
L 3519 4513 
L 3519 -1131 
L 319 -1131 
z
M 678 -775 
L 3163 -775 
L 3163 4153 
L 678 4153 
L 678 -775 
z
" transform="scale(0.015625)"/>
     </defs>
     <use xlink:href="#DejaVuSans-43"/>
     <use xlink:href="#DejaVuSans-4f" transform="translate(69.824219 0)"/>
     <use xlink:href="#DejaVuSans-44" transform="translate(148.535156 0)"/>
     <use xlink:href="#DejaVuSans-5f" transform="translate(225.537109 0)"/>
     <use xlink:href="#DejaVuSans-6d" transform="translate(275.537109 0)"/>
     <use xlink:href="#DejaVuSans-67" transform="translate(372.949219 0)"/>
     <use xlink:href="#DejaVuSans-2f" transform="translate(436.425781 0)"/>
     <use xlink:href="#DejaVuSans-4c" transform="translate(470.117188 0)"/>
     <use xlink:href="#DejaVuSans-20" transform="translate(525.830078 0)"/>
     <use xlink:href="#DejaVuSans-9884" transform="translate(557.617188 0)"/>
     <use xlink:href="#DejaVuSans-6d4b" transform="translate(617.626953 0)"/>
     <use xlink:href="#DejaVuSans-6b8b" transform="translate(677.636719 0)"/>
     <use xlink:href="#DejaVuSans-5dee" transform="translate(737.646484 0)"/>
     <use xlink:href="#DejaVuSans-5206" transform="translate(797.65625 0)"/>
     <use xlink:href="#DejaVuSans-6790" transform="translate(857.666016 0)"/>
    </g>
   </g>
   <g id="legend_1">
    <g id="patch_7">
     <path d="M 648.488281 59.726875 
L 698.893906 59.726875 
Q 700.693906 59.726875 700.693906 57.926875 
L 700.693906 32.40625 
Q 700.693906 30.60625 698.893906 30.60625 
L 648.488281 30.60625 
Q 646.688281 30.60625 646.688281 32.40625 
L 646.688281 57.926875 
Q 646.688281 59.726875 648.488281 59.726875 
z
" style="fill: #ffffff; opacity: 0.8; stroke: #cccccc; stroke-width: 0.5; stroke-linejoin: miter"/>
    </g>
    <g id="line2d_29">
     <path d="M 650.288281 37.894844 
L 659.288281 37.894844 
L 668.288281 37.894844 
" style="fill: none; stroke: #2878b5; stroke-width: 1.5; stroke-linecap: square"/>
    </g>
    <g id="text_17">
     <!-- 预测残差 -->
     <g transform="translate(675.488281 41.044844) scale(0.09 -0.09)">
      <use xlink:href="#DejaVuSans-9884"/>
      <use xlink:href="#DejaVuSans-6d4b" transform="translate(60.009766 0)"/>
      <use xlink:href="#DejaVuSans-6b8b" transform="translate(120.019531 0)"/>
      <use xlink:href="#DejaVuSans-5dee" transform="translate(180.029297 0)"/>
     </g>
    </g>
    <g id="line2d_30">
     <path d="M 650.288281 51.105156 
L 659.288281 51.105156 
L 668.288281 51.105156 
" style="fill: none; stroke-dasharray: 7.4,3.2; stroke-dashoffset: 0; stroke: #c82423; stroke-width: 2"/>
    </g>
    <g id="text_18">
     <!-- 零线 -->
     <g transform="translate(675.488281 54.255156) scale(0.09 -0.09)">
      <defs>
       <path id="DejaVuSans-96f6" d="M 319 -1131 
L 319 4513 
L 3519 4513 
L 3519 -1131 
L 319 -1131 
z
M 678 -775 
L 3163 -775 
L 3163 4153 
L 678 4153 
L 678 -775 
z
" transform="scale(0.015625)"/>
       <path id="DejaVuSans-7ebf" d="M 319 -1131 
L 319 4513 
L 3519 4513 
L 3519 -1131 
L 319 -1131 
z
M 678 -775 
L 3163 -775 
L 3163 4153 
L 678 4153 
L 678 -775 
z
" transform="scale(0.015625)"/>
      </defs>
      <use xlink:href="#DejaVuSans-96f6"/>
      <use xlink:href="#DejaVuSans-7ebf" transform="translate(60.009766 0)"/>
     </g>
    </g>
   </g>
  </g>
 </g>
 <defs>
  <clipPath id="p3355681820">
   <rect x="44.803906" y="26.10625" width="660.39" height="363.57125"/>
  </clipPath>
 </defs>
</svg>
