<?xml version="1.0" encoding="utf-8" standalone="no"?>
<!DOCTYPE svg PUBLIC "-//W3C//DTD SVG 1.1//EN"
  "http://www.w3.org/Graphics/SVG/1.1/DTD/svg11.dtd">
<svg xmlns:xlink="http://www.w3.org/1999/xlink" width="712.92625pt" height="423.989062pt" viewBox="0 0 712.92625 423.989062" xmlns="http://www.w3.org/2000/svg" version="1.1">
 <metadata>
  <rdf:RDF xmlns:dc="http://purl.org/dc/elements/1.1/" xmlns:cc="http://creativecommons.org/ns#" xmlns:rdf="http://www.w3.org/1999/02/22-rdf-syntax-ns#">
   <cc:Work>
    <dc:type rdf:resource="http://purl.org/dc/dcmitype/StillImage"/>
    <dc:date>2025-04-16T12:16:50.120331</dc:date>
    <dc:format>image/svg+xml</dc:format>
    <dc:creator>
     <cc:Agent>
      <dc:title>Matplotlib v3.10.0, https://matplotlib.org/</dc:title>
     </cc:Agent>
    </dc:creator>
   </cc:Work>
  </rdf:RDF>
 </metadata>
 <defs>
  <style type="text/css">*{stroke-linejoin: round; stroke-linecap: butt}</style>
 </defs>
 <g id="figure_1">
  <g id="patch_1">
   <path d="M 0 423.989062 
L 712.92625 423.989062 
L 712.92625 0 
L 0 0 
z
" style="fill: #ffffff"/>
  </g>
  <g id="axes_1">
   <g id="patch_2">
    <path d="M 42.23125 392.71875 
L 705.72625 392.71875 
L 705.72625 27.04375 
L 42.23125 27.04375 
z
" style="fill: #ffffff"/>
   </g>
   <g id="matplotlib.axis_1">
    <g id="xtick_1">
     <g id="line2d_1">
      <path d="M 72.114816 392.71875 
L 72.114816 27.04375 
" clip-path="url(#p381447d921)" style="fill: none; stroke-dasharray: 1.85,0.8; stroke-dashoffset: 0; stroke: #b2b2b2; stroke-opacity: 0.3; stroke-width: 0.5"/>
     </g>
     <g id="line2d_2">
      <defs>
       <path id="m625c6101f1" d="M 0 0 
L 0 -3.5 
" style="stroke: #000000; stroke-width: 0.8"/>
      </defs>
      <g>
       <use xlink:href="#m625c6101f1" x="72.114816" y="392.71875" style="stroke: #000000; stroke-width: 0.8"/>
      </g>
     </g>
     <g id="text_1">
      <!-- 0 -->
      <g transform="translate(69.864816 402.40625) scale(0.09 -0.09)">
       <defs>
        <path id="SimHei-30" d="M 225 2537 
Q 250 3200 412 3587 
Q 575 3975 875 4225 
Q 1175 4475 1612 4475 
Q 2050 4475 2375 4112 
Q 2700 3750 2800 3200 
Q 2900 2650 2862 1937 
Q 2825 1225 2612 775 
Q 2400 325 1975 150 
Q 1550 -25 1125 187 
Q 700 400 525 750 
Q 350 1100 275 1487 
Q 200 1875 225 2537 
z
M 750 2687 
Q 675 2000 800 1462 
Q 925 925 1212 700 
Q 1500 475 1800 612 
Q 2100 750 2237 1162 
Q 2375 1575 2375 2062 
Q 2375 2550 2337 2950 
Q 2300 3350 2112 3675 
Q 1925 4000 1612 4012 
Q 1300 4025 1062 3700 
Q 825 3375 750 2687 
z
" transform="scale(0.015625)"/>
       </defs>
       <use xlink:href="#SimHei-30"/>
      </g>
     </g>
    </g>
    <g id="xtick_2">
     <g id="line2d_3">
      <path d="M 209.763669 392.71875 
L 209.763669 27.04375 
" clip-path="url(#p381447d921)" style="fill: none; stroke-dasharray: 1.85,0.8; stroke-dashoffset: 0; stroke: #b2b2b2; stroke-opacity: 0.3; stroke-width: 0.5"/>
     </g>
     <g id="line2d_4">
      <g>
       <use xlink:href="#m625c6101f1" x="209.763669" y="392.71875" style="stroke: #000000; stroke-width: 0.8"/>
      </g>
     </g>
     <g id="text_2">
      <!-- 500 -->
      <g transform="translate(203.013669 402.40625) scale(0.09 -0.09)">
       <defs>
        <path id="SimHei-35" d="M 550 1325 
Q 725 650 1150 575 
Q 1575 500 1837 662 
Q 2100 825 2212 1087 
Q 2325 1350 2312 1675 
Q 2300 2000 2137 2225 
Q 1975 2450 1725 2525 
Q 1475 2600 1162 2525 
Q 850 2450 650 2175 
L 225 2225 
Q 275 2375 700 4375 
L 2675 4375 
L 2675 3925 
L 1075 3925 
Q 950 3250 825 2850 
Q 1200 3025 1525 3012 
Q 1850 3000 2150 2862 
Q 2450 2725 2587 2487 
Q 2725 2250 2787 2012 
Q 2850 1775 2837 1500 
Q 2825 1225 2725 937 
Q 2625 650 2425 462 
Q 2225 275 1937 162 
Q 1650 50 1275 75 
Q 900 100 562 350 
Q 225 600 100 1200 
L 550 1325 
z
" transform="scale(0.015625)"/>
       </defs>
       <use xlink:href="#SimHei-35"/>
       <use xlink:href="#SimHei-30" transform="translate(50 0)"/>
       <use xlink:href="#SimHei-30" transform="translate(100 0)"/>
      </g>
     </g>
    </g>
    <g id="xtick_3">
     <g id="line2d_5">
      <path d="M 347.412521 392.71875 
L 347.412521 27.04375 
" clip-path="url(#p381447d921)" style="fill: none; stroke-dasharray: 1.85,0.8; stroke-dashoffset: 0; stroke: #b2b2b2; stroke-opacity: 0.3; stroke-width: 0.5"/>
     </g>
     <g id="line2d_6">
      <g>
       <use xlink:href="#m625c6101f1" x="347.412521" y="392.71875" style="stroke: #000000; stroke-width: 0.8"/>
      </g>
     </g>
     <g id="text_3">
      <!-- 1000 -->
      <g transform="translate(338.412521 402.40625) scale(0.09 -0.09)">
       <defs>
        <path id="SimHei-31" d="M 1400 3600 
Q 1075 3275 575 2975 
L 575 3450 
Q 1200 3875 1600 4450 
L 1900 4450 
L 1900 150 
L 1400 150 
L 1400 3600 
z
" transform="scale(0.015625)"/>
       </defs>
       <use xlink:href="#SimHei-31"/>
       <use xlink:href="#SimHei-30" transform="translate(50 0)"/>
       <use xlink:href="#SimHei-30" transform="translate(100 0)"/>
       <use xlink:href="#SimHei-30" transform="translate(150 0)"/>
      </g>
     </g>
    </g>
    <g id="xtick_4">
     <g id="line2d_7">
      <path d="M 485.061374 392.71875 
L 485.061374 27.04375 
" clip-path="url(#p381447d921)" style="fill: none; stroke-dasharray: 1.85,0.8; stroke-dashoffset: 0; stroke: #b2b2b2; stroke-opacity: 0.3; stroke-width: 0.5"/>
     </g>
     <g id="line2d_8">
      <g>
       <use xlink:href="#m625c6101f1" x="485.061374" y="392.71875" style="stroke: #000000; stroke-width: 0.8"/>
      </g>
     </g>
     <g id="text_4">
      <!-- 1500 -->
      <g transform="translate(476.061374 402.40625) scale(0.09 -0.09)">
       <use xlink:href="#SimHei-31"/>
       <use xlink:href="#SimHei-35" transform="translate(50 0)"/>
       <use xlink:href="#SimHei-30" transform="translate(100 0)"/>
       <use xlink:href="#SimHei-30" transform="translate(150 0)"/>
      </g>
     </g>
    </g>
    <g id="xtick_5">
     <g id="line2d_9">
      <path d="M 622.710227 392.71875 
L 622.710227 27.04375 
" clip-path="url(#p381447d921)" style="fill: none; stroke-dasharray: 1.85,0.8; stroke-dashoffset: 0; stroke: #b2b2b2; stroke-opacity: 0.3; stroke-width: 0.5"/>
     </g>
     <g id="line2d_10">
      <g>
       <use xlink:href="#m625c6101f1" x="622.710227" y="392.71875" style="stroke: #000000; stroke-width: 0.8"/>
      </g>
     </g>
     <g id="text_5">
      <!-- 2000 -->
      <g transform="translate(613.710227 402.40625) scale(0.09 -0.09)">
       <defs>
        <path id="SimHei-32" d="M 300 250 
Q 325 625 650 925 
Q 975 1225 1475 1862 
Q 1975 2500 2125 2850 
Q 2275 3200 2237 3450 
Q 2200 3700 2000 3862 
Q 1800 4025 1537 4000 
Q 1275 3975 1037 3800 
Q 800 3625 675 3275 
L 200 3350 
Q 400 3925 712 4187 
Q 1025 4450 1450 4475 
Q 1700 4500 1900 4462 
Q 2100 4425 2312 4287 
Q 2525 4150 2662 3875 
Q 2800 3600 2762 3212 
Q 2725 2825 2375 2287 
Q 2025 1750 1025 600 
L 2825 600 
L 2825 150 
L 300 150 
L 300 250 
z
" transform="scale(0.015625)"/>
       </defs>
       <use xlink:href="#SimHei-32"/>
       <use xlink:href="#SimHei-30" transform="translate(50 0)"/>
       <use xlink:href="#SimHei-30" transform="translate(100 0)"/>
       <use xlink:href="#SimHei-30" transform="translate(150 0)"/>
      </g>
     </g>
    </g>
    <g id="text_6">
     <!-- 时间 / 序号 -->
     <g transform="translate(346.47875 415.539062) scale(0.1 -0.1)">
      <defs>
       <path id="SimHei-65f6" d="M 2525 4575 
Q 2500 3675 2500 2400 
Q 2500 1125 2525 400 
L 2000 400 
L 2000 875 
L 1000 875 
L 1000 50 
L 475 50 
Q 500 1200 500 2350 
Q 500 3525 475 4575 
L 2525 4575 
z
M 4875 3825 
Q 4875 4575 4850 5225 
L 5400 5225 
Q 5375 4575 5375 3825 
Q 5750 3825 6175 3850 
L 6175 3375 
Q 5750 3400 5375 3400 
L 5375 50 
Q 5375 -325 5075 -425 
Q 4775 -525 4300 -575 
Q 4300 -275 4025 0 
Q 4500 -50 4687 -25 
Q 4875 0 4875 300 
L 4875 3400 
Q 3625 3400 2775 3375 
L 2775 3850 
Q 3575 3825 4875 3825 
z
M 2000 1300 
L 2000 2550 
L 1000 2550 
L 1000 1300 
L 2000 1300 
z
M 2000 2975 
L 2000 4150 
L 1000 4150 
L 1000 2975 
L 2000 2975 
z
M 3550 2725 
Q 3875 2200 4175 1600 
Q 3925 1525 3650 1375 
Q 3450 1975 3075 2500 
Q 3300 2600 3550 2725 
z
" transform="scale(0.015625)"/>
       <path id="SimHei-95f4" d="M 4450 3550 
Q 4425 3075 4425 2725 
L 4425 1400 
Q 4425 1075 4450 625 
L 1925 625 
Q 1950 1075 1950 1425 
L 1950 2725 
Q 1950 3075 1925 3550 
L 4450 3550 
z
M 5800 4875 
Q 5775 4400 5775 3925 
L 5775 250 
Q 5800 -325 5462 -450 
Q 5125 -575 4725 -625 
Q 4700 -325 4525 -25 
Q 5000 -50 5137 25 
Q 5275 100 5275 350 
L 5275 4450 
L 3775 4450 
Q 3175 4450 2650 4425 
L 2650 4900 
Q 3175 4875 3775 4875 
L 5800 4875 
z
M 550 -525 
Q 600 -25 600 525 
L 600 3150 
Q 600 3675 550 4025 
L 1125 4025 
Q 1100 3650 1100 3300 
L 1100 500 
Q 1100 0 1125 -525 
L 550 -525 
z
M 3950 1025 
L 3950 1950 
L 2425 1950 
L 2425 1025 
L 3950 1025 
z
M 3950 2350 
L 3950 3150 
L 2425 3150 
L 2425 2350 
L 3950 2350 
z
M 1525 5300 
Q 1750 5000 2225 4350 
Q 1950 4225 1700 4075 
Q 1450 4575 1075 5025 
Q 1350 5225 1525 5300 
z
" transform="scale(0.015625)"/>
       <path id="SimHei-20" transform="scale(0.015625)"/>
       <path id="SimHei-2f" d="M 3000 4550 
L 350 -175 
L 100 -25 
L 2750 4700 
L 3000 4550 
z
" transform="scale(0.015625)"/>
       <path id="SimHei-5e8f" d="M 4000 2075 
L 5975 2075 
Q 5750 1525 5575 1025 
Q 5325 1100 5050 1150 
Q 5175 1450 5275 1700 
L 4050 1700 
L 4050 150 
Q 4050 -375 3762 -462 
Q 3475 -550 2950 -575 
Q 2875 -300 2750 0 
Q 3350 -75 3475 25 
Q 3600 125 3575 375 
L 3575 1700 
L 2450 1700 
Q 2050 1700 1675 1675 
L 1675 2100 
Q 2100 2075 2425 2075 
L 3675 2075 
Q 3325 2400 2875 2775 
Q 2975 2875 3250 3100 
Q 3400 2975 3725 2725 
L 4575 3275 
L 3000 3275 
Q 2400 3275 1950 3250 
L 1950 3700 
Q 2400 3675 3000 3675 
L 5400 3675 
L 5400 3250 
Q 4700 2875 4025 2450 
L 4275 2250 
L 4000 2075 
z
M 3725 5275 
Q 3825 4925 3925 4525 
L 4850 4525 
Q 5425 4525 6000 4550 
L 6000 4125 
Q 5425 4150 4850 4150 
L 1400 4150 
Q 1400 2750 1362 2137 
Q 1325 1525 1200 887 
Q 1075 250 775 -350 
Q 625 -250 250 -125 
Q 475 300 600 700 
Q 725 1100 800 1637 
Q 875 2175 875 2825 
Q 875 3500 850 4525 
L 3350 4525 
Q 3275 4825 3150 5150 
Q 3425 5200 3725 5275 
z
" transform="scale(0.015625)"/>
       <path id="SimHei-53f7" d="M 5025 4925 
Q 5000 4550 5000 4075 
Q 5000 3600 5025 3175 
L 1400 3175 
Q 1425 3525 1425 4000 
Q 1425 4500 1400 4925 
L 5025 4925 
z
M 5175 2625 
Q 5650 2625 6025 2650 
L 6025 2200 
Q 5650 2225 5175 2225 
L 2450 2225 
Q 2350 1875 2225 1450 
L 5175 1450 
Q 5100 1050 5062 775 
Q 5025 500 4950 112 
Q 4875 -275 4650 -412 
Q 4425 -550 3225 -625 
Q 3125 -350 2975 -50 
Q 3875 -75 4112 -50 
Q 4350 -25 4425 212 
Q 4500 450 4575 1025 
L 1600 1025 
Q 1825 1625 1950 2225 
L 1350 2225 
Q 825 2225 375 2200 
L 375 2650 
Q 825 2625 1350 2625 
L 5175 2625 
z
M 4525 3575 
L 4525 4525 
L 1900 4525 
L 1900 3575 
L 4525 3575 
z
" transform="scale(0.015625)"/>
      </defs>
      <use xlink:href="#SimHei-65f6"/>
      <use xlink:href="#SimHei-95f4" transform="translate(100 0)"/>
      <use xlink:href="#SimHei-20" transform="translate(200 0)"/>
      <use xlink:href="#SimHei-2f" transform="translate(250 0)"/>
      <use xlink:href="#SimHei-20" transform="translate(300 0)"/>
      <use xlink:href="#SimHei-5e8f" transform="translate(350 0)"/>
      <use xlink:href="#SimHei-53f7" transform="translate(450 0)"/>
     </g>
    </g>
   </g>
   <g id="matplotlib.axis_2">
    <g id="ytick_1">
     <g id="line2d_11">
      <path d="M 42.23125 353.761552 
L 705.72625 353.761552 
" clip-path="url(#p381447d921)" style="fill: none; stroke-dasharray: 1.85,0.8; stroke-dashoffset: 0; stroke: #b2b2b2; stroke-opacity: 0.3; stroke-width: 0.5"/>
     </g>
     <g id="line2d_12">
      <defs>
       <path id="m3b00dabe00" d="M 0 0 
L 3.5 0 
" style="stroke: #000000; stroke-width: 0.8"/>
      </defs>
      <g>
       <use xlink:href="#m3b00dabe00" x="42.23125" y="353.761552" style="stroke: #000000; stroke-width: 0.8"/>
      </g>
     </g>
     <g id="text_7">
      <!-- -100 -->
      <g transform="translate(20.73125 356.855302) scale(0.09 -0.09)">
       <defs>
        <path id="SimHei-2d" d="M 2975 2125 
L 125 2125 
L 125 2525 
L 2975 2525 
L 2975 2125 
z
" transform="scale(0.015625)"/>
       </defs>
       <use xlink:href="#SimHei-2d"/>
       <use xlink:href="#SimHei-31" transform="translate(50 0)"/>
       <use xlink:href="#SimHei-30" transform="translate(100 0)"/>
       <use xlink:href="#SimHei-30" transform="translate(150 0)"/>
      </g>
     </g>
    </g>
    <g id="ytick_2">
     <g id="line2d_13">
      <path d="M 42.23125 308.530404 
L 705.72625 308.530404 
" clip-path="url(#p381447d921)" style="fill: none; stroke-dasharray: 1.85,0.8; stroke-dashoffset: 0; stroke: #b2b2b2; stroke-opacity: 0.3; stroke-width: 0.5"/>
     </g>
     <g id="line2d_14">
      <g>
       <use xlink:href="#m3b00dabe00" x="42.23125" y="308.530404" style="stroke: #000000; stroke-width: 0.8"/>
      </g>
     </g>
     <g id="text_8">
      <!-- -50 -->
      <g transform="translate(25.23125 311.624154) scale(0.09 -0.09)">
       <use xlink:href="#SimHei-2d"/>
       <use xlink:href="#SimHei-35" transform="translate(50 0)"/>
       <use xlink:href="#SimHei-30" transform="translate(100 0)"/>
      </g>
     </g>
    </g>
    <g id="ytick_3">
     <g id="line2d_15">
      <path d="M 42.23125 263.299256 
L 705.72625 263.299256 
" clip-path="url(#p381447d921)" style="fill: none; stroke-dasharray: 1.85,0.8; stroke-dashoffset: 0; stroke: #b2b2b2; stroke-opacity: 0.3; stroke-width: 0.5"/>
     </g>
     <g id="line2d_16">
      <g>
       <use xlink:href="#m3b00dabe00" x="42.23125" y="263.299256" style="stroke: #000000; stroke-width: 0.8"/>
      </g>
     </g>
     <g id="text_9">
      <!-- 0 -->
      <g transform="translate(34.23125 266.393006) scale(0.09 -0.09)">
       <use xlink:href="#SimHei-30"/>
      </g>
     </g>
    </g>
    <g id="ytick_4">
     <g id="line2d_17">
      <path d="M 42.23125 218.068108 
L 705.72625 218.068108 
" clip-path="url(#p381447d921)" style="fill: none; stroke-dasharray: 1.85,0.8; stroke-dashoffset: 0; stroke: #b2b2b2; stroke-opacity: 0.3; stroke-width: 0.5"/>
     </g>
     <g id="line2d_18">
      <g>
       <use xlink:href="#m3b00dabe00" x="42.23125" y="218.068108" style="stroke: #000000; stroke-width: 0.8"/>
      </g>
     </g>
     <g id="text_10">
      <!-- 50 -->
      <g transform="translate(29.73125 221.161858) scale(0.09 -0.09)">
       <use xlink:href="#SimHei-35"/>
       <use xlink:href="#SimHei-30" transform="translate(50 0)"/>
      </g>
     </g>
    </g>
    <g id="ytick_5">
     <g id="line2d_19">
      <path d="M 42.23125 172.83696 
L 705.72625 172.83696 
" clip-path="url(#p381447d921)" style="fill: none; stroke-dasharray: 1.85,0.8; stroke-dashoffset: 0; stroke: #b2b2b2; stroke-opacity: 0.3; stroke-width: 0.5"/>
     </g>
     <g id="line2d_20">
      <g>
       <use xlink:href="#m3b00dabe00" x="42.23125" y="172.83696" style="stroke: #000000; stroke-width: 0.8"/>
      </g>
     </g>
     <g id="text_11">
      <!-- 100 -->
      <g transform="translate(25.23125 175.93071) scale(0.09 -0.09)">
       <use xlink:href="#SimHei-31"/>
       <use xlink:href="#SimHei-30" transform="translate(50 0)"/>
       <use xlink:href="#SimHei-30" transform="translate(100 0)"/>
      </g>
     </g>
    </g>
    <g id="ytick_6">
     <g id="line2d_21">
      <path d="M 42.23125 127.605812 
L 705.72625 127.605812 
" clip-path="url(#p381447d921)" style="fill: none; stroke-dasharray: 1.85,0.8; stroke-dashoffset: 0; stroke: #b2b2b2; stroke-opacity: 0.3; stroke-width: 0.5"/>
     </g>
     <g id="line2d_22">
      <g>
       <use xlink:href="#m3b00dabe00" x="42.23125" y="127.605812" style="stroke: #000000; stroke-width: 0.8"/>
      </g>
     </g>
     <g id="text_12">
      <!-- 150 -->
      <g transform="translate(25.23125 130.699562) scale(0.09 -0.09)">
       <use xlink:href="#SimHei-31"/>
       <use xlink:href="#SimHei-35" transform="translate(50 0)"/>
       <use xlink:href="#SimHei-30" transform="translate(100 0)"/>
      </g>
     </g>
    </g>
    <g id="ytick_7">
     <g id="line2d_23">
      <path d="M 42.23125 82.374664 
L 705.72625 82.374664 
" clip-path="url(#p381447d921)" style="fill: none; stroke-dasharray: 1.85,0.8; stroke-dashoffset: 0; stroke: #b2b2b2; stroke-opacity: 0.3; stroke-width: 0.5"/>
     </g>
     <g id="line2d_24">
      <g>
       <use xlink:href="#m3b00dabe00" x="42.23125" y="82.374664" style="stroke: #000000; stroke-width: 0.8"/>
      </g>
     </g>
     <g id="text_13">
      <!-- 200 -->
      <g transform="translate(25.23125 85.468414) scale(0.09 -0.09)">
       <use xlink:href="#SimHei-32"/>
       <use xlink:href="#SimHei-30" transform="translate(50 0)"/>
       <use xlink:href="#SimHei-30" transform="translate(100 0)"/>
      </g>
     </g>
    </g>
    <g id="ytick_8">
     <g id="line2d_25">
      <path d="M 42.23125 37.143517 
L 705.72625 37.143517 
" clip-path="url(#p381447d921)" style="fill: none; stroke-dasharray: 1.85,0.8; stroke-dashoffset: 0; stroke: #b2b2b2; stroke-opacity: 0.3; stroke-width: 0.5"/>
     </g>
     <g id="line2d_26">
      <g>
       <use xlink:href="#m3b00dabe00" x="42.23125" y="37.143517" style="stroke: #000000; stroke-width: 0.8"/>
      </g>
     </g>
     <g id="text_14">
      <!-- 250 -->
      <g transform="translate(25.23125 40.237267) scale(0.09 -0.09)">
       <use xlink:href="#SimHei-32"/>
       <use xlink:href="#SimHei-35" transform="translate(50 0)"/>
       <use xlink:href="#SimHei-30" transform="translate(100 0)"/>
      </g>
     </g>
    </g>
    <g id="text_15">
     <!-- 残差值 -->
     <g transform="translate(15.403125 224.88125) rotate(-90) scale(0.1 -0.1)">
      <defs>
       <path id="SimHei-6b8b" d="M 5700 3350 
Q 5325 3300 4900 3225 
Q 4475 3150 4075 3075 
Q 4100 2700 4150 2325 
Q 4625 2425 4987 2500 
Q 5350 2575 5925 2725 
L 6000 2250 
Q 5775 2225 5300 2137 
Q 4825 2050 4200 1900 
Q 4300 1375 4475 1075 
Q 5025 1500 5325 1950 
Q 5525 1750 5800 1550 
Q 5550 1425 5350 1237 
Q 5150 1050 4675 650 
Q 5000 200 5275 37 
Q 5550 -125 5600 -12 
Q 5650 100 5625 525 
Q 5825 325 6175 300 
Q 6125 -850 5450 -587 
Q 4775 -325 4275 400 
Q 3950 150 3537 -75 
Q 3125 -300 2625 -525 
Q 2475 -250 2250 -100 
Q 2775 50 3200 262 
Q 3625 475 4075 775 
Q 3850 1225 3750 1800 
Q 3100 1675 2700 1525 
L 2575 2025 
Q 3300 2125 3700 2225 
Q 3650 2600 3625 3000 
Q 3225 2950 2800 2850 
L 2675 3325 
Q 3150 3375 3600 3450 
Q 3575 3925 3550 4275 
Q 3525 4625 3475 5125 
Q 3775 5075 4050 5075 
Q 4025 4700 4012 4412 
Q 4000 4125 4050 3525 
Q 5200 3725 5625 3850 
L 5700 3350 
z
M 2125 4650 
Q 2450 4650 2800 4675 
L 2800 4175 
Q 2450 4200 2125 4200 
L 1675 4200 
Q 1550 3700 1425 3225 
L 2600 3225 
Q 2525 2500 2400 1925 
Q 2275 1350 2050 925 
Q 1825 500 1512 137 
Q 1200 -225 675 -625 
Q 525 -400 250 -225 
Q 700 25 1037 375 
Q 1375 725 1575 1075 
Q 1275 1450 950 1750 
Q 1125 1900 1250 2100 
Q 1550 1825 1800 1550 
Q 2025 2175 2075 2775 
L 1300 2775 
Q 1125 2375 987 2150 
Q 850 1925 550 1525 
Q 350 1825 200 1925 
Q 575 2300 825 2862 
Q 1075 3425 1200 4200 
Q 775 4200 375 4175 
L 375 4675 
Q 750 4650 1075 4650 
L 2125 4650 
z
M 4825 4975 
Q 5150 4575 5425 4175 
Q 5125 4050 4975 3900 
Q 4750 4325 4400 4700 
Q 4600 4825 4825 4975 
z
" transform="scale(0.015625)"/>
       <path id="SimHei-5dee" d="M 4725 4975 
Q 4500 4725 4250 4275 
L 4850 4275 
Q 5450 4275 5825 4300 
L 5825 3850 
Q 5425 3875 4850 3875 
L 3275 3875 
Q 3225 3600 3150 3275 
L 4525 3275 
Q 5075 3275 5525 3300 
L 5525 2850 
Q 5075 2875 4500 2875 
L 3050 2875 
Q 2975 2650 2850 2325 
L 5125 2325 
Q 5675 2325 6025 2350 
L 6025 1900 
Q 5700 1925 5150 1925 
L 2650 1925 
Q 2425 1550 2250 1300 
Q 2650 1275 3100 1275 
L 4525 1275 
Q 4975 1275 5350 1300 
L 5350 850 
Q 4975 875 4575 875 
L 3925 875 
L 3925 -50 
L 5000 -50 
Q 5200 -50 5900 -25 
L 5900 -500 
Q 5275 -475 5025 -475 
L 2100 -475 
Q 1700 -475 1400 -500 
L 1400 -25 
Q 1775 -50 2125 -50 
L 3425 -50 
L 3425 875 
L 3100 875 
Q 2625 875 2175 850 
L 2175 1200 
Q 1925 875 1487 475 
Q 1050 75 625 -250 
Q 425 -25 200 150 
Q 750 475 1262 925 
Q 1775 1375 2100 1925 
L 1325 1925 
Q 750 1925 375 1900 
L 375 2350 
Q 750 2325 1350 2325 
L 2325 2325 
Q 2450 2575 2550 2875 
L 1725 2875 
Q 1375 2875 1000 2850 
L 1000 3300 
Q 1500 3275 1700 3275 
L 2650 3275 
Q 2725 3575 2775 3875 
L 1500 3875 
Q 1100 3875 650 3850 
L 650 4300 
Q 1025 4275 1425 4275 
L 2275 4275 
Q 2075 4675 1850 4950 
Q 2025 5050 2250 5225 
Q 2450 4975 2725 4550 
Q 2525 4450 2325 4275 
L 3750 4275 
Q 4000 4700 4150 5250 
Q 4400 5100 4725 4975 
z
" transform="scale(0.015625)"/>
       <path id="SimHei-503c" d="M 3675 4450 
L 3675 5100 
Q 3975 5075 4350 5050 
Q 4225 4875 4200 4450 
L 5125 4450 
Q 5550 4450 5875 4475 
L 5875 4025 
Q 5525 4050 5125 4050 
L 4175 4050 
L 4125 3500 
L 5400 3500 
Q 5375 3200 5375 2700 
L 5375 150 
Q 5875 150 6100 175 
L 6100 -275 
Q 5775 -250 5200 -250 
L 2850 -250 
Q 2275 -250 1900 -275 
L 1900 175 
Q 2125 150 2600 150 
L 2600 2700 
Q 2600 3175 2575 3500 
L 3600 3500 
L 3650 4050 
L 3200 4050 
Q 2575 4050 2225 4025 
L 2225 4475 
Q 2550 4450 3200 4450 
L 3675 4450 
z
M 2225 4900 
Q 2025 4675 1650 3750 
L 1650 450 
Q 1650 -75 1675 -550 
L 1150 -550 
Q 1175 -125 1175 375 
L 1175 2950 
Q 875 2450 625 2150 
Q 425 2425 250 2575 
Q 500 2825 937 3537 
Q 1375 4250 1625 5150 
Q 1975 4975 2225 4900 
z
M 4925 2650 
L 4925 3150 
L 3075 3150 
L 3075 2650 
L 4925 2650 
z
M 4925 150 
L 4925 625 
L 3075 625 
L 3075 150 
L 4925 150 
z
M 4925 1000 
L 4925 1450 
L 3075 1450 
L 3075 1000 
L 4925 1000 
z
M 4925 1825 
L 4925 2275 
L 3075 2275 
L 3075 1825 
L 4925 1825 
z
" transform="scale(0.015625)"/>
      </defs>
      <use xlink:href="#SimHei-6b8b"/>
      <use xlink:href="#SimHei-5dee" transform="translate(100 0)"/>
      <use xlink:href="#SimHei-503c" transform="translate(200 0)"/>
     </g>
    </g>
   </g>
   <g id="line2d_27">
    <path d="M 72.390114 114.12693 
L 72.665411 255.210823 
L 72.940709 260.7667 
L 73.216007 247.508463 
L 73.491304 271.975467 
L 74.0419 260.602412 
L 74.317198 262.622315 
L 74.592495 271.896803 
L 74.867793 243.541508 
L 75.143091 175.752887 
L 75.418388 345.55099 
L 75.693686 343.366362 
L 75.968984 271.138917 
L 76.244282 267.585738 
L 76.519579 282.843652 
L 76.794877 278.005742 
L 77.070175 252.41847 
L 77.345472 272.337898 
L 77.62077 265.960378 
L 77.896068 256.801978 
L 78.171365 292.254175 
L 78.446663 349.477388 
L 78.721961 234.473068 
L 78.997259 226.107008 
L 79.272556 262.879405 
L 79.547854 258.724993 
L 79.823152 263.419499 
L 80.098449 166.468406 
L 80.373747 300.132342 
L 80.649045 263.311319 
L 80.924343 277.916059 
L 81.19964 264.200749 
L 81.474938 272.723432 
L 81.750236 332.279888 
L 82.025533 254.144134 
L 82.300831 266.79525 
L 82.576129 246.048893 
L 82.851426 234.25693 
L 83.126724 267.222157 
L 83.402022 257.466452 
L 83.67732 214.51144 
L 83.952617 231.536541 
L 84.227915 296.771742 
L 84.503213 263.988593 
L 84.77851 272.592903 
L 85.053808 299.783332 
L 85.329106 259.64788 
L 85.879701 271.45863 
L 86.154999 290.951387 
L 86.430297 275.884595 
L 86.705594 291.251143 
L 86.980892 272.080869 
L 87.25619 267.583005 
L 87.531487 230.34798 
L 87.806785 251.630518 
L 88.357381 264.822037 
L 88.632678 237.468219 
L 88.907976 297.416833 
L 89.183274 280.04913 
L 89.458571 277.666142 
L 89.733869 254.937672 
L 90.009167 298.682684 
L 90.284464 264.071132 
L 90.559762 271.38403 
L 90.83506 253.041752 
L 91.110358 260.661114 
L 91.385655 249.322718 
L 91.660953 252.041622 
L 91.936251 241.084494 
L 92.211548 191.057591 
L 92.486846 244.538665 
L 92.762144 231.181478 
L 93.312739 260.473829 
L 93.588037 313.688343 
L 94.138632 244.964168 
L 94.41393 256.345672 
L 94.964525 336.983687 
L 95.239823 322.130686 
L 95.515121 288.489297 
L 95.790419 343.343061 
L 96.341014 242.251318 
L 96.616312 248.081742 
L 96.891609 229.819674 
L 97.166907 265.73349 
L 97.442205 260.889674 
L 97.717503 259.140233 
L 97.9928 255.716454 
L 98.268098 239.74779 
L 98.543396 258.342373 
L 98.818693 262.557088 
L 99.093991 232.788251 
L 99.369289 166.645556 
L 99.644586 328.824301 
L 99.919884 332.761223 
L 100.47048 224.110692 
L 100.745777 261.278302 
L 101.021075 262.016338 
L 101.296373 245.427099 
L 101.57167 221.491662 
L 102.122266 277.097607 
L 102.397564 241.119056 
L 102.672861 295.969691 
L 102.948159 242.421709 
L 103.223457 254.732917 
L 103.498754 260.881366 
L 103.774052 280.430173 
L 104.04935 200.121626 
L 104.324647 298.082295 
L 104.599945 268.159333 
L 104.875243 264.289395 
L 105.150541 258.186136 
L 105.425838 262.076831 
L 105.701136 245.543334 
L 105.976434 308.727893 
L 106.251731 263.569968 
L 106.527029 242.151525 
L 106.802327 279.01848 
L 107.077625 264.328666 
L 107.352922 278.215916 
L 107.903518 257.818721 
L 108.178815 267.962064 
L 108.454113 237.648719 
L 108.729411 273.973586 
L 109.004708 291.471227 
L 109.280006 292.745867 
L 109.555304 311.537904 
L 109.830602 243.437429 
L 110.105899 267.359461 
L 110.381197 304.150395 
L 110.656495 302.753354 
L 111.20709 248.850575 
L 111.482388 242.511554 
L 111.757686 232.749898 
L 112.032983 261.253396 
L 112.308281 259.272295 
L 112.583579 261.729078 
L 112.858876 220.682879 
L 113.134174 244.766334 
L 113.409472 223.666869 
L 113.960067 304.400471 
L 114.510663 187.751173 
L 114.78596 315.005656 
L 115.061258 275.053098 
L 115.336556 266.123932 
L 115.611853 247.047372 
L 115.887151 258.784125 
L 116.162449 254.853539 
L 116.437747 234.323788 
L 116.713044 254.747964 
L 116.988342 266.582299 
L 117.26364 266.804011 
L 117.538937 269.320879 
L 117.814235 339.628244 
L 118.089533 291.589574 
L 118.36483 287.528781 
L 118.640128 206.650931 
L 118.915426 236.125928 
L 119.466021 228.367533 
L 119.741319 298.865831 
L 120.016617 262.66696 
L 120.291914 275.034492 
L 120.567212 247.381923 
L 121.117808 307.393064 
L 121.393105 213.041041 
L 121.668403 265.604763 
L 121.943701 267.733348 
L 122.218998 287.494477 
L 122.494296 282.660775 
L 122.769594 263.69631 
L 123.044891 269.820902 
L 123.320189 245.049445 
L 123.595487 258.938739 
L 123.870785 262.468714 
L 124.146082 148.284653 
L 124.42138 275.758995 
L 124.696678 274.138831 
L 124.971975 283.10371 
L 125.247273 278.0227 
L 125.522571 280.578954 
L 125.797869 321.315701 
L 126.073166 274.961688 
L 126.348464 325.150081 
L 127.174357 204.159194 
L 127.449655 341.351066 
L 127.724952 180.422943 
L 128.00025 255.713075 
L 128.275548 297.726609 
L 128.550846 273.615468 
L 128.826143 138.50557 
L 129.101441 306.603232 
L 129.376739 272.775739 
L 129.652036 212.115363 
L 129.927334 270.186828 
L 130.202632 282.943812 
L 130.477929 264.616333 
L 130.753227 268.928492 
L 131.028525 280.214134 
L 131.303823 282.994376 
L 131.57912 257.05591 
L 131.854418 264.921087 
L 132.129716 280.726685 
L 132.405013 187.0859 
L 132.680311 269.011047 
L 132.955609 241.645536 
L 133.230907 286.38334 
L 133.506204 269.602298 
L 133.781502 236.629963 
L 134.0568 291.879322 
L 134.332097 251.374842 
L 134.607395 279.426114 
L 134.882693 247.614381 
L 135.15799 260.597101 
L 135.433288 308.832375 
L 135.708586 210.853371 
L 135.983884 288.504959 
L 136.259181 268.351702 
L 136.534479 221.005412 
L 136.809777 260.032502 
L 137.085074 346.366318 
L 137.360372 251.209982 
L 137.63567 285.268431 
L 137.910968 241.620478 
L 138.186265 227.005667 
L 138.461563 302.193137 
L 138.736861 269.693078 
L 139.012158 329.403553 
L 139.287456 286.237586 
L 139.562754 279.712837 
L 139.838051 294.093501 
L 140.113349 264.666646 
L 140.388647 269.629995 
L 140.663945 235.630328 
L 140.939242 286.605816 
L 141.21454 208.247452 
L 141.489838 275.501273 
L 141.765135 233.703451 
L 142.040433 288.387978 
L 142.315731 245.048571 
L 142.591029 290.04773 
L 142.866326 277.804094 
L 143.141624 270.813441 
L 143.416922 268.583115 
L 143.692219 273.749099 
L 143.967517 215.457493 
L 144.242815 259.060626 
L 144.79341 255.103429 
L 145.068708 287.824434 
L 145.344006 235.011216 
L 145.619303 281.09071 
L 145.894601 216.789474 
L 146.169899 259.219652 
L 146.445196 139.945274 
L 146.720494 311.079479 
L 146.995792 285.04724 
L 147.27109 290.869043 
L 147.546387 290.133802 
L 148.096983 271.43194 
L 148.37228 248.90608 
L 148.647578 260.537502 
L 148.922876 251.168202 
L 149.198173 259.724004 
L 149.473471 257.370917 
L 149.748769 311.502654 
L 150.024067 215.442219 
L 150.574662 336.269836 
L 150.84996 215.140976 
L 151.125257 246.350783 
L 151.400555 262.090446 
L 151.675853 268.564217 
L 152.226448 187.985186 
L 152.501746 294.373634 
L 152.777044 290.935486 
L 153.052341 298.860767 
L 153.327639 199.518367 
L 153.602937 267.652071 
L 153.878234 288.774258 
L 154.153532 119.608055 
L 154.42883 342.256559 
L 154.704128 292.366959 
L 154.979425 277.617472 
L 155.254723 321.494827 
L 155.530021 261.284645 
L 156.080616 277.795514 
L 156.355914 314.989679 
L 156.906509 242.677781 
L 157.181807 250.800144 
L 157.457105 309.561032 
L 157.732402 244.26343 
L 158.0077 240.030003 
L 158.558295 284.557818 
L 158.833593 295.697761 
L 159.108891 232.237819 
L 159.384189 235.714575 
L 159.659486 241.578392 
L 159.934784 267.23755 
L 160.210082 262.40873 
L 160.485379 236.888583 
L 160.760677 315.391133 
L 161.035975 244.444066 
L 161.311273 260.23807 
L 161.58657 254.274901 
L 161.861868 262.648513 
L 162.137166 282.901468 
L 162.687761 198.012607 
L 162.963059 294.0713 
L 163.513654 253.457451 
L 163.788952 166.49375 
L 164.06425 353.381229 
L 164.339547 255.280187 
L 164.614845 269.144429 
L 164.890143 268.941991 
L 165.16544 260.320421 
L 165.440738 256.17347 
L 165.716036 263.393037 
L 165.991334 303.119188 
L 166.266631 254.043228 
L 166.541929 274.931713 
L 166.817227 259.961672 
L 167.092524 292.314662 
L 167.367822 205.343894 
L 167.64312 256.372095 
L 167.918417 265.619502 
L 168.193715 268.049844 
L 168.469013 239.719331 
L 168.744311 250.414213 
L 169.019608 285.338125 
L 169.294906 290.159331 
L 169.570204 248.642057 
L 169.845501 292.316412 
L 170.120799 247.755738 
L 170.396097 289.911535 
L 170.671394 225.312162 
L 170.946692 78.34442 
L 171.22199 315.999479 
L 171.497288 271.036175 
L 171.772585 270.757625 
L 172.047883 273.033487 
L 172.323181 253.201684 
L 172.598478 295.443499 
L 172.873776 254.918058 
L 173.149074 171.604058 
L 173.424372 267.098829 
L 173.699669 266.151272 
L 174.250265 307.347326 
L 174.525562 248.103291 
L 175.076158 275.332788 
L 175.626753 235.053793 
L 175.902051 230.570929 
L 176.177349 245.8782 
L 176.452646 246.69639 
L 176.727944 232.50249 
L 177.278539 284.590072 
L 177.553837 328.387897 
L 178.104433 178.28447 
L 178.37973 329.925184 
L 178.655028 297.836886 
L 179.205623 261.557219 
L 179.480921 308.230587 
L 179.756219 330.193305 
L 180.031516 301.681081 
L 180.306814 287.386187 
L 180.582112 285.270228 
L 180.85741 336.914721 
L 181.132707 249.503866 
L 181.408005 278.122514 
L 181.683303 241.128751 
L 182.233898 233.12352 
L 182.509196 229.589944 
L 182.784494 243.80105 
L 183.059791 282.842909 
L 183.335089 258.798798 
L 183.610387 271.008998 
L 183.885684 257.006125 
L 184.160982 253.296345 
L 184.43628 260.471663 
L 184.711577 284.56462 
L 184.986875 232.201811 
L 185.262173 265.325756 
L 185.537471 267.727625 
L 185.812768 268.021921 
L 186.088066 257.864157 
L 186.363364 264.025003 
L 186.638661 266.456854 
L 186.913959 249.320937 
L 187.189257 259.583565 
L 187.464555 258.264272 
L 187.739852 242.646617 
L 188.01515 310.192155 
L 188.290448 171.106699 
L 188.565745 190.938069 
L 188.841043 323.189113 
L 189.116341 263.854936 
L 189.391638 329.745714 
L 189.942234 326.827328 
L 190.217532 309.726608 
L 190.492829 270.105769 
L 190.768127 276.434098 
L 191.043425 259.646488 
L 191.318722 269.164138 
L 191.59402 289.668596 
L 191.869318 296.708908 
L 192.144616 258.448535 
L 192.419913 254.260267 
L 192.695211 259.877985 
L 192.970509 240.051874 
L 193.245806 237.95581 
L 193.521104 253.762719 
L 193.796402 263.067557 
L 194.071699 268.207534 
L 194.346997 277.483376 
L 194.622295 254.871928 
L 194.897593 308.942282 
L 195.17289 298.748523 
L 195.448188 257.745814 
L 195.723486 45.730719 
L 195.998783 351.707997 
L 196.274081 272.487298 
L 196.549379 271.26701 
L 196.824677 278.595452 
L 197.099974 267.062855 
L 197.375272 280.970382 
L 197.925867 249.875978 
L 198.201165 268.333228 
L 198.476463 276.546988 
L 198.75176 238.714649 
L 199.027058 337.602809 
L 199.302356 187.313817 
L 199.577654 220.488219 
L 199.852951 233.026555 
L 200.128249 237.355097 
L 200.403547 255.320371 
L 200.678844 253.253146 
L 200.954142 266.948674 
L 201.22944 239.375945 
L 201.504738 256.798808 
L 201.780035 265.846223 
L 202.055333 255.803468 
L 202.330631 343.246976 
L 202.605928 214.186304 
L 202.881226 248.825804 
L 203.156524 43.665341 
L 203.431821 338.205785 
L 203.707119 281.666164 
L 203.982417 256.866692 
L 204.257715 285.51543 
L 204.533012 262.252 
L 204.80831 281.033459 
L 205.083608 246.797203 
L 205.358905 268.402788 
L 205.634203 356.025626 
L 205.909501 248.748076 
L 206.184799 267.658059 
L 206.460096 318.393333 
L 206.735394 222.171079 
L 207.010692 251.596389 
L 207.285989 252.092393 
L 207.561287 256.853849 
L 207.836585 268.396012 
L 208.111882 268.834487 
L 208.38718 277.474198 
L 208.662478 261.230793 
L 208.937776 259.224929 
L 209.213073 259.536864 
L 209.488371 251.645578 
L 209.763669 312.977636 
L 210.038966 245.075901 
L 210.314264 266.719027 
L 210.589562 264.43362 
L 210.864859 250.676199 
L 211.140157 273.280544 
L 211.415455 254.532714 
L 211.690753 265.635085 
L 212.241348 250.30973 
L 212.516646 225.91319 
L 213.067241 350.250983 
L 213.342539 223.07312 
L 213.893134 275.411065 
L 214.168432 256.648867 
L 214.44373 262.943822 
L 214.719027 243.93953 
L 214.994325 270.575946 
L 215.269623 262.918857 
L 215.54492 265.463673 
L 215.820218 263.412997 
L 216.095516 248.461411 
L 216.370814 258.218478 
L 216.646111 263.349124 
L 216.921409 258.666884 
L 217.196707 258.457621 
L 217.747302 268.766509 
L 218.0226 266.511831 
L 218.297898 248.963535 
L 218.573195 244.14641 
L 218.848493 283.867687 
L 219.123791 282.815479 
L 219.399088 263.091646 
L 219.674386 77.657653 
L 219.949684 370.057165 
L 220.224981 301.678341 
L 220.500279 285.16531 
L 220.775577 279.451958 
L 221.050875 261.592291 
L 221.326172 278.938999 
L 221.60147 269.054211 
L 221.876768 269.339959 
L 222.152065 243.755743 
L 222.427363 269.732529 
L 222.702661 265.500155 
L 222.977959 329.274075 
L 223.253256 234.369043 
L 223.528554 250.83464 
L 224.079149 266.079676 
L 224.354447 268.665497 
L 224.629745 259.71748 
L 225.18034 282.631963 
L 225.730936 261.878256 
L 226.006233 270.248609 
L 226.281531 333.105517 
L 226.556829 184.309171 
L 226.832126 245.353633 
L 227.107424 249.932036 
L 227.382722 257.37687 
L 227.933317 237.62036 
L 228.208615 74.665772 
L 228.483913 358.711092 
L 228.75921 253.2462 
L 229.034508 276.420402 
L 229.309806 280.679277 
L 229.585103 338.701841 
L 229.860401 263.223378 
L 230.135699 270.139985 
L 230.410997 203.878601 
L 230.686294 289.664261 
L 230.961592 276.693862 
L 231.23689 282.674536 
L 231.512187 340.348111 
L 231.787485 239.385471 
L 232.062783 284.174002 
L 232.613378 255.609951 
L 232.888676 271.508396 
L 233.163974 216.671842 
L 233.439271 229.986034 
L 233.714569 259.23681 
L 233.989867 231.759988 
L 234.265164 277.401001 
L 234.540462 255.411545 
L 234.81576 320.430859 
L 235.091058 227.601449 
L 235.366355 263.121519 
L 235.641653 256.218757 
L 235.916951 245.014499 
L 236.467546 300.629548 
L 236.742844 267.660257 
L 237.018142 273.624906 
L 237.293439 251.363719 
L 237.568737 255.556773 
L 237.844035 256.806307 
L 238.119332 336.121854 
L 238.39463 223.582622 
L 238.669928 257.209586 
L 238.945225 211.975566 
L 239.220523 277.475561 
L 239.495821 260.316785 
L 239.771119 285.57809 
L 240.046416 289.354147 
L 240.321714 301.078398 
L 240.597012 257.274965 
L 241.147607 263.942033 
L 241.422905 244.241303 
L 241.698203 246.854463 
L 241.9735 247.710976 
L 242.248798 254.091559 
L 242.524096 255.56415 
L 242.799393 250.060418 
L 243.074691 279.151118 
L 243.625286 229.196038 
L 243.900584 288.924669 
L 244.175882 252.543287 
L 244.45118 93.585421 
L 244.726477 353.690254 
L 245.001775 302.380145 
L 245.277073 293.583983 
L 245.55237 295.431548 
L 245.827668 261.136573 
L 246.102966 269.12597 
L 246.378264 262.491636 
L 246.653561 263.269291 
L 246.928859 272.723477 
L 247.204157 257.188016 
L 247.479454 218.198455 
L 247.754752 331.368572 
L 248.03005 217.52688 
L 248.305347 277.629285 
L 248.580645 264.267351 
L 248.855943 269.949992 
L 249.406538 240.883641 
L 249.681836 237.916156 
L 249.957134 245.51967 
L 250.232431 312.515627 
L 250.507729 257.141528 
L 250.783027 279.493955 
L 251.058324 324.483037 
L 251.333622 275.214776 
L 251.60892 272.683856 
L 251.884218 289.935845 
L 252.159515 219.051177 
L 252.434813 259.950865 
L 252.710111 244.730183 
L 252.985408 266.353563 
L 253.260706 249.233091 
L 253.536004 279.67484 
L 253.811302 277.637796 
L 254.086599 287.819358 
L 254.361897 320.449253 
L 254.637195 218.191396 
L 254.912492 230.787484 
L 255.18779 232.046241 
L 255.463088 271.233771 
L 255.738385 208.031901 
L 256.013683 280.97383 
L 256.288981 267.031565 
L 256.564279 260.649439 
L 256.839576 272.41665 
L 257.114874 266.084668 
L 257.390172 284.287914 
L 257.665469 243.621821 
L 257.940767 243.279572 
L 258.216065 243.548156 
L 258.491363 240.396967 
L 258.76666 274.017335 
L 259.041958 274.526164 
L 259.317256 261.099063 
L 259.867851 271.398874 
L 260.143149 240.799058 
L 260.418446 253.300548 
L 260.693744 258.844467 
L 260.969042 258.020841 
L 261.24434 260.092044 
L 261.519637 264.03034 
L 261.794935 254.143237 
L 262.070233 286.964625 
L 262.620828 270.433242 
L 262.896126 248.89328 
L 263.171424 279.612244 
L 263.446721 244.258041 
L 263.722019 263.788057 
L 263.997317 218.360771 
L 264.272614 299.093757 
L 264.547912 276.94883 
L 264.82321 276.777653 
L 265.098507 280.532141 
L 265.373805 273.481589 
L 265.649103 293.50971 
L 265.924401 249.215871 
L 266.199698 261.778068 
L 266.474996 313.08452 
L 266.750294 278.905255 
L 267.025591 278.81482 
L 267.300889 288.20807 
L 267.576187 271.819494 
L 267.851485 270.150409 
L 268.126782 265.368358 
L 268.40208 270.084185 
L 268.677378 264.907632 
L 269.227973 262.753375 
L 269.503271 268.90032 
L 269.778568 246.35923 
L 270.053866 250.134039 
L 270.329164 251.108988 
L 270.604462 267.006777 
L 270.879759 253.585438 
L 271.155057 253.31338 
L 271.430355 262.571159 
L 271.98095 255.65886 
L 272.256248 264.184377 
L 272.531546 210.721548 
L 272.806843 291.517033 
L 273.082141 258.087756 
L 273.357439 265.020709 
L 273.632736 257.995385 
L 273.908034 274.796675 
L 274.183332 258.516103 
L 274.458629 251.826586 
L 274.733927 281.741974 
L 275.009225 278.012607 
L 275.284523 243.062455 
L 275.55982 262.952563 
L 275.835118 270.182088 
L 276.110416 238.391537 
L 276.385713 235.287534 
L 276.936309 265.258524 
L 277.211607 266.725176 
L 277.486904 272.811317 
L 277.762202 292.603221 
L 278.0375 237.888188 
L 278.312797 269.080045 
L 278.588095 267.855442 
L 278.863393 261.77101 
L 279.13869 286.634618 
L 279.413988 258.197758 
L 279.964584 265.630681 
L 280.239881 260.599444 
L 280.515179 266.353179 
L 280.790477 193.681961 
L 281.065774 298.597726 
L 281.61637 262.572874 
L 281.891668 275.03755 
L 282.166965 261.342743 
L 282.442263 291.156414 
L 282.717561 254.221091 
L 282.992858 49.503219 
L 283.268156 352.217471 
L 283.543454 288.724773 
L 283.818751 278.87677 
L 284.094049 316.749856 
L 284.369347 246.124701 
L 284.644645 269.925275 
L 284.919942 249.972034 
L 285.19524 279.979061 
L 285.470538 266.824022 
L 286.021133 255.595356 
L 286.296431 318.471056 
L 286.571729 225.290436 
L 286.847026 242.27579 
L 287.122324 247.98508 
L 287.397622 261.21441 
L 287.672919 238.265893 
L 287.948217 252.87481 
L 288.223515 247.801635 
L 288.498812 203.452516 
L 288.77411 312.001698 
L 289.049408 276.851467 
L 289.324706 266.008691 
L 289.600003 340.838068 
L 289.875301 237.427495 
L 290.150599 256.282919 
L 290.425896 250.694002 
L 290.701194 265.916097 
L 290.976492 261.16766 
L 291.25179 260.156209 
L 291.527087 264.660985 
L 291.802385 279.754539 
L 292.077683 215.458924 
L 292.35298 276.414757 
L 292.628278 264.39063 
L 292.903576 331.511645 
L 293.178873 228.43527 
L 293.729469 256.219878 
L 294.004767 256.888187 
L 294.280064 254.414035 
L 294.555362 250.60979 
L 295.105957 289.403895 
L 295.381255 256.266256 
L 295.656553 261.66893 
L 295.93185 277.157716 
L 296.207148 222.297681 
L 296.482446 285.747992 
L 296.757744 272.893336 
L 297.033041 274.691787 
L 297.308339 272.594474 
L 297.858934 253.387185 
L 298.40953 296.887366 
L 298.960125 237.541692 
L 299.235423 278.508598 
L 299.510721 282.372877 
L 299.786018 257.709015 
L 300.061316 276.520636 
L 300.336614 271.534142 
L 300.611911 271.950256 
L 300.887209 249.929846 
L 301.162507 260.451676 
L 301.437805 253.022089 
L 301.713102 256.293046 
L 301.9884 265.494068 
L 302.263698 267.054309 
L 302.538995 257.264918 
L 302.814293 289.54629 
L 303.089591 254.043677 
L 303.364889 258.141289 
L 303.640186 254.66698 
L 303.915484 259.325489 
L 304.190782 266.950608 
L 304.466079 235.556251 
L 304.741377 253.223174 
L 305.016675 202.406151 
L 305.291972 286.015867 
L 305.56727 281.700695 
L 305.842568 271.573772 
L 306.117866 297.826869 
L 306.393163 273.160292 
L 307.219056 240.920175 
L 307.494354 244.054017 
L 307.769652 302.92698 
L 308.04495 264.307167 
L 308.320247 281.661968 
L 308.595545 251.940814 
L 308.870843 254.434391 
L 309.14614 253.513171 
L 309.421438 248.130414 
L 309.696736 247.420165 
L 310.247331 283.96669 
L 310.522629 264.707152 
L 310.797927 282.495033 
L 311.348522 264.367202 
L 311.62382 290.354584 
L 311.899117 242.482243 
L 312.174415 261.093155 
L 312.449713 260.847146 
L 312.725011 284.850832 
L 313.275606 202.56216 
L 313.550904 287.55996 
L 313.826201 275.79617 
L 314.101499 276.332842 
L 314.652094 247.782535 
L 314.927392 272.502554 
L 315.20269 235.80292 
L 315.753285 294.726951 
L 316.028583 269.697271 
L 316.303881 260.295154 
L 316.579178 279.179265 
L 316.854476 255.138355 
L 317.129774 251.280408 
L 317.405072 306.91068 
L 317.680369 266.909259 
L 317.955667 270.197089 
L 318.230965 267.597946 
L 318.506262 281.308337 
L 318.78156 183.655813 
L 319.056858 278.735784 
L 319.332155 258.531112 
L 319.607453 287.321912 
L 319.882751 289.569607 
L 320.158049 241.677677 
L 320.433346 249.628688 
L 320.708644 229.827116 
L 320.983942 283.350852 
L 321.259239 265.915248 
L 321.534537 273.277771 
L 321.809835 206.5371 
L 322.085133 334.766648 
L 322.36043 261.893189 
L 322.635728 240.874156 
L 322.911026 294.709856 
L 323.186323 293.269428 
L 323.461621 284.198649 
L 323.736919 262.024782 
L 324.012216 221.540241 
L 324.287514 248.34332 
L 324.562812 263.784429 
L 324.83811 260.142646 
L 325.113407 308.593085 
L 325.664003 233.846804 
L 325.9393 260.094872 
L 326.214598 258.149309 
L 326.489896 248.246805 
L 326.765194 246.28456 
L 327.040491 258.346985 
L 327.315789 241.297473 
L 327.591087 268.904156 
L 327.866384 273.930286 
L 328.141682 257.453332 
L 328.41698 254.526815 
L 328.692277 266.647329 
L 328.967575 255.386315 
L 329.242873 281.461885 
L 329.518171 253.934507 
L 329.793468 252.670232 
L 330.068766 269.433225 
L 330.344064 270.314017 
L 330.619361 276.791529 
L 330.894659 190.516824 
L 331.169957 274.445943 
L 331.445255 235.818074 
L 331.720552 313.102374 
L 331.99585 281.724269 
L 332.271148 264.022523 
L 332.546445 275.573793 
L 332.821743 259.194971 
L 333.097041 261.826608 
L 333.372338 249.240984 
L 333.922934 264.527154 
L 334.198232 279.266403 
L 334.473529 287.751322 
L 334.748827 282.634336 
L 335.024125 252.282959 
L 335.299422 264.712261 
L 335.57472 267.153083 
L 335.850018 264.882233 
L 336.125315 265.4982 
L 336.400613 275.286677 
L 336.675911 273.419124 
L 336.951209 292.361576 
L 337.226506 288.73482 
L 337.501804 278.998528 
L 337.777102 228.087613 
L 338.052399 215.299667 
L 338.327697 253.121173 
L 338.602995 192.910003 
L 338.878293 296.0392 
L 339.15359 259.767376 
L 339.428888 275.10348 
L 339.704186 273.324519 
L 339.979483 250.482291 
L 340.254781 245.066181 
L 340.530079 233.219188 
L 340.805376 248.018739 
L 341.080674 232.197271 
L 341.63127 308.118593 
L 341.906567 296.435036 
L 342.181865 257.746251 
L 342.457163 247.328955 
L 343.007758 243.187256 
L 343.283056 239.117235 
L 343.558354 239.31468 
L 343.833651 252.604639 
L 344.108949 295.264041 
L 344.384247 243.566591 
L 344.659544 230.882321 
L 344.934842 196.15706 
L 345.21014 314.309103 
L 345.485437 330.61152 
L 346.036033 290.311329 
L 346.311331 271.771666 
L 346.586628 282.909634 
L 346.861926 214.791079 
L 347.137224 294.019989 
L 347.412521 288.090918 
L 347.687819 298.967439 
L 347.963117 301.589609 
L 348.238415 259.477096 
L 348.513712 263.604181 
L 348.78901 216.401045 
L 349.064308 224.454843 
L 349.339605 245.868628 
L 349.614903 232.632172 
L 350.165498 294.779916 
L 350.440796 283.35642 
L 350.716094 276.997723 
L 350.991392 280.988657 
L 351.266689 293.207578 
L 351.541987 273.425472 
L 351.817285 239.160399 
L 352.092582 239.371962 
L 352.36788 247.750057 
L 352.643178 244.590677 
L 352.918476 272.973947 
L 353.193773 264.893337 
L 353.469071 300.861105 
L 353.744369 264.101983 
L 354.019666 245.132367 
L 354.294964 250.400245 
L 354.570262 297.458215 
L 354.845559 287.039197 
L 355.120857 242.736065 
L 355.396155 239.472537 
L 355.671453 189.861159 
L 355.94675 286.271903 
L 356.222048 277.093183 
L 356.497346 260.48174 
L 356.772643 291.737 
L 357.047941 273.223305 
L 357.323239 269.488795 
L 357.598537 270.949364 
L 357.873834 263.688525 
L 358.149132 276.968621 
L 358.42443 259.97871 
L 358.699727 251.290887 
L 358.975025 271.391457 
L 359.250323 258.503323 
L 359.52562 285.885555 
L 359.800918 259.088981 
L 360.076216 263.996473 
L 360.351514 255.249951 
L 360.626811 250.549792 
L 360.902109 265.309799 
L 361.177407 252.562366 
L 361.452704 263.390139 
L 362.0033 255.216297 
L 362.278598 284.02746 
L 362.553895 252.629147 
L 362.829193 264.474724 
L 363.104491 267.881359 
L 363.379788 260.794639 
L 363.655086 258.728412 
L 363.930384 262.805199 
L 364.205681 190.427713 
L 364.480979 277.571647 
L 364.756277 271.860071 
L 365.031575 272.942298 
L 365.306872 253.524177 
L 365.58217 282.40865 
L 365.857468 262.773386 
L 366.132765 231.637992 
L 366.408063 272.343326 
L 366.683361 251.174113 
L 366.958659 260.420827 
L 367.233956 274.383287 
L 367.784552 245.177889 
L 368.059849 270.517456 
L 368.610445 271.306051 
L 368.885742 288.606991 
L 369.16104 255.006703 
L 369.436338 268.407267 
L 369.711636 254.994983 
L 369.986933 254.919281 
L 370.262231 257.324258 
L 370.537529 254.081613 
L 370.812826 296.710101 
L 371.088124 253.85147 
L 371.363422 247.421651 
L 371.914017 271.598984 
L 372.189315 270.504539 
L 372.464613 267.973159 
L 372.73991 206.330759 
L 373.015208 300.582234 
L 373.290506 274.02523 
L 373.565803 270.564149 
L 373.841101 263.146901 
L 374.116399 304.309219 
L 374.391697 275.597229 
L 374.666994 268.08306 
L 374.942292 266.244366 
L 375.21759 269.049897 
L 375.492887 254.3336 
L 375.768185 246.510966 
L 376.043483 257.337629 
L 376.31878 232.948055 
L 376.594078 235.693106 
L 376.869376 259.862791 
L 377.144674 250.560644 
L 377.419971 274.36865 
L 377.695269 281.818237 
L 377.970567 279.935034 
L 378.245864 280.760361 
L 378.79646 265.285093 
L 379.071758 272.149289 
L 379.347055 304.189321 
L 379.622353 258.959229 
L 379.897651 278.008237 
L 380.172948 264.933352 
L 380.448246 265.498618 
L 380.723544 253.748343 
L 380.998841 189.410177 
L 381.274139 273.747849 
L 381.549437 262.279649 
L 381.824735 262.723909 
L 382.100032 267.286105 
L 382.37533 283.447039 
L 382.650628 322.046854 
L 382.925925 260.395358 
L 383.476521 250.06595 
L 383.751819 240.544003 
L 384.027116 247.079996 
L 384.302414 247.595119 
L 384.577712 241.727523 
L 384.853009 247.859262 
L 385.128307 258.499184 
L 385.678902 266.584613 
L 385.9542 260.166398 
L 386.504796 274.250374 
L 386.780093 272.868484 
L 387.330689 264.871208 
L 387.605986 282.594816 
L 387.881284 236.800428 
L 388.156582 251.843033 
L 388.707177 260.138021 
L 388.982475 254.12284 
L 389.257773 194.27666 
L 389.53307 289.3431 
L 389.808368 276.197641 
L 390.083666 281.195837 
L 390.358963 282.286871 
L 390.634261 271.409072 
L 390.909559 296.616684 
L 391.184857 257.693916 
L 391.460154 251.809138 
L 391.735452 252.837909 
L 392.01075 254.88417 
L 392.286047 269.278621 
L 392.561345 267.995659 
L 392.836643 271.761031 
L 393.111941 271.822229 
L 393.387238 257.589216 
L 393.662536 265.194771 
L 393.937834 260.130406 
L 394.213131 263.81464 
L 394.488429 275.597091 
L 394.763727 274.0789 
L 395.039024 264.210593 
L 395.314322 271.492803 
L 395.58962 253.316017 
L 395.864918 281.547813 
L 396.140215 250.357569 
L 396.415513 260.587298 
L 396.690811 193.589249 
L 396.966108 289.783814 
L 397.241406 268.882941 
L 397.516704 263.630934 
L 397.792002 255.985836 
L 398.067299 254.774558 
L 398.342597 284.908863 
L 398.617895 265.497977 
L 398.893192 260.114266 
L 399.16849 289.127542 
L 399.443788 267.226502 
L 399.719085 266.662259 
L 399.994383 276.702107 
L 400.269681 247.784114 
L 400.544979 248.195984 
L 401.095574 276.246517 
L 401.370872 269.448105 
L 401.646169 266.098096 
L 401.921467 266.069867 
L 402.196765 254.491861 
L 402.472063 258.754117 
L 402.74736 233.380033 
L 403.297956 294.020832 
L 403.573253 253.344777 
L 403.848551 270.052447 
L 404.399146 257.688022 
L 404.674444 265.471263 
L 404.949742 246.696723 
L 405.22504 203.862448 
L 405.500337 296.199291 
L 405.775635 279.140457 
L 406.050933 272.413108 
L 406.32623 269.449371 
L 406.601528 288.088804 
L 406.876826 254.155272 
L 407.152124 242.903371 
L 407.427421 277.606012 
L 407.702719 265.40705 
L 407.978017 272.90431 
L 408.253314 258.153755 
L 408.528612 283.187916 
L 408.80391 244.818595 
L 409.079207 259.095037 
L 409.354505 262.066395 
L 409.629803 255.595161 
L 409.905101 252.567818 
L 410.180398 259.709066 
L 410.455696 259.843467 
L 410.730994 234.412942 
L 411.006291 270.068773 
L 411.281589 253.00151 
L 411.832185 279.078999 
L 412.107482 263.45977 
L 412.38278 257.529938 
L 412.658078 222.015975 
L 412.933375 94.472461 
L 413.208673 367.678218 
L 413.483971 261.684372 
L 413.759268 347.759561 
L 414.034566 279.540555 
L 414.309864 263.169604 
L 414.585162 272.209243 
L 414.860459 276.185826 
L 415.135757 288.09222 
L 415.411055 223.425406 
L 415.96165 269.601676 
L 416.236948 329.57048 
L 416.512245 241.443682 
L 416.787543 273.197188 
L 417.062841 235.074165 
L 417.338139 271.758641 
L 418.164032 241.521793 
L 418.439329 275.432631 
L 418.714627 269.662794 
L 418.989925 267.735887 
L 419.54052 318.733446 
L 419.815818 252.901061 
L 420.091116 277.183123 
L 420.366413 229.38566 
L 420.641711 265.050216 
L 420.917009 267.117692 
L 421.192306 271.734915 
L 421.467604 268.376989 
L 422.0182 240.757698 
L 422.293497 306.763542 
L 422.568795 282.041304 
L 422.844093 302.506972 
L 423.11939 249.970499 
L 423.394688 271.989641 
L 423.669986 245.820818 
L 423.945284 246.156444 
L 424.220581 258.20092 
L 424.495879 256.353728 
L 424.771177 261.569853 
L 425.046474 255.979876 
L 425.321772 282.020086 
L 425.872367 229.076518 
L 426.147665 238.675182 
L 426.422963 230.864106 
L 426.698261 232.036536 
L 426.973558 258.041538 
L 427.248856 269.608005 
L 427.524154 270.466953 
L 427.799451 268.076124 
L 428.074749 268.142275 
L 428.350047 236.69597 
L 428.625345 274.542711 
L 428.900642 242.500715 
L 429.451238 280.573081 
L 429.726535 222.176704 
L 430.001833 302.25321 
L 430.552428 270.008939 
L 430.827726 278.817744 
L 431.103024 255.888648 
L 431.378322 273.382207 
L 431.928917 281.081662 
L 432.204215 250.09182 
L 432.75481 279.189302 
L 433.030108 248.360356 
L 433.580703 262.108691 
L 433.856001 244.037186 
L 434.131299 251.54643 
L 434.406596 290.336411 
L 434.681894 256.329555 
L 434.957192 248.177596 
L 435.507787 280.622766 
L 435.783085 264.151268 
L 436.058383 257.383288 
L 436.33368 280.98203 
L 436.608978 266.523013 
L 436.884276 270.050544 
L 437.159573 276.620416 
L 437.434871 265.949054 
L 437.710169 267.887249 
L 437.985467 267.161794 
L 438.260764 274.925334 
L 438.536062 202.923714 
L 438.81136 266.391094 
L 439.086657 265.158561 
L 439.361955 286.349352 
L 439.637253 289.513051 
L 439.91255 241.365032 
L 440.463146 291.866784 
L 440.738444 250.891118 
L 441.013741 260.03953 
L 441.289039 254.129647 
L 441.839634 284.670542 
L 442.114932 268.398306 
L 442.39023 267.701162 
L 442.665528 248.62944 
L 442.940825 256.564331 
L 443.216123 249.508394 
L 443.491421 258.866776 
L 444.042016 257.286532 
L 444.317314 249.36942 
L 444.592611 271.797062 
L 444.867909 264.499849 
L 445.143207 301.144694 
L 445.418505 263.813948 
L 445.693802 270.668442 
L 445.9691 258.847173 
L 446.244398 252.123177 
L 446.519695 272.949122 
L 446.794993 202.902374 
L 447.070291 284.416051 
L 447.345589 284.141721 
L 447.620886 286.748099 
L 447.896184 259.307352 
L 448.171482 243.56101 
L 448.446779 287.56585 
L 448.997375 234.051646 
L 449.272672 238.345185 
L 449.54797 248.512392 
L 449.823268 244.573831 
L 450.098566 267.06223 
L 450.373863 256.957514 
L 450.649161 280.210472 
L 450.924459 271.507244 
L 451.199756 268.581506 
L 451.475054 267.460261 
L 451.750352 262.516604 
L 452.02565 262.307074 
L 452.300947 281.667635 
L 452.576245 273.092176 
L 452.851543 274.616588 
L 453.12684 271.764219 
L 453.402138 290.488731 
L 453.677436 247.067503 
L 453.952733 246.633946 
L 454.228031 247.817134 
L 454.503329 257.377961 
L 454.778627 239.647773 
L 455.053924 264.755079 
L 455.329222 262.085871 
L 455.60452 269.591847 
L 455.879817 280.888459 
L 456.430413 268.695668 
L 456.70571 286.785893 
L 456.981008 246.996315 
L 457.256306 250.510543 
L 457.531604 250.283884 
L 458.082199 280.274497 
L 458.357497 250.215581 
L 458.908092 272.359431 
L 459.18339 264.460293 
L 459.458688 266.779479 
L 459.733985 270.539762 
L 460.009283 268.254902 
L 460.284581 262.251551 
L 460.559878 214.413596 
L 460.835176 186.971008 
L 461.110474 219.532828 
L 461.385771 269.914452 
L 461.661069 295.968217 
L 462.211665 266.883736 
L 462.486962 276.878583 
L 463.037558 270.197103 
L 463.312855 268.817692 
L 463.588153 233.562605 
L 463.863451 290.056444 
L 464.138749 290.145763 
L 464.689344 270.893575 
L 464.964642 247.580721 
L 465.239939 263.602037 
L 465.515237 253.244724 
L 465.790535 252.020541 
L 466.065832 253.783285 
L 466.34113 263.275139 
L 466.616428 262.284854 
L 466.891726 266.30558 
L 467.167023 273.317494 
L 467.442321 287.933853 
L 467.717619 280.090974 
L 468.268214 253.899354 
L 468.81881 260.035327 
L 469.094107 259.340309 
L 469.369405 247.493766 
L 469.644703 249.955457 
L 469.92 261.045054 
L 470.195298 252.7136 
L 470.745893 299.418066 
L 471.021191 285.941263 
L 471.296489 265.194527 
L 471.571787 253.406872 
L 471.847084 230.019276 
L 472.122382 262.347132 
L 472.39768 264.160432 
L 472.672977 276.361404 
L 472.948275 280.190526 
L 473.223573 264.208974 
L 473.498871 287.990458 
L 473.774168 242.513903 
L 474.049466 240.805446 
L 474.324764 247.499444 
L 474.600061 244.345278 
L 475.150657 271.539044 
L 475.701252 253.47709 
L 475.97655 271.503153 
L 476.251848 252.994134 
L 476.527145 263.666666 
L 476.802443 245.820288 
L 477.077741 268.008896 
L 477.353038 254.163442 
L 477.628336 210.661429 
L 477.903634 285.974257 
L 478.178932 261.515339 
L 478.454229 271.372241 
L 478.729527 265.335136 
L 479.004825 239.797879 
L 479.280122 273.678788 
L 479.55542 243.006808 
L 479.830718 281.127928 
L 480.106015 292.386057 
L 480.381313 289.309849 
L 480.656611 279.636913 
L 480.931909 258.614022 
L 481.207206 251.072852 
L 481.482504 240.03656 
L 481.757802 259.234488 
L 482.033099 224.959728 
L 482.308397 272.87079 
L 482.583695 257.395027 
L 482.858993 267.090673 
L 483.13429 267.067988 
L 483.409588 265.393652 
L 483.684886 267.836961 
L 483.960183 277.210774 
L 484.235481 295.72042 
L 484.510779 271.532176 
L 484.786076 285.555493 
L 485.061374 267.64117 
L 485.336672 269.279839 
L 485.61197 282.720765 
L 485.887267 235.73712 
L 486.162565 262.88232 
L 486.437863 247.990045 
L 486.71316 246.462679 
L 487.263756 262.305611 
L 487.539054 283.499039 
L 487.814351 255.393475 
L 488.089649 265.686771 
L 488.364947 236.082716 
L 488.640244 288.919607 
L 488.915542 263.269104 
L 489.19084 297.221401 
L 489.466137 297.402782 
L 489.741435 267.27182 
L 490.016733 279.910005 
L 490.292031 264.986765 
L 490.567328 263.667021 
L 490.842626 251.923607 
L 491.117924 259.848454 
L 491.393221 255.399341 
L 491.668519 224.683618 
L 491.943817 290.941738 
L 492.494412 258.218849 
L 492.76971 257.333112 
L 493.045008 253.780952 
L 493.320305 257.381304 
L 493.870901 226.109289 
L 494.421496 276.804954 
L 494.696794 296.61187 
L 494.972092 292.472155 
L 495.247389 129.854521 
L 495.522687 317.928202 
L 495.797985 264.405163 
L 496.073282 271.205013 
L 496.34858 257.591053 
L 496.899176 328.861694 
L 497.174473 305.544369 
L 497.449771 293.790024 
L 498.000366 247.887743 
L 498.275664 273.322468 
L 498.550962 259.931798 
L 498.826259 215.273957 
L 499.101557 244.185458 
L 499.376855 224.410274 
L 499.652153 256.59427 
L 499.92745 241.963713 
L 500.202748 216.126123 
L 500.753343 320.529464 
L 501.303939 259.738937 
L 501.854534 315.053167 
L 502.129832 243.177499 
L 502.40513 245.239222 
L 502.680427 241.698938 
L 502.955725 285.20527 
L 503.50632 222.09011 
L 503.781618 279.981189 
L 504.056916 237.455791 
L 504.332214 262.028013 
L 504.607511 217.025906 
L 504.882809 274.665415 
L 505.158107 358.726921 
L 505.433404 282.511263 
L 505.708702 282.09316 
L 505.984 262.756146 
L 506.259297 255.915345 
L 506.534595 242.323784 
L 506.809893 260.795919 
L 507.360488 240.080684 
L 507.635786 255.205587 
L 507.911084 253.294676 
L 508.186381 219.759065 
L 508.736977 261.710497 
L 509.012275 267.94494 
L 509.287572 280.303921 
L 509.56287 244.949369 
L 509.838168 277.516063 
L 510.113465 276.872807 
L 510.388763 237.957294 
L 510.664061 230.860453 
L 511.214656 251.495508 
L 511.489954 306.690118 
L 512.040549 229.17099 
L 512.315847 268.481454 
L 512.591145 268.542959 
L 512.866442 308.227952 
L 513.14174 269.170216 
L 513.417038 168.067223 
L 513.692336 183.201444 
L 513.967633 285.021181 
L 514.242931 285.441852 
L 514.518229 317.447086 
L 514.793526 272.267501 
L 515.068824 255.17753 
L 515.344122 257.458878 
L 515.619419 258.148044 
L 515.894717 275.461745 
L 516.170015 254.165535 
L 516.72061 297.1546 
L 517.271206 251.223335 
L 517.546503 233.090492 
L 517.821801 299.859684 
L 518.097099 285.847732 
L 518.372397 295.639801 
L 518.647694 316.562931 
L 518.922992 262.136983 
L 519.19829 280.773304 
L 519.473587 330.999511 
L 519.748885 314.054415 
L 520.024183 335.070924 
L 520.29948 267.045099 
L 520.574778 228.957468 
L 520.850076 232.23396 
L 521.125374 217.718769 
L 521.400671 179.737286 
L 521.951267 297.809138 
L 522.226564 310.094124 
L 522.501862 291.821523 
L 522.77716 237.858514 
L 523.052458 292.840898 
L 523.327755 286.409893 
L 523.878351 246.619545 
L 524.153648 247.260592 
L 524.428946 247.345388 
L 524.704244 253.626272 
L 524.979541 221.071221 
L 525.254839 249.711244 
L 525.530137 293.344485 
L 526.080732 219.535288 
L 526.35603 208.342155 
L 526.631328 268.633883 
L 526.906625 292.654939 
L 527.181923 270.225777 
L 527.457221 282.918465 
L 527.732519 254.600023 
L 528.007816 265.317456 
L 528.283114 253.535551 
L 528.558412 223.265014 
L 528.833709 222.115158 
L 529.109007 245.098169 
L 529.384305 240.052522 
L 529.659602 206.194304 
L 530.210198 348.184111 
L 530.485496 291.319235 
L 531.036091 266.112221 
L 531.311389 295.481046 
L 531.861984 223.366627 
L 532.137282 333.840697 
L 532.41258 280.240007 
L 532.963175 243.414294 
L 533.238473 244.72885 
L 533.51377 257.558921 
L 533.789068 318.413089 
L 534.064366 319.924049 
L 534.339663 314.387188 
L 534.614961 300.149833 
L 534.890259 278.281336 
L 535.440854 179.366856 
L 535.716152 215.761473 
L 535.99145 289.771967 
L 536.266747 320.183256 
L 536.542045 247.029711 
L 536.817343 216.070578 
L 537.092641 247.464193 
L 537.367938 243.471892 
L 537.643236 241.816229 
L 537.918534 297.314543 
L 538.469129 263.082302 
L 538.744427 282.457002 
L 539.019724 276.397136 
L 539.295022 306.892553 
L 539.57032 283.128938 
L 539.845618 286.62663 
L 540.120915 239.2205 
L 540.396213 239.604264 
L 540.946808 272.285384 
L 541.222106 261.641726 
L 541.497404 296.574033 
L 541.772701 273.282362 
L 542.047999 196.264413 
L 542.323297 230.23665 
L 542.598595 216.112308 
L 543.14919 254.775468 
L 543.424488 291.104457 
L 543.699785 252.561904 
L 543.975083 248.671159 
L 544.250381 240.473568 
L 544.525679 251.029305 
L 544.800976 293.24425 
L 545.076274 291.147229 
L 545.351572 260.745543 
L 545.626869 282.083755 
L 545.902167 250.19164 
L 546.177465 259.811604 
L 546.72806 241.56288 
L 547.003358 244.048433 
L 547.553953 303.24756 
L 547.829251 258.484253 
L 548.104549 262.70106 
L 548.379846 292.286582 
L 548.655144 229.769067 
L 548.930442 263.570271 
L 549.20574 256.911518 
L 549.481037 260.585013 
L 549.756335 224.864162 
L 550.031633 284.078781 
L 550.30693 267.658726 
L 550.582228 271.149727 
L 550.857526 273.093684 
L 551.408121 250.326464 
L 551.683419 283.344775 
L 551.958717 298.866333 
L 552.234014 306.751384 
L 552.509312 283.047667 
L 552.78461 276.429852 
L 553.059907 279.118502 
L 553.335205 248.945221 
L 553.610503 273.519619 
L 553.885801 254.081998 
L 554.161098 254.77773 
L 554.436396 259.1587 
L 554.711694 201.933414 
L 554.986991 259.920786 
L 555.262289 271.421195 
L 555.537587 246.765509 
L 555.812884 255.439614 
L 556.088182 257.532782 
L 556.36348 281.404803 
L 556.638778 277.469349 
L 556.914075 279.573986 
L 557.464671 254.955037 
L 557.739968 250.501181 
L 558.015266 269.001707 
L 558.290564 244.336963 
L 558.565862 269.262832 
L 558.841159 256.676881 
L 559.116457 253.705883 
L 559.667052 276.747592 
L 559.94235 238.702137 
L 560.217648 272.972497 
L 560.768243 247.977171 
L 561.043541 253.929433 
L 561.318839 265.36594 
L 561.594136 268.353626 
L 561.869434 267.160246 
L 562.144732 254.884137 
L 562.420029 264.643218 
L 562.695327 258.528534 
L 562.970625 263.868786 
L 563.245923 289.510944 
L 563.52122 237.905592 
L 563.796518 286.780891 
L 564.347113 232.471537 
L 564.622411 238.4428 
L 564.897709 265.434989 
L 565.173006 277.007922 
L 565.448304 263.660604 
L 565.723602 258.902916 
L 565.9989 269.665927 
L 566.274197 266.181955 
L 566.549495 255.960004 
L 566.824793 262.191043 
L 567.10009 255.76915 
L 567.650686 256.817764 
L 567.925984 270.149028 
L 568.201281 255.179893 
L 568.476579 258.448317 
L 568.751877 243.764134 
L 569.027174 280.762899 
L 569.57777 258.717715 
L 569.853067 267.50084 
L 570.128365 290.760479 
L 570.403663 264.454979 
L 570.678961 286.422062 
L 570.954258 274.099207 
L 571.229556 256.778217 
L 571.504854 193.44107 
L 571.780151 250.012411 
L 572.055449 244.033827 
L 572.330747 259.196016 
L 572.606045 264.505768 
L 572.881342 286.235865 
L 573.15664 270.885192 
L 573.707235 264.611287 
L 573.982533 264.660871 
L 574.257831 278.62722 
L 574.533128 281.558289 
L 574.808426 277.973375 
L 575.083724 264.556966 
L 575.359022 286.341837 
L 575.909617 264.313066 
L 576.184915 268.519173 
L 576.460212 279.575414 
L 576.73551 272.423099 
L 577.010808 259.884958 
L 577.286106 255.301964 
L 577.561403 278.183796 
L 577.836701 257.233012 
L 578.111999 308.838895 
L 578.387296 264.325242 
L 578.662594 261.389893 
L 578.937892 241.923709 
L 579.213189 248.698407 
L 579.488487 207.451931 
L 579.763785 234.616206 
L 580.039083 233.222333 
L 580.31438 331.327876 
L 580.589678 268.317497 
L 580.864976 240.988099 
L 581.140273 272.661101 
L 581.415571 269.27569 
L 581.690869 269.201017 
L 581.966166 272.250014 
L 582.516762 246.400994 
L 582.79206 267.709673 
L 583.067357 252.417429 
L 583.342655 260.204692 
L 583.617953 218.37392 
L 583.89325 259.024406 
L 584.168548 263.607701 
L 584.443846 274.894049 
L 584.719144 248.399932 
L 584.994441 255.157171 
L 585.269739 269.980247 
L 585.545037 267.047846 
L 585.820334 283.511465 
L 586.095632 307.618525 
L 586.37093 259.641151 
L 586.646227 253.615887 
L 586.921525 216.125338 
L 587.196823 229.491374 
L 587.472121 252.302506 
L 587.747418 248.557921 
L 588.022716 262.289054 
L 588.298014 283.075773 
L 588.573311 240.835517 
L 588.848609 296.281846 
L 589.123907 289.959936 
L 589.399205 288.134972 
L 589.674502 274.346888 
L 589.9498 268.110977 
L 590.225098 266.380163 
L 590.500395 267.332002 
L 590.775693 278.965821 
L 591.050991 274.590459 
L 591.326288 262.886087 
L 591.601586 268.493918 
L 591.876884 284.384998 
L 592.152182 226.811007 
L 592.427479 250.0618 
L 592.702777 228.269515 
L 592.978075 279.938495 
L 593.253372 275.404232 
L 593.52867 278.585783 
L 593.803968 271.923352 
L 594.079266 271.878063 
L 594.354563 269.337648 
L 594.629861 246.459956 
L 594.905159 282.183071 
L 595.180456 261.391679 
L 595.455754 275.257962 
L 595.731052 249.215358 
L 596.006349 296.025546 
L 596.281647 207.768765 
L 596.556945 264.118848 
L 596.832243 258.815189 
L 597.10754 271.170825 
L 597.658136 275.471018 
L 597.933433 259.98836 
L 598.208731 264.305345 
L 598.484029 266.040971 
L 598.759327 251.297013 
L 599.034624 251.537879 
L 599.309922 227.505842 
L 599.58522 308.609299 
L 599.860517 273.839785 
L 600.135815 290.994672 
L 600.411113 288.763539 
L 600.68641 243.17279 
L 600.961708 276.499493 
L 601.237006 273.340008 
L 601.512304 245.38216 
L 601.787601 259.71061 
L 602.062899 264.791685 
L 602.338197 276.778439 
L 602.888792 261.650965 
L 603.16409 258.502729 
L 603.439388 249.88521 
L 603.714685 248.805486 
L 603.989983 252.522526 
L 604.265281 248.932802 
L 604.540578 280.227314 
L 604.815876 219.74996 
L 605.091174 283.141895 
L 605.366471 261.148027 
L 605.641769 270.06806 
L 605.917067 257.717564 
L 606.192365 276.47991 
L 606.467662 287.027163 
L 606.74296 272.851089 
L 607.018258 265.706155 
L 607.293555 283.769865 
L 607.568853 260.365317 
L 607.844151 270.85217 
L 608.119449 261.035739 
L 608.394746 239.242462 
L 608.670044 236.941106 
L 608.945342 243.301804 
L 609.220639 257.452185 
L 609.495937 259.049435 
L 609.771235 261.471552 
L 610.046532 267.607327 
L 610.32183 276.583997 
L 610.597128 279.240327 
L 610.872426 258.269376 
L 611.147723 252.85429 
L 611.423021 264.579305 
L 611.698319 215.340224 
L 611.973616 259.683546 
L 612.248914 251.719287 
L 612.524212 252.850077 
L 612.79951 162.873033 
L 613.074807 287.852669 
L 613.350105 243.913893 
L 613.625403 253.063038 
L 613.9007 281.907695 
L 614.175998 270.670631 
L 614.451296 278.343702 
L 614.726593 276.316991 
L 615.001891 290.127087 
L 615.277189 286.712457 
L 615.552487 271.457312 
L 615.827784 223.327305 
L 616.103082 310.338428 
L 616.37838 243.159858 
L 616.653677 260.333326 
L 616.928975 270.037594 
L 617.204273 255.629678 
L 617.479571 257.63506 
L 617.754868 273.339319 
L 618.030166 275.413924 
L 618.305464 278.389884 
L 618.580761 293.397786 
L 618.856059 267.500444 
L 619.131357 284.17275 
L 619.406654 270.165382 
L 619.681952 262.264927 
L 619.95725 242.778806 
L 620.232548 283.251689 
L 620.507845 230.973561 
L 620.783143 281.522034 
L 621.058441 264.579318 
L 621.333738 283.656571 
L 621.884334 247.318364 
L 622.159631 277.590252 
L 622.434929 276.241359 
L 622.710227 290.685627 
L 622.985525 246.186819 
L 623.260822 314.115843 
L 623.53612 299.162847 
L 623.811418 256.896493 
L 624.086715 245.968832 
L 624.362013 275.442864 
L 624.637311 259.955145 
L 624.912609 273.602234 
L 625.187906 239.125929 
L 625.463204 245.244124 
L 625.738502 286.375365 
L 626.013799 300.302191 
L 626.289097 284.693803 
L 626.564395 228.062343 
L 626.839692 216.228158 
L 627.11499 246.722451 
L 627.390288 237.342461 
L 627.665586 222.026085 
L 627.940883 227.289503 
L 628.216181 340.153318 
L 628.491479 319.21267 
L 628.766776 270.78935 
L 629.042074 305.447711 
L 629.59267 244.510608 
L 629.867967 246.262242 
L 630.143265 199.932226 
L 630.418563 220.328802 
L 630.69386 301.571956 
L 630.969158 261.325516 
L 631.244456 267.551198 
L 631.519753 208.637196 
L 631.795051 331.03178 
L 632.345647 244.744194 
L 632.620944 219.495923 
L 632.896242 239.013799 
L 633.17154 277.333977 
L 633.446837 252.64461 
L 633.722135 263.847089 
L 633.997433 249.781256 
L 634.272731 242.08743 
L 634.548028 328.287998 
L 635.098624 210.774729 
L 635.373921 243.715747 
L 635.649219 221.339011 
L 635.924517 232.405896 
L 636.199814 232.233558 
L 636.475112 314.40242 
L 636.75041 278.114703 
L 637.025708 267.586232 
L 637.301005 261.407796 
L 637.576303 263.814195 
L 637.851601 263.663749 
L 638.126898 241.876275 
L 638.402196 286.675936 
L 638.677494 273.044645 
L 638.952792 274.196534 
L 639.228089 258.067948 
L 639.503387 270.992448 
L 639.778685 242.915643 
L 640.053982 286.787508 
L 640.32928 289.961228 
L 640.604578 242.627285 
L 640.879875 298.380273 
L 641.155173 237.925722 
L 641.430471 271.30124 
L 641.705769 235.946886 
L 641.981066 245.992299 
L 642.256364 304.032715 
L 642.531662 277.594558 
L 642.806959 292.620085 
L 643.082257 278.500494 
L 643.357555 304.34566 
L 643.632853 319.201938 
L 643.90815 268.439004 
L 644.183448 250.405328 
L 644.458746 201.336461 
L 644.734043 266.727337 
L 645.009341 267.266279 
L 645.284639 282.049288 
L 645.559936 253.037272 
L 645.835234 252.598169 
L 646.110532 236.684425 
L 646.38583 251.701281 
L 646.936425 268.199764 
L 647.211723 230.692572 
L 647.48702 278.22563 
L 647.762318 257.819569 
L 648.037616 264.373823 
L 648.312914 237.887049 
L 648.588211 241.007853 
L 648.863509 255.021135 
L 649.138807 155.203428 
L 649.414104 214.88108 
L 649.689402 335.334779 
L 649.9647 210.034877 
L 650.239997 205.176286 
L 650.515295 376.097159 
L 650.790593 285.879111 
L 651.065891 291.917026 
L 651.341188 239.078803 
L 651.616486 258.184459 
L 651.891784 292.651815 
L 652.167081 255.974682 
L 652.442379 359.294184 
L 652.992975 238.52776 
L 653.268272 280.877101 
L 653.54357 271.762256 
L 653.818868 224.806844 
L 654.094165 233.047407 
L 654.369463 258.178066 
L 654.644761 251.899116 
L 654.920058 278.15619 
L 655.195356 225.20791 
L 655.745952 302.396321 
L 656.021249 275.386424 
L 656.296547 229.4411 
L 656.571845 253.935546 
L 656.847142 293.400108 
L 657.397738 239.1517 
L 657.673036 269.581781 
L 657.948333 267.127597 
L 658.223631 242.963945 
L 658.498929 289.510081 
L 658.774226 269.425761 
L 659.049524 292.576866 
L 659.324822 278.411529 
L 659.600119 248.397269 
L 659.875417 256.363089 
L 660.150715 307.92658 
L 660.426013 250.002737 
L 660.976608 336.898365 
L 661.527203 249.558185 
L 661.802501 249.126763 
L 662.077799 230.129295 
L 662.353097 228.788636 
L 662.628394 246.747145 
L 662.903692 230.679175 
L 663.17899 256.193009 
L 663.454287 233.796061 
L 663.729585 229.345976 
L 664.004883 294.298256 
L 664.28018 257.163943 
L 664.555478 260.808414 
L 664.830776 255.603751 
L 665.106074 255.97324 
L 665.381371 275.758611 
L 665.656669 265.372199 
L 665.931967 279.887086 
L 666.207264 266.970787 
L 666.482562 282.979097 
L 666.75786 259.401424 
L 667.033157 272.165887 
L 667.308455 265.447316 
L 667.583753 239.738042 
L 668.134348 268.395367 
L 668.409646 253.688818 
L 668.684944 252.08446 
L 669.235539 268.56454 
L 669.510837 245.951018 
L 670.061432 278.042477 
L 670.33673 277.607853 
L 670.612028 228.920869 
L 670.887325 238.439835 
L 671.162623 266.212182 
L 671.437921 240.690383 
L 671.988516 293.703764 
L 672.263814 261.494242 
L 672.539112 283.863548 
L 672.814409 242.469054 
L 673.089707 244.859898 
L 673.365005 279.094298 
L 673.640302 297.736333 
L 673.9156 236.2937 
L 674.190898 212.40357 
L 674.466196 287.072237 
L 674.741493 281.932705 
L 675.016791 278.980137 
L 675.292089 259.718233 
L 675.567386 273.418895 
L 675.567386 273.418895 
" clip-path="url(#p381447d921)" style="fill: none; stroke: #2878b5; stroke-width: 1.5; stroke-linecap: square"/>
   </g>
   <g id="line2d_28">
    <path d="M 42.23125 263.299256 
L 705.72625 263.299256 
" clip-path="url(#p381447d921)" style="fill: none; stroke-dasharray: 7.4,3.2; stroke-dashoffset: 0; stroke: #c82423; stroke-width: 2"/>
   </g>
   <g id="patch_3">
    <path d="M 42.23125 392.71875 
L 42.23125 27.04375 
" style="fill: none; stroke: #000000; stroke-width: 0.8; stroke-linejoin: miter; stroke-linecap: square"/>
   </g>
   <g id="patch_4">
    <path d="M 705.72625 392.71875 
L 705.72625 27.04375 
" style="fill: none; stroke: #000000; stroke-width: 0.8; stroke-linejoin: miter; stroke-linecap: square"/>
   </g>
   <g id="patch_5">
    <path d="M 42.23125 392.71875 
L 705.72625 392.71875 
" style="fill: none; stroke: #000000; stroke-width: 0.8; stroke-linejoin: miter; stroke-linecap: square"/>
   </g>
   <g id="patch_6">
    <path d="M 42.23125 27.04375 
L 705.72625 27.04375 
" style="fill: none; stroke: #000000; stroke-width: 0.8; stroke-linejoin: miter; stroke-linecap: square"/>
   </g>
   <g id="text_16">
    <!-- COD_mg/L 预测残差分析 -->
    <g transform="translate(310.97875 17.04375) scale(0.12 -0.12)">
     <defs>
      <path id="SimHei-43" d="M 2975 1825 
Q 2950 875 2575 475 
Q 2200 75 1675 75 
Q 1075 75 650 562 
Q 225 1050 225 2125 
Q 225 3300 637 3875 
Q 1050 4450 1700 4450 
Q 2250 4450 2612 4037 
Q 2975 3625 2950 2875 
L 2400 2875 
Q 2400 3425 2225 3700 
Q 2050 3975 1700 3975 
Q 1300 3975 1062 3562 
Q 825 3150 825 2175 
Q 825 1275 1062 912 
Q 1300 550 1675 550 
Q 1950 550 2175 812 
Q 2400 1075 2400 1825 
L 2975 1825 
z
" transform="scale(0.015625)"/>
      <path id="SimHei-4f" d="M 2950 2275 
Q 2950 1100 2587 587 
Q 2225 75 1575 75 
Q 925 75 550 587 
Q 175 1100 175 2275 
Q 175 3450 550 3950 
Q 925 4450 1575 4450 
Q 2225 4450 2587 3950 
Q 2950 3450 2950 2275 
z
M 2350 2275 
Q 2350 3325 2125 3650 
Q 1900 3975 1575 3975 
Q 1250 3975 1012 3650 
Q 775 3325 775 2275 
Q 775 1225 1012 887 
Q 1250 550 1575 550 
Q 1900 550 2125 887 
Q 2350 1225 2350 2275 
z
" transform="scale(0.015625)"/>
      <path id="SimHei-44" d="M 2925 2250 
Q 2925 1100 2437 612 
Q 1950 125 1125 125 
L 275 125 
L 275 4400 
L 1125 4400 
Q 2050 4400 2487 3900 
Q 2925 3400 2925 2250 
z
M 2325 2250 
Q 2325 3175 2025 3550 
Q 1725 3925 1125 3925 
L 850 3925 
L 850 600 
L 1125 600 
Q 1725 600 2025 962 
Q 2325 1325 2325 2250 
z
" transform="scale(0.015625)"/>
      <path id="SimHei-5f" d="M 3150 -850 
L 0 -850 
L 0 -550 
L 3150 -550 
L 3150 -850 
z
" transform="scale(0.015625)"/>
      <path id="SimHei-6d" d="M 3050 125 
L 2550 125 
L 2550 2150 
Q 2550 2300 2500 2400 
Q 2450 2500 2300 2500 
Q 2125 2500 1975 2312 
Q 1825 2125 1825 1825 
L 1825 125 
L 1325 125 
L 1325 2150 
Q 1325 2300 1275 2400 
Q 1225 2500 1075 2500 
Q 900 2500 750 2312 
Q 600 2125 600 1825 
L 600 125 
L 100 125 
L 100 2925 
L 600 2925 
L 600 2550 
Q 725 2750 900 2862 
Q 1075 2975 1275 2975 
Q 1475 2975 1612 2862 
Q 1750 2750 1800 2550 
Q 1925 2750 2087 2862 
Q 2250 2975 2450 2975 
Q 2750 2975 2900 2812 
Q 3050 2650 3050 2350 
L 3050 125 
z
" transform="scale(0.015625)"/>
      <path id="SimHei-67" d="M 2975 2500 
Q 2800 2550 2637 2562 
Q 2475 2575 2300 2525 
Q 2375 2450 2425 2337 
Q 2475 2225 2475 2000 
Q 2475 1575 2187 1300 
Q 1900 1025 1475 1025 
Q 1375 1025 1212 1062 
Q 1050 1100 950 1150 
Q 875 1100 850 1050 
Q 825 1000 825 925 
Q 825 800 1000 737 
Q 1175 675 1625 675 
Q 2350 675 2612 475 
Q 2875 275 2875 -25 
Q 2875 -425 2487 -612 
Q 2100 -800 1575 -800 
Q 900 -800 575 -625 
Q 250 -450 250 -150 
Q 250 0 375 150 
Q 500 300 700 400 
Q 550 475 462 587 
Q 375 700 375 875 
Q 375 1025 487 1137 
Q 600 1250 750 1325 
Q 625 1450 550 1625 
Q 475 1800 475 2000 
Q 475 2425 762 2700 
Q 1050 2975 1475 2975 
Q 1700 2975 1862 2912 
Q 2025 2850 2150 2725 
Q 2350 2875 2550 2937 
Q 2750 3000 2975 2975 
L 2975 2500 
z
M 1975 2000 
Q 1975 2250 1850 2400 
Q 1725 2550 1475 2550 
Q 1225 2550 1100 2400 
Q 975 2250 975 2000 
Q 975 1750 1100 1600 
Q 1225 1450 1475 1450 
Q 1725 1450 1850 1600 
Q 1975 1750 1975 2000 
z
M 2400 -75 
Q 2400 25 2287 125 
Q 2175 225 1725 225 
Q 1625 225 1450 237 
Q 1275 250 1050 275 
Q 850 200 775 100 
Q 700 0 700 -100 
Q 700 -250 900 -350 
Q 1100 -450 1600 -450 
Q 2025 -450 2212 -337 
Q 2400 -225 2400 -75 
z
" transform="scale(0.015625)"/>
      <path id="SimHei-4c" d="M 2900 125 
L 300 125 
L 300 4400 
L 875 4400 
L 875 600 
L 2900 600 
L 2900 125 
z
" transform="scale(0.015625)"/>
      <path id="SimHei-9884" d="M 5200 4800 
Q 5575 4800 5950 4825 
L 5950 4400 
Q 5575 4425 5200 4425 
L 4500 4425 
Q 4425 4050 4350 3600 
L 5725 3600 
Q 5700 3225 5700 2800 
L 5700 1725 
Q 5700 1300 5725 850 
L 5250 850 
L 5250 3225 
L 3550 3225 
L 3550 800 
L 3075 800 
Q 3100 1375 3100 1725 
L 3100 2775 
Q 3100 3175 3075 3600 
L 3900 3600 
Q 4000 4150 4000 4425 
L 3725 4425 
Q 3300 4425 2850 4400 
L 2850 4825 
Q 3325 4800 3725 4800 
L 5200 4800 
z
M 2600 1775 
Q 2350 1825 2150 1825 
Q 2250 2250 2300 2450 
L 1750 2450 
L 1750 125 
Q 1725 -300 1425 -400 
Q 1125 -500 750 -500 
Q 700 -225 575 25 
Q 1125 -25 1212 37 
Q 1300 100 1300 350 
L 1300 2450 
L 1025 2450 
Q 700 2450 350 2425 
L 350 2850 
Q 700 2825 1000 2825 
L 2850 2825 
Q 2725 2325 2600 1775 
z
M 4725 2875 
Q 4625 2575 4600 2100 
Q 4575 1625 4462 1037 
Q 4350 450 3962 62 
Q 3575 -325 2925 -675 
Q 2700 -500 2475 -350 
Q 3075 -125 3437 200 
Q 3800 525 3950 937 
Q 4100 1350 4137 1850 
Q 4175 2350 4175 2925 
L 4725 2875 
z
M 1625 2900 
Q 1275 3275 800 3650 
Q 925 3775 1075 3950 
Q 1250 3825 1425 3675 
Q 1750 4150 1950 4375 
L 1400 4375 
Q 900 4375 450 4350 
L 450 4775 
Q 900 4750 1375 4750 
L 2575 4750 
L 2575 4375 
Q 2200 4100 1725 3400 
L 1950 3200 
Q 1750 3025 1625 2900 
z
M 4775 725 
Q 5725 0 6075 -325 
Q 5850 -500 5725 -650 
Q 5400 -325 5137 -87 
Q 4875 150 4525 350 
Q 4650 525 4775 725 
z
" transform="scale(0.015625)"/>
      <path id="SimHei-6d4b" d="M 4025 4725 
Q 4000 4475 4000 4000 
L 4000 2225 
Q 4000 1775 4025 1350 
L 3550 1350 
L 3550 4325 
L 2350 4325 
L 2350 1325 
L 1900 1325 
Q 1925 1775 1925 2225 
L 1925 4000 
Q 1925 4200 1900 4725 
L 4025 4725 
z
M 5900 5075 
Q 5875 4800 5875 4375 
L 5875 0 
Q 5875 -325 5650 -425 
Q 5425 -525 4975 -600 
Q 4925 -325 4775 -50 
Q 5125 -50 5262 -25 
Q 5400 0 5400 250 
L 5400 4375 
Q 5400 4775 5375 5075 
L 5900 5075 
z
M 3275 3725 
Q 3225 3400 3200 2325 
Q 3175 1250 2837 550 
Q 2500 -150 2075 -600 
Q 1850 -400 1600 -325 
Q 2200 250 2475 962 
Q 2750 1675 2762 2475 
Q 2775 3275 2725 3800 
Q 3000 3750 3275 3725 
z
M 4950 4275 
Q 4925 4000 4925 3575 
L 4925 1825 
Q 4925 1300 4950 850 
L 4450 850 
Q 4475 1150 4475 1825 
L 4475 3575 
Q 4475 4000 4450 4275 
L 4950 4275 
z
M 1700 1675 
Q 1375 1075 1112 487 
Q 850 -100 725 -400 
Q 500 -200 200 -25 
Q 475 300 762 850 
Q 1050 1400 1250 2000 
Q 1475 1825 1700 1675 
z
M 3400 1050 
Q 3800 650 4300 -125 
Q 4100 -225 3875 -450 
Q 3475 275 3025 750 
Q 3225 875 3400 1050 
z
M 600 3525 
Q 1125 3125 1500 2775 
Q 1300 2575 1150 2375 
Q 825 2775 300 3150 
Q 450 3300 600 3525 
z
M 1350 4000 
Q 950 4375 475 4675 
Q 625 4850 775 5050 
Q 1300 4700 1675 4375 
Q 1500 4250 1350 4000 
z
" transform="scale(0.015625)"/>
      <path id="SimHei-5206" d="M 1000 -650 
Q 825 -375 575 -225 
Q 975 -75 1300 137 
Q 1625 350 1875 662 
Q 2125 975 2250 1350 
Q 2375 1725 2425 2275 
Q 1850 2275 1500 2250 
L 1500 2775 
Q 1900 2750 2525 2750 
L 5025 2750 
Q 4975 2375 4950 2100 
L 4750 250 
Q 4700 -200 4350 -350 
Q 4000 -500 3575 -525 
Q 3550 -275 3325 50 
Q 3850 25 4037 87 
Q 4225 150 4275 525 
L 4450 2275 
L 2950 2275 
Q 2875 1625 2737 1187 
Q 2600 750 2350 425 
Q 2100 100 1750 -175 
Q 1400 -450 1000 -650 
z
M 3950 5175 
Q 4125 4650 4662 3975 
Q 5200 3300 6175 2800 
Q 5975 2625 5775 2275 
Q 5325 2600 4987 2887 
Q 4650 3175 4425 3425 
Q 4200 3675 3925 4137 
Q 3650 4600 3475 5000 
Q 3750 5075 3950 5175 
z
M 2700 4825 
Q 2475 4425 2325 4125 
Q 2175 3825 2025 3587 
Q 1875 3350 1575 2950 
Q 1275 2550 850 2125 
Q 625 2350 400 2475 
Q 900 2925 1187 3300 
Q 1475 3675 1737 4112 
Q 2000 4550 2200 5075 
Q 2400 4925 2700 4825 
z
" transform="scale(0.015625)"/>
      <path id="SimHei-6790" d="M 5900 4550 
Q 5575 4525 5087 4450 
Q 4600 4375 3725 4275 
L 3725 3075 
L 5400 3075 
Q 5725 3075 6150 3100 
L 6150 2650 
Q 5700 2675 5250 2675 
L 5250 350 
Q 5250 -100 5275 -475 
L 4750 -475 
Q 4775 -75 4775 375 
L 4775 2675 
L 3725 2675 
Q 3725 2175 3650 1637 
Q 3575 1100 3437 637 
Q 3300 175 2850 -500 
Q 2675 -300 2275 -150 
Q 2825 325 3050 1112 
Q 3275 1900 3262 3000 
Q 3250 4100 3225 4650 
Q 3975 4700 4562 4800 
Q 5150 4900 5500 5050 
Q 5675 4750 5900 4550 
z
M 1900 525 
Q 1900 200 1925 -525 
L 1400 -525 
Q 1425 25 1425 525 
L 1425 2250 
Q 1175 1625 600 800 
Q 425 1075 200 1225 
Q 650 1725 962 2387 
Q 1275 3050 1375 3425 
Q 925 3425 450 3400 
L 450 3850 
Q 925 3825 1425 3825 
L 1425 4450 
Q 1425 4775 1400 5125 
L 1950 5125 
Q 1900 4825 1900 4450 
L 1900 3825 
Q 2300 3825 2775 3850 
L 2775 3400 
Q 2300 3425 1900 3425 
L 1900 525 
z
M 2375 2750 
Q 2800 2050 2925 1800 
Q 2700 1700 2450 1550 
Q 2300 1900 1950 2525 
Q 2175 2625 2375 2750 
z
" transform="scale(0.015625)"/>
     </defs>
     <use xlink:href="#SimHei-43"/>
     <use xlink:href="#SimHei-4f" transform="translate(50 0)"/>
     <use xlink:href="#SimHei-44" transform="translate(100 0)"/>
     <use xlink:href="#SimHei-5f" transform="translate(150 0)"/>
     <use xlink:href="#SimHei-6d" transform="translate(200 0)"/>
     <use xlink:href="#SimHei-67" transform="translate(250 0)"/>
     <use xlink:href="#SimHei-2f" transform="translate(300 0)"/>
     <use xlink:href="#SimHei-4c" transform="translate(350 0)"/>
     <use xlink:href="#SimHei-20" transform="translate(400 0)"/>
     <use xlink:href="#SimHei-9884" transform="translate(450 0)"/>
     <use xlink:href="#SimHei-6d4b" transform="translate(550 0)"/>
     <use xlink:href="#SimHei-6b8b" transform="translate(650 0)"/>
     <use xlink:href="#SimHei-5dee" transform="translate(750 0)"/>
     <use xlink:href="#SimHei-5206" transform="translate(850 0)"/>
     <use xlink:href="#SimHei-6790" transform="translate(950 0)"/>
    </g>
   </g>
   <g id="legend_1">
    <g id="patch_7">
     <path d="M 634.62625 60.11875 
L 699.42625 60.11875 
Q 701.22625 60.11875 701.22625 58.31875 
L 701.22625 33.34375 
Q 701.22625 31.54375 699.42625 31.54375 
L 634.62625 31.54375 
Q 632.82625 31.54375 632.82625 33.34375 
L 632.82625 58.31875 
Q 632.82625 60.11875 634.62625 60.11875 
z
" style="fill: #ffffff; opacity: 0.8; stroke: #cccccc; stroke-width: 0.5; stroke-linejoin: miter"/>
    </g>
    <g id="line2d_29">
     <path d="M 636.42625 39.376562 
L 645.42625 39.376562 
L 654.42625 39.376562 
" style="fill: none; stroke: #2878b5; stroke-width: 1.5; stroke-linecap: square"/>
    </g>
    <g id="text_17">
     <!-- 预测残差 -->
     <g transform="translate(661.62625 42.526562) scale(0.09 -0.09)">
      <use xlink:href="#SimHei-9884"/>
      <use xlink:href="#SimHei-6d4b" transform="translate(100 0)"/>
      <use xlink:href="#SimHei-6b8b" transform="translate(200 0)"/>
      <use xlink:href="#SimHei-5dee" transform="translate(300 0)"/>
     </g>
    </g>
    <g id="line2d_30">
     <path d="M 636.42625 52.24375 
L 645.42625 52.24375 
L 654.42625 52.24375 
" style="fill: none; stroke-dasharray: 7.4,3.2; stroke-dashoffset: 0; stroke: #c82423; stroke-width: 2"/>
    </g>
    <g id="text_18">
     <!-- 零线 -->
     <g transform="translate(661.62625 55.39375) scale(0.09 -0.09)">
      <defs>
       <path id="SimHei-96f6" d="M 3375 2525 
Q 3425 2425 3950 2125 
Q 4475 1825 4975 1675 
Q 5475 1525 6075 1450 
Q 5875 1200 5775 925 
Q 5325 1025 4900 1175 
Q 4475 1325 3950 1637 
Q 3425 1950 3100 2250 
Q 2875 2075 2512 1812 
Q 2150 1550 1662 1312 
Q 1175 1075 625 900 
Q 525 1100 325 1375 
Q 800 1450 1175 1600 
Q 1550 1750 1875 1925 
Q 2200 2100 2475 2325 
Q 2750 2550 2925 2825 
Q 2950 3100 2950 3450 
L 2950 3925 
L 950 3925 
L 950 3250 
L 475 3250 
L 475 4300 
L 2950 4300 
L 2950 4700 
L 1775 4700 
Q 1425 4700 1100 4675 
L 1100 5100 
Q 1425 5075 1750 5075 
L 4625 5075 
Q 4875 5075 5325 5100 
L 5325 4675 
Q 4875 4700 4475 4700 
L 3400 4700 
L 3400 4300 
L 5875 4300 
Q 5850 4050 5850 3800 
Q 5850 3550 5875 3300 
L 5400 3300 
L 5400 3925 
L 3400 3925 
L 3400 3450 
Q 3400 3175 3425 2825 
L 3050 2825 
Q 3250 2750 3525 2675 
L 3375 2525 
z
M 2300 500 
Q 2750 350 3175 200 
Q 3325 325 3750 775 
L 2325 775 
Q 1900 775 1475 750 
L 1475 1200 
Q 1900 1175 2325 1175 
L 4700 1175 
Q 4475 950 4150 587 
Q 3825 225 3625 50 
Q 3775 -25 3950 -87 
Q 4125 -150 4400 -275 
Q 4250 -475 4125 -700 
Q 3450 -400 2950 -212 
Q 2450 -25 2100 75 
Q 2225 275 2300 500 
z
M 5075 2600 
L 3750 2600 
L 3750 2950 
L 5075 2950 
L 5075 2600 
z
M 5075 3325 
L 3775 3325 
L 3775 3675 
L 5075 3675 
L 5075 3325 
z
M 2500 3325 
L 1250 3325 
L 1250 3675 
L 2500 3675 
L 2500 3325 
z
M 2475 2600 
L 1225 2600 
L 1225 2950 
L 2475 2950 
L 2475 2600 
z
M 3100 1950 
Q 3200 1800 3237 1712 
Q 3275 1625 3400 1400 
Q 3150 1300 2975 1200 
Q 2850 1500 2700 1775 
Q 2975 1875 3100 1950 
z
" transform="scale(0.015625)"/>
       <path id="SimHei-7ebf" d="M 3450 4300 
Q 3450 4675 3375 5125 
Q 3700 5100 4050 5050 
Q 3975 4900 3950 4562 
Q 3925 4225 3950 3600 
L 4800 3750 
Q 5225 3850 5650 3975 
L 5750 3500 
Q 5325 3450 4875 3375 
L 3975 3200 
Q 3975 2800 4025 2500 
L 5000 2675 
Q 5500 2775 5950 2925 
L 6025 2450 
Q 5575 2375 5075 2275 
L 4100 2100 
Q 4150 1600 4350 1175 
Q 4575 1350 4787 1575 
Q 5000 1800 5175 2075 
Q 5550 1775 5750 1675 
Q 5425 1525 5237 1337 
Q 5050 1150 4625 750 
Q 4925 250 5162 112 
Q 5400 -25 5500 100 
Q 5600 225 5675 625 
Q 5900 450 6200 350 
Q 5775 -750 5275 -537 
Q 4775 -325 4225 450 
Q 3875 175 3537 -62 
Q 3200 -300 2700 -550 
Q 2575 -300 2325 -100 
Q 2825 75 3175 275 
Q 3525 475 3975 850 
Q 3750 1350 3650 2025 
Q 2900 1900 2600 1800 
L 2525 2275 
Q 2825 2275 3550 2425 
Q 3500 2825 3500 3100 
Q 2825 2950 2575 2875 
L 2475 3350 
Q 2725 3350 3450 3500 
L 3450 4300 
z
M 1950 4875 
Q 1700 4650 1462 4237 
Q 1225 3825 825 3225 
Q 1425 3250 1650 3250 
Q 1875 3625 2050 4075 
Q 2300 3900 2600 3800 
Q 2350 3550 2087 3125 
Q 1825 2700 1175 1675 
Q 1850 1725 2375 1775 
Q 2300 1525 2300 1350 
Q 2125 1350 1525 1287 
Q 925 1225 550 1125 
Q 525 1375 400 1650 
Q 700 1725 950 2050 
Q 1200 2375 1475 2875 
Q 650 2825 425 2675 
Q 350 2950 200 3225 
Q 525 3450 825 3962 
Q 1125 4475 1375 5150 
Q 1625 4975 1950 4875 
z
M 2575 875 
Q 2550 600 2575 450 
Q 1950 325 1450 200 
Q 950 75 525 -75 
Q 450 200 250 475 
Q 950 550 1325 612 
Q 1700 675 2575 875 
z
M 4850 4025 
Q 4675 4300 4375 4675 
L 4775 4875 
Q 4875 4750 5275 4275 
Q 5025 4175 4850 4025 
z
" transform="scale(0.015625)"/>
      </defs>
      <use xlink:href="#SimHei-96f6"/>
      <use xlink:href="#SimHei-7ebf" transform="translate(100 0)"/>
     </g>
    </g>
   </g>
  </g>
 </g>
 <defs>
  <clipPath id="p381447d921">
   <rect x="42.23125" y="27.04375" width="663.495" height="365.675"/>
  </clipPath>
 </defs>
</svg>
