<?xml version="1.0" encoding="utf-8" standalone="no"?>
<!DOCTYPE svg PUBLIC "-//W3C//DTD SVG 1.1//EN"
  "http://www.w3.org/Graphics/SVG/1.1/DTD/svg11.dtd">
<svg xmlns:xlink="http://www.w3.org/1999/xlink" width="856.476875pt" height="423.709687pt" viewBox="0 0 856.476875 423.709687" xmlns="http://www.w3.org/2000/svg" version="1.1">
 <metadata>
  <rdf:RDF xmlns:dc="http://purl.org/dc/elements/1.1/" xmlns:cc="http://creativecommons.org/ns#" xmlns:rdf="http://www.w3.org/1999/02/22-rdf-syntax-ns#">
   <cc:Work>
    <dc:type rdf:resource="http://purl.org/dc/dcmitype/StillImage"/>
    <dc:date>2025-04-16T13:47:00.932868</dc:date>
    <dc:format>image/svg+xml</dc:format>
    <dc:creator>
     <cc:Agent>
      <dc:title>Matplotlib v3.10.0, https://matplotlib.org/</dc:title>
     </cc:Agent>
    </dc:creator>
   </cc:Work>
  </rdf:RDF>
 </metadata>
 <defs>
  <style type="text/css">*{stroke-linejoin: round; stroke-linecap: butt}</style>
 </defs>
 <g id="figure_1">
  <g id="patch_1">
   <path d="M 0 423.709687 
L 856.476875 423.709687 
L 856.476875 0 
L 0 0 
z
" style="fill: #ffffff"/>
  </g>
  <g id="axes_1">
   <g id="patch_2">
    <path d="M 33.153125 392.439375 
L 849.276875 392.439375 
L 849.276875 27.090625 
L 33.153125 27.090625 
z
" style="fill: #ffffff"/>
   </g>
   <g id="matplotlib.axis_1">
    <g id="xtick_1">
     <g id="line2d_1">
      <path d="M 69.572097 392.439375 
L 69.572097 27.090625 
" clip-path="url(#p5f2e7da5a3)" style="fill: none; stroke-dasharray: 1.85,0.8; stroke-dashoffset: 0; stroke: #b2b2b2; stroke-opacity: 0.3; stroke-width: 0.5"/>
     </g>
     <g id="line2d_2">
      <defs>
       <path id="mcb490ae4d9" d="M 0 0 
L 0 -3.5 
" style="stroke: #000000; stroke-width: 0.8"/>
      </defs>
      <g>
       <use xlink:href="#mcb490ae4d9" x="69.572097" y="392.439375" style="stroke: #000000; stroke-width: 0.8"/>
      </g>
     </g>
     <g id="text_1">
      <!-- 0 -->
      <g transform="translate(67.322097 402.126875) scale(0.09 -0.09)">
       <defs>
        <path id="SimHei-30" d="M 225 2537 
Q 250 3200 412 3587 
Q 575 3975 875 4225 
Q 1175 4475 1612 4475 
Q 2050 4475 2375 4112 
Q 2700 3750 2800 3200 
Q 2900 2650 2862 1937 
Q 2825 1225 2612 775 
Q 2400 325 1975 150 
Q 1550 -25 1125 187 
Q 700 400 525 750 
Q 350 1100 275 1487 
Q 200 1875 225 2537 
z
M 750 2687 
Q 675 2000 800 1462 
Q 925 925 1212 700 
Q 1500 475 1800 612 
Q 2100 750 2237 1162 
Q 2375 1575 2375 2062 
Q 2375 2550 2337 2950 
Q 2300 3350 2112 3675 
Q 1925 4000 1612 4012 
Q 1300 4025 1062 3700 
Q 825 3375 750 2687 
z
" transform="scale(0.015625)"/>
       </defs>
       <use xlink:href="#SimHei-30"/>
      </g>
     </g>
    </g>
    <g id="xtick_2">
     <g id="line2d_3">
      <path d="M 238.962663 392.439375 
L 238.962663 27.090625 
" clip-path="url(#p5f2e7da5a3)" style="fill: none; stroke-dasharray: 1.85,0.8; stroke-dashoffset: 0; stroke: #b2b2b2; stroke-opacity: 0.3; stroke-width: 0.5"/>
     </g>
     <g id="line2d_4">
      <g>
       <use xlink:href="#mcb490ae4d9" x="238.962663" y="392.439375" style="stroke: #000000; stroke-width: 0.8"/>
      </g>
     </g>
     <g id="text_2">
      <!-- 500 -->
      <g transform="translate(232.212663 402.126875) scale(0.09 -0.09)">
       <defs>
        <path id="SimHei-35" d="M 550 1325 
Q 725 650 1150 575 
Q 1575 500 1837 662 
Q 2100 825 2212 1087 
Q 2325 1350 2312 1675 
Q 2300 2000 2137 2225 
Q 1975 2450 1725 2525 
Q 1475 2600 1162 2525 
Q 850 2450 650 2175 
L 225 2225 
Q 275 2375 700 4375 
L 2675 4375 
L 2675 3925 
L 1075 3925 
Q 950 3250 825 2850 
Q 1200 3025 1525 3012 
Q 1850 3000 2150 2862 
Q 2450 2725 2587 2487 
Q 2725 2250 2787 2012 
Q 2850 1775 2837 1500 
Q 2825 1225 2725 937 
Q 2625 650 2425 462 
Q 2225 275 1937 162 
Q 1650 50 1275 75 
Q 900 100 562 350 
Q 225 600 100 1200 
L 550 1325 
z
" transform="scale(0.015625)"/>
       </defs>
       <use xlink:href="#SimHei-35"/>
       <use xlink:href="#SimHei-30" transform="translate(50 0)"/>
       <use xlink:href="#SimHei-30" transform="translate(100 0)"/>
      </g>
     </g>
    </g>
    <g id="xtick_3">
     <g id="line2d_5">
      <path d="M 408.35323 392.439375 
L 408.35323 27.090625 
" clip-path="url(#p5f2e7da5a3)" style="fill: none; stroke-dasharray: 1.85,0.8; stroke-dashoffset: 0; stroke: #b2b2b2; stroke-opacity: 0.3; stroke-width: 0.5"/>
     </g>
     <g id="line2d_6">
      <g>
       <use xlink:href="#mcb490ae4d9" x="408.35323" y="392.439375" style="stroke: #000000; stroke-width: 0.8"/>
      </g>
     </g>
     <g id="text_3">
      <!-- 1000 -->
      <g transform="translate(399.35323 402.126875) scale(0.09 -0.09)">
       <defs>
        <path id="SimHei-31" d="M 1400 3600 
Q 1075 3275 575 2975 
L 575 3450 
Q 1200 3875 1600 4450 
L 1900 4450 
L 1900 150 
L 1400 150 
L 1400 3600 
z
" transform="scale(0.015625)"/>
       </defs>
       <use xlink:href="#SimHei-31"/>
       <use xlink:href="#SimHei-30" transform="translate(50 0)"/>
       <use xlink:href="#SimHei-30" transform="translate(100 0)"/>
       <use xlink:href="#SimHei-30" transform="translate(150 0)"/>
      </g>
     </g>
    </g>
    <g id="xtick_4">
     <g id="line2d_7">
      <path d="M 577.743797 392.439375 
L 577.743797 27.090625 
" clip-path="url(#p5f2e7da5a3)" style="fill: none; stroke-dasharray: 1.85,0.8; stroke-dashoffset: 0; stroke: #b2b2b2; stroke-opacity: 0.3; stroke-width: 0.5"/>
     </g>
     <g id="line2d_8">
      <g>
       <use xlink:href="#mcb490ae4d9" x="577.743797" y="392.439375" style="stroke: #000000; stroke-width: 0.8"/>
      </g>
     </g>
     <g id="text_4">
      <!-- 1500 -->
      <g transform="translate(568.743797 402.126875) scale(0.09 -0.09)">
       <use xlink:href="#SimHei-31"/>
       <use xlink:href="#SimHei-35" transform="translate(50 0)"/>
       <use xlink:href="#SimHei-30" transform="translate(100 0)"/>
       <use xlink:href="#SimHei-30" transform="translate(150 0)"/>
      </g>
     </g>
    </g>
    <g id="xtick_5">
     <g id="line2d_9">
      <path d="M 747.134363 392.439375 
L 747.134363 27.090625 
" clip-path="url(#p5f2e7da5a3)" style="fill: none; stroke-dasharray: 1.85,0.8; stroke-dashoffset: 0; stroke: #b2b2b2; stroke-opacity: 0.3; stroke-width: 0.5"/>
     </g>
     <g id="line2d_10">
      <g>
       <use xlink:href="#mcb490ae4d9" x="747.134363" y="392.439375" style="stroke: #000000; stroke-width: 0.8"/>
      </g>
     </g>
     <g id="text_5">
      <!-- 2000 -->
      <g transform="translate(738.134363 402.126875) scale(0.09 -0.09)">
       <defs>
        <path id="SimHei-32" d="M 300 250 
Q 325 625 650 925 
Q 975 1225 1475 1862 
Q 1975 2500 2125 2850 
Q 2275 3200 2237 3450 
Q 2200 3700 2000 3862 
Q 1800 4025 1537 4000 
Q 1275 3975 1037 3800 
Q 800 3625 675 3275 
L 200 3350 
Q 400 3925 712 4187 
Q 1025 4450 1450 4475 
Q 1700 4500 1900 4462 
Q 2100 4425 2312 4287 
Q 2525 4150 2662 3875 
Q 2800 3600 2762 3212 
Q 2725 2825 2375 2287 
Q 2025 1750 1025 600 
L 2825 600 
L 2825 150 
L 300 150 
L 300 250 
z
" transform="scale(0.015625)"/>
       </defs>
       <use xlink:href="#SimHei-32"/>
       <use xlink:href="#SimHei-30" transform="translate(50 0)"/>
       <use xlink:href="#SimHei-30" transform="translate(100 0)"/>
       <use xlink:href="#SimHei-30" transform="translate(150 0)"/>
      </g>
     </g>
    </g>
    <g id="text_6">
     <!-- 时间 / 序号 -->
     <g transform="translate(413.715 415.259687) scale(0.1 -0.1)">
      <defs>
       <path id="SimHei-65f6" d="M 2525 4575 
Q 2500 3675 2500 2400 
Q 2500 1125 2525 400 
L 2000 400 
L 2000 875 
L 1000 875 
L 1000 50 
L 475 50 
Q 500 1200 500 2350 
Q 500 3525 475 4575 
L 2525 4575 
z
M 4875 3825 
Q 4875 4575 4850 5225 
L 5400 5225 
Q 5375 4575 5375 3825 
Q 5750 3825 6175 3850 
L 6175 3375 
Q 5750 3400 5375 3400 
L 5375 50 
Q 5375 -325 5075 -425 
Q 4775 -525 4300 -575 
Q 4300 -275 4025 0 
Q 4500 -50 4687 -25 
Q 4875 0 4875 300 
L 4875 3400 
Q 3625 3400 2775 3375 
L 2775 3850 
Q 3575 3825 4875 3825 
z
M 2000 1300 
L 2000 2550 
L 1000 2550 
L 1000 1300 
L 2000 1300 
z
M 2000 2975 
L 2000 4150 
L 1000 4150 
L 1000 2975 
L 2000 2975 
z
M 3550 2725 
Q 3875 2200 4175 1600 
Q 3925 1525 3650 1375 
Q 3450 1975 3075 2500 
Q 3300 2600 3550 2725 
z
" transform="scale(0.015625)"/>
       <path id="SimHei-95f4" d="M 4450 3550 
Q 4425 3075 4425 2725 
L 4425 1400 
Q 4425 1075 4450 625 
L 1925 625 
Q 1950 1075 1950 1425 
L 1950 2725 
Q 1950 3075 1925 3550 
L 4450 3550 
z
M 5800 4875 
Q 5775 4400 5775 3925 
L 5775 250 
Q 5800 -325 5462 -450 
Q 5125 -575 4725 -625 
Q 4700 -325 4525 -25 
Q 5000 -50 5137 25 
Q 5275 100 5275 350 
L 5275 4450 
L 3775 4450 
Q 3175 4450 2650 4425 
L 2650 4900 
Q 3175 4875 3775 4875 
L 5800 4875 
z
M 550 -525 
Q 600 -25 600 525 
L 600 3150 
Q 600 3675 550 4025 
L 1125 4025 
Q 1100 3650 1100 3300 
L 1100 500 
Q 1100 0 1125 -525 
L 550 -525 
z
M 3950 1025 
L 3950 1950 
L 2425 1950 
L 2425 1025 
L 3950 1025 
z
M 3950 2350 
L 3950 3150 
L 2425 3150 
L 2425 2350 
L 3950 2350 
z
M 1525 5300 
Q 1750 5000 2225 4350 
Q 1950 4225 1700 4075 
Q 1450 4575 1075 5025 
Q 1350 5225 1525 5300 
z
" transform="scale(0.015625)"/>
       <path id="SimHei-20" transform="scale(0.015625)"/>
       <path id="SimHei-2f" d="M 3000 4550 
L 350 -175 
L 100 -25 
L 2750 4700 
L 3000 4550 
z
" transform="scale(0.015625)"/>
       <path id="SimHei-5e8f" d="M 4000 2075 
L 5975 2075 
Q 5750 1525 5575 1025 
Q 5325 1100 5050 1150 
Q 5175 1450 5275 1700 
L 4050 1700 
L 4050 150 
Q 4050 -375 3762 -462 
Q 3475 -550 2950 -575 
Q 2875 -300 2750 0 
Q 3350 -75 3475 25 
Q 3600 125 3575 375 
L 3575 1700 
L 2450 1700 
Q 2050 1700 1675 1675 
L 1675 2100 
Q 2100 2075 2425 2075 
L 3675 2075 
Q 3325 2400 2875 2775 
Q 2975 2875 3250 3100 
Q 3400 2975 3725 2725 
L 4575 3275 
L 3000 3275 
Q 2400 3275 1950 3250 
L 1950 3700 
Q 2400 3675 3000 3675 
L 5400 3675 
L 5400 3250 
Q 4700 2875 4025 2450 
L 4275 2250 
L 4000 2075 
z
M 3725 5275 
Q 3825 4925 3925 4525 
L 4850 4525 
Q 5425 4525 6000 4550 
L 6000 4125 
Q 5425 4150 4850 4150 
L 1400 4150 
Q 1400 2750 1362 2137 
Q 1325 1525 1200 887 
Q 1075 250 775 -350 
Q 625 -250 250 -125 
Q 475 300 600 700 
Q 725 1100 800 1637 
Q 875 2175 875 2825 
Q 875 3500 850 4525 
L 3350 4525 
Q 3275 4825 3150 5150 
Q 3425 5200 3725 5275 
z
" transform="scale(0.015625)"/>
       <path id="SimHei-53f7" d="M 5025 4925 
Q 5000 4550 5000 4075 
Q 5000 3600 5025 3175 
L 1400 3175 
Q 1425 3525 1425 4000 
Q 1425 4500 1400 4925 
L 5025 4925 
z
M 5175 2625 
Q 5650 2625 6025 2650 
L 6025 2200 
Q 5650 2225 5175 2225 
L 2450 2225 
Q 2350 1875 2225 1450 
L 5175 1450 
Q 5100 1050 5062 775 
Q 5025 500 4950 112 
Q 4875 -275 4650 -412 
Q 4425 -550 3225 -625 
Q 3125 -350 2975 -50 
Q 3875 -75 4112 -50 
Q 4350 -25 4425 212 
Q 4500 450 4575 1025 
L 1600 1025 
Q 1825 1625 1950 2225 
L 1350 2225 
Q 825 2225 375 2200 
L 375 2650 
Q 825 2625 1350 2625 
L 5175 2625 
z
M 4525 3575 
L 4525 4525 
L 1900 4525 
L 1900 3575 
L 4525 3575 
z
" transform="scale(0.015625)"/>
      </defs>
      <use xlink:href="#SimHei-65f6"/>
      <use xlink:href="#SimHei-95f4" transform="translate(100 0)"/>
      <use xlink:href="#SimHei-20" transform="translate(200 0)"/>
      <use xlink:href="#SimHei-2f" transform="translate(250 0)"/>
      <use xlink:href="#SimHei-20" transform="translate(300 0)"/>
      <use xlink:href="#SimHei-5e8f" transform="translate(350 0)"/>
      <use xlink:href="#SimHei-53f7" transform="translate(450 0)"/>
     </g>
    </g>
   </g>
   <g id="matplotlib.axis_2">
    <g id="ytick_1">
     <g id="line2d_11">
      <path d="M 33.153125 380.006308 
L 849.276875 380.006308 
" clip-path="url(#p5f2e7da5a3)" style="fill: none; stroke-dasharray: 1.85,0.8; stroke-dashoffset: 0; stroke: #b2b2b2; stroke-opacity: 0.3; stroke-width: 0.5"/>
     </g>
     <g id="line2d_12">
      <defs>
       <path id="m0160fd943f" d="M 0 0 
L 3.5 0 
" style="stroke: #000000; stroke-width: 0.8"/>
      </defs>
      <g>
       <use xlink:href="#m0160fd943f" x="33.153125" y="380.006308" style="stroke: #000000; stroke-width: 0.8"/>
      </g>
     </g>
     <g id="text_7">
      <!-- -3 -->
      <g transform="translate(20.653125 383.100058) scale(0.09 -0.09)">
       <defs>
        <path id="SimHei-2d" d="M 2975 2125 
L 125 2125 
L 125 2525 
L 2975 2525 
L 2975 2125 
z
" transform="scale(0.015625)"/>
        <path id="SimHei-33" d="M 250 1225 
L 700 1300 
Q 800 975 1025 762 
Q 1250 550 1587 562 
Q 1925 575 2125 837 
Q 2325 1100 2300 1437 
Q 2275 1775 2037 1962 
Q 1800 2150 1275 2225 
L 1275 2550 
Q 1800 2600 2037 2825 
Q 2275 3050 2250 3412 
Q 2225 3775 1925 3937 
Q 1625 4100 1287 3975 
Q 950 3850 750 3275 
L 300 3350 
Q 450 3800 712 4100 
Q 975 4400 1425 4450 
Q 1875 4500 2212 4337 
Q 2550 4175 2687 3837 
Q 2825 3500 2725 3100 
Q 2625 2700 2150 2400 
Q 2500 2250 2687 1950 
Q 2875 1650 2812 1162 
Q 2750 675 2375 375 
Q 2000 75 1525 87 
Q 1050 100 700 387 
Q 350 675 250 1225 
z
" transform="scale(0.015625)"/>
       </defs>
       <use xlink:href="#SimHei-2d"/>
       <use xlink:href="#SimHei-33" transform="translate(50 0)"/>
      </g>
     </g>
    </g>
    <g id="ytick_2">
     <g id="line2d_13">
      <path d="M 33.153125 323.221349 
L 849.276875 323.221349 
" clip-path="url(#p5f2e7da5a3)" style="fill: none; stroke-dasharray: 1.85,0.8; stroke-dashoffset: 0; stroke: #b2b2b2; stroke-opacity: 0.3; stroke-width: 0.5"/>
     </g>
     <g id="line2d_14">
      <g>
       <use xlink:href="#m0160fd943f" x="33.153125" y="323.221349" style="stroke: #000000; stroke-width: 0.8"/>
      </g>
     </g>
     <g id="text_8">
      <!-- -2 -->
      <g transform="translate(20.653125 326.315099) scale(0.09 -0.09)">
       <use xlink:href="#SimHei-2d"/>
       <use xlink:href="#SimHei-32" transform="translate(50 0)"/>
      </g>
     </g>
    </g>
    <g id="ytick_3">
     <g id="line2d_15">
      <path d="M 33.153125 266.436389 
L 849.276875 266.436389 
" clip-path="url(#p5f2e7da5a3)" style="fill: none; stroke-dasharray: 1.85,0.8; stroke-dashoffset: 0; stroke: #b2b2b2; stroke-opacity: 0.3; stroke-width: 0.5"/>
     </g>
     <g id="line2d_16">
      <g>
       <use xlink:href="#m0160fd943f" x="33.153125" y="266.436389" style="stroke: #000000; stroke-width: 0.8"/>
      </g>
     </g>
     <g id="text_9">
      <!-- -1 -->
      <g transform="translate(20.653125 269.530139) scale(0.09 -0.09)">
       <use xlink:href="#SimHei-2d"/>
       <use xlink:href="#SimHei-31" transform="translate(50 0)"/>
      </g>
     </g>
    </g>
    <g id="ytick_4">
     <g id="line2d_17">
      <path d="M 33.153125 209.65143 
L 849.276875 209.65143 
" clip-path="url(#p5f2e7da5a3)" style="fill: none; stroke-dasharray: 1.85,0.8; stroke-dashoffset: 0; stroke: #b2b2b2; stroke-opacity: 0.3; stroke-width: 0.5"/>
     </g>
     <g id="line2d_18">
      <g>
       <use xlink:href="#m0160fd943f" x="33.153125" y="209.65143" style="stroke: #000000; stroke-width: 0.8"/>
      </g>
     </g>
     <g id="text_10">
      <!-- 0 -->
      <g transform="translate(25.153125 212.74518) scale(0.09 -0.09)">
       <use xlink:href="#SimHei-30"/>
      </g>
     </g>
    </g>
    <g id="ytick_5">
     <g id="line2d_19">
      <path d="M 33.153125 152.866471 
L 849.276875 152.866471 
" clip-path="url(#p5f2e7da5a3)" style="fill: none; stroke-dasharray: 1.85,0.8; stroke-dashoffset: 0; stroke: #b2b2b2; stroke-opacity: 0.3; stroke-width: 0.5"/>
     </g>
     <g id="line2d_20">
      <g>
       <use xlink:href="#m0160fd943f" x="33.153125" y="152.866471" style="stroke: #000000; stroke-width: 0.8"/>
      </g>
     </g>
     <g id="text_11">
      <!-- 1 -->
      <g transform="translate(25.153125 155.960221) scale(0.09 -0.09)">
       <use xlink:href="#SimHei-31"/>
      </g>
     </g>
    </g>
    <g id="ytick_6">
     <g id="line2d_21">
      <path d="M 33.153125 96.081511 
L 849.276875 96.081511 
" clip-path="url(#p5f2e7da5a3)" style="fill: none; stroke-dasharray: 1.85,0.8; stroke-dashoffset: 0; stroke: #b2b2b2; stroke-opacity: 0.3; stroke-width: 0.5"/>
     </g>
     <g id="line2d_22">
      <g>
       <use xlink:href="#m0160fd943f" x="33.153125" y="96.081511" style="stroke: #000000; stroke-width: 0.8"/>
      </g>
     </g>
     <g id="text_12">
      <!-- 2 -->
      <g transform="translate(25.153125 99.175261) scale(0.09 -0.09)">
       <use xlink:href="#SimHei-32"/>
      </g>
     </g>
    </g>
    <g id="ytick_7">
     <g id="line2d_23">
      <path d="M 33.153125 39.296552 
L 849.276875 39.296552 
" clip-path="url(#p5f2e7da5a3)" style="fill: none; stroke-dasharray: 1.85,0.8; stroke-dashoffset: 0; stroke: #b2b2b2; stroke-opacity: 0.3; stroke-width: 0.5"/>
     </g>
     <g id="line2d_24">
      <g>
       <use xlink:href="#m0160fd943f" x="33.153125" y="39.296552" style="stroke: #000000; stroke-width: 0.8"/>
      </g>
     </g>
     <g id="text_13">
      <!-- 3 -->
      <g transform="translate(25.153125 42.390302) scale(0.09 -0.09)">
       <use xlink:href="#SimHei-33"/>
      </g>
     </g>
    </g>
    <g id="text_14">
     <!-- 差分后的 pH 值 -->
     <g transform="translate(15.403125 244.765) rotate(-90) scale(0.1 -0.1)">
      <defs>
       <path id="SimHei-5dee" d="M 4725 4975 
Q 4500 4725 4250 4275 
L 4850 4275 
Q 5450 4275 5825 4300 
L 5825 3850 
Q 5425 3875 4850 3875 
L 3275 3875 
Q 3225 3600 3150 3275 
L 4525 3275 
Q 5075 3275 5525 3300 
L 5525 2850 
Q 5075 2875 4500 2875 
L 3050 2875 
Q 2975 2650 2850 2325 
L 5125 2325 
Q 5675 2325 6025 2350 
L 6025 1900 
Q 5700 1925 5150 1925 
L 2650 1925 
Q 2425 1550 2250 1300 
Q 2650 1275 3100 1275 
L 4525 1275 
Q 4975 1275 5350 1300 
L 5350 850 
Q 4975 875 4575 875 
L 3925 875 
L 3925 -50 
L 5000 -50 
Q 5200 -50 5900 -25 
L 5900 -500 
Q 5275 -475 5025 -475 
L 2100 -475 
Q 1700 -475 1400 -500 
L 1400 -25 
Q 1775 -50 2125 -50 
L 3425 -50 
L 3425 875 
L 3100 875 
Q 2625 875 2175 850 
L 2175 1200 
Q 1925 875 1487 475 
Q 1050 75 625 -250 
Q 425 -25 200 150 
Q 750 475 1262 925 
Q 1775 1375 2100 1925 
L 1325 1925 
Q 750 1925 375 1900 
L 375 2350 
Q 750 2325 1350 2325 
L 2325 2325 
Q 2450 2575 2550 2875 
L 1725 2875 
Q 1375 2875 1000 2850 
L 1000 3300 
Q 1500 3275 1700 3275 
L 2650 3275 
Q 2725 3575 2775 3875 
L 1500 3875 
Q 1100 3875 650 3850 
L 650 4300 
Q 1025 4275 1425 4275 
L 2275 4275 
Q 2075 4675 1850 4950 
Q 2025 5050 2250 5225 
Q 2450 4975 2725 4550 
Q 2525 4450 2325 4275 
L 3750 4275 
Q 4000 4700 4150 5250 
Q 4400 5100 4725 4975 
z
" transform="scale(0.015625)"/>
       <path id="SimHei-5206" d="M 1000 -650 
Q 825 -375 575 -225 
Q 975 -75 1300 137 
Q 1625 350 1875 662 
Q 2125 975 2250 1350 
Q 2375 1725 2425 2275 
Q 1850 2275 1500 2250 
L 1500 2775 
Q 1900 2750 2525 2750 
L 5025 2750 
Q 4975 2375 4950 2100 
L 4750 250 
Q 4700 -200 4350 -350 
Q 4000 -500 3575 -525 
Q 3550 -275 3325 50 
Q 3850 25 4037 87 
Q 4225 150 4275 525 
L 4450 2275 
L 2950 2275 
Q 2875 1625 2737 1187 
Q 2600 750 2350 425 
Q 2100 100 1750 -175 
Q 1400 -450 1000 -650 
z
M 3950 5175 
Q 4125 4650 4662 3975 
Q 5200 3300 6175 2800 
Q 5975 2625 5775 2275 
Q 5325 2600 4987 2887 
Q 4650 3175 4425 3425 
Q 4200 3675 3925 4137 
Q 3650 4600 3475 5000 
Q 3750 5075 3950 5175 
z
M 2700 4825 
Q 2475 4425 2325 4125 
Q 2175 3825 2025 3587 
Q 1875 3350 1575 2950 
Q 1275 2550 850 2125 
Q 625 2350 400 2475 
Q 900 2925 1187 3300 
Q 1475 3675 1737 4112 
Q 2000 4550 2200 5075 
Q 2400 4925 2700 4825 
z
" transform="scale(0.015625)"/>
       <path id="SimHei-540e" d="M 5475 2150 
Q 5450 1750 5450 775 
Q 5450 -175 5500 -550 
L 4975 -550 
L 4975 -25 
L 2525 -25 
L 2525 -600 
L 2025 -600 
Q 2050 -175 2050 775 
Q 2050 1750 2025 2150 
L 5475 2150 
z
M 5175 5075 
Q 5300 4800 5525 4525 
Q 4950 4475 3750 4337 
Q 2550 4200 1575 4175 
L 1575 3375 
L 5200 3375 
Q 5550 3375 5975 3400 
L 5975 2900 
Q 5575 2925 5200 2925 
L 1575 2925 
Q 1550 2425 1487 1875 
Q 1425 1325 1250 712 
Q 1075 100 800 -325 
Q 650 -200 225 -50 
Q 625 325 825 1062 
Q 1025 1800 1050 2825 
Q 1075 3850 1075 4575 
Q 2300 4600 3625 4775 
Q 4950 4950 5175 5075 
z
M 4975 375 
L 4975 1725 
L 2525 1725 
L 2525 375 
L 4975 375 
z
" transform="scale(0.015625)"/>
       <path id="SimHei-7684" d="M 2100 4975 
Q 1975 4750 1750 3950 
L 2875 3950 
Q 2850 3525 2850 2875 
L 2850 675 
Q 2850 300 2875 -400 
L 2375 -400 
L 2375 100 
L 1100 100 
L 1100 -450 
L 600 -450 
Q 625 350 625 550 
L 625 2850 
Q 625 3525 600 3950 
L 1325 3950 
Q 1450 4525 1525 5150 
Q 1875 5025 2100 4975 
z
M 5825 3075 
Q 5800 1550 5700 175 
Q 5650 -275 5225 -425 
Q 4800 -575 4275 -625 
Q 4250 -350 4050 -50 
Q 4550 -75 4837 -25 
Q 5125 25 5200 200 
Q 5275 375 5312 1225 
Q 5350 2075 5375 3600 
L 3925 3600 
Q 3725 3125 3350 2475 
Q 3175 2650 2925 2750 
Q 3150 3050 3350 3475 
Q 3550 3900 3700 4400 
Q 3850 4900 3875 5175 
Q 4225 5025 4475 4950 
Q 4350 4750 4262 4512 
Q 4175 4275 4075 4050 
L 5850 4050 
Q 5825 3525 5825 3075 
z
M 2375 525 
L 2375 1850 
L 1100 1850 
L 1100 525 
L 2375 525 
z
M 2375 2275 
L 2375 3525 
L 1100 3525 
L 1100 2275 
L 2375 2275 
z
M 4350 2050 
Q 4500 1750 4700 1275 
Q 4525 1200 4225 1025 
Q 4050 1500 3900 1837 
Q 3750 2175 3600 2400 
Q 3775 2500 4050 2650 
L 4350 2050 
z
" transform="scale(0.015625)"/>
       <path id="SimHei-70" d="M 2825 1525 
Q 2825 800 2475 425 
Q 2125 50 1625 50 
Q 1350 50 1150 162 
Q 950 275 800 500 
L 800 -800 
L 300 -800 
L 300 2925 
L 800 2925 
L 800 2550 
Q 950 2775 1150 2875 
Q 1350 2975 1625 2975 
Q 2125 2975 2475 2612 
Q 2825 2250 2825 1525 
z
M 2275 1525 
Q 2275 2000 2087 2262 
Q 1900 2525 1525 2525 
Q 1225 2525 1012 2262 
Q 800 2000 800 1525 
Q 800 1050 1012 775 
Q 1225 500 1525 500 
Q 1900 500 2087 775 
Q 2275 1050 2275 1525 
z
" transform="scale(0.015625)"/>
       <path id="SimHei-48" d="M 2850 125 
L 2275 125 
L 2275 2125 
L 850 2125 
L 850 125 
L 275 125 
L 275 4400 
L 850 4400 
L 850 2600 
L 2275 2600 
L 2275 4400 
L 2850 4400 
L 2850 125 
z
" transform="scale(0.015625)"/>
       <path id="SimHei-503c" d="M 3675 4450 
L 3675 5100 
Q 3975 5075 4350 5050 
Q 4225 4875 4200 4450 
L 5125 4450 
Q 5550 4450 5875 4475 
L 5875 4025 
Q 5525 4050 5125 4050 
L 4175 4050 
L 4125 3500 
L 5400 3500 
Q 5375 3200 5375 2700 
L 5375 150 
Q 5875 150 6100 175 
L 6100 -275 
Q 5775 -250 5200 -250 
L 2850 -250 
Q 2275 -250 1900 -275 
L 1900 175 
Q 2125 150 2600 150 
L 2600 2700 
Q 2600 3175 2575 3500 
L 3600 3500 
L 3650 4050 
L 3200 4050 
Q 2575 4050 2225 4025 
L 2225 4475 
Q 2550 4450 3200 4450 
L 3675 4450 
z
M 2225 4900 
Q 2025 4675 1650 3750 
L 1650 450 
Q 1650 -75 1675 -550 
L 1150 -550 
Q 1175 -125 1175 375 
L 1175 2950 
Q 875 2450 625 2150 
Q 425 2425 250 2575 
Q 500 2825 937 3537 
Q 1375 4250 1625 5150 
Q 1975 4975 2225 4900 
z
M 4925 2650 
L 4925 3150 
L 3075 3150 
L 3075 2650 
L 4925 2650 
z
M 4925 150 
L 4925 625 
L 3075 625 
L 3075 150 
L 4925 150 
z
M 4925 1000 
L 4925 1450 
L 3075 1450 
L 3075 1000 
L 4925 1000 
z
M 4925 1825 
L 4925 2275 
L 3075 2275 
L 3075 1825 
L 4925 1825 
z
" transform="scale(0.015625)"/>
      </defs>
      <use xlink:href="#SimHei-5dee"/>
      <use xlink:href="#SimHei-5206" transform="translate(100 0)"/>
      <use xlink:href="#SimHei-540e" transform="translate(200 0)"/>
      <use xlink:href="#SimHei-7684" transform="translate(300 0)"/>
      <use xlink:href="#SimHei-20" transform="translate(400 0)"/>
      <use xlink:href="#SimHei-70" transform="translate(450 0)"/>
      <use xlink:href="#SimHei-48" transform="translate(500 0)"/>
      <use xlink:href="#SimHei-20" transform="translate(550 0)"/>
      <use xlink:href="#SimHei-503c" transform="translate(600 0)"/>
     </g>
    </g>
   </g>
   <g id="line2d_25">
    <path d="M 70.249659 211.922828 
L 70.58844 213.626377 
L 70.927221 201.701536 
L 71.266002 210.21928 
L 71.604784 214.194227 
L 71.943565 206.244333 
L 72.282346 209.65143 
L 72.621127 210.787129 
L 72.959908 210.21928 
L 73.298689 205.108633 
L 73.63747 207.947881 
L 73.976252 214.762076 
L 74.653814 207.947881 
L 74.992595 213.626377 
L 75.331376 209.08358 
L 75.670157 206.812182 
L 76.008938 207.947881 
L 76.347719 200.565837 
L 76.686501 223.84767 
L 77.025282 198.294438 
L 77.364063 209.65143 
L 77.702844 229.526166 
L 78.041625 139.80593 
L 78.380406 176.148304 
L 78.719187 199.430137 
L 79.057969 206.812182 
L 79.39675 207.380032 
L 79.735531 210.21928 
L 80.074312 207.380032 
L 80.413093 210.21928 
L 80.751874 209.08358 
L 81.090655 211.354979 
L 81.429436 218.169174 
L 81.768218 202.269385 
L 82.106999 209.65143 
L 82.44578 201.701536 
L 82.784561 222.144121 
L 83.462123 191.480243 
L 83.800904 211.354979 
L 84.139686 204.540784 
L 84.478467 222.144121 
L 84.817248 227.822617 
L 85.49481 199.997987 
L 85.833591 227.822617 
L 86.511153 198.862288 
L 86.849935 219.304873 
L 87.188716 216.465625 
L 87.527497 206.812182 
L 87.866278 218.737024 
L 88.205059 214.762076 
L 88.54384 209.08358 
L 88.882621 209.65143 
L 89.221403 209.65143 
L 89.560184 210.21928 
L 89.898965 209.08358 
L 90.237746 209.65143 
L 90.576527 209.08358 
L 90.915308 201.133686 
L 91.254089 172.741206 
L 91.59287 253.943698 
L 91.931652 207.947881 
L 92.270433 209.65143 
L 92.609214 210.21928 
L 92.947995 210.21928 
L 93.286776 210.787129 
L 93.625557 210.787129 
L 93.964338 210.21928 
L 94.641901 210.21928 
L 94.980682 209.65143 
L 95.319463 210.21928 
L 95.658244 210.21928 
L 95.997025 209.65143 
L 96.674587 209.65143 
L 97.013369 210.21928 
L 97.35215 209.65143 
L 98.707274 209.65143 
L 99.046055 209.08358 
L 99.384837 210.21928 
L 99.723618 210.21928 
L 100.40118 209.08358 
L 100.739961 209.65143 
L 101.078742 209.65143 
L 101.417523 209.08358 
L 101.756304 210.21928 
L 102.095086 209.08358 
L 102.433867 210.21928 
L 102.772648 209.65143 
L 103.111429 210.21928 
L 103.45021 209.65143 
L 103.788991 257.918646 
L 104.127772 261.75163 
L 104.466554 209.65143 
L 104.805335 209.65143 
L 105.482897 164.791312 
L 105.821678 196.590889 
L 106.160459 210.787129 
L 106.49924 185.233898 
L 106.838021 217.033475 
L 107.176803 202.269385 
L 107.515584 215.897776 
L 107.854365 201.701536 
L 108.193146 217.601324 
L 108.531927 203.972934 
L 108.870708 217.033475 
L 109.209489 202.837235 
L 109.548271 216.465625 
L 109.887052 202.269385 
L 110.225833 216.465625 
L 110.564614 210.787129 
L 110.903395 209.65143 
L 111.242176 210.787129 
L 111.919738 209.65143 
L 112.936082 209.65143 
L 113.274863 210.21928 
L 113.613644 208.515731 
L 113.952425 209.08358 
L 114.291206 210.21928 
L 114.968769 238.04391 
L 115.30755 177.851853 
L 115.646331 206.812182 
L 115.985112 210.21928 
L 116.323893 196.590889 
L 116.662674 217.033475 
L 117.001455 210.21928 
L 117.340237 209.08358 
L 117.679018 210.21928 
L 118.35658 210.21928 
L 118.695361 198.862288 
L 119.034142 218.169174 
L 119.372923 211.922828 
L 119.711705 209.08358 
L 120.050486 199.430137 
L 120.389267 217.601324 
L 120.728048 210.787129 
L 121.066829 209.08358 
L 121.40561 201.133686 
L 121.744391 218.737024 
L 122.083172 210.787129 
L 122.421954 210.21928 
L 122.760735 210.21928 
L 123.099516 199.430137 
L 123.438297 217.033475 
L 123.777078 210.787129 
L 124.115859 210.21928 
L 124.793422 210.21928 
L 125.132203 209.08358 
L 125.470984 209.65143 
L 126.487327 209.65143 
L 126.826108 210.21928 
L 127.164889 208.515731 
L 127.842452 209.65143 
L 129.197576 209.65143 
L 129.536357 209.08358 
L 129.875139 111.044348 
L 130.21392 209.65143 
L 130.552701 209.65143 
L 130.891482 375.832614 
L 131.230263 211.354979 
L 131.569044 149.800083 
L 131.907825 209.026796 
L 132.246606 209.87857 
L 132.585388 209.935355 
L 132.924169 209.594645 
L 133.26295 209.42429 
L 133.601731 209.53786 
L 133.940512 207.209677 
L 134.279293 104.570863 
L 134.618074 281.796721 
L 134.956856 243.495266 
L 135.295637 287.560394 
L 135.634418 216.63598 
L 135.973199 199.316567 
L 136.31198 218.509884 
L 136.989542 136.285263 
L 137.328323 209.765 
L 137.667105 209.53786 
L 138.005886 209.53786 
L 139.022229 209.765 
L 139.36101 209.594645 
L 139.699791 209.708215 
L 140.038573 209.594645 
L 140.716135 209.708215 
L 141.054916 209.594645 
L 141.732478 209.821785 
L 142.071259 209.367505 
L 142.41004 209.708215 
L 142.748822 209.65143 
L 143.426384 209.708215 
L 143.765165 209.594645 
L 144.103946 120.300297 
L 144.442727 322.114042 
L 144.781508 188.016361 
L 145.12029 202.950805 
L 145.459071 198.124083 
L 145.797852 205.562913 
L 146.136633 224.18838 
L 146.475414 206.982537 
L 146.814195 203.00759 
L 147.491757 232.762909 
L 147.830539 217.033475 
L 148.16932 211.014269 
L 148.508101 212.320323 
L 148.846882 209.140365 
L 149.185663 212.206753 
L 149.524444 212.604248 
L 149.863225 211.184624 
L 150.202007 211.411764 
L 150.540788 210.10571 
L 150.879569 210.10571 
L 151.21835 212.433893 
L 151.557131 210.787129 
L 151.895912 211.298194 
L 152.234693 209.765 
L 152.573474 209.765 
L 152.912256 210.559989 
L 153.251037 209.65143 
L 153.589818 209.08358 
L 153.928599 210.048925 
L 154.606161 209.19715 
L 154.944942 209.65143 
L 155.283724 210.559989 
L 155.622505 210.21928 
L 155.961286 209.708215 
L 156.300067 209.87857 
L 156.638848 209.19715 
L 156.977629 209.99214 
L 157.655191 209.65143 
L 157.993973 209.08358 
L 158.332754 209.821785 
L 158.671535 209.765 
L 159.010316 209.99214 
L 159.349097 209.53786 
L 159.687878 209.765 
L 160.026659 209.65143 
L 160.365441 209.026796 
L 160.704222 209.765 
L 161.043003 209.708215 
L 161.381784 209.53786 
L 161.720565 162.860624 
L 162.059346 215.613851 
L 162.398127 229.696521 
L 162.736908 186.994231 
L 163.07569 205.278988 
L 163.414471 204.200074 
L 163.753252 221.349132 
L 164.092033 221.292347 
L 164.769595 195.68233 
L 165.108376 227.538692 
L 165.447158 213.228883 
L 165.785939 218.055604 
L 166.12472 210.21928 
L 166.463501 215.216356 
L 166.802282 200.736191 
L 167.141063 217.714894 
L 167.479844 223.109465 
L 167.818625 197.158739 
L 168.157407 145.143716 
L 168.496188 235.658941 
L 168.834969 264.278561 
L 169.17375 204.483999 
L 169.512531 183.814274 
L 169.851312 227.709047 
L 170.190093 189.435985 
L 170.867656 230.207585 
L 171.206437 218.737024 
L 171.545218 192.729512 
L 171.883999 207.096107 
L 172.22278 228.163327 
L 172.561561 207.493602 
L 172.900342 212.320323 
L 173.239124 210.673559 
L 173.577905 210.44642 
L 173.916686 205.165418 
L 174.255467 202.32617 
L 174.594248 207.891096 
L 174.933029 211.127839 
L 175.27181 176.772939 
L 175.610592 206.585042 
L 175.949373 216.97669 
L 176.288154 210.673559 
L 176.626935 210.33285 
L 176.965716 209.367505 
L 177.304497 210.33285 
L 177.643278 224.245165 
L 177.982059 224.472304 
L 178.659622 187.278156 
L 178.998403 209.594645 
L 179.337184 209.08358 
L 179.675965 209.53786 
L 180.014746 202.89402 
L 180.353527 187.789221 
L 180.692309 210.730344 
L 181.03109 177.227218 
L 181.369871 188.981705 
L 181.708652 235.715726 
L 182.047433 213.739947 
L 182.386214 211.809259 
L 183.063776 209.708215 
L 183.402558 210.44642 
L 183.741339 209.253935 
L 184.08012 209.821785 
L 184.418901 217.771679 
L 184.757682 246.618439 
L 185.096463 249.514472 
L 185.435244 235.999651 
L 185.774026 148.380459 
L 186.112807 175.466885 
L 186.451588 219.418443 
L 186.790369 188.12993 
L 187.12915 178.135778 
L 187.467931 228.731176 
L 187.806712 217.601324 
L 188.145493 198.635148 
L 188.484275 188.81135 
L 188.823056 227.652262 
L 189.161837 231.17293 
L 189.500618 213.626377 
L 189.839399 212.604248 
L 190.17818 211.127839 
L 190.516961 211.014269 
L 190.855743 209.367505 
L 191.194524 137.108645 
L 191.533305 254.483155 
L 191.872086 219.418443 
L 192.210867 227.992972 
L 192.549648 209.31072 
L 192.888429 210.162495 
L 193.22721 208.856441 
L 193.565992 210.44642 
L 193.904773 209.65143 
L 194.243554 199.202998 
L 194.582335 197.499449 
L 194.921116 208.970011 
L 195.259897 210.048925 
L 195.598678 209.99214 
L 195.93746 209.53786 
L 196.615022 209.594645 
L 196.953803 209.765 
L 197.292584 209.42429 
L 197.631365 210.389635 
L 198.308927 198.294438 
L 198.647709 209.08358 
L 198.98649 210.10571 
L 199.325271 209.253935 
L 199.664052 213.399237 
L 200.002833 172.088179 
L 200.341614 282.81885 
L 200.680395 209.594645 
L 201.019177 185.006758 
L 201.357958 198.862288 
L 201.696739 234.750382 
L 202.03552 217.20383 
L 202.374301 211.582119 
L 202.713082 209.08358 
L 203.051863 210.503204 
L 203.390644 203.972934 
L 203.729426 206.585042 
L 204.068207 206.244333 
L 204.406988 213.967087 
L 204.745769 204.200074 
L 205.08455 203.518654 
L 205.423331 209.253935 
L 205.762112 211.241409 
L 206.100894 219.645583 
L 206.439675 207.493602 
L 206.778456 213.058528 
L 207.117237 209.19715 
L 207.456018 211.298194 
L 207.794799 207.891096 
L 208.13358 203.23473 
L 208.472361 205.222203 
L 208.811143 204.824709 
L 209.149924 204.711139 
L 209.488705 213.342452 
L 209.827486 211.127839 
L 210.166267 206.301117 
L 210.505048 214.648507 
L 210.843829 213.626377 
L 211.182611 209.367505 
L 211.521392 209.99214 
L 211.860173 201.076901 
L 212.198954 216.52241 
L 212.537735 226.062283 
L 212.876516 213.569592 
L 213.215297 215.386711 
L 213.554078 210.389635 
L 213.89286 207.607172 
L 214.231641 193.127007 
L 214.570422 199.827632 
L 214.909203 212.433893 
L 215.247984 208.231806 
L 215.586765 209.65143 
L 215.925546 215.727421 
L 216.264328 231.627209 
L 216.603109 213.058528 
L 216.94189 208.629301 
L 217.280671 211.298194 
L 217.619452 194.319491 
L 218.297014 218.737024 
L 218.635795 210.900699 
L 218.974577 213.172098 
L 219.313358 209.140365 
L 219.99092 210.276065 
L 220.329701 210.162495 
L 220.668482 209.708215 
L 221.007263 211.582119 
L 221.346045 210.276065 
L 221.684826 125.978792 
L 222.023607 300.535758 
L 222.362388 209.42429 
L 223.03995 210.33285 
L 223.378731 210.503204 
L 223.717512 209.42429 
L 224.056294 210.559989 
L 224.395075 208.742871 
L 224.733856 203.00759 
L 225.072637 215.784206 
L 225.411418 209.481075 
L 226.08898 209.367505 
L 226.427762 209.42429 
L 227.105324 210.503204 
L 227.444105 209.19715 
L 227.782886 210.048925 
L 228.121667 210.503204 
L 228.460448 210.559989 
L 228.799229 224.472304 
L 229.138011 207.380032 
L 229.476792 205.790053 
L 229.815573 208.856441 
L 230.154354 210.787129 
L 230.493135 209.765 
L 230.831916 106.955831 
L 231.170697 304.851414 
L 231.509479 210.957484 
L 231.84826 210.44642 
L 232.187041 222.030551 
L 232.525822 215.102786 
L 232.864603 213.115313 
L 233.203384 211.866043 
L 233.542165 211.468549 
L 233.880946 188.073146 
L 234.219728 210.787129 
L 234.558509 210.843914 
L 234.89729 209.935355 
L 235.236071 210.048925 
L 235.574852 209.821785 
L 235.913633 199.714062 
L 236.252414 184.495693 
L 236.591196 218.509884 
L 236.929977 224.983369 
L 237.268758 226.516563 
L 237.607539 203.689009 
L 237.94632 205.562913 
L 238.285101 209.65143 
L 238.623882 199.316567 
L 238.962663 175.694024 
L 239.301445 230.094015 
L 239.640226 222.598401 
L 239.979007 201.815106 
L 240.317788 195.625545 
L 240.656569 220.043078 
L 240.99535 229.299026 
L 241.334131 212.717818 
L 241.672913 204.881493 
L 242.011694 214.932431 
L 242.350475 182.621789 
L 242.689256 218.339529 
L 243.028037 210.616774 
L 243.366818 213.796732 
L 243.705599 250.593386 
L 244.04438 231.911134 
L 244.721943 160.53244 
L 245.060724 207.607172 
L 245.399505 212.320323 
L 245.738286 206.471472 
L 246.077067 209.481075 
L 246.415848 207.266462 
L 247.093411 208.118236 
L 247.770973 211.354979 
L 248.109754 214.875646 
L 248.448535 206.073978 
L 248.787316 208.629301 
L 249.126097 208.231806 
L 249.464879 206.471472 
L 249.80366 208.402161 
L 250.142441 219.872723 
L 250.481222 211.241409 
L 250.820003 208.061451 
L 251.158784 125.524513 
L 251.497565 353.2322 
L 251.836347 204.824709 
L 252.175128 197.045169 
L 252.513909 198.464793 
L 252.85269 210.44642 
L 253.191471 216.919905 
L 253.530252 203.46187 
L 253.869033 202.89402 
L 254.207814 205.733268 
L 254.546596 211.866043 
L 254.885377 203.802579 
L 255.224158 211.127839 
L 255.562939 209.65143 
L 256.240501 215.897776 
L 256.579282 215.273141 
L 257.256845 203.575439 
L 257.595626 204.483999 
L 257.934407 208.515731 
L 258.273188 209.65143 
L 258.611969 210.048925 
L 258.95075 206.698612 
L 259.289531 215.500281 
L 259.628313 218.623454 
L 259.967094 176.034734 
L 260.305875 219.702368 
L 260.983437 201.701536 
L 261.322218 251.44516 
L 261.660999 80.437255 
L 261.999781 337.843476 
L 262.338562 186.880661 
L 263.016124 221.576272 
L 263.354905 203.12116 
L 263.693686 209.65143 
L 264.032467 221.803411 
L 264.371248 157.522837 
L 264.71003 253.886913 
L 265.048811 213.683162 
L 265.387592 203.291515 
L 265.726373 211.752474 
L 266.065154 210.389635 
L 266.403935 203.859364 
L 266.742716 214.251012 
L 267.081498 209.65143 
L 267.420279 264.164991 
L 267.75906 43.697386 
L 268.097841 318.139095 
L 268.436622 225.721574 
L 268.775403 223.62053 
L 269.114184 193.694857 
L 269.452965 194.773771 
L 269.791747 213.853517 
L 270.130528 206.471472 
L 270.469309 205.903623 
L 270.80809 204.711139 
L 271.146871 197.953728 
L 271.485652 241.564577 
L 271.824433 211.241409 
L 272.163215 206.017193 
L 272.501996 202.610095 
L 272.840777 211.071054 
L 273.179558 214.307797 
L 273.518339 223.677315 
L 273.85712 195.7959 
L 274.195901 205.619698 
L 274.534682 222.200906 
L 274.873464 187.505296 
L 275.212245 218.509884 
L 275.551026 220.781282 
L 275.889807 206.812182 
L 276.228588 217.601324 
L 276.567369 206.244333 
L 276.90615 212.036398 
L 277.244932 197.215524 
L 277.583713 211.127839 
L 278.261275 200.509052 
L 278.600056 215.216356 
L 278.938837 214.989216 
L 279.277618 206.017193 
L 279.616399 212.490678 
L 279.955181 211.468549 
L 280.293962 202.269385 
L 280.971524 213.512807 
L 281.310305 199.032643 
L 281.649086 115.274828 
L 281.987867 324.073123 
L 282.326649 199.714062 
L 282.66543 202.496525 
L 283.004211 207.891096 
L 283.342992 207.777526 
L 283.681773 206.755397 
L 284.020554 219.134518 
L 284.359335 198.408008 
L 285.036898 212.320323 
L 285.375679 199.089428 
L 285.71446 208.686086 
L 286.053241 212.944958 
L 286.392022 203.064375 
L 286.730803 207.039322 
L 287.069584 207.834311 
L 287.408366 201.758321 
L 287.747147 220.610927 
L 288.085928 220.043078 
L 288.424709 205.392558 
L 288.76349 235.658941 
L 289.441052 186.937446 
L 289.779833 203.575439 
L 290.118615 213.626377 
L 290.457396 206.698612 
L 290.796177 221.633057 
L 291.134958 226.686918 
L 291.473739 209.87857 
L 291.81252 211.411764 
L 292.151301 208.288591 
L 292.490083 217.885249 
L 292.828864 212.831388 
L 293.167645 221.462702 
L 293.845207 206.357902 
L 294.183988 210.276065 
L 294.522769 193.524502 
L 294.86155 204.256859 
L 295.200332 209.140365 
L 295.539113 191.650598 
L 295.877894 220.554142 
L 296.216675 212.433893 
L 296.555456 211.809259 
L 296.894237 216.238485 
L 297.233018 207.209677 
L 297.5718 203.3483 
L 297.910581 211.014269 
L 298.249362 211.979613 
L 298.588143 205.619698 
L 298.926924 205.108633 
L 299.265705 212.377108 
L 299.943267 211.411764 
L 300.282049 213.512807 
L 300.62083 202.837235 
L 301.298392 218.453099 
L 301.637173 207.891096 
L 301.975954 201.815106 
L 302.314735 220.213433 
L 302.653517 195.22805 
L 302.992298 233.728253 
L 303.331079 236.624286 
L 303.66986 152.468976 
L 304.347422 224.018025 
L 305.024984 203.802579 
L 305.363766 209.935355 
L 305.702547 201.701536 
L 306.041328 221.292347 
L 306.380109 209.253935 
L 306.71889 213.115313 
L 307.057671 214.421367 
L 307.396452 211.809259 
L 308.074015 203.00759 
L 308.412796 209.65143 
L 308.751577 211.809259 
L 309.090358 210.503204 
L 309.76792 215.557066 
L 310.106701 204.711139 
L 310.445483 209.708215 
L 310.784264 212.036398 
L 311.123045 215.216356 
L 311.461826 211.922828 
L 311.800607 216.806335 
L 312.139388 215.613851 
L 312.478169 206.244333 
L 312.81695 210.44642 
L 313.155732 210.44642 
L 313.494513 210.843914 
L 313.833294 208.175021 
L 314.172075 204.483999 
L 314.510856 202.2126 
L 314.849637 213.569592 
L 315.5272 211.241409 
L 315.865981 208.175021 
L 316.204762 192.672727 
L 316.543543 237.873555 
L 316.882324 198.351223 
L 317.221105 196.931599 
L 317.559886 211.127839 
L 317.898667 211.809259 
L 318.237449 207.947881 
L 318.57623 210.21928 
L 318.915011 208.118236 
L 319.253792 212.604248 
L 319.592573 120.215119 
L 319.931354 279.553715 
L 320.270135 211.525334 
L 320.608917 207.493602 
L 320.947698 201.304041 
L 321.286479 214.762076 
L 321.62526 210.900699 
L 321.964041 210.730344 
L 322.302822 211.752474 
L 322.641603 206.301117 
L 322.980384 226.402993 
L 323.319166 207.550387 
L 323.657947 202.269385 
L 323.996728 215.273141 
L 324.335509 210.162495 
L 324.67429 209.594645 
L 325.013071 208.175021 
L 325.351852 210.389635 
L 325.690634 210.559989 
L 326.029415 213.569592 
L 326.368196 194.319491 
L 326.706977 219.020948 
L 327.045758 206.130763 
L 327.384539 215.046001 
L 327.72332 219.702368 
L 328.400883 191.423458 
L 328.739664 214.364582 
L 329.078445 214.591722 
L 329.417226 208.175021 
L 329.756007 214.137442 
L 330.094788 210.616774 
L 330.433569 211.071054 
L 330.772351 204.654354 
L 331.111132 205.676483 
L 331.449913 211.468549 
L 331.788694 214.307797 
L 332.127475 207.493602 
L 332.466256 203.745794 
L 333.143818 213.456022 
L 333.4826 204.483999 
L 333.821381 209.594645 
L 334.160162 208.742871 
L 334.498943 210.389635 
L 334.837724 210.843914 
L 335.176505 211.922828 
L 335.515286 204.427214 
L 335.854068 199.770847 
L 336.192849 224.41552 
L 336.53163 206.130763 
L 337.209192 208.686086 
L 337.547973 209.140365 
L 337.886754 205.562913 
L 338.225535 211.014269 
L 338.564317 224.699444 
L 338.903098 199.997987 
L 339.241879 204.143289 
L 339.58066 210.33285 
L 339.919441 202.43974 
L 340.258222 208.913226 
L 340.597003 219.702368 
L 340.935785 215.216356 
L 341.274566 213.399237 
L 341.613347 201.587966 
L 341.952128 203.745794 
L 342.290909 204.711139 
L 342.62969 206.130763 
L 342.968471 209.53786 
L 343.307252 200.906546 
L 343.646034 226.686918 
L 343.984815 202.89402 
L 344.323596 209.19715 
L 344.662377 212.944958 
L 345.001158 207.663957 
L 345.339939 214.023872 
L 345.67872 230.37794 
L 346.017502 203.632224 
L 346.356283 208.970011 
L 346.695064 207.493602 
L 347.033845 207.323247 
L 347.372626 214.251012 
L 347.711407 225.040154 
L 348.050188 206.641827 
L 348.388969 209.367505 
L 348.727751 213.001743 
L 349.066532 210.673559 
L 349.405313 211.298194 
L 349.744094 217.3174 
L 350.082875 214.818861 
L 350.421656 210.21928 
L 350.760437 209.765 
L 351.099219 209.594645 
L 351.438 209.65143 
L 352.115562 197.840159 
L 352.454343 195.284835 
L 352.793124 205.562913 
L 353.131905 212.149968 
L 353.470686 224.813014 
L 353.809468 224.585874 
L 354.148249 207.891096 
L 354.48703 217.20383 
L 354.825811 221.292347 
L 355.164592 214.875646 
L 355.842154 192.161663 
L 356.180936 181.48609 
L 356.519717 231.797564 
L 356.858498 201.304041 
L 357.197279 215.727421 
L 357.53606 216.579195 
L 357.874841 213.967087 
L 358.213622 207.096107 
L 358.552403 213.853517 
L 358.891185 206.130763 
L 359.568747 215.273141 
L 359.907528 206.414687 
L 360.246309 214.762076 
L 360.58509 202.155815 
L 360.923871 205.278988 
L 361.262653 202.610095 
L 361.601434 201.644751 
L 361.940215 213.001743 
L 362.278996 213.853517 
L 362.617777 205.335773 
L 362.956558 204.313644 
L 363.295339 203.802579 
L 363.63412 204.086504 
L 363.972902 209.367505 
L 364.311683 211.922828 
L 364.650464 218.339529 
L 365.328026 212.377108 
L 365.666807 237.02178 
L 366.005588 190.060619 
L 366.34437 174.2744 
L 366.683151 226.630133 
L 367.360713 201.076901 
L 367.699494 209.481075 
L 368.038275 205.335773 
L 368.715837 210.730344 
L 369.054619 217.771679 
L 369.3934 210.787129 
L 369.732181 209.65143 
L 370.070962 209.253935 
L 370.409743 214.023872 
L 370.748524 211.071054 
L 371.087305 222.257691 
L 371.426087 206.017193 
L 371.764868 202.09903 
L 372.103649 208.402161 
L 372.44243 212.149968 
L 372.781211 207.493602 
L 373.119992 207.607172 
L 373.458773 218.282744 
L 373.797554 218.907378 
L 374.136336 218.623454 
L 374.813898 189.435985 
L 375.152679 207.720741 
L 375.49146 213.626377 
L 375.830241 238.952469 
L 376.169022 191.537028 
L 376.507804 174.50154 
L 377.185366 250.99088 
L 377.524147 210.048925 
L 377.862928 210.730344 
L 378.201709 210.559989 
L 378.54049 208.572516 
L 378.879271 192.445587 
L 379.218053 191.991308 
L 379.556834 206.073978 
L 379.895615 211.752474 
L 380.234396 212.206753 
L 380.573177 218.339529 
L 380.911958 213.910302 
L 381.250739 212.377108 
L 381.589521 204.711139 
L 381.928302 213.058528 
L 382.267083 208.970011 
L 382.605864 215.216356 
L 382.944645 212.831388 
L 383.283426 209.31072 
L 383.622207 192.388802 
L 383.960988 214.762076 
L 384.29977 208.175021 
L 384.638551 205.449343 
L 384.977332 213.058528 
L 385.316113 200.338697 
L 385.654894 216.97669 
L 385.993675 209.19715 
L 386.332456 218.850593 
L 386.671238 211.809259 
L 387.010019 220.156648 
L 387.3488 206.187548 
L 387.687581 208.004666 
L 388.026362 201.247256 
L 388.365143 239.690674 
L 388.703924 213.342452 
L 389.042705 209.31072 
L 389.381487 210.389635 
L 389.720268 211.014269 
L 390.059049 205.960408 
L 390.39783 207.323247 
L 390.736611 212.433893 
L 391.075392 209.65143 
L 391.414173 208.799656 
L 391.752955 210.276065 
L 392.091736 210.843914 
L 392.430517 209.99214 
L 392.769298 204.200074 
L 393.108079 195.22805 
L 393.44686 211.071054 
L 393.785641 208.458946 
L 394.124422 202.610095 
L 394.801985 217.033475 
L 395.140766 209.367505 
L 395.479547 218.225959 
L 396.157109 212.831388 
L 396.49589 211.071054 
L 396.834672 211.525334 
L 397.173453 209.821785 
L 397.512234 167.63056 
L 397.851015 223.05268 
L 398.189796 220.554142 
L 398.528577 204.427214 
L 398.867358 207.209677 
L 399.206139 221.008422 
L 399.883702 196.761244 
L 400.222483 208.402161 
L 400.561264 208.061451 
L 400.900045 209.65143 
L 401.238826 228.220112 
L 401.577607 201.417611 
L 401.916389 202.269385 
L 402.25517 211.582119 
L 402.593951 213.853517 
L 402.932732 203.177945 
L 403.271513 207.663957 
L 403.610294 198.294438 
L 403.949075 230.49151 
L 404.287856 215.670636 
L 404.626638 209.594645 
L 404.965419 209.708215 
L 405.3042 210.503204 
L 405.642981 208.402161 
L 405.981762 210.389635 
L 406.320543 210.33285 
L 406.659324 209.31072 
L 406.998106 184.495693 
L 407.336887 201.133686 
L 407.675668 199.997987 
L 408.014449 227.936187 
L 408.692011 203.064375 
L 409.030792 207.493602 
L 409.369573 203.3483 
L 410.047136 225.721574 
L 410.385917 208.458946 
L 410.724698 207.152892 
L 411.063479 203.12116 
L 411.40226 206.471472 
L 411.741041 211.525334 
L 412.079823 213.853517 
L 412.418604 224.131595 
L 412.757385 209.53786 
L 413.096166 208.686086 
L 413.434947 206.982537 
L 413.773728 214.478152 
L 414.112509 217.658109 
L 414.45129 208.742871 
L 414.790072 195.966255 
L 415.128853 220.554142 
L 415.467634 210.673559 
L 415.806415 208.118236 
L 416.145196 215.329926 
L 416.483977 209.594645 
L 416.822758 217.771679 
L 417.16154 202.723665 
L 417.500321 205.108633 
L 417.839102 217.3174 
L 418.177883 211.468549 
L 418.516664 173.479411 
L 418.855445 232.535769 
L 419.194226 217.374185 
L 419.533007 194.433061 
L 419.871789 226.914058 
L 420.21057 225.891928 
L 420.549351 192.104878 
L 420.888132 188.12993 
L 421.226913 209.53786 
L 421.565694 213.399237 
L 421.904475 212.206753 
L 422.243257 219.361658 
L 422.582038 203.745794 
L 422.920819 213.796732 
L 423.2596 209.140365 
L 423.598381 217.998819 
L 423.937162 210.389635 
L 424.614724 204.483999 
L 424.953506 213.456022 
L 425.292287 212.206753 
L 425.631068 207.209677 
L 425.969849 222.484831 
L 426.30863 206.017193 
L 426.647411 209.140365 
L 426.986192 208.175021 
L 427.324974 208.629301 
L 427.663755 207.096107 
L 428.002536 212.377108 
L 428.341317 215.159571 
L 428.680098 212.433893 
L 429.018879 176.659369 
L 429.35766 247.697353 
L 429.696441 208.572516 
L 430.035223 208.629301 
L 430.374004 208.231806 
L 430.712785 209.99214 
L 431.051566 207.947881 
L 431.390347 201.247256 
L 431.729128 202.382955 
L 432.067909 194.489846 
L 432.406691 191.196318 
L 432.745472 230.71865 
L 433.084253 214.080657 
L 433.423034 212.206753 
L 433.761815 209.08358 
L 434.100596 210.44642 
L 434.439377 206.585042 
L 434.778158 213.115313 
L 435.11694 208.515731 
L 435.455721 208.061451 
L 435.794502 210.33285 
L 436.133283 213.399237 
L 436.472064 209.19715 
L 436.810845 209.935355 
L 437.149626 208.118236 
L 437.488408 212.944958 
L 437.827189 205.960408 
L 438.16597 206.641827 
L 438.504751 209.026796 
L 438.843532 214.364582 
L 439.182313 209.65143 
L 439.521094 188.413855 
L 439.859875 234.920737 
L 440.198657 205.449343 
L 440.537438 213.512807 
L 440.876219 193.921996 
L 441.215 215.443496 
L 441.553781 195.966255 
L 441.892562 218.793809 
L 442.231343 207.436817 
L 442.570125 210.389635 
L 442.908906 215.727421 
L 443.247687 204.767924 
L 443.586468 222.939111 
L 443.925249 209.65143 
L 444.26403 264.448916 
L 444.602811 148.380459 
L 444.941592 192.332017 
L 445.280374 214.307797 
L 445.619155 207.550387 
L 445.957936 219.077733 
L 446.296717 214.251012 
L 446.635498 207.152892 
L 446.974279 223.05268 
L 447.31306 207.947881 
L 447.651842 214.648507 
L 447.990623 231.2865 
L 448.668185 186.312812 
L 449.006966 197.215524 
L 449.345747 222.995896 
L 449.684528 184.552478 
L 450.023309 242.700276 
L 450.362091 212.717818 
L 450.700872 212.888173 
L 451.039653 196.079825 
L 451.378434 211.298194 
L 451.717215 207.891096 
L 452.055996 213.512807 
L 452.394777 209.08358 
L 452.733559 211.241409 
L 453.07234 215.613851 
L 453.411121 206.641827 
L 453.749902 207.380032 
L 454.088683 200.906546 
L 454.427464 209.481075 
L 454.766245 208.402161 
L 455.105026 206.357902 
L 455.443808 217.942034 
L 455.782589 211.582119 
L 456.12137 209.253935 
L 456.460151 212.263538 
L 456.798932 210.389635 
L 457.137713 193.183792 
L 457.476494 213.910302 
L 457.815276 210.048925 
L 458.154057 209.87857 
L 458.492838 219.986293 
L 458.831619 205.108633 
L 459.1704 211.298194 
L 459.509181 210.843914 
L 459.847962 183.757489 
L 460.186743 240.144953 
L 460.525525 207.550387 
L 460.864306 208.515731 
L 461.203087 207.891096 
L 461.541868 199.600492 
L 461.880649 210.503204 
L 462.21943 209.53786 
L 462.558211 204.824709 
L 462.896993 211.695689 
L 463.235774 209.708215 
L 463.574555 209.253935 
L 463.913336 213.342452 
L 464.252117 203.632224 
L 464.590898 210.44642 
L 464.929679 209.026796 
L 465.26846 210.616774 
L 465.607242 208.231806 
L 465.946023 208.686086 
L 466.623585 187.675651 
L 466.962366 194.092351 
L 467.301147 237.078565 
L 467.639928 190.969178 
L 467.97871 213.228883 
L 468.317491 212.547463 
L 468.656272 210.21928 
L 468.995053 200.452267 
L 469.333834 216.86312 
L 469.672615 209.708215 
L 470.011396 215.727421 
L 470.350177 226.005498 
L 470.688959 226.573348 
L 471.02774 186.596737 
L 471.366521 218.282744 
L 471.705302 225.494434 
L 472.044083 214.137442 
L 472.382864 206.812182 
L 472.721645 206.130763 
L 473.060427 211.752474 
L 473.399208 219.248088 
L 474.07677 188.92492 
L 474.415551 221.292347 
L 474.754332 201.758321 
L 475.093113 217.09026 
L 475.431894 206.073978 
L 475.770676 220.270217 
L 476.109457 210.787129 
L 476.448238 208.118236 
L 476.787019 189.663124 
L 477.1258 217.771679 
L 477.464581 218.169174 
L 477.803362 212.661033 
L 478.142144 210.730344 
L 478.480925 209.765 
L 478.819706 204.995063 
L 479.158487 205.449343 
L 479.497268 185.177113 
L 479.836049 229.355811 
L 480.17483 213.796732 
L 480.513611 220.440572 
L 480.852393 200.622622 
L 481.191174 212.377108 
L 481.529955 203.859364 
L 481.868736 215.386711 
L 482.207517 201.928676 
L 482.546298 199.827632 
L 482.885079 212.320323 
L 483.223861 218.850593 
L 483.562642 203.518654 
L 483.901423 204.824709 
L 484.240204 218.907378 
L 484.578985 202.496525 
L 484.917766 207.152892 
L 485.256547 203.12116 
L 485.595328 203.291515 
L 485.93411 214.989216 
L 486.272891 249.628041 
L 486.950453 174.047261 
L 487.289234 199.259783 
L 487.628015 235.715726 
L 487.966796 207.436817 
L 488.305578 219.588798 
L 488.98314 181.315735 
L 489.321921 233.387543 
L 489.660702 178.306133 
L 489.999483 230.1508 
L 490.338264 221.292347 
L 490.677045 193.410932 
L 491.015827 202.723665 
L 491.354608 236.567501 
L 491.693389 227.936187 
L 492.03217 188.12993 
L 492.370951 189.549554 
L 492.709732 205.392558 
L 493.048513 211.525334 
L 493.387295 237.81677 
L 493.726076 225.096939 
L 494.064857 188.527425 
L 494.403638 217.544539 
L 494.742419 203.745794 
L 495.0812 205.165418 
L 495.419981 218.907378 
L 495.758762 200.395482 
L 496.097544 211.298194 
L 496.436325 216.011346 
L 496.775106 213.910302 
L 497.113887 208.345376 
L 497.791449 209.99214 
L 498.13023 214.023872 
L 498.469012 204.143289 
L 498.807793 205.051848 
L 499.146574 198.464793 
L 499.485355 213.172098 
L 499.824136 210.787129 
L 500.162917 197.896943 
L 500.501698 224.018025 
L 500.840479 207.947881 
L 501.179261 212.717818 
L 501.518042 226.175853 
L 501.856823 203.064375 
L 502.534385 215.273141 
L 502.873166 204.654354 
L 503.211947 207.380032 
L 503.550729 203.575439 
L 503.88951 213.228883 
L 504.228291 196.306965 
L 504.567072 216.06813 
L 504.905853 213.058528 
L 505.583415 204.200074 
L 505.922196 184.893188 
L 506.260978 214.534937 
L 506.599759 221.746626 
L 506.93854 208.515731 
L 507.277321 207.550387 
L 507.616102 210.559989 
L 507.954883 201.020116 
L 508.293664 214.307797 
L 508.632446 201.076901 
L 508.971227 216.06813 
L 509.310008 209.99214 
L 509.648789 201.815106 
L 509.98757 226.686918 
L 510.326351 214.534937 
L 510.665132 215.670636 
L 511.003913 191.366673 
L 511.342695 227.425122 
L 511.681476 212.604248 
L 512.359038 199.316567 
L 512.697819 212.149968 
L 513.0366 213.172098 
L 513.375381 215.840991 
L 513.714163 198.635148 
L 514.052944 212.547463 
L 514.391725 218.737024 
L 514.730506 202.55331 
L 515.069287 212.717818 
L 515.408068 213.853517 
L 515.746849 193.751641 
L 516.08563 219.815938 
L 516.424412 204.483999 
L 516.763193 205.676483 
L 517.101974 195.171265 
L 517.440755 214.421367 
L 517.779536 202.43974 
L 518.118317 217.09026 
L 518.457098 217.885249 
L 518.79588 200.452267 
L 519.134661 213.115313 
L 519.473442 207.436817 
L 520.151004 216.29527 
L 520.489785 191.196318 
L 520.828566 240.485663 
L 521.167347 213.626377 
L 521.506129 207.891096 
L 521.84491 212.604248 
L 522.183691 205.335773 
L 522.522472 211.184624 
L 522.861253 214.534937 
L 523.200034 210.957484 
L 523.538815 219.134518 
L 523.877597 204.200074 
L 524.216378 212.206753 
L 524.555159 205.790053 
L 524.89394 211.468549 
L 525.232721 207.039322 
L 525.571502 209.026796 
L 525.910283 212.944958 
L 526.249064 208.856441 
L 526.587846 207.663957 
L 526.926627 211.411764 
L 527.265408 210.276065 
L 527.604189 209.594645 
L 527.94297 212.377108 
L 528.281751 214.080657 
L 528.620532 206.471472 
L 528.959314 206.017193 
L 529.298095 200.622622 
L 529.636876 208.118236 
L 529.975657 221.633057 
L 530.314438 207.436817 
L 530.653219 183.871059 
L 530.992 239.349964 
L 531.330781 210.787129 
L 531.669563 207.096107 
L 532.008344 214.364582 
L 532.347125 202.042246 
L 532.685906 207.834311 
L 533.024687 211.184624 
L 533.363468 210.162495 
L 533.702249 210.559989 
L 534.041031 206.357902 
L 534.379812 207.891096 
L 534.718593 214.591722 
L 535.396155 205.790053 
L 535.734936 208.345376 
L 536.073717 212.206753 
L 536.412498 212.206753 
L 536.75128 205.051848 
L 537.090061 215.273141 
L 537.428842 214.932431 
L 537.767623 212.320323 
L 538.106404 204.370429 
L 538.445185 216.52241 
L 538.783966 211.071054 
L 539.122748 211.411764 
L 539.461529 205.790053 
L 539.80031 210.957484 
L 540.139091 211.184624 
L 540.477872 162.235989 
L 540.816653 249.855181 
L 541.155434 213.739947 
L 541.494215 213.115313 
L 541.832997 216.52241 
L 542.171778 209.99214 
L 542.510559 210.276065 
L 542.84934 204.824709 
L 543.188121 203.46187 
L 543.526902 206.073978 
L 543.865683 209.594645 
L 544.204465 204.483999 
L 544.543246 216.29527 
L 544.882027 208.629301 
L 545.220808 213.796732 
L 545.559589 200.281912 
L 545.89837 210.21928 
L 546.237151 211.127839 
L 546.575932 215.727421 
L 546.914714 210.276065 
L 547.253495 212.774603 
L 547.592276 217.20383 
L 548.269838 175.239745 
L 548.608619 228.844746 
L 548.9474 216.579195 
L 549.286182 219.361658 
L 549.624963 209.935355 
L 549.963744 207.493602 
L 550.302525 217.544539 
L 550.641306 197.896943 
L 550.980087 213.910302 
L 551.318868 189.947049 
L 551.657649 225.494434 
L 551.996431 222.257691 
L 552.335212 210.10571 
L 552.673993 211.638904 
L 553.012774 205.392558 
L 553.351555 208.402161 
L 553.690336 206.641827 
L 554.029117 206.585042 
L 554.367899 207.096107 
L 554.70668 220.838067 
L 555.045461 211.354979 
L 555.384242 214.591722 
L 555.723023 200.622622 
L 556.061804 209.765 
L 556.400585 213.456022 
L 557.078148 183.927843 
L 557.416929 224.529089 
L 557.75571 199.486922 
L 558.094491 215.046001 
L 558.433272 219.986293 
L 558.772053 211.411764 
L 559.110834 218.509884 
L 559.449616 218.169174 
L 560.127178 205.108633 
L 560.465959 208.515731 
L 560.80474 193.127007 
L 561.143521 207.947881 
L 561.482302 200.736191 
L 561.821083 230.60508 
L 562.159865 204.256859 
L 562.498646 215.386711 
L 562.837427 209.026796 
L 563.176208 215.102786 
L 563.514989 206.301117 
L 563.85377 209.821785 
L 564.192551 208.515731 
L 564.531333 210.787129 
L 564.870114 211.866043 
L 565.208895 207.947881 
L 565.547676 206.187548 
L 565.886457 206.982537 
L 566.225238 210.10571 
L 566.564019 205.506128 
L 566.9028 207.039322 
L 567.241582 212.888173 
L 567.580363 198.067298 
L 567.919144 215.727421 
L 568.257925 215.557066 
L 568.596706 211.866043 
L 569.274268 210.21928 
L 569.61305 209.765 
L 569.951831 201.076901 
L 570.290612 208.118236 
L 570.629393 209.87857 
L 570.968174 200.622622 
L 571.306955 226.857273 
L 571.645736 205.449343 
L 571.984517 200.111557 
L 572.323299 207.834311 
L 572.66208 210.162495 
L 573.000861 210.389635 
L 573.339642 208.742871 
L 573.678423 91.169612 
L 574.017204 326.486484 
L 574.355985 205.449343 
L 574.694767 213.967087 
L 575.033548 205.278988 
L 575.372329 210.503204 
L 575.71111 212.547463 
L 576.049891 207.663957 
L 576.388672 204.597569 
L 576.727453 205.108633 
L 577.066234 214.932431 
L 577.405016 178.306133 
L 577.743797 208.970011 
L 578.082578 224.018025 
L 578.421359 220.327002 
L 578.76014 209.19715 
L 579.098921 194.319491 
L 579.437702 204.540784 
L 579.776483 199.997987 
L 580.115265 209.53786 
L 580.454046 208.231806 
L 580.792827 227.765832 
L 581.131608 240.883158 
L 581.80917 187.959576 
L 582.147951 216.86312 
L 582.486733 210.389635 
L 582.825514 207.607172 
L 583.164295 169.050184 
L 583.841857 224.983369 
L 584.180638 206.528257 
L 584.519419 227.822617 
L 584.8582 196.13661 
L 585.196982 203.177945 
L 585.535763 207.720741 
L 585.874544 222.768756 
L 586.552106 197.840159 
L 586.890887 223.39339 
L 587.229668 226.800488 
L 587.56845 218.339529 
L 587.907231 201.985461 
L 588.246012 217.374185 
L 588.584793 194.944126 
L 588.923574 191.253103 
L 589.262355 180.918241 
L 589.601136 230.207585 
L 589.939917 192.843082 
L 590.278699 273.704864 
L 590.61748 214.478152 
L 590.956261 193.524502 
L 591.295042 217.942034 
L 591.633823 194.830556 
L 591.972604 229.866876 
L 592.311385 209.481075 
L 592.650167 222.144121 
L 592.988948 188.527425 
L 593.327729 205.676483 
L 593.66651 212.774603 
L 594.005291 211.411764 
L 594.344072 223.62053 
L 594.682853 202.269385 
L 595.360416 218.396314 
L 595.699197 223.05268 
L 596.037978 209.594645 
L 596.376759 204.597569 
L 596.71554 210.048925 
L 597.054321 201.190471 
L 597.393102 184.609263 
L 597.731884 224.018025 
L 598.070665 193.638072 
L 598.409446 210.730344 
L 599.087008 178.646842 
L 599.425789 208.458946 
L 599.76457 249.684826 
L 600.103351 207.663957 
L 600.442133 202.155815 
L 600.780914 232.819693 
L 601.119695 232.024704 
L 601.458476 211.582119 
L 601.797257 201.360826 
L 602.136038 228.560822 
L 602.474819 182.792144 
L 602.813601 227.481907 
L 603.152382 216.579195 
L 603.829944 181.71323 
L 604.168725 191.537028 
L 604.507506 244.57418 
L 604.846287 203.12116 
L 605.185068 181.883585 
L 605.52385 217.885249 
L 605.862631 212.263538 
L 606.201412 209.367505 
L 606.540193 213.739947 
L 606.878974 223.223035 
L 607.217755 195.11448 
L 607.556536 190.855609 
L 607.895318 201.133686 
L 608.234099 223.790885 
L 608.57288 221.916981 
L 608.911661 223.7341 
L 609.250442 249.457687 
L 609.589223 152.185051 
L 609.928004 235.772511 
L 610.605567 180.350391 
L 610.944348 240.372093 
L 611.283129 213.228883 
L 611.62191 207.152892 
L 611.960691 221.860196 
L 612.299472 188.58421 
L 612.638253 223.450175 
L 612.977035 204.313644 
L 613.315816 243.722406 
L 613.654597 151.333277 
L 613.993378 184.893188 
L 614.332159 245.709879 
L 614.67094 208.175021 
L 615.009721 155.648934 
L 615.348502 231.40007 
L 615.687284 216.692765 
L 616.026065 134.496536 
L 616.364846 216.380448 
L 616.703627 235.034307 
L 617.042408 263.370002 
L 617.381189 185.404252 
L 617.71997 248.378772 
L 618.058752 132.82138 
L 618.397533 229.696521 
L 618.736314 252.069795 
L 619.075095 222.087336 
L 619.413876 221.633057 
L 619.752657 209.42429 
L 620.091438 209.08358 
L 620.430219 194.489846 
L 620.769001 169.220539 
L 621.107782 179.555402 
L 621.785344 250.082321 
L 622.124125 226.970843 
L 622.462906 223.109465 
L 622.801687 190.628469 
L 623.140469 214.421367 
L 623.47925 198.521578 
L 623.818031 222.428046 
L 624.156812 203.177945 
L 624.495593 223.27982 
L 624.834374 170.129098 
L 625.173155 256.158312 
L 625.511936 195.852685 
L 625.850718 210.673559 
L 626.189499 204.938278 
L 626.52828 222.314476 
L 626.867061 219.815938 
L 627.205842 208.231806 
L 627.544623 168.936614 
L 627.883404 200.622622 
L 628.222186 189.890264 
L 628.560967 235.772511 
L 628.899748 255.760817 
L 629.238529 185.801747 
L 629.57731 210.389635 
L 629.916091 197.726589 
L 630.254872 200.452267 
L 630.593653 172.286927 
L 630.932435 228.560822 
L 631.271216 206.187548 
L 631.948778 221.860196 
L 632.287559 186.880661 
L 632.62634 201.644751 
L 632.965121 228.049757 
L 633.303903 268.878143 
L 633.642684 134.922424 
L 633.981465 205.278988 
L 634.659027 269.332422 
L 634.997808 97.472743 
L 635.336589 313.482728 
L 635.67537 232.365414 
L 636.014152 185.688177 
L 636.352933 213.739947 
L 636.691714 194.433061 
L 637.030495 236.908211 
L 637.369276 202.837235 
L 637.708057 216.52241 
L 638.046838 209.08358 
L 638.38562 190.401329 
L 638.724401 208.686086 
L 639.063182 202.723665 
L 639.401963 230.71865 
L 639.740744 196.079825 
L 640.079525 195.45519 
L 640.418306 218.112389 
L 640.757087 205.790053 
L 641.095869 212.433893 
L 641.43465 191.480243 
L 641.773431 137.250607 
L 642.112212 229.185456 
L 642.450993 209.42429 
L 642.789774 320.666026 
L 643.128555 78.165857 
L 643.467337 221.661449 
L 643.806118 280.06478 
L 644.48368 218.453099 
L 644.822461 188.186715 
L 645.161242 209.367505 
L 645.500023 211.638904 
L 645.838804 185.517822 
L 646.177586 220.099863 
L 646.516367 230.37794 
L 646.855148 202.89402 
L 647.193929 221.576272 
L 647.53271 186.653522 
L 647.871491 192.672727 
L 648.210272 191.537028 
L 648.887835 210.730344 
L 649.226616 232.876478 
L 649.565397 223.677315 
L 649.904178 201.531181 
L 650.242959 211.809259 
L 650.58174 225.608004 
L 650.920521 203.972934 
L 651.259303 222.484831 
L 651.598084 206.301117 
L 651.936865 197.215524 
L 652.275646 192.729512 
L 652.614427 217.09026 
L 652.953208 207.152892 
L 653.291989 241.621362 
L 653.630771 212.717818 
L 653.969552 194.887341 
L 654.308333 191.082748 
L 654.647114 216.40884 
L 654.985895 214.194227 
L 655.324676 213.172098 
L 655.663457 237.646415 
L 656.34102 191.707383 
L 656.679801 181.542875 
L 657.018582 240.712803 
L 657.357363 234.807167 
L 657.696144 214.137442 
L 658.034925 145.314071 
L 658.712488 221.633057 
L 659.051269 217.714894 
L 659.39005 205.960408 
L 659.728831 205.222203 
L 660.067612 210.048925 
L 660.406393 242.984201 
L 660.745174 210.44642 
L 661.083955 200.225127 
L 661.422737 199.146213 
L 661.761518 205.619698 
L 662.100299 205.733268 
L 662.43908 207.891096 
L 662.777861 217.828464 
L 663.116642 202.2126 
L 663.455423 196.590889 
L 663.794205 213.228883 
L 664.132986 212.093183 
L 664.471767 207.209677 
L 664.810548 218.169174 
L 665.149329 235.261447 
L 665.48811 192.332017 
L 665.826891 213.285667 
L 666.165672 217.3174 
L 666.504454 210.048925 
L 666.843235 213.172098 
L 667.182016 212.377108 
L 667.520797 208.402161 
L 667.859578 230.321155 
L 668.198359 190.458114 
L 668.53714 211.468549 
L 668.875922 191.764168 
L 669.214703 210.900699 
L 669.553484 210.559989 
L 669.892265 205.903623 
L 670.231046 215.102786 
L 670.569827 212.490678 
L 670.908608 239.349964 
L 671.247389 223.336605 
L 671.586171 233.387543 
L 671.924952 152.980041 
L 672.263733 198.578363 
L 672.602514 210.162495 
L 672.941295 213.001743 
L 673.280076 212.604248 
L 673.618857 224.983369 
L 674.29642 189.663124 
L 674.635201 217.942034 
L 674.973982 216.52241 
L 675.312763 192.388802 
L 675.651544 217.771679 
L 675.990325 175.52367 
L 676.329106 215.670636 
L 677.006669 243.268126 
L 677.34545 170.583378 
L 677.684231 204.938278 
L 678.023012 206.017193 
L 678.361793 197.613019 
L 678.700574 210.44642 
L 679.039356 209.935355 
L 679.378137 207.834311 
L 679.716918 216.124915 
L 680.055699 193.240577 
L 680.39448 210.33285 
L 680.733261 203.46187 
L 681.072042 228.560822 
L 681.410823 210.616774 
L 681.749605 204.143289 
L 682.088386 205.903623 
L 682.427167 213.910302 
L 682.765948 194.830556 
L 683.104729 210.616774 
L 683.44351 262.461442 
L 683.782291 162.803839 
L 684.121073 201.076901 
L 684.459854 224.642659 
L 684.798635 177.738283 
L 685.137416 254.511548 
L 685.476197 189.776694 
L 685.814978 205.676483 
L 686.153759 212.036398 
L 686.49254 203.802579 
L 687.170103 221.746626 
L 687.508884 195.511975 
L 687.847665 208.118236 
L 688.186446 214.307797 
L 688.864008 206.017193 
L 689.20279 220.838067 
L 689.541571 211.695689 
L 689.880352 211.979613 
L 690.219133 205.165418 
L 690.557914 217.3174 
L 691.235476 199.770847 
L 691.574257 210.787129 
L 691.913039 211.695689 
L 692.25182 207.436817 
L 692.590601 236.851426 
L 692.929382 187.618866 
L 693.268163 207.607172 
L 693.606944 195.34162 
L 693.945725 175.637239 
L 694.284507 200.054772 
L 694.623288 238.498189 
L 694.962069 210.10571 
L 695.30085 209.19715 
L 695.639631 232.706124 
L 695.978412 229.639736 
L 696.317193 196.193395 
L 696.655974 205.449343 
L 696.994756 240.656018 
L 697.333537 212.263538 
L 697.672318 211.468549 
L 698.011099 216.63598 
L 698.34988 194.546631 
L 699.027442 193.978781 
L 699.366224 193.410932 
L 699.705005 214.023872 
L 700.043786 214.762076 
L 700.382567 204.483999 
L 700.721348 198.464793 
L 701.060129 240.428878 
L 701.39891 225.437649 
L 701.737691 184.779618 
L 702.076473 213.626377 
L 702.415254 198.805503 
L 702.754035 199.997987 
L 703.092816 200.679407 
L 703.431597 202.610095 
L 703.770378 194.887341 
L 704.109159 207.238069 
L 704.786722 242.189212 
L 705.125503 187.278156 
L 705.464284 238.611759 
L 705.803065 195.11448 
L 706.141846 211.525334 
L 706.480627 206.301117 
L 706.819408 211.014269 
L 707.15819 214.137442 
L 707.496971 218.339529 
L 707.835752 206.301117 
L 708.174533 219.645583 
L 708.513314 190.287759 
L 708.852095 210.21928 
L 709.190876 219.532013 
L 709.529658 221.121992 
L 709.868439 163.314903 
L 710.20722 194.347884 
L 710.546001 258.855597 
L 710.884782 258.259355 
L 711.223563 175.807594 
L 711.562344 161.724924 
L 711.901125 232.422199 
L 712.239907 214.648507 
L 712.578688 182.337865 
L 712.917469 220.724497 
L 713.25625 207.209677 
L 713.595031 213.058528 
L 713.933812 189.947049 
L 714.272593 222.882326 
L 714.611375 213.910302 
L 714.950156 185.688177 
L 715.288937 240.144953 
L 715.627718 216.579195 
L 715.966499 169.873566 
L 716.30528 220.128255 
L 716.644061 227.027628 
L 716.982842 204.824709 
L 717.321624 241.962072 
L 717.660405 198.294438 
L 717.999186 215.386711 
L 718.337967 199.146213 
L 718.676748 196.36375 
L 719.015529 223.62053 
L 719.35431 217.3174 
L 720.031873 176.744546 
L 720.370654 225.977106 
L 720.709435 221.746626 
L 721.048216 237.58963 
L 721.725778 171.775862 
L 722.064559 214.251012 
L 722.403341 226.175853 
L 722.742122 192.104878 
L 723.080903 214.989216 
L 723.419684 201.020116 
L 723.758465 213.910302 
L 724.097246 196.761244 
L 724.436027 230.889005 
L 724.774809 236.226791 
L 725.11359 210.900699 
L 725.452371 218.282744 
L 725.791152 219.248088 
L 726.129933 222.144121 
L 726.468714 199.373352 
L 726.807495 215.216356 
L 727.485058 224.926584 
L 727.823839 200.963331 
L 728.16262 210.389635 
L 728.501401 214.251012 
L 728.840182 208.118236 
L 729.178963 206.755397 
L 729.517744 197.783374 
L 729.856526 197.669804 
L 730.195307 198.294438 
L 730.534088 217.998819 
L 730.872869 222.939111 
L 731.21165 226.232638 
L 731.550431 211.411764 
L 731.889212 201.644751 
L 732.227993 202.32617 
L 732.566775 207.493602 
L 732.905556 208.118236 
L 733.244337 192.615942 
L 733.583118 184.722833 
L 733.921899 223.223035 
L 734.26068 203.745794 
L 734.599461 224.358735 
L 734.938243 179.271477 
L 735.277024 225.664789 
L 735.615805 207.039322 
L 735.954586 231.911134 
L 736.293367 206.187548 
L 736.632148 200.963331 
L 736.970929 218.453099 
L 737.30971 187.675651 
L 737.648492 212.888173 
L 737.987273 311.126152 
L 738.326054 248.776267 
L 738.664835 212.093183 
L 739.003616 111.129526 
L 739.342397 171.605507 
L 739.681178 183.019284 
L 740.01996 240.372093 
L 740.358741 184.154983 
L 740.697522 209.42429 
L 741.036303 211.127839 
L 741.375084 201.871891 
L 741.713865 212.320323 
L 742.052646 231.854349 
L 742.730209 204.086504 
L 743.06899 212.320323 
L 743.407771 214.932431 
L 743.746552 197.385879 
L 744.085333 235.772511 
L 744.424114 188.69778 
L 744.762895 251.615515 
L 745.101677 208.856441 
L 745.440458 206.301117 
L 745.779239 175.239745 
L 746.11802 228.787961 
L 746.456801 200.679407 
L 746.795582 199.486922 
L 747.134363 211.525334 
L 747.473144 209.65143 
L 747.811926 263.597141 
L 748.150707 163.542043 
L 748.489488 183.587134 
L 748.828269 232.876478 
L 749.16705 193.297362 
L 749.505831 209.708215 
L 749.844612 216.692765 
L 750.183394 209.367505 
L 750.522175 191.309888 
L 750.860956 208.970011 
L 751.199737 273.761649 
L 751.538518 175.977949 
L 751.877299 176.148304 
L 752.21608 207.209677 
L 752.893643 199.827632 
L 753.232424 234.125748 
L 753.571205 188.413855 
L 753.909986 274.670209 
L 754.248767 208.629301 
L 754.587548 188.2435 
L 754.926329 243.268126 
L 755.265111 224.358735 
L 755.603892 164.450602 
L 755.942673 198.010513 
L 756.281454 199.089428 
L 756.620235 212.717818 
L 756.959016 232.081489 
L 757.297797 200.281912 
L 757.636578 209.31072 
L 757.97536 193.240577 
L 758.314141 271.263111 
L 758.652922 188.073146 
L 758.991703 193.467717 
L 759.330484 189.322415 
L 759.669265 208.970011 
L 760.008046 235.772511 
L 760.346828 192.559157 
L 760.685609 185.177113 
L 761.02439 190.060619 
L 761.363171 205.562913 
L 761.701952 276.998392 
L 762.040733 198.010513 
L 762.379514 181.315735 
L 762.718295 202.610095 
L 763.057077 202.09903 
L 763.395858 195.767508 
L 763.734639 209.65143 
L 764.07342 257.492758 
L 764.412201 183.246424 
L 764.750982 233.160403 
L 765.089763 164.706135 
L 765.428545 211.326586 
L 765.767326 220.894852 
L 766.106107 219.702368 
L 766.444888 245.880234 
L 766.783669 192.502372 
L 767.12245 187.846006 
L 767.461231 223.677315 
L 767.800012 222.200906 
L 768.138794 200.509052 
L 768.477575 238.15748 
L 768.816356 193.127007 
L 769.155137 202.723665 
L 769.493918 234.239317 
L 769.832699 205.960408 
L 770.17148 205.222203 
L 770.510262 222.257691 
L 770.849043 211.695689 
L 771.187824 251.161235 
L 771.526605 177.567928 
L 771.865386 201.020116 
L 772.204167 243.949546 
L 772.542948 233.557898 
L 773.220511 180.520746 
L 773.559292 203.405085 
L 773.898073 187.164586 
L 774.236854 226.119068 
L 774.575635 238.782114 
L 774.914416 192.502372 
L 775.253197 196.420535 
L 775.591979 196.534104 
L 775.93076 198.067298 
L 776.269541 219.077733 
L 776.608322 215.102786 
L 776.947103 216.1817 
L 777.285884 181.315735 
L 777.624665 219.815938 
L 777.963446 221.519487 
L 778.302228 199.486922 
L 778.641009 237.419275 
L 778.97979 178.362917 
L 779.318571 226.289423 
L 779.996133 204.938278 
L 780.334914 205.051848 
L 780.673696 206.073978 
L 781.012477 184.893188 
L 781.351258 235.375017 
L 781.690039 190.514899 
L 782.02882 203.632224 
L 782.367601 234.068963 
L 782.706382 186.994231 
L 783.045163 201.587966 
L 783.383945 241.564577 
L 784.061507 201.644751 
L 784.400288 216.1817 
L 784.739069 218.850593 
L 785.416631 153.377535 
L 785.755413 197.811766 
L 786.094194 215.642243 
L 786.432975 249.457687 
L 786.771756 186.710307 
L 787.110537 193.183792 
L 787.449318 204.824709 
L 787.788099 209.481075 
L 788.12688 226.062283 
L 788.465662 196.079825 
L 788.804443 255.931172 
L 789.143224 168.42555 
L 789.482005 212.093183 
L 789.820786 197.925336 
L 790.159567 209.65143 
L 790.498348 210.929092 
L 790.83713 221.916981 
L 791.175911 198.691933 
L 791.514692 243.779191 
L 791.853473 172.939954 
L 792.192254 209.65143 
L 792.531035 209.65143 
L 792.869816 253.801736 
L 793.208597 177.908638 
L 793.547379 198.748718 
L 793.88616 226.857273 
L 794.224941 268.764573 
L 794.563722 181.71323 
L 794.902503 180.634316 
L 795.241284 196.02304 
L 795.580065 202.411348 
L 795.918847 211.099447 
L 796.257628 211.525334 
L 796.596409 206.32951 
L 796.93519 209.65143 
L 800.323001 209.65143 
L 800.661782 213.257275 
L 801.000564 206.045585 
L 801.339345 209.65143 
L 802.016907 209.65143 
L 802.355688 216.891512 
L 802.694469 205.335773 
L 803.03325 224.756229 
L 803.372031 234.693597 
L 803.710813 166.580038 
L 804.388375 244.091508 
L 804.727156 201.133686 
L 805.065937 183.729096 
L 805.404718 225.238901 
L 805.743499 194.063959 
L 806.082281 209.65143 
L 810.486435 209.65143 
L 810.825216 235.460194 
L 811.163998 183.842666 
L 811.502779 209.65143 
L 811.84156 217.061867 
L 812.180341 206.982537 
L 812.180341 206.982537 
" clip-path="url(#p5f2e7da5a3)" style="fill: none; stroke: #87ceeb; stroke-linecap: square"/>
   </g>
   <g id="patch_3">
    <path d="M 33.153125 392.439375 
L 33.153125 27.090625 
" style="fill: none; stroke: #000000; stroke-width: 0.8; stroke-linejoin: miter; stroke-linecap: square"/>
   </g>
   <g id="patch_4">
    <path d="M 849.276875 392.439375 
L 849.276875 27.090625 
" style="fill: none; stroke: #000000; stroke-width: 0.8; stroke-linejoin: miter; stroke-linecap: square"/>
   </g>
   <g id="patch_5">
    <path d="M 33.153125 392.439375 
L 849.276875 392.439375 
" style="fill: none; stroke: #000000; stroke-width: 0.8; stroke-linejoin: miter; stroke-linecap: square"/>
   </g>
   <g id="patch_6">
    <path d="M 33.153125 27.090625 
L 849.276875 27.090625 
" style="fill: none; stroke: #000000; stroke-width: 0.8; stroke-linejoin: miter; stroke-linecap: square"/>
   </g>
   <g id="text_15">
    <!-- 一阶差分后的  pH  值（用于ACF/PACF） -->
    <g transform="translate(333.215 17.090625) scale(0.12 -0.12)">
     <defs>
      <path id="SimHei-4e00" d="M 4875 2675 
Q 5525 2675 6050 2700 
L 6050 2050 
Q 5525 2075 4900 2075 
L 1600 2075 
Q 950 2075 350 2050 
L 350 2700 
Q 950 2675 1600 2675 
L 4875 2675 
z
" transform="scale(0.015625)"/>
      <path id="SimHei-9636" d="M 2450 4850 
Q 2350 4575 2175 3962 
Q 2000 3350 1825 2800 
Q 2225 2225 2312 1912 
Q 2400 1600 2375 1250 
Q 2350 900 2137 725 
Q 1925 550 1400 475 
Q 1300 925 1200 1075 
Q 1725 1025 1837 1225 
Q 1950 1425 1875 1775 
Q 1800 2125 1350 2725 
Q 1700 3825 1825 4400 
L 975 4400 
L 975 -500 
L 500 -500 
Q 525 175 525 675 
L 525 3650 
Q 525 4225 500 4850 
L 2450 4850 
z
M 4250 4825 
Q 4600 4100 5187 3637 
Q 5775 3175 6200 3025 
Q 5950 2775 5800 2500 
Q 4975 3075 4600 3512 
Q 4225 3950 4025 4400 
Q 3850 4025 3512 3487 
Q 3175 2950 2625 2350 
Q 2425 2575 2175 2700 
Q 2700 3075 3150 3787 
Q 3600 4500 3850 5275 
Q 4050 5150 4375 5075 
Q 4275 4900 4250 4825 
z
M 3750 2700 
Q 3650 2325 3575 1512 
Q 3500 700 3250 225 
Q 3000 -250 2650 -575 
Q 2425 -400 2175 -300 
Q 2550 -25 2762 337 
Q 2975 700 3087 1200 
Q 3200 1700 3200 2800 
Q 3350 2725 3750 2700 
z
M 5025 2775 
Q 4975 2425 4975 2025 
L 4975 350 
Q 4975 100 5000 -525 
L 4475 -525 
Q 4500 150 4500 375 
L 4500 2025 
Q 4500 2375 4475 2775 
L 5025 2775 
z
" transform="scale(0.015625)"/>
      <path id="SimHei-ff08" d="M 5425 5100 
L 5700 4775 
Q 4275 3725 4325 2350 
Q 4350 1025 5675 50 
L 5400 -275 
Q 3875 825 3925 2500 
Q 3925 3875 5425 5100 
z
" transform="scale(0.015625)"/>
      <path id="SimHei-7528" d="M 350 -300 
Q 650 125 812 600 
Q 975 1075 1012 1550 
Q 1050 2025 1050 3150 
Q 1050 4275 1025 4950 
L 5500 4950 
Q 5475 4225 5475 3650 
L 5475 375 
Q 5475 -150 5175 -275 
Q 4875 -400 4475 -450 
Q 4425 -75 4300 125 
Q 4800 100 4887 162 
Q 4975 225 4975 400 
L 4975 1650 
L 3450 1650 
L 3450 675 
Q 3450 125 3475 -325 
L 2925 -325 
Q 2950 100 2950 650 
L 2950 1650 
L 1525 1650 
Q 1425 575 850 -525 
Q 575 -350 350 -300 
z
M 4975 3475 
L 4975 4550 
L 3450 4550 
L 3450 3475 
L 4975 3475 
z
M 4975 2050 
L 4975 3100 
L 3450 3100 
L 3450 2050 
L 4975 2050 
z
M 2950 3475 
L 2950 4550 
L 1525 4550 
L 1525 3475 
L 2950 3475 
z
M 2950 2050 
L 2950 3100 
L 1525 3100 
L 1525 2050 
L 2950 2050 
z
" transform="scale(0.015625)"/>
      <path id="SimHei-4e8e" d="M 2900 2425 
L 1150 2425 
Q 650 2425 275 2400 
L 275 2900 
Q 650 2875 1150 2875 
L 2900 2875 
L 2900 4450 
L 1675 4450 
Q 1225 4450 900 4425 
L 900 4925 
Q 1225 4900 1675 4900 
L 4525 4900 
Q 4950 4900 5375 4925 
L 5375 4425 
Q 4950 4450 4525 4450 
L 3425 4450 
L 3425 2875 
L 5050 2875 
Q 5600 2875 6050 2900 
L 6050 2400 
Q 5650 2425 5050 2425 
L 3425 2425 
L 3425 125 
Q 3425 -325 3125 -412 
Q 2825 -500 2250 -525 
Q 2225 -200 2050 150 
Q 2450 100 2675 112 
Q 2900 125 2900 325 
L 2900 2425 
z
" transform="scale(0.015625)"/>
      <path id="SimHei-41" d="M 3075 125 
L 2475 125 
L 2125 1450 
L 1025 1450 
L 675 125 
L 75 125 
L 1325 4450 
L 1825 4450 
L 3075 125 
z
M 2000 1925 
L 1600 3450 
L 1550 3450 
L 1150 1925 
L 2000 1925 
z
" transform="scale(0.015625)"/>
      <path id="SimHei-43" d="M 2975 1825 
Q 2950 875 2575 475 
Q 2200 75 1675 75 
Q 1075 75 650 562 
Q 225 1050 225 2125 
Q 225 3300 637 3875 
Q 1050 4450 1700 4450 
Q 2250 4450 2612 4037 
Q 2975 3625 2950 2875 
L 2400 2875 
Q 2400 3425 2225 3700 
Q 2050 3975 1700 3975 
Q 1300 3975 1062 3562 
Q 825 3150 825 2175 
Q 825 1275 1062 912 
Q 1300 550 1675 550 
Q 1950 550 2175 812 
Q 2400 1075 2400 1825 
L 2975 1825 
z
" transform="scale(0.015625)"/>
      <path id="SimHei-46" d="M 2925 3925 
L 875 3925 
L 875 2525 
L 2425 2525 
L 2425 2050 
L 875 2050 
L 875 125 
L 300 125 
L 300 4400 
L 2925 4400 
L 2925 3925 
z
" transform="scale(0.015625)"/>
      <path id="SimHei-50" d="M 2950 3100 
Q 2950 2500 2600 2150 
Q 2250 1800 1625 1800 
L 900 1800 
L 900 125 
L 325 125 
L 325 4400 
L 1625 4400 
Q 2250 4400 2600 4050 
Q 2950 3700 2950 3100 
z
M 2375 3100 
Q 2375 3575 2150 3750 
Q 1925 3925 1475 3925 
L 900 3925 
L 900 2275 
L 1475 2275 
Q 1925 2275 2150 2450 
Q 2375 2625 2375 3100 
z
" transform="scale(0.015625)"/>
      <path id="SimHei-ff09" d="M 1000 5100 
Q 2500 3875 2500 2500 
Q 2550 825 1025 -275 
L 750 50 
Q 2075 1025 2100 2350 
Q 2150 3725 725 4775 
L 1000 5100 
z
" transform="scale(0.015625)"/>
     </defs>
     <use xlink:href="#SimHei-4e00"/>
     <use xlink:href="#SimHei-9636" transform="translate(100 0)"/>
     <use xlink:href="#SimHei-5dee" transform="translate(200 0)"/>
     <use xlink:href="#SimHei-5206" transform="translate(300 0)"/>
     <use xlink:href="#SimHei-540e" transform="translate(400 0)"/>
     <use xlink:href="#SimHei-7684" transform="translate(500 0)"/>
     <use xlink:href="#SimHei-20" transform="translate(600 0)"/>
     <use xlink:href="#SimHei-20" transform="translate(650 0)"/>
     <use xlink:href="#SimHei-70" transform="translate(700 0)"/>
     <use xlink:href="#SimHei-48" transform="translate(750 0)"/>
     <use xlink:href="#SimHei-20" transform="translate(800 0)"/>
     <use xlink:href="#SimHei-20" transform="translate(850 0)"/>
     <use xlink:href="#SimHei-503c" transform="translate(900 0)"/>
     <use xlink:href="#SimHei-ff08" transform="translate(1000 0)"/>
     <use xlink:href="#SimHei-7528" transform="translate(1100 0)"/>
     <use xlink:href="#SimHei-4e8e" transform="translate(1200 0)"/>
     <use xlink:href="#SimHei-41" transform="translate(1300 0)"/>
     <use xlink:href="#SimHei-43" transform="translate(1350 0)"/>
     <use xlink:href="#SimHei-46" transform="translate(1400 0)"/>
     <use xlink:href="#SimHei-2f" transform="translate(1450 0)"/>
     <use xlink:href="#SimHei-50" transform="translate(1500 0)"/>
     <use xlink:href="#SimHei-41" transform="translate(1550 0)"/>
     <use xlink:href="#SimHei-43" transform="translate(1600 0)"/>
     <use xlink:href="#SimHei-46" transform="translate(1650 0)"/>
     <use xlink:href="#SimHei-ff09" transform="translate(1700 0)"/>
    </g>
   </g>
   <g id="legend_1">
    <g id="patch_7">
     <path d="M 652.176875 47.333594 
L 842.976875 47.333594 
Q 844.776875 47.333594 844.776875 45.533594 
L 844.776875 33.390625 
Q 844.776875 31.590625 842.976875 31.590625 
L 652.176875 31.590625 
Q 650.376875 31.590625 650.376875 33.390625 
L 650.376875 45.533594 
Q 650.376875 47.333594 652.176875 47.333594 
z
" style="fill: #ffffff; opacity: 0.8; stroke: #cccccc; stroke-width: 0.5; stroke-linejoin: miter"/>
    </g>
    <g id="line2d_26">
     <path d="M 653.976875 39.458594 
L 662.976875 39.458594 
L 671.976875 39.458594 
" style="fill: none; stroke: #87ceeb; stroke-linecap: square"/>
    </g>
    <g id="text_16">
     <!-- 一阶差分后的  pH  值（用于ACF/PACF） -->
     <g transform="translate(679.176875 42.608594) scale(0.09 -0.09)">
      <use xlink:href="#SimHei-4e00"/>
      <use xlink:href="#SimHei-9636" transform="translate(100 0)"/>
      <use xlink:href="#SimHei-5dee" transform="translate(200 0)"/>
      <use xlink:href="#SimHei-5206" transform="translate(300 0)"/>
      <use xlink:href="#SimHei-540e" transform="translate(400 0)"/>
      <use xlink:href="#SimHei-7684" transform="translate(500 0)"/>
      <use xlink:href="#SimHei-20" transform="translate(600 0)"/>
      <use xlink:href="#SimHei-20" transform="translate(650 0)"/>
      <use xlink:href="#SimHei-70" transform="translate(700 0)"/>
      <use xlink:href="#SimHei-48" transform="translate(750 0)"/>
      <use xlink:href="#SimHei-20" transform="translate(800 0)"/>
      <use xlink:href="#SimHei-20" transform="translate(850 0)"/>
      <use xlink:href="#SimHei-503c" transform="translate(900 0)"/>
      <use xlink:href="#SimHei-ff08" transform="translate(1000 0)"/>
      <use xlink:href="#SimHei-7528" transform="translate(1100 0)"/>
      <use xlink:href="#SimHei-4e8e" transform="translate(1200 0)"/>
      <use xlink:href="#SimHei-41" transform="translate(1300 0)"/>
      <use xlink:href="#SimHei-43" transform="translate(1350 0)"/>
      <use xlink:href="#SimHei-46" transform="translate(1400 0)"/>
      <use xlink:href="#SimHei-2f" transform="translate(1450 0)"/>
      <use xlink:href="#SimHei-50" transform="translate(1500 0)"/>
      <use xlink:href="#SimHei-41" transform="translate(1550 0)"/>
      <use xlink:href="#SimHei-43" transform="translate(1600 0)"/>
      <use xlink:href="#SimHei-46" transform="translate(1650 0)"/>
      <use xlink:href="#SimHei-ff09" transform="translate(1700 0)"/>
     </g>
    </g>
   </g>
  </g>
 </g>
 <defs>
  <clipPath id="p5f2e7da5a3">
   <rect x="33.153125" y="27.090625" width="816.12375" height="365.34875"/>
  </clipPath>
 </defs>
</svg>
