<?xml version="1.0" encoding="utf-8" standalone="no"?>
<!DOCTYPE svg PUBLIC "-//W3C//DTD SVG 1.1//EN"
  "http://www.w3.org/Graphics/SVG/1.1/DTD/svg11.dtd">
<svg xmlns:xlink="http://www.w3.org/1999/xlink" width="712.5675pt" height="423.711562pt" viewBox="0 0 712.5675 423.711562" xmlns="http://www.w3.org/2000/svg" version="1.1">
 <metadata>
  <rdf:RDF xmlns:dc="http://purl.org/dc/elements/1.1/" xmlns:cc="http://creativecommons.org/ns#" xmlns:rdf="http://www.w3.org/1999/02/22-rdf-syntax-ns#">
   <cc:Work>
    <dc:type rdf:resource="http://purl.org/dc/dcmitype/StillImage"/>
    <dc:date>2025-04-23T00:36:14.484992</dc:date>
    <dc:format>image/svg+xml</dc:format>
    <dc:creator>
     <cc:Agent>
      <dc:title>Matplotlib v3.10.0, https://matplotlib.org/</dc:title>
     </cc:Agent>
    </dc:creator>
   </cc:Work>
  </rdf:RDF>
 </metadata>
 <defs>
  <style type="text/css">*{stroke-linejoin: round; stroke-linecap: butt}</style>
 </defs>
 <g id="figure_1">
  <g id="patch_1">
   <path d="M 0 423.711562 
L 712.5675 423.711562 
L 712.5675 0 
L 0 0 
z
" style="fill: #ffffff"/>
  </g>
  <g id="axes_1">
   <g id="patch_2">
    <path d="M 37.575 392.44125 
L 705.3675 392.44125 
L 705.3675 27.1375 
L 37.575 27.1375 
z
" style="fill: #ffffff"/>
   </g>
   <g id="matplotlib.axis_1">
    <g id="xtick_1">
     <g id="line2d_1">
      <path d="M 67.652124 392.44125 
L 67.652124 27.1375 
" clip-path="url(#p8316d8c866)" style="fill: none; stroke-dasharray: 1.85,0.8; stroke-dashoffset: 0; stroke: #b2b2b2; stroke-opacity: 0.3; stroke-width: 0.5"/>
     </g>
     <g id="line2d_2">
      <defs>
       <path id="m1ae6cbef3f" d="M 0 0 
L 0 -3.5 
" style="stroke: #000000; stroke-width: 0.8"/>
      </defs>
      <g>
       <use xlink:href="#m1ae6cbef3f" x="67.652124" y="392.44125" style="stroke: #000000; stroke-width: 0.8"/>
      </g>
     </g>
     <g id="text_1">
      <!-- 0 -->
      <g transform="translate(65.402124 402.12875) scale(0.09 -0.09)">
       <defs>
        <path id="SimHei-30" d="M 225 2537 
Q 250 3200 412 3587 
Q 575 3975 875 4225 
Q 1175 4475 1612 4475 
Q 2050 4475 2375 4112 
Q 2700 3750 2800 3200 
Q 2900 2650 2862 1937 
Q 2825 1225 2612 775 
Q 2400 325 1975 150 
Q 1550 -25 1125 187 
Q 700 400 525 750 
Q 350 1100 275 1487 
Q 200 1875 225 2537 
z
M 750 2687 
Q 675 2000 800 1462 
Q 925 925 1212 700 
Q 1500 475 1800 612 
Q 2100 750 2237 1162 
Q 2375 1575 2375 2062 
Q 2375 2550 2337 2950 
Q 2300 3350 2112 3675 
Q 1925 4000 1612 4012 
Q 1300 4025 1062 3700 
Q 825 3375 750 2687 
z
" transform="scale(0.015625)"/>
       </defs>
       <use xlink:href="#SimHei-30"/>
      </g>
     </g>
    </g>
    <g id="xtick_2">
     <g id="line2d_3">
      <path d="M 206.192537 392.44125 
L 206.192537 27.1375 
" clip-path="url(#p8316d8c866)" style="fill: none; stroke-dasharray: 1.85,0.8; stroke-dashoffset: 0; stroke: #b2b2b2; stroke-opacity: 0.3; stroke-width: 0.5"/>
     </g>
     <g id="line2d_4">
      <g>
       <use xlink:href="#m1ae6cbef3f" x="206.192537" y="392.44125" style="stroke: #000000; stroke-width: 0.8"/>
      </g>
     </g>
     <g id="text_2">
      <!-- 500 -->
      <g transform="translate(199.442537 402.12875) scale(0.09 -0.09)">
       <defs>
        <path id="SimHei-35" d="M 550 1325 
Q 725 650 1150 575 
Q 1575 500 1837 662 
Q 2100 825 2212 1087 
Q 2325 1350 2312 1675 
Q 2300 2000 2137 2225 
Q 1975 2450 1725 2525 
Q 1475 2600 1162 2525 
Q 850 2450 650 2175 
L 225 2225 
Q 275 2375 700 4375 
L 2675 4375 
L 2675 3925 
L 1075 3925 
Q 950 3250 825 2850 
Q 1200 3025 1525 3012 
Q 1850 3000 2150 2862 
Q 2450 2725 2587 2487 
Q 2725 2250 2787 2012 
Q 2850 1775 2837 1500 
Q 2825 1225 2725 937 
Q 2625 650 2425 462 
Q 2225 275 1937 162 
Q 1650 50 1275 75 
Q 900 100 562 350 
Q 225 600 100 1200 
L 550 1325 
z
" transform="scale(0.015625)"/>
       </defs>
       <use xlink:href="#SimHei-35"/>
       <use xlink:href="#SimHei-30" transform="translate(50 0)"/>
       <use xlink:href="#SimHei-30" transform="translate(100 0)"/>
      </g>
     </g>
    </g>
    <g id="xtick_3">
     <g id="line2d_5">
      <path d="M 344.73295 392.44125 
L 344.73295 27.1375 
" clip-path="url(#p8316d8c866)" style="fill: none; stroke-dasharray: 1.85,0.8; stroke-dashoffset: 0; stroke: #b2b2b2; stroke-opacity: 0.3; stroke-width: 0.5"/>
     </g>
     <g id="line2d_6">
      <g>
       <use xlink:href="#m1ae6cbef3f" x="344.73295" y="392.44125" style="stroke: #000000; stroke-width: 0.8"/>
      </g>
     </g>
     <g id="text_3">
      <!-- 1000 -->
      <g transform="translate(335.73295 402.12875) scale(0.09 -0.09)">
       <defs>
        <path id="SimHei-31" d="M 1400 3600 
Q 1075 3275 575 2975 
L 575 3450 
Q 1200 3875 1600 4450 
L 1900 4450 
L 1900 150 
L 1400 150 
L 1400 3600 
z
" transform="scale(0.015625)"/>
       </defs>
       <use xlink:href="#SimHei-31"/>
       <use xlink:href="#SimHei-30" transform="translate(50 0)"/>
       <use xlink:href="#SimHei-30" transform="translate(100 0)"/>
       <use xlink:href="#SimHei-30" transform="translate(150 0)"/>
      </g>
     </g>
    </g>
    <g id="xtick_4">
     <g id="line2d_7">
      <path d="M 483.273364 392.44125 
L 483.273364 27.1375 
" clip-path="url(#p8316d8c866)" style="fill: none; stroke-dasharray: 1.85,0.8; stroke-dashoffset: 0; stroke: #b2b2b2; stroke-opacity: 0.3; stroke-width: 0.5"/>
     </g>
     <g id="line2d_8">
      <g>
       <use xlink:href="#m1ae6cbef3f" x="483.273364" y="392.44125" style="stroke: #000000; stroke-width: 0.8"/>
      </g>
     </g>
     <g id="text_4">
      <!-- 1500 -->
      <g transform="translate(474.273364 402.12875) scale(0.09 -0.09)">
       <use xlink:href="#SimHei-31"/>
       <use xlink:href="#SimHei-35" transform="translate(50 0)"/>
       <use xlink:href="#SimHei-30" transform="translate(100 0)"/>
       <use xlink:href="#SimHei-30" transform="translate(150 0)"/>
      </g>
     </g>
    </g>
    <g id="xtick_5">
     <g id="line2d_9">
      <path d="M 621.813777 392.44125 
L 621.813777 27.1375 
" clip-path="url(#p8316d8c866)" style="fill: none; stroke-dasharray: 1.85,0.8; stroke-dashoffset: 0; stroke: #b2b2b2; stroke-opacity: 0.3; stroke-width: 0.5"/>
     </g>
     <g id="line2d_10">
      <g>
       <use xlink:href="#m1ae6cbef3f" x="621.813777" y="392.44125" style="stroke: #000000; stroke-width: 0.8"/>
      </g>
     </g>
     <g id="text_5">
      <!-- 2000 -->
      <g transform="translate(612.813777 402.12875) scale(0.09 -0.09)">
       <defs>
        <path id="SimHei-32" d="M 300 250 
Q 325 625 650 925 
Q 975 1225 1475 1862 
Q 1975 2500 2125 2850 
Q 2275 3200 2237 3450 
Q 2200 3700 2000 3862 
Q 1800 4025 1537 4000 
Q 1275 3975 1037 3800 
Q 800 3625 675 3275 
L 200 3350 
Q 400 3925 712 4187 
Q 1025 4450 1450 4475 
Q 1700 4500 1900 4462 
Q 2100 4425 2312 4287 
Q 2525 4150 2662 3875 
Q 2800 3600 2762 3212 
Q 2725 2825 2375 2287 
Q 2025 1750 1025 600 
L 2825 600 
L 2825 150 
L 300 150 
L 300 250 
z
" transform="scale(0.015625)"/>
       </defs>
       <use xlink:href="#SimHei-32"/>
       <use xlink:href="#SimHei-30" transform="translate(50 0)"/>
       <use xlink:href="#SimHei-30" transform="translate(100 0)"/>
       <use xlink:href="#SimHei-30" transform="translate(150 0)"/>
      </g>
     </g>
    </g>
    <g id="text_6">
     <!-- 时间 / 序号 -->
     <g transform="translate(343.97125 415.261562) scale(0.1 -0.1)">
      <defs>
       <path id="SimHei-65f6" d="M 2525 4575 
Q 2500 3675 2500 2400 
Q 2500 1125 2525 400 
L 2000 400 
L 2000 875 
L 1000 875 
L 1000 50 
L 475 50 
Q 500 1200 500 2350 
Q 500 3525 475 4575 
L 2525 4575 
z
M 4875 3825 
Q 4875 4575 4850 5225 
L 5400 5225 
Q 5375 4575 5375 3825 
Q 5750 3825 6175 3850 
L 6175 3375 
Q 5750 3400 5375 3400 
L 5375 50 
Q 5375 -325 5075 -425 
Q 4775 -525 4300 -575 
Q 4300 -275 4025 0 
Q 4500 -50 4687 -25 
Q 4875 0 4875 300 
L 4875 3400 
Q 3625 3400 2775 3375 
L 2775 3850 
Q 3575 3825 4875 3825 
z
M 2000 1300 
L 2000 2550 
L 1000 2550 
L 1000 1300 
L 2000 1300 
z
M 2000 2975 
L 2000 4150 
L 1000 4150 
L 1000 2975 
L 2000 2975 
z
M 3550 2725 
Q 3875 2200 4175 1600 
Q 3925 1525 3650 1375 
Q 3450 1975 3075 2500 
Q 3300 2600 3550 2725 
z
" transform="scale(0.015625)"/>
       <path id="SimHei-95f4" d="M 4450 3550 
Q 4425 3075 4425 2725 
L 4425 1400 
Q 4425 1075 4450 625 
L 1925 625 
Q 1950 1075 1950 1425 
L 1950 2725 
Q 1950 3075 1925 3550 
L 4450 3550 
z
M 5800 4875 
Q 5775 4400 5775 3925 
L 5775 250 
Q 5800 -325 5462 -450 
Q 5125 -575 4725 -625 
Q 4700 -325 4525 -25 
Q 5000 -50 5137 25 
Q 5275 100 5275 350 
L 5275 4450 
L 3775 4450 
Q 3175 4450 2650 4425 
L 2650 4900 
Q 3175 4875 3775 4875 
L 5800 4875 
z
M 550 -525 
Q 600 -25 600 525 
L 600 3150 
Q 600 3675 550 4025 
L 1125 4025 
Q 1100 3650 1100 3300 
L 1100 500 
Q 1100 0 1125 -525 
L 550 -525 
z
M 3950 1025 
L 3950 1950 
L 2425 1950 
L 2425 1025 
L 3950 1025 
z
M 3950 2350 
L 3950 3150 
L 2425 3150 
L 2425 2350 
L 3950 2350 
z
M 1525 5300 
Q 1750 5000 2225 4350 
Q 1950 4225 1700 4075 
Q 1450 4575 1075 5025 
Q 1350 5225 1525 5300 
z
" transform="scale(0.015625)"/>
       <path id="SimHei-20" transform="scale(0.015625)"/>
       <path id="SimHei-2f" d="M 3000 4550 
L 350 -175 
L 100 -25 
L 2750 4700 
L 3000 4550 
z
" transform="scale(0.015625)"/>
       <path id="SimHei-5e8f" d="M 4000 2075 
L 5975 2075 
Q 5750 1525 5575 1025 
Q 5325 1100 5050 1150 
Q 5175 1450 5275 1700 
L 4050 1700 
L 4050 150 
Q 4050 -375 3762 -462 
Q 3475 -550 2950 -575 
Q 2875 -300 2750 0 
Q 3350 -75 3475 25 
Q 3600 125 3575 375 
L 3575 1700 
L 2450 1700 
Q 2050 1700 1675 1675 
L 1675 2100 
Q 2100 2075 2425 2075 
L 3675 2075 
Q 3325 2400 2875 2775 
Q 2975 2875 3250 3100 
Q 3400 2975 3725 2725 
L 4575 3275 
L 3000 3275 
Q 2400 3275 1950 3250 
L 1950 3700 
Q 2400 3675 3000 3675 
L 5400 3675 
L 5400 3250 
Q 4700 2875 4025 2450 
L 4275 2250 
L 4000 2075 
z
M 3725 5275 
Q 3825 4925 3925 4525 
L 4850 4525 
Q 5425 4525 6000 4550 
L 6000 4125 
Q 5425 4150 4850 4150 
L 1400 4150 
Q 1400 2750 1362 2137 
Q 1325 1525 1200 887 
Q 1075 250 775 -350 
Q 625 -250 250 -125 
Q 475 300 600 700 
Q 725 1100 800 1637 
Q 875 2175 875 2825 
Q 875 3500 850 4525 
L 3350 4525 
Q 3275 4825 3150 5150 
Q 3425 5200 3725 5275 
z
" transform="scale(0.015625)"/>
       <path id="SimHei-53f7" d="M 5025 4925 
Q 5000 4550 5000 4075 
Q 5000 3600 5025 3175 
L 1400 3175 
Q 1425 3525 1425 4000 
Q 1425 4500 1400 4925 
L 5025 4925 
z
M 5175 2625 
Q 5650 2625 6025 2650 
L 6025 2200 
Q 5650 2225 5175 2225 
L 2450 2225 
Q 2350 1875 2225 1450 
L 5175 1450 
Q 5100 1050 5062 775 
Q 5025 500 4950 112 
Q 4875 -275 4650 -412 
Q 4425 -550 3225 -625 
Q 3125 -350 2975 -50 
Q 3875 -75 4112 -50 
Q 4350 -25 4425 212 
Q 4500 450 4575 1025 
L 1600 1025 
Q 1825 1625 1950 2225 
L 1350 2225 
Q 825 2225 375 2200 
L 375 2650 
Q 825 2625 1350 2625 
L 5175 2625 
z
M 4525 3575 
L 4525 4525 
L 1900 4525 
L 1900 3575 
L 4525 3575 
z
" transform="scale(0.015625)"/>
      </defs>
      <use xlink:href="#SimHei-65f6"/>
      <use xlink:href="#SimHei-95f4" transform="translate(100 0)"/>
      <use xlink:href="#SimHei-20" transform="translate(200 0)"/>
      <use xlink:href="#SimHei-2f" transform="translate(250 0)"/>
      <use xlink:href="#SimHei-20" transform="translate(300 0)"/>
      <use xlink:href="#SimHei-5e8f" transform="translate(350 0)"/>
      <use xlink:href="#SimHei-53f7" transform="translate(450 0)"/>
     </g>
    </g>
   </g>
   <g id="matplotlib.axis_2">
    <g id="ytick_1">
     <g id="line2d_11">
      <path d="M 37.575 377.070535 
L 705.3675 377.070535 
" clip-path="url(#p8316d8c866)" style="fill: none; stroke-dasharray: 1.85,0.8; stroke-dashoffset: 0; stroke: #b2b2b2; stroke-opacity: 0.3; stroke-width: 0.5"/>
     </g>
     <g id="line2d_12">
      <defs>
       <path id="mc1fd62efbd" d="M 0 0 
L 3.5 0 
" style="stroke: #000000; stroke-width: 0.8"/>
      </defs>
      <g>
       <use xlink:href="#mc1fd62efbd" x="37.575" y="377.070535" style="stroke: #000000; stroke-width: 0.8"/>
      </g>
     </g>
     <g id="text_7">
      <!-- 0.0 -->
      <g transform="translate(20.575 380.164285) scale(0.09 -0.09)">
       <defs>
        <path id="SimHei-2e" d="M 1075 125 
L 500 125 
L 500 675 
L 1075 675 
L 1075 125 
z
" transform="scale(0.015625)"/>
       </defs>
       <use xlink:href="#SimHei-30"/>
       <use xlink:href="#SimHei-2e" transform="translate(50 0)"/>
       <use xlink:href="#SimHei-30" transform="translate(100 0)"/>
      </g>
     </g>
    </g>
    <g id="ytick_2">
     <g id="line2d_13">
      <path d="M 37.575 327.7105 
L 705.3675 327.7105 
" clip-path="url(#p8316d8c866)" style="fill: none; stroke-dasharray: 1.85,0.8; stroke-dashoffset: 0; stroke: #b2b2b2; stroke-opacity: 0.3; stroke-width: 0.5"/>
     </g>
     <g id="line2d_14">
      <g>
       <use xlink:href="#mc1fd62efbd" x="37.575" y="327.7105" style="stroke: #000000; stroke-width: 0.8"/>
      </g>
     </g>
     <g id="text_8">
      <!-- 0.5 -->
      <g transform="translate(20.575 330.80425) scale(0.09 -0.09)">
       <use xlink:href="#SimHei-30"/>
       <use xlink:href="#SimHei-2e" transform="translate(50 0)"/>
       <use xlink:href="#SimHei-35" transform="translate(100 0)"/>
      </g>
     </g>
    </g>
    <g id="ytick_3">
     <g id="line2d_15">
      <path d="M 37.575 278.350464 
L 705.3675 278.350464 
" clip-path="url(#p8316d8c866)" style="fill: none; stroke-dasharray: 1.85,0.8; stroke-dashoffset: 0; stroke: #b2b2b2; stroke-opacity: 0.3; stroke-width: 0.5"/>
     </g>
     <g id="line2d_16">
      <g>
       <use xlink:href="#mc1fd62efbd" x="37.575" y="278.350464" style="stroke: #000000; stroke-width: 0.8"/>
      </g>
     </g>
     <g id="text_9">
      <!-- 1.0 -->
      <g transform="translate(20.575 281.444214) scale(0.09 -0.09)">
       <use xlink:href="#SimHei-31"/>
       <use xlink:href="#SimHei-2e" transform="translate(50 0)"/>
       <use xlink:href="#SimHei-30" transform="translate(100 0)"/>
      </g>
     </g>
    </g>
    <g id="ytick_4">
     <g id="line2d_17">
      <path d="M 37.575 228.990429 
L 705.3675 228.990429 
" clip-path="url(#p8316d8c866)" style="fill: none; stroke-dasharray: 1.85,0.8; stroke-dashoffset: 0; stroke: #b2b2b2; stroke-opacity: 0.3; stroke-width: 0.5"/>
     </g>
     <g id="line2d_18">
      <g>
       <use xlink:href="#mc1fd62efbd" x="37.575" y="228.990429" style="stroke: #000000; stroke-width: 0.8"/>
      </g>
     </g>
     <g id="text_10">
      <!-- 1.5 -->
      <g transform="translate(20.575 232.084179) scale(0.09 -0.09)">
       <use xlink:href="#SimHei-31"/>
       <use xlink:href="#SimHei-2e" transform="translate(50 0)"/>
       <use xlink:href="#SimHei-35" transform="translate(100 0)"/>
      </g>
     </g>
    </g>
    <g id="ytick_5">
     <g id="line2d_19">
      <path d="M 37.575 179.630393 
L 705.3675 179.630393 
" clip-path="url(#p8316d8c866)" style="fill: none; stroke-dasharray: 1.85,0.8; stroke-dashoffset: 0; stroke: #b2b2b2; stroke-opacity: 0.3; stroke-width: 0.5"/>
     </g>
     <g id="line2d_20">
      <g>
       <use xlink:href="#mc1fd62efbd" x="37.575" y="179.630393" style="stroke: #000000; stroke-width: 0.8"/>
      </g>
     </g>
     <g id="text_11">
      <!-- 2.0 -->
      <g transform="translate(20.575 182.724143) scale(0.09 -0.09)">
       <use xlink:href="#SimHei-32"/>
       <use xlink:href="#SimHei-2e" transform="translate(50 0)"/>
       <use xlink:href="#SimHei-30" transform="translate(100 0)"/>
      </g>
     </g>
    </g>
    <g id="ytick_6">
     <g id="line2d_21">
      <path d="M 37.575 130.270358 
L 705.3675 130.270358 
" clip-path="url(#p8316d8c866)" style="fill: none; stroke-dasharray: 1.85,0.8; stroke-dashoffset: 0; stroke: #b2b2b2; stroke-opacity: 0.3; stroke-width: 0.5"/>
     </g>
     <g id="line2d_22">
      <g>
       <use xlink:href="#mc1fd62efbd" x="37.575" y="130.270358" style="stroke: #000000; stroke-width: 0.8"/>
      </g>
     </g>
     <g id="text_12">
      <!-- 2.5 -->
      <g transform="translate(20.575 133.364108) scale(0.09 -0.09)">
       <use xlink:href="#SimHei-32"/>
       <use xlink:href="#SimHei-2e" transform="translate(50 0)"/>
       <use xlink:href="#SimHei-35" transform="translate(100 0)"/>
      </g>
     </g>
    </g>
    <g id="ytick_7">
     <g id="line2d_23">
      <path d="M 37.575 80.910323 
L 705.3675 80.910323 
" clip-path="url(#p8316d8c866)" style="fill: none; stroke-dasharray: 1.85,0.8; stroke-dashoffset: 0; stroke: #b2b2b2; stroke-opacity: 0.3; stroke-width: 0.5"/>
     </g>
     <g id="line2d_24">
      <g>
       <use xlink:href="#mc1fd62efbd" x="37.575" y="80.910323" style="stroke: #000000; stroke-width: 0.8"/>
      </g>
     </g>
     <g id="text_13">
      <!-- 3.0 -->
      <g transform="translate(20.575 84.004073) scale(0.09 -0.09)">
       <defs>
        <path id="SimHei-33" d="M 250 1225 
L 700 1300 
Q 800 975 1025 762 
Q 1250 550 1587 562 
Q 1925 575 2125 837 
Q 2325 1100 2300 1437 
Q 2275 1775 2037 1962 
Q 1800 2150 1275 2225 
L 1275 2550 
Q 1800 2600 2037 2825 
Q 2275 3050 2250 3412 
Q 2225 3775 1925 3937 
Q 1625 4100 1287 3975 
Q 950 3850 750 3275 
L 300 3350 
Q 450 3800 712 4100 
Q 975 4400 1425 4450 
Q 1875 4500 2212 4337 
Q 2550 4175 2687 3837 
Q 2825 3500 2725 3100 
Q 2625 2700 2150 2400 
Q 2500 2250 2687 1950 
Q 2875 1650 2812 1162 
Q 2750 675 2375 375 
Q 2000 75 1525 87 
Q 1050 100 700 387 
Q 350 675 250 1225 
z
" transform="scale(0.015625)"/>
       </defs>
       <use xlink:href="#SimHei-33"/>
       <use xlink:href="#SimHei-2e" transform="translate(50 0)"/>
       <use xlink:href="#SimHei-30" transform="translate(100 0)"/>
      </g>
     </g>
    </g>
    <g id="ytick_8">
     <g id="line2d_25">
      <path d="M 37.575 31.550287 
L 705.3675 31.550287 
" clip-path="url(#p8316d8c866)" style="fill: none; stroke-dasharray: 1.85,0.8; stroke-dashoffset: 0; stroke: #b2b2b2; stroke-opacity: 0.3; stroke-width: 0.5"/>
     </g>
     <g id="line2d_26">
      <g>
       <use xlink:href="#mc1fd62efbd" x="37.575" y="31.550287" style="stroke: #000000; stroke-width: 0.8"/>
      </g>
     </g>
     <g id="text_14">
      <!-- 3.5 -->
      <g transform="translate(20.575 34.644037) scale(0.09 -0.09)">
       <use xlink:href="#SimHei-33"/>
       <use xlink:href="#SimHei-2e" transform="translate(50 0)"/>
       <use xlink:href="#SimHei-35" transform="translate(100 0)"/>
      </g>
     </g>
    </g>
    <g id="text_15">
     <!-- TP_mg/L 值 -->
     <g transform="translate(15.246875 234.789375) rotate(-90) scale(0.1 -0.1)">
      <defs>
       <path id="SimHei-54" d="M 2850 3925 
L 1850 3925 
L 1850 125 
L 1275 125 
L 1275 3925 
L 275 3925 
L 275 4400 
L 2850 4400 
L 2850 3925 
z
" transform="scale(0.015625)"/>
       <path id="SimHei-50" d="M 2950 3100 
Q 2950 2500 2600 2150 
Q 2250 1800 1625 1800 
L 900 1800 
L 900 125 
L 325 125 
L 325 4400 
L 1625 4400 
Q 2250 4400 2600 4050 
Q 2950 3700 2950 3100 
z
M 2375 3100 
Q 2375 3575 2150 3750 
Q 1925 3925 1475 3925 
L 900 3925 
L 900 2275 
L 1475 2275 
Q 1925 2275 2150 2450 
Q 2375 2625 2375 3100 
z
" transform="scale(0.015625)"/>
       <path id="SimHei-5f" d="M 3150 -850 
L 0 -850 
L 0 -550 
L 3150 -550 
L 3150 -850 
z
" transform="scale(0.015625)"/>
       <path id="SimHei-6d" d="M 3050 125 
L 2550 125 
L 2550 2150 
Q 2550 2300 2500 2400 
Q 2450 2500 2300 2500 
Q 2125 2500 1975 2312 
Q 1825 2125 1825 1825 
L 1825 125 
L 1325 125 
L 1325 2150 
Q 1325 2300 1275 2400 
Q 1225 2500 1075 2500 
Q 900 2500 750 2312 
Q 600 2125 600 1825 
L 600 125 
L 100 125 
L 100 2925 
L 600 2925 
L 600 2550 
Q 725 2750 900 2862 
Q 1075 2975 1275 2975 
Q 1475 2975 1612 2862 
Q 1750 2750 1800 2550 
Q 1925 2750 2087 2862 
Q 2250 2975 2450 2975 
Q 2750 2975 2900 2812 
Q 3050 2650 3050 2350 
L 3050 125 
z
" transform="scale(0.015625)"/>
       <path id="SimHei-67" d="M 2975 2500 
Q 2800 2550 2637 2562 
Q 2475 2575 2300 2525 
Q 2375 2450 2425 2337 
Q 2475 2225 2475 2000 
Q 2475 1575 2187 1300 
Q 1900 1025 1475 1025 
Q 1375 1025 1212 1062 
Q 1050 1100 950 1150 
Q 875 1100 850 1050 
Q 825 1000 825 925 
Q 825 800 1000 737 
Q 1175 675 1625 675 
Q 2350 675 2612 475 
Q 2875 275 2875 -25 
Q 2875 -425 2487 -612 
Q 2100 -800 1575 -800 
Q 900 -800 575 -625 
Q 250 -450 250 -150 
Q 250 0 375 150 
Q 500 300 700 400 
Q 550 475 462 587 
Q 375 700 375 875 
Q 375 1025 487 1137 
Q 600 1250 750 1325 
Q 625 1450 550 1625 
Q 475 1800 475 2000 
Q 475 2425 762 2700 
Q 1050 2975 1475 2975 
Q 1700 2975 1862 2912 
Q 2025 2850 2150 2725 
Q 2350 2875 2550 2937 
Q 2750 3000 2975 2975 
L 2975 2500 
z
M 1975 2000 
Q 1975 2250 1850 2400 
Q 1725 2550 1475 2550 
Q 1225 2550 1100 2400 
Q 975 2250 975 2000 
Q 975 1750 1100 1600 
Q 1225 1450 1475 1450 
Q 1725 1450 1850 1600 
Q 1975 1750 1975 2000 
z
M 2400 -75 
Q 2400 25 2287 125 
Q 2175 225 1725 225 
Q 1625 225 1450 237 
Q 1275 250 1050 275 
Q 850 200 775 100 
Q 700 0 700 -100 
Q 700 -250 900 -350 
Q 1100 -450 1600 -450 
Q 2025 -450 2212 -337 
Q 2400 -225 2400 -75 
z
" transform="scale(0.015625)"/>
       <path id="SimHei-4c" d="M 2900 125 
L 300 125 
L 300 4400 
L 875 4400 
L 875 600 
L 2900 600 
L 2900 125 
z
" transform="scale(0.015625)"/>
       <path id="SimHei-503c" d="M 3675 4450 
L 3675 5100 
Q 3975 5075 4350 5050 
Q 4225 4875 4200 4450 
L 5125 4450 
Q 5550 4450 5875 4475 
L 5875 4025 
Q 5525 4050 5125 4050 
L 4175 4050 
L 4125 3500 
L 5400 3500 
Q 5375 3200 5375 2700 
L 5375 150 
Q 5875 150 6100 175 
L 6100 -275 
Q 5775 -250 5200 -250 
L 2850 -250 
Q 2275 -250 1900 -275 
L 1900 175 
Q 2125 150 2600 150 
L 2600 2700 
Q 2600 3175 2575 3500 
L 3600 3500 
L 3650 4050 
L 3200 4050 
Q 2575 4050 2225 4025 
L 2225 4475 
Q 2550 4450 3200 4450 
L 3675 4450 
z
M 2225 4900 
Q 2025 4675 1650 3750 
L 1650 450 
Q 1650 -75 1675 -550 
L 1150 -550 
Q 1175 -125 1175 375 
L 1175 2950 
Q 875 2450 625 2150 
Q 425 2425 250 2575 
Q 500 2825 937 3537 
Q 1375 4250 1625 5150 
Q 1975 4975 2225 4900 
z
M 4925 2650 
L 4925 3150 
L 3075 3150 
L 3075 2650 
L 4925 2650 
z
M 4925 150 
L 4925 625 
L 3075 625 
L 3075 150 
L 4925 150 
z
M 4925 1000 
L 4925 1450 
L 3075 1450 
L 3075 1000 
L 4925 1000 
z
M 4925 1825 
L 4925 2275 
L 3075 2275 
L 3075 1825 
L 4925 1825 
z
" transform="scale(0.015625)"/>
      </defs>
      <use xlink:href="#SimHei-54"/>
      <use xlink:href="#SimHei-50" transform="translate(50 0)"/>
      <use xlink:href="#SimHei-5f" transform="translate(100 0)"/>
      <use xlink:href="#SimHei-6d" transform="translate(150 0)"/>
      <use xlink:href="#SimHei-67" transform="translate(200 0)"/>
      <use xlink:href="#SimHei-2f" transform="translate(250 0)"/>
      <use xlink:href="#SimHei-4c" transform="translate(300 0)"/>
      <use xlink:href="#SimHei-20" transform="translate(350 0)"/>
      <use xlink:href="#SimHei-503c" transform="translate(400 0)"/>
     </g>
    </g>
   </g>
   <g id="line2d_27">
    <path d="M 67.929205 306.979285 
L 68.206285 310.928088 
L 68.483366 317.838492 
L 68.760447 304.017683 
L 69.037528 305.004883 
L 69.314609 312.902489 
L 69.59169 306.979285 
L 69.86877 306.979285 
L 70.145851 308.953686 
L 70.422932 309.940887 
L 70.700013 302.043281 
L 70.977094 299.081679 
L 71.254174 307.966485 
L 71.531255 310.928088 
L 71.808336 307.966485 
L 72.085417 314.87689 
L 72.362498 313.88969 
L 72.916659 305.992084 
L 73.19374 290.196873 
L 73.470821 314.87689 
L 73.747902 295.132876 
L 74.024983 295.132876 
L 74.302064 329.684901 
L 74.579144 208.259214 
L 74.856225 150.014372 
L 75.133306 132.244759 
L 75.687468 123.359953 
L 75.964549 124.347154 
L 76.241629 120.398351 
L 76.51871 121.385552 
L 76.795791 120.398351 
L 77.072872 123.359953 
L 77.349953 138.167964 
L 77.627033 125.334354 
L 77.904114 125.334354 
L 78.181195 111.513545 
L 78.458276 133.23196 
L 78.735357 126.321555 
L 79.012438 94.731132 
L 79.289518 97.692735 
L 79.566599 88.807928 
L 79.84368 110.526344 
L 80.120761 142.116766 
L 80.397842 147.05277 
L 80.674923 130.270358 
L 80.952003 161.860781 
L 81.229084 165.809583 
L 81.506165 147.05277 
L 82.060327 175.681591 
L 82.337408 170.745587 
L 82.614488 186.540798 
L 82.891569 195.425605 
L 83.16865 194.438404 
L 83.722812 194.438404 
L 83.999892 195.425605 
L 84.276973 194.438404 
L 84.554054 194.438404 
L 84.831135 193.451203 
L 85.108216 178.643193 
L 85.385297 114.475147 
L 85.662377 191.476802 
L 85.939458 188.5152 
L 86.216539 188.5152 
L 86.770701 190.489601 
L 87.324862 194.438404 
L 88.156105 197.400006 
L 88.433186 197.400006 
L 88.987347 199.374408 
L 89.81859 199.374408 
L 90.095671 200.361608 
L 91.481075 200.361608 
L 91.758156 199.374408 
L 92.312317 201.348809 
L 92.589398 201.348809 
L 92.866479 200.361608 
L 93.420641 200.361608 
L 93.697721 199.374408 
L 93.974802 200.361608 
L 94.251883 199.374408 
L 94.528964 200.361608 
L 94.806045 200.361608 
L 95.083126 201.348809 
L 95.360206 201.348809 
L 95.914368 375.836534 
L 96.46853 375.836534 
L 96.745611 333.633704 
L 97.022691 255.644848 
L 97.299772 232.939232 
L 97.576853 234.913633 
L 97.853934 192.464003 
L 98.131015 205.297612 
L 98.408095 192.464003 
L 98.685176 203.32321 
L 98.962257 189.5024 
L 99.239338 203.32321 
L 99.516419 193.451203 
L 99.7935 206.284812 
L 100.07058 194.438404 
L 100.347661 206.284812 
L 100.624742 193.451203 
L 100.901823 205.297612 
L 101.178904 207.272013 
L 101.455985 207.272013 
L 101.733065 209.246415 
L 102.010146 210.233615 
L 103.11847 210.233615 
L 103.39555 211.220816 
L 103.672631 209.246415 
L 103.949712 208.259214 
L 104.226793 209.246415 
L 104.503874 234.913633 
L 104.780954 284.273668 
L 105.058035 228.990429 
L 105.335116 224.054425 
L 105.612197 225.041626 
L 105.889278 202.33601 
L 106.166359 215.169619 
L 106.443439 216.15682 
L 106.72052 215.169619 
L 107.551763 218.131221 
L 107.828844 199.374408 
L 108.105924 214.182418 
L 108.383005 218.131221 
L 108.660086 217.14402 
L 108.937167 199.374408 
L 109.214248 213.195217 
L 109.491329 215.169619 
L 109.768409 214.182418 
L 110.04549 199.374408 
L 110.322571 215.169619 
L 110.599652 217.14402 
L 111.153813 219.118422 
L 111.430894 201.348809 
L 111.707975 214.182418 
L 111.985056 216.15682 
L 112.816298 219.118422 
L 113.093379 218.131221 
L 114.201703 218.131221 
L 114.478783 219.118422 
L 114.755864 217.14402 
L 115.032945 216.15682 
L 116.418349 216.15682 
L 116.69543 215.169619 
L 116.972511 43.742216 
L 117.526672 43.742216 
L 117.803753 332.646503 
L 118.080834 335.608105 
L 118.357915 231.557151 
L 118.634996 230.47123 
L 119.189157 231.35971 
L 119.466238 231.26099 
L 119.743319 230.86611 
L 120.0204 230.66867 
L 120.297481 226.423707 
L 120.574562 43.742216 
L 120.851642 169.166066 
L 121.128723 228.003228 
L 121.405804 363.447165 
L 121.682885 375.589734 
L 121.959966 357.622681 
L 122.237047 373.023012 
L 122.514127 326.624579 
L 122.791208 199.078247 
L 123.068289 199.275687 
L 123.622451 198.880807 
L 124.176612 198.880807 
L 124.453693 199.078247 
L 124.730774 198.979527 
L 125.007855 199.078247 
L 125.562016 198.979527 
L 125.839097 199.078247 
L 126.116178 198.979527 
L 126.393259 199.078247 
L 126.67034 199.374408 
L 126.947421 198.880807 
L 128.055744 199.176967 
L 128.332825 199.078247 
L 128.609906 43.742216 
L 128.886986 239.257316 
L 129.164067 201.644969 
L 129.441148 189.996001 
L 129.718229 169.955826 
L 129.99531 162.847981 
L 130.272391 188.120319 
L 130.549471 183.480476 
L 130.826552 171.930228 
L 131.103633 187.626719 
L 131.380714 227.805788 
L 131.657795 240.639397 
L 131.934875 243.008679 
L 132.211956 247.648522 
L 132.489037 246.760042 
L 133.32028 259.00133 
L 133.59736 262.061652 
L 134.151522 263.641174 
L 134.428603 268.478457 
L 134.705684 270.452859 
L 134.982765 273.315741 
L 135.536926 273.710621 
L 135.814007 275.290142 
L 136.091088 275.290142 
L 136.368169 274.302941 
L 136.64525 274.993982 
L 136.92233 274.895262 
L 137.199411 274.105501 
L 137.476492 274.105501 
L 138.030654 276.672223 
L 138.307734 276.770943 
L 138.584815 277.165823 
L 138.861896 276.376063 
L 139.138977 276.968383 
L 139.416058 277.264543 
L 139.693139 277.264543 
L 139.970219 276.277343 
L 140.524381 276.770943 
L 140.801462 277.363263 
L 141.078543 277.165823 
L 141.355624 277.363263 
L 141.632704 277.363263 
L 141.909785 276.277343 
L 142.463947 276.573503 
L 142.741028 276.376063 
L 143.018109 195.030724 
L 143.295189 205.396332 
L 143.57227 240.244517 
L 143.849351 200.855209 
L 144.403513 183.776636 
L 144.957674 224.350585 
L 145.234755 224.745466 
L 145.511836 200.460328 
L 145.788917 231.557151 
L 146.065998 237.776515 
L 146.343078 252.387086 
L 146.620159 253.374286 
L 146.89724 263.048853 
L 147.174321 247.549802 
L 147.451402 261.568052 
L 147.728483 284.964709 
L 148.005563 263.246293 
L 148.282644 151.100293 
L 148.559725 196.314085 
L 148.836806 291.282793 
L 149.113887 282.299267 
L 149.390968 237.381635 
L 149.668048 268.774617 
L 149.945129 233.630272 
L 150.22221 235.900834 
L 150.499291 271.637499 
L 150.776372 287.432711 
L 151.053453 258.01413 
L 151.330533 253.571726 
L 151.607614 285.754469 
L 151.884695 282.003107 
L 152.161776 286.64295 
L 152.715937 289.801992 
L 152.993018 282.003107 
L 153.270099 269.268218 
L 153.54718 266.207895 
L 153.824261 268.774617 
L 154.101342 211.615696 
L 154.378422 206.284812 
L 154.655503 219.019702 
L 155.209665 221.981304 
L 155.486746 221.487703 
L 155.763827 222.672344 
L 156.317988 273.809341 
L 156.595069 262.160373 
L 156.87215 223.264665 
L 157.149231 223.165945 
L 157.426312 222.178744 
L 157.703392 221.981304 
L 157.980473 210.233615 
L 158.257554 172.226388 
L 158.534635 174.102069 
L 159.088796 81.798803 
L 159.365877 127.111316 
L 159.642958 134.219161 
L 159.920039 137.970523 
L 160.19712 139.648765 
L 160.474201 139.747485 
L 160.751281 141.129566 
L 161.028362 140.438525 
L 161.305443 140.734685 
L 161.582524 154.851656 
L 162.413766 334.226024 
L 162.690847 227.707068 
L 162.967928 168.277585 
L 163.245009 185.257437 
L 163.52209 147.842531 
L 163.799171 93.052891 
L 164.076251 126.222835 
L 164.353332 140.043645 
L 164.630413 120.891951 
L 164.907494 84.661685 
L 165.461655 153.370855 
L 166.015817 165.414703 
L 166.569979 170.350707 
L 166.84706 169.857106 
L 167.12414 43.742216 
L 167.401221 121.681712 
L 167.678302 138.661564 
L 167.955383 170.548147 
L 168.232464 169.955826 
L 168.509545 170.844307 
L 168.786625 169.462226 
L 169.063706 170.844307 
L 169.340787 170.844307 
L 169.894949 131.553719 
L 170.17203 130.369078 
L 170.726191 131.652439 
L 171.557434 131.158839 
L 171.834514 131.356279 
L 172.111595 130.961398 
L 172.388676 132.244759 
L 172.665757 123.162513 
L 172.942838 103.418499 
L 173.219919 102.431298 
L 173.496999 103.221059 
L 173.77408 102.530018 
L 174.051161 109.045543 
L 174.328242 43.742216 
L 174.605323 170.943027 
L 174.882404 170.844307 
L 175.159484 127.999796 
L 175.436565 109.242983 
L 175.713646 152.877254 
L 175.990727 166.007024 
L 176.267808 169.363506 
L 176.544889 168.376305 
L 176.821969 169.857106 
L 177.09905 159.985099 
L 177.653212 148.731011 
L 177.930293 156.233737 
L 178.484454 136.094842 
L 178.761535 135.403802 
L 179.038616 138.167964 
L 179.315697 155.542696 
L 179.592778 151.791333 
L 179.869858 157.714538 
L 180.146939 156.924777 
L 180.42402 159.787659 
L 180.701101 156.727337 
L 181.255263 137.871803 
L 181.809424 120.891951 
L 182.086505 127.308756 
L 182.363586 129.875478 
L 182.640667 124.050994 
L 183.194828 139.648765 
L 183.471909 139.155164 
L 183.74899 139.747485 
L 184.026071 124.840754 
L 184.303152 136.785883 
L 184.580233 165.315983 
L 184.857313 172.127668 
L 185.134394 182.098395 
L 185.411475 183.381756 
L 185.688556 179.827834 
L 185.965637 151.100293 
L 186.242717 134.021721 
L 186.519798 138.859004 
L 186.796879 136.391002 
L 187.07396 136.391002 
L 187.351041 146.95405 
L 187.628122 185.158717 
L 187.905202 191.081922 
L 188.182283 189.30496 
L 188.459364 192.167842 
L 188.736445 165.513423 
L 189.013526 159.392779 
L 189.290607 175.18799 
L 189.567687 177.359832 
L 189.844768 183.480476 
L 190.121849 182.591995 
L 190.39893 182.690716 
L 190.953092 184.665117 
L 191.230172 184.763837 
L 191.507253 188.120319 
L 191.784334 189.20624 
L 192.061415 43.742216 
L 192.338496 201.743689 
L 192.615576 201.348809 
L 192.892657 201.743689 
L 193.446819 204.409131 
L 193.7239 204.014251 
L 194.000981 205.593772 
L 194.278061 204.014251 
L 194.555142 192.464003 
L 194.832223 203.12577 
L 195.109304 202.82961 
L 195.940546 201.447529 
L 196.217627 201.941129 
L 196.494708 203.42193 
L 196.771789 202.63217 
L 197.04887 203.32321 
L 197.603031 206.383533 
L 197.880112 232.149471 
L 198.157193 228.200668 
L 198.434274 221.487703 
L 198.711355 220.105622 
L 198.988435 222.080024 
L 199.265516 222.277464 
L 199.542597 43.742216 
L 199.819678 209.246415 
L 200.37384 212.899057 
L 200.65092 234.420033 
L 201.205082 249.919084 
L 201.759244 256.928209 
L 202.036325 219.414582 
L 202.590486 223.462105 
L 203.421729 224.942906 
L 203.69881 207.666893 
L 203.97589 163.933902 
L 204.252971 179.334233 
L 204.807133 235.308513 
L 205.361295 217.835061 
L 205.638375 217.835061 
L 205.915456 199.868008 
L 206.192537 140.833406 
L 206.746699 198.880807 
L 207.023779 185.257437 
L 207.30086 160.87358 
L 207.577941 178.939353 
L 207.855022 213.096497 
L 208.132103 218.427381 
L 208.409184 210.134895 
L 208.686264 219.315862 
L 208.963345 172.325108 
L 209.240426 187.429279 
L 209.517507 189.10752 
L 209.794588 196.314085 
L 210.071669 267.491256 
L 210.348749 306.189524 
L 210.62583 278.350464 
L 210.902911 192.957603 
L 211.179992 189.40368 
L 211.457073 194.043524 
L 211.734154 188.5152 
L 212.011234 188.21904 
L 212.565396 180.716314 
L 212.842477 178.050872 
L 213.119558 178.347032 
L 213.396638 181.308635 
L 213.673719 190.390881 
L 213.9508 184.171517 
L 214.504962 179.926554 
L 214.782043 174.39823 
L 215.059123 172.226388 
L 215.336204 189.996001 
L 215.613285 192.760163 
L 215.890366 189.996001 
L 216.167447 43.742216 
L 216.444528 293.355915 
L 216.721608 284.964709 
L 217.27577 243.600999 
L 217.552851 244.98308 
L 217.829932 257.619249 
L 218.661174 228.299388 
L 218.938255 232.149471 
L 219.215336 221.981304 
L 219.492417 224.548026 
L 219.769497 224.548026 
L 220.046578 229.977629 
L 220.60074 250.610124 
L 220.877821 251.103725 
L 221.431982 231.557151 
L 221.709063 229.582749 
L 221.986144 229.582749 
L 222.263225 230.27379 
L 222.540306 225.140346 
L 222.817387 235.308513 
L 223.094467 250.906284 
L 223.371548 192.464003 
L 223.648629 209.937455 
L 223.92571 209.542575 
L 224.202791 195.721765 
L 224.479872 268.379737 
L 224.756952 43.742216 
L 225.034033 266.602776 
L 225.311114 227.016027 
L 225.588195 221.882584 
L 225.865276 242.613799 
L 226.142356 231.26099 
L 226.419437 231.26099 
L 226.696518 252.387086 
L 226.973599 161.762061 
L 227.25068 238.664996 
L 227.527761 245.674121 
L 227.804841 234.617473 
L 228.081922 238.270115 
L 228.359003 239.553476 
L 228.636084 229.484029 
L 228.913165 237.480355 
L 229.190246 237.480355 
L 229.467326 332.251623 
L 229.744407 43.742216 
L 230.021488 232.346911 
L 230.57565 284.569829 
L 231.129811 230.96483 
L 231.406892 238.270115 
L 231.961054 226.226267 
L 232.238135 217.637621 
L 232.515215 197.301286 
L 232.792296 252.781966 
L 233.069377 255.546128 
L 233.346458 249.228043 
L 233.623539 236.986755 
L 233.90062 239.454756 
L 234.1777 247.549802 
L 234.454781 271.93366 
L 234.731862 247.845962 
L 235.008943 240.836837 
L 235.286024 262.653973 
L 235.563105 224.153145 
L 236.117266 258.90261 
L 236.394347 253.966607 
L 236.671428 267.787417 
L 236.948509 261.864212 
L 237.22559 266.010455 
L 237.50267 244.39076 
L 237.779751 246.957482 
L 238.056832 240.540677 
L 238.333913 224.646746 
L 238.888075 243.600999 
L 239.165155 237.282915 
L 239.719317 245.377961 
L 239.996398 232.544351 
L 240.273479 228.200668 
L 240.550559 234.913633 
L 240.82764 216.45298 
L 241.104721 52.380222 
L 241.381802 251.301165 
L 241.935964 221.586423 
L 242.490125 215.268339 
L 242.767206 210.233615 
L 243.044287 226.719867 
L 243.321368 207.173293 
L 243.598449 200.065448 
L 243.875529 204.705291 
L 244.15261 186.343358 
L 244.429691 184.665117 
L 244.706772 190.390881 
L 244.983853 178.939353 
L 245.538014 171.239187 
L 245.815095 157.517098 
L 246.369257 194.635844 
L 246.646338 187.231839 
L 246.923418 232.445631 
L 247.200499 234.420033 
L 247.47758 194.932004 
L 247.754661 184.368957 
L 248.031742 191.279362 
L 248.308823 186.145918 
L 248.585903 206.975853 
L 248.862984 236.591874 
L 249.140065 236.986755 
L 249.417146 240.047077 
L 249.694227 237.677795 
L 249.971308 251.992205 
L 250.248388 257.520529 
L 250.525469 278.054304 
L 250.80255 286.34679 
L 251.079631 280.621026 
L 251.356712 281.706947 
L 251.633793 253.670446 
L 251.910873 244.29204 
L 252.187954 243.403559 
L 252.465035 212.109297 
L 252.742116 231.06355 
L 253.296277 239.652196 
L 253.573358 251.103725 
L 253.850439 246.858762 
L 254.12752 235.900834 
L 254.404601 238.270115 
L 254.681682 242.317638 
L 255.235843 227.410908 
L 255.790005 235.999554 
L 256.067086 239.059876 
L 256.344167 245.772841 
L 256.621247 233.926432 
L 256.898328 237.677795 
L 257.175409 252.979406 
L 257.45249 249.919084 
L 257.729571 236.295714 
L 258.006652 254.657647 
L 258.283732 229.582749 
L 258.837894 318.332093 
L 259.114975 218.920982 
L 259.392056 175.18799 
L 259.669136 200.164168 
L 259.946217 205.297612 
L 260.223298 195.129444 
L 260.500379 195.623045 
L 260.77746 181.802235 
L 261.054541 202.039849 
L 261.331621 201.348809 
L 262.162864 219.414582 
L 262.439945 215.367059 
L 262.717026 203.816811 
L 262.994106 203.816811 
L 263.271187 207.568173 
L 263.548268 209.048974 
L 263.825349 214.972179 
L 264.10243 225.239066 
L 264.379511 216.65042 
L 264.656591 216.74914 
L 264.933672 220.895383 
L 265.210753 230.56995 
L 265.487834 234.518753 
L 266.041996 257.323089 
L 266.319076 251.399885 
L 266.873238 254.164047 
L 267.150319 256.237168 
L 267.4274 253.670446 
L 267.70448 244.68692 
L 267.981561 231.754591 
L 268.535723 243.600999 
L 268.812804 246.365161 
L 269.089885 243.798439 
L 269.366965 214.281138 
L 269.644046 263.345013 
L 270.198208 221.586423 
L 270.475289 224.153145 
L 270.75237 227.904508 
L 271.02945 224.942906 
L 271.306531 225.930107 
L 271.583612 223.264665 
L 271.860693 228.398108 
L 272.137774 72.913997 
L 272.414855 194.438404 
L 272.691935 197.696166 
L 272.969016 193.944804 
L 273.246097 179.432953 
L 273.523178 188.31776 
L 274.077339 192.365283 
L 274.35442 196.017925 
L 274.631501 190.193441 
L 274.908582 219.315862 
L 275.185663 215.663219 
L 275.462744 202.82961 
L 275.739824 212.602897 
L 276.016905 213.491378 
L 276.293986 213.392658 
L 276.571067 210.825936 
L 277.125229 213.688818 
L 277.402309 220.500503 
L 277.67939 193.846084 
L 277.956471 210.134895 
L 278.233552 204.014251 
L 278.510633 213.392658 
L 278.787714 230.86611 
L 279.064794 223.462105 
L 279.341875 191.772962 
L 279.896037 208.555374 
L 280.173118 205.988652 
L 280.450198 213.787538 
L 280.727279 215.465779 
L 281.00436 217.933781 
L 281.558522 202.33601 
L 281.835603 205.495052 
L 282.112683 213.590098 
L 282.389764 209.838735 
L 282.666845 199.571848 
L 282.943926 197.103846 
L 283.221007 203.718091 
L 283.498088 194.734564 
L 283.775168 194.635844 
L 284.052249 193.056323 
L 284.32933 194.339684 
L 284.606411 196.412805 
L 284.883492 200.361608 
L 285.160573 191.279362 
L 285.437653 174.102069 
L 285.714734 199.769288 
L 286.268896 189.798561 
L 286.545977 188.120319 
L 286.823057 187.231839 
L 287.100138 180.123994 
L 287.377219 182.493275 
L 287.6543 208.654094 
L 287.931381 191.871682 
L 288.208462 182.295835 
L 288.485542 183.480476 
L 288.762623 170.943027 
L 289.039704 169.659666 
L 289.316785 187.133119 
L 289.870947 203.32321 
L 290.425108 179.038073 
L 290.97927 164.328782 
L 291.256351 164.131342 
L 291.533432 148.928451 
L 291.810512 178.544473 
L 292.087593 166.796784 
L 292.364674 166.007024 
L 292.641755 171.732788 
L 292.918836 168.277585 
L 293.195917 175.879031 
L 293.472997 211.911857 
L 293.750078 201.447529 
L 294.027159 200.262888 
L 294.581321 192.464003 
L 294.858401 200.460328 
L 295.135482 227.213467 
L 295.412563 221.981304 
L 295.689644 221.487703 
L 295.966725 227.312188 
L 296.243806 229.089149 
L 296.520886 231.952031 
L 297.075048 254.262767 
L 297.352129 255.249968 
L 297.62921 255.447408 
L 298.183371 255.348688 
L 298.460452 245.970281 
L 299.014614 200.460328 
L 299.291695 193.352483 
L 299.568776 197.696166 
L 300.122937 250.017804 
L 300.400018 246.957482 
L 300.677099 260.087251 
L 300.95418 280.324866 
L 301.23126 289.407112 
L 301.508341 276.277343 
L 301.785422 245.871561 
L 302.062503 196.906406 
L 302.339584 235.407233 
L 302.616665 220.895383 
L 303.447907 251.005005 
L 303.724988 246.562601 
L 304.002069 253.867887 
L 304.27915 247.747242 
L 304.55623 250.313964 
L 304.833311 260.087251 
L 305.110392 254.460207 
L 305.387473 263.345013 
L 305.664554 250.313964 
L 305.941635 242.712519 
L 306.495796 216.5517 
L 307.049958 229.681469 
L 307.604119 212.899057 
L 308.158281 193.056323 
L 308.435362 192.562723 
L 308.712443 196.511525 
L 309.266604 221.290263 
L 309.543685 226.028827 
L 309.820766 273.611901 
L 310.097847 239.553476 
L 310.374928 178.050872 
L 310.652009 207.568173 
L 310.929089 217.44018 
L 311.20617 202.53345 
L 311.483251 202.23729 
L 311.760332 194.734564 
L 312.037413 191.575522 
L 312.314494 193.451203 
L 312.591574 207.568173 
L 312.868655 209.542575 
L 313.145736 209.542575 
L 313.422817 208.851534 
L 313.699898 216.45298 
L 313.976978 218.920982 
L 314.254059 240.836837 
L 314.53114 234.518753 
L 314.808221 221.388983 
L 315.085302 219.217142 
L 315.362383 223.560825 
L 315.916544 216.25554 
L 316.747787 262.950133 
L 317.024868 256.237168 
L 317.301948 221.092823 
L 317.579029 217.736341 
L 317.85611 224.646746 
L 318.133191 275.586302 
L 318.410272 244.0946 
L 318.687353 182.986876 
L 318.964433 190.687041 
L 319.241514 262.555253 
L 319.518595 263.246293 
L 320.072757 266.701496 
L 320.349838 264.825814 
L 320.903999 204.211691 
L 321.18108 197.992327 
L 321.735242 206.087372 
L 322.012322 221.191543 
L 322.566484 233.334112 
L 322.843565 224.745466 
L 323.120646 230.66867 
L 323.397727 229.484029 
L 323.674807 239.158596 
L 323.951888 244.68692 
L 324.228969 244.0946 
L 324.50605 214.083698 
L 324.783131 222.968504 
L 325.060212 220.401783 
L 325.337292 213.096497 
L 325.614373 219.019702 
L 325.891454 202.82961 
L 326.168535 215.564499 
L 326.445616 214.774739 
L 326.722697 230.76739 
L 326.999777 234.518753 
L 327.276858 252.781966 
L 327.553939 246.760042 
L 327.83102 243.897159 
L 328.108101 229.286589 
L 328.385181 281.509506 
L 328.662262 287.926311 
L 328.939343 287.333991 
L 329.216424 288.617352 
L 329.493505 290.986633 
L 330.047666 280.522306 
L 330.324747 285.359589 
L 330.601828 285.359589 
L 330.878909 283.878788 
L 331.15599 284.964709 
L 331.433071 287.03783 
L 331.710151 287.630151 
L 331.987232 278.153024 
L 332.264313 253.078126 
L 332.541394 255.546128 
L 332.818475 253.473006 
L 333.095556 241.231718 
L 333.372636 240.738117 
L 333.649717 253.571726 
L 333.926798 253.078126 
L 334.48096 277.856864 
L 334.75804 283.385188 
L 335.312202 289.110952 
L 335.589283 289.407112 
L 335.866364 216.35426 
L 336.420525 258.60645 
L 336.697606 249.524203 
L 336.974687 245.27924 
L 337.251768 265.023255 
L 337.528849 265.714295 
L 337.80593 243.304839 
L 338.360091 238.368835 
L 338.637172 238.368835 
L 338.914253 270.650299 
L 339.468415 243.502279 
L 339.745495 246.858762 
L 340.022576 254.164047 
L 340.299657 242.909959 
L 340.576738 239.454756 
L 340.853819 219.710742 
L 341.130899 255.941008 
L 341.40798 266.405336 
L 341.685061 266.306616 
L 341.962142 266.405336 
L 342.239223 267.886137 
L 342.516304 265.714295 
L 343.070465 268.182297 
L 343.347546 267.589976 
L 343.624627 223.856985 
L 344.178789 192.266562 
L 344.455869 224.054425 
L 344.73295 232.939232 
L 345.010031 221.487703 
L 345.287112 217.736341 
L 345.564193 206.778413 
L 345.841274 213.688818 
L 346.118354 241.626598 
L 346.395435 239.553476 
L 346.672516 235.209793 
L 346.949597 223.856985 
L 347.226678 218.328661 
L 347.503759 221.586423 
L 347.780839 228.891709 
L 348.05792 254.065327 
L 348.335001 253.867887 
L 348.612082 252.189645 
L 348.889163 247.549802 
L 349.166243 255.941008 
L 349.443324 269.860538 
L 349.720405 268.281017 
L 349.997486 244.48948 
L 350.274567 263.443733 
L 350.551648 265.220695 
L 350.828728 262.555253 
L 351.105809 272.42726 
L 351.38289 272.32854 
L 351.659971 286.44551 
L 352.214133 266.504056 
L 352.491213 279.831265 
L 352.768294 282.990308 
L 353.045375 220.105622 
L 353.322456 259.889811 
L 353.599537 273.315741 
L 353.876618 246.858762 
L 354.430779 305.103603 
L 354.984941 237.184195 
L 355.262022 236.986755 
L 355.816183 247.944682 
L 356.093264 264.825814 
L 356.370345 254.558927 
L 356.647426 261.765492 
L 356.924507 260.877012 
L 357.201587 275.388862 
L 357.478668 276.672223 
L 357.755749 272.1311 
L 358.03283 263.147573 
L 358.586992 274.204221 
L 358.864072 269.959258 
L 359.141153 292.269994 
L 359.418234 285.95191 
L 359.695315 285.063429 
L 360.249477 280.719746 
L 360.526557 276.277343 
L 360.803638 281.015906 
L 361.080719 290.591753 
L 361.3578 295.429036 
L 361.634881 238.072675 
L 361.911961 304.215123 
L 362.743204 298.094478 
L 363.020285 298.686799 
L 363.297366 295.725197 
L 363.851527 268.478457 
L 364.405689 210.036175 
L 364.68277 246.661321 
L 364.959851 254.361487 
L 365.236931 258.80389 
L 365.514012 257.816689 
L 365.791093 259.19877 
L 366.068174 253.867887 
L 366.345255 259.889811 
L 366.899416 255.151248 
L 367.176497 256.335888 
L 367.453578 262.851413 
L 367.730659 262.061652 
L 368.00774 262.555253 
L 368.28482 259.889811 
L 368.561901 265.615575 
L 369.116063 253.966607 
L 369.393144 252.880686 
L 369.670225 261.074452 
L 369.947305 261.074452 
L 370.224386 224.153145 
L 370.501467 268.083577 
L 370.778548 260.778292 
L 371.055629 267.491256 
L 371.33271 240.145797 
L 371.60979 250.215244 
L 371.886871 226.423707 
L 372.163952 242.317638 
L 372.441033 238.467556 
L 372.718114 239.750916 
L 372.995195 250.313964 
L 373.272275 241.824038 
L 373.549356 264.924535 
L 373.826437 264.924535 
L 374.103518 360.189403 
L 374.380599 253.670446 
L 374.65768 223.560825 
L 374.93476 231.655871 
L 375.211841 228.003228 
L 375.488922 244.39076 
L 375.766003 252.387086 
L 376.043084 248.043402 
L 376.320164 271.341339 
L 376.597245 268.379737 
L 376.874326 277.067103 
L 377.151407 314.67945 
L 377.428488 314.87689 
L 377.705569 274.302941 
L 377.982649 252.683246 
L 378.25973 275.882462 
L 378.536811 232.248191 
L 378.813892 289.703272 
L 379.368054 300.6612 
L 379.645134 277.067103 
L 379.922215 279.929985 
L 380.199296 276.869663 
L 380.476377 283.582628 
L 380.753458 282.595427 
L 381.030539 285.359589 
L 381.307619 295.725197 
L 381.861781 286.54423 
L 382.138862 271.341339 
L 382.415943 271.045179 
L 382.693023 268.873337 
L 382.970104 263.147573 
L 383.247185 277.560704 
L 383.524266 280.917186 
L 383.801347 280.226146 
L 384.078428 284.767269 
L 384.355508 286.05063 
L 384.632589 257.421809 
L 384.90967 264.825814 
L 385.463832 265.911735 
L 385.740913 283.878788 
L 386.017993 275.981182 
L 386.572155 280.917186 
L 386.849236 235.900834 
L 387.126317 288.913512 
L 387.403398 285.260869 
L 387.680478 283.286468 
L 387.957559 280.226146 
L 388.23464 262.752693 
L 388.511721 264.233494 
L 388.788802 264.036054 
L 389.065882 255.644848 
L 389.342963 259.19877 
L 389.620044 259.297491 
L 389.897125 258.60645 
L 390.174206 265.023255 
L 390.451287 254.558927 
L 390.728367 255.941008 
L 391.005448 254.855087 
L 391.282529 256.533329 
L 391.836691 252.387086 
L 392.113772 231.16227 
L 392.667933 165.908304 
L 392.945014 213.590098 
L 393.222095 181.111194 
L 393.776257 192.365283 
L 394.053337 193.352483 
L 394.330418 177.359832 
L 394.607499 189.897281 
L 394.88458 189.996001 
L 395.161661 200.559048 
L 395.715822 258.40901 
L 395.992903 218.328661 
L 396.269984 233.334112 
L 396.547065 260.877012 
L 396.824146 268.675897 
L 397.378307 257.619249 
L 397.655388 261.271892 
L 397.932469 277.955584 
L 398.20955 268.873337 
L 398.486631 232.840512 
L 398.763711 253.078126 
L 399.040792 239.356036 
L 399.317873 252.288365 
L 399.594954 246.069001 
L 399.872035 264.529654 
L 400.149116 266.504056 
L 400.426196 263.838614 
L 400.703277 229.089149 
L 401.257439 258.01413 
L 401.53452 263.246293 
L 401.811601 265.121975 
L 402.088681 265.319415 
L 402.642843 249.919084 
L 402.919924 207.370733 
L 403.197005 241.626598 
L 403.474085 248.833163 
L 403.751166 267.589976 
L 404.028247 251.893485 
L 404.305328 256.632049 
L 404.582409 246.562601 
L 404.85949 256.533329 
L 405.413651 226.028827 
L 405.690732 230.66867 
L 405.967813 246.661321 
L 406.521975 227.608348 
L 406.799055 243.699719 
L 407.076136 231.26099 
L 407.353217 226.917307 
L 407.907379 204.507851 
L 408.18446 213.787538 
L 408.46154 283.286468 
L 408.738621 290.690473 
L 409.015702 228.792989 
L 409.292783 210.727216 
L 409.569864 256.039728 
L 409.846944 252.189645 
L 410.124025 269.465658 
L 410.401106 251.301165 
L 410.678187 202.039849 
L 410.955268 243.304839 
L 411.232349 188.81136 
L 411.509429 224.449306 
L 411.78651 244.68692 
L 412.063591 216.45298 
L 412.340672 204.409131 
L 412.894834 282.990308 
L 413.448995 210.628496 
L 413.726076 203.22449 
L 414.003157 206.482253 
L 414.280238 255.447408 
L 414.557319 282.299267 
L 414.834399 245.575401 
L 415.11148 259.297491 
L 415.665642 241.231718 
L 415.942723 257.323089 
L 416.219803 241.231718 
L 416.496884 244.0946 
L 417.051046 262.555253 
L 417.328127 260.284691 
L 417.605208 259.396211 
L 417.882288 259.988531 
L 418.159369 267.589976 
L 418.713531 250.017804 
L 418.990612 230.56995 
L 419.267693 236.690594 
L 419.544773 238.664996 
L 419.821854 218.229941 
L 420.098935 243.206119 
L 420.376016 240.244517 
L 420.653097 245.575401 
L 420.930178 274.302941 
L 421.207258 262.851413 
L 421.484339 261.864212 
L 421.76142 271.637499 
L 422.038501 262.950133 
L 422.315582 259.00133 
L 422.592662 248.438283 
L 422.869743 254.657647 
L 423.146824 231.458431 
L 423.423905 242.613799 
L 423.700986 248.537003 
L 423.978067 245.575401 
L 424.255147 236.098274 
L 424.532228 193.056323 
L 424.809309 201.546249 
L 425.08639 222.573624 
L 425.363471 220.599223 
L 425.640552 216.94658 
L 425.917632 218.526101 
L 426.194713 203.520651 
L 426.471794 211.615696 
L 426.748875 196.708966 
L 427.025956 207.864334 
L 427.303037 208.456654 
L 427.580117 194.833284 
L 427.857198 224.449306 
L 428.41136 243.403559 
L 428.688441 211.615696 
L 428.965522 242.515078 
L 429.242602 247.648522 
L 429.519683 241.824038 
L 429.796764 223.856985 
L 430.073845 228.200668 
L 430.350926 234.321313 
L 430.628006 245.0818 
L 430.905087 225.930107 
L 431.182168 230.96483 
L 431.459249 246.760042 
L 431.73633 234.420033 
L 432.290491 247.056202 
L 432.567572 219.414582 
L 432.844653 237.085475 
L 433.398815 221.191543 
L 433.675896 196.017925 
L 433.952976 204.310411 
L 434.230057 191.772962 
L 434.784219 219.019702 
L 435.0613 203.02705 
L 435.338381 209.048974 
L 435.615461 205.198892 
L 435.892542 209.542575 
L 436.169623 221.092823 
L 436.446704 189.0088 
L 436.723785 242.613799 
L 437.000865 249.524203 
L 437.277946 246.463881 
L 437.555027 251.597325 
L 437.832108 244.0946 
L 438.109189 246.760042 
L 438.38627 255.249968 
L 438.66335 257.520529 
L 438.940431 274.006781 
L 439.217512 264.529654 
L 439.494593 268.972057 
L 439.771674 262.259093 
L 440.048755 265.418135 
L 440.325835 260.877012 
L 440.602916 259.791091 
L 440.879997 265.516855 
L 441.157078 264.134774 
L 441.434159 260.679571 
L 441.71124 263.739894 
L 441.98832 264.825814 
L 442.265401 264.727094 
L 442.542482 269.465658 
L 442.819563 277.165823 
L 443.373724 265.319415 
L 443.650805 249.622924 
L 443.927886 246.957482 
L 444.204967 267.787417 
L 444.482048 263.937334 
L 444.759129 219.118422 
L 445.036209 270.749019 
L 445.31329 272.72342 
L 445.590371 268.281017 
L 445.867452 276.474783 
L 446.144533 263.246293 
L 446.421614 260.087251 
L 446.698694 262.752693 
L 446.975775 263.641174 
L 447.252856 265.220695 
L 447.529937 259.494931 
L 447.807018 256.434608 
L 448.084099 265.023255 
L 448.361179 265.516855 
L 448.63826 258.80389 
L 448.915341 256.533329 
L 449.469503 265.418135 
L 449.746583 257.421809 
L 450.300745 276.376063 
L 450.577826 281.015906 
L 450.854907 271.834939 
L 451.131988 283.780068 
L 451.686149 289.308392 
L 451.96323 282.595427 
L 452.517392 287.531431 
L 452.794473 205.100172 
L 453.071553 274.993982 
L 453.625715 288.123751 
L 453.902796 300.06888 
L 454.179877 300.6612 
L 454.456958 301.747121 
L 455.2882 276.376063 
L 455.565281 276.277343 
L 455.842362 267.293816 
L 456.119443 278.844065 
L 456.396523 277.067103 
L 456.673604 284.273668 
L 456.950685 267.984857 
L 457.227766 268.972057 
L 457.504847 271.538779 
L 457.781927 282.101827 
L 458.059008 283.187748 
L 458.336089 288.617352 
L 458.61317 301.747121 
L 458.890251 281.608227 
L 459.167332 221.783864 
L 459.444412 255.151248 
L 459.721493 267.195096 
L 459.998574 284.076228 
L 460.275655 284.569829 
L 460.552736 280.818466 
L 460.829817 294.540556 
L 461.106897 274.105501 
L 461.383978 281.509506 
L 461.661059 247.253642 
L 462.215221 296.712397 
L 462.492302 297.502158 
L 462.769382 300.95736 
L 463.046463 293.553355 
L 463.323544 291.381514 
L 464.154786 276.376063 
L 464.431867 295.823917 
L 464.708948 298.785519 
L 464.986029 307.374165 
L 465.26311 291.677674 
L 465.540191 291.875114 
L 465.817271 298.489359 
L 466.094352 276.672223 
L 466.371433 231.952031 
L 466.648514 257.816689 
L 466.925595 240.145797 
L 467.202676 249.524203 
L 467.479756 267.491256 
L 467.756837 270.551579 
L 468.310999 300.75992 
L 468.58808 303.326642 
L 468.865161 295.429036 
L 469.142241 293.454635 
L 469.419322 264.727094 
L 469.696403 261.765492 
L 469.973484 246.266441 
L 470.250565 282.694147 
L 470.527645 273.315741 
L 470.804726 283.286468 
L 471.081807 282.200547 
L 471.358888 291.677674 
L 471.635969 285.85319 
L 471.91305 286.14935 
L 472.19013 284.174948 
L 472.467211 286.14935 
L 472.744292 289.999433 
L 473.021373 287.03783 
L 473.575535 276.376063 
L 473.852615 277.165823 
L 474.406777 265.418135 
L 474.683858 271.045179 
L 474.960939 250.906284 
L 475.5151 271.736219 
L 476.069262 277.955584 
L 476.346343 278.942785 
L 476.623424 279.140225 
L 476.900504 264.233494 
L 477.177585 261.568052 
L 477.454666 261.962932 
L 477.731747 246.266441 
L 478.008828 276.178623 
L 478.285909 268.873337 
L 478.562989 252.288365 
L 478.84007 249.129323 
L 479.117151 250.017804 
L 479.394232 251.301165 
L 479.671313 249.721644 
L 479.948394 43.742216 
L 480.225474 246.858762 
L 480.502555 239.553476 
L 480.779636 247.056202 
L 481.056717 239.454756 
L 481.333798 240.935557 
L 481.610879 245.970281 
L 481.887959 242.515078 
L 482.442121 225.831387 
L 482.719202 235.012353 
L 482.996283 180.518874 
L 483.273364 179.334233 
L 483.827525 222.869784 
L 484.104606 222.080024 
L 484.381687 195.425605 
L 484.658768 186.540798 
L 484.935848 169.758386 
L 485.212929 169.560946 
L 485.49001 167.092944 
L 485.767091 198.584647 
L 486.044172 252.880686 
L 486.321253 256.434608 
L 486.598333 218.723541 
L 486.875414 231.26099 
L 487.152495 232.544351 
L 487.429576 228.990429 
L 487.706657 158.405578 
L 487.983738 145.769409 
L 488.260818 172.423828 
L 488.537899 166.994224 
L 488.81498 198.584647 
L 489.092061 175.08927 
L 489.369142 163.835182 
L 489.646223 160.4787 
L 489.923303 183.283036 
L 490.200384 183.974076 
L 490.477465 163.440302 
L 491.308707 232.248191 
L 491.585788 218.920982 
L 491.862869 232.346911 
L 492.417031 174.79311 
L 492.694112 124.840754 
L 492.971192 160.57742 
L 493.248273 131.356279 
L 493.525354 242.712519 
L 493.802435 251.103725 
L 494.079516 223.067225 
L 494.356597 237.480355 
L 494.633677 211.714416 
L 494.910758 246.858762 
L 495.187839 246.562601 
L 495.46492 268.281017 
L 495.742001 231.557151 
L 496.019082 224.646746 
L 496.296162 230.07635 
L 496.573243 233.136672 
L 496.850324 257.421809 
L 497.127405 244.5882 
L 497.404486 245.772841 
L 497.681566 260.975732 
L 497.958647 284.273668 
L 498.235728 284.174948 
L 498.512809 275.388862 
L 498.78989 276.079903 
L 499.066971 261.370612 
L 499.344051 217.835061 
L 499.621132 242.811239 
L 499.898213 214.972179 
L 500.175294 216.84786 
L 500.452375 186.442078 
L 500.729456 132.54092 
L 501.006536 130.467798 
L 501.283617 200.065448 
L 501.560698 196.610246 
L 501.837779 183.579196 
L 502.391941 262.752693 
L 502.669021 266.109175 
L 502.946102 251.696045 
L 503.223183 284.569829 
L 503.500264 237.875235 
L 503.777345 268.873337 
L 504.054425 280.917186 
L 504.331506 265.121975 
L 504.885668 185.059997 
L 505.162749 245.772841 
L 505.43983 234.420033 
L 505.71691 186.145918 
L 505.993991 200.460328 
L 506.271072 205.001452 
L 506.548153 204.507851 
L 506.825234 211.615696 
L 507.102315 235.209793 
L 507.933557 162.453101 
L 508.7648 232.840512 
L 509.04188 302.043281 
L 509.318961 202.13857 
L 509.596042 247.549802 
L 509.873123 239.652196 
L 510.150204 188.71264 
L 510.427285 242.120198 
L 510.704365 248.339563 
L 510.981446 243.99588 
L 511.258527 265.220695 
L 511.535608 228.595548 
L 511.812689 252.584526 
L 512.089769 243.304839 
L 512.36685 302.536882 
L 512.643931 201.151369 
L 512.921012 158.109418 
L 513.198093 220.796663 
L 513.475174 218.229941 
L 513.752254 124.347154 
L 514.029335 162.156941 
L 514.306416 174.39823 
L 514.583497 43.742216 
L 514.860578 55.440544 
L 515.137659 99.568416 
L 515.414739 192.957603 
L 515.69182 150.804133 
L 515.968901 218.131221 
L 516.245982 84.562965 
L 516.523063 119.41115 
L 516.800144 193.155043 
L 517.354305 235.604674 
L 517.631386 235.209793 
L 517.908467 234.222593 
L 518.185548 207.864334 
L 518.739709 85.254006 
L 519.01679 95.323453 
L 519.293871 165.612143 
L 519.848033 219.118422 
L 520.125113 186.047198 
L 520.402194 194.339684 
L 520.679275 174.99055 
L 520.956356 197.202566 
L 521.233437 185.948478 
L 521.510518 209.641295 
L 521.787598 140.932126 
L 522.064679 221.783864 
L 522.34176 197.794886 
L 522.618841 199.571848 
L 522.895922 191.378082 
L 523.450083 231.06355 
L 523.727164 228.595548 
L 524.004245 157.813258 
L 524.281326 142.116766 
L 524.558407 107.762182 
L 524.835487 153.173414 
L 525.112568 233.334112 
L 525.389649 191.871682 
L 525.66673 193.155043 
L 526.220892 156.431177 
L 526.497972 91.47337 
L 526.775053 124.347154 
L 527.052134 118.325229 
L 527.329215 128.098516 
L 527.606296 149.323332 
L 527.883377 109.736583 
L 528.160457 95.817053 
L 528.437538 127.802356 
L 528.714619 230.76739 
L 528.9917 100.851777 
L 529.268781 93.250331 
L 529.545862 135.008921 
L 529.822942 238.763716 
L 530.100023 43.742216 
L 530.377104 224.251865 
L 530.654185 263.739894 
L 530.931266 222.080024 
L 531.208346 229.187869 
L 531.485427 202.73089 
L 531.762508 250.116524 
L 532.039589 238.270115 
L 532.31667 250.215244 
L 532.593751 249.228043 
L 532.870831 215.761939 
L 533.147912 214.083698 
L 533.424993 202.039849 
L 533.702074 238.664996 
L 534.256236 190.390881 
L 534.533316 205.100172 
L 534.810397 198.387207 
L 535.087478 203.22449 
L 535.364559 171.634068 
L 535.64164 45.765977 
L 535.918721 79.725682 
L 536.195801 79.330801 
L 536.472882 272.32854 
L 536.749963 43.742216 
L 537.027044 64.621511 
L 537.304125 187.034399 
L 537.581205 246.858762 
L 537.858286 262.160373 
L 538.135367 224.844186 
L 538.412448 224.350585 
L 538.689529 227.805788 
L 538.96661 185.849758 
L 539.24369 204.014251 
L 539.520771 240.047077 
L 539.797852 228.299388 
L 540.074933 249.030603 
L 540.629095 179.531673 
L 540.906175 148.039971 
L 541.183256 134.021721 
L 541.460337 135.897402 
L 542.014499 200.657768 
L 542.29158 186.540798 
L 542.56866 190.292161 
L 542.845741 218.032501 
L 543.122822 208.160494 
L 543.399903 230.47123 
L 543.676984 224.646746 
L 544.231145 173.608469 
L 544.508226 186.540798 
L 544.785307 182.197115 
L 545.062388 237.776515 
L 545.339469 243.107399 
L 545.89363 185.158717 
L 546.447792 204.804011 
L 546.724873 210.924656 
L 547.001954 259.593651 
L 547.279034 268.379737 
L 547.556115 237.184195 
L 547.833196 188.31776 
L 548.387358 286.05063 
L 548.664439 293.849515 
L 548.941519 181.999675 
L 549.2186 136.094842 
L 549.772762 170.943027 
L 550.326924 156.826057 
L 550.604004 157.517098 
L 550.881085 215.465779 
L 551.158166 216.84786 
L 551.712328 182.197115 
L 552.266489 168.376305 
L 552.54357 165.315983 
L 552.820651 179.531673 
L 553.097732 166.599344 
L 553.374813 143.893728 
L 553.928974 154.358055 
L 554.206055 150.113092 
L 554.483136 164.921103 
L 554.760217 209.443855 
L 555.037298 179.334233 
L 555.314378 185.652318 
L 555.591459 198.979527 
L 555.86854 199.670568 
L 556.422702 210.529776 
L 556.699783 208.357934 
L 556.976863 244.29204 
L 557.253944 210.924656 
L 557.531025 214.083698 
L 557.808106 182.986876 
L 558.362267 186.738238 
L 558.639348 180.222714 
L 558.916429 189.699841 
L 559.19351 194.635844 
L 559.470591 246.266441 
L 559.747672 270.057978 
L 560.024752 311.322968 
L 560.301833 212.800337 
L 560.578914 193.549923 
L 560.855995 194.438404 
L 561.410157 205.396332 
L 561.687237 232.050751 
L 561.964318 231.853311 
L 562.241399 197.103846 
L 562.795561 223.462105 
L 563.072642 193.451203 
L 563.349722 207.568173 
L 563.626803 148.237411 
L 563.903884 158.701738 
L 564.180965 195.030724 
L 564.458046 253.473006 
L 564.735126 185.553598 
L 565.289288 171.041747 
L 565.566369 150.113092 
L 565.84345 151.495173 
L 566.120531 151.988774 
L 566.397611 148.829731 
L 566.674692 160.083819 
L 566.951773 131.553719 
L 567.228854 132.73836 
L 567.505935 121.977872 
L 567.783016 154.851656 
L 568.060096 156.529897 
L 568.614258 140.438525 
L 568.891339 147.842531 
L 569.16842 122.076592 
L 569.445501 123.754833 
L 569.722581 215.564499 
L 569.999662 134.120441 
L 570.276743 119.21371 
L 570.553824 145.275809 
L 570.830905 89.795129 
L 571.107986 167.783985 
L 571.385066 133.23196 
L 571.662147 126.321555 
L 571.939228 130.467798 
L 572.216309 120.299631 
L 572.49339 126.420275 
L 572.77047 147.44765 
L 573.047551 122.866353 
L 573.324632 120.200911 
L 573.601713 128.295957 
L 573.878794 129.974198 
L 574.155875 123.656113 
L 574.432955 143.103967 
L 574.987117 150.705413 
L 575.264198 142.906527 
L 575.541279 156.233737 
L 575.81836 155.641416 
L 576.09544 138.464124 
L 576.372521 140.438525 
L 576.649602 143.992448 
L 576.926683 140.142365 
L 577.203764 187.429279 
L 577.480845 149.125891 
L 577.757925 145.571969 
L 578.035006 120.694511 
L 578.312087 61.561189 
L 578.589168 44.877497 
L 578.866249 95.027293 
L 579.143329 95.817053 
L 579.42041 95.027293 
L 579.974572 169.857106 
L 580.251653 146.46045 
L 580.528734 139.155164 
L 580.805814 193.056323 
L 581.359976 200.756489 
L 581.637057 212.899057 
L 582.74538 104.405699 
L 583.299542 120.891951 
L 583.576623 111.908425 
L 583.853704 92.460571 
L 584.130784 145.966849 
L 584.407865 173.411029 
L 584.684946 130.171638 
L 584.962027 137.082043 
L 585.793269 85.846326 
L 586.07035 73.605037 
L 586.347431 47.937819 
L 586.624512 43.742216 
L 586.901593 69.458794 
L 587.178673 126.025395 
L 587.455754 87.129687 
L 587.732835 137.476923 
L 588.009916 112.204585 
L 588.286997 115.462347 
L 588.564078 109.637863 
L 588.841158 112.007145 
L 589.118239 119.80603 
L 589.39532 134.910201 
L 589.672401 129.085717 
L 589.949482 146.46045 
L 590.226563 112.796905 
L 590.503643 113.784106 
L 591.057805 150.902853 
L 591.334886 70.347275 
L 591.611967 43.742216 
L 592.166128 213.787538 
L 592.443209 154.950376 
L 592.72029 71.630636 
L 592.997371 111.217384 
L 593.274452 119.904751 
L 593.551532 72.420396 
L 593.828613 91.67081 
L 594.105694 87.425847 
L 594.382775 93.349051 
L 594.659856 59.093187 
L 594.936937 82.094963 
L 595.214017 89.498969 
L 595.491098 47.839099 
L 595.768179 100.851777 
L 596.04526 112.895626 
L 596.322341 43.742216 
L 596.599422 61.956069 
L 596.876502 92.164411 
L 597.153583 83.773205 
L 597.430664 139.944925 
L 597.707745 120.200911 
L 597.984826 130.171638 
L 598.538987 88.807928 
L 598.816068 113.093066 
L 599.093149 126.420275 
L 599.37023 100.950497 
L 599.647311 43.742216 
L 600.201472 93.151611 
L 600.478553 141.721886 
L 600.755634 129.579317 
L 601.032715 63.73303 
L 601.309796 71.729356 
L 601.586876 100.456897 
L 601.863957 69.952395 
L 602.141038 79.232081 
L 602.418119 64.226631 
L 602.6952 71.630636 
L 602.972281 49.22118 
L 603.526442 132.343479 
L 603.803523 134.515321 
L 604.357685 166.204464 
L 604.634766 187.922879 
L 604.911846 170.054547 
L 605.188927 179.729113 
L 605.466008 198.189767 
L 605.743089 224.745466 
L 606.02017 209.641295 
L 606.29725 210.924656 
L 606.574331 218.920982 
L 606.851412 216.25554 
L 607.128493 211.220816 
L 607.959735 150.014372 
L 608.236816 164.526223 
L 608.790978 216.45298 
L 609.068059 219.513302 
L 609.62222 192.858883 
L 610.176382 186.442078 
L 610.453463 156.826057 
L 610.730544 113.487946 
L 611.007625 137.082043 
L 611.284705 126.815155 
L 611.561786 152.383654 
L 611.838867 99.568416 
L 612.115948 127.407476 
L 612.393029 122.866353 
L 612.670109 161.56462 
L 612.94719 155.542696 
L 613.224271 140.438525 
L 613.501352 155.740136 
L 613.778433 117.535469 
L 614.055514 123.162513 
L 614.332594 299.575279 
L 614.609675 367.593408 
L 614.886756 371.838371 
L 615.163837 200.559048 
L 615.717999 88.116888 
L 615.995079 141.524446 
L 616.27216 97.199134 
L 616.549241 96.804254 
L 616.826322 99.370976 
L 617.103403 85.846326 
L 617.380484 90.486169 
L 617.657564 129.085717 
L 617.934645 140.833406 
L 618.211726 131.158839 
L 618.488807 135.798682 
L 618.765888 144.979649 
L 619.042968 123.656113 
L 619.320049 169.067346 
L 619.59713 132.63964 
L 619.874211 205.593772 
L 620.151292 204.211691 
L 620.428373 198.387207 
L 620.705453 138.562844 
L 620.982534 171.831508 
L 621.536696 138.562844 
L 621.813777 141.820606 
L 622.090858 141.820606 
L 622.367938 235.604674 
L 622.645019 155.443976 
L 622.9221 110.131464 
L 623.199181 150.507972 
L 623.476262 122.076592 
L 623.753343 122.175312 
L 624.030423 134.416601 
L 624.307504 133.923001 
L 624.584585 102.036418 
L 624.861666 100.851777 
L 625.138747 212.306737 
L 625.692908 95.520893 
L 625.969989 91.27593 
L 626.24707 80.416722 
L 626.524151 63.33815 
L 626.801232 105.8865 
L 627.078312 68.965194 
L 627.355393 181.999675 
L 627.632474 180.222714 
L 627.909555 143.005247 
L 628.186636 201.447529 
L 628.463717 227.016027 
L 628.740797 148.434851 
L 629.294959 109.835303 
L 629.57204 115.166187 
L 629.849121 154.160615 
L 630.126202 137.871803 
L 630.403282 137.279483 
L 630.680363 108.749383 
L 630.957444 215.860659 
L 631.788687 114.870027 
L 632.065767 113.685386 
L 632.342848 159.096619 
L 632.619929 129.381877 
L 633.174091 52.775102 
L 633.451171 45.667257 
L 633.728252 162.749261 
L 634.005333 142.511647 
L 634.282414 93.250331 
L 634.836576 67.879273 
L 635.113656 43.742216 
L 635.390737 43.742216 
L 635.667818 126.913876 
L 635.944899 81.009043 
L 636.22198 121.879152 
L 636.499061 43.742216 
L 636.776141 46.654458 
L 637.330303 83.674485 
L 637.607384 146.65789 
L 638.161546 78.935921 
L 638.715707 125.136914 
L 638.992788 109.242983 
L 639.269869 158.800458 
L 639.54695 130.072918 
L 639.82403 118.029069 
L 640.101111 160.77486 
L 640.655273 146.65789 
L 640.932354 168.573745 
L 641.209435 172.127668 
L 641.486515 244.29204 
L 641.763596 188.5152 
L 642.040677 173.509749 
L 642.594839 274.697822 
L 642.87192 261.173172 
L 643.149 210.529776 
L 643.426081 199.670568 
L 643.703162 160.57742 
L 643.980243 189.20624 
L 644.257324 239.849637 
L 644.811485 187.034399 
L 645.365647 144.091168 
L 645.642728 160.4787 
L 646.196889 181.308635 
L 646.47397 132.047319 
L 647.028132 170.350707 
L 647.305213 152.679814 
L 647.582294 200.953929 
L 647.859374 146.55917 
L 648.136455 175.48415 
L 648.413536 186.442078 
L 649.244779 164.032622 
L 649.521859 120.990671 
L 649.79894 165.710863 
L 650.076021 132.4422 
L 650.353102 121.977872 
L 650.630183 164.427502 
L 650.907264 125.038194 
L 651.184344 111.019944 
L 651.461425 166.500624 
L 651.738506 182.591995 
L 652.015587 168.672466 
L 652.292668 180.025274 
L 652.569749 196.017925 
L 652.846829 162.156941 
L 653.12391 64.325351 
L 653.400991 43.742216 
L 653.678072 54.157183 
L 653.955153 123.359953 
L 654.509314 54.848224 
L 654.786395 46.457018 
L 655.063476 46.160858 
L 655.340557 74.690958 
L 655.617638 51.096861 
L 655.894718 131.553719 
L 656.171799 59.882947 
L 656.44888 64.127911 
L 656.725961 43.742216 
L 657.003042 43.742216 
L 657.280123 45.963418 
L 657.557203 67.286953 
L 657.834284 48.233979 
L 658.111365 107.564742 
L 658.388446 43.742216 
L 658.942608 43.742216 
L 659.219688 120.497071 
L 659.496769 65.312551 
L 659.77385 46.358298 
L 660.050931 76.270479 
L 660.328012 179.038073 
L 660.882173 80.021842 
L 661.159254 56.329025 
L 661.436335 43.742216 
L 661.990497 49.51734 
L 662.267577 43.742216 
L 665.315467 43.742216 
L 665.592547 50.01094 
L 665.869628 43.742216 
L 666.700871 43.742216 
L 666.977951 56.329025 
L 667.255032 48.8263 
L 667.532113 75.085838 
L 667.809194 118.62139 
L 668.086275 43.742216 
L 668.363356 43.742216 
L 668.640436 103.615939 
L 668.917517 88.807928 
L 669.194598 43.742216 
L 669.471679 70.840875 
L 669.74876 43.742216 
L 673.627891 43.742216 
L 673.904972 88.610488 
L 674.182053 43.742216 
L 674.459134 43.742216 
L 674.736215 56.625185 
L 675.013295 51.985342 
L 675.013295 51.985342 
" clip-path="url(#p8316d8c866)" style="fill: none; stroke: #2878b5; stroke-width: 1.5; stroke-linecap: square"/>
   </g>
   <g id="patch_3">
    <path d="M 37.575 392.44125 
L 37.575 27.1375 
" style="fill: none; stroke: #000000; stroke-width: 0.8; stroke-linejoin: miter; stroke-linecap: square"/>
   </g>
   <g id="patch_4">
    <path d="M 705.3675 392.44125 
L 705.3675 27.1375 
" style="fill: none; stroke: #000000; stroke-width: 0.8; stroke-linejoin: miter; stroke-linecap: square"/>
   </g>
   <g id="patch_5">
    <path d="M 37.575 392.44125 
L 705.3675 392.44125 
" style="fill: none; stroke: #000000; stroke-width: 0.8; stroke-linejoin: miter; stroke-linecap: square"/>
   </g>
   <g id="patch_6">
    <path d="M 37.575 27.1375 
L 705.3675 27.1375 
" style="fill: none; stroke: #000000; stroke-width: 0.8; stroke-linejoin: miter; stroke-linecap: square"/>
   </g>
   <g id="text_16">
    <!-- 原始 TP_mg/L 时间序列数据 -->
    <g transform="translate(296.47125 17.1375) scale(0.12 -0.12)">
     <defs>
      <path id="SimHei-539f" d="M 3850 4275 
Q 3675 4025 3600 3700 
L 5450 3700 
Q 5425 3475 5425 3000 
L 5425 2225 
Q 5425 1825 5450 1475 
L 4050 1475 
L 4050 -50 
Q 4050 -400 3825 -487 
Q 3600 -575 3100 -625 
Q 3050 -325 2925 -50 
Q 3400 -75 3475 -37 
Q 3550 0 3550 175 
L 3550 1475 
L 2125 1475 
Q 2150 1775 2150 2200 
L 2150 3025 
Q 2150 3425 2125 3700 
L 3150 3700 
Q 3300 4250 3300 4425 
L 3850 4275 
z
M 275 -325 
Q 725 275 875 1037 
Q 1025 1800 1025 2300 
L 1025 4125 
Q 1025 4650 1000 4900 
L 5025 4900 
Q 5575 4900 5800 4925 
L 5800 4475 
Q 5600 4500 5025 4500 
L 1525 4500 
L 1525 2375 
Q 1500 1650 1412 1112 
Q 1325 575 1137 125 
Q 950 -325 800 -575 
Q 550 -400 275 -325 
z
M 4925 2775 
L 4925 3325 
L 2625 3325 
L 2625 2775 
L 4925 2775 
z
M 4925 1875 
L 4925 2400 
L 2625 2400 
L 2625 1875 
L 4925 1875 
z
M 1475 -50 
Q 1800 150 2087 450 
Q 2375 750 2575 1100 
Q 2800 875 2975 750 
Q 2300 -50 1825 -400 
Q 1675 -225 1475 -50 
z
M 4825 1075 
Q 5700 300 5925 25 
Q 5750 -125 5575 -325 
Q 5250 75 4500 725 
Q 4675 925 4825 1075 
z
" transform="scale(0.015625)"/>
      <path id="SimHei-59cb" d="M 1750 5075 
Q 1650 4900 1587 4587 
Q 1525 4275 1475 3875 
L 2550 3875 
Q 2400 2150 1950 1100 
Q 2275 850 2725 425 
Q 2550 275 2375 50 
Q 2000 500 1750 675 
Q 1525 275 1250 -62 
Q 975 -400 700 -675 
Q 600 -525 250 -350 
Q 575 -125 862 200 
Q 1150 525 1375 975 
Q 800 1400 500 1550 
Q 875 2925 950 3425 
Q 650 3425 325 3400 
L 325 3900 
Q 675 3875 1025 3875 
Q 1175 4825 1175 5225 
Q 1550 5125 1750 5075 
z
M 5725 2050 
Q 5700 1650 5700 650 
Q 5700 -325 5725 -650 
L 5200 -650 
L 5200 -100 
L 3450 -100 
L 3450 -675 
L 2950 -675 
Q 2975 -300 2975 675 
Q 2975 1650 2950 2050 
L 5725 2050 
z
M 4400 4950 
Q 3750 3875 3250 3150 
Q 3875 3150 4250 3175 
Q 4625 3200 5200 3225 
Q 4875 3675 4625 3900 
Q 4825 4000 5025 4225 
Q 5750 3300 6125 2850 
Q 6000 2775 5725 2550 
Q 5575 2775 5450 2875 
Q 4575 2825 3937 2762 
Q 3300 2700 2825 2575 
Q 2775 2800 2600 3100 
Q 2875 3225 3237 3850 
Q 3600 4475 3825 5200 
Q 4025 5050 4400 4950 
z
M 5200 325 
L 5200 1600 
L 3450 1600 
L 3450 325 
L 5200 325 
z
M 1025 1775 
Q 1300 1550 1575 1400 
Q 1725 1725 1875 2337 
Q 2025 2950 2050 3425 
L 1400 3425 
Q 1300 2950 1025 1775 
z
" transform="scale(0.015625)"/>
      <path id="SimHei-5217" d="M 2950 4800 
Q 3525 4800 3825 4825 
L 3825 4400 
Q 3525 4425 2800 4425 
L 2125 4425 
Q 2075 4125 1925 3500 
L 3425 3500 
Q 3300 2500 3100 1862 
Q 2900 1225 2575 762 
Q 2250 300 1850 -12 
Q 1450 -325 925 -675 
Q 725 -375 475 -150 
Q 1125 125 1550 437 
Q 1975 750 2250 1225 
Q 2100 1350 1862 1550 
Q 1625 1750 1400 1925 
L 1750 2325 
Q 1925 2200 2100 2037 
Q 2275 1875 2500 1650 
Q 2650 2025 2737 2337 
Q 2825 2650 2875 3100 
L 1775 3100 
Q 1600 2650 1350 2237 
Q 1100 1825 775 1525 
Q 600 1675 325 1850 
Q 600 2125 825 2462 
Q 1050 2800 1200 3125 
Q 1350 3450 1425 3775 
Q 1500 4100 1550 4425 
L 1100 4425 
Q 575 4425 375 4400 
L 375 4825 
Q 575 4800 1125 4800 
L 2950 4800 
z
M 5975 5050 
Q 5925 4675 5925 4250 
L 5925 50 
Q 5925 -275 5737 -400 
Q 5550 -525 4900 -625 
Q 4825 -250 4650 25 
Q 5150 0 5287 25 
Q 5425 50 5425 325 
L 5425 4250 
Q 5425 4650 5400 5050 
L 5975 5050 
z
M 4725 4300 
Q 4675 4000 4675 3450 
L 4675 1650 
Q 4675 1200 4700 850 
L 4100 850 
Q 4150 1200 4150 1650 
L 4150 3550 
Q 4150 3975 4100 4300 
L 4725 4300 
z
" transform="scale(0.015625)"/>
      <path id="SimHei-6570" d="M 4525 4925 
Q 4475 4800 4400 4587 
Q 4325 4375 4175 3825 
L 5325 3825 
Q 5575 3825 5925 3850 
L 5925 3400 
Q 5650 3425 5500 3425 
Q 5500 3025 5362 2162 
Q 5225 1300 4875 675 
Q 5125 375 5437 137 
Q 5750 -100 6025 -200 
Q 5725 -425 5625 -625 
Q 5325 -450 5075 -225 
Q 4825 0 4575 325 
Q 4300 25 3987 -187 
Q 3675 -400 3200 -650 
Q 3075 -425 2850 -300 
Q 3225 -150 3650 125 
Q 4075 400 4300 675 
Q 4125 1025 3962 1425 
Q 3800 1825 3675 2475 
Q 3600 2275 3425 1950 
Q 3250 2050 3000 2150 
Q 3400 2850 3650 3675 
Q 3900 4500 3975 5100 
Q 4275 4975 4525 4925 
z
M 2100 2250 
Q 2000 2150 1875 1925 
L 3250 1925 
Q 3100 1300 2725 675 
Q 3125 525 3350 400 
Q 3225 225 3125 25 
Q 2900 175 2450 325 
Q 1950 -225 725 -650 
Q 600 -375 400 -275 
Q 1575 0 2000 475 
Q 1300 650 850 775 
Q 1000 1000 1250 1525 
Q 1000 1525 425 1500 
L 425 1950 
Q 900 1925 1400 1925 
Q 1500 2150 1550 2425 
Q 1825 2325 2100 2250 
z
M 1775 3950 
Q 1775 4550 1750 5100 
L 2250 5100 
Q 2225 4575 2225 3950 
Q 3075 3950 3425 3975 
L 3425 3525 
Q 3075 3550 2225 3550 
Q 2225 2825 2250 2425 
L 1750 2425 
Q 1775 2775 1775 3300 
Q 1650 3100 1300 2787 
Q 950 2475 650 2300 
Q 525 2525 275 2625 
Q 500 2700 875 2975 
Q 1250 3250 1450 3550 
Q 950 3550 500 3525 
L 500 3975 
Q 925 3950 1775 3950 
z
M 3975 3175 
Q 4200 1700 4600 1125 
Q 4850 1700 4937 2287 
Q 5025 2875 5050 3425 
L 4075 3425 
L 3975 3175 
z
M 1450 1000 
Q 1750 925 2275 800 
Q 2475 1050 2650 1525 
L 1725 1525 
Q 1600 1275 1450 1000 
z
M 3325 4825 
Q 3200 4625 3125 4450 
Q 3050 4275 2925 4025 
Q 2725 4125 2525 4175 
Q 2725 4500 2900 5000 
Q 3150 4875 3325 4825 
z
M 2575 3375 
Q 2900 3050 3200 2725 
Q 3050 2600 2875 2425 
Q 2525 2850 2300 3100 
Q 2450 3225 2575 3375 
z
M 925 5000 
Q 1275 4650 1500 4300 
L 1125 4075 
Q 950 4425 600 4725 
Q 825 4875 925 5000 
z
" transform="scale(0.015625)"/>
      <path id="SimHei-636e" d="M 5750 4775 
Q 5725 4550 5725 4225 
L 5725 3900 
Q 5725 3450 5750 3250 
L 3100 3250 
L 3100 2500 
L 4250 2500 
Q 4250 2725 4225 3175 
L 4700 3175 
Q 4675 2775 4675 2500 
L 5350 2500 
Q 5800 2500 6100 2525 
L 6100 2075 
Q 5800 2100 5375 2100 
L 4675 2100 
L 4675 1425 
L 5775 1425 
Q 5750 950 5750 800 
L 5750 175 
Q 5750 -225 5775 -575 
L 5325 -575 
L 5325 -225 
L 3675 -225 
L 3675 -600 
L 3225 -600 
Q 3250 -325 3250 100 
L 3250 825 
Q 3250 1075 3225 1425 
L 4250 1425 
L 4250 2100 
L 3075 2100 
Q 3050 1375 2887 737 
Q 2725 100 2425 -475 
Q 2200 -325 1950 -250 
Q 2250 150 2387 600 
Q 2525 1050 2600 1562 
Q 2675 2075 2675 2625 
L 2675 3575 
Q 2675 3975 2650 4775 
L 5750 4775 
z
M 1275 4425 
Q 1275 4775 1250 5075 
L 1750 5075 
Q 1725 4800 1725 4425 
L 1725 3775 
Q 1975 3775 2500 3800 
L 2500 3375 
Q 1975 3400 1725 3400 
L 1725 2450 
Q 2050 2625 2400 2850 
Q 2425 2650 2525 2475 
Q 2050 2200 1725 2000 
L 1725 175 
Q 1725 -300 1487 -400 
Q 1250 -500 775 -575 
Q 725 -325 600 -50 
Q 1025 -50 1150 -12 
Q 1275 25 1275 325 
L 1275 1800 
Q 900 1600 525 1325 
Q 450 1525 275 1800 
Q 775 1975 1275 2250 
L 1275 3400 
Q 800 3400 350 3375 
L 350 3800 
Q 800 3775 1275 3775 
L 1275 4425 
z
M 5300 3625 
L 5300 4400 
L 3100 4400 
L 3100 3625 
L 5300 3625 
z
M 5325 150 
L 5325 1075 
L 3675 1075 
L 3675 150 
L 5325 150 
z
" transform="scale(0.015625)"/>
     </defs>
     <use xlink:href="#SimHei-539f"/>
     <use xlink:href="#SimHei-59cb" transform="translate(100 0)"/>
     <use xlink:href="#SimHei-20" transform="translate(200 0)"/>
     <use xlink:href="#SimHei-54" transform="translate(250 0)"/>
     <use xlink:href="#SimHei-50" transform="translate(300 0)"/>
     <use xlink:href="#SimHei-5f" transform="translate(350 0)"/>
     <use xlink:href="#SimHei-6d" transform="translate(400 0)"/>
     <use xlink:href="#SimHei-67" transform="translate(450 0)"/>
     <use xlink:href="#SimHei-2f" transform="translate(500 0)"/>
     <use xlink:href="#SimHei-4c" transform="translate(550 0)"/>
     <use xlink:href="#SimHei-20" transform="translate(600 0)"/>
     <use xlink:href="#SimHei-65f6" transform="translate(650 0)"/>
     <use xlink:href="#SimHei-95f4" transform="translate(750 0)"/>
     <use xlink:href="#SimHei-5e8f" transform="translate(850 0)"/>
     <use xlink:href="#SimHei-5217" transform="translate(950 0)"/>
     <use xlink:href="#SimHei-6570" transform="translate(1050 0)"/>
     <use xlink:href="#SimHei-636e" transform="translate(1150 0)"/>
    </g>
   </g>
   <g id="legend_1">
    <g id="patch_7">
     <path d="M 602.7675 387.94125 
L 699.0675 387.94125 
Q 700.8675 387.94125 700.8675 386.14125 
L 700.8675 373.998281 
Q 700.8675 372.198281 699.0675 372.198281 
L 602.7675 372.198281 
Q 600.9675 372.198281 600.9675 373.998281 
L 600.9675 386.14125 
Q 600.9675 387.94125 602.7675 387.94125 
z
" style="fill: #ffffff; opacity: 0.8; stroke: #cccccc; stroke-width: 0.5; stroke-linejoin: miter"/>
    </g>
    <g id="line2d_28">
     <path d="M 604.5675 379.995937 
L 613.5675 379.995937 
L 622.5675 379.995937 
" style="fill: none; stroke: #2878b5; stroke-width: 1.5; stroke-linecap: square"/>
    </g>
    <g id="text_17">
     <!-- 原始 TP_mg/L 值 -->
     <g transform="translate(629.7675 383.145937) scale(0.09 -0.09)">
      <use xlink:href="#SimHei-539f"/>
      <use xlink:href="#SimHei-59cb" transform="translate(100 0)"/>
      <use xlink:href="#SimHei-20" transform="translate(200 0)"/>
      <use xlink:href="#SimHei-54" transform="translate(250 0)"/>
      <use xlink:href="#SimHei-50" transform="translate(300 0)"/>
      <use xlink:href="#SimHei-5f" transform="translate(350 0)"/>
      <use xlink:href="#SimHei-6d" transform="translate(400 0)"/>
      <use xlink:href="#SimHei-67" transform="translate(450 0)"/>
      <use xlink:href="#SimHei-2f" transform="translate(500 0)"/>
      <use xlink:href="#SimHei-4c" transform="translate(550 0)"/>
      <use xlink:href="#SimHei-20" transform="translate(600 0)"/>
      <use xlink:href="#SimHei-503c" transform="translate(650 0)"/>
     </g>
    </g>
   </g>
  </g>
 </g>
 <defs>
  <clipPath id="p8316d8c866">
   <rect x="37.575" y="27.1375" width="667.7925" height="365.30375"/>
  </clipPath>
 </defs>
</svg>
