<?xml version="1.0" encoding="utf-8" standalone="no"?>
<!DOCTYPE svg PUBLIC "-//W3C//DTD SVG 1.1//EN"
  "http://www.w3.org/Graphics/SVG/1.1/DTD/svg11.dtd">
<svg xmlns:xlink="http://www.w3.org/1999/xlink" width="712.92625pt" height="423.989062pt" viewBox="0 0 712.92625 423.989062" xmlns="http://www.w3.org/2000/svg" version="1.1">
 <metadata>
  <rdf:RDF xmlns:dc="http://purl.org/dc/elements/1.1/" xmlns:cc="http://creativecommons.org/ns#" xmlns:rdf="http://www.w3.org/1999/02/22-rdf-syntax-ns#">
   <cc:Work>
    <dc:type rdf:resource="http://purl.org/dc/dcmitype/StillImage"/>
    <dc:date>2025-04-23T00:36:27.210031</dc:date>
    <dc:format>image/svg+xml</dc:format>
    <dc:creator>
     <cc:Agent>
      <dc:title>Matplotlib v3.10.0, https://matplotlib.org/</dc:title>
     </cc:Agent>
    </dc:creator>
   </cc:Work>
  </rdf:RDF>
 </metadata>
 <defs>
  <style type="text/css">*{stroke-linejoin: round; stroke-linecap: butt}</style>
 </defs>
 <g id="figure_1">
  <g id="patch_1">
   <path d="M 0 423.989062 
L 712.92625 423.989062 
L 712.92625 0 
L 0 0 
z
" style="fill: #ffffff"/>
  </g>
  <g id="axes_1">
   <g id="patch_2">
    <path d="M 33.23125 392.71875 
L 705.72625 392.71875 
L 705.72625 27.04375 
L 33.23125 27.04375 
z
" style="fill: #ffffff"/>
   </g>
   <g id="matplotlib.axis_1">
    <g id="xtick_1">
     <g id="line2d_1">
      <path d="M 63.520173 392.71875 
L 63.520173 27.04375 
" clip-path="url(#p66a450eeda)" style="fill: none; stroke-dasharray: 1.85,0.8; stroke-dashoffset: 0; stroke: #b2b2b2; stroke-opacity: 0.3; stroke-width: 0.5"/>
     </g>
     <g id="line2d_2">
      <defs>
       <path id="m6477a9ba16" d="M 0 0 
L 0 -3.5 
" style="stroke: #000000; stroke-width: 0.8"/>
      </defs>
      <g>
       <use xlink:href="#m6477a9ba16" x="63.520173" y="392.71875" style="stroke: #000000; stroke-width: 0.8"/>
      </g>
     </g>
     <g id="text_1">
      <!-- 0 -->
      <g transform="translate(61.270173 402.40625) scale(0.09 -0.09)">
       <defs>
        <path id="SimHei-30" d="M 225 2537 
Q 250 3200 412 3587 
Q 575 3975 875 4225 
Q 1175 4475 1612 4475 
Q 2050 4475 2375 4112 
Q 2700 3750 2800 3200 
Q 2900 2650 2862 1937 
Q 2825 1225 2612 775 
Q 2400 325 1975 150 
Q 1550 -25 1125 187 
Q 700 400 525 750 
Q 350 1100 275 1487 
Q 200 1875 225 2537 
z
M 750 2687 
Q 675 2000 800 1462 
Q 925 925 1212 700 
Q 1500 475 1800 612 
Q 2100 750 2237 1162 
Q 2375 1575 2375 2062 
Q 2375 2550 2337 2950 
Q 2300 3350 2112 3675 
Q 1925 4000 1612 4012 
Q 1300 4025 1062 3700 
Q 825 3375 750 2687 
z
" transform="scale(0.015625)"/>
       </defs>
       <use xlink:href="#SimHei-30"/>
      </g>
     </g>
    </g>
    <g id="xtick_2">
     <g id="line2d_3">
      <path d="M 203.036168 392.71875 
L 203.036168 27.04375 
" clip-path="url(#p66a450eeda)" style="fill: none; stroke-dasharray: 1.85,0.8; stroke-dashoffset: 0; stroke: #b2b2b2; stroke-opacity: 0.3; stroke-width: 0.5"/>
     </g>
     <g id="line2d_4">
      <g>
       <use xlink:href="#m6477a9ba16" x="203.036168" y="392.71875" style="stroke: #000000; stroke-width: 0.8"/>
      </g>
     </g>
     <g id="text_2">
      <!-- 500 -->
      <g transform="translate(196.286168 402.40625) scale(0.09 -0.09)">
       <defs>
        <path id="SimHei-35" d="M 550 1325 
Q 725 650 1150 575 
Q 1575 500 1837 662 
Q 2100 825 2212 1087 
Q 2325 1350 2312 1675 
Q 2300 2000 2137 2225 
Q 1975 2450 1725 2525 
Q 1475 2600 1162 2525 
Q 850 2450 650 2175 
L 225 2225 
Q 275 2375 700 4375 
L 2675 4375 
L 2675 3925 
L 1075 3925 
Q 950 3250 825 2850 
Q 1200 3025 1525 3012 
Q 1850 3000 2150 2862 
Q 2450 2725 2587 2487 
Q 2725 2250 2787 2012 
Q 2850 1775 2837 1500 
Q 2825 1225 2725 937 
Q 2625 650 2425 462 
Q 2225 275 1937 162 
Q 1650 50 1275 75 
Q 900 100 562 350 
Q 225 600 100 1200 
L 550 1325 
z
" transform="scale(0.015625)"/>
       </defs>
       <use xlink:href="#SimHei-35"/>
       <use xlink:href="#SimHei-30" transform="translate(50 0)"/>
       <use xlink:href="#SimHei-30" transform="translate(100 0)"/>
      </g>
     </g>
    </g>
    <g id="xtick_3">
     <g id="line2d_5">
      <path d="M 342.552163 392.71875 
L 342.552163 27.04375 
" clip-path="url(#p66a450eeda)" style="fill: none; stroke-dasharray: 1.85,0.8; stroke-dashoffset: 0; stroke: #b2b2b2; stroke-opacity: 0.3; stroke-width: 0.5"/>
     </g>
     <g id="line2d_6">
      <g>
       <use xlink:href="#m6477a9ba16" x="342.552163" y="392.71875" style="stroke: #000000; stroke-width: 0.8"/>
      </g>
     </g>
     <g id="text_3">
      <!-- 1000 -->
      <g transform="translate(333.552163 402.40625) scale(0.09 -0.09)">
       <defs>
        <path id="SimHei-31" d="M 1400 3600 
Q 1075 3275 575 2975 
L 575 3450 
Q 1200 3875 1600 4450 
L 1900 4450 
L 1900 150 
L 1400 150 
L 1400 3600 
z
" transform="scale(0.015625)"/>
       </defs>
       <use xlink:href="#SimHei-31"/>
       <use xlink:href="#SimHei-30" transform="translate(50 0)"/>
       <use xlink:href="#SimHei-30" transform="translate(100 0)"/>
       <use xlink:href="#SimHei-30" transform="translate(150 0)"/>
      </g>
     </g>
    </g>
    <g id="xtick_4">
     <g id="line2d_7">
      <path d="M 482.068158 392.71875 
L 482.068158 27.04375 
" clip-path="url(#p66a450eeda)" style="fill: none; stroke-dasharray: 1.85,0.8; stroke-dashoffset: 0; stroke: #b2b2b2; stroke-opacity: 0.3; stroke-width: 0.5"/>
     </g>
     <g id="line2d_8">
      <g>
       <use xlink:href="#m6477a9ba16" x="482.068158" y="392.71875" style="stroke: #000000; stroke-width: 0.8"/>
      </g>
     </g>
     <g id="text_4">
      <!-- 1500 -->
      <g transform="translate(473.068158 402.40625) scale(0.09 -0.09)">
       <use xlink:href="#SimHei-31"/>
       <use xlink:href="#SimHei-35" transform="translate(50 0)"/>
       <use xlink:href="#SimHei-30" transform="translate(100 0)"/>
       <use xlink:href="#SimHei-30" transform="translate(150 0)"/>
      </g>
     </g>
    </g>
    <g id="xtick_5">
     <g id="line2d_9">
      <path d="M 621.584153 392.71875 
L 621.584153 27.04375 
" clip-path="url(#p66a450eeda)" style="fill: none; stroke-dasharray: 1.85,0.8; stroke-dashoffset: 0; stroke: #b2b2b2; stroke-opacity: 0.3; stroke-width: 0.5"/>
     </g>
     <g id="line2d_10">
      <g>
       <use xlink:href="#m6477a9ba16" x="621.584153" y="392.71875" style="stroke: #000000; stroke-width: 0.8"/>
      </g>
     </g>
     <g id="text_5">
      <!-- 2000 -->
      <g transform="translate(612.584153 402.40625) scale(0.09 -0.09)">
       <defs>
        <path id="SimHei-32" d="M 300 250 
Q 325 625 650 925 
Q 975 1225 1475 1862 
Q 1975 2500 2125 2850 
Q 2275 3200 2237 3450 
Q 2200 3700 2000 3862 
Q 1800 4025 1537 4000 
Q 1275 3975 1037 3800 
Q 800 3625 675 3275 
L 200 3350 
Q 400 3925 712 4187 
Q 1025 4450 1450 4475 
Q 1700 4500 1900 4462 
Q 2100 4425 2312 4287 
Q 2525 4150 2662 3875 
Q 2800 3600 2762 3212 
Q 2725 2825 2375 2287 
Q 2025 1750 1025 600 
L 2825 600 
L 2825 150 
L 300 150 
L 300 250 
z
" transform="scale(0.015625)"/>
       </defs>
       <use xlink:href="#SimHei-32"/>
       <use xlink:href="#SimHei-30" transform="translate(50 0)"/>
       <use xlink:href="#SimHei-30" transform="translate(100 0)"/>
       <use xlink:href="#SimHei-30" transform="translate(150 0)"/>
      </g>
     </g>
    </g>
    <g id="text_6">
     <!-- 时间 / 序号 -->
     <g transform="translate(341.97875 415.539062) scale(0.1 -0.1)">
      <defs>
       <path id="SimHei-65f6" d="M 2525 4575 
Q 2500 3675 2500 2400 
Q 2500 1125 2525 400 
L 2000 400 
L 2000 875 
L 1000 875 
L 1000 50 
L 475 50 
Q 500 1200 500 2350 
Q 500 3525 475 4575 
L 2525 4575 
z
M 4875 3825 
Q 4875 4575 4850 5225 
L 5400 5225 
Q 5375 4575 5375 3825 
Q 5750 3825 6175 3850 
L 6175 3375 
Q 5750 3400 5375 3400 
L 5375 50 
Q 5375 -325 5075 -425 
Q 4775 -525 4300 -575 
Q 4300 -275 4025 0 
Q 4500 -50 4687 -25 
Q 4875 0 4875 300 
L 4875 3400 
Q 3625 3400 2775 3375 
L 2775 3850 
Q 3575 3825 4875 3825 
z
M 2000 1300 
L 2000 2550 
L 1000 2550 
L 1000 1300 
L 2000 1300 
z
M 2000 2975 
L 2000 4150 
L 1000 4150 
L 1000 2975 
L 2000 2975 
z
M 3550 2725 
Q 3875 2200 4175 1600 
Q 3925 1525 3650 1375 
Q 3450 1975 3075 2500 
Q 3300 2600 3550 2725 
z
" transform="scale(0.015625)"/>
       <path id="SimHei-95f4" d="M 4450 3550 
Q 4425 3075 4425 2725 
L 4425 1400 
Q 4425 1075 4450 625 
L 1925 625 
Q 1950 1075 1950 1425 
L 1950 2725 
Q 1950 3075 1925 3550 
L 4450 3550 
z
M 5800 4875 
Q 5775 4400 5775 3925 
L 5775 250 
Q 5800 -325 5462 -450 
Q 5125 -575 4725 -625 
Q 4700 -325 4525 -25 
Q 5000 -50 5137 25 
Q 5275 100 5275 350 
L 5275 4450 
L 3775 4450 
Q 3175 4450 2650 4425 
L 2650 4900 
Q 3175 4875 3775 4875 
L 5800 4875 
z
M 550 -525 
Q 600 -25 600 525 
L 600 3150 
Q 600 3675 550 4025 
L 1125 4025 
Q 1100 3650 1100 3300 
L 1100 500 
Q 1100 0 1125 -525 
L 550 -525 
z
M 3950 1025 
L 3950 1950 
L 2425 1950 
L 2425 1025 
L 3950 1025 
z
M 3950 2350 
L 3950 3150 
L 2425 3150 
L 2425 2350 
L 3950 2350 
z
M 1525 5300 
Q 1750 5000 2225 4350 
Q 1950 4225 1700 4075 
Q 1450 4575 1075 5025 
Q 1350 5225 1525 5300 
z
" transform="scale(0.015625)"/>
       <path id="SimHei-20" transform="scale(0.015625)"/>
       <path id="SimHei-2f" d="M 3000 4550 
L 350 -175 
L 100 -25 
L 2750 4700 
L 3000 4550 
z
" transform="scale(0.015625)"/>
       <path id="SimHei-5e8f" d="M 4000 2075 
L 5975 2075 
Q 5750 1525 5575 1025 
Q 5325 1100 5050 1150 
Q 5175 1450 5275 1700 
L 4050 1700 
L 4050 150 
Q 4050 -375 3762 -462 
Q 3475 -550 2950 -575 
Q 2875 -300 2750 0 
Q 3350 -75 3475 25 
Q 3600 125 3575 375 
L 3575 1700 
L 2450 1700 
Q 2050 1700 1675 1675 
L 1675 2100 
Q 2100 2075 2425 2075 
L 3675 2075 
Q 3325 2400 2875 2775 
Q 2975 2875 3250 3100 
Q 3400 2975 3725 2725 
L 4575 3275 
L 3000 3275 
Q 2400 3275 1950 3250 
L 1950 3700 
Q 2400 3675 3000 3675 
L 5400 3675 
L 5400 3250 
Q 4700 2875 4025 2450 
L 4275 2250 
L 4000 2075 
z
M 3725 5275 
Q 3825 4925 3925 4525 
L 4850 4525 
Q 5425 4525 6000 4550 
L 6000 4125 
Q 5425 4150 4850 4150 
L 1400 4150 
Q 1400 2750 1362 2137 
Q 1325 1525 1200 887 
Q 1075 250 775 -350 
Q 625 -250 250 -125 
Q 475 300 600 700 
Q 725 1100 800 1637 
Q 875 2175 875 2825 
Q 875 3500 850 4525 
L 3350 4525 
Q 3275 4825 3150 5150 
Q 3425 5200 3725 5275 
z
" transform="scale(0.015625)"/>
       <path id="SimHei-53f7" d="M 5025 4925 
Q 5000 4550 5000 4075 
Q 5000 3600 5025 3175 
L 1400 3175 
Q 1425 3525 1425 4000 
Q 1425 4500 1400 4925 
L 5025 4925 
z
M 5175 2625 
Q 5650 2625 6025 2650 
L 6025 2200 
Q 5650 2225 5175 2225 
L 2450 2225 
Q 2350 1875 2225 1450 
L 5175 1450 
Q 5100 1050 5062 775 
Q 5025 500 4950 112 
Q 4875 -275 4650 -412 
Q 4425 -550 3225 -625 
Q 3125 -350 2975 -50 
Q 3875 -75 4112 -50 
Q 4350 -25 4425 212 
Q 4500 450 4575 1025 
L 1600 1025 
Q 1825 1625 1950 2225 
L 1350 2225 
Q 825 2225 375 2200 
L 375 2650 
Q 825 2625 1350 2625 
L 5175 2625 
z
M 4525 3575 
L 4525 4525 
L 1900 4525 
L 1900 3575 
L 4525 3575 
z
" transform="scale(0.015625)"/>
      </defs>
      <use xlink:href="#SimHei-65f6"/>
      <use xlink:href="#SimHei-95f4" transform="translate(100 0)"/>
      <use xlink:href="#SimHei-20" transform="translate(200 0)"/>
      <use xlink:href="#SimHei-2f" transform="translate(250 0)"/>
      <use xlink:href="#SimHei-20" transform="translate(300 0)"/>
      <use xlink:href="#SimHei-5e8f" transform="translate(350 0)"/>
      <use xlink:href="#SimHei-53f7" transform="translate(450 0)"/>
     </g>
    </g>
   </g>
   <g id="matplotlib.axis_2">
    <g id="ytick_1">
     <g id="line2d_11">
      <path d="M 33.23125 338.635877 
L 705.72625 338.635877 
" clip-path="url(#p66a450eeda)" style="fill: none; stroke-dasharray: 1.85,0.8; stroke-dashoffset: 0; stroke: #b2b2b2; stroke-opacity: 0.3; stroke-width: 0.5"/>
     </g>
     <g id="line2d_12">
      <defs>
       <path id="m1c2b3efe26" d="M 0 0 
L 3.5 0 
" style="stroke: #000000; stroke-width: 0.8"/>
      </defs>
      <g>
       <use xlink:href="#m1c2b3efe26" x="33.23125" y="338.635877" style="stroke: #000000; stroke-width: 0.8"/>
      </g>
     </g>
     <g id="text_7">
      <!-- -2 -->
      <g transform="translate(20.73125 341.729627) scale(0.09 -0.09)">
       <defs>
        <path id="SimHei-2d" d="M 2975 2125 
L 125 2125 
L 125 2525 
L 2975 2525 
L 2975 2125 
z
" transform="scale(0.015625)"/>
       </defs>
       <use xlink:href="#SimHei-2d"/>
       <use xlink:href="#SimHei-32" transform="translate(50 0)"/>
      </g>
     </g>
    </g>
    <g id="ytick_2">
     <g id="line2d_13">
      <path d="M 33.23125 275.805729 
L 705.72625 275.805729 
" clip-path="url(#p66a450eeda)" style="fill: none; stroke-dasharray: 1.85,0.8; stroke-dashoffset: 0; stroke: #b2b2b2; stroke-opacity: 0.3; stroke-width: 0.5"/>
     </g>
     <g id="line2d_14">
      <g>
       <use xlink:href="#m1c2b3efe26" x="33.23125" y="275.805729" style="stroke: #000000; stroke-width: 0.8"/>
      </g>
     </g>
     <g id="text_8">
      <!-- -1 -->
      <g transform="translate(20.73125 278.899479) scale(0.09 -0.09)">
       <use xlink:href="#SimHei-2d"/>
       <use xlink:href="#SimHei-31" transform="translate(50 0)"/>
      </g>
     </g>
    </g>
    <g id="ytick_3">
     <g id="line2d_15">
      <path d="M 33.23125 212.975581 
L 705.72625 212.975581 
" clip-path="url(#p66a450eeda)" style="fill: none; stroke-dasharray: 1.85,0.8; stroke-dashoffset: 0; stroke: #b2b2b2; stroke-opacity: 0.3; stroke-width: 0.5"/>
     </g>
     <g id="line2d_16">
      <g>
       <use xlink:href="#m1c2b3efe26" x="33.23125" y="212.975581" style="stroke: #000000; stroke-width: 0.8"/>
      </g>
     </g>
     <g id="text_9">
      <!-- 0 -->
      <g transform="translate(25.23125 216.069331) scale(0.09 -0.09)">
       <use xlink:href="#SimHei-30"/>
      </g>
     </g>
    </g>
    <g id="ytick_4">
     <g id="line2d_17">
      <path d="M 33.23125 150.145433 
L 705.72625 150.145433 
" clip-path="url(#p66a450eeda)" style="fill: none; stroke-dasharray: 1.85,0.8; stroke-dashoffset: 0; stroke: #b2b2b2; stroke-opacity: 0.3; stroke-width: 0.5"/>
     </g>
     <g id="line2d_18">
      <g>
       <use xlink:href="#m1c2b3efe26" x="33.23125" y="150.145433" style="stroke: #000000; stroke-width: 0.8"/>
      </g>
     </g>
     <g id="text_10">
      <!-- 1 -->
      <g transform="translate(25.23125 153.239183) scale(0.09 -0.09)">
       <use xlink:href="#SimHei-31"/>
      </g>
     </g>
    </g>
    <g id="ytick_5">
     <g id="line2d_19">
      <path d="M 33.23125 87.315285 
L 705.72625 87.315285 
" clip-path="url(#p66a450eeda)" style="fill: none; stroke-dasharray: 1.85,0.8; stroke-dashoffset: 0; stroke: #b2b2b2; stroke-opacity: 0.3; stroke-width: 0.5"/>
     </g>
     <g id="line2d_20">
      <g>
       <use xlink:href="#m1c2b3efe26" x="33.23125" y="87.315285" style="stroke: #000000; stroke-width: 0.8"/>
      </g>
     </g>
     <g id="text_11">
      <!-- 2 -->
      <g transform="translate(25.23125 90.409035) scale(0.09 -0.09)">
       <use xlink:href="#SimHei-32"/>
      </g>
     </g>
    </g>
    <g id="text_12">
     <!-- 残差值 -->
     <g transform="translate(15.403125 224.88125) rotate(-90) scale(0.1 -0.1)">
      <defs>
       <path id="SimHei-6b8b" d="M 5700 3350 
Q 5325 3300 4900 3225 
Q 4475 3150 4075 3075 
Q 4100 2700 4150 2325 
Q 4625 2425 4987 2500 
Q 5350 2575 5925 2725 
L 6000 2250 
Q 5775 2225 5300 2137 
Q 4825 2050 4200 1900 
Q 4300 1375 4475 1075 
Q 5025 1500 5325 1950 
Q 5525 1750 5800 1550 
Q 5550 1425 5350 1237 
Q 5150 1050 4675 650 
Q 5000 200 5275 37 
Q 5550 -125 5600 -12 
Q 5650 100 5625 525 
Q 5825 325 6175 300 
Q 6125 -850 5450 -587 
Q 4775 -325 4275 400 
Q 3950 150 3537 -75 
Q 3125 -300 2625 -525 
Q 2475 -250 2250 -100 
Q 2775 50 3200 262 
Q 3625 475 4075 775 
Q 3850 1225 3750 1800 
Q 3100 1675 2700 1525 
L 2575 2025 
Q 3300 2125 3700 2225 
Q 3650 2600 3625 3000 
Q 3225 2950 2800 2850 
L 2675 3325 
Q 3150 3375 3600 3450 
Q 3575 3925 3550 4275 
Q 3525 4625 3475 5125 
Q 3775 5075 4050 5075 
Q 4025 4700 4012 4412 
Q 4000 4125 4050 3525 
Q 5200 3725 5625 3850 
L 5700 3350 
z
M 2125 4650 
Q 2450 4650 2800 4675 
L 2800 4175 
Q 2450 4200 2125 4200 
L 1675 4200 
Q 1550 3700 1425 3225 
L 2600 3225 
Q 2525 2500 2400 1925 
Q 2275 1350 2050 925 
Q 1825 500 1512 137 
Q 1200 -225 675 -625 
Q 525 -400 250 -225 
Q 700 25 1037 375 
Q 1375 725 1575 1075 
Q 1275 1450 950 1750 
Q 1125 1900 1250 2100 
Q 1550 1825 1800 1550 
Q 2025 2175 2075 2775 
L 1300 2775 
Q 1125 2375 987 2150 
Q 850 1925 550 1525 
Q 350 1825 200 1925 
Q 575 2300 825 2862 
Q 1075 3425 1200 4200 
Q 775 4200 375 4175 
L 375 4675 
Q 750 4650 1075 4650 
L 2125 4650 
z
M 4825 4975 
Q 5150 4575 5425 4175 
Q 5125 4050 4975 3900 
Q 4750 4325 4400 4700 
Q 4600 4825 4825 4975 
z
" transform="scale(0.015625)"/>
       <path id="SimHei-5dee" d="M 4725 4975 
Q 4500 4725 4250 4275 
L 4850 4275 
Q 5450 4275 5825 4300 
L 5825 3850 
Q 5425 3875 4850 3875 
L 3275 3875 
Q 3225 3600 3150 3275 
L 4525 3275 
Q 5075 3275 5525 3300 
L 5525 2850 
Q 5075 2875 4500 2875 
L 3050 2875 
Q 2975 2650 2850 2325 
L 5125 2325 
Q 5675 2325 6025 2350 
L 6025 1900 
Q 5700 1925 5150 1925 
L 2650 1925 
Q 2425 1550 2250 1300 
Q 2650 1275 3100 1275 
L 4525 1275 
Q 4975 1275 5350 1300 
L 5350 850 
Q 4975 875 4575 875 
L 3925 875 
L 3925 -50 
L 5000 -50 
Q 5200 -50 5900 -25 
L 5900 -500 
Q 5275 -475 5025 -475 
L 2100 -475 
Q 1700 -475 1400 -500 
L 1400 -25 
Q 1775 -50 2125 -50 
L 3425 -50 
L 3425 875 
L 3100 875 
Q 2625 875 2175 850 
L 2175 1200 
Q 1925 875 1487 475 
Q 1050 75 625 -250 
Q 425 -25 200 150 
Q 750 475 1262 925 
Q 1775 1375 2100 1925 
L 1325 1925 
Q 750 1925 375 1900 
L 375 2350 
Q 750 2325 1350 2325 
L 2325 2325 
Q 2450 2575 2550 2875 
L 1725 2875 
Q 1375 2875 1000 2850 
L 1000 3300 
Q 1500 3275 1700 3275 
L 2650 3275 
Q 2725 3575 2775 3875 
L 1500 3875 
Q 1100 3875 650 3850 
L 650 4300 
Q 1025 4275 1425 4275 
L 2275 4275 
Q 2075 4675 1850 4950 
Q 2025 5050 2250 5225 
Q 2450 4975 2725 4550 
Q 2525 4450 2325 4275 
L 3750 4275 
Q 4000 4700 4150 5250 
Q 4400 5100 4725 4975 
z
" transform="scale(0.015625)"/>
       <path id="SimHei-503c" d="M 3675 4450 
L 3675 5100 
Q 3975 5075 4350 5050 
Q 4225 4875 4200 4450 
L 5125 4450 
Q 5550 4450 5875 4475 
L 5875 4025 
Q 5525 4050 5125 4050 
L 4175 4050 
L 4125 3500 
L 5400 3500 
Q 5375 3200 5375 2700 
L 5375 150 
Q 5875 150 6100 175 
L 6100 -275 
Q 5775 -250 5200 -250 
L 2850 -250 
Q 2275 -250 1900 -275 
L 1900 175 
Q 2125 150 2600 150 
L 2600 2700 
Q 2600 3175 2575 3500 
L 3600 3500 
L 3650 4050 
L 3200 4050 
Q 2575 4050 2225 4025 
L 2225 4475 
Q 2550 4450 3200 4450 
L 3675 4450 
z
M 2225 4900 
Q 2025 4675 1650 3750 
L 1650 450 
Q 1650 -75 1675 -550 
L 1150 -550 
Q 1175 -125 1175 375 
L 1175 2950 
Q 875 2450 625 2150 
Q 425 2425 250 2575 
Q 500 2825 937 3537 
Q 1375 4250 1625 5150 
Q 1975 4975 2225 4900 
z
M 4925 2650 
L 4925 3150 
L 3075 3150 
L 3075 2650 
L 4925 2650 
z
M 4925 150 
L 4925 625 
L 3075 625 
L 3075 150 
L 4925 150 
z
M 4925 1000 
L 4925 1450 
L 3075 1450 
L 3075 1000 
L 4925 1000 
z
M 4925 1825 
L 4925 2275 
L 3075 2275 
L 3075 1825 
L 4925 1825 
z
" transform="scale(0.015625)"/>
      </defs>
      <use xlink:href="#SimHei-6b8b"/>
      <use xlink:href="#SimHei-5dee" transform="translate(100 0)"/>
      <use xlink:href="#SimHei-503c" transform="translate(200 0)"/>
     </g>
    </g>
   </g>
   <g id="line2d_21">
    <path d="M 63.799205 168.366176 
L 64.078237 215.488785 
L 64.357269 217.373691 
L 64.636301 204.17936 
L 64.915333 213.603882 
L 65.194364 218.001992 
L 65.473396 209.205772 
L 65.752428 212.975581 
L 66.03146 214.232184 
L 66.310492 213.603882 
L 66.589524 207.949169 
L 66.868556 211.090677 
L 67.147588 240.934997 
L 67.42662 212.347283 
L 67.705652 206.536924 
L 67.984684 224.234661 
L 68.542748 206.313123 
L 68.82178 213.72298 
L 69.100812 202.1544 
L 69.379844 223.718263 
L 69.658876 201.756106 
L 69.937908 214.48187 
L 70.21694 237.274556 
L 70.495972 137.998569 
L 71.333068 187.344707 
L 71.891132 198.637169 
L 72.449196 216.429841 
L 72.728228 205.112714 
L 73.00726 218.961252 
L 73.286292 226.78689 
L 73.565324 200.822212 
L 73.844356 250.288248 
L 74.123388 226.081736 
L 74.40242 238.50374 
L 74.681452 224.0852 
L 74.960484 200.744774 
L 75.239516 214.148405 
L 75.518548 207.306381 
L 75.79758 226.374079 
L 76.076612 230.41768 
L 76.355644 226.518158 
L 76.634676 210.131275 
L 77.19274 246.299008 
L 77.471772 228.3468 
L 77.750804 233.581018 
L 78.029836 232.312492 
L 78.308868 228.690607 
L 78.5879 232.093354 
L 78.866932 230.128954 
L 79.424996 206.327376 
L 79.704028 214.430084 
L 79.98306 213.50107 
L 80.262092 200.000862 
L 80.541124 232.53659 
L 80.820156 236.206325 
L 81.37822 176.000004 
L 81.657252 258.77308 
L 81.936284 217.483047 
L 82.215316 217.74765 
L 82.494348 213.789399 
L 82.77338 207.918049 
L 83.052412 214.408914 
L 83.610476 208.608927 
L 83.889508 210.92599 
L 84.16854 219.491768 
L 84.447572 210.18163 
L 84.726604 226.570466 
L 85.005636 209.203598 
L 85.284668 210.172786 
L 85.5637 212.692301 
L 85.842732 206.951135 
L 86.121764 204.7548 
L 86.400796 207.012948 
L 86.679828 212.450055 
L 86.95886 205.075817 
L 87.237892 208.914614 
L 87.516924 214.674908 
L 87.795956 211.806359 
L 88.074988 224.278367 
L 88.35402 201.988182 
L 88.633052 208.379219 
L 88.912084 208.462417 
L 89.470148 210.598232 
L 89.74918 209.535899 
L 90.028212 211.959057 
L 90.307244 211.753315 
L 90.586276 212.906515 
L 90.865308 212.789396 
L 91.14434 216.788774 
L 91.423372 227.323399 
L 91.981436 288.118638 
L 92.260468 245.973204 
L 92.5395 237.871646 
L 93.097564 164.439873 
L 93.655628 190.27565 
L 93.93466 167.941192 
L 94.213691 199.931758 
L 94.492723 194.134699 
L 94.771755 211.555207 
L 95.050787 184.076238 
L 95.608851 197.19347 
L 95.887883 210.337925 
L 96.166915 210.515952 
L 96.445947 235.06112 
L 96.724979 218.357136 
L 97.283043 231.153783 
L 97.562075 218.030353 
L 97.841107 222.221209 
L 98.120139 214.490089 
L 98.678203 186.887134 
L 98.957235 203.773288 
L 99.236267 202.22915 
L 99.515299 217.941879 
L 99.794331 225.526468 
L 100.073363 224.796696 
L 100.352395 218.902215 
L 100.631427 242.557179 
L 100.910459 253.710257 
L 101.189491 197.61551 
L 101.468523 209.128973 
L 101.747555 197.471113 
L 102.026587 169.146498 
L 102.305619 204.594656 
L 102.584651 198.173414 
L 103.142715 227.319566 
L 103.421747 226.44867 
L 103.700779 220.145872 
L 103.979811 209.50312 
L 104.258843 209.830657 
L 104.537875 227.950357 
L 105.095939 205.791423 
L 105.374971 222.624005 
L 105.933035 211.915184 
L 106.212067 206.052698 
L 106.491099 218.096491 
L 106.770131 218.094621 
L 107.049163 212.186297 
L 107.328195 212.620779 
L 107.607227 188.272 
L 107.886259 223.402625 
L 108.165291 215.010076 
L 108.444323 217.128383 
L 108.723355 218.255352 
L 109.002387 212.831581 
L 109.560451 216.59815 
L 109.839483 210.8449 
L 110.118515 212.059413 
L 110.676579 211.276145 
L 110.955611 201.467634 
L 111.234643 215.823126 
L 111.513675 213.143872 
L 111.792707 215.937564 
L 112.071739 216.097646 
L 112.350771 211.132117 
L 112.908835 215.711262 
L 113.187867 101.122157 
L 113.466899 174.311936 
L 113.745931 183.449052 
L 114.024963 376.097159 
L 114.583027 182.245849 
L 114.862059 229.364991 
L 115.420123 214.271805 
L 115.699155 203.857441 
L 115.978187 206.329864 
L 116.257219 215.814502 
L 116.536251 245.272221 
L 116.815283 107.518686 
L 117.094315 261.431466 
L 117.373347 191.296759 
L 117.652379 293.437284 
L 117.931411 270.649567 
L 118.210443 227.367307 
L 118.489475 249.421783 
L 119.047539 133.244763 
L 119.326571 181.075603 
L 119.605603 185.788596 
L 119.884635 229.582703 
L 120.163667 252.623181 
L 120.721731 148.410641 
L 121.000763 164.108889 
L 121.279795 205.670072 
L 121.558827 200.5334 
L 121.837859 197.959659 
L 122.116891 216.527384 
L 122.395923 243.704529 
L 122.674955 226.760534 
L 122.953987 222.804709 
L 123.233018 256.497698 
L 123.51205 268.347206 
L 124.070114 149.155013 
L 124.349146 165.124352 
L 124.628178 205.806251 
L 124.90721 101.864963 
L 125.186242 288.939698 
L 125.465274 209.21622 
L 125.744306 238.027119 
L 126.023338 219.441675 
L 126.30237 211.99225 
L 126.581402 239.094832 
L 126.860434 251.149917 
L 127.139466 195.187954 
L 127.418498 210.18965 
L 127.69753 210.006696 
L 127.976562 215.757185 
L 128.255594 251.962157 
L 128.534626 180.954536 
L 128.813658 226.410471 
L 129.09269 248.696536 
L 129.371722 232.082169 
L 129.650754 229.245549 
L 129.929786 217.632935 
L 130.208818 221.334952 
L 130.48785 220.263041 
L 131.045914 206.341417 
L 131.324946 209.853216 
L 131.603978 243.361585 
L 131.88301 180.452516 
L 132.162042 214.894677 
L 132.441074 212.840773 
L 132.720106 213.105845 
L 132.999138 215.33389 
L 133.27817 205.606141 
L 133.557202 213.125539 
L 133.836234 214.505504 
L 134.394298 203.607247 
L 134.67333 206.007836 
L 134.952362 241.477734 
L 135.231394 178.787582 
L 135.510426 212.867842 
L 135.789458 212.21046 
L 136.347522 214.267582 
L 136.626554 205.537596 
L 136.905586 213.846854 
L 137.184618 215.095754 
L 137.742682 202.675909 
L 138.300746 207.623119 
L 138.85881 209.923787 
L 139.137842 210.071566 
L 139.416874 159.27373 
L 139.695906 200.529672 
L 139.974938 222.582716 
L 140.25397 185.289616 
L 140.533002 199.570101 
L 140.812034 197.805788 
L 141.091066 219.217147 
L 141.370098 225.371808 
L 141.64913 216.138256 
L 141.928162 202.168326 
L 142.207194 230.588121 
L 142.486226 222.280074 
L 142.765258 244.419729 
L 143.04429 224.052296 
L 143.323322 219.799106 
L 143.602354 219.072071 
L 144.160418 234.968209 
L 144.43945 202.310581 
L 144.718482 137.140731 
L 145.276546 268.085825 
L 145.555578 213.297478 
L 145.83461 190.927563 
L 146.113642 243.928946 
L 146.392674 200.330713 
L 146.671706 203.512336 
L 146.950738 240.641141 
L 147.22977 227.157546 
L 147.508802 201.435906 
L 147.787834 209.415413 
L 148.066866 252.431867 
L 148.345898 213.750858 
L 148.62493 204.321986 
L 148.903962 208.469083 
L 149.182994 220.059235 
L 149.462026 217.04339 
L 150.02009 201.213951 
L 150.299122 214.849783 
L 150.578154 171.12343 
L 150.857186 197.67117 
L 151.41525 220.309163 
L 151.973314 195.691975 
L 152.252345 205.178449 
L 152.531377 232.111993 
L 153.089441 220.951448 
L 153.368473 192.569286 
L 153.926537 213.82159 
L 154.205569 211.305313 
L 154.763633 202.14032 
L 155.042665 202.034835 
L 155.321697 151.477498 
L 155.600729 167.917664 
L 155.879761 220.236588 
L 156.158793 198.553549 
L 156.437825 221.916979 
L 156.716857 225.231531 
L 156.995889 212.893095 
L 157.274921 228.110385 
L 157.832985 219.75476 
L 158.112017 227.308642 
L 158.670081 287.135141 
L 158.949113 281.915529 
L 159.228145 166.726794 
L 159.507177 168.734434 
L 159.786209 210.254527 
L 160.344273 160.108963 
L 160.623305 219.944447 
L 160.902337 219.647224 
L 161.460401 194.121619 
L 162.018465 232.313403 
L 162.297497 218.569656 
L 162.576529 228.24879 
L 162.855561 228.45481 
L 163.134593 221.492013 
L 163.413625 235.056526 
L 163.692657 153.081082 
L 163.971689 237.86554 
L 164.250721 221.742871 
L 164.529753 240.650165 
L 164.808785 238.918853 
L 165.087817 204.561708 
L 165.366849 208.301089 
L 165.645881 207.74238 
L 165.924913 220.481305 
L 166.203945 211.325734 
L 166.482977 193.397034 
L 166.762009 214.366933 
L 167.041041 250.881313 
L 167.320073 201.406808 
L 167.599105 207.570657 
L 167.878137 209.048802 
L 168.157169 215.268992 
L 168.436201 193.083283 
L 168.715233 181.324814 
L 168.994265 189.660704 
L 169.273297 214.963759 
L 169.552329 211.959904 
L 169.831361 211.112838 
L 170.110393 222.409356 
L 170.389425 254.861124 
L 170.947489 170.258764 
L 171.226521 278.989027 
L 171.784585 192.65834 
L 172.063617 193.117502 
L 172.342649 230.03019 
L 172.900713 224.887993 
L 173.179745 222.190256 
L 173.458777 221.156223 
L 173.737809 240.008979 
L 174.016841 201.739766 
L 174.295873 219.442936 
L 174.574905 185.12239 
L 175.132969 206.406238 
L 175.412001 208.740989 
L 175.691033 202.414451 
L 175.970065 218.280384 
L 176.249097 219.702184 
L 176.528129 224.773275 
L 176.807161 217.966599 
L 177.086193 220.423331 
L 177.365225 215.264195 
L 177.644257 222.513311 
L 177.923289 183.486983 
L 178.481353 210.876158 
L 178.760385 215.976577 
L 179.039417 204.881953 
L 179.318449 201.623694 
L 179.597481 219.899602 
L 180.155545 214.040639 
L 180.434577 215.937995 
L 180.713609 205.598651 
L 180.992641 236.524306 
L 181.271672 211.511247 
L 181.829736 237.467184 
L 182.3878 209.76875 
L 182.666832 190.595271 
L 182.945864 192.954685 
L 183.224896 202.666901 
L 183.503928 202.008438 
L 183.78296 207.108568 
L 184.061992 221.090591 
L 184.341024 241.151731 
L 184.620056 222.419384 
L 184.899088 222.384423 
L 185.17812 223.447815 
L 185.457152 199.779489 
L 185.736184 205.715063 
L 186.015216 221.347637 
L 186.294248 217.269743 
L 186.57328 215.287637 
L 186.852312 215.059157 
L 187.131344 214.621514 
L 187.410376 216.814827 
L 187.689408 206.073373 
L 187.96844 205.12142 
L 188.247472 212.258314 
L 188.526504 210.760644 
L 188.805536 123.265378 
L 189.084568 283.95479 
L 189.3636 228.325009 
L 189.642632 223.379221 
L 189.921664 222.534835 
L 190.200696 219.074815 
L 190.479728 222.78781 
L 190.75876 214.832606 
L 191.037792 201.881541 
L 191.316824 194.666722 
L 191.595856 210.433254 
L 191.874888 205.440534 
L 192.15392 245.447439 
L 192.432952 190.230411 
L 192.711984 212.395642 
L 192.991016 216.710974 
L 193.270048 210.326048 
L 193.54908 213.154469 
L 193.828112 210.972534 
L 194.107144 211.580883 
L 194.386176 205.74793 
L 194.665208 227.761542 
L 194.94424 211.735235 
L 195.223272 209.100509 
L 195.502304 248.039617 
L 195.781336 193.649697 
L 196.060368 208.62892 
L 196.3394 96.27931 
L 196.618432 273.867593 
L 196.897464 219.183059 
L 197.176496 213.204991 
L 197.455528 234.450857 
L 197.73456 225.664216 
L 198.013592 229.031659 
L 198.292624 218.076376 
L 198.571656 219.47981 
L 198.850688 223.188886 
L 199.12972 184.823441 
L 199.408752 206.053346 
L 199.687784 246.064091 
L 199.966816 184.793166 
L 200.245848 207.289815 
L 200.52488 197.658436 
L 200.803912 172.945501 
L 201.082944 205.562784 
L 201.361976 213.776066 
L 201.641008 227.145389 
L 201.92004 212.587255 
L 202.199072 219.832473 
L 202.478104 217.934971 
L 202.757136 203.879148 
L 203.036168 210.123671 
L 203.3152 197.008428 
L 203.594232 220.274787 
L 203.873264 207.549624 
L 204.152296 200.065304 
L 204.431328 215.147135 
L 204.71036 220.828511 
L 204.989392 213.016838 
L 205.268424 211.508224 
L 205.547456 228.676625 
L 205.826488 188.020759 
L 206.384552 263.384475 
L 206.663584 191.035703 
L 206.942616 253.638194 
L 207.221648 257.461135 
L 207.50068 225.500812 
L 207.779712 163.621782 
L 208.337776 191.581136 
L 208.616808 194.989467 
L 208.89584 206.614317 
L 209.174872 213.410241 
L 209.453904 212.959659 
L 209.732936 225.377519 
L 210.290999 195.268603 
L 210.849063 224.996532 
L 211.128095 225.897756 
L 211.407127 204.971021 
L 211.686159 201.542553 
L 212.244223 222.035297 
L 212.523255 226.987251 
L 212.802287 217.731282 
L 213.081319 137.257346 
L 213.360351 339.571396 
L 213.639383 220.221728 
L 213.918415 205.610476 
L 214.197447 221.388222 
L 214.476479 228.158748 
L 214.755511 226.818398 
L 215.034543 204.947513 
L 215.313575 208.102155 
L 215.592607 201.863802 
L 215.871639 221.060546 
L 216.150671 204.705542 
L 216.429703 243.641906 
L 216.708735 167.5346 
L 216.987767 191.167021 
L 217.824863 231.760313 
L 218.103895 209.398185 
L 218.661959 218.918911 
L 218.940991 213.085099 
L 219.220023 212.892971 
L 219.499055 212.060345 
L 219.778087 249.776707 
L 220.057119 183.206831 
L 220.336151 170.655395 
L 220.615183 208.708451 
L 220.894215 205.661916 
L 221.173247 198.397571 
L 221.452279 251.03003 
L 221.731311 87.509844 
L 222.010343 322.661409 
L 222.289375 208.711456 
L 222.568407 211.592036 
L 222.847439 240.021678 
L 223.126471 237.07924 
L 223.405503 178.150007 
L 223.684535 226.573578 
L 223.963567 154.635544 
L 224.242599 242.86184 
L 224.521631 223.065734 
L 224.800663 190.643656 
L 225.079695 268.452393 
L 225.358727 183.287755 
L 225.637759 216.279673 
L 225.916791 217.604849 
L 226.195823 209.345057 
L 226.474855 274.501129 
L 226.753887 43.665341 
L 227.032919 291.894001 
L 227.590983 220.291491 
L 227.870015 213.676579 
L 228.149047 184.1766 
L 228.428079 267.44796 
L 228.707111 172.925925 
L 228.986143 207.711014 
L 229.265175 202.40759 
L 229.544207 189.376386 
L 229.823239 220.938225 
L 230.102271 269.862893 
L 230.381303 196.860793 
L 230.660335 218.244028 
L 230.939367 197.578957 
L 231.218399 220.099637 
L 231.497431 221.966962 
L 231.776463 240.736222 
L 232.055495 175.466415 
L 232.334527 230.580281 
L 232.613559 194.054899 
L 232.892591 215.145888 
L 233.171623 195.204093 
L 233.450655 259.86109 
L 233.729687 195.80546 
L 234.008719 223.393502 
L 234.287751 200.30145 
L 234.566783 196.44495 
L 234.845815 212.061285 
L 235.124847 204.502912 
L 235.403879 202.319136 
L 235.961943 226.26733 
L 236.240975 214.651646 
L 236.520007 183.133202 
L 236.799039 266.821986 
L 237.078071 178.330631 
L 237.357103 201.617296 
L 237.636135 205.619047 
L 237.915167 202.061134 
L 238.194199 105.538967 
L 238.473231 302.215064 
L 238.752263 224.569828 
L 239.031295 208.993496 
L 239.310326 228.314947 
L 239.86839 203.621578 
L 240.147422 215.687368 
L 240.426454 199.638515 
L 240.705486 208.313179 
L 240.984518 210.04269 
L 241.26355 205.206284 
L 241.542582 239.988928 
L 241.821614 187.378195 
L 242.100646 209.378485 
L 242.379678 203.689296 
L 242.65871 211.673961 
L 242.937742 201.850872 
L 243.216774 214.517423 
L 243.495806 221.7828 
L 243.774838 215.071617 
L 244.05387 248.356563 
L 244.332902 223.739144 
L 244.611934 209.598484 
L 244.890966 243.337343 
L 245.169998 185.327934 
L 245.44903 213.60244 
L 246.007094 232.035582 
L 246.286126 227.652537 
L 246.84419 210.370471 
L 247.123222 231.417422 
L 247.402254 214.460761 
L 247.681286 224.599368 
L 248.23935 256.7151 
L 248.518382 189.760888 
L 248.797414 201.5288 
L 249.076446 201.864901 
L 249.355478 198.83657 
L 249.63451 188.251868 
L 249.913542 207.398133 
L 250.192574 204.867335 
L 250.471606 213.927903 
L 250.750638 211.057475 
L 251.02967 203.740911 
L 251.308702 214.306455 
L 251.587734 217.070791 
L 251.866766 213.738415 
L 252.145798 218.850188 
L 252.42483 208.988504 
L 252.703862 210.663939 
L 252.982894 224.122265 
L 253.261926 208.904049 
L 253.540958 212.901265 
L 253.81999 203.085772 
L 254.099022 198.682194 
L 254.378054 212.994137 
L 254.657086 216.413647 
L 254.936118 207.5932 
L 255.21515 220.974085 
L 255.494182 208.345294 
L 255.773214 238.926726 
L 256.052246 244.650595 
L 256.331278 168.855549 
L 256.61031 171.602744 
L 256.889342 208.03109 
L 257.168374 204.038483 
L 257.447406 194.369509 
L 258.00547 199.43971 
L 258.284502 224.494484 
L 258.563534 208.641612 
L 258.842566 228.554753 
L 259.40063 208.716105 
L 259.679662 239.223782 
L 259.958694 218.258532 
L 260.237726 210.391779 
L 260.516758 216.896812 
L 260.79579 213.63787 
L 261.074822 215.417887 
L 261.353854 225.347151 
L 261.632886 209.70382 
L 261.911918 209.720366 
L 262.19095 220.403951 
L 262.749014 204.262562 
L 263.028046 238.465991 
L 263.307078 238.09727 
L 263.58611 214.52667 
L 263.865142 220.289687 
L 264.144174 219.175463 
L 264.423206 213.378379 
L 264.702238 212.723128 
L 265.260302 198.817172 
L 265.539334 214.644636 
L 265.818366 201.545377 
L 266.097398 198.745707 
L 266.37643 224.146678 
L 266.655462 204.657823 
L 266.934494 238.964269 
L 267.213526 206.846679 
L 267.492558 201.639038 
L 267.77159 211.066142 
L 268.050621 212.639548 
L 268.329653 209.897146 
L 268.608685 213.728406 
L 268.887717 207.867205 
L 269.166749 210.420711 
L 269.445781 110.710205 
L 269.724813 253.157936 
L 270.282877 201.358217 
L 270.840941 219.415869 
L 271.119973 219.637552 
L 271.399005 212.082646 
L 271.678037 219.257205 
L 271.957069 214.163999 
L 272.236101 231.658412 
L 272.515133 213.094716 
L 272.794165 239.800784 
L 273.073197 201.40564 
L 273.352229 216.070081 
L 273.631261 206.239806 
L 273.910293 214.058368 
L 274.189325 216.278816 
L 274.468357 211.617508 
L 274.747389 217.841956 
L 275.026421 199.432756 
L 275.305453 223.645035 
L 275.584485 203.801652 
L 275.863517 214.594215 
L 276.142549 259.174223 
L 276.421581 195.999359 
L 276.979645 204.851683 
L 277.258677 220.070676 
L 277.537709 214.44596 
L 277.816741 214.568761 
L 278.095773 213.764058 
L 278.374805 221.996419 
L 278.653837 209.104971 
L 278.932869 203.651417 
L 279.211901 209.305615 
L 279.490933 246.158663 
L 279.769965 194.996909 
L 280.048997 210.393018 
L 280.328029 209.965097 
L 280.607061 216.252873 
L 280.886093 206.919601 
L 281.165125 206.198213 
L 281.444157 207.93878 
L 281.723189 215.24909 
L 282.002221 214.017969 
L 282.281253 212.173368 
L 282.839317 197.012157 
L 283.118349 223.40682 
L 283.676413 211.358643 
L 283.955445 210.402196 
L 284.234477 214.202234 
L 284.513509 207.477693 
L 284.792541 210.463473 
L 285.071573 232.301099 
L 285.350605 206.064546 
L 285.908669 212.363385 
L 286.187701 202.222026 
L 286.466733 205.200377 
L 286.745765 228.632989 
L 287.024797 222.531159 
L 287.303829 219.746528 
L 287.582861 211.80318 
L 287.861893 208.042038 
L 288.140925 206.083416 
L 288.419957 198.188965 
L 288.698989 210.704873 
L 288.978021 202.288909 
L 289.257053 228.100969 
L 289.536085 214.337383 
L 289.815117 210.441123 
L 290.094149 217.746051 
L 290.373181 211.03143 
L 290.652213 215.674601 
L 290.931245 240.913466 
L 291.210277 219.581479 
L 291.489309 220.654649 
L 291.768341 211.793146 
L 292.047373 214.488521 
L 292.326405 223.47161 
L 292.605437 227.001495 
L 292.884469 224.463415 
L 293.163501 214.266523 
L 293.442533 216.537019 
L 293.721565 215.880885 
L 294.000597 213.062829 
L 294.279629 216.510407 
L 294.558661 225.336855 
L 295.116725 214.272694 
L 295.395757 219.69492 
L 295.674789 219.339326 
L 295.953821 197.701726 
L 296.232853 201.531184 
L 296.511885 191.52314 
L 296.790917 192.201679 
L 297.628012 221.933526 
L 297.907044 217.389554 
L 298.465108 235.140244 
L 298.74414 229.850404 
L 299.023172 215.369243 
L 299.302204 187.757252 
L 299.581236 182.329159 
L 299.860268 228.465647 
L 300.1393 200.710545 
L 300.418332 214.258253 
L 300.697364 213.120736 
L 300.976396 202.622933 
L 301.255428 210.142817 
L 301.53446 211.012258 
L 301.813492 203.6929 
L 302.371556 217.713247 
L 302.650588 213.477862 
L 302.92962 235.764481 
L 303.208652 209.875622 
L 303.487684 214.156135 
L 304.045748 191.279154 
L 304.603812 206.990885 
L 304.882844 198.22236 
L 305.161876 197.492916 
L 305.440908 197.138437 
L 305.71994 200.045222 
L 306.278004 225.964229 
L 306.557036 227.019758 
L 306.836068 233.000855 
L 307.1151 226.121563 
L 307.394132 247.127592 
L 307.673164 197.610262 
L 307.952196 173.093506 
L 308.231228 214.887713 
L 308.51026 210.591747 
L 308.789292 199.537327 
L 309.068324 209.49944 
L 309.347356 213.665682 
L 309.626388 220.214852 
L 309.90542 208.071185 
L 310.184452 223.398813 
L 310.463484 217.365128 
L 310.742516 205.558825 
L 311.30058 230.285623 
L 311.579612 214.292786 
L 311.858644 230.660093 
L 312.416708 210.369822 
L 312.69574 216.188976 
L 312.974772 213.683401 
L 313.532836 205.676097 
L 313.811868 220.413481 
L 314.0909 217.835442 
L 314.369932 231.263829 
L 314.648964 226.017509 
L 314.927996 192.910294 
L 315.207028 202.781416 
L 315.48606 217.899177 
L 315.765092 248.524691 
L 316.323156 175.458434 
L 316.88122 246.647374 
L 317.160252 216.210196 
L 317.439284 203.909373 
L 317.997348 227.384515 
L 318.555412 183.453173 
L 318.834444 200.483944 
L 319.113476 198.056907 
L 319.67154 233.044255 
L 319.950572 223.385258 
L 320.229604 206.895089 
L 320.508636 205.379848 
L 320.787668 210.603699 
L 321.0667 205.722902 
L 321.345732 214.43323 
L 321.624764 228.424048 
L 321.903796 221.058459 
L 322.182828 201.163755 
L 322.740892 214.948987 
L 323.019924 215.717658 
L 323.298956 214.18766 
L 323.577988 187.68321 
L 323.85702 212.344331 
L 324.136052 204.258093 
L 324.415084 214.657159 
L 324.694116 214.372645 
L 324.973148 236.70915 
L 325.25218 226.607651 
L 325.531212 225.721444 
L 325.810244 198.875031 
L 326.089275 249.749292 
L 326.368307 239.548393 
L 326.647339 219.597466 
L 326.926371 209.767656 
L 327.205403 214.131825 
L 327.763467 203.370897 
L 328.042499 208.257592 
L 328.321531 210.465815 
L 328.879595 223.398454 
L 329.158627 219.424969 
L 329.437659 206.235687 
L 329.716691 203.393977 
L 329.995723 190.459421 
L 330.274755 206.57404 
L 330.832819 199.338484 
L 331.111851 204.832491 
L 331.390883 212.590688 
L 331.669915 206.891923 
L 331.948947 221.753406 
L 332.227979 228.263541 
L 332.507011 223.720829 
L 332.786043 210.975078 
L 333.065075 218.989261 
L 333.344107 220.220269 
L 333.623139 171.532351 
L 333.902171 211.475891 
L 334.181203 222.638158 
L 334.460235 204.997274 
L 334.739267 204.744084 
L 335.018299 218.073487 
L 335.297331 214.256648 
L 335.576363 197.762868 
L 335.855395 207.445389 
L 336.134427 195.629993 
L 336.413459 205.584615 
L 336.692491 233.286255 
L 336.971523 223.425404 
L 337.250555 206.78795 
L 337.808619 222.227963 
L 338.087651 206.42886 
L 338.366683 204.491941 
L 338.645715 193.292497 
L 338.924747 230.606395 
L 339.203779 221.371871 
L 339.482811 216.338848 
L 339.761843 218.75471 
L 340.040875 215.389706 
L 340.319907 232.642807 
L 340.598939 218.35859 
L 340.877971 215.541141 
L 341.157003 215.908054 
L 341.436035 187.217758 
L 341.715067 192.130146 
L 341.994099 191.694496 
L 342.273131 215.379557 
L 342.552163 212.204269 
L 342.831195 204.370558 
L 343.110227 208.965938 
L 343.389259 197.427951 
L 343.668291 230.667609 
L 343.947323 231.256771 
L 344.226355 213.867807 
L 344.505387 215.506061 
L 344.784419 220.937568 
L 345.063451 213.303005 
L 345.342483 223.059477 
L 345.621515 210.48304 
L 345.900547 225.736036 
L 346.458611 216.644461 
L 346.737643 208.96824 
L 347.016675 219.247304 
L 347.295707 220.152389 
L 347.574739 213.736928 
L 347.853771 198.816586 
L 348.132803 234.609405 
L 348.411835 225.013269 
L 348.690867 224.023065 
L 348.969899 210.382356 
L 349.248931 204.537147 
L 349.527963 223.015478 
L 349.806995 207.038917 
L 350.086027 208.934256 
L 350.365059 216.640231 
L 350.644091 206.329824 
L 350.923123 172.344436 
L 351.202155 229.500133 
L 351.481187 228.430707 
L 351.760219 204.768757 
L 352.039251 236.450465 
L 352.318283 228.548795 
L 352.597315 197.024206 
L 352.876347 186.193256 
L 353.155379 204.555409 
L 353.434411 214.345579 
L 353.713443 205.948559 
L 353.992475 210.796033 
L 354.271507 220.59459 
L 354.550539 218.606916 
L 354.829571 211.298106 
L 355.108602 229.040702 
L 355.666666 202.308361 
L 355.945698 205.771778 
L 356.22473 217.852037 
L 356.503762 218.875779 
L 356.782794 212.860546 
L 357.061826 222.950289 
L 357.340858 206.284578 
L 357.61989 227.842135 
L 357.898922 210.905814 
L 358.177954 205.443053 
L 358.456986 210.539057 
L 358.736018 207.080866 
L 359.01505 209.792425 
L 359.294082 221.601524 
L 359.573114 182.145321 
L 359.852146 247.688438 
L 360.131178 221.447267 
L 360.41021 208.795918 
L 360.689242 211.705082 
L 360.968274 227.076874 
L 361.247306 208.137322 
L 361.526338 199.601556 
L 361.80537 203.514205 
L 362.084402 183.196622 
L 362.363434 173.642657 
L 362.642466 224.331345 
L 362.921498 233.208839 
L 363.20053 207.230465 
L 363.479562 215.111431 
L 363.758594 211.464342 
L 364.037626 209.367695 
L 364.316658 216.719817 
L 364.59569 209.954033 
L 364.874722 214.288537 
L 365.153754 214.917864 
L 365.432786 222.512417 
L 365.711818 222.508045 
L 365.99085 210.667034 
L 366.269882 221.55833 
L 366.548914 203.933631 
L 366.827946 208.136821 
L 367.106978 202.272423 
L 367.665042 214.315344 
L 367.944074 213.347845 
L 368.223106 194.368311 
L 368.502138 238.404151 
L 368.78117 218.155948 
L 369.060202 226.110939 
L 369.339234 194.018012 
L 369.618266 225.42551 
L 369.897298 185.719634 
L 370.17633 214.26144 
L 370.455362 209.205565 
L 370.734394 211.32572 
L 371.013426 217.551029 
L 371.292458 208.804562 
L 371.57149 240.340935 
L 371.850522 214.677632 
L 372.129554 283.466933 
L 372.408586 176.923784 
L 372.687618 189.145979 
L 372.96665 207.462285 
L 373.245682 202.935713 
L 373.524714 216.309394 
L 373.803746 214.771334 
L 374.082778 214.202093 
L 374.36181 225.798601 
L 374.640842 218.745844 
L 375.198906 233.050235 
L 375.477938 200.876792 
L 375.75697 208.69856 
L 376.036002 209.018867 
L 376.315034 221.079342 
L 376.594066 191.320273 
L 376.873098 236.276135 
L 377.15213 223.0393 
L 377.431162 222.970899 
L 377.710194 196.335806 
L 377.989226 212.561392 
L 378.268258 211.559134 
L 378.54729 196.357946 
L 378.826322 187.4939 
L 379.105354 232.624747 
L 379.384386 239.597994 
L 379.663418 211.125319 
L 379.94245 230.795649 
L 380.221482 192.336215 
L 380.500514 207.361988 
L 380.779546 206.197599 
L 381.058578 200.292326 
L 381.33761 218.658329 
L 381.616642 207.994379 
L 381.895674 203.041184 
L 382.174706 193.271081 
L 382.453738 235.649812 
L 382.73277 208.011059 
L 383.011802 211.798555 
L 383.290834 225.145247 
L 383.569866 204.845192 
L 383.848898 222.097026 
L 384.127929 209.461385 
L 384.406961 215.472781 
L 384.685993 212.475265 
L 384.965025 181.527966 
L 385.244057 227.585362 
L 385.523089 209.876471 
L 385.802121 218.128487 
L 386.081153 222.348702 
L 386.360185 199.875594 
L 386.639217 223.0993 
L 386.918249 205.264661 
L 387.197281 200.227026 
L 387.476313 211.287588 
L 387.755345 214.811061 
L 388.034377 208.893581 
L 388.313409 225.276779 
L 388.592441 197.710012 
L 388.871473 210.846681 
L 389.150505 210.092585 
L 389.429537 215.488769 
L 389.708569 215.47924 
L 389.987601 212.357999 
L 390.266633 203.97435 
L 390.545665 184.007279 
L 390.824697 186.036506 
L 391.103729 229.515725 
L 391.382761 188.47833 
L 391.661793 216.47824 
L 391.940825 207.381366 
L 392.219857 211.302273 
L 392.498889 204.212946 
L 392.777921 221.844258 
L 393.056953 218.449437 
L 393.335985 221.616098 
L 393.615017 240.504328 
L 393.894049 248.908113 
L 394.173081 211.809202 
L 394.452113 217.581084 
L 394.731145 240.751322 
L 395.010177 233.763914 
L 395.289209 209.900333 
L 395.568241 211.177597 
L 395.847273 220.143917 
L 396.126305 223.310415 
L 396.405337 214.515117 
L 396.684369 189.055061 
L 396.963401 217.337297 
L 397.242433 206.17171 
L 397.521465 231.064548 
L 397.800497 200.987031 
L 398.079529 223.307453 
L 398.358561 214.885245 
L 398.637593 214.18551 
L 398.916625 193.755646 
L 399.195657 216.870417 
L 399.474689 215.228395 
L 399.753721 217.971527 
L 400.032753 222.830622 
L 400.311785 211.168867 
L 400.869849 220.472455 
L 401.148881 176.475866 
L 401.427913 220.074354 
L 401.706945 211.389593 
L 401.985977 223.164391 
L 402.265009 216.123026 
L 402.544041 217.184498 
L 402.823073 202.353164 
L 403.102105 216.691922 
L 403.381137 209.277394 
L 403.660169 189.266163 
L 404.218233 224.040548 
L 404.497265 215.630823 
L 404.776297 192.66927 
L 405.055329 214.047869 
L 405.334361 201.439908 
L 405.613393 217.241004 
L 405.892425 200.186208 
L 406.171457 196.282312 
L 406.450489 211.827505 
L 406.729521 263.418994 
L 407.008553 233.812918 
L 407.287585 191.076864 
L 407.566617 196.836014 
L 407.845649 247.545067 
L 408.124681 209.175524 
L 408.403713 217.785303 
L 408.961777 191.427383 
L 409.240809 231.470142 
L 409.519841 179.998407 
L 409.798873 220.238869 
L 410.077905 212.272647 
L 410.356937 195.531177 
L 410.915001 241.983972 
L 411.194033 245.284156 
L 411.473065 199.677737 
L 411.752097 184.125004 
L 412.868225 251.901957 
L 413.147256 195.844666 
L 413.426288 209.123718 
L 413.984352 220.016477 
L 414.263384 214.435555 
L 414.542416 187.338648 
L 414.821448 218.855845 
L 415.10048 220.030256 
L 415.379512 227.277977 
L 415.658544 228.156443 
L 415.937576 202.764774 
L 416.216608 222.492294 
L 416.49564 218.928015 
L 416.774672 186.978781 
L 417.053704 206.347135 
L 417.332736 211.161816 
L 417.8908 198.127294 
L 418.169832 201.238317 
L 418.448864 225.050897 
L 418.727896 216.731104 
L 419.006928 228.565412 
L 419.28596 219.680769 
L 419.564992 216.70987 
L 419.844024 215.036442 
L 420.123056 214.788733 
L 420.68112 219.936298 
L 420.960152 194.732674 
L 421.239184 208.38122 
L 421.518216 206.370247 
L 421.797248 215.177906 
L 422.07628 216.857776 
L 422.355312 210.321575 
L 422.913376 175.331958 
L 423.192408 208.869612 
L 423.47144 214.633696 
L 423.750472 214.363912 
L 424.029504 218.09667 
L 424.308536 215.032839 
L 424.587568 209.002884 
L 424.8666 226.240375 
L 425.145632 196.850616 
L 425.424664 213.320404 
L 425.703696 211.870375 
L 425.982728 198.675939 
L 426.26176 239.279253 
L 426.540792 221.20221 
L 426.819824 221.479086 
L 427.098856 203.012009 
L 427.377888 236.318972 
L 427.935952 215.645975 
L 428.214984 212.837984 
L 428.494016 211.886261 
L 429.05208 218.312519 
L 429.331112 201.049438 
L 429.610144 217.856144 
L 429.889176 220.275376 
L 430.168208 198.768294 
L 430.44724 222.285628 
L 430.726272 213.671975 
L 431.005304 197.235366 
L 431.284336 222.747267 
L 431.563368 214.740193 
L 431.8424 210.10324 
L 432.121432 191.82031 
L 432.400464 208.533702 
L 432.679496 210.28899 
L 432.958528 219.182081 
L 433.23756 216.490833 
L 433.516592 200.856276 
L 433.795624 221.051297 
L 434.074656 204.67256 
L 434.353688 217.693103 
L 434.63272 221.405314 
L 434.911752 198.956782 
L 435.190784 248.542465 
L 435.748848 216.913746 
L 436.02788 232.248982 
L 436.306912 205.404312 
L 436.585944 207.737589 
L 436.864976 218.801511 
L 437.144008 217.926044 
L 437.42304 218.64495 
L 437.702072 213.142706 
L 437.981104 212.642811 
L 438.260136 222.287894 
L 438.539168 206.615146 
L 438.8182 211.20218 
L 439.097232 207.788053 
L 439.376264 219.516801 
L 439.934328 203.462523 
L 440.21336 216.56838 
L 440.492392 210.601983 
L 440.771424 207.958869 
L 441.050456 220.759995 
L 441.329488 212.47686 
L 441.60852 220.718044 
L 441.887552 201.539009 
L 442.445615 206.968764 
L 442.724647 221.778842 
L 443.003679 211.388541 
L 443.282711 181.4877 
L 443.561743 237.284665 
L 443.840775 216.407403 
L 444.119807 210.136761 
L 444.398839 219.311325 
L 444.677871 200.960829 
L 444.956903 218.96329 
L 445.235935 203.595239 
L 445.514967 212.583626 
L 445.793999 214.763979 
L 446.073031 202.001975 
L 446.352063 211.144822 
L 446.631095 226.038425 
L 446.910127 203.472469 
L 447.189159 206.105218 
L 447.468191 206.19281 
L 448.026255 214.465837 
L 448.305287 209.981656 
L 448.863351 225.113276 
L 449.142383 221.573775 
L 449.421415 207.968654 
L 449.700447 222.478772 
L 449.979479 225.917732 
L 450.258511 208.287618 
L 450.537543 209.865646 
L 450.816575 214.501814 
L 451.095607 211.101708 
L 451.374639 159.783281 
L 451.653671 241.915277 
L 451.932703 218.625394 
L 452.211735 220.19264 
L 452.490767 226.054845 
L 452.769799 217.467144 
L 453.048831 219.995684 
L 453.327863 216.675836 
L 453.606895 196.160506 
L 453.885927 206.061549 
L 454.164959 208.772284 
L 454.443991 200.127171 
L 454.723023 234.829568 
L 455.002055 204.198253 
L 455.281087 213.680598 
L 455.560119 200.535697 
L 455.839151 204.563337 
L 456.118183 213.837907 
L 456.397215 214.087451 
L 456.676247 213.599868 
L 456.955279 218.590701 
L 457.234311 228.534666 
L 457.513343 206.818835 
L 457.792375 175.785069 
L 458.071407 235.228594 
L 458.350439 209.541194 
L 458.629471 217.517256 
L 458.908503 216.043958 
L 459.187535 208.2902 
L 459.466567 224.957494 
L 459.745599 197.154857 
L 460.024631 214.416613 
L 460.303663 190.362675 
L 460.582695 221.292571 
L 460.861727 231.219683 
L 461.419791 234.092802 
L 461.698823 202.569548 
L 461.977855 207.106549 
L 462.256887 208.963597 
L 462.535919 203.115323 
L 462.814951 200.893601 
L 463.093983 220.474051 
L 463.373015 215.961181 
L 463.652047 229.181976 
L 463.931079 202.611236 
L 464.210111 211.794454 
L 464.489143 231.39384 
L 464.768175 193.26942 
L 465.047207 179.620958 
L 465.326239 210.993429 
L 465.605271 199.757626 
L 465.884303 213.965277 
L 466.163335 219.566716 
L 466.442367 215.103245 
L 467.000431 231.301475 
L 467.279463 217.855915 
L 467.558495 212.267106 
L 467.837527 223.669163 
L 468.116559 195.241807 
L 468.395591 214.770943 
L 468.674623 192.343231 
L 468.953655 232.52196 
L 469.232687 211.429326 
L 469.790751 214.80898 
L 470.069783 213.593341 
L 470.348815 213.273491 
L 470.627847 208.972715 
L 470.906879 207.45406 
L 471.18591 210.565005 
L 471.464942 223.745724 
L 471.743974 225.606138 
L 472.023006 213.363169 
L 472.302038 209.884737 
L 472.58107 214.822908 
L 472.860102 203.581253 
L 473.139134 201.704075 
L 473.418166 204.742601 
L 473.697198 191.381133 
L 473.97623 213.533918 
L 474.255262 218.194835 
L 474.534294 214.871183 
L 474.813326 226.605163 
L 475.092358 229.794627 
L 475.37139 221.190884 
L 475.650422 206.58019 
L 475.929454 210.584585 
L 476.208486 207.377069 
L 476.487518 199.991954 
L 476.76655 219.320962 
L 477.324614 199.358081 
L 477.603646 206.82193 
L 477.882678 208.668541 
L 478.16171 215.836222 
L 478.440742 212.480607 
L 478.719774 86.17683 
L 478.998806 296.480382 
L 479.277838 221.59449 
L 479.55687 222.147205 
L 479.835902 225.151061 
L 480.114934 208.270416 
L 480.393966 232.63863 
L 480.672998 213.585977 
L 480.95203 207.160899 
L 481.231062 205.149292 
L 481.510094 213.559004 
L 481.789126 178.261806 
L 482.068158 245.469162 
L 482.34719 194.971974 
L 482.626222 222.826954 
L 482.905254 216.711775 
L 483.184286 202.38573 
L 483.463318 199.844734 
L 483.74235 198.73662 
L 484.021382 208.154672 
L 484.300414 206.595739 
L 484.858478 249.982608 
L 485.13751 242.900562 
L 485.416542 250.057843 
L 485.695574 195.65307 
L 485.974606 213.1732 
L 486.253638 208.199874 
L 486.53267 172.908383 
L 486.811702 184.663407 
L 487.090734 216.416555 
L 487.369766 209.728189 
L 487.648798 234.560245 
L 487.92783 200.526152 
L 488.206862 192.410353 
L 488.485894 216.395274 
L 488.764926 275.058664 
L 489.043958 182.997541 
L 489.32299 194.665169 
L 489.881054 253.569443 
L 490.160086 241.567725 
L 490.439118 213.190405 
L 490.71815 232.297656 
L 490.997182 202.186665 
L 491.276214 191.452257 
L 491.555246 160.139418 
L 491.834278 222.949952 
L 492.11331 192.268356 
L 492.392342 265.778201 
L 492.950406 205.927474 
L 493.229438 244.828603 
L 493.50847 207.449481 
L 493.787502 238.790918 
L 494.066534 217.834394 
L 494.345566 229.070274 
L 494.624598 204.264569 
L 494.90363 208.725236 
L 495.182662 207.886238 
L 495.461694 219.78551 
L 495.740726 202.696177 
L 496.019758 203.078882 
L 496.29879 212.217931 
L 496.856854 237.065577 
L 497.135886 211.937496 
L 497.69395 208.654666 
L 497.972982 221.070876 
L 498.252014 200.716401 
L 498.531046 215.909755 
L 499.08911 179.453816 
L 499.368142 186.121486 
L 499.647174 163.390286 
L 499.926205 176.636547 
L 500.205237 232.95303 
L 500.484269 205.209058 
L 500.763301 203.832247 
L 501.321365 264.271951 
L 501.600397 258.88065 
L 501.879429 212.684556 
L 502.158461 255.070766 
L 502.437493 172.312618 
L 502.716525 230.529016 
L 502.995557 238.513927 
L 503.553621 170.245043 
L 503.832653 169.909246 
L 504.111685 237.676059 
L 504.390717 190.831823 
L 504.669749 175.892722 
L 504.948781 218.646876 
L 505.227813 210.105542 
L 505.506845 210.923854 
L 506.064909 232.451146 
L 506.622973 196.430793 
L 506.902005 190.444809 
L 507.181037 226.086671 
L 507.460069 217.465999 
L 507.739101 222.997445 
L 508.018133 267.813927 
L 508.297165 176.232762 
L 508.576197 236.403823 
L 509.134261 187.420348 
L 509.413293 234.769239 
L 509.692325 230.992735 
L 509.971357 231.12397 
L 510.250389 235.451775 
L 510.529421 203.11913 
L 510.808453 216.183429 
L 511.087485 195.768369 
L 511.366517 229.552826 
L 511.645549 169.115874 
L 511.924581 162.579831 
L 512.203613 226.977221 
L 512.482645 224.856784 
L 512.761677 134.281728 
L 513.040709 213.546056 
L 513.319741 223.914533 
L 513.598773 139.13175 
L 513.877805 206.212935 
L 514.156837 204.526622 
L 514.435869 266.630985 
L 514.714901 186.636847 
L 514.993933 292.246495 
L 515.272965 158.713877 
L 515.831029 268.861917 
L 516.110061 240.535224 
L 516.389093 242.306946 
L 516.668125 230.938779 
L 516.947157 255.232931 
L 517.226189 216.006615 
L 517.505221 154.112512 
L 517.784253 137.147097 
L 518.063285 165.775047 
L 518.342317 253.2878 
L 518.621349 260.857508 
L 519.179413 206.852194 
L 519.458445 230.25473 
L 519.737477 195.068401 
L 520.016509 217.373833 
L 520.295541 224.939485 
L 520.574573 240.783178 
L 520.853605 183.68813 
L 521.132637 252.832424 
L 521.411669 205.139818 
L 521.690701 205.891655 
L 521.969733 237.315549 
L 522.248765 205.279458 
L 522.527797 219.239444 
L 522.806829 225.49711 
L 523.085861 164.730393 
L 523.643925 203.255217 
L 523.922957 228.405168 
L 524.201989 286.601204 
L 524.481021 186.493002 
L 524.760053 231.427264 
L 525.039085 180.800466 
L 525.318117 214.94951 
L 525.597149 151.20771 
L 525.876181 192.51712 
L 526.155213 190.085401 
L 526.434245 218.311514 
L 526.713277 226.076619 
L 526.992309 201.076342 
L 527.271341 197.025775 
L 527.829405 287.988829 
L 528.108437 160.060075 
L 528.666501 229.449648 
L 528.945532 282.537146 
L 529.224564 108.989994 
L 529.503596 298.518539 
L 529.782628 277.943694 
L 530.06166 208.092354 
L 530.340692 251.155307 
L 530.619724 195.12539 
L 530.898756 238.891569 
L 531.177788 179.453774 
L 531.45682 239.541337 
L 531.735852 225.127144 
L 532.014884 191.552242 
L 532.293916 197.03012 
L 532.572948 228.067991 
L 532.85198 202.2529 
L 533.131012 197.7285 
L 533.410044 198.796076 
L 533.689076 229.318495 
L 533.968108 212.029524 
L 534.24714 182.221424 
L 534.526172 173.72323 
L 534.805204 139.913463 
L 535.084236 208.722481 
L 535.363268 198.814687 
L 535.6423 317.06059 
L 535.921332 140.206702 
L 536.200364 172.757808 
L 536.479396 274.395619 
L 536.758428 268.300074 
L 537.03746 252.198328 
L 537.316492 217.667463 
L 537.595524 209.985241 
L 537.874556 208.871999 
L 538.153588 233.385348 
L 538.43262 220.700675 
L 538.711652 237.23683 
L 538.990684 153.557813 
L 539.269716 303.953001 
L 539.548748 163.284176 
L 539.82778 153.898036 
L 540.106812 173.810775 
L 540.385844 167.072369 
L 540.664876 208.738039 
L 540.943908 211.832961 
L 541.22294 235.576975 
L 541.501972 248.700477 
L 541.781004 222.533854 
L 542.060036 241.712168 
L 542.339068 182.199165 
L 542.6181 265.898672 
L 543.176164 189.875567 
L 543.455196 191.45 
L 544.292292 233.751799 
L 544.571324 223.3575 
L 544.850356 242.937035 
L 545.129388 195.961229 
L 545.40842 206.13881 
L 545.687452 179.474817 
L 545.966484 239.461501 
L 546.245516 252.608183 
L 546.524548 216.89781 
L 546.80358 204.743112 
L 547.082612 179.979344 
L 547.361644 245.485448 
L 547.640676 224.230533 
L 547.919708 213.928656 
L 548.19874 163.511423 
L 548.477772 170.859218 
L 549.035836 205.681357 
L 549.314868 189.284579 
L 549.5939 196.225947 
L 549.872932 216.1263 
L 550.151964 269.104474 
L 550.430996 244.458364 
L 550.98906 180.11187 
L 551.268092 191.211185 
L 551.547124 228.478998 
L 551.826156 223.044422 
L 552.105188 211.597725 
L 552.38422 205.161389 
L 552.663252 194.624786 
L 553.221316 210.640257 
L 553.500348 205.486249 
L 554.058412 238.402291 
L 554.337444 188.424707 
L 554.616476 212.796442 
L 554.895508 249.843653 
L 555.17454 240.910414 
L 555.453572 221.198602 
L 555.732604 222.007195 
L 556.011636 224.266608 
L 556.290668 232.006233 
L 556.5697 195.384258 
L 556.848732 205.733201 
L 557.406796 188.370122 
L 557.685828 203.979408 
L 557.964859 198.44656 
L 558.243891 234.201732 
L 558.522923 231.553407 
L 558.801955 246.462378 
L 559.080987 244.117075 
L 559.360019 262.592474 
L 559.639051 167.07053 
L 559.918083 198.654621 
L 560.197115 192.443886 
L 560.476147 204.807042 
L 560.755179 202.499855 
L 561.034211 230.691356 
L 561.313243 222.315478 
L 561.592275 193.974772 
L 561.871307 219.252931 
L 562.429371 187.120582 
L 562.708403 207.264608 
L 562.987435 180.687912 
L 563.266467 217.653005 
L 563.545499 233.015738 
L 563.824531 257.738428 
L 564.103563 179.398601 
L 564.382595 204.320403 
L 564.661627 206.225442 
L 564.940659 195.134547 
L 565.219691 200.888589 
L 565.498723 188.10012 
L 565.777755 202.462376 
L 566.056787 202.219558 
L 566.335819 214.588223 
L 566.614851 221.699733 
L 566.893883 200.250362 
L 567.172915 224.644507 
L 567.451947 230.492546 
L 567.730979 209.679281 
L 568.010011 213.701535 
L 568.289043 227.707385 
L 568.568075 197.674166 
L 568.847107 197.114831 
L 569.126139 265.833928 
L 569.405171 161.773659 
L 569.684203 232.032692 
L 569.963235 233.806808 
L 570.242267 178.176082 
L 570.521299 236.754284 
L 570.800331 204.517425 
L 571.079363 207.428475 
L 571.358395 216.869715 
L 571.637427 214.54482 
L 571.916459 222.080259 
L 572.195491 225.988646 
L 572.474523 190.314563 
L 573.032587 239.332125 
L 573.311619 213.552862 
L 573.590651 219.996964 
L 573.869683 192.766123 
L 574.148715 231.972884 
L 574.427747 224.960128 
L 574.706779 213.146487 
L 574.985811 229.864068 
L 575.264843 222.536249 
L 575.543875 204.181393 
L 575.822907 199.654371 
L 576.101939 224.411315 
L 576.380971 219.007649 
L 576.660003 238.98627 
L 577.218067 188.432763 
L 577.497099 198.173749 
L 577.776131 168.328314 
L 578.055163 184.763473 
L 578.334195 224.0016 
L 578.613227 214.090802 
L 578.892259 213.697925 
L 579.171291 226.778398 
L 579.450323 259.145402 
L 579.729355 219.561789 
L 580.008387 200.646501 
L 580.287419 267.774779 
L 580.566451 212.991178 
L 580.845483 233.199395 
L 581.124515 242.834327 
L 581.682579 191.825647 
L 582.240643 181.843328 
L 582.519675 196.928737 
L 582.798707 197.646088 
L 583.077739 201.9661 
L 583.356771 186.990137 
L 583.635803 234.961459 
L 583.914835 231.012311 
L 584.193867 197.036214 
L 584.472899 225.695308 
L 584.751931 214.973731 
L 585.030963 197.347916 
L 585.589027 208.142053 
L 585.868059 183.028626 
L 586.147091 188.495381 
L 586.426123 223.983216 
L 586.705155 243.902104 
L 586.984186 184.585789 
L 587.263218 234.621999 
L 587.54225 218.030733 
L 587.821282 226.942087 
L 588.100314 229.071033 
L 588.379346 218.147827 
L 588.658378 233.836421 
L 588.93741 239.279 
L 589.216442 216.96923 
L 589.495474 221.735806 
L 589.774506 197.30409 
L 590.053538 202.536088 
L 590.33257 203.9033 
L 590.611602 200.58802 
L 590.890634 169.587127 
L 591.169666 173.954386 
L 591.448698 259.02136 
L 591.72773 283.078574 
L 592.006762 211.305925 
L 592.285794 178.852107 
L 592.564826 238.467884 
L 592.843858 218.994035 
L 593.12289 186.518256 
L 593.401922 206.1717 
L 593.959986 191.213437 
L 594.51805 226.336661 
L 594.797082 208.704535 
L 595.076114 172.044267 
L 595.355146 248.137288 
L 595.634178 245.090477 
L 595.91321 179.650165 
L 596.471274 242.064462 
L 596.750306 201.608977 
L 597.029338 253.110058 
L 597.30837 196.174526 
L 597.587402 249.713626 
L 598.145466 182.110799 
L 598.424498 213.056546 
L 598.70353 213.426298 
L 598.982562 207.551172 
L 599.261594 181.160572 
L 599.819658 232.932267 
L 600.09869 245.886213 
L 600.656754 173.107163 
L 600.935786 229.214747 
L 601.214818 234.889529 
L 601.49385 184.63016 
L 601.772882 197.463981 
L 602.051914 194.30488 
L 602.330946 230.172297 
L 602.609978 219.302755 
L 602.88901 226.050828 
L 603.168042 249.787098 
L 603.447074 217.256798 
L 603.726106 223.147405 
L 604.005138 246.283951 
L 604.28417 242.109517 
L 604.563202 209.015359 
L 604.842234 232.242553 
L 605.121266 234.243105 
L 605.400298 228.72346 
L 605.67933 212.994504 
L 605.958362 246.987119 
L 606.237394 213.604516 
L 606.516426 194.705608 
L 606.795458 196.37168 
L 607.07449 177.835186 
L 607.353522 198.759916 
L 607.632554 179.078392 
L 608.190618 231.020369 
L 608.748682 218.052434 
L 609.027714 216.375667 
L 609.306746 225.265379 
L 609.585778 199.926777 
L 609.86481 193.694149 
L 610.143842 176.034455 
L 610.422874 172.631278 
L 610.701906 222.632567 
L 610.980938 198.896665 
L 611.25997 218.63632 
L 611.539002 181.044675 
L 611.818034 209.290183 
L 612.097066 204.130384 
L 612.376098 234.803655 
L 612.65513 222.816657 
L 612.934162 199.688371 
L 613.213194 214.956013 
L 613.492226 195.166705 
L 613.771258 220.839269 
L 614.05029 319.734061 
L 614.329322 293.458254 
L 614.608354 255.303153 
L 614.887386 142.964698 
L 615.166418 142.983416 
L 615.44545 146.639618 
L 615.724482 199.178976 
L 616.003513 164.765023 
L 616.282545 190.498167 
L 617.119641 230.785004 
L 617.398673 203.371977 
L 617.677705 212.558256 
L 617.956737 197.46812 
L 618.235769 253.296512 
L 618.793833 219.877932 
L 619.072865 234.149901 
L 619.351897 212.721811 
L 619.630929 268.008564 
L 619.909961 226.659321 
L 620.188993 237.210104 
L 620.468025 196.148457 
L 620.747057 181.012102 
L 621.026089 177.441928 
L 621.305121 176.147794 
L 621.584153 240.521505 
L 621.863185 219.659318 
L 622.142217 293.410132 
L 622.421249 166.167109 
L 622.979313 223.160939 
L 623.258345 185.716368 
L 623.537377 216.130646 
L 623.816409 224.198094 
L 624.095441 165.975332 
L 624.374473 167.472777 
L 624.653505 195.597138 
L 624.932537 302.871943 
L 625.211569 212.710172 
L 625.490601 180.037826 
L 626.048665 227.398642 
L 626.327697 180.780056 
L 626.606729 230.210316 
L 626.885761 195.227221 
L 627.164793 290.089963 
L 627.443825 224.230939 
L 627.722857 209.076716 
L 628.001889 264.707722 
L 628.559953 183.892147 
L 628.838985 187.479199 
L 629.118017 195.834306 
L 629.397049 225.112496 
L 629.676081 215.676771 
L 629.955113 200.854168 
L 630.234145 221.562686 
L 630.513177 183.243137 
L 630.792209 265.61411 
L 631.350273 193.043202 
L 631.629305 160.320566 
L 631.908337 220.087118 
L 632.187369 234.536225 
L 633.024465 177.223832 
L 633.303497 199.225562 
L 633.582529 284.137124 
L 633.861561 197.852245 
L 634.140593 162.157743 
L 634.419625 214.724303 
L 634.977689 167.646731 
L 635.535753 266.588482 
L 635.814785 214.637789 
L 636.093817 259.096437 
L 636.372849 186.799429 
L 636.651881 210.440274 
L 637.209945 201.205241 
L 637.488977 236.822097 
L 638.047041 191.322661 
L 638.326073 231.65722 
L 638.605105 247.38251 
L 638.884137 192.509839 
L 639.163169 262.510489 
L 639.442201 209.380946 
L 639.721233 226.742627 
L 640.000265 252.171144 
L 640.279297 192.119489 
L 640.558329 215.705286 
L 640.837361 199.179778 
L 641.116393 226.06535 
L 641.395425 278.546615 
L 641.674457 205.626714 
L 641.953489 208.332006 
L 642.511553 249.199588 
L 642.790585 224.867956 
L 643.348649 202.272399 
L 643.627681 158.889125 
L 643.906713 213.053064 
L 644.185745 226.768918 
L 644.464777 202.052815 
L 644.743809 192.525706 
L 645.02284 203.871017 
L 645.580904 187.649096 
L 645.859936 195.843557 
L 646.138968 209.824778 
L 646.418 207.582434 
L 646.697032 214.29022 
L 646.976064 232.490613 
L 647.255096 201.237129 
L 647.534128 214.552067 
L 647.81316 190.367764 
L 648.092192 220.413112 
L 648.371224 230.995071 
L 649.20832 185.044056 
L 649.487352 182.060108 
L 649.766384 249.226694 
L 650.045416 185.937992 
L 650.324448 204.79894 
L 650.60348 237.019085 
L 650.882512 168.445752 
L 651.161544 211.585253 
L 651.719608 238.023813 
L 652.277672 212.735189 
L 652.556704 219.877258 
L 652.835736 204.546076 
L 653.114768 158.936646 
L 653.951864 235.597093 
L 654.230896 180.926201 
L 654.509928 208.084113 
L 654.78896 193.313483 
L 655.067992 203.105502 
L 655.347024 233.820073 
L 655.626056 195.439809 
L 655.905088 258.150168 
L 656.18412 196.441164 
L 656.463152 238.330354 
L 656.742184 218.443934 
L 657.021216 210.421284 
L 657.300248 197.190904 
L 657.57928 224.775068 
L 657.858312 224.249978 
L 658.137344 237.949362 
L 658.416376 178.102502 
L 658.695408 203.810285 
L 658.97444 212.560642 
L 659.253472 236.878427 
L 659.532504 216.76158 
L 659.811536 214.000275 
L 660.3696 293.079612 
L 660.648632 191.52053 
L 660.927664 197.991834 
L 661.206696 208.094869 
L 661.485728 175.808966 
L 661.76476 209.214285 
L 662.043792 200.098316 
L 662.322824 205.917126 
L 662.601856 174.072658 
L 662.880888 232.564882 
L 663.15992 239.543802 
L 663.438952 223.79676 
L 663.717984 198.004323 
L 663.997016 206.578375 
L 664.276048 226.53166 
L 664.55508 229.250953 
L 664.834112 210.279842 
L 665.113144 227.437384 
L 665.392176 213.335538 
L 665.671208 225.757244 
L 665.95024 181.049943 
L 666.229272 228.940589 
L 666.787336 211.558095 
L 667.066368 201.68144 
L 667.3454 213.219202 
L 667.903464 255.856566 
L 668.182496 173.240616 
L 668.74056 251.080723 
L 669.298624 175.208075 
L 669.577656 228.672988 
L 669.856688 202.035656 
L 670.13572 202.637026 
L 670.414752 183.158419 
L 670.693784 211.435994 
L 670.972816 215.289109 
L 671.251848 205.915059 
L 671.53088 230.581126 
L 672.088944 204.719764 
L 672.647008 223.394278 
L 672.92604 210.45276 
L 673.205072 218.675549 
L 673.763136 212.250144 
L 674.042167 243.798706 
L 674.321199 188.700298 
L 674.600231 199.978919 
L 674.879263 231.109298 
L 675.158295 211.939694 
L 675.158295 211.939694 
" clip-path="url(#p66a450eeda)" style="fill: none; stroke: #2878b5; stroke-width: 1.5; stroke-linecap: square"/>
   </g>
   <g id="line2d_22">
    <path d="M 33.23125 212.975581 
L 705.72625 212.975581 
" clip-path="url(#p66a450eeda)" style="fill: none; stroke-dasharray: 7.4,3.2; stroke-dashoffset: 0; stroke: #c82423; stroke-width: 2"/>
   </g>
   <g id="patch_3">
    <path d="M 33.23125 392.71875 
L 33.23125 27.04375 
" style="fill: none; stroke: #000000; stroke-width: 0.8; stroke-linejoin: miter; stroke-linecap: square"/>
   </g>
   <g id="patch_4">
    <path d="M 705.72625 392.71875 
L 705.72625 27.04375 
" style="fill: none; stroke: #000000; stroke-width: 0.8; stroke-linejoin: miter; stroke-linecap: square"/>
   </g>
   <g id="patch_5">
    <path d="M 33.23125 392.71875 
L 705.72625 392.71875 
" style="fill: none; stroke: #000000; stroke-width: 0.8; stroke-linejoin: miter; stroke-linecap: square"/>
   </g>
   <g id="patch_6">
    <path d="M 33.23125 27.04375 
L 705.72625 27.04375 
" style="fill: none; stroke: #000000; stroke-width: 0.8; stroke-linejoin: miter; stroke-linecap: square"/>
   </g>
   <g id="text_13">
    <!-- TP_mg/L 预测残差分析 -->
    <g transform="translate(309.47875 17.04375) scale(0.12 -0.12)">
     <defs>
      <path id="SimHei-54" d="M 2850 3925 
L 1850 3925 
L 1850 125 
L 1275 125 
L 1275 3925 
L 275 3925 
L 275 4400 
L 2850 4400 
L 2850 3925 
z
" transform="scale(0.015625)"/>
      <path id="SimHei-50" d="M 2950 3100 
Q 2950 2500 2600 2150 
Q 2250 1800 1625 1800 
L 900 1800 
L 900 125 
L 325 125 
L 325 4400 
L 1625 4400 
Q 2250 4400 2600 4050 
Q 2950 3700 2950 3100 
z
M 2375 3100 
Q 2375 3575 2150 3750 
Q 1925 3925 1475 3925 
L 900 3925 
L 900 2275 
L 1475 2275 
Q 1925 2275 2150 2450 
Q 2375 2625 2375 3100 
z
" transform="scale(0.015625)"/>
      <path id="SimHei-5f" d="M 3150 -850 
L 0 -850 
L 0 -550 
L 3150 -550 
L 3150 -850 
z
" transform="scale(0.015625)"/>
      <path id="SimHei-6d" d="M 3050 125 
L 2550 125 
L 2550 2150 
Q 2550 2300 2500 2400 
Q 2450 2500 2300 2500 
Q 2125 2500 1975 2312 
Q 1825 2125 1825 1825 
L 1825 125 
L 1325 125 
L 1325 2150 
Q 1325 2300 1275 2400 
Q 1225 2500 1075 2500 
Q 900 2500 750 2312 
Q 600 2125 600 1825 
L 600 125 
L 100 125 
L 100 2925 
L 600 2925 
L 600 2550 
Q 725 2750 900 2862 
Q 1075 2975 1275 2975 
Q 1475 2975 1612 2862 
Q 1750 2750 1800 2550 
Q 1925 2750 2087 2862 
Q 2250 2975 2450 2975 
Q 2750 2975 2900 2812 
Q 3050 2650 3050 2350 
L 3050 125 
z
" transform="scale(0.015625)"/>
      <path id="SimHei-67" d="M 2975 2500 
Q 2800 2550 2637 2562 
Q 2475 2575 2300 2525 
Q 2375 2450 2425 2337 
Q 2475 2225 2475 2000 
Q 2475 1575 2187 1300 
Q 1900 1025 1475 1025 
Q 1375 1025 1212 1062 
Q 1050 1100 950 1150 
Q 875 1100 850 1050 
Q 825 1000 825 925 
Q 825 800 1000 737 
Q 1175 675 1625 675 
Q 2350 675 2612 475 
Q 2875 275 2875 -25 
Q 2875 -425 2487 -612 
Q 2100 -800 1575 -800 
Q 900 -800 575 -625 
Q 250 -450 250 -150 
Q 250 0 375 150 
Q 500 300 700 400 
Q 550 475 462 587 
Q 375 700 375 875 
Q 375 1025 487 1137 
Q 600 1250 750 1325 
Q 625 1450 550 1625 
Q 475 1800 475 2000 
Q 475 2425 762 2700 
Q 1050 2975 1475 2975 
Q 1700 2975 1862 2912 
Q 2025 2850 2150 2725 
Q 2350 2875 2550 2937 
Q 2750 3000 2975 2975 
L 2975 2500 
z
M 1975 2000 
Q 1975 2250 1850 2400 
Q 1725 2550 1475 2550 
Q 1225 2550 1100 2400 
Q 975 2250 975 2000 
Q 975 1750 1100 1600 
Q 1225 1450 1475 1450 
Q 1725 1450 1850 1600 
Q 1975 1750 1975 2000 
z
M 2400 -75 
Q 2400 25 2287 125 
Q 2175 225 1725 225 
Q 1625 225 1450 237 
Q 1275 250 1050 275 
Q 850 200 775 100 
Q 700 0 700 -100 
Q 700 -250 900 -350 
Q 1100 -450 1600 -450 
Q 2025 -450 2212 -337 
Q 2400 -225 2400 -75 
z
" transform="scale(0.015625)"/>
      <path id="SimHei-4c" d="M 2900 125 
L 300 125 
L 300 4400 
L 875 4400 
L 875 600 
L 2900 600 
L 2900 125 
z
" transform="scale(0.015625)"/>
      <path id="SimHei-9884" d="M 5200 4800 
Q 5575 4800 5950 4825 
L 5950 4400 
Q 5575 4425 5200 4425 
L 4500 4425 
Q 4425 4050 4350 3600 
L 5725 3600 
Q 5700 3225 5700 2800 
L 5700 1725 
Q 5700 1300 5725 850 
L 5250 850 
L 5250 3225 
L 3550 3225 
L 3550 800 
L 3075 800 
Q 3100 1375 3100 1725 
L 3100 2775 
Q 3100 3175 3075 3600 
L 3900 3600 
Q 4000 4150 4000 4425 
L 3725 4425 
Q 3300 4425 2850 4400 
L 2850 4825 
Q 3325 4800 3725 4800 
L 5200 4800 
z
M 2600 1775 
Q 2350 1825 2150 1825 
Q 2250 2250 2300 2450 
L 1750 2450 
L 1750 125 
Q 1725 -300 1425 -400 
Q 1125 -500 750 -500 
Q 700 -225 575 25 
Q 1125 -25 1212 37 
Q 1300 100 1300 350 
L 1300 2450 
L 1025 2450 
Q 700 2450 350 2425 
L 350 2850 
Q 700 2825 1000 2825 
L 2850 2825 
Q 2725 2325 2600 1775 
z
M 4725 2875 
Q 4625 2575 4600 2100 
Q 4575 1625 4462 1037 
Q 4350 450 3962 62 
Q 3575 -325 2925 -675 
Q 2700 -500 2475 -350 
Q 3075 -125 3437 200 
Q 3800 525 3950 937 
Q 4100 1350 4137 1850 
Q 4175 2350 4175 2925 
L 4725 2875 
z
M 1625 2900 
Q 1275 3275 800 3650 
Q 925 3775 1075 3950 
Q 1250 3825 1425 3675 
Q 1750 4150 1950 4375 
L 1400 4375 
Q 900 4375 450 4350 
L 450 4775 
Q 900 4750 1375 4750 
L 2575 4750 
L 2575 4375 
Q 2200 4100 1725 3400 
L 1950 3200 
Q 1750 3025 1625 2900 
z
M 4775 725 
Q 5725 0 6075 -325 
Q 5850 -500 5725 -650 
Q 5400 -325 5137 -87 
Q 4875 150 4525 350 
Q 4650 525 4775 725 
z
" transform="scale(0.015625)"/>
      <path id="SimHei-6d4b" d="M 4025 4725 
Q 4000 4475 4000 4000 
L 4000 2225 
Q 4000 1775 4025 1350 
L 3550 1350 
L 3550 4325 
L 2350 4325 
L 2350 1325 
L 1900 1325 
Q 1925 1775 1925 2225 
L 1925 4000 
Q 1925 4200 1900 4725 
L 4025 4725 
z
M 5900 5075 
Q 5875 4800 5875 4375 
L 5875 0 
Q 5875 -325 5650 -425 
Q 5425 -525 4975 -600 
Q 4925 -325 4775 -50 
Q 5125 -50 5262 -25 
Q 5400 0 5400 250 
L 5400 4375 
Q 5400 4775 5375 5075 
L 5900 5075 
z
M 3275 3725 
Q 3225 3400 3200 2325 
Q 3175 1250 2837 550 
Q 2500 -150 2075 -600 
Q 1850 -400 1600 -325 
Q 2200 250 2475 962 
Q 2750 1675 2762 2475 
Q 2775 3275 2725 3800 
Q 3000 3750 3275 3725 
z
M 4950 4275 
Q 4925 4000 4925 3575 
L 4925 1825 
Q 4925 1300 4950 850 
L 4450 850 
Q 4475 1150 4475 1825 
L 4475 3575 
Q 4475 4000 4450 4275 
L 4950 4275 
z
M 1700 1675 
Q 1375 1075 1112 487 
Q 850 -100 725 -400 
Q 500 -200 200 -25 
Q 475 300 762 850 
Q 1050 1400 1250 2000 
Q 1475 1825 1700 1675 
z
M 3400 1050 
Q 3800 650 4300 -125 
Q 4100 -225 3875 -450 
Q 3475 275 3025 750 
Q 3225 875 3400 1050 
z
M 600 3525 
Q 1125 3125 1500 2775 
Q 1300 2575 1150 2375 
Q 825 2775 300 3150 
Q 450 3300 600 3525 
z
M 1350 4000 
Q 950 4375 475 4675 
Q 625 4850 775 5050 
Q 1300 4700 1675 4375 
Q 1500 4250 1350 4000 
z
" transform="scale(0.015625)"/>
      <path id="SimHei-5206" d="M 1000 -650 
Q 825 -375 575 -225 
Q 975 -75 1300 137 
Q 1625 350 1875 662 
Q 2125 975 2250 1350 
Q 2375 1725 2425 2275 
Q 1850 2275 1500 2250 
L 1500 2775 
Q 1900 2750 2525 2750 
L 5025 2750 
Q 4975 2375 4950 2100 
L 4750 250 
Q 4700 -200 4350 -350 
Q 4000 -500 3575 -525 
Q 3550 -275 3325 50 
Q 3850 25 4037 87 
Q 4225 150 4275 525 
L 4450 2275 
L 2950 2275 
Q 2875 1625 2737 1187 
Q 2600 750 2350 425 
Q 2100 100 1750 -175 
Q 1400 -450 1000 -650 
z
M 3950 5175 
Q 4125 4650 4662 3975 
Q 5200 3300 6175 2800 
Q 5975 2625 5775 2275 
Q 5325 2600 4987 2887 
Q 4650 3175 4425 3425 
Q 4200 3675 3925 4137 
Q 3650 4600 3475 5000 
Q 3750 5075 3950 5175 
z
M 2700 4825 
Q 2475 4425 2325 4125 
Q 2175 3825 2025 3587 
Q 1875 3350 1575 2950 
Q 1275 2550 850 2125 
Q 625 2350 400 2475 
Q 900 2925 1187 3300 
Q 1475 3675 1737 4112 
Q 2000 4550 2200 5075 
Q 2400 4925 2700 4825 
z
" transform="scale(0.015625)"/>
      <path id="SimHei-6790" d="M 5900 4550 
Q 5575 4525 5087 4450 
Q 4600 4375 3725 4275 
L 3725 3075 
L 5400 3075 
Q 5725 3075 6150 3100 
L 6150 2650 
Q 5700 2675 5250 2675 
L 5250 350 
Q 5250 -100 5275 -475 
L 4750 -475 
Q 4775 -75 4775 375 
L 4775 2675 
L 3725 2675 
Q 3725 2175 3650 1637 
Q 3575 1100 3437 637 
Q 3300 175 2850 -500 
Q 2675 -300 2275 -150 
Q 2825 325 3050 1112 
Q 3275 1900 3262 3000 
Q 3250 4100 3225 4650 
Q 3975 4700 4562 4800 
Q 5150 4900 5500 5050 
Q 5675 4750 5900 4550 
z
M 1900 525 
Q 1900 200 1925 -525 
L 1400 -525 
Q 1425 25 1425 525 
L 1425 2250 
Q 1175 1625 600 800 
Q 425 1075 200 1225 
Q 650 1725 962 2387 
Q 1275 3050 1375 3425 
Q 925 3425 450 3400 
L 450 3850 
Q 925 3825 1425 3825 
L 1425 4450 
Q 1425 4775 1400 5125 
L 1950 5125 
Q 1900 4825 1900 4450 
L 1900 3825 
Q 2300 3825 2775 3850 
L 2775 3400 
Q 2300 3425 1900 3425 
L 1900 525 
z
M 2375 2750 
Q 2800 2050 2925 1800 
Q 2700 1700 2450 1550 
Q 2300 1900 1950 2525 
Q 2175 2625 2375 2750 
z
" transform="scale(0.015625)"/>
     </defs>
     <use xlink:href="#SimHei-54"/>
     <use xlink:href="#SimHei-50" transform="translate(50 0)"/>
     <use xlink:href="#SimHei-5f" transform="translate(100 0)"/>
     <use xlink:href="#SimHei-6d" transform="translate(150 0)"/>
     <use xlink:href="#SimHei-67" transform="translate(200 0)"/>
     <use xlink:href="#SimHei-2f" transform="translate(250 0)"/>
     <use xlink:href="#SimHei-4c" transform="translate(300 0)"/>
     <use xlink:href="#SimHei-20" transform="translate(350 0)"/>
     <use xlink:href="#SimHei-9884" transform="translate(400 0)"/>
     <use xlink:href="#SimHei-6d4b" transform="translate(500 0)"/>
     <use xlink:href="#SimHei-6b8b" transform="translate(600 0)"/>
     <use xlink:href="#SimHei-5dee" transform="translate(700 0)"/>
     <use xlink:href="#SimHei-5206" transform="translate(800 0)"/>
     <use xlink:href="#SimHei-6790" transform="translate(900 0)"/>
    </g>
   </g>
   <g id="legend_1">
    <g id="patch_7">
     <path d="M 634.62625 60.11875 
L 699.42625 60.11875 
Q 701.22625 60.11875 701.22625 58.31875 
L 701.22625 33.34375 
Q 701.22625 31.54375 699.42625 31.54375 
L 634.62625 31.54375 
Q 632.82625 31.54375 632.82625 33.34375 
L 632.82625 58.31875 
Q 632.82625 60.11875 634.62625 60.11875 
z
" style="fill: #ffffff; opacity: 0.8; stroke: #cccccc; stroke-width: 0.5; stroke-linejoin: miter"/>
    </g>
    <g id="line2d_23">
     <path d="M 636.42625 39.376562 
L 645.42625 39.376562 
L 654.42625 39.376562 
" style="fill: none; stroke: #2878b5; stroke-width: 1.5; stroke-linecap: square"/>
    </g>
    <g id="text_14">
     <!-- 预测残差 -->
     <g transform="translate(661.62625 42.526562) scale(0.09 -0.09)">
      <use xlink:href="#SimHei-9884"/>
      <use xlink:href="#SimHei-6d4b" transform="translate(100 0)"/>
      <use xlink:href="#SimHei-6b8b" transform="translate(200 0)"/>
      <use xlink:href="#SimHei-5dee" transform="translate(300 0)"/>
     </g>
    </g>
    <g id="line2d_24">
     <path d="M 636.42625 52.24375 
L 645.42625 52.24375 
L 654.42625 52.24375 
" style="fill: none; stroke-dasharray: 7.4,3.2; stroke-dashoffset: 0; stroke: #c82423; stroke-width: 2"/>
    </g>
    <g id="text_15">
     <!-- 零线 -->
     <g transform="translate(661.62625 55.39375) scale(0.09 -0.09)">
      <defs>
       <path id="SimHei-96f6" d="M 3375 2525 
Q 3425 2425 3950 2125 
Q 4475 1825 4975 1675 
Q 5475 1525 6075 1450 
Q 5875 1200 5775 925 
Q 5325 1025 4900 1175 
Q 4475 1325 3950 1637 
Q 3425 1950 3100 2250 
Q 2875 2075 2512 1812 
Q 2150 1550 1662 1312 
Q 1175 1075 625 900 
Q 525 1100 325 1375 
Q 800 1450 1175 1600 
Q 1550 1750 1875 1925 
Q 2200 2100 2475 2325 
Q 2750 2550 2925 2825 
Q 2950 3100 2950 3450 
L 2950 3925 
L 950 3925 
L 950 3250 
L 475 3250 
L 475 4300 
L 2950 4300 
L 2950 4700 
L 1775 4700 
Q 1425 4700 1100 4675 
L 1100 5100 
Q 1425 5075 1750 5075 
L 4625 5075 
Q 4875 5075 5325 5100 
L 5325 4675 
Q 4875 4700 4475 4700 
L 3400 4700 
L 3400 4300 
L 5875 4300 
Q 5850 4050 5850 3800 
Q 5850 3550 5875 3300 
L 5400 3300 
L 5400 3925 
L 3400 3925 
L 3400 3450 
Q 3400 3175 3425 2825 
L 3050 2825 
Q 3250 2750 3525 2675 
L 3375 2525 
z
M 2300 500 
Q 2750 350 3175 200 
Q 3325 325 3750 775 
L 2325 775 
Q 1900 775 1475 750 
L 1475 1200 
Q 1900 1175 2325 1175 
L 4700 1175 
Q 4475 950 4150 587 
Q 3825 225 3625 50 
Q 3775 -25 3950 -87 
Q 4125 -150 4400 -275 
Q 4250 -475 4125 -700 
Q 3450 -400 2950 -212 
Q 2450 -25 2100 75 
Q 2225 275 2300 500 
z
M 5075 2600 
L 3750 2600 
L 3750 2950 
L 5075 2950 
L 5075 2600 
z
M 5075 3325 
L 3775 3325 
L 3775 3675 
L 5075 3675 
L 5075 3325 
z
M 2500 3325 
L 1250 3325 
L 1250 3675 
L 2500 3675 
L 2500 3325 
z
M 2475 2600 
L 1225 2600 
L 1225 2950 
L 2475 2950 
L 2475 2600 
z
M 3100 1950 
Q 3200 1800 3237 1712 
Q 3275 1625 3400 1400 
Q 3150 1300 2975 1200 
Q 2850 1500 2700 1775 
Q 2975 1875 3100 1950 
z
" transform="scale(0.015625)"/>
       <path id="SimHei-7ebf" d="M 3450 4300 
Q 3450 4675 3375 5125 
Q 3700 5100 4050 5050 
Q 3975 4900 3950 4562 
Q 3925 4225 3950 3600 
L 4800 3750 
Q 5225 3850 5650 3975 
L 5750 3500 
Q 5325 3450 4875 3375 
L 3975 3200 
Q 3975 2800 4025 2500 
L 5000 2675 
Q 5500 2775 5950 2925 
L 6025 2450 
Q 5575 2375 5075 2275 
L 4100 2100 
Q 4150 1600 4350 1175 
Q 4575 1350 4787 1575 
Q 5000 1800 5175 2075 
Q 5550 1775 5750 1675 
Q 5425 1525 5237 1337 
Q 5050 1150 4625 750 
Q 4925 250 5162 112 
Q 5400 -25 5500 100 
Q 5600 225 5675 625 
Q 5900 450 6200 350 
Q 5775 -750 5275 -537 
Q 4775 -325 4225 450 
Q 3875 175 3537 -62 
Q 3200 -300 2700 -550 
Q 2575 -300 2325 -100 
Q 2825 75 3175 275 
Q 3525 475 3975 850 
Q 3750 1350 3650 2025 
Q 2900 1900 2600 1800 
L 2525 2275 
Q 2825 2275 3550 2425 
Q 3500 2825 3500 3100 
Q 2825 2950 2575 2875 
L 2475 3350 
Q 2725 3350 3450 3500 
L 3450 4300 
z
M 1950 4875 
Q 1700 4650 1462 4237 
Q 1225 3825 825 3225 
Q 1425 3250 1650 3250 
Q 1875 3625 2050 4075 
Q 2300 3900 2600 3800 
Q 2350 3550 2087 3125 
Q 1825 2700 1175 1675 
Q 1850 1725 2375 1775 
Q 2300 1525 2300 1350 
Q 2125 1350 1525 1287 
Q 925 1225 550 1125 
Q 525 1375 400 1650 
Q 700 1725 950 2050 
Q 1200 2375 1475 2875 
Q 650 2825 425 2675 
Q 350 2950 200 3225 
Q 525 3450 825 3962 
Q 1125 4475 1375 5150 
Q 1625 4975 1950 4875 
z
M 2575 875 
Q 2550 600 2575 450 
Q 1950 325 1450 200 
Q 950 75 525 -75 
Q 450 200 250 475 
Q 950 550 1325 612 
Q 1700 675 2575 875 
z
M 4850 4025 
Q 4675 4300 4375 4675 
L 4775 4875 
Q 4875 4750 5275 4275 
Q 5025 4175 4850 4025 
z
" transform="scale(0.015625)"/>
      </defs>
      <use xlink:href="#SimHei-96f6"/>
      <use xlink:href="#SimHei-7ebf" transform="translate(100 0)"/>
     </g>
    </g>
   </g>
  </g>
 </g>
 <defs>
  <clipPath id="p66a450eeda">
   <rect x="33.23125" y="27.04375" width="672.495" height="365.675"/>
  </clipPath>
 </defs>
</svg>
