<?xml version="1.0" encoding="utf-8" standalone="no"?>
<!DOCTYPE svg PUBLIC "-//W3C//DTD SVG 1.1//EN"
  "http://www.w3.org/Graphics/SVG/1.1/DTD/svg11.dtd">
<svg xmlns:xlink="http://www.w3.org/1999/xlink" width="856.529219pt" height="422.765937pt" viewBox="0 0 856.529219 422.765937" xmlns="http://www.w3.org/2000/svg" version="1.1">
 <metadata>
  <rdf:RDF xmlns:dc="http://purl.org/dc/elements/1.1/" xmlns:cc="http://creativecommons.org/ns#" xmlns:rdf="http://www.w3.org/1999/02/22-rdf-syntax-ns#">
   <cc:Work>
    <dc:type rdf:resource="http://purl.org/dc/dcmitype/StillImage"/>
    <dc:date>2026-01-16T01:41:44.791429</dc:date>
    <dc:format>image/svg+xml</dc:format>
    <dc:creator>
     <cc:Agent>
      <dc:title>Matplotlib v3.10.0, https://matplotlib.org/</dc:title>
     </cc:Agent>
    </dc:creator>
   </cc:Work>
  </rdf:RDF>
 </metadata>
 <defs>
  <style type="text/css">*{stroke-linejoin: round; stroke-linecap: butt}</style>
 </defs>
 <g id="figure_1">
  <g id="patch_1">
   <path d="M 0 422.765937 
L 856.529219 422.765937 
L 856.529219 0 
L 0 0 
z
" style="fill: #ffffff"/>
  </g>
  <g id="axes_1">
   <g id="patch_2">
    <path d="M 39.179219 389.6775 
L 849.329219 389.6775 
L 849.329219 26.10625 
L 39.179219 26.10625 
z
" style="fill: #ffffff"/>
   </g>
   <g id="matplotlib.axis_1">
    <g id="xtick_1">
     <g id="line2d_1">
      <path d="M 75.331616 389.6775 
L 75.331616 26.10625 
" clip-path="url(#p3aea9fac2c)" style="fill: none; stroke-dasharray: 1.85,0.8; stroke-dashoffset: 0; stroke: #b2b2b2; stroke-opacity: 0.3; stroke-width: 0.5"/>
     </g>
     <g id="line2d_2">
      <defs>
       <path id="m6bd05e8b74" d="M 0 0 
L 0 -3.5 
" style="stroke: #000000; stroke-width: 0.8"/>
      </defs>
      <g>
       <use xlink:href="#m6bd05e8b74" x="75.331616" y="389.6775" style="stroke: #000000; stroke-width: 0.8"/>
      </g>
     </g>
     <g id="text_1">
      <!-- 0 -->
      <g transform="translate(72.468491 400.016094) scale(0.09 -0.09)">
       <defs>
        <path id="DejaVuSans-30" d="M 2034 4250 
Q 1547 4250 1301 3770 
Q 1056 3291 1056 2328 
Q 1056 1369 1301 889 
Q 1547 409 2034 409 
Q 2525 409 2770 889 
Q 3016 1369 3016 2328 
Q 3016 3291 2770 3770 
Q 2525 4250 2034 4250 
z
M 2034 4750 
Q 2819 4750 3233 4129 
Q 3647 3509 3647 2328 
Q 3647 1150 3233 529 
Q 2819 -91 2034 -91 
Q 1250 -91 836 529 
Q 422 1150 422 2328 
Q 422 3509 836 4129 
Q 1250 4750 2034 4750 
z
" transform="scale(0.015625)"/>
       </defs>
       <use xlink:href="#DejaVuSans-30"/>
      </g>
     </g>
    </g>
    <g id="xtick_2">
     <g id="line2d_3">
      <path d="M 243.482301 389.6775 
L 243.482301 26.10625 
" clip-path="url(#p3aea9fac2c)" style="fill: none; stroke-dasharray: 1.85,0.8; stroke-dashoffset: 0; stroke: #b2b2b2; stroke-opacity: 0.3; stroke-width: 0.5"/>
     </g>
     <g id="line2d_4">
      <g>
       <use xlink:href="#m6bd05e8b74" x="243.482301" y="389.6775" style="stroke: #000000; stroke-width: 0.8"/>
      </g>
     </g>
     <g id="text_2">
      <!-- 500 -->
      <g transform="translate(234.892926 400.016094) scale(0.09 -0.09)">
       <defs>
        <path id="DejaVuSans-35" d="M 691 4666 
L 3169 4666 
L 3169 4134 
L 1269 4134 
L 1269 2991 
Q 1406 3038 1543 3061 
Q 1681 3084 1819 3084 
Q 2600 3084 3056 2656 
Q 3513 2228 3513 1497 
Q 3513 744 3044 326 
Q 2575 -91 1722 -91 
Q 1428 -91 1123 -41 
Q 819 9 494 109 
L 494 744 
Q 775 591 1075 516 
Q 1375 441 1709 441 
Q 2250 441 2565 725 
Q 2881 1009 2881 1497 
Q 2881 1984 2565 2268 
Q 2250 2553 1709 2553 
Q 1456 2553 1204 2497 
Q 953 2441 691 2322 
L 691 4666 
z
" transform="scale(0.015625)"/>
       </defs>
       <use xlink:href="#DejaVuSans-35"/>
       <use xlink:href="#DejaVuSans-30" transform="translate(63.623047 0)"/>
       <use xlink:href="#DejaVuSans-30" transform="translate(127.246094 0)"/>
      </g>
     </g>
    </g>
    <g id="xtick_3">
     <g id="line2d_5">
      <path d="M 411.632986 389.6775 
L 411.632986 26.10625 
" clip-path="url(#p3aea9fac2c)" style="fill: none; stroke-dasharray: 1.85,0.8; stroke-dashoffset: 0; stroke: #b2b2b2; stroke-opacity: 0.3; stroke-width: 0.5"/>
     </g>
     <g id="line2d_6">
      <g>
       <use xlink:href="#m6bd05e8b74" x="411.632986" y="389.6775" style="stroke: #000000; stroke-width: 0.8"/>
      </g>
     </g>
     <g id="text_3">
      <!-- 1000 -->
      <g transform="translate(400.180486 400.016094) scale(0.09 -0.09)">
       <defs>
        <path id="DejaVuSans-31" d="M 794 531 
L 1825 531 
L 1825 4091 
L 703 3866 
L 703 4441 
L 1819 4666 
L 2450 4666 
L 2450 531 
L 3481 531 
L 3481 0 
L 794 0 
L 794 531 
z
" transform="scale(0.015625)"/>
       </defs>
       <use xlink:href="#DejaVuSans-31"/>
       <use xlink:href="#DejaVuSans-30" transform="translate(63.623047 0)"/>
       <use xlink:href="#DejaVuSans-30" transform="translate(127.246094 0)"/>
       <use xlink:href="#DejaVuSans-30" transform="translate(190.869141 0)"/>
      </g>
     </g>
    </g>
    <g id="xtick_4">
     <g id="line2d_7">
      <path d="M 579.783671 389.6775 
L 579.783671 26.10625 
" clip-path="url(#p3aea9fac2c)" style="fill: none; stroke-dasharray: 1.85,0.8; stroke-dashoffset: 0; stroke: #b2b2b2; stroke-opacity: 0.3; stroke-width: 0.5"/>
     </g>
     <g id="line2d_8">
      <g>
       <use xlink:href="#m6bd05e8b74" x="579.783671" y="389.6775" style="stroke: #000000; stroke-width: 0.8"/>
      </g>
     </g>
     <g id="text_4">
      <!-- 1500 -->
      <g transform="translate(568.331171 400.016094) scale(0.09 -0.09)">
       <use xlink:href="#DejaVuSans-31"/>
       <use xlink:href="#DejaVuSans-35" transform="translate(63.623047 0)"/>
       <use xlink:href="#DejaVuSans-30" transform="translate(127.246094 0)"/>
       <use xlink:href="#DejaVuSans-30" transform="translate(190.869141 0)"/>
      </g>
     </g>
    </g>
    <g id="xtick_5">
     <g id="line2d_9">
      <path d="M 747.934356 389.6775 
L 747.934356 26.10625 
" clip-path="url(#p3aea9fac2c)" style="fill: none; stroke-dasharray: 1.85,0.8; stroke-dashoffset: 0; stroke: #b2b2b2; stroke-opacity: 0.3; stroke-width: 0.5"/>
     </g>
     <g id="line2d_10">
      <g>
       <use xlink:href="#m6bd05e8b74" x="747.934356" y="389.6775" style="stroke: #000000; stroke-width: 0.8"/>
      </g>
     </g>
     <g id="text_5">
      <!-- 2000 -->
      <g transform="translate(736.481856 400.016094) scale(0.09 -0.09)">
       <defs>
        <path id="DejaVuSans-32" d="M 1228 531 
L 3431 531 
L 3431 0 
L 469 0 
L 469 531 
Q 828 903 1448 1529 
Q 2069 2156 2228 2338 
Q 2531 2678 2651 2914 
Q 2772 3150 2772 3378 
Q 2772 3750 2511 3984 
Q 2250 4219 1831 4219 
Q 1534 4219 1204 4116 
Q 875 4013 500 3803 
L 500 4441 
Q 881 4594 1212 4672 
Q 1544 4750 1819 4750 
Q 2544 4750 2975 4387 
Q 3406 4025 3406 3419 
Q 3406 3131 3298 2873 
Q 3191 2616 2906 2266 
Q 2828 2175 2409 1742 
Q 1991 1309 1228 531 
z
" transform="scale(0.015625)"/>
       </defs>
       <use xlink:href="#DejaVuSans-32"/>
       <use xlink:href="#DejaVuSans-30" transform="translate(63.623047 0)"/>
       <use xlink:href="#DejaVuSans-30" transform="translate(127.246094 0)"/>
       <use xlink:href="#DejaVuSans-30" transform="translate(190.869141 0)"/>
      </g>
     </g>
    </g>
    <g id="text_6">
     <!-- 时间 / 序号 -->
     <g transform="translate(427.388594 413.48625) scale(0.1 -0.1)">
      <defs>
       <path id="DejaVuSans-65f6" d="M 319 -1131 
L 319 4513 
L 3519 4513 
L 3519 -1131 
L 319 -1131 
z
M 678 -775 
L 3163 -775 
L 3163 4153 
L 678 4153 
L 678 -775 
z
" transform="scale(0.015625)"/>
       <path id="DejaVuSans-95f4" d="M 319 -1131 
L 319 4513 
L 3519 4513 
L 3519 -1131 
L 319 -1131 
z
M 678 -775 
L 3163 -775 
L 3163 4153 
L 678 4153 
L 678 -775 
z
" transform="scale(0.015625)"/>
       <path id="DejaVuSans-20" transform="scale(0.015625)"/>
       <path id="DejaVuSans-2f" d="M 1625 4666 
L 2156 4666 
L 531 -594 
L 0 -594 
L 1625 4666 
z
" transform="scale(0.015625)"/>
       <path id="DejaVuSans-5e8f" d="M 319 -1131 
L 319 4513 
L 3519 4513 
L 3519 -1131 
L 319 -1131 
z
M 678 -775 
L 3163 -775 
L 3163 4153 
L 678 4153 
L 678 -775 
z
" transform="scale(0.015625)"/>
       <path id="DejaVuSans-53f7" d="M 319 -1131 
L 319 4513 
L 3519 4513 
L 3519 -1131 
L 319 -1131 
z
M 678 -775 
L 3163 -775 
L 3163 4153 
L 678 4153 
L 678 -775 
z
" transform="scale(0.015625)"/>
      </defs>
      <use xlink:href="#DejaVuSans-65f6"/>
      <use xlink:href="#DejaVuSans-95f4" transform="translate(60.009766 0)"/>
      <use xlink:href="#DejaVuSans-20" transform="translate(120.019531 0)"/>
      <use xlink:href="#DejaVuSans-2f" transform="translate(151.806641 0)"/>
      <use xlink:href="#DejaVuSans-20" transform="translate(185.498047 0)"/>
      <use xlink:href="#DejaVuSans-5e8f" transform="translate(217.285156 0)"/>
      <use xlink:href="#DejaVuSans-53f7" transform="translate(277.294922 0)"/>
     </g>
    </g>
   </g>
   <g id="matplotlib.axis_2">
    <g id="ytick_1">
     <g id="line2d_11">
      <path d="M 39.179219 359.715306 
L 849.329219 359.715306 
" clip-path="url(#p3aea9fac2c)" style="fill: none; stroke-dasharray: 1.85,0.8; stroke-dashoffset: 0; stroke: #b2b2b2; stroke-opacity: 0.3; stroke-width: 0.5"/>
     </g>
     <g id="line2d_12">
      <defs>
       <path id="mf51f52e5e5" d="M 0 0 
L 3.5 0 
" style="stroke: #000000; stroke-width: 0.8"/>
      </defs>
      <g>
       <use xlink:href="#mf51f52e5e5" x="39.179219" y="359.715306" style="stroke: #000000; stroke-width: 0.8"/>
      </g>
     </g>
     <g id="text_7">
      <!-- -15 -->
      <g transform="translate(20.979688 363.134603) scale(0.09 -0.09)">
       <defs>
        <path id="DejaVuSans-2d" d="M 313 2009 
L 1997 2009 
L 1997 1497 
L 313 1497 
L 313 2009 
z
" transform="scale(0.015625)"/>
       </defs>
       <use xlink:href="#DejaVuSans-2d"/>
       <use xlink:href="#DejaVuSans-31" transform="translate(36.083984 0)"/>
       <use xlink:href="#DejaVuSans-35" transform="translate(99.707031 0)"/>
      </g>
     </g>
    </g>
    <g id="ytick_2">
     <g id="line2d_13">
      <path d="M 39.179219 300.26297 
L 849.329219 300.26297 
" clip-path="url(#p3aea9fac2c)" style="fill: none; stroke-dasharray: 1.85,0.8; stroke-dashoffset: 0; stroke: #b2b2b2; stroke-opacity: 0.3; stroke-width: 0.5"/>
     </g>
     <g id="line2d_14">
      <g>
       <use xlink:href="#mf51f52e5e5" x="39.179219" y="300.26297" style="stroke: #000000; stroke-width: 0.8"/>
      </g>
     </g>
     <g id="text_8">
      <!-- -10 -->
      <g transform="translate(20.979688 303.682267) scale(0.09 -0.09)">
       <use xlink:href="#DejaVuSans-2d"/>
       <use xlink:href="#DejaVuSans-31" transform="translate(36.083984 0)"/>
       <use xlink:href="#DejaVuSans-30" transform="translate(99.707031 0)"/>
      </g>
     </g>
    </g>
    <g id="ytick_3">
     <g id="line2d_15">
      <path d="M 39.179219 240.810634 
L 849.329219 240.810634 
" clip-path="url(#p3aea9fac2c)" style="fill: none; stroke-dasharray: 1.85,0.8; stroke-dashoffset: 0; stroke: #b2b2b2; stroke-opacity: 0.3; stroke-width: 0.5"/>
     </g>
     <g id="line2d_16">
      <g>
       <use xlink:href="#mf51f52e5e5" x="39.179219" y="240.810634" style="stroke: #000000; stroke-width: 0.8"/>
      </g>
     </g>
     <g id="text_9">
      <!-- -5 -->
      <g transform="translate(26.705938 244.22993) scale(0.09 -0.09)">
       <use xlink:href="#DejaVuSans-2d"/>
       <use xlink:href="#DejaVuSans-35" transform="translate(36.083984 0)"/>
      </g>
     </g>
    </g>
    <g id="ytick_4">
     <g id="line2d_17">
      <path d="M 39.179219 181.358297 
L 849.329219 181.358297 
" clip-path="url(#p3aea9fac2c)" style="fill: none; stroke-dasharray: 1.85,0.8; stroke-dashoffset: 0; stroke: #b2b2b2; stroke-opacity: 0.3; stroke-width: 0.5"/>
     </g>
     <g id="line2d_18">
      <g>
       <use xlink:href="#mf51f52e5e5" x="39.179219" y="181.358297" style="stroke: #000000; stroke-width: 0.8"/>
      </g>
     </g>
     <g id="text_10">
      <!-- 0 -->
      <g transform="translate(29.952969 184.777594) scale(0.09 -0.09)">
       <use xlink:href="#DejaVuSans-30"/>
      </g>
     </g>
    </g>
    <g id="ytick_5">
     <g id="line2d_19">
      <path d="M 39.179219 121.905961 
L 849.329219 121.905961 
" clip-path="url(#p3aea9fac2c)" style="fill: none; stroke-dasharray: 1.85,0.8; stroke-dashoffset: 0; stroke: #b2b2b2; stroke-opacity: 0.3; stroke-width: 0.5"/>
     </g>
     <g id="line2d_20">
      <g>
       <use xlink:href="#mf51f52e5e5" x="39.179219" y="121.905961" style="stroke: #000000; stroke-width: 0.8"/>
      </g>
     </g>
     <g id="text_11">
      <!-- 5 -->
      <g transform="translate(29.952969 125.325258) scale(0.09 -0.09)">
       <use xlink:href="#DejaVuSans-35"/>
      </g>
     </g>
    </g>
    <g id="ytick_6">
     <g id="line2d_21">
      <path d="M 39.179219 62.453625 
L 849.329219 62.453625 
" clip-path="url(#p3aea9fac2c)" style="fill: none; stroke-dasharray: 1.85,0.8; stroke-dashoffset: 0; stroke: #b2b2b2; stroke-opacity: 0.3; stroke-width: 0.5"/>
     </g>
     <g id="line2d_22">
      <g>
       <use xlink:href="#mf51f52e5e5" x="39.179219" y="62.453625" style="stroke: #000000; stroke-width: 0.8"/>
      </g>
     </g>
     <g id="text_12">
      <!-- 10 -->
      <g transform="translate(24.226719 65.872922) scale(0.09 -0.09)">
       <use xlink:href="#DejaVuSans-31"/>
       <use xlink:href="#DejaVuSans-30" transform="translate(63.623047 0)"/>
      </g>
     </g>
    </g>
    <g id="text_13">
     <!-- 差分后的 NH3_N_mg/L 值 -->
     <g transform="translate(14.621875 258.011406) rotate(-90) scale(0.1 -0.1)">
      <defs>
       <path id="DejaVuSans-5dee" d="M 319 -1131 
L 319 4513 
L 3519 4513 
L 3519 -1131 
L 319 -1131 
z
M 678 -775 
L 3163 -775 
L 3163 4153 
L 678 4153 
L 678 -775 
z
" transform="scale(0.015625)"/>
       <path id="DejaVuSans-5206" d="M 319 -1131 
L 319 4513 
L 3519 4513 
L 3519 -1131 
L 319 -1131 
z
M 678 -775 
L 3163 -775 
L 3163 4153 
L 678 4153 
L 678 -775 
z
" transform="scale(0.015625)"/>
       <path id="DejaVuSans-540e" d="M 319 -1131 
L 319 4513 
L 3519 4513 
L 3519 -1131 
L 319 -1131 
z
M 678 -775 
L 3163 -775 
L 3163 4153 
L 678 4153 
L 678 -775 
z
" transform="scale(0.015625)"/>
       <path id="DejaVuSans-7684" d="M 319 -1131 
L 319 4513 
L 3519 4513 
L 3519 -1131 
L 319 -1131 
z
M 678 -775 
L 3163 -775 
L 3163 4153 
L 678 4153 
L 678 -775 
z
" transform="scale(0.015625)"/>
       <path id="DejaVuSans-4e" d="M 628 4666 
L 1478 4666 
L 3547 763 
L 3547 4666 
L 4159 4666 
L 4159 0 
L 3309 0 
L 1241 3903 
L 1241 0 
L 628 0 
L 628 4666 
z
" transform="scale(0.015625)"/>
       <path id="DejaVuSans-48" d="M 628 4666 
L 1259 4666 
L 1259 2753 
L 3553 2753 
L 3553 4666 
L 4184 4666 
L 4184 0 
L 3553 0 
L 3553 2222 
L 1259 2222 
L 1259 0 
L 628 0 
L 628 4666 
z
" transform="scale(0.015625)"/>
       <path id="DejaVuSans-33" d="M 2597 2516 
Q 3050 2419 3304 2112 
Q 3559 1806 3559 1356 
Q 3559 666 3084 287 
Q 2609 -91 1734 -91 
Q 1441 -91 1130 -33 
Q 819 25 488 141 
L 488 750 
Q 750 597 1062 519 
Q 1375 441 1716 441 
Q 2309 441 2620 675 
Q 2931 909 2931 1356 
Q 2931 1769 2642 2001 
Q 2353 2234 1838 2234 
L 1294 2234 
L 1294 2753 
L 1863 2753 
Q 2328 2753 2575 2939 
Q 2822 3125 2822 3475 
Q 2822 3834 2567 4026 
Q 2313 4219 1838 4219 
Q 1578 4219 1281 4162 
Q 984 4106 628 3988 
L 628 4550 
Q 988 4650 1302 4700 
Q 1616 4750 1894 4750 
Q 2613 4750 3031 4423 
Q 3450 4097 3450 3541 
Q 3450 3153 3228 2886 
Q 3006 2619 2597 2516 
z
" transform="scale(0.015625)"/>
       <path id="DejaVuSans-5f" d="M 3263 -1063 
L 3263 -1509 
L -63 -1509 
L -63 -1063 
L 3263 -1063 
z
" transform="scale(0.015625)"/>
       <path id="DejaVuSans-6d" d="M 3328 2828 
Q 3544 3216 3844 3400 
Q 4144 3584 4550 3584 
Q 5097 3584 5394 3201 
Q 5691 2819 5691 2113 
L 5691 0 
L 5113 0 
L 5113 2094 
Q 5113 2597 4934 2840 
Q 4756 3084 4391 3084 
Q 3944 3084 3684 2787 
Q 3425 2491 3425 1978 
L 3425 0 
L 2847 0 
L 2847 2094 
Q 2847 2600 2669 2842 
Q 2491 3084 2119 3084 
Q 1678 3084 1418 2786 
Q 1159 2488 1159 1978 
L 1159 0 
L 581 0 
L 581 3500 
L 1159 3500 
L 1159 2956 
Q 1356 3278 1631 3431 
Q 1906 3584 2284 3584 
Q 2666 3584 2933 3390 
Q 3200 3197 3328 2828 
z
" transform="scale(0.015625)"/>
       <path id="DejaVuSans-67" d="M 2906 1791 
Q 2906 2416 2648 2759 
Q 2391 3103 1925 3103 
Q 1463 3103 1205 2759 
Q 947 2416 947 1791 
Q 947 1169 1205 825 
Q 1463 481 1925 481 
Q 2391 481 2648 825 
Q 2906 1169 2906 1791 
z
M 3481 434 
Q 3481 -459 3084 -895 
Q 2688 -1331 1869 -1331 
Q 1566 -1331 1297 -1286 
Q 1028 -1241 775 -1147 
L 775 -588 
Q 1028 -725 1275 -790 
Q 1522 -856 1778 -856 
Q 2344 -856 2625 -561 
Q 2906 -266 2906 331 
L 2906 616 
Q 2728 306 2450 153 
Q 2172 0 1784 0 
Q 1141 0 747 490 
Q 353 981 353 1791 
Q 353 2603 747 3093 
Q 1141 3584 1784 3584 
Q 2172 3584 2450 3431 
Q 2728 3278 2906 2969 
L 2906 3500 
L 3481 3500 
L 3481 434 
z
" transform="scale(0.015625)"/>
       <path id="DejaVuSans-4c" d="M 628 4666 
L 1259 4666 
L 1259 531 
L 3531 531 
L 3531 0 
L 628 0 
L 628 4666 
z
" transform="scale(0.015625)"/>
       <path id="DejaVuSans-503c" d="M 319 -1131 
L 319 4513 
L 3519 4513 
L 3519 -1131 
L 319 -1131 
z
M 678 -775 
L 3163 -775 
L 3163 4153 
L 678 4153 
L 678 -775 
z
" transform="scale(0.015625)"/>
      </defs>
      <use xlink:href="#DejaVuSans-5dee"/>
      <use xlink:href="#DejaVuSans-5206" transform="translate(60.009766 0)"/>
      <use xlink:href="#DejaVuSans-540e" transform="translate(120.019531 0)"/>
      <use xlink:href="#DejaVuSans-7684" transform="translate(180.029297 0)"/>
      <use xlink:href="#DejaVuSans-20" transform="translate(240.039062 0)"/>
      <use xlink:href="#DejaVuSans-4e" transform="translate(271.826172 0)"/>
      <use xlink:href="#DejaVuSans-48" transform="translate(346.630859 0)"/>
      <use xlink:href="#DejaVuSans-33" transform="translate(421.826172 0)"/>
      <use xlink:href="#DejaVuSans-5f" transform="translate(485.449219 0)"/>
      <use xlink:href="#DejaVuSans-4e" transform="translate(535.449219 0)"/>
      <use xlink:href="#DejaVuSans-5f" transform="translate(610.253906 0)"/>
      <use xlink:href="#DejaVuSans-6d" transform="translate(660.253906 0)"/>
      <use xlink:href="#DejaVuSans-67" transform="translate(757.666016 0)"/>
      <use xlink:href="#DejaVuSans-2f" transform="translate(821.142578 0)"/>
      <use xlink:href="#DejaVuSans-4c" transform="translate(854.833984 0)"/>
      <use xlink:href="#DejaVuSans-20" transform="translate(910.546875 0)"/>
      <use xlink:href="#DejaVuSans-503c" transform="translate(942.333984 0)"/>
     </g>
    </g>
   </g>
   <g id="line2d_23">
    <path d="M 76.004219 182.666249 
L 76.34052 188.492578 
L 76.676821 155.912697 
L 77.013123 188.849292 
L 77.349424 193.724383 
L 77.685726 170.062353 
L 78.022027 181.358297 
L 78.358328 185.99558 
L 78.69463 177.910062 
L 79.030931 153.296795 
L 79.367232 189.206006 
L 79.703534 199.669617 
L 80.039835 191.34629 
L 80.376137 176.364301 
L 80.712438 192.178623 
L 81.048739 171.727019 
L 81.385041 182.428439 
L 81.721342 176.83992 
L 82.057643 155.318174 
L 82.393945 213.462559 
L 82.730246 150.324178 
L 83.066548 182.428439 
L 83.402849 238.313635 
L 83.73915 78.86247 
L 84.075452 148.897322 
L 84.411753 171.037372 
L 84.748054 221.429172 
L 85.084356 118.101012 
L 85.420657 212.249731 
L 85.756958 178.611599 
L 86.09326 176.031368 
L 86.429561 176.281068 
L 86.765863 195.079897 
L 87.102164 181.67934 
L 88.111068 160.466746 
L 88.447369 169.444049 
L 88.783671 194.318907 
L 89.119972 150.954373 
L 89.456274 185.424837 
L 89.792575 193.64115 
L 90.128876 195.41283 
L 90.465178 199.312903 
L 90.801479 195.032335 
L 91.13778 156.269411 
L 91.474082 259.121953 
L 92.146685 143.308802 
L 92.482986 266.731852 
L 92.819287 186.827912 
L 93.155589 184.212009 
L 93.49189 188.254768 
L 93.828191 170.419067 
L 94.164493 190.870671 
L 94.837095 179.218013 
L 95.173397 171.013591 
L 95.509698 189.919434 
L 95.846 178.980204 
L 96.182301 180.525965 
L 96.518602 169.943449 
L 96.854904 173.748398 
L 97.191205 172.916066 
L 97.527506 176.364301 
L 97.863808 186.709008 
L 98.200109 174.580731 
L 98.536411 183.379677 
L 98.872712 176.721015 
L 99.209013 187.54134 
L 99.545315 179.574727 
L 99.881616 180.882679 
L 100.217917 183.9742 
L 100.554219 181.833916 
L 100.89052 180.882679 
L 101.226821 186.352294 
L 101.563123 184.449819 
L 101.899424 183.260772 
L 102.235726 178.266776 
L 102.572027 183.617486 
L 102.908328 184.093105 
L 103.24463 179.931441 
L 103.580931 181.120488 
L 103.917232 176.721015 
L 104.253534 190.157243 
L 104.589835 181.239393 
L 104.926137 188.373673 
L 105.262438 176.83992 
L 105.598739 183.379677 
L 105.935041 178.385681 
L 106.271342 185.401056 
L 106.607643 183.736391 
L 106.943945 175.413064 
L 107.280246 183.855295 
L 107.616548 184.330914 
L 107.952849 181.358297 
L 108.28915 182.785153 
L 108.625452 180.288155 
L 108.961753 180.40706 
L 109.298054 239.383778 
L 109.634356 249.318263 
L 109.970657 181.358297 
L 110.306958 181.358297 
L 110.979561 99.432978 
L 111.652164 191.703004 
L 111.988465 143.427707 
L 112.324767 199.075094 
L 112.661068 169.824544 
L 112.997369 176.245396 
L 113.333671 173.867303 
L 113.669972 198.837284 
L 114.006274 177.910062 
L 114.342575 211.20337 
L 114.678876 146.994847 
L 115.015178 173.629494 
L 115.351479 180.763774 
L 115.68778 206.566088 
L 116.024082 180.169251 
L 116.360383 181.833916 
L 116.696685 190.157243 
L 117.032986 175.294159 
L 117.369287 180.882679 
L 117.705589 162.690264 
L 118.04189 187.184626 
L 118.378191 183.617486 
L 118.714493 183.141867 
L 119.387095 193.284436 
L 119.723397 183.700719 
L 120.059698 189.56272 
L 120.396 154.010223 
L 120.732301 151.90561 
L 121.068602 221.215144 
L 121.404904 154.557184 
L 121.741205 220.834649 
L 122.077506 165.555866 
L 122.413808 190.811219 
L 122.750109 176.399972 
L 123.086411 154.759322 
L 123.422712 159.444166 
L 123.759013 180.525965 
L 124.095315 214.057082 
L 124.431616 210.014323 
L 125.104219 183.141867 
L 125.44052 157.815172 
L 125.776821 205.377041 
L 126.113123 185.876675 
L 126.449424 182.071725 
L 126.785726 161.976836 
L 127.122027 195.507953 
L 127.458328 180.40706 
L 127.79463 189.56272 
L 128.130931 183.260772 
L 128.467232 159.360933 
L 128.803534 193.486574 
L 129.139835 181.001583 
L 129.476137 182.071725 
L 129.812438 258.28962 
L 130.148739 207.992944 
L 130.485041 200.383045 
L 130.821342 167.922069 
L 131.157643 76.127662 
L 131.493945 161.144503 
L 131.830246 177.672252 
L 132.166548 184.806533 
L 132.502849 181.715011 
L 132.83915 173.27278 
L 133.175452 183.498581 
L 133.511753 198.242761 
L 133.848054 173.153875 
L 134.184356 172.202638 
L 134.520657 176.364301 
L 134.856958 188.254768 
L 135.19326 167.386998 
L 135.529561 160.871022 
L 135.865863 189.194115 
L 136.202164 288.598421 
L 136.874767 99.314073 
L 137.211068 179.539056 
L 137.547369 194.556716 
L 138.219972 175.294159 
L 138.556274 169.075445 
L 138.892575 188.159645 
L 139.228876 168.076645 
L 139.565178 188.29044 
L 139.901479 329.133024 
L 140.23778 184.7233 
L 140.574082 179.158561 
L 140.910383 189.003868 
L 141.246685 121.061738 
L 141.582986 170.050463 
L 141.919287 134.628761 
L 142.255589 130.110383 
L 142.59189 199.289122 
L 142.928191 218.611131 
L 143.264493 126.174639 
L 143.600794 200.811102 
L 143.937095 210.870437 
L 144.273397 160.371623 
L 144.609698 166.709242 
L 144.946 207.160611 
L 145.282301 148.005537 
L 145.618602 167.018394 
L 145.954904 161.346641 
L 146.291205 227.148487 
L 146.627506 180.300046 
L 146.963808 186.994379 
L 147.300109 154.164799 
L 147.636411 183.45102 
L 147.972712 175.365502 
L 148.309013 187.886164 
L 148.645315 216.221147 
L 148.981616 109.753904 
L 149.317917 187.208407 
L 149.654219 221.666981 
L 149.99052 179.943332 
L 150.326821 179.848208 
L 150.663123 141.881946 
L 151.335726 196.970481 
L 151.672027 218.932174 
L 152.008328 155.092255 
L 152.680931 249.074508 
L 153.017232 208.599358 
L 153.353534 189.681624 
L 154.026137 177.160962 
L 154.362438 181.952821 
L 154.698739 182.476001 
L 155.035041 189.56272 
L 155.371342 170.98981 
L 155.707643 186.875474 
L 156.043945 183.225101 
L 156.380246 208.14752 
L 156.716548 177.8625 
L 157.052849 174.378593 
L 157.38915 181.643669 
L 157.725452 171.156276 
L 158.061753 186.126375 
L 158.398054 188.278549 
L 158.734356 155.627326 
L 159.070657 202.04771 
L 159.406958 181.643669 
L 159.74326 178.028966 
L 160.415863 152.92819 
L 160.752164 207.422202 
L 161.088465 165.555866 
L 161.424767 200.965678 
L 161.761068 194.604278 
L 162.097369 158.469148 
L 162.433671 215.329362 
L 163.106274 143.415816 
L 163.442575 150.181492 
L 163.778876 248.931823 
L 164.115178 183.688829 
L 164.451479 183.427239 
L 164.78778 175.044459 
L 165.124082 188.112083 
L 165.460383 181.572326 
L 165.796685 182.915949 
L 166.132986 180.942131 
L 166.469287 179.717413 
L 166.805589 85.74705 
L 167.14189 187.422436 
L 167.478191 174.996897 
L 167.814493 144.081682 
L 168.150794 163.772296 
L 168.487095 172.369104 
L 168.823397 230.370803 
L 169.159698 179.110999 
L 169.496 178.254885 
L 169.832301 197.006152 
L 170.168602 176.388082 
L 170.504904 167.553465 
L 170.841205 187.909945 
L 171.177506 223.224633 
L 171.513808 154.842555 
L 172.186411 186.875474 
L 172.522712 168.837635 
L 172.859013 171.929157 
L 173.195315 183.177539 
L 173.531616 207.362749 
L 173.867917 170.549863 
L 174.204219 166.197952 
L 174.54052 155.770012 
L 174.876821 220.787087 
L 175.213123 161.810369 
L 175.549424 176.506987 
L 175.885726 227.279282 
L 176.222027 164.89 
L 176.558328 188.611482 
L 176.89463 239.252982 
L 177.230931 214.984539 
L 177.567232 165.472633 
L 178.576137 175.103912 
L 178.912438 174.188346 
L 179.248739 187.945616 
L 179.585041 178.540257 
L 179.921342 173.807851 
L 180.257643 175.436845 
L 180.593945 180.002784 
L 180.930246 175.294159 
L 181.266548 186.685227 
L 181.602849 167.94585 
L 181.93915 184.4736 
L 182.275452 188.207206 
L 182.611753 169.099226 
L 182.948054 187.01816 
L 183.284356 247.576309 
L 183.620657 97.792093 
L 183.956958 204.746846 
L 184.29326 174.009989 
L 184.629561 182.309535 
L 184.965863 165.865019 
L 185.302164 185.412947 
L 185.638465 177.291758 
L 185.974767 191.239276 
L 186.311068 170.454739 
L 186.647369 187.648355 
L 186.983671 176.221615 
L 187.319972 199.455588 
L 187.656274 173.748398 
L 187.992575 189.729186 
L 188.328876 174.081331 
L 188.665178 190.038338 
L 189.001479 165.698552 
L 189.33778 166.863818 
L 189.674082 198.064404 
L 190.010383 192.999065 
L 190.346685 241.191129 
L 190.682986 114.795462 
L 191.019287 195.079897 
L 191.355589 211.322275 
L 191.69189 160.966146 
L 192.028191 162.309769 
L 192.700794 198.73027 
L 193.037095 165.329947 
L 193.373397 175.615202 
L 193.709698 175.841121 
L 194.046 190.121572 
L 194.382301 155.639217 
L 194.718602 193.177422 
L 195.054904 180.038455 
L 195.391205 182.17874 
L 195.727506 188.076411 
L 196.063808 160.740227 
L 196.400109 193.201203 
L 196.736411 188.100192 
L 197.072712 189.479486 
L 197.409013 195.995463 
L 197.745315 147.969865 
L 198.081616 183.522362 
L 198.417917 183.21321 
L 198.754219 163.534487 
L 199.09052 186.613884 
L 199.426821 170.276382 
L 199.763123 206.233155 
L 200.099424 173.772179 
L 200.435726 192.594789 
L 200.772027 156.804482 
L 201.108328 175.638983 
L 201.44463 185.24648 
L 201.780931 160.145704 
L 202.117232 179.63418 
L 202.453534 169.562954 
L 202.789835 132.452806 
L 203.126137 251.500164 
L 203.462438 143.201788 
L 204.135041 215.412596 
L 204.471342 127.078314 
L 204.807643 145.746348 
L 205.143945 204.699285 
L 205.480246 197.779033 
L 205.816548 195.817106 
L 206.152849 175.686544 
L 206.48915 196.494862 
L 206.825452 207.089268 
L 207.161753 199.384246 
L 207.498054 182.428439 
L 207.834356 182.476001 
L 208.170657 189.455706 
L 208.506958 184.497381 
L 208.84326 171.203838 
L 209.179561 190.609081 
L 209.515863 174.29536 
L 209.852164 167.660479 
L 210.188465 183.106196 
L 210.524767 184.889766 
L 210.861068 181.643669 
L 211.197369 183.653158 
L 211.533671 186.530651 
L 211.869972 176.447534 
L 212.206274 184.854095 
L 212.542575 184.604395 
L 212.878876 181.572326 
L 213.215178 171.275181 
L 213.551479 175.615202 
L 213.88778 184.093105 
L 214.224082 179.64607 
L 214.560383 179.075328 
L 214.896685 181.382078 
L 215.232986 178.195433 
L 215.569287 176.804248 
L 215.905589 179.348808 
L 216.24189 179.206123 
L 216.578191 172.987408 
L 216.914493 193.355779 
L 217.250794 203.343771 
L 217.587095 185.876675 
L 217.923397 183.926638 
L 218.259698 202.071491 
L 218.596 175.698435 
L 218.932301 184.651957 
L 219.268602 197.410428 
L 219.604904 186.411746 
L 219.941205 169.753201 
L 220.277506 181.358297 
L 220.613808 163.558268 
L 220.950109 200.692197 
L 221.286411 188.873073 
L 221.622712 213.105845 
L 222.295315 148.10066 
L 222.631616 191.072809 
L 222.967917 171.905376 
L 223.304219 185.662646 
L 223.64052 190.311819 
L 223.976821 178.766175 
L 224.313123 180.585417 
L 224.985726 197.850375 
L 225.322027 201.393735 
L 225.658328 177.006386 
L 225.99463 184.699519 
L 226.330931 154.212361 
L 226.667232 196.054915 
L 227.003534 183.665048 
L 227.339835 185.948018 
L 227.676137 179.099109 
L 228.012438 183.332115 
L 228.348739 163.070759 
L 228.685041 197.315304 
L 229.021342 177.933843 
L 229.357643 176.352411 
L 229.693945 175.960025 
L 230.030246 175.32983 
L 230.366548 197.303414 
L 230.702849 168.790073 
L 231.03915 185.139466 
L 231.375452 222.796576 
L 231.711753 148.433594 
L 232.048054 184.74708 
L 232.384356 173.772179 
L 232.720657 179.586618 
L 233.056958 173.748398 
L 233.729561 179.491494 
L 234.402164 169.21813 
L 234.738465 184.104995 
L 235.411068 173.902974 
L 235.747369 195.198801 
L 236.083671 164.794876 
L 236.419972 190.894452 
L 236.756274 184.937328 
L 237.092575 191.09659 
L 237.428876 191.060919 
L 237.765178 179.110999 
L 238.101479 178.028966 
L 238.43778 188.349892 
L 238.774082 159.78899 
L 239.110383 175.151473 
L 239.446685 170.502301 
L 239.782986 172.975518 
L 240.119287 183.034853 
L 240.455589 175.05635 
L 240.79189 204.461475 
L 241.128191 169.46783 
L 241.464493 198.706489 
L 241.800794 176.126492 
L 242.137095 187.921835 
L 242.473397 181.964711 
L 242.809698 181.358297 
L 243.146 268.860246 
L 243.482301 77.756656 
L 243.818602 211.690879 
L 244.154904 184.200119 
L 244.827506 164.152791 
L 245.163808 202.012039 
L 245.500109 196.054915 
L 245.836411 171.620005 
L 246.172712 172.143185 
L 246.509013 191.86947 
L 246.845315 170.407177 
L 247.181616 190.133462 
L 247.517917 173.391684 
L 247.854219 177.541457 
L 248.19052 193.688712 
L 248.526821 168.659278 
L 248.863123 194.960992 
L 249.199424 144.200587 
L 249.535726 195.341487 
L 249.872027 158.374024 
L 250.208328 191.049028 
L 250.54463 168.171769 
L 250.880931 191.001466 
L 251.217232 154.830665 
L 251.553534 191.310618 
L 251.889835 172.345323 
L 252.226137 206.768226 
L 252.562438 156.007821 
L 252.898739 195.103677 
L 253.235041 155.044693 
L 253.571342 195.67442 
L 253.907643 187.898054 
L 254.243945 200.858664 
L 254.580246 152.428791 
L 254.916548 207.279516 
L 255.252849 160.728337 
L 255.58915 197.374757 
L 255.925452 186.839803 
L 256.261753 201.191597 
L 256.598054 163.153992 
L 256.934356 203.0584 
L 257.270657 145.770129 
L 257.606958 246.874772 
L 257.94326 132.536039 
L 258.279561 191.821909 
L 258.615863 193.058517 
L 258.952164 160.30028 
L 259.288465 160.835351 
L 259.624767 260.394233 
L 259.961068 181.358297 
L 260.297369 224.092637 
L 260.633671 134.022347 
L 260.969972 139.836786 
L 261.306274 196.827795 
L 261.642575 199.372355 
L 261.978876 144.688096 
L 262.315178 184.152557 
L 262.651479 181.358297 
L 262.98778 160.716446 
L 263.660383 191.893251 
L 263.996685 152.571476 
L 264.332986 247.5882 
L 264.669287 158.576162 
L 265.005589 171.524881 
L 265.34189 167.708041 
L 265.678191 174.04566 
L 266.014493 166.42387 
L 266.350794 220.133111 
L 266.687095 160.157594 
L 267.023397 171.203838 
L 267.359698 196.768343 
L 267.696 165.056467 
L 268.368602 196.720781 
L 268.704904 158.124324 
L 269.041205 185.99558 
L 269.377506 167.446451 
L 269.713808 188.409344 
L 270.050109 167.303765 
L 270.386411 174.188346 
L 270.722712 186.102594 
L 271.059013 190.276148 
L 271.395315 181.358297 
L 271.731616 322.474363 
L 272.067917 105.235526 
L 272.404219 156.626125 
L 272.74052 181.833916 
L 273.076821 164.081448 
L 273.413123 196.304615 
L 273.749424 163.391801 
L 274.085726 200.180907 
L 274.422027 159.456057 
L 274.758328 211.060685 
L 275.09463 138.053216 
L 275.767232 218.813269 
L 276.103534 233.141282 
L 276.439835 161.58445 
L 276.776137 192.820708 
L 277.112438 199.301012 
L 277.448739 171.394086 
L 277.785041 122.001085 
L 278.121342 188.219097 
L 278.457643 186.709008 
L 278.793945 159.2777 
L 279.130246 188.254768 
L 279.466548 170.882796 
L 279.802849 194.045426 
L 280.13915 234.413562 
L 280.811753 149.848559 
L 281.148054 187.089503 
L 281.484356 237.956921 
L 281.820657 105.211745 
L 282.156958 175.246597 
L 282.49326 172.166966 
L 282.829561 178.1122 
L 283.165863 174.140784 
L 283.502164 192.856379 
L 283.838465 200.216578 
L 284.511068 170.466629 
L 284.847369 183.320224 
L 285.183671 190.478286 
L 285.519972 154.45017 
L 285.856274 164.450053 
L 286.192575 239.027063 
L 286.528876 171.786471 
L 286.865178 174.224017 
L 287.201479 184.533052 
L 287.874082 158.148105 
L 288.210383 263.473864 
L 288.546685 157.910296 
L 288.882986 138.481272 
L 289.219287 184.164448 
L 289.555589 172.499899 
L 289.89189 181.988492 
L 290.228191 195.971682 
L 290.564493 167.386998 
L 290.900794 172.702037 
L 291.237095 172.464228 
L 291.573397 220.822758 
L 291.909698 115.425656 
L 292.582301 254.793823 
L 293.254904 126.21031 
L 293.927506 216.149805 
L 294.263808 198.397337 
L 294.600109 203.855061 
L 295.272712 137.327897 
L 295.609013 178.278666 
L 295.945315 204.473366 
L 296.281616 180.15736 
L 296.617917 205.067889 
L 296.954219 189.645953 
L 297.29052 197.672018 
L 297.626821 200.216578 
L 297.963123 169.337035 
L 298.299424 153.843756 
L 298.635726 178.504585 
L 298.972027 182.927839 
L 299.308328 179.015875 
L 299.64463 177.87439 
L 299.980931 195.258254 
L 300.317232 128.219799 
L 300.653534 200.894335 
L 300.989835 198.492461 
L 301.326137 175.103912 
L 301.662438 185.733989 
L 301.998739 175.484407 
L 302.335041 179.871989 
L 302.671342 186.697117 
L 303.007643 174.533169 
L 303.343945 188.433125 
L 303.680246 178.671052 
L 304.352849 174.402374 
L 304.68915 188.682825 
L 305.025452 181.917149 
L 305.361753 229.479018 
L 305.698054 172.250199 
L 306.034356 137.458692 
L 306.370657 203.938295 
L 306.706958 176.221615 
L 307.04326 175.401173 
L 307.379561 172.916066 
L 307.715863 148.433594 
L 308.052164 225.935659 
L 308.388465 173.153875 
L 308.724767 156.602345 
L 309.397369 223.628908 
L 309.733671 202.107163 
L 310.069972 173.094423 
L 310.406274 116.186646 
L 310.742575 199.717179 
L 311.078876 196.578095 
L 311.415178 202.404424 
L 311.751479 150.704673 
L 312.08778 172.321542 
L 312.424082 171.845924 
L 312.760383 234.35411 
L 313.432986 140.264843 
L 313.769287 175.674654 
L 314.105589 182.059835 
L 314.44189 168.124207 
L 314.778191 198.872956 
L 315.114493 172.476118 
L 315.450794 190.133462 
L 315.787095 176.60211 
L 316.123397 185.817223 
L 316.459698 170.823343 
L 316.796 180.442731 
L 317.132301 205.067889 
L 317.468602 166.518994 
L 317.804904 215.400705 
L 318.141205 204.996546 
L 318.477506 123.237693 
L 318.813808 183.593705 
L 319.150109 181.857697 
L 319.486411 194.90154 
L 319.822712 190.620971 
L 320.159013 148.326579 
L 320.495315 190.835 
L 320.831616 177.624691 
L 321.167917 222.963042 
L 321.504219 168.778183 
L 321.84052 162.488126 
L 322.176821 219.919083 
L 322.513123 124.295945 
L 322.849424 213.712259 
L 323.185726 144.402725 
L 323.522027 183.46291 
L 323.858328 169.146787 
L 324.19463 207.469763 
L 324.530931 224.211541 
L 324.867232 164.521396 
L 325.203534 154.69987 
L 325.539835 177.3631 
L 325.876137 167.363217 
L 326.212438 187.624574 
L 326.548739 191.037138 
L 326.885041 200.442497 
L 327.221342 166.887599 
L 327.557643 195.745763 
L 327.893945 181.144269 
L 328.230246 158.671286 
L 328.566548 196.9467 
L 328.902849 153.273014 
L 329.23915 176.970715 
L 329.575452 211.869236 
L 329.911753 213.712259 
L 330.248054 153.403809 
L 330.584356 186.078813 
L 331.256958 176.768577 
L 331.59326 194.521045 
L 331.929561 188.504468 
L 332.265863 172.547461 
L 332.602164 163.86742 
L 332.938465 221.666981 
L 333.274767 161.203955 
L 333.611068 151.988843 
L 334.283671 205.234356 
L 334.619972 168.908978 
L 334.956274 190.097791 
L 335.292575 187.172736 
L 335.628876 209.110648 
L 335.965178 164.735424 
L 336.301479 170.763891 
L 336.63778 160.645103 
L 336.974082 183.772062 
L 337.310383 161.108832 
L 337.646685 234.033067 
L 337.982986 172.166966 
L 338.319287 184.699519 
L 338.655589 155.746231 
L 338.99189 192.475884 
L 339.328191 180.597307 
L 340.000794 195.531734 
L 340.337095 198.314104 
L 340.673397 126.662148 
L 341.009698 186.459308 
L 341.346 182.511673 
L 341.682301 207.029816 
L 342.018602 166.792475 
L 342.354904 184.616285 
L 342.691205 183.783953 
L 343.027506 202.761138 
L 343.363808 149.515626 
L 343.700109 182.345206 
L 344.036411 124.831016 
L 344.372712 230.858312 
L 344.709013 215.139115 
L 345.045315 178.528366 
L 345.381616 166.067156 
L 345.717917 173.736508 
L 346.054219 153.213561 
L 346.39052 229.835732 
L 346.726821 160.597542 
L 347.063123 182.036054 
L 347.399424 190.311819 
L 347.735726 160.359732 
L 348.072027 167.363217 
L 348.408328 192.000266 
L 348.74463 163.546377 
L 349.080931 178.789956 
L 349.417232 180.704322 
L 349.753534 183.522362 
L 350.089835 171.287072 
L 350.426137 188.242878 
L 350.762438 170.835234 
L 351.098739 216.256819 
L 351.435041 223.771594 
L 351.771342 134.521747 
L 352.107643 154.69987 
L 352.443945 239.19353 
L 352.780246 217.398304 
L 353.116548 124.783454 
L 353.452849 199.193998 
L 353.78915 159.681976 
L 354.125452 193.760055 
L 354.461753 182.69003 
L 354.798054 158.290791 
L 355.134356 176.221615 
L 355.470657 175.603311 
L 355.806958 191.940813 
L 356.14326 180.894569 
L 356.479561 183.96231 
L 356.815863 178.778066 
L 357.152164 188.623373 
L 357.488465 166.281185 
L 357.824767 182.773263 
L 358.161068 177.910062 
L 358.497369 188.837401 
L 358.833671 168.683059 
L 359.169972 169.325144 
L 359.506274 216.994028 
L 359.842575 139.563305 
L 360.178876 172.464228 
L 360.515178 192.297527 
L 360.851479 180.835117 
L 361.18778 207.969163 
L 361.860383 167.470232 
L 362.196685 190.406943 
L 362.532986 140.859366 
L 362.869287 199.336684 
L 363.205589 221.845338 
L 363.54189 177.434443 
L 363.878191 174.438045 
L 364.214493 165.056467 
L 364.550794 169.134897 
L 364.887095 188.896854 
L 365.223397 158.861533 
L 365.559698 207.38653 
L 365.896 154.18858 
L 366.232301 259.169515 
L 366.568602 165.080248 
L 366.904904 174.235907 
L 367.241205 225.424369 
L 367.577506 149.075679 
L 368.250109 185.74588 
L 368.586411 155.365736 
L 368.922712 175.591421 
L 369.259013 271.785301 
L 369.595315 126.329215 
L 369.931616 179.550946 
L 370.267917 146.198186 
L 370.604219 148.243346 
L 370.94052 208.694482 
L 371.276821 205.151122 
L 371.613123 204.092871 
L 371.949424 103.939465 
L 372.285726 178.076528 
L 372.622027 177.933843 
L 372.958328 193.201203 
L 373.29463 181.358297 
L 373.630931 211.036904 
L 373.967232 161.227736 
L 374.303534 189.443815 
L 374.639835 233.664463 
L 374.976137 209.336567 
L 375.312438 159.967347 
L 375.648739 185.163247 
L 375.985041 195.591187 
L 376.321342 180.371389 
L 376.657643 140.312404 
L 376.993945 195.353377 
L 377.330246 185.686427 
L 377.666548 182.44033 
L 378.002849 181.512873 
L 378.33915 160.930475 
L 378.675452 198.028732 
L 379.011753 179.574727 
L 379.348054 210.751532 
L 379.684356 211.20337 
L 380.020657 103.095242 
L 380.356958 170.419067 
L 380.69326 153.879428 
L 381.029561 228.313753 
L 381.365863 146.435995 
L 381.702164 239.942629 
L 382.038465 161.810369 
L 382.374767 249.704703 
L 382.711068 118.707425 
L 383.047369 173.902974 
L 383.383671 167.279984 
L 383.719972 195.079897 
L 384.056274 157.042292 
L 384.392575 225.864316 
L 384.728876 181.715011 
L 385.065178 182.45222 
L 385.401479 173.308451 
L 385.73778 197.136947 
L 386.074082 136.662031 
L 386.410383 203.807499 
L 386.746685 159.396604 
L 387.082986 181.536654 
L 387.419287 168.635497 
L 387.755589 233.486106 
L 388.09189 139.658429 
L 388.428191 249.87117 
L 388.764493 100.015611 
L 389.100794 220.822758 
L 389.437095 160.787789 
L 389.773397 202.107163 
L 390.109698 154.509622 
L 390.446 231.500398 
L 390.782301 117.946435 
L 391.118602 198.433008 
L 391.454904 149.420502 
L 391.791205 219.788287 
L 392.127506 182.345206 
L 392.463808 199.824193 
L 392.800109 170.407177 
L 393.136411 192.000266 
L 393.472712 152.999533 
L 393.809013 219.681273 
L 394.145315 114.391186 
L 394.817917 239.609696 
L 395.154219 181.393969 
L 395.49052 194.15244 
L 395.826821 185.484289 
L 396.163123 193.807617 
L 396.499424 141.382546 
L 396.835726 211.667098 
L 397.172027 147.755837 
L 397.508328 223.486223 
L 397.84463 173.165765 
L 398.180931 227.659777 
L 398.517232 160.05058 
L 398.853534 217.671784 
L 399.189835 150.692782 
L 399.526137 188.278549 
L 399.862438 147.732056 
L 400.198739 186.661446 
L 400.535041 197.897937 
L 400.871342 196.17382 
L 401.207643 170.585534 
L 401.543945 195.198801 
L 401.880246 185.733989 
L 402.216548 182.333316 
L 402.552849 137.862968 
L 402.88915 173.760289 
L 403.225452 140.371857 
L 403.561753 202.856262 
L 403.898054 153.142219 
L 404.234356 181.358297 
L 404.570657 261.357361 
L 404.906958 149.468064 
L 405.24326 194.782635 
L 405.579561 154.640417 
L 405.915863 221.322158 
L 406.252164 130.193617 
L 406.588465 184.651957 
L 406.924767 145.53232 
L 407.261068 240.679838 
L 407.933671 163.831749 
L 408.269972 175.948135 
L 408.606274 181.108598 
L 408.942575 177.232305 
L 409.278876 183.20132 
L 409.615178 207.767025 
L 409.951479 163.023197 
L 410.28778 175.900573 
L 410.624082 165.91258 
L 410.960383 173.332232 
L 411.296685 174.093222 
L 411.632986 198.968079 
L 411.969287 177.232305 
L 412.305589 176.483206 
L 412.64189 158.885314 
L 412.978191 190.513957 
L 413.314493 201.369954 
L 413.650794 146.150624 
L 413.987095 173.427356 
L 414.323397 167.482122 
L 414.659698 170.573644 
L 414.996 193.688712 
L 415.332301 185.567523 
L 415.668602 207.029816 
L 416.004904 191.655442 
L 416.341205 184.663847 
L 416.677506 173.474918 
L 417.350109 204.140433 
L 417.686411 163.486925 
L 418.022712 169.776982 
L 418.359013 196.007353 
L 418.695315 180.728103 
L 419.031616 180.050346 
L 419.367917 184.093105 
L 419.704219 148.279017 
L 420.04052 225.935659 
L 420.376821 139.004453 
L 420.713123 194.045426 
L 421.049424 207.101159 
L 421.385726 197.541223 
L 421.722027 165.032686 
L 422.058328 182.678139 
L 422.39463 179.955222 
L 422.730931 172.916066 
L 423.067232 162.880511 
L 423.403534 208.90851 
L 423.739835 184.319024 
L 424.076137 183.997981 
L 424.412438 177.220415 
L 424.748739 189.503267 
L 425.085041 179.420151 
L 425.421342 153.724851 
L 425.757643 217.873922 
L 426.093945 134.022347 
L 426.430246 213.058283 
L 426.766548 178.62349 
L 427.102849 190.145353 
L 427.43915 176.60211 
L 427.775452 176.257287 
L 428.111753 186.376075 
L 428.448054 176.911263 
L 428.784356 179.539056 
L 429.120657 175.008788 
L 429.456958 182.333316 
L 429.79326 186.376075 
L 430.129561 187.422436 
L 430.465863 182.19063 
L 431.138465 178.611599 
L 431.474767 170.573644 
L 431.811068 186.923036 
L 432.147369 174.521279 
L 432.483671 176.32863 
L 432.819972 194.259454 
L 433.492575 158.849643 
L 434.165178 188.195316 
L 434.501479 171.287072 
L 434.83778 191.714894 
L 435.174082 176.649672 
L 435.510383 169.075445 
L 435.846685 226.542073 
L 436.182986 129.50397 
L 436.855589 227.719229 
L 437.19189 184.116886 
L 437.528191 165.603428 
L 437.864493 173.54626 
L 438.200794 173.938646 
L 438.537095 173.153875 
L 438.873397 179.764975 
L 439.209698 180.525965 
L 439.546 190.252367 
L 439.882301 177.018277 
L 440.218602 196.494862 
L 440.554904 178.457023 
L 440.891205 178.611599 
L 441.227506 187.208407 
L 441.563808 170.787672 
L 441.900109 184.782752 
L 442.236411 187.362983 
L 442.572712 151.727253 
L 442.909013 194.758854 
L 443.245315 181.310735 
L 443.581616 177.398772 
L 443.917917 181.69123 
L 444.254219 201.952587 
L 444.59052 199.515041 
L 444.926821 186.483089 
L 445.263123 180.621088 
L 445.599424 181.881478 
L 445.935726 180.763774 
L 446.272027 193.177422 
L 446.608328 197.232071 
L 446.94463 221.298377 
L 447.280931 142.48836 
L 448.289835 190.406943 
L 448.626137 177.006386 
L 448.962438 189.966996 
L 449.298739 178.896971 
L 449.635041 181.988492 
L 449.971342 177.160962 
L 450.307643 177.493895 
L 450.643945 192.202403 
L 450.980246 174.81854 
L 451.316548 181.41775 
L 451.652849 204.627942 
L 451.98915 156.602345 
L 452.325452 180.264374 
L 452.661753 185.519961 
L 452.998054 193.510355 
L 453.334356 172.797161 
L 453.670657 189.289239 
L 454.006958 180.549746 
L 454.34326 197.136947 
L 454.679561 193.462793 
L 455.015863 171.096824 
L 455.352164 169.444049 
L 455.688465 170.633096 
L 456.024767 163.249116 
L 456.361068 149.004336 
L 456.697369 166.328747 
L 457.033671 201.191597 
L 457.369972 211.762222 
L 457.706274 189.990777 
L 458.042575 193.90274 
L 458.378876 171.560552 
L 458.715178 172.630694 
L 459.051479 187.339202 
L 459.38778 179.753084 
L 459.724082 188.932525 
L 460.060383 177.969514 
L 460.396685 190.026448 
L 461.069287 161.83415 
L 461.405589 213.605245 
L 461.74189 169.765092 
L 462.078191 165.983923 
L 462.414493 166.721132 
L 463.423397 185.139466 
L 463.759698 186.994379 
L 464.096 186.411746 
L 464.432301 183.748281 
L 464.768602 222.3923 
L 465.104904 140.978271 
L 465.441205 128.481389 
L 465.777506 188.04074 
L 466.113808 180.858898 
L 466.786411 259.8116 
L 467.122712 143.748749 
L 467.795315 176.471315 
L 468.467917 184.093105 
L 468.804219 181.524764 
L 469.14052 181.548545 
L 469.476821 178.445133 
L 469.813123 180.181141 
L 470.149424 223.569456 
L 470.485726 154.248032 
L 471.158328 180.300046 
L 471.49463 182.357097 
L 471.830931 177.6128 
L 472.167232 183.986091 
L 472.503534 185.49618 
L 472.839835 194.330797 
L 473.176137 194.794525 
L 473.512438 195.912229 
L 473.848739 142.619155 
L 474.185041 181.41775 
L 474.521342 179.657961 
L 474.857643 190.965795 
L 475.193945 181.774464 
L 475.530246 178.552147 
L 475.866548 186.173937 
L 476.202849 186.304732 
L 476.53915 172.048061 
L 476.875452 184.212009 
L 477.211753 180.086017 
L 477.548054 183.284553 
L 477.884356 178.599709 
L 478.220657 180.466512 
L 478.556958 181.298845 
L 478.89326 197.588785 
L 479.229561 188.30233 
L 479.565863 156.352645 
L 479.902164 191.703004 
L 480.238465 172.166966 
L 480.574767 186.601993 
L 480.911068 174.224017 
L 481.247369 181.144269 
L 481.583671 193.462793 
L 481.919972 183.177539 
L 482.256274 179.919551 
L 482.592575 161.881712 
L 482.928876 181.061036 
L 483.265178 183.593705 
L 483.601479 184.99678 
L 483.93778 178.397571 
L 484.274082 180.252484 
L 484.610383 185.591304 
L 484.946685 237.67155 
L 485.282986 181.358297 
L 486.964493 181.358297 
L 487.300794 238.18284 
L 487.637095 135.484875 
L 487.973397 105.937064 
L 488.309698 178.076528 
L 488.646 174.782869 
L 488.982301 156.756921 
L 489.318602 149.337269 
L 489.991205 229.27688 
L 490.327506 183.21321 
L 490.663808 187.874273 
L 491.000109 174.04566 
L 491.336411 181.251283 
L 491.672712 179.051547 
L 492.009013 190.549629 
L 492.345315 178.801847 
L 492.681616 183.034853 
L 493.017917 201.132144 
L 493.354219 161.501217 
L 493.69052 177.422553 
L 494.026821 205.305698 
L 494.363123 172.024281 
L 494.699424 163.86742 
L 495.035726 189.301129 
L 495.372027 167.731822 
L 495.708328 186.863584 
L 496.04463 192.987174 
L 496.380931 167.42267 
L 496.717232 176.32863 
L 497.053534 210.19268 
L 497.726137 161.406093 
L 498.062438 175.222816 
L 498.398739 184.378476 
L 498.735041 174.949335 
L 499.071342 179.693632 
L 499.743945 191.86947 
L 500.080246 184.842204 
L 500.416548 164.081448 
L 500.752849 173.629494 
L 501.08915 174.901774 
L 501.425452 230.822641 
L 501.761753 165.329947 
L 502.098054 179.527165 
L 502.434356 167.850727 
L 502.770657 214.057082 
L 503.106958 174.830431 
L 503.44326 178.338119 
L 503.779561 171.643786 
L 504.115863 210.929889 
L 504.452164 174.04566 
L 504.788465 175.151473 
L 505.124767 176.875591 
L 505.461068 180.086017 
L 505.797369 177.184743 
L 506.133671 173.201437 
L 506.469972 194.092988 
L 506.806274 157.49413 
L 507.142575 193.498464 
L 507.815178 168.029084 
L 508.151479 187.814821 
L 508.48778 168.19555 
L 508.824082 165.080248 
L 509.160383 202.689796 
L 509.832986 168.932759 
L 510.169287 180.989693 
L 510.505589 177.838719 
L 510.84189 209.503033 
L 511.178191 156.590454 
L 511.514493 184.663847 
L 511.850794 184.509271 
L 512.187095 186.863584 
L 512.523397 197.398538 
L 512.859698 184.794642 
L 513.196 180.311936 
L 513.532301 192.059718 
L 513.868602 166.269294 
L 514.204904 210.906108 
L 514.541205 194.081097 
L 514.877506 133.879662 
L 515.550109 201.881244 
L 515.886411 178.611599 
L 516.222712 175.246597 
L 516.559013 179.669851 
L 516.895315 180.763774 
L 517.231616 178.849409 
L 517.567917 191.34629 
L 517.904219 172.571242 
L 518.24052 198.825394 
L 518.576821 163.641501 
L 518.913123 178.480804 
L 519.249424 183.427239 
L 519.585726 172.166966 
L 519.922027 187.469997 
L 520.258328 172.595023 
L 520.59463 182.749482 
L 520.930931 182.975401 
L 521.267232 196.887248 
L 521.603534 177.149072 
L 521.939835 180.751883 
L 522.276137 180.739993 
L 522.612438 183.153758 
L 522.948739 178.742395 
L 523.285041 171.667567 
L 523.621342 206.36395 
L 524.293945 164.307367 
L 524.966548 224.021294 
L 525.302849 162.393002 
L 525.63915 173.379794 
L 525.975452 195.68631 
L 526.311753 180.240593 
L 526.648054 181.084817 
L 526.984356 183.9742 
L 527.320657 177.458224 
L 527.656958 179.206123 
L 527.99326 176.09082 
L 528.329561 176.982605 
L 528.665863 177.327429 
L 529.002164 184.116886 
L 529.338465 181.346407 
L 529.674767 177.339319 
L 530.011068 179.348808 
L 530.347369 183.153758 
L 530.683671 183.082415 
L 531.019972 191.560318 
L 531.356274 174.877993 
L 531.692575 178.63538 
L 532.028876 184.711409 
L 532.365178 179.372589 
L 532.701479 178.718614 
L 533.03778 172.642585 
L 533.374082 196.090586 
L 533.710383 186.162046 
L 534.046685 179.90766 
L 534.382986 184.544943 
L 534.719287 179.206123 
L 535.055589 178.219214 
L 535.39189 185.282152 
L 535.728191 178.195433 
L 536.064493 180.882679 
L 536.400794 179.158561 
L 536.737095 169.087335 
L 537.073397 187.137064 
L 537.409698 192.190513 
L 537.746 187.006269 
L 538.082301 170.906577 
L 538.754904 193.201203 
L 539.091205 177.149072 
L 539.427506 173.28467 
L 539.763808 177.291758 
L 540.100109 184.045543 
L 540.436411 183.7245 
L 540.772712 179.13478 
L 541.109013 189.669734 
L 541.781616 180.097908 
L 542.117917 183.45102 
L 542.454219 180.062236 
L 542.79052 182.773263 
L 543.126821 183.20132 
L 543.463123 176.34052 
L 544.135726 185.603194 
L 544.808328 168.908978 
L 545.14463 187.339202 
L 545.480931 185.472399 
L 545.817232 182.749482 
L 546.153534 192.88016 
L 546.489835 177.541457 
L 546.826137 192.654241 
L 547.162438 160.54998 
L 547.498739 182.606796 
L 547.835041 182.939729 
L 548.171342 181.001583 
L 548.843945 181.370188 
L 549.180246 175.080131 
L 549.516548 203.105962 
L 549.852849 146.091171 
L 550.18915 114.605214 
L 550.525452 187.113283 
L 550.861753 217.778799 
L 551.534356 170.644986 
L 551.870657 179.824427 
L 552.206958 183.260772 
L 552.54326 179.170451 
L 552.879561 185.829113 
L 553.215863 183.272663 
L 553.552164 177.172853 
L 553.888465 165.674771 
L 554.224767 182.642468 
L 554.561068 185.722099 
L 554.897369 181.41775 
L 555.233671 183.165648 
L 555.569972 188.385563 
L 555.906274 174.354812 
L 556.242575 178.005186 
L 556.578876 172.916066 
L 556.915178 196.95859 
L 557.251479 185.531851 
L 557.58778 178.457023 
L 557.924082 182.666249 
L 558.260383 180.680541 
L 558.596685 181.322626 
L 558.932986 178.183543 
L 559.269287 184.865985 
L 559.94189 181.489092 
L 560.278191 181.536654 
L 560.614493 170.514191 
L 560.950794 170.656877 
L 561.287095 190.59719 
L 561.623397 156.626125 
L 561.959698 280.905289 
L 562.296 144.866453 
L 562.632301 126.436229 
L 562.968602 194.15244 
L 563.304904 210.739642 
L 563.641205 160.538089 
L 563.977506 176.32863 
L 564.313808 184.116886 
L 564.650109 182.571125 
L 564.986411 168.052864 
L 565.322712 190.965795 
L 565.659013 186.423636 
L 565.995315 193.343888 
L 566.331616 171.013591 
L 566.667917 182.844606 
L 567.004219 177.172853 
L 567.34052 183.772062 
L 568.013123 175.638983 
L 568.349424 184.497381 
L 568.685726 177.755486 
L 569.022027 181.596107 
L 569.358328 179.764975 
L 569.69463 183.581815 
L 570.367232 179.467713 
L 570.703534 181.596107 
L 571.039835 176.721015 
L 571.376137 182.808934 
L 571.712438 178.908861 
L 572.048739 181.477202 
L 572.385041 186.066922 
L 572.721342 179.527165 
L 573.057643 180.240593 
L 573.393945 184.461709 
L 573.730246 183.510472 
L 574.066548 183.45102 
L 574.402849 176.911263 
L 574.73915 163.142102 
L 575.075452 180.680541 
L 575.748054 237.041355 
L 576.420657 136.329098 
L 576.756958 138.802315 
L 577.09326 180.050346 
L 577.429561 183.71261 
L 577.765863 181.393969 
L 578.102164 182.892168 
L 578.438465 186.459308 
L 578.774767 185.864784 
L 579.111068 180.728103 
L 579.447369 169.265692 
L 579.783671 201.857463 
L 580.119972 181.952821 
L 580.456274 236.090118 
L 581.128876 113.463729 
L 581.465178 211.45307 
L 581.801479 170.526082 
L 582.13778 154.854446 
L 582.474082 208.599358 
L 582.810383 177.208524 
L 583.146685 179.800646 
L 583.482986 198.076294 
L 583.819287 174.247798 
L 584.155589 183.938529 
L 584.49189 184.104995 
L 584.828191 164.604629 
L 585.164493 186.839803 
L 585.500794 186.554432 
L 585.837095 187.113283 
L 586.173397 190.3356 
L 586.509698 179.313137 
L 586.846 172.606913 
L 587.182301 221.262705 
L 587.518602 156.542892 
L 587.854904 172.26209 
L 588.191205 174.675855 
L 588.527506 163.070759 
L 588.863808 200.918116 
L 589.200109 146.982957 
L 589.536411 188.088302 
L 589.872712 211.262822 
L 590.209013 177.910062 
L 590.545315 179.681741 
L 590.881616 197.897937 
L 591.217917 162.511907 
L 591.554219 185.555632 
L 591.89052 169.301364 
L 592.226821 185.317823 
L 592.563123 180.835117 
L 592.899424 172.916066 
L 593.572027 188.682825 
L 593.908328 179.194232 
L 594.24463 177.898171 
L 594.580931 190.680424 
L 594.917232 192.654241 
L 595.253534 168.790073 
L 595.589835 172.76149 
L 595.926137 182.226301 
L 596.262438 199.645836 
L 596.598739 176.59022 
L 596.935041 178.706723 
L 597.271342 188.837401 
L 597.607643 177.077729 
L 597.943945 175.175254 
L 598.280246 179.90766 
L 598.616548 206.982254 
L 598.952849 142.131646 
L 599.28915 214.318673 
L 599.625452 192.915831 
L 599.961753 205.733755 
L 600.298054 129.575312 
L 600.634356 188.064521 
L 600.970657 178.694833 
L 601.306958 174.021879 
L 601.64326 176.435644 
L 601.979561 176.816139 
L 602.315863 181.917149 
L 602.652164 171.834033 
L 602.988465 204.83008 
L 603.324767 182.642468 
L 603.661068 180.704322 
L 603.997369 175.983806 
L 604.333671 174.723417 
L 604.669972 182.44033 
L 605.006274 172.987408 
L 605.342575 134.723885 
L 605.678876 150.906811 
L 606.015178 198.207089 
L 606.351479 300.488889 
L 607.024082 139.9438 
L 607.360383 223.379209 
L 607.696685 108.719433 
L 608.032986 112.048764 
L 608.369287 194.735073 
L 608.705589 180.002784 
L 609.04189 176.304849 
L 609.378191 174.402374 
L 609.714493 176.221615 
L 610.050794 173.807851 
L 610.387095 176.661563 
L 610.723397 169.872106 
L 611.059698 166.614118 
L 611.396 168.029084 
L 611.732301 208.13563 
L 612.068602 233.735806 
L 612.404904 139.456291 
L 612.741205 165.841238 
L 613.077506 163.998215 
L 613.413808 153.855647 
L 613.750109 280.655589 
L 614.086411 223.92617 
L 614.422712 197.600676 
L 614.759013 42.632216 
L 615.095315 183.617486 
L 615.431616 155.960259 
L 615.767917 172.416666 
L 616.104219 171.495155 
L 616.44052 181.358297 
L 618.79463 181.358297 
L 619.130931 227.594379 
L 619.467232 135.122215 
L 619.803534 181.358297 
L 620.139835 206.857404 
L 620.476137 246.268358 
L 620.812438 179.717413 
L 621.148739 173.28467 
L 621.485041 218.741926 
L 621.821342 282.998011 
L 622.157643 165.698552 
L 622.493945 178.694833 
L 622.830246 83.547314 
L 623.166548 152.286105 
L 623.502849 143.320693 
L 623.83915 210.121338 
L 624.175452 228.777481 
L 624.511753 169.134897 
L 624.848054 235.673952 
L 625.184356 180.716212 
L 625.520657 216.922685 
L 625.856958 135.61567 
L 626.19326 205.198684 
L 626.529561 164.010106 
L 626.865863 216.565971 
L 627.202164 122.084318 
L 627.538465 137.803516 
L 627.874767 172.297761 
L 628.211068 107.619565 
L 628.547369 235.786911 
L 628.883671 173.760289 
L 629.219972 222.106929 
L 629.892575 145.389634 
L 630.228876 165.746114 
L 630.565178 261.999446 
L 630.901479 155.900807 
L 631.23778 153.962661 
L 631.574082 180.276265 
L 631.910383 162.488126 
L 632.246685 174.830431 
L 632.582986 175.650873 
L 632.919287 167.065956 
L 633.255589 191.964594 
L 633.59189 146.382488 
L 633.928191 292.991949 
L 634.264493 115.378095 
L 634.600794 135.704848 
L 634.937095 227.891641 
L 635.273397 178.278666 
L 635.609698 216.268709 
L 635.946 137.708392 
L 636.282301 188.219097 
L 636.618602 141.751151 
L 636.954904 211.500632 
L 637.291205 373.151534 
L 637.627506 99.290292 
L 637.963808 142.119755 
L 638.300109 121.180643 
L 638.636411 188.908744 
L 638.972712 176.697234 
L 639.309013 276.838749 
L 639.645315 251.083997 
L 639.981616 178.587818 
L 640.317917 173.391684 
L 640.654219 119.908363 
L 640.99052 130.847592 
L 641.326821 163.677173 
L 641.663123 170.72822 
L 641.999424 298.550743 
L 642.335726 165.532085 
L 642.672027 91.573379 
L 643.34463 230.822641 
L 643.680931 137.327897 
L 644.353534 246.82721 
L 644.689835 167.815055 
L 645.026137 178.742395 
L 645.362438 217.897703 
L 645.698739 182.630577 
L 646.035041 236.589518 
L 646.371342 165.115919 
L 646.707643 185.75777 
L 647.043945 149.194583 
L 647.380246 172.844723 
L 647.716548 175.853011 
L 648.052849 237.493193 
L 648.38915 163.772296 
L 648.725452 212.487541 
L 649.061753 213.831163 
L 649.398054 140.359966 
L 649.734356 142.952088 
L 650.070657 166.91138 
L 650.406958 163.665282 
L 650.74326 197.541223 
L 651.415863 163.153992 
L 651.752164 179.800646 
L 652.088465 163.689063 
L 652.424767 204.104761 
L 652.761068 218.147403 
L 653.097369 149.087569 
L 653.433671 162.178974 
L 653.769972 170.74011 
L 654.106274 189.657843 
L 654.442575 170.323944 
L 654.778876 174.366703 
L 655.115178 138.243463 
L 655.451479 233.640682 
L 655.78778 203.771828 
L 656.124082 202.226067 
L 656.460383 177.458224 
L 656.796685 179.967113 
L 657.132986 175.56764 
L 657.469287 182.737592 
L 657.805589 167.220532 
L 658.14189 195.567406 
L 658.478191 174.782869 
L 658.814493 145.54421 
L 659.150794 251.060216 
L 659.487095 135.734574 
L 660.159698 213.569573 
L 660.496 175.080131 
L 660.832301 195.317706 
L 661.168602 187.244079 
L 661.504904 204.972765 
L 661.841205 209.336567 
L 662.177506 163.986325 
L 662.513808 163.35613 
L 662.850109 167.957741 
L 663.186411 162.963744 
L 663.522712 177.291758 
L 663.859013 171.037372 
L 664.195315 205.912112 
L 664.531616 155.21116 
L 664.867917 166.483323 
L 665.204219 192.666132 
L 665.54052 191.524647 
L 665.876821 171.703238 
L 666.213123 181.072926 
L 666.549424 179.63418 
L 666.885726 186.090703 
L 667.222027 177.684143 
L 667.558328 192.36887 
L 667.89463 181.096707 
L 668.230931 196.744562 
L 668.567232 171.976719 
L 669.239835 185.127575 
L 669.576137 225.138998 
L 669.912438 154.259922 
L 670.248739 162.048179 
L 670.585041 185.23459 
L 670.921342 180.763774 
L 671.257643 165.972033 
L 671.593945 181.120488 
L 671.930246 176.281068 
L 672.266548 177.160962 
L 672.602849 181.976602 
L 672.93915 178.005186 
L 673.275452 189.443815 
L 673.611753 191.227385 
L 673.948054 166.804365 
L 674.620657 186.923036 
L 674.956958 210.596956 
L 675.29326 197.553114 
L 675.629561 151.703472 
L 675.965863 179.420151 
L 676.302164 164.461943 
L 676.638465 217.505318 
L 676.974767 203.105962 
L 677.311068 110.800265 
L 677.647369 196.161929 
L 677.983671 183.534253 
L 678.319972 164.794876 
L 678.656274 183.320224 
L 678.992575 182.975401 
L 679.328876 172.202638 
L 679.665178 213.831163 
L 680.001479 146.352762 
L 680.33778 179.574727 
L 680.674082 156.614235 
L 681.682986 180.882679 
L 682.019287 175.686544 
L 682.355589 223.712142 
L 682.69189 170.847124 
L 683.028191 167.018394 
L 683.364493 207.517325 
L 683.700794 199.431808 
L 684.037095 155.187379 
L 684.373397 188.385563 
L 684.709698 155.710559 
L 685.046 181.69123 
L 685.382301 190.668533 
L 685.718602 186.494979 
L 686.054904 116.911965 
L 686.391205 235.079428 
L 686.727506 180.739993 
L 687.063808 184.437928 
L 687.736411 165.092138 
L 688.072712 179.432042 
L 688.409013 181.120488 
L 688.745315 174.485607 
L 689.081616 192.963393 
L 689.754219 182.999182 
L 690.09052 190.145353 
L 690.426821 165.1397 
L 690.763123 190.276148 
L 691.099424 195.638748 
L 691.435726 178.040857 
L 691.772027 132.512258 
L 692.108328 171.275181 
L 692.44463 224.663379 
L 692.780931 165.246714 
L 693.117232 190.371272 
L 693.453534 191.798128 
L 693.789835 163.700953 
L 694.126137 185.353494 
L 694.462438 169.848325 
L 694.798739 169.71753 
L 695.135041 187.660245 
L 695.471342 185.555632 
L 695.807643 178.231104 
L 696.143945 176.744796 
L 696.480246 199.705288 
L 696.816548 178.87319 
L 697.48915 193.557917 
L 697.825452 175.805449 
L 698.161753 188.968196 
L 698.498054 183.189429 
L 698.834356 195.448501 
L 699.170657 173.807851 
L 699.506958 184.23579 
L 699.84326 182.820825 
L 700.179561 155.246831 
L 700.515863 167.386998 
L 700.852164 197.243962 
L 701.188465 175.103912 
L 701.524767 169.919668 
L 701.861068 186.673336 
L 702.197369 169.669968 
L 702.533671 182.107397 
L 702.869972 186.316622 
L 703.206274 223.42677 
L 703.542575 149.11135 
L 704.215178 196.482972 
L 704.551479 138.457491 
L 704.88778 174.229962 
L 705.224082 181.358297 
L 705.560383 181.358297 
L 706.232986 201.916915 
L 706.569287 182.487892 
L 706.905589 184.033652 
L 707.24189 194.711292 
L 707.578191 162.226536 
L 707.914493 193.058517 
L 708.250794 188.528249 
L 708.587095 179.955222 
L 709.259698 178.159762 
L 709.596 162.785387 
L 709.932301 191.655442 
L 710.268602 197.018043 
L 710.604904 179.681741 
L 710.941205 135.205449 
L 711.277506 181.358297 
L 711.613808 201.459132 
L 711.950109 181.976602 
L 712.286411 193.439012 
L 712.959013 169.72942 
L 713.295315 171.691347 
L 713.631616 176.732906 
L 714.304219 206.958473 
L 714.64052 175.734106 
L 714.976821 193.724383 
L 715.313123 226.20914 
L 715.649424 143.76064 
L 715.985726 125.645513 
L 716.322027 185.407001 
L 716.658328 188.076411 
L 717.330931 174.152674 
L 717.667232 182.499782 
L 718.003534 178.260831 
L 718.339835 181.358297 
L 719.348739 181.358297 
L 719.685041 223.123564 
L 720.021342 168.492812 
L 720.357643 205.365151 
L 720.693945 199.051313 
L 721.030246 145.948486 
L 721.366548 209.633828 
L 721.702849 154.509622 
L 722.03915 165.448852 
L 722.375452 189.122772 
L 722.711753 169.622406 
L 723.048054 183.9742 
L 723.384356 178.088419 
L 723.720657 174.390484 
L 724.056958 190.609081 
L 724.729561 166.501158 
L 725.065863 181.358297 
L 726.747369 181.358297 
L 727.083671 203.658869 
L 727.419972 161.57256 
L 727.756274 200.811102 
L 728.092575 199.015641 
L 728.428876 205.412713 
L 728.765178 174.521279 
L 729.101479 191.381961 
L 729.43778 175.722216 
L 729.774082 174.699636 
L 730.110383 168.813854 
L 730.446685 166.316856 
L 730.782986 154.372882 
L 731.119287 197.487716 
L 731.455589 165.228879 
L 731.79189 190.555574 
L 732.128191 196.304615 
L 732.464493 204.176104 
L 732.800794 137.41113 
L 733.137095 183.094306 
L 733.473397 188.528249 
L 733.809698 178.314338 
L 734.146 172.482064 
L 734.482301 181.358297 
L 741.880931 181.358297 
L 742.217232 186.881419 
L 742.553534 175.835175 
L 742.889835 181.358297 
L 744.571342 181.358297 
L 744.907643 183.540198 
L 745.243945 179.176397 
L 745.580246 253.456146 
L 745.916548 144.616754 
L 746.252849 172.452337 
L 746.58915 154.907953 
L 746.925452 192.909886 
L 747.261753 183.950419 
L 747.598054 167.214587 
L 747.934356 182.172794 
L 748.270657 181.358297 
L 748.606958 321.927401 
L 748.94326 164.295477 
L 749.279561 123.570626 
L 749.615863 196.411629 
L 749.952164 202.594672 
L 750.288465 165.068357 
L 750.624767 182.654358 
L 750.961068 140.657228 
L 751.633671 213.165297 
L 751.969972 253.462091 
L 752.642575 120.728805 
L 752.978876 163.403692 
L 753.315178 165.115919 
L 753.651479 164.450053 
L 753.98778 155.003077 
L 754.324082 192.517501 
L 754.660383 344.03178 
L 754.996685 201.726668 
L 755.332986 112.524382 
L 755.669287 241.547843 
L 756.005589 166.970832 
L 756.34189 129.25427 
L 757.014493 182.154959 
L 757.350794 151.739143 
L 757.687095 284.056263 
L 758.023397 150.157711 
L 758.359698 152.381229 
L 758.696 160.906694 
L 759.032301 333.841649 
L 759.368602 101.656495 
L 759.704904 148.742746 
L 760.041205 142.99965 
L 760.377506 165.460743 
L 760.713808 244.235088 
L 761.050109 150.312287 
L 761.386411 135.187613 
L 761.722712 136.602579 
L 762.059013 168.082591 
L 762.395315 351.707076 
L 762.731616 133.035438 
L 763.067917 116.757389 
L 763.404219 170.24071 
L 763.74052 138.398039 
L 764.749424 250.227884 
L 765.085726 115.532671 
L 765.422027 168.266893 
L 765.758328 162.743771 
L 766.09463 181.358297 
L 766.430931 181.358297 
L 767.103534 257.790221 
L 767.439835 158.576162 
L 767.776137 126.70971 
L 768.112438 155.579764 
L 768.448739 173.861358 
L 769.121342 188.772004 
L 769.457643 182.380878 
L 769.793945 172.922011 
L 770.130246 181.358297 
L 770.466548 207.677847 
L 770.802849 176.923153 
L 771.13915 159.473892 
L 771.811753 260.04941 
L 772.148054 109.979822 
L 772.484356 161.132613 
L 772.820657 277.706753 
L 773.829561 124.391069 
L 774.165863 156.352645 
L 774.502164 170.24071 
L 774.838465 196.268943 
L 775.174767 232.213826 
L 775.511068 154.081565 
L 775.847369 157.779501 
L 776.183671 150.050697 
L 776.519972 172.678256 
L 776.856274 249.585798 
L 777.192575 125.211511 
L 777.528876 163.463144 
L 777.865178 179.931441 
L 778.201479 156.459659 
L 778.53778 207.790806 
L 778.874082 163.510706 
L 779.210383 244.258869 
L 779.546685 106.703999 
L 779.882986 215.90605 
L 780.219287 180.371389 
L 780.555589 178.326228 
L 780.89189 185.793442 
L 781.228191 146.394378 
L 781.564493 200.840828 
L 781.900794 186.435527 
L 782.237095 156.798537 
L 782.573397 181.358297 
L 785.600109 181.358297 
L 785.936411 192.065663 
L 786.272712 170.650932 
L 786.609013 181.358297 
L 786.945315 224.253158 
L 787.281616 151.358648 
L 787.954219 181.358297 
L 788.963123 181.358297 
L 789.299424 259.17546 
L 789.635726 105.354431 
L 789.972027 179.545001 
L 790.308328 181.358297 
L 791.653534 181.358297 
L 791.989835 192.029992 
L 792.326137 170.686603 
L 792.662438 181.358297 
L 794.007643 181.358297 
L 794.343945 202.124998 
L 794.680246 304.579209 
L 795.016548 115.25919 
L 795.68915 153.124383 
L 796.025452 181.358297 
L 803.424082 181.358297 
L 803.760383 185.192973 
L 804.096685 177.523622 
L 804.432986 190.769602 
L 804.769287 219.08675 
L 805.105589 134.21854 
L 805.44189 181.358297 
L 812.504219 181.358297 
L 812.504219 181.358297 
" clip-path="url(#p3aea9fac2c)" style="fill: none; stroke: #87ceeb; stroke-linecap: square"/>
   </g>
   <g id="patch_3">
    <path d="M 39.179219 389.6775 
L 39.179219 26.10625 
" style="fill: none; stroke: #000000; stroke-width: 0.8; stroke-linejoin: miter; stroke-linecap: square"/>
   </g>
   <g id="patch_4">
    <path d="M 849.329219 389.6775 
L 849.329219 26.10625 
" style="fill: none; stroke: #000000; stroke-width: 0.8; stroke-linejoin: miter; stroke-linecap: square"/>
   </g>
   <g id="patch_5">
    <path d="M 39.179219 389.6775 
L 849.329219 389.6775 
" style="fill: none; stroke: #000000; stroke-width: 0.8; stroke-linejoin: miter; stroke-linecap: square"/>
   </g>
   <g id="patch_6">
    <path d="M 39.179219 26.10625 
L 849.329219 26.10625 
" style="fill: none; stroke: #000000; stroke-width: 0.8; stroke-linejoin: miter; stroke-linecap: square"/>
   </g>
   <g id="text_14">
    <!-- 一阶差分后的 NH3_N_mg/L 值（用于ACF/PACF） -->
    <g transform="translate(333.968594 16.10625) scale(0.12 -0.12)">
     <defs>
      <path id="DejaVuSans-4e00" d="M 319 -1131 
L 319 4513 
L 3519 4513 
L 3519 -1131 
L 319 -1131 
z
M 678 -775 
L 3163 -775 
L 3163 4153 
L 678 4153 
L 678 -775 
z
" transform="scale(0.015625)"/>
      <path id="DejaVuSans-9636" d="M 319 -1131 
L 319 4513 
L 3519 4513 
L 3519 -1131 
L 319 -1131 
z
M 678 -775 
L 3163 -775 
L 3163 4153 
L 678 4153 
L 678 -775 
z
" transform="scale(0.015625)"/>
      <path id="DejaVuSans-ff08" d="M 319 -1131 
L 319 4513 
L 3519 4513 
L 3519 -1131 
L 319 -1131 
z
M 678 -775 
L 3163 -775 
L 3163 4153 
L 678 4153 
L 678 -775 
z
" transform="scale(0.015625)"/>
      <path id="DejaVuSans-7528" d="M 319 -1131 
L 319 4513 
L 3519 4513 
L 3519 -1131 
L 319 -1131 
z
M 678 -775 
L 3163 -775 
L 3163 4153 
L 678 4153 
L 678 -775 
z
" transform="scale(0.015625)"/>
      <path id="DejaVuSans-4e8e" d="M 319 -1131 
L 319 4513 
L 3519 4513 
L 3519 -1131 
L 319 -1131 
z
M 678 -775 
L 3163 -775 
L 3163 4153 
L 678 4153 
L 678 -775 
z
" transform="scale(0.015625)"/>
      <path id="DejaVuSans-41" d="M 2188 4044 
L 1331 1722 
L 3047 1722 
L 2188 4044 
z
M 1831 4666 
L 2547 4666 
L 4325 0 
L 3669 0 
L 3244 1197 
L 1141 1197 
L 716 0 
L 50 0 
L 1831 4666 
z
" transform="scale(0.015625)"/>
      <path id="DejaVuSans-43" d="M 4122 4306 
L 4122 3641 
Q 3803 3938 3442 4084 
Q 3081 4231 2675 4231 
Q 1875 4231 1450 3742 
Q 1025 3253 1025 2328 
Q 1025 1406 1450 917 
Q 1875 428 2675 428 
Q 3081 428 3442 575 
Q 3803 722 4122 1019 
L 4122 359 
Q 3791 134 3420 21 
Q 3050 -91 2638 -91 
Q 1578 -91 968 557 
Q 359 1206 359 2328 
Q 359 3453 968 4101 
Q 1578 4750 2638 4750 
Q 3056 4750 3426 4639 
Q 3797 4528 4122 4306 
z
" transform="scale(0.015625)"/>
      <path id="DejaVuSans-46" d="M 628 4666 
L 3309 4666 
L 3309 4134 
L 1259 4134 
L 1259 2759 
L 3109 2759 
L 3109 2228 
L 1259 2228 
L 1259 0 
L 628 0 
L 628 4666 
z
" transform="scale(0.015625)"/>
      <path id="DejaVuSans-50" d="M 1259 4147 
L 1259 2394 
L 2053 2394 
Q 2494 2394 2734 2622 
Q 2975 2850 2975 3272 
Q 2975 3691 2734 3919 
Q 2494 4147 2053 4147 
L 1259 4147 
z
M 628 4666 
L 2053 4666 
Q 2838 4666 3239 4311 
Q 3641 3956 3641 3272 
Q 3641 2581 3239 2228 
Q 2838 1875 2053 1875 
L 1259 1875 
L 1259 0 
L 628 0 
L 628 4666 
z
" transform="scale(0.015625)"/>
      <path id="DejaVuSans-ff09" d="M 319 -1131 
L 319 4513 
L 3519 4513 
L 3519 -1131 
L 319 -1131 
z
M 678 -775 
L 3163 -775 
L 3163 4153 
L 678 4153 
L 678 -775 
z
" transform="scale(0.015625)"/>
     </defs>
     <use xlink:href="#DejaVuSans-4e00"/>
     <use xlink:href="#DejaVuSans-9636" transform="translate(60.009766 0)"/>
     <use xlink:href="#DejaVuSans-5dee" transform="translate(120.019531 0)"/>
     <use xlink:href="#DejaVuSans-5206" transform="translate(180.029297 0)"/>
     <use xlink:href="#DejaVuSans-540e" transform="translate(240.039062 0)"/>
     <use xlink:href="#DejaVuSans-7684" transform="translate(300.048828 0)"/>
     <use xlink:href="#DejaVuSans-20" transform="translate(360.058594 0)"/>
     <use xlink:href="#DejaVuSans-4e" transform="translate(391.845703 0)"/>
     <use xlink:href="#DejaVuSans-48" transform="translate(466.650391 0)"/>
     <use xlink:href="#DejaVuSans-33" transform="translate(541.845703 0)"/>
     <use xlink:href="#DejaVuSans-5f" transform="translate(605.46875 0)"/>
     <use xlink:href="#DejaVuSans-4e" transform="translate(655.46875 0)"/>
     <use xlink:href="#DejaVuSans-5f" transform="translate(730.273438 0)"/>
     <use xlink:href="#DejaVuSans-6d" transform="translate(780.273438 0)"/>
     <use xlink:href="#DejaVuSans-67" transform="translate(877.685547 0)"/>
     <use xlink:href="#DejaVuSans-2f" transform="translate(941.162109 0)"/>
     <use xlink:href="#DejaVuSans-4c" transform="translate(974.853516 0)"/>
     <use xlink:href="#DejaVuSans-20" transform="translate(1030.566406 0)"/>
     <use xlink:href="#DejaVuSans-503c" transform="translate(1062.353516 0)"/>
     <use xlink:href="#DejaVuSans-ff08" transform="translate(1122.363281 0)"/>
     <use xlink:href="#DejaVuSans-7528" transform="translate(1182.373047 0)"/>
     <use xlink:href="#DejaVuSans-4e8e" transform="translate(1242.382812 0)"/>
     <use xlink:href="#DejaVuSans-41" transform="translate(1302.392578 0)"/>
     <use xlink:href="#DejaVuSans-43" transform="translate(1369.050781 0)"/>
     <use xlink:href="#DejaVuSans-46" transform="translate(1438.875 0)"/>
     <use xlink:href="#DejaVuSans-2f" transform="translate(1496.394531 0)"/>
     <use xlink:href="#DejaVuSans-50" transform="translate(1530.085938 0)"/>
     <use xlink:href="#DejaVuSans-41" transform="translate(1584.013672 0)"/>
     <use xlink:href="#DejaVuSans-43" transform="translate(1650.671875 0)"/>
     <use xlink:href="#DejaVuSans-46" transform="translate(1720.496094 0)"/>
     <use xlink:href="#DejaVuSans-ff09" transform="translate(1778.015625 0)"/>
    </g>
   </g>
   <g id="legend_1">
    <g id="patch_7">
     <path d="M 648.800781 46.766875 
L 843.029219 46.766875 
Q 844.829219 46.766875 844.829219 44.966875 
L 844.829219 32.40625 
Q 844.829219 30.60625 843.029219 30.60625 
L 648.800781 30.60625 
Q 647.000781 30.60625 647.000781 32.40625 
L 647.000781 44.966875 
Q 647.000781 46.766875 648.800781 46.766875 
z
" style="fill: #ffffff; opacity: 0.8; stroke: #cccccc; stroke-width: 0.5; stroke-linejoin: miter"/>
    </g>
    <g id="line2d_24">
     <path d="M 650.600781 37.894844 
L 659.600781 37.894844 
L 668.600781 37.894844 
" style="fill: none; stroke: #87ceeb; stroke-linecap: square"/>
    </g>
    <g id="text_15">
     <!-- 一阶差分后的 NH3_N_mg/L 值（用于ACF/PACF） -->
     <g transform="translate(675.800781 41.044844) scale(0.09 -0.09)">
      <use xlink:href="#DejaVuSans-4e00"/>
      <use xlink:href="#DejaVuSans-9636" transform="translate(60.009766 0)"/>
      <use xlink:href="#DejaVuSans-5dee" transform="translate(120.019531 0)"/>
      <use xlink:href="#DejaVuSans-5206" transform="translate(180.029297 0)"/>
      <use xlink:href="#DejaVuSans-540e" transform="translate(240.039062 0)"/>
      <use xlink:href="#DejaVuSans-7684" transform="translate(300.048828 0)"/>
      <use xlink:href="#DejaVuSans-20" transform="translate(360.058594 0)"/>
      <use xlink:href="#DejaVuSans-4e" transform="translate(391.845703 0)"/>
      <use xlink:href="#DejaVuSans-48" transform="translate(466.650391 0)"/>
      <use xlink:href="#DejaVuSans-33" transform="translate(541.845703 0)"/>
      <use xlink:href="#DejaVuSans-5f" transform="translate(605.46875 0)"/>
      <use xlink:href="#DejaVuSans-4e" transform="translate(655.46875 0)"/>
      <use xlink:href="#DejaVuSans-5f" transform="translate(730.273438 0)"/>
      <use xlink:href="#DejaVuSans-6d" transform="translate(780.273438 0)"/>
      <use xlink:href="#DejaVuSans-67" transform="translate(877.685547 0)"/>
      <use xlink:href="#DejaVuSans-2f" transform="translate(941.162109 0)"/>
      <use xlink:href="#DejaVuSans-4c" transform="translate(974.853516 0)"/>
      <use xlink:href="#DejaVuSans-20" transform="translate(1030.566406 0)"/>
      <use xlink:href="#DejaVuSans-503c" transform="translate(1062.353516 0)"/>
      <use xlink:href="#DejaVuSans-ff08" transform="translate(1122.363281 0)"/>
      <use xlink:href="#DejaVuSans-7528" transform="translate(1182.373047 0)"/>
      <use xlink:href="#DejaVuSans-4e8e" transform="translate(1242.382812 0)"/>
      <use xlink:href="#DejaVuSans-41" transform="translate(1302.392578 0)"/>
      <use xlink:href="#DejaVuSans-43" transform="translate(1369.050781 0)"/>
      <use xlink:href="#DejaVuSans-46" transform="translate(1438.875 0)"/>
      <use xlink:href="#DejaVuSans-2f" transform="translate(1496.394531 0)"/>
      <use xlink:href="#DejaVuSans-50" transform="translate(1530.085938 0)"/>
      <use xlink:href="#DejaVuSans-41" transform="translate(1584.013672 0)"/>
      <use xlink:href="#DejaVuSans-43" transform="translate(1650.671875 0)"/>
      <use xlink:href="#DejaVuSans-46" transform="translate(1720.496094 0)"/>
      <use xlink:href="#DejaVuSans-ff09" transform="translate(1778.015625 0)"/>
     </g>
    </g>
   </g>
  </g>
 </g>
 <defs>
  <clipPath id="p3aea9fac2c">
   <rect x="39.179219" y="26.10625" width="810.15" height="363.57125"/>
  </clipPath>
 </defs>
</svg>
