<?xml version="1.0" encoding="utf-8" standalone="no"?>
<!DOCTYPE svg PUBLIC "-//W3C//DTD SVG 1.1//EN"
  "http://www.w3.org/Graphics/SVG/1.1/DTD/svg11.dtd">
<svg xmlns:xlink="http://www.w3.org/1999/xlink" width="856.465pt" height="423.709687pt" viewBox="0 0 856.465 423.709687" xmlns="http://www.w3.org/2000/svg" version="1.1">
 <metadata>
  <rdf:RDF xmlns:dc="http://purl.org/dc/elements/1.1/" xmlns:cc="http://creativecommons.org/ns#" xmlns:rdf="http://www.w3.org/1999/02/22-rdf-syntax-ns#">
   <cc:Work>
    <dc:type rdf:resource="http://purl.org/dc/dcmitype/StillImage"/>
    <dc:date>2025-04-23T00:05:00.262874</dc:date>
    <dc:format>image/svg+xml</dc:format>
    <dc:creator>
     <cc:Agent>
      <dc:title>Matplotlib v3.10.0, https://matplotlib.org/</dc:title>
     </cc:Agent>
    </dc:creator>
   </cc:Work>
  </rdf:RDF>
 </metadata>
 <defs>
  <style type="text/css">*{stroke-linejoin: round; stroke-linecap: butt}</style>
 </defs>
 <g id="figure_1">
  <g id="patch_1">
   <path d="M 0 423.709687 
L 856.465 423.709687 
L 856.465 0 
L 0 0 
z
" style="fill: #ffffff"/>
  </g>
  <g id="axes_1">
   <g id="patch_2">
    <path d="M 37.73125 392.439375 
L 849.265 392.439375 
L 849.265 27.090625 
L 37.73125 27.090625 
z
" style="fill: #ffffff"/>
   </g>
   <g id="matplotlib.axis_1">
    <g id="xtick_1">
     <g id="line2d_1">
      <path d="M 73.945396 392.439375 
L 73.945396 27.090625 
" clip-path="url(#pbc94aca735)" style="fill: none; stroke-dasharray: 1.85,0.8; stroke-dashoffset: 0; stroke: #b2b2b2; stroke-opacity: 0.3; stroke-width: 0.5"/>
     </g>
     <g id="line2d_2">
      <defs>
       <path id="m855bb23618" d="M 0 0 
L 0 -3.5 
" style="stroke: #000000; stroke-width: 0.8"/>
      </defs>
      <g>
       <use xlink:href="#m855bb23618" x="73.945396" y="392.439375" style="stroke: #000000; stroke-width: 0.8"/>
      </g>
     </g>
     <g id="text_1">
      <!-- 0 -->
      <g transform="translate(71.695396 402.126875) scale(0.09 -0.09)">
       <defs>
        <path id="SimHei-30" d="M 225 2537 
Q 250 3200 412 3587 
Q 575 3975 875 4225 
Q 1175 4475 1612 4475 
Q 2050 4475 2375 4112 
Q 2700 3750 2800 3200 
Q 2900 2650 2862 1937 
Q 2825 1225 2612 775 
Q 2400 325 1975 150 
Q 1550 -25 1125 187 
Q 700 400 525 750 
Q 350 1100 275 1487 
Q 200 1875 225 2537 
z
M 750 2687 
Q 675 2000 800 1462 
Q 925 925 1212 700 
Q 1500 475 1800 612 
Q 2100 750 2237 1162 
Q 2375 1575 2375 2062 
Q 2375 2550 2337 2950 
Q 2300 3350 2112 3675 
Q 1925 4000 1612 4012 
Q 1300 4025 1062 3700 
Q 825 3375 750 2687 
z
" transform="scale(0.015625)"/>
       </defs>
       <use xlink:href="#SimHei-30"/>
      </g>
     </g>
    </g>
    <g id="xtick_2">
     <g id="line2d_3">
      <path d="M 242.383285 392.439375 
L 242.383285 27.090625 
" clip-path="url(#pbc94aca735)" style="fill: none; stroke-dasharray: 1.85,0.8; stroke-dashoffset: 0; stroke: #b2b2b2; stroke-opacity: 0.3; stroke-width: 0.5"/>
     </g>
     <g id="line2d_4">
      <g>
       <use xlink:href="#m855bb23618" x="242.383285" y="392.439375" style="stroke: #000000; stroke-width: 0.8"/>
      </g>
     </g>
     <g id="text_2">
      <!-- 500 -->
      <g transform="translate(235.633285 402.126875) scale(0.09 -0.09)">
       <defs>
        <path id="SimHei-35" d="M 550 1325 
Q 725 650 1150 575 
Q 1575 500 1837 662 
Q 2100 825 2212 1087 
Q 2325 1350 2312 1675 
Q 2300 2000 2137 2225 
Q 1975 2450 1725 2525 
Q 1475 2600 1162 2525 
Q 850 2450 650 2175 
L 225 2225 
Q 275 2375 700 4375 
L 2675 4375 
L 2675 3925 
L 1075 3925 
Q 950 3250 825 2850 
Q 1200 3025 1525 3012 
Q 1850 3000 2150 2862 
Q 2450 2725 2587 2487 
Q 2725 2250 2787 2012 
Q 2850 1775 2837 1500 
Q 2825 1225 2725 937 
Q 2625 650 2425 462 
Q 2225 275 1937 162 
Q 1650 50 1275 75 
Q 900 100 562 350 
Q 225 600 100 1200 
L 550 1325 
z
" transform="scale(0.015625)"/>
       </defs>
       <use xlink:href="#SimHei-35"/>
       <use xlink:href="#SimHei-30" transform="translate(50 0)"/>
       <use xlink:href="#SimHei-30" transform="translate(100 0)"/>
      </g>
     </g>
    </g>
    <g id="xtick_3">
     <g id="line2d_5">
      <path d="M 410.821175 392.439375 
L 410.821175 27.090625 
" clip-path="url(#pbc94aca735)" style="fill: none; stroke-dasharray: 1.85,0.8; stroke-dashoffset: 0; stroke: #b2b2b2; stroke-opacity: 0.3; stroke-width: 0.5"/>
     </g>
     <g id="line2d_6">
      <g>
       <use xlink:href="#m855bb23618" x="410.821175" y="392.439375" style="stroke: #000000; stroke-width: 0.8"/>
      </g>
     </g>
     <g id="text_3">
      <!-- 1000 -->
      <g transform="translate(401.821175 402.126875) scale(0.09 -0.09)">
       <defs>
        <path id="SimHei-31" d="M 1400 3600 
Q 1075 3275 575 2975 
L 575 3450 
Q 1200 3875 1600 4450 
L 1900 4450 
L 1900 150 
L 1400 150 
L 1400 3600 
z
" transform="scale(0.015625)"/>
       </defs>
       <use xlink:href="#SimHei-31"/>
       <use xlink:href="#SimHei-30" transform="translate(50 0)"/>
       <use xlink:href="#SimHei-30" transform="translate(100 0)"/>
       <use xlink:href="#SimHei-30" transform="translate(150 0)"/>
      </g>
     </g>
    </g>
    <g id="xtick_4">
     <g id="line2d_7">
      <path d="M 579.259064 392.439375 
L 579.259064 27.090625 
" clip-path="url(#pbc94aca735)" style="fill: none; stroke-dasharray: 1.85,0.8; stroke-dashoffset: 0; stroke: #b2b2b2; stroke-opacity: 0.3; stroke-width: 0.5"/>
     </g>
     <g id="line2d_8">
      <g>
       <use xlink:href="#m855bb23618" x="579.259064" y="392.439375" style="stroke: #000000; stroke-width: 0.8"/>
      </g>
     </g>
     <g id="text_4">
      <!-- 1500 -->
      <g transform="translate(570.259064 402.126875) scale(0.09 -0.09)">
       <use xlink:href="#SimHei-31"/>
       <use xlink:href="#SimHei-35" transform="translate(50 0)"/>
       <use xlink:href="#SimHei-30" transform="translate(100 0)"/>
       <use xlink:href="#SimHei-30" transform="translate(150 0)"/>
      </g>
     </g>
    </g>
    <g id="xtick_5">
     <g id="line2d_9">
      <path d="M 747.696953 392.439375 
L 747.696953 27.090625 
" clip-path="url(#pbc94aca735)" style="fill: none; stroke-dasharray: 1.85,0.8; stroke-dashoffset: 0; stroke: #b2b2b2; stroke-opacity: 0.3; stroke-width: 0.5"/>
     </g>
     <g id="line2d_10">
      <g>
       <use xlink:href="#m855bb23618" x="747.696953" y="392.439375" style="stroke: #000000; stroke-width: 0.8"/>
      </g>
     </g>
     <g id="text_5">
      <!-- 2000 -->
      <g transform="translate(738.696953 402.126875) scale(0.09 -0.09)">
       <defs>
        <path id="SimHei-32" d="M 300 250 
Q 325 625 650 925 
Q 975 1225 1475 1862 
Q 1975 2500 2125 2850 
Q 2275 3200 2237 3450 
Q 2200 3700 2000 3862 
Q 1800 4025 1537 4000 
Q 1275 3975 1037 3800 
Q 800 3625 675 3275 
L 200 3350 
Q 400 3925 712 4187 
Q 1025 4450 1450 4475 
Q 1700 4500 1900 4462 
Q 2100 4425 2312 4287 
Q 2525 4150 2662 3875 
Q 2800 3600 2762 3212 
Q 2725 2825 2375 2287 
Q 2025 1750 1025 600 
L 2825 600 
L 2825 150 
L 300 150 
L 300 250 
z
" transform="scale(0.015625)"/>
       </defs>
       <use xlink:href="#SimHei-32"/>
       <use xlink:href="#SimHei-30" transform="translate(50 0)"/>
       <use xlink:href="#SimHei-30" transform="translate(100 0)"/>
       <use xlink:href="#SimHei-30" transform="translate(150 0)"/>
      </g>
     </g>
    </g>
    <g id="text_6">
     <!-- 时间 / 序号 -->
     <g transform="translate(415.998125 415.259687) scale(0.1 -0.1)">
      <defs>
       <path id="SimHei-65f6" d="M 2525 4575 
Q 2500 3675 2500 2400 
Q 2500 1125 2525 400 
L 2000 400 
L 2000 875 
L 1000 875 
L 1000 50 
L 475 50 
Q 500 1200 500 2350 
Q 500 3525 475 4575 
L 2525 4575 
z
M 4875 3825 
Q 4875 4575 4850 5225 
L 5400 5225 
Q 5375 4575 5375 3825 
Q 5750 3825 6175 3850 
L 6175 3375 
Q 5750 3400 5375 3400 
L 5375 50 
Q 5375 -325 5075 -425 
Q 4775 -525 4300 -575 
Q 4300 -275 4025 0 
Q 4500 -50 4687 -25 
Q 4875 0 4875 300 
L 4875 3400 
Q 3625 3400 2775 3375 
L 2775 3850 
Q 3575 3825 4875 3825 
z
M 2000 1300 
L 2000 2550 
L 1000 2550 
L 1000 1300 
L 2000 1300 
z
M 2000 2975 
L 2000 4150 
L 1000 4150 
L 1000 2975 
L 2000 2975 
z
M 3550 2725 
Q 3875 2200 4175 1600 
Q 3925 1525 3650 1375 
Q 3450 1975 3075 2500 
Q 3300 2600 3550 2725 
z
" transform="scale(0.015625)"/>
       <path id="SimHei-95f4" d="M 4450 3550 
Q 4425 3075 4425 2725 
L 4425 1400 
Q 4425 1075 4450 625 
L 1925 625 
Q 1950 1075 1950 1425 
L 1950 2725 
Q 1950 3075 1925 3550 
L 4450 3550 
z
M 5800 4875 
Q 5775 4400 5775 3925 
L 5775 250 
Q 5800 -325 5462 -450 
Q 5125 -575 4725 -625 
Q 4700 -325 4525 -25 
Q 5000 -50 5137 25 
Q 5275 100 5275 350 
L 5275 4450 
L 3775 4450 
Q 3175 4450 2650 4425 
L 2650 4900 
Q 3175 4875 3775 4875 
L 5800 4875 
z
M 550 -525 
Q 600 -25 600 525 
L 600 3150 
Q 600 3675 550 4025 
L 1125 4025 
Q 1100 3650 1100 3300 
L 1100 500 
Q 1100 0 1125 -525 
L 550 -525 
z
M 3950 1025 
L 3950 1950 
L 2425 1950 
L 2425 1025 
L 3950 1025 
z
M 3950 2350 
L 3950 3150 
L 2425 3150 
L 2425 2350 
L 3950 2350 
z
M 1525 5300 
Q 1750 5000 2225 4350 
Q 1950 4225 1700 4075 
Q 1450 4575 1075 5025 
Q 1350 5225 1525 5300 
z
" transform="scale(0.015625)"/>
       <path id="SimHei-20" transform="scale(0.015625)"/>
       <path id="SimHei-2f" d="M 3000 4550 
L 350 -175 
L 100 -25 
L 2750 4700 
L 3000 4550 
z
" transform="scale(0.015625)"/>
       <path id="SimHei-5e8f" d="M 4000 2075 
L 5975 2075 
Q 5750 1525 5575 1025 
Q 5325 1100 5050 1150 
Q 5175 1450 5275 1700 
L 4050 1700 
L 4050 150 
Q 4050 -375 3762 -462 
Q 3475 -550 2950 -575 
Q 2875 -300 2750 0 
Q 3350 -75 3475 25 
Q 3600 125 3575 375 
L 3575 1700 
L 2450 1700 
Q 2050 1700 1675 1675 
L 1675 2100 
Q 2100 2075 2425 2075 
L 3675 2075 
Q 3325 2400 2875 2775 
Q 2975 2875 3250 3100 
Q 3400 2975 3725 2725 
L 4575 3275 
L 3000 3275 
Q 2400 3275 1950 3250 
L 1950 3700 
Q 2400 3675 3000 3675 
L 5400 3675 
L 5400 3250 
Q 4700 2875 4025 2450 
L 4275 2250 
L 4000 2075 
z
M 3725 5275 
Q 3825 4925 3925 4525 
L 4850 4525 
Q 5425 4525 6000 4550 
L 6000 4125 
Q 5425 4150 4850 4150 
L 1400 4150 
Q 1400 2750 1362 2137 
Q 1325 1525 1200 887 
Q 1075 250 775 -350 
Q 625 -250 250 -125 
Q 475 300 600 700 
Q 725 1100 800 1637 
Q 875 2175 875 2825 
Q 875 3500 850 4525 
L 3350 4525 
Q 3275 4825 3150 5150 
Q 3425 5200 3725 5275 
z
" transform="scale(0.015625)"/>
       <path id="SimHei-53f7" d="M 5025 4925 
Q 5000 4550 5000 4075 
Q 5000 3600 5025 3175 
L 1400 3175 
Q 1425 3525 1425 4000 
Q 1425 4500 1400 4925 
L 5025 4925 
z
M 5175 2625 
Q 5650 2625 6025 2650 
L 6025 2200 
Q 5650 2225 5175 2225 
L 2450 2225 
Q 2350 1875 2225 1450 
L 5175 1450 
Q 5100 1050 5062 775 
Q 5025 500 4950 112 
Q 4875 -275 4650 -412 
Q 4425 -550 3225 -625 
Q 3125 -350 2975 -50 
Q 3875 -75 4112 -50 
Q 4350 -25 4425 212 
Q 4500 450 4575 1025 
L 1600 1025 
Q 1825 1625 1950 2225 
L 1350 2225 
Q 825 2225 375 2200 
L 375 2650 
Q 825 2625 1350 2625 
L 5175 2625 
z
M 4525 3575 
L 4525 4525 
L 1900 4525 
L 1900 3575 
L 4525 3575 
z
" transform="scale(0.015625)"/>
      </defs>
      <use xlink:href="#SimHei-65f6"/>
      <use xlink:href="#SimHei-95f4" transform="translate(100 0)"/>
      <use xlink:href="#SimHei-20" transform="translate(200 0)"/>
      <use xlink:href="#SimHei-2f" transform="translate(250 0)"/>
      <use xlink:href="#SimHei-20" transform="translate(300 0)"/>
      <use xlink:href="#SimHei-5e8f" transform="translate(350 0)"/>
      <use xlink:href="#SimHei-53f7" transform="translate(450 0)"/>
     </g>
    </g>
   </g>
   <g id="matplotlib.axis_2">
    <g id="ytick_1">
     <g id="line2d_11">
      <path d="M 37.73125 362.330696 
L 849.265 362.330696 
" clip-path="url(#pbc94aca735)" style="fill: none; stroke-dasharray: 1.85,0.8; stroke-dashoffset: 0; stroke: #b2b2b2; stroke-opacity: 0.3; stroke-width: 0.5"/>
     </g>
     <g id="line2d_12">
      <defs>
       <path id="m8fafaeae4b" d="M 0 0 
L 3.5 0 
" style="stroke: #000000; stroke-width: 0.8"/>
      </defs>
      <g>
       <use xlink:href="#m8fafaeae4b" x="37.73125" y="362.330696" style="stroke: #000000; stroke-width: 0.8"/>
      </g>
     </g>
     <g id="text_7">
      <!-- -15 -->
      <g transform="translate(20.73125 365.424446) scale(0.09 -0.09)">
       <defs>
        <path id="SimHei-2d" d="M 2975 2125 
L 125 2125 
L 125 2525 
L 2975 2525 
L 2975 2125 
z
" transform="scale(0.015625)"/>
       </defs>
       <use xlink:href="#SimHei-2d"/>
       <use xlink:href="#SimHei-31" transform="translate(50 0)"/>
       <use xlink:href="#SimHei-35" transform="translate(100 0)"/>
      </g>
     </g>
    </g>
    <g id="ytick_2">
     <g id="line2d_13">
      <path d="M 37.73125 302.587697 
L 849.265 302.587697 
" clip-path="url(#pbc94aca735)" style="fill: none; stroke-dasharray: 1.85,0.8; stroke-dashoffset: 0; stroke: #b2b2b2; stroke-opacity: 0.3; stroke-width: 0.5"/>
     </g>
     <g id="line2d_14">
      <g>
       <use xlink:href="#m8fafaeae4b" x="37.73125" y="302.587697" style="stroke: #000000; stroke-width: 0.8"/>
      </g>
     </g>
     <g id="text_8">
      <!-- -10 -->
      <g transform="translate(20.73125 305.681447) scale(0.09 -0.09)">
       <use xlink:href="#SimHei-2d"/>
       <use xlink:href="#SimHei-31" transform="translate(50 0)"/>
       <use xlink:href="#SimHei-30" transform="translate(100 0)"/>
      </g>
     </g>
    </g>
    <g id="ytick_3">
     <g id="line2d_15">
      <path d="M 37.73125 242.844698 
L 849.265 242.844698 
" clip-path="url(#pbc94aca735)" style="fill: none; stroke-dasharray: 1.85,0.8; stroke-dashoffset: 0; stroke: #b2b2b2; stroke-opacity: 0.3; stroke-width: 0.5"/>
     </g>
     <g id="line2d_16">
      <g>
       <use xlink:href="#m8fafaeae4b" x="37.73125" y="242.844698" style="stroke: #000000; stroke-width: 0.8"/>
      </g>
     </g>
     <g id="text_9">
      <!-- -5 -->
      <g transform="translate(25.23125 245.938448) scale(0.09 -0.09)">
       <use xlink:href="#SimHei-2d"/>
       <use xlink:href="#SimHei-35" transform="translate(50 0)"/>
      </g>
     </g>
    </g>
    <g id="ytick_4">
     <g id="line2d_17">
      <path d="M 37.73125 183.1017 
L 849.265 183.1017 
" clip-path="url(#pbc94aca735)" style="fill: none; stroke-dasharray: 1.85,0.8; stroke-dashoffset: 0; stroke: #b2b2b2; stroke-opacity: 0.3; stroke-width: 0.5"/>
     </g>
     <g id="line2d_18">
      <g>
       <use xlink:href="#m8fafaeae4b" x="37.73125" y="183.1017" style="stroke: #000000; stroke-width: 0.8"/>
      </g>
     </g>
     <g id="text_10">
      <!-- 0 -->
      <g transform="translate(29.73125 186.19545) scale(0.09 -0.09)">
       <use xlink:href="#SimHei-30"/>
      </g>
     </g>
    </g>
    <g id="ytick_5">
     <g id="line2d_19">
      <path d="M 37.73125 123.358701 
L 849.265 123.358701 
" clip-path="url(#pbc94aca735)" style="fill: none; stroke-dasharray: 1.85,0.8; stroke-dashoffset: 0; stroke: #b2b2b2; stroke-opacity: 0.3; stroke-width: 0.5"/>
     </g>
     <g id="line2d_20">
      <g>
       <use xlink:href="#m8fafaeae4b" x="37.73125" y="123.358701" style="stroke: #000000; stroke-width: 0.8"/>
      </g>
     </g>
     <g id="text_11">
      <!-- 5 -->
      <g transform="translate(29.73125 126.452451) scale(0.09 -0.09)">
       <use xlink:href="#SimHei-35"/>
      </g>
     </g>
    </g>
    <g id="ytick_6">
     <g id="line2d_21">
      <path d="M 37.73125 63.615702 
L 849.265 63.615702 
" clip-path="url(#pbc94aca735)" style="fill: none; stroke-dasharray: 1.85,0.8; stroke-dashoffset: 0; stroke: #b2b2b2; stroke-opacity: 0.3; stroke-width: 0.5"/>
     </g>
     <g id="line2d_22">
      <g>
       <use xlink:href="#m8fafaeae4b" x="37.73125" y="63.615702" style="stroke: #000000; stroke-width: 0.8"/>
      </g>
     </g>
     <g id="text_12">
      <!-- 10 -->
      <g transform="translate(25.23125 66.709452) scale(0.09 -0.09)">
       <use xlink:href="#SimHei-31"/>
       <use xlink:href="#SimHei-30" transform="translate(50 0)"/>
      </g>
     </g>
    </g>
    <g id="text_13">
     <!-- 差分后的 NH3_N_mg/L 值 -->
     <g transform="translate(15.403125 264.765) rotate(-90) scale(0.1 -0.1)">
      <defs>
       <path id="SimHei-5dee" d="M 4725 4975 
Q 4500 4725 4250 4275 
L 4850 4275 
Q 5450 4275 5825 4300 
L 5825 3850 
Q 5425 3875 4850 3875 
L 3275 3875 
Q 3225 3600 3150 3275 
L 4525 3275 
Q 5075 3275 5525 3300 
L 5525 2850 
Q 5075 2875 4500 2875 
L 3050 2875 
Q 2975 2650 2850 2325 
L 5125 2325 
Q 5675 2325 6025 2350 
L 6025 1900 
Q 5700 1925 5150 1925 
L 2650 1925 
Q 2425 1550 2250 1300 
Q 2650 1275 3100 1275 
L 4525 1275 
Q 4975 1275 5350 1300 
L 5350 850 
Q 4975 875 4575 875 
L 3925 875 
L 3925 -50 
L 5000 -50 
Q 5200 -50 5900 -25 
L 5900 -500 
Q 5275 -475 5025 -475 
L 2100 -475 
Q 1700 -475 1400 -500 
L 1400 -25 
Q 1775 -50 2125 -50 
L 3425 -50 
L 3425 875 
L 3100 875 
Q 2625 875 2175 850 
L 2175 1200 
Q 1925 875 1487 475 
Q 1050 75 625 -250 
Q 425 -25 200 150 
Q 750 475 1262 925 
Q 1775 1375 2100 1925 
L 1325 1925 
Q 750 1925 375 1900 
L 375 2350 
Q 750 2325 1350 2325 
L 2325 2325 
Q 2450 2575 2550 2875 
L 1725 2875 
Q 1375 2875 1000 2850 
L 1000 3300 
Q 1500 3275 1700 3275 
L 2650 3275 
Q 2725 3575 2775 3875 
L 1500 3875 
Q 1100 3875 650 3850 
L 650 4300 
Q 1025 4275 1425 4275 
L 2275 4275 
Q 2075 4675 1850 4950 
Q 2025 5050 2250 5225 
Q 2450 4975 2725 4550 
Q 2525 4450 2325 4275 
L 3750 4275 
Q 4000 4700 4150 5250 
Q 4400 5100 4725 4975 
z
" transform="scale(0.015625)"/>
       <path id="SimHei-5206" d="M 1000 -650 
Q 825 -375 575 -225 
Q 975 -75 1300 137 
Q 1625 350 1875 662 
Q 2125 975 2250 1350 
Q 2375 1725 2425 2275 
Q 1850 2275 1500 2250 
L 1500 2775 
Q 1900 2750 2525 2750 
L 5025 2750 
Q 4975 2375 4950 2100 
L 4750 250 
Q 4700 -200 4350 -350 
Q 4000 -500 3575 -525 
Q 3550 -275 3325 50 
Q 3850 25 4037 87 
Q 4225 150 4275 525 
L 4450 2275 
L 2950 2275 
Q 2875 1625 2737 1187 
Q 2600 750 2350 425 
Q 2100 100 1750 -175 
Q 1400 -450 1000 -650 
z
M 3950 5175 
Q 4125 4650 4662 3975 
Q 5200 3300 6175 2800 
Q 5975 2625 5775 2275 
Q 5325 2600 4987 2887 
Q 4650 3175 4425 3425 
Q 4200 3675 3925 4137 
Q 3650 4600 3475 5000 
Q 3750 5075 3950 5175 
z
M 2700 4825 
Q 2475 4425 2325 4125 
Q 2175 3825 2025 3587 
Q 1875 3350 1575 2950 
Q 1275 2550 850 2125 
Q 625 2350 400 2475 
Q 900 2925 1187 3300 
Q 1475 3675 1737 4112 
Q 2000 4550 2200 5075 
Q 2400 4925 2700 4825 
z
" transform="scale(0.015625)"/>
       <path id="SimHei-540e" d="M 5475 2150 
Q 5450 1750 5450 775 
Q 5450 -175 5500 -550 
L 4975 -550 
L 4975 -25 
L 2525 -25 
L 2525 -600 
L 2025 -600 
Q 2050 -175 2050 775 
Q 2050 1750 2025 2150 
L 5475 2150 
z
M 5175 5075 
Q 5300 4800 5525 4525 
Q 4950 4475 3750 4337 
Q 2550 4200 1575 4175 
L 1575 3375 
L 5200 3375 
Q 5550 3375 5975 3400 
L 5975 2900 
Q 5575 2925 5200 2925 
L 1575 2925 
Q 1550 2425 1487 1875 
Q 1425 1325 1250 712 
Q 1075 100 800 -325 
Q 650 -200 225 -50 
Q 625 325 825 1062 
Q 1025 1800 1050 2825 
Q 1075 3850 1075 4575 
Q 2300 4600 3625 4775 
Q 4950 4950 5175 5075 
z
M 4975 375 
L 4975 1725 
L 2525 1725 
L 2525 375 
L 4975 375 
z
" transform="scale(0.015625)"/>
       <path id="SimHei-7684" d="M 2100 4975 
Q 1975 4750 1750 3950 
L 2875 3950 
Q 2850 3525 2850 2875 
L 2850 675 
Q 2850 300 2875 -400 
L 2375 -400 
L 2375 100 
L 1100 100 
L 1100 -450 
L 600 -450 
Q 625 350 625 550 
L 625 2850 
Q 625 3525 600 3950 
L 1325 3950 
Q 1450 4525 1525 5150 
Q 1875 5025 2100 4975 
z
M 5825 3075 
Q 5800 1550 5700 175 
Q 5650 -275 5225 -425 
Q 4800 -575 4275 -625 
Q 4250 -350 4050 -50 
Q 4550 -75 4837 -25 
Q 5125 25 5200 200 
Q 5275 375 5312 1225 
Q 5350 2075 5375 3600 
L 3925 3600 
Q 3725 3125 3350 2475 
Q 3175 2650 2925 2750 
Q 3150 3050 3350 3475 
Q 3550 3900 3700 4400 
Q 3850 4900 3875 5175 
Q 4225 5025 4475 4950 
Q 4350 4750 4262 4512 
Q 4175 4275 4075 4050 
L 5850 4050 
Q 5825 3525 5825 3075 
z
M 2375 525 
L 2375 1850 
L 1100 1850 
L 1100 525 
L 2375 525 
z
M 2375 2275 
L 2375 3525 
L 1100 3525 
L 1100 2275 
L 2375 2275 
z
M 4350 2050 
Q 4500 1750 4700 1275 
Q 4525 1200 4225 1025 
Q 4050 1500 3900 1837 
Q 3750 2175 3600 2400 
Q 3775 2500 4050 2650 
L 4350 2050 
z
" transform="scale(0.015625)"/>
       <path id="SimHei-4e" d="M 2850 125 
L 2225 125 
L 850 3225 
L 825 3225 
L 825 125 
L 250 125 
L 250 4400 
L 875 4400 
L 2250 1300 
L 2275 1300 
L 2275 4400 
L 2850 4400 
L 2850 125 
z
" transform="scale(0.015625)"/>
       <path id="SimHei-48" d="M 2850 125 
L 2275 125 
L 2275 2125 
L 850 2125 
L 850 125 
L 275 125 
L 275 4400 
L 850 4400 
L 850 2600 
L 2275 2600 
L 2275 4400 
L 2850 4400 
L 2850 125 
z
" transform="scale(0.015625)"/>
       <path id="SimHei-33" d="M 250 1225 
L 700 1300 
Q 800 975 1025 762 
Q 1250 550 1587 562 
Q 1925 575 2125 837 
Q 2325 1100 2300 1437 
Q 2275 1775 2037 1962 
Q 1800 2150 1275 2225 
L 1275 2550 
Q 1800 2600 2037 2825 
Q 2275 3050 2250 3412 
Q 2225 3775 1925 3937 
Q 1625 4100 1287 3975 
Q 950 3850 750 3275 
L 300 3350 
Q 450 3800 712 4100 
Q 975 4400 1425 4450 
Q 1875 4500 2212 4337 
Q 2550 4175 2687 3837 
Q 2825 3500 2725 3100 
Q 2625 2700 2150 2400 
Q 2500 2250 2687 1950 
Q 2875 1650 2812 1162 
Q 2750 675 2375 375 
Q 2000 75 1525 87 
Q 1050 100 700 387 
Q 350 675 250 1225 
z
" transform="scale(0.015625)"/>
       <path id="SimHei-5f" d="M 3150 -850 
L 0 -850 
L 0 -550 
L 3150 -550 
L 3150 -850 
z
" transform="scale(0.015625)"/>
       <path id="SimHei-6d" d="M 3050 125 
L 2550 125 
L 2550 2150 
Q 2550 2300 2500 2400 
Q 2450 2500 2300 2500 
Q 2125 2500 1975 2312 
Q 1825 2125 1825 1825 
L 1825 125 
L 1325 125 
L 1325 2150 
Q 1325 2300 1275 2400 
Q 1225 2500 1075 2500 
Q 900 2500 750 2312 
Q 600 2125 600 1825 
L 600 125 
L 100 125 
L 100 2925 
L 600 2925 
L 600 2550 
Q 725 2750 900 2862 
Q 1075 2975 1275 2975 
Q 1475 2975 1612 2862 
Q 1750 2750 1800 2550 
Q 1925 2750 2087 2862 
Q 2250 2975 2450 2975 
Q 2750 2975 2900 2812 
Q 3050 2650 3050 2350 
L 3050 125 
z
" transform="scale(0.015625)"/>
       <path id="SimHei-67" d="M 2975 2500 
Q 2800 2550 2637 2562 
Q 2475 2575 2300 2525 
Q 2375 2450 2425 2337 
Q 2475 2225 2475 2000 
Q 2475 1575 2187 1300 
Q 1900 1025 1475 1025 
Q 1375 1025 1212 1062 
Q 1050 1100 950 1150 
Q 875 1100 850 1050 
Q 825 1000 825 925 
Q 825 800 1000 737 
Q 1175 675 1625 675 
Q 2350 675 2612 475 
Q 2875 275 2875 -25 
Q 2875 -425 2487 -612 
Q 2100 -800 1575 -800 
Q 900 -800 575 -625 
Q 250 -450 250 -150 
Q 250 0 375 150 
Q 500 300 700 400 
Q 550 475 462 587 
Q 375 700 375 875 
Q 375 1025 487 1137 
Q 600 1250 750 1325 
Q 625 1450 550 1625 
Q 475 1800 475 2000 
Q 475 2425 762 2700 
Q 1050 2975 1475 2975 
Q 1700 2975 1862 2912 
Q 2025 2850 2150 2725 
Q 2350 2875 2550 2937 
Q 2750 3000 2975 2975 
L 2975 2500 
z
M 1975 2000 
Q 1975 2250 1850 2400 
Q 1725 2550 1475 2550 
Q 1225 2550 1100 2400 
Q 975 2250 975 2000 
Q 975 1750 1100 1600 
Q 1225 1450 1475 1450 
Q 1725 1450 1850 1600 
Q 1975 1750 1975 2000 
z
M 2400 -75 
Q 2400 25 2287 125 
Q 2175 225 1725 225 
Q 1625 225 1450 237 
Q 1275 250 1050 275 
Q 850 200 775 100 
Q 700 0 700 -100 
Q 700 -250 900 -350 
Q 1100 -450 1600 -450 
Q 2025 -450 2212 -337 
Q 2400 -225 2400 -75 
z
" transform="scale(0.015625)"/>
       <path id="SimHei-4c" d="M 2900 125 
L 300 125 
L 300 4400 
L 875 4400 
L 875 600 
L 2900 600 
L 2900 125 
z
" transform="scale(0.015625)"/>
       <path id="SimHei-503c" d="M 3675 4450 
L 3675 5100 
Q 3975 5075 4350 5050 
Q 4225 4875 4200 4450 
L 5125 4450 
Q 5550 4450 5875 4475 
L 5875 4025 
Q 5525 4050 5125 4050 
L 4175 4050 
L 4125 3500 
L 5400 3500 
Q 5375 3200 5375 2700 
L 5375 150 
Q 5875 150 6100 175 
L 6100 -275 
Q 5775 -250 5200 -250 
L 2850 -250 
Q 2275 -250 1900 -275 
L 1900 175 
Q 2125 150 2600 150 
L 2600 2700 
Q 2600 3175 2575 3500 
L 3600 3500 
L 3650 4050 
L 3200 4050 
Q 2575 4050 2225 4025 
L 2225 4475 
Q 2550 4450 3200 4450 
L 3675 4450 
z
M 2225 4900 
Q 2025 4675 1650 3750 
L 1650 450 
Q 1650 -75 1675 -550 
L 1150 -550 
Q 1175 -125 1175 375 
L 1175 2950 
Q 875 2450 625 2150 
Q 425 2425 250 2575 
Q 500 2825 937 3537 
Q 1375 4250 1625 5150 
Q 1975 4975 2225 4900 
z
M 4925 2650 
L 4925 3150 
L 3075 3150 
L 3075 2650 
L 4925 2650 
z
M 4925 150 
L 4925 625 
L 3075 625 
L 3075 150 
L 4925 150 
z
M 4925 1000 
L 4925 1450 
L 3075 1450 
L 3075 1000 
L 4925 1000 
z
M 4925 1825 
L 4925 2275 
L 3075 2275 
L 3075 1825 
L 4925 1825 
z
" transform="scale(0.015625)"/>
      </defs>
      <use xlink:href="#SimHei-5dee"/>
      <use xlink:href="#SimHei-5206" transform="translate(100 0)"/>
      <use xlink:href="#SimHei-540e" transform="translate(200 0)"/>
      <use xlink:href="#SimHei-7684" transform="translate(300 0)"/>
      <use xlink:href="#SimHei-20" transform="translate(400 0)"/>
      <use xlink:href="#SimHei-4e" transform="translate(450 0)"/>
      <use xlink:href="#SimHei-48" transform="translate(500 0)"/>
      <use xlink:href="#SimHei-33" transform="translate(550 0)"/>
      <use xlink:href="#SimHei-5f" transform="translate(600 0)"/>
      <use xlink:href="#SimHei-4e" transform="translate(650 0)"/>
      <use xlink:href="#SimHei-5f" transform="translate(700 0)"/>
      <use xlink:href="#SimHei-6d" transform="translate(750 0)"/>
      <use xlink:href="#SimHei-67" transform="translate(800 0)"/>
      <use xlink:href="#SimHei-2f" transform="translate(850 0)"/>
      <use xlink:href="#SimHei-4c" transform="translate(900 0)"/>
      <use xlink:href="#SimHei-20" transform="translate(950 0)"/>
      <use xlink:href="#SimHei-503c" transform="translate(1000 0)"/>
     </g>
    </g>
   </g>
   <g id="line2d_23">
    <path d="M 74.619148 184.416046 
L 74.956024 190.27086 
L 75.292899 157.531696 
L 75.629775 190.629317 
L 75.966651 195.528243 
L 76.303527 171.75053 
L 76.640402 183.1017 
L 76.977278 187.761654 
L 77.314154 179.636606 
L 77.65103 154.903004 
L 77.987906 190.987775 
L 78.324781 201.502543 
L 78.661657 193.138523 
L 78.998533 178.083288 
L 79.335409 193.974925 
L 79.672284 173.423334 
L 80.00916 184.177074 
L 80.346036 178.561232 
L 80.682912 156.934266 
L 81.019788 215.362919 
L 81.356663 151.915854 
L 81.693539 184.177074 
L 82.030415 240.335492 
L 82.367291 80.10477 
L 82.704166 150.482022 
L 83.041042 172.730315 
L 83.377918 223.368481 
L 83.714794 119.535149 
L 84.05167 214.144162 
L 84.388545 180.341573 
L 84.725421 177.748727 
L 85.062297 177.999648 
L 85.399173 196.890384 
L 85.736048 183.424312 
L 86.746676 162.10801 
L 87.083552 171.129203 
L 87.420427 196.125673 
L 87.757303 152.54913 
L 88.094179 187.188121 
L 88.431055 195.444603 
L 88.76793 197.224945 
L 89.104806 201.144085 
L 89.441682 196.842589 
L 89.778558 157.890154 
L 90.115434 261.245542 
L 90.789185 144.86618 
L 91.126061 268.892646 
L 91.462937 188.598056 
L 91.799812 185.969364 
L 92.136688 190.031888 
L 92.473564 172.108988 
L 92.81044 192.660579 
L 93.484191 180.950952 
L 93.821067 172.706418 
L 94.157943 191.704691 
L 94.494819 180.71198 
L 94.831694 182.265298 
L 95.16857 171.631044 
L 95.505446 175.454596 
L 95.842322 174.618194 
L 96.179198 178.083288 
L 96.516073 188.47857 
L 96.852949 176.290998 
L 97.189825 185.132962 
L 97.526701 178.441746 
L 97.863576 189.314972 
L 98.200452 181.30941 
L 98.537328 182.623756 
L 98.874204 185.730392 
L 99.21108 183.579644 
L 99.547955 182.623756 
L 99.884831 188.120112 
L 100.221707 186.208336 
L 100.558583 185.013476 
L 100.895458 179.995064 
L 101.232334 185.371934 
L 101.56921 185.849878 
L 101.906086 181.667868 
L 102.242962 182.862728 
L 102.579837 178.441746 
L 102.916713 191.943663 
L 103.253589 182.982214 
L 103.590465 190.151374 
L 103.92734 178.561232 
L 104.264216 185.132962 
L 104.601092 180.11455 
L 104.937968 187.164224 
L 105.274844 185.49142 
L 105.611719 177.1274 
L 105.948595 185.610906 
L 106.285471 186.08885 
L 106.622347 183.1017 
L 106.959222 184.535532 
L 107.296098 182.026326 
L 107.632974 182.145812 
L 107.96985 241.410866 
L 108.306726 251.393922 
L 108.643601 183.1017 
L 108.980477 183.1017 
L 109.654229 100.775847 
L 110.32798 193.496981 
L 110.664856 144.985666 
L 111.001732 200.905113 
L 111.338608 171.511558 
L 111.675483 177.963802 
L 112.012359 175.574082 
L 112.349235 200.666141 
L 112.686111 179.636606 
L 113.022986 213.092685 
L 113.359862 148.570246 
L 113.696738 175.33511 
L 114.033614 182.50427 
L 114.37049 208.432731 
L 114.707365 181.90684 
L 115.044241 183.579644 
L 115.381117 191.943663 
L 115.717993 177.007914 
L 116.054868 182.623756 
L 116.391744 164.342398 
L 116.72862 188.956514 
L 117.065496 185.371934 
L 117.402372 184.89399 
L 118.076123 195.086145 
L 118.412999 185.455574 
L 118.749875 191.346233 
L 119.08675 155.61992 
L 119.423626 153.505018 
L 119.760502 223.153406 
L 120.097378 156.169556 
L 120.434254 222.771051 
L 120.771129 167.222011 
L 121.108005 192.600836 
L 121.444881 178.119134 
L 121.781757 156.372682 
L 122.118632 161.08043 
L 122.455508 182.265298 
L 122.792384 215.960349 
L 123.12926 211.897825 
L 123.803011 184.89399 
L 124.139887 159.443472 
L 124.476763 207.237871 
L 124.813639 187.642168 
L 125.150514 183.818616 
L 125.48739 163.625482 
L 125.824266 197.320533 
L 126.161142 182.145812 
L 126.498018 191.346233 
L 126.834893 185.013476 
L 127.171769 160.99679 
L 127.508645 195.289271 
L 127.845521 182.743242 
L 128.182396 183.818616 
L 128.519272 260.40914 
L 128.856148 209.866563 
L 129.193024 202.219459 
L 129.5299 169.599782 
L 129.866775 77.356592 
L 130.203651 162.78908 
L 130.540527 179.397634 
L 130.877403 186.566794 
L 131.214278 183.460158 
L 131.551154 174.976652 
L 131.88803 185.252448 
L 132.224906 200.068711 
L 132.561782 174.857166 
L 132.898657 173.901278 
L 133.235533 178.083288 
L 133.572409 190.031888 
L 133.909285 169.062095 
L 134.24616 162.514262 
L 134.583036 190.975827 
L 134.919912 290.866121 
L 135.593664 100.656361 
L 135.930539 181.273564 
L 136.267415 196.364645 
L 136.941167 177.007914 
L 137.278042 170.758796 
L 137.614918 189.936299 
L 137.951794 169.755114 
L 138.28867 190.067733 
L 138.625546 331.598897 
L 138.962421 186.483153 
L 139.299297 180.891209 
L 139.636173 190.784649 
L 139.973049 122.51035 
L 140.309925 171.738581 
L 140.6468 136.143703 
L 140.983676 131.603235 
L 141.320552 201.120188 
L 141.657428 220.536663 
L 141.994303 127.648248 
L 142.331179 202.649609 
L 142.668055 212.758124 
L 143.004931 162.012421 
L 143.341807 168.381025 
L 143.678682 209.030161 
L 144.015558 149.585877 
L 144.352434 168.691688 
L 144.68931 162.992206 
L 145.026185 229.115757 
L 145.363061 182.038274 
L 145.699937 188.765336 
L 146.036813 155.775252 
L 146.373689 185.204653 
L 146.710564 177.079605 
L 147.04744 189.661481 
L 147.384316 218.134994 
L 147.721192 111.147232 
L 148.058067 188.980411 
L 148.394943 223.607453 
L 148.731819 181.679816 
L 149.068695 181.584227 
L 149.405571 143.432348 
L 150.079322 198.790211 
L 150.416198 220.859275 
L 150.753074 156.707243 
L 151.426825 251.148975 
L 151.763701 210.475942 
L 152.100577 191.465719 
L 152.774328 178.883844 
L 153.111204 183.69913 
L 153.44808 184.224868 
L 153.784956 191.346233 
L 154.121831 172.682521 
L 154.458707 188.64585 
L 154.795583 184.97763 
L 155.132459 210.021895 
L 155.469335 179.588811 
L 155.80621 176.087872 
L 156.143086 183.388466 
L 156.479962 172.849801 
L 156.816838 187.893088 
L 157.153713 190.055785 
L 157.490589 157.24493 
L 157.827465 203.892263 
L 158.164341 183.388466 
L 158.501217 179.756092 
L 159.174968 154.532598 
L 159.511844 209.29303 
L 159.84872 167.222011 
L 160.185595 202.804941 
L 160.522471 196.41244 
L 160.859347 160.100645 
L 161.196223 217.238849 
L 161.869974 144.973718 
L 162.20685 151.772471 
L 162.543726 251.005592 
L 162.880602 185.443625 
L 163.217477 185.180756 
L 163.554353 176.756993 
L 163.891229 189.888504 
L 164.228105 183.316774 
L 164.564981 184.666966 
L 164.901856 182.683499 
L 165.238732 181.452793 
L 165.575608 87.023009 
L 165.912484 189.195486 
L 166.249359 176.709199 
L 166.586235 145.642839 
L 166.923111 165.429721 
L 167.259987 174.068558 
L 167.596863 232.353828 
L 167.933738 180.843414 
L 168.270614 179.983115 
L 168.60749 198.826057 
L 168.944366 178.107185 
L 169.281241 169.229375 
L 169.618117 189.685378 
L 169.954993 225.172719 
L 170.291869 156.456322 
L 170.96562 188.64585 
L 171.302496 170.519824 
L 171.639372 173.62646 
L 171.976248 184.929835 
L 172.313123 209.233287 
L 172.649999 172.240422 
L 172.986875 167.867235 
L 173.323751 157.388313 
L 173.660627 222.723256 
L 173.997502 163.458202 
L 174.334378 178.226671 
L 174.671254 229.247192 
L 175.00813 166.552889 
L 175.345005 190.390346 
L 175.681881 241.279432 
L 176.018757 216.89234 
L 176.355633 167.13837 
L 177.36626 176.816736 
L 177.703136 175.896694 
L 178.040012 189.721224 
L 178.376887 180.269882 
L 178.713763 175.514339 
L 179.050639 177.151297 
L 179.387515 181.739559 
L 179.724391 177.007914 
L 180.061266 188.454672 
L 180.398142 169.623679 
L 180.735018 186.232233 
L 181.071894 189.984093 
L 181.408769 170.782693 
L 181.745645 188.789233 
L 182.082521 249.643452 
L 182.419397 99.126941 
L 182.756273 206.604595 
L 183.093148 175.717465 
L 183.430024 184.057588 
L 183.7669 167.532674 
L 184.103776 187.176172 
L 184.440651 179.015279 
L 184.777527 193.030986 
L 185.114403 172.144834 
L 185.451279 189.422509 
L 185.788155 177.939905 
L 186.12503 201.287468 
L 186.461906 175.454596 
L 186.798782 191.513514 
L 187.135658 175.789157 
L 187.472533 191.824177 
L 187.809409 167.365394 
L 188.146285 168.536357 
L 188.483161 199.889482 
L 188.820037 194.799379 
L 189.156912 243.227054 
L 189.493788 116.213438 
L 189.830664 196.890384 
L 190.16754 213.212171 
L 190.504415 162.609851 
L 190.841291 163.960043 
L 191.515043 200.558604 
L 191.851919 166.994987 
L 192.188794 177.330526 
L 192.52567 177.557549 
L 192.862546 191.907818 
L 193.199422 157.256878 
L 193.536297 194.978608 
L 193.873173 181.775405 
L 194.210049 183.926153 
L 194.546925 189.852659 
L 194.883801 162.382828 
L 195.220676 195.002505 
L 195.557552 189.876556 
L 195.894428 191.262593 
L 196.231304 197.810426 
L 196.568179 149.550032 
L 196.905055 185.276345 
L 197.241931 184.965681 
L 197.578807 165.190749 
L 197.915683 188.382981 
L 198.252558 171.965605 
L 198.589434 208.09817 
L 198.92631 175.478493 
L 199.263186 194.393126 
L 199.600061 158.427841 
L 199.936937 177.354423 
L 200.273813 187.008892 
L 200.610689 161.785398 
L 200.947565 181.369153 
L 201.28444 171.248689 
L 201.621316 133.957109 
L 201.958192 253.58649 
L 202.295068 144.758643 
L 202.968819 217.322489 
L 203.305695 128.556342 
L 203.642571 147.315643 
L 203.979447 206.556801 
L 204.316322 199.602716 
L 204.653198 197.631197 
L 204.990074 177.402218 
L 205.32695 198.312267 
L 205.663825 208.95847 
L 206.000701 201.215777 
L 206.337577 184.177074 
L 206.674453 184.224868 
L 207.011329 191.238696 
L 207.348204 186.25613 
L 207.68508 172.897595 
L 208.021956 192.39771 
L 208.358832 176.004231 
L 208.695708 169.336913 
L 209.032583 184.858144 
L 209.369459 186.650434 
L 209.706335 183.388466 
L 210.043211 185.407779 
L 210.380086 188.299341 
L 210.716962 178.166928 
L 211.053838 186.614588 
L 211.390714 186.363667 
L 211.72759 183.316774 
L 212.064465 172.969287 
L 212.401341 177.330526 
L 212.738217 185.849878 
L 213.075093 181.381101 
L 213.411968 180.807569 
L 213.748844 183.125597 
L 214.08572 179.923372 
L 214.422596 178.525386 
L 214.759472 181.082386 
L 215.096347 180.939003 
L 215.433223 174.689885 
L 215.770099 195.157837 
L 216.106975 205.194661 
L 216.44385 187.642168 
L 216.780726 185.682597 
L 217.117602 203.91616 
L 217.454478 177.414166 
L 217.791354 186.411462 
L 218.128229 199.232309 
L 218.465105 188.179855 
L 218.801981 171.439866 
L 219.138857 183.1017 
L 219.475732 165.214646 
L 219.812608 202.530123 
L 220.149484 190.653215 
L 220.48636 215.004461 
L 221.160111 149.681466 
L 221.496987 192.863706 
L 221.833863 173.602563 
L 222.170739 187.427093 
L 222.507614 192.098995 
L 222.84449 180.496905 
L 223.181366 182.325041 
L 223.855118 199.674408 
L 224.191993 203.23509 
L 224.528869 178.728512 
L 224.865745 186.459256 
L 225.202621 155.823046 
L 225.539496 197.870169 
L 225.876372 185.419728 
L 226.213248 187.713859 
L 226.550124 180.831466 
L 226.887 185.085167 
L 227.223875 164.724753 
L 227.560751 199.136721 
L 227.897627 179.660503 
L 228.234503 178.071339 
L 228.571378 177.677035 
L 228.908254 177.04376 
L 229.24513 199.124772 
L 229.582006 170.47203 
L 229.918882 186.901354 
L 230.255757 224.74257 
L 230.592633 150.016027 
L 230.929509 186.507051 
L 231.266385 175.478493 
L 231.60326 181.321358 
L 231.940136 175.454596 
L 232.613888 181.225769 
L 233.287639 170.902179 
L 233.624515 185.861826 
L 234.298267 175.609928 
L 234.635142 197.00987 
L 234.972018 166.4573 
L 235.308894 192.684477 
L 235.64577 186.698228 
L 235.982646 192.887603 
L 236.319521 192.851757 
L 236.656397 180.843414 
L 236.993273 179.756092 
L 237.330149 190.127476 
L 237.667024 161.42694 
L 238.0039 176.864531 
L 238.340776 172.192628 
L 238.677652 174.677937 
L 239.014528 184.786452 
L 239.351403 176.768942 
L 239.688279 206.317829 
L 240.025155 171.1531 
L 240.362031 200.534707 
L 240.698906 177.844316 
L 241.035782 189.697327 
L 241.372658 183.711078 
L 241.709534 183.1017 
L 242.04641 271.031445 
L 242.383285 78.99355 
L 242.720161 213.582578 
L 243.057037 185.957415 
L 243.730788 165.812076 
L 244.067664 203.856417 
L 244.40454 197.870169 
L 244.741416 173.315796 
L 245.078292 173.841535 
L 245.415167 193.664262 
L 245.752043 172.097039 
L 246.088919 191.919766 
L 246.425795 175.096138 
L 246.76267 179.266199 
L 247.099546 195.492398 
L 247.436422 170.340595 
L 247.773298 196.770898 
L 248.110174 145.762325 
L 248.447049 197.153253 
L 248.783925 160.005056 
L 249.120801 192.839808 
L 249.457677 169.850703 
L 249.794552 192.792014 
L 250.131428 156.444374 
L 250.468304 193.102678 
L 250.80518 174.044661 
L 251.142056 208.635857 
L 251.478931 157.627285 
L 251.815807 196.914281 
L 252.152683 156.659448 
L 252.489559 197.487814 
L 252.826434 189.67343 
L 253.16331 202.697403 
L 253.500186 154.030756 
L 253.837062 209.149647 
L 254.173938 162.370879 
L 254.510813 199.196464 
L 254.847689 188.610004 
L 255.184565 203.031964 
L 255.521441 164.808393 
L 255.858316 204.907894 
L 256.195192 147.339541 
L 256.532068 248.938484 
L 256.868944 134.040749 
L 257.20582 193.616467 
L 257.542695 194.859122 
L 257.879571 161.940729 
L 258.216447 162.478416 
L 258.553323 262.524042 
L 258.890198 183.1017 
L 259.227074 226.044967 
L 259.56395 135.534324 
L 259.900826 141.377189 
L 260.237702 198.646828 
L 260.574577 201.203828 
L 260.911453 146.252218 
L 261.248329 185.909621 
L 261.585205 183.1017 
L 261.92208 162.35893 
L 262.595832 193.688159 
L 262.932708 154.17414 
L 263.269584 249.6554 
L 263.606459 160.208183 
L 263.943335 173.220208 
L 264.280211 169.384707 
L 264.617087 175.753311 
L 264.953962 168.094258 
L 265.290838 222.066083 
L 265.627714 161.797346 
L 265.96459 172.897595 
L 266.301466 198.587085 
L 266.638341 166.720169 
L 267.312093 198.539291 
L 267.648969 159.754136 
L 267.985844 187.761654 
L 268.32272 169.121838 
L 268.659596 190.187219 
L 268.996472 168.978455 
L 269.333348 175.896694 
L 269.670223 187.869191 
L 270.007099 192.063149 
L 270.343975 183.1017 
L 270.680851 324.907681 
L 271.017726 106.606764 
L 271.354602 158.248612 
L 271.691478 183.579644 
L 272.028354 165.740384 
L 272.36523 198.12109 
L 272.702105 165.047365 
L 273.038981 202.016333 
L 273.375857 161.092379 
L 273.712733 212.949302 
L 274.049608 139.584899 
L 274.72336 220.739789 
L 275.060236 235.137852 
L 275.397112 163.231178 
L 275.733987 194.62015 
L 276.070863 201.132137 
L 276.407739 173.088773 
L 276.744615 123.45429 
L 277.081491 189.996042 
L 277.418366 188.47857 
L 277.755242 160.91315 
L 278.092118 190.031888 
L 278.428994 172.574983 
L 278.765869 195.850856 
L 279.102745 236.416352 
L 279.776497 151.43791 
L 280.113373 188.860925 
L 280.450248 239.977034 
L 280.787124 106.582867 
L 281.124 176.960119 
L 281.460876 173.865432 
L 281.797751 179.839732 
L 282.134627 175.8489 
L 282.471503 194.655996 
L 282.808379 202.052179 
L 283.48213 172.156782 
L 283.819006 185.073219 
L 284.155882 192.266276 
L 284.492758 156.062018 
L 284.829633 166.110791 
L 285.166509 241.052408 
L 285.503385 173.483077 
L 285.840261 175.93254 
L 286.177137 186.291976 
L 286.850888 159.778033 
L 287.187764 265.61873 
L 287.52464 159.539061 
L 287.861515 140.015049 
L 288.198391 185.921569 
L 288.535267 174.199993 
L 288.872143 183.734975 
L 289.209019 197.786529 
L 289.545894 169.062095 
L 289.88277 174.403119 
L 290.219646 174.164147 
L 290.556522 222.759102 
L 290.893397 116.846714 
L 291.567149 256.896252 
L 292.240901 127.684094 
L 292.914652 218.063303 
L 293.251528 200.224043 
L 293.588404 205.70845 
L 294.262155 138.856035 
L 294.599031 180.007012 
L 294.935907 206.329778 
L 295.272783 181.894891 
L 295.609658 206.927208 
L 295.946534 191.429874 
L 296.28341 199.495179 
L 296.620286 202.052179 
L 296.957161 171.021665 
L 297.294037 155.45264 
L 297.630913 180.234036 
L 297.967789 184.678915 
L 298.304665 180.747826 
L 298.64154 179.60076 
L 298.978416 197.069613 
L 299.315292 129.703407 
L 299.652168 202.733249 
L 299.989043 200.319632 
L 300.325919 176.816736 
L 300.662795 187.498784 
L 300.999671 177.199091 
L 301.336547 181.608125 
L 301.673422 188.466621 
L 302.010298 176.243203 
L 302.347174 190.211117 
L 302.68405 180.401316 
L 303.357801 176.111769 
L 303.694677 190.462037 
L 304.031553 183.663284 
L 304.368429 231.457683 
L 304.705304 173.949072 
L 305.04218 138.987469 
L 305.379056 205.792091 
L 305.715932 177.939905 
L 306.052807 177.115451 
L 306.389683 174.618194 
L 306.726559 150.016027 
L 307.063435 227.897 
L 307.400311 174.857166 
L 307.737186 158.224715 
L 308.410938 225.578972 
L 308.747814 203.952006 
L 309.084689 174.797423 
L 309.421565 117.611424 
L 309.758441 201.550338 
L 310.095317 198.395907 
L 310.432193 204.250721 
L 310.769068 152.298209 
L 311.105944 174.020764 
L 311.44282 173.54282 
L 311.779696 236.356609 
L 312.453447 141.807339 
L 312.790323 177.390269 
L 313.127199 183.806667 
L 313.464075 169.802908 
L 313.80095 200.701987 
L 314.137826 174.176096 
L 314.474702 191.919766 
L 314.811578 178.32226 
L 315.148453 187.582425 
L 315.485329 172.51524 
L 315.822205 182.181657 
L 316.159081 206.927208 
L 316.495957 168.189847 
L 316.832832 217.310541 
L 317.169708 206.855516 
L 317.506584 124.696944 
L 317.84346 185.348036 
L 318.180335 183.603541 
L 318.517211 196.711155 
L 318.854087 192.409659 
L 319.190963 149.90849 
L 319.527839 192.624734 
L 319.864714 179.349839 
L 320.20159 224.90985 
L 320.538466 170.460081 
L 320.875342 164.139272 
L 321.212217 221.851009 
L 321.549093 125.760369 
L 321.885969 215.61384 
L 322.222845 145.965452 
L 322.559721 185.216602 
L 322.896596 170.830488 
L 323.233472 209.340825 
L 323.570348 226.164453 
L 323.907224 166.182482 
L 324.244099 156.312939 
L 324.580975 179.08697 
L 324.917851 169.038198 
L 325.254727 189.398612 
L 325.591603 192.82786 
L 325.928478 202.279202 
L 326.265354 168.560254 
L 326.60223 197.559505 
L 326.939106 182.886625 
L 327.275981 160.303771 
L 327.612857 198.766314 
L 327.949733 154.879107 
L 328.286609 178.692666 
L 328.623485 213.761807 
L 328.96036 215.61384 
L 329.297236 155.010542 
L 329.634112 187.845294 
L 330.307863 178.48954 
L 330.644739 196.3288 
L 330.981615 190.282808 
L 331.318491 174.247787 
L 331.655367 165.525309 
L 331.992242 223.607453 
L 332.329118 162.848823 
L 332.665994 153.588658 
L 333.339745 207.094488 
L 333.676621 170.591516 
L 334.013497 191.88392 
L 334.350373 188.944565 
L 334.687249 210.989731 
L 335.024124 166.397557 
L 335.361 172.455497 
L 335.697876 162.287239 
L 336.034752 185.527265 
L 336.371627 162.753234 
L 336.708503 236.033997 
L 337.045379 173.865432 
L 337.382255 186.459256 
L 337.719131 157.364416 
L 338.056006 194.27364 
L 338.392882 182.336989 
L 339.066634 197.344431 
L 339.403509 200.140403 
L 339.740385 128.138141 
L 340.077261 188.227649 
L 340.414137 184.260714 
L 340.751013 208.898727 
L 341.087888 168.464665 
L 341.424764 186.375616 
L 341.76164 185.539214 
L 342.098516 204.609179 
L 342.435392 151.10335 
L 342.772267 184.093433 
L 343.109143 126.298056 
L 343.446019 232.84372 
L 343.782895 217.047672 
L 344.11977 180.257933 
L 344.456646 167.7358 
L 344.793522 175.442647 
L 345.130398 154.819364 
L 345.467274 231.816141 
L 345.804149 162.239444 
L 346.141025 183.78277 
L 346.477901 192.098995 
L 346.814777 162.000472 
L 347.151652 169.038198 
L 347.488528 193.795696 
L 347.825404 165.202697 
L 348.16228 180.520802 
L 348.499156 182.444527 
L 348.836031 185.276345 
L 349.172907 172.981236 
L 349.509783 190.019939 
L 349.846659 172.527189 
L 350.183534 218.17084 
L 350.52041 225.722355 
L 350.857286 136.036165 
L 351.194162 156.312939 
L 351.531038 241.219689 
L 351.867913 219.317906 
L 352.204789 126.250262 
L 352.541665 201.024599 
L 352.878541 161.319402 
L 353.215416 195.564089 
L 353.552292 184.439943 
L 353.889168 159.921416 
L 354.226044 177.939905 
L 354.56292 177.318577 
L 354.899795 193.735953 
L 355.236671 182.635704 
L 355.573547 185.718443 
L 355.910423 180.508854 
L 356.247298 190.402294 
L 356.584174 167.950875 
L 356.92105 184.523583 
L 357.257926 179.636606 
L 357.594802 190.617369 
L 357.931677 170.364492 
L 358.268553 171.009717 
L 358.605429 218.911653 
L 358.942305 141.102372 
L 359.27918 174.164147 
L 359.616056 194.094411 
L 359.952932 182.575961 
L 360.289808 209.842666 
L 360.963559 169.145735 
L 361.300435 192.194584 
L 361.637311 142.404769 
L 361.974187 201.167982 
L 362.311062 223.786682 
L 362.647938 179.158662 
L 362.984814 176.147615 
L 363.32169 166.720169 
L 363.658566 170.818539 
L 363.995441 190.677112 
L 364.332317 160.494949 
L 364.669193 209.257185 
L 365.006069 155.799149 
L 365.342944 261.293336 
L 365.67982 166.744067 
L 366.016696 175.944488 
L 366.353572 227.38321 
L 366.690448 150.661251 
L 367.364199 187.510733 
L 367.701075 156.982061 
L 368.037951 177.306629 
L 368.374826 273.970801 
L 368.711702 127.80358 
L 369.048578 181.285512 
L 369.385454 147.76969 
L 369.72233 149.824849 
L 370.059205 210.57153 
L 370.396081 207.010848 
L 370.732957 205.947422 
L 371.069833 105.304367 
L 371.406708 179.803886 
L 371.743584 179.660503 
L 372.08046 195.002505 
L 372.417336 183.1017 
L 372.754212 212.925405 
L 373.091087 162.87272 
L 373.427963 191.226747 
L 373.764839 235.66359 
L 374.101715 211.216755 
L 374.43859 161.606169 
L 374.775466 186.925252 
L 375.112342 197.404174 
L 375.449218 182.109966 
L 375.786094 141.855133 
L 376.122969 197.165202 
L 376.459845 187.45099 
L 376.796721 184.189022 
L 377.133597 183.257031 
L 377.470472 162.574005 
L 377.807348 199.853637 
L 378.144224 181.30941 
L 378.4811 212.638638 
L 378.817976 213.092685 
L 379.154851 104.456016 
L 379.491727 172.108988 
L 379.828603 155.488486 
L 380.165479 230.28672 
L 380.502354 148.008662 
L 380.83923 241.972451 
L 381.176106 163.458202 
L 381.512982 251.782251 
L 381.849858 120.144528 
L 382.186733 175.609928 
L 382.523609 168.954558 
L 382.860485 196.890384 
L 383.197361 158.666813 
L 383.534236 227.825309 
L 383.871112 183.460158 
L 384.207988 184.200971 
L 384.544864 175.012498 
L 384.88174 198.957492 
L 385.218615 138.186913 
L 385.555491 205.660656 
L 385.892367 161.032636 
L 386.229243 183.280929 
L 386.566118 170.316698 
L 386.902994 235.484361 
L 387.23987 141.19796 
L 387.576746 251.949531 
L 387.913622 101.361329 
L 388.250497 222.759102 
L 388.587373 162.430622 
L 388.924249 203.952006 
L 389.261125 156.121761 
L 389.598 233.488945 
L 389.934876 119.379817 
L 390.271752 200.259889 
L 390.608628 151.007761 
L 390.945504 221.719574 
L 391.282379 184.093433 
L 391.619255 201.657875 
L 391.956131 172.097039 
L 392.293007 193.795696 
L 392.629882 154.604289 
L 392.966758 221.612037 
L 393.303634 115.807186 
L 393.977386 241.63789 
L 394.314261 183.137545 
L 394.651137 195.958393 
L 394.988013 187.247864 
L 395.324889 195.611884 
L 395.661764 142.930507 
L 395.99864 213.55868 
L 396.335516 149.334957 
L 396.672392 225.435589 
L 397.009268 174.869114 
L 397.346143 229.629547 
L 397.683019 161.689809 
L 398.019895 219.592723 
L 398.356771 152.286261 
L 398.693646 190.055785 
L 399.030522 149.31106 
L 399.367398 188.430775 
L 399.704274 199.722202 
L 400.04115 197.989655 
L 400.378025 172.276268 
L 400.714901 197.00987 
L 401.051777 187.498784 
L 401.388653 184.081485 
L 401.725528 139.393722 
L 402.062404 175.466544 
L 402.39928 141.914876 
L 402.736156 204.704768 
L 403.073032 154.747672 
L 403.409907 183.1017 
L 403.746783 263.491879 
L 404.083659 151.055555 
L 404.420535 196.591669 
L 404.75741 156.253196 
L 405.094286 223.260943 
L 405.431162 131.686875 
L 405.768038 186.411462 
L 406.104914 147.100569 
L 406.441789 242.713264 
L 407.115541 165.489464 
L 407.452417 177.665087 
L 407.789292 182.850779 
L 408.126168 178.955536 
L 408.463044 184.953733 
L 408.79992 209.63954 
L 409.136796 164.676959 
L 409.473671 177.617292 
L 409.810547 167.580469 
L 410.147423 175.036395 
L 410.484299 175.801105 
L 410.821175 200.797576 
L 411.15805 178.955536 
L 411.494926 178.202774 
L 411.831802 160.518846 
L 412.168678 192.302121 
L 412.505553 203.211193 
L 412.842429 147.721896 
L 413.179305 175.131984 
L 413.516181 169.157684 
L 413.853057 172.26432 
L 414.189932 195.492398 
L 414.526808 187.331504 
L 414.863684 208.898727 
L 415.20056 193.449187 
L 415.537435 186.42341 
L 415.874311 175.179778 
L 416.548063 205.995217 
L 416.884939 165.142954 
L 417.221814 171.463763 
L 417.55869 197.822375 
L 417.895566 182.468424 
L 418.232442 181.787354 
L 418.569317 185.849878 
L 418.906193 149.860695 
L 419.243069 227.897 
L 419.579945 140.540787 
L 419.916821 195.850856 
L 420.253696 208.970418 
L 420.590572 199.363744 
L 420.927448 166.696272 
L 421.264324 184.427994 
L 421.601199 181.691765 
L 421.938075 174.618194 
L 422.274951 164.533576 
L 422.611827 210.786605 
L 422.948703 186.076901 
L 423.285578 185.754289 
L 423.622454 178.943587 
L 423.95933 191.28649 
L 424.296206 181.154078 
L 424.633081 155.333154 
L 424.969957 219.795849 
L 425.306833 135.534324 
L 425.643709 214.956667 
L 425.980585 180.353522 
L 426.31746 191.931715 
L 426.654336 178.32226 
L 426.991212 177.97575 
L 427.328088 188.144009 
L 427.664963 178.632923 
L 428.001839 181.273564 
L 428.338715 176.721147 
L 428.675591 184.081485 
L 429.012467 188.144009 
L 429.349342 189.195486 
L 429.686218 183.938102 
L 430.35997 180.341573 
L 430.696845 172.26432 
L 431.033721 188.693644 
L 431.370597 176.231255 
L 431.707473 178.047442 
L 432.044349 196.06593 
L 432.7181 160.483 
L 433.391852 189.972145 
L 433.728727 172.981236 
L 434.065603 193.50893 
L 434.402479 178.370054 
L 434.739355 170.758796 
L 435.076231 228.506379 
L 435.413106 130.993856 
L 436.086858 229.68929 
L 436.423734 185.873775 
L 436.760609 167.269805 
L 437.097485 175.25147 
L 437.434361 175.645773 
L 437.771237 174.857166 
L 438.108113 181.500587 
L 438.444988 182.265298 
L 438.781864 192.039252 
L 439.11874 178.740461 
L 439.455616 198.312267 
L 439.792491 180.186241 
L 440.129367 180.341573 
L 440.466243 188.980411 
L 440.803119 172.479394 
L 441.139995 186.542896 
L 441.47687 189.135743 
L 441.813746 153.325789 
L 442.150622 196.567772 
L 442.487498 183.053905 
L 442.824373 179.122816 
L 443.161249 183.43626 
L 443.498125 203.796674 
L 443.835001 201.347211 
L 444.171877 188.251546 
L 444.508752 182.360886 
L 444.845628 183.627438 
L 445.182504 182.50427 
L 445.51938 194.978608 
L 445.856255 199.05308 
L 446.193131 223.237046 
L 446.530007 144.041727 
L 447.540634 192.194584 
L 447.87751 178.728512 
L 448.214386 191.752486 
L 448.551262 180.62834 
L 448.888137 183.734975 
L 449.225013 178.883844 
L 449.561889 179.218405 
L 449.898765 193.998823 
L 450.235641 176.52997 
L 450.572516 183.161443 
L 450.909392 206.485109 
L 451.246268 158.224715 
L 451.583144 182.002428 
L 451.920019 187.28371 
L 452.256895 195.313169 
L 452.593771 174.498708 
L 452.930647 191.071416 
L 453.267523 182.289195 
L 453.604398 198.957492 
L 453.941274 195.265374 
L 454.27815 172.790058 
L 454.615026 171.129203 
L 454.951901 172.324063 
L 455.288777 164.903982 
L 455.625653 150.58956 
L 455.962529 167.99867 
L 456.299405 203.031964 
L 456.63628 213.654269 
L 456.973156 191.776383 
L 457.310032 195.707472 
L 457.646908 173.256053 
L 457.983783 174.331427 
L 458.320659 189.111845 
L 458.657535 181.488639 
L 458.994411 190.712958 
L 459.331287 179.696349 
L 459.668162 191.812229 
L 460.341914 163.482099 
L 460.67879 215.506302 
L 461.015665 171.451815 
L 461.352541 167.65216 
L 461.689417 168.392973 
L 462.700044 186.901354 
L 463.03692 188.765336 
L 463.373796 188.179855 
L 463.710672 185.503368 
L 464.047547 224.336317 
L 464.384423 142.524255 
L 464.721299 129.966277 
L 465.058175 189.816813 
L 465.395051 182.599858 
L 466.068802 261.938561 
L 466.405678 145.308279 
L 467.079429 178.190825 
L 467.753181 185.849878 
L 468.090057 183.26898 
L 468.426933 183.292877 
L 468.763808 180.174293 
L 469.100684 181.918788 
L 469.43756 225.519229 
L 469.774436 155.858892 
L 470.448187 182.038274 
L 470.785063 184.105382 
L 471.121939 179.337891 
L 471.458815 185.74234 
L 471.79569 187.259812 
L 472.132566 196.137622 
L 472.469442 196.603617 
L 472.806318 197.726786 
L 473.143193 144.173162 
L 473.480069 183.161443 
L 473.816945 181.39305 
L 474.153821 192.756168 
L 474.490697 183.519901 
L 474.827572 180.28183 
L 475.164448 187.940883 
L 475.501324 188.072317 
L 475.8382 173.745946 
L 476.175075 185.969364 
L 476.511951 181.823199 
L 476.848827 185.037373 
L 477.185703 180.329625 
L 477.522579 182.205555 
L 477.859454 183.041957 
L 478.19633 199.411538 
L 478.533206 190.079682 
L 478.870082 157.973794 
L 479.206958 193.496981 
L 479.543833 173.865432 
L 479.880709 188.371032 
L 480.217585 175.93254 
L 480.554461 182.886625 
L 480.891336 195.265374 
L 481.228212 184.929835 
L 481.565088 181.655919 
L 481.901964 163.529893 
L 482.23884 182.802985 
L 482.575715 185.348036 
L 482.912591 186.757971 
L 483.249467 180.126498 
L 483.586343 181.99048 
L 483.923218 187.355401 
L 484.260094 239.690268 
L 484.59697 183.1017 
L 486.281349 183.1017 
L 486.618225 240.204058 
L 486.9551 137.004002 
L 487.291976 107.311731 
L 487.628852 179.803886 
L 487.965728 176.494124 
L 488.302604 158.380047 
L 488.639479 150.924121 
L 489.313231 231.254557 
L 489.650107 184.965681 
L 489.986982 189.649532 
L 490.323858 175.753311 
L 490.660734 182.994162 
L 490.99761 180.783671 
L 491.334486 192.337967 
L 491.671361 180.532751 
L 492.008237 184.786452 
L 492.345113 202.972221 
L 492.681989 163.147538 
L 493.018864 179.146713 
L 493.35574 207.16618 
L 493.692616 173.722049 
L 494.029492 165.525309 
L 494.366368 191.083364 
L 494.703243 169.408604 
L 495.040119 188.633901 
L 495.376995 194.78743 
L 495.713871 169.097941 
L 496.050746 178.047442 
L 496.387622 212.077054 
L 497.061374 163.051949 
L 497.39825 176.936222 
L 497.735125 186.136644 
L 498.072001 176.661404 
L 498.408877 181.428896 
L 499.082628 193.664262 
L 499.419504 186.602639 
L 499.75638 165.740384 
L 500.093256 175.33511 
L 500.430132 176.61361 
L 500.767007 232.807875 
L 501.103883 166.994987 
L 501.440759 181.261615 
L 501.777635 169.52809 
L 502.11451 215.960349 
L 502.451386 176.541918 
L 502.788262 180.066755 
L 503.125138 173.339694 
L 503.462014 212.817867 
L 503.798889 175.753311 
L 504.135765 176.864531 
L 504.472641 178.597078 
L 504.809517 181.823199 
L 505.146392 178.907741 
L 505.483268 174.90496 
L 505.820144 195.89865 
L 506.15702 159.12086 
L 506.493896 195.30122 
L 507.167647 169.707319 
L 507.504523 189.589789 
L 507.841399 169.8746 
L 508.178274 166.744067 
L 508.51515 204.537488 
L 509.188902 170.615413 
L 509.525778 182.731293 
L 509.862653 179.564914 
L 510.199529 211.384035 
L 510.536405 158.212766 
L 510.873281 186.42341 
L 511.210156 186.268079 
L 511.547032 188.633901 
L 511.883908 199.220361 
L 512.220784 186.554845 
L 512.55766 182.050223 
L 512.894535 193.855439 
L 513.231411 167.938927 
L 513.568287 212.79397 
L 513.905163 195.886701 
L 514.242038 135.390941 
L 514.91579 203.724983 
L 515.252666 180.341573 
L 515.589542 176.960119 
L 515.926417 181.404998 
L 516.263293 182.50427 
L 516.600169 180.580545 
L 516.937045 193.138523 
L 517.27392 174.271684 
L 517.610796 200.654193 
L 517.947672 165.298286 
L 518.284548 180.210139 
L 518.621424 185.180756 
L 518.958299 173.865432 
L 519.295175 189.24328 
L 519.632051 174.295582 
L 519.968927 184.499686 
L 520.305802 184.726709 
L 520.642678 198.706571 
L 520.979554 178.871895 
L 521.31643 182.492321 
L 521.653306 182.480372 
L 521.990181 184.905938 
L 522.327057 180.473008 
L 522.663933 173.363591 
L 523.000809 208.229605 
L 523.67456 165.967408 
L 524.348312 225.973276 
L 524.685188 164.043683 
L 525.022063 175.084189 
L 525.358939 197.499762 
L 525.695815 181.978531 
L 526.032691 182.826882 
L 526.369566 185.730392 
L 526.706442 179.182559 
L 527.043318 180.939003 
L 527.380194 177.80847 
L 527.71707 178.704615 
L 528.053945 179.051124 
L 528.390821 185.873775 
L 528.727697 183.089751 
L 529.064573 179.063073 
L 529.401448 181.082386 
L 529.738324 184.905938 
L 530.0752 184.834247 
L 530.412076 193.353598 
L 530.748952 176.589713 
L 531.085827 180.36547 
L 531.422703 186.471205 
L 531.759579 181.106283 
L 532.096455 180.449111 
L 532.43333 174.343376 
L 532.770206 197.906015 
L 533.107082 187.928934 
L 533.443958 181.64397 
L 533.780834 186.303924 
L 534.117709 180.939003 
L 534.454585 179.947269 
L 534.791461 187.044738 
L 535.128337 179.923372 
L 535.465212 182.623756 
L 535.802088 180.891209 
L 536.138964 170.770745 
L 536.47584 188.908719 
L 536.812716 193.986874 
L 537.149591 188.777285 
L 537.486467 172.59888 
L 538.160219 195.002505 
L 538.497094 178.871895 
L 538.83397 174.9886 
L 539.170846 179.015279 
L 539.507722 185.802083 
L 539.844598 185.479471 
L 540.181473 180.867312 
L 540.518349 191.453771 
L 541.192101 181.835148 
L 541.528976 185.204653 
L 541.865852 181.799302 
L 542.202728 184.523583 
L 542.539604 184.953733 
L 542.87648 178.059391 
L 543.550231 187.36735 
L 544.223983 170.591516 
L 544.560858 189.111845 
L 544.897734 187.235915 
L 545.23461 184.499686 
L 545.571486 194.679893 
L 545.908362 179.266199 
L 546.245237 194.452869 
L 546.582113 162.19165 
L 546.918989 184.356303 
L 547.255865 184.690863 
L 547.592741 182.743242 
L 548.266492 183.113648 
L 548.603368 176.792839 
L 548.940244 204.955689 
L 549.277119 147.662153 
L 549.613995 116.022261 
L 549.950871 188.884822 
L 550.287747 219.700261 
L 550.961498 172.336011 
L 551.298374 181.56033 
L 551.63525 185.013476 
L 551.972126 180.903157 
L 552.309001 187.594373 
L 552.645877 185.025424 
L 552.982753 178.895793 
L 553.319629 167.341497 
L 553.656505 184.392148 
L 553.99338 187.486836 
L 554.330256 183.161443 
L 554.667132 184.917887 
L 555.004008 190.163322 
L 555.340883 176.063974 
L 555.677759 179.732195 
L 556.014635 174.618194 
L 556.351511 198.778263 
L 556.688387 187.295658 
L 557.025262 180.186241 
L 557.362138 184.416046 
L 557.699014 182.420629 
L 558.03589 183.065854 
L 558.372765 179.911424 
L 558.709641 186.626537 
L 559.383393 183.233134 
L 559.720269 183.280929 
L 560.057144 172.204577 
L 560.39402 172.34796 
L 560.730896 192.385762 
L 561.067772 158.248612 
L 561.404647 283.135377 
L 561.741523 146.431447 
L 562.078399 127.911117 
L 562.415275 195.958393 
L 562.752151 212.62669 
L 563.089026 162.179701 
L 563.425902 178.047442 
L 563.762778 185.873775 
L 564.099654 184.320457 
L 564.436529 169.731217 
L 564.773405 192.756168 
L 565.110281 188.191803 
L 565.447157 195.145888 
L 565.784033 172.706418 
L 566.120908 184.595275 
L 566.457784 178.895793 
L 566.79466 185.527265 
L 567.468411 177.354423 
L 567.805287 186.25613 
L 568.142163 179.481274 
L 568.479039 183.340672 
L 568.815915 181.500587 
L 569.15279 185.336088 
L 569.826542 181.201872 
L 570.163418 183.340672 
L 570.500293 178.441746 
L 570.837169 184.559429 
L 571.174045 180.640288 
L 571.510921 183.221186 
L 571.847797 187.833345 
L 572.184672 181.261615 
L 572.521548 181.978531 
L 572.858424 186.220284 
L 573.1953 185.264396 
L 573.532175 185.204653 
L 573.869051 178.632923 
L 574.205927 164.796445 
L 574.542803 182.420629 
L 575.216554 239.056992 
L 575.890306 137.852352 
L 576.227182 140.337661 
L 576.564057 181.787354 
L 576.900933 185.467522 
L 577.237809 183.137545 
L 577.574685 184.643069 
L 577.911561 188.227649 
L 578.248436 187.630219 
L 578.585312 182.468424 
L 578.922188 170.949974 
L 579.259064 203.701086 
L 579.595939 183.69913 
L 579.932815 238.101104 
L 580.606567 114.875195 
L 580.943443 213.343606 
L 581.280318 172.216525 
L 581.617194 156.468271 
L 581.95407 210.475942 
L 582.290946 178.931638 
L 582.627821 181.536433 
L 582.964697 199.901431 
L 583.301573 175.956437 
L 583.638449 185.694546 
L 583.975325 185.861826 
L 584.3122 166.266123 
L 584.649076 188.610004 
L 584.985952 188.323238 
L 585.322828 188.884822 
L 585.659703 192.122892 
L 585.996579 181.04654 
L 586.333455 174.30753 
L 586.670331 223.2012 
L 587.007207 158.164972 
L 587.344082 173.961021 
L 587.680958 176.386587 
L 588.017834 164.724753 
L 588.35471 202.757146 
L 588.691585 148.558298 
L 589.028461 189.864607 
L 589.365337 213.152428 
L 589.702213 179.636606 
L 590.039089 181.416947 
L 590.375964 199.722202 
L 590.71284 164.163169 
L 591.049716 187.319555 
L 591.386592 170.98582 
L 591.723467 187.080583 
L 592.060343 182.575961 
L 592.397219 174.618194 
L 593.070971 190.462037 
L 593.407846 180.927055 
L 593.744722 179.624657 
L 594.081598 192.469402 
L 594.418474 194.452869 
L 594.755349 170.47203 
L 595.092225 174.462862 
L 595.429101 183.973947 
L 595.765977 201.478646 
L 596.102853 178.310311 
L 596.439728 180.437162 
L 596.776604 190.617369 
L 597.11348 178.800204 
L 597.450356 176.888428 
L 597.787231 181.64397 
L 598.124107 208.850932 
L 598.460983 143.683269 
L 598.797859 216.223218 
L 599.134735 194.715739 
L 599.47161 207.596329 
L 599.808486 131.065548 
L 600.145362 189.84071 
L 600.482238 180.425213 
L 600.819113 175.729414 
L 601.155989 178.154979 
L 601.492865 178.537335 
L 601.829741 183.663284 
L 602.166617 173.530871 
L 602.503492 206.688236 
L 602.840368 184.392148 
L 603.177244 182.444527 
L 603.51412 177.700933 
L 603.850995 176.434381 
L 604.187871 184.189022 
L 604.524747 174.689885 
L 604.861623 136.239291 
L 605.198499 152.501336 
L 605.535374 200.032866 
L 605.87225 302.814721 
L 606.546002 141.484727 
L 606.882877 225.328051 
L 607.219753 110.107704 
L 607.556629 113.453312 
L 607.893505 196.543874 
L 608.230381 181.739559 
L 608.567256 178.023545 
L 608.904132 176.111769 
L 609.241008 177.939905 
L 609.577884 175.514339 
L 609.914759 178.382003 
L 610.251635 171.559352 
L 610.588511 168.285436 
L 610.925387 169.707319 
L 611.262263 210.009946 
L 611.599138 235.735282 
L 611.936014 140.994834 
L 612.27289 167.508777 
L 612.609766 165.656744 
L 612.946642 155.464588 
L 613.283517 282.884456 
L 613.620393 225.877687 
L 613.957269 199.423487 
L 614.294145 43.697386 
L 614.63102 185.371934 
L 614.967896 157.579491 
L 615.304772 174.116353 
L 615.641648 173.190336 
L 615.978524 183.1017 
L 618.336654 183.1017 
L 618.67353 229.56383 
L 619.010406 136.63957 
L 619.347281 183.1017 
L 619.684157 208.725472 
L 620.021033 248.329106 
L 620.357909 181.452793 
L 620.694784 174.9886 
L 621.03166 220.668097 
L 621.368536 285.23833 
L 621.705412 167.365394 
L 622.042288 180.425213 
L 622.379163 84.812518 
L 622.716039 153.887373 
L 623.052915 144.878129 
L 623.389791 212.005362 
L 623.726666 230.752715 
L 624.063542 170.818539 
L 624.400418 237.682903 
L 624.737294 182.456475 
L 625.07417 218.839962 
L 625.411045 137.135436 
L 625.747921 207.058642 
L 626.084797 165.668693 
L 626.421673 218.481504 
L 626.758548 123.53793 
L 627.095424 139.333979 
L 627.4323 173.996867 
L 627.769176 109.002458 
L 628.106052 237.796415 
L 628.442927 175.466544 
L 628.779803 224.049551 
L 629.453555 146.957185 
L 629.79043 167.413188 
L 630.127306 264.137103 
L 630.464182 157.519748 
L 630.801058 155.572126 
L 631.137934 182.014377 
L 631.474809 164.139272 
L 631.811685 176.541918 
L 632.148561 177.366372 
L 632.485437 168.739483 
L 632.822312 193.759851 
L 633.159188 147.954893 
L 633.496064 295.281128 
L 633.83294 116.79892 
L 634.169816 137.225051 
L 634.506691 229.862545 
L 634.843567 180.007012 
L 635.180443 218.182789 
L 635.517319 139.23839 
L 635.854194 189.996042 
L 636.19107 143.300914 
L 636.527946 213.3914 
L 636.864822 375.832614 
L 637.201698 100.632464 
L 637.538573 143.67132 
L 637.875449 122.629836 
L 638.212325 190.68906 
L 638.549201 178.417849 
L 638.886076 279.048956 
L 639.222952 253.168289 
L 639.559828 180.317676 
L 639.896704 175.096138 
L 640.23358 121.351336 
L 640.570455 132.344048 
L 640.907331 165.334132 
L 641.244207 172.419651 
L 641.581083 300.867099 
L 641.917958 167.198113 
L 642.254834 92.877823 
L 642.928586 232.807875 
L 643.265462 138.856035 
L 643.939213 248.89069 
L 644.276089 169.492245 
L 644.612965 180.473008 
L 644.94984 219.819747 
L 645.286716 184.3802 
L 645.623592 238.602945 
L 645.960468 166.779912 
L 646.297344 187.522682 
L 646.634219 150.780737 
L 646.971095 174.546502 
L 647.307971 177.569498 
L 647.644847 239.511039 
L 647.981722 165.429721 
L 648.318598 214.383134 
L 648.655474 215.733326 
L 648.99235 141.902928 
L 649.329226 144.507722 
L 649.666101 168.584151 
L 650.002977 165.322183 
L 650.339853 199.363744 
L 651.013604 164.808393 
L 651.35048 181.536433 
L 651.687356 165.34608 
L 652.024232 205.959371 
L 652.361108 220.070667 
L 652.697983 150.6732 
L 653.034859 163.828608 
L 653.371735 172.4316 
L 653.708611 191.441822 
L 654.045486 172.013399 
L 654.382362 176.075923 
L 654.719238 139.776077 
L 655.056114 235.639693 
L 655.39299 205.62481 
L 655.729865 204.071492 
L 656.066741 179.182559 
L 656.403617 181.703713 
L 656.740493 177.282732 
L 657.077368 184.487737 
L 657.414244 168.894815 
L 657.75112 197.380276 
L 658.087996 176.494124 
L 658.424872 147.112517 
L 658.761747 253.144391 
L 659.098623 137.254922 
L 659.772375 215.470456 
L 660.10925 176.792839 
L 660.446126 197.129356 
L 660.783002 189.016257 
L 661.119878 206.831619 
L 661.456754 211.216755 
L 661.793629 165.644795 
L 662.130505 165.01152 
L 662.467381 169.635628 
L 662.804257 164.617216 
L 663.141132 179.015279 
L 663.478008 172.730315 
L 663.814884 207.775558 
L 664.15176 156.826729 
L 664.488636 168.154001 
L 664.825511 194.464818 
L 665.162387 193.317752 
L 665.499263 173.399437 
L 665.836139 182.814933 
L 666.173014 181.369153 
L 666.50989 187.857242 
L 666.846766 179.409582 
L 667.183642 194.166103 
L 667.520518 182.83883 
L 667.857393 198.563188 
L 668.194269 173.674254 
L 668.868021 186.889406 
L 669.204896 227.096444 
L 669.541772 155.870841 
L 669.878648 163.697174 
L 670.215524 186.996943 
L 670.5524 182.50427 
L 670.889275 167.640212 
L 671.226151 182.862728 
L 671.563027 177.999648 
L 671.899903 178.883844 
L 672.236778 183.723027 
L 672.573654 179.732195 
L 672.91053 191.226747 
L 673.247406 193.019037 
L 673.584282 168.476614 
L 674.258033 188.693644 
L 674.594909 212.483306 
L 674.931785 199.375693 
L 675.26866 153.301892 
L 675.605536 181.154078 
L 675.942412 166.122739 
L 676.279288 219.425443 
L 676.616164 204.955689 
L 676.953039 112.198709 
L 677.289915 197.977706 
L 677.626791 185.288293 
L 677.963667 166.4573 
L 678.300542 185.073219 
L 678.637418 184.726709 
L 678.974294 173.901278 
L 679.31117 215.733326 
L 679.648046 147.925022 
L 679.984921 181.30941 
L 680.321797 158.236664 
L 681.332425 182.623756 
L 681.6693 177.402218 
L 682.006176 225.662612 
L 682.343052 172.539137 
L 682.679928 168.691688 
L 683.016803 209.388619 
L 683.353679 201.263571 
L 683.690555 156.802832 
L 684.027431 190.163322 
L 684.364307 157.32857 
L 684.701182 183.43626 
L 685.038058 192.457453 
L 685.374934 188.263495 
L 685.71181 118.340289 
L 686.048685 237.085473 
L 686.385561 182.480372 
L 686.722437 186.196387 
L 687.396189 166.756015 
L 687.733064 181.166026 
L 688.06994 182.862728 
L 688.406816 176.195409 
L 688.743692 194.763533 
L 689.417443 184.750606 
L 689.754319 191.931715 
L 690.091195 166.80381 
L 690.428071 192.063149 
L 690.764946 197.451968 
L 691.101822 179.76804 
L 691.438698 134.016852 
L 691.775574 172.969287 
L 692.112449 226.6185 
L 692.449325 166.911347 
L 692.786201 192.158738 
L 693.123077 193.59257 
L 693.459953 165.358029 
L 693.796828 187.116429 
L 694.133704 171.535455 
L 694.47058 171.404021 
L 694.807456 189.434458 
L 695.144331 187.319555 
L 695.481207 179.959218 
L 695.818083 178.465643 
L 696.154959 201.538389 
L 696.491835 180.604442 
L 697.165586 195.360963 
L 697.502462 177.521704 
L 697.839338 190.748803 
L 698.176213 184.941784 
L 698.513089 197.26079 
L 698.849965 175.514339 
L 699.186841 185.993261 
L 699.523717 184.571377 
L 699.860592 156.862575 
L 700.197468 169.062095 
L 700.534344 199.065029 
L 700.87122 176.816736 
L 701.208095 171.607147 
L 701.544971 188.442724 
L 701.881847 171.356226 
L 702.218723 183.854461 
L 702.555599 188.084266 
L 702.892474 225.375846 
L 703.22935 150.697097 
L 703.903102 198.300319 
L 704.239977 139.991152 
L 704.576853 175.938514 
L 704.913729 183.1017 
L 705.250605 183.1017 
L 705.924356 203.760829 
L 706.261232 184.236817 
L 706.598108 185.790135 
L 706.934984 196.519977 
L 707.271859 163.876403 
L 707.608735 194.859122 
L 707.945611 190.306705 
L 708.282487 181.691765 
L 708.956238 179.887526 
L 709.293114 164.437987 
L 709.62999 193.449187 
L 709.966866 198.838006 
L 710.303741 181.416947 
L 710.640617 136.72321 
L 710.977493 183.1017 
L 711.314369 203.300808 
L 711.651245 183.723027 
L 711.98812 195.241477 
L 712.661872 171.415969 
L 712.998748 173.387488 
L 713.335623 178.453694 
L 714.009375 208.827035 
L 714.346251 177.450012 
L 714.683127 195.528243 
L 715.020002 228.171818 
L 715.356878 145.320227 
L 715.693754 127.116536 
L 716.03063 187.170198 
L 716.367505 189.852659 
L 717.041257 175.860848 
L 717.378133 184.248765 
L 717.715009 179.989089 
L 718.051884 183.1017 
L 719.062512 183.1017 
L 719.399387 225.071156 
L 719.736263 170.173315 
L 720.073139 207.225923 
L 720.410015 200.881216 
L 720.746891 147.51877 
L 721.083766 211.51547 
L 721.420642 156.121761 
L 721.757518 167.114473 
L 722.094394 190.904135 
L 722.431269 171.308432 
L 722.768145 185.730392 
L 723.105021 179.815835 
L 723.441897 176.09982 
L 723.778773 192.39771 
L 724.452524 168.171924 
L 724.7894 183.1017 
L 726.473779 183.1017 
L 726.810655 205.511298 
L 727.14753 163.21923 
L 727.484406 202.649609 
L 727.821282 200.84537 
L 728.158158 207.273717 
L 728.495033 176.231255 
L 728.831909 193.174369 
L 729.168785 177.438063 
L 729.505661 176.410484 
L 729.842537 170.495927 
L 730.179412 167.986721 
L 730.516288 155.984353 
L 730.853164 199.309975 
L 731.19004 166.893424 
L 731.526915 192.343942 
L 731.863791 198.12109 
L 732.200667 206.031063 
L 732.537543 138.939675 
L 732.874419 184.846195 
L 733.211294 190.306705 
L 733.54817 180.042858 
L 733.885046 174.18207 
L 734.221922 183.1017 
L 741.633189 183.1017 
L 741.970065 188.651824 
L 742.30694 177.551575 
L 742.643816 183.1017 
L 744.328195 183.1017 
L 744.665071 185.294268 
L 745.001947 180.909132 
L 745.338822 255.552034 
L 745.675698 146.180526 
L 746.012574 174.152198 
L 746.34945 156.52204 
L 746.686325 194.709764 
L 747.023201 185.706494 
L 747.360077 168.88884 
L 747.696953 183.920179 
L 748.033829 183.1017 
L 748.370704 324.358046 
L 748.70758 165.955459 
L 749.044456 125.031505 
L 749.381332 198.228627 
L 749.718208 204.441899 
L 750.055083 166.732118 
L 750.391959 184.404097 
L 750.728835 142.201643 
L 751.402586 215.064204 
L 751.739462 255.558009 
L 752.413214 122.17579 
L 752.75009 165.059314 
L 753.086965 166.779912 
L 753.423841 166.110791 
L 753.760717 156.617628 
L 754.097593 194.315461 
L 754.434468 346.570493 
L 754.771344 203.569651 
L 755.10822 113.931256 
L 755.445096 243.585512 
L 755.781972 168.643894 
L 756.118847 130.742936 
L 756.792599 183.902256 
L 757.129475 153.337738 
L 757.46635 286.301756 
L 757.803226 151.748574 
L 758.140102 153.982962 
L 758.476978 162.550108 
L 758.813854 336.330543 
L 759.150729 103.010236 
L 759.487605 150.326691 
L 759.824481 144.555517 
L 760.161357 167.126422 
L 760.498232 246.285895 
L 760.835108 151.903906 
L 761.171984 136.705287 
L 761.50886 138.12717 
L 761.845736 169.761088 
L 762.182611 354.283314 
L 762.519487 134.54259 
L 762.856363 118.184957 
L 763.193239 171.929759 
L 763.530114 139.931409 
L 764.540742 252.307989 
L 764.877618 116.954251 
L 765.214493 169.946291 
L 765.551369 164.396167 
L 765.888245 183.1017 
L 766.225121 183.1017 
L 766.898872 259.907299 
L 767.235748 160.208183 
L 767.572624 128.185935 
L 767.9095 157.197135 
L 768.246375 175.568108 
L 768.920127 190.551652 
L 769.257003 184.129279 
L 769.593878 174.624168 
L 769.930754 183.1017 
L 770.26763 209.549925 
L 770.604506 178.644872 
L 770.941382 161.110302 
L 771.615133 262.177533 
L 771.952009 111.374255 
L 772.288885 162.777131 
L 772.62576 279.921203 
L 773.636388 125.855958 
L 773.973264 157.973794 
L 774.310139 171.929759 
L 774.647015 198.085244 
L 774.983891 234.205861 
L 775.320767 155.691612 
L 775.657642 159.407626 
L 775.994518 151.641037 
L 776.331394 174.379222 
L 776.66827 251.662765 
L 777.005146 126.680412 
L 777.342021 165.119057 
L 777.678897 181.667868 
L 778.015773 158.081332 
L 778.352649 209.663437 
L 778.689524 165.166851 
L 779.0264 246.309792 
L 779.363276 108.082416 
L 779.700152 217.818356 
L 780.037028 182.109966 
L 780.373903 180.054807 
L 780.710779 187.558527 
L 781.047655 147.966842 
L 781.384531 202.67948 
L 781.721406 188.203752 
L 782.058282 158.421867 
L 782.395158 183.1017 
L 785.42704 183.1017 
L 785.763916 193.861414 
L 786.100792 172.341986 
L 786.437667 183.1017 
L 786.774543 226.206273 
L 787.111419 152.955382 
L 787.78517 183.1017 
L 788.795798 183.1017 
L 789.132674 261.299311 
L 789.469549 106.72625 
L 789.806425 181.279538 
L 790.143301 183.1017 
L 791.490804 183.1017 
L 791.82768 193.825568 
L 792.164556 172.377831 
L 792.501431 183.1017 
L 793.848934 183.1017 
L 794.18581 203.969929 
L 794.522686 306.925039 
L 794.859562 116.679434 
L 795.533313 154.72975 
L 795.870189 183.1017 
L 803.281456 183.1017 
L 803.618332 186.955123 
L 803.955208 179.248276 
L 804.292084 192.559016 
L 804.628959 221.014607 
L 804.965835 135.731476 
L 805.302711 183.1017 
L 812.377102 183.1017 
L 812.377102 183.1017 
" clip-path="url(#pbc94aca735)" style="fill: none; stroke: #87ceeb; stroke-linecap: square"/>
   </g>
   <g id="patch_3">
    <path d="M 37.73125 392.439375 
L 37.73125 27.090625 
" style="fill: none; stroke: #000000; stroke-width: 0.8; stroke-linejoin: miter; stroke-linecap: square"/>
   </g>
   <g id="patch_4">
    <path d="M 849.265 392.439375 
L 849.265 27.090625 
" style="fill: none; stroke: #000000; stroke-width: 0.8; stroke-linejoin: miter; stroke-linecap: square"/>
   </g>
   <g id="patch_5">
    <path d="M 37.73125 392.439375 
L 849.265 392.439375 
" style="fill: none; stroke: #000000; stroke-width: 0.8; stroke-linejoin: miter; stroke-linecap: square"/>
   </g>
   <g id="patch_6">
    <path d="M 37.73125 27.090625 
L 849.265 27.090625 
" style="fill: none; stroke: #000000; stroke-width: 0.8; stroke-linejoin: miter; stroke-linecap: square"/>
   </g>
   <g id="text_14">
    <!-- 一阶差分后的 NH3_N_mg/L 值（用于ACF/PACF） -->
    <g transform="translate(317.498125 17.090625) scale(0.12 -0.12)">
     <defs>
      <path id="SimHei-4e00" d="M 4875 2675 
Q 5525 2675 6050 2700 
L 6050 2050 
Q 5525 2075 4900 2075 
L 1600 2075 
Q 950 2075 350 2050 
L 350 2700 
Q 950 2675 1600 2675 
L 4875 2675 
z
" transform="scale(0.015625)"/>
      <path id="SimHei-9636" d="M 2450 4850 
Q 2350 4575 2175 3962 
Q 2000 3350 1825 2800 
Q 2225 2225 2312 1912 
Q 2400 1600 2375 1250 
Q 2350 900 2137 725 
Q 1925 550 1400 475 
Q 1300 925 1200 1075 
Q 1725 1025 1837 1225 
Q 1950 1425 1875 1775 
Q 1800 2125 1350 2725 
Q 1700 3825 1825 4400 
L 975 4400 
L 975 -500 
L 500 -500 
Q 525 175 525 675 
L 525 3650 
Q 525 4225 500 4850 
L 2450 4850 
z
M 4250 4825 
Q 4600 4100 5187 3637 
Q 5775 3175 6200 3025 
Q 5950 2775 5800 2500 
Q 4975 3075 4600 3512 
Q 4225 3950 4025 4400 
Q 3850 4025 3512 3487 
Q 3175 2950 2625 2350 
Q 2425 2575 2175 2700 
Q 2700 3075 3150 3787 
Q 3600 4500 3850 5275 
Q 4050 5150 4375 5075 
Q 4275 4900 4250 4825 
z
M 3750 2700 
Q 3650 2325 3575 1512 
Q 3500 700 3250 225 
Q 3000 -250 2650 -575 
Q 2425 -400 2175 -300 
Q 2550 -25 2762 337 
Q 2975 700 3087 1200 
Q 3200 1700 3200 2800 
Q 3350 2725 3750 2700 
z
M 5025 2775 
Q 4975 2425 4975 2025 
L 4975 350 
Q 4975 100 5000 -525 
L 4475 -525 
Q 4500 150 4500 375 
L 4500 2025 
Q 4500 2375 4475 2775 
L 5025 2775 
z
" transform="scale(0.015625)"/>
      <path id="SimHei-ff08" d="M 5425 5100 
L 5700 4775 
Q 4275 3725 4325 2350 
Q 4350 1025 5675 50 
L 5400 -275 
Q 3875 825 3925 2500 
Q 3925 3875 5425 5100 
z
" transform="scale(0.015625)"/>
      <path id="SimHei-7528" d="M 350 -300 
Q 650 125 812 600 
Q 975 1075 1012 1550 
Q 1050 2025 1050 3150 
Q 1050 4275 1025 4950 
L 5500 4950 
Q 5475 4225 5475 3650 
L 5475 375 
Q 5475 -150 5175 -275 
Q 4875 -400 4475 -450 
Q 4425 -75 4300 125 
Q 4800 100 4887 162 
Q 4975 225 4975 400 
L 4975 1650 
L 3450 1650 
L 3450 675 
Q 3450 125 3475 -325 
L 2925 -325 
Q 2950 100 2950 650 
L 2950 1650 
L 1525 1650 
Q 1425 575 850 -525 
Q 575 -350 350 -300 
z
M 4975 3475 
L 4975 4550 
L 3450 4550 
L 3450 3475 
L 4975 3475 
z
M 4975 2050 
L 4975 3100 
L 3450 3100 
L 3450 2050 
L 4975 2050 
z
M 2950 3475 
L 2950 4550 
L 1525 4550 
L 1525 3475 
L 2950 3475 
z
M 2950 2050 
L 2950 3100 
L 1525 3100 
L 1525 2050 
L 2950 2050 
z
" transform="scale(0.015625)"/>
      <path id="SimHei-4e8e" d="M 2900 2425 
L 1150 2425 
Q 650 2425 275 2400 
L 275 2900 
Q 650 2875 1150 2875 
L 2900 2875 
L 2900 4450 
L 1675 4450 
Q 1225 4450 900 4425 
L 900 4925 
Q 1225 4900 1675 4900 
L 4525 4900 
Q 4950 4900 5375 4925 
L 5375 4425 
Q 4950 4450 4525 4450 
L 3425 4450 
L 3425 2875 
L 5050 2875 
Q 5600 2875 6050 2900 
L 6050 2400 
Q 5650 2425 5050 2425 
L 3425 2425 
L 3425 125 
Q 3425 -325 3125 -412 
Q 2825 -500 2250 -525 
Q 2225 -200 2050 150 
Q 2450 100 2675 112 
Q 2900 125 2900 325 
L 2900 2425 
z
" transform="scale(0.015625)"/>
      <path id="SimHei-41" d="M 3075 125 
L 2475 125 
L 2125 1450 
L 1025 1450 
L 675 125 
L 75 125 
L 1325 4450 
L 1825 4450 
L 3075 125 
z
M 2000 1925 
L 1600 3450 
L 1550 3450 
L 1150 1925 
L 2000 1925 
z
" transform="scale(0.015625)"/>
      <path id="SimHei-43" d="M 2975 1825 
Q 2950 875 2575 475 
Q 2200 75 1675 75 
Q 1075 75 650 562 
Q 225 1050 225 2125 
Q 225 3300 637 3875 
Q 1050 4450 1700 4450 
Q 2250 4450 2612 4037 
Q 2975 3625 2950 2875 
L 2400 2875 
Q 2400 3425 2225 3700 
Q 2050 3975 1700 3975 
Q 1300 3975 1062 3562 
Q 825 3150 825 2175 
Q 825 1275 1062 912 
Q 1300 550 1675 550 
Q 1950 550 2175 812 
Q 2400 1075 2400 1825 
L 2975 1825 
z
" transform="scale(0.015625)"/>
      <path id="SimHei-46" d="M 2925 3925 
L 875 3925 
L 875 2525 
L 2425 2525 
L 2425 2050 
L 875 2050 
L 875 125 
L 300 125 
L 300 4400 
L 2925 4400 
L 2925 3925 
z
" transform="scale(0.015625)"/>
      <path id="SimHei-50" d="M 2950 3100 
Q 2950 2500 2600 2150 
Q 2250 1800 1625 1800 
L 900 1800 
L 900 125 
L 325 125 
L 325 4400 
L 1625 4400 
Q 2250 4400 2600 4050 
Q 2950 3700 2950 3100 
z
M 2375 3100 
Q 2375 3575 2150 3750 
Q 1925 3925 1475 3925 
L 900 3925 
L 900 2275 
L 1475 2275 
Q 1925 2275 2150 2450 
Q 2375 2625 2375 3100 
z
" transform="scale(0.015625)"/>
      <path id="SimHei-ff09" d="M 1000 5100 
Q 2500 3875 2500 2500 
Q 2550 825 1025 -275 
L 750 50 
Q 2075 1025 2100 2350 
Q 2150 3725 725 4775 
L 1000 5100 
z
" transform="scale(0.015625)"/>
     </defs>
     <use xlink:href="#SimHei-4e00"/>
     <use xlink:href="#SimHei-9636" transform="translate(100 0)"/>
     <use xlink:href="#SimHei-5dee" transform="translate(200 0)"/>
     <use xlink:href="#SimHei-5206" transform="translate(300 0)"/>
     <use xlink:href="#SimHei-540e" transform="translate(400 0)"/>
     <use xlink:href="#SimHei-7684" transform="translate(500 0)"/>
     <use xlink:href="#SimHei-20" transform="translate(600 0)"/>
     <use xlink:href="#SimHei-4e" transform="translate(650 0)"/>
     <use xlink:href="#SimHei-48" transform="translate(700 0)"/>
     <use xlink:href="#SimHei-33" transform="translate(750 0)"/>
     <use xlink:href="#SimHei-5f" transform="translate(800 0)"/>
     <use xlink:href="#SimHei-4e" transform="translate(850 0)"/>
     <use xlink:href="#SimHei-5f" transform="translate(900 0)"/>
     <use xlink:href="#SimHei-6d" transform="translate(950 0)"/>
     <use xlink:href="#SimHei-67" transform="translate(1000 0)"/>
     <use xlink:href="#SimHei-2f" transform="translate(1050 0)"/>
     <use xlink:href="#SimHei-4c" transform="translate(1100 0)"/>
     <use xlink:href="#SimHei-20" transform="translate(1150 0)"/>
     <use xlink:href="#SimHei-503c" transform="translate(1200 0)"/>
     <use xlink:href="#SimHei-ff08" transform="translate(1300 0)"/>
     <use xlink:href="#SimHei-7528" transform="translate(1400 0)"/>
     <use xlink:href="#SimHei-4e8e" transform="translate(1500 0)"/>
     <use xlink:href="#SimHei-41" transform="translate(1600 0)"/>
     <use xlink:href="#SimHei-43" transform="translate(1650 0)"/>
     <use xlink:href="#SimHei-46" transform="translate(1700 0)"/>
     <use xlink:href="#SimHei-2f" transform="translate(1750 0)"/>
     <use xlink:href="#SimHei-50" transform="translate(1800 0)"/>
     <use xlink:href="#SimHei-41" transform="translate(1850 0)"/>
     <use xlink:href="#SimHei-43" transform="translate(1900 0)"/>
     <use xlink:href="#SimHei-46" transform="translate(1950 0)"/>
     <use xlink:href="#SimHei-ff09" transform="translate(2000 0)"/>
    </g>
   </g>
   <g id="legend_1">
    <g id="patch_7">
     <path d="M 625.165 47.403906 
L 842.965 47.403906 
Q 844.765 47.403906 844.765 45.603906 
L 844.765 33.390625 
Q 844.765 31.590625 842.965 31.590625 
L 625.165 31.590625 
Q 623.365 31.590625 623.365 33.390625 
L 623.365 45.603906 
Q 623.365 47.403906 625.165 47.403906 
z
" style="fill: #ffffff; opacity: 0.8; stroke: #cccccc; stroke-width: 0.5; stroke-linejoin: miter"/>
    </g>
    <g id="line2d_24">
     <path d="M 626.965 39.458594 
L 635.965 39.458594 
L 644.965 39.458594 
" style="fill: none; stroke: #87ceeb; stroke-linecap: square"/>
    </g>
    <g id="text_15">
     <!-- 一阶差分后的 NH3_N_mg/L 值（用于ACF/PACF） -->
     <g transform="translate(652.165 42.608594) scale(0.09 -0.09)">
      <use xlink:href="#SimHei-4e00"/>
      <use xlink:href="#SimHei-9636" transform="translate(100 0)"/>
      <use xlink:href="#SimHei-5dee" transform="translate(200 0)"/>
      <use xlink:href="#SimHei-5206" transform="translate(300 0)"/>
      <use xlink:href="#SimHei-540e" transform="translate(400 0)"/>
      <use xlink:href="#SimHei-7684" transform="translate(500 0)"/>
      <use xlink:href="#SimHei-20" transform="translate(600 0)"/>
      <use xlink:href="#SimHei-4e" transform="translate(650 0)"/>
      <use xlink:href="#SimHei-48" transform="translate(700 0)"/>
      <use xlink:href="#SimHei-33" transform="translate(750 0)"/>
      <use xlink:href="#SimHei-5f" transform="translate(800 0)"/>
      <use xlink:href="#SimHei-4e" transform="translate(850 0)"/>
      <use xlink:href="#SimHei-5f" transform="translate(900 0)"/>
      <use xlink:href="#SimHei-6d" transform="translate(950 0)"/>
      <use xlink:href="#SimHei-67" transform="translate(1000 0)"/>
      <use xlink:href="#SimHei-2f" transform="translate(1050 0)"/>
      <use xlink:href="#SimHei-4c" transform="translate(1100 0)"/>
      <use xlink:href="#SimHei-20" transform="translate(1150 0)"/>
      <use xlink:href="#SimHei-503c" transform="translate(1200 0)"/>
      <use xlink:href="#SimHei-ff08" transform="translate(1300 0)"/>
      <use xlink:href="#SimHei-7528" transform="translate(1400 0)"/>
      <use xlink:href="#SimHei-4e8e" transform="translate(1500 0)"/>
      <use xlink:href="#SimHei-41" transform="translate(1600 0)"/>
      <use xlink:href="#SimHei-43" transform="translate(1650 0)"/>
      <use xlink:href="#SimHei-46" transform="translate(1700 0)"/>
      <use xlink:href="#SimHei-2f" transform="translate(1750 0)"/>
      <use xlink:href="#SimHei-50" transform="translate(1800 0)"/>
      <use xlink:href="#SimHei-41" transform="translate(1850 0)"/>
      <use xlink:href="#SimHei-43" transform="translate(1900 0)"/>
      <use xlink:href="#SimHei-46" transform="translate(1950 0)"/>
      <use xlink:href="#SimHei-ff09" transform="translate(2000 0)"/>
     </g>
    </g>
   </g>
  </g>
 </g>
 <defs>
  <clipPath id="pbc94aca735">
   <rect x="37.73125" y="27.090625" width="811.53375" height="365.34875"/>
  </clipPath>
 </defs>
</svg>
