<?xml version="1.0" encoding="utf-8" standalone="no"?>
<!DOCTYPE svg PUBLIC "-//W3C//DTD SVG 1.1//EN"
  "http://www.w3.org/Graphics/SVG/1.1/DTD/svg11.dtd">
<svg xmlns:xlink="http://www.w3.org/1999/xlink" width="712.5975pt" height="422.786562pt" viewBox="0 0 712.5975 422.786562" xmlns="http://www.w3.org/2000/svg" version="1.1">
 <metadata>
  <rdf:RDF xmlns:dc="http://purl.org/dc/elements/1.1/" xmlns:cc="http://creativecommons.org/ns#" xmlns:rdf="http://www.w3.org/1999/02/22-rdf-syntax-ns#">
   <cc:Work>
    <dc:type rdf:resource="http://purl.org/dc/dcmitype/StillImage"/>
    <dc:date>2026-01-16T01:48:18.012974</dc:date>
    <dc:format>image/svg+xml</dc:format>
    <dc:creator>
     <cc:Agent>
      <dc:title>Matplotlib v3.10.0, https://matplotlib.org/</dc:title>
     </cc:Agent>
    </dc:creator>
   </cc:Work>
  </rdf:RDF>
 </metadata>
 <defs>
  <style type="text/css">*{stroke-linejoin: round; stroke-linecap: butt}</style>
 </defs>
 <g id="figure_1">
  <g id="patch_1">
   <path d="M 0 422.786562 
L 712.5975 422.786562 
L 712.5975 0 
L 0 0 
z
" style="fill: #ffffff"/>
  </g>
  <g id="axes_1">
   <g id="patch_2">
    <path d="M 36.10875 389.698125 
L 705.3975 389.698125 
L 705.3975 26.318125 
L 36.10875 26.318125 
z
" style="fill: #ffffff"/>
   </g>
   <g id="matplotlib.axis_1">
    <g id="xtick_1">
     <g id="line2d_1">
      <path d="M 66.253264 389.698125 
L 66.253264 26.318125 
" clip-path="url(#pec8f5e4680)" style="fill: none; stroke-dasharray: 1.85,0.8; stroke-dashoffset: 0; stroke: #b2b2b2; stroke-opacity: 0.3; stroke-width: 0.5"/>
     </g>
     <g id="line2d_2">
      <defs>
       <path id="m2dc8d2aff9" d="M 0 0 
L 0 -3.5 
" style="stroke: #000000; stroke-width: 0.8"/>
      </defs>
      <g>
       <use xlink:href="#m2dc8d2aff9" x="66.253264" y="389.698125" style="stroke: #000000; stroke-width: 0.8"/>
      </g>
     </g>
     <g id="text_1">
      <!-- 0 -->
      <g transform="translate(63.390139 400.036719) scale(0.09 -0.09)">
       <defs>
        <path id="DejaVuSans-30" d="M 2034 4250 
Q 1547 4250 1301 3770 
Q 1056 3291 1056 2328 
Q 1056 1369 1301 889 
Q 1547 409 2034 409 
Q 2525 409 2770 889 
Q 3016 1369 3016 2328 
Q 3016 3291 2770 3770 
Q 2525 4250 2034 4250 
z
M 2034 4750 
Q 2819 4750 3233 4129 
Q 3647 3509 3647 2328 
Q 3647 1150 3233 529 
Q 2819 -91 2034 -91 
Q 1250 -91 836 529 
Q 422 1150 422 2328 
Q 422 3509 836 4129 
Q 1250 4750 2034 4750 
z
" transform="scale(0.015625)"/>
       </defs>
       <use xlink:href="#DejaVuSans-30"/>
      </g>
     </g>
    </g>
    <g id="xtick_2">
     <g id="line2d_3">
      <path d="M 205.10409 389.698125 
L 205.10409 26.318125 
" clip-path="url(#pec8f5e4680)" style="fill: none; stroke-dasharray: 1.85,0.8; stroke-dashoffset: 0; stroke: #b2b2b2; stroke-opacity: 0.3; stroke-width: 0.5"/>
     </g>
     <g id="line2d_4">
      <g>
       <use xlink:href="#m2dc8d2aff9" x="205.10409" y="389.698125" style="stroke: #000000; stroke-width: 0.8"/>
      </g>
     </g>
     <g id="text_2">
      <!-- 500 -->
      <g transform="translate(196.514715 400.036719) scale(0.09 -0.09)">
       <defs>
        <path id="DejaVuSans-35" d="M 691 4666 
L 3169 4666 
L 3169 4134 
L 1269 4134 
L 1269 2991 
Q 1406 3038 1543 3061 
Q 1681 3084 1819 3084 
Q 2600 3084 3056 2656 
Q 3513 2228 3513 1497 
Q 3513 744 3044 326 
Q 2575 -91 1722 -91 
Q 1428 -91 1123 -41 
Q 819 9 494 109 
L 494 744 
Q 775 591 1075 516 
Q 1375 441 1709 441 
Q 2250 441 2565 725 
Q 2881 1009 2881 1497 
Q 2881 1984 2565 2268 
Q 2250 2553 1709 2553 
Q 1456 2553 1204 2497 
Q 953 2441 691 2322 
L 691 4666 
z
" transform="scale(0.015625)"/>
       </defs>
       <use xlink:href="#DejaVuSans-35"/>
       <use xlink:href="#DejaVuSans-30" transform="translate(63.623047 0)"/>
       <use xlink:href="#DejaVuSans-30" transform="translate(127.246094 0)"/>
      </g>
     </g>
    </g>
    <g id="xtick_3">
     <g id="line2d_5">
      <path d="M 343.954916 389.698125 
L 343.954916 26.318125 
" clip-path="url(#pec8f5e4680)" style="fill: none; stroke-dasharray: 1.85,0.8; stroke-dashoffset: 0; stroke: #b2b2b2; stroke-opacity: 0.3; stroke-width: 0.5"/>
     </g>
     <g id="line2d_6">
      <g>
       <use xlink:href="#m2dc8d2aff9" x="343.954916" y="389.698125" style="stroke: #000000; stroke-width: 0.8"/>
      </g>
     </g>
     <g id="text_3">
      <!-- 1000 -->
      <g transform="translate(332.502416 400.036719) scale(0.09 -0.09)">
       <defs>
        <path id="DejaVuSans-31" d="M 794 531 
L 1825 531 
L 1825 4091 
L 703 3866 
L 703 4441 
L 1819 4666 
L 2450 4666 
L 2450 531 
L 3481 531 
L 3481 0 
L 794 0 
L 794 531 
z
" transform="scale(0.015625)"/>
       </defs>
       <use xlink:href="#DejaVuSans-31"/>
       <use xlink:href="#DejaVuSans-30" transform="translate(63.623047 0)"/>
       <use xlink:href="#DejaVuSans-30" transform="translate(127.246094 0)"/>
       <use xlink:href="#DejaVuSans-30" transform="translate(190.869141 0)"/>
      </g>
     </g>
    </g>
    <g id="xtick_4">
     <g id="line2d_7">
      <path d="M 482.805741 389.698125 
L 482.805741 26.318125 
" clip-path="url(#pec8f5e4680)" style="fill: none; stroke-dasharray: 1.85,0.8; stroke-dashoffset: 0; stroke: #b2b2b2; stroke-opacity: 0.3; stroke-width: 0.5"/>
     </g>
     <g id="line2d_8">
      <g>
       <use xlink:href="#m2dc8d2aff9" x="482.805741" y="389.698125" style="stroke: #000000; stroke-width: 0.8"/>
      </g>
     </g>
     <g id="text_4">
      <!-- 1500 -->
      <g transform="translate(471.353241 400.036719) scale(0.09 -0.09)">
       <use xlink:href="#DejaVuSans-31"/>
       <use xlink:href="#DejaVuSans-35" transform="translate(63.623047 0)"/>
       <use xlink:href="#DejaVuSans-30" transform="translate(127.246094 0)"/>
       <use xlink:href="#DejaVuSans-30" transform="translate(190.869141 0)"/>
      </g>
     </g>
    </g>
    <g id="xtick_5">
     <g id="line2d_9">
      <path d="M 621.656567 389.698125 
L 621.656567 26.318125 
" clip-path="url(#pec8f5e4680)" style="fill: none; stroke-dasharray: 1.85,0.8; stroke-dashoffset: 0; stroke: #b2b2b2; stroke-opacity: 0.3; stroke-width: 0.5"/>
     </g>
     <g id="line2d_10">
      <g>
       <use xlink:href="#m2dc8d2aff9" x="621.656567" y="389.698125" style="stroke: #000000; stroke-width: 0.8"/>
      </g>
     </g>
     <g id="text_5">
      <!-- 2000 -->
      <g transform="translate(610.204067 400.036719) scale(0.09 -0.09)">
       <defs>
        <path id="DejaVuSans-32" d="M 1228 531 
L 3431 531 
L 3431 0 
L 469 0 
L 469 531 
Q 828 903 1448 1529 
Q 2069 2156 2228 2338 
Q 2531 2678 2651 2914 
Q 2772 3150 2772 3378 
Q 2772 3750 2511 3984 
Q 2250 4219 1831 4219 
Q 1534 4219 1204 4116 
Q 875 4013 500 3803 
L 500 4441 
Q 881 4594 1212 4672 
Q 1544 4750 1819 4750 
Q 2544 4750 2975 4387 
Q 3406 4025 3406 3419 
Q 3406 3131 3298 2873 
Q 3191 2616 2906 2266 
Q 2828 2175 2409 1742 
Q 1991 1309 1228 531 
z
" transform="scale(0.015625)"/>
       </defs>
       <use xlink:href="#DejaVuSans-32"/>
       <use xlink:href="#DejaVuSans-30" transform="translate(63.623047 0)"/>
       <use xlink:href="#DejaVuSans-30" transform="translate(127.246094 0)"/>
       <use xlink:href="#DejaVuSans-30" transform="translate(190.869141 0)"/>
      </g>
     </g>
    </g>
    <g id="text_6">
     <!-- time / number -->
     <g transform="translate(335.080469 413.506875) scale(0.1 -0.1)">
      <defs>
       <path id="DejaVuSans-74" d="M 1172 4494 
L 1172 3500 
L 2356 3500 
L 2356 3053 
L 1172 3053 
L 1172 1153 
Q 1172 725 1289 603 
Q 1406 481 1766 481 
L 2356 481 
L 2356 0 
L 1766 0 
Q 1100 0 847 248 
Q 594 497 594 1153 
L 594 3053 
L 172 3053 
L 172 3500 
L 594 3500 
L 594 4494 
L 1172 4494 
z
" transform="scale(0.015625)"/>
       <path id="DejaVuSans-69" d="M 603 3500 
L 1178 3500 
L 1178 0 
L 603 0 
L 603 3500 
z
M 603 4863 
L 1178 4863 
L 1178 4134 
L 603 4134 
L 603 4863 
z
" transform="scale(0.015625)"/>
       <path id="DejaVuSans-6d" d="M 3328 2828 
Q 3544 3216 3844 3400 
Q 4144 3584 4550 3584 
Q 5097 3584 5394 3201 
Q 5691 2819 5691 2113 
L 5691 0 
L 5113 0 
L 5113 2094 
Q 5113 2597 4934 2840 
Q 4756 3084 4391 3084 
Q 3944 3084 3684 2787 
Q 3425 2491 3425 1978 
L 3425 0 
L 2847 0 
L 2847 2094 
Q 2847 2600 2669 2842 
Q 2491 3084 2119 3084 
Q 1678 3084 1418 2786 
Q 1159 2488 1159 1978 
L 1159 0 
L 581 0 
L 581 3500 
L 1159 3500 
L 1159 2956 
Q 1356 3278 1631 3431 
Q 1906 3584 2284 3584 
Q 2666 3584 2933 3390 
Q 3200 3197 3328 2828 
z
" transform="scale(0.015625)"/>
       <path id="DejaVuSans-65" d="M 3597 1894 
L 3597 1613 
L 953 1613 
Q 991 1019 1311 708 
Q 1631 397 2203 397 
Q 2534 397 2845 478 
Q 3156 559 3463 722 
L 3463 178 
Q 3153 47 2828 -22 
Q 2503 -91 2169 -91 
Q 1331 -91 842 396 
Q 353 884 353 1716 
Q 353 2575 817 3079 
Q 1281 3584 2069 3584 
Q 2775 3584 3186 3129 
Q 3597 2675 3597 1894 
z
M 3022 2063 
Q 3016 2534 2758 2815 
Q 2500 3097 2075 3097 
Q 1594 3097 1305 2825 
Q 1016 2553 972 2059 
L 3022 2063 
z
" transform="scale(0.015625)"/>
       <path id="DejaVuSans-20" transform="scale(0.015625)"/>
       <path id="DejaVuSans-2f" d="M 1625 4666 
L 2156 4666 
L 531 -594 
L 0 -594 
L 1625 4666 
z
" transform="scale(0.015625)"/>
       <path id="DejaVuSans-6e" d="M 3513 2113 
L 3513 0 
L 2938 0 
L 2938 2094 
Q 2938 2591 2744 2837 
Q 2550 3084 2163 3084 
Q 1697 3084 1428 2787 
Q 1159 2491 1159 1978 
L 1159 0 
L 581 0 
L 581 3500 
L 1159 3500 
L 1159 2956 
Q 1366 3272 1645 3428 
Q 1925 3584 2291 3584 
Q 2894 3584 3203 3211 
Q 3513 2838 3513 2113 
z
" transform="scale(0.015625)"/>
       <path id="DejaVuSans-75" d="M 544 1381 
L 544 3500 
L 1119 3500 
L 1119 1403 
Q 1119 906 1312 657 
Q 1506 409 1894 409 
Q 2359 409 2629 706 
Q 2900 1003 2900 1516 
L 2900 3500 
L 3475 3500 
L 3475 0 
L 2900 0 
L 2900 538 
Q 2691 219 2414 64 
Q 2138 -91 1772 -91 
Q 1169 -91 856 284 
Q 544 659 544 1381 
z
M 1991 3584 
L 1991 3584 
z
" transform="scale(0.015625)"/>
       <path id="DejaVuSans-62" d="M 3116 1747 
Q 3116 2381 2855 2742 
Q 2594 3103 2138 3103 
Q 1681 3103 1420 2742 
Q 1159 2381 1159 1747 
Q 1159 1113 1420 752 
Q 1681 391 2138 391 
Q 2594 391 2855 752 
Q 3116 1113 3116 1747 
z
M 1159 2969 
Q 1341 3281 1617 3432 
Q 1894 3584 2278 3584 
Q 2916 3584 3314 3078 
Q 3713 2572 3713 1747 
Q 3713 922 3314 415 
Q 2916 -91 2278 -91 
Q 1894 -91 1617 61 
Q 1341 213 1159 525 
L 1159 0 
L 581 0 
L 581 4863 
L 1159 4863 
L 1159 2969 
z
" transform="scale(0.015625)"/>
       <path id="DejaVuSans-72" d="M 2631 2963 
Q 2534 3019 2420 3045 
Q 2306 3072 2169 3072 
Q 1681 3072 1420 2755 
Q 1159 2438 1159 1844 
L 1159 0 
L 581 0 
L 581 3500 
L 1159 3500 
L 1159 2956 
Q 1341 3275 1631 3429 
Q 1922 3584 2338 3584 
Q 2397 3584 2469 3576 
Q 2541 3569 2628 3553 
L 2631 2963 
z
" transform="scale(0.015625)"/>
      </defs>
      <use xlink:href="#DejaVuSans-74"/>
      <use xlink:href="#DejaVuSans-69" transform="translate(39.208984 0)"/>
      <use xlink:href="#DejaVuSans-6d" transform="translate(66.992188 0)"/>
      <use xlink:href="#DejaVuSans-65" transform="translate(164.404297 0)"/>
      <use xlink:href="#DejaVuSans-20" transform="translate(225.927734 0)"/>
      <use xlink:href="#DejaVuSans-2f" transform="translate(257.714844 0)"/>
      <use xlink:href="#DejaVuSans-20" transform="translate(291.40625 0)"/>
      <use xlink:href="#DejaVuSans-6e" transform="translate(323.193359 0)"/>
      <use xlink:href="#DejaVuSans-75" transform="translate(386.572266 0)"/>
      <use xlink:href="#DejaVuSans-6d" transform="translate(449.951172 0)"/>
      <use xlink:href="#DejaVuSans-62" transform="translate(547.363281 0)"/>
      <use xlink:href="#DejaVuSans-65" transform="translate(610.839844 0)"/>
      <use xlink:href="#DejaVuSans-72" transform="translate(672.363281 0)"/>
     </g>
    </g>
   </g>
   <g id="matplotlib.axis_2">
    <g id="ytick_1">
     <g id="line2d_11">
      <path d="M 36.10875 375.055884 
L 705.3975 375.055884 
" clip-path="url(#pec8f5e4680)" style="fill: none; stroke-dasharray: 1.85,0.8; stroke-dashoffset: 0; stroke: #b2b2b2; stroke-opacity: 0.3; stroke-width: 0.5"/>
     </g>
     <g id="line2d_12">
      <defs>
       <path id="m21baa0d0e3" d="M 0 0 
L 3.5 0 
" style="stroke: #000000; stroke-width: 0.8"/>
      </defs>
      <g>
       <use xlink:href="#m21baa0d0e3" x="36.10875" y="375.055884" style="stroke: #000000; stroke-width: 0.8"/>
      </g>
     </g>
     <g id="text_7">
      <!-- 0 -->
      <g transform="translate(26.8825 378.475181) scale(0.09 -0.09)">
       <use xlink:href="#DejaVuSans-30"/>
      </g>
     </g>
    </g>
    <g id="ytick_2">
     <g id="line2d_13">
      <path d="M 36.10875 314.375235 
L 705.3975 314.375235 
" clip-path="url(#pec8f5e4680)" style="fill: none; stroke-dasharray: 1.85,0.8; stroke-dashoffset: 0; stroke: #b2b2b2; stroke-opacity: 0.3; stroke-width: 0.5"/>
     </g>
     <g id="line2d_14">
      <g>
       <use xlink:href="#m21baa0d0e3" x="36.10875" y="314.375235" style="stroke: #000000; stroke-width: 0.8"/>
      </g>
     </g>
     <g id="text_8">
      <!-- 5 -->
      <g transform="translate(26.8825 317.794532) scale(0.09 -0.09)">
       <use xlink:href="#DejaVuSans-35"/>
      </g>
     </g>
    </g>
    <g id="ytick_3">
     <g id="line2d_15">
      <path d="M 36.10875 253.694586 
L 705.3975 253.694586 
" clip-path="url(#pec8f5e4680)" style="fill: none; stroke-dasharray: 1.85,0.8; stroke-dashoffset: 0; stroke: #b2b2b2; stroke-opacity: 0.3; stroke-width: 0.5"/>
     </g>
     <g id="line2d_16">
      <g>
       <use xlink:href="#m21baa0d0e3" x="36.10875" y="253.694586" style="stroke: #000000; stroke-width: 0.8"/>
      </g>
     </g>
     <g id="text_9">
      <!-- 10 -->
      <g transform="translate(21.15625 257.113883) scale(0.09 -0.09)">
       <use xlink:href="#DejaVuSans-31"/>
       <use xlink:href="#DejaVuSans-30" transform="translate(63.623047 0)"/>
      </g>
     </g>
    </g>
    <g id="ytick_4">
     <g id="line2d_17">
      <path d="M 36.10875 193.013937 
L 705.3975 193.013937 
" clip-path="url(#pec8f5e4680)" style="fill: none; stroke-dasharray: 1.85,0.8; stroke-dashoffset: 0; stroke: #b2b2b2; stroke-opacity: 0.3; stroke-width: 0.5"/>
     </g>
     <g id="line2d_18">
      <g>
       <use xlink:href="#m21baa0d0e3" x="36.10875" y="193.013937" style="stroke: #000000; stroke-width: 0.8"/>
      </g>
     </g>
     <g id="text_10">
      <!-- 15 -->
      <g transform="translate(21.15625 196.433233) scale(0.09 -0.09)">
       <use xlink:href="#DejaVuSans-31"/>
       <use xlink:href="#DejaVuSans-35" transform="translate(63.623047 0)"/>
      </g>
     </g>
    </g>
    <g id="ytick_5">
     <g id="line2d_19">
      <path d="M 36.10875 132.333287 
L 705.3975 132.333287 
" clip-path="url(#pec8f5e4680)" style="fill: none; stroke-dasharray: 1.85,0.8; stroke-dashoffset: 0; stroke: #b2b2b2; stroke-opacity: 0.3; stroke-width: 0.5"/>
     </g>
     <g id="line2d_20">
      <g>
       <use xlink:href="#m21baa0d0e3" x="36.10875" y="132.333287" style="stroke: #000000; stroke-width: 0.8"/>
      </g>
     </g>
     <g id="text_11">
      <!-- 20 -->
      <g transform="translate(21.15625 135.752584) scale(0.09 -0.09)">
       <use xlink:href="#DejaVuSans-32"/>
       <use xlink:href="#DejaVuSans-30" transform="translate(63.623047 0)"/>
      </g>
     </g>
    </g>
    <g id="ytick_6">
     <g id="line2d_21">
      <path d="M 36.10875 71.652638 
L 705.3975 71.652638 
" clip-path="url(#pec8f5e4680)" style="fill: none; stroke-dasharray: 1.85,0.8; stroke-dashoffset: 0; stroke: #b2b2b2; stroke-opacity: 0.3; stroke-width: 0.5"/>
     </g>
     <g id="line2d_22">
      <g>
       <use xlink:href="#m21baa0d0e3" x="36.10875" y="71.652638" style="stroke: #000000; stroke-width: 0.8"/>
      </g>
     </g>
     <g id="text_12">
      <!-- 25 -->
      <g transform="translate(21.15625 75.071935) scale(0.09 -0.09)">
       <use xlink:href="#DejaVuSans-32"/>
       <use xlink:href="#DejaVuSans-35" transform="translate(63.623047 0)"/>
      </g>
     </g>
    </g>
    <g id="text_13">
     <!-- NH3_N_mg/L value -->
     <g transform="translate(14.798438 255.1925) rotate(-90) scale(0.1 -0.1)">
      <defs>
       <path id="DejaVuSans-4e" d="M 628 4666 
L 1478 4666 
L 3547 763 
L 3547 4666 
L 4159 4666 
L 4159 0 
L 3309 0 
L 1241 3903 
L 1241 0 
L 628 0 
L 628 4666 
z
" transform="scale(0.015625)"/>
       <path id="DejaVuSans-48" d="M 628 4666 
L 1259 4666 
L 1259 2753 
L 3553 2753 
L 3553 4666 
L 4184 4666 
L 4184 0 
L 3553 0 
L 3553 2222 
L 1259 2222 
L 1259 0 
L 628 0 
L 628 4666 
z
" transform="scale(0.015625)"/>
       <path id="DejaVuSans-33" d="M 2597 2516 
Q 3050 2419 3304 2112 
Q 3559 1806 3559 1356 
Q 3559 666 3084 287 
Q 2609 -91 1734 -91 
Q 1441 -91 1130 -33 
Q 819 25 488 141 
L 488 750 
Q 750 597 1062 519 
Q 1375 441 1716 441 
Q 2309 441 2620 675 
Q 2931 909 2931 1356 
Q 2931 1769 2642 2001 
Q 2353 2234 1838 2234 
L 1294 2234 
L 1294 2753 
L 1863 2753 
Q 2328 2753 2575 2939 
Q 2822 3125 2822 3475 
Q 2822 3834 2567 4026 
Q 2313 4219 1838 4219 
Q 1578 4219 1281 4162 
Q 984 4106 628 3988 
L 628 4550 
Q 988 4650 1302 4700 
Q 1616 4750 1894 4750 
Q 2613 4750 3031 4423 
Q 3450 4097 3450 3541 
Q 3450 3153 3228 2886 
Q 3006 2619 2597 2516 
z
" transform="scale(0.015625)"/>
       <path id="DejaVuSans-5f" d="M 3263 -1063 
L 3263 -1509 
L -63 -1509 
L -63 -1063 
L 3263 -1063 
z
" transform="scale(0.015625)"/>
       <path id="DejaVuSans-67" d="M 2906 1791 
Q 2906 2416 2648 2759 
Q 2391 3103 1925 3103 
Q 1463 3103 1205 2759 
Q 947 2416 947 1791 
Q 947 1169 1205 825 
Q 1463 481 1925 481 
Q 2391 481 2648 825 
Q 2906 1169 2906 1791 
z
M 3481 434 
Q 3481 -459 3084 -895 
Q 2688 -1331 1869 -1331 
Q 1566 -1331 1297 -1286 
Q 1028 -1241 775 -1147 
L 775 -588 
Q 1028 -725 1275 -790 
Q 1522 -856 1778 -856 
Q 2344 -856 2625 -561 
Q 2906 -266 2906 331 
L 2906 616 
Q 2728 306 2450 153 
Q 2172 0 1784 0 
Q 1141 0 747 490 
Q 353 981 353 1791 
Q 353 2603 747 3093 
Q 1141 3584 1784 3584 
Q 2172 3584 2450 3431 
Q 2728 3278 2906 2969 
L 2906 3500 
L 3481 3500 
L 3481 434 
z
" transform="scale(0.015625)"/>
       <path id="DejaVuSans-4c" d="M 628 4666 
L 1259 4666 
L 1259 531 
L 3531 531 
L 3531 0 
L 628 0 
L 628 4666 
z
" transform="scale(0.015625)"/>
       <path id="DejaVuSans-76" d="M 191 3500 
L 800 3500 
L 1894 563 
L 2988 3500 
L 3597 3500 
L 2284 0 
L 1503 0 
L 191 3500 
z
" transform="scale(0.015625)"/>
       <path id="DejaVuSans-61" d="M 2194 1759 
Q 1497 1759 1228 1600 
Q 959 1441 959 1056 
Q 959 750 1161 570 
Q 1363 391 1709 391 
Q 2188 391 2477 730 
Q 2766 1069 2766 1631 
L 2766 1759 
L 2194 1759 
z
M 3341 1997 
L 3341 0 
L 2766 0 
L 2766 531 
Q 2569 213 2275 61 
Q 1981 -91 1556 -91 
Q 1019 -91 701 211 
Q 384 513 384 1019 
Q 384 1609 779 1909 
Q 1175 2209 1959 2209 
L 2766 2209 
L 2766 2266 
Q 2766 2663 2505 2880 
Q 2244 3097 1772 3097 
Q 1472 3097 1187 3025 
Q 903 2953 641 2809 
L 641 3341 
Q 956 3463 1253 3523 
Q 1550 3584 1831 3584 
Q 2591 3584 2966 3190 
Q 3341 2797 3341 1997 
z
" transform="scale(0.015625)"/>
       <path id="DejaVuSans-6c" d="M 603 4863 
L 1178 4863 
L 1178 0 
L 603 0 
L 603 4863 
z
" transform="scale(0.015625)"/>
      </defs>
      <use xlink:href="#DejaVuSans-4e"/>
      <use xlink:href="#DejaVuSans-48" transform="translate(74.804688 0)"/>
      <use xlink:href="#DejaVuSans-33" transform="translate(150 0)"/>
      <use xlink:href="#DejaVuSans-5f" transform="translate(213.623047 0)"/>
      <use xlink:href="#DejaVuSans-4e" transform="translate(263.623047 0)"/>
      <use xlink:href="#DejaVuSans-5f" transform="translate(338.427734 0)"/>
      <use xlink:href="#DejaVuSans-6d" transform="translate(388.427734 0)"/>
      <use xlink:href="#DejaVuSans-67" transform="translate(485.839844 0)"/>
      <use xlink:href="#DejaVuSans-2f" transform="translate(549.316406 0)"/>
      <use xlink:href="#DejaVuSans-4c" transform="translate(583.007812 0)"/>
      <use xlink:href="#DejaVuSans-20" transform="translate(638.720703 0)"/>
      <use xlink:href="#DejaVuSans-76" transform="translate(670.507812 0)"/>
      <use xlink:href="#DejaVuSans-61" transform="translate(729.6875 0)"/>
      <use xlink:href="#DejaVuSans-6c" transform="translate(790.966797 0)"/>
      <use xlink:href="#DejaVuSans-75" transform="translate(818.75 0)"/>
      <use xlink:href="#DejaVuSans-65" transform="translate(882.128906 0)"/>
     </g>
    </g>
   </g>
   <g id="line2d_23">
    <path d="M 66.530966 235.975836 
L 66.808668 237.310811 
L 67.086369 244.592488 
L 67.364071 218.621171 
L 67.641773 226.266932 
L 67.919474 238.888507 
L 68.197176 227.359184 
L 68.474877 227.359184 
L 68.752579 232.092275 
L 69.030281 228.572797 
L 69.307982 199.931531 
L 69.585684 207.941376 
L 69.863386 226.631016 
L 70.141087 236.825365 
L 70.418789 231.728191 
L 70.696491 242.772069 
L 70.974192 232.941804 
L 71.251894 234.034055 
L 71.529596 229.422326 
L 71.807297 202.844202 
L 72.084999 235.611752 
L 72.362701 203.936453 
L 72.640402 205.028705 
L 72.918104 263.160767 
L 73.195806 158.547328 
L 73.473507 125.415693 
L 73.751209 114.881533 
L 74.02891 155.78029 
L 74.306612 91.216079 
L 74.584314 122.745745 
L 74.862015 119.942299 
L 75.417419 109.323185 
L 75.69512 123.328279 
L 75.972822 123.655954 
L 76.250524 117.454392 
L 76.528225 103.19444 
L 76.805927 81.871259 
L 77.083629 69.710857 
L 77.36133 82.939239 
L 77.639032 51.907155 
L 77.916734 56.057711 
L 78.472137 82.939239 
L 79.02754 115.221344 
L 79.305242 89.61411 
L 79.582944 168.984399 
L 79.860645 194.470272 
L 80.138347 155.634657 
L 80.416048 242.772069 
L 80.69375 248.354689 
L 80.971452 251.26736 
L 81.249153 258.306315 
L 81.526855 247.141076 
L 81.804557 256.84998 
L 82.082258 260.854902 
L 82.35996 258.670399 
L 82.637662 248.111966 
L 82.915363 256.84998 
L 83.193065 254.422754 
L 83.470767 253.573225 
L 84.02617 234.155417 
L 84.303872 225.538765 
L 84.581573 220.44159 
L 84.859275 225.902848 
L 85.136977 218.985254 
L 85.414678 221.048397 
L 85.69238 216.315306 
L 85.970082 222.626093 
L 86.247783 220.805674 
L 86.525485 220.320229 
L 86.803186 222.990177 
L 87.080888 223.475622 
L 87.35859 222.990177 
L 87.913993 231.242746 
L 88.191695 233.184526 
L 88.469396 230.029133 
L 89.0248 235.126307 
L 89.302501 233.669972 
L 89.580203 233.427249 
L 89.857905 228.694158 
L 90.135606 237.674894 
L 90.413308 237.553533 
L 90.69101 244.71385 
L 90.968711 240.10212 
L 91.246413 242.165262 
L 91.524115 239.13123 
L 91.801816 243.257514 
L 92.079518 245.68474 
L 92.357219 239.616675 
L 92.912623 245.199295 
L 93.190324 245.199295 
L 93.468026 246.655631 
L 94.023429 244.592488 
L 94.578833 373.180852 
L 95.134236 373.180852 
L 95.411938 327.118171 
L 95.689639 243.500237 
L 95.967341 203.815092 
L 96.245043 214.373525 
L 96.522744 175.659271 
L 96.800446 193.742104 
L 97.078148 181.970058 
L 97.355849 176.751523 
L 97.633551 169.105761 
L 97.911253 186.945872 
L 98.188954 183.426394 
L 98.466656 213.88808 
L 98.744357 178.814665 
L 99.022059 170.92618 
L 99.299761 170.319374 
L 99.577462 196.047969 
L 99.855164 194.834356 
L 100.132866 195.319801 
L 100.410567 204.300537 
L 100.688269 198.111111 
L 100.965971 197.625666 
L 101.243672 178.571942 
L 101.521374 184.518646 
L 102.076777 188.64493 
L 102.354479 194.955717 
L 102.632181 207.128256 
L 102.909882 209.519073 
L 103.187584 217.893003 
L 103.742987 159.91871 
L 104.020689 200.599018 
L 104.29839 173.244181 
L 104.576092 213.536132 
L 104.853794 197.407216 
L 105.131495 207.055439 
L 105.409197 201.994673 
L 105.9646 152.479263 
L 106.242302 151.629734 
L 106.797705 214.252164 
L 107.075407 228.330074 
L 107.353109 230.150494 
L 107.63081 206.120957 
L 107.908512 230.635939 
L 108.186214 235.247668 
L 108.463915 235.975836 
L 108.741617 216.193945 
L 109.019319 230.635939 
L 109.29702 229.665049 
L 109.574722 238.038978 
L 109.852424 239.980759 
L 110.130125 217.528919 
L 110.407827 229.907771 
L 110.685528 229.543687 
L 110.96323 230.271855 
L 111.240932 308.792615 
L 111.796335 355.395354 
L 112.074037 341.681527 
L 112.351738 234.276778 
L 112.62944 213.645357 
L 112.907142 209.883157 
L 113.184843 213.402635 
L 113.462545 213.766719 
L 113.740247 205.51415 
L 114.017948 207.698654 
L 114.29565 224.931958 
L 115.128755 202.116034 
L 115.406457 209.154989 
L 115.684158 194.895037 
L 115.96186 173.984485 
L 116.239562 181.982195 
L 116.517263 291.43795 
L 116.794965 290.467059 
L 117.072666 206.727763 
L 117.350368 204.870935 
L 117.62807 218.34204 
L 117.905771 220.526543 
L 118.183473 214.337117 
L 118.461175 201.800495 
L 118.738876 208.742361 
L 119.016578 195.186304 
L 119.29428 202.261668 
L 119.571981 353.089489 
L 119.849683 356.524014 
L 120.127385 354.27883 
L 120.405086 362.082362 
L 120.682788 300.540047 
L 120.96049 288.998588 
L 121.515893 188.996878 
L 121.793595 207.298161 
L 122.071296 245.320656 
L 122.348998 188.996878 
L 122.626699 208.851586 
L 122.904401 238.97346 
L 123.459804 202.601479 
L 123.737506 228.936881 
L 124.015208 194.895037 
L 124.570611 159.833758 
L 124.848313 206.569994 
L 125.126014 205.489878 
L 125.403716 211.242404 
L 125.681418 183.487075 
L 125.959119 185.623033 
L 126.236821 179.506424 
L 126.514523 186.169159 
L 126.792224 221.752292 
L 127.069926 148.668518 
L 127.347628 154.639494 
L 127.625329 195.780974 
L 128.180733 192.795486 
L 128.458434 152.503535 
L 128.736136 141.860149 
L 129.013837 157.794888 
L 129.291539 196.145058 
L 129.569241 169.336347 
L 129.846942 186.339065 
L 130.124644 255.454325 
L 130.402346 283.258198 
L 130.680047 291.753489 
L 130.957749 293.488956 
L 131.235451 289.204902 
L 131.513152 289.811708 
L 131.790854 290.952504 
L 132.068556 299.326434 
L 132.346257 288.743729 
L 132.623959 294.374893 
L 132.901661 296.280265 
L 133.179362 323.622966 
L 133.457064 320.054944 
L 133.734766 312.931036 
L 134.012467 313.222303 
L 134.290169 302.809503 
L 134.56787 307.676091 
L 134.845572 314.739319 
L 135.123274 288.476734 
L 135.400975 309.5936 
L 135.678677 309.884867 
L 135.956379 306.486751 
L 136.23408 290.794735 
L 136.511782 261.777248 
L 136.789484 288.379645 
L 137.067185 272.250728 
L 137.622589 305.782855 
L 137.90029 282.420805 
L 138.177992 317.093728 
L 138.455694 317.093728 
L 139.011097 246.546405 
L 139.288799 315.516031 
L 139.844202 320.006399 
L 140.121904 313.562114 
L 140.399605 320.455436 
L 140.677307 320.673886 
L 140.955008 322.263719 
L 141.23271 321.838955 
L 141.510412 320.164169 
L 141.788113 222.577549 
L 142.065815 228.766975 
L 142.343517 222.274146 
L 142.621218 184.227379 
L 142.89892 166.278043 
L 143.176622 157.103128 
L 143.454323 207.128256 
L 144.009727 201.666997 
L 144.287428 217.638144 
L 144.56513 212.565242 
L 144.842832 198.475195 
L 145.120533 205.162203 
L 145.398235 247.893516 
L 145.675937 220.829946 
L 145.953638 211.388037 
L 146.23134 217.019201 
L 146.786743 194.615906 
L 147.064445 196.472734 
L 147.342146 223.01445 
L 147.619848 211.982708 
L 147.89755 196.509142 
L 148.175251 170.392191 
L 148.452953 210.635597 
L 148.730655 190.6838 
L 149.008356 185.732259 
L 149.286058 232.601992 
L 149.56376 215.793452 
L 149.841461 223.196492 
L 150.119163 282.287308 
L 150.396865 316.608283 
L 150.952268 287.615069 
L 151.785373 265.405951 
L 152.063075 272.129367 
L 152.340776 269.253104 
L 152.896179 255.502869 
L 153.173881 254.11935 
L 153.451583 247.929924 
L 153.729284 253.36691 
L 154.006986 239.677356 
L 154.284688 242.857022 
L 154.562389 249.847433 
L 154.840091 237.335083 
L 155.117793 243.111881 
L 155.395494 310.697988 
L 155.673196 225.405267 
L 155.950898 249.277035 
L 156.228599 241.776906 
L 156.506301 242.747797 
L 156.784003 226.93442 
L 157.061704 231.07284 
L 157.339406 226.922283 
L 157.617108 237.007407 
L 157.894809 225.878576 
L 158.172511 232.298589 
L 158.450213 227.055781 
L 158.727914 245.52697 
L 159.005616 237.759847 
L 159.283317 246.303683 
L 159.561019 238.876371 
L 159.838721 247.735746 
L 160.394124 216.958521 
L 160.949527 245.891054 
L 161.227229 306.96006 
L 161.504931 239.022005 
L 161.782632 253.027099 
L 162.060334 283.610146 
L 162.615737 243.354603 
L 162.893439 244.094907 
L 163.171141 261.825793 
L 163.448842 245.46629 
L 164.004246 233.973375 
L 164.281947 242.917703 
L 164.559649 216.667254 
L 164.83735 228.730567 
L 165.115052 227.383456 
L 165.392754 228.220849 
L 165.670455 235.077763 
L 165.948157 214.033713 
L 166.225859 226.121299 
L 166.781262 241.291461 
L 167.058964 256.231037 
L 167.336665 222.152784 
L 167.892069 226.254796 
L 168.16977 208.062738 
L 168.447472 213.426907 
L 168.725174 202.116034 
L 169.002875 227.504818 
L 169.280577 219.761967 
L 169.558279 231.230609 
L 169.83598 206.169501 
L 170.113682 200.332023 
L 170.391384 204.300537 
L 170.669085 182.649682 
L 170.946787 180.889943 
L 171.224488 168.850902 
L 171.50219 118.935 
L 171.779892 190.52603 
L 172.057593 151.581189 
L 172.335295 147.333544 
L 172.612997 182.09142 
L 173.1684 90.342278 
L 173.723803 130.925496 
L 174.001505 145.68303 
L 174.279207 139.894096 
L 174.556908 155.34339 
L 175.112312 200.004347 
L 175.667715 202.237395 
L 175.945417 210.5021 
L 176.223118 213.706038 
L 176.50082 203.341783 
L 176.778522 212.783692 
L 177.056223 205.574831 
L 177.333925 191.594009 
L 177.611626 193.37802 
L 177.889328 196.982451 
L 178.16703 197.273718 
L 178.444731 199.615991 
L 178.722433 204.895208 
L 179.000135 199.882986 
L 179.555538 206.764172 
L 179.83324 206.982622 
L 180.110941 196.691184 
L 180.388643 190.829433 
L 180.666345 193.620743 
L 181.221748 189.543003 
L 181.49945 189.567276 
L 181.777151 186.339065 
L 182.054853 181.690927 
L 182.610256 177.443282 
L 182.887958 168.899447 
L 183.165659 181.144802 
L 183.443361 203.584506 
L 183.721063 208.196235 
L 183.998764 210.817639 
L 184.276466 231.958777 
L 184.554168 226.181979 
L 184.831869 229.543687 
L 185.109571 245.927463 
L 185.387273 251.085318 
L 185.664974 239.240455 
L 185.942676 239.240455 
L 186.220378 221.072669 
L 186.498079 240.806016 
L 186.775781 248.47605 
L 187.053483 280.879517 
L 187.331184 273.7192 
L 187.608886 239.774445 
L 187.886588 249.689663 
L 188.164289 240.04144 
L 188.441991 244.434719 
L 188.719693 253.573225 
L 188.997394 250.927548 
L 189.275096 250.1387 
L 189.552797 258.318451 
L 190.108201 295.600642 
L 190.385902 291.158819 
L 190.663604 294.569071 
L 190.941306 266.862287 
L 191.219007 281.862543 
L 191.496709 284.216952 
L 191.774411 288.901499 
L 192.052112 286.595634 
L 192.329814 288.610231 
L 192.607516 269.944864 
L 192.885217 286.23155 
L 193.162919 282.736345 
L 193.996024 265.964213 
L 194.273726 282.238763 
L 194.551427 269.410874 
L 194.829129 273.270163 
L 195.10683 315.564576 
L 195.384532 281.959632 
L 195.662234 285.418429 
L 195.939935 277.675578 
L 196.217637 275.867295 
L 196.77304 263.367081 
L 197.050742 261.461709 
L 197.328444 253.828083 
L 197.606145 241.437095 
L 197.883847 244.240541 
L 198.161549 240.85456 
L 198.43925 233.245207 
L 198.716952 247.371662 
L 198.994654 230.466033 
L 199.272355 240.199209 
L 199.550057 243.852185 
L 200.10546 263.694757 
L 200.383162 261.401028 
L 200.660864 258.002912 
L 200.938565 265.138956 
L 201.216267 243.124017 
L 201.493968 236.788957 
L 202.049372 217.152699 
L 202.327073 218.863893 
L 202.604775 212.431744 
L 202.882477 236.012245 
L 203.160178 223.876115 
L 203.43788 241.582728 
L 203.715582 236.242831 
L 203.993283 242.941975 
L 204.270985 243.560917 
L 204.548687 243.560917 
L 204.826388 332.870697 
L 205.10409 227.128598 
L 205.381792 258.087865 
L 205.659493 260.9884 
L 205.937195 253.451863 
L 206.214897 235.890883 
L 206.7703 271.971597 
L 207.325703 252.626606 
L 207.603405 263.354945 
L 207.881106 252.17757 
L 208.158808 261.134033 
L 208.43651 253.002826 
L 208.714211 249.107129 
L 208.991913 261.692295 
L 209.269615 248.730909 
L 209.547316 262.614641 
L 209.825018 224.689235 
L 210.10272 238.961324 
L 210.380421 215.502185 
L 210.658123 225.393131 
L 210.935825 211.934163 
L 211.213526 221.776564 
L 211.491228 194.700859 
L 211.76893 204.858799 
L 212.046631 195.659613 
L 212.324333 221.594522 
L 212.602035 195.720294 
L 212.879736 209.74966 
L 213.157438 182.892404 
L 213.435139 197.504305 
L 213.712841 204.179176 
L 213.990543 224.082429 
L 214.268244 194.555225 
L 214.545946 221.011988 
L 214.823648 199.955803 
L 215.101349 216.30317 
L 215.379051 221.897926 
L 215.656753 242.14099 
L 215.934454 223.560575 
L 216.212156 245.709012 
L 216.489858 209.385576 
L 216.767559 276.255651 
L 217.045261 226.424702 
L 217.600664 249.046448 
L 218.156068 206.606402 
L 218.433769 287.275257 
L 218.711471 287.275257 
L 218.989173 330.892508 
L 219.544576 240.199209 
L 220.099979 274.374551 
L 220.377681 236.946727 
L 220.655382 239.798717 
L 220.933084 239.798717 
L 221.210786 218.730396 
L 221.488487 216.339578 
L 221.766189 227.092189 
L 222.043891 197.710619 
L 222.321592 265.308862 
L 222.599294 242.056037 
L 223.432399 210.623461 
L 223.710101 195.380482 
L 223.987802 234.956401 
L 224.265504 213.317682 
L 224.543206 202.953427 
L 224.820907 218.681851 
L 225.098609 202.043217 
L 225.376311 202.043217 
L 225.654012 217.723097 
L 225.931714 194.009099 
L 226.209415 198.74219 
L 226.487117 184.542918 
L 226.764819 191.739643 
L 227.04252 177.394737 
L 227.320222 170.076651 
L 227.597924 174.918967 
L 227.875625 184.021064 
L 228.153327 184.021064 
L 228.431029 328.052653 
L 228.70873 250.35715 
L 228.986432 225.114 
L 229.264134 225.599445 
L 229.541835 207.965649 
L 229.819537 223.220764 
L 230.097239 204.883072 
L 230.37494 224.094565 
L 230.652642 201.739814 
L 230.930344 232.055866 
L 231.208045 187.856081 
L 231.485747 188.64493 
L 232.04115 279.726584 
L 232.318852 259.5442 
L 232.596553 271.24343 
L 232.874255 289.55685 
L 233.151957 279.386773 
L 233.429658 218.803213 
L 233.985062 231.267018 
L 234.262763 208.730225 
L 234.540465 215.76918 
L 234.818167 205.07725 
L 235.095868 218.0265 
L 235.37357 272.177912 
L 235.651272 281.571276 
L 235.928973 249.410532 
L 236.206675 255.260147 
L 236.484377 313.028125 
L 236.762078 235.308349 
L 237.03978 229.070378 
L 237.317482 219.68915 
L 237.595183 216.375987 
L 237.872885 209.009356 
L 238.150586 220.744993 
L 238.428288 239.992895 
L 238.70599 241.971084 
L 238.983691 230.854389 
L 239.261393 232.856851 
L 239.539095 242.165262 
L 240.094498 197.443624 
L 240.3722 256.303854 
L 240.927603 239.252591 
L 241.205305 242.492938 
L 241.483006 230.101949 
L 241.760708 206.412224 
L 242.03841 290.224337 
L 242.316111 266.291889 
L 242.593813 222.529004 
L 242.871515 225.393131 
L 243.149216 216.351714 
L 243.426918 216.994929 
L 243.704619 231.910233 
L 244.260023 208.815178 
L 244.537724 199.737353 
L 244.815426 240.017167 
L 245.093128 172.722327 
L 245.370829 184.166698 
L 245.648531 259.119436 
L 245.926233 262.044243 
L 246.203934 205.756873 
L 246.481636 190.635255 
L 246.759338 226.145571 
L 247.314741 266.498203 
L 247.592443 256.752891 
L 247.870144 211.812802 
L 248.147846 208.669544 
L 248.425548 232.262181 
L 248.703249 231.036431 
L 248.980951 255.235874 
L 249.258653 263.694757 
L 249.814056 299.593429 
L 250.091757 287.323802 
L 250.369459 259.240797 
L 250.647161 256.328126 
L 250.924862 257.930095 
L 251.202564 255.539278 
L 251.480266 251.983392 
L 251.757967 266.170527 
L 252.035669 211.934163 
L 252.591072 249.361987 
L 252.868774 242.978383 
L 253.146476 247.444479 
L 253.424177 241.449231 
L 253.701879 239.932215 
L 253.979581 245.381337 
L 254.257282 238.415198 
L 254.534984 245.636196 
L 254.812686 242.89343 
L 255.090387 238.063251 
L 255.368089 230.963615 
L 255.645791 238.439471 
L 255.923492 239.009869 
L 256.201194 288.124786 
L 256.478895 278.828511 
L 256.756597 234.021919 
L 257.034299 257.06843 
L 257.589702 245.745421 
L 257.867404 237.128769 
L 258.145105 203.523825 
L 258.422807 249.022176 
L 258.700509 240.648246 
L 258.97821 215.380824 
L 259.255912 227.589771 
L 259.533614 270.733712 
L 259.811315 291.911259 
L 260.089017 283.476648 
L 260.366719 216.958521 
L 261.199824 272.711901 
L 261.477525 241.424959 
L 262.032928 222.492596 
L 262.31063 276.583327 
L 262.588332 281.547004 
L 262.866033 239.604539 
L 263.143735 233.803469 
L 263.421437 234.519501 
L 263.699138 221.011988 
L 263.97684 238.888507 
L 264.254542 229.822818 
L 264.532243 238.779282 
L 264.809945 233.92483 
L 265.087647 238.475879 
L 265.365348 227.723268 
L 265.64305 226.788786 
L 265.920752 250.988229 
L 266.198453 235.842339 
L 266.753857 294.714705 
L 267.031558 235.393302 
L 267.30926 237.674894 
L 267.586962 238.184612 
L 268.142365 261.461709 
L 268.420066 227.74754 
L 268.697768 237.420036 
L 268.97547 233.609291 
L 269.253171 276.073609 
L 269.530873 263.233584 
L 269.808575 243.973546 
L 270.086276 283.331015 
L 270.363978 225.089728 
L 270.64168 258.112137 
L 270.919381 220.393046 
L 271.197083 222.54114 
L 271.474785 210.077335 
L 271.752486 236.728276 
L 272.030188 280.466888 
L 272.30789 263.282128 
L 272.585591 236.072925 
L 272.863293 231.995186 
L 273.140995 217.710961 
L 273.418696 224.106701 
L 273.696398 233.985511 
L 273.974099 253.463999 
L 274.251801 238.694329 
L 274.529503 253.379046 
L 274.807204 253.160596 
L 275.084906 230.00486 
L 275.362608 245.915327 
L 275.640309 217.249788 
L 275.918011 212.771556 
L 276.473414 276.935274 
L 276.751116 248.403233 
L 277.028818 253.221277 
L 277.306519 253.014963 
L 277.584221 248.330416 
L 277.861923 261.765112 
L 278.139624 269.058926 
L 278.417326 260.066054 
L 278.695028 242.213807 
L 278.972729 283.355287 
L 279.250431 262.784547 
L 279.528133 232.808306 
L 279.805834 228.669886 
L 280.083536 253.039235 
L 280.361237 240.332707 
L 280.916641 255.18733 
L 281.194342 283.513057 
L 282.027447 234.592317 
L 282.305149 237.055952 
L 282.582851 216.388123 
L 282.860552 270.151178 
L 283.138254 260.76995 
L 283.415956 264.180202 
L 283.693657 238.038978 
L 283.971359 249.38626 
L 284.249061 248.609547 
L 284.526762 255.612094 
L 285.082166 287.384482 
L 285.359867 231.558285 
L 285.637569 236.764685 
L 285.915271 237.941889 
L 286.192972 264.143794 
L 286.470674 249.277035 
L 287.026077 255.078105 
L 287.303779 276.923138 
L 287.58148 244.422583 
L 287.859182 245.429881 
L 288.136884 187.73472 
L 288.692287 272.736174 
L 288.969989 269.847775 
L 289.24769 254.240712 
L 289.525392 246.461452 
L 289.803094 217.735233 
L 290.080795 267.214234 
L 290.358497 246.024552 
L 290.636199 246.716311 
L 290.9139 255.854817 
L 291.469304 220.138187 
L 291.747005 231.000023 
L 292.024707 212.8201 
L 292.302408 210.198696 
L 292.58011 209.531209 
L 292.857812 211.739985 
L 293.135513 201.460683 
L 293.413215 208.487502 
L 293.690917 197.747027 
L 294.24632 276.656144 
L 294.524022 228.851928 
L 294.801723 201.642725 
L 295.357127 297.45747 
L 295.634828 239.713764 
L 295.91253 257.917959 
L 296.190232 235.793794 
L 296.467933 248.451778 
L 296.745635 249.811024 
L 297.023337 226.266932 
L 297.57874 215.150237 
L 297.856442 225.951393 
L 298.134143 225.478084 
L 298.411845 228.135896 
L 298.689546 225.502356 
L 298.967248 232.917532 
L 299.24495 217.528919 
L 299.522651 218.973118 
L 299.800353 215.453641 
L 300.078055 223.087266 
L 300.633458 197.868389 
L 300.91116 234.24037 
L 301.188861 191.581873 
L 301.466563 182.504048 
L 301.744265 193.669288 
L 302.021966 193.135298 
L 302.299668 220.295956 
L 302.57737 224.834869 
L 302.855071 210.659869 
L 303.132773 219.895464 
L 303.410475 178.559806 
L 303.688176 196.909634 
L 303.965878 238.233156 
L 304.243579 234.228234 
L 304.521281 227.165006 
L 305.076684 198.05043 
L 305.354386 205.744737 
L 305.632088 182.783179 
L 305.909789 209.349167 
L 306.187491 181.618111 
L 306.465193 261.036944 
L 306.742894 244.422583 
L 307.020596 237.153041 
L 307.298298 282.129538 
L 307.575999 249.179946 
L 307.853701 233.17239 
L 308.131403 237.650622 
L 308.409104 211.121042 
L 308.686806 205.235019 
L 308.964508 297.530287 
L 309.242209 241.364278 
L 309.519911 239.519586 
L 310.075314 169.833929 
L 310.908419 245.223567 
L 311.186121 166.205226 
L 311.741524 159.360448 
L 312.019226 171.448034 
L 312.296927 171.448034 
L 312.574629 201.739814 
L 312.852331 181.193346 
L 313.130032 189.445914 
L 313.407734 242.83275 
L 313.685436 271.389063 
L 313.963137 249.556166 
L 314.240839 253.439727 
L 314.518541 267.966675 
L 314.796242 266.959376 
L 315.073944 225.065456 
L 315.351646 239.34968 
L 315.629347 243.767232 
L 315.907049 244.871619 
L 316.184751 245.029389 
L 316.462452 224.179518 
L 316.740154 241.194372 
L 317.017855 239.373953 
L 317.573259 299.836152 
L 317.85096 219.956145 
L 318.128662 208.790905 
L 318.406364 180.744309 
L 318.684065 228.669886 
L 318.961767 193.026073 
L 319.239469 252.820784 
L 319.51717 232.868987 
L 319.794872 302.627461 
L 320.072574 238.682193 
L 320.350275 231.07284 
L 320.627977 216.703662 
L 320.905679 230.708756 
L 321.18338 205.89037 
L 321.461082 251.315904 
L 321.738784 251.679988 
L 322.016485 252.796512 
L 322.294187 244.580352 
L 322.571888 260.684997 
L 322.84959 215.065285 
L 323.127292 237.978298 
L 323.404993 215.562866 
L 323.682695 215.744908 
L 323.960397 202.759249 
L 324.238098 255.964042 
L 324.5158 213.402635 
L 324.793502 283.331015 
L 325.071203 200.307751 
L 325.348905 240.587566 
L 325.626607 219.592061 
L 325.904308 240.769608 
L 326.18201 213.366226 
L 326.459712 264.544286 
L 326.737413 199.822305 
L 327.015115 217.249788 
L 327.292817 184.652143 
L 327.570518 223.876115 
L 327.84822 224.883414 
L 328.125922 243.730823 
L 328.403623 232.553448 
L 328.681325 243.415284 
L 328.959026 214.470614 
L 329.236728 253.585361 
L 329.51443 185.234677 
L 329.792131 185.234677 
L 330.069833 244.689577 
L 330.347535 244.725986 
L 330.625236 257.784462 
L 330.902938 261.995699 
L 331.18064 274.702227 
L 331.458341 233.900558 
L 331.736043 264.835553 
L 332.013745 230.53885 
L 332.291446 273.537158 
L 332.569148 265.175365 
L 332.84685 312.433454 
L 333.124551 290.68551 
L 333.402253 327.74925 
L 333.679955 296.450171 
L 333.957656 303.513399 
L 334.235358 269.192424 
L 334.513059 274.605138 
L 335.068463 306.608112 
L 335.346164 295.612778 
L 335.623866 309.739233 
L 335.901568 314.205329 
L 336.179269 315.200492 
L 336.456971 270.806529 
L 336.734673 263.051542 
L 337.012374 221.218302 
L 337.290076 243.160425 
L 337.567778 214.361389 
L 337.845479 214.361389 
L 338.123181 296.013271 
L 338.400883 263.46417 
L 338.678584 277.165861 
L 338.956286 249.895977 
L 339.233988 290.68551 
L 339.511689 238.463743 
L 339.789391 241.825451 
L 340.067093 205.259292 
L 340.344794 265.806443 
L 340.622496 286.292231 
L 340.900197 268.403575 
L 341.177899 262.881636 
L 341.455601 262.626777 
L 341.733302 258.41554 
L 342.011004 260.29664 
L 342.288706 287.250985 
L 342.566407 268.537073 
L 342.844109 262.966589 
L 343.121811 247.201756 
L 343.677214 231.594693 
L 343.954916 249.568302 
L 344.510319 240.381251 
L 344.788021 217.443966 
L 345.065722 226.788786 
L 345.343424 247.213892 
L 345.621126 211.278812 
L 345.898827 203.184013 
L 346.454231 178.01368 
L 346.731932 190.598847 
L 347.009634 194.895037 
L 347.287335 221.096941 
L 347.565037 231.606829 
L 347.842739 234.980674 
L 348.12044 226.93442 
L 348.398142 233.463657 
L 348.675844 256.716482 
L 349.231247 226.655289 
L 349.508949 241.607 
L 349.78665 240.963786 
L 350.064352 239.628811 
L 350.342054 242.420121 
L 350.619755 208.657408 
L 350.897457 254.155759 
L 351.175159 210.926864 
L 351.45286 223.876115 
L 352.008264 266.668109 
L 352.285965 250.005202 
L 352.563667 251.352313 
L 352.841368 249.920249 
L 353.11907 241.303597 
L 353.396772 222.444051 
L 353.674473 250.563464 
L 354.229877 256.279581 
L 354.507578 252.056208 
L 354.78528 260.369457 
L 355.062982 258.391268 
L 355.340683 230.186902 
L 355.618385 267.456957 
L 355.896087 219.143024 
L 356.173788 251.497946 
L 356.45149 248.706636 
L 356.729192 257.675236 
L 357.284595 247.614385 
L 357.562297 252.735832 
L 357.839998 248.196919 
L 358.1177 246.340091 
L 358.395402 239.859398 
L 358.673103 240.85456 
L 359.228506 252.165433 
L 359.506208 253.014963 
L 359.78391 252.104753 
L 360.061611 249.301307 
L 360.339313 238.293837 
L 360.617015 243.973546 
L 361.172418 231.861688 
L 361.45012 245.029389 
L 361.727821 241.109419 
L 362.005523 218.135725 
L 362.283225 209.033628 
L 362.560926 216.011903 
L 362.838628 205.732601 
L 363.11633 216.30317 
L 363.394031 211.497262 
L 363.671733 198.96064 
L 363.949435 245.077934 
L 364.227136 192.152271 
L 364.504838 198.997049 
L 364.782539 246.315819 
L 365.060241 249.131401 
L 365.337943 233.051029 
L 366.171048 209.130717 
L 366.448749 207.504476 
L 366.726451 206.654947 
L 367.004153 215.732772 
L 367.281854 211.303084 
L 367.559556 226.752378 
L 368.114959 220.987716 
L 368.392661 226.958692 
L 368.670363 216.169672 
L 368.948064 219.664878 
L 369.225766 225.793623 
L 369.503468 195.550388 
L 369.781169 209.227806 
L 370.058871 209.179262 
L 370.336573 205.13793 
L 370.614274 205.477742 
L 371.169677 245.029389 
L 371.447379 250.260061 
L 371.725081 249.507621 
L 372.002782 250.041611 
L 372.280484 249.434804 
L 372.835887 277.699851 
L 373.113589 318.465111 
L 373.391291 278.792102 
L 373.668992 255.053832 
L 373.946694 246.959034 
L 374.224396 256.194629 
L 374.502097 251.752805 
L 374.779799 260.539363 
L 375.057501 258.027184 
L 375.335202 258.670399 
L 375.890606 250.442103 
L 376.168307 261.510253 
L 376.446009 254.835382 
L 376.723711 254.896063 
L 377.001412 278.646469 
L 377.279114 253.379046 
L 377.556815 252.262523 
L 377.834517 256.510168 
L 378.112219 268.913293 
L 378.38992 260.175279 
L 378.667622 268.270078 
L 378.945324 267.444821 
L 379.500727 295.904045 
L 380.333832 262.323374 
L 380.611534 243.840048 
L 380.889235 210.817639 
L 381.166937 195.477571 
L 381.444639 215.720636 
L 381.72234 246.75272 
L 382.000042 255.56355 
L 382.277744 268.367167 
L 382.833147 249.459077 
L 383.110848 255.56355 
L 383.38855 253.925172 
L 383.666252 261.655887 
L 383.943953 258.19709 
L 384.221655 267.044329 
L 384.499357 262.820955 
L 384.777058 242.89343 
L 385.05476 275.806614 
L 385.610163 248.281872 
L 385.887865 233.342296 
L 386.165567 225.174681 
L 386.443268 225.223225 
L 386.72097 229.082514 
L 387.276373 239.992895 
L 387.554075 242.432257 
L 387.831777 284.314041 
L 388.38718 189.130375 
L 388.664882 195.95088 
L 388.942583 195.441163 
L 389.220285 233.342296 
L 389.497986 313.416481 
L 390.05339 251.073182 
L 390.331091 246.085232 
L 390.608793 245.587651 
L 390.886495 248.378961 
L 391.441898 248.743045 
L 391.7196 245.769693 
L 391.997301 244.568216 
L 392.275003 287.651477 
L 392.552705 259.981101 
L 392.830406 246.558541 
L 393.108108 245.478426 
L 393.38581 246.497861 
L 393.663511 242.67498 
L 393.941213 245.357065 
L 394.218915 249.580438 
L 395.052019 291.389405 
L 395.329721 251.849894 
L 395.607423 251.910575 
L 395.885124 250.175108 
L 396.162826 259.981101 
L 396.440528 260.405866 
L 396.718229 257.541739 
L 397.273633 267.505502 
L 397.551334 258.002912 
L 397.829036 260.915583 
L 398.106738 259.617017 
L 398.384439 261.58307 
L 398.662141 258.767488 
L 398.939843 257.857278 
L 399.217544 257.796598 
L 399.495246 274.362415 
L 399.772948 281.449915 
L 400.050649 255.927634 
L 400.328351 266.486067 
L 400.606053 257.104838 
L 400.883754 262.456872 
L 401.161456 255.175194 
L 401.439157 254.956743 
L 401.716859 267.311324 
L 401.994561 269.168151 
L 402.272262 267.69968 
L 402.549964 247.820699 
L 402.827666 247.517296 
L 403.105367 249.798888 
L 403.383069 253.512544 
L 403.660771 250.490648 
L 403.938472 249.361987 
L 404.216174 253.68245 
L 404.493876 311.159161 
L 406.160086 311.159161 
L 406.437787 369.157725 
L 406.715489 322.336536 
L 406.993191 245.357065 
L 407.270892 242.007493 
L 407.548594 235.296213 
L 408.103997 177.503963 
L 408.381699 193.098889 
L 408.6594 242.007493 
L 408.937102 243.900729 
L 409.214804 250.551328 
L 409.492505 243.087608 
L 409.770207 242.978383 
L 410.047909 240.623974 
L 410.32561 250.005202 
L 410.603312 247.395934 
L 410.881014 249.107129 
L 411.158715 269.289513 
L 411.436417 249.022176 
L 411.714119 245.005117 
L 411.99182 269.447282 
L 412.269522 259.92042 
L 412.547224 242.068173 
L 412.824925 250.175108 
L 413.102627 236.267103 
L 413.380328 241.886131 
L 413.65803 253.755266 
L 413.935732 239.531722 
L 414.213433 234.398139 
L 414.491135 263.828254 
L 414.768837 267.056465 
L 415.046538 246.692039 
L 415.32424 240.429796 
L 415.601942 243.512373 
L 415.879643 236.970999 
L 416.157345 235.271941 
L 416.435047 240.696791 
L 416.712748 251.42513 
L 416.99045 254.981016 
L 417.268152 237.347219 
L 417.823555 222.868816 
L 418.101257 273.355116 
L 418.378958 256.995613 
L 418.65666 255.126649 
L 418.934362 241.340006 
L 419.212063 274.714363 
L 419.489765 268.051627 
L 419.767466 264.96905 
L 420.045168 255.053832 
L 420.32287 285.236387 
L 420.878273 271.437608 
L 421.155975 266.862287 
L 421.433676 265.563721 
L 421.711378 261.303939 
L 421.98908 252.978554 
L 422.266781 265.976349 
L 422.544483 241.619137 
L 422.822185 254.010125 
L 423.099886 251.667852 
L 423.377588 238.063251 
L 423.65529 244.653169 
L 424.210693 214.604112 
L 424.488395 236.376329 
L 424.766096 241.412822 
L 425.043798 228.730567 
L 425.321499 228.354347 
L 425.599201 224.762052 
L 425.876903 253.488272 
L 426.154604 228.208713 
L 426.710008 234.798632 
L 426.987709 240.41766 
L 427.265411 256.789299 
L 427.543113 260.29664 
L 427.820814 259.228661 
L 428.098516 270.151178 
L 428.376218 254.750429 
L 428.653919 284.908712 
L 428.931621 297.894371 
L 429.209323 249.434804 
L 429.487024 231.66751 
L 429.764726 252.61447 
L 430.042428 249.811024 
L 430.320129 243.573054 
L 430.597831 241.849723 
L 430.875533 241.242917 
L 431.153234 238.682193 
L 431.430936 248.876542 
L 431.708637 239.907942 
L 431.986339 257.735917 
L 432.264041 239.653084 
L 432.541742 236.71614 
L 432.819444 238.827827 
L 433.097146 229.446598 
L 433.374847 235.684569 
L 433.652549 226.740241 
L 434.207952 229.810682 
L 434.485654 245.660468 
L 434.763356 241.364278 
L 435.318759 240.114257 
L 435.596461 241.946812 
L 435.874162 239.276864 
L 436.151864 229.385918 
L 436.429566 254.908199 
L 436.707267 260.017509 
L 436.984969 242.614299 
L 437.262671 255.40578 
L 437.540372 298.950214 
L 437.818074 279.593087 
L 438.095775 271.449744 
L 438.373477 286.07378 
L 438.651179 284.932984 
L 438.92888 284.653853 
L 439.206582 287.323802 
L 439.484284 283.343151 
L 439.761985 281.146512 
L 440.317389 271.30411 
L 440.59509 267.189962 
L 440.872792 270.005544 
L 441.150494 269.993408 
L 441.428195 265.891396 
L 441.705897 263.84039 
L 442.2613 267.432685 
L 442.539002 277.845484 
L 442.816704 271.231293 
L 443.094405 268.45212 
L 443.372107 271.874508 
L 443.92751 267.153554 
L 444.205212 258.257771 
L 444.482913 273.294436 
L 444.760615 278.197432 
L 445.038317 276.716824 
L 445.316018 279.969307 
L 445.59372 277.772667 
L 445.871422 274.568729 
L 446.149123 278.573652 
L 446.426825 275.345441 
L 446.704527 274.859996 
L 446.982228 272.614812 
L 447.25993 260.090326 
L 447.537632 265.988485 
L 447.815333 277.0445 
L 448.093035 282.809161 
L 448.370737 272.141503 
L 448.648438 274.799316 
L 448.92614 286.886901 
L 449.203842 282.590711 
L 449.481543 274.350279 
L 449.759245 270.199722 
L 450.314648 275.357578 
L 450.59235 273.088121 
L 450.870051 281.571276 
L 451.147753 285.515518 
L 451.425455 284.229089 
L 451.703156 286.365047 
L 451.980858 285.042209 
L 452.536261 288.367509 
L 452.813963 283.246062 
L 453.091665 283.318879 
L 453.369366 287.651477 
L 453.647068 283.97423 
L 453.92477 271.267702 
L 454.480173 281.571276 
L 454.757875 282.991203 
L 455.035576 294.751113 
L 455.313278 290.855415 
L 455.590979 302.384739 
L 455.868681 281.146512 
L 456.424084 284.03491 
L 456.979488 283.488785 
L 457.257189 283.500921 
L 457.534891 277.093044 
L 457.812593 299.290026 
L 458.090294 263.294265 
L 458.367996 195.162032 
L 458.645698 201.035918 
L 458.923399 238.208884 
L 459.201101 251.595035 
L 459.478803 240.660382 
L 459.756504 239.094822 
L 460.034206 241.036602 
L 460.311908 238.803554 
L 460.589609 243.366739 
L 460.867311 245.320656 
L 461.145013 241.048739 
L 461.422714 225.041183 
L 461.700416 226.351885 
L 461.978117 230.805845 
L 462.255819 230.866526 
L 462.533521 232.711217 
L 462.811222 239.88367 
L 463.088924 232.73549 
L 463.366626 229.313101 
L 463.644327 220.696449 
L 463.922029 236.619051 
L 464.199731 240.878833 
L 464.477432 237.917617 
L 464.755134 239.252591 
L 465.032836 238.560832 
L 465.310537 238.524424 
L 465.588239 235.284077 
L 465.865941 238.864235 
L 466.143642 240.429796 
L 466.699046 240.745335 
L 467.254449 218.754668 
L 467.532151 228.184441 
L 467.809852 202.941291 
L 468.087554 304.54497 
L 468.365255 267.299187 
L 468.642957 211.242404 
L 468.920659 224.300879 
L 469.19836 254.289256 
L 469.476062 233.038893 
L 469.753764 227.90531 
L 470.031465 230.720892 
L 470.309167 231.958777 
L 470.586869 218.378448 
L 470.86457 228.184441 
L 471.142272 233.354432 
L 471.419974 245.587651 
L 471.697675 235.029218 
L 471.975377 236.546234 
L 472.253079 232.274317 
L 472.53078 234.737951 
L 472.808482 233.196663 
L 473.086184 227.359184 
L 473.363885 230.563122 
L 473.641587 226.885875 
L 473.919288 227.128598 
L 474.19699 225.502356 
L 474.474692 227.771812 
L 474.752393 228.172305 
L 475.030095 226.24266 
L 475.307797 226.485383 
L 475.585498 221.752292 
L 475.8632 223.2329 
L 476.140902 220.732857 
L 476.418603 220.854218 
L 476.696305 225.660126 
L 477.251708 222.650366 
L 477.807112 228.014535 
L 478.084813 230.150494 
L 478.362515 225.611581 
L 478.640217 207.01903 
L 478.917918 206.327271 
L 479.19562 234.131145 
L 479.473322 290.964641 
L 479.751023 287.493707 
L 480.306426 198.098975 
L 480.584128 196.764001 
L 480.86183 199.166954 
L 481.139531 199.203363 
L 481.417233 200.768924 
L 481.972636 210.574916 
L 482.250338 209.931702 
L 482.52804 197.589258 
L 482.805741 218.511945 
L 483.083443 219.118752 
L 483.361145 274.981358 
L 483.638846 260.527227 
L 483.916548 191.229925 
L 484.19425 221.94647 
L 484.471951 210.890456 
L 484.749653 183.839022 
L 485.027355 211.642896 
L 485.305056 207.407387 
L 485.582758 205.817554 
L 485.860459 222.880952 
L 486.138161 215.623546 
L 486.693564 221.060533 
L 486.971266 203.960726 
L 487.804371 220.732857 
L 488.082073 229.895635 
L 488.359774 227.808221 
L 488.637476 218.876029 
L 488.915178 259.604881 
L 489.192879 234.276778 
L 489.748283 218.172134 
L 490.025984 199.506766 
L 490.303686 219.4707 
L 490.581388 184.385148 
L 490.859089 191.254198 
L 491.136791 221.776564 
L 491.414493 218.257087 
L 491.692194 216.545892 
L 491.969896 233.427249 
L 492.247597 214.191483 
L 492.525299 218.475537 
L 492.803001 206.169501 
L 493.080702 210.210833 
L 493.358404 209.676843 
L 493.636106 201.060191 
L 493.913807 201.120871 
L 494.191509 208.596727 
L 494.469211 206.387952 
L 494.746912 202.856338 
L 495.302316 223.900387 
L 495.857719 202.298076 
L 496.135421 203.184013 
L 496.413122 221.849381 
L 496.690824 216.982793 
L 496.968526 214.276436 
L 497.246227 221.910062 
L 497.523929 217.541055 
L 497.801631 211.230267 
L 498.079332 209.74966 
L 498.357034 235.903019 
L 498.634735 195.865927 
L 498.912437 229.507279 
L 499.190139 241.303597 
L 499.46784 266.182663 
L 499.745542 213.329818 
L 500.023244 220.174595 
L 500.300945 217.456102 
L 500.856349 204.943752 
L 501.13405 200.307751 
L 501.411752 200.878149 
L 501.689454 191.157109 
L 501.967155 215.113829 
L 502.244857 216.424531 
L 502.522559 215.757044 
L 503.077962 203.499553 
L 503.355664 204.603941 
L 503.633365 196.060105 
L 504.188768 117.381575 
L 504.46647 134.578471 
L 504.744172 256.170356 
L 505.021873 291.838442 
L 505.299575 249.568302 
L 505.577277 292.457385 
L 506.13268 147.576266 
L 506.410382 161.229412 
L 506.688083 159.845894 
L 507.521188 142.345594 
L 508.354293 118.121879 
L 508.909697 89.468477 
L 509.187398 116.799041 
L 509.4651 170.258693 
L 509.742802 127.490972 
L 510.298205 93.934572 
L 510.575906 65.863704 
L 510.853608 167.212525 
L 511.13131 210.659869 
L 511.409011 227.237823 
L 511.686713 85.645596 
L 511.964415 87.95146 
L 512.242116 62.028687 
L 512.79752 42.835398 
L 515.019133 42.835398 
L 515.296835 90.026739 
L 515.574536 42.835398 
L 515.852238 42.835398 
L 516.129939 68.861328 
L 516.407641 135.112461 
L 516.685343 133.437675 
L 516.963044 125.197243 
L 517.240746 163.353235 
L 517.518448 267.092873 
L 517.796149 251.10959 
L 518.073851 248.391097 
L 518.351553 148.559293 
L 518.906956 80.062976 
L 519.184658 109.420274 
L 519.462359 157.81916 
L 519.740061 145.343219 
L 520.017763 200.78106 
L 520.295464 200.125709 
L 520.573166 236.424873 
L 520.850868 189.737182 
L 521.128569 214.070122 
L 521.406271 196.363508 
L 521.683973 232.298589 
L 522.239376 127.345338 
L 522.517077 118.097607 
L 522.794779 42.835398 
L 523.072481 98.388532 
L 523.350182 90.633545 
L 523.627884 132.224062 
L 523.905586 139.432923 
L 524.183287 102.72113 
L 524.460989 86.786392 
L 524.738691 169.093625 
L 525.294094 115.148527 
L 525.571796 114.04414 
L 525.849497 94.784102 
L 526.404901 82.296024 
L 526.682602 67.708396 
L 526.960304 78.533824 
L 527.238006 42.835398 
L 527.515707 156.775453 
L 528.071111 42.835398 
L 528.348812 90.330142 
L 528.626514 87.186884 
L 528.904215 122.818562 
L 529.181917 78.266829 
L 529.459619 85.269376 
L 529.73732 44.843927 
L 530.015022 75.609016 
L 530.292724 271.364791 
L 530.570425 187.601223 
L 530.848127 147.551994 
L 531.125829 86.131041 
L 531.40353 93.837483 
L 531.681232 89.080121 
L 532.236635 257.699509 
L 532.514337 254.87179 
L 532.792039 246.740583 
L 533.347442 132.466785 
L 533.902845 103.57066 
L 534.180547 223.184355 
L 534.458248 207.031167 
L 534.73595 115.39125 
L 535.013652 91.191807 
L 535.291353 141.678107 
L 535.569055 96.738018 
L 535.846757 101.082753 
L 536.124458 167.904284 
L 536.40216 154.081232 
L 536.679862 151.411283 
L 536.957563 188.70561 
L 537.235265 190.004176 
L 537.512967 246.3765 
L 537.790668 229.798546 
L 538.06837 234.288914 
L 538.346072 201.460683 
L 538.901475 187.152186 
L 539.179177 244.446855 
L 539.456878 226.497519 
L 540.012282 291.413677 
L 540.567685 210.368602 
L 541.123088 177.564643 
L 541.40079 194.081916 
L 541.678491 192.613444 
L 541.956193 174.033029 
L 542.233895 172.443196 
L 542.511596 154.408908 
L 542.789298 177.625324 
L 543.067 215.17451 
L 543.344701 182.237053 
L 543.622403 162.661476 
L 543.900105 151.823912 
L 544.177806 160.29493 
L 544.73321 141.896558 
L 545.010911 97.890951 
L 545.288613 151.253514 
L 545.844016 195.429026 
L 546.121718 191.448376 
L 546.39942 190.028449 
L 546.677121 184.118153 
L 546.954823 185.525944 
L 547.232524 171.096086 
L 547.510226 185.598761 
L 547.787928 178.887481 
L 548.065629 142.333458 
L 548.343331 213.475451 
L 548.621033 166.909121 
L 548.898734 165.112974 
L 549.176436 197.98975 
L 549.454138 191.581873 
L 549.731839 205.82969 
L 550.009541 211.837074 
L 550.564944 264.495741 
L 551.675751 195.938744 
L 551.953453 191.788187 
L 552.231154 181.254027 
L 552.508856 206.315135 
L 552.786557 179.627785 
L 553.064259 164.445487 
L 553.619662 186.363337 
L 553.897364 176.5088 
L 554.175066 176.217533 
L 554.452767 174.457794 
L 554.730469 179.287974 
L 555.008171 175.53791 
L 555.285872 186.775966 
L 555.563574 186.508971 
L 555.841276 202.213123 
L 556.118977 192.637717 
L 556.396679 190.404669 
L 556.674381 194.251822 
L 556.952082 238.937052 
L 557.507486 191.569737 
L 557.785187 195.526115 
L 558.062889 194.919309 
L 558.340591 179.215157 
L 558.618292 178.972434 
L 559.173695 169.506253 
L 559.451397 170.137332 
L 559.729099 166.714943 
L 560.284502 185.040499 
L 560.562204 170.185876 
L 560.839905 167.467383 
L 561.117607 173.147092 
L 561.395309 202.989835 
L 561.67301 219.519244 
L 561.950712 189.251736 
L 562.228414 187.273547 
L 562.506115 170.028107 
L 563.061519 229.118923 
L 563.33922 157.103128 
L 563.616922 172.21261 
L 563.894624 174.433522 
L 564.172325 157.527893 
L 564.727728 161.180868 
L 565.00543 151.836048 
L 565.283132 184.979819 
L 565.560833 149.251052 
L 565.838535 147.430633 
L 566.393938 104.638639 
L 566.67164 97.138511 
L 566.949342 96.653066 
L 567.227043 90.864132 
L 567.504745 134.093026 
L 568.060148 108.728515 
L 568.615552 153.874918 
L 568.893253 127.163296 
L 569.170955 134.335749 
L 569.448657 108.158117 
L 569.726358 108.497928 
L 570.00406 118.000518 
L 570.281762 123.243326 
L 570.559463 57.465502 
L 570.837165 112.296537 
L 571.114866 111.665458 
L 571.392568 114.808716 
L 571.67027 109.37173 
L 571.947971 92.769504 
L 572.225673 90.803451 
L 572.503375 90.560728 
L 572.781076 83.546045 
L 573.058778 95.390908 
L 573.33648 101.677423 
L 573.614181 103.352209 
L 573.891883 112.320809 
L 574.169585 95.767128 
L 574.447286 104.869225 
L 574.724988 119.444717 
L 575.00269 116.058737 
L 575.280391 66.203516 
L 575.558093 55.912078 
L 575.835795 100.111863 
L 576.113496 83.667407 
L 576.6689 103.522115 
L 576.946601 85.499962 
L 577.224303 89.577702 
L 577.779706 65.948657 
L 578.335109 76.66486 
L 578.612811 73.473058 
L 578.890513 68.764239 
L 579.168214 87.490288 
L 579.445916 84.953836 
L 579.723618 91.27676 
L 580.001319 103.728429 
L 580.279021 98.060857 
L 580.556723 105.82798 
L 580.834424 107.696944 
L 581.112126 122.078258 
L 581.389828 114.371815 
L 581.667529 117.308759 
L 581.945231 118.801503 
L 582.222933 92.150561 
L 582.500634 77.890609 
L 582.778336 94.104478 
L 583.056037 87.720874 
L 583.333739 76.045917 
L 583.611441 81.470767 
L 583.889142 69.540951 
L 584.166844 70.305528 
L 584.444546 75.366294 
L 584.722247 118.303921 
L 584.999949 85.390737 
L 585.277651 78.461007 
L 585.555352 93.898164 
L 585.833054 50.111008 
L 586.110756 42.835398 
L 586.666159 42.835398 
L 586.943861 53.011543 
L 587.221562 73.994911 
L 587.499264 75.147843 
L 587.776966 77.878473 
L 588.054667 91.507346 
L 588.332369 71.980314 
L 588.887772 91.240352 
L 589.165474 89.808288 
L 589.720877 84.116443 
L 589.998579 65.159809 
L 590.27628 75.669697 
L 590.553982 91.65298 
L 590.831684 89.941786 
L 591.109385 42.835398 
L 591.387087 42.835398 
L 591.664789 63.351525 
L 591.94249 63.982604 
L 592.220192 76.312912 
L 592.497894 74.504629 
L 593.053297 52.76882 
L 593.330999 48.047865 
L 593.6087 59.285922 
L 593.886402 85.415009 
L 594.164104 79.67462 
L 594.441805 92.296195 
L 594.719507 138.073677 
L 594.997208 99.699234 
L 595.27491 42.835398 
L 595.552612 46.96775 
L 595.830313 53.824663 
L 596.108015 52.186286 
L 596.385717 44.831791 
L 596.663418 45.99686 
L 596.94112 42.835398 
L 598.051927 42.835398 
L 598.329628 85.463554 
L 598.60733 72.332261 
L 599.162733 114.893669 
L 599.440435 78.752274 
L 599.718137 107.611991 
L 599.995838 80.20861 
L 600.27354 63.970468 
L 600.551242 71.895361 
L 600.828943 59.917 
L 601.106645 62.586949 
L 601.384346 59.249513 
L 601.662048 52.137741 
L 601.93975 61.57965 
L 602.217451 57.999492 
L 602.495153 42.835398 
L 604.161363 42.835398 
L 604.439065 65.596709 
L 604.716766 45.402189 
L 605.549871 107.830441 
L 605.827573 100.852166 
L 606.105275 111.082924 
L 606.660678 98.534166 
L 607.216081 70.378344 
L 607.493783 42.835398 
L 607.771484 59.298058 
L 608.049186 42.835398 
L 608.326888 52.222694 
L 608.604589 67.477809 
L 608.882291 90.767043 
L 609.159993 45.911907 
L 609.437694 47.683782 
L 609.715396 55.001868 
L 609.993098 51.895019 
L 610.270799 42.835398 
L 616.657937 42.835398 
L 616.935639 48.47263 
L 617.213341 42.835398 
L 618.879551 42.835398 
L 619.157252 45.062378 
L 619.434954 42.835398 
L 619.712655 116.422821 
L 619.990357 78.92218 
L 620.268059 69.832219 
L 620.54576 42.835398 
L 620.823462 54.625648 
L 621.101164 57.271324 
L 621.378865 42.835398 
L 621.656567 43.666723 
L 621.934269 43.666723 
L 622.21197 187.14005 
L 622.489672 169.724703 
L 622.767374 110.743112 
L 623.045075 126.107453 
L 623.322777 147.782581 
L 623.600479 131.156083 
L 623.87818 132.478921 
L 624.155882 90.936948 
L 624.433584 82.198935 
L 624.711285 114.663082 
L 624.988987 188.256574 
L 625.266688 183.778342 
L 625.54439 121.896216 
L 626.655197 42.835398 
L 626.932898 54.225156 
L 627.2106 220.259548 
L 627.488302 241.048739 
L 627.766003 170.792683 
L 628.043705 232.225772 
L 628.321407 217.541055 
L 628.599108 164.360534 
L 628.87681 137.976588 
L 629.154512 138.789708 
L 629.432213 108.558609 
L 629.709915 213.378362 
L 630.265318 151.957409 
L 630.54302 131.083266 
L 630.820722 286.716995 
L 631.098423 205.368517 
L 631.931528 116.701952 
L 632.20923 180.877807 
L 632.486931 149.190372 
L 633.042335 56.385387 
L 633.320036 42.835398 
L 633.597738 216.703662 
L 634.153141 101.446837 
L 634.430843 90.099555 
L 634.708545 46.251718 
L 634.986246 42.835398 
L 635.263948 72.089539 
L 635.54165 142.382003 
L 635.819351 75.196388 
L 636.097053 61.834509 
L 636.374755 42.835398 
L 636.930158 42.835398 
L 637.20786 77.817792 
L 637.485561 155.828835 
L 637.763263 132.57601 
L 638.040964 76.798357 
L 638.318666 50.487228 
L 638.596368 42.835398 
L 638.874069 42.835398 
L 639.151771 50.402275 
L 639.429473 51.445982 
L 639.707174 42.835398 
L 639.984876 42.835398 
L 640.262578 69.698721 
L 640.540279 65.171945 
L 640.817981 42.835398 
L 641.095683 79.844526 
L 641.373384 160.161433 
L 641.651086 87.308246 
L 641.928788 66.664689 
L 642.206489 165.003749 
L 642.484191 213.147776 
L 642.761893 199.482494 
L 643.039594 141.338296 
L 643.317296 115.816015 
L 643.594997 104.468733 
L 643.872699 119.68744 
L 644.150401 171.593667 
L 644.983506 87.73301 
L 645.261207 78.873635 
L 645.538909 148.510748 
L 645.816611 91.203943 
L 646.094312 72.939068 
L 646.372014 71.482732 
L 646.649716 46.069676 
L 646.927417 73.048293 
L 647.205119 54.831962 
L 647.482821 119.032089 
L 647.760522 42.835398 
L 648.038224 78.096923 
L 648.315926 77.089624 
L 648.593627 73.994911 
L 648.871329 78.521688 
L 649.149031 42.835398 
L 649.426732 62.720446 
L 649.704434 67.902574 
L 649.982135 42.835398 
L 652.759152 42.835398 
L 653.036854 53.763983 
L 653.314555 42.835398 
L 653.592257 42.835398 
L 653.869959 86.616486 
L 654.14766 55.997031 
L 654.425362 42.835398 
L 655.536168 42.835398 
L 655.81387 122.2603 
L 656.091572 44.686158 
L 656.369273 42.835398 
L 657.757782 42.835398 
L 658.035483 53.727574 
L 658.313185 42.835398 
L 659.701693 42.835398 
L 659.979395 64.031149 
L 660.257097 189.797862 
L 660.8125 71.652638 
L 661.090202 42.835398 
L 667.47734 42.835398 
L 667.755041 46.7493 
L 668.032743 42.835398 
L 668.310444 52.441145 
L 668.588146 90.949085 
L 668.865848 42.835398 
L 674.975284 42.835398 
L 674.975284 42.835398 
" clip-path="url(#pec8f5e4680)" style="fill: none; stroke: #2878b5; stroke-width: 1.5; stroke-linecap: square"/>
   </g>
   <g id="patch_3">
    <path d="M 36.10875 389.698125 
L 36.10875 26.318125 
" style="fill: none; stroke: #000000; stroke-width: 0.8; stroke-linejoin: miter; stroke-linecap: square"/>
   </g>
   <g id="patch_4">
    <path d="M 705.3975 389.698125 
L 705.3975 26.318125 
" style="fill: none; stroke: #000000; stroke-width: 0.8; stroke-linejoin: miter; stroke-linecap: square"/>
   </g>
   <g id="patch_5">
    <path d="M 36.10875 389.698125 
L 705.3975 389.698125 
" style="fill: none; stroke: #000000; stroke-width: 0.8; stroke-linejoin: miter; stroke-linecap: square"/>
   </g>
   <g id="patch_6">
    <path d="M 36.10875 26.318125 
L 705.3975 26.318125 
" style="fill: none; stroke: #000000; stroke-width: 0.8; stroke-linejoin: miter; stroke-linecap: square"/>
   </g>
   <g id="text_14">
    <!-- origin NH3_N_mg/L time-x -->
    <g transform="translate(292.26 16.318125) scale(0.12 -0.12)">
     <defs>
      <path id="DejaVuSans-6f" d="M 1959 3097 
Q 1497 3097 1228 2736 
Q 959 2375 959 1747 
Q 959 1119 1226 758 
Q 1494 397 1959 397 
Q 2419 397 2687 759 
Q 2956 1122 2956 1747 
Q 2956 2369 2687 2733 
Q 2419 3097 1959 3097 
z
M 1959 3584 
Q 2709 3584 3137 3096 
Q 3566 2609 3566 1747 
Q 3566 888 3137 398 
Q 2709 -91 1959 -91 
Q 1206 -91 779 398 
Q 353 888 353 1747 
Q 353 2609 779 3096 
Q 1206 3584 1959 3584 
z
" transform="scale(0.015625)"/>
      <path id="DejaVuSans-2d" d="M 313 2009 
L 1997 2009 
L 1997 1497 
L 313 1497 
L 313 2009 
z
" transform="scale(0.015625)"/>
      <path id="DejaVuSans-78" d="M 3513 3500 
L 2247 1797 
L 3578 0 
L 2900 0 
L 1881 1375 
L 863 0 
L 184 0 
L 1544 1831 
L 300 3500 
L 978 3500 
L 1906 2253 
L 2834 3500 
L 3513 3500 
z
" transform="scale(0.015625)"/>
     </defs>
     <use xlink:href="#DejaVuSans-6f"/>
     <use xlink:href="#DejaVuSans-72" transform="translate(61.181641 0)"/>
     <use xlink:href="#DejaVuSans-69" transform="translate(102.294922 0)"/>
     <use xlink:href="#DejaVuSans-67" transform="translate(130.078125 0)"/>
     <use xlink:href="#DejaVuSans-69" transform="translate(193.554688 0)"/>
     <use xlink:href="#DejaVuSans-6e" transform="translate(221.337891 0)"/>
     <use xlink:href="#DejaVuSans-20" transform="translate(284.716797 0)"/>
     <use xlink:href="#DejaVuSans-4e" transform="translate(316.503906 0)"/>
     <use xlink:href="#DejaVuSans-48" transform="translate(391.308594 0)"/>
     <use xlink:href="#DejaVuSans-33" transform="translate(466.503906 0)"/>
     <use xlink:href="#DejaVuSans-5f" transform="translate(530.126953 0)"/>
     <use xlink:href="#DejaVuSans-4e" transform="translate(580.126953 0)"/>
     <use xlink:href="#DejaVuSans-5f" transform="translate(654.931641 0)"/>
     <use xlink:href="#DejaVuSans-6d" transform="translate(704.931641 0)"/>
     <use xlink:href="#DejaVuSans-67" transform="translate(802.34375 0)"/>
     <use xlink:href="#DejaVuSans-2f" transform="translate(865.820312 0)"/>
     <use xlink:href="#DejaVuSans-4c" transform="translate(899.511719 0)"/>
     <use xlink:href="#DejaVuSans-20" transform="translate(955.224609 0)"/>
     <use xlink:href="#DejaVuSans-74" transform="translate(987.011719 0)"/>
     <use xlink:href="#DejaVuSans-69" transform="translate(1026.220703 0)"/>
     <use xlink:href="#DejaVuSans-6d" transform="translate(1054.003906 0)"/>
     <use xlink:href="#DejaVuSans-65" transform="translate(1151.416016 0)"/>
     <use xlink:href="#DejaVuSans-2d" transform="translate(1212.939453 0)"/>
     <use xlink:href="#DejaVuSans-78" transform="translate(1249.023438 0)"/>
    </g>
   </g>
   <g id="legend_1">
    <g id="patch_7">
     <path d="M 42.40875 46.97875 
L 184.625625 46.97875 
Q 186.425625 46.97875 186.425625 45.17875 
L 186.425625 32.618125 
Q 186.425625 30.818125 184.625625 30.818125 
L 42.40875 30.818125 
Q 40.60875 30.818125 40.60875 32.618125 
L 40.60875 45.17875 
Q 40.60875 46.97875 42.40875 46.97875 
z
" style="fill: #ffffff; opacity: 0.8; stroke: #cccccc; stroke-width: 0.5; stroke-linejoin: miter"/>
    </g>
    <g id="line2d_24">
     <path d="M 44.20875 38.106719 
L 53.20875 38.106719 
L 62.20875 38.106719 
" style="fill: none; stroke: #2878b5; stroke-width: 1.5; stroke-linecap: square"/>
    </g>
    <g id="text_15">
     <!-- origin NH3_N_mg/L value -->
     <g transform="translate(69.40875 41.256719) scale(0.09 -0.09)">
      <use xlink:href="#DejaVuSans-6f"/>
      <use xlink:href="#DejaVuSans-72" transform="translate(61.181641 0)"/>
      <use xlink:href="#DejaVuSans-69" transform="translate(102.294922 0)"/>
      <use xlink:href="#DejaVuSans-67" transform="translate(130.078125 0)"/>
      <use xlink:href="#DejaVuSans-69" transform="translate(193.554688 0)"/>
      <use xlink:href="#DejaVuSans-6e" transform="translate(221.337891 0)"/>
      <use xlink:href="#DejaVuSans-20" transform="translate(284.716797 0)"/>
      <use xlink:href="#DejaVuSans-4e" transform="translate(316.503906 0)"/>
      <use xlink:href="#DejaVuSans-48" transform="translate(391.308594 0)"/>
      <use xlink:href="#DejaVuSans-33" transform="translate(466.503906 0)"/>
      <use xlink:href="#DejaVuSans-5f" transform="translate(530.126953 0)"/>
      <use xlink:href="#DejaVuSans-4e" transform="translate(580.126953 0)"/>
      <use xlink:href="#DejaVuSans-5f" transform="translate(654.931641 0)"/>
      <use xlink:href="#DejaVuSans-6d" transform="translate(704.931641 0)"/>
      <use xlink:href="#DejaVuSans-67" transform="translate(802.34375 0)"/>
      <use xlink:href="#DejaVuSans-2f" transform="translate(865.820312 0)"/>
      <use xlink:href="#DejaVuSans-4c" transform="translate(899.511719 0)"/>
      <use xlink:href="#DejaVuSans-20" transform="translate(955.224609 0)"/>
      <use xlink:href="#DejaVuSans-76" transform="translate(987.011719 0)"/>
      <use xlink:href="#DejaVuSans-61" transform="translate(1046.191406 0)"/>
      <use xlink:href="#DejaVuSans-6c" transform="translate(1107.470703 0)"/>
      <use xlink:href="#DejaVuSans-75" transform="translate(1135.253906 0)"/>
      <use xlink:href="#DejaVuSans-65" transform="translate(1198.632812 0)"/>
     </g>
    </g>
   </g>
  </g>
 </g>
 <defs>
  <clipPath id="pec8f5e4680">
   <rect x="36.10875" y="26.318125" width="669.28875" height="363.38"/>
  </clipPath>
 </defs>
</svg>
