<?xml version="1.0" encoding="utf-8" standalone="no"?>
<!DOCTYPE svg PUBLIC "-//W3C//DTD SVG 1.1//EN"
  "http://www.w3.org/Graphics/SVG/1.1/DTD/svg11.dtd">
<svg xmlns:xlink="http://www.w3.org/1999/xlink" width="712.522188pt" height="418.722912pt" viewBox="0 0 712.522188 418.722912" xmlns="http://www.w3.org/2000/svg" version="1.1">
 <metadata>
  <rdf:RDF xmlns:dc="http://purl.org/dc/elements/1.1/" xmlns:cc="http://creativecommons.org/ns#" xmlns:rdf="http://www.w3.org/1999/02/22-rdf-syntax-ns#">
   <cc:Work>
    <dc:type rdf:resource="http://purl.org/dc/dcmitype/StillImage"/>
    <dc:date>2026-01-16T01:41:33.756982</dc:date>
    <dc:format>image/svg+xml</dc:format>
    <dc:creator>
     <cc:Agent>
      <dc:title>Matplotlib v3.10.0, https://matplotlib.org/</dc:title>
     </cc:Agent>
    </dc:creator>
   </cc:Work>
  </rdf:RDF>
 </metadata>
 <defs>
  <style type="text/css">*{stroke-linejoin: round; stroke-linecap: butt}</style>
 </defs>
 <g id="figure_1">
  <g id="patch_1">
   <path d="M -0 418.722912 
L 712.522188 418.722912 
L 712.522188 0 
L -0 0 
z
" style="fill: #ffffff"/>
  </g>
  <g id="axes_1">
   <g id="patch_2">
    <path d="M 35.932188 385.634475 
L 705.322188 385.634475 
L 705.322188 40.772875 
L 35.932188 40.772875 
z
" style="fill: #ffffff"/>
   </g>
   <g id="matplotlib.axis_1">
    <g id="xtick_1">
     <g id="line2d_1">
      <path d="M 66.081262 385.634475 
L 66.081262 40.772875 
" clip-path="url(#pf69b5c024c)" style="fill: none; stroke-dasharray: 1.85,0.8; stroke-dashoffset: 0; stroke: #b2b2b2; stroke-opacity: 0.3; stroke-width: 0.5"/>
     </g>
     <g id="line2d_2">
      <defs>
       <path id="m7a999cc093" d="M 0 0 
L 0 -3.5 
" style="stroke: #000000; stroke-width: 0.8"/>
      </defs>
      <g>
       <use xlink:href="#m7a999cc093" x="66.081262" y="385.634475" style="stroke: #000000; stroke-width: 0.8"/>
      </g>
     </g>
     <g id="text_1">
      <!-- 0 -->
      <g transform="translate(63.218137 395.973069) scale(0.09 -0.09)">
       <defs>
        <path id="DejaVuSans-30" d="M 2034 4250 
Q 1547 4250 1301 3770 
Q 1056 3291 1056 2328 
Q 1056 1369 1301 889 
Q 1547 409 2034 409 
Q 2525 409 2770 889 
Q 3016 1369 3016 2328 
Q 3016 3291 2770 3770 
Q 2525 4250 2034 4250 
z
M 2034 4750 
Q 2819 4750 3233 4129 
Q 3647 3509 3647 2328 
Q 3647 1150 3233 529 
Q 2819 -91 2034 -91 
Q 1250 -91 836 529 
Q 422 1150 422 2328 
Q 422 3509 836 4129 
Q 1250 4750 2034 4750 
z
" transform="scale(0.015625)"/>
       </defs>
       <use xlink:href="#DejaVuSans-30"/>
      </g>
     </g>
    </g>
    <g id="xtick_2">
     <g id="line2d_3">
      <path d="M 204.953093 385.634475 
L 204.953093 40.772875 
" clip-path="url(#pf69b5c024c)" style="fill: none; stroke-dasharray: 1.85,0.8; stroke-dashoffset: 0; stroke: #b2b2b2; stroke-opacity: 0.3; stroke-width: 0.5"/>
     </g>
     <g id="line2d_4">
      <g>
       <use xlink:href="#m7a999cc093" x="204.953093" y="385.634475" style="stroke: #000000; stroke-width: 0.8"/>
      </g>
     </g>
     <g id="text_2">
      <!-- 500 -->
      <g transform="translate(196.363718 395.973069) scale(0.09 -0.09)">
       <defs>
        <path id="DejaVuSans-35" d="M 691 4666 
L 3169 4666 
L 3169 4134 
L 1269 4134 
L 1269 2991 
Q 1406 3038 1543 3061 
Q 1681 3084 1819 3084 
Q 2600 3084 3056 2656 
Q 3513 2228 3513 1497 
Q 3513 744 3044 326 
Q 2575 -91 1722 -91 
Q 1428 -91 1123 -41 
Q 819 9 494 109 
L 494 744 
Q 775 591 1075 516 
Q 1375 441 1709 441 
Q 2250 441 2565 725 
Q 2881 1009 2881 1497 
Q 2881 1984 2565 2268 
Q 2250 2553 1709 2553 
Q 1456 2553 1204 2497 
Q 953 2441 691 2322 
L 691 4666 
z
" transform="scale(0.015625)"/>
       </defs>
       <use xlink:href="#DejaVuSans-35"/>
       <use xlink:href="#DejaVuSans-30" transform="translate(63.623047 0)"/>
       <use xlink:href="#DejaVuSans-30" transform="translate(127.246094 0)"/>
      </g>
     </g>
    </g>
    <g id="xtick_3">
     <g id="line2d_5">
      <path d="M 343.824924 385.634475 
L 343.824924 40.772875 
" clip-path="url(#pf69b5c024c)" style="fill: none; stroke-dasharray: 1.85,0.8; stroke-dashoffset: 0; stroke: #b2b2b2; stroke-opacity: 0.3; stroke-width: 0.5"/>
     </g>
     <g id="line2d_6">
      <g>
       <use xlink:href="#m7a999cc093" x="343.824924" y="385.634475" style="stroke: #000000; stroke-width: 0.8"/>
      </g>
     </g>
     <g id="text_3">
      <!-- 1000 -->
      <g transform="translate(332.372424 395.973069) scale(0.09 -0.09)">
       <defs>
        <path id="DejaVuSans-31" d="M 794 531 
L 1825 531 
L 1825 4091 
L 703 3866 
L 703 4441 
L 1819 4666 
L 2450 4666 
L 2450 531 
L 3481 531 
L 3481 0 
L 794 0 
L 794 531 
z
" transform="scale(0.015625)"/>
       </defs>
       <use xlink:href="#DejaVuSans-31"/>
       <use xlink:href="#DejaVuSans-30" transform="translate(63.623047 0)"/>
       <use xlink:href="#DejaVuSans-30" transform="translate(127.246094 0)"/>
       <use xlink:href="#DejaVuSans-30" transform="translate(190.869141 0)"/>
      </g>
     </g>
    </g>
    <g id="xtick_4">
     <g id="line2d_7">
      <path d="M 482.696755 385.634475 
L 482.696755 40.772875 
" clip-path="url(#pf69b5c024c)" style="fill: none; stroke-dasharray: 1.85,0.8; stroke-dashoffset: 0; stroke: #b2b2b2; stroke-opacity: 0.3; stroke-width: 0.5"/>
     </g>
     <g id="line2d_8">
      <g>
       <use xlink:href="#m7a999cc093" x="482.696755" y="385.634475" style="stroke: #000000; stroke-width: 0.8"/>
      </g>
     </g>
     <g id="text_4">
      <!-- 1500 -->
      <g transform="translate(471.244255 395.973069) scale(0.09 -0.09)">
       <use xlink:href="#DejaVuSans-31"/>
       <use xlink:href="#DejaVuSans-35" transform="translate(63.623047 0)"/>
       <use xlink:href="#DejaVuSans-30" transform="translate(127.246094 0)"/>
       <use xlink:href="#DejaVuSans-30" transform="translate(190.869141 0)"/>
      </g>
     </g>
    </g>
    <g id="xtick_5">
     <g id="line2d_9">
      <path d="M 621.568586 385.634475 
L 621.568586 40.772875 
" clip-path="url(#pf69b5c024c)" style="fill: none; stroke-dasharray: 1.85,0.8; stroke-dashoffset: 0; stroke: #b2b2b2; stroke-opacity: 0.3; stroke-width: 0.5"/>
     </g>
     <g id="line2d_10">
      <g>
       <use xlink:href="#m7a999cc093" x="621.568586" y="385.634475" style="stroke: #000000; stroke-width: 0.8"/>
      </g>
     </g>
     <g id="text_5">
      <!-- 2000 -->
      <g transform="translate(610.116086 395.973069) scale(0.09 -0.09)">
       <defs>
        <path id="DejaVuSans-32" d="M 1228 531 
L 3431 531 
L 3431 0 
L 469 0 
L 469 531 
Q 828 903 1448 1529 
Q 2069 2156 2228 2338 
Q 2531 2678 2651 2914 
Q 2772 3150 2772 3378 
Q 2772 3750 2511 3984 
Q 2250 4219 1831 4219 
Q 1534 4219 1204 4116 
Q 875 4013 500 3803 
L 500 4441 
Q 881 4594 1212 4672 
Q 1544 4750 1819 4750 
Q 2544 4750 2975 4387 
Q 3406 4025 3406 3419 
Q 3406 3131 3298 2873 
Q 3191 2616 2906 2266 
Q 2828 2175 2409 1742 
Q 1991 1309 1228 531 
z
" transform="scale(0.015625)"/>
       </defs>
       <use xlink:href="#DejaVuSans-32"/>
       <use xlink:href="#DejaVuSans-30" transform="translate(63.623047 0)"/>
       <use xlink:href="#DejaVuSans-30" transform="translate(127.246094 0)"/>
       <use xlink:href="#DejaVuSans-30" transform="translate(190.869141 0)"/>
      </g>
     </g>
    </g>
    <g id="text_6">
     <!-- 时间 / 序号 -->
     <g transform="translate(353.761562 409.443225) scale(0.1 -0.1)">
      <defs>
       <path id="DejaVuSans-65f6" d="M 319 -1131 
L 319 4513 
L 3519 4513 
L 3519 -1131 
L 319 -1131 
z
M 678 -775 
L 3163 -775 
L 3163 4153 
L 678 4153 
L 678 -775 
z
" transform="scale(0.015625)"/>
       <path id="DejaVuSans-95f4" d="M 319 -1131 
L 319 4513 
L 3519 4513 
L 3519 -1131 
L 319 -1131 
z
M 678 -775 
L 3163 -775 
L 3163 4153 
L 678 4153 
L 678 -775 
z
" transform="scale(0.015625)"/>
       <path id="DejaVuSans-20" transform="scale(0.015625)"/>
       <path id="DejaVuSans-2f" d="M 1625 4666 
L 2156 4666 
L 531 -594 
L 0 -594 
L 1625 4666 
z
" transform="scale(0.015625)"/>
       <path id="DejaVuSans-5e8f" d="M 319 -1131 
L 319 4513 
L 3519 4513 
L 3519 -1131 
L 319 -1131 
z
M 678 -775 
L 3163 -775 
L 3163 4153 
L 678 4153 
L 678 -775 
z
" transform="scale(0.015625)"/>
       <path id="DejaVuSans-53f7" d="M 319 -1131 
L 319 4513 
L 3519 4513 
L 3519 -1131 
L 319 -1131 
z
M 678 -775 
L 3163 -775 
L 3163 4153 
L 678 4153 
L 678 -775 
z
" transform="scale(0.015625)"/>
      </defs>
      <use xlink:href="#DejaVuSans-65f6"/>
      <use xlink:href="#DejaVuSans-95f4" transform="translate(60.009766 0)"/>
      <use xlink:href="#DejaVuSans-20" transform="translate(120.019531 0)"/>
      <use xlink:href="#DejaVuSans-2f" transform="translate(151.806641 0)"/>
      <use xlink:href="#DejaVuSans-20" transform="translate(185.498047 0)"/>
      <use xlink:href="#DejaVuSans-5e8f" transform="translate(217.285156 0)"/>
      <use xlink:href="#DejaVuSans-53f7" transform="translate(277.294922 0)"/>
     </g>
    </g>
   </g>
   <g id="matplotlib.axis_2">
    <g id="ytick_1">
     <g id="line2d_11">
      <path d="M 35.932188 371.572364 
L 705.322188 371.572364 
" clip-path="url(#pf69b5c024c)" style="fill: none; stroke-dasharray: 1.85,0.8; stroke-dashoffset: 0; stroke: #b2b2b2; stroke-opacity: 0.3; stroke-width: 0.5"/>
     </g>
     <g id="line2d_12">
      <defs>
       <path id="m1bd7d8cc2f" d="M 0 0 
L 3.5 0 
" style="stroke: #000000; stroke-width: 0.8"/>
      </defs>
      <g>
       <use xlink:href="#m1bd7d8cc2f" x="35.932188" y="371.572364" style="stroke: #000000; stroke-width: 0.8"/>
      </g>
     </g>
     <g id="text_7">
      <!-- 0 -->
      <g transform="translate(26.705938 374.991661) scale(0.09 -0.09)">
       <use xlink:href="#DejaVuSans-30"/>
      </g>
     </g>
    </g>
    <g id="ytick_2">
     <g id="line2d_13">
      <path d="M 35.932188 319.358236 
L 705.322188 319.358236 
" clip-path="url(#pf69b5c024c)" style="fill: none; stroke-dasharray: 1.85,0.8; stroke-dashoffset: 0; stroke: #b2b2b2; stroke-opacity: 0.3; stroke-width: 0.5"/>
     </g>
     <g id="line2d_14">
      <g>
       <use xlink:href="#m1bd7d8cc2f" x="35.932188" y="319.358236" style="stroke: #000000; stroke-width: 0.8"/>
      </g>
     </g>
     <g id="text_8">
      <!-- 5 -->
      <g transform="translate(26.705938 322.777533) scale(0.09 -0.09)">
       <use xlink:href="#DejaVuSans-35"/>
      </g>
     </g>
    </g>
    <g id="ytick_3">
     <g id="line2d_15">
      <path d="M 35.932188 267.144109 
L 705.322188 267.144109 
" clip-path="url(#pf69b5c024c)" style="fill: none; stroke-dasharray: 1.85,0.8; stroke-dashoffset: 0; stroke: #b2b2b2; stroke-opacity: 0.3; stroke-width: 0.5"/>
     </g>
     <g id="line2d_16">
      <g>
       <use xlink:href="#m1bd7d8cc2f" x="35.932188" y="267.144109" style="stroke: #000000; stroke-width: 0.8"/>
      </g>
     </g>
     <g id="text_9">
      <!-- 10 -->
      <g transform="translate(20.979688 270.563405) scale(0.09 -0.09)">
       <use xlink:href="#DejaVuSans-31"/>
       <use xlink:href="#DejaVuSans-30" transform="translate(63.623047 0)"/>
      </g>
     </g>
    </g>
    <g id="ytick_4">
     <g id="line2d_17">
      <path d="M 35.932188 214.929981 
L 705.322188 214.929981 
" clip-path="url(#pf69b5c024c)" style="fill: none; stroke-dasharray: 1.85,0.8; stroke-dashoffset: 0; stroke: #b2b2b2; stroke-opacity: 0.3; stroke-width: 0.5"/>
     </g>
     <g id="line2d_18">
      <g>
       <use xlink:href="#m1bd7d8cc2f" x="35.932188" y="214.929981" style="stroke: #000000; stroke-width: 0.8"/>
      </g>
     </g>
     <g id="text_10">
      <!-- 15 -->
      <g transform="translate(20.979688 218.349278) scale(0.09 -0.09)">
       <use xlink:href="#DejaVuSans-31"/>
       <use xlink:href="#DejaVuSans-35" transform="translate(63.623047 0)"/>
      </g>
     </g>
    </g>
    <g id="ytick_5">
     <g id="line2d_19">
      <path d="M 35.932188 162.715853 
L 705.322188 162.715853 
" clip-path="url(#pf69b5c024c)" style="fill: none; stroke-dasharray: 1.85,0.8; stroke-dashoffset: 0; stroke: #b2b2b2; stroke-opacity: 0.3; stroke-width: 0.5"/>
     </g>
     <g id="line2d_20">
      <g>
       <use xlink:href="#m1bd7d8cc2f" x="35.932188" y="162.715853" style="stroke: #000000; stroke-width: 0.8"/>
      </g>
     </g>
     <g id="text_11">
      <!-- 20 -->
      <g transform="translate(20.979688 166.13515) scale(0.09 -0.09)">
       <use xlink:href="#DejaVuSans-32"/>
       <use xlink:href="#DejaVuSans-30" transform="translate(63.623047 0)"/>
      </g>
     </g>
    </g>
    <g id="ytick_6">
     <g id="line2d_21">
      <path d="M 35.932188 110.501725 
L 705.322188 110.501725 
" clip-path="url(#pf69b5c024c)" style="fill: none; stroke-dasharray: 1.85,0.8; stroke-dashoffset: 0; stroke: #b2b2b2; stroke-opacity: 0.3; stroke-width: 0.5"/>
     </g>
     <g id="line2d_22">
      <g>
       <use xlink:href="#m1bd7d8cc2f" x="35.932188" y="110.501725" style="stroke: #000000; stroke-width: 0.8"/>
      </g>
     </g>
     <g id="text_12">
      <!-- 25 -->
      <g transform="translate(20.979688 113.921022) scale(0.09 -0.09)">
       <use xlink:href="#DejaVuSans-32"/>
       <use xlink:href="#DejaVuSans-35" transform="translate(63.623047 0)"/>
      </g>
     </g>
    </g>
    <g id="ytick_7">
     <g id="line2d_23">
      <path d="M 35.932188 58.287597 
L 705.322188 58.287597 
" clip-path="url(#pf69b5c024c)" style="fill: none; stroke-dasharray: 1.85,0.8; stroke-dashoffset: 0; stroke: #b2b2b2; stroke-opacity: 0.3; stroke-width: 0.5"/>
     </g>
     <g id="line2d_24">
      <g>
       <use xlink:href="#m1bd7d8cc2f" x="35.932188" y="58.287597" style="stroke: #000000; stroke-width: 0.8"/>
      </g>
     </g>
     <g id="text_13">
      <!-- 30 -->
      <g transform="translate(20.979688 61.706894) scale(0.09 -0.09)">
       <defs>
        <path id="DejaVuSans-33" d="M 2597 2516 
Q 3050 2419 3304 2112 
Q 3559 1806 3559 1356 
Q 3559 666 3084 287 
Q 2609 -91 1734 -91 
Q 1441 -91 1130 -33 
Q 819 25 488 141 
L 488 750 
Q 750 597 1062 519 
Q 1375 441 1716 441 
Q 2309 441 2620 675 
Q 2931 909 2931 1356 
Q 2931 1769 2642 2001 
Q 2353 2234 1838 2234 
L 1294 2234 
L 1294 2753 
L 1863 2753 
Q 2328 2753 2575 2939 
Q 2822 3125 2822 3475 
Q 2822 3834 2567 4026 
Q 2313 4219 1838 4219 
Q 1578 4219 1281 4162 
Q 984 4106 628 3988 
L 628 4550 
Q 988 4650 1302 4700 
Q 1616 4750 1894 4750 
Q 2613 4750 3031 4423 
Q 3450 4097 3450 3541 
Q 3450 3153 3228 2886 
Q 3006 2619 2597 2516 
z
" transform="scale(0.015625)"/>
       </defs>
       <use xlink:href="#DejaVuSans-33"/>
       <use xlink:href="#DejaVuSans-30" transform="translate(63.623047 0)"/>
      </g>
     </g>
    </g>
    <g id="text_14">
     <!-- NH3_N_mg/L 值 -->
     <g transform="translate(14.621875 249.731019) rotate(-90) scale(0.1 -0.1)">
      <defs>
       <path id="DejaVuSans-4e" d="M 628 4666 
L 1478 4666 
L 3547 763 
L 3547 4666 
L 4159 4666 
L 4159 0 
L 3309 0 
L 1241 3903 
L 1241 0 
L 628 0 
L 628 4666 
z
" transform="scale(0.015625)"/>
       <path id="DejaVuSans-48" d="M 628 4666 
L 1259 4666 
L 1259 2753 
L 3553 2753 
L 3553 4666 
L 4184 4666 
L 4184 0 
L 3553 0 
L 3553 2222 
L 1259 2222 
L 1259 0 
L 628 0 
L 628 4666 
z
" transform="scale(0.015625)"/>
       <path id="DejaVuSans-5f" d="M 3263 -1063 
L 3263 -1509 
L -63 -1509 
L -63 -1063 
L 3263 -1063 
z
" transform="scale(0.015625)"/>
       <path id="DejaVuSans-6d" d="M 3328 2828 
Q 3544 3216 3844 3400 
Q 4144 3584 4550 3584 
Q 5097 3584 5394 3201 
Q 5691 2819 5691 2113 
L 5691 0 
L 5113 0 
L 5113 2094 
Q 5113 2597 4934 2840 
Q 4756 3084 4391 3084 
Q 3944 3084 3684 2787 
Q 3425 2491 3425 1978 
L 3425 0 
L 2847 0 
L 2847 2094 
Q 2847 2600 2669 2842 
Q 2491 3084 2119 3084 
Q 1678 3084 1418 2786 
Q 1159 2488 1159 1978 
L 1159 0 
L 581 0 
L 581 3500 
L 1159 3500 
L 1159 2956 
Q 1356 3278 1631 3431 
Q 1906 3584 2284 3584 
Q 2666 3584 2933 3390 
Q 3200 3197 3328 2828 
z
" transform="scale(0.015625)"/>
       <path id="DejaVuSans-67" d="M 2906 1791 
Q 2906 2416 2648 2759 
Q 2391 3103 1925 3103 
Q 1463 3103 1205 2759 
Q 947 2416 947 1791 
Q 947 1169 1205 825 
Q 1463 481 1925 481 
Q 2391 481 2648 825 
Q 2906 1169 2906 1791 
z
M 3481 434 
Q 3481 -459 3084 -895 
Q 2688 -1331 1869 -1331 
Q 1566 -1331 1297 -1286 
Q 1028 -1241 775 -1147 
L 775 -588 
Q 1028 -725 1275 -790 
Q 1522 -856 1778 -856 
Q 2344 -856 2625 -561 
Q 2906 -266 2906 331 
L 2906 616 
Q 2728 306 2450 153 
Q 2172 0 1784 0 
Q 1141 0 747 490 
Q 353 981 353 1791 
Q 353 2603 747 3093 
Q 1141 3584 1784 3584 
Q 2172 3584 2450 3431 
Q 2728 3278 2906 2969 
L 2906 3500 
L 3481 3500 
L 3481 434 
z
" transform="scale(0.015625)"/>
       <path id="DejaVuSans-4c" d="M 628 4666 
L 1259 4666 
L 1259 531 
L 3531 531 
L 3531 0 
L 628 0 
L 628 4666 
z
" transform="scale(0.015625)"/>
       <path id="DejaVuSans-503c" d="M 319 -1131 
L 319 4513 
L 3519 4513 
L 3519 -1131 
L 319 -1131 
z
M 678 -775 
L 3163 -775 
L 3163 4153 
L 678 4153 
L 678 -775 
z
" transform="scale(0.015625)"/>
      </defs>
      <use xlink:href="#DejaVuSans-4e"/>
      <use xlink:href="#DejaVuSans-48" transform="translate(74.804688 0)"/>
      <use xlink:href="#DejaVuSans-33" transform="translate(150 0)"/>
      <use xlink:href="#DejaVuSans-5f" transform="translate(213.623047 0)"/>
      <use xlink:href="#DejaVuSans-4e" transform="translate(263.623047 0)"/>
      <use xlink:href="#DejaVuSans-5f" transform="translate(338.427734 0)"/>
      <use xlink:href="#DejaVuSans-6d" transform="translate(388.427734 0)"/>
      <use xlink:href="#DejaVuSans-67" transform="translate(485.839844 0)"/>
      <use xlink:href="#DejaVuSans-2f" transform="translate(549.316406 0)"/>
      <use xlink:href="#DejaVuSans-4c" transform="translate(583.007812 0)"/>
      <use xlink:href="#DejaVuSans-20" transform="translate(638.720703 0)"/>
      <use xlink:href="#DejaVuSans-503c" transform="translate(670.507812 0)"/>
     </g>
    </g>
   </g>
   <g id="line2d_25">
    <path d="M 66.359006 251.897583 
L 66.636749 253.046294 
L 66.914493 259.311989 
L 67.192237 236.964343 
L 67.46998 243.543323 
L 67.747724 254.403861 
L 68.025468 244.483177 
L 68.303211 244.483177 
L 68.580955 248.555879 
L 68.858699 245.52746 
L 69.136442 220.882391 
L 69.414186 227.774656 
L 69.69193 243.856608 
L 69.969673 252.628581 
L 70.247417 248.242594 
L 70.525161 257.745566 
L 70.802904 249.286877 
L 71.080648 250.226731 
L 71.358392 246.258457 
L 71.636135 223.388669 
L 71.913879 251.584298 
L 72.191623 224.328524 
L 72.469366 225.268378 
L 72.74711 275.289513 
L 73.024854 185.272356 
L 73.302597 156.763442 
L 73.580341 147.69907 
L 73.858085 182.891392 
L 74.135828 127.33556 
L 74.413572 154.466021 
L 74.691316 152.053728 
L 75.246803 142.916256 
L 75.524547 154.967276 
L 75.80229 155.249233 
L 76.080034 149.912949 
L 76.357778 137.642629 
L 76.635521 119.294584 
L 76.913265 108.830873 
L 77.191009 120.213553 
L 77.468752 93.511248 
L 77.746496 97.082694 
L 78.301983 120.213553 
L 78.85747 147.991469 
L 79.135214 125.957107 
L 79.412958 194.253186 
L 79.690701 216.18312 
L 79.968445 182.766078 
L 80.246189 257.745566 
L 80.523932 262.549265 
L 80.801676 265.055543 
L 81.07942 271.112382 
L 81.357163 261.504983 
L 81.634907 269.859243 
L 81.912651 273.305376 
L 82.190394 271.425667 
L 82.468138 262.340409 
L 82.745882 269.859243 
L 83.023625 267.770678 
L 83.301369 267.03968 
L 83.856856 250.331159 
L 84.1346 242.916753 
L 84.412344 238.530767 
L 84.690087 243.230038 
L 84.967831 237.277627 
L 85.245575 239.052908 
L 85.523318 234.980206 
L 85.801062 240.410475 
L 86.078806 238.844051 
L 86.356549 238.426338 
L 86.634293 240.72376 
L 86.912037 241.141473 
L 87.18978 240.72376 
L 87.745268 247.824881 
L 88.023011 249.495733 
L 88.300755 246.780599 
L 88.856242 251.166585 
L 89.133986 249.913446 
L 89.41173 249.70459 
L 89.689473 245.631888 
L 89.967217 253.359579 
L 90.244961 253.255151 
L 90.522704 259.416418 
L 90.800448 255.448144 
L 91.078192 257.223424 
L 91.355935 254.612718 
L 91.633679 258.163279 
L 91.911423 260.251844 
L 92.189166 255.030431 
L 92.744654 259.834131 
L 93.022397 259.834131 
L 93.300141 261.08727 
L 93.855628 259.311989 
L 94.411116 369.958948 
L 94.966603 369.958948 
L 95.244347 330.323203 
L 95.52209 258.372135 
L 95.799834 224.224096 
L 96.077578 233.309354 
L 96.355321 199.99674 
L 96.633065 215.55655 
L 96.910809 205.427009 
L 97.188552 200.936594 
L 97.466296 194.357614 
L 97.744039 209.708568 
L 98.021783 206.680149 
L 98.299527 232.891641 
L 98.57727 202.711875 
L 98.855014 195.924038 
L 99.132758 195.401897 
L 99.410501 217.540687 
L 99.688245 216.496405 
L 99.965989 216.914118 
L 100.243732 224.641809 
L 100.521476 219.315967 
L 100.79922 218.898254 
L 101.076963 202.503018 
L 101.354707 207.620003 
L 101.910194 211.170564 
L 102.187938 216.600833 
L 102.465682 227.074987 
L 102.743425 229.132224 
L 103.021169 236.337773 
L 103.576656 186.452395 
L 103.8544 221.456747 
L 104.132144 197.918618 
L 104.409887 232.588799 
L 104.687631 218.710284 
L 104.965375 227.01233 
L 105.243118 222.657672 
L 105.798606 180.050943 
L 106.076349 179.319946 
L 106.631837 233.204925 
L 106.90958 245.318603 
L 107.187324 246.885027 
L 107.465068 226.208232 
L 107.742811 247.30274 
L 108.020555 251.271014 
L 108.298299 251.897583 
L 108.576042 234.875778 
L 108.853786 247.30274 
L 109.13153 246.467314 
L 109.409273 253.672864 
L 109.687017 255.343716 
L 109.964761 236.024488 
L 110.242504 246.67617 
L 110.520248 246.362886 
L 110.797992 246.989455 
L 111.075735 314.554537 
L 111.631223 354.654987 
L 111.908966 342.854594 
L 112.18671 250.435588 
L 112.464454 232.682784 
L 112.742197 229.445508 
L 113.019941 232.473928 
L 113.297685 232.787212 
L 113.575428 225.686091 
L 113.853172 227.5658 
L 114.130916 242.394612 
L 114.964147 222.7621 
L 115.24189 228.818939 
L 115.519634 216.548619 
L 115.797378 198.55563 
L 116.075121 205.437452 
L 116.352865 299.621296 
L 116.630609 298.78587 
L 116.908352 226.730374 
L 117.186096 225.132621 
L 117.46384 236.724158 
L 117.741583 238.603866 
L 118.019327 233.278025 
L 118.29707 222.490586 
L 118.574814 228.463883 
L 118.852558 216.799247 
L 119.130301 222.887414 
L 119.408045 352.67085 
L 119.685789 355.62617 
L 119.963532 353.694247 
L 120.241276 360.408984 
L 120.51902 307.453415 
L 120.796763 297.522288 
L 121.352251 211.473405 
L 121.629994 227.221186 
L 121.907738 259.938559 
L 122.185482 211.473405 
L 122.463225 228.557868 
L 122.740969 254.476961 
L 123.296456 223.179813 
L 123.5742 245.840744 
L 123.851944 216.548619 
L 124.407431 186.379296 
L 124.685175 226.594617 
L 124.962918 225.665205 
L 125.240662 230.615105 
L 125.518406 206.732363 
L 125.796149 208.5703 
L 126.073893 203.307116 
L 126.351637 209.040227 
L 126.62938 239.658592 
L 126.907124 176.771896 
L 127.184868 181.909766 
L 127.462611 217.310945 
L 128.018099 214.74201 
L 128.295842 180.071829 
L 128.573586 170.913471 
L 128.85133 184.624901 
L 129.129073 217.62423 
L 129.406817 194.556028 
L 129.684561 209.186427 
L 129.962304 268.658318 
L 130.240048 292.582832 
L 130.517792 299.89281 
L 130.795535 301.386134 
L 131.073279 297.699816 
L 131.351023 298.221957 
L 131.628766 299.203583 
L 131.90651 306.409133 
L 132.184254 297.302989 
L 132.461997 302.14846 
L 132.739741 303.787984 
L 133.017485 327.31567 
L 133.295228 324.245479 
L 133.572972 318.11554 
L 133.850716 318.366168 
L 134.128459 309.406224 
L 134.406203 313.593797 
L 134.683947 319.671521 
L 134.96169 297.073247 
L 135.239434 315.243763 
L 135.517178 315.494391 
L 135.794921 312.5704 
L 136.072665 299.067826 
L 136.350409 274.09903 
L 136.628152 296.989704 
L 136.905896 283.111189 
L 137.461383 311.964716 
L 137.739127 291.862277 
L 138.016871 321.697429 
L 138.294614 321.697429 
L 138.850101 260.993284 
L 139.127845 320.339862 
L 139.683332 324.203707 
L 139.961076 318.658567 
L 140.23882 324.590092 
L 140.516563 324.778063 
L 140.794307 326.146073 
L 141.072051 325.780574 
L 141.349794 324.339464 
L 141.627538 240.368704 
L 141.905282 245.694545 
L 142.183025 240.107633 
L 142.460769 207.369375 
L 142.738513 191.924436 
L 143.016256 184.02966 
L 143.294 227.074987 
L 143.849487 222.375715 
L 144.127231 236.118474 
L 144.404975 231.753373 
L 144.682718 219.629252 
L 144.960462 225.383249 
L 145.238206 262.152438 
L 145.515949 238.864937 
L 145.793693 230.740419 
L 146.071437 235.58589 
L 146.626924 216.308434 
L 146.904668 217.906186 
L 147.182411 240.744646 
L 147.460155 231.252117 
L 147.737899 217.937515 
L 148.015642 195.464554 
L 148.293386 230.092963 
L 148.57113 212.924958 
L 148.848873 208.664285 
L 149.126617 248.994478 
L 149.404361 234.531164 
L 149.682104 240.901288 
L 149.959848 291.747406 
L 150.237592 321.279716 
L 150.793079 296.331806 
L 151.62631 277.221435 
L 151.904054 283.006761 
L 152.181797 280.531811 
L 152.737285 268.70009 
L 153.015028 267.509607 
L 153.292772 262.183766 
L 153.570516 266.862152 
L 153.848259 255.082645 
L 154.126003 257.818665 
L 154.403747 263.833733 
L 154.68149 253.06718 
L 154.959234 258.037965 
L 155.236978 316.19406 
L 155.514721 242.801882 
L 155.792465 263.34292 
L 156.070209 256.889254 
L 156.347952 257.72468 
L 156.625696 244.117678 
L 156.90344 247.678682 
L 157.181183 244.107235 
L 157.458927 252.785223 
L 157.736671 243.209152 
L 158.014414 248.733407 
L 158.292158 244.222106 
L 158.569901 260.116087 
L 158.847645 253.432679 
L 159.125389 260.784428 
L 159.403132 254.393419 
L 159.680876 262.016681 
L 160.236363 235.533676 
L 160.791851 260.429372 
L 161.069594 312.97767 
L 161.347338 254.518732 
L 161.625082 266.569753 
L 161.902825 292.885674 
L 162.458313 258.246821 
L 162.736056 258.883834 
L 163.0138 274.140802 
L 163.291544 260.063873 
L 163.847031 250.174517 
L 164.124775 257.870879 
L 164.402518 235.283048 
L 164.680262 245.663216 
L 164.958006 244.504063 
L 165.235749 245.224618 
L 165.513493 251.124814 
L 165.791237 233.016955 
L 166.06898 243.418009 
L 166.624468 256.471541 
L 166.902211 269.326659 
L 167.179955 240.003205 
L 167.735442 243.53288 
L 168.013186 227.879084 
L 168.29093 232.494813 
L 168.568673 222.7621 
L 168.846417 244.608491 
L 169.124161 237.945968 
L 169.401904 247.814438 
L 169.679648 226.250004 
L 169.957392 221.227005 
L 170.235135 224.641809 
L 170.512879 206.011808 
L 170.790623 204.497598 
L 171.068366 194.138315 
L 171.34611 151.186973 
L 171.623854 212.789202 
L 171.901597 179.278174 
L 172.179341 175.623185 
L 172.457085 205.531438 
L 173.012572 126.583676 
L 173.568059 161.504485 
L 173.845803 174.202961 
L 174.123547 169.221733 
L 174.40129 182.51545 
L 174.956778 220.945048 
L 175.512265 222.866528 
L 175.790009 229.978092 
L 176.067752 232.734998 
L 176.345496 223.816825 
L 176.62324 231.941344 
L 176.900983 225.738305 
L 177.178727 213.70817 
L 177.456471 215.243266 
L 177.734214 218.344785 
L 178.011958 218.595413 
L 178.289702 220.610878 
L 178.567445 225.153507 
L 178.845189 220.84062 
L 179.400676 226.761702 
L 179.67842 226.949673 
L 179.956163 218.094157 
L 180.233907 213.050272 
L 180.511651 215.452122 
L 181.067138 211.943333 
L 181.344882 211.964218 
L 181.622625 209.186427 
L 181.900369 205.186824 
L 182.455856 201.531836 
L 182.7336 194.180086 
L 183.011344 204.716897 
L 183.289087 224.025682 
L 183.566831 227.993956 
L 183.844575 230.249606 
L 184.122318 248.441008 
L 184.400062 243.470223 
L 184.677806 246.362886 
L 184.955549 260.4607 
L 185.233293 264.898901 
L 185.511037 254.706703 
L 185.78878 254.706703 
L 186.066524 239.073793 
L 186.344268 256.053828 
L 186.622011 262.653694 
L 186.899755 290.536038 
L 187.177499 284.374771 
L 187.455242 255.166188 
L 187.732986 263.697976 
L 188.01073 255.39593 
L 188.288473 259.176233 
L 188.566217 267.03968 
L 188.843961 264.763144 
L 189.121704 264.084361 
L 189.399448 271.122825 
L 189.954935 303.203185 
L 190.232679 299.381111 
L 190.510423 302.315545 
L 190.788166 278.474574 
L 191.06591 291.381907 
L 191.343654 293.407815 
L 191.621397 297.438746 
L 191.899141 295.454609 
L 192.176885 297.188118 
L 192.454628 281.127052 
L 192.732372 295.141324 
L 193.010116 292.13379 
L 193.843347 277.701805 
L 194.12109 291.705634 
L 194.398834 280.667568 
L 194.676578 283.988386 
L 194.954321 320.381633 
L 195.232065 291.465449 
L 195.509809 294.441655 
L 195.787552 287.779132 
L 196.065296 286.223151 
L 196.620783 275.467041 
L 196.898527 273.827517 
L 197.176271 267.25898 
L 197.454014 256.596855 
L 197.731758 259.009147 
L 198.009502 256.095599 
L 198.287245 249.547948 
L 198.564989 261.703396 
L 198.842732 247.15654 
L 199.120476 255.531687 
L 199.39822 258.674977 
L 199.953707 275.748997 
L 200.231451 273.775303 
L 200.509194 270.851312 
L 200.786938 276.991693 
L 201.064682 258.048408 
L 201.342425 252.597253 
L 201.897913 235.700761 
L 202.175656 237.173199 
L 202.4534 231.638502 
L 202.731144 251.928912 
L 203.008887 241.486086 
L 203.286631 256.722169 
L 203.564375 252.127325 
L 203.842118 257.891765 
L 204.119862 258.424349 
L 204.397606 258.424349 
L 204.675349 335.273103 
L 204.953093 244.284763 
L 205.230837 270.924411 
L 205.50858 273.420247 
L 205.786324 266.935252 
L 206.064068 251.824483 
L 206.619555 282.871004 
L 207.175042 266.22514 
L 207.452786 275.456598 
L 207.73053 265.838755 
L 208.008273 273.545561 
L 208.286017 266.548868 
L 208.563761 263.196721 
L 208.841504 274.025931 
L 209.119248 262.872993 
L 209.396992 274.819585 
L 209.674735 242.185755 
L 209.952479 254.466518 
L 210.230223 234.280537 
L 210.507966 242.791439 
L 210.78571 231.210346 
L 211.063454 239.679477 
L 211.341197 216.381534 
L 211.618941 225.122179 
L 211.896685 217.206517 
L 212.174428 239.522835 
L 212.452172 217.258731 
L 212.729916 229.330637 
L 213.007659 206.220664 
L 213.285403 218.793826 
L 213.563147 224.53738 
L 213.84089 241.663614 
L 214.118634 216.25622 
L 214.396378 239.021579 
L 214.674121 220.903277 
L 214.951865 234.969763 
L 215.229609 239.783906 
L 215.507352 257.202539 
L 215.785096 241.214573 
L 216.06284 260.272729 
L 216.340583 229.017352 
L 216.618327 286.557321 
L 216.896071 243.67908 
L 217.451558 263.144506 
L 218.007045 226.625945 
L 218.284789 296.039407 
L 218.562533 296.039407 
L 218.840276 333.570922 
L 219.395763 255.531687 
L 219.951251 284.938683 
L 220.228994 252.733009 
L 220.506738 255.187073 
L 220.784482 255.187073 
L 221.062225 237.058328 
L 221.339969 235.001091 
L 221.617713 244.253435 
L 221.895456 218.971354 
L 222.1732 277.137893 
L 222.450944 257.129439 
L 223.284175 230.082521 
L 223.561918 216.966332 
L 223.839662 251.020386 
L 224.117406 232.400828 
L 224.395149 223.482655 
L 224.672893 237.016557 
L 224.950637 222.699443 
L 225.22838 222.699443 
L 225.506124 236.191574 
L 225.783868 215.786292 
L 226.061611 219.858994 
L 226.339355 207.640889 
L 226.617099 213.833484 
L 226.894842 201.490064 
L 227.172586 195.19304 
L 227.45033 199.359728 
L 227.728073 207.191847 
L 228.005817 207.191847 
L 228.283561 331.127301 
L 228.561304 264.272332 
L 228.839048 242.551254 
L 229.116792 242.968967 
L 229.394535 227.795542 
L 229.672279 240.922174 
L 229.950023 225.143064 
L 230.227766 241.674057 
L 230.50551 222.438372 
L 230.783254 248.524551 
L 231.060997 210.49178 
L 231.338741 211.170564 
L 231.894228 289.543969 
L 232.171972 272.177551 
L 232.449716 282.244434 
L 232.727459 298.002658 
L 233.005203 289.25157 
L 233.282947 237.120985 
L 233.838434 247.845767 
L 234.116178 228.45344 
L 234.393921 234.510279 
L 234.671665 225.310149 
L 234.949409 236.452644 
L 235.227152 283.048532 
L 235.504896 291.131279 
L 235.78264 263.457791 
L 236.060383 268.491233 
L 236.338127 318.199083 
L 236.615871 251.323228 
L 236.893614 245.955616 
L 237.171358 237.883311 
L 237.449102 235.03242 
L 237.726845 228.693625 
L 238.004589 238.791837 
L 238.282333 255.354159 
L 238.560076 257.056339 
L 238.83782 247.490711 
L 239.115564 249.213777 
L 239.393307 257.223424 
L 239.948794 218.741612 
L 240.226538 269.389316 
L 240.782025 254.717146 
L 241.059769 257.505381 
L 241.337513 246.843256 
L 241.615256 226.45886 
L 241.893 298.577014 
L 242.170744 277.983762 
L 242.448487 240.326933 
L 242.726231 242.791439 
L 243.003975 235.011534 
L 243.281718 235.565004 
L 243.559462 248.399237 
L 244.114949 228.52654 
L 244.392693 220.715306 
L 244.670437 255.375044 
L 244.94818 197.469576 
L 245.225924 207.317161 
L 245.503668 271.812052 
L 245.781411 274.328773 
L 246.059155 225.894948 
L 246.336899 212.883187 
L 246.614642 243.438895 
L 247.17013 278.16129 
L 247.447873 269.775701 
L 247.725617 231.105918 
L 248.003361 228.401226 
L 248.281104 248.702079 
L 248.558848 247.647353 
L 248.836592 268.470347 
L 249.114335 275.748997 
L 249.669823 306.638875 
L 249.947566 296.081178 
L 250.22531 271.91648 
L 250.503054 269.410202 
L 250.780797 270.788655 
L 251.058541 268.731418 
L 251.336285 265.67167 
L 251.614028 277.879333 
L 251.891772 231.210346 
L 252.447259 263.41602 
L 252.725003 257.923094 
L 253.002747 261.766053 
L 253.28049 256.607298 
L 253.558234 255.301944 
L 253.835978 259.990773 
L 254.113721 253.996591 
L 254.391465 260.210072 
L 254.669209 257.849994 
L 254.946952 253.693749 
L 255.224696 247.584696 
L 255.50244 254.017477 
L 255.780183 254.50829 
L 256.057927 296.770405 
L 256.335671 288.7712 
L 256.613414 250.216288 
L 256.891158 270.047214 
L 257.446645 260.304058 
L 257.724389 252.889652 
L 258.002133 223.973468 
L 258.279876 263.123621 
L 258.55762 255.918071 
L 258.835364 234.176108 
L 259.113107 244.681591 
L 259.390851 281.805836 
L 259.668594 300.028566 
L 259.946338 292.770803 
L 260.224082 235.533676 
L 261.057313 283.508016 
L 261.335056 256.586412 
L 261.890544 240.295604 
L 262.168287 286.839278 
L 262.446031 291.110393 
L 262.723775 255.019988 
L 263.001518 250.028317 
L 263.279262 250.644444 
L 263.557006 239.021579 
L 263.834749 254.403861 
L 264.112493 246.603071 
L 264.390237 254.309876 
L 264.66798 250.132746 
L 264.945724 254.048805 
L 265.223468 244.796462 
L 265.501211 243.992364 
L 265.778955 264.815358 
L 266.056699 251.782712 
L 266.612186 302.440859 
L 266.88993 251.396328 
L 267.167673 253.359579 
L 267.445417 253.798178 
L 268.000904 273.827517 
L 268.278648 244.817348 
L 268.556392 253.14028 
L 268.834135 249.861232 
L 269.111879 286.400679 
L 269.389623 275.352169 
L 269.667366 258.779405 
L 269.94511 292.645489 
L 270.222854 242.530369 
L 270.500597 270.945297 
L 270.778341 238.488995 
L 271.056085 240.337375 
L 271.333828 229.612594 
L 271.611572 252.545038 
L 271.889316 290.180982 
L 272.167059 275.393941 
L 272.444803 251.981126 
L 272.722547 248.472336 
L 273.00029 236.181131 
L 273.278034 241.6845 
L 273.555778 250.18496 
L 273.833521 266.945695 
L 274.111265 254.236776 
L 274.389009 266.872595 
L 274.666752 266.684624 
L 274.944496 246.759713 
L 275.22224 260.450257 
L 275.499983 235.784303 
L 275.777727 231.930901 
L 276.333214 287.14212 
L 276.610958 262.591037 
L 276.888702 266.736838 
L 277.166445 266.55931 
L 277.444189 262.52838 
L 277.721933 274.088588 
L 277.999676 280.364726 
L 278.27742 272.626592 
L 278.555164 257.265196 
L 278.832907 292.666374 
L 279.110651 274.965785 
L 279.388395 249.172006 
L 279.666138 245.611002 
L 279.943882 266.580196 
L 280.221625 255.646558 
L 280.777113 268.428576 
L 281.054856 292.802131 
L 281.888087 250.707101 
L 282.165831 252.826995 
L 282.443575 235.042863 
L 282.721318 281.30458 
L 282.999062 273.232276 
L 283.276806 276.16671 
L 283.554549 253.672864 
L 283.832293 263.436906 
L 284.110037 262.768565 
L 284.38778 268.794075 
L 284.943268 296.133392 
L 285.221011 248.096395 
L 285.498755 252.576367 
L 285.776499 253.589321 
L 286.054242 276.135381 
L 286.331986 263.34292 
L 286.887473 268.334591 
L 287.165217 287.131677 
L 287.442961 259.16579 
L 287.720704 260.032544 
L 287.998448 210.387352 
L 288.553935 283.528902 
L 288.831679 281.043509 
L 289.109423 267.614036 
L 289.387166 260.920185 
L 289.66491 236.202016 
L 289.942654 278.777416 
L 290.220397 260.544243 
L 290.498141 261.139484 
L 290.775885 269.002932 
L 291.331372 238.269696 
L 291.609116 247.616025 
L 291.886859 231.972672 
L 292.164603 229.717022 
L 292.442347 229.142666 
L 292.72009 231.043261 
L 292.997834 222.198187 
L 293.275578 228.244583 
L 293.553321 219.002683 
L 294.108809 286.901935 
L 294.386552 245.767645 
L 294.664296 222.35483 
L 295.219783 304.800938 
L 295.497527 255.113974 
L 295.775271 270.778212 
L 296.053014 251.740941 
L 296.330758 262.632808 
L 296.608502 263.802404 
L 296.886245 243.543323 
L 297.441733 233.977695 
L 297.719476 243.271809 
L 297.99722 242.864539 
L 298.274964 245.151518 
L 298.552707 242.885425 
L 298.830451 249.265991 
L 299.108195 236.024488 
L 299.385938 237.267185 
L 299.663682 234.238765 
L 299.941425 240.807303 
L 300.496913 219.107111 
L 300.774656 250.404259 
L 301.0524 213.697727 
L 301.330144 205.886494 
L 301.607887 215.493893 
L 301.885631 215.034409 
L 302.163375 238.405453 
L 302.441118 242.311069 
L 302.718862 230.113849 
L 302.996606 238.060839 
L 303.274349 202.492575 
L 303.552093 218.282128 
L 303.829837 253.839949 
L 304.10758 250.393816 
L 304.385324 244.316092 
L 304.940811 219.263753 
L 305.218555 225.884505 
L 305.496299 206.126679 
L 305.774042 228.986024 
L 306.051786 205.124168 
L 306.32953 273.462018 
L 306.607273 259.16579 
L 306.885017 252.910537 
L 307.162761 291.611649 
L 307.440504 263.259377 
L 307.718248 249.485291 
L 307.995992 253.338693 
L 308.273735 230.510676 
L 308.551479 225.445906 
L 308.829223 304.863595 
L 309.106966 256.534198 
L 309.38471 254.946888 
L 309.940197 194.984184 
L 310.773428 259.855016 
L 311.051172 191.861779 
L 311.606659 185.972025 
L 311.884403 196.37308 
L 312.162147 196.37308 
L 312.43989 222.438372 
L 312.717634 204.758669 
L 312.995378 211.85979 
L 313.273121 257.79778 
L 313.550865 282.369748 
L 313.828609 263.583105 
L 314.106352 266.924809 
L 314.384096 279.424871 
L 314.66184 278.558117 
L 314.939583 242.509483 
L 315.217327 254.800689 
L 315.495071 258.601877 
L 315.772814 259.552174 
L 316.050558 259.687931 
L 316.328302 241.747157 
L 316.606045 256.387998 
L 316.883789 254.821574 
L 317.439276 306.847731 
L 317.71702 238.113054 
L 317.994764 228.505654 
L 318.272507 204.372284 
L 318.550251 245.611002 
L 318.827995 214.940424 
L 319.105738 266.392225 
L 319.383482 249.22422 
L 319.661226 309.249581 
L 319.938969 254.226333 
L 320.216713 247.678682 
L 320.494456 235.314376 
L 320.7722 247.365397 
L 321.049944 226.009819 
L 321.327687 265.097315 
L 321.605431 265.4106 
L 321.883175 266.37134 
L 322.160918 259.301547 
L 322.438662 273.159176 
L 322.716406 233.904595 
L 322.994149 253.620649 
L 323.271893 234.332751 
L 323.549637 234.489393 
L 323.82738 223.31557 
L 324.105124 269.096917 
L 324.382868 232.473928 
L 324.660611 292.645489 
L 324.938355 221.206119 
L 325.216099 255.865857 
L 325.493842 237.799769 
L 325.771586 256.022499 
L 326.04933 232.442599 
L 326.327073 276.479995 
L 326.604817 220.788406 
L 326.882561 235.784303 
L 327.160304 207.734874 
L 327.438048 241.486086 
L 327.715792 242.352841 
L 327.993535 258.570549 
L 328.271279 248.952706 
L 328.549023 258.299035 
L 328.826766 233.392896 
L 329.10451 267.050123 
L 329.382254 208.23613 
L 329.659997 208.23613 
L 329.937741 259.395532 
L 330.215485 259.42686 
L 330.493228 270.663341 
L 330.770972 274.287001 
L 331.048716 285.22064 
L 331.326459 250.11186 
L 331.604203 276.730622 
L 331.881947 247.219197 
L 332.15969 284.218128 
L 332.437434 277.023022 
L 332.715178 317.687384 
L 332.992921 298.973841 
L 333.270665 330.86623 
L 333.548409 303.934183 
L 333.826152 310.011908 
L 334.103896 280.479597 
L 334.38164 285.137097 
L 334.937127 312.674828 
L 335.214871 303.213628 
L 335.492614 315.369077 
L 335.770358 319.212037 
L 336.048102 320.068349 
L 336.325845 281.868493 
L 336.603589 275.195527 
L 336.881333 239.199107 
L 337.159076 258.079736 
L 337.43682 233.298911 
L 337.714564 233.298911 
L 337.992307 303.558241 
L 338.270051 275.550583 
L 338.547795 287.340533 
L 338.825538 263.875504 
L 339.103282 298.973841 
L 339.381026 254.038363 
L 339.658769 256.931025 
L 339.936513 225.466792 
L 340.214257 277.566049 
L 340.492 295.193538 
L 340.769744 279.800813 
L 341.047487 275.049328 
L 341.325231 274.830028 
L 341.602975 271.206368 
L 341.880718 272.825006 
L 342.158462 296.018521 
L 342.436206 279.915684 
L 342.713949 275.122427 
L 342.991693 261.557197 
L 343.54718 248.127723 
L 343.824924 263.593548 
L 344.380411 255.688329 
L 344.658155 235.951389 
L 344.935899 243.992364 
L 345.213642 261.56764 
L 345.491386 230.646433 
L 345.76913 223.681069 
L 346.324617 202.022648 
L 346.602361 212.851858 
L 346.880104 216.548619 
L 347.157848 239.094679 
L 347.435592 248.138166 
L 347.713335 251.041272 
L 347.991079 244.117678 
L 348.268823 249.735918 
L 348.546566 269.744372 
L 349.102054 243.877493 
L 349.379797 256.743054 
L 349.657541 256.189585 
L 349.935285 255.040874 
L 350.213028 257.442724 
L 350.490772 228.390783 
L 350.768516 267.540936 
L 351.046259 230.343591 
L 351.324003 241.486086 
L 351.87949 278.307489 
L 352.157234 263.96949 
L 352.434978 265.128643 
L 352.712721 263.89639 
L 352.990465 256.481984 
L 353.268209 240.253833 
L 353.545952 264.44986 
L 354.10144 269.36843 
L 354.379183 265.734327 
L 354.656927 272.887663 
L 354.934671 271.185482 
L 355.212414 246.916355 
L 355.490158 278.986273 
L 355.767902 237.413384 
L 356.045645 265.253957 
L 356.323389 262.852107 
L 356.601133 270.569355 
L 357.15662 261.912253 
L 357.434364 266.319125 
L 357.712107 262.413509 
L 357.989851 260.815756 
L 358.267595 255.239287 
L 358.545338 256.095599 
L 359.100826 265.828313 
L 359.378569 266.55931 
L 359.656313 265.776098 
L 359.934057 263.363806 
L 360.2118 253.892163 
L 360.489544 258.779405 
L 361.045031 248.357465 
L 361.322775 259.687931 
L 361.600518 256.314898 
L 361.878262 236.54663 
L 362.156006 228.714511 
L 362.433749 234.719135 
L 362.711493 225.874062 
L 362.989237 234.969763 
L 363.26698 230.834404 
L 363.544724 220.046965 
L 363.822468 259.729702 
L 364.100211 214.18854 
L 364.377955 220.078294 
L 364.655699 260.794871 
L 364.933442 263.217606 
L 365.211186 249.380862 
L 366.044417 228.798053 
L 366.322161 227.398714 
L 366.599904 226.667717 
L 366.877648 234.47895 
L 367.155392 230.667319 
L 367.433135 243.961036 
L 367.988623 239.000694 
L 368.266366 244.138564 
L 368.54411 234.854892 
L 368.821854 237.862426 
L 369.099597 243.136053 
L 369.377341 217.112531 
L 369.655085 228.881596 
L 369.932828 228.839824 
L 370.210572 225.362363 
L 370.488316 225.654763 
L 371.043803 259.687931 
L 371.321547 264.188789 
L 371.59929 263.541334 
L 371.877034 264.000818 
L 372.154778 263.478677 
L 372.710265 287.800018 
L 372.988009 322.877469 
L 373.265752 288.739872 
L 373.543496 268.313705 
L 373.82124 261.34834 
L 374.098983 269.295331 
L 374.376727 265.473257 
L 374.654471 273.033862 
L 374.932214 270.872197 
L 375.209958 271.425667 
L 375.765445 264.345431 
L 376.043189 273.869288 
L 376.320933 268.125734 
L 376.598676 268.177948 
L 376.87642 288.614558 
L 377.154164 266.872595 
L 377.431907 265.911855 
L 377.709651 269.566844 
L 377.987395 280.239412 
L 378.265138 272.720577 
L 378.542882 279.685942 
L 378.820626 278.97583 
L 379.376113 303.464256 
L 380.209344 274.568958 
L 380.487088 258.664534 
L 380.764831 230.249606 
L 381.042575 217.049874 
L 381.320318 234.468507 
L 381.598062 261.170812 
L 381.875806 268.752304 
L 382.153549 279.769485 
L 382.709037 263.499562 
L 382.98678 268.752304 
L 383.264524 267.342522 
L 383.542268 273.994602 
L 383.820011 271.018397 
L 384.097755 278.631217 
L 384.375499 274.997113 
L 384.653242 257.849994 
L 384.930986 286.170937 
L 385.486473 262.486608 
L 385.764217 249.63149 
L 386.041961 242.603469 
L 386.319704 242.64524 
L 386.597448 245.966058 
L 387.152935 255.354159 
L 387.430679 257.453166 
L 387.708423 293.491358 
L 388.26391 211.588277 
L 388.541654 217.457145 
L 388.819397 217.018546 
L 389.097141 249.63149 
L 389.374885 318.533253 
L 389.930372 264.888458 
L 390.208116 260.596457 
L 390.485859 260.168301 
L 390.763603 262.570151 
L 391.31909 262.883436 
L 391.596834 260.324943 
L 391.874578 259.291104 
L 392.152321 296.363135 
L 392.430065 272.553492 
L 392.707809 261.003727 
L 392.985552 260.074316 
L 393.263296 260.951513 
L 393.54104 257.662023 
L 393.818783 259.969887 
L 394.096527 263.603991 
L 394.929758 299.579525 
L 395.207502 265.556799 
L 395.485245 265.609013 
L 395.762989 264.115689 
L 396.040733 272.553492 
L 396.318476 272.918991 
L 396.59622 270.454484 
L 397.151707 279.028044 
L 397.429451 270.851312 
L 397.707195 273.35759 
L 397.984938 272.240207 
L 398.262682 273.931945 
L 398.540426 271.50921 
L 398.818169 270.725998 
L 399.095913 270.673784 
L 399.373657 284.928241 
L 399.6514 291.026851 
L 399.929144 269.065588 
L 400.206888 278.150847 
L 400.484631 270.078543 
L 400.762375 274.683829 
L 401.040118 268.418133 
L 401.317862 268.230162 
L 401.595606 278.860959 
L 401.873349 280.458711 
L 402.151093 279.195129 
L 402.428837 262.089781 
L 402.70658 261.82871 
L 402.984324 263.791962 
L 403.262068 266.987466 
L 403.539811 264.387203 
L 403.817555 263.41602 
L 404.095299 267.133666 
L 404.373042 316.590888 
L 406.039504 316.590888 
L 406.317248 366.497151 
L 406.594992 326.20873 
L 406.872735 259.969887 
L 407.150479 257.087668 
L 407.428223 251.312785 
L 407.98371 201.58405 
L 408.261454 215.003081 
L 408.539197 257.087668 
L 408.816941 258.716748 
L 409.094685 264.439417 
L 409.372428 258.017079 
L 409.650172 257.923094 
L 409.927916 255.897185 
L 410.205659 263.96949 
L 410.483403 261.724282 
L 410.761147 263.196721 
L 411.03889 280.563139 
L 411.316634 263.123621 
L 411.594378 259.667045 
L 411.872121 280.698896 
L 412.149865 272.501278 
L 412.427609 257.139882 
L 412.705352 264.115689 
L 412.983096 252.148211 
L 413.26084 256.983239 
L 413.538583 267.196323 
L 413.816327 254.957331 
L 414.094071 250.540016 
L 414.371814 275.863868 
L 414.649558 278.64166 
L 414.927302 261.118598 
L 415.205045 255.7301 
L 415.482789 258.382578 
L 415.760533 252.753895 
L 416.038276 251.291899 
L 416.31602 255.959842 
L 416.593764 265.1913 
L 416.871507 268.251048 
L 417.149251 253.077623 
L 417.704738 240.619332 
L 417.982482 284.061486 
L 418.260226 269.984557 
L 418.537969 268.376362 
L 418.815713 256.513312 
L 419.093457 285.231082 
L 419.3712 279.497971 
L 419.648944 276.845494 
L 419.926688 268.313705 
L 420.204431 294.285012 
L 420.759919 282.41152 
L 421.037662 278.474574 
L 421.315406 277.357192 
L 421.593149 273.69176 
L 421.870893 266.527982 
L 422.148637 277.712248 
L 422.42638 256.753497 
L 422.704124 267.415622 
L 422.981868 265.400157 
L 423.259611 253.693749 
L 423.537355 259.364204 
L 424.092842 233.507767 
L 424.370586 252.242197 
L 424.64833 256.575969 
L 424.926073 245.663216 
L 425.203817 245.339489 
L 425.481561 242.248412 
L 425.759304 266.966581 
L 426.037048 245.214175 
L 426.592535 250.884629 
L 426.870279 255.719657 
L 427.148023 269.807029 
L 427.425766 272.825006 
L 427.70351 271.906037 
L 427.981254 281.30458 
L 428.258997 268.052634 
L 428.536741 294.003056 
L 428.814485 305.176879 
L 429.092228 263.478677 
L 429.369972 248.19038 
L 429.647716 266.214697 
L 429.925459 263.802404 
L 430.203203 258.434792 
L 430.480947 256.951911 
L 430.75869 256.42977 
L 431.036434 254.226333 
L 431.314178 262.998307 
L 431.591921 255.281059 
L 431.869665 270.62157 
L 432.147409 255.061759 
L 432.425152 252.534596 
L 432.702896 254.351647 
L 432.98064 246.279343 
L 433.258383 251.646955 
L 433.536127 243.950593 
L 434.091614 246.592628 
L 434.369358 260.230958 
L 434.647102 256.534198 
L 435.202589 255.458587 
L 435.480333 257.035453 
L 435.758076 254.738032 
L 436.03582 246.227129 
L 436.313564 268.188391 
L 436.591307 272.584821 
L 436.869051 257.609809 
L 437.146795 268.616547 
L 437.424538 306.085405 
L 437.702282 289.429098 
L 437.980026 282.421962 
L 438.257769 295.005567 
L 438.535513 294.023942 
L 438.813257 293.783757 
L 439.091 296.081178 
L 439.368744 292.655931 
L 439.646488 290.76578 
L 440.201975 282.296648 
L 440.479719 278.756531 
L 440.757462 281.179266 
L 441.035206 281.168823 
L 441.31295 277.639148 
L 441.590693 275.874311 
L 442.14618 278.965387 
L 442.423924 287.925331 
L 442.701668 282.233992 
L 442.979411 279.842584 
L 443.257155 282.787461 
L 443.812642 278.725202 
L 444.090386 271.070611 
L 444.36813 284.009272 
L 444.645873 288.228173 
L 444.923617 286.954149 
L 445.201361 289.752826 
L 445.479104 287.862675 
L 445.756848 285.105769 
L 446.034592 288.551901 
L 446.312335 285.774109 
L 446.590079 285.356396 
L 446.867823 283.424474 
L 447.145566 272.647478 
L 447.42331 277.722691 
L 447.701054 287.236105 
L 447.978797 292.196447 
L 448.256541 283.017203 
L 448.534285 285.304182 
L 448.812028 295.705237 
L 449.089772 292.008476 
L 449.367516 284.917798 
L 449.645259 281.346351 
L 450.200747 285.784552 
L 450.47849 283.831744 
L 450.756234 291.131279 
L 451.033978 294.525197 
L 451.311721 293.418258 
L 451.589465 295.256195 
L 451.867209 294.117927 
L 452.422696 296.979261 
L 452.70044 292.572389 
L 452.978183 292.635046 
L 453.255927 296.363135 
L 453.533671 293.198958 
L 453.811414 282.26532 
L 454.366902 291.131279 
L 454.644645 292.35309 
L 454.922389 302.472187 
L 455.200133 299.12004 
L 455.477876 309.040725 
L 455.75562 290.76578 
L 456.311107 293.251173 
L 456.866595 292.781245 
L 457.144338 292.791688 
L 457.422082 287.277876 
L 457.699826 306.377804 
L 457.977569 275.404384 
L 458.255313 216.778361 
L 458.533057 221.832688 
L 458.8108 253.819063 
L 459.088544 265.3375 
L 459.366288 255.928514 
L 459.644031 254.581389 
L 459.921775 256.252242 
L 460.199519 254.330762 
L 460.477262 258.257264 
L 460.755006 259.938559 
L 461.03275 256.262684 
L 461.310493 242.488597 
L 461.588237 243.616423 
L 461.86598 247.44894 
L 462.143724 247.501154 
L 462.421468 249.088463 
L 462.699211 255.260173 
L 462.976955 249.109349 
L 463.254699 246.164472 
L 463.532442 238.750066 
L 463.810186 252.451053 
L 464.08793 256.116485 
L 464.365673 253.568435 
L 464.643417 254.717146 
L 464.921161 254.121905 
L 465.198904 254.090577 
L 465.476648 251.302342 
L 465.754392 254.382976 
L 466.032135 255.7301 
L 466.587623 256.001614 
L 467.14311 237.079214 
L 467.420854 245.193289 
L 467.698597 223.472212 
L 467.976341 310.899548 
L 468.254085 278.850516 
L 468.531828 230.615105 
L 468.809572 241.851585 
L 469.087316 267.655807 
L 469.365059 249.370419 
L 469.642803 244.953104 
L 469.920547 247.37584 
L 470.19829 248.441008 
L 470.476034 236.755486 
L 470.753778 245.193289 
L 471.031521 249.641933 
L 471.309265 260.168301 
L 471.587009 251.083043 
L 471.864752 252.388396 
L 472.142496 248.712521 
L 472.42024 250.832415 
L 472.697983 249.506176 
L 472.975727 244.483177 
L 473.253471 247.240083 
L 473.531214 244.075907 
L 473.808958 244.284763 
L 474.086702 242.885425 
L 474.364445 244.838233 
L 474.642189 245.182846 
L 474.919933 243.522437 
L 475.197676 243.731294 
L 475.47542 239.658592 
L 475.753164 240.932616 
L 476.030907 238.781394 
L 476.308651 238.885823 
L 476.586395 243.021182 
L 477.141882 240.431361 
L 477.697369 245.04709 
L 477.975113 246.885027 
L 478.252857 242.97941 
L 478.5306 226.981001 
L 478.808344 226.38576 
L 479.086088 250.310274 
L 479.363831 299.214026 
L 479.641575 296.227378 
L 480.197062 219.305525 
L 480.474806 218.156814 
L 480.75255 220.224493 
L 481.030293 220.255822 
L 481.308037 221.602946 
L 481.863524 230.040749 
L 482.141268 229.48728 
L 482.419011 218.866926 
L 482.696755 236.870357 
L 482.974499 237.392499 
L 483.252242 285.460825 
L 483.529986 273.023419 
L 483.80773 213.394885 
L 484.085473 239.825677 
L 484.363217 230.312263 
L 484.640961 207.035205 
L 484.918704 230.959718 
L 485.196448 227.315172 
L 485.474192 225.947162 
L 485.751935 240.629774 
L 486.029679 234.384965 
L 486.585166 239.063351 
L 486.86291 224.349409 
L 487.696141 238.781394 
L 487.973885 246.665728 
L 488.251628 244.869562 
L 488.529372 237.183642 
L 488.807116 272.229765 
L 489.084859 250.435588 
L 489.640347 236.577958 
L 489.91809 220.516892 
L 490.195834 237.69534 
L 490.473578 207.505132 
L 490.751321 213.415771 
L 491.029065 239.679477 
L 491.306809 236.651058 
L 491.584552 235.17862 
L 491.862296 249.70459 
L 492.14004 233.152711 
L 492.417783 236.839029 
L 492.695527 226.250004 
L 492.973271 229.727465 
L 493.251014 229.26798 
L 493.528758 221.853574 
L 493.806502 221.905788 
L 494.084245 228.338569 
L 494.361989 226.437975 
L 494.639733 223.399112 
L 495.19522 241.506972 
L 495.750707 222.918742 
L 496.028451 223.681069 
L 496.306195 239.742134 
L 496.583938 235.554561 
L 496.861682 233.225811 
L 497.139426 239.794348 
L 497.417169 236.034931 
L 497.694913 230.604662 
L 497.972657 229.330637 
L 498.2504 251.834926 
L 498.528144 217.384045 
L 498.805888 246.331557 
L 499.083631 256.481984 
L 499.361375 277.889776 
L 499.639119 232.411271 
L 499.916862 238.301024 
L 500.194606 235.961831 
L 500.750093 225.195278 
L 501.027837 221.206119 
L 501.305581 221.696932 
L 501.583324 213.332228 
L 501.861068 233.946366 
L 502.138811 235.074191 
L 502.416555 234.499836 
L 502.972042 223.952582 
L 503.249786 224.902879 
L 503.52753 217.55113 
L 504.083017 149.850292 
L 504.360761 164.647776 
L 504.638504 269.274445 
L 504.916248 299.965909 
L 505.193992 263.593548 
L 505.471735 300.498493 
L 506.027223 175.832042 
L 506.304966 187.580221 
L 506.58271 186.389738 
L 507.415941 171.331184 
L 508.249172 150.487304 
L 508.804659 125.831793 
L 509.082403 149.349036 
L 509.360147 195.349683 
L 509.63789 158.549166 
L 510.193378 129.674753 
L 510.471121 105.520497 
L 510.748865 192.728534 
L 511.026609 230.113849 
L 511.304352 244.378749 
L 511.582096 122.542303 
L 511.85984 124.52644 
L 512.137583 102.220564 
L 512.693071 85.705236 
L 514.91502 85.705236 
L 515.192764 126.312163 
L 515.470507 85.705236 
L 515.748251 85.705236 
L 516.025995 108.099875 
L 516.303738 165.10726 
L 516.581482 163.66615 
L 516.859226 156.575471 
L 517.136969 189.407715 
L 517.414713 278.672988 
L 517.692457 264.919787 
L 517.9702 262.580594 
L 518.247944 176.677911 
L 518.803431 117.738603 
L 519.081175 142.999798 
L 519.358919 184.645787 
L 519.636662 173.910562 
L 519.914406 221.613389 
L 520.19215 221.049477 
L 520.469893 252.283968 
L 520.747637 212.110418 
L 521.025381 233.048283 
L 521.303124 217.812201 
L 521.580868 248.733407 
L 522.136355 158.423852 
L 522.414099 150.466419 
L 522.691842 85.705236 
L 522.969586 133.50727 
L 523.24733 126.834304 
L 523.525073 162.621867 
L 523.802817 168.824906 
L 524.080561 137.235359 
L 524.358304 123.523929 
L 524.636048 194.347172 
L 525.191535 147.928812 
L 525.469279 146.978515 
L 525.747023 130.405751 
L 526.30251 119.660083 
L 526.580254 107.107807 
L 526.857997 116.422807 
L 527.135741 85.705236 
L 527.413485 183.747704 
L 527.968972 85.705236 
L 528.246716 126.573234 
L 528.524459 123.868542 
L 528.802203 154.528678 
L 529.079947 116.193065 
L 529.35769 122.218575 
L 529.635434 87.433523 
L 529.913178 113.906086 
L 530.190921 282.348863 
L 530.468665 210.272481 
L 530.746409 175.811156 
L 531.024152 122.960016 
L 531.301896 129.59121 
L 531.57964 125.497623 
L 532.135127 270.590241 
L 532.412871 268.157063 
L 532.690614 261.16037 
L 533.246102 162.830724 
L 533.801589 137.966356 
L 534.079333 240.890845 
L 534.357076 226.991444 
L 534.63482 148.137668 
L 534.912564 127.314674 
L 535.190307 170.756829 
L 535.468051 132.087046 
L 535.745795 135.825577 
L 536.023538 193.323775 
L 536.301282 181.429396 
L 536.579026 179.131975 
L 536.856769 211.222778 
L 537.134513 212.34016 
L 537.412257 260.847085 
L 537.69 246.582185 
L 537.967744 250.446031 
L 538.245488 222.198187 
L 538.800975 209.886096 
L 539.078719 259.186676 
L 539.356462 243.741736 
L 539.91195 299.60041 
L 540.467437 229.863221 
L 541.022924 201.636264 
L 541.300668 215.848949 
L 541.578412 214.585368 
L 541.856155 198.597402 
L 542.133899 197.229391 
L 542.411643 181.711353 
L 542.689386 201.688478 
L 542.96713 233.99858 
L 543.244873 205.656752 
L 543.522617 188.812474 
L 543.800361 179.487031 
L 544.078104 186.776123 
L 544.633592 170.944799 
L 544.911335 133.079114 
L 545.189079 178.996218 
L 545.744566 217.008103 
L 546.02231 213.582856 
L 546.300054 212.361046 
L 546.577797 207.27539 
L 546.855541 208.486757 
L 547.133285 196.070238 
L 547.411028 208.549414 
L 547.688772 202.774532 
L 547.966516 171.320741 
L 548.244259 232.536585 
L 548.522003 192.467463 
L 548.799747 190.921925 
L 549.07749 219.211539 
L 549.355234 213.697727 
L 549.632978 225.957605 
L 549.910721 231.126803 
L 550.466209 276.438223 
L 551.577183 217.446702 
L 551.854927 213.875255 
L 552.132671 204.810883 
L 552.410414 226.375318 
L 552.688158 203.411544 
L 552.965902 190.347569 
L 553.521389 209.207312 
L 553.799133 200.727738 
L 554.076876 200.47711 
L 554.35462 198.9629 
L 554.632364 203.119145 
L 554.910107 199.892312 
L 555.187851 209.562368 
L 555.465595 209.332626 
L 555.743338 222.845643 
L 556.021082 214.606253 
L 556.298826 212.684773 
L 556.576569 215.995149 
L 556.854313 254.445633 
L 557.4098 213.687285 
L 557.687544 217.091646 
L 557.965288 216.569504 
L 558.243031 203.056488 
L 558.520775 202.847632 
L 559.076262 194.702228 
L 559.354006 195.245255 
L 559.63175 192.300378 
L 560.187237 208.069044 
L 560.464981 195.287026 
L 560.742724 192.947833 
L 561.020468 197.835075 
L 561.298212 223.513983 
L 561.575955 237.737112 
L 561.853699 211.692705 
L 562.131443 209.990524 
L 562.409186 195.151269 
L 562.964673 245.997387 
L 563.242417 184.02966 
L 563.520161 197.030978 
L 563.797904 198.942015 
L 564.075648 184.395159 
L 564.631135 187.538449 
L 564.908879 179.497474 
L 565.186623 208.01683 
L 565.464366 177.273152 
L 565.74211 175.706728 
L 566.297597 138.885325 
L 566.575341 132.431659 
L 566.853085 132.013946 
L 567.130828 127.032718 
L 567.408572 164.230063 
L 567.964059 142.404557 
L 568.519547 181.251868 
L 568.79729 158.267209 
L 569.075034 164.438919 
L 569.352778 141.913744 
L 569.630521 142.206143 
L 569.908265 150.382876 
L 570.186009 154.894177 
L 570.463752 98.294062 
L 570.741496 145.474748 
L 571.01924 144.931721 
L 571.296983 147.636413 
L 571.574727 142.958027 
L 571.852471 128.672242 
L 572.130214 126.980504 
L 572.407958 126.771647 
L 572.685702 120.735694 
L 572.963445 130.927892 
L 573.241189 136.337276 
L 573.518933 137.778385 
L 573.796676 145.495634 
L 574.07442 131.251619 
L 574.352164 139.083739 
L 574.629907 151.625572 
L 574.907651 148.712024 
L 575.185395 105.812896 
L 575.463138 96.95738 
L 575.740882 134.990151 
L 576.018626 120.840122 
L 576.574113 137.924585 
L 576.851857 122.416989 
L 577.1296 125.925778 
L 577.685088 105.593597 
L 578.240575 114.814612 
L 578.518319 112.068149 
L 578.796062 108.016333 
L 579.073806 124.129612 
L 579.35155 121.947062 
L 579.629293 127.387774 
L 579.907037 138.102113 
L 580.184781 133.225314 
L 580.462524 139.908722 
L 580.740268 141.516917 
L 581.018012 153.891665 
L 581.295755 147.260471 
L 581.573499 149.787635 
L 581.851243 151.072102 
L 582.128986 128.139657 
L 582.40673 115.869337 
L 582.684474 129.820952 
L 582.962217 124.328026 
L 583.239961 114.282028 
L 583.517704 118.949971 
L 583.795448 108.684673 
L 584.073192 109.342571 
L 584.350935 113.69723 
L 584.628679 150.643947 
L 584.906423 122.323004 
L 585.184166 116.36015 
L 585.46191 129.643424 
L 585.739654 91.96571 
L 586.017397 85.705236 
L 586.572885 85.705236 
L 586.850628 94.461545 
L 587.128372 112.51719 
L 587.406116 113.509259 
L 587.683859 115.858895 
L 587.961603 127.586188 
L 588.239347 110.783681 
L 588.794834 127.356446 
L 589.072578 126.124192 
L 589.628065 121.226507 
L 589.905809 104.914813 
L 590.183552 113.9583 
L 590.461296 127.711502 
L 590.73904 126.239063 
L 591.016783 85.705236 
L 591.294527 85.705236 
L 591.572271 103.358832 
L 591.850014 103.901859 
L 592.127758 114.51177 
L 592.405502 112.955789 
L 592.960989 94.252688 
L 593.238733 90.190429 
L 593.516476 99.860486 
L 593.79422 122.343889 
L 594.071964 117.404433 
L 594.349707 128.264971 
L 594.627451 167.655309 
L 594.905195 134.635095 
L 595.182938 85.705236 
L 595.460682 89.261018 
L 595.738426 95.161214 
L 596.016169 93.751433 
L 596.293913 87.423081 
L 596.571657 88.425592 
L 596.8494 85.705236 
L 597.960375 85.705236 
L 598.238119 122.385661 
L 598.515862 111.086523 
L 599.07135 147.709513 
L 599.349093 116.610778 
L 599.626837 141.443817 
L 599.904581 117.863917 
L 600.182324 103.891416 
L 600.460068 110.710582 
L 600.737812 100.403513 
L 601.015555 102.700934 
L 601.293299 99.829157 
L 601.571043 93.709662 
L 601.848786 101.83418 
L 602.12653 98.753546 
L 602.404274 85.705236 
L 604.070735 85.705236 
L 604.348479 105.290755 
L 604.626223 87.913893 
L 605.459454 141.631788 
L 605.737197 135.627163 
L 606.014941 144.430465 
L 606.570428 133.632584 
L 607.125916 109.405228 
L 607.403659 85.705236 
L 607.681403 99.870929 
L 607.959147 85.705236 
L 608.23689 93.782761 
L 608.514634 106.909393 
L 608.792378 126.949175 
L 609.070121 88.352492 
L 609.347865 89.877145 
L 609.625609 96.174168 
L 609.903352 93.500805 
L 610.181096 85.705236 
L 616.5692 85.705236 
L 616.846944 90.555928 
L 617.124688 85.705236 
L 618.79115 85.705236 
L 619.068893 87.621494 
L 619.346637 85.705236 
L 619.624381 149.025309 
L 619.902124 116.756978 
L 620.179868 108.935301 
L 620.457612 85.705236 
L 620.735355 95.850441 
L 621.013099 98.126977 
L 621.290843 85.705236 
L 621.568586 86.420569 
L 621.84633 86.420569 
L 622.124074 209.875653 
L 622.401817 194.890198 
L 622.679561 144.138066 
L 622.957305 157.358683 
L 623.235048 176.00957 
L 623.512792 161.702899 
L 623.790535 162.841167 
L 624.068279 127.095375 
L 624.346023 119.57654 
L 624.623766 147.511099 
L 624.90151 210.836393 
L 625.179254 206.98299 
L 625.456997 153.735023 
L 626.567972 85.705236 
L 626.845716 95.505828 
L 627.123459 238.374124 
L 627.401203 256.262684 
L 627.678947 195.809167 
L 627.95669 248.67075 
L 628.234434 236.034931 
L 628.512178 190.27447 
L 628.789921 167.571767 
L 629.067665 168.271436 
L 629.345409 142.258358 
L 629.623152 232.453042 
L 630.17864 179.601902 
L 630.456383 161.640242 
L 630.734127 295.559037 
L 631.011871 225.560777 
L 631.845102 149.265494 
L 632.122845 204.487155 
L 632.400589 177.220938 
L 632.956076 97.364651 
L 633.23382 85.705236 
L 633.511564 235.314376 
L 634.067051 136.138862 
L 634.344795 126.37482 
L 634.622538 88.644891 
L 634.900282 85.705236 
L 635.178026 110.877667 
L 635.455769 171.362512 
L 635.733513 113.55103 
L 636.011257 102.053479 
L 636.289 85.705236 
L 636.844488 85.705236 
L 637.122231 115.80668 
L 637.399975 182.933163 
L 637.677719 162.924709 
L 637.955462 114.929483 
L 638.233206 92.289437 
L 638.51095 85.705236 
L 638.788693 85.705236 
L 639.066437 92.216337 
L 639.344181 93.11442 
L 639.621924 85.705236 
L 639.899668 85.705236 
L 640.177412 108.82043 
L 640.455155 104.925256 
L 640.732899 85.705236 
L 641.010643 117.550632 
L 641.288386 186.661252 
L 641.56613 123.97297 
L 641.843874 106.209724 
L 642.121617 190.827939 
L 642.399361 232.254628 
L 642.677105 220.496007 
L 642.954848 170.464429 
L 643.232592 148.503167 
L 643.510336 138.739125 
L 643.788079 151.834429 
L 644.065823 196.498394 
L 644.899054 124.338469 
L 645.176797 116.715206 
L 645.454541 176.636139 
L 645.732285 127.325117 
L 646.010028 111.608665 
L 646.287772 110.355526 
L 646.565516 88.488249 
L 646.843259 111.70265 
L 647.121003 96.027969 
L 647.398747 151.270516 
L 647.67649 85.705236 
L 647.954234 116.046865 
L 648.231978 115.180111 
L 648.509721 112.51719 
L 648.787465 116.412364 
L 649.065209 85.705236 
L 649.342952 102.815805 
L 649.620696 107.274892 
L 649.89844 85.705236 
L 652.675876 85.705236 
L 652.95362 95.109 
L 653.231364 85.705236 
L 653.509107 85.705236 
L 653.786851 123.377729 
L 654.064595 97.03048 
L 654.342338 85.705236 
L 655.453313 85.705236 
L 655.731057 154.048308 
L 656.0088 87.297767 
L 656.286544 85.705236 
L 657.675262 85.705236 
L 657.953006 95.077672 
L 658.23075 85.705236 
L 659.619468 85.705236 
L 659.897212 103.943631 
L 660.174955 212.162632 
L 660.730443 110.501725 
L 661.008186 85.705236 
L 667.39629 85.705236 
L 667.674034 89.073047 
L 667.951778 85.705236 
L 668.229521 93.970732 
L 668.507265 127.105818 
L 668.785009 85.705236 
L 674.895369 85.705236 
L 674.895369 85.705236 
" clip-path="url(#pf69b5c024c)" style="fill: none; stroke: #2878b5; stroke-width: 1.5; stroke-linecap: square"/>
   </g>
   <g id="line2d_26">
    <path d="M 559.63175 195.85066 
L 559.909493 195.659039 
L 560.187237 219.458349 
L 560.464981 207.422664 
L 560.742724 185.831048 
L 561.298212 190.805114 
L 561.575955 201.609677 
L 561.853699 222.456391 
L 562.131443 198.123186 
L 562.409186 215.076723 
L 562.68693 185.888636 
L 563.242417 240.630544 
L 563.520161 206.083896 
L 563.797904 190.689723 
L 564.075648 190.245336 
L 564.353392 186.910466 
L 564.631135 200.147344 
L 565.186623 173.6545 
L 565.464366 198.384218 
L 565.74211 173.588025 
L 566.019854 183.019555 
L 566.297597 164.362332 
L 566.575341 130.302247 
L 566.853085 159.702694 
L 567.130828 126.20214 
L 567.408572 119.783001 
L 567.686316 155.609896 
L 567.964059 152.468232 
L 568.241803 138.866058 
L 568.519547 157.413189 
L 568.79729 155.689287 
L 569.075034 146.793659 
L 569.352778 161.961287 
L 569.908265 121.614115 
L 570.186009 151.719884 
L 570.463752 141.68484 
L 570.741496 112.719153 
L 571.01924 141.084241 
L 571.296983 142.459484 
L 571.574727 153.386945 
L 571.852471 151.43562 
L 572.130214 110.905734 
L 572.407958 123.637407 
L 572.685702 119.854388 
L 572.963445 119.53346 
L 573.241189 105.733419 
L 573.518933 128.413252 
L 573.796676 108.549927 
L 574.07442 154.816255 
L 574.352164 124.860793 
L 574.629907 132.180831 
L 574.907651 149.650831 
L 575.185395 153.015905 
L 575.463138 99.062891 
L 575.740882 103.772111 
L 576.018626 111.438082 
L 576.296369 111.558606 
L 576.574113 123.952775 
L 576.851857 127.104299 
L 577.1296 97.058636 
L 577.407344 143.046566 
L 577.685088 116.018852 
L 577.962831 111.025515 
L 578.240575 119.461835 
L 578.518319 100.158324 
L 578.796062 99.702876 
L 579.073806 115.609274 
L 579.35155 102.476153 
L 579.629293 119.371011 
L 579.907037 126.754274 
L 580.184781 128.302746 
L 580.462524 113.252005 
L 580.740268 137.599389 
L 581.018012 133.889393 
L 581.295755 152.119361 
L 581.573499 141.742288 
L 581.851243 124.395122 
L 582.128986 138.275895 
L 582.40673 141.7199 
L 582.684474 114.339925 
L 582.962217 136.707053 
L 583.239961 132.24802 
L 583.517704 114.153753 
L 583.795448 126.796678 
L 584.073192 101.150911 
L 584.350935 112.740209 
L 584.628679 115.798716 
L 584.906423 139.293494 
L 585.184166 104.37551 
L 585.46191 99.653464 
L 585.739654 133.712394 
L 586.017397 92.441371 
L 586.295141 97.172875 
L 586.572885 92.908294 
L 586.850628 82.337086 
L 587.128372 95.883827 
L 587.683859 105.786782 
L 587.961603 119.12255 
L 588.51709 105.055375 
L 588.794834 111.659477 
L 589.072578 109.024094 
L 589.350321 118.858123 
L 589.905809 115.485522 
L 590.183552 107.518532 
L 590.73904 125.391475 
L 591.016783 128.923161 
L 591.572271 81.548295 
L 591.850014 104.50897 
L 592.127758 100.140546 
L 592.405502 92.910386 
L 592.683245 103.294563 
L 592.960989 90.449972 
L 593.238733 82.934879 
L 594.071964 116.261403 
L 594.349707 100.840132 
L 594.627451 134.044234 
L 594.905195 143.06916 
L 595.182938 128.589627 
L 595.738426 85.127378 
L 596.016169 91.055663 
L 596.293913 90.422615 
L 596.571657 80.152602 
L 597.127144 99.216272 
L 597.682631 78.108138 
L 597.960375 99.711124 
L 598.238119 77.155679 
L 598.515862 99.853495 
L 598.793606 104.97329 
L 599.349093 129.594632 
L 599.626837 102.630688 
L 599.904581 126.444544 
L 600.182324 118.198342 
L 600.460068 117.90192 
L 600.737812 113.867572 
L 601.015555 92.293681 
L 601.293299 117.088354 
L 601.571043 108.306689 
L 601.848786 76.658666 
L 602.12653 108.588346 
L 602.404274 101.36436 
L 602.682017 75.375263 
L 602.959761 87.546282 
L 603.237504 72.922504 
L 603.792992 90.875962 
L 604.070735 76.676837 
L 604.348479 87.016055 
L 604.626223 109.812655 
L 604.903966 87.958232 
L 605.18171 85.031632 
L 605.459454 115.270976 
L 605.737197 128.906754 
L 606.014941 116.214667 
L 606.292685 137.075287 
L 606.570428 122.740661 
L 607.125916 123.394751 
L 607.403659 106.33319 
L 607.959147 96.128903 
L 608.23689 103.994007 
L 608.514634 101.077985 
L 608.792378 118.895816 
L 609.070121 119.850249 
L 609.347865 85.191049 
L 609.625609 98.722447 
L 609.903352 85.585463 
L 610.181096 82.19028 
L 610.45884 82.157259 
L 610.736583 68.68707 
L 611.014327 90.629698 
L 611.292071 70.137686 
L 611.569814 86.916681 
L 611.847558 94.221265 
L 612.125302 97.865077 
L 612.403045 70.921384 
L 612.680789 85.894536 
L 613.236276 80.21341 
L 613.51402 75.594614 
L 613.791764 74.004553 
L 614.069507 71.703331 
L 614.347251 89.527948 
L 614.624995 70.904558 
L 614.902738 88.521667 
L 615.180482 92.241306 
L 615.458226 99.373213 
L 615.735969 74.505878 
L 616.013713 86.879672 
L 616.291457 84.615532 
L 616.846944 76.106114 
L 617.124688 78.239131 
L 617.402431 72.031496 
L 617.680175 83.293098 
L 617.957919 75.588044 
L 618.235662 82.61573 
L 618.79115 89.726617 
L 619.068893 72.801487 
L 619.346637 83.405601 
L 619.624381 83.60122 
L 619.902124 129.341286 
L 620.179868 105.19235 
L 620.457612 101.622929 
L 620.735355 88.282817 
L 621.013099 92.822399 
L 621.290843 99.96509 
L 621.568586 86.45989 
L 621.84633 87.035983 
L 622.124074 83.723486 
L 622.401817 178.141134 
L 623.235048 146.622866 
L 623.512792 162.410956 
L 623.790535 154.214121 
L 624.068279 165.331827 
L 624.346023 131.634831 
L 624.623766 120.081276 
L 624.90151 145.687629 
L 625.456997 229.520019 
L 625.734741 156.919995 
L 626.012485 132.823269 
L 626.290228 157.370178 
L 626.567972 122.411112 
L 626.845716 102.536223 
L 627.123459 91.466702 
L 627.401203 193.523828 
L 627.678947 213.030018 
L 627.95669 180.474598 
L 628.234434 245.649641 
L 628.512178 217.704363 
L 628.789921 226.641557 
L 629.345409 156.808485 
L 629.623152 175.07516 
L 629.900896 210.01803 
L 630.17864 189.795948 
L 630.456383 211.467054 
L 630.734127 169.544092 
L 631.011871 248.299437 
L 631.289614 237.707662 
L 631.567358 221.464784 
L 631.845102 168.525153 
L 632.122845 171.412454 
L 632.400589 200.759707 
L 632.678333 149.733539 
L 632.956076 167.491429 
L 633.23382 100.861071 
L 633.511564 88.291414 
L 633.789307 251.772878 
L 634.067051 218.95277 
L 634.344795 111.881934 
L 634.622538 152.289739 
L 634.900282 103.219842 
L 635.178026 90.660113 
L 635.455769 106.900191 
L 635.733513 130.012759 
L 636.011257 77.717875 
L 636.289 103.5998 
L 636.566744 59.771518 
L 636.844488 121.500509 
L 637.122231 124.182088 
L 637.399975 154.055935 
L 637.677719 131.955973 
L 637.955462 142.598525 
L 638.233206 98.211758 
L 638.51095 80.461731 
L 638.788693 113.984792 
L 639.066437 63.585127 
L 639.344181 66.450137 
L 639.621924 91.668153 
L 639.899668 64.452147 
L 640.177412 122.103181 
L 640.455155 92.639976 
L 640.732899 148.179634 
L 641.010643 67.855742 
L 641.288386 75.66321 
L 641.56613 134.898684 
L 641.843874 103.23201 
L 642.121617 139.97641 
L 642.399361 142.359267 
L 642.677105 180.00239 
L 642.954848 178.132559 
L 643.232592 155.045565 
L 643.510336 200.351781 
L 643.788079 147.541092 
L 644.065823 163.757616 
L 644.343566 194.24777 
L 644.899054 126.770011 
L 645.176797 121.343392 
L 645.454541 162.093752 
L 645.732285 172.640859 
L 646.287772 95.833379 
L 646.565516 103.7203 
L 646.843259 93.232342 
L 647.121003 122.828045 
L 647.398747 126.546287 
L 647.67649 141.245755 
L 647.954234 97.353604 
L 648.231978 79.310174 
L 648.509721 96.180145 
L 648.787465 145.946265 
L 649.065209 120.543771 
L 649.342952 83.168982 
L 649.620696 82.908606 
L 649.89844 86.471128 
L 650.176183 94.41312 
L 650.453927 81.912547 
L 650.731671 107.132978 
L 651.009414 69.781623 
L 651.287158 111.784216 
L 651.564902 59.310373 
L 651.842645 71.306466 
L 652.120389 128.406895 
L 652.398133 74.967574 
L 652.675876 85.48247 
L 652.95362 66.60874 
L 653.231364 65.276103 
L 653.509107 81.998157 
L 653.786851 73.570268 
L 654.064595 140.557876 
L 654.342338 65.308362 
L 654.620082 88.318762 
L 654.897826 75.749409 
L 655.175569 76.465013 
L 655.453313 106.217961 
L 655.731057 56.448402 
L 656.0088 132.109464 
L 656.286544 84.115826 
L 656.564288 68.173087 
L 656.842031 90.645767 
L 657.119775 84.360559 
L 657.397519 101.443985 
L 657.675262 61.097935 
L 657.953006 88.726171 
L 658.23075 89.027079 
L 658.508493 81.640453 
L 658.786237 84.259681 
L 659.063981 93.027115 
L 659.341724 70.854185 
L 659.619468 86.852707 
L 659.897212 71.365771 
L 660.174955 93.554224 
L 660.452699 189.064124 
L 660.730443 127.276082 
L 661.28593 95.629713 
L 661.563674 86.22064 
L 661.841417 97.973528 
L 662.119161 88.576971 
L 662.396905 108.312375 
L 662.674648 65.287425 
L 662.952392 84.749112 
L 663.230136 84.351939 
L 663.507879 117.346143 
L 664.063366 64.572209 
L 664.34111 70.161098 
L 664.618854 80.53836 
L 664.896597 76.823166 
L 665.174341 77.339812 
L 665.452085 78.373024 
L 665.729828 103.772116 
L 666.007572 65.840498 
L 666.285316 81.605271 
L 666.563059 87.19259 
L 666.840803 119.981436 
L 667.118547 73.235383 
L 667.39629 69.902282 
L 667.674034 72.410313 
L 667.951778 83.975099 
L 668.229521 77.761937 
L 668.507265 83.606935 
L 668.785009 111.172852 
L 669.062752 82.167808 
L 669.340496 86.337339 
L 669.61824 84.519744 
L 669.895983 89.286476 
L 670.173727 124.89366 
L 670.451471 73.416058 
L 670.729214 72.853804 
L 671.006958 73.876787 
L 671.562445 82.834837 
L 671.840189 88.548145 
L 672.117933 69.787783 
L 672.395676 81.301752 
L 672.67342 81.299579 
L 673.228907 82.301763 
L 673.506651 80.980797 
L 673.784395 82.520995 
L 674.062138 82.520995 
L 674.339882 83.681582 
L 674.617626 81.64373 
L 674.895369 85.362216 
L 674.895369 85.362216 
" clip-path="url(#pf69b5c024c)" style="fill: none; stroke-dasharray: 5.55,2.4; stroke-dashoffset: 0; stroke: #c82423; stroke-width: 1.5"/>
   </g>
   <g id="patch_3">
    <path d="M 35.932188 385.634475 
L 35.932188 40.772875 
" style="fill: none; stroke: #000000; stroke-width: 0.8; stroke-linejoin: miter; stroke-linecap: square"/>
   </g>
   <g id="patch_4">
    <path d="M 705.322188 385.634475 
L 705.322188 40.772875 
" style="fill: none; stroke: #000000; stroke-width: 0.8; stroke-linejoin: miter; stroke-linecap: square"/>
   </g>
   <g id="patch_5">
    <path d="M 35.932188 385.634475 
L 705.322188 385.634475 
" style="fill: none; stroke: #000000; stroke-width: 0.8; stroke-linejoin: miter; stroke-linecap: square"/>
   </g>
   <g id="patch_6">
    <path d="M 35.932188 40.772875 
L 705.322188 40.772875 
" style="fill: none; stroke: #000000; stroke-width: 0.8; stroke-linejoin: miter; stroke-linecap: square"/>
   </g>
   <g id="text_15">
    <!-- NH3_N_mg/L 时间序列：真实值与预测值对比 -->
    <g transform="translate(279.982188 16.10625) scale(0.12 -0.12)">
     <defs>
      <path id="DejaVuSans-5217" d="M 319 -1131 
L 319 4513 
L 3519 4513 
L 3519 -1131 
L 319 -1131 
z
M 678 -775 
L 3163 -775 
L 3163 4153 
L 678 4153 
L 678 -775 
z
" transform="scale(0.015625)"/>
      <path id="DejaVuSans-ff1a" d="M 319 -1131 
L 319 4513 
L 3519 4513 
L 3519 -1131 
L 319 -1131 
z
M 678 -775 
L 3163 -775 
L 3163 4153 
L 678 4153 
L 678 -775 
z
" transform="scale(0.015625)"/>
      <path id="DejaVuSans-771f" d="M 319 -1131 
L 319 4513 
L 3519 4513 
L 3519 -1131 
L 319 -1131 
z
M 678 -775 
L 3163 -775 
L 3163 4153 
L 678 4153 
L 678 -775 
z
" transform="scale(0.015625)"/>
      <path id="DejaVuSans-5b9e" d="M 319 -1131 
L 319 4513 
L 3519 4513 
L 3519 -1131 
L 319 -1131 
z
M 678 -775 
L 3163 -775 
L 3163 4153 
L 678 4153 
L 678 -775 
z
" transform="scale(0.015625)"/>
      <path id="DejaVuSans-4e0e" d="M 319 -1131 
L 319 4513 
L 3519 4513 
L 3519 -1131 
L 319 -1131 
z
M 678 -775 
L 3163 -775 
L 3163 4153 
L 678 4153 
L 678 -775 
z
" transform="scale(0.015625)"/>
      <path id="DejaVuSans-9884" d="M 319 -1131 
L 319 4513 
L 3519 4513 
L 3519 -1131 
L 319 -1131 
z
M 678 -775 
L 3163 -775 
L 3163 4153 
L 678 4153 
L 678 -775 
z
" transform="scale(0.015625)"/>
      <path id="DejaVuSans-6d4b" d="M 319 -1131 
L 319 4513 
L 3519 4513 
L 3519 -1131 
L 319 -1131 
z
M 678 -775 
L 3163 -775 
L 3163 4153 
L 678 4153 
L 678 -775 
z
" transform="scale(0.015625)"/>
      <path id="DejaVuSans-5bf9" d="M 319 -1131 
L 319 4513 
L 3519 4513 
L 3519 -1131 
L 319 -1131 
z
M 678 -775 
L 3163 -775 
L 3163 4153 
L 678 4153 
L 678 -775 
z
" transform="scale(0.015625)"/>
      <path id="DejaVuSans-6bd4" d="M 319 -1131 
L 319 4513 
L 3519 4513 
L 3519 -1131 
L 319 -1131 
z
M 678 -775 
L 3163 -775 
L 3163 4153 
L 678 4153 
L 678 -775 
z
" transform="scale(0.015625)"/>
     </defs>
     <use xlink:href="#DejaVuSans-4e"/>
     <use xlink:href="#DejaVuSans-48" transform="translate(74.804688 0)"/>
     <use xlink:href="#DejaVuSans-33" transform="translate(150 0)"/>
     <use xlink:href="#DejaVuSans-5f" transform="translate(213.623047 0)"/>
     <use xlink:href="#DejaVuSans-4e" transform="translate(263.623047 0)"/>
     <use xlink:href="#DejaVuSans-5f" transform="translate(338.427734 0)"/>
     <use xlink:href="#DejaVuSans-6d" transform="translate(388.427734 0)"/>
     <use xlink:href="#DejaVuSans-67" transform="translate(485.839844 0)"/>
     <use xlink:href="#DejaVuSans-2f" transform="translate(549.316406 0)"/>
     <use xlink:href="#DejaVuSans-4c" transform="translate(583.007812 0)"/>
     <use xlink:href="#DejaVuSans-20" transform="translate(638.720703 0)"/>
     <use xlink:href="#DejaVuSans-65f6" transform="translate(670.507812 0)"/>
     <use xlink:href="#DejaVuSans-95f4" transform="translate(730.517578 0)"/>
     <use xlink:href="#DejaVuSans-5e8f" transform="translate(790.527344 0)"/>
     <use xlink:href="#DejaVuSans-5217" transform="translate(850.537109 0)"/>
     <use xlink:href="#DejaVuSans-ff1a" transform="translate(910.546875 0)"/>
     <use xlink:href="#DejaVuSans-771f" transform="translate(970.556641 0)"/>
     <use xlink:href="#DejaVuSans-5b9e" transform="translate(1030.566406 0)"/>
     <use xlink:href="#DejaVuSans-503c" transform="translate(1090.576172 0)"/>
     <use xlink:href="#DejaVuSans-4e0e" transform="translate(1150.585938 0)"/>
     <use xlink:href="#DejaVuSans-9884" transform="translate(1210.595703 0)"/>
     <use xlink:href="#DejaVuSans-6d4b" transform="translate(1270.605469 0)"/>
     <use xlink:href="#DejaVuSans-503c" transform="translate(1330.615234 0)"/>
     <use xlink:href="#DejaVuSans-5bf9" transform="translate(1390.625 0)"/>
     <use xlink:href="#DejaVuSans-6bd4" transform="translate(1450.634766 0)"/>
    </g>
    <!-- $R^2$ = 0.8500,$RMSE$ =2.4325 -->
    <g transform="translate(286.687187 30.772875) scale(0.12 -0.12)">
     <defs>
      <path id="DejaVuSans-Oblique-52" d="M 1613 4147 
L 1294 2491 
L 2106 2491 
Q 2584 2491 2879 2755 
Q 3175 3019 3175 3444 
Q 3175 3784 2976 3965 
Q 2778 4147 2406 4147 
L 1613 4147 
z
M 2772 2241 
Q 2972 2194 3105 2009 
Q 3238 1825 3413 1275 
L 3809 0 
L 3144 0 
L 2778 1197 
Q 2638 1659 2453 1815 
Q 2269 1972 1888 1972 
L 1191 1972 
L 806 0 
L 172 0 
L 1081 4666 
L 2503 4666 
Q 3150 4666 3495 4373 
Q 3841 4081 3841 3531 
Q 3841 3044 3547 2687 
Q 3253 2331 2772 2241 
z
" transform="scale(0.015625)"/>
      <path id="DejaVuSans-3d" d="M 678 2906 
L 4684 2906 
L 4684 2381 
L 678 2381 
L 678 2906 
z
M 678 1631 
L 4684 1631 
L 4684 1100 
L 678 1100 
L 678 1631 
z
" transform="scale(0.015625)"/>
      <path id="DejaVuSans-2e" d="M 684 794 
L 1344 794 
L 1344 0 
L 684 0 
L 684 794 
z
" transform="scale(0.015625)"/>
      <path id="DejaVuSans-38" d="M 2034 2216 
Q 1584 2216 1326 1975 
Q 1069 1734 1069 1313 
Q 1069 891 1326 650 
Q 1584 409 2034 409 
Q 2484 409 2743 651 
Q 3003 894 3003 1313 
Q 3003 1734 2745 1975 
Q 2488 2216 2034 2216 
z
M 1403 2484 
Q 997 2584 770 2862 
Q 544 3141 544 3541 
Q 544 4100 942 4425 
Q 1341 4750 2034 4750 
Q 2731 4750 3128 4425 
Q 3525 4100 3525 3541 
Q 3525 3141 3298 2862 
Q 3072 2584 2669 2484 
Q 3125 2378 3379 2068 
Q 3634 1759 3634 1313 
Q 3634 634 3220 271 
Q 2806 -91 2034 -91 
Q 1263 -91 848 271 
Q 434 634 434 1313 
Q 434 1759 690 2068 
Q 947 2378 1403 2484 
z
M 1172 3481 
Q 1172 3119 1398 2916 
Q 1625 2713 2034 2713 
Q 2441 2713 2670 2916 
Q 2900 3119 2900 3481 
Q 2900 3844 2670 4047 
Q 2441 4250 2034 4250 
Q 1625 4250 1398 4047 
Q 1172 3844 1172 3481 
z
" transform="scale(0.015625)"/>
      <path id="DejaVuSans-2c" d="M 750 794 
L 1409 794 
L 1409 256 
L 897 -744 
L 494 -744 
L 750 256 
L 750 794 
z
" transform="scale(0.015625)"/>
      <path id="DejaVuSans-Oblique-4d" d="M 1081 4666 
L 2028 4666 
L 2572 1522 
L 4378 4666 
L 5350 4666 
L 4441 0 
L 3828 0 
L 4622 4091 
L 2791 897 
L 2175 897 
L 1581 4103 
L 788 0 
L 172 0 
L 1081 4666 
z
" transform="scale(0.015625)"/>
      <path id="DejaVuSans-Oblique-53" d="M 3859 4513 
L 3738 3897 
Q 3422 4066 3111 4152 
Q 2800 4238 2509 4238 
Q 1944 4238 1609 3991 
Q 1275 3744 1275 3334 
Q 1275 3109 1398 2989 
Q 1522 2869 2034 2731 
L 2413 2638 
Q 3053 2472 3303 2217 
Q 3553 1963 3553 1503 
Q 3553 797 2998 353 
Q 2444 -91 1538 -91 
Q 1166 -91 791 -17 
Q 416 56 38 206 
L 166 856 
Q 513 641 861 531 
Q 1209 422 1556 422 
Q 2147 422 2503 684 
Q 2859 947 2859 1369 
Q 2859 1650 2717 1795 
Q 2575 1941 2106 2059 
L 1728 2156 
Q 1081 2325 845 2545 
Q 609 2766 609 3163 
Q 609 3859 1145 4304 
Q 1681 4750 2541 4750 
Q 2875 4750 3203 4690 
Q 3531 4631 3859 4513 
z
" transform="scale(0.015625)"/>
      <path id="DejaVuSans-Oblique-45" d="M 1081 4666 
L 4031 4666 
L 3928 4134 
L 1606 4134 
L 1338 2753 
L 3566 2753 
L 3463 2222 
L 1234 2222 
L 909 531 
L 3284 531 
L 3181 0 
L 172 0 
L 1081 4666 
z
" transform="scale(0.015625)"/>
      <path id="DejaVuSans-34" d="M 2419 4116 
L 825 1625 
L 2419 1625 
L 2419 4116 
z
M 2253 4666 
L 3047 4666 
L 3047 1625 
L 3713 1625 
L 3713 1100 
L 3047 1100 
L 3047 0 
L 2419 0 
L 2419 1100 
L 313 1100 
L 313 1709 
L 2253 4666 
z
" transform="scale(0.015625)"/>
     </defs>
     <use xlink:href="#DejaVuSans-Oblique-52" transform="translate(0 0.765625)"/>
     <use xlink:href="#DejaVuSans-32" transform="translate(76.499193 39.046875) scale(0.7)"/>
     <use xlink:href="#DejaVuSans-20" transform="translate(123.769701 0.765625)"/>
     <use xlink:href="#DejaVuSans-3d" transform="translate(155.55681 0.765625)"/>
     <use xlink:href="#DejaVuSans-20" transform="translate(239.345872 0.765625)"/>
     <use xlink:href="#DejaVuSans-30" transform="translate(271.132982 0.765625)"/>
     <use xlink:href="#DejaVuSans-2e" transform="translate(334.756029 0.765625)"/>
     <use xlink:href="#DejaVuSans-38" transform="translate(363.918138 0.765625)"/>
     <use xlink:href="#DejaVuSans-35" transform="translate(427.541185 0.765625)"/>
     <use xlink:href="#DejaVuSans-30" transform="translate(491.164232 0.765625)"/>
     <use xlink:href="#DejaVuSans-30" transform="translate(554.787279 0.765625)"/>
     <use xlink:href="#DejaVuSans-2c" transform="translate(618.410326 0.765625)"/>
     <use xlink:href="#DejaVuSans-Oblique-52" transform="translate(650.197435 0.765625)"/>
     <use xlink:href="#DejaVuSans-Oblique-4d" transform="translate(719.679857 0.765625)"/>
     <use xlink:href="#DejaVuSans-Oblique-53" transform="translate(805.959154 0.765625)"/>
     <use xlink:href="#DejaVuSans-Oblique-45" transform="translate(869.435716 0.765625)"/>
     <use xlink:href="#DejaVuSans-20" transform="translate(932.61931 0.765625)"/>
     <use xlink:href="#DejaVuSans-3d" transform="translate(964.406419 0.765625)"/>
     <use xlink:href="#DejaVuSans-32" transform="translate(1048.195482 0.765625)"/>
     <use xlink:href="#DejaVuSans-2e" transform="translate(1111.818529 0.765625)"/>
     <use xlink:href="#DejaVuSans-34" transform="translate(1143.605638 0.765625)"/>
     <use xlink:href="#DejaVuSans-33" transform="translate(1207.228685 0.765625)"/>
     <use xlink:href="#DejaVuSans-32" transform="translate(1270.851732 0.765625)"/>
     <use xlink:href="#DejaVuSans-35" transform="translate(1334.474779 0.765625)"/>
    </g>
   </g>
   <g id="legend_1">
    <g id="patch_7">
     <path d="M 42.232188 74.643813 
L 183.795156 74.643813 
Q 185.595156 74.643813 185.595156 72.843813 
L 185.595156 47.072875 
Q 185.595156 45.272875 183.795156 45.272875 
L 42.232188 45.272875 
Q 40.432188 45.272875 40.432188 47.072875 
L 40.432188 72.843813 
Q 40.432188 74.643813 42.232188 74.643813 
z
" style="fill: #ffffff; opacity: 0.8; stroke: #cccccc; stroke-width: 0.5; stroke-linejoin: miter"/>
    </g>
    <g id="line2d_27">
     <path d="M 44.032188 52.561469 
L 53.032188 52.561469 
L 62.032188 52.561469 
" style="fill: none; stroke: #2878b5; stroke-width: 1.5; stroke-linecap: square"/>
    </g>
    <g id="text_16">
     <!-- 真实 NH3_N_mg/L 值 -->
     <g transform="translate(69.232188 55.711469) scale(0.09 -0.09)">
      <use xlink:href="#DejaVuSans-771f"/>
      <use xlink:href="#DejaVuSans-5b9e" transform="translate(60.009766 0)"/>
      <use xlink:href="#DejaVuSans-20" transform="translate(120.019531 0)"/>
      <use xlink:href="#DejaVuSans-4e" transform="translate(151.806641 0)"/>
      <use xlink:href="#DejaVuSans-48" transform="translate(226.611328 0)"/>
      <use xlink:href="#DejaVuSans-33" transform="translate(301.806641 0)"/>
      <use xlink:href="#DejaVuSans-5f" transform="translate(365.429688 0)"/>
      <use xlink:href="#DejaVuSans-4e" transform="translate(415.429688 0)"/>
      <use xlink:href="#DejaVuSans-5f" transform="translate(490.234375 0)"/>
      <use xlink:href="#DejaVuSans-6d" transform="translate(540.234375 0)"/>
      <use xlink:href="#DejaVuSans-67" transform="translate(637.646484 0)"/>
      <use xlink:href="#DejaVuSans-2f" transform="translate(701.123047 0)"/>
      <use xlink:href="#DejaVuSans-4c" transform="translate(734.814453 0)"/>
      <use xlink:href="#DejaVuSans-20" transform="translate(790.527344 0)"/>
      <use xlink:href="#DejaVuSans-503c" transform="translate(822.314453 0)"/>
     </g>
    </g>
    <g id="line2d_28">
     <path d="M 44.032188 66.022094 
L 53.032188 66.022094 
L 62.032188 66.022094 
" style="fill: none; stroke-dasharray: 5.55,2.4; stroke-dashoffset: 0; stroke: #c82423; stroke-width: 1.5"/>
    </g>
    <g id="text_17">
     <!-- 预测值 (SARIMA + XGBoost) -->
     <g transform="translate(69.232188 69.172094) scale(0.09 -0.09)">
      <defs>
       <path id="DejaVuSans-28" d="M 1984 4856 
Q 1566 4138 1362 3434 
Q 1159 2731 1159 2009 
Q 1159 1288 1364 580 
Q 1569 -128 1984 -844 
L 1484 -844 
Q 1016 -109 783 600 
Q 550 1309 550 2009 
Q 550 2706 781 3412 
Q 1013 4119 1484 4856 
L 1984 4856 
z
" transform="scale(0.015625)"/>
       <path id="DejaVuSans-53" d="M 3425 4513 
L 3425 3897 
Q 3066 4069 2747 4153 
Q 2428 4238 2131 4238 
Q 1616 4238 1336 4038 
Q 1056 3838 1056 3469 
Q 1056 3159 1242 3001 
Q 1428 2844 1947 2747 
L 2328 2669 
Q 3034 2534 3370 2195 
Q 3706 1856 3706 1288 
Q 3706 609 3251 259 
Q 2797 -91 1919 -91 
Q 1588 -91 1214 -16 
Q 841 59 441 206 
L 441 856 
Q 825 641 1194 531 
Q 1563 422 1919 422 
Q 2459 422 2753 634 
Q 3047 847 3047 1241 
Q 3047 1584 2836 1778 
Q 2625 1972 2144 2069 
L 1759 2144 
Q 1053 2284 737 2584 
Q 422 2884 422 3419 
Q 422 4038 858 4394 
Q 1294 4750 2059 4750 
Q 2388 4750 2728 4690 
Q 3069 4631 3425 4513 
z
" transform="scale(0.015625)"/>
       <path id="DejaVuSans-41" d="M 2188 4044 
L 1331 1722 
L 3047 1722 
L 2188 4044 
z
M 1831 4666 
L 2547 4666 
L 4325 0 
L 3669 0 
L 3244 1197 
L 1141 1197 
L 716 0 
L 50 0 
L 1831 4666 
z
" transform="scale(0.015625)"/>
       <path id="DejaVuSans-52" d="M 2841 2188 
Q 3044 2119 3236 1894 
Q 3428 1669 3622 1275 
L 4263 0 
L 3584 0 
L 2988 1197 
Q 2756 1666 2539 1819 
Q 2322 1972 1947 1972 
L 1259 1972 
L 1259 0 
L 628 0 
L 628 4666 
L 2053 4666 
Q 2853 4666 3247 4331 
Q 3641 3997 3641 3322 
Q 3641 2881 3436 2590 
Q 3231 2300 2841 2188 
z
M 1259 4147 
L 1259 2491 
L 2053 2491 
Q 2509 2491 2742 2702 
Q 2975 2913 2975 3322 
Q 2975 3731 2742 3939 
Q 2509 4147 2053 4147 
L 1259 4147 
z
" transform="scale(0.015625)"/>
       <path id="DejaVuSans-49" d="M 628 4666 
L 1259 4666 
L 1259 0 
L 628 0 
L 628 4666 
z
" transform="scale(0.015625)"/>
       <path id="DejaVuSans-4d" d="M 628 4666 
L 1569 4666 
L 2759 1491 
L 3956 4666 
L 4897 4666 
L 4897 0 
L 4281 0 
L 4281 4097 
L 3078 897 
L 2444 897 
L 1241 4097 
L 1241 0 
L 628 0 
L 628 4666 
z
" transform="scale(0.015625)"/>
       <path id="DejaVuSans-2b" d="M 2944 4013 
L 2944 2272 
L 4684 2272 
L 4684 1741 
L 2944 1741 
L 2944 0 
L 2419 0 
L 2419 1741 
L 678 1741 
L 678 2272 
L 2419 2272 
L 2419 4013 
L 2944 4013 
z
" transform="scale(0.015625)"/>
       <path id="DejaVuSans-58" d="M 403 4666 
L 1081 4666 
L 2241 2931 
L 3406 4666 
L 4084 4666 
L 2584 2425 
L 4184 0 
L 3506 0 
L 2194 1984 
L 872 0 
L 191 0 
L 1856 2491 
L 403 4666 
z
" transform="scale(0.015625)"/>
       <path id="DejaVuSans-47" d="M 3809 666 
L 3809 1919 
L 2778 1919 
L 2778 2438 
L 4434 2438 
L 4434 434 
Q 4069 175 3628 42 
Q 3188 -91 2688 -91 
Q 1594 -91 976 548 
Q 359 1188 359 2328 
Q 359 3472 976 4111 
Q 1594 4750 2688 4750 
Q 3144 4750 3555 4637 
Q 3966 4525 4313 4306 
L 4313 3634 
Q 3963 3931 3569 4081 
Q 3175 4231 2741 4231 
Q 1884 4231 1454 3753 
Q 1025 3275 1025 2328 
Q 1025 1384 1454 906 
Q 1884 428 2741 428 
Q 3075 428 3337 486 
Q 3600 544 3809 666 
z
" transform="scale(0.015625)"/>
       <path id="DejaVuSans-42" d="M 1259 2228 
L 1259 519 
L 2272 519 
Q 2781 519 3026 730 
Q 3272 941 3272 1375 
Q 3272 1813 3026 2020 
Q 2781 2228 2272 2228 
L 1259 2228 
z
M 1259 4147 
L 1259 2741 
L 2194 2741 
Q 2656 2741 2882 2914 
Q 3109 3088 3109 3444 
Q 3109 3797 2882 3972 
Q 2656 4147 2194 4147 
L 1259 4147 
z
M 628 4666 
L 2241 4666 
Q 2963 4666 3353 4366 
Q 3744 4066 3744 3513 
Q 3744 3084 3544 2831 
Q 3344 2578 2956 2516 
Q 3422 2416 3680 2098 
Q 3938 1781 3938 1306 
Q 3938 681 3513 340 
Q 3088 0 2303 0 
L 628 0 
L 628 4666 
z
" transform="scale(0.015625)"/>
       <path id="DejaVuSans-6f" d="M 1959 3097 
Q 1497 3097 1228 2736 
Q 959 2375 959 1747 
Q 959 1119 1226 758 
Q 1494 397 1959 397 
Q 2419 397 2687 759 
Q 2956 1122 2956 1747 
Q 2956 2369 2687 2733 
Q 2419 3097 1959 3097 
z
M 1959 3584 
Q 2709 3584 3137 3096 
Q 3566 2609 3566 1747 
Q 3566 888 3137 398 
Q 2709 -91 1959 -91 
Q 1206 -91 779 398 
Q 353 888 353 1747 
Q 353 2609 779 3096 
Q 1206 3584 1959 3584 
z
" transform="scale(0.015625)"/>
       <path id="DejaVuSans-73" d="M 2834 3397 
L 2834 2853 
Q 2591 2978 2328 3040 
Q 2066 3103 1784 3103 
Q 1356 3103 1142 2972 
Q 928 2841 928 2578 
Q 928 2378 1081 2264 
Q 1234 2150 1697 2047 
L 1894 2003 
Q 2506 1872 2764 1633 
Q 3022 1394 3022 966 
Q 3022 478 2636 193 
Q 2250 -91 1575 -91 
Q 1294 -91 989 -36 
Q 684 19 347 128 
L 347 722 
Q 666 556 975 473 
Q 1284 391 1588 391 
Q 1994 391 2212 530 
Q 2431 669 2431 922 
Q 2431 1156 2273 1281 
Q 2116 1406 1581 1522 
L 1381 1569 
Q 847 1681 609 1914 
Q 372 2147 372 2553 
Q 372 3047 722 3315 
Q 1072 3584 1716 3584 
Q 2034 3584 2315 3537 
Q 2597 3491 2834 3397 
z
" transform="scale(0.015625)"/>
       <path id="DejaVuSans-74" d="M 1172 4494 
L 1172 3500 
L 2356 3500 
L 2356 3053 
L 1172 3053 
L 1172 1153 
Q 1172 725 1289 603 
Q 1406 481 1766 481 
L 2356 481 
L 2356 0 
L 1766 0 
Q 1100 0 847 248 
Q 594 497 594 1153 
L 594 3053 
L 172 3053 
L 172 3500 
L 594 3500 
L 594 4494 
L 1172 4494 
z
" transform="scale(0.015625)"/>
       <path id="DejaVuSans-29" d="M 513 4856 
L 1013 4856 
Q 1481 4119 1714 3412 
Q 1947 2706 1947 2009 
Q 1947 1309 1714 600 
Q 1481 -109 1013 -844 
L 513 -844 
Q 928 -128 1133 580 
Q 1338 1288 1338 2009 
Q 1338 2731 1133 3434 
Q 928 4138 513 4856 
z
" transform="scale(0.015625)"/>
      </defs>
      <use xlink:href="#DejaVuSans-9884"/>
      <use xlink:href="#DejaVuSans-6d4b" transform="translate(60.009766 0)"/>
      <use xlink:href="#DejaVuSans-503c" transform="translate(120.019531 0)"/>
      <use xlink:href="#DejaVuSans-20" transform="translate(180.029297 0)"/>
      <use xlink:href="#DejaVuSans-28" transform="translate(211.816406 0)"/>
      <use xlink:href="#DejaVuSans-53" transform="translate(250.830078 0)"/>
      <use xlink:href="#DejaVuSans-41" transform="translate(316.181641 0)"/>
      <use xlink:href="#DejaVuSans-52" transform="translate(384.589844 0)"/>
      <use xlink:href="#DejaVuSans-49" transform="translate(454.072266 0)"/>
      <use xlink:href="#DejaVuSans-4d" transform="translate(483.564453 0)"/>
      <use xlink:href="#DejaVuSans-41" transform="translate(569.84375 0)"/>
      <use xlink:href="#DejaVuSans-20" transform="translate(638.251953 0)"/>
      <use xlink:href="#DejaVuSans-2b" transform="translate(670.039062 0)"/>
      <use xlink:href="#DejaVuSans-20" transform="translate(753.828125 0)"/>
      <use xlink:href="#DejaVuSans-58" transform="translate(785.615234 0)"/>
      <use xlink:href="#DejaVuSans-47" transform="translate(854.121094 0)"/>
      <use xlink:href="#DejaVuSans-42" transform="translate(931.611328 0)"/>
      <use xlink:href="#DejaVuSans-6f" transform="translate(1000.214844 0)"/>
      <use xlink:href="#DejaVuSans-6f" transform="translate(1061.396484 0)"/>
      <use xlink:href="#DejaVuSans-73" transform="translate(1122.578125 0)"/>
      <use xlink:href="#DejaVuSans-74" transform="translate(1174.677734 0)"/>
      <use xlink:href="#DejaVuSans-29" transform="translate(1213.886719 0)"/>
     </g>
    </g>
   </g>
  </g>
 </g>
 <defs>
  <clipPath id="pf69b5c024c">
   <rect x="35.932188" y="40.772875" width="669.39" height="344.8616"/>
  </clipPath>
 </defs>
</svg>
