<?xml version="1.0" encoding="utf-8" standalone="no"?>
<!DOCTYPE svg PUBLIC "-//W3C//DTD SVG 1.1//EN"
  "http://www.w3.org/Graphics/SVG/1.1/DTD/svg11.dtd">
<svg xmlns:xlink="http://www.w3.org/1999/xlink" width="712.92625pt" height="423.989062pt" viewBox="0 0 712.92625 423.989062" xmlns="http://www.w3.org/2000/svg" version="1.1">
 <metadata>
  <rdf:RDF xmlns:dc="http://purl.org/dc/elements/1.1/" xmlns:cc="http://creativecommons.org/ns#" xmlns:rdf="http://www.w3.org/1999/02/22-rdf-syntax-ns#">
   <cc:Work>
    <dc:type rdf:resource="http://purl.org/dc/dcmitype/StillImage"/>
    <dc:date>2025-04-23T00:04:41.778758</dc:date>
    <dc:format>image/svg+xml</dc:format>
    <dc:creator>
     <cc:Agent>
      <dc:title>Matplotlib v3.10.0, https://matplotlib.org/</dc:title>
     </cc:Agent>
    </dc:creator>
   </cc:Work>
  </rdf:RDF>
 </metadata>
 <defs>
  <style type="text/css">*{stroke-linejoin: round; stroke-linecap: butt}</style>
 </defs>
 <g id="figure_1">
  <g id="patch_1">
   <path d="M 0 423.989062 
L 712.92625 423.989062 
L 712.92625 0 
L 0 0 
z
" style="fill: #ffffff"/>
  </g>
  <g id="axes_1">
   <g id="patch_2">
    <path d="M 37.73125 392.71875 
L 705.72625 392.71875 
L 705.72625 27.04375 
L 37.73125 27.04375 
z
" style="fill: #ffffff"/>
   </g>
   <g id="matplotlib.axis_1">
    <g id="xtick_1">
     <g id="line2d_1">
      <path d="M 67.817494 392.71875 
L 67.817494 27.04375 
" clip-path="url(#pf9da80d6e4)" style="fill: none; stroke-dasharray: 1.85,0.8; stroke-dashoffset: 0; stroke: #b2b2b2; stroke-opacity: 0.3; stroke-width: 0.5"/>
     </g>
     <g id="line2d_2">
      <defs>
       <path id="md2f358851f" d="M 0 0 
L 0 -3.5 
" style="stroke: #000000; stroke-width: 0.8"/>
      </defs>
      <g>
       <use xlink:href="#md2f358851f" x="67.817494" y="392.71875" style="stroke: #000000; stroke-width: 0.8"/>
      </g>
     </g>
     <g id="text_1">
      <!-- 0 -->
      <g transform="translate(65.567494 402.40625) scale(0.09 -0.09)">
       <defs>
        <path id="SimHei-30" d="M 225 2537 
Q 250 3200 412 3587 
Q 575 3975 875 4225 
Q 1175 4475 1612 4475 
Q 2050 4475 2375 4112 
Q 2700 3750 2800 3200 
Q 2900 2650 2862 1937 
Q 2825 1225 2612 775 
Q 2400 325 1975 150 
Q 1550 -25 1125 187 
Q 700 400 525 750 
Q 350 1100 275 1487 
Q 200 1875 225 2537 
z
M 750 2687 
Q 675 2000 800 1462 
Q 925 925 1212 700 
Q 1500 475 1800 612 
Q 2100 750 2237 1162 
Q 2375 1575 2375 2062 
Q 2375 2550 2337 2950 
Q 2300 3350 2112 3675 
Q 1925 4000 1612 4012 
Q 1300 4025 1062 3700 
Q 825 3375 750 2687 
z
" transform="scale(0.015625)"/>
       </defs>
       <use xlink:href="#SimHei-30"/>
      </g>
     </g>
    </g>
    <g id="xtick_2">
     <g id="line2d_3">
      <path d="M 206.399918 392.71875 
L 206.399918 27.04375 
" clip-path="url(#pf9da80d6e4)" style="fill: none; stroke-dasharray: 1.85,0.8; stroke-dashoffset: 0; stroke: #b2b2b2; stroke-opacity: 0.3; stroke-width: 0.5"/>
     </g>
     <g id="line2d_4">
      <g>
       <use xlink:href="#md2f358851f" x="206.399918" y="392.71875" style="stroke: #000000; stroke-width: 0.8"/>
      </g>
     </g>
     <g id="text_2">
      <!-- 500 -->
      <g transform="translate(199.649918 402.40625) scale(0.09 -0.09)">
       <defs>
        <path id="SimHei-35" d="M 550 1325 
Q 725 650 1150 575 
Q 1575 500 1837 662 
Q 2100 825 2212 1087 
Q 2325 1350 2312 1675 
Q 2300 2000 2137 2225 
Q 1975 2450 1725 2525 
Q 1475 2600 1162 2525 
Q 850 2450 650 2175 
L 225 2225 
Q 275 2375 700 4375 
L 2675 4375 
L 2675 3925 
L 1075 3925 
Q 950 3250 825 2850 
Q 1200 3025 1525 3012 
Q 1850 3000 2150 2862 
Q 2450 2725 2587 2487 
Q 2725 2250 2787 2012 
Q 2850 1775 2837 1500 
Q 2825 1225 2725 937 
Q 2625 650 2425 462 
Q 2225 275 1937 162 
Q 1650 50 1275 75 
Q 900 100 562 350 
Q 225 600 100 1200 
L 550 1325 
z
" transform="scale(0.015625)"/>
       </defs>
       <use xlink:href="#SimHei-35"/>
       <use xlink:href="#SimHei-30" transform="translate(50 0)"/>
       <use xlink:href="#SimHei-30" transform="translate(100 0)"/>
      </g>
     </g>
    </g>
    <g id="xtick_3">
     <g id="line2d_5">
      <path d="M 344.982342 392.71875 
L 344.982342 27.04375 
" clip-path="url(#pf9da80d6e4)" style="fill: none; stroke-dasharray: 1.85,0.8; stroke-dashoffset: 0; stroke: #b2b2b2; stroke-opacity: 0.3; stroke-width: 0.5"/>
     </g>
     <g id="line2d_6">
      <g>
       <use xlink:href="#md2f358851f" x="344.982342" y="392.71875" style="stroke: #000000; stroke-width: 0.8"/>
      </g>
     </g>
     <g id="text_3">
      <!-- 1000 -->
      <g transform="translate(335.982342 402.40625) scale(0.09 -0.09)">
       <defs>
        <path id="SimHei-31" d="M 1400 3600 
Q 1075 3275 575 2975 
L 575 3450 
Q 1200 3875 1600 4450 
L 1900 4450 
L 1900 150 
L 1400 150 
L 1400 3600 
z
" transform="scale(0.015625)"/>
       </defs>
       <use xlink:href="#SimHei-31"/>
       <use xlink:href="#SimHei-30" transform="translate(50 0)"/>
       <use xlink:href="#SimHei-30" transform="translate(100 0)"/>
       <use xlink:href="#SimHei-30" transform="translate(150 0)"/>
      </g>
     </g>
    </g>
    <g id="xtick_4">
     <g id="line2d_7">
      <path d="M 483.564766 392.71875 
L 483.564766 27.04375 
" clip-path="url(#pf9da80d6e4)" style="fill: none; stroke-dasharray: 1.85,0.8; stroke-dashoffset: 0; stroke: #b2b2b2; stroke-opacity: 0.3; stroke-width: 0.5"/>
     </g>
     <g id="line2d_8">
      <g>
       <use xlink:href="#md2f358851f" x="483.564766" y="392.71875" style="stroke: #000000; stroke-width: 0.8"/>
      </g>
     </g>
     <g id="text_4">
      <!-- 1500 -->
      <g transform="translate(474.564766 402.40625) scale(0.09 -0.09)">
       <use xlink:href="#SimHei-31"/>
       <use xlink:href="#SimHei-35" transform="translate(50 0)"/>
       <use xlink:href="#SimHei-30" transform="translate(100 0)"/>
       <use xlink:href="#SimHei-30" transform="translate(150 0)"/>
      </g>
     </g>
    </g>
    <g id="xtick_5">
     <g id="line2d_9">
      <path d="M 622.14719 392.71875 
L 622.14719 27.04375 
" clip-path="url(#pf9da80d6e4)" style="fill: none; stroke-dasharray: 1.85,0.8; stroke-dashoffset: 0; stroke: #b2b2b2; stroke-opacity: 0.3; stroke-width: 0.5"/>
     </g>
     <g id="line2d_10">
      <g>
       <use xlink:href="#md2f358851f" x="622.14719" y="392.71875" style="stroke: #000000; stroke-width: 0.8"/>
      </g>
     </g>
     <g id="text_5">
      <!-- 2000 -->
      <g transform="translate(613.14719 402.40625) scale(0.09 -0.09)">
       <defs>
        <path id="SimHei-32" d="M 300 250 
Q 325 625 650 925 
Q 975 1225 1475 1862 
Q 1975 2500 2125 2850 
Q 2275 3200 2237 3450 
Q 2200 3700 2000 3862 
Q 1800 4025 1537 4000 
Q 1275 3975 1037 3800 
Q 800 3625 675 3275 
L 200 3350 
Q 400 3925 712 4187 
Q 1025 4450 1450 4475 
Q 1700 4500 1900 4462 
Q 2100 4425 2312 4287 
Q 2525 4150 2662 3875 
Q 2800 3600 2762 3212 
Q 2725 2825 2375 2287 
Q 2025 1750 1025 600 
L 2825 600 
L 2825 150 
L 300 150 
L 300 250 
z
" transform="scale(0.015625)"/>
       </defs>
       <use xlink:href="#SimHei-32"/>
       <use xlink:href="#SimHei-30" transform="translate(50 0)"/>
       <use xlink:href="#SimHei-30" transform="translate(100 0)"/>
       <use xlink:href="#SimHei-30" transform="translate(150 0)"/>
      </g>
     </g>
    </g>
    <g id="text_6">
     <!-- 时间 / 序号 -->
     <g transform="translate(344.22875 415.539062) scale(0.1 -0.1)">
      <defs>
       <path id="SimHei-65f6" d="M 2525 4575 
Q 2500 3675 2500 2400 
Q 2500 1125 2525 400 
L 2000 400 
L 2000 875 
L 1000 875 
L 1000 50 
L 475 50 
Q 500 1200 500 2350 
Q 500 3525 475 4575 
L 2525 4575 
z
M 4875 3825 
Q 4875 4575 4850 5225 
L 5400 5225 
Q 5375 4575 5375 3825 
Q 5750 3825 6175 3850 
L 6175 3375 
Q 5750 3400 5375 3400 
L 5375 50 
Q 5375 -325 5075 -425 
Q 4775 -525 4300 -575 
Q 4300 -275 4025 0 
Q 4500 -50 4687 -25 
Q 4875 0 4875 300 
L 4875 3400 
Q 3625 3400 2775 3375 
L 2775 3850 
Q 3575 3825 4875 3825 
z
M 2000 1300 
L 2000 2550 
L 1000 2550 
L 1000 1300 
L 2000 1300 
z
M 2000 2975 
L 2000 4150 
L 1000 4150 
L 1000 2975 
L 2000 2975 
z
M 3550 2725 
Q 3875 2200 4175 1600 
Q 3925 1525 3650 1375 
Q 3450 1975 3075 2500 
Q 3300 2600 3550 2725 
z
" transform="scale(0.015625)"/>
       <path id="SimHei-95f4" d="M 4450 3550 
Q 4425 3075 4425 2725 
L 4425 1400 
Q 4425 1075 4450 625 
L 1925 625 
Q 1950 1075 1950 1425 
L 1950 2725 
Q 1950 3075 1925 3550 
L 4450 3550 
z
M 5800 4875 
Q 5775 4400 5775 3925 
L 5775 250 
Q 5800 -325 5462 -450 
Q 5125 -575 4725 -625 
Q 4700 -325 4525 -25 
Q 5000 -50 5137 25 
Q 5275 100 5275 350 
L 5275 4450 
L 3775 4450 
Q 3175 4450 2650 4425 
L 2650 4900 
Q 3175 4875 3775 4875 
L 5800 4875 
z
M 550 -525 
Q 600 -25 600 525 
L 600 3150 
Q 600 3675 550 4025 
L 1125 4025 
Q 1100 3650 1100 3300 
L 1100 500 
Q 1100 0 1125 -525 
L 550 -525 
z
M 3950 1025 
L 3950 1950 
L 2425 1950 
L 2425 1025 
L 3950 1025 
z
M 3950 2350 
L 3950 3150 
L 2425 3150 
L 2425 2350 
L 3950 2350 
z
M 1525 5300 
Q 1750 5000 2225 4350 
Q 1950 4225 1700 4075 
Q 1450 4575 1075 5025 
Q 1350 5225 1525 5300 
z
" transform="scale(0.015625)"/>
       <path id="SimHei-20" transform="scale(0.015625)"/>
       <path id="SimHei-2f" d="M 3000 4550 
L 350 -175 
L 100 -25 
L 2750 4700 
L 3000 4550 
z
" transform="scale(0.015625)"/>
       <path id="SimHei-5e8f" d="M 4000 2075 
L 5975 2075 
Q 5750 1525 5575 1025 
Q 5325 1100 5050 1150 
Q 5175 1450 5275 1700 
L 4050 1700 
L 4050 150 
Q 4050 -375 3762 -462 
Q 3475 -550 2950 -575 
Q 2875 -300 2750 0 
Q 3350 -75 3475 25 
Q 3600 125 3575 375 
L 3575 1700 
L 2450 1700 
Q 2050 1700 1675 1675 
L 1675 2100 
Q 2100 2075 2425 2075 
L 3675 2075 
Q 3325 2400 2875 2775 
Q 2975 2875 3250 3100 
Q 3400 2975 3725 2725 
L 4575 3275 
L 3000 3275 
Q 2400 3275 1950 3250 
L 1950 3700 
Q 2400 3675 3000 3675 
L 5400 3675 
L 5400 3250 
Q 4700 2875 4025 2450 
L 4275 2250 
L 4000 2075 
z
M 3725 5275 
Q 3825 4925 3925 4525 
L 4850 4525 
Q 5425 4525 6000 4550 
L 6000 4125 
Q 5425 4150 4850 4150 
L 1400 4150 
Q 1400 2750 1362 2137 
Q 1325 1525 1200 887 
Q 1075 250 775 -350 
Q 625 -250 250 -125 
Q 475 300 600 700 
Q 725 1100 800 1637 
Q 875 2175 875 2825 
Q 875 3500 850 4525 
L 3350 4525 
Q 3275 4825 3150 5150 
Q 3425 5200 3725 5275 
z
" transform="scale(0.015625)"/>
       <path id="SimHei-53f7" d="M 5025 4925 
Q 5000 4550 5000 4075 
Q 5000 3600 5025 3175 
L 1400 3175 
Q 1425 3525 1425 4000 
Q 1425 4500 1400 4925 
L 5025 4925 
z
M 5175 2625 
Q 5650 2625 6025 2650 
L 6025 2200 
Q 5650 2225 5175 2225 
L 2450 2225 
Q 2350 1875 2225 1450 
L 5175 1450 
Q 5100 1050 5062 775 
Q 5025 500 4950 112 
Q 4875 -275 4650 -412 
Q 4425 -550 3225 -625 
Q 3125 -350 2975 -50 
Q 3875 -75 4112 -50 
Q 4350 -25 4425 212 
Q 4500 450 4575 1025 
L 1600 1025 
Q 1825 1625 1950 2225 
L 1350 2225 
Q 825 2225 375 2200 
L 375 2650 
Q 825 2625 1350 2625 
L 5175 2625 
z
M 4525 3575 
L 4525 4525 
L 1900 4525 
L 1900 3575 
L 4525 3575 
z
" transform="scale(0.015625)"/>
      </defs>
      <use xlink:href="#SimHei-65f6"/>
      <use xlink:href="#SimHei-95f4" transform="translate(100 0)"/>
      <use xlink:href="#SimHei-20" transform="translate(200 0)"/>
      <use xlink:href="#SimHei-2f" transform="translate(250 0)"/>
      <use xlink:href="#SimHei-20" transform="translate(300 0)"/>
      <use xlink:href="#SimHei-5e8f" transform="translate(350 0)"/>
      <use xlink:href="#SimHei-53f7" transform="translate(450 0)"/>
     </g>
    </g>
   </g>
   <g id="matplotlib.axis_2">
    <g id="ytick_1">
     <g id="line2d_11">
      <path d="M 37.73125 382.566921 
L 705.72625 382.566921 
" clip-path="url(#pf9da80d6e4)" style="fill: none; stroke-dasharray: 1.85,0.8; stroke-dashoffset: 0; stroke: #b2b2b2; stroke-opacity: 0.3; stroke-width: 0.5"/>
     </g>
     <g id="line2d_12">
      <defs>
       <path id="m1454ab3370" d="M 0 0 
L 3.5 0 
" style="stroke: #000000; stroke-width: 0.8"/>
      </defs>
      <g>
       <use xlink:href="#m1454ab3370" x="37.73125" y="382.566921" style="stroke: #000000; stroke-width: 0.8"/>
      </g>
     </g>
     <g id="text_7">
      <!-- -15 -->
      <g transform="translate(20.73125 385.660671) scale(0.09 -0.09)">
       <defs>
        <path id="SimHei-2d" d="M 2975 2125 
L 125 2125 
L 125 2525 
L 2975 2525 
L 2975 2125 
z
" transform="scale(0.015625)"/>
       </defs>
       <use xlink:href="#SimHei-2d"/>
       <use xlink:href="#SimHei-31" transform="translate(50 0)"/>
       <use xlink:href="#SimHei-35" transform="translate(100 0)"/>
      </g>
     </g>
    </g>
    <g id="ytick_2">
     <g id="line2d_13">
      <path d="M 37.73125 318.526562 
L 705.72625 318.526562 
" clip-path="url(#pf9da80d6e4)" style="fill: none; stroke-dasharray: 1.85,0.8; stroke-dashoffset: 0; stroke: #b2b2b2; stroke-opacity: 0.3; stroke-width: 0.5"/>
     </g>
     <g id="line2d_14">
      <g>
       <use xlink:href="#m1454ab3370" x="37.73125" y="318.526562" style="stroke: #000000; stroke-width: 0.8"/>
      </g>
     </g>
     <g id="text_8">
      <!-- -10 -->
      <g transform="translate(20.73125 321.620312) scale(0.09 -0.09)">
       <use xlink:href="#SimHei-2d"/>
       <use xlink:href="#SimHei-31" transform="translate(50 0)"/>
       <use xlink:href="#SimHei-30" transform="translate(100 0)"/>
      </g>
     </g>
    </g>
    <g id="ytick_3">
     <g id="line2d_15">
      <path d="M 37.73125 254.486203 
L 705.72625 254.486203 
" clip-path="url(#pf9da80d6e4)" style="fill: none; stroke-dasharray: 1.85,0.8; stroke-dashoffset: 0; stroke: #b2b2b2; stroke-opacity: 0.3; stroke-width: 0.5"/>
     </g>
     <g id="line2d_16">
      <g>
       <use xlink:href="#m1454ab3370" x="37.73125" y="254.486203" style="stroke: #000000; stroke-width: 0.8"/>
      </g>
     </g>
     <g id="text_9">
      <!-- -5 -->
      <g transform="translate(25.23125 257.579953) scale(0.09 -0.09)">
       <use xlink:href="#SimHei-2d"/>
       <use xlink:href="#SimHei-35" transform="translate(50 0)"/>
      </g>
     </g>
    </g>
    <g id="ytick_4">
     <g id="line2d_17">
      <path d="M 37.73125 190.445844 
L 705.72625 190.445844 
" clip-path="url(#pf9da80d6e4)" style="fill: none; stroke-dasharray: 1.85,0.8; stroke-dashoffset: 0; stroke: #b2b2b2; stroke-opacity: 0.3; stroke-width: 0.5"/>
     </g>
     <g id="line2d_18">
      <g>
       <use xlink:href="#m1454ab3370" x="37.73125" y="190.445844" style="stroke: #000000; stroke-width: 0.8"/>
      </g>
     </g>
     <g id="text_10">
      <!-- 0 -->
      <g transform="translate(29.73125 193.539594) scale(0.09 -0.09)">
       <use xlink:href="#SimHei-30"/>
      </g>
     </g>
    </g>
    <g id="ytick_5">
     <g id="line2d_19">
      <path d="M 37.73125 126.405485 
L 705.72625 126.405485 
" clip-path="url(#pf9da80d6e4)" style="fill: none; stroke-dasharray: 1.85,0.8; stroke-dashoffset: 0; stroke: #b2b2b2; stroke-opacity: 0.3; stroke-width: 0.5"/>
     </g>
     <g id="line2d_20">
      <g>
       <use xlink:href="#m1454ab3370" x="37.73125" y="126.405485" style="stroke: #000000; stroke-width: 0.8"/>
      </g>
     </g>
     <g id="text_11">
      <!-- 5 -->
      <g transform="translate(29.73125 129.499235) scale(0.09 -0.09)">
       <use xlink:href="#SimHei-35"/>
      </g>
     </g>
    </g>
    <g id="ytick_6">
     <g id="line2d_21">
      <path d="M 37.73125 62.365126 
L 705.72625 62.365126 
" clip-path="url(#pf9da80d6e4)" style="fill: none; stroke-dasharray: 1.85,0.8; stroke-dashoffset: 0; stroke: #b2b2b2; stroke-opacity: 0.3; stroke-width: 0.5"/>
     </g>
     <g id="line2d_22">
      <g>
       <use xlink:href="#m1454ab3370" x="37.73125" y="62.365126" style="stroke: #000000; stroke-width: 0.8"/>
      </g>
     </g>
     <g id="text_12">
      <!-- 10 -->
      <g transform="translate(25.23125 65.458876) scale(0.09 -0.09)">
       <use xlink:href="#SimHei-31"/>
       <use xlink:href="#SimHei-30" transform="translate(50 0)"/>
      </g>
     </g>
    </g>
    <g id="text_13">
     <!-- 残差值 -->
     <g transform="translate(15.403125 224.88125) rotate(-90) scale(0.1 -0.1)">
      <defs>
       <path id="SimHei-6b8b" d="M 5700 3350 
Q 5325 3300 4900 3225 
Q 4475 3150 4075 3075 
Q 4100 2700 4150 2325 
Q 4625 2425 4987 2500 
Q 5350 2575 5925 2725 
L 6000 2250 
Q 5775 2225 5300 2137 
Q 4825 2050 4200 1900 
Q 4300 1375 4475 1075 
Q 5025 1500 5325 1950 
Q 5525 1750 5800 1550 
Q 5550 1425 5350 1237 
Q 5150 1050 4675 650 
Q 5000 200 5275 37 
Q 5550 -125 5600 -12 
Q 5650 100 5625 525 
Q 5825 325 6175 300 
Q 6125 -850 5450 -587 
Q 4775 -325 4275 400 
Q 3950 150 3537 -75 
Q 3125 -300 2625 -525 
Q 2475 -250 2250 -100 
Q 2775 50 3200 262 
Q 3625 475 4075 775 
Q 3850 1225 3750 1800 
Q 3100 1675 2700 1525 
L 2575 2025 
Q 3300 2125 3700 2225 
Q 3650 2600 3625 3000 
Q 3225 2950 2800 2850 
L 2675 3325 
Q 3150 3375 3600 3450 
Q 3575 3925 3550 4275 
Q 3525 4625 3475 5125 
Q 3775 5075 4050 5075 
Q 4025 4700 4012 4412 
Q 4000 4125 4050 3525 
Q 5200 3725 5625 3850 
L 5700 3350 
z
M 2125 4650 
Q 2450 4650 2800 4675 
L 2800 4175 
Q 2450 4200 2125 4200 
L 1675 4200 
Q 1550 3700 1425 3225 
L 2600 3225 
Q 2525 2500 2400 1925 
Q 2275 1350 2050 925 
Q 1825 500 1512 137 
Q 1200 -225 675 -625 
Q 525 -400 250 -225 
Q 700 25 1037 375 
Q 1375 725 1575 1075 
Q 1275 1450 950 1750 
Q 1125 1900 1250 2100 
Q 1550 1825 1800 1550 
Q 2025 2175 2075 2775 
L 1300 2775 
Q 1125 2375 987 2150 
Q 850 1925 550 1525 
Q 350 1825 200 1925 
Q 575 2300 825 2862 
Q 1075 3425 1200 4200 
Q 775 4200 375 4175 
L 375 4675 
Q 750 4650 1075 4650 
L 2125 4650 
z
M 4825 4975 
Q 5150 4575 5425 4175 
Q 5125 4050 4975 3900 
Q 4750 4325 4400 4700 
Q 4600 4825 4825 4975 
z
" transform="scale(0.015625)"/>
       <path id="SimHei-5dee" d="M 4725 4975 
Q 4500 4725 4250 4275 
L 4850 4275 
Q 5450 4275 5825 4300 
L 5825 3850 
Q 5425 3875 4850 3875 
L 3275 3875 
Q 3225 3600 3150 3275 
L 4525 3275 
Q 5075 3275 5525 3300 
L 5525 2850 
Q 5075 2875 4500 2875 
L 3050 2875 
Q 2975 2650 2850 2325 
L 5125 2325 
Q 5675 2325 6025 2350 
L 6025 1900 
Q 5700 1925 5150 1925 
L 2650 1925 
Q 2425 1550 2250 1300 
Q 2650 1275 3100 1275 
L 4525 1275 
Q 4975 1275 5350 1300 
L 5350 850 
Q 4975 875 4575 875 
L 3925 875 
L 3925 -50 
L 5000 -50 
Q 5200 -50 5900 -25 
L 5900 -500 
Q 5275 -475 5025 -475 
L 2100 -475 
Q 1700 -475 1400 -500 
L 1400 -25 
Q 1775 -50 2125 -50 
L 3425 -50 
L 3425 875 
L 3100 875 
Q 2625 875 2175 850 
L 2175 1200 
Q 1925 875 1487 475 
Q 1050 75 625 -250 
Q 425 -25 200 150 
Q 750 475 1262 925 
Q 1775 1375 2100 1925 
L 1325 1925 
Q 750 1925 375 1900 
L 375 2350 
Q 750 2325 1350 2325 
L 2325 2325 
Q 2450 2575 2550 2875 
L 1725 2875 
Q 1375 2875 1000 2850 
L 1000 3300 
Q 1500 3275 1700 3275 
L 2650 3275 
Q 2725 3575 2775 3875 
L 1500 3875 
Q 1100 3875 650 3850 
L 650 4300 
Q 1025 4275 1425 4275 
L 2275 4275 
Q 2075 4675 1850 4950 
Q 2025 5050 2250 5225 
Q 2450 4975 2725 4550 
Q 2525 4450 2325 4275 
L 3750 4275 
Q 4000 4700 4150 5250 
Q 4400 5100 4725 4975 
z
" transform="scale(0.015625)"/>
       <path id="SimHei-503c" d="M 3675 4450 
L 3675 5100 
Q 3975 5075 4350 5050 
Q 4225 4875 4200 4450 
L 5125 4450 
Q 5550 4450 5875 4475 
L 5875 4025 
Q 5525 4050 5125 4050 
L 4175 4050 
L 4125 3500 
L 5400 3500 
Q 5375 3200 5375 2700 
L 5375 150 
Q 5875 150 6100 175 
L 6100 -275 
Q 5775 -250 5200 -250 
L 2850 -250 
Q 2275 -250 1900 -275 
L 1900 175 
Q 2125 150 2600 150 
L 2600 2700 
Q 2600 3175 2575 3500 
L 3600 3500 
L 3650 4050 
L 3200 4050 
Q 2575 4050 2225 4025 
L 2225 4475 
Q 2550 4450 3200 4450 
L 3675 4450 
z
M 2225 4900 
Q 2025 4675 1650 3750 
L 1650 450 
Q 1650 -75 1675 -550 
L 1150 -550 
Q 1175 -125 1175 375 
L 1175 2950 
Q 875 2450 625 2150 
Q 425 2425 250 2575 
Q 500 2825 937 3537 
Q 1375 4250 1625 5150 
Q 1975 4975 2225 4900 
z
M 4925 2650 
L 4925 3150 
L 3075 3150 
L 3075 2650 
L 4925 2650 
z
M 4925 150 
L 4925 625 
L 3075 625 
L 3075 150 
L 4925 150 
z
M 4925 1000 
L 4925 1450 
L 3075 1450 
L 3075 1000 
L 4925 1000 
z
M 4925 1825 
L 4925 2275 
L 3075 2275 
L 3075 1825 
L 4925 1825 
z
" transform="scale(0.015625)"/>
      </defs>
      <use xlink:href="#SimHei-6b8b"/>
      <use xlink:href="#SimHei-5dee" transform="translate(100 0)"/>
      <use xlink:href="#SimHei-503c" transform="translate(200 0)"/>
     </g>
    </g>
   </g>
   <g id="line2d_23">
    <path d="M 68.094659 43.665341 
L 68.371824 191.85461 
L 68.648989 198.130585 
L 68.926154 163.036548 
L 69.203318 198.514888 
L 69.480483 203.766168 
L 69.757648 178.278219 
L 70.034813 190.445886 
L 70.311978 195.440963 
L 70.589143 186.731531 
L 70.866308 160.218866 
L 71.143472 198.899158 
L 71.420637 283.5605 
L 71.697802 199.796052 
L 71.974967 178.967769 
L 72.252132 228.572176 
L 72.529297 179.0982 
L 72.806462 181.517063 
L 73.083626 196.613436 
L 73.360791 161.244349 
L 73.637956 215.360699 
L 73.915121 160.191407 
L 74.192286 214.754396 
L 74.469451 245.851016 
L 74.746615 75.365655 
L 75.02378 137.998947 
L 75.300945 151.507785 
L 75.57811 220.067861 
L 75.855275 120.056477 
L 76.13244 194.814157 
L 76.409605 188.783634 
L 76.686769 198.621742 
L 76.963934 171.864913 
L 77.241099 216.247151 
L 77.518264 211.526984 
L 77.795429 159.868597 
L 78.072594 217.870734 
L 78.349758 176.079095 
L 78.626923 182.211547 
L 78.904088 191.763367 
L 79.181253 175.788961 
L 79.458418 177.909196 
L 79.735583 203.273169 
L 80.012748 217.054114 
L 80.289912 206.857227 
L 80.567077 222.321016 
L 80.844242 185.672653 
L 81.121407 259.968807 
L 81.398572 272.317539 
L 81.675737 195.749991 
L 81.952901 312.115485 
L 82.230066 207.202623 
L 82.507231 260.780851 
L 82.784396 211.952738 
L 83.061561 190.531486 
L 83.338726 219.149271 
L 83.615891 181.125102 
L 83.893055 192.402267 
L 84.17022 185.144255 
L 84.447385 151.869935 
L 84.72455 212.266167 
L 85.001715 219.176089 
L 85.27888 165.309098 
L 85.556045 161.342562 
L 85.833209 203.700996 
L 86.110374 170.304863 
L 86.387539 192.233023 
L 86.664704 170.064599 
L 86.941869 180.263689 
L 87.219034 173.443189 
L 87.496198 201.421329 
L 87.773363 158.731246 
L 88.050528 178.997115 
L 88.327693 207.94411 
L 88.604858 167.79524 
L 89.159188 202.105096 
L 89.436352 193.238784 
L 89.713517 194.461566 
L 89.990682 180.983486 
L 90.267847 183.525378 
L 90.822177 196.760667 
L 91.099341 159.936088 
L 91.376506 170.494098 
L 91.653671 203.394069 
L 91.930836 162.047205 
L 92.208001 193.413764 
L 92.485166 180.499041 
L 92.762331 188.364291 
L 93.039495 188.707747 
L 93.31666 191.709888 
L 93.593825 191.295621 
L 93.87099 185.780287 
L 94.148155 194.378237 
L 94.42532 191.491315 
L 94.702484 194.060839 
L 94.979649 189.308807 
L 95.256814 193.439567 
L 95.533979 191.136355 
L 95.811144 256.254211 
L 96.088309 279.933243 
L 96.365474 222.193496 
L 96.642638 220.826304 
L 97.196968 108.226814 
L 97.474133 121.636745 
L 97.751298 161.605607 
L 98.028463 123.935146 
L 98.305628 175.242803 
L 98.582792 159.587848 
L 98.859957 172.808394 
L 99.137122 156.803449 
L 99.414287 170.161039 
L 99.691452 177.870745 
L 99.968617 212.859417 
L 100.245781 169.281591 
L 100.522946 209.127117 
L 100.800111 206.771906 
L 101.077276 220.316215 
L 101.354441 217.16088 
L 101.631606 191.527703 
L 101.908771 212.895483 
L 102.4631 176.756784 
L 102.740265 135.200704 
L 103.01743 181.298565 
L 103.294595 168.634516 
L 103.57176 208.457526 
L 103.848924 231.049168 
L 104.126089 227.672194 
L 104.403254 200.721703 
L 104.680419 226.552802 
L 104.957584 169.23251 
L 105.234749 162.804317 
L 105.511914 227.399364 
L 105.789078 143.161541 
L 106.066243 202.019084 
L 106.343408 166.353381 
L 106.620573 182.578878 
L 106.897738 212.21685 
L 107.174903 190.768884 
L 107.729232 174.329889 
L 108.006397 232.630258 
L 108.283562 232.630629 
L 108.560727 231.92048 
L 108.837892 201.611517 
L 109.115057 190.521243 
L 109.392221 211.598212 
L 109.669386 205.288972 
L 109.946551 181.668967 
L 110.223716 181.586696 
L 110.500881 211.666237 
L 110.778046 197.271558 
L 111.055211 194.460528 
L 111.60954 165.951311 
L 111.886705 200.901791 
L 112.16387 173.31347 
L 112.441035 204.643777 
L 112.7182 257.185367 
L 112.995364 238.869545 
L 113.272529 233.318501 
L 113.549694 206.77401 
L 113.826859 96.660189 
L 114.104024 158.02136 
L 114.658354 155.055252 
L 114.935518 177.203836 
L 115.212683 165.956766 
L 115.489848 172.937258 
L 115.767013 220.962261 
L 116.044178 135.864224 
L 116.321343 167.605261 
L 116.598507 161.026485 
L 116.875672 196.799941 
L 117.152837 212.884572 
L 117.430002 183.868965 
L 117.707167 201.94723 
L 117.984332 297.179524 
L 118.538661 122.248524 
L 118.815826 180.269613 
L 119.092991 194.968093 
L 119.370156 157.204448 
L 119.647321 160.422585 
L 119.924486 151.808718 
L 120.201651 195.274735 
L 120.478815 210.539637 
L 120.75598 214.38942 
L 121.033145 355.688955 
L 121.31031 201.844117 
L 121.587475 232.736951 
L 121.86464 249.904149 
L 122.141804 148.975427 
L 122.418969 174.700656 
L 122.696134 96.052012 
L 122.973299 100.798251 
L 123.250464 169.66464 
L 123.527629 198.206702 
L 123.804794 171.948285 
L 124.081958 218.404054 
L 124.636288 132.979048 
L 124.913453 163.759034 
L 125.190618 228.672202 
L 125.467783 176.815899 
L 125.744947 166.213057 
L 126.022112 178.835289 
L 126.299277 259.07631 
L 126.576442 207.764479 
L 126.853607 190.902847 
L 127.130772 196.305116 
L 127.407937 195.25266 
L 127.685101 122.418381 
L 127.962266 145.445 
L 128.239431 208.980524 
L 128.516596 123.209899 
L 128.793761 214.924162 
L 129.070926 230.087395 
L 129.34809 225.730206 
L 129.625255 216.330673 
L 129.90242 157.775801 
L 130.179585 164.651645 
L 130.45675 232.737608 
L 130.733915 221.56192 
L 131.01108 110.421324 
L 131.288244 198.091678 
L 131.565409 248.719045 
L 131.842574 248.081658 
L 132.119739 254.966658 
L 132.396904 210.866695 
L 132.674069 236.600244 
L 132.951234 216.47348 
L 133.228398 213.559978 
L 133.505563 198.007251 
L 133.782728 207.46732 
L 134.059893 182.229029 
L 134.337058 193.486575 
L 134.614223 218.705303 
L 134.891387 161.685689 
L 135.168552 189.361936 
L 135.445717 192.758143 
L 135.722882 168.453901 
L 136.000047 200.766388 
L 136.277212 177.415781 
L 136.554377 175.919757 
L 136.831541 207.385185 
L 137.108706 198.050407 
L 137.385871 175.761009 
L 137.663036 183.223013 
L 137.940201 138.032456 
L 138.217366 168.921647 
L 138.49453 175.712314 
L 138.771695 193.512357 
L 139.04886 189.946803 
L 139.326025 164.284039 
L 139.60319 221.474382 
L 139.880355 218.085607 
L 140.15752 154.924303 
L 140.434684 152.289037 
L 140.711849 233.677095 
L 141.266179 196.075417 
L 141.543344 155.016478 
L 141.820509 190.637302 
L 142.097673 180.804479 
L 142.374838 184.665594 
L 142.652003 191.683138 
L 142.929168 170.441348 
L 143.206333 93.972609 
L 143.483498 172.829236 
L 143.760663 175.988246 
L 144.037827 113.481939 
L 144.314992 151.231755 
L 144.592157 153.480873 
L 144.869322 222.30673 
L 145.146487 194.574864 
L 145.423652 180.984554 
L 145.700817 208.791236 
L 145.977981 197.711745 
L 146.255146 168.986461 
L 146.532311 234.849835 
L 146.809476 245.823066 
L 147.086641 196.438236 
L 147.363806 182.944646 
L 147.64097 208.788642 
L 147.918135 197.254837 
L 148.1953 160.640847 
L 148.74963 204.965956 
L 149.026795 170.921961 
L 149.30396 181.132507 
L 149.581124 149.58715 
L 149.858289 255.592235 
L 150.135454 175.613955 
L 150.689784 239.395393 
L 150.966949 191.192858 
L 151.521278 246.609363 
L 151.798443 244.379581 
L 152.075608 191.349939 
L 152.352773 184.621203 
L 152.907103 199.297786 
L 153.184267 200.989369 
L 153.461432 186.095082 
L 153.738597 202.049823 
L 154.015762 187.35641 
L 154.292927 196.259198 
L 154.570092 196.111394 
L 154.847256 151.064791 
L 155.124421 176.711676 
L 155.401586 162.078034 
L 155.955916 200.498899 
L 156.510246 185.523999 
L 156.78741 252.06501 
L 157.064575 128.892602 
L 157.34174 201.150039 
L 157.618905 183.390759 
L 157.89607 189.378468 
L 158.173235 159.12009 
L 158.4504 164.898031 
L 158.727564 178.889808 
L 159.004729 199.929412 
L 159.281894 183.572611 
L 159.559059 210.463419 
L 159.836224 177.073886 
L 160.390553 215.012106 
L 160.667718 182.307412 
L 160.944883 196.47638 
L 161.222048 196.876336 
L 161.499213 163.313218 
L 161.776378 155.479151 
L 162.053543 205.787115 
L 162.330707 198.906014 
L 162.607872 261.654216 
L 162.885037 141.268457 
L 163.162202 209.219787 
L 163.439367 194.026794 
L 163.716532 204.675498 
L 163.993696 167.413679 
L 164.548026 205.274898 
L 164.825191 188.704956 
L 165.102356 188.310311 
L 165.379521 183.134679 
L 165.656686 190.669208 
L 165.93385 143.091942 
L 166.211015 215.172726 
L 166.765345 149.506118 
L 167.04251 227.637067 
L 167.319675 162.974204 
L 167.596839 209.890396 
L 167.874004 188.827128 
L 168.151169 215.785548 
L 168.428334 223.326509 
L 168.705499 161.478428 
L 168.982664 183.663812 
L 169.259829 177.90002 
L 169.536993 184.596926 
L 169.814158 188.197384 
L 170.091323 154.443271 
L 170.368488 216.674847 
L 170.645653 194.404896 
L 170.922818 205.026028 
L 171.199983 158.237341 
L 171.477147 186.992727 
L 171.754312 194.491289 
L 172.031477 172.470726 
L 172.308642 175.671478 
L 172.585807 155.997725 
L 172.862972 153.365039 
L 173.140136 244.539688 
L 173.417301 145.523732 
L 173.694466 178.432602 
L 173.971631 236.465919 
L 174.248796 130.940472 
L 174.525961 149.654138 
L 174.803126 197.460978 
L 175.08029 195.219442 
L 175.357455 230.482983 
L 175.63462 186.218026 
L 176.18895 253.406579 
L 176.466115 206.425203 
L 176.743279 226.404763 
L 177.020444 194.301376 
L 177.297609 207.128057 
L 177.574774 211.605677 
L 177.851939 203.345316 
L 178.129104 199.095922 
L 178.406269 174.674911 
L 178.683433 189.606017 
L 178.960598 192.078018 
L 179.237763 191.353012 
L 179.514928 205.792252 
L 179.792093 161.496724 
L 180.069258 210.644229 
L 180.346423 178.87562 
L 180.623587 180.549924 
L 180.900752 205.964016 
L 181.177917 215.321033 
L 181.455082 180.248155 
L 181.732247 180.916217 
L 182.009412 198.031852 
L 182.563741 186.666089 
L 182.840906 195.274115 
L 183.118071 154.915016 
L 183.395236 190.473281 
L 183.672401 184.899413 
L 183.949566 167.639182 
L 184.503895 214.046477 
L 184.78106 212.624436 
L 185.058225 204.169898 
L 185.33539 200.325865 
L 185.612555 222.73152 
L 185.889719 190.400631 
L 186.166884 189.922287 
L 186.444049 201.881084 
L 186.721214 197.307791 
L 186.998379 184.368108 
L 187.275544 185.395334 
L 187.552709 169.847719 
L 187.829873 205.372361 
L 188.107038 190.686371 
L 188.384203 228.089702 
L 188.938533 155.420643 
L 189.215698 199.551688 
L 189.492862 175.11889 
L 189.770027 186.556074 
L 190.047192 192.106127 
L 190.324357 190.359272 
L 190.601522 191.952184 
L 190.878687 207.672073 
L 191.155852 202.159993 
L 191.433016 211.548464 
L 191.710181 183.312553 
L 191.987346 197.008408 
L 192.264511 168.080588 
L 192.541676 200.522018 
L 193.096006 188.371923 
L 193.37317 185.758978 
L 193.650335 196.333402 
L 193.9275 174.423161 
L 194.204665 211.24157 
L 194.48183 171.537922 
L 194.758995 165.123769 
L 195.036159 165.055933 
L 195.313324 171.637246 
L 195.590489 212.908561 
L 195.867654 168.618259 
L 196.421984 225.253952 
L 196.699149 160.026953 
L 196.976313 199.687759 
L 197.253478 185.645741 
L 197.530643 185.850163 
L 197.807808 170.157528 
L 198.084973 167.210567 
L 198.639302 176.171024 
L 198.916467 185.467403 
L 199.193632 183.092143 
L 199.470797 185.103253 
L 199.747962 162.754639 
L 200.025127 207.128762 
L 200.302292 171.196964 
L 200.579456 206.78219 
L 200.856621 187.449195 
L 201.133786 199.107835 
L 201.410951 202.258586 
L 201.688116 195.171359 
L 201.965281 195.779336 
L 202.242445 208.004512 
L 202.51961 171.468513 
L 202.796775 181.308273 
L 203.07394 159.325126 
L 203.351105 178.975063 
L 203.62827 187.409953 
L 203.905435 182.82517 
L 204.182599 206.290567 
L 204.459764 180.507632 
L 204.736929 211.145723 
L 205.014094 193.611383 
L 205.291259 207.466272 
L 205.568424 194.11535 
L 205.845589 204.100677 
L 206.122753 292.830284 
L 206.399918 97.280837 
L 206.677083 229.37563 
L 206.954248 196.591688 
L 207.231413 187.421049 
L 207.508578 168.498868 
L 207.785742 199.698873 
L 208.062907 202.663391 
L 208.340072 186.846374 
L 208.617237 182.828304 
L 208.894402 200.546104 
L 209.171567 189.449511 
L 209.448732 173.706766 
L 209.725896 219.528263 
L 210.003061 177.779546 
L 210.280226 210.206837 
L 210.557391 181.867443 
L 210.834556 201.355829 
L 211.111721 148.984169 
L 211.388885 179.723661 
L 211.66605 163.320258 
L 211.943215 190.319018 
L 212.22038 164.660098 
L 212.497545 201.841179 
L 212.77471 129.082458 
L 213.051875 232.154479 
L 213.329039 175.582755 
L 213.606204 210.77108 
L 213.883369 178.958606 
L 214.160534 195.50398 
L 214.437699 177.554284 
L 214.714864 184.090983 
L 214.992028 208.08842 
L 215.269193 209.561189 
L 215.546358 167.884724 
L 215.823523 217.173656 
L 216.100688 147.640145 
L 216.377853 238.869606 
L 216.655018 195.423293 
L 216.932182 201.724786 
L 217.209347 195.724713 
L 217.486512 211.291596 
L 217.763677 178.957674 
L 218.040842 244.833691 
L 218.318007 159.376716 
L 218.595172 195.267517 
L 218.872336 214.054681 
L 219.149501 162.139383 
L 219.426666 182.605161 
L 219.703831 259.213172 
L 219.980996 208.359692 
L 220.258161 233.117244 
L 220.81249 134.829635 
L 221.089655 233.708762 
L 221.36682 172.660197 
L 221.643985 171.935557 
L 221.92115 170.160922 
L 222.198315 191.317028 
L 222.475479 164.250123 
L 222.752644 202.804206 
L 223.029809 162.264747 
L 223.306974 154.827387 
L 223.584139 219.031533 
L 223.861304 195.717864 
L 224.138468 187.410677 
L 224.415633 193.136138 
L 224.692798 147.518954 
L 224.969963 196.754602 
L 225.247128 213.335648 
L 225.524293 175.840001 
L 225.801458 185.808785 
L 226.078622 218.921629 
L 226.355787 142.688015 
L 226.632952 193.173526 
L 226.910117 152.51623 
L 227.187282 185.661809 
L 227.464447 200.128374 
L 227.741611 182.254315 
L 228.018776 172.265058 
L 228.295941 206.011655 
L 228.573106 166.892379 
L 229.127436 215.623492 
L 229.404601 197.877121 
L 229.681765 324.249115 
L 229.95893 153.067007 
L 230.236095 135.486206 
L 230.51326 214.522725 
L 230.790425 182.061462 
L 231.06759 213.260047 
L 231.344755 159.098881 
L 231.621919 228.056397 
L 231.899084 165.742459 
L 232.176249 227.952601 
L 232.453414 159.455019 
L 232.730579 181.801481 
L 233.007744 181.46912 
L 233.284908 273.948736 
L 233.562073 168.840999 
L 233.839238 225.189959 
L 234.116403 228.927245 
L 234.393568 200.410177 
L 234.670733 148.717884 
L 234.947898 189.235604 
L 235.225062 186.92577 
L 235.502227 158.300895 
L 235.779392 201.78145 
L 236.333722 142.680539 
L 236.610887 243.622128 
L 237.165216 174.842431 
L 237.442381 197.061844 
L 237.719546 253.857498 
L 237.996711 154.892843 
L 238.273876 180.661164 
L 238.551041 180.859924 
L 238.828205 176.938444 
L 239.10537 190.123478 
L 239.382535 196.806948 
L 239.6597 143.425004 
L 239.936865 173.526951 
L 240.21403 180.104706 
L 240.491195 191.309322 
L 240.768359 195.387408 
L 241.045524 137.720105 
L 241.322689 217.239228 
L 241.599854 244.687229 
L 241.877019 204.728335 
L 242.154184 195.686589 
L 242.431348 214.241847 
L 242.708513 189.481442 
L 242.985678 146.660853 
L 243.262843 226.627266 
L 243.540008 171.671013 
L 243.817173 150.992169 
L 244.094338 169.213773 
L 244.371502 157.994937 
L 244.648667 237.407742 
L 244.925832 187.709303 
L 245.202997 184.031506 
L 245.480162 195.637742 
L 245.757327 181.421606 
L 246.034491 238.937653 
L 246.311656 123.451959 
L 246.588821 144.388962 
L 246.865986 258.701994 
L 247.143151 223.211439 
L 247.420316 143.691696 
L 247.697481 160.090897 
L 247.974645 250.188927 
L 248.25181 198.569043 
L 248.528975 234.039683 
L 249.083305 159.267485 
L 249.36047 176.080893 
L 249.637634 228.416076 
L 249.914799 158.831662 
L 250.191964 198.211627 
L 250.469129 209.563412 
L 251.023459 246.157789 
L 251.577788 142.621177 
L 251.854953 181.208454 
L 252.409283 199.471377 
L 252.686448 174.360229 
L 252.963613 225.025873 
L 253.240778 109.984456 
L 253.517942 172.509778 
L 253.795107 204.337754 
L 254.072272 191.087345 
L 254.349437 199.883228 
L 254.626602 172.392056 
L 254.903767 188.452792 
L 255.180931 194.703989 
L 255.458096 188.175858 
L 255.735261 217.443592 
L 256.012426 180.659228 
L 256.289591 198.446277 
L 256.566756 200.493018 
L 256.843921 159.845015 
L 257.121085 176.930839 
L 257.39825 247.889195 
L 257.95258 145.660074 
L 258.229745 209.640431 
L 258.50691 174.536777 
L 258.784074 190.109591 
L 259.061239 189.398008 
L 259.338404 153.862624 
L 259.615569 221.590428 
L 259.892734 204.429312 
L 260.169899 152.477672 
L 260.447064 189.234238 
L 260.724228 208.401137 
L 261.001393 212.684472 
L 261.278558 210.706748 
L 261.555723 129.456339 
L 261.832888 203.603583 
L 262.110053 206.755721 
L 262.387217 216.212269 
L 262.664382 179.324764 
L 262.941547 160.811566 
L 263.495877 244.812966 
L 263.773042 198.110697 
L 264.050207 124.987095 
L 264.604536 198.792418 
L 264.881701 186.993253 
L 265.158866 197.639463 
L 265.436031 177.246539 
L 265.990361 212.073872 
L 266.267525 188.465444 
L 266.54469 191.494689 
L 266.821855 177.640923 
L 267.09902 207.135987 
L 267.376185 158.355895 
L 267.65335 217.53773 
L 267.930514 236.12676 
L 268.207679 162.206636 
L 268.484844 186.220208 
L 268.762009 185.552995 
L 269.039174 196.925714 
L 269.316339 226.038414 
L 269.593504 144.998733 
L 269.870668 207.06523 
L 270.147833 175.661244 
L 270.424998 218.49207 
L 270.979328 152.230085 
L 271.256493 221.240186 
L 271.533657 177.595233 
L 271.810822 213.177237 
L 272.087987 151.307447 
L 272.365152 169.323308 
L 272.642317 179.85999 
L 272.919482 221.318876 
L 273.196647 245.461927 
L 273.473811 170.035317 
L 273.750976 144.994548 
L 274.028141 201.68638 
L 274.305306 167.789952 
L 274.582471 167.918641 
L 274.859636 232.052507 
L 275.1368 195.552518 
L 275.413965 202.317093 
L 275.69113 203.160255 
L 275.968295 199.105648 
L 276.24546 176.554833 
L 276.522625 189.002243 
L 276.79979 163.975081 
L 277.076954 163.168947 
L 277.354119 222.692315 
L 277.631284 224.897454 
L 277.908449 148.826012 
L 278.185614 231.656305 
L 278.462779 176.724751 
L 278.739944 209.337104 
L 279.017108 197.946584 
L 279.571438 199.229769 
L 279.848603 148.964217 
L 280.125768 244.151351 
L 280.402933 171.147802 
L 280.680097 156.339379 
L 281.234427 197.537036 
L 281.511592 194.360069 
L 281.788757 178.78197 
L 282.065922 213.780381 
L 282.343087 215.945932 
L 282.620251 186.415227 
L 282.897416 185.463098 
L 283.174581 151.990026 
L 283.451746 186.691037 
L 283.728911 178.096327 
L 284.006076 238.687916 
L 284.28324 183.727653 
L 284.560405 199.309044 
L 284.83757 168.839213 
L 285.114735 189.679225 
L 285.3919 193.743553 
L 285.669065 173.485821 
L 285.94623 204.52237 
L 286.223394 223.008184 
L 286.500559 150.77231 
L 286.777724 187.977277 
L 287.054889 201.78711 
L 287.332054 201.217368 
L 287.609219 172.500059 
L 288.163548 203.765072 
L 288.440713 210.068996 
L 288.717878 162.448125 
L 288.995043 169.661419 
L 289.272208 120.697014 
L 289.549373 223.546944 
L 289.826537 253.634431 
L 290.103702 183.9672 
L 290.380867 200.354982 
L 290.658032 169.36811 
L 290.935197 173.651931 
L 291.212362 225.982721 
L 291.489527 179.510427 
L 291.766691 177.555546 
L 292.043856 205.38307 
L 292.321021 156.848756 
L 292.598186 192.937375 
L 292.875351 175.669245 
L 293.152516 181.05099 
L 293.42968 182.37422 
L 293.706845 195.129986 
L 293.98401 167.859442 
L 294.261175 193.003122 
L 294.53834 175.974694 
L 294.815505 190.334593 
L 295.09267 214.110157 
L 295.369834 248.4591 
L 295.646999 164.128866 
L 295.924164 187.593546 
L 296.478494 250.193323 
L 296.755659 150.431038 
L 297.032823 212.220143 
L 297.309988 163.02388 
L 297.587153 220.858156 
L 297.864318 174.540938 
L 298.141483 169.46711 
L 298.418648 161.554925 
L 298.695813 164.656809 
L 298.972977 215.479769 
L 299.250142 222.045169 
L 299.527307 161.586055 
L 299.804472 169.799723 
L 300.081637 213.574927 
L 300.358802 177.25549 
L 300.635967 200.574301 
L 300.913131 193.140198 
L 301.190296 180.110142 
L 301.467461 197.938768 
L 301.744626 164.758046 
L 302.021791 207.105454 
L 302.298956 166.397626 
L 302.57612 190.35974 
L 302.853285 173.311627 
L 303.13045 177.1315 
L 303.407615 234.272107 
L 303.68478 199.671805 
L 303.961945 192.542279 
L 304.23911 204.922309 
L 304.516274 146.822777 
L 304.793439 221.495796 
L 305.070604 225.899151 
L 305.347769 170.33185 
L 305.624934 213.805331 
L 306.179263 158.584191 
L 306.456428 180.576284 
L 306.733593 162.460414 
L 307.010758 206.700911 
L 307.287923 170.379319 
L 307.565088 262.339203 
L 307.842253 200.670794 
L 308.119417 204.423286 
L 308.396582 242.426089 
L 308.673747 160.687856 
L 308.950912 194.310524 
L 309.228077 198.775614 
L 309.505242 161.174038 
L 309.782406 178.287625 
L 310.059571 271.297126 
L 310.336736 143.090873 
L 310.613901 206.049042 
L 310.891066 122.432668 
L 311.445396 205.704189 
L 311.72256 175.817532 
L 311.999725 212.924768 
L 312.27689 131.24874 
L 312.554055 186.833503 
L 312.83122 190.509177 
L 313.108385 197.545959 
L 313.38555 159.200099 
L 313.662714 219.641351 
L 313.939879 189.592462 
L 314.217044 183.775342 
L 314.494209 279.208091 
L 315.048539 155.468518 
L 315.602868 239.623721 
L 316.157198 171.298718 
L 316.434363 197.098278 
L 316.711528 172.599414 
L 317.265857 202.62547 
L 317.543022 149.784819 
L 317.820187 202.161054 
L 318.097352 166.921474 
L 318.651682 224.093869 
L 318.928846 141.463086 
L 319.206011 175.735957 
L 319.483176 174.787562 
L 319.760341 226.07108 
L 320.037506 124.273792 
L 320.314671 246.354309 
L 320.591836 183.248894 
L 320.869 286.818245 
L 321.146165 137.801125 
L 321.42333 161.938259 
L 321.700495 160.482452 
L 321.97766 167.21669 
L 322.531989 231.536117 
L 322.809154 228.529508 
L 323.086319 185.378504 
L 323.363484 203.433885 
L 323.917814 158.104222 
L 324.194979 184.525643 
L 324.472143 151.603384 
L 324.749308 171.411157 
L 325.026473 165.851628 
L 325.303638 216.984204 
L 325.580803 181.091336 
L 325.857968 253.588095 
L 326.135133 144.431724 
L 326.412297 210.480143 
L 326.689462 185.987239 
L 326.966627 182.814034 
L 327.243792 184.748962 
L 327.520957 209.427956 
L 327.798122 152.949063 
L 328.075286 205.758756 
L 328.352451 153.523144 
L 328.906781 238.703706 
L 329.183946 180.079495 
L 329.461111 225.022962 
L 329.738276 178.964555 
L 330.292605 199.733042 
L 330.56977 148.79644 
L 330.846935 131.88732 
L 331.1241 282.323489 
L 331.401265 196.696209 
L 331.678429 239.883946 
L 331.955594 174.260366 
L 332.232759 234.094378 
L 332.509924 119.550568 
L 332.787089 241.489881 
L 333.064254 136.758004 
L 333.341419 243.623866 
L 333.618583 163.476991 
L 333.895748 284.092188 
L 334.172913 169.269262 
L 334.450078 247.146226 
L 334.727243 171.798462 
L 335.004408 210.640409 
L 335.281572 129.633289 
L 335.558737 186.991465 
L 335.835902 182.520026 
L 336.113067 218.79109 
L 336.390232 179.092539 
L 336.667397 207.085664 
L 336.944562 184.818664 
L 337.221726 212.059869 
L 337.498891 139.919657 
L 337.776056 158.976993 
L 338.053221 136.143212 
L 338.330386 194.456185 
L 338.607551 146.347483 
L 338.884716 166.432643 
L 339.16188 267.325422 
L 339.439045 156.369175 
L 339.71621 225.280037 
L 339.993375 156.986469 
L 340.27054 219.15002 
L 340.547705 149.743167 
L 340.824869 203.436267 
L 341.102034 119.000347 
L 341.379199 259.776002 
L 341.656364 205.253596 
L 341.933529 200.849213 
L 342.210694 190.675686 
L 342.487859 170.916946 
L 343.042188 195.72229 
L 343.319353 204.397272 
L 343.596518 160.398066 
L 343.873683 180.460231 
L 344.150848 190.778466 
L 344.428012 182.284955 
L 344.705177 185.784857 
L 344.982342 186.643442 
L 345.259507 213.479842 
L 345.536672 191.068798 
L 345.813837 134.429105 
L 346.091002 196.373223 
L 346.368166 202.309058 
L 346.645331 149.605258 
L 346.922496 162.133697 
L 347.753991 220.442939 
L 348.031156 194.015176 
L 348.30832 204.218445 
L 348.585485 228.014613 
L 348.86265 210.740228 
L 349.139815 174.552478 
L 349.41698 207.261622 
L 349.694145 204.765156 
L 350.248474 174.709365 
L 350.525639 225.954142 
L 350.802804 205.989558 
L 351.079969 209.946452 
L 351.357134 181.745134 
L 351.634299 134.147432 
L 351.911463 231.690602 
L 352.188628 145.447544 
L 352.465793 206.772545 
L 352.742958 210.283089 
L 353.020123 195.321387 
L 353.297288 194.112314 
L 353.574452 205.532502 
L 353.851617 198.44815 
L 354.128782 196.391859 
L 354.405947 171.412574 
L 354.683112 216.037965 
L 355.237442 178.886259 
L 355.514606 200.015531 
L 355.791771 205.49018 
L 356.068936 180.892251 
L 356.346101 139.04119 
L 356.623266 240.31628 
L 356.900431 149.827549 
L 357.177595 220.531134 
L 357.45476 195.605585 
L 357.731925 205.197157 
L 358.00909 185.451841 
L 358.286255 184.906124 
L 358.56342 176.141847 
L 358.840585 195.847068 
L 359.394914 168.454815 
L 359.949244 188.799199 
L 360.226409 215.037142 
L 360.503574 180.021496 
L 360.780739 194.907136 
L 361.057903 193.668137 
L 361.335068 171.410706 
L 361.612233 206.160927 
L 361.889398 162.704395 
L 362.166563 198.35464 
L 362.443728 195.272691 
L 362.720892 179.944749 
L 363.275222 163.552618 
L 363.552387 203.861107 
L 363.829552 165.267559 
L 364.106717 199.221941 
L 364.661046 172.817897 
L 364.938211 236.277097 
L 365.215376 140.544452 
L 365.492541 198.890261 
L 365.769706 229.173086 
L 366.046871 204.959302 
L 366.324035 204.313278 
L 366.6012 174.027259 
L 366.878365 197.319669 
L 367.15553 175.504961 
L 367.432695 180.834273 
L 367.70986 182.581242 
L 367.987025 203.98318 
L 368.264189 172.297664 
L 368.541354 222.449601 
L 369.095684 173.655693 
L 369.372849 199.248239 
L 369.650014 190.329524 
L 369.927178 200.967369 
L 370.204343 195.953827 
L 370.481508 166.404032 
L 370.758673 199.275269 
L 371.035838 191.941843 
L 371.313003 192.081596 
L 371.590168 174.133233 
L 371.867332 224.00183 
L 372.144497 217.568244 
L 372.421662 186.754021 
L 372.698827 193.706157 
L 372.975992 209.9331 
L 373.253157 202.63231 
L 373.530322 206.969774 
L 373.807486 229.16336 
L 374.084651 239.016481 
L 374.361816 171.694233 
L 374.638981 173.918105 
L 374.916146 163.042534 
L 375.193311 196.122847 
L 375.470475 172.36092 
L 375.74764 172.05162 
L 376.024805 177.436631 
L 376.30197 194.184448 
L 376.8563 181.103108 
L 377.133465 208.14079 
L 377.410629 168.198307 
L 377.687794 202.468988 
L 377.964959 221.404752 
L 378.242124 175.984202 
L 378.519289 176.919233 
L 378.796454 184.983035 
L 379.073618 196.830511 
L 379.350783 180.831279 
L 379.627948 197.626071 
L 379.905113 190.063943 
L 380.182278 204.300519 
L 380.459443 209.204747 
L 380.736608 168.299688 
L 381.013772 191.742562 
L 381.290937 178.091518 
L 381.568102 178.52521 
L 381.845267 139.752702 
L 382.122432 150.222568 
L 382.676761 215.379842 
L 382.953926 198.82578 
L 383.231091 210.62682 
L 383.508256 181.755423 
L 383.785421 172.671736 
L 384.339751 200.024765 
L 384.616915 201.417905 
L 384.89408 206.790576 
L 385.171245 214.320261 
L 385.44841 202.528638 
L 385.725575 164.94477 
L 386.00274 216.121267 
L 386.279905 173.998713 
L 386.834234 165.453442 
L 387.111399 163.659596 
L 387.388564 185.200875 
L 387.665729 190.103635 
L 387.942894 186.316804 
L 388.220058 211.823875 
L 388.497223 207.969641 
L 388.774388 249.684285 
L 389.051553 161.637087 
L 389.328718 118.420283 
L 389.605883 177.634845 
L 389.883048 172.660336 
L 390.437377 274.166939 
L 390.714542 174.469685 
L 390.991707 187.542173 
L 391.268872 188.832223 
L 391.823201 202.913627 
L 392.100366 179.297949 
L 392.377531 203.272382 
L 392.654696 186.191513 
L 392.931861 190.182512 
L 393.209026 237.710571 
L 393.486191 167.643786 
L 393.763355 158.670427 
L 394.04052 190.375687 
L 394.317685 192.105768 
L 394.59485 183.560858 
L 394.872015 186.992883 
L 395.14918 187.210109 
L 395.426344 191.895074 
L 395.703509 227.363941 
L 395.980674 223.448591 
L 396.257839 165.756663 
L 396.535004 183.850269 
L 396.812169 186.018823 
L 397.089334 177.03755 
L 397.366498 199.26548 
L 397.643663 189.627862 
L 397.920828 198.179131 
L 398.197993 196.830887 
L 398.475158 180.245354 
L 398.752323 174.812918 
L 399.306652 204.546761 
L 399.583817 201.269786 
L 399.860982 178.216716 
L 400.138147 187.594519 
L 400.415312 180.955766 
L 400.692477 208.946037 
L 400.969641 174.279541 
L 401.246806 200.014744 
L 401.523971 179.09004 
L 401.801136 195.03647 
L 402.078301 178.110868 
L 402.355466 181.034061 
L 402.909795 205.959026 
L 403.18696 178.695361 
L 403.464125 179.311396 
L 403.74129 182.443024 
L 404.018455 187.093639 
L 404.29562 201.118429 
L 404.572784 182.668326 
L 405.127114 194.939589 
L 405.404279 249.085095 
L 405.681444 201.916526 
L 405.958609 192.789102 
L 406.235774 211.293726 
L 406.512938 198.42074 
L 406.790103 205.907228 
L 407.067268 183.861449 
L 407.344433 248.145068 
L 407.898763 107.862579 
L 408.175928 167.864765 
L 408.453092 160.960534 
L 408.730257 131.859276 
L 409.007422 129.67875 
L 409.561752 228.667663 
L 409.838917 197.311979 
L 410.116081 210.822217 
L 410.393246 187.001468 
L 410.670411 174.824577 
L 410.947576 211.315211 
L 411.224741 223.114687 
L 411.501906 202.008259 
L 411.779071 198.969302 
L 412.056235 207.797664 
L 412.3334 189.614136 
L 412.610565 180.998821 
L 412.88773 195.390814 
L 413.164895 178.660247 
L 413.44206 173.781823 
L 413.719224 194.512117 
L 413.996389 150.907578 
L 414.273554 204.158984 
L 414.550719 224.793336 
L 414.827884 186.129836 
L 415.105049 192.519078 
L 415.659378 219.299705 
L 415.936543 175.40403 
L 416.213708 156.919437 
L 416.490873 186.676175 
L 416.768038 180.437001 
L 417.045203 183.479687 
L 417.322367 173.716491 
L 417.599532 210.646624 
L 417.876697 218.034542 
L 418.153862 188.637697 
L 418.431027 191.51316 
L 418.708192 176.72679 
L 418.985357 260.280017 
L 419.262521 190.365505 
L 419.539686 173.431138 
L 419.816851 177.536465 
L 420.094016 226.293596 
L 420.371181 193.08522 
L 420.648346 192.058032 
L 420.925511 176.075723 
L 421.202675 211.652103 
L 421.757005 190.861992 
L 422.03417 172.55992 
L 422.311335 173.699894 
L 422.5885 195.069182 
L 422.865664 172.165217 
L 423.142829 205.253917 
L 423.419994 161.587967 
L 423.697159 198.734486 
L 423.974324 191.407636 
L 424.251489 172.885937 
L 424.528654 179.401655 
L 424.805818 182.466603 
L 425.082983 176.454256 
L 425.360148 201.213775 
L 425.637313 175.25778 
L 425.914478 189.385649 
L 426.191643 194.358628 
L 426.468807 186.016458 
L 426.745972 220.035563 
L 427.023137 168.010983 
L 427.300302 194.052651 
L 427.577467 197.488856 
L 427.854632 182.649359 
L 428.131797 221.875623 
L 428.686126 196.589061 
L 428.963291 190.408947 
L 429.240456 187.680696 
L 429.517621 227.543819 
L 429.794786 213.015201 
L 430.07195 136.694917 
L 430.62628 201.022755 
L 430.903445 192.578259 
L 431.18061 168.17657 
L 431.73494 193.60543 
L 432.012104 182.928753 
L 432.289269 193.727472 
L 432.566434 190.25601 
L 432.843599 203.166018 
L 433.120764 167.722346 
L 433.397929 198.100723 
L 433.675094 202.783909 
L 433.952258 175.966177 
L 434.229423 200.815903 
L 434.506588 177.688601 
L 434.783753 190.947987 
L 435.338083 199.809812 
L 435.615247 180.935267 
L 435.892412 201.83956 
L 436.169577 175.197829 
L 436.446742 193.321053 
L 436.723907 194.866037 
L 437.001072 193.971385 
L 437.278237 214.441465 
L 437.832566 183.10837 
L 438.109731 200.08979 
L 438.386896 236.510081 
L 438.664061 178.943339 
L 438.941226 180.380837 
L 439.21839 211.903031 
L 439.495555 176.446446 
L 440.049885 207.89692 
L 440.32705 198.611126 
L 440.604215 182.853953 
L 440.88138 180.894507 
L 441.158544 194.698016 
L 441.435709 181.936125 
L 441.712874 175.179227 
L 441.990039 185.556268 
L 442.267204 182.64792 
L 442.544369 184.0148 
L 442.821533 182.911333 
L 443.375863 202.6928 
L 443.653028 190.995742 
L 443.930193 184.919053 
L 444.484523 199.434241 
L 444.761687 186.067388 
L 445.038852 163.200674 
L 445.316017 200.364243 
L 445.593182 199.372105 
L 445.870347 187.125944 
L 446.147512 194.284501 
L 446.424677 187.050605 
L 446.701841 185.681785 
L 446.979006 200.532265 
L 447.256171 180.033489 
L 447.810501 194.361961 
L 448.087666 174.913934 
L 448.36483 180.947789 
L 448.641995 198.067391 
L 448.91916 198.722912 
L 449.196325 178.458266 
L 449.750655 202.255693 
L 450.02782 185.745853 
L 450.304984 184.887826 
L 450.582149 186.048135 
L 450.859314 192.511199 
L 451.136479 196.1768 
L 451.413644 195.109893 
L 451.690809 201.75789 
L 451.967973 189.82476 
L 452.245138 189.503073 
L 452.522303 198.143444 
L 452.799468 187.84346 
L 453.076633 188.635584 
L 453.353798 190.032578 
L 453.630963 188.035275 
L 453.908127 193.859512 
L 454.185292 192.9532 
L 454.739622 183.686613 
L 455.016787 193.130816 
L 455.293952 183.810369 
L 455.571116 186.884237 
L 455.848281 204.207796 
L 456.125446 186.779559 
L 456.402611 200.450348 
L 456.679776 172.442179 
L 456.956941 192.631551 
L 457.234106 193.643921 
L 457.51127 186.734167 
L 457.788435 191.282472 
L 458.0656 198.485612 
L 458.342765 179.57584 
L 458.61993 206.346959 
L 459.17426 110.533088 
L 459.451424 172.55639 
L 459.728589 198.855845 
L 460.005754 207.114227 
L 460.282919 184.521527 
L 460.837249 196.029132 
L 461.114413 193.105883 
L 461.391578 201.797936 
L 461.945908 177.250343 
L 462.223073 183.30233 
L 462.500238 205.967104 
L 462.777403 197.240445 
L 463.054567 176.407746 
L 463.331732 192.802109 
L 463.608897 202.395531 
L 463.886062 186.829625 
L 464.163227 185.319555 
L 464.440392 180.876935 
L 464.717556 207.734822 
L 464.994721 197.295172 
L 465.271886 182.227379 
L 465.549051 209.982239 
L 465.826216 213.998084 
L 466.103381 198.345802 
L 466.380546 175.985541 
L 466.65771 194.60143 
L 466.934875 193.576185 
L 467.21204 193.537198 
L 467.489205 190.907985 
L 468.043535 171.503702 
L 468.3207 194.808715 
L 468.597864 155.641212 
L 468.875029 306.440547 
L 469.152194 196.618223 
L 469.429359 147.226687 
L 469.706524 191.821297 
L 469.983689 208.337263 
L 470.260853 177.537987 
L 470.538018 180.441589 
L 470.815183 185.304429 
L 471.092348 199.029421 
L 471.369513 175.587091 
L 471.923843 205.580839 
L 472.201007 177.589122 
L 472.755337 207.163814 
L 473.032502 187.253117 
L 473.309667 183.89499 
L 473.586832 190.194049 
L 473.863996 187.763804 
L 474.141161 193.889851 
L 474.418326 192.087965 
L 474.695491 194.04536 
L 474.972656 182.588354 
L 475.249821 200.267336 
L 475.526986 150.823427 
L 475.80415 197.325061 
L 476.081315 205.643295 
L 476.35848 185.004513 
L 476.635645 181.388233 
L 476.91281 191.297067 
L 477.189975 195.661503 
L 477.467139 195.140452 
L 477.744304 193.584112 
L 478.021469 199.184356 
L 478.298634 191.431271 
L 478.575799 201.279824 
L 478.852964 155.60668 
L 479.130129 196.629435 
L 479.407293 185.960368 
L 479.684458 185.413833 
L 479.961623 206.160905 
L 480.238788 259.950998 
L 480.793118 157.208602 
L 481.070283 146.597756 
L 481.347447 180.412669 
L 481.624612 178.636961 
L 481.901777 174.538768 
L 482.178942 175.508721 
L 482.456107 195.286331 
L 482.733272 202.660278 
L 483.010436 197.410289 
L 483.287601 170.904822 
L 483.564766 192.116538 
L 483.841931 192.567369 
L 484.119096 261.603724 
L 484.396261 208.756446 
L 484.673426 133.853531 
L 484.95059 217.056363 
L 485.227755 176.02652 
L 485.50492 160.929714 
L 485.782085 207.343662 
L 486.05925 184.047385 
L 486.613579 202.476739 
L 486.890744 158.722916 
L 487.167909 192.159753 
L 487.445074 184.219552 
L 487.722239 189.956019 
L 487.999404 219.551914 
L 488.276569 188.067567 
L 488.553733 206.048866 
L 488.830898 213.916873 
L 489.108063 187.513725 
L 489.385228 192.884044 
L 489.662393 233.989479 
L 489.939558 163.593869 
L 490.216722 156.934655 
L 490.493887 171.463899 
L 490.771052 153.717587 
L 491.048217 225.249511 
L 491.325382 173.501439 
L 491.602547 182.964702 
L 491.879712 224.327576 
L 492.156876 199.784147 
L 492.434041 189.087495 
L 492.711206 212.09632 
L 492.988371 162.467269 
L 493.265536 200.557405 
L 493.542701 173.042307 
L 493.819866 190.16062 
L 494.09703 174.043885 
L 494.374195 178.465199 
L 494.65136 220.745216 
L 494.928525 186.968193 
L 495.20569 184.158778 
L 495.482855 193.249032 
L 495.760019 192.341526 
L 496.037184 204.23631 
L 496.314349 170.883488 
L 496.591514 179.804723 
L 497.145844 209.080017 
L 497.423009 196.492291 
L 497.700173 192.784381 
L 497.977338 212.849574 
L 498.254503 186.833286 
L 498.531668 175.230343 
L 498.808833 183.859538 
L 499.085998 211.059549 
L 499.363162 144.742061 
L 499.640327 213.285959 
L 499.917492 211.321135 
L 500.194657 231.757125 
L 500.471822 145.965199 
L 500.748987 200.842687 
L 501.026152 185.741958 
L 501.303316 190.646029 
L 501.857646 169.657345 
L 502.134811 190.323202 
L 502.411976 164.338184 
L 502.689141 211.795073 
L 502.966305 191.812474 
L 503.24347 189.845691 
L 503.520635 182.641868 
L 503.7978 190.642676 
L 504.074965 192.412164 
L 504.35213 185.301775 
L 504.629295 138.121905 
L 504.906459 144.246415 
L 505.183624 193.08791 
L 505.460789 309.476697 
L 506.015119 180.443853 
L 506.292284 244.42034 
L 506.569449 131.724266 
L 506.846613 108.790571 
L 507.123778 185.749967 
L 507.400943 161.358243 
L 507.678108 178.103686 
L 508.232438 194.081446 
L 508.509602 187.509149 
L 508.786767 145.034702 
L 509.063932 148.936592 
L 509.341097 176.221662 
L 509.618262 135.136768 
L 509.895427 220.179994 
L 510.172592 258.581523 
L 510.449756 181.687616 
L 510.726921 186.250326 
L 511.004086 179.101712 
L 511.281251 184.52068 
L 511.558416 309.621313 
L 512.112745 200.013015 
L 512.38991 57.803017 
L 512.667075 180.842786 
L 512.94424 132.930771 
L 513.221405 169.084475 
L 513.49857 164.722335 
L 514.052899 197.420169 
L 514.330064 201.760104 
L 514.607229 226.120891 
L 514.884394 180.609139 
L 515.161559 177.846756 
L 515.438724 140.876792 
L 515.715889 215.352772 
L 515.993053 256.399543 
L 516.270218 153.429224 
L 516.547383 213.214878 
L 516.824548 229.870965 
L 517.101713 288.171789 
L 517.378878 228.935161 
L 517.656042 212.564251 
L 517.933207 264.067341 
L 518.210372 291.48725 
L 518.487537 201.015426 
L 518.764702 202.976198 
L 519.041867 150.004772 
L 519.319032 142.934037 
L 519.596196 161.552252 
L 520.150526 207.568802 
L 520.427691 170.101102 
L 520.704856 254.512552 
L 520.982021 215.650006 
L 521.259185 245.456303 
L 521.53635 92.549446 
L 521.813515 191.361647 
L 522.09068 156.387014 
L 522.367845 294.821005 
L 522.64501 136.409115 
L 522.922175 178.322714 
L 523.199339 174.655423 
L 523.476504 81.384117 
L 523.753669 205.441263 
L 524.030834 137.41916 
L 524.307999 220.647695 
L 524.862328 124.538687 
L 525.139493 161.442544 
L 525.416658 264.155473 
L 525.693823 198.735343 
L 525.970988 185.20455 
L 526.248153 237.310063 
L 526.525318 177.415763 
L 526.802482 194.051512 
L 527.079647 143.481916 
L 527.356812 143.955404 
L 527.633977 173.318728 
L 527.911142 104.653658 
L 528.188307 276.290926 
L 528.465472 124.791749 
L 528.742636 115.967123 
L 529.019801 249.769847 
L 529.296966 225.352922 
L 529.574131 280.880817 
L 529.851296 166.736483 
L 530.128461 222.216657 
L 530.405625 152.46089 
L 530.68279 206.052176 
L 530.959955 376.097159 
L 531.23712 136.83787 
L 531.514285 161.251975 
L 531.79145 138.602538 
L 532.068615 175.157122 
L 532.345779 158.698584 
L 532.622944 296.288633 
L 532.900109 286.012602 
L 533.177274 255.149578 
L 533.454439 252.71571 
L 533.731604 155.426269 
L 534.008768 148.850323 
L 534.285933 70.422219 
L 534.840263 268.647801 
L 535.117428 226.373271 
L 535.394593 100.528927 
L 535.948922 208.276048 
L 536.226087 104.195944 
L 536.503252 192.267693 
L 536.780417 239.313303 
L 537.057582 224.149832 
L 537.334747 221.405467 
L 537.611911 174.226284 
L 537.889076 248.571573 
L 538.166241 200.935313 
L 538.720571 252.456766 
L 538.997736 169.91247 
L 539.274901 141.97835 
L 539.552065 147.902415 
L 539.82923 247.011724 
L 540.106395 151.915549 
L 540.38356 257.41765 
L 540.660725 245.31819 
L 540.93789 97.869109 
L 541.215055 180.260607 
L 541.492219 106.708587 
L 541.769384 180.40778 
L 542.046549 215.822453 
L 542.323714 199.808216 
L 542.600879 131.486274 
L 542.878044 171.72352 
L 543.155208 142.859406 
L 543.709538 232.676351 
L 543.986703 163.909658 
L 544.541033 191.775734 
L 544.818198 142.460746 
L 545.095362 187.022886 
L 545.372527 194.086947 
L 545.649692 161.497573 
L 545.926857 232.697009 
L 546.204022 236.601326 
L 546.481187 216.824437 
L 546.758351 180.287194 
L 547.035516 173.295833 
L 547.589846 194.913436 
L 547.867011 187.773331 
L 548.144176 184.696871 
L 548.421341 198.243692 
L 548.698505 149.225059 
L 548.97567 285.144504 
L 549.252835 149.082609 
L 549.53 187.051599 
L 549.807165 202.267753 
L 550.08433 181.060498 
L 550.361494 186.934106 
L 550.638659 189.935553 
L 550.915824 236.57835 
L 551.192989 255.933669 
L 551.470154 192.502813 
L 551.747319 198.788778 
L 552.024484 193.391126 
L 552.301648 167.690954 
L 552.578813 183.706798 
L 552.855978 161.204968 
L 553.133143 193.597672 
L 553.410308 152.936994 
L 553.687473 145.812466 
L 553.964638 198.520531 
L 554.241802 191.363329 
L 554.518967 179.751336 
L 554.796132 183.941884 
L 555.073297 198.24119 
L 555.350462 219.935791 
L 555.627627 190.716734 
L 555.904791 206.25234 
L 556.459121 183.467232 
L 556.736286 193.37398 
L 557.013451 186.146103 
L 557.290616 189.62929 
L 557.567781 223.114541 
L 557.844945 166.358562 
L 558.12211 171.774272 
L 558.399275 197.664385 
L 558.67644 203.314582 
L 558.953605 161.354944 
L 559.23077 196.398774 
L 559.507934 186.80375 
L 559.785099 160.655253 
L 560.062264 199.11212 
L 560.339429 182.185986 
L 560.616594 191.130496 
L 560.893759 172.571466 
L 561.170924 171.656091 
L 561.448088 195.269089 
L 561.725253 198.689713 
L 562.002418 226.657649 
L 562.279583 230.850502 
L 562.556748 173.338783 
L 562.833913 201.095618 
L 563.111077 162.101922 
L 563.388242 236.837499 
L 563.665407 226.723679 
L 563.942572 117.119696 
L 564.219737 175.437031 
L 564.496902 196.661783 
L 564.774067 179.365177 
L 565.051231 185.56871 
L 565.328396 171.075644 
L 565.605561 179.252771 
L 565.882726 228.68561 
L 566.159891 160.647775 
L 566.437056 189.138967 
L 566.714221 150.917647 
L 566.991385 155.292971 
L 567.26855 189.152101 
L 567.545715 152.580282 
L 567.82288 187.559089 
L 568.100045 241.054482 
L 568.37721 185.790644 
L 568.654374 174.197343 
L 568.931539 219.058098 
L 569.208704 215.778406 
L 569.485869 189.702197 
L 569.763034 208.18221 
L 570.040199 161.952182 
L 570.594528 221.825126 
L 570.871693 190.433643 
L 571.148858 133.321823 
L 571.426023 226.714958 
L 571.703188 191.259303 
L 571.980353 192.889865 
L 572.534682 158.621222 
L 572.811847 206.256011 
L 573.089012 190.384518 
L 573.366177 187.621307 
L 573.643342 200.515601 
L 573.920507 224.075861 
L 574.197671 198.026677 
L 574.474836 231.854108 
L 574.752001 157.638485 
L 575.029166 203.984759 
L 575.306331 210.389264 
L 575.583496 185.388946 
L 575.860661 128.646141 
L 576.41499 224.829153 
L 576.692155 198.071943 
L 576.96932 207.632639 
L 577.246485 203.676742 
L 577.52365 180.791428 
L 577.800814 221.94579 
L 578.077979 153.143618 
L 578.632309 186.666447 
L 578.909474 180.840593 
L 579.186639 201.147727 
L 579.463804 196.736801 
L 579.740968 196.99054 
L 580.018133 210.421358 
L 580.295298 196.372907 
L 580.572463 200.458456 
L 580.849628 192.577893 
L 581.126793 219.234715 
L 581.403957 191.345217 
L 581.681122 211.073073 
L 581.958287 180.580985 
L 582.235452 196.407965 
L 582.512617 219.259568 
L 582.789782 174.108346 
L 583.066947 154.834806 
L 583.344111 205.527789 
L 583.621276 171.357576 
L 583.898441 164.505192 
L 584.175606 192.422925 
L 584.452771 164.326108 
L 584.729936 196.587417 
L 585.0071 187.71417 
L 585.284265 229.277885 
L 585.56143 165.72617 
L 586.11576 223.322921 
L 586.392925 135.338295 
L 586.67009 178.278554 
L 586.947254 172.475388 
L 587.224419 177.705874 
L 587.501584 201.410975 
L 587.778749 206.941124 
L 588.333079 198.893783 
L 588.610244 196.920998 
L 588.887408 183.67893 
L 589.164573 206.169269 
L 589.441738 205.79264 
L 589.718903 207.513571 
L 589.996068 192.890572 
L 590.273233 191.315871 
L 590.550397 173.575469 
L 590.827562 194.438731 
L 591.104727 199.134643 
L 591.381892 187.579952 
L 591.659057 133.533826 
L 591.936222 158.525003 
L 592.213387 213.2909 
L 592.490551 185.795771 
L 592.767716 204.166621 
L 593.044881 211.125973 
L 593.322046 185.863539 
L 593.876376 195.439284 
L 594.15354 194.115771 
L 594.430705 210.60803 
L 594.70787 187.942309 
L 594.985035 220.176814 
L 595.2622 227.7642 
L 595.81653 133.942903 
L 596.370859 198.846837 
L 596.925189 182.861476 
L 597.202354 196.687168 
L 597.756683 169.969173 
L 598.311013 195.858191 
L 598.588178 169.362239 
L 598.865343 242.014729 
L 599.142508 200.31764 
L 599.419673 219.897735 
L 599.696837 221.592774 
L 599.974002 170.615759 
L 600.251167 234.144492 
L 600.528332 176.016295 
L 600.805497 168.993018 
L 601.082662 177.720249 
L 601.359827 170.02679 
L 601.636991 199.304831 
L 601.914156 165.372073 
L 602.191321 168.63721 
L 602.468486 217.418027 
L 602.745651 174.478057 
L 603.022816 167.334554 
L 603.29998 199.210047 
L 603.577145 184.282355 
L 603.85431 202.218343 
L 604.40864 180.19852 
L 604.96297 208.954215 
L 605.240134 159.68167 
L 605.517299 207.440013 
L 605.794464 230.04946 
L 606.071629 218.87179 
L 606.348794 194.782937 
L 606.625959 221.146921 
L 606.903123 189.490452 
L 607.180288 199.899276 
L 608.011783 161.240309 
L 608.288948 186.102633 
L 608.566113 173.755815 
L 608.843277 174.016348 
L 609.120442 193.692581 
L 609.397607 196.417793 
L 609.674772 147.908552 
L 609.951937 192.287861 
L 610.229102 183.414938 
L 610.506266 196.248515 
L 610.783431 190.851464 
L 611.060596 190.891965 
L 611.337761 207.413082 
L 611.614926 180.500561 
L 611.892091 205.633908 
L 612.169256 185.054558 
L 612.44642 176.095523 
L 612.723585 171.626406 
L 613.00075 204.672707 
L 613.277915 186.308213 
L 613.832245 193.276085 
L 614.10941 198.941015 
L 614.386574 200.891216 
L 614.663739 203.713653 
L 614.940904 181.851853 
L 615.218069 204.693344 
L 615.495234 183.086051 
L 615.772399 178.523933 
L 616.049563 169.776685 
L 616.326728 200.276344 
L 616.603893 185.099949 
L 616.881058 187.876905 
L 617.158223 192.703255 
L 617.435388 204.263012 
L 617.712553 195.697527 
L 617.989717 203.31116 
L 618.266882 189.498863 
L 618.544047 198.949072 
L 618.821212 190.329652 
L 619.375542 181.608185 
L 619.652706 204.717051 
L 619.929871 189.360879 
L 620.207036 266.782696 
L 620.484201 171.105799 
L 620.761366 191.131099 
L 621.038531 167.01742 
L 621.315696 195.822041 
L 621.59286 193.046426 
L 621.870025 169.050751 
L 622.14719 186.492162 
L 622.424355 185.785587 
L 622.70152 341.265372 
L 622.978685 207.083031 
L 623.255849 158.646806 
L 623.810179 222.583029 
L 624.087344 185.671959 
L 624.364509 197.121415 
L 624.641674 139.643577 
L 624.918839 171.750957 
L 625.473168 266.445012 
L 625.750333 208.48067 
L 626.027498 93.590482 
L 626.304663 163.293848 
L 626.581828 175.352533 
L 626.858993 127.032797 
L 627.136157 141.52082 
L 627.413322 177.917644 
L 627.690487 366.721586 
L 628.244817 165.419105 
L 628.521982 270.182619 
L 628.799146 174.747998 
L 629.076311 152.897766 
L 629.353476 114.091595 
L 629.630641 166.950371 
L 629.907806 168.694731 
L 630.184971 256.914066 
L 630.462136 180.448435 
L 630.7393 174.037444 
L 631.016465 125.42806 
L 631.29363 341.09707 
L 631.570795 158.65154 
L 632.125125 115.112723 
L 632.679454 227.106339 
L 632.956619 157.67021 
L 633.233784 170.519799 
L 633.510949 100.530256 
L 633.788114 167.951834 
L 634.065279 366.863294 
L 634.342443 114.302118 
L 634.619608 84.969557 
L 634.896773 204.315838 
L 635.173938 108.48031 
L 636.005433 265.603095 
L 636.282597 166.350164 
L 636.559762 216.387883 
L 636.836927 164.592798 
L 637.114092 218.34796 
L 637.391257 142.63767 
L 637.945586 221.958159 
L 638.222751 224.523385 
L 638.499916 152.604452 
L 638.777081 179.276694 
L 639.054246 192.97152 
L 639.331411 151.855658 
L 639.608576 221.656421 
L 639.88574 219.243996 
L 640.162905 179.226902 
L 640.44007 212.607193 
L 640.717235 170.249164 
L 640.9944 201.608221 
L 641.271565 109.915861 
L 641.548729 247.490916 
L 641.825894 322.678916 
L 642.103059 173.140058 
L 642.380224 190.192539 
L 642.934554 296.796587 
L 643.488883 177.135469 
L 643.766048 178.516172 
L 644.043213 110.972783 
L 644.320378 191.806144 
L 644.597543 226.696784 
L 644.874708 159.919051 
L 645.429037 183.558115 
L 645.706202 180.863943 
L 645.983367 204.376553 
L 646.260532 130.960864 
L 646.814862 204.351726 
L 647.092026 167.858356 
L 647.369191 209.194126 
L 647.646356 153.670233 
L 647.923521 216.864529 
L 648.200686 118.420228 
L 648.477851 209.467578 
L 648.755016 230.534682 
L 649.03218 206.577691 
L 649.309345 150.317212 
L 649.58651 143.811105 
L 649.863675 210.637116 
L 650.14084 216.425512 
L 650.418005 185.601026 
L 650.695169 175.860214 
L 650.972334 191.192102 
L 651.249499 160.259374 
L 651.526664 206.070618 
L 651.803829 154.554653 
L 652.080994 218.913552 
L 652.358159 204.200405 
L 652.635323 134.167024 
L 652.912488 199.710076 
L 653.189653 186.81361 
L 653.466818 221.495811 
L 653.743983 211.596615 
L 654.021148 191.087102 
L 654.298312 247.628984 
L 654.575477 133.154262 
L 654.852642 211.557049 
L 655.129807 183.334912 
L 655.406972 198.751159 
L 655.684137 197.873474 
L 655.961302 161.381637 
L 656.238466 306.24617 
L 656.515631 131.579073 
L 656.792796 188.489792 
L 657.069961 208.043479 
L 657.347126 180.480852 
L 657.624291 188.189628 
L 657.901455 167.236893 
L 658.17862 216.721116 
L 658.455785 194.330471 
L 658.73295 182.466166 
L 659.010115 191.525823 
L 659.28728 188.313354 
L 659.564445 177.560142 
L 659.841609 204.755126 
L 660.118774 185.133021 
L 660.395939 226.496966 
L 660.673104 332.012991 
L 660.950269 143.67052 
L 661.227434 165.966726 
L 661.504599 159.193624 
L 662.058928 185.908248 
L 662.336093 171.493392 
L 662.613258 183.01822 
L 662.890423 158.812849 
L 663.167588 211.582728 
L 663.444752 187.713069 
L 663.721917 188.200201 
L 663.999082 147.732979 
L 664.553412 212.459937 
L 664.830577 205.605194 
L 665.107742 192.877536 
L 665.384906 197.434202 
L 665.662071 196.800538 
L 665.939236 195.533309 
L 666.216401 164.381453 
L 666.493566 210.904387 
L 666.770731 191.568975 
L 667.047895 184.716156 
L 667.32506 144.500805 
L 667.602225 201.834599 
L 667.87939 205.92263 
L 668.156555 206.977146 
L 668.43372 188.662393 
L 668.710885 206.420393 
L 668.988049 239.891545 
L 669.265214 155.304489 
L 669.542379 190.879026 
L 669.819544 185.765117 
L 670.096709 187.994388 
L 670.373874 182.148016 
L 670.651038 138.475988 
L 670.928203 201.613002 
L 671.205368 202.302604 
L 671.482533 201.047921 
L 672.036863 190.060919 
L 672.314028 183.053576 
L 672.591192 206.063062 
L 672.868357 191.941239 
L 673.145522 191.943904 
L 673.699852 190.71473 
L 673.977017 192.334889 
L 674.254182 190.445844 
L 674.531346 190.445844 
L 674.808511 189.02239 
L 675.085676 191.521805 
L 675.362841 186.961101 
L 675.362841 186.961101 
" clip-path="url(#pf9da80d6e4)" style="fill: none; stroke: #2878b5; stroke-width: 1.5; stroke-linecap: square"/>
   </g>
   <g id="line2d_24">
    <path d="M 37.73125 190.445844 
L 705.72625 190.445844 
" clip-path="url(#pf9da80d6e4)" style="fill: none; stroke-dasharray: 7.4,3.2; stroke-dashoffset: 0; stroke: #c82423; stroke-width: 2"/>
   </g>
   <g id="patch_3">
    <path d="M 37.73125 392.71875 
L 37.73125 27.04375 
" style="fill: none; stroke: #000000; stroke-width: 0.8; stroke-linejoin: miter; stroke-linecap: square"/>
   </g>
   <g id="patch_4">
    <path d="M 705.72625 392.71875 
L 705.72625 27.04375 
" style="fill: none; stroke: #000000; stroke-width: 0.8; stroke-linejoin: miter; stroke-linecap: square"/>
   </g>
   <g id="patch_5">
    <path d="M 37.73125 392.71875 
L 705.72625 392.71875 
" style="fill: none; stroke: #000000; stroke-width: 0.8; stroke-linejoin: miter; stroke-linecap: square"/>
   </g>
   <g id="patch_6">
    <path d="M 37.73125 27.04375 
L 705.72625 27.04375 
" style="fill: none; stroke: #000000; stroke-width: 0.8; stroke-linejoin: miter; stroke-linecap: square"/>
   </g>
   <g id="text_14">
    <!-- NH3_N_mg/L 预测残差分析 -->
    <g transform="translate(302.72875 17.04375) scale(0.12 -0.12)">
     <defs>
      <path id="SimHei-4e" d="M 2850 125 
L 2225 125 
L 850 3225 
L 825 3225 
L 825 125 
L 250 125 
L 250 4400 
L 875 4400 
L 2250 1300 
L 2275 1300 
L 2275 4400 
L 2850 4400 
L 2850 125 
z
" transform="scale(0.015625)"/>
      <path id="SimHei-48" d="M 2850 125 
L 2275 125 
L 2275 2125 
L 850 2125 
L 850 125 
L 275 125 
L 275 4400 
L 850 4400 
L 850 2600 
L 2275 2600 
L 2275 4400 
L 2850 4400 
L 2850 125 
z
" transform="scale(0.015625)"/>
      <path id="SimHei-33" d="M 250 1225 
L 700 1300 
Q 800 975 1025 762 
Q 1250 550 1587 562 
Q 1925 575 2125 837 
Q 2325 1100 2300 1437 
Q 2275 1775 2037 1962 
Q 1800 2150 1275 2225 
L 1275 2550 
Q 1800 2600 2037 2825 
Q 2275 3050 2250 3412 
Q 2225 3775 1925 3937 
Q 1625 4100 1287 3975 
Q 950 3850 750 3275 
L 300 3350 
Q 450 3800 712 4100 
Q 975 4400 1425 4450 
Q 1875 4500 2212 4337 
Q 2550 4175 2687 3837 
Q 2825 3500 2725 3100 
Q 2625 2700 2150 2400 
Q 2500 2250 2687 1950 
Q 2875 1650 2812 1162 
Q 2750 675 2375 375 
Q 2000 75 1525 87 
Q 1050 100 700 387 
Q 350 675 250 1225 
z
" transform="scale(0.015625)"/>
      <path id="SimHei-5f" d="M 3150 -850 
L 0 -850 
L 0 -550 
L 3150 -550 
L 3150 -850 
z
" transform="scale(0.015625)"/>
      <path id="SimHei-6d" d="M 3050 125 
L 2550 125 
L 2550 2150 
Q 2550 2300 2500 2400 
Q 2450 2500 2300 2500 
Q 2125 2500 1975 2312 
Q 1825 2125 1825 1825 
L 1825 125 
L 1325 125 
L 1325 2150 
Q 1325 2300 1275 2400 
Q 1225 2500 1075 2500 
Q 900 2500 750 2312 
Q 600 2125 600 1825 
L 600 125 
L 100 125 
L 100 2925 
L 600 2925 
L 600 2550 
Q 725 2750 900 2862 
Q 1075 2975 1275 2975 
Q 1475 2975 1612 2862 
Q 1750 2750 1800 2550 
Q 1925 2750 2087 2862 
Q 2250 2975 2450 2975 
Q 2750 2975 2900 2812 
Q 3050 2650 3050 2350 
L 3050 125 
z
" transform="scale(0.015625)"/>
      <path id="SimHei-67" d="M 2975 2500 
Q 2800 2550 2637 2562 
Q 2475 2575 2300 2525 
Q 2375 2450 2425 2337 
Q 2475 2225 2475 2000 
Q 2475 1575 2187 1300 
Q 1900 1025 1475 1025 
Q 1375 1025 1212 1062 
Q 1050 1100 950 1150 
Q 875 1100 850 1050 
Q 825 1000 825 925 
Q 825 800 1000 737 
Q 1175 675 1625 675 
Q 2350 675 2612 475 
Q 2875 275 2875 -25 
Q 2875 -425 2487 -612 
Q 2100 -800 1575 -800 
Q 900 -800 575 -625 
Q 250 -450 250 -150 
Q 250 0 375 150 
Q 500 300 700 400 
Q 550 475 462 587 
Q 375 700 375 875 
Q 375 1025 487 1137 
Q 600 1250 750 1325 
Q 625 1450 550 1625 
Q 475 1800 475 2000 
Q 475 2425 762 2700 
Q 1050 2975 1475 2975 
Q 1700 2975 1862 2912 
Q 2025 2850 2150 2725 
Q 2350 2875 2550 2937 
Q 2750 3000 2975 2975 
L 2975 2500 
z
M 1975 2000 
Q 1975 2250 1850 2400 
Q 1725 2550 1475 2550 
Q 1225 2550 1100 2400 
Q 975 2250 975 2000 
Q 975 1750 1100 1600 
Q 1225 1450 1475 1450 
Q 1725 1450 1850 1600 
Q 1975 1750 1975 2000 
z
M 2400 -75 
Q 2400 25 2287 125 
Q 2175 225 1725 225 
Q 1625 225 1450 237 
Q 1275 250 1050 275 
Q 850 200 775 100 
Q 700 0 700 -100 
Q 700 -250 900 -350 
Q 1100 -450 1600 -450 
Q 2025 -450 2212 -337 
Q 2400 -225 2400 -75 
z
" transform="scale(0.015625)"/>
      <path id="SimHei-4c" d="M 2900 125 
L 300 125 
L 300 4400 
L 875 4400 
L 875 600 
L 2900 600 
L 2900 125 
z
" transform="scale(0.015625)"/>
      <path id="SimHei-9884" d="M 5200 4800 
Q 5575 4800 5950 4825 
L 5950 4400 
Q 5575 4425 5200 4425 
L 4500 4425 
Q 4425 4050 4350 3600 
L 5725 3600 
Q 5700 3225 5700 2800 
L 5700 1725 
Q 5700 1300 5725 850 
L 5250 850 
L 5250 3225 
L 3550 3225 
L 3550 800 
L 3075 800 
Q 3100 1375 3100 1725 
L 3100 2775 
Q 3100 3175 3075 3600 
L 3900 3600 
Q 4000 4150 4000 4425 
L 3725 4425 
Q 3300 4425 2850 4400 
L 2850 4825 
Q 3325 4800 3725 4800 
L 5200 4800 
z
M 2600 1775 
Q 2350 1825 2150 1825 
Q 2250 2250 2300 2450 
L 1750 2450 
L 1750 125 
Q 1725 -300 1425 -400 
Q 1125 -500 750 -500 
Q 700 -225 575 25 
Q 1125 -25 1212 37 
Q 1300 100 1300 350 
L 1300 2450 
L 1025 2450 
Q 700 2450 350 2425 
L 350 2850 
Q 700 2825 1000 2825 
L 2850 2825 
Q 2725 2325 2600 1775 
z
M 4725 2875 
Q 4625 2575 4600 2100 
Q 4575 1625 4462 1037 
Q 4350 450 3962 62 
Q 3575 -325 2925 -675 
Q 2700 -500 2475 -350 
Q 3075 -125 3437 200 
Q 3800 525 3950 937 
Q 4100 1350 4137 1850 
Q 4175 2350 4175 2925 
L 4725 2875 
z
M 1625 2900 
Q 1275 3275 800 3650 
Q 925 3775 1075 3950 
Q 1250 3825 1425 3675 
Q 1750 4150 1950 4375 
L 1400 4375 
Q 900 4375 450 4350 
L 450 4775 
Q 900 4750 1375 4750 
L 2575 4750 
L 2575 4375 
Q 2200 4100 1725 3400 
L 1950 3200 
Q 1750 3025 1625 2900 
z
M 4775 725 
Q 5725 0 6075 -325 
Q 5850 -500 5725 -650 
Q 5400 -325 5137 -87 
Q 4875 150 4525 350 
Q 4650 525 4775 725 
z
" transform="scale(0.015625)"/>
      <path id="SimHei-6d4b" d="M 4025 4725 
Q 4000 4475 4000 4000 
L 4000 2225 
Q 4000 1775 4025 1350 
L 3550 1350 
L 3550 4325 
L 2350 4325 
L 2350 1325 
L 1900 1325 
Q 1925 1775 1925 2225 
L 1925 4000 
Q 1925 4200 1900 4725 
L 4025 4725 
z
M 5900 5075 
Q 5875 4800 5875 4375 
L 5875 0 
Q 5875 -325 5650 -425 
Q 5425 -525 4975 -600 
Q 4925 -325 4775 -50 
Q 5125 -50 5262 -25 
Q 5400 0 5400 250 
L 5400 4375 
Q 5400 4775 5375 5075 
L 5900 5075 
z
M 3275 3725 
Q 3225 3400 3200 2325 
Q 3175 1250 2837 550 
Q 2500 -150 2075 -600 
Q 1850 -400 1600 -325 
Q 2200 250 2475 962 
Q 2750 1675 2762 2475 
Q 2775 3275 2725 3800 
Q 3000 3750 3275 3725 
z
M 4950 4275 
Q 4925 4000 4925 3575 
L 4925 1825 
Q 4925 1300 4950 850 
L 4450 850 
Q 4475 1150 4475 1825 
L 4475 3575 
Q 4475 4000 4450 4275 
L 4950 4275 
z
M 1700 1675 
Q 1375 1075 1112 487 
Q 850 -100 725 -400 
Q 500 -200 200 -25 
Q 475 300 762 850 
Q 1050 1400 1250 2000 
Q 1475 1825 1700 1675 
z
M 3400 1050 
Q 3800 650 4300 -125 
Q 4100 -225 3875 -450 
Q 3475 275 3025 750 
Q 3225 875 3400 1050 
z
M 600 3525 
Q 1125 3125 1500 2775 
Q 1300 2575 1150 2375 
Q 825 2775 300 3150 
Q 450 3300 600 3525 
z
M 1350 4000 
Q 950 4375 475 4675 
Q 625 4850 775 5050 
Q 1300 4700 1675 4375 
Q 1500 4250 1350 4000 
z
" transform="scale(0.015625)"/>
      <path id="SimHei-5206" d="M 1000 -650 
Q 825 -375 575 -225 
Q 975 -75 1300 137 
Q 1625 350 1875 662 
Q 2125 975 2250 1350 
Q 2375 1725 2425 2275 
Q 1850 2275 1500 2250 
L 1500 2775 
Q 1900 2750 2525 2750 
L 5025 2750 
Q 4975 2375 4950 2100 
L 4750 250 
Q 4700 -200 4350 -350 
Q 4000 -500 3575 -525 
Q 3550 -275 3325 50 
Q 3850 25 4037 87 
Q 4225 150 4275 525 
L 4450 2275 
L 2950 2275 
Q 2875 1625 2737 1187 
Q 2600 750 2350 425 
Q 2100 100 1750 -175 
Q 1400 -450 1000 -650 
z
M 3950 5175 
Q 4125 4650 4662 3975 
Q 5200 3300 6175 2800 
Q 5975 2625 5775 2275 
Q 5325 2600 4987 2887 
Q 4650 3175 4425 3425 
Q 4200 3675 3925 4137 
Q 3650 4600 3475 5000 
Q 3750 5075 3950 5175 
z
M 2700 4825 
Q 2475 4425 2325 4125 
Q 2175 3825 2025 3587 
Q 1875 3350 1575 2950 
Q 1275 2550 850 2125 
Q 625 2350 400 2475 
Q 900 2925 1187 3300 
Q 1475 3675 1737 4112 
Q 2000 4550 2200 5075 
Q 2400 4925 2700 4825 
z
" transform="scale(0.015625)"/>
      <path id="SimHei-6790" d="M 5900 4550 
Q 5575 4525 5087 4450 
Q 4600 4375 3725 4275 
L 3725 3075 
L 5400 3075 
Q 5725 3075 6150 3100 
L 6150 2650 
Q 5700 2675 5250 2675 
L 5250 350 
Q 5250 -100 5275 -475 
L 4750 -475 
Q 4775 -75 4775 375 
L 4775 2675 
L 3725 2675 
Q 3725 2175 3650 1637 
Q 3575 1100 3437 637 
Q 3300 175 2850 -500 
Q 2675 -300 2275 -150 
Q 2825 325 3050 1112 
Q 3275 1900 3262 3000 
Q 3250 4100 3225 4650 
Q 3975 4700 4562 4800 
Q 5150 4900 5500 5050 
Q 5675 4750 5900 4550 
z
M 1900 525 
Q 1900 200 1925 -525 
L 1400 -525 
Q 1425 25 1425 525 
L 1425 2250 
Q 1175 1625 600 800 
Q 425 1075 200 1225 
Q 650 1725 962 2387 
Q 1275 3050 1375 3425 
Q 925 3425 450 3400 
L 450 3850 
Q 925 3825 1425 3825 
L 1425 4450 
Q 1425 4775 1400 5125 
L 1950 5125 
Q 1900 4825 1900 4450 
L 1900 3825 
Q 2300 3825 2775 3850 
L 2775 3400 
Q 2300 3425 1900 3425 
L 1900 525 
z
M 2375 2750 
Q 2800 2050 2925 1800 
Q 2700 1700 2450 1550 
Q 2300 1900 1950 2525 
Q 2175 2625 2375 2750 
z
" transform="scale(0.015625)"/>
     </defs>
     <use xlink:href="#SimHei-4e"/>
     <use xlink:href="#SimHei-48" transform="translate(50 0)"/>
     <use xlink:href="#SimHei-33" transform="translate(100 0)"/>
     <use xlink:href="#SimHei-5f" transform="translate(150 0)"/>
     <use xlink:href="#SimHei-4e" transform="translate(200 0)"/>
     <use xlink:href="#SimHei-5f" transform="translate(250 0)"/>
     <use xlink:href="#SimHei-6d" transform="translate(300 0)"/>
     <use xlink:href="#SimHei-67" transform="translate(350 0)"/>
     <use xlink:href="#SimHei-2f" transform="translate(400 0)"/>
     <use xlink:href="#SimHei-4c" transform="translate(450 0)"/>
     <use xlink:href="#SimHei-20" transform="translate(500 0)"/>
     <use xlink:href="#SimHei-9884" transform="translate(550 0)"/>
     <use xlink:href="#SimHei-6d4b" transform="translate(650 0)"/>
     <use xlink:href="#SimHei-6b8b" transform="translate(750 0)"/>
     <use xlink:href="#SimHei-5dee" transform="translate(850 0)"/>
     <use xlink:href="#SimHei-5206" transform="translate(950 0)"/>
     <use xlink:href="#SimHei-6790" transform="translate(1050 0)"/>
    </g>
   </g>
   <g id="legend_1">
    <g id="patch_7">
     <path d="M 634.62625 60.11875 
L 699.42625 60.11875 
Q 701.22625 60.11875 701.22625 58.31875 
L 701.22625 33.34375 
Q 701.22625 31.54375 699.42625 31.54375 
L 634.62625 31.54375 
Q 632.82625 31.54375 632.82625 33.34375 
L 632.82625 58.31875 
Q 632.82625 60.11875 634.62625 60.11875 
z
" style="fill: #ffffff; opacity: 0.8; stroke: #cccccc; stroke-width: 0.5; stroke-linejoin: miter"/>
    </g>
    <g id="line2d_25">
     <path d="M 636.42625 39.376562 
L 645.42625 39.376562 
L 654.42625 39.376562 
" style="fill: none; stroke: #2878b5; stroke-width: 1.5; stroke-linecap: square"/>
    </g>
    <g id="text_15">
     <!-- 预测残差 -->
     <g transform="translate(661.62625 42.526562) scale(0.09 -0.09)">
      <use xlink:href="#SimHei-9884"/>
      <use xlink:href="#SimHei-6d4b" transform="translate(100 0)"/>
      <use xlink:href="#SimHei-6b8b" transform="translate(200 0)"/>
      <use xlink:href="#SimHei-5dee" transform="translate(300 0)"/>
     </g>
    </g>
    <g id="line2d_26">
     <path d="M 636.42625 52.24375 
L 645.42625 52.24375 
L 654.42625 52.24375 
" style="fill: none; stroke-dasharray: 7.4,3.2; stroke-dashoffset: 0; stroke: #c82423; stroke-width: 2"/>
    </g>
    <g id="text_16">
     <!-- 零线 -->
     <g transform="translate(661.62625 55.39375) scale(0.09 -0.09)">
      <defs>
       <path id="SimHei-96f6" d="M 3375 2525 
Q 3425 2425 3950 2125 
Q 4475 1825 4975 1675 
Q 5475 1525 6075 1450 
Q 5875 1200 5775 925 
Q 5325 1025 4900 1175 
Q 4475 1325 3950 1637 
Q 3425 1950 3100 2250 
Q 2875 2075 2512 1812 
Q 2150 1550 1662 1312 
Q 1175 1075 625 900 
Q 525 1100 325 1375 
Q 800 1450 1175 1600 
Q 1550 1750 1875 1925 
Q 2200 2100 2475 2325 
Q 2750 2550 2925 2825 
Q 2950 3100 2950 3450 
L 2950 3925 
L 950 3925 
L 950 3250 
L 475 3250 
L 475 4300 
L 2950 4300 
L 2950 4700 
L 1775 4700 
Q 1425 4700 1100 4675 
L 1100 5100 
Q 1425 5075 1750 5075 
L 4625 5075 
Q 4875 5075 5325 5100 
L 5325 4675 
Q 4875 4700 4475 4700 
L 3400 4700 
L 3400 4300 
L 5875 4300 
Q 5850 4050 5850 3800 
Q 5850 3550 5875 3300 
L 5400 3300 
L 5400 3925 
L 3400 3925 
L 3400 3450 
Q 3400 3175 3425 2825 
L 3050 2825 
Q 3250 2750 3525 2675 
L 3375 2525 
z
M 2300 500 
Q 2750 350 3175 200 
Q 3325 325 3750 775 
L 2325 775 
Q 1900 775 1475 750 
L 1475 1200 
Q 1900 1175 2325 1175 
L 4700 1175 
Q 4475 950 4150 587 
Q 3825 225 3625 50 
Q 3775 -25 3950 -87 
Q 4125 -150 4400 -275 
Q 4250 -475 4125 -700 
Q 3450 -400 2950 -212 
Q 2450 -25 2100 75 
Q 2225 275 2300 500 
z
M 5075 2600 
L 3750 2600 
L 3750 2950 
L 5075 2950 
L 5075 2600 
z
M 5075 3325 
L 3775 3325 
L 3775 3675 
L 5075 3675 
L 5075 3325 
z
M 2500 3325 
L 1250 3325 
L 1250 3675 
L 2500 3675 
L 2500 3325 
z
M 2475 2600 
L 1225 2600 
L 1225 2950 
L 2475 2950 
L 2475 2600 
z
M 3100 1950 
Q 3200 1800 3237 1712 
Q 3275 1625 3400 1400 
Q 3150 1300 2975 1200 
Q 2850 1500 2700 1775 
Q 2975 1875 3100 1950 
z
" transform="scale(0.015625)"/>
       <path id="SimHei-7ebf" d="M 3450 4300 
Q 3450 4675 3375 5125 
Q 3700 5100 4050 5050 
Q 3975 4900 3950 4562 
Q 3925 4225 3950 3600 
L 4800 3750 
Q 5225 3850 5650 3975 
L 5750 3500 
Q 5325 3450 4875 3375 
L 3975 3200 
Q 3975 2800 4025 2500 
L 5000 2675 
Q 5500 2775 5950 2925 
L 6025 2450 
Q 5575 2375 5075 2275 
L 4100 2100 
Q 4150 1600 4350 1175 
Q 4575 1350 4787 1575 
Q 5000 1800 5175 2075 
Q 5550 1775 5750 1675 
Q 5425 1525 5237 1337 
Q 5050 1150 4625 750 
Q 4925 250 5162 112 
Q 5400 -25 5500 100 
Q 5600 225 5675 625 
Q 5900 450 6200 350 
Q 5775 -750 5275 -537 
Q 4775 -325 4225 450 
Q 3875 175 3537 -62 
Q 3200 -300 2700 -550 
Q 2575 -300 2325 -100 
Q 2825 75 3175 275 
Q 3525 475 3975 850 
Q 3750 1350 3650 2025 
Q 2900 1900 2600 1800 
L 2525 2275 
Q 2825 2275 3550 2425 
Q 3500 2825 3500 3100 
Q 2825 2950 2575 2875 
L 2475 3350 
Q 2725 3350 3450 3500 
L 3450 4300 
z
M 1950 4875 
Q 1700 4650 1462 4237 
Q 1225 3825 825 3225 
Q 1425 3250 1650 3250 
Q 1875 3625 2050 4075 
Q 2300 3900 2600 3800 
Q 2350 3550 2087 3125 
Q 1825 2700 1175 1675 
Q 1850 1725 2375 1775 
Q 2300 1525 2300 1350 
Q 2125 1350 1525 1287 
Q 925 1225 550 1125 
Q 525 1375 400 1650 
Q 700 1725 950 2050 
Q 1200 2375 1475 2875 
Q 650 2825 425 2675 
Q 350 2950 200 3225 
Q 525 3450 825 3962 
Q 1125 4475 1375 5150 
Q 1625 4975 1950 4875 
z
M 2575 875 
Q 2550 600 2575 450 
Q 1950 325 1450 200 
Q 950 75 525 -75 
Q 450 200 250 475 
Q 950 550 1325 612 
Q 1700 675 2575 875 
z
M 4850 4025 
Q 4675 4300 4375 4675 
L 4775 4875 
Q 4875 4750 5275 4275 
Q 5025 4175 4850 4025 
z
" transform="scale(0.015625)"/>
      </defs>
      <use xlink:href="#SimHei-96f6"/>
      <use xlink:href="#SimHei-7ebf" transform="translate(100 0)"/>
     </g>
    </g>
   </g>
  </g>
 </g>
 <defs>
  <clipPath id="pf9da80d6e4">
   <rect x="37.73125" y="27.04375" width="667.995" height="365.675"/>
  </clipPath>
 </defs>
</svg>
