<?xml version="1.0" encoding="utf-8" standalone="no"?>
<!DOCTYPE svg PUBLIC "-//W3C//DTD SVG 1.1//EN"
  "http://www.w3.org/Graphics/SVG/1.1/DTD/svg11.dtd">
<svg xmlns:xlink="http://www.w3.org/1999/xlink" width="712.427656pt" height="422.765937pt" viewBox="0 0 712.427656 422.765937" xmlns="http://www.w3.org/2000/svg" version="1.1">
 <metadata>
  <rdf:RDF xmlns:dc="http://purl.org/dc/elements/1.1/" xmlns:cc="http://creativecommons.org/ns#" xmlns:rdf="http://www.w3.org/1999/02/22-rdf-syntax-ns#">
   <cc:Work>
    <dc:type rdf:resource="http://purl.org/dc/dcmitype/StillImage"/>
    <dc:date>2026-01-16T01:41:37.264768</dc:date>
    <dc:format>image/svg+xml</dc:format>
    <dc:creator>
     <cc:Agent>
      <dc:title>Matplotlib v3.10.0, https://matplotlib.org/</dc:title>
     </cc:Agent>
    </dc:creator>
   </cc:Work>
  </rdf:RDF>
 </metadata>
 <defs>
  <style type="text/css">*{stroke-linejoin: round; stroke-linecap: butt}</style>
 </defs>
 <g id="figure_1">
  <g id="patch_1">
   <path d="M 0 422.765937 
L 712.427656 422.765937 
L 712.427656 0 
L 0 0 
z
" style="fill: #ffffff"/>
  </g>
  <g id="axes_1">
   <g id="patch_2">
    <path d="M 39.077656 389.6775 
L 705.227656 389.6775 
L 705.227656 26.10625 
L 39.077656 26.10625 
z
" style="fill: #ffffff"/>
   </g>
   <g id="matplotlib.axis_1">
    <g id="xtick_1">
     <g id="line2d_1">
      <path d="M 69.080802 389.6775 
L 69.080802 26.10625 
" clip-path="url(#p9676b05eee)" style="fill: none; stroke-dasharray: 1.85,0.8; stroke-dashoffset: 0; stroke: #b2b2b2; stroke-opacity: 0.3; stroke-width: 0.5"/>
     </g>
     <g id="line2d_2">
      <defs>
       <path id="m7258e90893" d="M 0 0 
L 0 -3.5 
" style="stroke: #000000; stroke-width: 0.8"/>
      </defs>
      <g>
       <use xlink:href="#m7258e90893" x="69.080802" y="389.6775" style="stroke: #000000; stroke-width: 0.8"/>
      </g>
     </g>
     <g id="text_1">
      <!-- 0 -->
      <g transform="translate(66.217677 400.016094) scale(0.09 -0.09)">
       <defs>
        <path id="DejaVuSans-30" d="M 2034 4250 
Q 1547 4250 1301 3770 
Q 1056 3291 1056 2328 
Q 1056 1369 1301 889 
Q 1547 409 2034 409 
Q 2525 409 2770 889 
Q 3016 1369 3016 2328 
Q 3016 3291 2770 3770 
Q 2525 4250 2034 4250 
z
M 2034 4750 
Q 2819 4750 3233 4129 
Q 3647 3509 3647 2328 
Q 3647 1150 3233 529 
Q 2819 -91 2034 -91 
Q 1250 -91 836 529 
Q 422 1150 422 2328 
Q 422 3509 836 4129 
Q 1250 4750 2034 4750 
z
" transform="scale(0.015625)"/>
       </defs>
       <use xlink:href="#DejaVuSans-30"/>
      </g>
     </g>
    </g>
    <g id="xtick_2">
     <g id="line2d_3">
      <path d="M 207.280462 389.6775 
L 207.280462 26.10625 
" clip-path="url(#p9676b05eee)" style="fill: none; stroke-dasharray: 1.85,0.8; stroke-dashoffset: 0; stroke: #b2b2b2; stroke-opacity: 0.3; stroke-width: 0.5"/>
     </g>
     <g id="line2d_4">
      <g>
       <use xlink:href="#m7258e90893" x="207.280462" y="389.6775" style="stroke: #000000; stroke-width: 0.8"/>
      </g>
     </g>
     <g id="text_2">
      <!-- 500 -->
      <g transform="translate(198.691087 400.016094) scale(0.09 -0.09)">
       <defs>
        <path id="DejaVuSans-35" d="M 691 4666 
L 3169 4666 
L 3169 4134 
L 1269 4134 
L 1269 2991 
Q 1406 3038 1543 3061 
Q 1681 3084 1819 3084 
Q 2600 3084 3056 2656 
Q 3513 2228 3513 1497 
Q 3513 744 3044 326 
Q 2575 -91 1722 -91 
Q 1428 -91 1123 -41 
Q 819 9 494 109 
L 494 744 
Q 775 591 1075 516 
Q 1375 441 1709 441 
Q 2250 441 2565 725 
Q 2881 1009 2881 1497 
Q 2881 1984 2565 2268 
Q 2250 2553 1709 2553 
Q 1456 2553 1204 2497 
Q 953 2441 691 2322 
L 691 4666 
z
" transform="scale(0.015625)"/>
       </defs>
       <use xlink:href="#DejaVuSans-35"/>
       <use xlink:href="#DejaVuSans-30" transform="translate(63.623047 0)"/>
       <use xlink:href="#DejaVuSans-30" transform="translate(127.246094 0)"/>
      </g>
     </g>
    </g>
    <g id="xtick_3">
     <g id="line2d_5">
      <path d="M 345.480122 389.6775 
L 345.480122 26.10625 
" clip-path="url(#p9676b05eee)" style="fill: none; stroke-dasharray: 1.85,0.8; stroke-dashoffset: 0; stroke: #b2b2b2; stroke-opacity: 0.3; stroke-width: 0.5"/>
     </g>
     <g id="line2d_6">
      <g>
       <use xlink:href="#m7258e90893" x="345.480122" y="389.6775" style="stroke: #000000; stroke-width: 0.8"/>
      </g>
     </g>
     <g id="text_3">
      <!-- 1000 -->
      <g transform="translate(334.027622 400.016094) scale(0.09 -0.09)">
       <defs>
        <path id="DejaVuSans-31" d="M 794 531 
L 1825 531 
L 1825 4091 
L 703 3866 
L 703 4441 
L 1819 4666 
L 2450 4666 
L 2450 531 
L 3481 531 
L 3481 0 
L 794 0 
L 794 531 
z
" transform="scale(0.015625)"/>
       </defs>
       <use xlink:href="#DejaVuSans-31"/>
       <use xlink:href="#DejaVuSans-30" transform="translate(63.623047 0)"/>
       <use xlink:href="#DejaVuSans-30" transform="translate(127.246094 0)"/>
       <use xlink:href="#DejaVuSans-30" transform="translate(190.869141 0)"/>
      </g>
     </g>
    </g>
    <g id="xtick_4">
     <g id="line2d_7">
      <path d="M 483.679782 389.6775 
L 483.679782 26.10625 
" clip-path="url(#p9676b05eee)" style="fill: none; stroke-dasharray: 1.85,0.8; stroke-dashoffset: 0; stroke: #b2b2b2; stroke-opacity: 0.3; stroke-width: 0.5"/>
     </g>
     <g id="line2d_8">
      <g>
       <use xlink:href="#m7258e90893" x="483.679782" y="389.6775" style="stroke: #000000; stroke-width: 0.8"/>
      </g>
     </g>
     <g id="text_4">
      <!-- 1500 -->
      <g transform="translate(472.227282 400.016094) scale(0.09 -0.09)">
       <use xlink:href="#DejaVuSans-31"/>
       <use xlink:href="#DejaVuSans-35" transform="translate(63.623047 0)"/>
       <use xlink:href="#DejaVuSans-30" transform="translate(127.246094 0)"/>
       <use xlink:href="#DejaVuSans-30" transform="translate(190.869141 0)"/>
      </g>
     </g>
    </g>
    <g id="xtick_5">
     <g id="line2d_9">
      <path d="M 621.879441 389.6775 
L 621.879441 26.10625 
" clip-path="url(#p9676b05eee)" style="fill: none; stroke-dasharray: 1.85,0.8; stroke-dashoffset: 0; stroke: #b2b2b2; stroke-opacity: 0.3; stroke-width: 0.5"/>
     </g>
     <g id="line2d_10">
      <g>
       <use xlink:href="#m7258e90893" x="621.879441" y="389.6775" style="stroke: #000000; stroke-width: 0.8"/>
      </g>
     </g>
     <g id="text_5">
      <!-- 2000 -->
      <g transform="translate(610.426941 400.016094) scale(0.09 -0.09)">
       <defs>
        <path id="DejaVuSans-32" d="M 1228 531 
L 3431 531 
L 3431 0 
L 469 0 
L 469 531 
Q 828 903 1448 1529 
Q 2069 2156 2228 2338 
Q 2531 2678 2651 2914 
Q 2772 3150 2772 3378 
Q 2772 3750 2511 3984 
Q 2250 4219 1831 4219 
Q 1534 4219 1204 4116 
Q 875 4013 500 3803 
L 500 4441 
Q 881 4594 1212 4672 
Q 1544 4750 1819 4750 
Q 2544 4750 2975 4387 
Q 3406 4025 3406 3419 
Q 3406 3131 3298 2873 
Q 3191 2616 2906 2266 
Q 2828 2175 2409 1742 
Q 1991 1309 1228 531 
z
" transform="scale(0.015625)"/>
       </defs>
       <use xlink:href="#DejaVuSans-32"/>
       <use xlink:href="#DejaVuSans-30" transform="translate(63.623047 0)"/>
       <use xlink:href="#DejaVuSans-30" transform="translate(127.246094 0)"/>
       <use xlink:href="#DejaVuSans-30" transform="translate(190.869141 0)"/>
      </g>
     </g>
    </g>
    <g id="text_6">
     <!-- 时间 / 序号 -->
     <g transform="translate(355.287031 413.48625) scale(0.1 -0.1)">
      <defs>
       <path id="DejaVuSans-65f6" d="M 319 -1131 
L 319 4513 
L 3519 4513 
L 3519 -1131 
L 319 -1131 
z
M 678 -775 
L 3163 -775 
L 3163 4153 
L 678 4153 
L 678 -775 
z
" transform="scale(0.015625)"/>
       <path id="DejaVuSans-95f4" d="M 319 -1131 
L 319 4513 
L 3519 4513 
L 3519 -1131 
L 319 -1131 
z
M 678 -775 
L 3163 -775 
L 3163 4153 
L 678 4153 
L 678 -775 
z
" transform="scale(0.015625)"/>
       <path id="DejaVuSans-20" transform="scale(0.015625)"/>
       <path id="DejaVuSans-2f" d="M 1625 4666 
L 2156 4666 
L 531 -594 
L 0 -594 
L 1625 4666 
z
" transform="scale(0.015625)"/>
       <path id="DejaVuSans-5e8f" d="M 319 -1131 
L 319 4513 
L 3519 4513 
L 3519 -1131 
L 319 -1131 
z
M 678 -775 
L 3163 -775 
L 3163 4153 
L 678 4153 
L 678 -775 
z
" transform="scale(0.015625)"/>
       <path id="DejaVuSans-53f7" d="M 319 -1131 
L 319 4513 
L 3519 4513 
L 3519 -1131 
L 319 -1131 
z
M 678 -775 
L 3163 -775 
L 3163 4153 
L 678 4153 
L 678 -775 
z
" transform="scale(0.015625)"/>
      </defs>
      <use xlink:href="#DejaVuSans-65f6"/>
      <use xlink:href="#DejaVuSans-95f4" transform="translate(60.009766 0)"/>
      <use xlink:href="#DejaVuSans-20" transform="translate(120.019531 0)"/>
      <use xlink:href="#DejaVuSans-2f" transform="translate(151.806641 0)"/>
      <use xlink:href="#DejaVuSans-20" transform="translate(185.498047 0)"/>
      <use xlink:href="#DejaVuSans-5e8f" transform="translate(217.285156 0)"/>
      <use xlink:href="#DejaVuSans-53f7" transform="translate(277.294922 0)"/>
     </g>
    </g>
   </g>
   <g id="matplotlib.axis_2">
    <g id="ytick_1">
     <g id="line2d_11">
      <path d="M 39.077656 379.584075 
L 705.227656 379.584075 
" clip-path="url(#p9676b05eee)" style="fill: none; stroke-dasharray: 1.85,0.8; stroke-dashoffset: 0; stroke: #b2b2b2; stroke-opacity: 0.3; stroke-width: 0.5"/>
     </g>
     <g id="line2d_12">
      <defs>
       <path id="m6ca192f31e" d="M 0 0 
L 3.5 0 
" style="stroke: #000000; stroke-width: 0.8"/>
      </defs>
      <g>
       <use xlink:href="#m6ca192f31e" x="39.077656" y="379.584075" style="stroke: #000000; stroke-width: 0.8"/>
      </g>
     </g>
     <g id="text_7">
      <!-- -15 -->
      <g transform="translate(20.878125 383.003372) scale(0.09 -0.09)">
       <defs>
        <path id="DejaVuSans-2d" d="M 313 2009 
L 1997 2009 
L 1997 1497 
L 313 1497 
L 313 2009 
z
" transform="scale(0.015625)"/>
       </defs>
       <use xlink:href="#DejaVuSans-2d"/>
       <use xlink:href="#DejaVuSans-31" transform="translate(36.083984 0)"/>
       <use xlink:href="#DejaVuSans-35" transform="translate(99.707031 0)"/>
      </g>
     </g>
    </g>
    <g id="ytick_2">
     <g id="line2d_13">
      <path d="M 39.077656 315.912144 
L 705.227656 315.912144 
" clip-path="url(#p9676b05eee)" style="fill: none; stroke-dasharray: 1.85,0.8; stroke-dashoffset: 0; stroke: #b2b2b2; stroke-opacity: 0.3; stroke-width: 0.5"/>
     </g>
     <g id="line2d_14">
      <g>
       <use xlink:href="#m6ca192f31e" x="39.077656" y="315.912144" style="stroke: #000000; stroke-width: 0.8"/>
      </g>
     </g>
     <g id="text_8">
      <!-- -10 -->
      <g transform="translate(20.878125 319.331441) scale(0.09 -0.09)">
       <use xlink:href="#DejaVuSans-2d"/>
       <use xlink:href="#DejaVuSans-31" transform="translate(36.083984 0)"/>
       <use xlink:href="#DejaVuSans-30" transform="translate(99.707031 0)"/>
      </g>
     </g>
    </g>
    <g id="ytick_3">
     <g id="line2d_15">
      <path d="M 39.077656 252.240213 
L 705.227656 252.240213 
" clip-path="url(#p9676b05eee)" style="fill: none; stroke-dasharray: 1.85,0.8; stroke-dashoffset: 0; stroke: #b2b2b2; stroke-opacity: 0.3; stroke-width: 0.5"/>
     </g>
     <g id="line2d_16">
      <g>
       <use xlink:href="#m6ca192f31e" x="39.077656" y="252.240213" style="stroke: #000000; stroke-width: 0.8"/>
      </g>
     </g>
     <g id="text_9">
      <!-- -5 -->
      <g transform="translate(26.604375 255.65951) scale(0.09 -0.09)">
       <use xlink:href="#DejaVuSans-2d"/>
       <use xlink:href="#DejaVuSans-35" transform="translate(36.083984 0)"/>
      </g>
     </g>
    </g>
    <g id="ytick_4">
     <g id="line2d_17">
      <path d="M 39.077656 188.568282 
L 705.227656 188.568282 
" clip-path="url(#p9676b05eee)" style="fill: none; stroke-dasharray: 1.85,0.8; stroke-dashoffset: 0; stroke: #b2b2b2; stroke-opacity: 0.3; stroke-width: 0.5"/>
     </g>
     <g id="line2d_18">
      <g>
       <use xlink:href="#m6ca192f31e" x="39.077656" y="188.568282" style="stroke: #000000; stroke-width: 0.8"/>
      </g>
     </g>
     <g id="text_10">
      <!-- 0 -->
      <g transform="translate(29.851406 191.987579) scale(0.09 -0.09)">
       <use xlink:href="#DejaVuSans-30"/>
      </g>
     </g>
    </g>
    <g id="ytick_5">
     <g id="line2d_19">
      <path d="M 39.077656 124.896351 
L 705.227656 124.896351 
" clip-path="url(#p9676b05eee)" style="fill: none; stroke-dasharray: 1.85,0.8; stroke-dashoffset: 0; stroke: #b2b2b2; stroke-opacity: 0.3; stroke-width: 0.5"/>
     </g>
     <g id="line2d_20">
      <g>
       <use xlink:href="#m6ca192f31e" x="39.077656" y="124.896351" style="stroke: #000000; stroke-width: 0.8"/>
      </g>
     </g>
     <g id="text_11">
      <!-- 5 -->
      <g transform="translate(29.851406 128.315648) scale(0.09 -0.09)">
       <use xlink:href="#DejaVuSans-35"/>
      </g>
     </g>
    </g>
    <g id="ytick_6">
     <g id="line2d_21">
      <path d="M 39.077656 61.22442 
L 705.227656 61.22442 
" clip-path="url(#p9676b05eee)" style="fill: none; stroke-dasharray: 1.85,0.8; stroke-dashoffset: 0; stroke: #b2b2b2; stroke-opacity: 0.3; stroke-width: 0.5"/>
     </g>
     <g id="line2d_22">
      <g>
       <use xlink:href="#m6ca192f31e" x="39.077656" y="61.22442" style="stroke: #000000; stroke-width: 0.8"/>
      </g>
     </g>
     <g id="text_12">
      <!-- 10 -->
      <g transform="translate(24.125156 64.643717) scale(0.09 -0.09)">
       <use xlink:href="#DejaVuSans-31"/>
       <use xlink:href="#DejaVuSans-30" transform="translate(63.623047 0)"/>
      </g>
     </g>
    </g>
    <g id="text_13">
     <!-- 残差值 -->
     <g transform="translate(14.798438 216.894219) rotate(-90) scale(0.1 -0.1)">
      <defs>
       <path id="DejaVuSans-6b8b" d="M 319 -1131 
L 319 4513 
L 3519 4513 
L 3519 -1131 
L 319 -1131 
z
M 678 -775 
L 3163 -775 
L 3163 4153 
L 678 4153 
L 678 -775 
z
" transform="scale(0.015625)"/>
       <path id="DejaVuSans-5dee" d="M 319 -1131 
L 319 4513 
L 3519 4513 
L 3519 -1131 
L 319 -1131 
z
M 678 -775 
L 3163 -775 
L 3163 4153 
L 678 4153 
L 678 -775 
z
" transform="scale(0.015625)"/>
       <path id="DejaVuSans-503c" d="M 319 -1131 
L 319 4513 
L 3519 4513 
L 3519 -1131 
L 319 -1131 
z
M 678 -775 
L 3163 -775 
L 3163 4153 
L 678 4153 
L 678 -775 
z
" transform="scale(0.015625)"/>
      </defs>
      <use xlink:href="#DejaVuSans-6b8b"/>
      <use xlink:href="#DejaVuSans-5dee" transform="translate(60.009766 0)"/>
      <use xlink:href="#DejaVuSans-503c" transform="translate(120.019531 0)"/>
     </g>
    </g>
   </g>
   <g id="line2d_23">
    <path d="M 69.357202 42.632216 
L 69.633601 189.968943 
L 69.91 196.208812 
L 70.1864 161.316673 
L 70.462799 196.590904 
L 70.739198 201.811974 
L 71.015598 176.470658 
L 71.291997 188.568323 
L 71.568396 193.534664 
L 71.844796 184.875338 
L 72.121195 158.515201 
L 72.397594 196.972964 
L 72.673994 281.147243 
L 72.950393 197.864697 
L 73.226792 177.15624 
L 73.503191 226.475271 
L 73.779591 177.285921 
L 74.05599 179.690869 
L 74.332389 194.700391 
L 74.608789 159.534785 
L 74.885188 213.3398 
L 75.161587 158.4879 
L 75.437987 212.736986 
L 75.714386 243.654704 
L 75.990785 74.150155 
L 76.267185 136.423115 
L 76.543584 149.854236 
L 76.819983 218.019882 
L 77.096383 118.58387 
L 77.372782 192.911464 
L 77.649181 186.915635 
L 77.925581 196.697144 
L 78.20198 170.094248 
L 78.478379 214.221152 
L 78.754779 209.52814 
L 79.031178 158.166947 
L 79.307577 215.835395 
L 79.583977 174.284186 
L 79.860376 180.381358 
L 80.136775 189.878225 
L 80.413174 173.995721 
L 80.689574 176.103758 
L 80.965973 201.32181 
L 81.242372 215.023473 
L 81.518772 204.885249 
L 81.795171 220.260074 
L 82.07157 183.822551 
L 82.34797 257.691275 
L 82.624369 269.968964 
L 82.900768 193.841913 
L 83.177168 309.53795 
L 83.453567 205.228657 
L 83.729966 258.498647 
L 84.006366 209.951446 
L 84.282765 188.65343 
L 84.559164 217.106576 
L 84.835564 179.301162 
L 85.111963 190.513449 
L 85.388362 183.297193 
L 85.664762 150.214302 
L 85.941161 210.263071 
L 86.21756 217.13324 
L 86.49396 163.576149 
L 86.770359 159.632433 
L 87.046758 201.747176 
L 87.323157 168.543173 
L 87.599557 190.345179 
L 87.875956 168.304291 
L 88.152355 178.444705 
L 88.428755 171.663444 
L 88.705154 199.480625 
L 88.981553 157.03614 
L 89.257953 177.185419 
L 89.534352 205.96588 
L 89.810751 166.047988 
L 90.36355 200.160458 
L 90.639949 191.345153 
L 90.916349 192.560901 
L 91.192748 179.160361 
L 91.469147 181.68763 
L 92.021946 194.846775 
L 92.298345 158.23405 
L 92.574745 168.731319 
L 92.851144 201.442015 
L 93.127543 160.333022 
L 93.403943 191.519128 
L 93.680342 178.678703 
L 93.956741 186.498704 
L 94.23314 186.840184 
L 94.50954 189.825053 
L 94.785939 189.41317 
L 95.062338 183.929566 
L 95.338738 192.478052 
L 95.615137 189.607738 
L 95.891536 192.16248 
L 96.167936 187.437786 
L 96.444335 191.544781 
L 96.720734 189.25482 
L 96.997134 253.998049 
L 97.273533 277.540854 
L 97.549932 220.133287 
L 97.826332 218.773961 
L 98.37913 106.822263 
L 98.65553 120.155046 
L 98.931929 159.893965 
L 99.208328 122.440224 
L 99.484728 173.452706 
L 99.761127 157.887814 
L 100.037526 171.032301 
L 100.313925 155.119434 
L 100.590325 168.400176 
L 100.866724 176.065529 
L 101.143123 210.852908 
L 101.419523 167.525788 
L 101.695922 207.142081 
L 101.972321 204.800419 
L 102.248721 218.266807 
L 102.52512 215.129624 
L 102.801519 189.643916 
L 103.077919 210.888767 
L 103.630717 174.957976 
L 103.907117 133.640971 
L 104.183516 179.473628 
L 104.459915 166.882436 
L 104.736315 206.476342 
L 105.012714 228.938013 
L 105.289113 225.580465 
L 105.565513 198.785022 
L 105.841912 224.467514 
L 106.118311 167.476989 
L 106.394711 161.085778 
L 106.67111 225.309206 
L 106.947509 141.556008 
L 107.223908 200.074941 
L 107.500308 164.614424 
L 107.776707 180.746575 
L 108.053106 210.214038 
L 108.329506 188.889463 
L 108.882304 172.545043 
L 109.158704 230.510007 
L 109.435103 230.510375 
L 109.711502 229.804311 
L 109.987902 199.669718 
L 110.264301 188.643246 
L 110.5407 209.598959 
L 110.8171 203.326017 
L 111.093499 179.841899 
L 111.369898 179.760101 
L 111.646298 209.666593 
L 111.922697 195.354727 
L 112.199096 192.559869 
L 112.751895 164.214667 
L 113.028294 198.964075 
L 113.304694 171.534471 
L 113.581093 202.684533 
L 113.857492 254.923849 
L 114.133891 236.713398 
L 114.410291 231.19429 
L 114.68669 204.80251 
L 114.963089 95.322181 
L 115.239489 156.330339 
L 115.792287 153.381295 
L 116.068687 175.402457 
L 116.345086 164.220091 
L 116.621485 171.160424 
L 116.897885 218.909136 
L 117.174284 134.300673 
L 117.450683 165.859103 
L 117.727083 159.318175 
L 118.003482 194.885824 
L 118.279881 210.877919 
L 118.556281 182.02924 
L 118.83268 200.0035 
L 119.109079 294.687917 
L 119.661878 120.763305 
L 119.938277 178.450595 
L 120.214676 193.064514 
L 120.491076 155.518127 
L 120.767475 158.717749 
L 121.043874 150.153437 
L 121.320274 193.369392 
L 121.596673 208.546475 
L 121.873072 212.374109 
L 122.149472 352.860739 
L 122.425871 199.900979 
L 122.70227 230.616085 
L 122.97867 247.684519 
L 123.255069 147.336446 
L 123.531468 172.913677 
L 123.807868 94.717504 
L 124.084267 99.436437 
L 124.360666 167.906634 
L 124.637066 196.284491 
L 124.913465 170.177141 
L 125.189864 216.365647 
L 125.742663 131.432096 
L 126.019062 162.035003 
L 126.295462 226.574721 
L 126.571861 175.016751 
L 126.84826 164.474908 
L 127.124659 177.024523 
L 127.401059 256.803912 
L 127.677458 205.787282 
L 127.953857 189.022655 
L 128.230257 194.393845 
L 128.506656 193.347444 
L 128.783055 120.932185 
L 129.059455 143.826331 
L 129.335854 206.996331 
L 129.612253 121.719149 
L 129.888653 212.905775 
L 130.165052 227.981773 
L 130.441451 223.64965 
L 130.717851 214.304194 
L 130.99425 156.086191 
L 131.270649 162.922478 
L 131.547049 230.616739 
L 131.823448 219.505345 
L 132.099847 109.004148 
L 132.376247 196.170129 
L 132.652646 246.506234 
L 132.929045 245.872513 
L 133.205445 252.717903 
L 133.481844 208.871649 
L 133.758243 234.457152 
L 134.034642 214.446179 
L 134.311042 211.549439 
L 134.587441 196.086187 
L 134.86384 205.491832 
L 135.14024 180.398739 
L 135.416639 191.591519 
L 135.693038 216.665162 
L 135.969438 159.973585 
L 136.245837 187.49061 
L 136.522236 190.867278 
L 136.798636 166.702859 
L 137.075035 198.829451 
L 137.351434 175.613182 
L 137.627834 174.125764 
L 137.904233 205.41017 
L 138.180632 196.129095 
L 138.457032 173.96793 
L 138.733431 181.387004 
L 139.00983 136.456431 
L 139.28623 167.167916 
L 139.562629 173.919515 
L 139.839028 191.617154 
L 140.115428 188.072112 
L 140.391827 162.556988 
L 140.668226 219.418311 
L 140.944625 216.049032 
L 141.221025 153.251098 
L 141.497424 150.630993 
L 141.773823 231.550821 
L 142.326622 194.165468 
L 142.603021 153.342743 
L 142.879421 188.758639 
L 143.15582 178.982385 
L 143.432219 182.821286 
L 143.708619 189.798458 
L 143.985018 168.678873 
L 144.261417 92.650063 
L 144.537817 171.053024 
L 144.814216 174.19386 
L 145.090615 112.047155 
L 145.367015 149.579794 
L 145.643414 151.815973 
L 145.919813 220.245871 
L 146.196213 192.673547 
L 146.472612 179.161423 
L 146.749011 206.808132 
L 147.02541 195.792382 
L 147.30181 167.232356 
L 147.578209 232.716815 
L 147.854608 243.626916 
L 148.131008 194.526198 
L 148.407407 181.110238 
L 148.683806 206.805553 
L 148.960206 195.338102 
L 149.236605 158.934755 
L 149.789404 203.004859 
L 150.065803 169.156721 
L 150.342202 179.308525 
L 150.618602 147.944651 
L 150.895001 253.339882 
L 151.1714 173.821721 
L 151.724199 237.236221 
L 152.000598 189.310997 
L 152.553397 244.408689 
L 152.829796 242.191734 
L 153.106196 189.467176 
L 153.382595 182.777151 
L 153.935393 197.369298 
L 154.211793 199.051149 
L 154.488192 184.24255 
L 154.764591 200.105503 
L 155.040991 185.496621 
L 155.31739 194.348191 
L 155.593789 194.201237 
L 155.870189 149.41379 
L 156.146588 174.913128 
L 156.422987 160.363673 
L 156.975786 198.563501 
L 157.528585 183.674752 
L 157.804984 249.832949 
L 158.081383 127.369159 
L 158.357783 199.210895 
L 158.634182 181.553785 
L 158.910581 187.507046 
L 159.186981 157.422748 
L 159.46338 163.167447 
L 159.739779 177.078729 
L 160.016179 197.99729 
L 160.292578 181.734591 
L 160.568977 208.470694 
L 160.845376 175.273254 
L 161.398175 212.993213 
L 161.674574 180.47667 
L 161.950974 194.564124 
L 162.227373 194.961778 
L 162.503772 161.591751 
L 162.780172 153.802755 
L 163.056571 203.821294 
L 163.33297 196.97978 
L 163.60937 259.366987 
L 163.885769 139.673815 
L 164.162168 207.234217 
L 164.438568 192.12863 
L 164.714967 202.716072 
L 164.991366 165.668623 
L 165.544165 203.312024 
L 165.820564 186.837409 
L 166.096964 186.445035 
L 166.373363 181.299179 
L 166.649762 188.790361 
L 166.926161 141.48681 
L 167.202561 213.152909 
L 167.755359 147.864084 
L 168.031759 225.545542 
L 168.308158 161.254688 
L 168.584557 207.900968 
L 168.860957 186.958878 
L 169.137356 213.762205 
L 169.413755 221.259782 
L 169.690155 159.767517 
L 169.966554 181.825267 
L 170.242953 176.094635 
L 170.519353 182.753013 
L 170.795752 186.332757 
L 171.072151 152.772834 
L 171.348551 214.646388 
L 171.62495 192.504557 
L 171.901349 203.064585 
L 172.177749 156.545077 
L 172.454148 185.13503 
L 172.730547 192.590453 
L 173.006947 170.696575 
L 173.283346 173.878913 
L 173.559745 154.318345 
L 173.836144 151.700805 
L 174.112544 242.350922 
L 174.388943 143.904609 
L 174.665342 176.624153 
L 174.941742 234.323601 
L 175.218141 129.405247 
L 175.49454 148.011254 
L 175.77094 195.543058 
L 176.047339 193.314417 
L 176.323738 228.375085 
L 176.600138 184.364786 
L 177.152936 251.1668 
L 177.429336 204.45571 
L 177.705735 224.320327 
L 177.982134 192.401633 
L 178.258534 205.154521 
L 178.534933 209.606381 
L 178.811332 201.393543 
L 179.087732 197.168596 
L 179.364131 172.88808 
L 179.64053 187.733286 
L 179.91693 190.191066 
L 180.193329 189.470231 
L 180.469728 203.826401 
L 180.746127 159.785708 
L 181.022527 208.650464 
L 181.298926 177.064622 
L 181.575325 178.729294 
L 181.851725 203.997177 
L 182.128124 213.300362 
L 182.404523 178.429261 
L 182.680923 179.093479 
L 182.957322 196.110647 
L 183.510121 184.810272 
L 183.78652 193.368775 
L 184.062919 153.241865 
L 184.339319 188.595562 
L 184.615718 183.05376 
L 184.892117 165.892828 
L 185.444916 212.033139 
L 185.721315 210.619279 
L 185.997715 202.213381 
L 186.274114 198.391462 
L 186.550513 220.668216 
L 186.826913 188.523329 
L 187.103312 188.047737 
L 187.379711 199.937734 
L 187.65611 195.390751 
L 187.93251 182.525512 
L 188.208909 183.546828 
L 188.485308 168.088659 
L 188.761708 203.408926 
L 189.038107 188.807425 
L 189.314506 225.995573 
L 189.867305 153.744583 
L 190.143704 197.621739 
L 190.420104 173.329505 
L 190.696503 184.700891 
L 190.972902 190.219014 
L 191.249302 188.482208 
L 191.525701 190.065956 
L 191.8021 205.695407 
L 192.0785 200.215038 
L 192.354899 209.549497 
L 192.631298 181.476029 
L 192.907698 195.093091 
L 193.184097 166.331695 
L 193.460496 198.586488 
L 194.013295 186.506293 
L 194.289694 183.908379 
L 194.566093 194.421969 
L 194.842493 172.637778 
L 195.118892 209.244369 
L 195.395291 169.769138 
L 195.671691 163.391886 
L 195.94809 163.324441 
L 196.224489 169.867891 
L 196.500889 210.90177 
L 196.777288 166.866272 
L 197.330087 223.176136 
L 197.606486 158.324392 
L 197.882885 197.757028 
L 198.159285 183.795794 
L 198.435684 183.99904 
L 198.712083 168.396686 
L 198.988483 165.466679 
L 199.541281 174.375586 
L 199.817681 183.618483 
L 200.09408 181.256888 
L 200.370479 183.256427 
L 200.646878 161.036386 
L 200.923278 205.155222 
L 201.199677 169.430142 
L 201.476076 204.810644 
L 201.752476 185.588873 
L 202.028875 197.18044 
L 202.305274 200.313065 
L 202.581674 193.266611 
L 202.858073 193.87109 
L 203.134472 206.025933 
L 203.410872 169.700129 
L 203.687271 179.48328 
L 203.96367 157.626604 
L 204.24007 177.163493 
L 204.516469 185.549856 
L 204.792868 180.99145 
L 205.069268 204.321849 
L 205.345667 178.687245 
L 205.622066 209.149073 
L 205.898466 191.71561 
L 206.174865 205.49079 
L 206.451264 192.216677 
L 206.727664 202.144557 
L 207.004063 290.363698 
L 207.280462 95.939258 
L 207.556861 227.274102 
L 207.833261 194.678769 
L 208.10966 185.560889 
L 208.386059 166.747568 
L 208.662459 197.768077 
L 208.938858 200.715541 
L 209.215257 184.98952 
L 209.491657 180.994566 
L 209.768056 198.610434 
L 210.044455 187.577681 
L 210.320855 171.925505 
L 210.597254 217.483388 
L 210.873653 175.974854 
L 211.150053 208.215588 
L 211.426452 180.039233 
L 211.702851 199.415501 
L 211.979251 147.345139 
L 212.25565 177.907784 
L 212.532049 161.598751 
L 212.808449 188.442186 
L 213.084848 162.930883 
L 213.361247 199.898059 
L 213.637646 127.557924 
L 213.914046 230.036965 
L 214.190445 173.790701 
L 214.466844 208.776586 
L 214.743244 177.147131 
L 215.019643 193.597318 
L 215.296042 175.750888 
L 215.572442 182.249981 
L 215.848841 206.109359 
L 216.12524 207.573655 
L 216.40164 166.136957 
L 216.678039 215.142327 
L 216.954438 146.008846 
L 217.230838 236.71346 
L 217.507237 193.517095 
L 217.783636 199.782336 
L 218.060036 193.816781 
L 218.336435 209.294106 
L 218.612834 177.146204 
L 218.889234 242.643232 
L 219.165633 157.677896 
L 219.442032 193.362215 
L 219.718432 212.041296 
L 219.994831 160.424669 
L 220.27123 180.772707 
L 220.547629 256.939987 
L 220.824029 206.37907 
L 221.100428 230.99419 
L 221.653227 133.272036 
L 221.929626 231.582306 
L 222.206025 170.884957 
L 222.482425 170.164486 
L 222.758824 168.400061 
L 223.035223 189.434453 
L 223.311623 162.523266 
L 223.588022 200.855546 
L 223.864421 160.549313 
L 224.140821 153.154741 
L 224.41722 216.989516 
L 224.693619 193.809971 
L 224.970019 185.550577 
L 225.246418 191.243099 
L 225.522817 145.888353 
L 225.799217 194.840746 
L 226.075616 211.326399 
L 226.352015 174.046467 
L 226.628415 183.9579 
L 226.904814 216.880244 
L 227.181213 141.085207 
L 227.457612 191.280272 
L 227.734012 150.856879 
L 228.010411 183.81177 
L 228.28681 198.195108 
L 228.56321 180.423879 
L 228.839609 170.492092 
L 229.116008 204.044542 
L 229.392408 165.150321 
L 229.945206 213.601081 
L 230.221606 195.956806 
L 230.498005 321.601775 
L 230.774404 151.404487 
L 231.050804 133.92483 
L 231.327203 212.506647 
L 231.603602 180.232136 
L 231.880002 211.251234 
L 232.156401 157.401659 
L 232.4328 225.962458 
L 232.7092 164.007017 
L 232.985599 225.85926 
L 233.261998 157.755749 
L 233.538398 179.97365 
L 233.814797 179.643201 
L 234.091196 271.590777 
L 234.367595 167.08773 
L 234.643995 223.112511 
L 234.920394 226.828297 
L 235.196793 198.475289 
L 235.473193 147.080385 
L 235.749592 187.365004 
L 236.025991 185.06846 
L 236.302391 156.608264 
L 236.57879 199.838674 
L 237.131589 141.077774 
L 237.407988 241.43864 
L 237.960787 173.054636 
L 238.237186 195.146219 
L 238.513585 251.615124 
L 238.789985 153.219819 
L 239.066384 178.839894 
L 239.342783 179.03751 
L 239.619183 175.138591 
L 239.895582 188.247771 
L 240.171981 194.89279 
L 240.44838 141.817956 
L 240.72478 171.746724 
L 241.001179 178.286637 
L 241.277578 189.426792 
L 241.553978 193.481417 
L 241.830377 136.145877 
L 242.106776 215.207522 
L 242.383176 242.497613 
L 242.659575 202.768604 
L 242.935974 193.778877 
L 243.212374 212.227384 
L 243.488773 187.609428 
L 243.765172 145.035188 
L 244.041572 224.541551 
L 244.317971 169.901463 
L 244.59437 149.341587 
L 244.87077 167.458361 
L 245.147169 156.304067 
L 245.423568 235.260006 
L 245.699968 185.847484 
L 245.976367 182.190846 
L 246.252766 193.73031 
L 246.529166 179.595961 
L 246.805565 236.781114 
L 247.081964 121.959816 
L 247.358363 142.776368 
L 247.634763 256.431751 
L 247.911162 221.145374 
L 248.187561 142.083113 
L 248.463961 158.387968 
L 248.74036 247.96766 
L 249.016759 196.644748 
L 249.293159 231.911323 
L 249.845957 157.569294 
L 250.122357 174.285974 
L 250.398756 226.320069 
L 250.675155 157.135978 
L 250.951555 196.289388 
L 251.227954 207.575866 
L 251.780753 243.959713 
L 252.333551 141.018753 
L 252.609951 179.384036 
L 253.162749 197.541891 
L 253.439149 172.575208 
L 253.715548 222.949369 
L 253.991947 108.569793 
L 254.268346 170.735404 
L 254.544746 202.380271 
L 254.821145 189.206093 
L 255.097544 197.951372 
L 255.373944 170.618358 
L 255.650343 186.586696 
L 255.926742 192.80193 
L 256.203142 186.311356 
L 256.479541 215.41071 
L 256.75594 178.837969 
L 257.03234 196.522688 
L 257.308739 198.557654 
L 257.585138 158.143502 
L 257.861538 175.13103 
L 258.137937 245.681158 
L 258.690736 144.040168 
L 258.967135 207.652442 
L 259.243534 172.75074 
L 259.519934 188.233964 
L 259.796333 187.526475 
L 260.072732 152.195528 
L 260.349131 219.53369 
L 260.625531 202.471302 
L 260.90193 150.818543 
L 261.178329 187.363646 
L 261.454729 206.420276 
L 261.731128 210.67897 
L 262.007527 208.712624 
L 262.283927 127.929653 
L 262.560326 201.650324 
L 262.836725 204.784327 
L 263.113125 214.186471 
L 263.389524 177.511182 
L 263.665923 159.104491 
L 264.218722 242.622627 
L 264.495121 196.189038 
L 264.771521 123.486121 
L 265.324319 196.866837 
L 265.600719 185.135554 
L 265.877118 195.720516 
L 266.153517 175.444913 
L 266.706316 210.071883 
L 266.982715 186.599275 
L 267.259114 189.611092 
L 267.535514 175.837028 
L 267.811913 205.162406 
L 268.088312 156.662949 
L 268.364712 215.504306 
L 268.641111 233.986393 
L 268.91751 160.491535 
L 269.19391 184.366957 
L 269.470309 183.703582 
L 269.746708 195.010873 
L 270.023108 223.956086 
L 270.299507 143.382631 
L 270.575906 205.092056 
L 270.852306 173.868739 
L 271.128705 216.453156 
L 271.681504 150.57238 
L 271.957903 219.185462 
L 272.234302 175.791601 
L 272.510702 211.1689 
L 272.787101 149.65505 
L 273.0635 167.567265 
L 273.3399 178.04333 
L 273.616299 219.2637 
L 273.892698 243.267854 
L 274.169097 168.275177 
L 274.445497 143.37847 
L 274.721896 199.744151 
L 274.998295 166.042731 
L 275.274695 166.17068 
L 275.551094 229.93558 
L 275.827493 193.645577 
L 276.103893 200.371235 
L 276.380292 201.209546 
L 276.656691 197.178265 
L 276.933091 174.757186 
L 277.20949 187.132986 
L 277.485889 162.249807 
L 277.762289 161.448311 
L 278.038688 220.629237 
L 278.315087 222.82169 
L 278.591487 147.187891 
L 278.867886 229.541657 
L 279.144285 174.926127 
L 279.420685 207.350859 
L 279.697084 196.02587 
L 280.249883 197.301673 
L 280.526282 147.325301 
L 280.802681 241.964818 
L 281.07908 169.381263 
L 281.35548 154.658034 
L 281.908278 195.618678 
L 282.184678 192.459988 
L 282.461077 176.971511 
L 282.737476 211.768574 
L 283.013876 213.921666 
L 283.290275 184.560853 
L 283.566674 183.614202 
L 283.843074 150.333702 
L 284.119473 184.835077 
L 284.395872 176.289813 
L 284.672272 236.532815 
L 284.948671 181.888741 
L 285.22507 197.380491 
L 285.50147 167.085955 
L 285.777869 187.806074 
L 286.054268 191.847019 
L 286.330668 171.705831 
L 286.607067 202.563825 
L 286.883466 220.943289 
L 287.159865 149.122992 
L 287.436265 186.113917 
L 287.712664 199.844301 
L 287.989063 199.277837 
L 288.265463 170.72574 
L 288.818261 201.810884 
L 289.094661 208.07854 
L 289.37106 160.731636 
L 289.647459 167.903431 
L 289.923859 119.220722 
L 290.200258 221.478949 
L 290.476657 251.393341 
L 290.753057 182.126909 
L 291.029456 198.420412 
L 291.305855 167.611808 
L 291.582255 171.870986 
L 291.858654 223.900714 
L 292.135053 177.695776 
L 292.411453 175.752143 
L 292.687852 203.419573 
L 292.964251 155.16448 
L 293.240651 191.045479 
L 293.51705 173.876694 
L 293.793449 179.227477 
L 294.069848 180.543095 
L 294.346248 193.225476 
L 294.622647 166.111821 
L 294.899046 191.110848 
L 295.175446 174.180385 
L 295.451845 188.457671 
L 295.728244 212.096453 
L 296.004644 246.247784 
L 296.281043 162.402707 
L 296.557442 185.732393 
L 297.110241 247.97203 
L 297.38664 148.783684 
L 297.66304 210.217312 
L 297.939439 161.304078 
L 298.215838 218.80563 
L 298.492238 172.754878 
L 298.768637 167.71024 
L 299.045036 159.843575 
L 299.321436 162.927613 
L 299.597835 213.458186 
L 299.874234 219.985814 
L 300.150634 159.874525 
L 300.427033 168.040939 
L 300.703432 211.564302 
L 300.979831 175.453813 
L 301.256231 198.63847 
L 301.53263 191.247135 
L 301.809029 178.292042 
L 302.085429 196.018099 
L 302.361828 163.028267 
L 302.638227 205.132049 
L 302.914627 164.658415 
L 303.191026 188.482673 
L 303.467425 171.53264 
L 303.743825 175.330536 
L 304.020224 232.142409 
L 304.296623 197.741165 
L 304.573023 190.652656 
L 304.849422 202.961462 
L 305.125821 145.196181 
L 305.402221 219.439602 
L 305.67862 223.817624 
L 305.955019 168.570005 
L 306.231419 211.793381 
L 306.784217 156.889931 
L 307.060617 178.755502 
L 307.337016 160.743854 
L 307.613415 204.729833 
L 307.889814 168.6172 
L 308.166214 260.048034 
L 308.442613 198.734407 
L 308.719012 202.465311 
L 308.995412 240.249481 
L 309.271811 158.981493 
L 309.54821 192.410729 
L 309.82461 196.85013 
L 310.101009 159.464879 
L 310.377408 176.48001 
L 310.653808 268.954421 
L 310.930207 141.485746 
L 311.206606 204.081714 
L 311.483006 120.94639 
L 312.035804 203.738845 
L 312.312204 174.024127 
L 312.588603 210.917884 
L 312.865002 129.711742 
L 313.141402 184.976723 
L 313.417801 188.63125 
L 313.6942 195.62755 
L 313.970599 157.502295 
L 314.246999 217.595825 
L 314.523398 187.71981 
L 314.799797 181.936156 
L 315.076197 276.819874 
L 315.628995 153.792183 
L 316.181794 237.463236 
L 316.734593 169.531311 
L 317.010992 195.182444 
L 317.287391 170.824523 
L 317.84019 200.677838 
L 318.116589 148.141182 
L 318.392989 200.216093 
L 318.669388 165.179249 
L 319.222187 222.022727 
L 319.498586 139.867325 
L 319.774985 173.943022 
L 320.051385 173.000083 
L 320.327784 223.988564 
L 320.604183 122.776922 
L 320.880582 244.155102 
L 321.156982 181.412736 
L 321.433381 284.386247 
L 321.70978 136.226431 
L 321.98618 160.224703 
L 322.262579 158.777271 
L 322.538978 165.472767 
L 323.091777 229.42216 
L 323.368176 226.432848 
L 323.644576 183.530094 
L 323.920975 201.481601 
L 324.473774 156.412724 
L 324.750173 182.682141 
L 325.026572 149.949285 
L 325.302972 169.643102 
L 325.579371 164.115558 
L 325.85577 214.953966 
L 326.13217 179.267591 
L 326.408569 251.347271 
L 326.684968 142.818883 
L 326.961368 208.487323 
L 327.237767 184.135328 
L 327.514166 180.980378 
L 327.790565 182.904175 
L 328.066965 207.441189 
L 328.343364 151.287222 
L 328.619763 203.793098 
L 328.896163 151.858001 
L 329.448961 236.548514 
L 329.725361 178.261571 
L 330.00176 222.946476 
L 330.278159 177.153045 
L 330.830958 197.80205 
L 331.107357 147.15849 
L 331.383757 130.346649 
L 331.660156 279.91735 
L 331.936555 194.782688 
L 332.212955 237.721964 
L 332.489354 172.475919 
L 332.765753 231.965703 
L 333.042153 118.080871 
L 333.318552 239.31866 
L 333.594951 135.189311 
L 333.87135 241.440368 
L 334.14775 161.754583 
L 334.424149 281.675872 
L 334.700548 167.51353 
L 334.976948 244.942462 
L 335.253347 170.02818 
L 335.529746 208.646666 
L 335.806146 128.105585 
L 336.082545 185.133776 
L 336.358944 180.688062 
L 336.635344 216.750456 
L 336.911743 177.280294 
L 337.188142 205.112372 
L 337.464542 182.973476 
L 337.740941 210.05796 
L 338.01734 138.332775 
L 338.29374 157.280474 
L 338.570139 134.578057 
L 338.846538 192.555552 
L 339.122938 144.723622 
L 339.399337 164.693231 
L 339.675736 265.005567 
L 339.952136 154.687658 
L 340.228535 223.202072 
L 340.504934 155.3014 
L 340.781333 217.107321 
L 341.057733 148.09977 
L 341.334132 201.48397 
L 341.610531 117.533815 
L 341.886931 257.49958 
L 342.16333 203.290844 
L 342.439729 198.911799 
L 342.716129 188.796802 
L 342.992528 169.151734 
L 343.545327 193.814373 
L 343.821726 202.439446 
L 344.098125 158.693371 
L 344.374525 178.640117 
L 344.650924 188.89899 
L 344.927323 180.454343 
L 345.203723 183.934109 
L 345.480122 184.787755 
L 345.756521 211.469764 
L 346.032921 189.187652 
L 346.30932 132.87381 
L 346.585719 194.461561 
L 346.862119 200.363246 
L 347.138518 147.962654 
L 347.414917 160.419017 
L 348.244115 218.392802 
L 348.520514 192.117079 
L 348.796914 202.261648 
L 349.073313 225.920915 
L 349.349712 208.74591 
L 349.626112 172.766352 
L 349.902511 205.287318 
L 350.17891 202.805214 
L 350.731709 172.922336 
L 351.008108 223.872299 
L 351.284508 204.022572 
L 351.560907 207.956701 
L 351.837306 179.917627 
L 352.113706 132.593757 
L 352.390105 229.575756 
L 352.666504 143.82886 
L 352.942904 204.801055 
L 353.219303 208.291402 
L 353.495702 193.415775 
L 353.772102 192.213659 
L 354.048501 203.568146 
L 354.3249 196.52455 
L 354.601299 194.480089 
L 354.877699 169.644512 
L 355.154098 214.01317 
L 355.706897 177.075199 
L 355.983296 198.082914 
L 356.259695 203.526066 
L 356.536095 179.069651 
L 356.812494 137.459362 
L 357.088893 238.15181 
L 357.365293 148.183666 
L 357.641692 218.48049 
L 357.918091 193.698339 
L 358.194491 203.234729 
L 358.47089 183.60301 
L 358.747289 183.060432 
L 359.023689 174.346577 
L 359.300088 193.938432 
L 359.852887 166.703769 
L 360.405685 186.93111 
L 360.682084 213.018105 
L 360.958484 178.203906 
L 361.234883 193.003908 
L 361.511282 191.772037 
L 361.787682 169.642654 
L 362.064081 204.192955 
L 362.34048 160.986431 
L 362.61688 196.431578 
L 362.893279 193.36736 
L 363.169678 178.127601 
L 363.722477 161.829775 
L 363.998876 201.906367 
L 364.275276 163.534849 
L 364.551675 197.29389 
L 365.104474 171.04175 
L 365.380873 234.135865 
L 365.657272 138.953975 
L 365.933672 196.964118 
L 366.210071 227.072724 
L 366.48647 202.998243 
L 366.76287 202.355935 
L 367.039269 172.244153 
L 367.315668 195.402561 
L 367.592067 173.713355 
L 367.868467 179.012007 
L 368.144866 180.748926 
L 368.421265 202.027737 
L 368.697665 170.524509 
L 368.974064 220.387919 
L 369.526863 171.874726 
L 369.803262 197.320037 
L 370.079661 188.452631 
L 370.356061 199.029276 
L 370.63246 194.044577 
L 370.908859 164.664783 
L 371.185259 197.346911 
L 371.461658 190.055675 
L 371.738057 190.194624 
L 372.014457 172.349518 
L 372.290856 221.931218 
L 372.567255 215.534645 
L 372.843655 184.897698 
L 373.120054 191.809838 
L 373.396453 207.943427 
L 373.672853 200.684638 
L 373.949252 204.997148 
L 374.225651 227.063054 
L 374.50205 236.859489 
L 374.77845 169.924549 
L 375.054849 172.135628 
L 375.331248 161.322625 
L 375.607648 194.212625 
L 375.884047 170.587402 
L 376.160446 170.279881 
L 376.436846 175.633912 
L 376.713245 192.285377 
L 377.266044 179.279296 
L 377.542443 206.161428 
L 377.818842 166.448736 
L 378.095242 200.522256 
L 378.371641 219.349082 
L 378.64804 174.189839 
L 378.92444 175.119491 
L 379.200839 183.1369 
L 379.477238 194.916217 
L 379.753638 179.00903 
L 380.030037 195.707201 
L 380.306436 188.188578 
L 380.582835 202.34325 
L 380.859235 207.219264 
L 381.135634 166.549534 
L 381.412033 189.85754 
L 381.688433 176.285031 
L 381.964832 176.716228 
L 382.241231 138.166781 
L 382.517631 148.576413 
L 383.070429 213.358833 
L 383.346829 196.900007 
L 383.623228 208.633155 
L 383.899627 179.927857 
L 384.176027 170.896429 
L 384.728825 198.092094 
L 385.005225 199.47722 
L 385.558023 212.305348 
L 385.834423 200.581563 
L 386.110822 163.213917 
L 386.387221 214.095993 
L 386.663621 172.215772 
L 387.216419 163.719662 
L 387.492818 161.936137 
L 387.769218 183.353487 
L 388.045617 188.228041 
L 388.322016 184.462997 
L 388.598416 209.823323 
L 388.874815 205.991263 
L 389.151214 247.465921 
L 389.427614 159.925263 
L 389.704013 116.957089 
L 389.980412 175.830986 
L 390.256812 170.885096 
L 390.80961 271.807724 
L 391.08601 172.684034 
L 391.362409 185.681315 
L 391.638808 186.963944 
L 392.191607 200.964337 
L 392.468006 177.484521 
L 392.744406 201.321028 
L 393.020805 184.338427 
L 393.297204 188.306465 
L 393.573604 235.561092 
L 393.850003 165.897405 
L 394.126402 156.975671 
L 394.402801 188.498529 
L 394.679201 190.218656 
L 394.9556 181.722906 
L 395.231999 185.135186 
L 395.508399 185.351162 
L 395.784798 190.009174 
L 396.061197 225.273986 
L 396.337597 221.381162 
L 396.613996 164.021139 
L 396.890395 182.010651 
L 397.166795 184.16673 
L 397.443194 175.237127 
L 397.719593 197.337178 
L 397.995993 187.755005 
L 398.272392 196.257079 
L 398.548791 194.916591 
L 398.825191 178.426475 
L 399.10159 173.025293 
L 399.654389 202.588076 
L 399.930788 199.329953 
L 400.207187 176.409509 
L 400.483587 185.73336 
L 400.759986 179.132801 
L 401.036385 206.962042 
L 401.312784 172.494985 
L 401.589184 198.082132 
L 401.865583 177.277809 
L 402.141982 193.132497 
L 402.418382 176.30427 
L 402.694781 179.210646 
L 403.24758 203.992216 
L 403.523979 176.8854 
L 403.800378 177.497891 
L 404.076778 180.611503 
L 404.353177 185.235362 
L 404.629576 199.179467 
L 404.905976 180.835508 
L 405.458774 193.036174 
L 405.735174 246.870178 
L 406.011573 199.972972 
L 406.287972 190.898059 
L 406.564372 209.296225 
L 406.840771 196.497298 
L 407.11717 203.940716 
L 407.393569 182.021768 
L 407.669969 245.935558 
L 408.222767 106.460123 
L 408.499167 166.117114 
L 408.775566 159.252603 
L 409.051965 130.318766 
L 409.328365 128.150785 
L 409.881163 226.570209 
L 410.157563 195.394915 
L 410.433962 208.827428 
L 410.710361 185.143722 
L 410.986761 173.036884 
L 411.26316 209.317586 
L 411.539559 221.049179 
L 411.815959 200.064177 
L 412.092358 197.042704 
L 412.368757 205.820276 
L 412.645157 187.741359 
L 412.921556 179.175609 
L 413.197955 193.484803 
L 413.474355 176.850489 
L 413.750754 172.00013 
L 414.027153 192.611162 
L 414.303552 149.257482 
L 414.579952 202.20253 
L 414.856351 222.71817 
L 415.13275 184.277103 
L 415.40915 190.629588 
L 415.961948 217.256145 
L 416.238348 173.613004 
L 416.514747 155.234754 
L 416.791146 184.8203 
L 417.067546 178.617021 
L 417.343945 181.642202 
L 417.620344 171.935174 
L 417.896744 208.652846 
L 418.173143 215.99826 
L 418.449542 186.770537 
L 418.725942 189.629458 
L 419.002341 174.928154 
L 419.27874 258.000695 
L 419.55514 188.488405 
L 419.831539 171.651462 
L 420.107938 175.733171 
L 420.384338 224.209799 
L 420.660737 191.192473 
L 420.937136 190.171195 
L 421.213535 174.280833 
L 421.489935 209.65254 
L 422.042733 188.982036 
L 422.319133 170.785256 
L 422.595532 171.918673 
L 422.871931 193.165022 
L 423.148331 170.392825 
L 423.42473 203.291164 
L 423.701129 159.876426 
L 423.977529 196.809239 
L 424.253928 189.52454 
L 424.530327 171.109398 
L 424.806727 177.587631 
L 425.083126 180.634946 
L 425.359525 174.657189 
L 425.635925 199.274264 
L 425.912324 173.467596 
L 426.188723 187.514186 
L 426.465123 192.458556 
L 426.741522 184.164378 
L 427.017921 217.987769 
L 427.29432 166.262489 
L 427.57072 192.154338 
L 427.847119 195.570775 
L 428.123518 180.816651 
L 428.399918 219.817244 
L 428.952716 194.676156 
L 429.229116 188.531597 
L 429.505515 185.819042 
L 429.781914 225.45283 
L 430.058314 211.007796 
L 430.334713 135.126587 
L 430.887512 199.084343 
L 431.163911 190.688429 
L 431.44031 166.427124 
L 431.993109 191.70969 
L 432.269508 181.094438 
L 432.545908 191.831031 
L 432.822307 188.37954 
L 433.098706 201.215276 
L 433.375106 165.975514 
L 433.651505 196.179122 
L 433.927904 200.835365 
L 434.204303 174.171918 
L 434.480703 198.878681 
L 434.757102 175.884432 
L 435.033501 189.067536 
L 435.5863 197.878379 
L 435.862699 179.11242 
L 436.139099 199.896449 
L 436.415498 173.40799 
L 436.691897 191.426949 
L 436.968297 192.963046 
L 437.244696 192.073541 
L 437.521095 212.425854 
L 438.073894 181.273021 
L 438.350293 198.156746 
L 438.626693 234.367509 
L 438.903092 177.131951 
L 439.179491 178.561179 
L 439.455891 209.902024 
L 439.73229 174.649423 
L 440.285089 205.918961 
L 440.561488 196.686588 
L 440.837887 181.020067 
L 441.114286 179.071894 
L 441.390686 192.795991 
L 441.667085 180.107519 
L 441.943484 173.389495 
L 442.219884 183.706836 
L 442.496283 180.81522 
L 442.772682 182.174236 
L 443.049082 181.077118 
L 443.60188 200.744781 
L 443.87828 189.115016 
L 444.154679 183.073287 
L 444.707478 197.504969 
L 444.983877 184.215016 
L 445.260276 161.479855 
L 445.536676 198.42962 
L 445.813075 197.443189 
L 446.089474 185.267481 
L 446.365874 192.384855 
L 446.642273 185.192576 
L 446.918672 183.83163 
L 447.195072 198.596675 
L 447.471471 178.21583 
L 448.024269 192.461869 
L 448.300669 173.125728 
L 448.577068 179.12487 
L 448.853467 196.145981 
L 449.129867 196.797732 
L 449.406266 176.649669 
L 449.959065 200.310188 
L 450.235464 183.895331 
L 450.511863 183.04224 
L 450.788263 184.195873 
L 451.064662 190.621755 
L 451.341061 194.266267 
L 451.617461 193.205498 
L 451.89386 199.815249 
L 452.170259 187.950771 
L 452.446659 187.630935 
L 452.723058 196.221597 
L 452.999457 185.980869 
L 453.275857 186.768436 
L 453.552256 188.157394 
L 453.828655 186.171582 
L 454.105054 191.962311 
L 454.381454 191.061213 
L 454.934252 181.847937 
L 455.210652 191.237807 
L 455.487051 181.970981 
L 455.76345 185.027165 
L 456.03985 202.251061 
L 456.316249 184.923089 
L 456.592648 198.515229 
L 456.869048 170.668193 
L 457.145447 190.741415 
L 457.421846 191.747961 
L 457.698246 184.877958 
L 457.974645 189.400096 
L 458.251044 196.561797 
L 458.527444 177.760814 
L 458.803843 204.377917 
L 459.356642 109.115269 
L 459.633041 170.781748 
L 459.90944 196.9299 
L 460.18584 205.140771 
L 460.462239 182.678048 
L 461.015037 194.119449 
L 461.291437 191.213018 
L 461.567836 199.855064 
L 462.120635 175.448695 
L 462.397034 181.465865 
L 462.673433 204.000248 
L 462.949833 195.323793 
L 463.226232 174.610946 
L 463.502631 190.910991 
L 463.779031 200.449221 
L 464.05543 184.972868 
L 464.331829 183.471484 
L 464.608229 179.054423 
L 464.884628 205.757795 
L 465.161027 195.378205 
L 465.437427 180.397098 
L 465.713826 207.992283 
L 465.990225 211.985024 
L 466.266625 196.422791 
L 466.543024 174.19117 
L 466.819423 192.699961 
L 467.095823 191.680614 
L 467.372222 191.641851 
L 467.648621 189.027764 
L 468.20142 169.735115 
L 468.477819 192.906053 
L 468.754218 153.963883 
L 469.030618 303.89566 
L 469.307017 194.70515 
L 469.583416 145.597767 
L 469.859816 189.935822 
L 470.136215 206.35677 
L 470.412614 175.734685 
L 470.689014 178.621582 
L 470.965413 183.456446 
L 471.241812 197.102477 
L 471.518212 173.795012 
L 472.07101 203.616205 
L 472.34741 175.785525 
L 472.900208 205.190072 
L 473.176608 185.393923 
L 473.453007 182.055115 
L 473.729406 188.317935 
L 474.005805 185.901672 
L 474.282205 191.992476 
L 474.558604 190.200955 
L 474.835003 192.14709 
L 475.111403 180.755997 
L 475.387802 198.33327 
L 475.664201 149.173815 
L 475.940601 195.407922 
L 476.217 203.678301 
L 476.493399 183.158255 
L 476.769799 179.56278 
L 477.046198 189.414608 
L 477.322597 193.753935 
L 477.598997 193.235881 
L 477.875396 191.688495 
L 478.151795 197.256521 
L 478.428195 189.548039 
L 478.704594 199.339933 
L 478.980993 153.92955 
L 479.257393 194.716298 
L 479.533792 184.108611 
L 479.810191 183.565221 
L 480.086591 204.192933 
L 480.36299 257.673568 
L 480.915788 155.522255 
L 481.192188 144.972455 
L 481.468587 178.592829 
L 481.744986 176.827337 
L 482.021386 172.752721 
L 482.297785 173.717094 
L 482.574184 193.380921 
L 482.850584 200.712446 
L 483.126983 195.49266 
L 483.403382 169.13968 
L 483.679782 190.229364 
L 483.956181 190.677602 
L 484.23258 259.316787 
L 484.50898 206.773541 
L 484.785379 132.301548 
L 485.061778 215.025709 
L 485.338178 174.231913 
L 485.614577 159.22196 
L 485.890976 205.368886 
L 486.167376 182.206633 
L 486.720174 200.529963 
L 486.996574 157.027858 
L 487.272973 190.272331 
L 487.549372 182.37781 
L 487.825771 188.081275 
L 488.102171 217.506903 
L 488.37857 186.203687 
L 488.654969 204.081539 
L 488.931369 211.90428 
L 489.207768 185.653031 
L 489.484167 190.992454 
L 489.760567 231.861407 
L 490.036966 161.870787 
L 490.313365 155.249885 
L 490.589765 169.695541 
L 490.866164 152.051325 
L 491.142563 223.171722 
L 491.418963 171.721359 
L 491.695362 181.130179 
L 491.971761 222.25509 
L 492.248161 197.852861 
L 492.52456 187.217747 
L 492.800959 210.094201 
L 493.077359 160.750669 
L 493.353758 198.621671 
L 493.630157 171.264868 
L 493.906557 188.284699 
L 494.182956 172.260685 
L 494.459355 176.656562 
L 494.735754 218.69334 
L 495.012154 185.110638 
L 495.288553 182.317386 
L 495.564952 191.355343 
L 495.841352 190.453058 
L 496.117751 202.27941 
L 496.39415 169.11847 
L 496.67055 177.98838 
L 497.223348 207.095251 
L 497.499748 194.579943 
L 497.776147 190.893365 
L 498.052546 210.843122 
L 498.328946 184.976507 
L 498.605345 173.440316 
L 498.881744 182.019868 
L 499.158144 209.063395 
L 499.434543 143.127436 
L 499.710942 211.276997 
L 499.987342 209.323476 
L 500.263741 229.641897 
L 500.54014 144.343536 
L 500.816539 198.905311 
L 501.092939 183.891457 
L 501.369338 188.767316 
L 501.922137 167.89938 
L 502.198536 188.446345 
L 502.474935 162.610821 
L 502.751335 209.794688 
L 503.027734 189.927049 
L 503.304133 187.971581 
L 503.580533 180.809202 
L 503.856932 188.763982 
L 504.133331 190.52329 
L 504.409731 183.453807 
L 504.68613 136.545366 
L 504.962529 142.634641 
L 505.238929 191.195149 
L 505.515328 306.914344 
L 506.068127 178.623832 
L 506.344526 242.232259 
L 506.620925 130.184532 
L 506.897325 107.382777 
L 507.173724 183.899421 
L 507.450123 159.648024 
L 507.726522 176.297129 
L 508.279321 192.182968 
L 508.55572 185.648482 
L 508.83212 143.418392 
L 509.108519 147.297836 
L 509.384918 174.425933 
L 509.661318 133.577402 
L 509.937717 218.13137 
L 510.214116 256.311972 
L 510.490516 179.86044 
L 510.766915 184.396901 
L 511.043314 177.289413 
L 511.319714 182.677206 
L 511.596113 307.058128 
L 512.148912 198.080411 
L 512.425311 56.688557 
L 512.70171 179.020472 
L 512.97811 131.384097 
L 513.254509 167.329807 
L 513.530908 162.992762 
L 514.083707 195.502483 
L 514.360106 199.81745 
L 514.636505 224.038088 
L 514.912905 178.788167 
L 515.189304 176.041677 
L 515.465703 139.284404 
L 515.742103 213.331919 
L 516.018502 254.142545 
L 516.294901 151.76462 
L 516.571301 211.206324 
L 516.8477 227.766587 
L 517.124099 285.732004 
L 517.400499 226.836167 
L 517.676898 210.55944 
L 517.953297 261.76623 
L 518.229697 289.02839 
L 518.506096 199.077056 
L 518.782495 201.026547 
L 519.058895 148.35987 
L 519.335294 141.329814 
L 519.611693 159.840918 
L 520.164492 205.59273 
L 520.440891 168.340584 
L 520.71729 252.26641 
L 520.99369 213.627442 
L 521.270089 243.262262 
L 521.546488 91.235087 
L 521.822888 189.478816 
L 522.099287 154.705395 
L 522.375686 292.342967 
L 522.652086 134.84243 
L 522.928485 176.514897 
L 523.204884 172.868704 
L 523.481284 80.133994 
L 523.757683 203.477432 
L 524.034082 135.846664 
L 524.310482 218.59638 
L 524.86328 123.040292 
L 525.13968 159.73184 
L 525.416079 261.853856 
L 525.692478 196.810091 
L 525.968878 183.357141 
L 526.245277 235.162888 
L 526.521676 175.613163 
L 526.798076 192.153207 
L 527.074475 141.87454 
L 527.350874 142.345305 
L 527.627273 171.539699 
L 527.903673 103.269664 
L 528.180072 273.919493 
L 528.456471 123.291898 
L 528.732871 114.518042 
L 529.00927 247.550991 
L 529.285669 223.274537 
L 529.562069 278.482977 
L 529.838468 164.995322 
L 530.114867 220.156315 
L 530.391267 150.801858 
L 530.667666 204.08483 
L 530.944065 373.151534 
L 531.220465 135.268717 
L 531.496864 159.542366 
L 531.773263 137.023234 
L 532.049663 173.367517 
L 532.326062 157.003667 
L 532.602461 293.802151 
L 532.878861 283.585238 
L 533.15526 252.89977 
L 533.431659 250.479905 
L 533.708059 153.750175 
L 533.984458 147.212063 
L 534.260857 69.235161 
L 534.813656 266.320339 
L 535.090055 224.289016 
L 535.366454 99.168662 
L 535.919253 206.295908 
L 536.195652 102.814583 
L 536.472052 190.37965 
L 536.748451 237.154603 
L 537.02485 222.078369 
L 537.30125 219.349792 
L 537.577649 172.442034 
L 537.854048 246.35961 
L 538.130448 198.997404 
L 538.683246 250.222451 
L 538.959646 168.153037 
L 539.236045 140.379624 
L 539.512444 146.269609 
L 539.788844 244.808736 
L 540.065243 150.259654 
L 540.341642 255.154795 
L 540.618042 243.124943 
L 540.894441 96.524146 
L 541.17084 178.441642 
L 541.447239 105.312771 
L 541.723639 178.587968 
L 542.000038 213.798898 
L 542.276437 197.876791 
L 542.552837 129.94791 
L 542.829236 169.953668 
L 543.105635 141.255612 
L 543.658434 230.555834 
L 543.934833 162.18476 
L 544.487632 189.890521 
L 544.764031 140.859245 
L 545.040431 185.165017 
L 545.31683 192.188437 
L 545.593229 159.786552 
L 545.869629 230.576373 
L 546.146028 234.458229 
L 546.422427 214.795117 
L 546.698827 178.468075 
L 546.975226 171.516935 
L 547.528024 193.010172 
L 547.804424 185.911144 
L 548.080823 182.852383 
L 548.357222 196.321269 
L 548.633622 147.584643 
L 548.910021 282.722135 
L 549.18642 147.443012 
L 549.46282 185.193564 
L 549.739219 200.322179 
L 550.015618 179.23693 
L 550.292018 185.076747 
L 550.568417 188.060927 
L 550.844816 234.435385 
L 551.121216 253.679351 
L 551.397615 190.613417 
L 551.674014 196.863218 
L 551.950414 191.49662 
L 552.226813 165.944302 
L 552.503212 181.868006 
L 552.779612 159.495631 
L 553.056011 191.701978 
L 553.33241 151.275222 
L 553.60881 144.191682 
L 553.885209 196.596515 
L 554.161608 189.480489 
L 554.438007 177.9353 
L 554.714407 182.101739 
L 554.990806 196.318781 
L 555.267205 217.888571 
L 555.543605 188.837613 
L 555.820004 204.283842 
L 556.372803 181.629818 
L 556.649202 191.479572 
L 556.925601 184.293278 
L 557.202001 187.756425 
L 557.4784 221.049034 
L 557.754799 164.619576 
L 558.031199 170.004129 
L 558.307598 195.745294 
L 558.583997 201.362985 
L 558.860397 159.644744 
L 559.136796 194.486965 
L 559.413195 184.947141 
L 559.689595 158.949078 
L 559.965994 197.184701 
L 560.242393 180.355943 
L 560.518793 189.248996 
L 560.795192 170.796736 
L 561.071591 169.886628 
L 561.34799 193.363778 
L 561.62439 196.764723 
L 561.900789 224.571758 
L 562.177188 228.740489 
L 562.453588 171.559638 
L 562.729987 199.156787 
L 563.006386 160.387424 
L 563.282786 234.693043 
L 563.559185 224.637409 
L 563.835584 115.663983 
L 564.111984 173.645816 
L 564.388383 194.74846 
L 564.664782 177.551363 
L 564.941182 183.719206 
L 565.217581 169.30952 
L 565.49398 177.439604 
L 565.77038 226.588053 
L 566.046779 158.941642 
L 566.323178 187.268923 
L 566.599578 149.267493 
L 566.875977 153.617646 
L 567.152376 187.281983 
L 567.428775 150.920562 
L 567.705175 185.698134 
L 567.981574 238.885765 
L 568.257973 183.939863 
L 568.534373 172.413259 
L 568.810772 217.015928 
L 569.087171 213.755104 
L 569.363571 187.828913 
L 569.63997 206.202609 
L 569.916369 160.238545 
L 570.469168 219.767037 
L 570.745567 188.556151 
L 571.021967 131.772899 
L 571.298366 224.628737 
L 571.574765 189.377061 
L 571.851165 190.998242 
L 572.403963 156.926749 
L 572.680363 204.287493 
L 572.956762 188.507309 
L 573.233161 185.759994 
L 573.509561 198.580107 
L 573.78596 222.004823 
L 574.062359 196.105502 
L 574.338758 229.738321 
L 574.615158 155.949665 
L 574.891557 202.029306 
L 575.167956 208.396966 
L 575.444356 183.540477 
L 575.720755 127.124117 
L 576.273554 222.753782 
L 576.549953 196.150507 
L 576.826352 205.6562 
L 577.102752 201.723061 
L 577.379151 178.969408 
L 577.65555 219.887007 
L 577.93195 151.480658 
L 578.484748 184.810629 
L 578.761148 179.018291 
L 579.037547 199.208597 
L 579.313946 194.823046 
L 579.590346 195.075326 
L 579.866745 208.428875 
L 580.143144 194.461246 
L 580.419544 198.52329 
L 580.695943 190.688065 
L 580.972342 217.191528 
L 581.248741 189.46248 
L 581.525141 209.076841 
L 581.80154 178.760176 
L 582.077939 194.496102 
L 582.354339 217.216238 
L 582.630738 172.324774 
L 582.907137 153.162117 
L 583.183537 203.563459 
L 583.459936 169.58983 
L 583.736335 162.776868 
L 584.012735 190.533989 
L 584.289134 162.598815 
L 584.565533 194.674523 
L 584.841933 185.852324 
L 585.118332 227.17692 
L 585.394731 163.990821 
L 585.94753 221.256215 
L 586.223929 133.77777 
L 586.500329 176.470991 
L 586.776728 170.701211 
L 587.053127 175.901606 
L 587.329527 199.47033 
L 587.605926 204.968663 
L 588.158724 196.96762 
L 588.435124 195.006183 
L 588.711523 181.840298 
L 588.987922 204.201249 
L 589.264322 203.826787 
L 589.540721 205.537817 
L 589.81712 190.998945 
L 590.09352 189.433303 
L 590.369919 171.794964 
L 590.646318 192.538198 
L 590.922718 197.207094 
L 591.199117 185.718877 
L 591.475516 131.983682 
L 591.751916 156.831084 
L 592.028315 211.281909 
L 592.304714 183.944961 
L 592.581114 202.210123 
L 592.857513 209.129437 
L 593.133912 184.012339 
L 593.686711 193.532994 
L 593.96311 192.217095 
L 594.239509 208.614473 
L 594.515909 186.07915 
L 594.792308 218.128207 
L 595.068707 225.671943 
L 595.621506 132.390406 
L 596.174305 196.920943 
L 596.727103 181.027547 
L 597.003503 194.773699 
L 597.556301 168.209414 
L 598.1091 193.949491 
L 598.385499 167.605972 
L 598.661899 239.840488 
L 598.938298 198.383285 
L 599.214697 217.850735 
L 599.491097 219.536022 
L 599.767496 168.85228 
L 600.043895 232.015529 
L 600.320295 174.221746 
L 600.596694 167.238876 
L 600.873093 175.915898 
L 601.149492 168.2667 
L 601.425892 197.376303 
L 601.702291 163.638762 
L 601.97869 166.885114 
L 602.25509 215.385292 
L 602.531489 172.692359 
L 602.807888 165.589953 
L 603.084288 197.282064 
L 603.360687 182.440252 
L 603.637086 200.273053 
L 604.189885 178.379911 
L 604.742684 206.970173 
L 605.019083 157.981096 
L 605.295482 205.464682 
L 605.571882 227.944056 
L 605.848281 216.830691 
L 606.12468 192.880423 
L 606.40108 219.092733 
L 606.677479 187.618386 
L 606.953878 197.967328 
L 607.783076 159.530768 
L 608.059475 184.250058 
L 608.335875 171.974271 
L 608.612274 172.233306 
L 608.888673 191.796341 
L 609.165073 194.505874 
L 609.441472 146.27571 
L 609.717871 190.399701 
L 609.994271 181.577825 
L 610.27067 194.33757 
L 610.547069 188.971568 
L 610.823469 189.011836 
L 611.099868 205.437906 
L 611.376267 178.680215 
L 611.652667 203.668968 
L 611.929066 183.208012 
L 612.205465 174.300519 
L 612.481865 169.857113 
L 612.758264 202.713297 
L 613.034663 184.454455 
L 613.587462 191.38224 
L 613.863861 197.01458 
L 614.14026 198.953561 
L 614.41666 201.75976 
L 614.693059 180.023732 
L 614.969458 202.733815 
L 615.245858 181.25083 
L 615.522257 176.714958 
L 615.798656 168.018034 
L 616.075056 198.342226 
L 616.351455 183.253142 
L 616.627854 186.014122 
L 616.904254 190.812706 
L 617.180653 202.305959 
L 617.457052 193.789752 
L 617.733452 201.359583 
L 618.009851 187.626749 
L 618.28625 197.02259 
L 618.56265 188.452758 
L 619.115448 179.781467 
L 619.391848 202.757386 
L 619.668247 187.489559 
L 619.944646 264.465964 
L 620.221046 169.339501 
L 620.497445 189.249595 
L 620.773844 165.274643 
L 621.050243 193.913549 
L 621.326643 191.153903 
L 621.603042 167.296276 
L 621.879441 184.637346 
L 622.155841 183.934835 
L 622.43224 338.520136 
L 622.708639 205.109753 
L 622.985039 156.952185 
L 623.537837 220.52058 
L 623.814237 183.821862 
L 624.090636 195.205449 
L 624.367035 138.058284 
L 624.643435 169.980948 
L 625.196233 264.130222 
L 625.472633 206.499352 
L 625.749032 92.270134 
L 626.025431 161.572493 
L 626.301831 173.561804 
L 626.57823 125.520055 
L 626.854629 139.924727 
L 627.131029 176.112158 
L 627.407428 363.829899 
L 627.960226 163.685522 
L 628.236626 267.846326 
L 628.513025 172.960746 
L 628.789424 151.236221 
L 629.065824 112.653304 
L 629.342223 165.207981 
L 629.618622 166.942305 
L 629.895022 254.654108 
L 630.171421 178.628389 
L 630.44782 172.25428 
L 630.72422 123.924549 
L 631.000619 338.352803 
L 631.277018 156.956893 
L 631.829817 113.668557 
L 632.382616 225.017868 
L 632.659015 155.981208 
L 632.935414 168.756872 
L 633.211814 99.169983 
L 633.488213 166.203682 
L 633.764612 363.970793 
L 634.041012 112.862615 
L 634.317411 83.698806 
L 634.59381 202.358481 
L 634.870209 107.074301 
L 635.699407 263.293148 
L 635.975807 164.611225 
L 636.252206 214.361074 
L 636.528605 162.86397 
L 636.805005 216.309876 
L 637.081404 141.035151 
L 637.634203 219.899306 
L 637.910602 222.449772 
L 638.187001 150.944594 
L 638.463401 177.463388 
L 638.7398 191.079428 
L 639.016199 150.200108 
L 639.292599 219.599303 
L 639.568998 217.200756 
L 639.845397 177.413883 
L 640.121797 210.602135 
L 640.398196 168.487794 
L 640.674595 199.666441 
L 640.950994 108.501593 
L 641.227394 245.285171 
L 641.503793 320.040608 
L 641.780192 171.362056 
L 642.056592 188.316434 
L 642.60939 294.307182 
L 643.162189 175.334481 
L 643.438588 176.707242 
L 643.714988 109.552435 
L 643.991387 189.920757 
L 644.267786 224.610668 
L 644.544186 158.217111 
L 645.096984 181.720178 
L 645.373384 179.041506 
L 645.649783 202.418846 
L 645.926182 129.425523 
L 646.478981 202.394163 
L 646.75538 166.110741 
L 647.03178 207.208705 
L 647.308179 152.004243 
L 647.584578 214.834979 
L 647.860977 116.957033 
L 648.137377 207.480583 
L 648.413776 228.426486 
L 648.690175 204.607321 
L 648.966575 148.670512 
L 649.242974 142.201835 
L 649.519373 208.643392 
L 649.795773 214.398488 
L 650.072172 183.751336 
L 650.348571 174.066564 
L 650.624971 189.310246 
L 650.90137 158.555476 
L 651.177769 204.103166 
L 651.454169 152.883575 
L 651.730568 216.872213 
L 652.006967 202.243712 
L 652.283367 132.613237 
L 652.559766 197.779216 
L 652.836165 184.956944 
L 653.112565 219.439616 
L 653.388964 209.597371 
L 653.665363 189.20585 
L 653.941763 245.422443 
L 654.218162 131.606301 
L 654.494561 209.558033 
L 654.77096 181.49826 
L 655.04736 196.825816 
L 655.323759 195.95318 
L 655.600158 159.671283 
L 655.876558 303.702402 
L 656.152957 130.040175 
L 656.429356 186.623483 
L 656.705756 206.064677 
L 656.982155 178.660619 
L 657.258554 186.325046 
L 657.534954 165.492854 
L 657.811353 214.692391 
L 658.087752 192.430561 
L 658.364152 180.634511 
L 658.640551 189.642048 
L 658.91695 186.44806 
L 659.19335 175.756712 
L 659.469749 202.795242 
L 659.746148 183.286024 
L 660.022548 224.412 
L 660.298947 329.320984 
L 660.575346 142.062058 
L 660.851745 164.229994 
L 661.128145 157.495858 
L 661.680943 184.056791 
L 661.957343 169.724864 
L 662.233742 181.183389 
L 662.510141 157.117274 
L 662.786541 209.583564 
L 663.06294 185.851229 
L 663.339339 186.335558 
L 663.615739 146.101147 
L 664.168537 210.455727 
L 664.444937 203.64042 
L 664.721336 190.985984 
L 664.997735 195.516435 
L 665.274135 194.886417 
L 665.550534 193.626479 
L 665.826933 162.653841 
L 666.103333 208.909126 
L 666.379732 189.684951 
L 666.656131 182.871557 
L 666.932531 142.887568 
L 667.20893 199.891517 
L 667.485329 203.956029 
L 667.761728 205.004478 
L 668.038128 186.795091 
L 668.314527 204.450928 
L 668.590926 237.729518 
L 668.867326 153.629097 
L 669.143725 188.998971 
L 669.420124 183.914484 
L 669.696524 186.13093 
L 669.972923 180.318192 
L 670.249322 136.897412 
L 670.525722 199.671195 
L 670.802121 200.356829 
L 671.07852 199.109364 
L 671.631319 188.185571 
L 671.907718 181.218542 
L 672.184118 204.095653 
L 672.460517 190.055074 
L 672.736916 190.057723 
L 673.289715 188.835621 
L 673.566114 190.446459 
L 673.842514 188.568282 
L 674.118913 188.568282 
L 674.395312 187.153017 
L 674.671711 189.638052 
L 674.948111 185.103587 
L 674.948111 185.103587 
" clip-path="url(#p9676b05eee)" style="fill: none; stroke: #2878b5; stroke-width: 1.5; stroke-linecap: square"/>
   </g>
   <g id="line2d_24">
    <path d="M 39.077656 188.568282 
L 705.227656 188.568282 
" clip-path="url(#p9676b05eee)" style="fill: none; stroke-dasharray: 7.4,3.2; stroke-dashoffset: 0; stroke: #c82423; stroke-width: 2"/>
   </g>
   <g id="patch_3">
    <path d="M 39.077656 389.6775 
L 39.077656 26.10625 
" style="fill: none; stroke: #000000; stroke-width: 0.8; stroke-linejoin: miter; stroke-linecap: square"/>
   </g>
   <g id="patch_4">
    <path d="M 705.227656 389.6775 
L 705.227656 26.10625 
" style="fill: none; stroke: #000000; stroke-width: 0.8; stroke-linejoin: miter; stroke-linecap: square"/>
   </g>
   <g id="patch_5">
    <path d="M 39.077656 389.6775 
L 705.227656 389.6775 
" style="fill: none; stroke: #000000; stroke-width: 0.8; stroke-linejoin: miter; stroke-linecap: square"/>
   </g>
   <g id="patch_6">
    <path d="M 39.077656 26.10625 
L 705.227656 26.10625 
" style="fill: none; stroke: #000000; stroke-width: 0.8; stroke-linejoin: miter; stroke-linecap: square"/>
   </g>
   <g id="text_14">
    <!-- NH3_N_mg/L 预测残差分析 -->
    <g transform="translate(310.315156 16.10625) scale(0.12 -0.12)">
     <defs>
      <path id="DejaVuSans-4e" d="M 628 4666 
L 1478 4666 
L 3547 763 
L 3547 4666 
L 4159 4666 
L 4159 0 
L 3309 0 
L 1241 3903 
L 1241 0 
L 628 0 
L 628 4666 
z
" transform="scale(0.015625)"/>
      <path id="DejaVuSans-48" d="M 628 4666 
L 1259 4666 
L 1259 2753 
L 3553 2753 
L 3553 4666 
L 4184 4666 
L 4184 0 
L 3553 0 
L 3553 2222 
L 1259 2222 
L 1259 0 
L 628 0 
L 628 4666 
z
" transform="scale(0.015625)"/>
      <path id="DejaVuSans-33" d="M 2597 2516 
Q 3050 2419 3304 2112 
Q 3559 1806 3559 1356 
Q 3559 666 3084 287 
Q 2609 -91 1734 -91 
Q 1441 -91 1130 -33 
Q 819 25 488 141 
L 488 750 
Q 750 597 1062 519 
Q 1375 441 1716 441 
Q 2309 441 2620 675 
Q 2931 909 2931 1356 
Q 2931 1769 2642 2001 
Q 2353 2234 1838 2234 
L 1294 2234 
L 1294 2753 
L 1863 2753 
Q 2328 2753 2575 2939 
Q 2822 3125 2822 3475 
Q 2822 3834 2567 4026 
Q 2313 4219 1838 4219 
Q 1578 4219 1281 4162 
Q 984 4106 628 3988 
L 628 4550 
Q 988 4650 1302 4700 
Q 1616 4750 1894 4750 
Q 2613 4750 3031 4423 
Q 3450 4097 3450 3541 
Q 3450 3153 3228 2886 
Q 3006 2619 2597 2516 
z
" transform="scale(0.015625)"/>
      <path id="DejaVuSans-5f" d="M 3263 -1063 
L 3263 -1509 
L -63 -1509 
L -63 -1063 
L 3263 -1063 
z
" transform="scale(0.015625)"/>
      <path id="DejaVuSans-6d" d="M 3328 2828 
Q 3544 3216 3844 3400 
Q 4144 3584 4550 3584 
Q 5097 3584 5394 3201 
Q 5691 2819 5691 2113 
L 5691 0 
L 5113 0 
L 5113 2094 
Q 5113 2597 4934 2840 
Q 4756 3084 4391 3084 
Q 3944 3084 3684 2787 
Q 3425 2491 3425 1978 
L 3425 0 
L 2847 0 
L 2847 2094 
Q 2847 2600 2669 2842 
Q 2491 3084 2119 3084 
Q 1678 3084 1418 2786 
Q 1159 2488 1159 1978 
L 1159 0 
L 581 0 
L 581 3500 
L 1159 3500 
L 1159 2956 
Q 1356 3278 1631 3431 
Q 1906 3584 2284 3584 
Q 2666 3584 2933 3390 
Q 3200 3197 3328 2828 
z
" transform="scale(0.015625)"/>
      <path id="DejaVuSans-67" d="M 2906 1791 
Q 2906 2416 2648 2759 
Q 2391 3103 1925 3103 
Q 1463 3103 1205 2759 
Q 947 2416 947 1791 
Q 947 1169 1205 825 
Q 1463 481 1925 481 
Q 2391 481 2648 825 
Q 2906 1169 2906 1791 
z
M 3481 434 
Q 3481 -459 3084 -895 
Q 2688 -1331 1869 -1331 
Q 1566 -1331 1297 -1286 
Q 1028 -1241 775 -1147 
L 775 -588 
Q 1028 -725 1275 -790 
Q 1522 -856 1778 -856 
Q 2344 -856 2625 -561 
Q 2906 -266 2906 331 
L 2906 616 
Q 2728 306 2450 153 
Q 2172 0 1784 0 
Q 1141 0 747 490 
Q 353 981 353 1791 
Q 353 2603 747 3093 
Q 1141 3584 1784 3584 
Q 2172 3584 2450 3431 
Q 2728 3278 2906 2969 
L 2906 3500 
L 3481 3500 
L 3481 434 
z
" transform="scale(0.015625)"/>
      <path id="DejaVuSans-4c" d="M 628 4666 
L 1259 4666 
L 1259 531 
L 3531 531 
L 3531 0 
L 628 0 
L 628 4666 
z
" transform="scale(0.015625)"/>
      <path id="DejaVuSans-9884" d="M 319 -1131 
L 319 4513 
L 3519 4513 
L 3519 -1131 
L 319 -1131 
z
M 678 -775 
L 3163 -775 
L 3163 4153 
L 678 4153 
L 678 -775 
z
" transform="scale(0.015625)"/>
      <path id="DejaVuSans-6d4b" d="M 319 -1131 
L 319 4513 
L 3519 4513 
L 3519 -1131 
L 319 -1131 
z
M 678 -775 
L 3163 -775 
L 3163 4153 
L 678 4153 
L 678 -775 
z
" transform="scale(0.015625)"/>
      <path id="DejaVuSans-5206" d="M 319 -1131 
L 319 4513 
L 3519 4513 
L 3519 -1131 
L 319 -1131 
z
M 678 -775 
L 3163 -775 
L 3163 4153 
L 678 4153 
L 678 -775 
z
" transform="scale(0.015625)"/>
      <path id="DejaVuSans-6790" d="M 319 -1131 
L 319 4513 
L 3519 4513 
L 3519 -1131 
L 319 -1131 
z
M 678 -775 
L 3163 -775 
L 3163 4153 
L 678 4153 
L 678 -775 
z
" transform="scale(0.015625)"/>
     </defs>
     <use xlink:href="#DejaVuSans-4e"/>
     <use xlink:href="#DejaVuSans-48" transform="translate(74.804688 0)"/>
     <use xlink:href="#DejaVuSans-33" transform="translate(150 0)"/>
     <use xlink:href="#DejaVuSans-5f" transform="translate(213.623047 0)"/>
     <use xlink:href="#DejaVuSans-4e" transform="translate(263.623047 0)"/>
     <use xlink:href="#DejaVuSans-5f" transform="translate(338.427734 0)"/>
     <use xlink:href="#DejaVuSans-6d" transform="translate(388.427734 0)"/>
     <use xlink:href="#DejaVuSans-67" transform="translate(485.839844 0)"/>
     <use xlink:href="#DejaVuSans-2f" transform="translate(549.316406 0)"/>
     <use xlink:href="#DejaVuSans-4c" transform="translate(583.007812 0)"/>
     <use xlink:href="#DejaVuSans-20" transform="translate(638.720703 0)"/>
     <use xlink:href="#DejaVuSans-9884" transform="translate(670.507812 0)"/>
     <use xlink:href="#DejaVuSans-6d4b" transform="translate(730.517578 0)"/>
     <use xlink:href="#DejaVuSans-6b8b" transform="translate(790.527344 0)"/>
     <use xlink:href="#DejaVuSans-5dee" transform="translate(850.537109 0)"/>
     <use xlink:href="#DejaVuSans-5206" transform="translate(910.546875 0)"/>
     <use xlink:href="#DejaVuSans-6790" transform="translate(970.556641 0)"/>
    </g>
   </g>
   <g id="legend_1">
    <g id="patch_7">
     <path d="M 648.522031 59.726875 
L 698.927656 59.726875 
Q 700.727656 59.726875 700.727656 57.926875 
L 700.727656 32.40625 
Q 700.727656 30.60625 698.927656 30.60625 
L 648.522031 30.60625 
Q 646.722031 30.60625 646.722031 32.40625 
L 646.722031 57.926875 
Q 646.722031 59.726875 648.522031 59.726875 
z
" style="fill: #ffffff; opacity: 0.8; stroke: #cccccc; stroke-width: 0.5; stroke-linejoin: miter"/>
    </g>
    <g id="line2d_25">
     <path d="M 650.322031 37.894844 
L 659.322031 37.894844 
L 668.322031 37.894844 
" style="fill: none; stroke: #2878b5; stroke-width: 1.5; stroke-linecap: square"/>
    </g>
    <g id="text_15">
     <!-- 预测残差 -->
     <g transform="translate(675.522031 41.044844) scale(0.09 -0.09)">
      <use xlink:href="#DejaVuSans-9884"/>
      <use xlink:href="#DejaVuSans-6d4b" transform="translate(60.009766 0)"/>
      <use xlink:href="#DejaVuSans-6b8b" transform="translate(120.019531 0)"/>
      <use xlink:href="#DejaVuSans-5dee" transform="translate(180.029297 0)"/>
     </g>
    </g>
    <g id="line2d_26">
     <path d="M 650.322031 51.105156 
L 659.322031 51.105156 
L 668.322031 51.105156 
" style="fill: none; stroke-dasharray: 7.4,3.2; stroke-dashoffset: 0; stroke: #c82423; stroke-width: 2"/>
    </g>
    <g id="text_16">
     <!-- 零线 -->
     <g transform="translate(675.522031 54.255156) scale(0.09 -0.09)">
      <defs>
       <path id="DejaVuSans-96f6" d="M 319 -1131 
L 319 4513 
L 3519 4513 
L 3519 -1131 
L 319 -1131 
z
M 678 -775 
L 3163 -775 
L 3163 4153 
L 678 4153 
L 678 -775 
z
" transform="scale(0.015625)"/>
       <path id="DejaVuSans-7ebf" d="M 319 -1131 
L 319 4513 
L 3519 4513 
L 3519 -1131 
L 319 -1131 
z
M 678 -775 
L 3163 -775 
L 3163 4153 
L 678 4153 
L 678 -775 
z
" transform="scale(0.015625)"/>
      </defs>
      <use xlink:href="#DejaVuSans-96f6"/>
      <use xlink:href="#DejaVuSans-7ebf" transform="translate(60.009766 0)"/>
     </g>
    </g>
   </g>
  </g>
 </g>
 <defs>
  <clipPath id="p9676b05eee">
   <rect x="39.077656" y="26.10625" width="666.15" height="363.57125"/>
  </clipPath>
 </defs>
</svg>
